<?xml version="1.0" encoding="UTF-8" standalone="no"?>
<!DOCTYPE svg PUBLIC "-//W3C//DTD SVG 1.1//EN"
 "http://www.w3.org/Graphics/SVG/1.1/DTD/svg11.dtd">
<!-- Generated by graphviz version 12.2.1 (20241206.2353)
 -->
<!-- Title: FONTS/domini/scrabble/Bossa.java Pages: 1 -->
<svg width="943pt" height="108pt"
 viewBox="0.00 0.00 942.50 108.00" xmlns="http://www.w3.org/2000/svg" xmlns:xlink="http://www.w3.org/1999/xlink">
<g id="graph0" class="graph" transform="scale(1 1) rotate(0) translate(4 104)">
<title>FONTS/domini/scrabble/Bossa.java</title>
<!-- Node1 -->
<g id="Node000001" class="node">
<title>Node1</title>
<g id="a_Node000001"><a xlink:title=" ">
<polygon fill="#999999" stroke="#666666" points="621.75,-100 500.75,-100 500.75,-68 621.75,-68 621.75,-100"/>
<text text-anchor="start" x="508.75" y="-86.5" font-family="Helvetica,sans-Serif" font-size="10.00">FONTS/domini/scrabble</text>
<text text-anchor="middle" x="561.25" y="-74.5" font-family="Helvetica,sans-Serif" font-size="10.00">/Bossa.java</text>
</a>
</g>
</g>
<!-- Node2 -->
<g id="Node000002" class="node">
<title>Node2</title>
<g id="a_Node000002"><a xlink:title=" ">
<polygon fill="#e0e0e0" stroke="#999999" points="146.5,-26 0,-26 0,-6 146.5,-6 146.5,-26"/>
<text text-anchor="middle" x="73.25" y="-12.5" font-family="Helvetica,sans-Serif" font-size="10.00">domini.auxiliars.ColorTerminal</text>
</a>
</g>
</g>
<!-- Node1&#45;&gt;Node2 -->
<g id="edge1_Node000001_Node000002" class="edge">
<title>Node1&#45;&gt;Node2</title>
<g id="a_edge1_Node000001_Node000002"><a xlink:title=" ">
<path fill="none" stroke="#63b8ff" d="M500.57,-76.45C421.07,-67.62 277.42,-50.83 155.25,-32 148.3,-30.93 141.04,-29.73 133.83,-28.48"/>
<polygon fill="#63b8ff" stroke="#63b8ff" points="134.55,-25.05 124.1,-26.75 133.33,-31.94 134.55,-25.05"/>
</a>
</g>
</g>
<!-- Node3 -->
<g id="Node000003" class="node">
<title>Node3</title>
<g id="a_Node000003"><a xlink:title=" ">
<polygon fill="#e0e0e0" stroke="#999999" points="314.38,-26 164.12,-26 164.12,-6 314.38,-6 314.38,-26"/>
<text text-anchor="middle" x="239.25" y="-12.5" font-family="Helvetica,sans-Serif" font-size="10.00">domini.auxiliars.FastDeleteList</text>
</a>
</g>
</g>
<!-- Node1&#45;&gt;Node3 -->
<g id="edge2_Node000001_Node000003" class="edge">
<title>Node1&#45;&gt;Node3</title>
<g id="a_edge2_Node000001_Node000003"><a xlink:title=" ">
<path fill="none" stroke="#63b8ff" d="M500.31,-70.51C441.68,-58.49 353.72,-40.46 296.4,-28.71"/>
<polygon fill="#63b8ff" stroke="#63b8ff" points="297.34,-25.33 286.84,-26.76 295.94,-32.19 297.34,-25.33"/>
</a>
</g>
</g>
<!-- Node4 -->
<g id="Node000004" class="node">
<title>Node4</title>
<g id="a_Node000004"><a xlink:title=" ">
<polygon fill="#e0e0e0" stroke="#999999" points="472.5,-32 332,-32 332,0 472.5,0 472.5,-32"/>
<text text-anchor="start" x="340" y="-18.5" font-family="Helvetica,sans-Serif" font-size="10.00">domini.excepcions.Excepcio</text>
<text text-anchor="middle" x="402.25" y="-6.5" font-family="Helvetica,sans-Serif" font-size="10.00">ArxiuBossa</text>
</a>
</g>
</g>
<!-- Node1&#45;&gt;Node4 -->
<g id="edge3_Node000001_Node000004" class="edge">
<title>Node1&#45;&gt;Node4</title>
<g id="a_edge3_Node000001_Node000004"><a xlink:title=" ">
<path fill="none" stroke="#63b8ff" d="M523.97,-67.53C501.92,-58.37 473.77,-46.69 450.09,-36.86"/>
<polygon fill="#63b8ff" stroke="#63b8ff" points="451.55,-33.67 440.97,-33.07 448.86,-40.14 451.55,-33.67"/>
</a>
</g>
</g>
<!-- Node5 -->
<g id="Node000005" class="node">
<title>Node5</title>
<g id="a_Node000005"><a xlink:title=" ">
<polygon fill="#e0e0e0" stroke="#999999" points="631.5,-32 491,-32 491,0 631.5,0 631.5,-32"/>
<text text-anchor="start" x="499" y="-18.5" font-family="Helvetica,sans-Serif" font-size="10.00">domini.excepcions.Excepcio</text>
<text text-anchor="middle" x="561.25" y="-6.5" font-family="Helvetica,sans-Serif" font-size="10.00">ArxiuDiccionari</text>
</a>
</g>
</g>
<!-- Node1&#45;&gt;Node5 -->
<g id="edge4_Node000001_Node000005" class="edge">
<title>Node1&#45;&gt;Node5</title>
<g id="a_edge4_Node000001_Node000005"><a xlink:title=" ">
<path fill="none" stroke="#63b8ff" d="M561.25,-67.69C561.25,-60.53 561.25,-51.79 561.25,-43.59"/>
<polygon fill="#63b8ff" stroke="#63b8ff" points="564.75,-43.74 561.25,-33.74 557.75,-43.74 564.75,-43.74"/>
</a>
</g>
</g>
<!-- Node6 -->
<g id="Node000006" class="node">
<title>Node6</title>
<g id="a_Node000006"><a xlink:title=" ">
<polygon fill="#e0e0e0" stroke="#999999" points="790.5,-32 650,-32 650,0 790.5,0 790.5,-32"/>
<text text-anchor="start" x="658" y="-18.5" font-family="Helvetica,sans-Serif" font-size="10.00">domini.excepcions.Excepcio</text>
<text text-anchor="middle" x="720.25" y="-6.5" font-family="Helvetica,sans-Serif" font-size="10.00">Domini</text>
</a>
</g>
</g>
<!-- Node1&#45;&gt;Node6 -->
<g id="edge5_Node000001_Node000006" class="edge">
<title>Node1&#45;&gt;Node6</title>
<g id="a_edge5_Node000001_Node000006"><a xlink:title=" ">
<path fill="none" stroke="#63b8ff" d="M598.53,-67.53C620.58,-58.37 648.73,-46.69 672.41,-36.86"/>
<polygon fill="#63b8ff" stroke="#63b8ff" points="673.64,-40.14 681.53,-33.07 670.95,-33.67 673.64,-40.14"/>
</a>
</g>
</g>
<!-- Node7 -->
<g id="Node000007" class="node">
<title>Node7</title>
<g id="a_Node000007"><a xlink:title=" ">
<polygon fill="#e0e0e0" stroke="#999999" points="859.88,-26 808.62,-26 808.62,-6 859.88,-6 859.88,-26"/>
<text text-anchor="middle" x="834.25" y="-12.5" font-family="Helvetica,sans-Serif" font-size="10.00">java.io.*</text>
</a>
</g>
</g>
<!-- Node1&#45;&gt;Node7 -->
<g id="edge6_Node000001_Node000007" class="edge">
<title>Node1&#45;&gt;Node7</title>
<g id="a_edge6_Node000001_Node000007"><a xlink:title=" ">
<path fill="none" stroke="#63b8ff" d="M621.75,-73.38C670.37,-64.85 740.05,-50.83 799.25,-32 800.63,-31.56 802.03,-31.09 803.44,-30.59"/>
<polygon fill="#63b8ff" stroke="#63b8ff" points="804.69,-33.85 812.73,-26.95 802.15,-27.33 804.69,-33.85"/>
</a>
</g>
</g>
<!-- Node8 -->
<g id="Node000008" class="node">
<title>Node8</title>
<g id="a_Node000008"><a xlink:title=" ">
<polygon fill="#e0e0e0" stroke="#999999" points="934.5,-26 878,-26 878,-6 934.5,-6 934.5,-26"/>
<text text-anchor="middle" x="906.25" y="-12.5" font-family="Helvetica,sans-Serif" font-size="10.00">java.util.*</text>
</a>
</g>
</g>
<!-- Node1&#45;&gt;Node8 -->
<g id="edge7_Node000001_Node000008" class="edge">
<title>Node1&#45;&gt;Node8</title>
<g id="a_edge7_Node000001_Node000008"><a xlink:title=" ">
<path fill="none" stroke="#63b8ff" d="M622.02,-76.95C684.78,-69.78 785.13,-55.7 869.25,-32 871.08,-31.48 872.95,-30.9 874.82,-30.28"/>
<polygon fill="#63b8ff" stroke="#63b8ff" points="875.8,-33.65 883.98,-26.91 873.39,-27.08 875.8,-33.65"/>
</a>
</g>
</g>
</g>
</svg>
