<?xml version="1.0" encoding="UTF-8" standalone="no"?>
<!DOCTYPE svg PUBLIC "-//W3C//DTD SVG 1.1//EN"
 "http://www.w3.org/Graphics/SVG/1.1/DTD/svg11.dtd">
<!-- Generated by graphviz version 12.2.1 (20241206.2353)
 -->
<!-- Title: FONTS/controladors/CtrlDomini.java Pages: 1 -->
<svg width="1117pt" height="96pt"
 viewBox="0.00 0.00 1117.38 96.00" xmlns="http://www.w3.org/2000/svg" xmlns:xlink="http://www.w3.org/1999/xlink">
<g id="graph0" class="graph" transform="scale(1 1) rotate(0) translate(4 92)">
<title>FONTS/controladors/CtrlDomini.java</title>
<!-- Node1 -->
<g id="Node000001" class="node">
<title>Node1</title>
<g id="a_Node000001"><a xlink:title=" ">
<polygon fill="#999999" stroke="#666666" points="676.5,-88 570.5,-88 570.5,-56 676.5,-56 676.5,-88"/>
<text text-anchor="start" x="578.5" y="-74.5" font-family="Helvetica,sans-Serif" font-size="10.00">FONTS/controladors</text>
<text text-anchor="middle" x="623.5" y="-62.5" font-family="Helvetica,sans-Serif" font-size="10.00">/CtrlDomini.java</text>
</a>
</g>
</g>
<!-- Node2 -->
<g id="Node000002" class="node">
<title>Node2</title>
<g id="a_Node000002"><a xlink:title=" ">
<polygon fill="#e0e0e0" stroke="#999999" points="91,-20 0,-20 0,0 91,0 91,-20"/>
<text text-anchor="middle" x="45.5" y="-6.5" font-family="Helvetica,sans-Serif" font-size="10.00">domini.jugadors.*</text>
</a>
</g>
</g>
<!-- Node1&#45;&gt;Node2 -->
<g id="edge1_Node000001_Node000002" class="edge">
<title>Node1&#45;&gt;Node2</title>
<g id="a_edge1_Node000001_Node000002"><a xlink:title=" ">
<path fill="none" stroke="#63b8ff" d="M570.29,-66.96C477.59,-59.67 280.22,-43.05 102.77,-20.21"/>
<polygon fill="#63b8ff" stroke="#63b8ff" points="103.25,-16.75 92.88,-18.93 102.35,-23.69 103.25,-16.75"/>
</a>
</g>
</g>
<!-- Node3 -->
<g id="Node000003" class="node">
<title>Node3</title>
<g id="a_Node000003"><a xlink:title=" ">
<polygon fill="#e0e0e0" stroke="#999999" points="227.5,-20 109.5,-20 109.5,0 227.5,0 227.5,-20"/>
<text text-anchor="middle" x="168.5" y="-6.5" font-family="Helvetica,sans-Serif" font-size="10.00">domini.scrabble.Partida</text>
</a>
</g>
</g>
<!-- Node1&#45;&gt;Node3 -->
<g id="edge2_Node000001_Node000003" class="edge">
<title>Node1&#45;&gt;Node3</title>
<g id="a_edge2_Node000001_Node000003"><a xlink:title=" ">
<path fill="none" stroke="#63b8ff" d="M570.29,-64C497.87,-54.46 363.9,-36.82 239.11,-20.34"/>
<polygon fill="#63b8ff" stroke="#63b8ff" points="239.71,-16.89 229.34,-19.05 238.79,-23.83 239.71,-16.89"/>
</a>
</g>
</g>
<!-- Node4 -->
<g id="Node000004" class="node">
<title>Node4</title>
<g id="a_Node000004"><a xlink:title=" ">
<polygon fill="#e0e0e0" stroke="#999999" points="369.12,-20 245.88,-20 245.88,0 369.12,0 369.12,-20"/>
<text text-anchor="middle" x="307.5" y="-6.5" font-family="Helvetica,sans-Serif" font-size="10.00">domini.scrabble.Ranking</text>
</a>
</g>
</g>
<!-- Node1&#45;&gt;Node4 -->
<g id="edge3_Node000001_Node000004" class="edge">
<title>Node1&#45;&gt;Node4</title>
<g id="a_edge3_Node000001_Node000004"><a xlink:title=" ">
<path fill="none" stroke="#63b8ff" d="M570.25,-60.89C514.52,-50.31 427.13,-33.71 368.61,-22.6"/>
<polygon fill="#63b8ff" stroke="#63b8ff" points="369.28,-19.17 358.8,-20.74 367.97,-26.04 369.28,-19.17"/>
</a>
</g>
</g>
<!-- Node5 -->
<g id="Node000005" class="node">
<title>Node5</title>
<g id="a_Node000005"><a xlink:title=" ">
<polygon fill="#e0e0e0" stroke="#999999" points="494.25,-20 386.75,-20 386.75,0 494.25,0 494.25,-20"/>
<text text-anchor="middle" x="440.5" y="-6.5" font-family="Helvetica,sans-Serif" font-size="10.00">domini.sessio.Usuari</text>
</a>
</g>
</g>
<!-- Node1&#45;&gt;Node5 -->
<g id="edge4_Node000001_Node000005" class="edge">
<title>Node1&#45;&gt;Node5</title>
<g id="a_edge4_Node000001_Node000005"><a xlink:title=" ">
<path fill="none" stroke="#63b8ff" d="M576.37,-55.55C546.55,-45.77 508.43,-33.27 480.16,-24"/>
<polygon fill="#63b8ff" stroke="#63b8ff" points="481.49,-20.76 470.9,-20.97 479.31,-27.41 481.49,-20.76"/>
</a>
</g>
</g>
<!-- Node6 -->
<g id="Node000006" class="node">
<title>Node6</title>
<g id="a_Node000006"><a xlink:title=" ">
<polygon fill="#e0e0e0" stroke="#999999" points="614.25,-20 512.75,-20 512.75,0 614.25,0 614.25,-20"/>
<text text-anchor="middle" x="563.5" y="-6.5" font-family="Helvetica,sans-Serif" font-size="10.00">java.io.IOException</text>
</a>
</g>
</g>
<!-- Node1&#45;&gt;Node6 -->
<g id="edge5_Node000001_Node000006" class="edge">
<title>Node1&#45;&gt;Node6</title>
<g id="a_edge5_Node000001_Node000006"><a xlink:title=" ">
<path fill="none" stroke="#63b8ff" d="M608.05,-55.55C599.72,-47.22 589.41,-36.91 580.8,-28.3"/>
<polygon fill="#63b8ff" stroke="#63b8ff" points="583.52,-26.07 573.98,-21.48 578.57,-31.02 583.52,-26.07"/>
</a>
</g>
</g>
<!-- Node7 -->
<g id="Node000007" class="node">
<title>Node7</title>
<g id="a_Node000007"><a xlink:title=" ">
<polygon fill="#e0e0e0" stroke="#999999" points="734.25,-20 632.75,-20 632.75,0 734.25,0 734.25,-20"/>
<text text-anchor="middle" x="683.5" y="-6.5" font-family="Helvetica,sans-Serif" font-size="10.00">java.util.Collections</text>
</a>
</g>
</g>
<!-- Node1&#45;&gt;Node7 -->
<g id="edge6_Node000001_Node000007" class="edge">
<title>Node1&#45;&gt;Node7</title>
<g id="a_edge6_Node000001_Node000007"><a xlink:title=" ">
<path fill="none" stroke="#63b8ff" d="M638.95,-55.55C647.28,-47.22 657.59,-36.91 666.2,-28.3"/>
<polygon fill="#63b8ff" stroke="#63b8ff" points="668.43,-31.02 673.02,-21.48 663.48,-26.07 668.43,-31.02"/>
</a>
</g>
</g>
<!-- Node8 -->
<g id="Node000008" class="node">
<title>Node8</title>
<g id="a_Node000008"><a xlink:title=" ">
<polygon fill="#e0e0e0" stroke="#999999" points="846.88,-20 752.12,-20 752.12,0 846.88,0 846.88,-20"/>
<text text-anchor="middle" x="799.5" y="-6.5" font-family="Helvetica,sans-Serif" font-size="10.00">java.util.HashMap</text>
</a>
</g>
</g>
<!-- Node1&#45;&gt;Node8 -->
<g id="edge7_Node000001_Node000008" class="edge">
<title>Node1&#45;&gt;Node8</title>
<g id="a_edge7_Node000001_Node000008"><a xlink:title=" ">
<path fill="none" stroke="#63b8ff" d="M668.82,-55.55C697.38,-45.81 733.85,-33.38 761,-24.13"/>
<polygon fill="#63b8ff" stroke="#63b8ff" points="761.88,-27.52 770.21,-20.98 759.62,-20.9 761.88,-27.52"/>
</a>
</g>
</g>
<!-- Node9 -->
<g id="Node000009" class="node">
<title>Node9</title>
<g id="a_Node000009"><a xlink:title=" ">
<polygon fill="#e0e0e0" stroke="#999999" points="933.75,-20 865.25,-20 865.25,0 933.75,0 933.75,-20"/>
<text text-anchor="middle" x="899.5" y="-6.5" font-family="Helvetica,sans-Serif" font-size="10.00">java.util.List</text>
</a>
</g>
</g>
<!-- Node1&#45;&gt;Node9 -->
<g id="edge8_Node000001_Node000009" class="edge">
<title>Node1&#45;&gt;Node9</title>
<g id="a_edge8_Node000001_Node000009"><a xlink:title=" ">
<path fill="none" stroke="#63b8ff" d="M676.72,-59.43C728.05,-48.27 804.95,-31.55 853.65,-20.97"/>
<polygon fill="#63b8ff" stroke="#63b8ff" points="854.28,-24.41 863.31,-18.87 852.79,-17.57 854.28,-24.41"/>
</a>
</g>
</g>
<!-- Node10 -->
<g id="Node000010" class="node">
<title>Node10</title>
<g id="a_Node000010"><a xlink:title=" ">
<polygon fill="#e0e0e0" stroke="#999999" points="1023.25,-20 951.75,-20 951.75,0 1023.25,0 1023.25,-20"/>
<text text-anchor="middle" x="987.5" y="-6.5" font-family="Helvetica,sans-Serif" font-size="10.00">java.util.Map</text>
</a>
</g>
</g>
<!-- Node1&#45;&gt;Node10 -->
<g id="edge9_Node000001_Node000010" class="edge">
<title>Node1&#45;&gt;Node10</title>
<g id="a_edge9_Node000001_Node000010"><a xlink:title=" ">
<path fill="none" stroke="#63b8ff" d="M676.95,-63.1C738.1,-53.93 841.54,-37.96 940.55,-20.29"/>
<polygon fill="#63b8ff" stroke="#63b8ff" points="940.95,-23.78 950.17,-18.57 939.71,-16.89 940.95,-23.78"/>
</a>
</g>
</g>
<!-- Node11 -->
<g id="Node000011" class="node">
<title>Node11</title>
<g id="a_Node000011"><a xlink:title=" ">
<polygon fill="#e0e0e0" stroke="#999999" points="1109.38,-20 1041.62,-20 1041.62,0 1109.38,0 1109.38,-20"/>
<text text-anchor="middle" x="1075.5" y="-6.5" font-family="Helvetica,sans-Serif" font-size="10.00">java.util.Set</text>
</a>
</g>
</g>
<!-- Node1&#45;&gt;Node11 -->
<g id="edge10_Node000001_Node000011" class="edge">
<title>Node1&#45;&gt;Node11</title>
<g id="a_edge10_Node000001_Node000011"><a xlink:title=" ">
<path fill="none" stroke="#63b8ff" d="M676.97,-65.75C753.14,-57.96 897.46,-42.05 1030.12,-20.28"/>
<polygon fill="#63b8ff" stroke="#63b8ff" points="1030.49,-23.76 1039.79,-18.67 1029.35,-16.86 1030.49,-23.76"/>
</a>
</g>
</g>
</g>
</svg>
