<?xml version="1.0" encoding="UTF-8" standalone="no"?>
<!DOCTYPE svg PUBLIC "-//W3C//DTD SVG 1.1//EN"
 "http://www.w3.org/Graphics/SVG/1.1/DTD/svg11.dtd">
<!-- Generated by graphviz version 12.2.1 (20241206.2353)
 -->
<!-- Title: FONTS/controladors/CtrlPresentacio.java Pages: 1 -->
<svg width="1017pt" height="96pt"
 viewBox="0.00 0.00 1016.50 96.00" xmlns="http://www.w3.org/2000/svg" xmlns:xlink="http://www.w3.org/1999/xlink">
<g id="graph0" class="graph" transform="scale(1 1) rotate(0) translate(4 92)">
<title>FONTS/controladors/CtrlPresentacio.java</title>
<!-- Node1 -->
<g id="Node000001" class="node">
<title>Node1</title>
<g id="a_Node000001"><a xlink:title=" ">
<polygon fill="#999999" stroke="#666666" points="523.5,-88 416,-88 416,-56 523.5,-56 523.5,-88"/>
<text text-anchor="start" x="424" y="-74.5" font-family="Helvetica,sans-Serif" font-size="10.00">FONTS/controladors</text>
<text text-anchor="middle" x="469.75" y="-62.5" font-family="Helvetica,sans-Serif" font-size="10.00">/CtrlPresentacio.java</text>
</a>
</g>
</g>
<!-- Node2 -->
<g id="Node000002" class="node">
<title>Node2</title>
<g id="a_Node000002"><a xlink:title=" ">
<polygon fill="#e0e0e0" stroke="#999999" points="101.5,-20 0,-20 0,0 101.5,0 101.5,-20"/>
<text text-anchor="middle" x="50.75" y="-6.5" font-family="Helvetica,sans-Serif" font-size="10.00">java.io.IOException</text>
</a>
</g>
</g>
<!-- Node1&#45;&gt;Node2 -->
<g id="edge1_Node000001_Node000002" class="edge">
<title>Node1&#45;&gt;Node2</title>
<g id="a_edge1_Node000001_Node000002"><a xlink:title=" ">
<path fill="none" stroke="#63b8ff" d="M415.6,-63.44C347.57,-53.91 226.92,-36.92 113.15,-20.34"/>
<polygon fill="#63b8ff" stroke="#63b8ff" points="113.71,-16.89 103.31,-18.9 112.7,-23.81 113.71,-16.89"/>
</a>
</g>
</g>
<!-- Node3 -->
<g id="Node000003" class="node">
<title>Node3</title>
<g id="a_Node000003"><a xlink:title=" ">
<polygon fill="#e0e0e0" stroke="#999999" points="214.12,-20 119.38,-20 119.38,0 214.12,0 214.12,-20"/>
<text text-anchor="middle" x="166.75" y="-6.5" font-family="Helvetica,sans-Serif" font-size="10.00">java.util.HashMap</text>
</a>
</g>
</g>
<!-- Node1&#45;&gt;Node3 -->
<g id="edge2_Node000001_Node000003" class="edge">
<title>Node1&#45;&gt;Node3</title>
<g id="a_edge2_Node000001_Node000003"><a xlink:title=" ">
<path fill="none" stroke="#63b8ff" d="M415.58,-60.27C362.07,-49.68 280.47,-33.52 225.45,-22.62"/>
<polygon fill="#63b8ff" stroke="#63b8ff" points="226.44,-19.25 215.95,-20.74 225.08,-26.12 226.44,-19.25"/>
</a>
</g>
</g>
<!-- Node4 -->
<g id="Node000004" class="node">
<title>Node4</title>
<g id="a_Node000004"><a xlink:title=" ">
<polygon fill="#e0e0e0" stroke="#999999" points="301,-20 232.5,-20 232.5,0 301,0 301,-20"/>
<text text-anchor="middle" x="266.75" y="-6.5" font-family="Helvetica,sans-Serif" font-size="10.00">java.util.List</text>
</a>
</g>
</g>
<!-- Node1&#45;&gt;Node4 -->
<g id="edge3_Node000001_Node000004" class="edge">
<title>Node1&#45;&gt;Node4</title>
<g id="a_edge3_Node000001_Node000004"><a xlink:title=" ">
<path fill="none" stroke="#63b8ff" d="M417.47,-55.55C384.1,-45.68 341.35,-33.05 309.91,-23.76"/>
<polygon fill="#63b8ff" stroke="#63b8ff" points="310.91,-20.4 300.33,-20.93 308.93,-27.12 310.91,-20.4"/>
</a>
</g>
</g>
<!-- Node5 -->
<g id="Node000005" class="node">
<title>Node5</title>
<g id="a_Node000005"><a xlink:title=" ">
<polygon fill="#e0e0e0" stroke="#999999" points="394,-20 319.5,-20 319.5,0 394,0 394,-20"/>
<text text-anchor="middle" x="356.75" y="-6.5" font-family="Helvetica,sans-Serif" font-size="10.00">javax.swing.*</text>
</a>
</g>
</g>
<!-- Node1&#45;&gt;Node5 -->
<g id="edge4_Node000001_Node000005" class="edge">
<title>Node1&#45;&gt;Node5</title>
<g id="a_edge4_Node000001_Node000005"><a xlink:title=" ">
<path fill="none" stroke="#63b8ff" d="M440.65,-55.55C423.32,-46.35 401.45,-34.74 384.39,-25.68"/>
<polygon fill="#63b8ff" stroke="#63b8ff" points="386.28,-22.72 375.81,-21.12 383,-28.9 386.28,-22.72"/>
</a>
</g>
</g>
<!-- Node6 -->
<g id="Node000006" class="node">
<title>Node6</title>
<g id="a_Node000006"><a xlink:title=" ">
<polygon fill="#e0e0e0" stroke="#999999" points="527.62,-20 411.88,-20 411.88,0 527.62,0 527.62,-20"/>
<text text-anchor="middle" x="469.75" y="-6.5" font-family="Helvetica,sans-Serif" font-size="10.00">domini.jugadors.Avatar</text>
</a>
</g>
</g>
<!-- Node1&#45;&gt;Node6 -->
<g id="edge5_Node000001_Node000006" class="edge">
<title>Node1&#45;&gt;Node6</title>
<g id="a_edge5_Node000001_Node000006"><a xlink:title=" ">
<path fill="none" stroke="#63b8ff" d="M469.75,-55.55C469.75,-48.34 469.75,-39.66 469.75,-31.88"/>
<polygon fill="#63b8ff" stroke="#63b8ff" points="473.25,-31.92 469.75,-21.92 466.25,-31.92 473.25,-31.92"/>
</a>
</g>
</g>
<!-- Node7 -->
<g id="Node000007" class="node">
<title>Node7</title>
<g id="a_Node000007"><a xlink:title=" ">
<polygon fill="#e0e0e0" stroke="#999999" points="667.62,-20 545.88,-20 545.88,0 667.62,0 667.62,-20"/>
<text text-anchor="middle" x="606.75" y="-6.5" font-family="Helvetica,sans-Serif" font-size="10.00">domini.jugadors.Jugador</text>
</a>
</g>
</g>
<!-- Node1&#45;&gt;Node7 -->
<g id="edge6_Node000001_Node000007" class="edge">
<title>Node1&#45;&gt;Node7</title>
<g id="a_edge6_Node000001_Node000007"><a xlink:title=" ">
<path fill="none" stroke="#63b8ff" d="M505.03,-55.55C526.64,-46.09 554.06,-34.08 574.98,-24.91"/>
<polygon fill="#63b8ff" stroke="#63b8ff" points="576.13,-28.23 583.88,-21.02 573.32,-21.82 576.13,-28.23"/>
</a>
</g>
</g>
<!-- Node8 -->
<g id="Node000008" class="node">
<title>Node8</title>
<g id="a_Node000008"><a xlink:title=" ">
<polygon fill="#e0e0e0" stroke="#999999" points="794.25,-20 685.25,-20 685.25,0 794.25,0 794.25,-20"/>
<text text-anchor="middle" x="739.75" y="-6.5" font-family="Helvetica,sans-Serif" font-size="10.00">domini.scrabble.Fitxa</text>
</a>
</g>
</g>
<!-- Node1&#45;&gt;Node8 -->
<g id="edge7_Node000001_Node000008" class="edge">
<title>Node1&#45;&gt;Node8</title>
<g id="a_edge7_Node000001_Node000008"><a xlink:title=" ">
<path fill="none" stroke="#63b8ff" d="M523.74,-59C570.94,-48.51 639.11,-33.37 686.18,-22.9"/>
<polygon fill="#63b8ff" stroke="#63b8ff" points="686.89,-26.33 695.89,-20.75 685.37,-19.5 686.89,-26.33"/>
</a>
</g>
</g>
<!-- Node9 -->
<g id="Node000009" class="node">
<title>Node9</title>
<g id="a_Node000009"><a xlink:title=" ">
<polygon fill="#e0e0e0" stroke="#999999" points="930.75,-20 812.75,-20 812.75,0 930.75,0 930.75,-20"/>
<text text-anchor="middle" x="871.75" y="-6.5" font-family="Helvetica,sans-Serif" font-size="10.00">domini.scrabble.Partida</text>
</a>
</g>
</g>
<!-- Node1&#45;&gt;Node9 -->
<g id="edge8_Node000001_Node000009" class="edge">
<title>Node1&#45;&gt;Node9</title>
<g id="a_edge8_Node000001_Node000009"><a xlink:title=" ">
<path fill="none" stroke="#63b8ff" d="M523.97,-62.91C595.66,-52.21 722.15,-33.33 801.22,-21.53"/>
<polygon fill="#63b8ff" stroke="#63b8ff" points="801.65,-25 811.03,-20.06 800.62,-18.08 801.65,-25"/>
</a>
</g>
</g>
<!-- Node10 -->
<g id="Node000010" class="node">
<title>Node10</title>
<g id="a_Node000010"><a xlink:title=" ">
<polygon fill="#e0e0e0" stroke="#999999" points="1008.5,-20 949,-20 949,0 1008.5,0 1008.5,-20"/>
<text text-anchor="middle" x="978.75" y="-6.5" font-family="Helvetica,sans-Serif" font-size="10.00">interficie.*</text>
</a>
</g>
</g>
<!-- Node1&#45;&gt;Node10 -->
<g id="edge9_Node000001_Node000010" class="edge">
<title>Node1&#45;&gt;Node10</title>
<g id="a_edge9_Node000001_Node000010"><a xlink:title=" ">
<path fill="none" stroke="#63b8ff" d="M523.96,-67.22C609.68,-60.78 781.92,-45.99 937.42,-20.21"/>
<polygon fill="#63b8ff" stroke="#63b8ff" points="937.81,-23.69 947.09,-18.58 936.65,-16.79 937.81,-23.69"/>
</a>
</g>
</g>
</g>
</svg>
