<?xml version="1.0" encoding="UTF-8" standalone="no"?>
<!DOCTYPE svg PUBLIC "-//W3C//DTD SVG 1.1//EN"
 "http://www.w3.org/Graphics/SVG/1.1/DTD/svg11.dtd">
<!-- Generated by graphviz version 12.2.1 (20241206.2353)
 -->
<!-- Title: FONTS/controladors/CtrlPersistencia.java Pages: 1 -->
<svg width="1458pt" height="96pt"
 viewBox="0.00 0.00 1457.62 96.00" xmlns="http://www.w3.org/2000/svg" xmlns:xlink="http://www.w3.org/1999/xlink">
<g id="graph0" class="graph" transform="scale(1 1) rotate(0) translate(4 92)">
<title>FONTS/controladors/CtrlPersistencia.java</title>
<!-- Node1 -->
<g id="Node000001" class="node">
<title>Node1</title>
<g id="a_Node000001"><a xlink:title=" ">
<polygon fill="#999999" stroke="#666666" points="854.75,-88 745,-88 745,-56 854.75,-56 854.75,-88"/>
<text text-anchor="start" x="753" y="-74.5" font-family="Helvetica,sans-Serif" font-size="10.00">FONTS/controladors</text>
<text text-anchor="middle" x="799.88" y="-62.5" font-family="Helvetica,sans-Serif" font-size="10.00">/CtrlPersistencia.java</text>
</a>
</g>
</g>
<!-- Node2 -->
<g id="Node000002" class="node">
<title>Node2</title>
<g id="a_Node000002"><a xlink:title=" ">
<polygon fill="#e0e0e0" stroke="#999999" points="121.75,-20 0,-20 0,0 121.75,0 121.75,-20"/>
<text text-anchor="middle" x="60.88" y="-6.5" font-family="Helvetica,sans-Serif" font-size="10.00">domini.jugadors.Jugador</text>
</a>
</g>
</g>
<!-- Node1&#45;&gt;Node2 -->
<g id="edge1_Node000001_Node000002" class="edge">
<title>Node1&#45;&gt;Node2</title>
<g id="a_edge1_Node000001_Node000002"><a xlink:title=" ">
<path fill="none" stroke="#63b8ff" d="M744.72,-67.77C632.03,-60.95 367.01,-43.83 133.39,-20.21"/>
<polygon fill="#63b8ff" stroke="#63b8ff" points="133.75,-16.72 123.44,-19.19 133.04,-23.69 133.75,-16.72"/>
</a>
</g>
</g>
<!-- Node3 -->
<g id="Node000003" class="node">
<title>Node3</title>
<g id="a_Node000003"><a xlink:title=" ">
<polygon fill="#e0e0e0" stroke="#999999" points="263.88,-20 139.88,-20 139.88,0 263.88,0 263.88,-20"/>
<text text-anchor="middle" x="201.88" y="-6.5" font-family="Helvetica,sans-Serif" font-size="10.00">domini.jugadors.Maquina</text>
</a>
</g>
</g>
<!-- Node1&#45;&gt;Node3 -->
<g id="edge2_Node000001_Node000003" class="edge">
<title>Node1&#45;&gt;Node3</title>
<g id="a_edge2_Node000001_Node000003"><a xlink:title=" ">
<path fill="none" stroke="#63b8ff" d="M744.81,-66.21C650.88,-57.93 453.36,-39.99 275.61,-20.28"/>
<polygon fill="#63b8ff" stroke="#63b8ff" points="276.03,-16.8 265.7,-19.17 275.26,-23.76 276.03,-16.8"/>
</a>
</g>
</g>
<!-- Node4 -->
<g id="Node000004" class="node">
<title>Node4</title>
<g id="a_Node000004"><a xlink:title=" ">
<polygon fill="#e0e0e0" stroke="#999999" points="399.88,-20 281.88,-20 281.88,0 399.88,0 399.88,-20"/>
<text text-anchor="middle" x="340.88" y="-6.5" font-family="Helvetica,sans-Serif" font-size="10.00">domini.scrabble.Partida</text>
</a>
</g>
</g>
<!-- Node1&#45;&gt;Node4 -->
<g id="edge3_Node000001_Node000004" class="edge">
<title>Node1&#45;&gt;Node4</title>
<g id="a_edge3_Node000001_Node000004"><a xlink:title=" ">
<path fill="none" stroke="#63b8ff" d="M744.51,-63.81C670.96,-54.26 536.66,-36.78 411.52,-20.35"/>
<polygon fill="#63b8ff" stroke="#63b8ff" points="412.08,-16.89 401.71,-19.06 411.17,-23.83 412.08,-16.89"/>
</a>
</g>
</g>
<!-- Node5 -->
<g id="Node000005" class="node">
<title>Node5</title>
<g id="a_Node000005"><a xlink:title=" ">
<polygon fill="#e0e0e0" stroke="#999999" points="525.62,-20 418.12,-20 418.12,0 525.62,0 525.62,-20"/>
<text text-anchor="middle" x="471.88" y="-6.5" font-family="Helvetica,sans-Serif" font-size="10.00">domini.sessio.Usuari</text>
</a>
</g>
</g>
<!-- Node1&#45;&gt;Node5 -->
<g id="edge4_Node000001_Node000005" class="edge">
<title>Node1&#45;&gt;Node5</title>
<g id="a_edge4_Node000001_Node000005"><a xlink:title=" ">
<path fill="none" stroke="#63b8ff" d="M744.61,-60.89C686.51,-50.26 595.29,-33.58 534.55,-22.47"/>
<polygon fill="#63b8ff" stroke="#63b8ff" points="535.54,-19.09 525.07,-20.73 534.28,-25.97 535.54,-19.09"/>
</a>
</g>
</g>
<!-- Node6 -->
<g id="Node000006" class="node">
<title>Node6</title>
<g id="a_Node000006"><a xlink:title=" ">
<polygon fill="#e0e0e0" stroke="#999999" points="660.12,-20 543.62,-20 543.62,0 660.12,0 660.12,-20"/>
<text text-anchor="middle" x="601.88" y="-6.5" font-family="Helvetica,sans-Serif" font-size="10.00">persistencia.JugadorIO</text>
</a>
</g>
</g>
<!-- Node1&#45;&gt;Node6 -->
<g id="edge5_Node000001_Node000006" class="edge">
<title>Node1&#45;&gt;Node6</title>
<g id="a_edge5_Node000001_Node000006"><a xlink:title=" ">
<path fill="none" stroke="#63b8ff" d="M748.89,-55.55C716.33,-45.68 674.64,-33.05 643.97,-23.76"/>
<polygon fill="#63b8ff" stroke="#63b8ff" points="645.25,-20.49 634.66,-20.94 643.22,-27.18 645.25,-20.49"/>
</a>
</g>
</g>
<!-- Node7 -->
<g id="Node000007" class="node">
<title>Node7</title>
<g id="a_Node000007"><a xlink:title=" ">
<polygon fill="#e0e0e0" stroke="#999999" points="791.25,-20 678.5,-20 678.5,0 791.25,0 791.25,-20"/>
<text text-anchor="middle" x="734.88" y="-6.5" font-family="Helvetica,sans-Serif" font-size="10.00">persistencia.PartidaIO</text>
</a>
</g>
</g>
<!-- Node1&#45;&gt;Node7 -->
<g id="edge6_Node000001_Node000007" class="edge">
<title>Node1&#45;&gt;Node7</title>
<g id="a_edge6_Node000001_Node000007"><a xlink:title=" ">
<path fill="none" stroke="#63b8ff" d="M783.14,-55.55C774.01,-47.13 762.71,-36.69 753.33,-28.04"/>
<polygon fill="#63b8ff" stroke="#63b8ff" points="755.9,-25.65 746.18,-21.43 751.15,-30.79 755.9,-25.65"/>
</a>
</g>
</g>
<!-- Node8 -->
<g id="Node000008" class="node">
<title>Node8</title>
<g id="a_Node000008"><a xlink:title=" ">
<polygon fill="#e0e0e0" stroke="#999999" points="920.12,-20 809.62,-20 809.62,0 920.12,0 920.12,-20"/>
<text text-anchor="middle" x="864.88" y="-6.5" font-family="Helvetica,sans-Serif" font-size="10.00">persistencia.UsuariIO</text>
</a>
</g>
</g>
<!-- Node1&#45;&gt;Node8 -->
<g id="edge7_Node000001_Node000008" class="edge">
<title>Node1&#45;&gt;Node8</title>
<g id="a_edge7_Node000001_Node000008"><a xlink:title=" ">
<path fill="none" stroke="#63b8ff" d="M816.61,-55.55C825.74,-47.13 837.04,-36.69 846.42,-28.04"/>
<polygon fill="#63b8ff" stroke="#63b8ff" points="848.6,-30.79 853.57,-21.43 843.85,-25.65 848.6,-30.79"/>
</a>
</g>
</g>
<!-- Node9 -->
<g id="Node000009" class="node">
<title>Node9</title>
<g id="a_Node000009"><a xlink:title=" ">
<polygon fill="#e0e0e0" stroke="#999999" points="1001.5,-20 938.25,-20 938.25,0 1001.5,0 1001.5,-20"/>
<text text-anchor="middle" x="969.88" y="-6.5" font-family="Helvetica,sans-Serif" font-size="10.00">java.io.File</text>
</a>
</g>
</g>
<!-- Node1&#45;&gt;Node9 -->
<g id="edge8_Node000001_Node000009" class="edge">
<title>Node1&#45;&gt;Node9</title>
<g id="a_edge8_Node000001_Node000009"><a xlink:title=" ">
<path fill="none" stroke="#63b8ff" d="M843.65,-55.55C871.11,-45.86 906.15,-33.49 932.33,-24.25"/>
<polygon fill="#63b8ff" stroke="#63b8ff" points="933.28,-27.63 941.54,-21 930.95,-21.03 933.28,-27.63"/>
</a>
</g>
</g>
<!-- Node10 -->
<g id="Node000010" class="node">
<title>Node10</title>
<g id="a_Node000010"><a xlink:title=" ">
<polygon fill="#e0e0e0" stroke="#999999" points="1128.38,-20 1019.38,-20 1019.38,0 1128.38,0 1128.38,-20"/>
<text text-anchor="middle" x="1073.88" y="-6.5" font-family="Helvetica,sans-Serif" font-size="10.00">java.io.FilenameFilter</text>
</a>
</g>
</g>
<!-- Node1&#45;&gt;Node10 -->
<g id="edge9_Node000001_Node000010" class="edge">
<title>Node1&#45;&gt;Node10</title>
<g id="a_edge9_Node000001_Node000010"><a xlink:title=" ">
<path fill="none" stroke="#63b8ff" d="M854.99,-58.93C902.88,-48.44 971.85,-33.34 1019.52,-22.9"/>
<polygon fill="#63b8ff" stroke="#63b8ff" points="1020.05,-26.37 1029.07,-20.81 1018.55,-19.53 1020.05,-26.37"/>
</a>
</g>
</g>
<!-- Node11 -->
<g id="Node000011" class="node">
<title>Node11</title>
<g id="a_Node000011"><a xlink:title=" ">
<polygon fill="#e0e0e0" stroke="#999999" points="1247.62,-20 1146.12,-20 1146.12,0 1247.62,0 1247.62,-20"/>
<text text-anchor="middle" x="1196.88" y="-6.5" font-family="Helvetica,sans-Serif" font-size="10.00">java.io.IOException</text>
</a>
</g>
</g>
<!-- Node1&#45;&gt;Node11 -->
<g id="edge10_Node000001_Node000011" class="edge">
<title>Node1&#45;&gt;Node11</title>
<g id="a_edge10_Node000001_Node000011"><a xlink:title=" ">
<path fill="none" stroke="#63b8ff" d="M855.21,-62.68C919.8,-52.96 1030.17,-36.33 1134.35,-20.53"/>
<polygon fill="#63b8ff" stroke="#63b8ff" points="1134.85,-24 1144.21,-19.04 1133.8,-17.08 1134.85,-24"/>
</a>
</g>
</g>
<!-- Node12 -->
<g id="Node000012" class="node">
<title>Node12</title>
<g id="a_Node000012"><a xlink:title=" ">
<polygon fill="#e0e0e0" stroke="#999999" points="1360.25,-20 1265.5,-20 1265.5,0 1360.25,0 1360.25,-20"/>
<text text-anchor="middle" x="1312.88" y="-6.5" font-family="Helvetica,sans-Serif" font-size="10.00">java.util.HashMap</text>
</a>
</g>
</g>
<!-- Node1&#45;&gt;Node12 -->
<g id="edge11_Node000001_Node000012" class="edge">
<title>Node1&#45;&gt;Node12</title>
<g id="a_edge11_Node000001_Node000012"><a xlink:title=" ">
<path fill="none" stroke="#63b8ff" d="M855.2,-65.69C939.16,-57.45 1104.01,-40.52 1254.01,-20.34"/>
<polygon fill="#63b8ff" stroke="#63b8ff" points="1254.3,-23.83 1263.74,-19.02 1253.36,-16.89 1254.3,-23.83"/>
</a>
</g>
</g>
<!-- Node13 -->
<g id="Node000013" class="node">
<title>Node13</title>
<g id="a_Node000013"><a xlink:title=" ">
<polygon fill="#e0e0e0" stroke="#999999" points="1449.62,-20 1378.12,-20 1378.12,0 1449.62,0 1449.62,-20"/>
<text text-anchor="middle" x="1413.88" y="-6.5" font-family="Helvetica,sans-Serif" font-size="10.00">java.util.Map</text>
</a>
</g>
</g>
<!-- Node1&#45;&gt;Node13 -->
<g id="edge12_Node000001_Node000013" class="edge">
<title>Node1&#45;&gt;Node13</title>
<g id="a_edge12_Node000001_Node000013"><a xlink:title=" ">
<path fill="none" stroke="#63b8ff" d="M855.03,-68.04C954.99,-62.25 1172.88,-47.64 1366.81,-20.14"/>
<polygon fill="#63b8ff" stroke="#63b8ff" points="1367.17,-23.62 1376.58,-18.74 1366.18,-16.69 1367.17,-23.62"/>
</a>
</g>
</g>
</g>
</svg>
