<?xml version="1.0" encoding="UTF-8" standalone="no"?>
<!DOCTYPE svg PUBLIC "-//W3C//DTD SVG 1.1//EN"
 "http://www.w3.org/Graphics/SVG/1.1/DTD/svg11.dtd">
<!-- Generated by graphviz version 12.2.1 (20241206.2353)
 -->
<!-- Title: FONTS/domini/diccionari/DAWG.java Pages: 1 -->
<svg width="452pt" height="108pt"
 viewBox="0.00 0.00 451.88 108.00" xmlns="http://www.w3.org/2000/svg" xmlns:xlink="http://www.w3.org/1999/xlink">

<svg id="main" version="1.1" xmlns="http://www.w3.org/2000/svg" xmlns:xlink="http://www.w3.org/1999/xlink" xml:space="preserve">

<style type="text/css"><![CDATA[
.node, .edge {opacity: 0.7;}
.node.selected, .edge.selected {opacity: 1;}
.edge:hover path { stroke: red; }
.edge:hover polygon { stroke: red; fill: red; }
]]></style>
<script type="application/ecmascript" xlink:href="svg.min.js"/>
<svg id="graph" class="graph">
<g id="graph0" class="graph" transform="scale(1 1) rotate(0) translate(4 104)">
<title>FONTS/domini/diccionari/DAWG.java</title>
<!-- Node1 -->
<g id="Node000001" class="node">
<title>Node1</title>
<g id="a_Node000001"><a xlink:title=" ">
<polygon fill="#999999" stroke="#666666" points="287,-100 161.5,-100 161.5,-68 287,-68 287,-100"/>
<text text-anchor="start" x="169.5" y="-86.5" font-family="Helvetica,sans-Serif" font-size="10.00">FONTS/domini/diccionari</text>
<text text-anchor="middle" x="224.25" y="-74.5" font-family="Helvetica,sans-Serif" font-size="10.00">/DAWG.java</text>
</a>
</g>
</g>
<!-- Node2 -->
<g id="Node000002" class="node">
<title>Node2</title>
<g id="a_Node000002"><a xlink:title=" ">
<polygon fill="#e0e0e0" stroke="#999999" points="56.5,-26 0,-26 0,-6 56.5,-6 56.5,-26"/>
<text text-anchor="middle" x="28.25" y="-12.5" font-family="Helvetica,sans-Serif" font-size="10.00">java.util.*</text>
</a>
</g>
</g>
<!-- Node1&#45;&gt;Node2 -->
<g id="edge1_Node000001_Node000002" class="edge">
<title>Node1&#45;&gt;Node2</title>
<g id="a_edge1_Node000001_Node000002"><a xlink:title=" ">
<path fill="none" stroke="#63b8ff" d="M173.45,-67.51C142.34,-57.79 101.8,-44.74 66.25,-32 64.9,-31.52 63.52,-31.01 62.13,-30.5"/>
<polygon fill="#63b8ff" stroke="#63b8ff" points="63.48,-27.27 52.89,-26.98 60.99,-33.81 63.48,-27.27"/>
</a>
</g>
</g>
<!-- Node3 -->
<g id="Node000003" class="node">
<title>Node3</title>
<g id="a_Node000003"><a xlink:title=" ">
<polygon fill="#e0e0e0" stroke="#999999" points="215.5,-32 75,-32 75,0 215.5,0 215.5,-32"/>
<text text-anchor="start" x="83" y="-18.5" font-family="Helvetica,sans-Serif" font-size="10.00">domini.excepcions.Excepcio</text>
<text text-anchor="middle" x="145.25" y="-6.5" font-family="Helvetica,sans-Serif" font-size="10.00">ArxiuDiccionari</text>
</a>
</g>
</g>
<!-- Node1&#45;&gt;Node3 -->
<g id="edge2_Node000001_Node000003" class="edge">
<title>Node1&#45;&gt;Node3</title>
<g id="a_edge2_Node000001_Node000003"><a xlink:title=" ">
<path fill="none" stroke="#63b8ff" d="M205.93,-67.69C195.93,-59.34 183.36,-48.84 172.26,-39.56"/>
<polygon fill="#63b8ff" stroke="#63b8ff" points="174.83,-37.15 164.91,-33.42 170.34,-42.52 174.83,-37.15"/>
</a>
</g>
</g>
<!-- Node4 -->
<g id="Node000004" class="node">
<title>Node4</title>
<g id="a_Node000004"><a xlink:title=" ">
<polygon fill="#e0e0e0" stroke="#999999" points="374.5,-32 234,-32 234,0 374.5,0 374.5,-32"/>
<text text-anchor="start" x="242" y="-18.5" font-family="Helvetica,sans-Serif" font-size="10.00">domini.excepcions.Excepcio</text>
<text text-anchor="middle" x="304.25" y="-6.5" font-family="Helvetica,sans-Serif" font-size="10.00">Domini</text>
</a>
</g>
</g>
<!-- Node1&#45;&gt;Node4 -->
<g id="edge3_Node000001_Node000004" class="edge">
<title>Node1&#45;&gt;Node4</title>
<g id="a_edge3_Node000001_Node000004"><a xlink:title=" ">
<path fill="none" stroke="#63b8ff" d="M242.8,-67.69C252.93,-59.34 265.66,-48.84 276.9,-39.56"/>
<polygon fill="#63b8ff" stroke="#63b8ff" points="278.86,-42.48 284.35,-33.42 274.41,-37.08 278.86,-42.48"/>
</a>
</g>
</g>
<!-- Node5 -->
<g id="Node000005" class="node">
<title>Node5</title>
<g id="a_Node000005"><a xlink:title=" ">
<polygon fill="#e0e0e0" stroke="#999999" points="443.88,-26 392.62,-26 392.62,-6 443.88,-6 443.88,-26"/>
<text text-anchor="middle" x="418.25" y="-12.5" font-family="Helvetica,sans-Serif" font-size="10.00">java.io.*</text>
</a>
</g>
</g>
<!-- Node1&#45;&gt;Node5 -->
<g id="edge4_Node000001_Node000005" class="edge">
<title>Node1&#45;&gt;Node5</title>
<g id="a_edge4_Node000001_Node000005"><a xlink:title=" ">
<path fill="none" stroke="#63b8ff" d="M276.59,-67.57C307.81,-58.04 348.08,-45.14 383.25,-32 384.4,-31.57 385.56,-31.13 386.73,-30.67"/>
<polygon fill="#63b8ff" stroke="#63b8ff" points="387.94,-33.96 395.88,-26.94 385.3,-27.47 387.94,-33.96"/>
</a>
</g>
</g>
</g>
</svg>
</svg>

<style type='text/css'>
<![CDATA[
[data-mouse-over-selected='false'] { opacity: 0.7; }
[data-mouse-over-selected='true']  { opacity: 1.0; }
]]>
</style>
<script type="application/ecmascript"><![CDATA[
document.addEventListener('DOMContentLoaded', (event) => {
  highlightEdges();
  highlightAdjacentNodes();
});
]]></script>
</svg>
