<?xml version="1.0" encoding="UTF-8" standalone="no"?>
<!DOCTYPE svg PUBLIC "-//W3C//DTD SVG 1.1//EN"
 "http://www.w3.org/Graphics/SVG/1.1/DTD/svg11.dtd">
<!-- Generated by graphviz version 12.2.1 (20241206.2353)
 -->
<!-- Title: FONTS/drivers/Driver.java Pages: 1 -->
<svg width="2242pt" height="96pt"
 viewBox="0.00 0.00 2242.00 96.00" xmlns="http://www.w3.org/2000/svg" xmlns:xlink="http://www.w3.org/1999/xlink">
<g id="graph0" class="graph" transform="scale(1 1) rotate(0) translate(4 92)">
<title>FONTS/drivers/Driver.java</title>
<!-- Node1 -->
<g id="Node000001" class="node">
<title>Node1</title>
<g id="a_Node000001"><a xlink:title=" ">
<polygon fill="#999999" stroke="#666666" points="1115.5,-88 983.25,-88 983.25,-68 1115.5,-68 1115.5,-88"/>
<text text-anchor="middle" x="1049.38" y="-74.5" font-family="Helvetica,sans-Serif" font-size="10.00">FONTS/drivers/Driver.java</text>
</a>
</g>
</g>
<!-- Node2 -->
<g id="Node000002" class="node">
<title>Node2</title>
<g id="a_Node000002"><a xlink:title=" ">
<polygon fill="#e0e0e0" stroke="#999999" points="118.75,-26 0,-26 0,-6 118.75,-6 118.75,-26"/>
<text text-anchor="middle" x="59.38" y="-12.5" font-family="Helvetica,sans-Serif" font-size="10.00">controladors.CtrlDomini</text>
</a>
</g>
</g>
<!-- Node1&#45;&gt;Node2 -->
<g id="edge1_Node000001_Node000002" class="edge">
<title>Node1&#45;&gt;Node2</title>
<g id="a_edge1_Node000001_Node000002"><a xlink:title=" ">
<path fill="none" stroke="#63b8ff" d="M982.86,-77.5C830.81,-77.84 446.38,-74.04 128.38,-32 121.91,-31.15 115.16,-30 108.51,-28.72"/>
<polygon fill="#63b8ff" stroke="#63b8ff" points="109.48,-25.34 98.98,-26.77 108.08,-32.2 109.48,-25.34"/>
</a>
</g>
</g>
<!-- Node3 -->
<g id="Node000003" class="node">
<title>Node3</title>
<g id="a_Node000003"><a xlink:title=" ">
<polygon fill="#e0e0e0" stroke="#999999" points="255.75,-26 137,-26 137,-6 255.75,-6 255.75,-26"/>
<text text-anchor="middle" x="196.38" y="-12.5" font-family="Helvetica,sans-Serif" font-size="10.00">controladors.CtrlPartida</text>
</a>
</g>
</g>
<!-- Node1&#45;&gt;Node3 -->
<g id="edge2_Node000001_Node000003" class="edge">
<title>Node1&#45;&gt;Node3</title>
<g id="a_edge2_Node000001_Node000003"><a xlink:title=" ">
<path fill="none" stroke="#63b8ff" d="M982.96,-76.69C847.42,-75.29 529.46,-68.06 265.38,-32 258.99,-31.13 252.33,-29.98 245.76,-28.71"/>
<polygon fill="#63b8ff" stroke="#63b8ff" points="246.85,-25.36 236.35,-26.79 245.45,-32.22 246.85,-25.36"/>
</a>
</g>
</g>
<!-- Node4 -->
<g id="Node000004" class="node">
<title>Node4</title>
<g id="a_Node000004"><a xlink:title=" ">
<polygon fill="#e0e0e0" stroke="#999999" points="362.75,-26 274,-26 274,-6 362.75,-6 362.75,-26"/>
<text text-anchor="middle" x="318.38" y="-12.5" font-family="Helvetica,sans-Serif" font-size="10.00">java.util.Scanner</text>
</a>
</g>
</g>
<!-- Node1&#45;&gt;Node4 -->
<g id="edge3_Node000001_Node000004" class="edge">
<title>Node1&#45;&gt;Node4</title>
<g id="a_edge3_Node000001_Node000004"><a xlink:title=" ">
<path fill="none" stroke="#63b8ff" d="M982.91,-77.18C860.84,-76.51 593.11,-70.3 371.38,-32 367.22,-31.28 362.92,-30.37 358.66,-29.34"/>
<polygon fill="#63b8ff" stroke="#63b8ff" points="359.58,-25.97 349.02,-26.82 357.81,-32.74 359.58,-25.97"/>
</a>
</g>
</g>
<!-- Node5 -->
<g id="Node000005" class="node">
<title>Node5</title>
<g id="a_Node000005"><a xlink:title=" ">
<polygon fill="#e0e0e0" stroke="#999999" points="448.25,-26 380.5,-26 380.5,-6 448.25,-6 448.25,-26"/>
<text text-anchor="middle" x="414.38" y="-12.5" font-family="Helvetica,sans-Serif" font-size="10.00">java.util.Set</text>
</a>
</g>
</g>
<!-- Node1&#45;&gt;Node5 -->
<g id="edge4_Node000001_Node000005" class="edge">
<title>Node1&#45;&gt;Node5</title>
<g id="a_edge4_Node000001_Node000005"><a xlink:title=" ">
<path fill="none" stroke="#63b8ff" d="M982.89,-77.53C872.52,-77.18 645.05,-71.17 457.38,-32 454.43,-31.39 451.41,-30.62 448.4,-29.77"/>
<polygon fill="#63b8ff" stroke="#63b8ff" points="449.75,-26.52 439.16,-26.84 447.64,-33.2 449.75,-26.52"/>
</a>
</g>
</g>
<!-- Node6 -->
<g id="Node000006" class="node">
<title>Node6</title>
<g id="a_Node000006"><a xlink:title=" ">
<polygon fill="#e0e0e0" stroke="#999999" points="530,-26 466.75,-26 466.75,-6 530,-6 530,-26"/>
<text text-anchor="middle" x="498.38" y="-12.5" font-family="Helvetica,sans-Serif" font-size="10.00">java.io.File</text>
</a>
</g>
</g>
<!-- Node1&#45;&gt;Node6 -->
<g id="edge5_Node000001_Node000006" class="edge">
<title>Node1&#45;&gt;Node6</title>
<g id="a_edge5_Node000001_Node000006"><a xlink:title=" ">
<path fill="none" stroke="#63b8ff" d="M983.16,-76.86C884.87,-75.37 695.13,-67.6 538.38,-32 535.91,-31.44 533.39,-30.76 530.87,-30.01"/>
<polygon fill="#63b8ff" stroke="#63b8ff" points="532.08,-26.72 521.49,-26.83 529.84,-33.35 532.08,-26.72"/>
</a>
</g>
</g>
<!-- Node7 -->
<g id="Node000007" class="node">
<title>Node7</title>
<g id="a_Node000007"><a xlink:title=" ">
<polygon fill="#e0e0e0" stroke="#999999" points="697.12,-26 547.62,-26 547.62,-6 697.12,-6 697.12,-26"/>
<text text-anchor="middle" x="622.38" y="-12.5" font-family="Helvetica,sans-Serif" font-size="10.00">java.io.FileNotFoundException</text>
</a>
</g>
</g>
<!-- Node1&#45;&gt;Node7 -->
<g id="edge6_Node000001_Node000007" class="edge">
<title>Node1&#45;&gt;Node7</title>
<g id="a_edge6_Node000001_Node000007"><a xlink:title=" ">
<path fill="none" stroke="#63b8ff" d="M982.85,-69.2C913.65,-60.86 802.23,-46.84 706.38,-32 699.18,-30.89 691.65,-29.65 684.19,-28.37"/>
<polygon fill="#63b8ff" stroke="#63b8ff" points="684.89,-24.94 674.44,-26.68 683.69,-31.84 684.89,-24.94"/>
</a>
</g>
</g>
<!-- Node8 -->
<g id="Node000008" class="node">
<title>Node8</title>
<g id="a_Node000008"><a xlink:title=" ">
<polygon fill="#e0e0e0" stroke="#999999" points="839.38,-26 715.38,-26 715.38,-6 839.38,-6 839.38,-26"/>
<text text-anchor="middle" x="777.38" y="-12.5" font-family="Helvetica,sans-Serif" font-size="10.00">java.io.FileOutputStream</text>
</a>
</g>
</g>
<!-- Node1&#45;&gt;Node8 -->
<g id="edge7_Node000001_Node000008" class="edge">
<title>Node1&#45;&gt;Node8</title>
<g id="a_edge7_Node000001_Node000008"><a xlink:title=" ">
<path fill="none" stroke="#63b8ff" d="M1006.58,-67.56C959.29,-57.13 883.03,-40.31 831.59,-28.96"/>
<polygon fill="#63b8ff" stroke="#63b8ff" points="832.37,-25.55 821.85,-26.81 830.86,-32.38 832.37,-25.55"/>
</a>
</g>
</g>
<!-- Node9 -->
<g id="Node000009" class="node">
<title>Node9</title>
<g id="a_Node000009"><a xlink:title=" ">
<polygon fill="#e0e0e0" stroke="#999999" points="925.62,-26 857.12,-26 857.12,-6 925.62,-6 925.62,-26"/>
<text text-anchor="middle" x="891.38" y="-12.5" font-family="Helvetica,sans-Serif" font-size="10.00">java.util.List</text>
</a>
</g>
</g>
<!-- Node1&#45;&gt;Node9 -->
<g id="edge8_Node000001_Node000009" class="edge">
<title>Node1&#45;&gt;Node9</title>
<g id="a_edge8_Node000001_Node000009"><a xlink:title=" ">
<path fill="none" stroke="#63b8ff" d="M1024.69,-67.62C998.33,-57.62 956.33,-41.67 926.53,-30.35"/>
<polygon fill="#63b8ff" stroke="#63b8ff" points="928.16,-27.22 917.56,-26.95 925.67,-33.77 928.16,-27.22"/>
</a>
</g>
</g>
<!-- Node10 -->
<g id="Node000010" class="node">
<title>Node10</title>
<g id="a_Node000010"><a xlink:title=" ">
<polygon fill="#e0e0e0" stroke="#999999" points="1035.25,-26 943.5,-26 943.5,-6 1035.25,-6 1035.25,-26"/>
<text text-anchor="middle" x="989.38" y="-12.5" font-family="Helvetica,sans-Serif" font-size="10.00">java.util.ArrayList</text>
</a>
</g>
</g>
<!-- Node1&#45;&gt;Node10 -->
<g id="edge9_Node000001_Node000010" class="edge">
<title>Node1&#45;&gt;Node10</title>
<g id="a_edge9_Node000001_Node000010"><a xlink:title=" ">
<path fill="none" stroke="#63b8ff" d="M1040,-67.62C1031.05,-58.68 1017.36,-44.99 1006.48,-34.1"/>
<polygon fill="#63b8ff" stroke="#63b8ff" points="1009.1,-31.78 999.56,-27.18 1004.15,-36.73 1009.1,-31.78"/>
</a>
</g>
</g>
<!-- Node11 -->
<g id="Node000011" class="node">
<title>Node11</title>
<g id="a_Node000011"><a xlink:title=" ">
<polygon fill="#e0e0e0" stroke="#999999" points="1167.88,-26 1052.88,-26 1052.88,-6 1167.88,-6 1167.88,-26"/>
<text text-anchor="middle" x="1110.38" y="-12.5" font-family="Helvetica,sans-Serif" font-size="10.00">java.io.BufferedReader</text>
</a>
</g>
</g>
<!-- Node1&#45;&gt;Node11 -->
<g id="edge10_Node000001_Node000011" class="edge">
<title>Node1&#45;&gt;Node11</title>
<g id="a_edge10_Node000001_Node000011"><a xlink:title=" ">
<path fill="none" stroke="#63b8ff" d="M1058.91,-67.62C1068,-58.68 1081.92,-44.99 1092.99,-34.1"/>
<polygon fill="#63b8ff" stroke="#63b8ff" points="1095.36,-36.68 1100.03,-27.17 1090.45,-31.69 1095.36,-36.68"/>
</a>
</g>
</g>
<!-- Node12 -->
<g id="Node000012" class="node">
<title>Node12</title>
<g id="a_Node000012"><a xlink:title=" ">
<polygon fill="#e0e0e0" stroke="#999999" points="1280.75,-26 1186,-26 1186,-6 1280.75,-6 1280.75,-26"/>
<text text-anchor="middle" x="1233.38" y="-12.5" font-family="Helvetica,sans-Serif" font-size="10.00">java.io.FileReader</text>
</a>
</g>
</g>
<!-- Node1&#45;&gt;Node12 -->
<g id="edge11_Node000001_Node000012" class="edge">
<title>Node1&#45;&gt;Node12</title>
<g id="a_edge11_Node000001_Node000012"><a xlink:title=" ">
<path fill="none" stroke="#63b8ff" d="M1078.12,-67.62C1109.23,-57.48 1159.02,-41.25 1193.8,-29.9"/>
<polygon fill="#63b8ff" stroke="#63b8ff" points="1194.66,-33.31 1203.08,-26.88 1192.49,-26.65 1194.66,-33.31"/>
</a>
</g>
</g>
<!-- Node13 -->
<g id="Node000013" class="node">
<title>Node13</title>
<g id="a_Node000013"><a xlink:title=" ">
<polygon fill="#e0e0e0" stroke="#999999" points="1400.12,-26 1298.62,-26 1298.62,-6 1400.12,-6 1400.12,-26"/>
<text text-anchor="middle" x="1349.38" y="-12.5" font-family="Helvetica,sans-Serif" font-size="10.00">java.io.IOException</text>
</a>
</g>
</g>
<!-- Node1&#45;&gt;Node13 -->
<g id="edge12_Node000001_Node000013" class="edge">
<title>Node1&#45;&gt;Node13</title>
<g id="a_edge12_Node000001_Node000013"><a xlink:title=" ">
<path fill="none" stroke="#63b8ff" d="M1104.85,-67.57C1153.62,-59.04 1226.42,-45.76 1289.38,-32 1293.44,-31.11 1297.66,-30.15 1301.88,-29.15"/>
<polygon fill="#63b8ff" stroke="#63b8ff" points="1302.6,-32.58 1311.5,-26.83 1300.95,-25.77 1302.6,-32.58"/>
</a>
</g>
</g>
<!-- Node14 -->
<g id="Node000014" class="node">
<title>Node14</title>
<g id="a_Node000014"><a xlink:title=" ">
<polygon fill="#e0e0e0" stroke="#999999" points="1517,-26 1417.75,-26 1417.75,-6 1517,-6 1517,-26"/>
<text text-anchor="middle" x="1467.38" y="-12.5" font-family="Helvetica,sans-Serif" font-size="10.00">java.io.PrintStream</text>
</a>
</g>
</g>
<!-- Node1&#45;&gt;Node14 -->
<g id="edge13_Node000001_Node000014" class="edge">
<title>Node1&#45;&gt;Node14</title>
<g id="a_edge13_Node000001_Node000014"><a xlink:title=" ">
<path fill="none" stroke="#63b8ff" d="M1115.8,-71.28C1188.34,-64.44 1307.76,-51.41 1409.38,-32 1413.73,-31.17 1418.25,-30.2 1422.75,-29.16"/>
<polygon fill="#63b8ff" stroke="#63b8ff" points="1423.45,-32.59 1432.33,-26.82 1421.79,-25.79 1423.45,-32.59"/>
</a>
</g>
</g>
<!-- Node15 -->
<g id="Node000015" class="node">
<title>Node15</title>
<g id="a_Node000015"><a xlink:title=" ">
<polygon fill="#e0e0e0" stroke="#999999" points="1681.62,-26 1535.12,-26 1535.12,-6 1681.62,-6 1681.62,-26"/>
<text text-anchor="middle" x="1608.38" y="-12.5" font-family="Helvetica,sans-Serif" font-size="10.00">domini.auxiliars.ColorTerminal</text>
</a>
</g>
</g>
<!-- Node1&#45;&gt;Node15 -->
<g id="edge14_Node000001_Node000015" class="edge">
<title>Node1&#45;&gt;Node15</title>
<g id="a_edge14_Node000001_Node000015"><a xlink:title=" ">
<path fill="none" stroke="#63b8ff" d="M1115.95,-72.55C1208.34,-65.97 1380.54,-52.18 1526.38,-32 1533.89,-30.96 1541.76,-29.72 1549.53,-28.4"/>
<polygon fill="#63b8ff" stroke="#63b8ff" points="1550.05,-31.86 1559.3,-26.69 1548.85,-24.97 1550.05,-31.86"/>
</a>
</g>
</g>
<!-- Node16 -->
<g id="Node000016" class="node">
<title>Node16</title>
<g id="a_Node000016"><a xlink:title=" ">
<polygon fill="#e0e0e0" stroke="#999999" points="1808.88,-26 1699.88,-26 1699.88,-6 1808.88,-6 1808.88,-26"/>
<text text-anchor="middle" x="1754.38" y="-12.5" font-family="Helvetica,sans-Serif" font-size="10.00">domini.scrabble.Fitxa</text>
</a>
</g>
</g>
<!-- Node1&#45;&gt;Node16 -->
<g id="edge15_Node000001_Node000016" class="edge">
<title>Node1&#45;&gt;Node16</title>
<g id="a_edge15_Node000001_Node000016"><a xlink:title=" ">
<path fill="none" stroke="#63b8ff" d="M1115.74,-75.84C1232.53,-73.01 1482.18,-63.5 1690.38,-32 1696.01,-31.15 1701.89,-30.06 1707.69,-28.85"/>
<polygon fill="#63b8ff" stroke="#63b8ff" points="1708.2,-32.32 1717.21,-26.75 1706.69,-25.49 1708.2,-32.32"/>
</a>
</g>
</g>
<!-- Node17 -->
<g id="Node000017" class="node">
<title>Node17</title>
<g id="a_Node000017"><a xlink:title=" ">
<polygon fill="#e0e0e0" stroke="#999999" points="1955.62,-26 1827.12,-26 1827.12,-6 1955.62,-6 1955.62,-26"/>
<text text-anchor="middle" x="1891.38" y="-12.5" font-family="Helvetica,sans-Serif" font-size="10.00">javax.swing.JFileChooser</text>
</a>
</g>
</g>
<!-- Node1&#45;&gt;Node17 -->
<g id="edge16_Node000001_Node000017" class="edge">
<title>Node1&#45;&gt;Node17</title>
<g id="a_edge16_Node000001_Node000017"><a xlink:title=" ">
<path fill="none" stroke="#63b8ff" d="M1115.77,-76.33C1249.37,-74.28 1559.98,-65.93 1818.38,-32 1825.2,-31.1 1832.33,-29.93 1839.36,-28.64"/>
<polygon fill="#63b8ff" stroke="#63b8ff" points="1839.99,-32.08 1849.14,-26.74 1838.66,-25.21 1839.99,-32.08"/>
</a>
</g>
</g>
<!-- Node18 -->
<g id="Node000018" class="node">
<title>Node18</title>
<g id="a_Node000018"><a xlink:title=" ">
<polygon fill="#e0e0e0" stroke="#999999" points="2092.75,-26 1974,-26 1974,-6 2092.75,-6 2092.75,-26"/>
<text text-anchor="middle" x="2033.38" y="-12.5" font-family="Helvetica,sans-Serif" font-size="10.00">javax.swing.UIManager</text>
</a>
</g>
</g>
<!-- Node1&#45;&gt;Node18 -->
<g id="edge17_Node000001_Node000018" class="edge">
<title>Node1&#45;&gt;Node18</title>
<g id="a_edge17_Node000001_Node000018"><a xlink:title=" ">
<path fill="none" stroke="#63b8ff" d="M1115.74,-77.47C1266.99,-77.74 1648.64,-73.79 1964.38,-32 1970.84,-31.14 1977.59,-30 1984.24,-28.72"/>
<polygon fill="#63b8ff" stroke="#63b8ff" points="1984.67,-32.2 1993.77,-26.77 1983.27,-25.34 1984.67,-32.2"/>
</a>
</g>
</g>
<!-- Node19 -->
<g id="Node000019" class="node">
<title>Node19</title>
<g id="a_Node000019"><a xlink:title=" ">
<polygon fill="#e0e0e0" stroke="#999999" points="2234,-32 2110.75,-32 2110.75,0 2234,0 2234,-32"/>
<text text-anchor="start" x="2118.75" y="-18.5" font-family="Helvetica,sans-Serif" font-size="10.00">javax.swing.filechooser.</text>
<text text-anchor="middle" x="2172.38" y="-6.5" font-family="Helvetica,sans-Serif" font-size="10.00">FileNameExtensionFilter</text>
</a>
</g>
</g>
<!-- Node1&#45;&gt;Node19 -->
<g id="edge18_Node000001_Node000019" class="edge">
<title>Node1&#45;&gt;Node19</title>
<g id="a_edge18_Node000001_Node000019"><a xlink:title=" ">
<path fill="none" stroke="#63b8ff" d="M1115.95,-75.59C1312.33,-71.22 1888.15,-56.74 2099.24,-32.07"/>
<polygon fill="#63b8ff" stroke="#63b8ff" points="2099.51,-35.56 2109.02,-30.88 2098.67,-28.61 2099.51,-35.56"/>
</a>
</g>
</g>
</g>
</svg>
