<?xml version="1.0" encoding="UTF-8" standalone="no"?>
<!DOCTYPE svg PUBLIC "-//W3C//DTD SVG 1.1//EN"
 "http://www.w3.org/Graphics/SVG/1.1/DTD/svg11.dtd">
<!-- Generated by graphviz version 12.2.1 (20241206.2353)
 -->
<!-- Title: FONTS/persistencia/EstatInstanceCreator.java Pages: 1 -->
<svg width="556pt" height="108pt"
 viewBox="0.00 0.00 556.12 108.00" xmlns="http://www.w3.org/2000/svg" xmlns:xlink="http://www.w3.org/1999/xlink">
<g id="graph0" class="graph" transform="scale(1 1) rotate(0) translate(4 104)">
<title>FONTS/persistencia/EstatInstanceCreator.java</title>
<!-- Node1 -->
<g id="Node000001" class="node">
<title>Node1</title>
<g id="a_Node000001"><a xlink:title=" ">
<polygon fill="#999999" stroke="#666666" points="333.88,-100 200.88,-100 200.88,-68 333.88,-68 333.88,-100"/>
<text text-anchor="start" x="208.88" y="-86.5" font-family="Helvetica,sans-Serif" font-size="10.00">FONTS/persistencia</text>
<text text-anchor="middle" x="267.38" y="-74.5" font-family="Helvetica,sans-Serif" font-size="10.00">/EstatInstanceCreator.java</text>
</a>
</g>
</g>
<!-- Node2 -->
<g id="Node000002" class="node">
<title>Node2</title>
<g id="a_Node000002"><a xlink:title=" ">
<polygon fill="#e0e0e0" stroke="#999999" points="130.75,-32 0,-32 0,0 130.75,0 130.75,-32"/>
<text text-anchor="start" x="8" y="-18.5" font-family="Helvetica,sans-Serif" font-size="10.00">com.google.gson.Instance</text>
<text text-anchor="middle" x="65.38" y="-6.5" font-family="Helvetica,sans-Serif" font-size="10.00">Creator</text>
</a>
</g>
</g>
<!-- Node1&#45;&gt;Node2 -->
<g id="edge1_Node000001_Node000002" class="edge">
<title>Node1&#45;&gt;Node2</title>
<g id="a_edge1_Node000001_Node000002"><a xlink:title=" ">
<path fill="none" stroke="#63b8ff" d="M220.01,-67.53C191.12,-58.09 153.97,-45.95 123.33,-35.94"/>
<polygon fill="#63b8ff" stroke="#63b8ff" points="124.82,-32.74 114.23,-32.96 122.65,-39.39 124.82,-32.74"/>
</a>
</g>
</g>
<!-- Node3 -->
<g id="Node000003" class="node">
<title>Node3</title>
<g id="a_Node000003"><a xlink:title=" ">
<polygon fill="#e0e0e0" stroke="#999999" points="257.88,-26 148.88,-26 148.88,-6 257.88,-6 257.88,-26"/>
<text text-anchor="middle" x="203.38" y="-12.5" font-family="Helvetica,sans-Serif" font-size="10.00">java.lang.reflect.Type</text>
</a>
</g>
</g>
<!-- Node1&#45;&gt;Node3 -->
<g id="edge2_Node000001_Node000003" class="edge">
<title>Node1&#45;&gt;Node3</title>
<g id="a_edge2_Node000001_Node000003"><a xlink:title=" ">
<path fill="none" stroke="#63b8ff" d="M252.53,-67.69C242.94,-57.8 230.42,-44.89 220.41,-34.57"/>
<polygon fill="#63b8ff" stroke="#63b8ff" points="222.94,-32.15 213.46,-27.4 217.91,-37.02 222.94,-32.15"/>
</a>
</g>
</g>
<!-- Node4 -->
<g id="Node000004" class="node">
<title>Node4</title>
<g id="a_Node000004"><a xlink:title=" ">
<polygon fill="#e0e0e0" stroke="#999999" points="386.62,-26 276.12,-26 276.12,-6 386.62,-6 386.62,-26"/>
<text text-anchor="middle" x="331.38" y="-12.5" font-family="Helvetica,sans-Serif" font-size="10.00">domini.scrabble.Estat</text>
</a>
</g>
</g>
<!-- Node1&#45;&gt;Node4 -->
<g id="edge3_Node000001_Node000004" class="edge">
<title>Node1&#45;&gt;Node4</title>
<g id="a_edge3_Node000001_Node000004"><a xlink:title=" ">
<path fill="none" stroke="#63b8ff" d="M282.22,-67.69C291.81,-57.8 304.33,-44.89 314.34,-34.57"/>
<polygon fill="#63b8ff" stroke="#63b8ff" points="316.84,-37.02 321.29,-27.4 311.81,-32.15 316.84,-37.02"/>
</a>
</g>
</g>
<!-- Node5 -->
<g id="Node000005" class="node">
<title>Node5</title>
<g id="a_Node000005"><a xlink:title=" ">
<polygon fill="#e0e0e0" stroke="#999999" points="548.12,-26 404.62,-26 404.62,-6 548.12,-6 548.12,-26"/>
<text text-anchor="middle" x="476.38" y="-12.5" font-family="Helvetica,sans-Serif" font-size="10.00">domini.scrabble.EstatEnCurs</text>
</a>
</g>
</g>
<!-- Node1&#45;&gt;Node5 -->
<g id="edge4_Node000001_Node000005" class="edge">
<title>Node1&#45;&gt;Node5</title>
<g id="a_edge4_Node000001_Node000005"><a xlink:title=" ">
<path fill="none" stroke="#63b8ff" d="M316.38,-67.53C352.58,-56.09 401.31,-40.71 435.44,-29.93"/>
<polygon fill="#63b8ff" stroke="#63b8ff" points="436.49,-33.26 444.97,-26.92 434.39,-26.59 436.49,-33.26"/>
</a>
</g>
</g>
</g>
</svg>
