<?xml version="1.0" encoding="UTF-8" standalone="no"?>
<!DOCTYPE svg PUBLIC "-//W3C//DTD SVG 1.1//EN"
 "http://www.w3.org/Graphics/SVG/1.1/DTD/svg11.dtd">
<!-- Generated by graphviz version 12.2.1 (20241206.2353)
 -->
<!-- Title: FONTS/persistencia/JugadorIO.java Pages: 1 -->
<svg width="986pt" height="96pt"
 viewBox="0.00 0.00 986.25 96.00" xmlns="http://www.w3.org/2000/svg" xmlns:xlink="http://www.w3.org/1999/xlink">
<g id="graph0" class="graph" transform="scale(1 1) rotate(0) translate(4 92)">
<title>FONTS/persistencia/JugadorIO.java</title>
<!-- Node1 -->
<g id="Node000001" class="node">
<title>Node1</title>
<g id="a_Node000001"><a xlink:title=" ">
<polygon fill="#999999" stroke="#666666" points="555.12,-88 449.88,-88 449.88,-56 555.12,-56 555.12,-88"/>
<text text-anchor="start" x="457.88" y="-74.5" font-family="Helvetica,sans-Serif" font-size="10.00">FONTS/persistencia</text>
<text text-anchor="middle" x="502.5" y="-62.5" font-family="Helvetica,sans-Serif" font-size="10.00">/JugadorIO.java</text>
</a>
</g>
</g>
<!-- Node2 -->
<g id="Node000002" class="node">
<title>Node2</title>
<g id="a_Node000002"><a xlink:title=" ">
<polygon fill="#e0e0e0" stroke="#999999" points="91,-20 0,-20 0,0 91,0 91,-20"/>
<text text-anchor="middle" x="45.5" y="-6.5" font-family="Helvetica,sans-Serif" font-size="10.00">domini.jugadors.*</text>
</a>
</g>
</g>
<!-- Node1&#45;&gt;Node2 -->
<g id="edge1_Node000001_Node000002" class="edge">
<title>Node1&#45;&gt;Node2</title>
<g id="a_edge1_Node000001_Node000002"><a xlink:title=" ">
<path fill="none" stroke="#63b8ff" d="M449.42,-64.88C374.52,-56.12 233.29,-39.08 102.41,-20.23"/>
<polygon fill="#63b8ff" stroke="#63b8ff" points="103.29,-16.82 92.89,-18.85 102.29,-23.75 103.29,-16.82"/>
</a>
</g>
</g>
<!-- Node3 -->
<g id="Node000003" class="node">
<title>Node3</title>
<g id="a_Node000003"><a xlink:title=" ">
<polygon fill="#e0e0e0" stroke="#999999" points="225.75,-20 109.25,-20 109.25,0 225.75,0 225.75,-20"/>
<text text-anchor="middle" x="167.5" y="-6.5" font-family="Helvetica,sans-Serif" font-size="10.00">com.google.gson.Gson</text>
</a>
</g>
</g>
<!-- Node1&#45;&gt;Node3 -->
<g id="edge2_Node000001_Node000003" class="edge">
<title>Node1&#45;&gt;Node3</title>
<g id="a_edge2_Node000001_Node000003"><a xlink:title=" ">
<path fill="none" stroke="#63b8ff" d="M449.42,-61.49C390.24,-50.89 294.57,-33.76 231.35,-22.44"/>
<polygon fill="#63b8ff" stroke="#63b8ff" points="232.28,-19.05 221.82,-20.73 231.05,-25.94 232.28,-19.05"/>
</a>
</g>
</g>
<!-- Node4 -->
<g id="Node000004" class="node">
<title>Node4</title>
<g id="a_Node000004"><a xlink:title=" ">
<polygon fill="#e0e0e0" stroke="#999999" points="390.75,-20 244.25,-20 244.25,0 390.75,0 390.75,-20"/>
<text text-anchor="middle" x="317.5" y="-6.5" font-family="Helvetica,sans-Serif" font-size="10.00">com.google.gson.GsonBuilder</text>
</a>
</g>
</g>
<!-- Node1&#45;&gt;Node4 -->
<g id="edge3_Node000001_Node000004" class="edge">
<title>Node1&#45;&gt;Node4</title>
<g id="a_edge3_Node000001_Node000004"><a xlink:title=" ">
<path fill="none" stroke="#63b8ff" d="M454.86,-55.55C424.71,-45.77 386.17,-33.27 357.59,-24"/>
<polygon fill="#63b8ff" stroke="#63b8ff" points="358.81,-20.72 348.22,-20.96 356.65,-27.38 358.81,-20.72"/>
</a>
</g>
</g>
<!-- Node5 -->
<g id="Node000005" class="node">
<title>Node5</title>
<g id="a_Node000005"><a xlink:title=" ">
<polygon fill="#e0e0e0" stroke="#999999" points="472.12,-20 408.88,-20 408.88,0 472.12,0 472.12,-20"/>
<text text-anchor="middle" x="440.5" y="-6.5" font-family="Helvetica,sans-Serif" font-size="10.00">java.io.File</text>
</a>
</g>
</g>
<!-- Node1&#45;&gt;Node5 -->
<g id="edge4_Node000001_Node000005" class="edge">
<title>Node1&#45;&gt;Node5</title>
<g id="a_edge4_Node000001_Node000005"><a xlink:title=" ">
<path fill="none" stroke="#63b8ff" d="M486.53,-55.55C477.92,-47.22 467.27,-36.91 458.38,-28.3"/>
<polygon fill="#63b8ff" stroke="#63b8ff" points="460.93,-25.9 451.31,-21.46 456.06,-30.93 460.93,-25.9"/>
</a>
</g>
</g>
<!-- Node6 -->
<g id="Node000006" class="node">
<title>Node6</title>
<g id="a_Node000006"><a xlink:title=" ">
<polygon fill="#e0e0e0" stroke="#999999" points="639.25,-20 489.75,-20 489.75,0 639.25,0 639.25,-20"/>
<text text-anchor="middle" x="564.5" y="-6.5" font-family="Helvetica,sans-Serif" font-size="10.00">java.io.FileNotFoundException</text>
</a>
</g>
</g>
<!-- Node1&#45;&gt;Node6 -->
<g id="edge5_Node000001_Node000006" class="edge">
<title>Node1&#45;&gt;Node6</title>
<g id="a_edge5_Node000001_Node000006"><a xlink:title=" ">
<path fill="none" stroke="#63b8ff" d="M518.47,-55.55C527.08,-47.22 537.73,-36.91 546.62,-28.3"/>
<polygon fill="#63b8ff" stroke="#63b8ff" points="548.94,-30.93 553.69,-21.46 544.07,-25.9 548.94,-30.93"/>
</a>
</g>
</g>
<!-- Node7 -->
<g id="Node000007" class="node">
<title>Node7</title>
<g id="a_Node000007"><a xlink:title=" ">
<polygon fill="#e0e0e0" stroke="#999999" points="751.88,-20 657.12,-20 657.12,0 751.88,0 751.88,-20"/>
<text text-anchor="middle" x="704.5" y="-6.5" font-family="Helvetica,sans-Serif" font-size="10.00">java.io.FileReader</text>
</a>
</g>
</g>
<!-- Node1&#45;&gt;Node7 -->
<g id="edge6_Node000001_Node000007" class="edge">
<title>Node1&#45;&gt;Node7</title>
<g id="a_edge6_Node000001_Node000007"><a xlink:title=" ">
<path fill="none" stroke="#63b8ff" d="M554.52,-55.55C587.73,-45.68 630.27,-33.05 661.55,-23.76"/>
<polygon fill="#63b8ff" stroke="#63b8ff" points="662.49,-27.13 671.08,-20.93 660.5,-20.42 662.49,-27.13"/>
</a>
</g>
</g>
<!-- Node8 -->
<g id="Node000008" class="node">
<title>Node8</title>
<g id="a_Node000008"><a xlink:title=" ">
<polygon fill="#e0e0e0" stroke="#999999" points="858.88,-20 770.12,-20 770.12,0 858.88,0 858.88,-20"/>
<text text-anchor="middle" x="814.5" y="-6.5" font-family="Helvetica,sans-Serif" font-size="10.00">java.io.FileWriter</text>
</a>
</g>
</g>
<!-- Node1&#45;&gt;Node8 -->
<g id="edge7_Node000001_Node000008" class="edge">
<title>Node1&#45;&gt;Node8</title>
<g id="a_edge7_Node000001_Node000008"><a xlink:title=" ">
<path fill="none" stroke="#63b8ff" d="M555.43,-60.82C611.98,-49.95 701.26,-32.78 758.84,-21.7"/>
<polygon fill="#63b8ff" stroke="#63b8ff" points="759.27,-25.18 768.43,-19.86 757.95,-18.31 759.27,-25.18"/>
</a>
</g>
</g>
<!-- Node9 -->
<g id="Node000009" class="node">
<title>Node9</title>
<g id="a_Node000009"><a xlink:title=" ">
<polygon fill="#e0e0e0" stroke="#999999" points="978.25,-20 876.75,-20 876.75,0 978.25,0 978.25,-20"/>
<text text-anchor="middle" x="927.5" y="-6.5" font-family="Helvetica,sans-Serif" font-size="10.00">java.io.IOException</text>
</a>
</g>
</g>
<!-- Node1&#45;&gt;Node9 -->
<g id="edge8_Node000001_Node000009" class="edge">
<title>Node1&#45;&gt;Node9</title>
<g id="a_edge8_Node000001_Node000009"><a xlink:title=" ">
<path fill="none" stroke="#63b8ff" d="M555.41,-63.78C624.22,-54.35 748.45,-37.19 865.17,-20.33"/>
<polygon fill="#63b8ff" stroke="#63b8ff" points="865.55,-23.81 874.94,-18.91 864.55,-16.88 865.55,-23.81"/>
</a>
</g>
</g>
</g>
</svg>
