<?xml version="1.0" encoding="UTF-8" standalone="no"?>
<!DOCTYPE svg PUBLIC "-//W3C//DTD SVG 1.1//EN"
 "http://www.w3.org/Graphics/SVG/1.1/DTD/svg11.dtd">
<!-- Generated by graphviz version 12.2.1 (20241206.2353)
 -->
<!-- Title: FONTS/domini/scrabble/Partida.java Pages: 1 -->
<svg width="526pt" height="96pt"
 viewBox="0.00 0.00 526.38 96.00" xmlns="http://www.w3.org/2000/svg" xmlns:xlink="http://www.w3.org/1999/xlink">
<g id="graph0" class="graph" transform="scale(1 1) rotate(0) translate(4 92)">
<title>FONTS/domini/scrabble/Partida.java</title>
<!-- Node1 -->
<g id="Node000001" class="node">
<title>Node1</title>
<g id="a_Node000001"><a xlink:title=" ">
<polygon fill="#999999" stroke="#666666" points="327.62,-88 206.62,-88 206.62,-56 327.62,-56 327.62,-88"/>
<text text-anchor="start" x="214.62" y="-74.5" font-family="Helvetica,sans-Serif" font-size="10.00">FONTS/domini/scrabble</text>
<text text-anchor="middle" x="267.12" y="-62.5" font-family="Helvetica,sans-Serif" font-size="10.00">/Partida.java</text>
</a>
</g>
</g>
<!-- Node2 -->
<g id="Node000002" class="node">
<title>Node2</title>
<g id="a_Node000002"><a xlink:title=" ">
<polygon fill="#e0e0e0" stroke="#999999" points="90.25,-20 0,-20 0,0 90.25,0 90.25,-20"/>
<text text-anchor="middle" x="45.12" y="-6.5" font-family="Helvetica,sans-Serif" font-size="10.00">domini.auxiliars.*</text>
</a>
</g>
</g>
<!-- Node1&#45;&gt;Node2 -->
<g id="edge1_Node000001_Node000002" class="edge">
<title>Node1&#45;&gt;Node2</title>
<g id="a_edge1_Node000001_Node000002"><a xlink:title=" ">
<path fill="none" stroke="#63b8ff" d="M209.95,-55.55C172.97,-45.55 125.48,-32.72 90.98,-23.39"/>
<polygon fill="#63b8ff" stroke="#63b8ff" points="92.29,-20.12 81.72,-20.89 90.46,-26.88 92.29,-20.12"/>
</a>
</g>
</g>
<!-- Node3 -->
<g id="Node000003" class="node">
<title>Node3</title>
<g id="a_Node000003"><a xlink:title=" ">
<polygon fill="#e0e0e0" stroke="#999999" points="203.88,-20 108.38,-20 108.38,0 203.88,0 203.88,-20"/>
<text text-anchor="middle" x="156.12" y="-6.5" font-family="Helvetica,sans-Serif" font-size="10.00">domini.diccionari.*</text>
</a>
</g>
</g>
<!-- Node1&#45;&gt;Node3 -->
<g id="edge2_Node000001_Node000003" class="edge">
<title>Node1&#45;&gt;Node3</title>
<g id="a_edge2_Node000001_Node000003"><a xlink:title=" ">
<path fill="none" stroke="#63b8ff" d="M238.54,-55.55C221.52,-46.35 200.04,-34.74 183.28,-25.68"/>
<polygon fill="#63b8ff" stroke="#63b8ff" points="185.32,-22.8 174.86,-21.13 181.99,-28.96 185.32,-22.8"/>
</a>
</g>
</g>
<!-- Node4 -->
<g id="Node000004" class="node">
<title>Node4</title>
<g id="a_Node000004"><a xlink:title=" ">
<polygon fill="#e0e0e0" stroke="#999999" points="312.62,-20 221.62,-20 221.62,0 312.62,0 312.62,-20"/>
<text text-anchor="middle" x="267.12" y="-6.5" font-family="Helvetica,sans-Serif" font-size="10.00">domini.jugadors.*</text>
</a>
</g>
</g>
<!-- Node1&#45;&gt;Node4 -->
<g id="edge3_Node000001_Node000004" class="edge">
<title>Node1&#45;&gt;Node4</title>
<g id="a_edge3_Node000001_Node000004"><a xlink:title=" ">
<path fill="none" stroke="#63b8ff" d="M267.12,-55.55C267.12,-48.34 267.12,-39.66 267.12,-31.88"/>
<polygon fill="#63b8ff" stroke="#63b8ff" points="270.63,-31.92 267.13,-21.92 263.63,-31.92 270.63,-31.92"/>
</a>
</g>
</g>
<!-- Node5 -->
<g id="Node000005" class="node">
<title>Node5</title>
<g id="a_Node000005"><a xlink:title=" ">
<polygon fill="#e0e0e0" stroke="#999999" points="431.88,-20 330.38,-20 330.38,0 431.88,0 431.88,-20"/>
<text text-anchor="middle" x="381.12" y="-6.5" font-family="Helvetica,sans-Serif" font-size="10.00">java.io.IOException</text>
</a>
</g>
</g>
<!-- Node1&#45;&gt;Node5 -->
<g id="edge4_Node000001_Node000005" class="edge">
<title>Node1&#45;&gt;Node5</title>
<g id="a_edge4_Node000001_Node000005"><a xlink:title=" ">
<path fill="none" stroke="#63b8ff" d="M296.48,-55.55C313.97,-46.35 336.03,-34.74 353.24,-25.68"/>
<polygon fill="#63b8ff" stroke="#63b8ff" points="354.69,-28.87 361.91,-21.11 351.43,-22.67 354.69,-28.87"/>
</a>
</g>
</g>
<!-- Node6 -->
<g id="Node000006" class="node">
<title>Node6</title>
<g id="a_Node000006"><a xlink:title=" ">
<polygon fill="#e0e0e0" stroke="#999999" points="518.38,-20 449.88,-20 449.88,0 518.38,0 518.38,-20"/>
<text text-anchor="middle" x="484.12" y="-6.5" font-family="Helvetica,sans-Serif" font-size="10.00">java.util.List</text>
</a>
</g>
</g>
<!-- Node1&#45;&gt;Node6 -->
<g id="edge5_Node000001_Node000006" class="edge">
<title>Node1&#45;&gt;Node6</title>
<g id="a_edge5_Node000001_Node000006"><a xlink:title=" ">
<path fill="none" stroke="#63b8ff" d="M323.01,-55.55C359,-45.6 405.18,-32.83 438.87,-23.51"/>
<polygon fill="#63b8ff" stroke="#63b8ff" points="439.62,-26.94 448.32,-20.9 437.75,-20.19 439.62,-26.94"/>
</a>
</g>
</g>
</g>
</svg>
