<?xml version="1.0" encoding="UTF-8" standalone="no"?>
<!DOCTYPE svg PUBLIC "-//W3C//DTD SVG 1.1//EN"
 "http://www.w3.org/Graphics/SVG/1.1/DTD/svg11.dtd">
<!-- Generated by graphviz version 12.2.1 (20241206.2353)
 -->
<!-- Title: FONTS/domini/scrabble/Ranking.java Pages: 1 -->
<svg width="339pt" height="96pt"
 viewBox="0.00 0.00 338.50 96.00" xmlns="http://www.w3.org/2000/svg" xmlns:xlink="http://www.w3.org/1999/xlink">
<g id="graph0" class="graph" transform="scale(1 1) rotate(0) translate(4 92)">
<title>FONTS/domini/scrabble/Ranking.java</title>
<!-- Node1 -->
<g id="Node000001" class="node">
<title>Node1</title>
<g id="a_Node000001"><a xlink:title=" ">
<polygon fill="#999999" stroke="#666666" points="180.75,-88 59.75,-88 59.75,-56 180.75,-56 180.75,-88"/>
<text text-anchor="start" x="67.75" y="-74.5" font-family="Helvetica,sans-Serif" font-size="10.00">FONTS/domini/scrabble</text>
<text text-anchor="middle" x="120.25" y="-62.5" font-family="Helvetica,sans-Serif" font-size="10.00">/Ranking.java</text>
</a>
</g>
</g>
<!-- Node2 -->
<g id="Node000002" class="node">
<title>Node2</title>
<g id="a_Node000002"><a xlink:title=" ">
<polygon fill="#e0e0e0" stroke="#999999" points="56.5,-20 0,-20 0,0 56.5,0 56.5,-20"/>
<text text-anchor="middle" x="28.25" y="-6.5" font-family="Helvetica,sans-Serif" font-size="10.00">java.util.*</text>
</a>
</g>
</g>
<!-- Node1&#45;&gt;Node2 -->
<g id="edge1_Node000001_Node000002" class="edge">
<title>Node1&#45;&gt;Node2</title>
<g id="a_edge1_Node000001_Node000002"><a xlink:title=" ">
<path fill="none" stroke="#63b8ff" d="M96.56,-55.55C82.85,-46.61 65.65,-35.39 51.94,-26.45"/>
<polygon fill="#63b8ff" stroke="#63b8ff" points="54.23,-23.77 43.94,-21.23 50.41,-29.63 54.23,-23.77"/>
</a>
</g>
</g>
<!-- Node3 -->
<g id="Node000003" class="node">
<title>Node3</title>
<g id="a_Node000003"><a xlink:title=" ">
<polygon fill="#e0e0e0" stroke="#999999" points="165.75,-20 74.75,-20 74.75,0 165.75,0 165.75,-20"/>
<text text-anchor="middle" x="120.25" y="-6.5" font-family="Helvetica,sans-Serif" font-size="10.00">domini.jugadors.*</text>
</a>
</g>
</g>
<!-- Node1&#45;&gt;Node3 -->
<g id="edge2_Node000001_Node000003" class="edge">
<title>Node1&#45;&gt;Node3</title>
<g id="a_edge2_Node000001_Node000003"><a xlink:title=" ">
<path fill="none" stroke="#63b8ff" d="M120.25,-55.55C120.25,-48.34 120.25,-39.66 120.25,-31.88"/>
<polygon fill="#63b8ff" stroke="#63b8ff" points="123.75,-31.92 120.25,-21.92 116.75,-31.92 123.75,-31.92"/>
</a>
</g>
</g>
<!-- Node4 -->
<g id="Node000004" class="node">
<title>Node4</title>
<g id="a_Node000004"><a xlink:title=" ">
<polygon fill="#e0e0e0" stroke="#999999" points="330.5,-20 184,-20 184,0 330.5,0 330.5,-20"/>
<text text-anchor="middle" x="257.25" y="-6.5" font-family="Helvetica,sans-Serif" font-size="10.00">domini.auxiliars.ColorTerminal</text>
</a>
</g>
</g>
<!-- Node1&#45;&gt;Node4 -->
<g id="edge3_Node000001_Node000004" class="edge">
<title>Node1&#45;&gt;Node4</title>
<g id="a_edge3_Node000001_Node000004"><a xlink:title=" ">
<path fill="none" stroke="#63b8ff" d="M155.53,-55.55C177.14,-46.09 204.56,-34.08 225.48,-24.91"/>
<polygon fill="#63b8ff" stroke="#63b8ff" points="226.63,-28.23 234.38,-21.02 223.82,-21.82 226.63,-28.23"/>
</a>
</g>
</g>
</g>
</svg>
