<?xml version="1.0" encoding="UTF-8" standalone="no"?>
<!DOCTYPE svg PUBLIC "-//W3C//DTD SVG 1.1//EN"
 "http://www.w3.org/Graphics/SVG/1.1/DTD/svg11.dtd">
<!-- Generated by graphviz version 12.2.1 (20241206.2353)
 -->
<!-- Title: FONTS/interficie/utils/Tools.java Pages: 1 -->
<svg width="319pt" height="96pt"
 viewBox="0.00 0.00 319.00 96.00" xmlns="http://www.w3.org/2000/svg" xmlns:xlink="http://www.w3.org/1999/xlink">
<g id="graph0" class="graph" transform="scale(1 1) rotate(0) translate(4 92)">
<title>FONTS/interficie/utils/Tools.java</title>
<!-- Node1 -->
<g id="Node000001" class="node">
<title>Node1</title>
<g id="a_Node000001"><a xlink:title=" ">
<polygon fill="#999999" stroke="#666666" points="239.5,-88 129,-88 129,-56 239.5,-56 239.5,-88"/>
<text text-anchor="start" x="137" y="-74.5" font-family="Helvetica,sans-Serif" font-size="10.00">FONTS/interficie/utils</text>
<text text-anchor="middle" x="184.25" y="-62.5" font-family="Helvetica,sans-Serif" font-size="10.00">/Tools.java</text>
</a>
</g>
</g>
<!-- Node2 -->
<g id="Node000002" class="node">
<title>Node2</title>
<g id="a_Node000002"><a xlink:title=" ">
<polygon fill="#e0e0e0" stroke="#999999" points="116.5,-20 0,-20 0,0 116.5,0 116.5,-20"/>
<text text-anchor="middle" x="58.25" y="-6.5" font-family="Helvetica,sans-Serif" font-size="10.00">javax.swing.ImageIcon</text>
</a>
</g>
</g>
<!-- Node1&#45;&gt;Node2 -->
<g id="edge1_Node000001_Node000002" class="edge">
<title>Node1&#45;&gt;Node2</title>
<g id="a_edge1_Node000001_Node000002"><a xlink:title=" ">
<path fill="none" stroke="#63b8ff" d="M151.8,-55.55C132.21,-46.22 107.41,-34.41 88.26,-25.29"/>
<polygon fill="#63b8ff" stroke="#63b8ff" points="89.91,-22.2 79.37,-21.06 86.9,-28.52 89.91,-22.2"/>
</a>
</g>
</g>
<!-- Node3 -->
<g id="Node000003" class="node">
<title>Node3</title>
<g id="a_Node000003"><a xlink:title=" ">
<polygon fill="#e0e0e0" stroke="#999999" points="233.88,-20 134.62,-20 134.62,0 233.88,0 233.88,-20"/>
<text text-anchor="middle" x="184.25" y="-6.5" font-family="Helvetica,sans-Serif" font-size="10.00">javax.swing.JLabel</text>
</a>
</g>
</g>
<!-- Node1&#45;&gt;Node3 -->
<g id="edge2_Node000001_Node000003" class="edge">
<title>Node1&#45;&gt;Node3</title>
<g id="a_edge2_Node000001_Node000003"><a xlink:title=" ">
<path fill="none" stroke="#63b8ff" d="M184.25,-55.55C184.25,-48.34 184.25,-39.66 184.25,-31.88"/>
<polygon fill="#63b8ff" stroke="#63b8ff" points="187.75,-31.92 184.25,-21.92 180.75,-31.92 187.75,-31.92"/>
</a>
</g>
</g>
<!-- Node4 -->
<g id="Node000004" class="node">
<title>Node4</title>
<g id="a_Node000004"><a xlink:title=" ">
<polygon fill="#e0e0e0" stroke="#999999" points="311,-20 251.5,-20 251.5,0 311,0 311,-20"/>
<text text-anchor="middle" x="281.25" y="-6.5" font-family="Helvetica,sans-Serif" font-size="10.00">java.awt.*</text>
</a>
</g>
</g>
<!-- Node1&#45;&gt;Node4 -->
<g id="edge3_Node000001_Node000004" class="edge">
<title>Node1&#45;&gt;Node4</title>
<g id="a_edge3_Node000001_Node000004"><a xlink:title=" ">
<path fill="none" stroke="#63b8ff" d="M209.23,-55.55C223.68,-46.61 241.82,-35.39 256.27,-26.45"/>
<polygon fill="#63b8ff" stroke="#63b8ff" points="258.09,-29.44 264.75,-21.2 254.41,-23.49 258.09,-29.44"/>
</a>
</g>
</g>
</g>
</svg>
