<?xml version="1.0" encoding="UTF-8" standalone="no"?>
<!DOCTYPE svg PUBLIC "-//W3C//DTD SVG 1.1//EN"
 "http://www.w3.org/Graphics/SVG/1.1/DTD/svg11.dtd">
<!-- Generated by graphviz version 12.2.1 (20241206.2353)
 -->
<!-- Title: FONTS/domini/sessio/Usuari.java Pages: 1 -->
<svg width="645pt" height="96pt"
 viewBox="0.00 0.00 645.12 96.00" xmlns="http://www.w3.org/2000/svg" xmlns:xlink="http://www.w3.org/1999/xlink">
<g id="graph0" class="graph" transform="scale(1 1) rotate(0) translate(4 92)">
<title>FONTS/domini/sessio/Usuari.java</title>
<!-- Node1 -->
<g id="Node000001" class="node">
<title>Node1</title>
<g id="a_Node000001"><a xlink:title=" ">
<polygon fill="#999999" stroke="#666666" points="409.88,-88 297.12,-88 297.12,-56 409.88,-56 409.88,-88"/>
<text text-anchor="start" x="305.12" y="-74.5" font-family="Helvetica,sans-Serif" font-size="10.00">FONTS/domini/sessio</text>
<text text-anchor="middle" x="353.5" y="-62.5" font-family="Helvetica,sans-Serif" font-size="10.00">/Usuari.java</text>
</a>
</g>
</g>
<!-- Node2 -->
<g id="Node000002" class="node">
<title>Node2</title>
<g id="a_Node000002"><a xlink:title=" ">
<polygon fill="#e0e0e0" stroke="#999999" points="91,-20 0,-20 0,0 91,0 91,-20"/>
<text text-anchor="middle" x="45.5" y="-6.5" font-family="Helvetica,sans-Serif" font-size="10.00">domini.jugadors.*</text>
</a>
</g>
</g>
<!-- Node1&#45;&gt;Node2 -->
<g id="edge1_Node000001_Node000002" class="edge">
<title>Node1&#45;&gt;Node2</title>
<g id="a_edge1_Node000001_Node000002"><a xlink:title=" ">
<path fill="none" stroke="#63b8ff" d="M296.65,-59.93C241.36,-49.15 157.83,-32.88 102.5,-22.1"/>
<polygon fill="#63b8ff" stroke="#63b8ff" points="103.45,-18.72 92.96,-20.25 102.11,-25.59 103.45,-18.72"/>
</a>
</g>
</g>
<!-- Node3 -->
<g id="Node000003" class="node">
<title>Node3</title>
<g id="a_Node000003"><a xlink:title=" ">
<polygon fill="#e0e0e0" stroke="#999999" points="227.5,-20 109.5,-20 109.5,0 227.5,0 227.5,-20"/>
<text text-anchor="middle" x="168.5" y="-6.5" font-family="Helvetica,sans-Serif" font-size="10.00">domini.scrabble.Partida</text>
</a>
</g>
</g>
<!-- Node1&#45;&gt;Node3 -->
<g id="edge2_Node000001_Node000003" class="edge">
<title>Node1&#45;&gt;Node3</title>
<g id="a_edge2_Node000001_Node000003"><a xlink:title=" ">
<path fill="none" stroke="#63b8ff" d="M305.86,-55.55C275.71,-45.77 237.17,-33.27 208.59,-24"/>
<polygon fill="#63b8ff" stroke="#63b8ff" points="209.81,-20.72 199.22,-20.96 207.65,-27.38 209.81,-20.72"/>
</a>
</g>
</g>
<!-- Node4 -->
<g id="Node000004" class="node">
<title>Node4</title>
<g id="a_Node000004"><a xlink:title=" ">
<polygon fill="#e0e0e0" stroke="#999999" points="347.25,-20 245.75,-20 245.75,0 347.25,0 347.25,-20"/>
<text text-anchor="middle" x="296.5" y="-6.5" font-family="Helvetica,sans-Serif" font-size="10.00">java.io.IOException</text>
</a>
</g>
</g>
<!-- Node1&#45;&gt;Node4 -->
<g id="edge3_Node000001_Node000004" class="edge">
<title>Node1&#45;&gt;Node4</title>
<g id="a_edge3_Node000001_Node000004"><a xlink:title=" ">
<path fill="none" stroke="#63b8ff" d="M338.82,-55.55C330.99,-47.3 321.31,-37.12 313.19,-28.57"/>
<polygon fill="#63b8ff" stroke="#63b8ff" points="315.91,-26.34 306.48,-21.51 310.83,-31.17 315.91,-26.34"/>
</a>
</g>
</g>
<!-- Node5 -->
<g id="Node000005" class="node">
<title>Node5</title>
<g id="a_Node000005"><a xlink:title=" ">
<polygon fill="#e0e0e0" stroke="#999999" points="457.38,-20 365.62,-20 365.62,0 457.38,0 457.38,-20"/>
<text text-anchor="middle" x="411.5" y="-6.5" font-family="Helvetica,sans-Serif" font-size="10.00">java.util.ArrayList</text>
</a>
</g>
</g>
<!-- Node1&#45;&gt;Node5 -->
<g id="edge4_Node000001_Node000005" class="edge">
<title>Node1&#45;&gt;Node5</title>
<g id="a_edge4_Node000001_Node000005"><a xlink:title=" ">
<path fill="none" stroke="#63b8ff" d="M368.44,-55.55C376.41,-47.3 386.25,-37.12 394.51,-28.57"/>
<polygon fill="#63b8ff" stroke="#63b8ff" points="396.92,-31.12 401.35,-21.5 391.89,-26.25 396.92,-31.12"/>
</a>
</g>
</g>
<!-- Node6 -->
<g id="Node000006" class="node">
<title>Node6</title>
<g id="a_Node000006"><a xlink:title=" ">
<polygon fill="#e0e0e0" stroke="#999999" points="543.75,-20 475.25,-20 475.25,0 543.75,0 543.75,-20"/>
<text text-anchor="middle" x="509.5" y="-6.5" font-family="Helvetica,sans-Serif" font-size="10.00">java.util.List</text>
</a>
</g>
</g>
<!-- Node1&#45;&gt;Node6 -->
<g id="edge5_Node000001_Node000006" class="edge">
<title>Node1&#45;&gt;Node6</title>
<g id="a_edge5_Node000001_Node000006"><a xlink:title=" ">
<path fill="none" stroke="#63b8ff" d="M393.67,-55.55C418.61,-45.96 450.36,-33.75 474.31,-24.54"/>
<polygon fill="#63b8ff" stroke="#63b8ff" points="475.55,-27.81 483.63,-20.95 473.04,-21.27 475.55,-27.81"/>
</a>
</g>
</g>
<!-- Node7 -->
<g id="Node000007" class="node">
<title>Node7</title>
<g id="a_Node000007"><a xlink:title=" ">
<polygon fill="#e0e0e0" stroke="#999999" points="637.12,-20 561.88,-20 561.88,0 637.12,0 637.12,-20"/>
<text text-anchor="middle" x="599.5" y="-6.5" font-family="Helvetica,sans-Serif" font-size="10.00">persistencia.*</text>
</a>
</g>
</g>
<!-- Node1&#45;&gt;Node7 -->
<g id="edge6_Node000001_Node000007" class="edge">
<title>Node1&#45;&gt;Node7</title>
<g id="a_edge6_Node000001_Node000007"><a xlink:title=" ">
<path fill="none" stroke="#63b8ff" d="M410.25,-57.16C452.57,-46.84 509.8,-32.88 550.22,-23.02"/>
<polygon fill="#63b8ff" stroke="#63b8ff" points="551.05,-26.42 559.93,-20.65 549.39,-19.62 551.05,-26.42"/>
</a>
</g>
</g>
</g>
</svg>
