<?xml version="1.0" encoding="UTF-8" standalone="no"?>
<!DOCTYPE svg PUBLIC "-//W3C//DTD SVG 1.1//EN"
 "http://www.w3.org/Graphics/SVG/1.1/DTD/svg11.dtd">
<!-- Generated by graphviz version 12.2.1 (20241206.2353)
 -->
<!-- Title: FONTS/interficie/VistaConsultarAvatars.java Pages: 1 -->
<svg width="1021pt" height="96pt"
 viewBox="0.00 0.00 1020.62 96.00" xmlns="http://www.w3.org/2000/svg" xmlns:xlink="http://www.w3.org/1999/xlink">
<g id="graph0" class="graph" transform="scale(1 1) rotate(0) translate(4 92)">
<title>FONTS/interficie/VistaConsultarAvatars.java</title>
<!-- Node1 -->
<g id="Node000001" class="node">
<title>Node1</title>
<g id="a_Node000001"><a xlink:title=" ">
<polygon fill="#999999" stroke="#666666" points="584.75,-88 427.75,-88 427.75,-56 584.75,-56 584.75,-88"/>
<text text-anchor="start" x="435.75" y="-74.5" font-family="Helvetica,sans-Serif" font-size="10.00">FONTS/interficie/VistaConsultar</text>
<text text-anchor="middle" x="506.25" y="-62.5" font-family="Helvetica,sans-Serif" font-size="10.00">Avatars.java</text>
</a>
</g>
</g>
<!-- Node2 -->
<g id="Node000002" class="node">
<title>Node2</title>
<g id="a_Node000002"><a xlink:title=" ">
<polygon fill="#e0e0e0" stroke="#999999" points="74.5,-20 0,-20 0,0 74.5,0 74.5,-20"/>
<text text-anchor="middle" x="37.25" y="-6.5" font-family="Helvetica,sans-Serif" font-size="10.00">javax.swing.*</text>
</a>
</g>
</g>
<!-- Node1&#45;&gt;Node2 -->
<g id="edge1_Node000001_Node000002" class="edge">
<title>Node1&#45;&gt;Node2</title>
<g id="a_edge1_Node000001_Node000002"><a xlink:title=" ">
<path fill="none" stroke="#63b8ff" d="M427.27,-63.22C344.62,-54.69 210.83,-39.77 86.13,-20.36"/>
<polygon fill="#63b8ff" stroke="#63b8ff" points="86.78,-16.92 76.36,-18.83 85.7,-23.84 86.78,-16.92"/>
</a>
</g>
</g>
<!-- Node3 -->
<g id="Node000003" class="node">
<title>Node3</title>
<g id="a_Node000003"><a xlink:title=" ">
<polygon fill="#e0e0e0" stroke="#999999" points="232.12,-20 92.38,-20 92.38,0 232.12,0 232.12,-20"/>
<text text-anchor="middle" x="162.25" y="-6.5" font-family="Helvetica,sans-Serif" font-size="10.00">controladors.CtrlPresentacio</text>
</a>
</g>
</g>
<!-- Node1&#45;&gt;Node3 -->
<g id="edge2_Node000001_Node000003" class="edge">
<title>Node1&#45;&gt;Node3</title>
<g id="a_edge2_Node000001_Node000003"><a xlink:title=" ">
<path fill="none" stroke="#63b8ff" d="M427.33,-57.23C366.89,-46.69 284.51,-32.32 227.71,-22.42"/>
<polygon fill="#63b8ff" stroke="#63b8ff" points="228.65,-19.03 218.19,-20.76 227.44,-25.92 228.65,-19.03"/>
</a>
</g>
</g>
<!-- Node4 -->
<g id="Node000004" class="node">
<title>Node4</title>
<g id="a_Node000004"><a xlink:title=" ">
<polygon fill="#e0e0e0" stroke="#999999" points="310,-20 250.5,-20 250.5,0 310,0 310,-20"/>
<text text-anchor="middle" x="280.25" y="-6.5" font-family="Helvetica,sans-Serif" font-size="10.00">java.awt.*</text>
</a>
</g>
</g>
<!-- Node1&#45;&gt;Node4 -->
<g id="edge3_Node000001_Node000004" class="edge">
<title>Node1&#45;&gt;Node4</title>
<g id="a_edge3_Node000001_Node000004"><a xlink:title=" ">
<path fill="none" stroke="#63b8ff" d="M448.05,-55.55C408.28,-44.99 356.56,-31.26 321.11,-21.85"/>
<polygon fill="#63b8ff" stroke="#63b8ff" points="322.24,-18.53 311.67,-19.34 320.44,-25.29 322.24,-18.53"/>
</a>
</g>
</g>
<!-- Node5 -->
<g id="Node000005" class="node">
<title>Node5</title>
<g id="a_Node000005"><a xlink:title=" ">
<polygon fill="#e0e0e0" stroke="#999999" points="414.5,-20 328,-20 328,0 414.5,0 414.5,-20"/>
<text text-anchor="middle" x="371.25" y="-6.5" font-family="Helvetica,sans-Serif" font-size="10.00">java.awt.event.*</text>
</a>
</g>
</g>
<!-- Node1&#45;&gt;Node5 -->
<g id="edge4_Node000001_Node000005" class="edge">
<title>Node1&#45;&gt;Node5</title>
<g id="a_edge4_Node000001_Node000005"><a xlink:title=" ">
<path fill="none" stroke="#63b8ff" d="M471.48,-55.55C450.29,-46.13 423.42,-34.19 402.84,-25.04"/>
<polygon fill="#63b8ff" stroke="#63b8ff" points="404.36,-21.89 393.8,-21.02 401.52,-28.28 404.36,-21.89"/>
</a>
</g>
</g>
<!-- Node6 -->
<g id="Node000006" class="node">
<title>Node6</title>
<g id="a_Node000006"><a xlink:title=" ">
<polygon fill="#e0e0e0" stroke="#999999" points="580.25,-20 432.25,-20 432.25,0 580.25,0 580.25,-20"/>
<text text-anchor="middle" x="506.25" y="-6.5" font-family="Helvetica,sans-Serif" font-size="10.00">java.awt.image.BufferedImage</text>
</a>
</g>
</g>
<!-- Node1&#45;&gt;Node6 -->
<g id="edge5_Node000001_Node000006" class="edge">
<title>Node1&#45;&gt;Node6</title>
<g id="a_edge5_Node000001_Node000006"><a xlink:title=" ">
<path fill="none" stroke="#63b8ff" d="M506.25,-55.55C506.25,-48.34 506.25,-39.66 506.25,-31.88"/>
<polygon fill="#63b8ff" stroke="#63b8ff" points="509.75,-31.92 506.25,-21.92 502.75,-31.92 509.75,-31.92"/>
</a>
</g>
</g>
<!-- Node7 -->
<g id="Node000007" class="node">
<title>Node7</title>
<g id="a_Node000007"><a xlink:title=" ">
<polygon fill="#e0e0e0" stroke="#999999" points="661.88,-20 598.62,-20 598.62,0 661.88,0 661.88,-20"/>
<text text-anchor="middle" x="630.25" y="-6.5" font-family="Helvetica,sans-Serif" font-size="10.00">java.io.File</text>
</a>
</g>
</g>
<!-- Node1&#45;&gt;Node7 -->
<g id="edge6_Node000001_Node000007" class="edge">
<title>Node1&#45;&gt;Node7</title>
<g id="a_edge6_Node000001_Node000007"><a xlink:title=" ">
<path fill="none" stroke="#63b8ff" d="M538.18,-55.55C557.38,-46.26 581.65,-34.52 600.45,-25.42"/>
<polygon fill="#63b8ff" stroke="#63b8ff" points="601.97,-28.57 609.44,-21.07 598.92,-22.27 601.97,-28.57"/>
</a>
</g>
</g>
<!-- Node8 -->
<g id="Node000008" class="node">
<title>Node8</title>
<g id="a_Node000008"><a xlink:title=" ">
<polygon fill="#e0e0e0" stroke="#999999" points="770.75,-20 679.75,-20 679.75,0 770.75,0 770.75,-20"/>
<text text-anchor="middle" x="725.25" y="-6.5" font-family="Helvetica,sans-Serif" font-size="10.00">domini.jugadors.*</text>
</a>
</g>
</g>
<!-- Node1&#45;&gt;Node8 -->
<g id="edge7_Node000001_Node000008" class="edge">
<title>Node1&#45;&gt;Node8</title>
<g id="a_edge7_Node000001_Node000008"><a xlink:title=" ">
<path fill="none" stroke="#63b8ff" d="M562.65,-55.55C598.97,-45.6 645.58,-32.83 679.58,-23.51"/>
<polygon fill="#63b8ff" stroke="#63b8ff" points="680.41,-26.91 689.13,-20.9 678.56,-20.16 680.41,-26.91"/>
</a>
</g>
</g>
<!-- Node9 -->
<g id="Node000009" class="node">
<title>Node9</title>
<g id="a_Node000009"><a xlink:title=" ">
<polygon fill="#e0e0e0" stroke="#999999" points="869.5,-20 789,-20 789,0 869.5,0 869.5,-20"/>
<text text-anchor="middle" x="829.25" y="-6.5" font-family="Helvetica,sans-Serif" font-size="10.00">interficie.utils.*</text>
</a>
</g>
</g>
<!-- Node1&#45;&gt;Node9 -->
<g id="edge8_Node000001_Node000009" class="edge">
<title>Node1&#45;&gt;Node9</title>
<g id="a_edge8_Node000001_Node000009"><a xlink:title=" ">
<path fill="none" stroke="#63b8ff" d="M584.85,-56.4C644.75,-45.27 725.51,-30.27 777.49,-20.61"/>
<polygon fill="#63b8ff" stroke="#63b8ff" points="778.09,-24.06 787.28,-18.8 776.81,-17.18 778.09,-24.06"/>
</a>
</g>
</g>
<!-- Node10 -->
<g id="Node000010" class="node">
<title>Node10</title>
<g id="a_Node000010"><a xlink:title=" ">
<polygon fill="#e0e0e0" stroke="#999999" points="1012.62,-20 887.88,-20 887.88,0 1012.62,0 1012.62,-20"/>
<text text-anchor="middle" x="950.25" y="-6.5" font-family="Helvetica,sans-Serif" font-size="10.00">java.awt.geom.Ellipse2D</text>
</a>
</g>
</g>
<!-- Node1&#45;&gt;Node10 -->
<g id="edge9_Node000001_Node000010" class="edge">
<title>Node1&#45;&gt;Node10</title>
<g id="a_edge9_Node000001_Node000010"><a xlink:title=" ">
<path fill="none" stroke="#63b8ff" d="M585.12,-60.34C667.58,-49.2 795.99,-31.85 876.49,-20.97"/>
<polygon fill="#63b8ff" stroke="#63b8ff" points="876.59,-24.49 886.03,-19.68 875.65,-17.55 876.59,-24.49"/>
</a>
</g>
</g>
</g>
</svg>
