<?xml version="1.0" encoding="UTF-8" standalone="no"?>
<!DOCTYPE svg PUBLIC "-//W3C//DTD SVG 1.1//EN"
 "http://www.w3.org/Graphics/SVG/1.1/DTD/svg11.dtd">
<!-- Generated by graphviz version 12.2.1 (20241206.2353)
 -->
<!-- Title: FONTS/interficie/VistaCrearPerfil.java Pages: 1 -->
<svg width="721pt" height="96pt"
 viewBox="0.00 0.00 721.00 96.00" xmlns="http://www.w3.org/2000/svg" xmlns:xlink="http://www.w3.org/1999/xlink">
<g id="graph0" class="graph" transform="scale(1 1) rotate(0) translate(4 92)">
<title>FONTS/interficie/VistaCrearPerfil.java</title>
<!-- Node1 -->
<g id="Node000001" class="node">
<title>Node1</title>
<g id="a_Node000001"><a xlink:title=" ">
<polygon fill="#999999" stroke="#666666" points="464.75,-88 325.75,-88 325.75,-56 464.75,-56 464.75,-88"/>
<text text-anchor="start" x="333.75" y="-74.5" font-family="Helvetica,sans-Serif" font-size="10.00">FONTS/interficie/VistaCrear</text>
<text text-anchor="middle" x="395.25" y="-62.5" font-family="Helvetica,sans-Serif" font-size="10.00">Perfil.java</text>
</a>
</g>
</g>
<!-- Node2 -->
<g id="Node000002" class="node">
<title>Node2</title>
<g id="a_Node000002"><a xlink:title=" ">
<polygon fill="#e0e0e0" stroke="#999999" points="74.5,-20 0,-20 0,0 74.5,0 74.5,-20"/>
<text text-anchor="middle" x="37.25" y="-6.5" font-family="Helvetica,sans-Serif" font-size="10.00">javax.swing.*</text>
</a>
</g>
</g>
<!-- Node1&#45;&gt;Node2 -->
<g id="edge1_Node000001_Node000002" class="edge">
<title>Node1&#45;&gt;Node2</title>
<g id="a_edge1_Node000001_Node000002"><a xlink:title=" ">
<path fill="none" stroke="#63b8ff" d="M325.44,-60.23C264.74,-50.71 174.12,-36.16 86.16,-20.48"/>
<polygon fill="#63b8ff" stroke="#63b8ff" points="86.84,-17.05 76.38,-18.73 85.6,-23.94 86.84,-17.05"/>
</a>
</g>
</g>
<!-- Node3 -->
<g id="Node000003" class="node">
<title>Node3</title>
<g id="a_Node000003"><a xlink:title=" ">
<polygon fill="#e0e0e0" stroke="#999999" points="232.12,-20 92.38,-20 92.38,0 232.12,0 232.12,-20"/>
<text text-anchor="middle" x="162.25" y="-6.5" font-family="Helvetica,sans-Serif" font-size="10.00">controladors.CtrlPresentacio</text>
</a>
</g>
</g>
<!-- Node1&#45;&gt;Node3 -->
<g id="edge2_Node000001_Node000003" class="edge">
<title>Node1&#45;&gt;Node3</title>
<g id="a_edge2_Node000001_Node000003"><a xlink:title=" ">
<path fill="none" stroke="#63b8ff" d="M335.25,-55.55C296.27,-45.51 246.15,-32.61 209.9,-23.27"/>
<polygon fill="#63b8ff" stroke="#63b8ff" points="211.15,-19.98 200.59,-20.87 209.4,-26.76 211.15,-19.98"/>
</a>
</g>
</g>
<!-- Node4 -->
<g id="Node000004" class="node">
<title>Node4</title>
<g id="a_Node000004"><a xlink:title=" ">
<polygon fill="#e0e0e0" stroke="#999999" points="336.5,-20 250,-20 250,0 336.5,0 336.5,-20"/>
<text text-anchor="middle" x="293.25" y="-6.5" font-family="Helvetica,sans-Serif" font-size="10.00">java.awt.event.*</text>
</a>
</g>
</g>
<!-- Node1&#45;&gt;Node4 -->
<g id="edge3_Node000001_Node000004" class="edge">
<title>Node1&#45;&gt;Node4</title>
<g id="a_edge3_Node000001_Node000004"><a xlink:title=" ">
<path fill="none" stroke="#63b8ff" d="M368.98,-55.55C353.64,-46.52 334.35,-35.17 319.08,-26.19"/>
<polygon fill="#63b8ff" stroke="#63b8ff" points="320.94,-23.23 310.55,-21.18 317.39,-29.26 320.94,-23.23"/>
</a>
</g>
</g>
<!-- Node5 -->
<g id="Node000005" class="node">
<title>Node5</title>
<g id="a_Node000005"><a xlink:title=" ">
<polygon fill="#e0e0e0" stroke="#999999" points="435.5,-20 355,-20 355,0 435.5,0 435.5,-20"/>
<text text-anchor="middle" x="395.25" y="-6.5" font-family="Helvetica,sans-Serif" font-size="10.00">interficie.utils.*</text>
</a>
</g>
</g>
<!-- Node1&#45;&gt;Node5 -->
<g id="edge4_Node000001_Node000005" class="edge">
<title>Node1&#45;&gt;Node5</title>
<g id="a_edge4_Node000001_Node000005"><a xlink:title=" ">
<path fill="none" stroke="#63b8ff" d="M395.25,-55.55C395.25,-48.34 395.25,-39.66 395.25,-31.88"/>
<polygon fill="#63b8ff" stroke="#63b8ff" points="398.75,-31.92 395.25,-21.92 391.75,-31.92 398.75,-31.92"/>
</a>
</g>
</g>
<!-- Node6 -->
<g id="Node000006" class="node">
<title>Node6</title>
<g id="a_Node000006"><a xlink:title=" ">
<polygon fill="#e0e0e0" stroke="#999999" points="513,-20 453.5,-20 453.5,0 513,0 513,-20"/>
<text text-anchor="middle" x="483.25" y="-6.5" font-family="Helvetica,sans-Serif" font-size="10.00">java.awt.*</text>
</a>
</g>
</g>
<!-- Node1&#45;&gt;Node6 -->
<g id="edge5_Node000001_Node000006" class="edge">
<title>Node1&#45;&gt;Node6</title>
<g id="a_edge5_Node000001_Node000006"><a xlink:title=" ">
<path fill="none" stroke="#63b8ff" d="M417.91,-55.55C430.9,-46.69 447.16,-35.61 460.21,-26.71"/>
<polygon fill="#63b8ff" stroke="#63b8ff" points="461.91,-29.79 468.2,-21.26 457.97,-24 461.91,-29.79"/>
</a>
</g>
</g>
<!-- Node7 -->
<g id="Node000007" class="node">
<title>Node7</title>
<g id="a_Node000007"><a xlink:title=" ">
<polygon fill="#e0e0e0" stroke="#999999" points="593.88,-20 530.62,-20 530.62,0 593.88,0 593.88,-20"/>
<text text-anchor="middle" x="562.25" y="-6.5" font-family="Helvetica,sans-Serif" font-size="10.00">java.io.File</text>
</a>
</g>
</g>
<!-- Node1&#45;&gt;Node7 -->
<g id="edge6_Node000001_Node000007" class="edge">
<title>Node1&#45;&gt;Node7</title>
<g id="a_edge6_Node000001_Node000007"><a xlink:title=" ">
<path fill="none" stroke="#63b8ff" d="M438.26,-55.55C465.2,-45.87 499.55,-33.53 525.27,-24.29"/>
<polygon fill="#63b8ff" stroke="#63b8ff" points="526.41,-27.59 534.64,-20.92 524.05,-21.01 526.41,-27.59"/>
</a>
</g>
</g>
<!-- Node8 -->
<g id="Node000008" class="node">
<title>Node8</title>
<g id="a_Node000008"><a xlink:title=" ">
<polygon fill="#e0e0e0" stroke="#999999" points="713,-20 611.5,-20 611.5,0 713,0 713,-20"/>
<text text-anchor="middle" x="662.25" y="-6.5" font-family="Helvetica,sans-Serif" font-size="10.00">java.io.IOException</text>
</a>
</g>
</g>
<!-- Node1&#45;&gt;Node8 -->
<g id="edge7_Node000001_Node000008" class="edge">
<title>Node1&#45;&gt;Node8</title>
<g id="a_edge7_Node000001_Node000008"><a xlink:title=" ">
<path fill="none" stroke="#63b8ff" d="M464.01,-55.55C509.16,-45.4 567.34,-32.33 608.98,-22.97"/>
<polygon fill="#63b8ff" stroke="#63b8ff" points="609.53,-26.44 618.51,-20.83 607.99,-19.61 609.53,-26.44"/>
</a>
</g>
</g>
</g>
</svg>
