<?xml version="1.0" encoding="UTF-8" standalone="no"?>
<!DOCTYPE svg PUBLIC "-//W3C//DTD SVG 1.1//EN"
 "http://www.w3.org/Graphics/SVG/1.1/DTD/svg11.dtd">
<!-- Generated by graphviz version 12.2.1 (20241206.2353)
 -->
<!-- Title: interficie.VistaCrearPerfil.PlaceholderTextField Pages: 1 -->
<svg width="128pt" height="176pt"
 viewBox="0.00 0.00 127.75 176.00" xmlns="http://www.w3.org/2000/svg" xmlns:xlink="http://www.w3.org/1999/xlink">
<g id="graph0" class="graph" transform="scale(1 1) rotate(0) translate(4 172)">
<title>interficie.VistaCrearPerfil.PlaceholderTextField</title>
<!-- Node1 -->
<g id="Node000001" class="node">
<title>Node1</title>
<g id="a_Node000001"><a xlink:title="Camp de text personalitzat que mostra un placeholder quan està buit i no té focus.">
<polygon fill="#999999" stroke="none" points="119.75,-80 0,-80 0,0 119.75,0 119.75,-80"/>
<text text-anchor="start" x="4" y="-66.5" font-family="Helvetica,sans-Serif" font-size="10.00">interficie.VistaCrearPerfil.</text>
<text text-anchor="start" x="14.5" y="-54.5" font-family="Helvetica,sans-Serif" font-size="10.00">PlaceholderTextField</text>
<text text-anchor="start" x="11.62" y="-38.5" font-family="Helvetica,sans-Serif" font-size="10.00">&#45;</text>
<text text-anchor="start" x="26.25" y="-38.5" font-family="Helvetica,sans-Serif" font-size="10.00">placeholder</text>
<text text-anchor="start" x="10.12" y="-22.5" font-family="Helvetica,sans-Serif" font-size="10.00">+</text>
<text text-anchor="start" x="26.25" y="-22.5" font-family="Helvetica,sans-Serif" font-size="10.00">setPlaceholder()</text>
<text text-anchor="start" x="10.5" y="-6.5" font-family="Helvetica,sans-Serif" font-size="10.00">#</text>
<text text-anchor="start" x="26.25" y="-6.5" font-family="Helvetica,sans-Serif" font-size="10.00">paintComponent()</text>
<polygon fill="#666666" stroke="#666666" points="0,-50 0,-50 119.75,-50 119.75,-50 0,-50"/>
<polygon fill="#666666" stroke="#666666" points="0,-34 0,-34 24.25,-34 24.25,-34 0,-34"/>
<polygon fill="#666666" stroke="#666666" points="24.25,-34 24.25,-34 119.75,-34 119.75,-34 24.25,-34"/>
<polygon fill="none" stroke="#666666" points="0,0 0,-80 119.75,-80 119.75,0 0,0"/>
</a>
</g>
</g>
<!-- Node2 -->
<g id="Node000002" class="node">
<title>Node2</title>
<g id="a_Node000002"><a xlink:title=" ">
<polygon fill="white" stroke="none" points="86.38,-168 33.38,-168 33.38,-116 86.38,-116 86.38,-168"/>
<text text-anchor="start" x="37.38" y="-154.5" font-family="Helvetica,sans-Serif" font-size="10.00">JTextField</text>
<text text-anchor="start" x="58.38" y="-138.5" font-family="Helvetica,sans-Serif" font-size="10.00"> </text>
<text text-anchor="start" x="58.38" y="-122.5" font-family="Helvetica,sans-Serif" font-size="10.00"> </text>
<polygon fill="#666666" stroke="#666666" points="33.38,-150 33.38,-150 86.38,-150 86.38,-150 33.38,-150"/>
<polygon fill="#666666" stroke="#666666" points="33.38,-134 33.38,-134 86.38,-134 86.38,-134 33.38,-134"/>
<polygon fill="none" stroke="#666666" points="33.38,-116 33.38,-168 86.38,-168 86.38,-116 33.38,-116"/>
</a>
</g>
</g>
<!-- Node2&#45;&gt;Node1 -->
<g id="edge1_Node000001_Node000002" class="edge">
<title>Node2&#45;&gt;Node1</title>
<g id="a_edge1_Node000001_Node000002"><a xlink:title=" ">
<path fill="none" stroke="#63b8ff" d="M59.88,-104.61C59.88,-96.5 59.88,-87.86 59.88,-79.65"/>
<polygon fill="none" stroke="#63b8ff" points="56.38,-104.51 59.88,-114.51 63.38,-104.51 56.38,-104.51"/>
</a>
</g>
</g>
</g>
</svg>
