<?xml version="1.0" encoding="UTF-8" standalone="no"?>
<!DOCTYPE svg PUBLIC "-//W3C//DTD SVG 1.1//EN"
 "http://www.w3.org/Graphics/SVG/1.1/DTD/svg11.dtd">
<!-- Generated by graphviz version 12.2.1 (20241206.2353)
 -->
<!-- Title: interficie.VistaConsultarRanking.carregarRanking Pages: 1 -->
<svg width="326pt" height="58pt"
 viewBox="0.00 0.00 325.75 58.00" xmlns="http://www.w3.org/2000/svg" xmlns:xlink="http://www.w3.org/1999/xlink">
<g id="graph0" class="graph" transform="scale(1 1) rotate(0) translate(4 54)">
<title>interficie.VistaConsultarRanking.carregarRanking</title>
<!-- Node1 -->
<g id="Node000001" class="node">
<title>Node1</title>
<g id="a_Node000001"><a xlink:title="Carrega i mostra el rànquing a partir del límit indicat.">
<polygon fill="#999999" stroke="#666666" points="317.75,-32 191.5,-32 191.5,0 317.75,0 317.75,-32"/>
<text text-anchor="start" x="199.5" y="-18.5" font-family="Helvetica,sans-Serif" font-size="10.00">interficie.VistaConsultar</text>
<text text-anchor="middle" x="254.62" y="-6.5" font-family="Helvetica,sans-Serif" font-size="10.00">Ranking.carregarRanking</text>
</a>
</g>
</g>
<!-- Node2 -->
<g id="Node000002" class="node">
<title>Node2</title>
<g id="a_Node000002"><a xlink:href="$classinterficie_1_1_vista_consultar_ranking.html#a86d8edbe84e816fcf7c14b51a8d2e214" xlink:title="Constructor de la classe.">
<polygon fill="white" stroke="#666666" points="155.5,-32 0,-32 0,0 155.5,0 155.5,-32"/>
<text text-anchor="start" x="8" y="-18.5" font-family="Helvetica,sans-Serif" font-size="10.00">interficie.VistaConsultar</text>
<text text-anchor="middle" x="77.75" y="-6.5" font-family="Helvetica,sans-Serif" font-size="10.00">Ranking.VistaConsultarRanking</text>
</a>
</g>
</g>
<!-- Node1&#45;&gt;Node2 -->
<g id="edge1_Node000001_Node000002" class="edge">
<title>Node1&#45;&gt;Node2</title>
<g id="a_edge1_Node000001_Node000002"><a xlink:title=" ">
<path fill="none" stroke="#63b8ff" d="M180,-9.33C172.06,-9.24 163.97,-9.23 156,-9.29"/>
<polygon fill="#63b8ff" stroke="#63b8ff" points="179.91,-12.82 189.96,-9.48 180.02,-5.83 179.91,-12.82"/>
</a>
</g>
</g>
<!-- Node2&#45;&gt;Node1 -->
<g id="edge2_Node000002_Node000001" class="edge">
<title>Node2&#45;&gt;Node1</title>
<g id="a_edge2_Node000002_Node000001"><a xlink:title=" ">
<path fill="none" stroke="#63b8ff" d="M167.45,-22.75C175.57,-22.74 183.67,-22.66 191.48,-22.49"/>
<polygon fill="#63b8ff" stroke="#63b8ff" points="167.53,-19.25 157.51,-22.71 167.5,-26.25 167.53,-19.25"/>
</a>
</g>
</g>
<!-- Node2&#45;&gt;Node2 -->
<g id="edge3_Node000002_Node000002" class="edge">
<title>Node2&#45;&gt;Node2</title>
<g id="a_edge3_Node000002_Node000002"><a xlink:title=" ">
<path fill="none" stroke="#63b8ff" d="M107.23,-43.71C102.31,-47.48 92.49,-50 77.75,-50 50.8,-50 40.28,-41.58 46.17,-32.44"/>
<polygon fill="#63b8ff" stroke="#63b8ff" points="110.66,-44.4 109.05,-33.93 103.77,-43.12 110.66,-44.4"/>
</a>
</g>
</g>
</g>
</svg>
