<?xml version="1.0" encoding="UTF-8" standalone="no"?>
<!DOCTYPE svg PUBLIC "-//W3C//DTD SVG 1.1//EN"
 "http://www.w3.org/Graphics/SVG/1.1/DTD/svg11.dtd">
<!-- Generated by graphviz version 12.2.1 (20241206.2353)
 -->
<!-- Title: domini.scrabble.Estat Pages: 1 -->
<svg width="471pt" height="1448pt"
 viewBox="0.00 0.00 471.25 1448.00" xmlns="http://www.w3.org/2000/svg" xmlns:xlink="http://www.w3.org/1999/xlink">
<g id="graph0" class="graph" transform="scale(1 1) rotate(0) translate(4 1444)">
<title>domini.scrabble.Estat</title>
<!-- Node1 -->
<g id="Node000001" class="node">
<title>Node1</title>
<g id="a_Node000001"><a xlink:title="Classe abstracta que defineix el comportament genèric per als diferents estats d&#39;una partida.">
<polygon fill="#999999" stroke="none" points="251.12,-132 148.62,-132 148.62,0 251.12,0 251.12,-132"/>
<text text-anchor="start" x="152.62" y="-118.5" font-family="Helvetica,sans-Serif" font-size="10.00">domini.scrabble.Estat</text>
<text text-anchor="start" x="198.38" y="-102.5" font-family="Helvetica,sans-Serif" font-size="10.00"> </text>
<text text-anchor="start" x="161.19" y="-86.5" font-family="Helvetica,sans-Serif" font-size="10.00">+</text>
<text text-anchor="start" x="179.75" y="-86.5" font-family="Helvetica,sans-Serif" font-size="10.00">Estat()</text>
<text text-anchor="start" x="161.19" y="-70.5" font-family="Helvetica,sans-Serif" font-size="10.00">+</text>
<text text-anchor="start" x="179.75" y="-70.5" font-family="Helvetica,sans-Serif" font-size="10.00">setPartida()</text>
<text text-anchor="start" x="161.19" y="-54.5" font-family="Helvetica,sans-Serif" font-size="10.00">+</text>
<text text-anchor="start" x="179.75" y="-54.5" font-family="Helvetica,sans-Serif" font-size="10.00">iniciar()</text>
<text text-anchor="start" x="161.19" y="-38.5" font-family="Helvetica,sans-Serif" font-size="10.00">+</text>
<text text-anchor="start" x="179.75" y="-38.5" font-family="Helvetica,sans-Serif" font-size="10.00">encurs()</text>
<text text-anchor="start" x="161.19" y="-22.5" font-family="Helvetica,sans-Serif" font-size="10.00">+</text>
<text text-anchor="start" x="179.75" y="-22.5" font-family="Helvetica,sans-Serif" font-size="10.00">pausar()</text>
<text text-anchor="start" x="161.19" y="-6.5" font-family="Helvetica,sans-Serif" font-size="10.00">+</text>
<text text-anchor="start" x="179.75" y="-6.5" font-family="Helvetica,sans-Serif" font-size="10.00">finalitzar()</text>
<polygon fill="#666666" stroke="#666666" points="148.62,-114 148.62,-114 251.12,-114 251.12,-114 148.62,-114"/>
<polygon fill="#666666" stroke="#666666" points="148.62,-98 148.62,-98 251.12,-98 251.12,-98 148.62,-98"/>
<polygon fill="none" stroke="#666666" points="148.62,0 148.62,-132 251.12,-132 251.12,0 148.62,0"/>
</a>
</g>
</g>
<!-- Node2 -->
<g id="Node000002" class="node">
<title>Node2</title>
<g id="a_Node000002"><a xlink:href="classdomini_1_1scrabble_1_1_partida.html" target="_top" xlink:title="Classe que representa una partida d&#39;Scrabble.">
<polygon fill="white" stroke="none" points="321.25,-480 200.5,-480 200.5,-180 321.25,-180 321.25,-480"/>
<text text-anchor="start" x="209.88" y="-466.5" font-family="Helvetica,sans-Serif" font-size="10.00">domini.scrabble.Partida</text>
<text text-anchor="start" x="206" y="-450.5" font-family="Helvetica,sans-Serif" font-size="10.00">&#45;</text>
<text text-anchor="start" x="214.5" y="-450.5" font-family="Helvetica,sans-Serif" font-size="10.00">idioma</text>
<text text-anchor="start" x="206" y="-434.5" font-family="Helvetica,sans-Serif" font-size="10.00">&#45;</text>
<text text-anchor="start" x="214.5" y="-434.5" font-family="Helvetica,sans-Serif" font-size="10.00">torn</text>
<text text-anchor="start" x="206" y="-418.5" font-family="Helvetica,sans-Serif" font-size="10.00">&#45;</text>
<text text-anchor="start" x="214.5" y="-418.5" font-family="Helvetica,sans-Serif" font-size="10.00">idP</text>
<text text-anchor="start" x="206" y="-402.5" font-family="Helvetica,sans-Serif" font-size="10.00">&#45;</text>
<text text-anchor="start" x="214.5" y="-402.5" font-family="Helvetica,sans-Serif" font-size="10.00">puntuacio_jugador_1</text>
<text text-anchor="start" x="206" y="-386.5" font-family="Helvetica,sans-Serif" font-size="10.00">&#45;</text>
<text text-anchor="start" x="214.5" y="-386.5" font-family="Helvetica,sans-Serif" font-size="10.00">puntuacio_jugador_2</text>
<text text-anchor="start" x="204.5" y="-370.5" font-family="Helvetica,sans-Serif" font-size="10.00">+</text>
<text text-anchor="start" x="214.5" y="-370.5" font-family="Helvetica,sans-Serif" font-size="10.00">Partida()</text>
<text text-anchor="start" x="204.5" y="-354.5" font-family="Helvetica,sans-Serif" font-size="10.00">+</text>
<text text-anchor="start" x="214.5" y="-354.5" font-family="Helvetica,sans-Serif" font-size="10.00">getTorn()</text>
<text text-anchor="start" x="204.5" y="-338.5" font-family="Helvetica,sans-Serif" font-size="10.00">+</text>
<text text-anchor="start" x="214.5" y="-338.5" font-family="Helvetica,sans-Serif" font-size="10.00">incrementarTorn()</text>
<text text-anchor="start" x="204.5" y="-322.5" font-family="Helvetica,sans-Serif" font-size="10.00">+</text>
<text text-anchor="start" x="214.5" y="-322.5" font-family="Helvetica,sans-Serif" font-size="10.00">incrementar_puntuacio</text>
<text text-anchor="start" x="214.5" y="-310.5" font-family="Helvetica,sans-Serif" font-size="10.00">_partida()</text>
<text text-anchor="start" x="204.5" y="-294.5" font-family="Helvetica,sans-Serif" font-size="10.00">+</text>
<text text-anchor="start" x="214.5" y="-294.5" font-family="Helvetica,sans-Serif" font-size="10.00">getIdioma()</text>
<text text-anchor="start" x="204.5" y="-278.5" font-family="Helvetica,sans-Serif" font-size="10.00">+</text>
<text text-anchor="start" x="214.5" y="-278.5" font-family="Helvetica,sans-Serif" font-size="10.00">reiniciar_puntuacio</text>
<text text-anchor="start" x="214.5" y="-266.5" font-family="Helvetica,sans-Serif" font-size="10.00">_partida()</text>
<text text-anchor="start" x="204.5" y="-250.5" font-family="Helvetica,sans-Serif" font-size="10.00">+</text>
<text text-anchor="start" x="214.5" y="-250.5" font-family="Helvetica,sans-Serif" font-size="10.00">getPuntuacioJugador1()</text>
<text text-anchor="start" x="204.5" y="-234.5" font-family="Helvetica,sans-Serif" font-size="10.00">+</text>
<text text-anchor="start" x="214.5" y="-234.5" font-family="Helvetica,sans-Serif" font-size="10.00">getPuntuacioJugador2()</text>
<text text-anchor="start" x="204.5" y="-218.5" font-family="Helvetica,sans-Serif" font-size="10.00">+</text>
<text text-anchor="start" x="214.5" y="-218.5" font-family="Helvetica,sans-Serif" font-size="10.00">getTaulell()</text>
<text text-anchor="start" x="204.5" y="-202.5" font-family="Helvetica,sans-Serif" font-size="10.00">+</text>
<text text-anchor="start" x="214.5" y="-202.5" font-family="Helvetica,sans-Serif" font-size="10.00">imprimirtaulell()</text>
<text text-anchor="start" x="214.5" y="-186.5" font-family="Helvetica,sans-Serif" font-size="10.00">and 19 more...</text>
<polygon fill="#666666" stroke="#666666" points="200.5,-462 200.5,-462 321.25,-462 321.25,-462 200.5,-462"/>
<polygon fill="#666666" stroke="#666666" points="200.5,-382 200.5,-382 212.5,-382 212.5,-382 200.5,-382"/>
<polygon fill="#666666" stroke="#666666" points="212.5,-382 212.5,-382 321.25,-382 321.25,-382 212.5,-382"/>
<polygon fill="none" stroke="#666666" points="200.5,-180 200.5,-480 321.25,-480 321.25,-180 200.5,-180"/>
</a>
</g>
</g>
<!-- Node2&#45;&gt;Node1 -->
<g id="edge1_Node000001_Node000002" class="edge">
<title>Node2&#45;&gt;Node1</title>
<g id="a_edge1_Node000001_Node000002"><a xlink:title=" ">
<path fill="none" stroke="#63b8ff" d="M218.51,-180.36C217.06,-174.17 215.67,-168.03 214.38,-162 213.14,-156.24 211.97,-150.26 210.86,-144.23"/>
<polygon fill="none" stroke="#63b8ff" points="210.92,-144.54 205.95,-139.32 208.86,-132.72 213.83,-137.95 210.92,-144.54"/>
</a>
</g>
<text text-anchor="middle" x="233.12" y="-152.5" font-family="Helvetica,sans-Serif" font-size="10.00" fill="grey"> #partida</text>
</g>
<!-- Node11 -->
<g id="Node000011" class="node">
<title>Node11</title>
<g id="a_Node000011"><a xlink:href="classdomini_1_1scrabble_1_1_estat.html" target="_top" xlink:title="Classe abstracta que defineix el comportament genèric per als diferents estats d&#39;una partida.">
<polygon fill="white" stroke="none" points="372.12,-132 269.62,-132 269.62,0 372.12,0 372.12,-132"/>
<text text-anchor="start" x="273.62" y="-118.5" font-family="Helvetica,sans-Serif" font-size="10.00">domini.scrabble.Estat</text>
<text text-anchor="start" x="319.38" y="-102.5" font-family="Helvetica,sans-Serif" font-size="10.00"> </text>
<text text-anchor="start" x="282.19" y="-86.5" font-family="Helvetica,sans-Serif" font-size="10.00">+</text>
<text text-anchor="start" x="300.75" y="-86.5" font-family="Helvetica,sans-Serif" font-size="10.00">Estat()</text>
<text text-anchor="start" x="282.19" y="-70.5" font-family="Helvetica,sans-Serif" font-size="10.00">+</text>
<text text-anchor="start" x="300.75" y="-70.5" font-family="Helvetica,sans-Serif" font-size="10.00">setPartida()</text>
<text text-anchor="start" x="282.19" y="-54.5" font-family="Helvetica,sans-Serif" font-size="10.00">+</text>
<text text-anchor="start" x="300.75" y="-54.5" font-family="Helvetica,sans-Serif" font-size="10.00">iniciar()</text>
<text text-anchor="start" x="282.19" y="-38.5" font-family="Helvetica,sans-Serif" font-size="10.00">+</text>
<text text-anchor="start" x="300.75" y="-38.5" font-family="Helvetica,sans-Serif" font-size="10.00">encurs()</text>
<text text-anchor="start" x="282.19" y="-22.5" font-family="Helvetica,sans-Serif" font-size="10.00">+</text>
<text text-anchor="start" x="300.75" y="-22.5" font-family="Helvetica,sans-Serif" font-size="10.00">pausar()</text>
<text text-anchor="start" x="282.19" y="-6.5" font-family="Helvetica,sans-Serif" font-size="10.00">+</text>
<text text-anchor="start" x="300.75" y="-6.5" font-family="Helvetica,sans-Serif" font-size="10.00">finalitzar()</text>
<polygon fill="#666666" stroke="#666666" points="269.62,-114 269.62,-114 372.12,-114 372.12,-114 269.62,-114"/>
<polygon fill="#666666" stroke="#666666" points="269.62,-98 269.62,-98 372.12,-98 372.12,-98 269.62,-98"/>
<polygon fill="none" stroke="#666666" points="269.62,0 269.62,-132 372.12,-132 372.12,0 269.62,0"/>
</a>
</g>
</g>
<!-- Node2&#45;&gt;Node11 -->
<g id="edge11_Node000011_Node000002" class="edge">
<title>Node2&#45;&gt;Node11</title>
<g id="a_edge11_Node000011_Node000002"><a xlink:title=" ">
<path fill="none" stroke="#63b8ff" d="M251.08,-180.3C252.75,-169.92 255.12,-159.73 258.38,-150 259.86,-145.55 261.7,-141.14 263.79,-136.82"/>
<polygon fill="none" stroke="#63b8ff" points="263.72,-136.94 263.06,-129.76 269.44,-126.39 270.1,-133.57 263.72,-136.94"/>
</a>
</g>
<text text-anchor="middle" x="277.12" y="-152.5" font-family="Helvetica,sans-Serif" font-size="10.00" fill="grey"> #partida</text>
</g>
<!-- Node3 -->
<g id="Node000003" class="node">
<title>Node3</title>
<g id="a_Node000003"><a xlink:href="classdomini_1_1jugadors_1_1_jugador.html" target="_top" xlink:title="Representa un jugador del joc de Scrabble.">
<polygon fill="white" stroke="none" points="189.75,-924 0,-924 0,-540 189.75,-540 189.75,-924"/>
<text text-anchor="start" x="42" y="-910.5" font-family="Helvetica,sans-Serif" font-size="10.00">domini.jugadors.Jugador</text>
<text text-anchor="start" x="4.38" y="-894.5" font-family="Helvetica,sans-Serif" font-size="10.00">#</text>
<text text-anchor="start" x="14" y="-894.5" font-family="Helvetica,sans-Serif" font-size="10.00">idJugador</text>
<text text-anchor="start" x="4.38" y="-878.5" font-family="Helvetica,sans-Serif" font-size="10.00">#</text>
<text text-anchor="start" x="14" y="-878.5" font-family="Helvetica,sans-Serif" font-size="10.00">nom</text>
<text text-anchor="start" x="4.38" y="-862.5" font-family="Helvetica,sans-Serif" font-size="10.00">#</text>
<text text-anchor="start" x="14" y="-862.5" font-family="Helvetica,sans-Serif" font-size="10.00">puntuacio_actual</text>
<text text-anchor="start" x="4.38" y="-846.5" font-family="Helvetica,sans-Serif" font-size="10.00">#</text>
<text text-anchor="start" x="14" y="-846.5" font-family="Helvetica,sans-Serif" font-size="10.00">fitxes_actuals</text>
<text text-anchor="start" x="4.38" y="-830.5" font-family="Helvetica,sans-Serif" font-size="10.00">#</text>
<text text-anchor="start" x="14" y="-830.5" font-family="Helvetica,sans-Serif" font-size="10.00">tornsPassatsConsecutius</text>
<text text-anchor="start" x="4.38" y="-814.5" font-family="Helvetica,sans-Serif" font-size="10.00">#</text>
<text text-anchor="start" x="14" y="-814.5" font-family="Helvetica,sans-Serif" font-size="10.00">MAX_FITXES</text>
<text text-anchor="start" x="5.5" y="-798.5" font-family="Helvetica,sans-Serif" font-size="10.00">&#45;</text>
<text text-anchor="start" x="14" y="-798.5" font-family="Helvetica,sans-Serif" font-size="10.00">tipus</text>
<text text-anchor="start" x="5.5" y="-782.5" font-family="Helvetica,sans-Serif" font-size="10.00">&#45;</text>
<text text-anchor="start" x="14" y="-782.5" font-family="Helvetica,sans-Serif" font-size="10.00">rutaImatge</text>
<text text-anchor="start" x="4" y="-766.5" font-family="Helvetica,sans-Serif" font-size="10.00">+</text>
<text text-anchor="start" x="14" y="-766.5" font-family="Helvetica,sans-Serif" font-size="10.00">Jugador()</text>
<text text-anchor="start" x="4" y="-750.5" font-family="Helvetica,sans-Serif" font-size="10.00">+</text>
<text text-anchor="start" x="14" y="-750.5" font-family="Helvetica,sans-Serif" font-size="10.00">getIdJugador()</text>
<text text-anchor="start" x="4" y="-734.5" font-family="Helvetica,sans-Serif" font-size="10.00">+</text>
<text text-anchor="start" x="14" y="-734.5" font-family="Helvetica,sans-Serif" font-size="10.00">getrutaImatge()</text>
<text text-anchor="start" x="4" y="-718.5" font-family="Helvetica,sans-Serif" font-size="10.00">+</text>
<text text-anchor="start" x="14" y="-718.5" font-family="Helvetica,sans-Serif" font-size="10.00">getNom()</text>
<text text-anchor="start" x="4" y="-702.5" font-family="Helvetica,sans-Serif" font-size="10.00">+</text>
<text text-anchor="start" x="14" y="-702.5" font-family="Helvetica,sans-Serif" font-size="10.00">getFitxes_actuals()</text>
<text text-anchor="start" x="4" y="-686.5" font-family="Helvetica,sans-Serif" font-size="10.00">+</text>
<text text-anchor="start" x="14" y="-686.5" font-family="Helvetica,sans-Serif" font-size="10.00">setFitxesActuals()</text>
<text text-anchor="start" x="4" y="-670.5" font-family="Helvetica,sans-Serif" font-size="10.00">+</text>
<text text-anchor="start" x="14" y="-670.5" font-family="Helvetica,sans-Serif" font-size="10.00">buidarFitxesJugador()</text>
<text text-anchor="start" x="4" y="-654.5" font-family="Helvetica,sans-Serif" font-size="10.00">+</text>
<text text-anchor="start" x="14" y="-654.5" font-family="Helvetica,sans-Serif" font-size="10.00">getPuntuacio_actual()</text>
<text text-anchor="start" x="4" y="-638.5" font-family="Helvetica,sans-Serif" font-size="10.00">+</text>
<text text-anchor="start" x="14" y="-638.5" font-family="Helvetica,sans-Serif" font-size="10.00">incrementar_puntuacio</text>
<text text-anchor="start" x="14" y="-626.5" font-family="Helvetica,sans-Serif" font-size="10.00">_actual()</text>
<text text-anchor="start" x="4" y="-610.5" font-family="Helvetica,sans-Serif" font-size="10.00">+</text>
<text text-anchor="start" x="14" y="-610.5" font-family="Helvetica,sans-Serif" font-size="10.00">afegirFitxa()</text>
<text text-anchor="start" x="4" y="-594.5" font-family="Helvetica,sans-Serif" font-size="10.00">+</text>
<text text-anchor="start" x="14" y="-594.5" font-family="Helvetica,sans-Serif" font-size="10.00">eliminarFitxa()</text>
<text text-anchor="start" x="4" y="-578.5" font-family="Helvetica,sans-Serif" font-size="10.00">+</text>
<text text-anchor="start" x="14" y="-578.5" font-family="Helvetica,sans-Serif" font-size="10.00">incrementarTornsPassatsConsecutius()</text>
<text text-anchor="start" x="4" y="-562.5" font-family="Helvetica,sans-Serif" font-size="10.00">+</text>
<text text-anchor="start" x="14" y="-562.5" font-family="Helvetica,sans-Serif" font-size="10.00">reiniciarTornsPassatsConsecutius()</text>
<text text-anchor="start" x="4" y="-546.5" font-family="Helvetica,sans-Serif" font-size="10.00">+</text>
<text text-anchor="start" x="14" y="-546.5" font-family="Helvetica,sans-Serif" font-size="10.00">getTornsPassatsConsecutius()</text>
<polygon fill="#666666" stroke="#666666" points="0,-906 0,-906 189.75,-906 189.75,-906 0,-906"/>
<polygon fill="#666666" stroke="#666666" points="0,-778 0,-778 12,-778 12,-778 0,-778"/>
<polygon fill="#666666" stroke="#666666" points="12,-778 12,-778 189.75,-778 189.75,-778 12,-778"/>
<polygon fill="none" stroke="#666666" points="0,-540 0,-924 189.75,-924 189.75,-540 0,-540"/>
</a>
</g>
</g>
<!-- Node3&#45;&gt;Node2 -->
<g id="edge2_Node000002_Node000003" class="edge">
<title>Node3&#45;&gt;Node2</title>
<g id="a_edge2_Node000002_Node000003"><a xlink:title=" ">
<path fill="none" stroke="#63b8ff" d="M174.11,-540.08C181.33,-522.68 188.58,-505.19 195.66,-488.14"/>
<polygon fill="none" stroke="#63b8ff" points="195.58,-488.33 194.19,-481.25 200.18,-477.25 201.58,-484.32 195.58,-488.33"/>
</a>
</g>
<text text-anchor="middle" x="209.19" y="-512.5" font-family="Helvetica,sans-Serif" font-size="10.00" fill="grey"> &#45;jugador1</text>
<text text-anchor="middle" x="209.19" y="-500.5" font-family="Helvetica,sans-Serif" font-size="10.00" fill="grey">&#45;jugador2</text>
</g>
<!-- Node4 -->
<g id="Node000004" class="node">
<title>Node4</title>
<g id="a_Node000004"><a xlink:href="classdomini_1_1scrabble_1_1_taulell.html" target="_top" xlink:title="Representa el Taulell d&#39;Scrabble.">
<polygon fill="white" stroke="none" points="314.38,-846 207.38,-846 207.38,-618 314.38,-618 314.38,-846"/>
<text text-anchor="start" x="211.38" y="-832.5" font-family="Helvetica,sans-Serif" font-size="10.00">domini.scrabble.Taulell</text>
<text text-anchor="start" x="213.94" y="-816.5" font-family="Helvetica,sans-Serif" font-size="10.00">~</text>
<text text-anchor="start" x="226.5" y="-816.5" font-family="Helvetica,sans-Serif" font-size="10.00">n</text>
<text text-anchor="start" x="213.94" y="-800.5" font-family="Helvetica,sans-Serif" font-size="10.00">+</text>
<text text-anchor="start" x="226.5" y="-800.5" font-family="Helvetica,sans-Serif" font-size="10.00">Taulell()</text>
<text text-anchor="start" x="213.94" y="-784.5" font-family="Helvetica,sans-Serif" font-size="10.00">+</text>
<text text-anchor="start" x="226.5" y="-784.5" font-family="Helvetica,sans-Serif" font-size="10.00">getCasella()</text>
<text text-anchor="start" x="213.94" y="-768.5" font-family="Helvetica,sans-Serif" font-size="10.00">+</text>
<text text-anchor="start" x="226.5" y="-768.5" font-family="Helvetica,sans-Serif" font-size="10.00">getMida()</text>
<text text-anchor="start" x="213.94" y="-752.5" font-family="Helvetica,sans-Serif" font-size="10.00">+</text>
<text text-anchor="start" x="226.5" y="-752.5" font-family="Helvetica,sans-Serif" font-size="10.00">estaBuit()</text>
<text text-anchor="start" x="213.94" y="-736.5" font-family="Helvetica,sans-Serif" font-size="10.00">+</text>
<text text-anchor="start" x="226.5" y="-736.5" font-family="Helvetica,sans-Serif" font-size="10.00">limits()</text>
<text text-anchor="start" x="213.94" y="-720.5" font-family="Helvetica,sans-Serif" font-size="10.00">+</text>
<text text-anchor="start" x="226.5" y="-720.5" font-family="Helvetica,sans-Serif" font-size="10.00">getAnchors()</text>
<text text-anchor="start" x="213.94" y="-704.5" font-family="Helvetica,sans-Serif" font-size="10.00">+</text>
<text text-anchor="start" x="226.5" y="-704.5" font-family="Helvetica,sans-Serif" font-size="10.00">transpose()</text>
<text text-anchor="start" x="213.94" y="-688.5" font-family="Helvetica,sans-Serif" font-size="10.00">+</text>
<text text-anchor="start" x="226.5" y="-688.5" font-family="Helvetica,sans-Serif" font-size="10.00">setCasella()</text>
<text text-anchor="start" x="213.94" y="-672.5" font-family="Helvetica,sans-Serif" font-size="10.00">+</text>
<text text-anchor="start" x="226.5" y="-672.5" font-family="Helvetica,sans-Serif" font-size="10.00">inserirParaula()</text>
<text text-anchor="start" x="213.94" y="-656.5" font-family="Helvetica,sans-Serif" font-size="10.00">+</text>
<text text-anchor="start" x="226.5" y="-656.5" font-family="Helvetica,sans-Serif" font-size="10.00">getCentreTaulell()</text>
<text text-anchor="start" x="213.94" y="-640.5" font-family="Helvetica,sans-Serif" font-size="10.00">+</text>
<text text-anchor="start" x="226.5" y="-640.5" font-family="Helvetica,sans-Serif" font-size="10.00">print()</text>
<text text-anchor="start" x="215.44" y="-624.5" font-family="Helvetica,sans-Serif" font-size="10.00">&#45;</text>
<text text-anchor="start" x="226.5" y="-624.5" font-family="Helvetica,sans-Serif" font-size="10.00">calcularPuntatge()</text>
<polygon fill="#666666" stroke="#666666" points="207.38,-828 207.38,-828 314.38,-828 314.38,-828 207.38,-828"/>
<polygon fill="#666666" stroke="#666666" points="207.38,-812 207.38,-812 224.5,-812 224.5,-812 207.38,-812"/>
<polygon fill="#666666" stroke="#666666" points="224.5,-812 224.5,-812 314.38,-812 314.38,-812 224.5,-812"/>
<polygon fill="none" stroke="#666666" points="207.38,-618 207.38,-846 314.38,-846 314.38,-618 207.38,-618"/>
</a>
</g>
</g>
<!-- Node4&#45;&gt;Node2 -->
<g id="edge3_Node000002_Node000004" class="edge">
<title>Node4&#45;&gt;Node2</title>
<g id="a_edge3_Node000002_Node000004"><a xlink:title=" ">
<path fill="none" stroke="#63b8ff" d="M260.88,-618.25C260.88,-579.3 260.88,-534.86 260.88,-492.77"/>
<polygon fill="none" stroke="#63b8ff" points="260.88,-492.7 256.88,-486.7 260.88,-480.7 264.88,-486.7 260.88,-492.7"/>
</a>
</g>
<text text-anchor="middle" x="276.62" y="-506.5" font-family="Helvetica,sans-Serif" font-size="10.00" fill="grey"> &#45;taulell</text>
</g>
<!-- Node5 -->
<g id="Node000005" class="node">
<title>Node5</title>
<g id="a_Node000005"><a xlink:href="classdomini_1_1scrabble_1_1_casella.html" target="_top" xlink:title="Representa una casella del tauler d&#39;Scrabble.">
<polygon fill="white" stroke="none" points="310.38,-1232 181.38,-1232 181.38,-972 310.38,-972 310.38,-1232"/>
<text text-anchor="start" x="193.75" y="-1218.5" font-family="Helvetica,sans-Serif" font-size="10.00">domini.scrabble.Casella</text>
<text text-anchor="start" x="186.88" y="-1202.5" font-family="Helvetica,sans-Serif" font-size="10.00">&#45;</text>
<text text-anchor="start" x="195.38" y="-1202.5" font-family="Helvetica,sans-Serif" font-size="10.00">cross_checks</text>
<text text-anchor="start" x="186.88" y="-1186.5" font-family="Helvetica,sans-Serif" font-size="10.00">&#45;</text>
<text text-anchor="start" x="195.38" y="-1186.5" font-family="Helvetica,sans-Serif" font-size="10.00">anchor</text>
<text text-anchor="start" x="185.38" y="-1170.5" font-family="Helvetica,sans-Serif" font-size="10.00">+</text>
<text text-anchor="start" x="195.38" y="-1170.5" font-family="Helvetica,sans-Serif" font-size="10.00">Casella()</text>
<text text-anchor="start" x="185.38" y="-1154.5" font-family="Helvetica,sans-Serif" font-size="10.00">+</text>
<text text-anchor="start" x="195.38" y="-1154.5" font-family="Helvetica,sans-Serif" font-size="10.00">setMultiplicador()</text>
<text text-anchor="start" x="185.38" y="-1138.5" font-family="Helvetica,sans-Serif" font-size="10.00">+</text>
<text text-anchor="start" x="195.38" y="-1138.5" font-family="Helvetica,sans-Serif" font-size="10.00">EstaOcupat()</text>
<text text-anchor="start" x="185.38" y="-1122.5" font-family="Helvetica,sans-Serif" font-size="10.00">+</text>
<text text-anchor="start" x="195.38" y="-1122.5" font-family="Helvetica,sans-Serif" font-size="10.00">afegirFitxa()</text>
<text text-anchor="start" x="185.38" y="-1106.5" font-family="Helvetica,sans-Serif" font-size="10.00">+</text>
<text text-anchor="start" x="195.38" y="-1106.5" font-family="Helvetica,sans-Serif" font-size="10.00">setAnchor()</text>
<text text-anchor="start" x="185.38" y="-1090.5" font-family="Helvetica,sans-Serif" font-size="10.00">+</text>
<text text-anchor="start" x="195.38" y="-1090.5" font-family="Helvetica,sans-Serif" font-size="10.00">isAnchor()</text>
<text text-anchor="start" x="185.38" y="-1074.5" font-family="Helvetica,sans-Serif" font-size="10.00">+</text>
<text text-anchor="start" x="195.38" y="-1074.5" font-family="Helvetica,sans-Serif" font-size="10.00">getCoord()</text>
<text text-anchor="start" x="185.38" y="-1058.5" font-family="Helvetica,sans-Serif" font-size="10.00">+</text>
<text text-anchor="start" x="195.38" y="-1058.5" font-family="Helvetica,sans-Serif" font-size="10.00">getMultiplicador()</text>
<text text-anchor="start" x="185.38" y="-1042.5" font-family="Helvetica,sans-Serif" font-size="10.00">+</text>
<text text-anchor="start" x="195.38" y="-1042.5" font-family="Helvetica,sans-Serif" font-size="10.00">getFitxa()</text>
<text text-anchor="start" x="185.38" y="-1026.5" font-family="Helvetica,sans-Serif" font-size="10.00">+</text>
<text text-anchor="start" x="195.38" y="-1026.5" font-family="Helvetica,sans-Serif" font-size="10.00">getCrossChecks()</text>
<text text-anchor="start" x="185.38" y="-1010.5" font-family="Helvetica,sans-Serif" font-size="10.00">+</text>
<text text-anchor="start" x="195.38" y="-1010.5" font-family="Helvetica,sans-Serif" font-size="10.00">actualitzarCrossChecks()</text>
<text text-anchor="start" x="185.38" y="-994.5" font-family="Helvetica,sans-Serif" font-size="10.00">+</text>
<text text-anchor="start" x="195.38" y="-994.5" font-family="Helvetica,sans-Serif" font-size="10.00">reiniciarCrossCheck()</text>
<text text-anchor="start" x="185.38" y="-978.5" font-family="Helvetica,sans-Serif" font-size="10.00">+</text>
<text text-anchor="start" x="195.38" y="-978.5" font-family="Helvetica,sans-Serif" font-size="10.00">retirarFitxa()</text>
<polygon fill="#666666" stroke="#666666" points="181.38,-1214 181.38,-1214 310.38,-1214 310.38,-1214 181.38,-1214"/>
<polygon fill="#666666" stroke="#666666" points="181.38,-1182 181.38,-1182 193.38,-1182 193.38,-1182 181.38,-1182"/>
<polygon fill="#666666" stroke="#666666" points="193.38,-1182 193.38,-1182 310.38,-1182 310.38,-1182 193.38,-1182"/>
<polygon fill="none" stroke="#666666" points="181.38,-972 181.38,-1232 310.38,-1232 310.38,-972 181.38,-972"/>
</a>
</g>
</g>
<!-- Node5&#45;&gt;Node4 -->
<g id="edge4_Node000004_Node000005" class="edge">
<title>Node5&#45;&gt;Node4</title>
<g id="a_edge4_Node000004_Node000005"><a xlink:title=" ">
<path fill="none" stroke="#63b8ff" d="M251.13,-972.03C252.63,-935.24 254.26,-895.22 255.75,-858.64"/>
<polygon fill="none" stroke="#63b8ff" points="255.75,-858.74 252,-852.58 256.24,-846.75 259.99,-852.91 255.75,-858.74"/>
</a>
</g>
<text text-anchor="middle" x="267.78" y="-944.5" font-family="Helvetica,sans-Serif" font-size="10.00" fill="grey"> &#45;taulell</text>
</g>
<!-- Node6 -->
<g id="Node000006" class="node">
<title>Node6</title>
<g id="a_Node000006"><a xlink:href="classdomini_1_1auxiliars_1_1_pair.html" target="_top" xlink:title=" ">
<polygon fill="white" stroke="none" points="160.75,-1440 65,-1440 65,-1280 160.75,-1280 160.75,-1440"/>
<text text-anchor="start" x="69" y="-1426.5" font-family="Helvetica,sans-Serif" font-size="10.00">domini.auxiliars.Pair</text>
<text text-anchor="start" x="70.88" y="-1414.5" font-family="Helvetica,sans-Serif" font-size="10.00">&lt; Integer, Integer &gt;</text>
<text text-anchor="start" x="76.81" y="-1398.5" font-family="Helvetica,sans-Serif" font-size="10.00">&#45;</text>
<text text-anchor="start" x="91.62" y="-1398.5" font-family="Helvetica,sans-Serif" font-size="10.00">first</text>
<text text-anchor="start" x="76.81" y="-1382.5" font-family="Helvetica,sans-Serif" font-size="10.00">&#45;</text>
<text text-anchor="start" x="91.62" y="-1382.5" font-family="Helvetica,sans-Serif" font-size="10.00">second</text>
<text text-anchor="start" x="75.31" y="-1366.5" font-family="Helvetica,sans-Serif" font-size="10.00">+</text>
<text text-anchor="start" x="91.62" y="-1366.5" font-family="Helvetica,sans-Serif" font-size="10.00">Pair()</text>
<text text-anchor="start" x="75.31" y="-1350.5" font-family="Helvetica,sans-Serif" font-size="10.00">+</text>
<text text-anchor="start" x="91.62" y="-1350.5" font-family="Helvetica,sans-Serif" font-size="10.00">Pair()</text>
<text text-anchor="start" x="75.31" y="-1334.5" font-family="Helvetica,sans-Serif" font-size="10.00">+</text>
<text text-anchor="start" x="91.62" y="-1334.5" font-family="Helvetica,sans-Serif" font-size="10.00">getFirst()</text>
<text text-anchor="start" x="75.31" y="-1318.5" font-family="Helvetica,sans-Serif" font-size="10.00">+</text>
<text text-anchor="start" x="91.62" y="-1318.5" font-family="Helvetica,sans-Serif" font-size="10.00">getSecond()</text>
<text text-anchor="start" x="75.31" y="-1302.5" font-family="Helvetica,sans-Serif" font-size="10.00">+</text>
<text text-anchor="start" x="91.62" y="-1302.5" font-family="Helvetica,sans-Serif" font-size="10.00">equals()</text>
<text text-anchor="start" x="75.31" y="-1286.5" font-family="Helvetica,sans-Serif" font-size="10.00">+</text>
<text text-anchor="start" x="91.62" y="-1286.5" font-family="Helvetica,sans-Serif" font-size="10.00">toString()</text>
<polygon fill="#666666" stroke="#666666" points="65,-1410 65,-1410 160.75,-1410 160.75,-1410 65,-1410"/>
<polygon fill="#666666" stroke="#666666" points="65,-1378 65,-1378 89.62,-1378 89.62,-1378 65,-1378"/>
<polygon fill="#666666" stroke="#666666" points="89.62,-1378 89.62,-1378 160.75,-1378 160.75,-1378 89.62,-1378"/>
<polygon fill="none" stroke="#666666" points="65,-1280 65,-1440 160.75,-1440 160.75,-1280 65,-1280"/>
</a>
</g>
</g>
<!-- Node6&#45;&gt;Node5 -->
<g id="edge5_Node000005_Node000006" class="edge">
<title>Node6&#45;&gt;Node5</title>
<g id="a_edge5_Node000005_Node000006"><a xlink:title=" ">
<path fill="none" stroke="#63b8ff" d="M153.86,-1280.1C160.79,-1266.77 168.15,-1252.6 175.58,-1238.31"/>
<polygon fill="none" stroke="#63b8ff" points="175.59,-1238.29 174.81,-1231.12 181.12,-1227.64 181.9,-1234.81 175.59,-1238.29"/>
</a>
</g>
<text text-anchor="middle" x="198.21" y="-1252.5" font-family="Helvetica,sans-Serif" font-size="10.00" fill="grey"> &#45;coordenades</text>
</g>
<!-- Node7 -->
<g id="Node000007" class="node">
<title>Node7</title>
<g id="a_Node000007"><a xlink:href="enumdomini_1_1scrabble_1_1_multiplicador.html" target="_top" xlink:title="Representa els diferents tipus de multiplicadors d&#39;Scrabble.">
<polygon fill="white" stroke="none" points="312.88,-1434 178.88,-1434 178.88,-1286 312.88,-1286 312.88,-1434"/>
<text text-anchor="start" x="182.88" y="-1420.5" font-family="Helvetica,sans-Serif" font-size="10.00">domini.scrabble.Multiplicador</text>
<text text-anchor="start" x="190.12" y="-1404.5" font-family="Helvetica,sans-Serif" font-size="10.00">+</text>
<text text-anchor="start" x="207.38" y="-1404.5" font-family="Helvetica,sans-Serif" font-size="10.00">CAP</text>
<text text-anchor="start" x="190.12" y="-1388.5" font-family="Helvetica,sans-Serif" font-size="10.00">+</text>
<text text-anchor="start" x="207.38" y="-1388.5" font-family="Helvetica,sans-Serif" font-size="10.00">DOBLE_LLETRA</text>
<text text-anchor="start" x="190.12" y="-1372.5" font-family="Helvetica,sans-Serif" font-size="10.00">+</text>
<text text-anchor="start" x="207.38" y="-1372.5" font-family="Helvetica,sans-Serif" font-size="10.00">TRIPLE_LLETRA</text>
<text text-anchor="start" x="190.12" y="-1356.5" font-family="Helvetica,sans-Serif" font-size="10.00">+</text>
<text text-anchor="start" x="207.38" y="-1356.5" font-family="Helvetica,sans-Serif" font-size="10.00">DOBLE_PARAULA</text>
<text text-anchor="start" x="190.12" y="-1340.5" font-family="Helvetica,sans-Serif" font-size="10.00">+</text>
<text text-anchor="start" x="207.38" y="-1340.5" font-family="Helvetica,sans-Serif" font-size="10.00">TRIPLE_PARAULA</text>
<text text-anchor="start" x="191.62" y="-1324.5" font-family="Helvetica,sans-Serif" font-size="10.00">&#45;</text>
<text text-anchor="start" x="207.38" y="-1324.5" font-family="Helvetica,sans-Serif" font-size="10.00">multiplicador</text>
<text text-anchor="start" x="190.12" y="-1308.5" font-family="Helvetica,sans-Serif" font-size="10.00">+</text>
<text text-anchor="start" x="207.38" y="-1308.5" font-family="Helvetica,sans-Serif" font-size="10.00">getMultiplicador()</text>
<text text-anchor="start" x="191.62" y="-1292.5" font-family="Helvetica,sans-Serif" font-size="10.00">&#45;</text>
<text text-anchor="start" x="207.38" y="-1292.5" font-family="Helvetica,sans-Serif" font-size="10.00">Multiplicador()</text>
<polygon fill="#666666" stroke="#666666" points="178.88,-1416 178.88,-1416 312.88,-1416 312.88,-1416 178.88,-1416"/>
<polygon fill="#666666" stroke="#666666" points="178.88,-1320 178.88,-1320 205.38,-1320 205.38,-1320 178.88,-1320"/>
<polygon fill="#666666" stroke="#666666" points="205.38,-1320 205.38,-1320 312.88,-1320 312.88,-1320 205.38,-1320"/>
<polygon fill="none" stroke="#666666" points="178.88,-1286 178.88,-1434 312.88,-1434 312.88,-1286 178.88,-1286"/>
</a>
</g>
</g>
<!-- Node7&#45;&gt;Node5 -->
<g id="edge6_Node000005_Node000007" class="edge">
<title>Node7&#45;&gt;Node5</title>
<g id="a_edge6_Node000005_Node000007"><a xlink:title=" ">
<path fill="none" stroke="#63b8ff" d="M245.88,-1286.33C245.88,-1273.06 245.88,-1258.82 245.88,-1244.35"/>
<polygon fill="none" stroke="#63b8ff" points="245.88,-1244.49 241.88,-1238.49 245.88,-1232.49 249.88,-1238.49 245.88,-1244.49"/>
</a>
</g>
<text text-anchor="middle" x="276.25" y="-1252.5" font-family="Helvetica,sans-Serif" font-size="10.00" fill="grey"> &#45;multiplicador</text>
</g>
<!-- Node8 -->
<g id="Node000008" class="node">
<title>Node8</title>
<g id="a_Node000008"><a xlink:href="classdomini_1_1scrabble_1_1_fitxa.html" target="_top" xlink:title="Representa una fitxa d&#39;Scrabble.">
<polygon fill="white" stroke="none" points="432.38,-1434 331.38,-1434 331.38,-1286 432.38,-1286 432.38,-1434"/>
<text text-anchor="start" x="335.38" y="-1420.5" font-family="Helvetica,sans-Serif" font-size="10.00">domini.scrabble.Fitxa</text>
<text text-anchor="start" x="341.88" y="-1404.5" font-family="Helvetica,sans-Serif" font-size="10.00">&#45;</text>
<text text-anchor="start" x="355.38" y="-1404.5" font-family="Helvetica,sans-Serif" font-size="10.00">id</text>
<text text-anchor="start" x="341.88" y="-1388.5" font-family="Helvetica,sans-Serif" font-size="10.00">&#45;</text>
<text text-anchor="start" x="355.38" y="-1388.5" font-family="Helvetica,sans-Serif" font-size="10.00">lletra</text>
<text text-anchor="start" x="341.88" y="-1372.5" font-family="Helvetica,sans-Serif" font-size="10.00">&#45;</text>
<text text-anchor="start" x="355.38" y="-1372.5" font-family="Helvetica,sans-Serif" font-size="10.00">puntuacio</text>
<text text-anchor="start" x="340.38" y="-1356.5" font-family="Helvetica,sans-Serif" font-size="10.00">+</text>
<text text-anchor="start" x="355.38" y="-1356.5" font-family="Helvetica,sans-Serif" font-size="10.00">Fitxa()</text>
<text text-anchor="start" x="340.38" y="-1340.5" font-family="Helvetica,sans-Serif" font-size="10.00">+</text>
<text text-anchor="start" x="355.38" y="-1340.5" font-family="Helvetica,sans-Serif" font-size="10.00">getId()</text>
<text text-anchor="start" x="340.38" y="-1324.5" font-family="Helvetica,sans-Serif" font-size="10.00">+</text>
<text text-anchor="start" x="355.38" y="-1324.5" font-family="Helvetica,sans-Serif" font-size="10.00">getLletra()</text>
<text text-anchor="start" x="340.38" y="-1308.5" font-family="Helvetica,sans-Serif" font-size="10.00">+</text>
<text text-anchor="start" x="355.38" y="-1308.5" font-family="Helvetica,sans-Serif" font-size="10.00">getPuntuacio()</text>
<text text-anchor="start" x="340.38" y="-1292.5" font-family="Helvetica,sans-Serif" font-size="10.00">+</text>
<text text-anchor="start" x="355.38" y="-1292.5" font-family="Helvetica,sans-Serif" font-size="10.00">equals()</text>
<polygon fill="#666666" stroke="#666666" points="331.38,-1416 331.38,-1416 432.38,-1416 432.38,-1416 331.38,-1416"/>
<polygon fill="#666666" stroke="#666666" points="331.38,-1368 331.38,-1368 353.38,-1368 353.38,-1368 331.38,-1368"/>
<polygon fill="#666666" stroke="#666666" points="353.38,-1368 353.38,-1368 432.38,-1368 432.38,-1368 353.38,-1368"/>
<polygon fill="none" stroke="#666666" points="331.38,-1286 331.38,-1434 432.38,-1434 432.38,-1286 331.38,-1286"/>
</a>
</g>
</g>
<!-- Node8&#45;&gt;Node5 -->
<g id="edge7_Node000005_Node000008" class="edge">
<title>Node8&#45;&gt;Node5</title>
<g id="a_edge7_Node000005_Node000008"><a xlink:title=" ">
<path fill="none" stroke="#63b8ff" d="M343.27,-1286.33C334.83,-1270.44 325.64,-1253.15 316.39,-1235.74"/>
<polygon fill="none" stroke="#63b8ff" points="316.37,-1235.69 310.02,-1232.27 310.74,-1225.09 317.08,-1228.51 316.37,-1235.69"/>
</a>
</g>
<text text-anchor="middle" x="342.43" y="-1252.5" font-family="Helvetica,sans-Serif" font-size="10.00" fill="grey"> &#45;fitxa</text>
</g>
<!-- Node9 -->
<g id="Node000009" class="node">
<title>Node9</title>
<g id="a_Node000009"><a xlink:href="classdomini_1_1scrabble_1_1_bossa.html" target="_top" xlink:title="Representa la bossa de fitxes d&#39;Scrabble.">
<polygon fill="white" stroke="none" points="443.38,-822 336.38,-822 336.38,-642 443.38,-642 443.38,-822"/>
<text text-anchor="start" x="340.38" y="-808.5" font-family="Helvetica,sans-Serif" font-size="10.00">domini.scrabble.Bossa</text>
<text text-anchor="start" x="344.25" y="-792.5" font-family="Helvetica,sans-Serif" font-size="10.00">&#45;</text>
<text text-anchor="start" x="355.12" y="-792.5" font-family="Helvetica,sans-Serif" font-size="10.00">mapaPuntuacions</text>
<text text-anchor="start" x="342.75" y="-776.5" font-family="Helvetica,sans-Serif" font-size="10.00">+</text>
<text text-anchor="start" x="355.12" y="-776.5" font-family="Helvetica,sans-Serif" font-size="10.00">Bossa()</text>
<text text-anchor="start" x="342.75" y="-760.5" font-family="Helvetica,sans-Serif" font-size="10.00">+</text>
<text text-anchor="start" x="355.12" y="-760.5" font-family="Helvetica,sans-Serif" font-size="10.00">obtenirPuntuacio()</text>
<text text-anchor="start" x="342.75" y="-744.5" font-family="Helvetica,sans-Serif" font-size="10.00">+</text>
<text text-anchor="start" x="355.12" y="-744.5" font-family="Helvetica,sans-Serif" font-size="10.00">getIdFitxa()</text>
<text text-anchor="start" x="342.75" y="-728.5" font-family="Helvetica,sans-Serif" font-size="10.00">+</text>
<text text-anchor="start" x="355.12" y="-728.5" font-family="Helvetica,sans-Serif" font-size="10.00">agafarFitxa()</text>
<text text-anchor="start" x="342.75" y="-712.5" font-family="Helvetica,sans-Serif" font-size="10.00">+</text>
<text text-anchor="start" x="355.12" y="-712.5" font-family="Helvetica,sans-Serif" font-size="10.00">carregarFitxes()</text>
<text text-anchor="start" x="342.75" y="-696.5" font-family="Helvetica,sans-Serif" font-size="10.00">+</text>
<text text-anchor="start" x="355.12" y="-696.5" font-family="Helvetica,sans-Serif" font-size="10.00">clearBossa()</text>
<text text-anchor="start" x="342.75" y="-680.5" font-family="Helvetica,sans-Serif" font-size="10.00">+</text>
<text text-anchor="start" x="355.12" y="-680.5" font-family="Helvetica,sans-Serif" font-size="10.00">getMidaBossa()</text>
<text text-anchor="start" x="342.75" y="-664.5" font-family="Helvetica,sans-Serif" font-size="10.00">+</text>
<text text-anchor="start" x="355.12" y="-664.5" font-family="Helvetica,sans-Serif" font-size="10.00">afegirFitxaBossa()</text>
<text text-anchor="start" x="342.75" y="-648.5" font-family="Helvetica,sans-Serif" font-size="10.00">+</text>
<text text-anchor="start" x="355.12" y="-648.5" font-family="Helvetica,sans-Serif" font-size="10.00">getFitxes()</text>
<polygon fill="#666666" stroke="#666666" points="336.38,-804 336.38,-804 443.38,-804 443.38,-804 336.38,-804"/>
<polygon fill="#666666" stroke="#666666" points="336.38,-788 336.38,-788 353.12,-788 353.12,-788 336.38,-788"/>
<polygon fill="#666666" stroke="#666666" points="353.12,-788 353.12,-788 443.38,-788 443.38,-788 353.12,-788"/>
<polygon fill="none" stroke="#666666" points="336.38,-642 336.38,-822 443.38,-822 443.38,-642 336.38,-642"/>
</a>
</g>
</g>
<!-- Node9&#45;&gt;Node2 -->
<g id="edge8_Node000002_Node000009" class="edge">
<title>Node9&#45;&gt;Node2</title>
<g id="a_edge8_Node000002_Node000009"><a xlink:title=" ">
<path fill="none" stroke="#63b8ff" d="M361.25,-642.23C346.99,-598.01 329.3,-543.16 312.76,-491.89"/>
<polygon fill="none" stroke="#63b8ff" points="312.77,-491.91 307.12,-487.43 309.08,-480.49 314.73,-484.97 312.77,-491.91"/>
</a>
</g>
<text text-anchor="middle" x="337.63" y="-506.5" font-family="Helvetica,sans-Serif" font-size="10.00" fill="grey"> &#45;bossa</text>
</g>
<!-- Node10 -->
<g id="Node000010" class="node">
<title>Node10</title>
<g id="a_Node000010"><a xlink:href="classdomini_1_1auxiliars_1_1_fast_delete_list.html" target="_top" xlink:title=" ">
<polygon fill="white" stroke="none" points="463.25,-1230 328.5,-1230 328.5,-974 463.25,-974 463.25,-1230"/>
<text text-anchor="start" x="332.5" y="-1216.5" font-family="Helvetica,sans-Serif" font-size="10.00">domini.auxiliars.FastDelete</text>
<text text-anchor="start" x="332.5" y="-1204.5" font-family="Helvetica,sans-Serif" font-size="10.00">List&lt; domini.scrabble.Fitxa &gt;</text>
<text text-anchor="start" x="343.88" y="-1188.5" font-family="Helvetica,sans-Serif" font-size="10.00">&#45;</text>
<text text-anchor="start" x="362.25" y="-1188.5" font-family="Helvetica,sans-Serif" font-size="10.00">list</text>
<text text-anchor="start" x="343.88" y="-1172.5" font-family="Helvetica,sans-Serif" font-size="10.00">&#45;</text>
<text text-anchor="start" x="362.25" y="-1172.5" font-family="Helvetica,sans-Serif" font-size="10.00">indexMap</text>
<text text-anchor="start" x="342.38" y="-1156.5" font-family="Helvetica,sans-Serif" font-size="10.00">+</text>
<text text-anchor="start" x="362.25" y="-1156.5" font-family="Helvetica,sans-Serif" font-size="10.00">FastDeleteList()</text>
<text text-anchor="start" x="342.38" y="-1140.5" font-family="Helvetica,sans-Serif" font-size="10.00">+</text>
<text text-anchor="start" x="362.25" y="-1140.5" font-family="Helvetica,sans-Serif" font-size="10.00">add()</text>
<text text-anchor="start" x="342.38" y="-1124.5" font-family="Helvetica,sans-Serif" font-size="10.00">+</text>
<text text-anchor="start" x="362.25" y="-1124.5" font-family="Helvetica,sans-Serif" font-size="10.00">remove()</text>
<text text-anchor="start" x="342.38" y="-1108.5" font-family="Helvetica,sans-Serif" font-size="10.00">+</text>
<text text-anchor="start" x="362.25" y="-1108.5" font-family="Helvetica,sans-Serif" font-size="10.00">addAll()</text>
<text text-anchor="start" x="342.38" y="-1092.5" font-family="Helvetica,sans-Serif" font-size="10.00">+</text>
<text text-anchor="start" x="362.25" y="-1092.5" font-family="Helvetica,sans-Serif" font-size="10.00">removeAt()</text>
<text text-anchor="start" x="342.38" y="-1076.5" font-family="Helvetica,sans-Serif" font-size="10.00">+</text>
<text text-anchor="start" x="362.25" y="-1076.5" font-family="Helvetica,sans-Serif" font-size="10.00">get()</text>
<text text-anchor="start" x="342.38" y="-1060.5" font-family="Helvetica,sans-Serif" font-size="10.00">+</text>
<text text-anchor="start" x="362.25" y="-1060.5" font-family="Helvetica,sans-Serif" font-size="10.00">clear()</text>
<text text-anchor="start" x="342.38" y="-1044.5" font-family="Helvetica,sans-Serif" font-size="10.00">+</text>
<text text-anchor="start" x="362.25" y="-1044.5" font-family="Helvetica,sans-Serif" font-size="10.00">size()</text>
<text text-anchor="start" x="342.38" y="-1028.5" font-family="Helvetica,sans-Serif" font-size="10.00">+</text>
<text text-anchor="start" x="362.25" y="-1028.5" font-family="Helvetica,sans-Serif" font-size="10.00">isEmpty()</text>
<text text-anchor="start" x="342.38" y="-1012.5" font-family="Helvetica,sans-Serif" font-size="10.00">+</text>
<text text-anchor="start" x="362.25" y="-1012.5" font-family="Helvetica,sans-Serif" font-size="10.00">contains()</text>
<text text-anchor="start" x="342.38" y="-996.5" font-family="Helvetica,sans-Serif" font-size="10.00">+</text>
<text text-anchor="start" x="362.25" y="-996.5" font-family="Helvetica,sans-Serif" font-size="10.00">toString()</text>
<text text-anchor="start" x="342.38" y="-980.5" font-family="Helvetica,sans-Serif" font-size="10.00">+</text>
<text text-anchor="start" x="362.25" y="-980.5" font-family="Helvetica,sans-Serif" font-size="10.00">rebuildIndexMap()</text>
<polygon fill="#666666" stroke="#666666" points="328.5,-1200 328.5,-1200 463.25,-1200 463.25,-1200 328.5,-1200"/>
<polygon fill="#666666" stroke="#666666" points="328.5,-1168 328.5,-1168 360.25,-1168 360.25,-1168 328.5,-1168"/>
<polygon fill="#666666" stroke="#666666" points="360.25,-1168 360.25,-1168 463.25,-1168 463.25,-1168 360.25,-1168"/>
<polygon fill="none" stroke="#666666" points="328.5,-974 328.5,-1230 463.25,-1230 463.25,-974 328.5,-974"/>
</a>
</g>
</g>
<!-- Node10&#45;&gt;Node9 -->
<g id="edge9_Node000009_Node000010" class="edge">
<title>Node10&#45;&gt;Node9</title>
<g id="a_edge9_Node000009_Node000010"><a xlink:title=" ">
<path fill="none" stroke="#63b8ff" d="M393.81,-974.1C393.06,-928.51 392.23,-877.74 391.53,-834.59"/>
<polygon fill="none" stroke="#63b8ff" points="391.53,-834.65 387.44,-828.72 391.34,-822.65 395.43,-828.59 391.53,-834.65"/>
</a>
</g>
<text text-anchor="middle" x="408.41" y="-944.5" font-family="Helvetica,sans-Serif" font-size="10.00" fill="grey"> &#45;fitxes</text>
</g>
<!-- Node11&#45;&gt;Node2 -->
<g id="edge10_Node000002_Node000011" class="edge">
<title>Node11&#45;&gt;Node2</title>
<g id="a_edge10_Node000002_Node000011"><a xlink:title=" ">
<path fill="none" stroke="#63b8ff" d="M306.63,-131.92C304.39,-142 302.08,-152.28 299.88,-162 299.45,-163.86 299.03,-165.73 298.6,-167.61"/>
<polygon fill="none" stroke="#63b8ff" points="298.61,-167.57 301.17,-174.31 295.93,-179.27 293.37,-172.53 298.61,-167.57"/>
</a>
</g>
<text text-anchor="middle" x="316.08" y="-152.5" font-family="Helvetica,sans-Serif" font-size="10.00" fill="grey"> &#45;estat</text>
</g>
</g>
</svg>
