<?xml version="1.0" encoding="UTF-8" standalone="no"?>
<!DOCTYPE svg PUBLIC "-//W3C//DTD SVG 1.1//EN"
 "http://www.w3.org/Graphics/SVG/1.1/DTD/svg11.dtd">
<!-- Generated by graphviz version 12.2.1 (20241206.2353)
 -->
<!-- Title: interficie.VistaPartida.confirmarGuardar Pages: 1 -->
<svg width="1024pt" height="262pt"
 viewBox="0.00 0.00 1024.25 261.50" xmlns="http://www.w3.org/2000/svg" xmlns:xlink="http://www.w3.org/1999/xlink">
<g id="graph0" class="graph" transform="scale(1 1) rotate(0) translate(4 257.5)">
<title>interficie.VistaPartida.confirmarGuardar</title>
<!-- Node1 -->
<g id="Node000001" class="node">
<title>Node1</title>
<g id="a_Node000001"><a xlink:title="Confirma l&#39;acció de guardar la partida.">
<polygon fill="#999999" stroke="#666666" points="1016.25,-102.5 863.75,-102.5 863.75,-70.5 1016.25,-70.5 1016.25,-102.5"/>
<text text-anchor="start" x="871.75" y="-89" font-family="Helvetica,sans-Serif" font-size="10.00">interficie.VistaPartida.confirmar</text>
<text text-anchor="middle" x="940" y="-77" font-family="Helvetica,sans-Serif" font-size="10.00">Guardar</text>
</a>
</g>
</g>
<!-- Node2 -->
<g id="Node000002" class="node">
<title>Node2</title>
<g id="a_Node000002"><a xlink:href="$classinterficie_1_1_vista_partida.html#a7855e7a9cc41e1450c37054781ba6309" xlink:title="Inicialitza els components de la interfície gràfica.">
<polygon fill="white" stroke="#666666" points="827.75,-77.5 692.5,-77.5 692.5,-57.5 827.75,-57.5 827.75,-77.5"/>
<text text-anchor="middle" x="760.12" y="-64" font-family="Helvetica,sans-Serif" font-size="10.00">interficie.VistaPartida.initUI</text>
</a>
</g>
</g>
<!-- Node1&#45;&gt;Node2 -->
<g id="edge1_Node000001_Node000002" class="edge">
<title>Node1&#45;&gt;Node2</title>
<g id="a_edge1_Node000001_Node000002"><a xlink:title=" ">
<path fill="none" stroke="#63b8ff" d="M851.97,-77.21C843.92,-76.35 835.85,-75.48 828.03,-74.65"/>
<polygon fill="#63b8ff" stroke="#63b8ff" points="851.49,-80.67 861.8,-78.26 852.23,-73.71 851.49,-80.67"/>
</a>
</g>
</g>
<!-- Node3 -->
<g id="Node000003" class="node">
<title>Node3</title>
<g id="a_Node000003"><a xlink:href="$classinterficie_1_1_vista_partida.html#abce8626a6a3750affe851e1f8bea2cb3" xlink:title="Constructor de la classe VistaPartida.">
<polygon fill="white" stroke="#666666" points="656.5,-121.5 544.5,-121.5 544.5,-89.5 656.5,-89.5 656.5,-121.5"/>
<text text-anchor="start" x="552.5" y="-108" font-family="Helvetica,sans-Serif" font-size="10.00">interficie.VistaPartida.</text>
<text text-anchor="middle" x="600.5" y="-96" font-family="Helvetica,sans-Serif" font-size="10.00">VistaPartida</text>
</a>
</g>
</g>
<!-- Node2&#45;&gt;Node3 -->
<g id="edge2_Node000002_Node000003" class="edge">
<title>Node2&#45;&gt;Node3</title>
<g id="a_edge2_Node000002_Node000003"><a xlink:title=" ">
<path fill="none" stroke="#63b8ff" d="M681.14,-79.55C668.42,-82.61 655.67,-85.91 644.22,-89.13"/>
<polygon fill="#63b8ff" stroke="#63b8ff" points="681.87,-82.98 690.8,-77.28 680.27,-76.16 681.87,-82.98"/>
</a>
</g>
</g>
<!-- Node3&#45;&gt;Node1 -->
<g id="edge13_Node000003_Node000001" class="edge">
<title>Node3&#45;&gt;Node1</title>
<g id="a_edge13_Node000003_Node000001"><a xlink:title=" ">
<path fill="none" stroke="#63b8ff" d="M668.02,-101.76C724.19,-98.6 804.62,-94.07 863.26,-90.77"/>
<polygon fill="#63b8ff" stroke="#63b8ff" points="668.07,-98.25 658.28,-102.31 668.46,-105.24 668.07,-98.25"/>
</a>
</g>
</g>
<!-- Node3&#45;&gt;Node2 -->
<g id="edge16_Node000003_Node000002" class="edge">
<title>Node3&#45;&gt;Node2</title>
<g id="a_edge16_Node000003_Node000002"><a xlink:title=" ">
<path fill="none" stroke="#63b8ff" d="M667.84,-96.18C692.21,-90.61 718.21,-83.76 736.2,-77.96"/>
<polygon fill="#63b8ff" stroke="#63b8ff" points="667.27,-92.72 658.27,-98.32 668.8,-99.56 667.27,-92.72"/>
</a>
</g>
</g>
<!-- Node3&#45;&gt;Node3 -->
<g id="edge17_Node000003_Node000003" class="edge">
<title>Node3&#45;&gt;Node3</title>
<g id="a_edge17_Node000003_Node000003"><a xlink:title=" ">
<path fill="none" stroke="#63b8ff" d="M627.1,-133.21C622.67,-136.99 613.8,-139.5 600.5,-139.5 576.18,-139.5 566.68,-131.09 572,-121.95"/>
<polygon fill="#63b8ff" stroke="#63b8ff" points="630.54,-133.88 628.75,-123.44 623.63,-132.72 630.54,-133.88"/>
</a>
</g>
</g>
<!-- Node4 -->
<g id="Node000004" class="node">
<title>Node4</title>
<g id="a_Node000004"><a xlink:href="$classinterficie_1_1_vista_partida.html#a6bd7550fc714ba5195c8b55ffe3d973c" xlink:title="Afegeix les fitxes d&#39;un jugador al seu rack.">
<polygon fill="white" stroke="#666666" points="508.5,-77.5 372.5,-77.5 372.5,-45.5 508.5,-45.5 508.5,-77.5"/>
<text text-anchor="start" x="380.5" y="-64" font-family="Helvetica,sans-Serif" font-size="10.00">interficie.VistaPartida.afegir</text>
<text text-anchor="middle" x="440.5" y="-52" font-family="Helvetica,sans-Serif" font-size="10.00">FitxesARack</text>
</a>
</g>
</g>
<!-- Node3&#45;&gt;Node4 -->
<g id="edge3_Node000003_Node000004" class="edge">
<title>Node3&#45;&gt;Node4</title>
<g id="a_edge3_Node000003_Node000004"><a xlink:title=" ">
<path fill="none" stroke="#63b8ff" d="M533.45,-87.11C522.51,-84.06 511.24,-80.92 500.49,-77.93"/>
<polygon fill="#63b8ff" stroke="#63b8ff" points="532.21,-90.4 542.78,-89.71 534.09,-83.65 532.21,-90.4"/>
</a>
</g>
</g>
<!-- Node7 -->
<g id="Node000007" class="node">
<title>Node7</title>
<g id="a_Node000007"><a xlink:href="$classinterficie_1_1_vista_partida.html#ae6809bc2e7efc03077c111367571f788" xlink:title="Afegeix maquetes al rack de l&#39;oponent.">
<polygon fill="white" stroke="#666666" points="508.5,-165.5 372.5,-165.5 372.5,-133.5 508.5,-133.5 508.5,-165.5"/>
<text text-anchor="start" x="380.5" y="-152" font-family="Helvetica,sans-Serif" font-size="10.00">interficie.VistaPartida.afegir</text>
<text text-anchor="middle" x="440.5" y="-140" font-family="Helvetica,sans-Serif" font-size="10.00">MaquetesARack</text>
</a>
</g>
</g>
<!-- Node3&#45;&gt;Node7 -->
<g id="edge11_Node000003_Node000007" class="edge">
<title>Node3&#45;&gt;Node7</title>
<g id="a_edge11_Node000003_Node000007"><a xlink:title=" ">
<path fill="none" stroke="#63b8ff" d="M533.45,-123.9C522.51,-126.94 511.24,-130.08 500.49,-133.07"/>
<polygon fill="#63b8ff" stroke="#63b8ff" points="534.09,-127.35 542.78,-121.3 532.21,-120.61 534.09,-127.35"/>
</a>
</g>
</g>
<!-- Node8 -->
<g id="Node000008" class="node">
<title>Node8</title>
<g id="a_Node000008"><a xlink:href="$classinterficie_1_1_vista_partida.html#ab47b596fbbd6a79289d4b9d7f5b5e068" xlink:title="Crea un panell amb la informació d&#39;un jugador.">
<polygon fill="white" stroke="#666666" points="328.25,-253.5 194.5,-253.5 194.5,-221.5 328.25,-221.5 328.25,-253.5"/>
<text text-anchor="start" x="202.5" y="-240" font-family="Helvetica,sans-Serif" font-size="10.00">interficie.VistaPartida.crear</text>
<text text-anchor="middle" x="261.38" y="-228" font-family="Helvetica,sans-Serif" font-size="10.00">PanelJugador</text>
</a>
</g>
</g>
<!-- Node3&#45;&gt;Node8 -->
<g id="edge14_Node000003_Node000008" class="edge">
<title>Node3&#45;&gt;Node8</title>
<g id="a_edge14_Node000003_Node000008"><a xlink:title=" ">
<path fill="none" stroke="#63b8ff" d="M584.16,-131.49C568.43,-155.57 541.62,-190.18 508.5,-207.5 452.71,-236.67 380.34,-242.31 328.54,-241.77"/>
<polygon fill="#63b8ff" stroke="#63b8ff" points="587.03,-133.51 589.4,-123.18 581.11,-129.77 587.03,-133.51"/>
</a>
</g>
</g>
<!-- Node5 -->
<g id="Node000005" class="node">
<title>Node5</title>
<g id="a_Node000005"><a xlink:href="$classinterficie_1_1_vista_partida.html#a0698d192124492ebfd8a3b029a6fa23c" xlink:title="Actualitza els racks dels jugadors.">
<polygon fill="white" stroke="#666666" points="336.5,-121.5 186.25,-121.5 186.25,-89.5 336.5,-89.5 336.5,-121.5"/>
<text text-anchor="start" x="194.25" y="-108" font-family="Helvetica,sans-Serif" font-size="10.00">interficie.VistaPartida.refrescar</text>
<text text-anchor="middle" x="261.38" y="-96" font-family="Helvetica,sans-Serif" font-size="10.00">RackJugadors</text>
</a>
</g>
</g>
<!-- Node4&#45;&gt;Node5 -->
<g id="edge4_Node000004_Node000005" class="edge">
<title>Node4&#45;&gt;Node5</title>
<g id="a_edge4_Node000004_Node000005"><a xlink:title=" ">
<path fill="none" stroke="#63b8ff" d="M362.25,-80.69C351.1,-83.46 339.71,-86.29 328.8,-89"/>
<polygon fill="#63b8ff" stroke="#63b8ff" points="362.96,-84.12 371.82,-78.31 361.28,-77.33 362.96,-84.12"/>
</a>
</g>
</g>
<!-- Node5&#45;&gt;Node2 -->
<g id="edge5_Node000005_Node000002" class="edge">
<title>Node5&#45;&gt;Node2</title>
<g id="a_edge5_Node000005_Node000002"><a xlink:title=" ">
<path fill="none" stroke="#63b8ff" d="M290.02,-81.98C311.1,-65.68 341.66,-45.37 372.5,-36.5 499.02,-0.14 657.78,-37.39 725.75,-57.03"/>
<polygon fill="#63b8ff" stroke="#63b8ff" points="287.87,-79.22 282.23,-88.19 292.23,-84.7 287.87,-79.22"/>
</a>
</g>
</g>
<!-- Node5&#45;&gt;Node3 -->
<g id="edge10_Node000005_Node000003" class="edge">
<title>Node5&#45;&gt;Node3</title>
<g id="a_edge10_Node000005_Node000003"><a xlink:title=" ">
<path fill="none" stroke="#63b8ff" d="M348.2,-105.5C409.8,-105.5 491.01,-105.5 544.21,-105.5"/>
<polygon fill="#63b8ff" stroke="#63b8ff" points="348.45,-102 338.45,-105.5 348.45,-109 348.45,-102"/>
</a>
</g>
</g>
<!-- Node6 -->
<g id="Node000006" class="node">
<title>Node6</title>
<g id="a_Node000006"><a xlink:href="$classinterficie_1_1_vista_partida.html#a485041b781e81c64fb5414207ff21d2a" xlink:title="Actualitza la informació de la partida.">
<polygon fill="white" stroke="#666666" points="150.25,-165.5 0,-165.5 0,-133.5 150.25,-133.5 150.25,-165.5"/>
<text text-anchor="start" x="8" y="-152" font-family="Helvetica,sans-Serif" font-size="10.00">interficie.VistaPartida.refrescar</text>
<text text-anchor="middle" x="75.12" y="-140" font-family="Helvetica,sans-Serif" font-size="10.00">Informacio</text>
</a>
</g>
</g>
<!-- Node5&#45;&gt;Node6 -->
<g id="edge6_Node000005_Node000006" class="edge">
<title>Node5&#45;&gt;Node6</title>
<g id="a_edge6_Node000005_Node000006"><a xlink:title=" ">
<path fill="none" stroke="#63b8ff" d="M180.38,-124.61C168.67,-127.4 156.69,-130.26 145.22,-133"/>
<polygon fill="#63b8ff" stroke="#63b8ff" points="181.12,-128.03 190.03,-122.3 179.49,-121.22 181.12,-128.03"/>
</a>
</g>
</g>
<!-- Node6&#45;&gt;Node2 -->
<g id="edge7_Node000006_Node000002" class="edge">
<title>Node6&#45;&gt;Node2</title>
<g id="a_edge7_Node000006_Node000002"><a xlink:title=" ">
<path fill="none" stroke="#63b8ff" d="M108.1,-126.67C129.49,-112.11 158.67,-93.58 186.25,-80.5 265.2,-43.05 286.27,-31.69 372.5,-17.5 497.05,2.99 533.47,8.72 656.5,-19.5 688.71,-26.89 722.84,-45.25 742.5,-57.01"/>
<polygon fill="#63b8ff" stroke="#63b8ff" points="106.34,-123.63 100.1,-132.19 110.32,-129.39 106.34,-123.63"/>
</a>
</g>
</g>
<!-- Node6&#45;&gt;Node3 -->
<g id="edge9_Node000006_Node000003" class="edge">
<title>Node6&#45;&gt;Node3</title>
<g id="a_edge9_Node000006_Node000003"><a xlink:title=" ">
<path fill="none" stroke="#63b8ff" d="M143.88,-168.7C230.81,-189.92 385.09,-216 508.5,-174.5 539.32,-164.14 568,-138.74 584.63,-121.82"/>
<polygon fill="#63b8ff" stroke="#63b8ff" points="144.87,-165.34 134.32,-166.31 143.17,-172.13 144.87,-165.34"/>
</a>
</g>
</g>
<!-- Node6&#45;&gt;Node6 -->
<g id="edge8_Node000006_Node000006" class="edge">
<title>Node6&#45;&gt;Node6</title>
<g id="a_edge8_Node000006_Node000006"><a xlink:title=" ">
<path fill="none" stroke="#63b8ff" d="M106.16,-177.21C100.99,-180.99 90.64,-183.5 75.12,-183.5 46.75,-183.5 35.67,-175.09 41.87,-165.95"/>
<polygon fill="#63b8ff" stroke="#63b8ff" points="109.59,-177.92 108.08,-167.43 102.72,-176.57 109.59,-177.92"/>
</a>
</g>
</g>
<!-- Node7&#45;&gt;Node5 -->
<g id="edge12_Node000007_Node000005" class="edge">
<title>Node7&#45;&gt;Node5</title>
<g id="a_edge12_Node000007_Node000005"><a xlink:title=" ">
<path fill="none" stroke="#63b8ff" d="M362.25,-130.31C351.1,-127.54 339.71,-124.71 328.8,-122"/>
<polygon fill="#63b8ff" stroke="#63b8ff" points="361.28,-133.68 371.82,-132.69 362.96,-126.88 361.28,-133.68"/>
</a>
</g>
</g>
<!-- Node8&#45;&gt;Node6 -->
<g id="edge15_Node000008_Node000006" class="edge">
<title>Node8&#45;&gt;Node6</title>
<g id="a_edge15_Node000008_Node000006"><a xlink:title=" ">
<path fill="none" stroke="#63b8ff" d="M207.35,-216.8C200.21,-213.79 193.02,-210.64 186.25,-207.5 158.22,-194.49 127.15,-177.92 105.17,-165.82"/>
<polygon fill="#63b8ff" stroke="#63b8ff" points="205.75,-219.92 216.33,-220.51 208.43,-213.45 205.75,-219.92"/>
</a>
</g>
</g>
</g>
</svg>
