<?xml version="1.0" encoding="UTF-8" standalone="no"?>
<!DOCTYPE svg PUBLIC "-//W3C//DTD SVG 1.1//EN"
 "http://www.w3.org/Graphics/SVG/1.1/DTD/svg11.dtd">
<!-- Generated by graphviz version 12.2.1 (20241206.2353)
 -->
<!-- Title: domini.diccionari.DAWG.contains Pages: 1 -->
<svg width="1138pt" height="90pt"
 viewBox="0.00 0.00 1138.25 90.00" xmlns="http://www.w3.org/2000/svg" xmlns:xlink="http://www.w3.org/1999/xlink">
<g id="graph0" class="graph" transform="scale(1 1) rotate(0) translate(4 86)">
<title>domini.diccionari.DAWG.contains</title>
<!-- Node1 -->
<g id="Node000001" class="node">
<title>Node1</title>
<g id="a_Node000001"><a xlink:title="Comprova si una paraula està reconeguda pel DAWG.">
<polygon fill="#999999" stroke="#666666" points="1130.25,-51 968,-51 968,-31 1130.25,-31 1130.25,-51"/>
<text text-anchor="middle" x="1049.12" y="-37.5" font-family="Helvetica,sans-Serif" font-size="10.00">domini.diccionari.DAWG.contains</text>
</a>
</g>
</g>
<!-- Node2 -->
<g id="Node000002" class="node">
<title>Node2</title>
<g id="a_Node000002"><a xlink:href="classdomini_1_1jugadors_1_1_maquina.html#a57c533590571f4918ebd03a0b0d4819b" target="_top" xlink:title="Comprova si una lletra és vàlida per a una casella que formi paraula transversal vertical.">
<polygon fill="white" stroke="#666666" points="927.5,-82 780.25,-82 780.25,-50 927.5,-50 927.5,-82"/>
<text text-anchor="start" x="788.25" y="-68.5" font-family="Helvetica,sans-Serif" font-size="10.00">domini.jugadors.Maquina.valid</text>
<text text-anchor="middle" x="853.88" y="-56.5" font-family="Helvetica,sans-Serif" font-size="10.00">_traversals</text>
</a>
</g>
</g>
<!-- Node1&#45;&gt;Node2 -->
<g id="edge1_Node000001_Node000002" class="edge">
<title>Node1&#45;&gt;Node2</title>
<g id="a_edge1_Node000001_Node000002"><a xlink:title=" ">
<path fill="none" stroke="#63b8ff" d="M956.4,-52.87C946.84,-54.1 937.21,-55.35 927.9,-56.55"/>
<polygon fill="#63b8ff" stroke="#63b8ff" points="956.6,-56.37 966.07,-51.62 955.7,-49.43 956.6,-56.37"/>
</a>
</g>
</g>
<!-- Node7 -->
<g id="Node000007" class="node">
<title>Node7</title>
<g id="a_Node000007"><a xlink:href="classdomini_1_1jugadors_1_1_maquina.html#a247420aa69d81da6d3d1951d3b409a43" target="_top" xlink:title="Valora una paraula i actualitza la millor paraula trobada si és millor.">
<polygon fill="white" stroke="#666666" points="932,-32 775.75,-32 775.75,0 932,0 932,-32"/>
<text text-anchor="start" x="783.75" y="-18.5" font-family="Helvetica,sans-Serif" font-size="10.00">domini.jugadors.Maquina.valorar</text>
<text text-anchor="middle" x="853.88" y="-6.5" font-family="Helvetica,sans-Serif" font-size="10.00">Paraula</text>
</a>
</g>
</g>
<!-- Node1&#45;&gt;Node7 -->
<g id="edge8_Node000001_Node000007" class="edge">
<title>Node1&#45;&gt;Node7</title>
<g id="a_edge8_Node000001_Node000007"><a xlink:title=" ">
<path fill="none" stroke="#63b8ff" d="M956.25,-29.11C948.2,-28.07 940.11,-27.03 932.2,-26"/>
<polygon fill="#63b8ff" stroke="#63b8ff" points="955.7,-32.57 966.07,-30.38 956.6,-25.63 955.7,-32.57"/>
</a>
</g>
</g>
<!-- Node3 -->
<g id="Node000003" class="node">
<title>Node3</title>
<g id="a_Node000003"><a xlink:href="classdomini_1_1jugadors_1_1_maquina.html#a28fa4d863085aaaba920b95a47bf14b7" target="_top" xlink:title="Genera totes les paraules possibles a la dreta d&#39;una subparaula prefix.">
<polygon fill="white" stroke="#666666" points="739.75,-57 583.5,-57 583.5,-25 739.75,-25 739.75,-57"/>
<text text-anchor="start" x="591.5" y="-43.5" font-family="Helvetica,sans-Serif" font-size="10.00">domini.jugadors.Maquina.extend</text>
<text text-anchor="middle" x="661.62" y="-31.5" font-family="Helvetica,sans-Serif" font-size="10.00">Right</text>
</a>
</g>
</g>
<!-- Node2&#45;&gt;Node3 -->
<g id="edge2_Node000002_Node000003" class="edge">
<title>Node2&#45;&gt;Node3</title>
<g id="a_edge2_Node000002_Node000003"><a xlink:title=" ">
<path fill="none" stroke="#63b8ff" d="M768.47,-54.91C759.06,-53.67 749.5,-52.42 740.18,-51.19"/>
<polygon fill="#63b8ff" stroke="#63b8ff" points="767.99,-58.38 778.36,-56.21 768.9,-51.44 767.99,-58.38"/>
</a>
</g>
</g>
<!-- Node3&#45;&gt;Node3 -->
<g id="edge3_Node000003_Node000003" class="edge">
<title>Node3&#45;&gt;Node3</title>
<g id="a_edge3_Node000003_Node000003"><a xlink:title=" ">
<path fill="none" stroke="#63b8ff" d="M693.66,-68.71C688.32,-72.48 677.64,-75 661.62,-75 632.34,-75 620.9,-66.58 627.3,-57.44"/>
<polygon fill="#63b8ff" stroke="#63b8ff" points="697.09,-69.42 695.65,-58.93 690.23,-68.03 697.09,-69.42"/>
</a>
</g>
</g>
<!-- Node4 -->
<g id="Node000004" class="node">
<title>Node4</title>
<g id="a_Node000004"><a xlink:href="classdomini_1_1jugadors_1_1_maquina.html#a408520f7aa4d96099ecfa1bae76728b5" target="_top" xlink:title="Genera totes les subparaules prefix possibles cap a l&#39;esquerra d&#39;una casella anchor.">
<polygon fill="white" stroke="#666666" points="547.5,-51 366.5,-51 366.5,-31 547.5,-31 547.5,-51"/>
<text text-anchor="middle" x="457" y="-37.5" font-family="Helvetica,sans-Serif" font-size="10.00">domini.jugadors.Maquina.generateLeft</text>
</a>
</g>
</g>
<!-- Node3&#45;&gt;Node4 -->
<g id="edge4_Node000003_Node000004" class="edge">
<title>Node3&#45;&gt;Node4</title>
<g id="a_edge4_Node000003_Node000004"><a xlink:title=" ">
<path fill="none" stroke="#63b8ff" d="M571.71,-41C563.83,-41 555.85,-41 547.97,-41"/>
<polygon fill="#63b8ff" stroke="#63b8ff" points="571.64,-44.5 581.64,-41 571.64,-37.5 571.64,-44.5"/>
</a>
</g>
</g>
<!-- Node4&#45;&gt;Node4 -->
<g id="edge5_Node000004_Node000004" class="edge">
<title>Node4&#45;&gt;Node4</title>
<g id="a_edge5_Node000004_Node000004"><a xlink:title=" ">
<path fill="none" stroke="#63b8ff" d="M493.55,-62.11C489.19,-66.14 477.01,-69 457,-69 421.43,-69 410.59,-59.98 424.49,-51.34"/>
<polygon fill="#63b8ff" stroke="#63b8ff" points="496.83,-60.89 490.04,-52.76 490.27,-63.35 496.83,-60.89"/>
</a>
</g>
</g>
<!-- Node5 -->
<g id="Node000005" class="node">
<title>Node5</title>
<g id="a_Node000005"><a xlink:href="classdomini_1_1jugadors_1_1_maquina.html#afe864f5cb4ab5895e149c5aad0235400" target="_top" xlink:title="Busca la millor paraula en una direcció específica (horitzontal o vertical).">
<polygon fill="white" stroke="#666666" points="330.5,-57 174.25,-57 174.25,-25 330.5,-25 330.5,-57"/>
<text text-anchor="start" x="182.25" y="-43.5" font-family="Helvetica,sans-Serif" font-size="10.00">domini.jugadors.Maquina.search</text>
<text text-anchor="middle" x="252.38" y="-31.5" font-family="Helvetica,sans-Serif" font-size="10.00">BestWord</text>
</a>
</g>
</g>
<!-- Node4&#45;&gt;Node5 -->
<g id="edge6_Node000004_Node000005" class="edge">
<title>Node4&#45;&gt;Node5</title>
<g id="a_edge6_Node000004_Node000005"><a xlink:title=" ">
<path fill="none" stroke="#63b8ff" d="M354.8,-41C346.7,-41 338.59,-41 330.69,-41"/>
<polygon fill="#63b8ff" stroke="#63b8ff" points="354.73,-44.5 364.73,-41 354.73,-37.5 354.73,-44.5"/>
</a>
</g>
</g>
<!-- Node6 -->
<g id="Node000006" class="node">
<title>Node6</title>
<g id="a_Node000006"><a xlink:href="classdomini_1_1jugadors_1_1_maquina.html#a8b1f4889bc62ca862e4f87e55c66871e" target="_top" xlink:title="Busca la paraula amb la puntuació més alta donats un taulell i un diccionari.">
<polygon fill="white" stroke="#666666" points="138.25,-57 0,-57 0,-25 138.25,-25 138.25,-57"/>
<text text-anchor="start" x="8" y="-43.5" font-family="Helvetica,sans-Serif" font-size="10.00">domini.jugadors.Maquina.fer</text>
<text text-anchor="middle" x="69.12" y="-31.5" font-family="Helvetica,sans-Serif" font-size="10.00">Jugada</text>
</a>
</g>
</g>
<!-- Node5&#45;&gt;Node6 -->
<g id="edge7_Node000005_Node000006" class="edge">
<title>Node5&#45;&gt;Node6</title>
<g id="a_edge7_Node000005_Node000006"><a xlink:title=" ">
<path fill="none" stroke="#63b8ff" d="M162.64,-41C154.58,-41 146.51,-41 138.67,-41"/>
<polygon fill="#63b8ff" stroke="#63b8ff" points="162.47,-44.5 172.47,-41 162.47,-37.5 162.47,-44.5"/>
</a>
</g>
</g>
<!-- Node7&#45;&gt;Node3 -->
<g id="edge9_Node000007_Node000003" class="edge">
<title>Node7&#45;&gt;Node3</title>
<g id="a_edge9_Node000007_Node000003"><a xlink:title=" ">
<path fill="none" stroke="#63b8ff" d="M764.23,-27.65C756.22,-28.7 748.15,-29.76 740.25,-30.8"/>
<polygon fill="#63b8ff" stroke="#63b8ff" points="764.53,-31.14 773.99,-26.37 763.62,-24.2 764.53,-31.14"/>
</a>
</g>
</g>
</g>
</svg>
