<?xml version="1.0" encoding="UTF-8" standalone="no"?>
<!DOCTYPE svg PUBLIC "-//W3C//DTD SVG 1.1//EN"
 "http://www.w3.org/Graphics/SVG/1.1/DTD/svg11.dtd">
<!-- Generated by graphviz version 12.2.1 (20241206.2353)
 -->
<!-- Title: controladors.CtrlPartida.passarTorn Pages: 1 -->
<svg width="578pt" height="140pt"
 viewBox="0.00 0.00 578.00 140.00" xmlns="http://www.w3.org/2000/svg" xmlns:xlink="http://www.w3.org/1999/xlink">
<g id="graph0" class="graph" transform="scale(1 1) rotate(0) translate(4 136)">
<title>controladors.CtrlPartida.passarTorn</title>
<!-- Node1 -->
<g id="Node000001" class="node">
<title>Node1</title>
<g id="a_Node000001"><a xlink:title="Passa el torn al següent jugador.">
<polygon fill="#999999" stroke="#666666" points="169.75,-76 0,-76 0,-56 169.75,-56 169.75,-76"/>
<text text-anchor="middle" x="84.88" y="-62.5" font-family="Helvetica,sans-Serif" font-size="10.00">controladors.CtrlPartida.passarTorn</text>
</a>
</g>
</g>
<!-- Node2 -->
<g id="Node000002" class="node">
<title>Node2</title>
<g id="a_Node000002"><a xlink:href="classcontroladors_1_1_ctrl_partida.html#a98e85139630d752ac3e94d8a540aba0c" target="_top" xlink:title="Finalitza la partida si s&#39;han passat torns consecutius sense acció.">
<polygon fill="white" stroke="#666666" points="364.25,-82 205.75,-82 205.75,-50 364.25,-50 364.25,-82"/>
<text text-anchor="start" x="213.75" y="-68.5" font-family="Helvetica,sans-Serif" font-size="10.00">controladors.CtrlPartida.finalitzar</text>
<text text-anchor="middle" x="285" y="-56.5" font-family="Helvetica,sans-Serif" font-size="10.00">PerTornsConsecutius</text>
</a>
</g>
</g>
<!-- Node1&#45;&gt;Node2 -->
<g id="edge1_Node000001_Node000002" class="edge">
<title>Node1&#45;&gt;Node2</title>
<g id="a_edge1_Node000001_Node000002"><a xlink:title=" ">
<path fill="none" stroke="#63b8ff" d="M170.19,-66C178.04,-66 186.02,-66 193.93,-66"/>
<polygon fill="#63b8ff" stroke="#63b8ff" points="193.91,-69.5 203.91,-66 193.91,-62.5 193.91,-69.5"/>
</a>
</g>
</g>
<!-- Node3 -->
<g id="Node000003" class="node">
<title>Node3</title>
<g id="a_Node000003"><a xlink:href="classdomini_1_1jugadors_1_1_avatar.html#a44e5e6a2ee9245697351fe390849b810" target="_top" xlink:title="Incrementa el nombre total de partides guanyades.">
<polygon fill="white" stroke="#666666" points="570,-132 400.25,-132 400.25,-100 570,-100 570,-132"/>
<text text-anchor="start" x="408.25" y="-118.5" font-family="Helvetica,sans-Serif" font-size="10.00">domini.jugadors.Avatar.incrementar</text>
<text text-anchor="middle" x="485.12" y="-106.5" font-family="Helvetica,sans-Serif" font-size="10.00">PartidesGuanyades</text>
</a>
</g>
</g>
<!-- Node2&#45;&gt;Node3 -->
<g id="edge2_Node000002_Node000003" class="edge">
<title>Node2&#45;&gt;Node3</title>
<g id="a_edge2_Node000002_Node000003"><a xlink:title=" ">
<path fill="none" stroke="#63b8ff" d="M351.15,-82.44C369.26,-87.01 389.09,-92.02 407.78,-96.73"/>
<polygon fill="#63b8ff" stroke="#63b8ff" points="406.92,-100.13 417.47,-99.18 408.63,-93.34 406.92,-100.13"/>
</a>
</g>
</g>
<!-- Node4 -->
<g id="Node000004" class="node">
<title>Node4</title>
<g id="a_Node000004"><a xlink:href="classdomini_1_1jugadors_1_1_avatar.html#a750332bc2deadb604d43d1a0936a09d2" target="_top" xlink:title="Incrementa el nombre de partides guanyades contra altres jugadors.">
<polygon fill="white" stroke="#666666" points="570,-82 400.25,-82 400.25,-50 570,-50 570,-82"/>
<text text-anchor="start" x="408.25" y="-68.5" font-family="Helvetica,sans-Serif" font-size="10.00">domini.jugadors.Avatar.incrementar</text>
<text text-anchor="middle" x="485.12" y="-56.5" font-family="Helvetica,sans-Serif" font-size="10.00">PartidesGuanyadesJugador</text>
</a>
</g>
</g>
<!-- Node2&#45;&gt;Node4 -->
<g id="edge3_Node000002_Node000004" class="edge">
<title>Node2&#45;&gt;Node4</title>
<g id="a_edge3_Node000002_Node000004"><a xlink:title=" ">
<path fill="none" stroke="#63b8ff" d="M364.59,-66C372.45,-66 380.48,-66 388.49,-66"/>
<polygon fill="#63b8ff" stroke="#63b8ff" points="388.25,-69.5 398.25,-66 388.25,-62.5 388.25,-69.5"/>
</a>
</g>
</g>
<!-- Node5 -->
<g id="Node000005" class="node">
<title>Node5</title>
<g id="a_Node000005"><a xlink:href="classdomini_1_1jugadors_1_1_avatar.html#aae510bc2635d40405e60a218b1b7c097" target="_top" xlink:title="Incrementa el nombre de partides guanyades contra la màquina.">
<polygon fill="white" stroke="#666666" points="570,-32 400.25,-32 400.25,0 570,0 570,-32"/>
<text text-anchor="start" x="408.25" y="-18.5" font-family="Helvetica,sans-Serif" font-size="10.00">domini.jugadors.Avatar.incrementar</text>
<text text-anchor="middle" x="485.12" y="-6.5" font-family="Helvetica,sans-Serif" font-size="10.00">PartidesGuanyadesMaquina</text>
</a>
</g>
</g>
<!-- Node2&#45;&gt;Node5 -->
<g id="edge4_Node000002_Node000005" class="edge">
<title>Node2&#45;&gt;Node5</title>
<g id="a_edge4_Node000002_Node000005"><a xlink:title=" ">
<path fill="none" stroke="#63b8ff" d="M351.15,-49.56C369.26,-44.99 389.09,-39.98 407.78,-35.27"/>
<polygon fill="#63b8ff" stroke="#63b8ff" points="408.63,-38.66 417.47,-32.82 406.92,-31.87 408.63,-38.66"/>
</a>
</g>
</g>
</g>
</svg>
