<?xml version="1.0" encoding="UTF-8" standalone="no"?>
<!DOCTYPE svg PUBLIC "-//W3C//DTD SVG 1.1//EN"
 "http://www.w3.org/Graphics/SVG/1.1/DTD/svg11.dtd">
<!-- Generated by graphviz version 12.2.1 (20241206.2353)
 -->
<!-- Title: domini.jugadors.Maquina.rackContainsLetter Pages: 1 -->
<svg width="930pt" height="80pt"
 viewBox="0.00 0.00 929.50 80.00" xmlns="http://www.w3.org/2000/svg" xmlns:xlink="http://www.w3.org/1999/xlink">
<g id="graph0" class="graph" transform="scale(1 1) rotate(0) translate(4 76)">
<title>domini.jugadors.Maquina.rackContainsLetter</title>
<!-- Node1 -->
<g id="Node000001" class="node">
<title>Node1</title>
<g id="a_Node000001"><a xlink:title="Busca la posició d&#39;una lletra en el rack de la màquina.">
<polygon fill="#999999" stroke="#666666" points="921.5,-32 775.75,-32 775.75,0 921.5,0 921.5,-32"/>
<text text-anchor="start" x="783.75" y="-18.5" font-family="Helvetica,sans-Serif" font-size="10.00">domini.jugadors.Maquina.rack</text>
<text text-anchor="middle" x="848.62" y="-6.5" font-family="Helvetica,sans-Serif" font-size="10.00">ContainsLetter</text>
</a>
</g>
</g>
<!-- Node2 -->
<g id="Node000002" class="node">
<title>Node2</title>
<g id="a_Node000002"><a xlink:href="classdomini_1_1jugadors_1_1_maquina.html#a28fa4d863085aaaba920b95a47bf14b7" target="_top" xlink:title="Genera totes les paraules possibles a la dreta d&#39;una subparaula prefix.">
<polygon fill="white" stroke="#666666" points="739.75,-54 583.5,-54 583.5,-22 739.75,-22 739.75,-54"/>
<text text-anchor="start" x="591.5" y="-40.5" font-family="Helvetica,sans-Serif" font-size="10.00">domini.jugadors.Maquina.extend</text>
<text text-anchor="middle" x="661.62" y="-28.5" font-family="Helvetica,sans-Serif" font-size="10.00">Right</text>
</a>
</g>
</g>
<!-- Node1&#45;&gt;Node2 -->
<g id="edge1_Node000001_Node000002" class="edge">
<title>Node1&#45;&gt;Node2</title>
<g id="a_edge1_Node000001_Node000002"><a xlink:title=" ">
<path fill="none" stroke="#63b8ff" d="M764.09,-25.93C756.1,-26.88 748.02,-27.84 740.09,-28.79"/>
<polygon fill="#63b8ff" stroke="#63b8ff" points="764.28,-29.44 773.8,-24.78 763.46,-22.48 764.28,-29.44"/>
</a>
</g>
</g>
<!-- Node3 -->
<g id="Node000003" class="node">
<title>Node3</title>
<g id="a_Node000003"><a xlink:href="classdomini_1_1jugadors_1_1_maquina.html#a408520f7aa4d96099ecfa1bae76728b5" target="_top" xlink:title="Genera totes les subparaules prefix possibles cap a l&#39;esquerra d&#39;una casella anchor.">
<polygon fill="white" stroke="#666666" points="547.5,-26 366.5,-26 366.5,-6 547.5,-6 547.5,-26"/>
<text text-anchor="middle" x="457" y="-12.5" font-family="Helvetica,sans-Serif" font-size="10.00">domini.jugadors.Maquina.generateLeft</text>
</a>
</g>
</g>
<!-- Node1&#45;&gt;Node3 -->
<g id="edge7_Node000001_Node000003" class="edge">
<title>Node1&#45;&gt;Node3</title>
<g id="a_edge7_Node000001_Node000003"><a xlink:title=" ">
<path fill="none" stroke="#63b8ff" d="M763.89,-13.44C755.73,-13.26 747.58,-13.11 739.75,-13 670.31,-12.03 652.94,-12.17 583.5,-13 571.95,-13.14 559.8,-13.35 547.8,-13.59"/>
<polygon fill="#63b8ff" stroke="#63b8ff" points="763.79,-16.94 773.87,-13.68 763.96,-9.94 763.79,-16.94"/>
</a>
</g>
</g>
<!-- Node2&#45;&gt;Node2 -->
<g id="edge2_Node000002_Node000002" class="edge">
<title>Node2&#45;&gt;Node2</title>
<g id="a_edge2_Node000002_Node000002"><a xlink:title=" ">
<path fill="none" stroke="#63b8ff" d="M692.79,-65.71C687.59,-69.48 677.2,-72 661.62,-72 633.14,-72 622.01,-63.58 628.24,-54.44"/>
<polygon fill="#63b8ff" stroke="#63b8ff" points="696.22,-66.42 694.72,-55.93 689.35,-65.06 696.22,-66.42"/>
</a>
</g>
</g>
<!-- Node2&#45;&gt;Node3 -->
<g id="edge3_Node000002_Node000003" class="edge">
<title>Node2&#45;&gt;Node3</title>
<g id="a_edge3_Node000002_Node000003"><a xlink:title=" ">
<path fill="none" stroke="#63b8ff" d="M571.71,-28.35C563.83,-27.49 555.85,-26.62 547.97,-25.77"/>
<polygon fill="#63b8ff" stroke="#63b8ff" points="571.33,-31.83 581.65,-29.43 572.09,-24.87 571.33,-31.83"/>
</a>
</g>
</g>
<!-- Node3&#45;&gt;Node3 -->
<g id="edge4_Node000003_Node000003" class="edge">
<title>Node3&#45;&gt;Node3</title>
<g id="a_edge4_Node000003_Node000003"><a xlink:title=" ">
<path fill="none" stroke="#63b8ff" d="M493.55,-37.11C489.19,-41.14 477.01,-44 457,-44 421.43,-44 410.59,-34.98 424.49,-26.34"/>
<polygon fill="#63b8ff" stroke="#63b8ff" points="496.83,-35.89 490.04,-27.76 490.27,-38.35 496.83,-35.89"/>
</a>
</g>
</g>
<!-- Node4 -->
<g id="Node000004" class="node">
<title>Node4</title>
<g id="a_Node000004"><a xlink:href="classdomini_1_1jugadors_1_1_maquina.html#afe864f5cb4ab5895e149c5aad0235400" target="_top" xlink:title="Busca la millor paraula en una direcció específica (horitzontal o vertical).">
<polygon fill="white" stroke="#666666" points="330.5,-32 174.25,-32 174.25,0 330.5,0 330.5,-32"/>
<text text-anchor="start" x="182.25" y="-18.5" font-family="Helvetica,sans-Serif" font-size="10.00">domini.jugadors.Maquina.search</text>
<text text-anchor="middle" x="252.38" y="-6.5" font-family="Helvetica,sans-Serif" font-size="10.00">BestWord</text>
</a>
</g>
</g>
<!-- Node3&#45;&gt;Node4 -->
<g id="edge5_Node000003_Node000004" class="edge">
<title>Node3&#45;&gt;Node4</title>
<g id="a_edge5_Node000003_Node000004"><a xlink:title=" ">
<path fill="none" stroke="#63b8ff" d="M354.8,-16C346.7,-16 338.59,-16 330.69,-16"/>
<polygon fill="#63b8ff" stroke="#63b8ff" points="354.73,-19.5 364.73,-16 354.73,-12.5 354.73,-19.5"/>
</a>
</g>
</g>
<!-- Node5 -->
<g id="Node000005" class="node">
<title>Node5</title>
<g id="a_Node000005"><a xlink:href="classdomini_1_1jugadors_1_1_maquina.html#a8b1f4889bc62ca862e4f87e55c66871e" target="_top" xlink:title="Busca la paraula amb la puntuació més alta donats un taulell i un diccionari.">
<polygon fill="white" stroke="#666666" points="138.25,-32 0,-32 0,0 138.25,0 138.25,-32"/>
<text text-anchor="start" x="8" y="-18.5" font-family="Helvetica,sans-Serif" font-size="10.00">domini.jugadors.Maquina.fer</text>
<text text-anchor="middle" x="69.12" y="-6.5" font-family="Helvetica,sans-Serif" font-size="10.00">Jugada</text>
</a>
</g>
</g>
<!-- Node4&#45;&gt;Node5 -->
<g id="edge6_Node000004_Node000005" class="edge">
<title>Node4&#45;&gt;Node5</title>
<g id="a_edge6_Node000004_Node000005"><a xlink:title=" ">
<path fill="none" stroke="#63b8ff" d="M162.64,-16C154.58,-16 146.51,-16 138.67,-16"/>
<polygon fill="#63b8ff" stroke="#63b8ff" points="162.47,-19.5 172.47,-16 162.47,-12.5 162.47,-19.5"/>
</a>
</g>
</g>
</g>
</svg>
