<?xml version="1.0" encoding="UTF-8" standalone="no"?>
<!DOCTYPE svg PUBLIC "-//W3C//DTD SVG 1.1//EN"
 "http://www.w3.org/Graphics/SVG/1.1/DTD/svg11.dtd">
<!-- Generated by graphviz version 12.2.1 (20241206.2353)
 -->
<!-- Title: domini.auxiliars.MaxWord Pages: 1 -->
<svg width="128pt" height="428pt"
 viewBox="0.00 0.00 127.75 428.00" xmlns="http://www.w3.org/2000/svg" xmlns:xlink="http://www.w3.org/1999/xlink">
<g id="graph0" class="graph" transform="scale(1 1) rotate(0) translate(4 424)">
<title>domini.auxiliars.MaxWord</title>
<!-- Node1 -->
<g id="Node000001" class="node">
<title>Node1</title>
<g id="a_Node000001"><a xlink:title="Classe auxiliar de Maquina per representar la millor jugada trobada en una partida de Scrabble.">
<polygon fill="#999999" stroke="none" points="119.75,-212 0,-212 0,0 119.75,0 119.75,-212"/>
<text text-anchor="start" x="4" y="-198.5" font-family="Helvetica,sans-Serif" font-size="10.00">domini.auxiliars.MaxWord</text>
<text text-anchor="start" x="12.94" y="-182.5" font-family="Helvetica,sans-Serif" font-size="10.00">&#45;</text>
<text text-anchor="start" x="28.88" y="-182.5" font-family="Helvetica,sans-Serif" font-size="10.00">word</text>
<text text-anchor="start" x="12.94" y="-166.5" font-family="Helvetica,sans-Serif" font-size="10.00">&#45;</text>
<text text-anchor="start" x="28.88" y="-166.5" font-family="Helvetica,sans-Serif" font-size="10.00">points</text>
<text text-anchor="start" x="12.94" y="-150.5" font-family="Helvetica,sans-Serif" font-size="10.00">&#45;</text>
<text text-anchor="start" x="28.88" y="-150.5" font-family="Helvetica,sans-Serif" font-size="10.00">h</text>
<text text-anchor="start" x="11.44" y="-134.5" font-family="Helvetica,sans-Serif" font-size="10.00">+</text>
<text text-anchor="start" x="28.88" y="-134.5" font-family="Helvetica,sans-Serif" font-size="10.00">MaxWord()</text>
<text text-anchor="start" x="11.44" y="-118.5" font-family="Helvetica,sans-Serif" font-size="10.00">+</text>
<text text-anchor="start" x="28.88" y="-118.5" font-family="Helvetica,sans-Serif" font-size="10.00">getWord()</text>
<text text-anchor="start" x="11.44" y="-102.5" font-family="Helvetica,sans-Serif" font-size="10.00">+</text>
<text text-anchor="start" x="28.88" y="-102.5" font-family="Helvetica,sans-Serif" font-size="10.00">getPoints()</text>
<text text-anchor="start" x="11.44" y="-86.5" font-family="Helvetica,sans-Serif" font-size="10.00">+</text>
<text text-anchor="start" x="28.88" y="-86.5" font-family="Helvetica,sans-Serif" font-size="10.00">getCoordinates()</text>
<text text-anchor="start" x="11.44" y="-70.5" font-family="Helvetica,sans-Serif" font-size="10.00">+</text>
<text text-anchor="start" x="28.88" y="-70.5" font-family="Helvetica,sans-Serif" font-size="10.00">getHorizontal()</text>
<text text-anchor="start" x="11.44" y="-54.5" font-family="Helvetica,sans-Serif" font-size="10.00">+</text>
<text text-anchor="start" x="28.88" y="-54.5" font-family="Helvetica,sans-Serif" font-size="10.00">setWord()</text>
<text text-anchor="start" x="11.44" y="-38.5" font-family="Helvetica,sans-Serif" font-size="10.00">+</text>
<text text-anchor="start" x="28.88" y="-38.5" font-family="Helvetica,sans-Serif" font-size="10.00">setPoints()</text>
<text text-anchor="start" x="11.44" y="-22.5" font-family="Helvetica,sans-Serif" font-size="10.00">+</text>
<text text-anchor="start" x="28.88" y="-22.5" font-family="Helvetica,sans-Serif" font-size="10.00">setCoordinates()</text>
<text text-anchor="start" x="11.44" y="-6.5" font-family="Helvetica,sans-Serif" font-size="10.00">+</text>
<text text-anchor="start" x="28.88" y="-6.5" font-family="Helvetica,sans-Serif" font-size="10.00">setHorizontal()</text>
<polygon fill="#666666" stroke="#666666" points="0,-194 0,-194 119.75,-194 119.75,-194 0,-194"/>
<polygon fill="#666666" stroke="#666666" points="0,-146 0,-146 26.88,-146 26.88,-146 0,-146"/>
<polygon fill="#666666" stroke="#666666" points="26.88,-146 26.88,-146 119.75,-146 119.75,-146 26.88,-146"/>
<polygon fill="none" stroke="#666666" points="0,0 0,-212 119.75,-212 119.75,0 0,0"/>
</a>
</g>
</g>
<!-- Node2 -->
<g id="Node000002" class="node">
<title>Node2</title>
<g id="a_Node000002"><a xlink:href="classdomini_1_1auxiliars_1_1_pair.html" target="_top" xlink:title=" ">
<polygon fill="white" stroke="none" points="107.75,-420 12,-420 12,-260 107.75,-260 107.75,-420"/>
<text text-anchor="start" x="16" y="-406.5" font-family="Helvetica,sans-Serif" font-size="10.00">domini.auxiliars.Pair</text>
<text text-anchor="start" x="17.88" y="-394.5" font-family="Helvetica,sans-Serif" font-size="10.00">&lt; Integer, Integer &gt;</text>
<text text-anchor="start" x="23.81" y="-378.5" font-family="Helvetica,sans-Serif" font-size="10.00">&#45;</text>
<text text-anchor="start" x="38.62" y="-378.5" font-family="Helvetica,sans-Serif" font-size="10.00">first</text>
<text text-anchor="start" x="23.81" y="-362.5" font-family="Helvetica,sans-Serif" font-size="10.00">&#45;</text>
<text text-anchor="start" x="38.62" y="-362.5" font-family="Helvetica,sans-Serif" font-size="10.00">second</text>
<text text-anchor="start" x="22.31" y="-346.5" font-family="Helvetica,sans-Serif" font-size="10.00">+</text>
<text text-anchor="start" x="38.62" y="-346.5" font-family="Helvetica,sans-Serif" font-size="10.00">Pair()</text>
<text text-anchor="start" x="22.31" y="-330.5" font-family="Helvetica,sans-Serif" font-size="10.00">+</text>
<text text-anchor="start" x="38.62" y="-330.5" font-family="Helvetica,sans-Serif" font-size="10.00">Pair()</text>
<text text-anchor="start" x="22.31" y="-314.5" font-family="Helvetica,sans-Serif" font-size="10.00">+</text>
<text text-anchor="start" x="38.62" y="-314.5" font-family="Helvetica,sans-Serif" font-size="10.00">getFirst()</text>
<text text-anchor="start" x="22.31" y="-298.5" font-family="Helvetica,sans-Serif" font-size="10.00">+</text>
<text text-anchor="start" x="38.62" y="-298.5" font-family="Helvetica,sans-Serif" font-size="10.00">getSecond()</text>
<text text-anchor="start" x="22.31" y="-282.5" font-family="Helvetica,sans-Serif" font-size="10.00">+</text>
<text text-anchor="start" x="38.62" y="-282.5" font-family="Helvetica,sans-Serif" font-size="10.00">equals()</text>
<text text-anchor="start" x="22.31" y="-266.5" font-family="Helvetica,sans-Serif" font-size="10.00">+</text>
<text text-anchor="start" x="38.62" y="-266.5" font-family="Helvetica,sans-Serif" font-size="10.00">toString()</text>
<polygon fill="#666666" stroke="#666666" points="12,-390 12,-390 107.75,-390 107.75,-390 12,-390"/>
<polygon fill="#666666" stroke="#666666" points="12,-358 12,-358 36.62,-358 36.62,-358 12,-358"/>
<polygon fill="#666666" stroke="#666666" points="36.62,-358 36.62,-358 107.75,-358 107.75,-358 36.62,-358"/>
<polygon fill="none" stroke="#666666" points="12,-260 12,-420 107.75,-420 107.75,-260 12,-260"/>
</a>
</g>
</g>
<!-- Node2&#45;&gt;Node1 -->
<g id="edge1_Node000001_Node000002" class="edge">
<title>Node2&#45;&gt;Node1</title>
<g id="a_edge1_Node000001_Node000002"><a xlink:title=" ">
<path fill="none" stroke="#63b8ff" d="M59.88,-260.13C59.88,-248.75 59.88,-236.83 59.88,-224.89"/>
<polygon fill="none" stroke="#63b8ff" points="59.88,-224.84 55.88,-218.84 59.88,-212.84 63.88,-218.84 59.88,-224.84"/>
</a>
</g>
<text text-anchor="middle" x="88" y="-232.5" font-family="Helvetica,sans-Serif" font-size="10.00" fill="grey"> &#45;coordinates</text>
</g>
</g>
</svg>
