<?xml version="1.0" encoding="UTF-8" standalone="no"?>
<!DOCTYPE svg PUBLIC "-//W3C//DTD SVG 1.1//EN"
 "http://www.w3.org/Graphics/SVG/1.1/DTD/svg11.dtd">
<!-- Generated by graphviz version 12.2.1 (20241206.2353)
 -->
<!-- Title: controladors.CtrlPresentacio.passarTornPartida Pages: 1 -->
<svg width="1060pt" height="301pt"
 viewBox="0.00 0.00 1060.25 301.11" xmlns="http://www.w3.org/2000/svg" xmlns:xlink="http://www.w3.org/1999/xlink">
<g id="graph0" class="graph" transform="scale(1 1) rotate(0) translate(4 297.11)">
<title>controladors.CtrlPresentacio.passarTornPartida</title>
<!-- Node1 -->
<g id="Node000001" class="node">
<title>Node1</title>
<g id="a_Node000001"><a xlink:title="Passa el torn a l&#39;altre jugador de la partida actual.">
<polygon fill="#999999" stroke="#666666" points="1052.25,-173.11 880.25,-173.11 880.25,-141.11 1052.25,-141.11 1052.25,-173.11"/>
<text text-anchor="start" x="888.25" y="-159.61" font-family="Helvetica,sans-Serif" font-size="10.00">controladors.CtrlPresentacio.passar</text>
<text text-anchor="middle" x="966.25" y="-147.61" font-family="Helvetica,sans-Serif" font-size="10.00">TornPartida</text>
</a>
</g>
</g>
<!-- Node2 -->
<g id="Node000002" class="node">
<title>Node2</title>
<g id="a_Node000002"><a xlink:href="classinterficie_1_1_vista_partida.html#a7855e7a9cc41e1450c37054781ba6309" target="_top" xlink:title="Inicialitza els components de la interfície gràfica.">
<polygon fill="white" stroke="#666666" points="844.25,-167.11 709,-167.11 709,-147.11 844.25,-147.11 844.25,-167.11"/>
<text text-anchor="middle" x="776.62" y="-153.61" font-family="Helvetica,sans-Serif" font-size="10.00">interficie.VistaPartida.initUI</text>
</a>
</g>
</g>
<!-- Node1&#45;&gt;Node2 -->
<g id="edge1_Node000001_Node000002" class="edge">
<title>Node1&#45;&gt;Node2</title>
<g id="a_edge1_Node000001_Node000002"><a xlink:title=" ">
<path fill="none" stroke="#63b8ff" d="M868.57,-157.11C860.51,-157.11 852.49,-157.11 844.73,-157.11"/>
<polygon fill="#63b8ff" stroke="#63b8ff" points="868.43,-160.61 878.43,-157.11 868.43,-153.61 868.43,-160.61"/>
</a>
</g>
</g>
<!-- Node3 -->
<g id="Node000003" class="node">
<title>Node3</title>
<g id="a_Node000003"><a xlink:href="classinterficie_1_1_vista_partida.html#abce8626a6a3750affe851e1f8bea2cb3" target="_top" xlink:title="Constructor de la classe VistaPartida.">
<polygon fill="white" stroke="#666666" points="673,-173.11 561,-173.11 561,-141.11 673,-141.11 673,-173.11"/>
<text text-anchor="start" x="569" y="-159.61" font-family="Helvetica,sans-Serif" font-size="10.00">interficie.VistaPartida.</text>
<text text-anchor="middle" x="617" y="-147.61" font-family="Helvetica,sans-Serif" font-size="10.00">VistaPartida</text>
</a>
</g>
</g>
<!-- Node2&#45;&gt;Node3 -->
<g id="edge2_Node000002_Node000003" class="edge">
<title>Node2&#45;&gt;Node3</title>
<g id="a_edge2_Node000002_Node000003"><a xlink:title=" ">
<path fill="none" stroke="#63b8ff" d="M697.53,-150.36C689.26,-150.36 680.97,-150.45 673.04,-150.64"/>
<polygon fill="#63b8ff" stroke="#63b8ff" points="697.24,-153.86 707.26,-150.42 697.29,-146.86 697.24,-153.86"/>
</a>
</g>
</g>
<!-- Node3&#45;&gt;Node2 -->
<g id="edge17_Node000003_Node000002" class="edge">
<title>Node3&#45;&gt;Node2</title>
<g id="a_edge17_Node000003_Node000002"><a xlink:title=" ">
<path fill="none" stroke="#63b8ff" d="M684.32,-163.78C692.41,-163.88 700.68,-163.89 708.78,-163.79"/>
<polygon fill="#63b8ff" stroke="#63b8ff" points="684.61,-160.29 674.55,-163.61 684.48,-167.29 684.61,-160.29"/>
</a>
</g>
</g>
<!-- Node3&#45;&gt;Node3 -->
<g id="edge18_Node000003_Node000003" class="edge">
<title>Node3&#45;&gt;Node3</title>
<g id="a_edge18_Node000003_Node000003"><a xlink:title=" ">
<path fill="none" stroke="#63b8ff" d="M643.6,-184.82C639.17,-188.59 630.3,-191.11 617,-191.11 592.68,-191.11 583.18,-182.69 588.5,-173.55"/>
<polygon fill="#63b8ff" stroke="#63b8ff" points="647.04,-185.49 645.25,-175.05 640.13,-184.33 647.04,-185.49"/>
</a>
</g>
</g>
<!-- Node4 -->
<g id="Node000004" class="node">
<title>Node4</title>
<g id="a_Node000004"><a xlink:href="classinterficie_1_1_vista_partida.html#a6bd7550fc714ba5195c8b55ffe3d973c" target="_top" xlink:title="Afegeix les fitxes d&#39;un jugador al seu rack.">
<polygon fill="white" stroke="#666666" points="516.75,-129.11 380.75,-129.11 380.75,-97.11 516.75,-97.11 516.75,-129.11"/>
<text text-anchor="start" x="388.75" y="-115.61" font-family="Helvetica,sans-Serif" font-size="10.00">interficie.VistaPartida.afegir</text>
<text text-anchor="middle" x="448.75" y="-103.61" font-family="Helvetica,sans-Serif" font-size="10.00">FitxesARack</text>
</a>
</g>
</g>
<!-- Node3&#45;&gt;Node4 -->
<g id="edge3_Node000003_Node000004" class="edge">
<title>Node3&#45;&gt;Node4</title>
<g id="a_edge3_Node000003_Node000004"><a xlink:title=" ">
<path fill="none" stroke="#63b8ff" d="M549.85,-139.6C537.38,-136.3 524.38,-132.86 512.04,-129.6"/>
<polygon fill="#63b8ff" stroke="#63b8ff" points="548.62,-142.9 559.18,-142.07 550.41,-136.13 548.62,-142.9"/>
</a>
</g>
</g>
<!-- Node7 -->
<g id="Node000007" class="node">
<title>Node7</title>
<g id="a_Node000007"><a xlink:href="classinterficie_1_1_vista_partida.html#ae6809bc2e7efc03077c111367571f788" target="_top" xlink:title="Afegeix maquetes al rack de l&#39;oponent.">
<polygon fill="white" stroke="#666666" points="516.75,-79.11 380.75,-79.11 380.75,-47.11 516.75,-47.11 516.75,-79.11"/>
<text text-anchor="start" x="388.75" y="-65.61" font-family="Helvetica,sans-Serif" font-size="10.00">interficie.VistaPartida.afegir</text>
<text text-anchor="middle" x="448.75" y="-53.61" font-family="Helvetica,sans-Serif" font-size="10.00">MaquetesARack</text>
</a>
</g>
</g>
<!-- Node3&#45;&gt;Node7 -->
<g id="edge11_Node000003_Node000007" class="edge">
<title>Node3&#45;&gt;Node7</title>
<g id="a_edge11_Node000003_Node000007"><a xlink:title=" ">
<path fill="none" stroke="#63b8ff" d="M589.59,-133.37C572.23,-118.73 548.45,-100.46 525,-88.11 519.03,-84.97 512.59,-82.11 506.08,-79.55"/>
<polygon fill="#63b8ff" stroke="#63b8ff" points="587.04,-135.79 596.91,-139.66 591.61,-130.48 587.04,-135.79"/>
</a>
</g>
</g>
<!-- Node8 -->
<g id="Node000008" class="node">
<title>Node8</title>
<g id="a_Node000008"><a xlink:href="classinterficie_1_1_vista_partida.html#a8ebc9da2a2b927ba87ed97ad85ae44e8" target="_top" xlink:title="Confirma l&#39;acció de guardar la partida.">
<polygon fill="white" stroke="#666666" points="525,-293.11 372.5,-293.11 372.5,-261.11 525,-261.11 525,-293.11"/>
<text text-anchor="start" x="380.5" y="-279.61" font-family="Helvetica,sans-Serif" font-size="10.00">interficie.VistaPartida.confirmar</text>
<text text-anchor="middle" x="448.75" y="-267.61" font-family="Helvetica,sans-Serif" font-size="10.00">Guardar</text>
</a>
</g>
</g>
<!-- Node3&#45;&gt;Node8 -->
<g id="edge13_Node000003_Node000008" class="edge">
<title>Node3&#45;&gt;Node8</title>
<g id="a_edge13_Node000003_Node000008"><a xlink:title=" ">
<path fill="none" stroke="#63b8ff" d="M595.64,-182.19C578.5,-201.97 552.44,-229.15 525,-247.11 517.12,-252.27 508.2,-256.79 499.34,-260.64"/>
<polygon fill="#63b8ff" stroke="#63b8ff" points="598.3,-184.45 602.1,-174.56 592.96,-179.92 598.3,-184.45"/>
</a>
</g>
</g>
<!-- Node9 -->
<g id="Node000009" class="node">
<title>Node9</title>
<g id="a_Node000009"><a xlink:href="classinterficie_1_1_vista_partida.html#ab47b596fbbd6a79289d4b9d7f5b5e068" target="_top" xlink:title="Crea un panell amb la informació d&#39;un jugador.">
<polygon fill="white" stroke="#666666" points="328.25,-255.11 194.5,-255.11 194.5,-223.11 328.25,-223.11 328.25,-255.11"/>
<text text-anchor="start" x="202.5" y="-241.61" font-family="Helvetica,sans-Serif" font-size="10.00">interficie.VistaPartida.crear</text>
<text text-anchor="middle" x="261.38" y="-229.61" font-family="Helvetica,sans-Serif" font-size="10.00">PanelJugador</text>
</a>
</g>
</g>
<!-- Node3&#45;&gt;Node9 -->
<g id="edge15_Node000003_Node000009" class="edge">
<title>Node3&#45;&gt;Node9</title>
<g id="a_edge15_Node000003_Node000009"><a xlink:title=" ">
<path fill="none" stroke="#63b8ff" d="M583.97,-179.69C567.18,-190.39 545.82,-202.29 525,-209.11 460.45,-230.25 382.76,-236.97 328.7,-238.88"/>
<polygon fill="#63b8ff" stroke="#63b8ff" points="585.58,-182.82 592.02,-174.41 581.74,-176.97 585.58,-182.82"/>
</a>
</g>
</g>
<!-- Node5 -->
<g id="Node000005" class="node">
<title>Node5</title>
<g id="a_Node000005"><a xlink:href="classinterficie_1_1_vista_partida.html#a0698d192124492ebfd8a3b029a6fa23c" target="_top" xlink:title="Actualitza els racks dels jugadors.">
<polygon fill="white" stroke="#666666" points="336.5,-129.11 186.25,-129.11 186.25,-97.11 336.5,-97.11 336.5,-129.11"/>
<text text-anchor="start" x="194.25" y="-115.61" font-family="Helvetica,sans-Serif" font-size="10.00">interficie.VistaPartida.refrescar</text>
<text text-anchor="middle" x="261.38" y="-103.61" font-family="Helvetica,sans-Serif" font-size="10.00">RackJugadors</text>
</a>
</g>
</g>
<!-- Node4&#45;&gt;Node5 -->
<g id="edge4_Node000004_Node000005" class="edge">
<title>Node4&#45;&gt;Node5</title>
<g id="a_edge4_Node000004_Node000005"><a xlink:title=" ">
<path fill="none" stroke="#63b8ff" d="M368.93,-113.11C358.34,-113.11 347.5,-113.11 336.98,-113.11"/>
<polygon fill="#63b8ff" stroke="#63b8ff" points="368.79,-116.61 378.79,-113.11 368.79,-109.61 368.79,-116.61"/>
</a>
</g>
</g>
<!-- Node5&#45;&gt;Node2 -->
<g id="edge5_Node000005_Node000002" class="edge">
<title>Node5&#45;&gt;Node2</title>
<g id="a_edge5_Node000005_Node000002"><a xlink:title=" ">
<path fill="none" stroke="#63b8ff" d="M287.88,-89.1C308.8,-71.16 340.15,-48.08 372.5,-38.11 437.27,-18.15 458.88,-23.21 525,-38.11 620.39,-59.61 722.09,-121.84 760.11,-146.69"/>
<polygon fill="#63b8ff" stroke="#63b8ff" points="285.62,-86.43 280.44,-95.67 290.25,-91.68 285.62,-86.43"/>
</a>
</g>
</g>
<!-- Node5&#45;&gt;Node3 -->
<g id="edge10_Node000005_Node000003" class="edge">
<title>Node5&#45;&gt;Node3</title>
<g id="a_edge10_Node000005_Node000003"><a xlink:title=" ">
<path fill="none" stroke="#63b8ff" d="M338.75,-131.95C350.02,-134.29 361.52,-136.45 372.5,-138.11 436.64,-147.84 511.09,-152.73 560.62,-155.08"/>
<polygon fill="#63b8ff" stroke="#63b8ff" points="339.58,-128.55 329.07,-129.88 338.11,-135.4 339.58,-128.55"/>
</a>
</g>
</g>
<!-- Node6 -->
<g id="Node000006" class="node">
<title>Node6</title>
<g id="a_Node000006"><a xlink:href="classinterficie_1_1_vista_partida.html#a485041b781e81c64fb5414207ff21d2a" target="_top" xlink:title="Actualitza la informació de la partida.">
<polygon fill="white" stroke="#666666" points="150.25,-170.11 0,-170.11 0,-138.11 150.25,-138.11 150.25,-170.11"/>
<text text-anchor="start" x="8" y="-156.61" font-family="Helvetica,sans-Serif" font-size="10.00">interficie.VistaPartida.refrescar</text>
<text text-anchor="middle" x="75.12" y="-144.61" font-family="Helvetica,sans-Serif" font-size="10.00">Informacio</text>
</a>
</g>
</g>
<!-- Node5&#45;&gt;Node6 -->
<g id="edge6_Node000005_Node000006" class="edge">
<title>Node5&#45;&gt;Node6</title>
<g id="a_edge6_Node000005_Node000006"><a xlink:title=" ">
<path fill="none" stroke="#63b8ff" d="M175.26,-132.05C166.86,-133.92 158.39,-135.81 150.12,-137.65"/>
<polygon fill="#63b8ff" stroke="#63b8ff" points="175.75,-135.53 184.75,-129.94 174.23,-128.69 175.75,-135.53"/>
</a>
</g>
</g>
<!-- Node6&#45;&gt;Node2 -->
<g id="edge7_Node000006_Node000002" class="edge">
<title>Node6&#45;&gt;Node2</title>
<g id="a_edge7_Node000006_Node000002"><a xlink:title=" ">
<path fill="none" stroke="#63b8ff" d="M109.85,-131.55C131.18,-117.89 159.65,-100.72 186.25,-88.11 265.74,-50.43 285.84,-36.22 372.5,-21.11 504.45,1.9 555.06,19.38 673,-44.11 719.67,-69.23 756.06,-124.07 769.74,-146.86"/>
<polygon fill="#63b8ff" stroke="#63b8ff" points="108.05,-128.55 101.57,-136.93 111.86,-134.42 108.05,-128.55"/>
</a>
</g>
</g>
<!-- Node6&#45;&gt;Node3 -->
<g id="edge9_Node000006_Node000003" class="edge">
<title>Node6&#45;&gt;Node3</title>
<g id="a_edge9_Node000006_Node000003"><a xlink:title=" ">
<path fill="none" stroke="#63b8ff" d="M161.66,-156.19C251.98,-158.12 398.51,-160.5 525,-159.11 536.54,-158.98 548.89,-158.77 560.66,-158.52"/>
<polygon fill="#63b8ff" stroke="#63b8ff" points="161.98,-152.69 151.9,-155.98 161.82,-159.69 161.98,-152.69"/>
</a>
</g>
</g>
<!-- Node6&#45;&gt;Node6 -->
<g id="edge8_Node000006_Node000006" class="edge">
<title>Node6&#45;&gt;Node6</title>
<g id="a_edge8_Node000006_Node000006"><a xlink:title=" ">
<path fill="none" stroke="#63b8ff" d="M106.16,-181.82C100.99,-185.59 90.64,-188.11 75.12,-188.11 46.75,-188.11 35.67,-179.69 41.87,-170.55"/>
<polygon fill="#63b8ff" stroke="#63b8ff" points="109.59,-182.53 108.08,-172.04 102.72,-181.18 109.59,-182.53"/>
</a>
</g>
</g>
<!-- Node7&#45;&gt;Node5 -->
<g id="edge12_Node000007_Node000005" class="edge">
<title>Node7&#45;&gt;Node5</title>
<g id="a_edge12_Node000007_Node000005"><a xlink:title=" ">
<path fill="none" stroke="#63b8ff" d="M376.11,-82.43C358.7,-87.13 340.24,-92.11 323.37,-96.66"/>
<polygon fill="#63b8ff" stroke="#63b8ff" points="376.59,-85.93 385.33,-79.95 374.77,-79.17 376.59,-85.93"/>
</a>
</g>
</g>
<!-- Node8&#45;&gt;Node2 -->
<g id="edge14_Node000008_Node000002" class="edge">
<title>Node8&#45;&gt;Node2</title>
<g id="a_edge14_Node000008_Node000002"><a xlink:title=" ">
<path fill="none" stroke="#63b8ff" d="M510.96,-257.19C556.04,-242.23 618.68,-220.83 673,-200.11 700.43,-189.64 731.47,-176.45 752.16,-167.45"/>
<polygon fill="#63b8ff" stroke="#63b8ff" points="510.01,-253.81 501.62,-260.28 512.21,-260.46 510.01,-253.81"/>
</a>
</g>
</g>
<!-- Node9&#45;&gt;Node6 -->
<g id="edge16_Node000009_Node000006" class="edge">
<title>Node9&#45;&gt;Node6</title>
<g id="a_edge16_Node000009_Node000006"><a xlink:title=" ">
<path fill="none" stroke="#63b8ff" d="M207.69,-218.38C200.45,-215.36 193.14,-212.22 186.25,-209.11 159.17,-196.89 129.03,-181.73 107.14,-170.42"/>
<polygon fill="#63b8ff" stroke="#63b8ff" points="206.21,-221.56 216.79,-222.13 208.87,-215.09 206.21,-221.56"/>
</a>
</g>
</g>
</g>
</svg>
