<?xml version="1.0" encoding="UTF-8" standalone="no"?>
<!DOCTYPE svg PUBLIC "-//W3C//DTD SVG 1.1//EN"
 "http://www.w3.org/Graphics/SVG/1.1/DTD/svg11.dtd">
<!-- Generated by graphviz version 12.2.1 (20241206.2353)
 -->
<!-- Title: controladors.CtrlDomini.getRankingGlobalLimitat Pages: 1 -->
<svg width="689pt" height="58pt"
 viewBox="0.00 0.00 689.25 58.00" xmlns="http://www.w3.org/2000/svg" xmlns:xlink="http://www.w3.org/1999/xlink">
<g id="graph0" class="graph" transform="scale(1 1) rotate(0) translate(4 54)">
<title>controladors.CtrlDomini.getRankingGlobalLimitat</title>
<!-- Node1 -->
<g id="Node000001" class="node">
<title>Node1</title>
<g id="a_Node000001"><a xlink:title="Obté el ranking del numero de jugadors indicat.">
<polygon fill="#999999" stroke="#666666" points="681.25,-32 546,-32 546,0 681.25,0 681.25,-32"/>
<text text-anchor="start" x="554" y="-18.5" font-family="Helvetica,sans-Serif" font-size="10.00">controladors.CtrlDomini.get</text>
<text text-anchor="middle" x="613.62" y="-6.5" font-family="Helvetica,sans-Serif" font-size="10.00">RankingGlobalLimitat</text>
</a>
</g>
</g>
<!-- Node2 -->
<g id="Node000002" class="node">
<title>Node2</title>
<g id="a_Node000002"><a xlink:href="classcontroladors_1_1_ctrl_presentacio.html#acaf9b6cf3f40d88428b5d77b735e8856" target="_top" xlink:title="Obté el rànquing global d&#39;avatares limitat a un cert nombre.">
<polygon fill="white" stroke="#666666" points="510,-32 353.75,-32 353.75,0 510,0 510,-32"/>
<text text-anchor="start" x="361.75" y="-18.5" font-family="Helvetica,sans-Serif" font-size="10.00">controladors.CtrlPresentacio.get</text>
<text text-anchor="middle" x="431.88" y="-6.5" font-family="Helvetica,sans-Serif" font-size="10.00">Ranking</text>
</a>
</g>
</g>
<!-- Node1&#45;&gt;Node2 -->
<g id="edge1_Node000001_Node000002" class="edge">
<title>Node1&#45;&gt;Node2</title>
<g id="a_edge1_Node000001_Node000002"><a xlink:title=" ">
<path fill="none" stroke="#63b8ff" d="M534.25,-16C526.36,-16 518.35,-16 510.47,-16"/>
<polygon fill="#63b8ff" stroke="#63b8ff" points="534.18,-19.5 544.18,-16 534.18,-12.5 534.18,-19.5"/>
</a>
</g>
</g>
<!-- Node3 -->
<g id="Node000003" class="node">
<title>Node3</title>
<g id="a_Node000003"><a xlink:href="classinterficie_1_1_vista_consultar_ranking.html#ac8bcd1db92441badfd8650cd3c54025b" target="_top" xlink:title="Carrega i mostra el rànquing a partir del límit indicat.">
<polygon fill="white" stroke="#666666" points="317.75,-32 191.5,-32 191.5,0 317.75,0 317.75,-32"/>
<text text-anchor="start" x="199.5" y="-18.5" font-family="Helvetica,sans-Serif" font-size="10.00">interficie.VistaConsultar</text>
<text text-anchor="middle" x="254.62" y="-6.5" font-family="Helvetica,sans-Serif" font-size="10.00">Ranking.carregarRanking</text>
</a>
</g>
</g>
<!-- Node2&#45;&gt;Node3 -->
<g id="edge2_Node000002_Node000003" class="edge">
<title>Node2&#45;&gt;Node3</title>
<g id="a_edge2_Node000002_Node000003"><a xlink:title=" ">
<path fill="none" stroke="#63b8ff" d="M342.08,-16C333.99,-16 325.92,-16 318.13,-16"/>
<polygon fill="#63b8ff" stroke="#63b8ff" points="341.98,-19.5 351.98,-16 341.98,-12.5 341.98,-19.5"/>
</a>
</g>
</g>
<!-- Node4 -->
<g id="Node000004" class="node">
<title>Node4</title>
<g id="a_Node000004"><a xlink:href="classinterficie_1_1_vista_consultar_ranking.html#a86d8edbe84e816fcf7c14b51a8d2e214" target="_top" xlink:title="Constructor de la classe.">
<polygon fill="white" stroke="#666666" points="155.5,-32 0,-32 0,0 155.5,0 155.5,-32"/>
<text text-anchor="start" x="8" y="-18.5" font-family="Helvetica,sans-Serif" font-size="10.00">interficie.VistaConsultar</text>
<text text-anchor="middle" x="77.75" y="-6.5" font-family="Helvetica,sans-Serif" font-size="10.00">Ranking.VistaConsultarRanking</text>
</a>
</g>
</g>
<!-- Node3&#45;&gt;Node4 -->
<g id="edge3_Node000003_Node000004" class="edge">
<title>Node3&#45;&gt;Node4</title>
<g id="a_edge3_Node000003_Node000004"><a xlink:title=" ">
<path fill="none" stroke="#63b8ff" d="M180,-9.33C172.06,-9.24 163.97,-9.23 156,-9.29"/>
<polygon fill="#63b8ff" stroke="#63b8ff" points="179.91,-12.82 189.96,-9.48 180.02,-5.83 179.91,-12.82"/>
</a>
</g>
</g>
<!-- Node4&#45;&gt;Node3 -->
<g id="edge4_Node000004_Node000003" class="edge">
<title>Node4&#45;&gt;Node3</title>
<g id="a_edge4_Node000004_Node000003"><a xlink:title=" ">
<path fill="none" stroke="#63b8ff" d="M167.45,-22.75C175.57,-22.74 183.67,-22.66 191.48,-22.49"/>
<polygon fill="#63b8ff" stroke="#63b8ff" points="167.53,-19.25 157.51,-22.71 167.5,-26.25 167.53,-19.25"/>
</a>
</g>
</g>
<!-- Node4&#45;&gt;Node4 -->
<g id="edge5_Node000004_Node000004" class="edge">
<title>Node4&#45;&gt;Node4</title>
<g id="a_edge5_Node000004_Node000004"><a xlink:title=" ">
<path fill="none" stroke="#63b8ff" d="M107.23,-43.71C102.31,-47.48 92.49,-50 77.75,-50 50.8,-50 40.28,-41.58 46.17,-32.44"/>
<polygon fill="#63b8ff" stroke="#63b8ff" points="110.66,-44.4 109.05,-33.93 103.77,-43.12 110.66,-44.4"/>
</a>
</g>
</g>
</g>
</svg>
