<?xml version="1.0" encoding="UTF-8" standalone="no"?>
<!DOCTYPE svg PUBLIC "-//W3C//DTD SVG 1.1//EN"
 "http://www.w3.org/Graphics/SVG/1.1/DTD/svg11.dtd">
<!-- Generated by graphviz version 12.2.1 (20241206.2353)
 -->
<!-- Title: interficie.ImageButton.setImage Pages: 1 -->
<svg width="499pt" height="40pt"
 viewBox="0.00 0.00 498.50 40.00" xmlns="http://www.w3.org/2000/svg" xmlns:xlink="http://www.w3.org/1999/xlink">
<g id="graph0" class="graph" transform="scale(1 1) rotate(0) translate(4 36)">
<title>interficie.ImageButton.setImage</title>
<!-- Node1 -->
<g id="Node000001" class="node">
<title>Node1</title>
<g id="a_Node000001"><a xlink:title="Canvia la imatge de fons del botó.">
<polygon fill="#999999" stroke="#666666" points="127.75,-32 0,-32 0,0 127.75,0 127.75,-32"/>
<text text-anchor="start" x="8" y="-18.5" font-family="Helvetica,sans-Serif" font-size="10.00">interficie.ImageButton.set</text>
<text text-anchor="middle" x="63.88" y="-6.5" font-family="Helvetica,sans-Serif" font-size="10.00">Image</text>
</a>
</g>
</g>
<!-- Node2 -->
<g id="Node000002" class="node">
<title>Node2</title>
<g id="a_Node000002"><a xlink:href="classinterficie_1_1_image_button.html#ae281e5784b12d014a266e3aae7e46ba2" target="_top" xlink:title="Carrega la imatge des de la ruta especificada.">
<polygon fill="white" stroke="#666666" points="313.25,-32 163.75,-32 163.75,0 313.25,0 313.25,-32"/>
<text text-anchor="start" x="171.75" y="-18.5" font-family="Helvetica,sans-Serif" font-size="10.00">interficie.ImageButton.carregar</text>
<text text-anchor="middle" x="238.5" y="-6.5" font-family="Helvetica,sans-Serif" font-size="10.00">Imatge</text>
</a>
</g>
</g>
<!-- Node1&#45;&gt;Node2 -->
<g id="edge1_Node000001_Node000002" class="edge">
<title>Node1&#45;&gt;Node2</title>
<g id="a_edge1_Node000001_Node000002"><a xlink:title=" ">
<path fill="none" stroke="#63b8ff" d="M128.17,-16C135.96,-16 144.01,-16 152.05,-16"/>
<polygon fill="#63b8ff" stroke="#63b8ff" points="151.87,-19.5 161.87,-16 151.87,-12.5 151.87,-19.5"/>
</a>
</g>
</g>
<!-- Node3 -->
<g id="Node000003" class="node">
<title>Node3</title>
<g id="a_Node000003"><a xlink:href="classinterficie_1_1_image_button.html#a5cffd7956e48f36f9071f9d5c4be47ca" target="_top" xlink:title="Constructor que crea un botó amb text i una imatge de fons.">
<polygon fill="white" stroke="#666666" points="490.5,-32 349.25,-32 349.25,0 490.5,0 490.5,-32"/>
<text text-anchor="start" x="357.25" y="-18.5" font-family="Helvetica,sans-Serif" font-size="10.00">interficie.ImageButton.Image</text>
<text text-anchor="middle" x="419.88" y="-6.5" font-family="Helvetica,sans-Serif" font-size="10.00">Button</text>
</a>
</g>
</g>
<!-- Node2&#45;&gt;Node3 -->
<g id="edge2_Node000002_Node000003" class="edge">
<title>Node2&#45;&gt;Node3</title>
<g id="a_edge2_Node000002_Node000003"><a xlink:title=" ">
<path fill="none" stroke="#63b8ff" d="M313.49,-9.34C321.43,-9.25 329.54,-9.23 337.55,-9.28"/>
<polygon fill="#63b8ff" stroke="#63b8ff" points="337.25,-12.77 347.29,-9.38 337.32,-5.77 337.25,-12.77"/>
</a>
</g>
</g>
<!-- Node3&#45;&gt;Node2 -->
<g id="edge3_Node000003_Node000002" class="edge">
<title>Node3&#45;&gt;Node2</title>
<g id="a_edge3_Node000003_Node000002"><a xlink:title=" ">
<path fill="none" stroke="#63b8ff" d="M348.8,-22.6C340.93,-22.72 332.84,-22.77 324.8,-22.74"/>
<polygon fill="#63b8ff" stroke="#63b8ff" points="325.03,-19.24 315.01,-22.67 324.98,-26.24 325.03,-19.24"/>
</a>
</g>
</g>
</g>
</svg>
