<?xml version="1.0" encoding="UTF-8" standalone="no"?>
<!DOCTYPE svg PUBLIC "-//W3C//DTD SVG 1.1//EN"
 "http://www.w3.org/Graphics/SVG/1.1/DTD/svg11.dtd">
<!-- Generated by graphviz version 12.2.1 (20241206.2353)
 -->
<!-- Title: domini.scrabble.Partida.getPuntuacioJugador2 Pages: 1 -->
<svg width="1413pt" height="343pt"
 viewBox="0.00 0.00 1413.25 343.37" xmlns="http://www.w3.org/2000/svg" xmlns:xlink="http://www.w3.org/1999/xlink">
<g id="graph0" class="graph" transform="scale(1 1) rotate(0) translate(4 339.37)">
<title>domini.scrabble.Partida.getPuntuacioJugador2</title>
<!-- Node1 -->
<g id="Node000001" class="node">
<title>Node1</title>
<g id="a_Node000001"><a xlink:title="Retorna la puntuació del jugador 2.">
<polygon fill="#999999" stroke="#666666" points="1405.25,-91 1270.75,-91 1270.75,-59 1405.25,-59 1405.25,-91"/>
<text text-anchor="start" x="1278.75" y="-77.5" font-family="Helvetica,sans-Serif" font-size="10.00">domini.scrabble.Partida.get</text>
<text text-anchor="middle" x="1338" y="-65.5" font-family="Helvetica,sans-Serif" font-size="10.00">PuntuacioJugador2</text>
</a>
</g>
</g>
<!-- Node2 -->
<g id="Node000002" class="node">
<title>Node2</title>
<g id="a_Node000002"><a xlink:href="classcontroladors_1_1_ctrl_presentacio.html#af82e544e6fad5efe4bce551be338f5f1" target="_top" xlink:title="Canvia la vista a la pantalla de rànquing final un cop acabada la partida.">
<polygon fill="white" stroke="#666666" points="1234.75,-167 1068.75,-167 1068.75,-135 1234.75,-135 1234.75,-167"/>
<text text-anchor="start" x="1076.75" y="-153.5" font-family="Helvetica,sans-Serif" font-size="10.00">controladors.CtrlPresentacio.canvi</text>
<text text-anchor="middle" x="1151.75" y="-141.5" font-family="Helvetica,sans-Serif" font-size="10.00">RankingPartida</text>
</a>
</g>
</g>
<!-- Node1&#45;&gt;Node2 -->
<g id="edge1_Node000001_Node000002" class="edge">
<title>Node1&#45;&gt;Node2</title>
<g id="a_edge1_Node000001_Node000002"><a xlink:title=" ">
<path fill="none" stroke="#63b8ff" d="M1286.49,-95.83C1256.94,-108.02 1220.16,-123.2 1192.65,-134.54"/>
<polygon fill="#63b8ff" stroke="#63b8ff" points="1287.71,-99.12 1295.62,-92.07 1285.04,-92.65 1287.71,-99.12"/>
</a>
</g>
</g>
<!-- Node8 -->
<g id="Node000008" class="node">
<title>Node8</title>
<g id="a_Node000008"><a xlink:href="classinterficie_1_1_vista_partida.html#a485041b781e81c64fb5414207ff21d2a" target="_top" xlink:title="Actualitza la informació de la partida.">
<polygon fill="white" stroke="#666666" points="150.25,-230 0,-230 0,-198 150.25,-198 150.25,-230"/>
<text text-anchor="start" x="8" y="-216.5" font-family="Helvetica,sans-Serif" font-size="10.00">interficie.VistaPartida.refrescar</text>
<text text-anchor="middle" x="75.12" y="-204.5" font-family="Helvetica,sans-Serif" font-size="10.00">Informacio</text>
</a>
</g>
</g>
<!-- Node1&#45;&gt;Node8 -->
<g id="edge22_Node000001_Node000008" class="edge">
<title>Node1&#45;&gt;Node8</title>
<g id="a_edge22_Node000001_Node000008"><a xlink:title=" ">
<path fill="none" stroke="#63b8ff" d="M1275.66,-55.21C1201.23,-32.99 1071.53,0 957.5,0 957.5,0 957.5,0 447.75,0 322.17,0 291.31,-38.21 186.25,-107 146.33,-133.14 108.39,-175.04 89.19,-197.88"/>
<polygon fill="#63b8ff" stroke="#63b8ff" points="1274.64,-58.56 1285.23,-58.1 1276.67,-51.86 1274.64,-58.56"/>
</a>
</g>
</g>
<!-- Node3 -->
<g id="Node000003" class="node">
<title>Node3</title>
<g id="a_Node000003"><a xlink:href="classinterficie_1_1_vista_partida.html#acc96652063e859fc2d8d0345dfd381d5" target="_top" xlink:title="Confirma l&#39;acció d&#39;abandonar la partida.">
<polygon fill="white" stroke="#666666" points="1032.75,-167 880.25,-167 880.25,-135 1032.75,-135 1032.75,-167"/>
<text text-anchor="start" x="888.25" y="-153.5" font-family="Helvetica,sans-Serif" font-size="10.00">interficie.VistaPartida.confirmar</text>
<text text-anchor="middle" x="956.5" y="-141.5" font-family="Helvetica,sans-Serif" font-size="10.00">Abandonar</text>
</a>
</g>
</g>
<!-- Node2&#45;&gt;Node3 -->
<g id="edge2_Node000002_Node000003" class="edge">
<title>Node2&#45;&gt;Node3</title>
<g id="a_edge2_Node000002_Node000003"><a xlink:title=" ">
<path fill="none" stroke="#63b8ff" d="M1057.2,-151C1049.16,-151 1041.09,-151 1033.22,-151"/>
<polygon fill="#63b8ff" stroke="#63b8ff" points="1057,-154.5 1067,-151 1057,-147.5 1057,-154.5"/>
</a>
</g>
</g>
<!-- Node4 -->
<g id="Node000004" class="node">
<title>Node4</title>
<g id="a_Node000004"><a xlink:href="classinterficie_1_1_vista_partida.html#a7855e7a9cc41e1450c37054781ba6309" target="_top" xlink:title="Inicialitza els components de la interfície gràfica.">
<polygon fill="white" stroke="#666666" points="844.25,-205 709,-205 709,-185 844.25,-185 844.25,-205"/>
<text text-anchor="middle" x="776.62" y="-191.5" font-family="Helvetica,sans-Serif" font-size="10.00">interficie.VistaPartida.initUI</text>
</a>
</g>
</g>
<!-- Node2&#45;&gt;Node4 -->
<g id="edge21_Node000002_Node000004" class="edge">
<title>Node2&#45;&gt;Node4</title>
<g id="a_edge21_Node000002_Node000004"><a xlink:title=" ">
<path fill="none" stroke="#63b8ff" d="M1069.39,-169.73C1057.16,-172.11 1044.65,-174.3 1032.75,-176 969.21,-185.05 896.12,-189.94 844.5,-192.48"/>
<polygon fill="#63b8ff" stroke="#63b8ff" points="1069.92,-173.19 1079.03,-167.79 1068.54,-166.33 1069.92,-173.19"/>
</a>
</g>
</g>
<!-- Node3&#45;&gt;Node4 -->
<g id="edge3_Node000003_Node000004" class="edge">
<title>Node3&#45;&gt;Node4</title>
<g id="a_edge3_Node000003_Node000004"><a xlink:title=" ">
<path fill="none" stroke="#63b8ff" d="M878.06,-170.16C858.14,-175.08 837.45,-180.2 820.06,-184.5"/>
<polygon fill="#63b8ff" stroke="#63b8ff" points="878.68,-173.61 887.54,-167.81 877,-166.81 878.68,-173.61"/>
</a>
</g>
</g>
<!-- Node5 -->
<g id="Node000005" class="node">
<title>Node5</title>
<g id="a_Node000005"><a xlink:href="classinterficie_1_1_vista_partida.html#abce8626a6a3750affe851e1f8bea2cb3" target="_top" xlink:title="Constructor de la classe VistaPartida.">
<polygon fill="white" stroke="#666666" points="673,-211 561,-211 561,-179 673,-179 673,-211"/>
<text text-anchor="start" x="569" y="-197.5" font-family="Helvetica,sans-Serif" font-size="10.00">interficie.VistaPartida.</text>
<text text-anchor="middle" x="617" y="-185.5" font-family="Helvetica,sans-Serif" font-size="10.00">VistaPartida</text>
</a>
</g>
</g>
<!-- Node4&#45;&gt;Node5 -->
<g id="edge4_Node000004_Node000005" class="edge">
<title>Node4&#45;&gt;Node5</title>
<g id="a_edge4_Node000004_Node000005"><a xlink:title=" ">
<path fill="none" stroke="#63b8ff" d="M697.53,-188.25C689.26,-188.24 680.97,-188.34 673.04,-188.53"/>
<polygon fill="#63b8ff" stroke="#63b8ff" points="697.24,-191.75 707.26,-188.31 697.29,-184.75 697.24,-191.75"/>
</a>
</g>
</g>
<!-- Node5&#45;&gt;Node4 -->
<g id="edge19_Node000005_Node000004" class="edge">
<title>Node5&#45;&gt;Node4</title>
<g id="a_edge19_Node000005_Node000004"><a xlink:title=" ">
<path fill="none" stroke="#63b8ff" d="M684.32,-201.67C692.41,-201.77 700.68,-201.78 708.78,-201.68"/>
<polygon fill="#63b8ff" stroke="#63b8ff" points="684.61,-198.18 674.55,-201.5 684.48,-205.18 684.61,-198.18"/>
</a>
</g>
</g>
<!-- Node5&#45;&gt;Node5 -->
<g id="edge20_Node000005_Node000005" class="edge">
<title>Node5&#45;&gt;Node5</title>
<g id="a_edge20_Node000005_Node000005"><a xlink:title=" ">
<path fill="none" stroke="#63b8ff" d="M643.6,-222.71C639.17,-226.48 630.3,-229 617,-229 592.68,-229 583.18,-220.58 588.5,-211.44"/>
<polygon fill="#63b8ff" stroke="#63b8ff" points="647.04,-223.38 645.25,-212.94 640.13,-222.22 647.04,-223.38"/>
</a>
</g>
</g>
<!-- Node6 -->
<g id="Node000006" class="node">
<title>Node6</title>
<g id="a_Node000006"><a xlink:href="classinterficie_1_1_vista_partida.html#a6bd7550fc714ba5195c8b55ffe3d973c" target="_top" xlink:title="Afegeix les fitxes d&#39;un jugador al seu rack.">
<polygon fill="white" stroke="#666666" points="516.75,-148 380.75,-148 380.75,-116 516.75,-116 516.75,-148"/>
<text text-anchor="start" x="388.75" y="-134.5" font-family="Helvetica,sans-Serif" font-size="10.00">interficie.VistaPartida.afegir</text>
<text text-anchor="middle" x="448.75" y="-122.5" font-family="Helvetica,sans-Serif" font-size="10.00">FitxesARack</text>
</a>
</g>
</g>
<!-- Node5&#45;&gt;Node6 -->
<g id="edge5_Node000005_Node000006" class="edge">
<title>Node5&#45;&gt;Node6</title>
<g id="a_edge5_Node000005_Node000006"><a xlink:title=" ">
<path fill="none" stroke="#63b8ff" d="M562.08,-174.57C539.73,-166.1 514.16,-156.41 493.07,-148.42"/>
<polygon fill="#63b8ff" stroke="#63b8ff" points="560.75,-177.8 571.34,-178.08 563.23,-171.26 560.75,-177.8"/>
</a>
</g>
</g>
<!-- Node9 -->
<g id="Node000009" class="node">
<title>Node9</title>
<g id="a_Node000009"><a xlink:href="classinterficie_1_1_vista_partida.html#ae6809bc2e7efc03077c111367571f788" target="_top" xlink:title="Afegeix maquetes al rack de l&#39;oponent.">
<polygon fill="white" stroke="#666666" points="516.75,-98 380.75,-98 380.75,-66 516.75,-66 516.75,-98"/>
<text text-anchor="start" x="388.75" y="-84.5" font-family="Helvetica,sans-Serif" font-size="10.00">interficie.VistaPartida.afegir</text>
<text text-anchor="middle" x="448.75" y="-72.5" font-family="Helvetica,sans-Serif" font-size="10.00">MaquetesARack</text>
</a>
</g>
</g>
<!-- Node5&#45;&gt;Node9 -->
<g id="edge13_Node000005_Node000009" class="edge">
<title>Node5&#45;&gt;Node9</title>
<g id="a_edge13_Node000005_Node000009"><a xlink:title=" ">
<path fill="none" stroke="#63b8ff" d="M595.8,-170.08C578.75,-150.5 552.75,-123.81 525,-107 519.7,-103.79 513.94,-100.94 508.04,-98.41"/>
<polygon fill="#63b8ff" stroke="#63b8ff" points="593.07,-172.27 602.22,-177.62 598.41,-167.74 593.07,-172.27"/>
</a>
</g>
</g>
<!-- Node10 -->
<g id="Node000010" class="node">
<title>Node10</title>
<g id="a_Node000010"><a xlink:href="classinterficie_1_1_vista_partida.html#a8ebc9da2a2b927ba87ed97ad85ae44e8" target="_top" xlink:title="Confirma l&#39;acció de guardar la partida.">
<polygon fill="white" stroke="#666666" points="525,-312 372.5,-312 372.5,-280 525,-280 525,-312"/>
<text text-anchor="start" x="380.5" y="-298.5" font-family="Helvetica,sans-Serif" font-size="10.00">interficie.VistaPartida.confirmar</text>
<text text-anchor="middle" x="448.75" y="-286.5" font-family="Helvetica,sans-Serif" font-size="10.00">Guardar</text>
</a>
</g>
</g>
<!-- Node5&#45;&gt;Node10 -->
<g id="edge15_Node000005_Node000010" class="edge">
<title>Node5&#45;&gt;Node10</title>
<g id="a_edge15_Node000005_Node000010"><a xlink:title=" ">
<path fill="none" stroke="#63b8ff" d="M589.78,-218.72C572.33,-233.66 548.38,-252.58 525,-266 516.22,-271.04 506.42,-275.62 496.88,-279.6"/>
<polygon fill="#63b8ff" stroke="#63b8ff" points="591.89,-221.52 597.13,-212.31 587.29,-216.24 591.89,-221.52"/>
</a>
</g>
</g>
<!-- Node11 -->
<g id="Node000011" class="node">
<title>Node11</title>
<g id="a_Node000011"><a xlink:href="classinterficie_1_1_vista_partida.html#ab47b596fbbd6a79289d4b9d7f5b5e068" target="_top" xlink:title="Crea un panell amb la informació d&#39;un jugador.">
<polygon fill="white" stroke="#666666" points="328.25,-274 194.5,-274 194.5,-242 328.25,-242 328.25,-274"/>
<text text-anchor="start" x="202.5" y="-260.5" font-family="Helvetica,sans-Serif" font-size="10.00">interficie.VistaPartida.crear</text>
<text text-anchor="middle" x="261.38" y="-248.5" font-family="Helvetica,sans-Serif" font-size="10.00">PanelJugador</text>
</a>
</g>
</g>
<!-- Node5&#45;&gt;Node11 -->
<g id="edge17_Node000005_Node000011" class="edge">
<title>Node5&#45;&gt;Node11</title>
<g id="a_edge17_Node000005_Node000011"><a xlink:title=" ">
<path fill="none" stroke="#63b8ff" d="M566.78,-215.23C553.41,-220.06 538.81,-224.75 525,-228 459.22,-243.46 382.22,-251.06 328.68,-254.73"/>
<polygon fill="#63b8ff" stroke="#63b8ff" points="567.63,-218.64 575.77,-211.87 565.18,-212.08 567.63,-218.64"/>
</a>
</g>
</g>
<!-- Node7 -->
<g id="Node000007" class="node">
<title>Node7</title>
<g id="a_Node000007"><a xlink:href="classinterficie_1_1_vista_partida.html#a0698d192124492ebfd8a3b029a6fa23c" target="_top" xlink:title="Actualitza els racks dels jugadors.">
<polygon fill="white" stroke="#666666" points="336.5,-148 186.25,-148 186.25,-116 336.5,-116 336.5,-148"/>
<text text-anchor="start" x="194.25" y="-134.5" font-family="Helvetica,sans-Serif" font-size="10.00">interficie.VistaPartida.refrescar</text>
<text text-anchor="middle" x="261.38" y="-122.5" font-family="Helvetica,sans-Serif" font-size="10.00">RackJugadors</text>
</a>
</g>
</g>
<!-- Node6&#45;&gt;Node7 -->
<g id="edge6_Node000006_Node000007" class="edge">
<title>Node6&#45;&gt;Node7</title>
<g id="a_edge6_Node000006_Node000007"><a xlink:title=" ">
<path fill="none" stroke="#63b8ff" d="M368.93,-132C358.34,-132 347.5,-132 336.98,-132"/>
<polygon fill="#63b8ff" stroke="#63b8ff" points="368.79,-135.5 378.79,-132 368.79,-128.5 368.79,-135.5"/>
</a>
</g>
</g>
<!-- Node7&#45;&gt;Node4 -->
<g id="edge7_Node000007_Node000004" class="edge">
<title>Node7&#45;&gt;Node4</title>
<g id="a_edge7_Node000007_Node000004"><a xlink:title=" ">
<path fill="none" stroke="#63b8ff" d="M287.88,-107.99C308.8,-90.05 340.15,-66.97 372.5,-57 437.27,-37.04 459.36,-40.12 525,-57 624.58,-82.6 726.99,-157.03 762.54,-184.58"/>
<polygon fill="#63b8ff" stroke="#63b8ff" points="285.62,-105.32 280.44,-114.56 290.25,-110.57 285.62,-105.32"/>
</a>
</g>
</g>
<!-- Node7&#45;&gt;Node5 -->
<g id="edge12_Node000007_Node000005" class="edge">
<title>Node7&#45;&gt;Node5</title>
<g id="a_edge12_Node000007_Node000005"><a xlink:title=" ">
<path fill="none" stroke="#63b8ff" d="M342.76,-150.92C352.75,-153.07 362.85,-155.15 372.5,-157 436.8,-169.3 511.22,-180.47 560.69,-187.47"/>
<polygon fill="#63b8ff" stroke="#63b8ff" points="343.54,-147.51 333.02,-148.79 342.04,-154.34 343.54,-147.51"/>
</a>
</g>
</g>
<!-- Node7&#45;&gt;Node8 -->
<g id="edge8_Node000007_Node000008" class="edge">
<title>Node7&#45;&gt;Node8</title>
<g id="a_edge8_Node000007_Node000008"><a xlink:title=" ">
<path fill="none" stroke="#63b8ff" d="M213.33,-152.94C182.12,-166.83 141.76,-184.79 112.9,-197.63"/>
<polygon fill="#63b8ff" stroke="#63b8ff" points="214.44,-156.28 222.15,-149.01 211.59,-149.88 214.44,-156.28"/>
</a>
</g>
</g>
<!-- Node8&#45;&gt;Node4 -->
<g id="edge9_Node000008_Node000004" class="edge">
<title>Node8&#45;&gt;Node4</title>
<g id="a_edge9_Node000008_Node000004"><a xlink:title=" ">
<path fill="none" stroke="#63b8ff" d="M106.38,-237.13C127.65,-252.32 157.37,-271.45 186.25,-283 326.91,-339.26 375.73,-346.92 525,-321 593.84,-309.05 611.06,-300.33 673,-268 708.08,-249.69 744.86,-220.78 763.39,-205.41"/>
<polygon fill="#63b8ff" stroke="#63b8ff" points="108.6,-234.42 98.45,-231.36 104.48,-240.08 108.6,-234.42"/>
</a>
</g>
</g>
<!-- Node8&#45;&gt;Node5 -->
<g id="edge11_Node000008_Node000005" class="edge">
<title>Node8&#45;&gt;Node5</title>
<g id="a_edge11_Node000008_Node000005"><a xlink:title=" ">
<path fill="none" stroke="#63b8ff" d="M161.73,-210.99C273.52,-207.05 466.08,-200.28 560.51,-196.95"/>
<polygon fill="#63b8ff" stroke="#63b8ff" points="161.88,-207.48 152.01,-211.33 162.13,-214.48 161.88,-207.48"/>
</a>
</g>
</g>
<!-- Node8&#45;&gt;Node8 -->
<g id="edge10_Node000008_Node000008" class="edge">
<title>Node8&#45;&gt;Node8</title>
<g id="a_edge10_Node000008_Node000008"><a xlink:title=" ">
<path fill="none" stroke="#63b8ff" d="M106.16,-241.71C100.99,-245.48 90.64,-248 75.12,-248 46.75,-248 35.67,-239.58 41.87,-230.44"/>
<polygon fill="#63b8ff" stroke="#63b8ff" points="109.59,-242.42 108.08,-231.93 102.72,-241.07 109.59,-242.42"/>
</a>
</g>
</g>
<!-- Node9&#45;&gt;Node7 -->
<g id="edge14_Node000009_Node000007" class="edge">
<title>Node9&#45;&gt;Node7</title>
<g id="a_edge14_Node000009_Node000007"><a xlink:title=" ">
<path fill="none" stroke="#63b8ff" d="M376.11,-101.32C358.7,-106.02 340.24,-111 323.37,-115.55"/>
<polygon fill="#63b8ff" stroke="#63b8ff" points="376.59,-104.82 385.33,-98.84 374.77,-98.06 376.59,-104.82"/>
</a>
</g>
</g>
<!-- Node10&#45;&gt;Node4 -->
<g id="edge16_Node000010_Node000004" class="edge">
<title>Node10&#45;&gt;Node4</title>
<g id="a_edge16_Node000010_Node000004"><a xlink:title=" ">
<path fill="none" stroke="#63b8ff" d="M534.95,-276.89C576.94,-266.71 628.07,-253.16 673,-238 701.37,-228.43 733.01,-214.68 753.56,-205.33"/>
<polygon fill="#63b8ff" stroke="#63b8ff" points="534.31,-273.44 525.4,-279.18 535.94,-280.25 534.31,-273.44"/>
</a>
</g>
</g>
<!-- Node11&#45;&gt;Node8 -->
<g id="edge18_Node000011_Node000008" class="edge">
<title>Node11&#45;&gt;Node8</title>
<g id="a_edge18_Node000011_Node000008"><a xlink:title=" ">
<path fill="none" stroke="#63b8ff" d="M183.17,-239.56C170.57,-236.56 157.6,-233.46 145.21,-230.5"/>
<polygon fill="#63b8ff" stroke="#63b8ff" points="182.11,-242.91 192.64,-241.83 183.73,-236.1 182.11,-242.91"/>
</a>
</g>
</g>
</g>
</svg>
