<?xml version="1.0" encoding="UTF-8" standalone="no"?>
<!DOCTYPE svg PUBLIC "-//W3C//DTD SVG 1.1//EN"
 "http://www.w3.org/Graphics/SVG/1.1/DTD/svg11.dtd">
<!-- Generated by graphviz version 12.2.1 (20241206.2353)
 -->
<!-- Title: interficie.VistaIniciarSessio.escalarComponentes Pages: 1 -->
<svg width="351pt" height="58pt"
 viewBox="0.00 0.00 350.50 58.00" xmlns="http://www.w3.org/2000/svg" xmlns:xlink="http://www.w3.org/1999/xlink">
<g id="graph0" class="graph" transform="scale(1 1) rotate(0) translate(4 54)">
<title>interficie.VistaIniciarSessio.escalarComponentes</title>
<!-- Node1 -->
<g id="Node000001" class="node">
<title>Node1</title>
<g id="a_Node000001"><a xlink:title="Escala i recol·loca els components en funció de la mida actual de la finestra.">
<polygon fill="#999999" stroke="#666666" points="342.5,-32 173.5,-32 173.5,0 342.5,0 342.5,-32"/>
<text text-anchor="start" x="181.5" y="-18.5" font-family="Helvetica,sans-Serif" font-size="10.00">interficie.VistaIniciarSessio.escalar</text>
<text text-anchor="middle" x="258" y="-6.5" font-family="Helvetica,sans-Serif" font-size="10.00">Componentes</text>
</a>
</g>
</g>
<!-- Node2 -->
<g id="Node000002" class="node">
<title>Node2</title>
<g id="a_Node000002"><a xlink:href="$classinterficie_1_1_vista_iniciar_sessio.html#afc5613ff799374e1f28b0e885c6cc264" xlink:title="Constructor que crea la vista d&#39;iniciar sessió.">
<polygon fill="white" stroke="#666666" points="137.5,-32 0,-32 0,0 137.5,0 137.5,-32"/>
<text text-anchor="start" x="8" y="-18.5" font-family="Helvetica,sans-Serif" font-size="10.00">interficie.VistaIniciarSessio.</text>
<text text-anchor="middle" x="68.75" y="-6.5" font-family="Helvetica,sans-Serif" font-size="10.00">VistaIniciarSessio</text>
</a>
</g>
</g>
<!-- Node1&#45;&gt;Node2 -->
<g id="edge1_Node000001_Node000002" class="edge">
<title>Node1&#45;&gt;Node2</title>
<g id="a_edge1_Node000001_Node000002"><a xlink:title=" ">
<path fill="none" stroke="#63b8ff" d="M161.78,-16C153.66,-16 145.57,-16 137.73,-16"/>
<polygon fill="#63b8ff" stroke="#63b8ff" points="161.72,-19.5 171.72,-16 161.72,-12.5 161.72,-19.5"/>
</a>
</g>
</g>
<!-- Node2&#45;&gt;Node2 -->
<g id="edge2_Node000002_Node000002" class="edge">
<title>Node2&#45;&gt;Node2</title>
<g id="a_edge2_Node000002_Node000002"><a xlink:title=" ">
<path fill="none" stroke="#63b8ff" d="M100.29,-43.71C95.03,-47.48 84.52,-50 68.75,-50 39.92,-50 28.66,-41.58 34.96,-32.44"/>
<polygon fill="#63b8ff" stroke="#63b8ff" points="103.71,-44.42 102.24,-33.93 96.85,-43.05 103.71,-44.42"/>
</a>
</g>
</g>
</g>
</svg>
