<?xml version="1.0" encoding="UTF-8" standalone="no"?>
<!DOCTYPE svg PUBLIC "-//W3C//DTD SVG 1.1//EN"
 "http://www.w3.org/Graphics/SVG/1.1/DTD/svg11.dtd">
<!-- Generated by graphviz version 12.2.1 (20241206.2353)
 -->
<!-- Title: domini.jugadors.Maquina.extendRight Pages: 1 -->
<!--zoomable 918 -->

<svg id="main" version="1.1" xmlns="http://www.w3.org/2000/svg" xmlns:xlink="http://www.w3.org/1999/xlink" xml:space="preserve" onload="init(evt)">

<style type="text/css"><![CDATA[
.node, .edge {opacity: 0.7;}
.node.selected, .edge.selected {opacity: 1;}
.edge:hover path { stroke: red; }
.edge:hover polygon { stroke: red; fill: red; }
]]></style>

<defs>
  <circle id="rim" cx="0" cy="0" r="7"/>
  <circle id="rim2" cx="0" cy="0" r="3.5"/>
  <g id="zoomPlus">
    <use xlink:href="#rim" fill="#404040"><set attributeName="fill" to="#808080" begin="zoomplus.mouseover" end="zoomplus.mouseout"/></use>
    <path d="M-4,0h8M0,-4v8" fill="none" stroke="white" stroke-width="1.5" pointer-events="none"/>
  </g>
  <g id="zoomMin">
    <use xlink:href="#rim" fill="#404040"><set attributeName="fill" to="#808080" begin="zoomminus.mouseover" end="zoomminus.mouseout"/></use>
    <path d="M-4,0h8" fill="none" stroke="white" stroke-width="1.5" pointer-events="none"/>
  </g>
  <g id="arrowUp" transform="translate(30 24)">
    <use xlink:href="#rim"/>
    <path pointer-events="none" fill="none" stroke="white" stroke-width="1.5" d="M0,-3.0v7 M-2.5,-0.5L0,-3.0L2.5,-0.5"/>
  </g>
  <g id="arrowRight" transform="rotate(90) translate(36 -43)">
    <use xlink:href="#rim"/>
    <path pointer-events="none" fill="none" stroke="white" stroke-width="1.5" d="M0,-3.0v7 M-2.5,-0.5L0,-3.0L2.5,-0.5"/>
  </g>
  <g id="arrowDown" transform="rotate(180) translate(-30 -48)">
    <use xlink:href="#rim"/>
    <path pointer-events="none" fill="none" stroke="white" stroke-width="1.5" d="M0,-3.0v7 M-2.5,-0.5L0,-3.0L2.5,-0.5"/>
  </g>
  <g id="arrowLeft" transform="rotate(270) translate(-36 17)">
    <use xlink:href="#rim"/>
    <path pointer-events="none" fill="none" stroke="white" stroke-width="1.5" d="M0,-3.0v7 M-2.5,-0.5L0,-3.0L2.5,-0.5"/>
  </g>
  <g id="resetDef">
    <use xlink:href="#rim2" fill="#404040"><set attributeName="fill" to="#808080" begin="reset.mouseover" end="reset.mouseout"/></use>
  </g>
</defs>
<script type="application/ecmascript">
var viewWidth = 935;
var viewHeight = 918;
var sectionId = 'dynsection-4';
</script>
<script type="application/ecmascript" xlink:href="svg.min.js"/>
<svg id="graph" class="graph">
<g id="viewport">
<title>domini.jugadors.Maquina.extendRight</title>
<!-- Node1 -->
<g id="Node000001" class="node">
<title>Node1</title>
<g id="a_Node000001"><a xlink:title="Genera totes les paraules possibles a la dreta d&#39;una subparaula prefix.">
<polygon fill="#999999" stroke="#666666" points="156.25,-578 0,-578 0,-546 156.25,-546 156.25,-578"/>
<text text-anchor="start" x="8" y="-564.5" font-family="Helvetica,sans-Serif" font-size="10.00">domini.jugadors.Maquina.extend</text>
<text text-anchor="middle" x="78.12" y="-552.5" font-family="Helvetica,sans-Serif" font-size="10.00">Right</text>
</a>
</g>
</g>
<!-- Node1&#45;&gt;Node1 -->
<g id="edge2_Node000001_Node000001" class="edge">
<title>Node1&#45;&gt;Node1</title>
<g id="a_edge2_Node000001_Node000001"><a xlink:title=" ">
<path fill="none" stroke="#63b8ff" d="M43.8,-578.44C37.4,-587.58 48.84,-596 78.12,-596 94.14,-596 104.82,-593.48 110.16,-589.71"/>
<polygon fill="#63b8ff" stroke="#63b8ff" points="113.59,-590.42 112.15,-579.93 106.73,-589.03 113.59,-590.42"/>
</a>
</g>
</g>
<!-- Node2 -->
<g id="Node000002" class="node">
<title>Node2</title>
<g id="a_Node000002"><a xlink:href="classdomini_1_1scrabble_1_1_casella.html#a45ad0a3aaeacf1bc4896a7a99c068dd3" target="_top" xlink:title="Comprova si la casella està ocupada per una fitxa.">
<polygon fill="white" stroke="#666666" points="529.5,-871 406.25,-871 406.25,-839 529.5,-839 529.5,-871"/>
<text text-anchor="start" x="414.25" y="-857.5" font-family="Helvetica,sans-Serif" font-size="10.00">domini.scrabble.Casella.</text>
<text text-anchor="middle" x="467.88" y="-845.5" font-family="Helvetica,sans-Serif" font-size="10.00">EstaOcupat</text>
</a>
</g>
</g>
<!-- Node1&#45;&gt;Node2 -->
<g id="edge1_Node000001_Node000002" class="edge">
<title>Node1&#45;&gt;Node2</title>
<g id="a_edge1_Node000001_Node000002"><a xlink:title=" ">
<path fill="none" stroke="#63b8ff" d="M86.99,-578.06C102.98,-609.35 142.08,-679.12 192.25,-722 255.28,-775.87 343.89,-813.58 403.24,-834.76"/>
<polygon fill="#63b8ff" stroke="#63b8ff" points="401.94,-838.01 412.54,-838.02 404.26,-831.41 401.94,-838.01"/>
</a>
</g>
</g>
<!-- Node3 -->
<g id="Node000003" class="node">
<title>Node3</title>
<g id="a_Node000003"><a xlink:href="classdomini_1_1scrabble_1_1_taulell.html#a5be7b0143cecbce3e2f4dc4f53814879" target="_top" xlink:title="Donades unes coordenades, retorna la Casella que es troba en aquelles coordenades.">
<polygon fill="white" stroke="#666666" points="734.12,-833 602.62,-833 602.62,-801 734.12,-801 734.12,-833"/>
<text text-anchor="start" x="610.62" y="-819.5" font-family="Helvetica,sans-Serif" font-size="10.00">domini.scrabble.Taulell.get</text>
<text text-anchor="middle" x="668.38" y="-807.5" font-family="Helvetica,sans-Serif" font-size="10.00">Casella</text>
</a>
</g>
</g>
<!-- Node1&#45;&gt;Node3 -->
<g id="edge3_Node000001_Node000003" class="edge">
<title>Node1&#45;&gt;Node3</title>
<g id="a_edge3_Node000001_Node000003"><a xlink:title=" ">
<path fill="none" stroke="#63b8ff" d="M83.72,-578.47C95.55,-618.18 130.49,-720.46 192.25,-782 260.18,-849.7 291.25,-857.6 384.5,-880 456.56,-897.31 479.42,-898.23 551.25,-880 582.04,-872.19 613.51,-854.39 635.9,-839.69"/>
<polygon fill="#63b8ff" stroke="#63b8ff" points="637.63,-842.75 643.96,-834.26 633.71,-836.95 637.63,-842.75"/>
</a>
</g>
</g>
<!-- Node4 -->
<g id="Node000004" class="node">
<title>Node4</title>
<g id="a_Node000004"><a xlink:href="classdomini_1_1scrabble_1_1_taulell.html#afc2d8dcd225b683aa00af9ce2075ad79" target="_top" xlink:title=" ">
<polygon fill="white" stroke="#666666" points="926.75,-805 785.5,-805 785.5,-785 926.75,-785 926.75,-805"/>
<text text-anchor="middle" x="856.12" y="-791.5" font-family="Helvetica,sans-Serif" font-size="10.00">domini.scrabble.Taulell.limits</text>
</a>
</g>
</g>
<!-- Node1&#45;&gt;Node4 -->
<g id="edge11_Node000001_Node000004" class="edge">
<title>Node1&#45;&gt;Node4</title>
<g id="a_edge11_Node000001_Node000004"><a xlink:title=" ">
<path fill="none" stroke="#63b8ff" d="M80.9,-578.25C86.99,-625.87 111.3,-766.48 192.25,-841 258.1,-901.62 296.01,-887.51 384.5,-901 546.95,-925.76 595.36,-898.96 749.5,-842 774.99,-832.58 803.06,-819.98 823.86,-810.19"/>
<polygon fill="#63b8ff" stroke="#63b8ff" points="825.12,-813.47 832.65,-806.02 822.12,-807.15 825.12,-813.47"/>
</a>
</g>
</g>
<!-- Node5 -->
<g id="Node000005" class="node">
<title>Node5</title>
<g id="a_Node000005"><a xlink:href="classdomini_1_1diccionari_1_1_d_a_w_g.html#a5dca3044f48dcdb2aa2edc08f8554f19" target="_top" xlink:title="Donat un Node del DAWG, retorna el conjunt de lletres amb arista sortint.">
<polygon fill="white" stroke="#666666" points="339.88,-132 200.88,-132 200.88,-100 339.88,-100 339.88,-132"/>
<text text-anchor="start" x="208.88" y="-118.5" font-family="Helvetica,sans-Serif" font-size="10.00">domini.diccionari.DAWG.get</text>
<text text-anchor="middle" x="270.38" y="-106.5" font-family="Helvetica,sans-Serif" font-size="10.00">EdgesFromNode</text>
</a>
</g>
</g>
<!-- Node1&#45;&gt;Node5 -->
<g id="edge5_Node000001_Node000005" class="edge">
<title>Node1&#45;&gt;Node5</title>
<g id="a_edge5_Node000001_Node000005"><a xlink:title=" ">
<path fill="none" stroke="#63b8ff" d="M78.65,-545.66C77.79,-484.67 82.87,-267.57 192.25,-146 194.62,-143.36 197.26,-140.95 200.08,-138.75"/>
<polygon fill="#63b8ff" stroke="#63b8ff" points="201.97,-141.7 208.38,-133.26 198.11,-135.86 201.97,-141.7"/>
</a>
</g>
</g>
<!-- Node6 -->
<g id="Node000006" class="node">
<title>Node6</title>
<g id="a_Node000006"><a xlink:href="classdomini_1_1auxiliars_1_1_pair.html#af9fc7c6b0fb531c4b59cdb1048897164" target="_top" xlink:title="Obté el primer element de la parella.">
<polygon fill="white" stroke="#666666" points="728.5,-314 608.25,-314 608.25,-282 728.5,-282 728.5,-314"/>
<text text-anchor="start" x="616.25" y="-300.5" font-family="Helvetica,sans-Serif" font-size="10.00">domini.auxiliars.Pair.get</text>
<text text-anchor="middle" x="668.38" y="-288.5" font-family="Helvetica,sans-Serif" font-size="10.00">First</text>
</a>
</g>
</g>
<!-- Node1&#45;&gt;Node6 -->
<g id="edge6_Node000001_Node000006" class="edge">
<title>Node1&#45;&gt;Node6</title>
<g id="a_edge6_Node000001_Node000006"><a xlink:title=" ">
<path fill="none" stroke="#63b8ff" d="M83.45,-545.66C95.56,-501.78 132.88,-378.85 192.25,-292 246.75,-212.27 286.32,-214.89 348.5,-141 366.84,-119.21 359.34,-101.33 384.5,-88 449.99,-53.31 487.41,-50.35 551.25,-88 619.09,-128.01 650.06,-223.44 661.62,-270.63"/>
<polygon fill="#63b8ff" stroke="#63b8ff" points="658.2,-271.36 663.87,-280.31 665.02,-269.78 658.2,-271.36"/>
</a>
</g>
</g>
<!-- Node7 -->
<g id="Node000007" class="node">
<title>Node7</title>
<g id="a_Node000007"><a xlink:href="classdomini_1_1scrabble_1_1_casella.html#ad6fa4e60f906cde260a175354e4fda22" target="_top" xlink:title="Retorna la fitxa de la casella.">
<polygon fill="white" stroke="#666666" points="536.25,-669 399.5,-669 399.5,-637 536.25,-637 536.25,-669"/>
<text text-anchor="start" x="407.5" y="-655.5" font-family="Helvetica,sans-Serif" font-size="10.00">domini.scrabble.Casella.get</text>
<text text-anchor="middle" x="467.88" y="-643.5" font-family="Helvetica,sans-Serif" font-size="10.00">Fitxa</text>
</a>
</g>
</g>
<!-- Node1&#45;&gt;Node7 -->
<g id="edge7_Node000001_Node000007" class="edge">
<title>Node1&#45;&gt;Node7</title>
<g id="a_edge7_Node000001_Node000007"><a xlink:title=" ">
<path fill="none" stroke="#63b8ff" d="M130.39,-578.44C149.68,-584.35 171.87,-590.83 192.25,-596 257.71,-612.6 332.85,-627.94 387.97,-638.52"/>
<polygon fill="#63b8ff" stroke="#63b8ff" points="387.1,-641.92 397.58,-640.35 388.41,-635.04 387.1,-641.92"/>
</a>
</g>
</g>
<!-- Node8 -->
<g id="Node000008" class="node">
<title>Node8</title>
<g id="a_Node000008"><a xlink:href="classdomini_1_1scrabble_1_1_fitxa.html#a3ee9b39d600851a00c4ce541339ba90e" target="_top" xlink:title="Retorna la lletra associada a la fitxa.">
<polygon fill="white" stroke="#666666" points="530.62,-619 405.12,-619 405.12,-587 530.62,-587 530.62,-619"/>
<text text-anchor="start" x="413.12" y="-605.5" font-family="Helvetica,sans-Serif" font-size="10.00">domini.scrabble.Fitxa.get</text>
<text text-anchor="middle" x="467.88" y="-593.5" font-family="Helvetica,sans-Serif" font-size="10.00">Lletra</text>
</a>
</g>
</g>
<!-- Node1&#45;&gt;Node8 -->
<g id="edge8_Node000001_Node000008" class="edge">
<title>Node1&#45;&gt;Node8</title>
<g id="a_edge8_Node000001_Node000008"><a xlink:title=" ">
<path fill="none" stroke="#63b8ff" d="M156.66,-570.2C225.6,-577.49 325.69,-588.07 393.38,-595.23"/>
<polygon fill="#63b8ff" stroke="#63b8ff" points="392.98,-598.71 403.29,-596.28 393.71,-591.74 392.98,-598.71"/>
</a>
</g>
</g>
<!-- Node9 -->
<g id="Node000009" class="node">
<title>Node9</title>
<g id="a_Node000009"><a xlink:href="classdomini_1_1diccionari_1_1_d_a_w_g.html#ac58883549907777cdc59927351d3cbaa" target="_top" xlink:title="Donats un node i una lletra, retorna el node destí de la transició o &#45;1 en cas que no existeixi.">
<polygon fill="white" stroke="#666666" points="339.88,-82 200.88,-82 200.88,-50 339.88,-50 339.88,-82"/>
<text text-anchor="start" x="208.88" y="-68.5" font-family="Helvetica,sans-Serif" font-size="10.00">domini.diccionari.DAWG.get</text>
<text text-anchor="middle" x="270.38" y="-56.5" font-family="Helvetica,sans-Serif" font-size="10.00">NodeFromTransition</text>
</a>
</g>
</g>
<!-- Node1&#45;&gt;Node9 -->
<g id="edge9_Node000001_Node000009" class="edge">
<title>Node1&#45;&gt;Node9</title>
<g id="a_edge9_Node000001_Node000009"><a xlink:title=" ">
<path fill="none" stroke="#63b8ff" d="M80.93,-545.51C89.48,-470.27 128.15,-160.29 192.25,-91 192.73,-90.48 193.22,-89.98 193.72,-89.48"/>
<polygon fill="#63b8ff" stroke="#63b8ff" points="195.82,-92.28 201.41,-83.28 191.43,-86.83 195.82,-92.28"/>
</a>
</g>
</g>
<!-- Node10 -->
<g id="Node000010" class="node">
<title>Node10</title>
<g id="a_Node000010"><a xlink:href="classdomini_1_1auxiliars_1_1_pair.html#af70cd15a3a6fe17c25fbae3a08955565" target="_top" xlink:title="Obté el segon element de la parella.">
<polygon fill="white" stroke="#666666" points="728.5,-518 608.25,-518 608.25,-486 728.5,-486 728.5,-518"/>
<text text-anchor="start" x="616.25" y="-504.5" font-family="Helvetica,sans-Serif" font-size="10.00">domini.auxiliars.Pair.get</text>
<text text-anchor="middle" x="668.38" y="-492.5" font-family="Helvetica,sans-Serif" font-size="10.00">Second</text>
</a>
</g>
</g>
<!-- Node1&#45;&gt;Node10 -->
<g id="edge10_Node000001_Node000010" class="edge">
<title>Node1&#45;&gt;Node10</title>
<g id="a_edge10_Node000001_Node000010"><a xlink:title=" ">
<path fill="none" stroke="#63b8ff" d="M156.63,-554.09C271.59,-542.37 485.6,-520.54 596.56,-509.22"/>
<polygon fill="#63b8ff" stroke="#63b8ff" points="596.85,-512.71 606.44,-508.22 596.14,-505.75 596.85,-512.71"/>
</a>
</g>
</g>
<!-- Node11 -->
<g id="Node000011" class="node">
<title>Node11</title>
<g id="a_Node000011"><a xlink:href="classdomini_1_1jugadors_1_1_maquina.html#a7d1379b7a857632d4bdcad6af82ef281" target="_top" xlink:title="Busca la posició d&#39;una lletra en el rack de la màquina.">
<polygon fill="white" stroke="#666666" points="343.25,-32 197.5,-32 197.5,0 343.25,0 343.25,-32"/>
<text text-anchor="start" x="205.5" y="-18.5" font-family="Helvetica,sans-Serif" font-size="10.00">domini.jugadors.Maquina.rack</text>
<text text-anchor="middle" x="270.38" y="-6.5" font-family="Helvetica,sans-Serif" font-size="10.00">ContainsLetter</text>
</a>
</g>
</g>
<!-- Node1&#45;&gt;Node11 -->
<g id="edge12_Node000001_Node000011" class="edge">
<title>Node1&#45;&gt;Node11</title>
<g id="a_edge12_Node000001_Node000011"><a xlink:title=" ">
<path fill="none" stroke="#63b8ff" d="M80.51,-545.67C87.56,-465.99 121.99,-118.63 192.25,-41 192.62,-40.6 192.99,-40.2 193.37,-39.81"/>
<polygon fill="#63b8ff" stroke="#63b8ff" points="195.54,-42.55 200.99,-33.46 191.07,-37.17 195.54,-42.55"/>
</a>
</g>
</g>
<!-- Node12 -->
<g id="Node000012" class="node">
<title>Node12</title>
<g id="a_Node000012"><a xlink:href="classdomini_1_1jugadors_1_1_maquina.html#a57c533590571f4918ebd03a0b0d4819b" target="_top" xlink:title="Comprova si una lletra és vàlida per a una casella que formi paraula transversal vertical.">
<polygon fill="white" stroke="#666666" points="344,-713 196.75,-713 196.75,-681 344,-681 344,-713"/>
<text text-anchor="start" x="204.75" y="-699.5" font-family="Helvetica,sans-Serif" font-size="10.00">domini.jugadors.Maquina.valid</text>
<text text-anchor="middle" x="270.38" y="-687.5" font-family="Helvetica,sans-Serif" font-size="10.00">_traversals</text>
</a>
</g>
</g>
<!-- Node1&#45;&gt;Node12 -->
<g id="edge13_Node000001_Node000012" class="edge">
<title>Node1&#45;&gt;Node12</title>
<g id="a_edge13_Node000001_Node000012"><a xlink:title=" ">
<path fill="none" stroke="#63b8ff" d="M94.8,-578.33C115.62,-599.37 154.21,-636.2 192.25,-661 200.35,-666.28 209.34,-671.21 218.24,-675.63"/>
<polygon fill="#63b8ff" stroke="#63b8ff" points="216.7,-678.77 227.23,-679.91 219.71,-672.45 216.7,-678.77"/>
</a>
</g>
</g>
<!-- Node15 -->
<g id="Node000015" class="node">
<title>Node15</title>
<g id="a_Node000015"><a xlink:href="classdomini_1_1jugadors_1_1_maquina.html#a247420aa69d81da6d3d1951d3b409a43" target="_top" xlink:title="Valora una paraula i actualitza la millor paraula trobada si és millor.">
<polygon fill="white" stroke="#666666" points="348.5,-333 192.25,-333 192.25,-301 348.5,-301 348.5,-333"/>
<text text-anchor="start" x="200.25" y="-319.5" font-family="Helvetica,sans-Serif" font-size="10.00">domini.jugadors.Maquina.valorar</text>
<text text-anchor="middle" x="270.38" y="-307.5" font-family="Helvetica,sans-Serif" font-size="10.00">Paraula</text>
</a>
</g>
</g>
<!-- Node1&#45;&gt;Node15 -->
<g id="edge23_Node000001_Node000015" class="edge">
<title>Node1&#45;&gt;Node15</title>
<g id="a_edge23_Node000001_Node000015"><a xlink:title=" ">
<path fill="none" stroke="#63b8ff" d="M91.9,-545.54C124.46,-503.61 210.72,-392.54 249.73,-342.3"/>
<polygon fill="#63b8ff" stroke="#63b8ff" points="252.36,-344.62 255.72,-334.58 246.83,-340.33 252.36,-344.62"/>
</a>
</g>
</g>
<!-- Node3&#45;&gt;Node4 -->
<g id="edge4_Node000003_Node000004" class="edge">
<title>Node3&#45;&gt;Node4</title>
<g id="a_edge4_Node000003_Node000004"><a xlink:title=" ">
<path fill="none" stroke="#63b8ff" d="M734.6,-809.27C747.22,-807.78 760.58,-806.2 773.63,-804.65"/>
<polygon fill="#63b8ff" stroke="#63b8ff" points="773.98,-808.14 783.5,-803.48 773.16,-801.18 773.98,-808.14"/>
</a>
</g>
</g>
<!-- Node12&#45;&gt;Node2 -->
<g id="edge16_Node000012_Node000002" class="edge">
<title>Node12&#45;&gt;Node2</title>
<g id="a_edge16_Node000012_Node000002"><a xlink:title=" ">
<path fill="none" stroke="#63b8ff" d="M285.9,-713.33C301.42,-730.8 326.73,-759.33 348.5,-784 364.54,-802.18 364.48,-811.31 384.5,-825 389.25,-828.25 394.39,-831.19 399.7,-833.84"/>
<polygon fill="#63b8ff" stroke="#63b8ff" points="398.15,-836.98 408.7,-837.97 401.07,-830.62 398.15,-836.98"/>
</a>
</g>
</g>
<!-- Node12&#45;&gt;Node3 -->
<g id="edge17_Node000012_Node000003" class="edge">
<title>Node12&#45;&gt;Node3</title>
<g id="a_edge17_Node000012_Node000003"><a xlink:title=" ">
<path fill="none" stroke="#63b8ff" d="M285.98,-713.33C305.92,-734.41 343.86,-770.35 384.5,-787 450.58,-814.08 532.27,-820.13 590.85,-820.28"/>
<polygon fill="#63b8ff" stroke="#63b8ff" points="590.74,-823.78 600.73,-820.24 590.72,-816.78 590.74,-823.78"/>
</a>
</g>
</g>
<!-- Node12&#45;&gt;Node4 -->
<g id="edge22_Node000012_Node000004" class="edge">
<title>Node12&#45;&gt;Node4</title>
<g id="a_edge22_Node000012_Node000004"><a xlink:title=" ">
<path fill="none" stroke="#63b8ff" d="M337.08,-713.41C340.99,-714.84 344.82,-716.37 348.5,-718 365.86,-725.69 366.61,-734.64 384.5,-741 454.34,-765.81 659.14,-782.46 774.23,-790.13"/>
<polygon fill="#63b8ff" stroke="#63b8ff" points="773.71,-793.6 783.91,-790.77 774.17,-786.62 773.71,-793.6"/>
</a>
</g>
</g>
<!-- Node12&#45;&gt;Node6 -->
<g id="edge18_Node000012_Node000006" class="edge">
<title>Node12&#45;&gt;Node6</title>
<g id="a_edge18_Node000012_Node000006"><a xlink:title=" ">
<path fill="none" stroke="#63b8ff" d="M344.2,-702.04C417.04,-705.39 522.29,-705.06 551.25,-678 594.51,-637.57 565.84,-469.2 587.25,-414 600.71,-379.3 626.45,-344.9 645.13,-322.68"/>
<polygon fill="#63b8ff" stroke="#63b8ff" points="647.55,-325.24 651.41,-315.37 642.24,-320.67 647.55,-325.24"/>
</a>
</g>
</g>
<!-- Node12&#45;&gt;Node7 -->
<g id="edge19_Node000012_Node000007" class="edge">
<title>Node12&#45;&gt;Node7</title>
<g id="a_edge19_Node000012_Node000007"><a xlink:title=" ">
<path fill="none" stroke="#63b8ff" d="M344.45,-680.55C358.71,-677.34 373.72,-673.97 388.15,-670.72"/>
<polygon fill="#63b8ff" stroke="#63b8ff" points="388.59,-674.21 397.58,-668.6 387.06,-667.38 388.59,-674.21"/>
</a>
</g>
</g>
<!-- Node12&#45;&gt;Node8 -->
<g id="edge20_Node000012_Node000008" class="edge">
<title>Node12&#45;&gt;Node8</title>
<g id="a_edge20_Node000012_Node000008"><a xlink:title=" ">
<path fill="none" stroke="#63b8ff" d="M294.26,-680.65C316.46,-665.37 351.54,-642.77 384.5,-628 388.09,-626.39 391.81,-624.85 395.59,-623.38"/>
<polygon fill="#63b8ff" stroke="#63b8ff" points="396.78,-626.67 404.97,-619.94 394.37,-620.1 396.78,-626.67"/>
</a>
</g>
</g>
<!-- Node12&#45;&gt;Node10 -->
<g id="edge21_Node000012_Node000010" class="edge">
<title>Node12&#45;&gt;Node10</title>
<g id="a_edge21_Node000012_Node000010"><a xlink:title=" ">
<path fill="none" stroke="#63b8ff" d="M309.8,-713.45C368.81,-735.84 482.12,-767.1 551.25,-711 611.56,-662.06 539.16,-600.99 587.25,-540 592.23,-533.68 598.52,-528.36 605.37,-523.89"/>
<polygon fill="#63b8ff" stroke="#63b8ff" points="606.78,-527.12 613.68,-519.07 603.27,-521.06 606.78,-527.12"/>
</a>
</g>
</g>
<!-- Node13 -->
<g id="Node000013" class="node">
<title>Node13</title>
<g id="a_Node000013"><a xlink:href="classdomini_1_1diccionari_1_1_d_a_w_g.html#acf204a82f6e4f5cebf3313611e57b714" target="_top" xlink:title="Comprova si una paraula està reconeguda pel DAWG.">
<polygon fill="white" stroke="#666666" points="549,-569 386.75,-569 386.75,-549 549,-549 549,-569"/>
<text text-anchor="middle" x="467.88" y="-555.5" font-family="Helvetica,sans-Serif" font-size="10.00">domini.diccionari.DAWG.contains</text>
</a>
</g>
</g>
<!-- Node12&#45;&gt;Node13 -->
<g id="edge14_Node000012_Node000013" class="edge">
<title>Node12&#45;&gt;Node13</title>
<g id="a_edge14_Node000012_Node000013"><a xlink:title=" ">
<path fill="none" stroke="#63b8ff" d="M282.08,-680.65C300.02,-654.65 338.7,-604.14 384.5,-578 387.31,-576.4 390.24,-574.93 393.26,-573.59"/>
<polygon fill="#63b8ff" stroke="#63b8ff" points="394.34,-576.92 402.38,-570.03 391.79,-570.4 394.34,-576.92"/>
</a>
</g>
</g>
<!-- Node14 -->
<g id="Node000014" class="node">
<title>Node14</title>
<g id="a_Node000014"><a xlink:href="classdomini_1_1diccionari_1_1_d_a_w_g.html#ad5db7cc629d77068e51ccae18f9bfebd" target="_top" xlink:title="Genera una llista amb les lletres i dígrafs de la paraula paràmetre.">
<polygon fill="white" stroke="#666666" points="749.5,-569 587.25,-569 587.25,-549 749.5,-549 749.5,-569"/>
<text text-anchor="middle" x="668.38" y="-555.5" font-family="Helvetica,sans-Serif" font-size="10.00">domini.diccionari.DAWG.tokenize</text>
</a>
</g>
</g>
<!-- Node13&#45;&gt;Node14 -->
<g id="edge15_Node000013_Node000014" class="edge">
<title>Node13&#45;&gt;Node14</title>
<g id="a_edge15_Node000013_Node000014"><a xlink:title=" ">
<path fill="none" stroke="#63b8ff" d="M549.33,-559C557.92,-559 566.71,-559 575.42,-559"/>
<polygon fill="#63b8ff" stroke="#63b8ff" points="575.3,-562.5 585.3,-559 575.3,-555.5 575.3,-562.5"/>
</a>
</g>
</g>
<!-- Node15&#45;&gt;Node4 -->
<g id="edge34_Node000015_Node000004" class="edge">
<title>Node15&#45;&gt;Node4</title>
<g id="a_edge34_Node000015_Node000004"><a xlink:title=" ">
<path fill="none" stroke="#63b8ff" d="M278.18,-300.84C299.45,-250.72 364.44,-100.46 384.5,-88 447.45,-48.89 482.3,-60.83 551.25,-88 663.37,-132.19 690.69,-167.81 749.5,-273 846.97,-447.32 855.15,-699.1 855.33,-773.52"/>
<polygon fill="#63b8ff" stroke="#63b8ff" points="851.83,-773.08 855.3,-783.09 858.83,-773.1 851.83,-773.08"/>
</a>
</g>
</g>
<!-- Node15&#45;&gt;Node6 -->
<g id="edge31_Node000015_Node000006" class="edge">
<title>Node15&#45;&gt;Node6</title>
<g id="a_edge31_Node000015_Node000006"><a xlink:title=" ">
<path fill="none" stroke="#63b8ff" d="M285.02,-300.59C304.45,-278.65 342.42,-240.82 384.5,-226 454.4,-201.37 479.97,-205.7 551.25,-226 584.39,-235.44 617.3,-257.35 639.58,-274.53"/>
<polygon fill="#63b8ff" stroke="#63b8ff" points="637.25,-277.15 647.26,-280.62 641.6,-271.67 637.25,-277.15"/>
</a>
</g>
</g>
<!-- Node15&#45;&gt;Node10 -->
<g id="edge33_Node000015_Node000010" class="edge">
<title>Node15&#45;&gt;Node10</title>
<g id="a_edge33_Node000015_Node000010"><a xlink:title=" ">
<path fill="none" stroke="#63b8ff" d="M278.55,-333.19C293.34,-364.43 330.42,-432.73 384.5,-464 449.38,-501.51 536.34,-507.96 596.64,-506.96"/>
<polygon fill="#63b8ff" stroke="#63b8ff" points="596.53,-510.47 606.44,-506.72 596.36,-503.47 596.53,-510.47"/>
</a>
</g>
</g>
<!-- Node15&#45;&gt;Node13 -->
<g id="edge29_Node000015_Node000013" class="edge">
<title>Node15&#45;&gt;Node13</title>
<g id="a_edge29_Node000015_Node000013"><a xlink:title=" ">
<path fill="none" stroke="#63b8ff" d="M279.04,-333.25C295.24,-366.52 335.54,-443.74 384.5,-497 400.9,-514.85 423,-531.16 440.18,-542.57"/>
<polygon fill="#63b8ff" stroke="#63b8ff" points="438.08,-545.38 448.38,-547.87 441.88,-539.5 438.08,-545.38"/>
</a>
</g>
</g>
<!-- Node16 -->
<g id="Node000016" class="node">
<title>Node16</title>
<g id="a_Node000016"><a xlink:href="classdomini_1_1jugadors_1_1_maquina.html#a80169174406c5da6922feb0f4c854ac8" target="_top" xlink:title="Calcula la puntuació d&#39;una paraula col·locada en el taulell.">
<polygon fill="white" stroke="#666666" points="548.25,-455 387.5,-455 387.5,-423 548.25,-423 548.25,-455"/>
<text text-anchor="start" x="395.5" y="-441.5" font-family="Helvetica,sans-Serif" font-size="10.00">domini.jugadors.Maquina.calcular</text>
<text text-anchor="middle" x="467.88" y="-429.5" font-family="Helvetica,sans-Serif" font-size="10.00">Puntatge</text>
</a>
</g>
</g>
<!-- Node15&#45;&gt;Node16 -->
<g id="edge24_Node000015_Node000016" class="edge">
<title>Node15&#45;&gt;Node16</title>
<g id="a_edge24_Node000015_Node000016"><a xlink:title=" ">
<path fill="none" stroke="#63b8ff" d="M286.26,-333.45C306.52,-354.89 344.81,-392.23 384.5,-414 387.17,-415.47 389.94,-416.86 392.77,-418.17"/>
<polygon fill="#63b8ff" stroke="#63b8ff" points="391.29,-421.35 401.87,-422.05 394.04,-414.91 391.29,-421.35"/>
</a>
</g>
</g>
<!-- Node18 -->
<g id="Node000018" class="node">
<title>Node18</title>
<g id="a_Node000018"><a xlink:href="classdomini_1_1jugadors_1_1_maquina.html#ae5ea3ad1e6cf736172f038349b70857d" target="_top" xlink:title="Converteix una llista de fitxes en una cadena de text.">
<polygon fill="white" stroke="#666666" points="546,-267 389.75,-267 389.75,-235 546,-235 546,-267"/>
<text text-anchor="start" x="397.75" y="-253.5" font-family="Helvetica,sans-Serif" font-size="10.00">domini.jugadors.Maquina.fitxes2</text>
<text text-anchor="middle" x="467.88" y="-241.5" font-family="Helvetica,sans-Serif" font-size="10.00">String</text>
</a>
</g>
</g>
<!-- Node15&#45;&gt;Node18 -->
<g id="edge30_Node000015_Node000018" class="edge">
<title>Node15&#45;&gt;Node18</title>
<g id="a_edge30_Node000015_Node000018"><a xlink:title=" ">
<path fill="none" stroke="#63b8ff" d="M314.97,-300.59C335.91,-292.86 361.41,-283.68 384.5,-276 389.77,-274.25 395.25,-272.47 400.76,-270.73"/>
<polygon fill="#63b8ff" stroke="#63b8ff" points="401.42,-274.19 409.92,-267.86 399.33,-267.51 401.42,-274.19"/>
</a>
</g>
</g>
<!-- Node19 -->
<g id="Node000019" class="node">
<title>Node19</title>
<g id="a_Node000019"><a xlink:href="classdomini_1_1auxiliars_1_1_max_word.html#a095b18721ed654f8c136b6fd2b9a4f6d" target="_top" xlink:title="Obté la puntuació de la paraula.">
<polygon fill="white" stroke="#666666" points="540,-179 395.75,-179 395.75,-147 540,-147 540,-179"/>
<text text-anchor="start" x="403.75" y="-165.5" font-family="Helvetica,sans-Serif" font-size="10.00">domini.auxiliars.MaxWord.get</text>
<text text-anchor="middle" x="467.88" y="-153.5" font-family="Helvetica,sans-Serif" font-size="10.00">Points</text>
</a>
</g>
</g>
<!-- Node15&#45;&gt;Node19 -->
<g id="edge32_Node000015_Node000019" class="edge">
<title>Node15&#45;&gt;Node19</title>
<g id="a_edge32_Node000015_Node000019"><a xlink:title=" ">
<path fill="none" stroke="#63b8ff" d="M282.32,-300.6C300.58,-274.4 339.71,-223 384.5,-193 389.48,-189.66 394.88,-186.65 400.44,-183.92"/>
<polygon fill="#63b8ff" stroke="#63b8ff" points="401.54,-187.27 409.21,-179.97 398.66,-180.89 401.54,-187.27"/>
</a>
</g>
</g>
<!-- Node20 -->
<g id="Node000020" class="node">
<title>Node20</title>
<g id="a_Node000020"><a xlink:href="classdomini_1_1auxiliars_1_1_max_word.html#a946a8835bbce29ef90f8c76455735c0d" target="_top" xlink:title="Assigna unes noves coordenades inicials a la paraula.">
<polygon fill="white" stroke="#666666" points="540,-129 395.75,-129 395.75,-97 540,-97 540,-129"/>
<text text-anchor="start" x="403.75" y="-115.5" font-family="Helvetica,sans-Serif" font-size="10.00">domini.auxiliars.MaxWord.set</text>
<text text-anchor="middle" x="467.88" y="-103.5" font-family="Helvetica,sans-Serif" font-size="10.00">Coordinates</text>
</a>
</g>
</g>
<!-- Node15&#45;&gt;Node20 -->
<g id="edge35_Node000015_Node000020" class="edge">
<title>Node15&#45;&gt;Node20</title>
<g id="a_edge35_Node000015_Node000020"><a xlink:title=" ">
<path fill="none" stroke="#63b8ff" d="M279.79,-300.66C300.55,-260.9 354.67,-160.72 384.5,-138 385.84,-136.98 387.22,-136 388.63,-135.07"/>
<polygon fill="#63b8ff" stroke="#63b8ff" points="390.18,-138.21 397.1,-130.19 386.69,-132.15 390.18,-138.21"/>
</a>
</g>
</g>
<!-- Node21 -->
<g id="Node000021" class="node">
<title>Node21</title>
<g id="a_Node000021"><a xlink:href="classdomini_1_1auxiliars_1_1_max_word.html#adb214547721bf7d9bb1a04c97827d0b0" target="_top" xlink:title="Defineix la direcció de la paraula.">
<polygon fill="white" stroke="#666666" points="540,-405 395.75,-405 395.75,-373 540,-373 540,-405"/>
<text text-anchor="start" x="403.75" y="-391.5" font-family="Helvetica,sans-Serif" font-size="10.00">domini.auxiliars.MaxWord.set</text>
<text text-anchor="middle" x="467.88" y="-379.5" font-family="Helvetica,sans-Serif" font-size="10.00">Horizontal</text>
</a>
</g>
</g>
<!-- Node15&#45;&gt;Node21 -->
<g id="edge36_Node000015_Node000021" class="edge">
<title>Node15&#45;&gt;Node21</title>
<g id="a_edge36_Node000015_Node000021"><a xlink:title=" ">
<path fill="none" stroke="#63b8ff" d="M308.46,-333.5C330.37,-342.97 358.77,-354.78 384.5,-364 389.22,-365.69 394.11,-367.37 399.06,-369.01"/>
<polygon fill="#63b8ff" stroke="#63b8ff" points="397.88,-372.3 408.47,-372.05 400.04,-365.64 397.88,-372.3"/>
</a>
</g>
</g>
<!-- Node22 -->
<g id="Node000022" class="node">
<title>Node22</title>
<g id="a_Node000022"><a xlink:href="classdomini_1_1auxiliars_1_1_max_word.html#ae599f47659f48bcc17daf17b83bd7255" target="_top" xlink:title="Assigna una nova puntuació a la paraula.">
<polygon fill="white" stroke="#666666" points="540,-355 395.75,-355 395.75,-323 540,-323 540,-355"/>
<text text-anchor="start" x="403.75" y="-341.5" font-family="Helvetica,sans-Serif" font-size="10.00">domini.auxiliars.MaxWord.set</text>
<text text-anchor="middle" x="467.88" y="-329.5" font-family="Helvetica,sans-Serif" font-size="10.00">Points</text>
</a>
</g>
</g>
<!-- Node15&#45;&gt;Node22 -->
<g id="edge37_Node000015_Node000022" class="edge">
<title>Node15&#45;&gt;Node22</title>
<g id="a_edge37_Node000015_Node000022"><a xlink:title=" ">
<path fill="none" stroke="#63b8ff" d="M348.92,-325.73C360.56,-327.04 372.59,-328.39 384.32,-329.71"/>
<polygon fill="#63b8ff" stroke="#63b8ff" points="383.62,-333.15 393.95,-330.79 384.41,-326.2 383.62,-333.15"/>
</a>
</g>
</g>
<!-- Node23 -->
<g id="Node000023" class="node">
<title>Node23</title>
<g id="a_Node000023"><a xlink:href="classdomini_1_1auxiliars_1_1_max_word.html#a452955f9d5f0cfedcab85fd1c74609c6" target="_top" xlink:title="Assigna una nova llista de fitxes a la paraula.">
<polygon fill="white" stroke="#666666" points="551.25,-305 384.5,-305 384.5,-285 551.25,-285 551.25,-305"/>
<text text-anchor="middle" x="467.88" y="-291.5" font-family="Helvetica,sans-Serif" font-size="10.00">domini.auxiliars.MaxWord.setWord</text>
</a>
</g>
</g>
<!-- Node15&#45;&gt;Node23 -->
<g id="edge38_Node000015_Node000023" class="edge">
<title>Node15&#45;&gt;Node23</title>
<g id="a_edge38_Node000015_Node000023"><a xlink:title=" ">
<path fill="none" stroke="#63b8ff" d="M348.92,-308.27C356.82,-307.38 364.9,-306.48 372.95,-305.57"/>
<polygon fill="#63b8ff" stroke="#63b8ff" points="373.23,-309.06 382.78,-304.46 372.45,-302.1 373.23,-309.06"/>
</a>
</g>
</g>
<!-- Node16&#45;&gt;Node3 -->
<g id="edge25_Node000016_Node000003" class="edge">
<title>Node16&#45;&gt;Node3</title>
<g id="a_edge25_Node000016_Node000003"><a xlink:title=" ">
<path fill="none" stroke="#63b8ff" d="M484.77,-455.39C502.67,-474.49 531.8,-507.6 551.25,-540 602.78,-625.86 642.35,-738.78 658.9,-789.85"/>
<polygon fill="#63b8ff" stroke="#63b8ff" points="655.5,-790.71 661.88,-799.17 662.17,-788.58 655.5,-790.71"/>
</a>
</g>
</g>
<!-- Node16&#45;&gt;Node6 -->
<g id="edge26_Node000016_Node000006" class="edge">
<title>Node16&#45;&gt;Node6</title>
<g id="a_edge26_Node000016_Node000006"><a xlink:title=" ">
<path fill="none" stroke="#63b8ff" d="M534.04,-422.56C540.03,-420.07 545.87,-417.23 551.25,-414 591.09,-390.13 627.27,-349.64 648.3,-323.36"/>
<polygon fill="#63b8ff" stroke="#63b8ff" points="650.99,-325.6 654.41,-315.57 645.49,-321.28 650.99,-325.6"/>
</a>
</g>
</g>
<!-- Node16&#45;&gt;Node10 -->
<g id="edge28_Node000016_Node000010" class="edge">
<title>Node16&#45;&gt;Node10</title>
<g id="a_edge28_Node000016_Node000010"><a xlink:title=" ">
<path fill="none" stroke="#63b8ff" d="M520.77,-455.47C546.41,-463.61 577.57,-473.5 604.55,-482.06"/>
<polygon fill="#63b8ff" stroke="#63b8ff" points="603.41,-485.37 614,-485.06 605.52,-478.7 603.41,-485.37"/>
</a>
</g>
</g>
<!-- Node17 -->
<g id="Node000017" class="node">
<title>Node17</title>
<g id="a_Node000017"><a xlink:href="classdomini_1_1scrabble_1_1_casella.html#a2ce7db6c414e455606dfbd8ee8056a3b" target="_top" xlink:title="Retorna el multiplicador de la casella.">
<polygon fill="white" stroke="#666666" points="736.75,-455 600,-455 600,-423 736.75,-423 736.75,-455"/>
<text text-anchor="start" x="608" y="-441.5" font-family="Helvetica,sans-Serif" font-size="10.00">domini.scrabble.Casella.get</text>
<text text-anchor="middle" x="668.38" y="-429.5" font-family="Helvetica,sans-Serif" font-size="10.00">Multiplicador</text>
</a>
</g>
</g>
<!-- Node16&#45;&gt;Node17 -->
<g id="edge27_Node000016_Node000017" class="edge">
<title>Node16&#45;&gt;Node17</title>
<g id="a_edge27_Node000016_Node000017"><a xlink:title=" ">
<path fill="none" stroke="#63b8ff" d="M548.47,-439C561.57,-439 575.14,-439 588.23,-439"/>
<polygon fill="#63b8ff" stroke="#63b8ff" points="588.06,-442.5 598.06,-439 588.06,-435.5 588.06,-442.5"/>
</a>
</g>
</g>
</g>
</svg>

<g id="navigator" transform="translate(0 0)" fill="#404254">
  <rect fill="#f2f5e9" fill-opacity="0.5" stroke="#606060" stroke-width=".5" x="0" y="0" width="60" height="60"/>
  <use id="zoomplus" xlink:href="#zoomPlus" x="17" y="9" onmousedown="handleZoom(evt,'in')"/>
  <use id="zoomminus" xlink:href="#zoomMin" x="42" y="9" onmousedown="handleZoom(evt,'out')"/>
  <use id="reset" xlink:href="#resetDef" x="30" y="36" onmousedown="handleReset()"/>
   <use id="arrowup" xlink:href="#arrowUp" x="0" y="0" onmousedown="handlePan(0,-1)"/>
  <use id="arrowright" xlink:href="#arrowRight" x="0" y="0" onmousedown="handlePan(1,0)"/>
  <use id="arrowdown" xlink:href="#arrowDown" x="0" y="0" onmousedown="handlePan(0,1)"/>
  <use id="arrowleft" xlink:href="#arrowLeft" x="0" y="0" onmousedown="handlePan(-1,0)"/>
</g>
<svg viewBox="0 0 15 15" width="100%" height="30px" preserveAspectRatio="xMaxYMin meet">
 <g id="arrow_out" transform="scale(0.3 0.3)">
  <a xlink:href="classdomini_1_1jugadors_1_1_maquina_a28fa4d863085aaaba920b95a47bf14b7_cgraph_org.svg" target="_base">
   <rect id="button" ry="5" rx="5" y="6" x="6" height="38" width="38"
        fill="#f2f5e9" fill-opacity="0.5" stroke="#606060" stroke-width="1.0"/>
   <path id="arrow"
     d="M 11.500037,31.436501 C 11.940474,20.09759 22.043105,11.32322 32.158766,21.979434 L 37.068811,17.246167 C 37.068811,17.246167 37.088388,32 37.088388,32 L 22.160133,31.978069 C 22.160133,31.978069 26.997745,27.140456 26.997745,27.140456 C 18.528582,18.264221 13.291696,25.230495 11.500037,31.436501 z"
     style="fill:#404040;"/>
  </a>
 </g>
</svg>

<style type='text/css'>
<![CDATA[
[data-mouse-over-selected='false'] { opacity: 0.7; }
[data-mouse-over-selected='true']  { opacity: 1.0; }
]]>
</style>
<script type="application/ecmascript"><![CDATA[
document.addEventListener('DOMContentLoaded', (event) => {
  highlightEdges();
  highlightAdjacentNodes();
});
]]></script>
</svg>
