<?xml version="1.0" encoding="UTF-8" standalone="no"?>
<!DOCTYPE svg PUBLIC "-//W3C//DTD SVG 1.1//EN"
 "http://www.w3.org/Graphics/SVG/1.1/DTD/svg11.dtd">
<!-- Generated by graphviz version 12.2.1 (20241206.2353)
 -->
<!-- Title: controladors.CtrlPersistencia.carregarPartida Pages: 1 -->
<svg width="529pt" height="190pt"
 viewBox="0.00 0.00 528.50 190.00" xmlns="http://www.w3.org/2000/svg" xmlns:xlink="http://www.w3.org/1999/xlink">
<g id="graph0" class="graph" transform="scale(1 1) rotate(0) translate(4 186)">
<title>controladors.CtrlPersistencia.carregarPartida</title>
<!-- Node1 -->
<g id="Node000001" class="node">
<title>Node1</title>
<g id="a_Node000001"><a xlink:title="Carrega una partida de l&#39;emmagatzematge persistent.">
<polygon fill="#999999" stroke="#666666" points="180.25,-107 0,-107 0,-75 180.25,-75 180.25,-107"/>
<text text-anchor="start" x="8" y="-93.5" font-family="Helvetica,sans-Serif" font-size="10.00">controladors.CtrlPersistencia.carregar</text>
<text text-anchor="middle" x="90.12" y="-81.5" font-family="Helvetica,sans-Serif" font-size="10.00">Partida</text>
</a>
</g>
</g>
<!-- Node2 -->
<g id="Node000002" class="node">
<title>Node2</title>
<g id="a_Node000002"><a xlink:href="classpersistencia_1_1_partida_i_o.html#a7b9bdae6d9736a012e584b268b0bcb86" target="_top" xlink:title="Carrega una partida des d&#39;un fitxer JSON.">
<polygon fill="white" stroke="#666666" points="350,-107 216.25,-107 216.25,-75 350,-75 350,-107"/>
<text text-anchor="start" x="224.25" y="-93.5" font-family="Helvetica,sans-Serif" font-size="10.00">persistencia.PartidaIO.load</text>
<text text-anchor="middle" x="283.12" y="-81.5" font-family="Helvetica,sans-Serif" font-size="10.00">Partida</text>
</a>
</g>
</g>
<!-- Node1&#45;&gt;Node2 -->
<g id="edge1_Node000001_Node000002" class="edge">
<title>Node1&#45;&gt;Node2</title>
<g id="a_edge1_Node000001_Node000002"><a xlink:title=" ">
<path fill="none" stroke="#63b8ff" d="M180.47,-91C188.5,-91 196.58,-91 204.49,-91"/>
<polygon fill="#63b8ff" stroke="#63b8ff" points="204.42,-94.5 214.42,-91 204.42,-87.5 204.42,-94.5"/>
</a>
</g>
</g>
<!-- Node3 -->
<g id="Node000003" class="node">
<title>Node3</title>
<g id="a_Node000003"><a xlink:href="classdomini_1_1scrabble_1_1_partida.html#a02bdb9c41da95458503bb9d1967ea9e8" target="_top" xlink:title="Retorna la instància de la bossa.">
<polygon fill="white" stroke="#666666" points="520.5,-182 386,-182 386,-150 520.5,-150 520.5,-182"/>
<text text-anchor="start" x="394" y="-168.5" font-family="Helvetica,sans-Serif" font-size="10.00">domini.scrabble.Partida.get</text>
<text text-anchor="middle" x="453.25" y="-156.5" font-family="Helvetica,sans-Serif" font-size="10.00">Bossa</text>
</a>
</g>
</g>
<!-- Node2&#45;&gt;Node3 -->
<g id="edge2_Node000002_Node000003" class="edge">
<title>Node2&#45;&gt;Node3</title>
<g id="a_edge2_Node000002_Node000003"><a xlink:title=" ">
<path fill="none" stroke="#63b8ff" d="M315.43,-107.33C335.39,-117.5 361.95,-130.59 386,-141 389.38,-142.47 392.89,-143.93 396.43,-145.38"/>
<polygon fill="#63b8ff" stroke="#63b8ff" points="395.12,-148.62 405.71,-149.07 397.71,-142.12 395.12,-148.62"/>
</a>
</g>
</g>
<!-- Node4 -->
<g id="Node000004" class="node">
<title>Node4</title>
<g id="a_Node000004"><a xlink:href="classdomini_1_1scrabble_1_1_partida.html#a719791835f1334957e59dcfe4d2a4cec" target="_top" xlink:title="Retorna l&#39;estat actual de la partida.">
<polygon fill="white" stroke="#666666" points="520.5,-132 386,-132 386,-100 520.5,-100 520.5,-132"/>
<text text-anchor="start" x="394" y="-118.5" font-family="Helvetica,sans-Serif" font-size="10.00">domini.scrabble.Partida.get</text>
<text text-anchor="middle" x="453.25" y="-106.5" font-family="Helvetica,sans-Serif" font-size="10.00">Estat</text>
</a>
</g>
</g>
<!-- Node2&#45;&gt;Node4 -->
<g id="edge3_Node000002_Node000004" class="edge">
<title>Node2&#45;&gt;Node4</title>
<g id="a_edge3_Node000002_Node000004"><a xlink:title=" ">
<path fill="none" stroke="#63b8ff" d="M350.09,-100.81C358.03,-101.99 366.2,-103.2 374.29,-104.41"/>
<polygon fill="#63b8ff" stroke="#63b8ff" points="373.74,-107.86 384.15,-105.87 374.77,-100.94 373.74,-107.86"/>
</a>
</g>
</g>
<!-- Node5 -->
<g id="Node000005" class="node">
<title>Node5</title>
<g id="a_Node000005"><a xlink:href="classdomini_1_1scrabble_1_1_bossa.html#aa72b114802328935e32718821a3322ce" target="_top" xlink:title="Obté les fitxes de la bossa.">
<polygon fill="white" stroke="#666666" points="519,-82 387.5,-82 387.5,-50 519,-50 519,-82"/>
<text text-anchor="start" x="395.5" y="-68.5" font-family="Helvetica,sans-Serif" font-size="10.00">domini.scrabble.Bossa.get</text>
<text text-anchor="middle" x="453.25" y="-56.5" font-family="Helvetica,sans-Serif" font-size="10.00">Fitxes</text>
</a>
</g>
</g>
<!-- Node2&#45;&gt;Node5 -->
<g id="edge4_Node000002_Node000005" class="edge">
<title>Node2&#45;&gt;Node5</title>
<g id="a_edge4_Node000002_Node000005"><a xlink:title=" ">
<path fill="none" stroke="#63b8ff" d="M350.09,-81.19C358.53,-79.94 367.23,-78.64 375.82,-77.36"/>
<polygon fill="#63b8ff" stroke="#63b8ff" points="376.15,-80.85 385.53,-75.92 375.12,-73.93 376.15,-80.85"/>
</a>
</g>
</g>
<!-- Node6 -->
<g id="Node000006" class="node">
<title>Node6</title>
<g id="a_Node000006"><a xlink:href="classdomini_1_1scrabble_1_1_estat.html#acb727a684104d60ab770231bebdcc9c6" target="_top" xlink:title="Mètode que assigna la partida del paràmetre a l&#39;estat.">
<polygon fill="white" stroke="#666666" points="516.75,-32 389.75,-32 389.75,0 516.75,0 516.75,-32"/>
<text text-anchor="start" x="397.75" y="-18.5" font-family="Helvetica,sans-Serif" font-size="10.00">domini.scrabble.Estat.set</text>
<text text-anchor="middle" x="453.25" y="-6.5" font-family="Helvetica,sans-Serif" font-size="10.00">Partida</text>
</a>
</g>
</g>
<!-- Node2&#45;&gt;Node6 -->
<g id="edge5_Node000002_Node000006" class="edge">
<title>Node2&#45;&gt;Node6</title>
<g id="a_edge5_Node000002_Node000006"><a xlink:title=" ">
<path fill="none" stroke="#63b8ff" d="M315.43,-74.67C335.39,-64.5 361.95,-51.41 386,-41 389.38,-39.53 392.89,-38.07 396.43,-36.62"/>
<polygon fill="#63b8ff" stroke="#63b8ff" points="397.71,-39.88 405.71,-32.93 395.12,-33.38 397.71,-39.88"/>
</a>
</g>
</g>
</g>
</svg>
