<?xml version="1.0" encoding="UTF-8" standalone="no"?>
<!DOCTYPE svg PUBLIC "-//W3C//DTD SVG 1.1//EN"
 "http://www.w3.org/Graphics/SVG/1.1/DTD/svg11.dtd">
<!-- Generated by graphviz version 12.2.1 (20241206.2353)
 -->
<!-- Title: domini.scrabble.EstatPausada Pages: 1 -->
<svg width="619pt" height="1268pt"
 viewBox="0.00 0.00 618.75 1268.00" xmlns="http://www.w3.org/2000/svg" xmlns:xlink="http://www.w3.org/1999/xlink">
<g id="graph0" class="graph" transform="scale(1 1) rotate(0) translate(4 1264)">
<title>domini.scrabble.EstatPausada</title>
<!-- Node1 -->
<g id="Node000001" class="node">
<title>Node1</title>
<g id="a_Node000001"><a xlink:title="Representa l&#39;estat &#39;Pausada&#39; d&#39;una partida.">
<polygon fill="#999999" stroke="none" points="140.75,-208 0,-208 0,-92 140.75,-92 140.75,-208"/>
<text text-anchor="start" x="4" y="-194.5" font-family="Helvetica,sans-Serif" font-size="10.00">domini.scrabble.EstatPausada</text>
<text text-anchor="start" x="68.88" y="-178.5" font-family="Helvetica,sans-Serif" font-size="10.00"> </text>
<text text-anchor="start" x="17.81" y="-162.5" font-family="Helvetica,sans-Serif" font-size="10.00">+</text>
<text text-anchor="start" x="41.62" y="-162.5" font-family="Helvetica,sans-Serif" font-size="10.00">EstatPausada()</text>
<text text-anchor="start" x="17.81" y="-146.5" font-family="Helvetica,sans-Serif" font-size="10.00">+</text>
<text text-anchor="start" x="41.62" y="-146.5" font-family="Helvetica,sans-Serif" font-size="10.00">iniciar()</text>
<text text-anchor="start" x="17.81" y="-130.5" font-family="Helvetica,sans-Serif" font-size="10.00">+</text>
<text text-anchor="start" x="41.62" y="-130.5" font-family="Helvetica,sans-Serif" font-size="10.00">pausar()</text>
<text text-anchor="start" x="17.81" y="-114.5" font-family="Helvetica,sans-Serif" font-size="10.00">+</text>
<text text-anchor="start" x="41.62" y="-114.5" font-family="Helvetica,sans-Serif" font-size="10.00">encurs()</text>
<text text-anchor="start" x="17.81" y="-98.5" font-family="Helvetica,sans-Serif" font-size="10.00">+</text>
<text text-anchor="start" x="41.62" y="-98.5" font-family="Helvetica,sans-Serif" font-size="10.00">finalitzar()</text>
<polygon fill="#666666" stroke="#666666" points="0,-190 0,-190 140.75,-190 140.75,-190 0,-190"/>
<polygon fill="#666666" stroke="#666666" points="0,-174 0,-174 140.75,-174 140.75,-174 0,-174"/>
<polygon fill="none" stroke="#666666" points="0,-92 0,-208 140.75,-208 140.75,-92 0,-92"/>
</a>
</g>
</g>
<!-- Node2 -->
<g id="Node000002" class="node">
<title>Node2</title>
<g id="a_Node000002"><a xlink:href="classdomini_1_1scrabble_1_1_estat.html" target="_top" xlink:title="Classe abstracta que defineix el comportament genèric per als diferents estats d&#39;una partida.">
<polygon fill="white" stroke="none" points="121.62,-618 19.12,-618 19.12,-486 121.62,-486 121.62,-618"/>
<text text-anchor="start" x="23.12" y="-604.5" font-family="Helvetica,sans-Serif" font-size="10.00">domini.scrabble.Estat</text>
<text text-anchor="start" x="68.88" y="-588.5" font-family="Helvetica,sans-Serif" font-size="10.00"> </text>
<text text-anchor="start" x="31.69" y="-572.5" font-family="Helvetica,sans-Serif" font-size="10.00">+</text>
<text text-anchor="start" x="50.25" y="-572.5" font-family="Helvetica,sans-Serif" font-size="10.00">Estat()</text>
<text text-anchor="start" x="31.69" y="-556.5" font-family="Helvetica,sans-Serif" font-size="10.00">+</text>
<text text-anchor="start" x="50.25" y="-556.5" font-family="Helvetica,sans-Serif" font-size="10.00">setPartida()</text>
<text text-anchor="start" x="31.69" y="-540.5" font-family="Helvetica,sans-Serif" font-size="10.00">+</text>
<text text-anchor="start" x="50.25" y="-540.5" font-family="Helvetica,sans-Serif" font-size="10.00">iniciar()</text>
<text text-anchor="start" x="31.69" y="-524.5" font-family="Helvetica,sans-Serif" font-size="10.00">+</text>
<text text-anchor="start" x="50.25" y="-524.5" font-family="Helvetica,sans-Serif" font-size="10.00">encurs()</text>
<text text-anchor="start" x="31.69" y="-508.5" font-family="Helvetica,sans-Serif" font-size="10.00">+</text>
<text text-anchor="start" x="50.25" y="-508.5" font-family="Helvetica,sans-Serif" font-size="10.00">pausar()</text>
<text text-anchor="start" x="31.69" y="-492.5" font-family="Helvetica,sans-Serif" font-size="10.00">+</text>
<text text-anchor="start" x="50.25" y="-492.5" font-family="Helvetica,sans-Serif" font-size="10.00">finalitzar()</text>
<polygon fill="#666666" stroke="#666666" points="19.12,-600 19.12,-600 121.62,-600 121.62,-600 19.12,-600"/>
<polygon fill="#666666" stroke="#666666" points="19.12,-584 19.12,-584 121.62,-584 121.62,-584 19.12,-584"/>
<polygon fill="none" stroke="#666666" points="19.12,-486 19.12,-618 121.62,-618 121.62,-486 19.12,-486"/>
</a>
</g>
</g>
<!-- Node2&#45;&gt;Node1 -->
<g id="edge1_Node000001_Node000002" class="edge">
<title>Node2&#45;&gt;Node1</title>
<g id="a_edge1_Node000001_Node000002"><a xlink:title=" ">
<path fill="none" stroke="#63b8ff" d="M70.38,-475.11C70.38,-397.26 70.38,-277.92 70.38,-207.85"/>
<polygon fill="none" stroke="#63b8ff" points="66.88,-474.77 70.38,-484.77 73.88,-474.78 66.88,-474.77"/>
</a>
</g>
</g>
<!-- Node3 -->
<g id="Node000003" class="node">
<title>Node3</title>
<g id="a_Node000003"><a xlink:href="classdomini_1_1scrabble_1_1_partida.html" target="_top" xlink:title="Classe que representa una partida d&#39;Scrabble.">
<polygon fill="white" stroke="none" points="294.75,-300 174,-300 174,0 294.75,0 294.75,-300"/>
<text text-anchor="start" x="183.38" y="-286.5" font-family="Helvetica,sans-Serif" font-size="10.00">domini.scrabble.Partida</text>
<text text-anchor="start" x="179.5" y="-270.5" font-family="Helvetica,sans-Serif" font-size="10.00">&#45;</text>
<text text-anchor="start" x="188" y="-270.5" font-family="Helvetica,sans-Serif" font-size="10.00">idioma</text>
<text text-anchor="start" x="179.5" y="-254.5" font-family="Helvetica,sans-Serif" font-size="10.00">&#45;</text>
<text text-anchor="start" x="188" y="-254.5" font-family="Helvetica,sans-Serif" font-size="10.00">torn</text>
<text text-anchor="start" x="179.5" y="-238.5" font-family="Helvetica,sans-Serif" font-size="10.00">&#45;</text>
<text text-anchor="start" x="188" y="-238.5" font-family="Helvetica,sans-Serif" font-size="10.00">idP</text>
<text text-anchor="start" x="179.5" y="-222.5" font-family="Helvetica,sans-Serif" font-size="10.00">&#45;</text>
<text text-anchor="start" x="188" y="-222.5" font-family="Helvetica,sans-Serif" font-size="10.00">puntuacio_jugador_1</text>
<text text-anchor="start" x="179.5" y="-206.5" font-family="Helvetica,sans-Serif" font-size="10.00">&#45;</text>
<text text-anchor="start" x="188" y="-206.5" font-family="Helvetica,sans-Serif" font-size="10.00">puntuacio_jugador_2</text>
<text text-anchor="start" x="178" y="-190.5" font-family="Helvetica,sans-Serif" font-size="10.00">+</text>
<text text-anchor="start" x="188" y="-190.5" font-family="Helvetica,sans-Serif" font-size="10.00">Partida()</text>
<text text-anchor="start" x="178" y="-174.5" font-family="Helvetica,sans-Serif" font-size="10.00">+</text>
<text text-anchor="start" x="188" y="-174.5" font-family="Helvetica,sans-Serif" font-size="10.00">getTorn()</text>
<text text-anchor="start" x="178" y="-158.5" font-family="Helvetica,sans-Serif" font-size="10.00">+</text>
<text text-anchor="start" x="188" y="-158.5" font-family="Helvetica,sans-Serif" font-size="10.00">incrementarTorn()</text>
<text text-anchor="start" x="178" y="-142.5" font-family="Helvetica,sans-Serif" font-size="10.00">+</text>
<text text-anchor="start" x="188" y="-142.5" font-family="Helvetica,sans-Serif" font-size="10.00">incrementar_puntuacio</text>
<text text-anchor="start" x="188" y="-130.5" font-family="Helvetica,sans-Serif" font-size="10.00">_partida()</text>
<text text-anchor="start" x="178" y="-114.5" font-family="Helvetica,sans-Serif" font-size="10.00">+</text>
<text text-anchor="start" x="188" y="-114.5" font-family="Helvetica,sans-Serif" font-size="10.00">getIdioma()</text>
<text text-anchor="start" x="178" y="-98.5" font-family="Helvetica,sans-Serif" font-size="10.00">+</text>
<text text-anchor="start" x="188" y="-98.5" font-family="Helvetica,sans-Serif" font-size="10.00">reiniciar_puntuacio</text>
<text text-anchor="start" x="188" y="-86.5" font-family="Helvetica,sans-Serif" font-size="10.00">_partida()</text>
<text text-anchor="start" x="178" y="-70.5" font-family="Helvetica,sans-Serif" font-size="10.00">+</text>
<text text-anchor="start" x="188" y="-70.5" font-family="Helvetica,sans-Serif" font-size="10.00">getPuntuacioJugador1()</text>
<text text-anchor="start" x="178" y="-54.5" font-family="Helvetica,sans-Serif" font-size="10.00">+</text>
<text text-anchor="start" x="188" y="-54.5" font-family="Helvetica,sans-Serif" font-size="10.00">getPuntuacioJugador2()</text>
<text text-anchor="start" x="178" y="-38.5" font-family="Helvetica,sans-Serif" font-size="10.00">+</text>
<text text-anchor="start" x="188" y="-38.5" font-family="Helvetica,sans-Serif" font-size="10.00">getTaulell()</text>
<text text-anchor="start" x="178" y="-22.5" font-family="Helvetica,sans-Serif" font-size="10.00">+</text>
<text text-anchor="start" x="188" y="-22.5" font-family="Helvetica,sans-Serif" font-size="10.00">imprimirtaulell()</text>
<text text-anchor="start" x="188" y="-6.5" font-family="Helvetica,sans-Serif" font-size="10.00">and 19 more...</text>
<polygon fill="#666666" stroke="#666666" points="174,-282 174,-282 294.75,-282 294.75,-282 174,-282"/>
<polygon fill="#666666" stroke="#666666" points="174,-202 174,-202 186,-202 186,-202 174,-202"/>
<polygon fill="#666666" stroke="#666666" points="186,-202 186,-202 294.75,-202 294.75,-202 186,-202"/>
<polygon fill="none" stroke="#666666" points="174,0 174,-300 294.75,-300 294.75,0 174,0"/>
</a>
</g>
</g>
<!-- Node2&#45;&gt;Node3 -->
<g id="edge11_Node000003_Node000002" class="edge">
<title>Node2&#45;&gt;Node3</title>
<g id="a_edge11_Node000003_Node000002"><a xlink:title=" ">
<path fill="none" stroke="#63b8ff" d="M65.21,-486.16C64.6,-435.4 71.74,-365.65 108.62,-318 120.75,-302.34 134.68,-313.26 149.38,-300 155.25,-294.7 160.82,-288.89 166.09,-282.74"/>
<polygon fill="none" stroke="#63b8ff" points="166.01,-282.84 166.67,-275.66 173.55,-273.51 172.89,-280.7 166.01,-282.84"/>
</a>
</g>
<text text-anchor="middle" x="122.5" y="-326.5" font-family="Helvetica,sans-Serif" font-size="10.00" fill="grey"> &#45;estat</text>
</g>
<!-- Node3&#45;&gt;Node2 -->
<g id="edge2_Node000002_Node000003" class="edge">
<title>Node3&#45;&gt;Node2</title>
<g id="a_edge2_Node000002_Node000003"><a xlink:title=" ">
<path fill="none" stroke="#63b8ff" d="M174.08,-275.77C163.06,-297.93 151.52,-320.72 140.38,-342 136.13,-350.11 133.99,-351.59 130.38,-360 114.67,-396.57 101.01,-438.63 90.71,-473.96"/>
<polygon fill="none" stroke="#63b8ff" points="90.77,-473.76 92.95,-480.63 87.45,-485.29 85.26,-478.42 90.77,-473.76"/>
</a>
</g>
<text text-anchor="middle" x="169.75" y="-326.5" font-family="Helvetica,sans-Serif" font-size="10.00" fill="grey"> #partida</text>
</g>
<!-- Node4 -->
<g id="Node000004" class="node">
<title>Node4</title>
<g id="a_Node000004"><a xlink:href="classdomini_1_1jugadors_1_1_jugador.html" target="_top" xlink:title="Representa un jugador del joc de Scrabble.">
<polygon fill="white" stroke="none" points="329.25,-744 139.5,-744 139.5,-360 329.25,-360 329.25,-744"/>
<text text-anchor="start" x="181.5" y="-730.5" font-family="Helvetica,sans-Serif" font-size="10.00">domini.jugadors.Jugador</text>
<text text-anchor="start" x="143.88" y="-714.5" font-family="Helvetica,sans-Serif" font-size="10.00">#</text>
<text text-anchor="start" x="153.5" y="-714.5" font-family="Helvetica,sans-Serif" font-size="10.00">idJugador</text>
<text text-anchor="start" x="143.88" y="-698.5" font-family="Helvetica,sans-Serif" font-size="10.00">#</text>
<text text-anchor="start" x="153.5" y="-698.5" font-family="Helvetica,sans-Serif" font-size="10.00">nom</text>
<text text-anchor="start" x="143.88" y="-682.5" font-family="Helvetica,sans-Serif" font-size="10.00">#</text>
<text text-anchor="start" x="153.5" y="-682.5" font-family="Helvetica,sans-Serif" font-size="10.00">puntuacio_actual</text>
<text text-anchor="start" x="143.88" y="-666.5" font-family="Helvetica,sans-Serif" font-size="10.00">#</text>
<text text-anchor="start" x="153.5" y="-666.5" font-family="Helvetica,sans-Serif" font-size="10.00">fitxes_actuals</text>
<text text-anchor="start" x="143.88" y="-650.5" font-family="Helvetica,sans-Serif" font-size="10.00">#</text>
<text text-anchor="start" x="153.5" y="-650.5" font-family="Helvetica,sans-Serif" font-size="10.00">tornsPassatsConsecutius</text>
<text text-anchor="start" x="143.88" y="-634.5" font-family="Helvetica,sans-Serif" font-size="10.00">#</text>
<text text-anchor="start" x="153.5" y="-634.5" font-family="Helvetica,sans-Serif" font-size="10.00">MAX_FITXES</text>
<text text-anchor="start" x="145" y="-618.5" font-family="Helvetica,sans-Serif" font-size="10.00">&#45;</text>
<text text-anchor="start" x="153.5" y="-618.5" font-family="Helvetica,sans-Serif" font-size="10.00">tipus</text>
<text text-anchor="start" x="145" y="-602.5" font-family="Helvetica,sans-Serif" font-size="10.00">&#45;</text>
<text text-anchor="start" x="153.5" y="-602.5" font-family="Helvetica,sans-Serif" font-size="10.00">rutaImatge</text>
<text text-anchor="start" x="143.5" y="-586.5" font-family="Helvetica,sans-Serif" font-size="10.00">+</text>
<text text-anchor="start" x="153.5" y="-586.5" font-family="Helvetica,sans-Serif" font-size="10.00">Jugador()</text>
<text text-anchor="start" x="143.5" y="-570.5" font-family="Helvetica,sans-Serif" font-size="10.00">+</text>
<text text-anchor="start" x="153.5" y="-570.5" font-family="Helvetica,sans-Serif" font-size="10.00">getIdJugador()</text>
<text text-anchor="start" x="143.5" y="-554.5" font-family="Helvetica,sans-Serif" font-size="10.00">+</text>
<text text-anchor="start" x="153.5" y="-554.5" font-family="Helvetica,sans-Serif" font-size="10.00">getrutaImatge()</text>
<text text-anchor="start" x="143.5" y="-538.5" font-family="Helvetica,sans-Serif" font-size="10.00">+</text>
<text text-anchor="start" x="153.5" y="-538.5" font-family="Helvetica,sans-Serif" font-size="10.00">getNom()</text>
<text text-anchor="start" x="143.5" y="-522.5" font-family="Helvetica,sans-Serif" font-size="10.00">+</text>
<text text-anchor="start" x="153.5" y="-522.5" font-family="Helvetica,sans-Serif" font-size="10.00">getFitxes_actuals()</text>
<text text-anchor="start" x="143.5" y="-506.5" font-family="Helvetica,sans-Serif" font-size="10.00">+</text>
<text text-anchor="start" x="153.5" y="-506.5" font-family="Helvetica,sans-Serif" font-size="10.00">setFitxesActuals()</text>
<text text-anchor="start" x="143.5" y="-490.5" font-family="Helvetica,sans-Serif" font-size="10.00">+</text>
<text text-anchor="start" x="153.5" y="-490.5" font-family="Helvetica,sans-Serif" font-size="10.00">buidarFitxesJugador()</text>
<text text-anchor="start" x="143.5" y="-474.5" font-family="Helvetica,sans-Serif" font-size="10.00">+</text>
<text text-anchor="start" x="153.5" y="-474.5" font-family="Helvetica,sans-Serif" font-size="10.00">getPuntuacio_actual()</text>
<text text-anchor="start" x="143.5" y="-458.5" font-family="Helvetica,sans-Serif" font-size="10.00">+</text>
<text text-anchor="start" x="153.5" y="-458.5" font-family="Helvetica,sans-Serif" font-size="10.00">incrementar_puntuacio</text>
<text text-anchor="start" x="153.5" y="-446.5" font-family="Helvetica,sans-Serif" font-size="10.00">_actual()</text>
<text text-anchor="start" x="143.5" y="-430.5" font-family="Helvetica,sans-Serif" font-size="10.00">+</text>
<text text-anchor="start" x="153.5" y="-430.5" font-family="Helvetica,sans-Serif" font-size="10.00">afegirFitxa()</text>
<text text-anchor="start" x="143.5" y="-414.5" font-family="Helvetica,sans-Serif" font-size="10.00">+</text>
<text text-anchor="start" x="153.5" y="-414.5" font-family="Helvetica,sans-Serif" font-size="10.00">eliminarFitxa()</text>
<text text-anchor="start" x="143.5" y="-398.5" font-family="Helvetica,sans-Serif" font-size="10.00">+</text>
<text text-anchor="start" x="153.5" y="-398.5" font-family="Helvetica,sans-Serif" font-size="10.00">incrementarTornsPassatsConsecutius()</text>
<text text-anchor="start" x="143.5" y="-382.5" font-family="Helvetica,sans-Serif" font-size="10.00">+</text>
<text text-anchor="start" x="153.5" y="-382.5" font-family="Helvetica,sans-Serif" font-size="10.00">reiniciarTornsPassatsConsecutius()</text>
<text text-anchor="start" x="143.5" y="-366.5" font-family="Helvetica,sans-Serif" font-size="10.00">+</text>
<text text-anchor="start" x="153.5" y="-366.5" font-family="Helvetica,sans-Serif" font-size="10.00">getTornsPassatsConsecutius()</text>
<polygon fill="#666666" stroke="#666666" points="139.5,-726 139.5,-726 329.25,-726 329.25,-726 139.5,-726"/>
<polygon fill="#666666" stroke="#666666" points="139.5,-598 139.5,-598 151.5,-598 151.5,-598 139.5,-598"/>
<polygon fill="#666666" stroke="#666666" points="151.5,-598 151.5,-598 329.25,-598 329.25,-598 151.5,-598"/>
<polygon fill="none" stroke="#666666" points="139.5,-360 139.5,-744 329.25,-744 329.25,-360 139.5,-360"/>
</a>
</g>
</g>
<!-- Node4&#45;&gt;Node3 -->
<g id="edge3_Node000003_Node000004" class="edge">
<title>Node4&#45;&gt;Node3</title>
<g id="a_edge3_Node000003_Node000004"><a xlink:title=" ">
<path fill="none" stroke="#63b8ff" d="M234.38,-360.08C234.38,-344.29 234.38,-328.43 234.38,-312.89"/>
<polygon fill="none" stroke="#63b8ff" points="234.38,-312.82 230.38,-306.82 234.38,-300.82 238.38,-306.82 234.38,-312.82"/>
</a>
</g>
<text text-anchor="middle" x="255.75" y="-332.5" font-family="Helvetica,sans-Serif" font-size="10.00" fill="grey"> &#45;jugador1</text>
<text text-anchor="middle" x="255.75" y="-320.5" font-family="Helvetica,sans-Serif" font-size="10.00" fill="grey">&#45;jugador2</text>
</g>
<!-- Node5 -->
<g id="Node000005" class="node">
<title>Node5</title>
<g id="a_Node000005"><a xlink:href="classdomini_1_1scrabble_1_1_taulell.html" target="_top" xlink:title="Representa el Taulell d&#39;Scrabble.">
<polygon fill="white" stroke="none" points="453.88,-666 346.88,-666 346.88,-438 453.88,-438 453.88,-666"/>
<text text-anchor="start" x="350.88" y="-652.5" font-family="Helvetica,sans-Serif" font-size="10.00">domini.scrabble.Taulell</text>
<text text-anchor="start" x="353.44" y="-636.5" font-family="Helvetica,sans-Serif" font-size="10.00">~</text>
<text text-anchor="start" x="366" y="-636.5" font-family="Helvetica,sans-Serif" font-size="10.00">n</text>
<text text-anchor="start" x="353.44" y="-620.5" font-family="Helvetica,sans-Serif" font-size="10.00">+</text>
<text text-anchor="start" x="366" y="-620.5" font-family="Helvetica,sans-Serif" font-size="10.00">Taulell()</text>
<text text-anchor="start" x="353.44" y="-604.5" font-family="Helvetica,sans-Serif" font-size="10.00">+</text>
<text text-anchor="start" x="366" y="-604.5" font-family="Helvetica,sans-Serif" font-size="10.00">getCasella()</text>
<text text-anchor="start" x="353.44" y="-588.5" font-family="Helvetica,sans-Serif" font-size="10.00">+</text>
<text text-anchor="start" x="366" y="-588.5" font-family="Helvetica,sans-Serif" font-size="10.00">getMida()</text>
<text text-anchor="start" x="353.44" y="-572.5" font-family="Helvetica,sans-Serif" font-size="10.00">+</text>
<text text-anchor="start" x="366" y="-572.5" font-family="Helvetica,sans-Serif" font-size="10.00">estaBuit()</text>
<text text-anchor="start" x="353.44" y="-556.5" font-family="Helvetica,sans-Serif" font-size="10.00">+</text>
<text text-anchor="start" x="366" y="-556.5" font-family="Helvetica,sans-Serif" font-size="10.00">limits()</text>
<text text-anchor="start" x="353.44" y="-540.5" font-family="Helvetica,sans-Serif" font-size="10.00">+</text>
<text text-anchor="start" x="366" y="-540.5" font-family="Helvetica,sans-Serif" font-size="10.00">getAnchors()</text>
<text text-anchor="start" x="353.44" y="-524.5" font-family="Helvetica,sans-Serif" font-size="10.00">+</text>
<text text-anchor="start" x="366" y="-524.5" font-family="Helvetica,sans-Serif" font-size="10.00">transpose()</text>
<text text-anchor="start" x="353.44" y="-508.5" font-family="Helvetica,sans-Serif" font-size="10.00">+</text>
<text text-anchor="start" x="366" y="-508.5" font-family="Helvetica,sans-Serif" font-size="10.00">setCasella()</text>
<text text-anchor="start" x="353.44" y="-492.5" font-family="Helvetica,sans-Serif" font-size="10.00">+</text>
<text text-anchor="start" x="366" y="-492.5" font-family="Helvetica,sans-Serif" font-size="10.00">inserirParaula()</text>
<text text-anchor="start" x="353.44" y="-476.5" font-family="Helvetica,sans-Serif" font-size="10.00">+</text>
<text text-anchor="start" x="366" y="-476.5" font-family="Helvetica,sans-Serif" font-size="10.00">getCentreTaulell()</text>
<text text-anchor="start" x="353.44" y="-460.5" font-family="Helvetica,sans-Serif" font-size="10.00">+</text>
<text text-anchor="start" x="366" y="-460.5" font-family="Helvetica,sans-Serif" font-size="10.00">print()</text>
<text text-anchor="start" x="354.94" y="-444.5" font-family="Helvetica,sans-Serif" font-size="10.00">&#45;</text>
<text text-anchor="start" x="366" y="-444.5" font-family="Helvetica,sans-Serif" font-size="10.00">calcularPuntatge()</text>
<polygon fill="#666666" stroke="#666666" points="346.88,-648 346.88,-648 453.88,-648 453.88,-648 346.88,-648"/>
<polygon fill="#666666" stroke="#666666" points="346.88,-632 346.88,-632 364,-632 364,-632 346.88,-632"/>
<polygon fill="#666666" stroke="#666666" points="364,-632 364,-632 453.88,-632 453.88,-632 364,-632"/>
<polygon fill="none" stroke="#666666" points="346.88,-438 346.88,-666 453.88,-666 453.88,-438 346.88,-438"/>
</a>
</g>
</g>
<!-- Node5&#45;&gt;Node3 -->
<g id="edge4_Node000003_Node000005" class="edge">
<title>Node5&#45;&gt;Node3</title>
<g id="a_edge4_Node000003_Node000005"><a xlink:title=" ">
<path fill="none" stroke="#63b8ff" d="M366.8,-438.15C358.24,-412.21 348.56,-384.93 338.38,-360 327.11,-332.42 313.74,-303.45 300.4,-276.16"/>
<polygon fill="none" stroke="#63b8ff" points="300.4,-276.15 294.16,-272.54 295.1,-265.39 301.34,-269 300.4,-276.15"/>
</a>
</g>
<text text-anchor="middle" x="344.26" y="-326.5" font-family="Helvetica,sans-Serif" font-size="10.00" fill="grey"> &#45;taulell</text>
</g>
<!-- Node6 -->
<g id="Node000006" class="node">
<title>Node6</title>
<g id="a_Node000006"><a xlink:href="classdomini_1_1scrabble_1_1_casella.html" target="_top" xlink:title="Representa una casella del tauler d&#39;Scrabble.">
<polygon fill="white" stroke="none" points="457.88,-1052 328.88,-1052 328.88,-792 457.88,-792 457.88,-1052"/>
<text text-anchor="start" x="341.25" y="-1038.5" font-family="Helvetica,sans-Serif" font-size="10.00">domini.scrabble.Casella</text>
<text text-anchor="start" x="334.38" y="-1022.5" font-family="Helvetica,sans-Serif" font-size="10.00">&#45;</text>
<text text-anchor="start" x="342.88" y="-1022.5" font-family="Helvetica,sans-Serif" font-size="10.00">cross_checks</text>
<text text-anchor="start" x="334.38" y="-1006.5" font-family="Helvetica,sans-Serif" font-size="10.00">&#45;</text>
<text text-anchor="start" x="342.88" y="-1006.5" font-family="Helvetica,sans-Serif" font-size="10.00">anchor</text>
<text text-anchor="start" x="332.88" y="-990.5" font-family="Helvetica,sans-Serif" font-size="10.00">+</text>
<text text-anchor="start" x="342.88" y="-990.5" font-family="Helvetica,sans-Serif" font-size="10.00">Casella()</text>
<text text-anchor="start" x="332.88" y="-974.5" font-family="Helvetica,sans-Serif" font-size="10.00">+</text>
<text text-anchor="start" x="342.88" y="-974.5" font-family="Helvetica,sans-Serif" font-size="10.00">setMultiplicador()</text>
<text text-anchor="start" x="332.88" y="-958.5" font-family="Helvetica,sans-Serif" font-size="10.00">+</text>
<text text-anchor="start" x="342.88" y="-958.5" font-family="Helvetica,sans-Serif" font-size="10.00">EstaOcupat()</text>
<text text-anchor="start" x="332.88" y="-942.5" font-family="Helvetica,sans-Serif" font-size="10.00">+</text>
<text text-anchor="start" x="342.88" y="-942.5" font-family="Helvetica,sans-Serif" font-size="10.00">afegirFitxa()</text>
<text text-anchor="start" x="332.88" y="-926.5" font-family="Helvetica,sans-Serif" font-size="10.00">+</text>
<text text-anchor="start" x="342.88" y="-926.5" font-family="Helvetica,sans-Serif" font-size="10.00">setAnchor()</text>
<text text-anchor="start" x="332.88" y="-910.5" font-family="Helvetica,sans-Serif" font-size="10.00">+</text>
<text text-anchor="start" x="342.88" y="-910.5" font-family="Helvetica,sans-Serif" font-size="10.00">isAnchor()</text>
<text text-anchor="start" x="332.88" y="-894.5" font-family="Helvetica,sans-Serif" font-size="10.00">+</text>
<text text-anchor="start" x="342.88" y="-894.5" font-family="Helvetica,sans-Serif" font-size="10.00">getCoord()</text>
<text text-anchor="start" x="332.88" y="-878.5" font-family="Helvetica,sans-Serif" font-size="10.00">+</text>
<text text-anchor="start" x="342.88" y="-878.5" font-family="Helvetica,sans-Serif" font-size="10.00">getMultiplicador()</text>
<text text-anchor="start" x="332.88" y="-862.5" font-family="Helvetica,sans-Serif" font-size="10.00">+</text>
<text text-anchor="start" x="342.88" y="-862.5" font-family="Helvetica,sans-Serif" font-size="10.00">getFitxa()</text>
<text text-anchor="start" x="332.88" y="-846.5" font-family="Helvetica,sans-Serif" font-size="10.00">+</text>
<text text-anchor="start" x="342.88" y="-846.5" font-family="Helvetica,sans-Serif" font-size="10.00">getCrossChecks()</text>
<text text-anchor="start" x="332.88" y="-830.5" font-family="Helvetica,sans-Serif" font-size="10.00">+</text>
<text text-anchor="start" x="342.88" y="-830.5" font-family="Helvetica,sans-Serif" font-size="10.00">actualitzarCrossChecks()</text>
<text text-anchor="start" x="332.88" y="-814.5" font-family="Helvetica,sans-Serif" font-size="10.00">+</text>
<text text-anchor="start" x="342.88" y="-814.5" font-family="Helvetica,sans-Serif" font-size="10.00">reiniciarCrossCheck()</text>
<text text-anchor="start" x="332.88" y="-798.5" font-family="Helvetica,sans-Serif" font-size="10.00">+</text>
<text text-anchor="start" x="342.88" y="-798.5" font-family="Helvetica,sans-Serif" font-size="10.00">retirarFitxa()</text>
<polygon fill="#666666" stroke="#666666" points="328.88,-1034 328.88,-1034 457.88,-1034 457.88,-1034 328.88,-1034"/>
<polygon fill="#666666" stroke="#666666" points="328.88,-1002 328.88,-1002 340.88,-1002 340.88,-1002 328.88,-1002"/>
<polygon fill="#666666" stroke="#666666" points="340.88,-1002 340.88,-1002 457.88,-1002 457.88,-1002 340.88,-1002"/>
<polygon fill="none" stroke="#666666" points="328.88,-792 328.88,-1052 457.88,-1052 457.88,-792 328.88,-792"/>
</a>
</g>
</g>
<!-- Node6&#45;&gt;Node5 -->
<g id="edge5_Node000005_Node000006" class="edge">
<title>Node6&#45;&gt;Node5</title>
<g id="a_edge5_Node000005_Node000006"><a xlink:title=" ">
<path fill="none" stroke="#63b8ff" d="M395.83,-792.03C396.53,-755.24 397.29,-715.22 397.99,-678.64"/>
<polygon fill="none" stroke="#63b8ff" points="397.98,-678.75 394.1,-672.67 398.21,-666.75 402.1,-672.83 397.98,-678.75"/>
</a>
</g>
<text text-anchor="middle" x="412" y="-764.5" font-family="Helvetica,sans-Serif" font-size="10.00" fill="grey"> &#45;taulell</text>
</g>
<!-- Node7 -->
<g id="Node000007" class="node">
<title>Node7</title>
<g id="a_Node000007"><a xlink:href="classdomini_1_1auxiliars_1_1_pair.html" target="_top" xlink:title=" ">
<polygon fill="white" stroke="none" points="308.25,-1260 212.5,-1260 212.5,-1100 308.25,-1100 308.25,-1260"/>
<text text-anchor="start" x="216.5" y="-1246.5" font-family="Helvetica,sans-Serif" font-size="10.00">domini.auxiliars.Pair</text>
<text text-anchor="start" x="218.38" y="-1234.5" font-family="Helvetica,sans-Serif" font-size="10.00">&lt; Integer, Integer &gt;</text>
<text text-anchor="start" x="224.31" y="-1218.5" font-family="Helvetica,sans-Serif" font-size="10.00">&#45;</text>
<text text-anchor="start" x="239.12" y="-1218.5" font-family="Helvetica,sans-Serif" font-size="10.00">first</text>
<text text-anchor="start" x="224.31" y="-1202.5" font-family="Helvetica,sans-Serif" font-size="10.00">&#45;</text>
<text text-anchor="start" x="239.12" y="-1202.5" font-family="Helvetica,sans-Serif" font-size="10.00">second</text>
<text text-anchor="start" x="222.81" y="-1186.5" font-family="Helvetica,sans-Serif" font-size="10.00">+</text>
<text text-anchor="start" x="239.12" y="-1186.5" font-family="Helvetica,sans-Serif" font-size="10.00">Pair()</text>
<text text-anchor="start" x="222.81" y="-1170.5" font-family="Helvetica,sans-Serif" font-size="10.00">+</text>
<text text-anchor="start" x="239.12" y="-1170.5" font-family="Helvetica,sans-Serif" font-size="10.00">Pair()</text>
<text text-anchor="start" x="222.81" y="-1154.5" font-family="Helvetica,sans-Serif" font-size="10.00">+</text>
<text text-anchor="start" x="239.12" y="-1154.5" font-family="Helvetica,sans-Serif" font-size="10.00">getFirst()</text>
<text text-anchor="start" x="222.81" y="-1138.5" font-family="Helvetica,sans-Serif" font-size="10.00">+</text>
<text text-anchor="start" x="239.12" y="-1138.5" font-family="Helvetica,sans-Serif" font-size="10.00">getSecond()</text>
<text text-anchor="start" x="222.81" y="-1122.5" font-family="Helvetica,sans-Serif" font-size="10.00">+</text>
<text text-anchor="start" x="239.12" y="-1122.5" font-family="Helvetica,sans-Serif" font-size="10.00">equals()</text>
<text text-anchor="start" x="222.81" y="-1106.5" font-family="Helvetica,sans-Serif" font-size="10.00">+</text>
<text text-anchor="start" x="239.12" y="-1106.5" font-family="Helvetica,sans-Serif" font-size="10.00">toString()</text>
<polygon fill="#666666" stroke="#666666" points="212.5,-1230 212.5,-1230 308.25,-1230 308.25,-1230 212.5,-1230"/>
<polygon fill="#666666" stroke="#666666" points="212.5,-1198 212.5,-1198 237.12,-1198 237.12,-1198 212.5,-1198"/>
<polygon fill="#666666" stroke="#666666" points="237.12,-1198 237.12,-1198 308.25,-1198 308.25,-1198 237.12,-1198"/>
<polygon fill="none" stroke="#666666" points="212.5,-1100 212.5,-1260 308.25,-1260 308.25,-1100 212.5,-1100"/>
</a>
</g>
</g>
<!-- Node7&#45;&gt;Node6 -->
<g id="edge6_Node000006_Node000007" class="edge">
<title>Node7&#45;&gt;Node6</title>
<g id="a_edge6_Node000006_Node000007"><a xlink:title=" ">
<path fill="none" stroke="#63b8ff" d="M301.36,-1100.1C308.29,-1086.77 315.65,-1072.6 323.08,-1058.31"/>
<polygon fill="none" stroke="#63b8ff" points="323.09,-1058.29 322.31,-1051.12 328.62,-1047.64 329.4,-1054.81 323.09,-1058.29"/>
</a>
</g>
<text text-anchor="middle" x="345.71" y="-1072.5" font-family="Helvetica,sans-Serif" font-size="10.00" fill="grey"> &#45;coordenades</text>
</g>
<!-- Node8 -->
<g id="Node000008" class="node">
<title>Node8</title>
<g id="a_Node000008"><a xlink:href="enumdomini_1_1scrabble_1_1_multiplicador.html" target="_top" xlink:title="Representa els diferents tipus de multiplicadors d&#39;Scrabble.">
<polygon fill="white" stroke="none" points="460.38,-1254 326.38,-1254 326.38,-1106 460.38,-1106 460.38,-1254"/>
<text text-anchor="start" x="330.38" y="-1240.5" font-family="Helvetica,sans-Serif" font-size="10.00">domini.scrabble.Multiplicador</text>
<text text-anchor="start" x="337.62" y="-1224.5" font-family="Helvetica,sans-Serif" font-size="10.00">+</text>
<text text-anchor="start" x="354.88" y="-1224.5" font-family="Helvetica,sans-Serif" font-size="10.00">CAP</text>
<text text-anchor="start" x="337.62" y="-1208.5" font-family="Helvetica,sans-Serif" font-size="10.00">+</text>
<text text-anchor="start" x="354.88" y="-1208.5" font-family="Helvetica,sans-Serif" font-size="10.00">DOBLE_LLETRA</text>
<text text-anchor="start" x="337.62" y="-1192.5" font-family="Helvetica,sans-Serif" font-size="10.00">+</text>
<text text-anchor="start" x="354.88" y="-1192.5" font-family="Helvetica,sans-Serif" font-size="10.00">TRIPLE_LLETRA</text>
<text text-anchor="start" x="337.62" y="-1176.5" font-family="Helvetica,sans-Serif" font-size="10.00">+</text>
<text text-anchor="start" x="354.88" y="-1176.5" font-family="Helvetica,sans-Serif" font-size="10.00">DOBLE_PARAULA</text>
<text text-anchor="start" x="337.62" y="-1160.5" font-family="Helvetica,sans-Serif" font-size="10.00">+</text>
<text text-anchor="start" x="354.88" y="-1160.5" font-family="Helvetica,sans-Serif" font-size="10.00">TRIPLE_PARAULA</text>
<text text-anchor="start" x="339.12" y="-1144.5" font-family="Helvetica,sans-Serif" font-size="10.00">&#45;</text>
<text text-anchor="start" x="354.88" y="-1144.5" font-family="Helvetica,sans-Serif" font-size="10.00">multiplicador</text>
<text text-anchor="start" x="337.62" y="-1128.5" font-family="Helvetica,sans-Serif" font-size="10.00">+</text>
<text text-anchor="start" x="354.88" y="-1128.5" font-family="Helvetica,sans-Serif" font-size="10.00">getMultiplicador()</text>
<text text-anchor="start" x="339.12" y="-1112.5" font-family="Helvetica,sans-Serif" font-size="10.00">&#45;</text>
<text text-anchor="start" x="354.88" y="-1112.5" font-family="Helvetica,sans-Serif" font-size="10.00">Multiplicador()</text>
<polygon fill="#666666" stroke="#666666" points="326.38,-1236 326.38,-1236 460.38,-1236 460.38,-1236 326.38,-1236"/>
<polygon fill="#666666" stroke="#666666" points="326.38,-1140 326.38,-1140 352.88,-1140 352.88,-1140 326.38,-1140"/>
<polygon fill="#666666" stroke="#666666" points="352.88,-1140 352.88,-1140 460.38,-1140 460.38,-1140 352.88,-1140"/>
<polygon fill="none" stroke="#666666" points="326.38,-1106 326.38,-1254 460.38,-1254 460.38,-1106 326.38,-1106"/>
</a>
</g>
</g>
<!-- Node8&#45;&gt;Node6 -->
<g id="edge7_Node000006_Node000008" class="edge">
<title>Node8&#45;&gt;Node6</title>
<g id="a_edge7_Node000006_Node000008"><a xlink:title=" ">
<path fill="none" stroke="#63b8ff" d="M393.38,-1106.33C393.38,-1093.06 393.38,-1078.82 393.38,-1064.35"/>
<polygon fill="none" stroke="#63b8ff" points="393.38,-1064.49 389.38,-1058.49 393.38,-1052.49 397.38,-1058.49 393.38,-1064.49"/>
</a>
</g>
<text text-anchor="middle" x="423.75" y="-1072.5" font-family="Helvetica,sans-Serif" font-size="10.00" fill="grey"> &#45;multiplicador</text>
</g>
<!-- Node9 -->
<g id="Node000009" class="node">
<title>Node9</title>
<g id="a_Node000009"><a xlink:href="classdomini_1_1scrabble_1_1_fitxa.html" target="_top" xlink:title="Representa una fitxa d&#39;Scrabble.">
<polygon fill="white" stroke="none" points="579.88,-1254 478.88,-1254 478.88,-1106 579.88,-1106 579.88,-1254"/>
<text text-anchor="start" x="482.88" y="-1240.5" font-family="Helvetica,sans-Serif" font-size="10.00">domini.scrabble.Fitxa</text>
<text text-anchor="start" x="489.38" y="-1224.5" font-family="Helvetica,sans-Serif" font-size="10.00">&#45;</text>
<text text-anchor="start" x="502.88" y="-1224.5" font-family="Helvetica,sans-Serif" font-size="10.00">id</text>
<text text-anchor="start" x="489.38" y="-1208.5" font-family="Helvetica,sans-Serif" font-size="10.00">&#45;</text>
<text text-anchor="start" x="502.88" y="-1208.5" font-family="Helvetica,sans-Serif" font-size="10.00">lletra</text>
<text text-anchor="start" x="489.38" y="-1192.5" font-family="Helvetica,sans-Serif" font-size="10.00">&#45;</text>
<text text-anchor="start" x="502.88" y="-1192.5" font-family="Helvetica,sans-Serif" font-size="10.00">puntuacio</text>
<text text-anchor="start" x="487.88" y="-1176.5" font-family="Helvetica,sans-Serif" font-size="10.00">+</text>
<text text-anchor="start" x="502.88" y="-1176.5" font-family="Helvetica,sans-Serif" font-size="10.00">Fitxa()</text>
<text text-anchor="start" x="487.88" y="-1160.5" font-family="Helvetica,sans-Serif" font-size="10.00">+</text>
<text text-anchor="start" x="502.88" y="-1160.5" font-family="Helvetica,sans-Serif" font-size="10.00">getId()</text>
<text text-anchor="start" x="487.88" y="-1144.5" font-family="Helvetica,sans-Serif" font-size="10.00">+</text>
<text text-anchor="start" x="502.88" y="-1144.5" font-family="Helvetica,sans-Serif" font-size="10.00">getLletra()</text>
<text text-anchor="start" x="487.88" y="-1128.5" font-family="Helvetica,sans-Serif" font-size="10.00">+</text>
<text text-anchor="start" x="502.88" y="-1128.5" font-family="Helvetica,sans-Serif" font-size="10.00">getPuntuacio()</text>
<text text-anchor="start" x="487.88" y="-1112.5" font-family="Helvetica,sans-Serif" font-size="10.00">+</text>
<text text-anchor="start" x="502.88" y="-1112.5" font-family="Helvetica,sans-Serif" font-size="10.00">equals()</text>
<polygon fill="#666666" stroke="#666666" points="478.88,-1236 478.88,-1236 579.88,-1236 579.88,-1236 478.88,-1236"/>
<polygon fill="#666666" stroke="#666666" points="478.88,-1188 478.88,-1188 500.88,-1188 500.88,-1188 478.88,-1188"/>
<polygon fill="#666666" stroke="#666666" points="500.88,-1188 500.88,-1188 579.88,-1188 579.88,-1188 500.88,-1188"/>
<polygon fill="none" stroke="#666666" points="478.88,-1106 478.88,-1254 579.88,-1254 579.88,-1106 478.88,-1106"/>
</a>
</g>
</g>
<!-- Node9&#45;&gt;Node6 -->
<g id="edge8_Node000006_Node000009" class="edge">
<title>Node9&#45;&gt;Node6</title>
<g id="a_edge8_Node000006_Node000009"><a xlink:title=" ">
<path fill="none" stroke="#63b8ff" d="M490.77,-1106.33C482.33,-1090.44 473.14,-1073.15 463.89,-1055.74"/>
<polygon fill="none" stroke="#63b8ff" points="463.87,-1055.69 457.52,-1052.27 458.24,-1045.09 464.58,-1048.51 463.87,-1055.69"/>
</a>
</g>
<text text-anchor="middle" x="489.93" y="-1072.5" font-family="Helvetica,sans-Serif" font-size="10.00" fill="grey"> &#45;fitxa</text>
</g>
<!-- Node10 -->
<g id="Node000010" class="node">
<title>Node10</title>
<g id="a_Node000010"><a xlink:href="classdomini_1_1scrabble_1_1_bossa.html" target="_top" xlink:title="Representa la bossa de fitxes d&#39;Scrabble.">
<polygon fill="white" stroke="none" points="590.88,-642 483.88,-642 483.88,-462 590.88,-462 590.88,-642"/>
<text text-anchor="start" x="487.88" y="-628.5" font-family="Helvetica,sans-Serif" font-size="10.00">domini.scrabble.Bossa</text>
<text text-anchor="start" x="491.75" y="-612.5" font-family="Helvetica,sans-Serif" font-size="10.00">&#45;</text>
<text text-anchor="start" x="502.62" y="-612.5" font-family="Helvetica,sans-Serif" font-size="10.00">mapaPuntuacions</text>
<text text-anchor="start" x="490.25" y="-596.5" font-family="Helvetica,sans-Serif" font-size="10.00">+</text>
<text text-anchor="start" x="502.62" y="-596.5" font-family="Helvetica,sans-Serif" font-size="10.00">Bossa()</text>
<text text-anchor="start" x="490.25" y="-580.5" font-family="Helvetica,sans-Serif" font-size="10.00">+</text>
<text text-anchor="start" x="502.62" y="-580.5" font-family="Helvetica,sans-Serif" font-size="10.00">obtenirPuntuacio()</text>
<text text-anchor="start" x="490.25" y="-564.5" font-family="Helvetica,sans-Serif" font-size="10.00">+</text>
<text text-anchor="start" x="502.62" y="-564.5" font-family="Helvetica,sans-Serif" font-size="10.00">getIdFitxa()</text>
<text text-anchor="start" x="490.25" y="-548.5" font-family="Helvetica,sans-Serif" font-size="10.00">+</text>
<text text-anchor="start" x="502.62" y="-548.5" font-family="Helvetica,sans-Serif" font-size="10.00">agafarFitxa()</text>
<text text-anchor="start" x="490.25" y="-532.5" font-family="Helvetica,sans-Serif" font-size="10.00">+</text>
<text text-anchor="start" x="502.62" y="-532.5" font-family="Helvetica,sans-Serif" font-size="10.00">carregarFitxes()</text>
<text text-anchor="start" x="490.25" y="-516.5" font-family="Helvetica,sans-Serif" font-size="10.00">+</text>
<text text-anchor="start" x="502.62" y="-516.5" font-family="Helvetica,sans-Serif" font-size="10.00">clearBossa()</text>
<text text-anchor="start" x="490.25" y="-500.5" font-family="Helvetica,sans-Serif" font-size="10.00">+</text>
<text text-anchor="start" x="502.62" y="-500.5" font-family="Helvetica,sans-Serif" font-size="10.00">getMidaBossa()</text>
<text text-anchor="start" x="490.25" y="-484.5" font-family="Helvetica,sans-Serif" font-size="10.00">+</text>
<text text-anchor="start" x="502.62" y="-484.5" font-family="Helvetica,sans-Serif" font-size="10.00">afegirFitxaBossa()</text>
<text text-anchor="start" x="490.25" y="-468.5" font-family="Helvetica,sans-Serif" font-size="10.00">+</text>
<text text-anchor="start" x="502.62" y="-468.5" font-family="Helvetica,sans-Serif" font-size="10.00">getFitxes()</text>
<polygon fill="#666666" stroke="#666666" points="483.88,-624 483.88,-624 590.88,-624 590.88,-624 483.88,-624"/>
<polygon fill="#666666" stroke="#666666" points="483.88,-608 483.88,-608 500.62,-608 500.62,-608 483.88,-608"/>
<polygon fill="#666666" stroke="#666666" points="500.62,-608 500.62,-608 590.88,-608 590.88,-608 500.62,-608"/>
<polygon fill="none" stroke="#666666" points="483.88,-462 483.88,-642 590.88,-642 590.88,-462 483.88,-462"/>
</a>
</g>
</g>
<!-- Node10&#45;&gt;Node3 -->
<g id="edge9_Node000003_Node000010" class="edge">
<title>Node10&#45;&gt;Node3</title>
<g id="a_edge9_Node000003_Node000010"><a xlink:title=" ">
<path fill="none" stroke="#63b8ff" d="M512.53,-462.2C500.71,-428.48 484.47,-390.81 463.38,-360 420.28,-297.05 354.71,-239.74 304.76,-201.12"/>
<polygon fill="none" stroke="#63b8ff" points="304.92,-201.24 297.72,-200.78 295.39,-193.96 302.58,-194.42 304.92,-201.24"/>
</a>
</g>
<text text-anchor="middle" x="464.75" y="-326.5" font-family="Helvetica,sans-Serif" font-size="10.00" fill="grey"> &#45;bossa</text>
</g>
<!-- Node11 -->
<g id="Node000011" class="node">
<title>Node11</title>
<g id="a_Node000011"><a xlink:href="classdomini_1_1auxiliars_1_1_fast_delete_list.html" target="_top" xlink:title=" ">
<polygon fill="white" stroke="none" points="610.75,-1050 476,-1050 476,-794 610.75,-794 610.75,-1050"/>
<text text-anchor="start" x="480" y="-1036.5" font-family="Helvetica,sans-Serif" font-size="10.00">domini.auxiliars.FastDelete</text>
<text text-anchor="start" x="480" y="-1024.5" font-family="Helvetica,sans-Serif" font-size="10.00">List&lt; domini.scrabble.Fitxa &gt;</text>
<text text-anchor="start" x="491.38" y="-1008.5" font-family="Helvetica,sans-Serif" font-size="10.00">&#45;</text>
<text text-anchor="start" x="509.75" y="-1008.5" font-family="Helvetica,sans-Serif" font-size="10.00">list</text>
<text text-anchor="start" x="491.38" y="-992.5" font-family="Helvetica,sans-Serif" font-size="10.00">&#45;</text>
<text text-anchor="start" x="509.75" y="-992.5" font-family="Helvetica,sans-Serif" font-size="10.00">indexMap</text>
<text text-anchor="start" x="489.88" y="-976.5" font-family="Helvetica,sans-Serif" font-size="10.00">+</text>
<text text-anchor="start" x="509.75" y="-976.5" font-family="Helvetica,sans-Serif" font-size="10.00">FastDeleteList()</text>
<text text-anchor="start" x="489.88" y="-960.5" font-family="Helvetica,sans-Serif" font-size="10.00">+</text>
<text text-anchor="start" x="509.75" y="-960.5" font-family="Helvetica,sans-Serif" font-size="10.00">add()</text>
<text text-anchor="start" x="489.88" y="-944.5" font-family="Helvetica,sans-Serif" font-size="10.00">+</text>
<text text-anchor="start" x="509.75" y="-944.5" font-family="Helvetica,sans-Serif" font-size="10.00">remove()</text>
<text text-anchor="start" x="489.88" y="-928.5" font-family="Helvetica,sans-Serif" font-size="10.00">+</text>
<text text-anchor="start" x="509.75" y="-928.5" font-family="Helvetica,sans-Serif" font-size="10.00">addAll()</text>
<text text-anchor="start" x="489.88" y="-912.5" font-family="Helvetica,sans-Serif" font-size="10.00">+</text>
<text text-anchor="start" x="509.75" y="-912.5" font-family="Helvetica,sans-Serif" font-size="10.00">removeAt()</text>
<text text-anchor="start" x="489.88" y="-896.5" font-family="Helvetica,sans-Serif" font-size="10.00">+</text>
<text text-anchor="start" x="509.75" y="-896.5" font-family="Helvetica,sans-Serif" font-size="10.00">get()</text>
<text text-anchor="start" x="489.88" y="-880.5" font-family="Helvetica,sans-Serif" font-size="10.00">+</text>
<text text-anchor="start" x="509.75" y="-880.5" font-family="Helvetica,sans-Serif" font-size="10.00">clear()</text>
<text text-anchor="start" x="489.88" y="-864.5" font-family="Helvetica,sans-Serif" font-size="10.00">+</text>
<text text-anchor="start" x="509.75" y="-864.5" font-family="Helvetica,sans-Serif" font-size="10.00">size()</text>
<text text-anchor="start" x="489.88" y="-848.5" font-family="Helvetica,sans-Serif" font-size="10.00">+</text>
<text text-anchor="start" x="509.75" y="-848.5" font-family="Helvetica,sans-Serif" font-size="10.00">isEmpty()</text>
<text text-anchor="start" x="489.88" y="-832.5" font-family="Helvetica,sans-Serif" font-size="10.00">+</text>
<text text-anchor="start" x="509.75" y="-832.5" font-family="Helvetica,sans-Serif" font-size="10.00">contains()</text>
<text text-anchor="start" x="489.88" y="-816.5" font-family="Helvetica,sans-Serif" font-size="10.00">+</text>
<text text-anchor="start" x="509.75" y="-816.5" font-family="Helvetica,sans-Serif" font-size="10.00">toString()</text>
<text text-anchor="start" x="489.88" y="-800.5" font-family="Helvetica,sans-Serif" font-size="10.00">+</text>
<text text-anchor="start" x="509.75" y="-800.5" font-family="Helvetica,sans-Serif" font-size="10.00">rebuildIndexMap()</text>
<polygon fill="#666666" stroke="#666666" points="476,-1020 476,-1020 610.75,-1020 610.75,-1020 476,-1020"/>
<polygon fill="#666666" stroke="#666666" points="476,-988 476,-988 507.75,-988 507.75,-988 476,-988"/>
<polygon fill="#666666" stroke="#666666" points="507.75,-988 507.75,-988 610.75,-988 610.75,-988 507.75,-988"/>
<polygon fill="none" stroke="#666666" points="476,-794 476,-1050 610.75,-1050 610.75,-794 476,-794"/>
</a>
</g>
</g>
<!-- Node11&#45;&gt;Node10 -->
<g id="edge10_Node000010_Node000011" class="edge">
<title>Node11&#45;&gt;Node10</title>
<g id="a_edge10_Node000010_Node000011"><a xlink:title=" ">
<path fill="none" stroke="#63b8ff" d="M541.31,-794.1C540.56,-748.51 539.73,-697.74 539.03,-654.59"/>
<polygon fill="none" stroke="#63b8ff" points="539.03,-654.65 534.94,-648.72 538.84,-642.65 542.93,-648.59 539.03,-654.65"/>
</a>
</g>
<text text-anchor="middle" x="555.91" y="-764.5" font-family="Helvetica,sans-Serif" font-size="10.00" fill="grey"> &#45;fitxes</text>
</g>
</g>
</svg>
