<?xml version="1.0" encoding="UTF-8" standalone="no"?>
<!DOCTYPE svg PUBLIC "-//W3C//DTD SVG 1.1//EN"
 "http://www.w3.org/Graphics/SVG/1.1/DTD/svg11.dtd">
<!-- Generated by graphviz version 12.2.1 (20241206.2353)
 -->
<!-- Title: controladors.CtrlPersistencia.guardarUsuari Pages: 1 -->
<svg width="384pt" height="240pt"
 viewBox="0.00 0.00 383.50 240.00" xmlns="http://www.w3.org/2000/svg" xmlns:xlink="http://www.w3.org/1999/xlink">
<g id="graph0" class="graph" transform="scale(1 1) rotate(0) translate(4 236)">
<title>controladors.CtrlPersistencia.guardarUsuari</title>
<!-- Node1 -->
<g id="Node000001" class="node">
<title>Node1</title>
<g id="a_Node000001"><a xlink:title="Desa un usuari a l&#39;emmagatzematge persistent.">
<polygon fill="#999999" stroke="#666666" points="375.5,-132 198.25,-132 198.25,-100 375.5,-100 375.5,-132"/>
<text text-anchor="start" x="206.25" y="-118.5" font-family="Helvetica,sans-Serif" font-size="10.00">controladors.CtrlPersistencia.guardar</text>
<text text-anchor="middle" x="286.88" y="-106.5" font-family="Helvetica,sans-Serif" font-size="10.00">Usuari</text>
</a>
</g>
</g>
<!-- Node2 -->
<g id="Node000002" class="node">
<title>Node2</title>
<g id="a_Node000002"><a xlink:href="classcontroladors_1_1_ctrl_domini.html#a7ee797a2519cf4765bbbcf674836a1a6" target="_top" xlink:title="Crea un jugador associat a l&#39;usuari actiu.">
<polygon fill="white" stroke="#666666" points="152.88,-232 9.38,-232 9.38,-200 152.88,-200 152.88,-232"/>
<text text-anchor="start" x="17.38" y="-218.5" font-family="Helvetica,sans-Serif" font-size="10.00">controladors.CtrlDomini.crear</text>
<text text-anchor="middle" x="81.12" y="-206.5" font-family="Helvetica,sans-Serif" font-size="10.00">Jugador</text>
</a>
</g>
</g>
<!-- Node1&#45;&gt;Node2 -->
<g id="edge1_Node000001_Node000002" class="edge">
<title>Node1&#45;&gt;Node2</title>
<g id="a_edge1_Node000001_Node000002"><a xlink:title=" ">
<path fill="none" stroke="#63b8ff" d="M253.24,-138.82C228.98,-155.02 194.63,-176.39 162.25,-191 155.34,-194.12 147.94,-197 140.52,-199.61"/>
<polygon fill="#63b8ff" stroke="#63b8ff" points="255.08,-141.8 261.4,-133.3 251.16,-136 255.08,-141.8"/>
</a>
</g>
</g>
<!-- Node3 -->
<g id="Node000003" class="node">
<title>Node3</title>
<g id="a_Node000003"><a xlink:href="classcontroladors_1_1_ctrl_domini.html#a933ec9cfec1d13938e0237ca130dfd5b" target="_top" xlink:title="Crea un usuari.">
<polygon fill="white" stroke="#666666" points="152.88,-182 9.38,-182 9.38,-150 152.88,-150 152.88,-182"/>
<text text-anchor="start" x="17.38" y="-168.5" font-family="Helvetica,sans-Serif" font-size="10.00">controladors.CtrlDomini.crear</text>
<text text-anchor="middle" x="81.12" y="-156.5" font-family="Helvetica,sans-Serif" font-size="10.00">Usuari</text>
</a>
</g>
</g>
<!-- Node1&#45;&gt;Node3 -->
<g id="edge2_Node000001_Node000003" class="edge">
<title>Node1&#45;&gt;Node3</title>
<g id="a_edge2_Node000001_Node000003"><a xlink:title=" ">
<path fill="none" stroke="#63b8ff" d="M207.95,-135.12C188.57,-139.88 167.97,-144.93 149.16,-149.55"/>
<polygon fill="#63b8ff" stroke="#63b8ff" points="208.53,-138.58 217.41,-132.8 206.86,-131.79 208.53,-138.58"/>
</a>
</g>
</g>
<!-- Node4 -->
<g id="Node000004" class="node">
<title>Node4</title>
<g id="a_Node000004"><a xlink:href="classcontroladors_1_1_ctrl_domini.html#a6cfce66fee04b251667d4527c7f011e9" target="_top" xlink:title="Elimina un jugador registrat del sistema.">
<polygon fill="white" stroke="#666666" points="158.88,-132 3.38,-132 3.38,-100 158.88,-100 158.88,-132"/>
<text text-anchor="start" x="11.38" y="-118.5" font-family="Helvetica,sans-Serif" font-size="10.00">controladors.CtrlDomini.eliminar</text>
<text text-anchor="middle" x="81.12" y="-106.5" font-family="Helvetica,sans-Serif" font-size="10.00">Jugador</text>
</a>
</g>
</g>
<!-- Node1&#45;&gt;Node4 -->
<g id="edge3_Node000001_Node000004" class="edge">
<title>Node1&#45;&gt;Node4</title>
<g id="a_edge3_Node000001_Node000004"><a xlink:title=" ">
<path fill="none" stroke="#63b8ff" d="M186.72,-116C177.46,-116 168.17,-116 159.15,-116"/>
<polygon fill="#63b8ff" stroke="#63b8ff" points="186.47,-119.5 196.47,-116 186.47,-112.5 186.47,-119.5"/>
</a>
</g>
</g>
<!-- Node5 -->
<g id="Node000005" class="node">
<title>Node5</title>
<g id="a_Node000005"><a xlink:href="classcontroladors_1_1_ctrl_domini.html#a233e7ea2f0d9e991a6107dfaab6e106f" target="_top" xlink:title="Es guarda la partida actual.">
<polygon fill="white" stroke="#666666" points="158.12,-82 4.12,-82 4.12,-50 158.12,-50 158.12,-82"/>
<text text-anchor="start" x="12.12" y="-68.5" font-family="Helvetica,sans-Serif" font-size="10.00">controladors.CtrlDomini.guardar</text>
<text text-anchor="middle" x="81.12" y="-56.5" font-family="Helvetica,sans-Serif" font-size="10.00">Partida</text>
</a>
</g>
</g>
<!-- Node1&#45;&gt;Node5 -->
<g id="edge4_Node000001_Node000005" class="edge">
<title>Node1&#45;&gt;Node5</title>
<g id="a_edge4_Node000001_Node000005"><a xlink:title=" ">
<path fill="none" stroke="#63b8ff" d="M207.95,-96.88C188.57,-92.12 167.97,-87.07 149.16,-82.45"/>
<polygon fill="#63b8ff" stroke="#63b8ff" points="206.86,-100.21 217.41,-99.2 208.53,-93.42 206.86,-100.21"/>
</a>
</g>
</g>
<!-- Node6 -->
<g id="Node000006" class="node">
<title>Node6</title>
<g id="a_Node000006"><a xlink:href="classcontroladors_1_1_ctrl_domini.html#a8f8379a74fba56b9e4e82d4c5743360e" target="_top" xlink:title="Continuar partida.">
<polygon fill="white" stroke="#666666" points="162.25,-32 0,-32 0,0 162.25,0 162.25,-32"/>
<text text-anchor="start" x="8" y="-18.5" font-family="Helvetica,sans-Serif" font-size="10.00">controladors.CtrlDomini.reprendre</text>
<text text-anchor="middle" x="81.12" y="-6.5" font-family="Helvetica,sans-Serif" font-size="10.00">Partida</text>
</a>
</g>
</g>
<!-- Node1&#45;&gt;Node6 -->
<g id="edge5_Node000001_Node000006" class="edge">
<title>Node1&#45;&gt;Node6</title>
<g id="a_edge5_Node000001_Node000006"><a xlink:title=" ">
<path fill="none" stroke="#63b8ff" d="M253.24,-93.18C228.98,-76.98 194.63,-55.61 162.25,-41 155.34,-37.88 147.94,-35 140.52,-32.39"/>
<polygon fill="#63b8ff" stroke="#63b8ff" points="251.16,-96 261.4,-98.7 255.08,-90.2 251.16,-96"/>
</a>
</g>
</g>
</g>
</svg>
