<?xml version="1.0" encoding="UTF-8" standalone="no"?>
<!DOCTYPE svg PUBLIC "-//W3C//DTD SVG 1.1//EN"
 "http://www.w3.org/Graphics/SVG/1.1/DTD/svg11.dtd">
<!-- Generated by graphviz version 12.2.1 (20241206.2353)
 -->
<!-- Title: interficie.VistaConsultarNormes.VistaConsultarNormes Pages: 1 -->
<svg width="523pt" height="178pt"
 viewBox="0.00 0.00 523.25 178.00" xmlns="http://www.w3.org/2000/svg" xmlns:xlink="http://www.w3.org/1999/xlink">
<g id="graph0" class="graph" transform="scale(1 1) rotate(0) translate(4 174)">
<title>interficie.VistaConsultarNormes.VistaConsultarNormes</title>
<!-- Node1 -->
<g id="Node000001" class="node">
<title>Node1</title>
<g id="a_Node000001"><a xlink:title="Constructora.">
<polygon fill="#999999" stroke="#666666" points="152.5,-95 0,-95 0,-63 152.5,-63 152.5,-95"/>
<text text-anchor="start" x="8" y="-81.5" font-family="Helvetica,sans-Serif" font-size="10.00">interficie.VistaConsultar</text>
<text text-anchor="middle" x="76.25" y="-69.5" font-family="Helvetica,sans-Serif" font-size="10.00">Normes.VistaConsultarNormes</text>
</a>
</g>
</g>
<!-- Node1&#45;&gt;Node1 -->
<g id="edge8_Node000001_Node000001" class="edge">
<title>Node1&#45;&gt;Node1</title>
<g id="a_edge8_Node000001_Node000001"><a xlink:title=" ">
<path fill="none" stroke="#63b8ff" d="M45.21,-95.44C39.41,-104.58 49.76,-113 76.25,-113 90.74,-113 100.39,-110.48 105.23,-106.71"/>
<polygon fill="#63b8ff" stroke="#63b8ff" points="108.66,-107.4 107.02,-96.93 101.77,-106.14 108.66,-107.4"/>
</a>
</g>
</g>
<!-- Node2 -->
<g id="Node000002" class="node">
<title>Node2</title>
<g id="a_Node000002"><a xlink:href="$classinterficie_1_1_vista_consultar_normes.html#a390ada21ee0f0c9d86ac93df08c5716a" xlink:title="Llegeix les normes des del fitxer de text i les mostra amb estil HTML.">
<polygon fill="white" stroke="#666666" points="311.75,-157 188.5,-157 188.5,-125 311.75,-125 311.75,-157"/>
<text text-anchor="start" x="196.5" y="-143.5" font-family="Helvetica,sans-Serif" font-size="10.00">interficie.VistaConsultar</text>
<text text-anchor="middle" x="250.12" y="-131.5" font-family="Helvetica,sans-Serif" font-size="10.00">Normes.carregarNormes</text>
</a>
</g>
</g>
<!-- Node1&#45;&gt;Node2 -->
<g id="edge1_Node000001_Node000002" class="edge">
<title>Node1&#45;&gt;Node2</title>
<g id="a_edge1_Node000001_Node000002"><a xlink:title=" ">
<path fill="none" stroke="#63b8ff" d="M122.86,-95.45C144.41,-103.23 170.33,-112.58 193.07,-120.78"/>
<polygon fill="#63b8ff" stroke="#63b8ff" points="191.58,-123.96 202.18,-124.07 193.96,-117.38 191.58,-123.96"/>
</a>
</g>
</g>
<!-- Node4 -->
<g id="Node000004" class="node">
<title>Node4</title>
<g id="a_Node000004"><a xlink:href="$classinterficie_1_1_vista_consultar_normes.html#aa2b3d841acae7945dad388f04b002967" xlink:title="Inicialitza els components gràfics de la vista.">
<polygon fill="white" stroke="#666666" points="311,-95 189.25,-95 189.25,-63 311,-63 311,-95"/>
<text text-anchor="start" x="197.25" y="-81.5" font-family="Helvetica,sans-Serif" font-size="10.00">interficie.VistaConsultar</text>
<text text-anchor="middle" x="250.12" y="-69.5" font-family="Helvetica,sans-Serif" font-size="10.00">Normes.initComponents</text>
</a>
</g>
</g>
<!-- Node1&#45;&gt;Node4 -->
<g id="edge3_Node000001_Node000004" class="edge">
<title>Node1&#45;&gt;Node4</title>
<g id="a_edge3_Node000001_Node000004"><a xlink:title=" ">
<path fill="none" stroke="#63b8ff" d="M152.64,-72.3C160.85,-72.22 169.2,-72.24 177.37,-72.33"/>
<polygon fill="#63b8ff" stroke="#63b8ff" points="177.2,-75.83 187.25,-72.5 177.31,-68.83 177.2,-75.83"/>
</a>
</g>
</g>
<!-- Node3 -->
<g id="Node000003" class="node">
<title>Node3</title>
<g id="a_Node000003"><a xlink:href="$classinterficie_1_1_vista_consultar_normes.html#ad1a9a84d1daa2ec0cc320272d3752489" xlink:title="Mostra un missatge HTML alternatiu quan no es troba l&#39;arxiu de normes.">
<polygon fill="white" stroke="#666666" points="508.12,-170 354.88,-170 354.88,-138 508.12,-138 508.12,-170"/>
<text text-anchor="start" x="362.88" y="-156.5" font-family="Helvetica,sans-Serif" font-size="10.00">interficie.VistaConsultar</text>
<text text-anchor="middle" x="431.5" y="-144.5" font-family="Helvetica,sans-Serif" font-size="10.00">Normes.showFallbackMessage</text>
</a>
</g>
</g>
<!-- Node2&#45;&gt;Node3 -->
<g id="edge2_Node000002_Node000003" class="edge">
<title>Node2&#45;&gt;Node3</title>
<g id="a_edge2_Node000002_Node000003"><a xlink:title=" ">
<path fill="none" stroke="#63b8ff" d="M312.1,-145.42C322.1,-146.14 332.62,-146.91 343.11,-147.67"/>
<polygon fill="#63b8ff" stroke="#63b8ff" points="342.71,-151.15 352.93,-148.38 343.21,-144.16 342.71,-151.15"/>
</a>
</g>
</g>
<!-- Node4&#45;&gt;Node1 -->
<g id="edge7_Node000004_Node000001" class="edge">
<title>Node4&#45;&gt;Node1</title>
<g id="a_edge7_Node000004_Node000001"><a xlink:title=" ">
<path fill="none" stroke="#63b8ff" d="M188.77,-85.48C180.74,-85.65 172.39,-85.74 164.02,-85.75"/>
<polygon fill="#63b8ff" stroke="#63b8ff" points="164.16,-82.25 154.15,-85.71 164.14,-89.25 164.16,-82.25"/>
</a>
</g>
</g>
<!-- Node5 -->
<g id="Node000005" class="node">
<title>Node5</title>
<g id="a_Node000005"><a xlink:href="$classinterficie_1_1utils_1_1_tools.html#aad14ef36a2a433a18d49c46a83531892" xlink:title="Actualitza la imatge d&#39;un JLabel redimensionant&#45;la per adaptar&#45;se a les mides màximes indicades mante...">
<polygon fill="white" stroke="#666666" points="505.5,-120 357.5,-120 357.5,-88 505.5,-88 505.5,-120"/>
<text text-anchor="start" x="365.5" y="-106.5" font-family="Helvetica,sans-Serif" font-size="10.00">interficie.utils.Tools.actualitzar</text>
<text text-anchor="middle" x="431.5" y="-94.5" font-family="Helvetica,sans-Serif" font-size="10.00">Imatge</text>
</a>
</g>
</g>
<!-- Node4&#45;&gt;Node5 -->
<g id="edge4_Node000004_Node000005" class="edge">
<title>Node4&#45;&gt;Node5</title>
<g id="a_edge4_Node000004_Node000005"><a xlink:title=" ">
<path fill="none" stroke="#63b8ff" d="M311.35,-87.39C322.46,-88.94 334.24,-90.58 345.91,-92.21"/>
<polygon fill="#63b8ff" stroke="#63b8ff" points="345.15,-95.64 355.54,-93.55 346.12,-88.71 345.15,-95.64"/>
</a>
</g>
</g>
<!-- Node6 -->
<g id="Node000006" class="node">
<title>Node6</title>
<g id="a_Node000006"><a xlink:href="$classinterficie_1_1_vista_consultar_normes.html#a88dfdf548beb79bf8b7350c52bf4ac94" xlink:title="Crea un botó estilitzat amb comportament visual quan el ratolí entra i surt.">
<polygon fill="white" stroke="#666666" points="499.88,-70 363.12,-70 363.12,-38 499.88,-38 499.88,-70"/>
<text text-anchor="start" x="371.12" y="-56.5" font-family="Helvetica,sans-Serif" font-size="10.00">interficie.VistaConsultar</text>
<text text-anchor="middle" x="431.5" y="-44.5" font-family="Helvetica,sans-Serif" font-size="10.00">Normes.createStyledButton</text>
</a>
</g>
</g>
<!-- Node4&#45;&gt;Node6 -->
<g id="edge5_Node000004_Node000006" class="edge">
<title>Node4&#45;&gt;Node6</title>
<g id="a_edge5_Node000004_Node000006"><a xlink:title=" ">
<path fill="none" stroke="#63b8ff" d="M311.35,-70.61C324.23,-68.81 338.03,-66.89 351.5,-65.01"/>
<polygon fill="#63b8ff" stroke="#63b8ff" points="351.78,-68.5 361.2,-63.66 350.82,-61.57 351.78,-68.5"/>
</a>
</g>
</g>
<!-- Node7 -->
<g id="Node000007" class="node">
<title>Node7</title>
<g id="a_Node000007"><a xlink:href="$classcontroladors_1_1_ctrl_presentacio.html#a66901a833c124fd1acc592cea93f4e6d" xlink:title="Torna a la vista anterior a l&#39;actual.">
<polygon fill="white" stroke="#666666" points="515.25,-20 347.75,-20 347.75,0 515.25,0 515.25,-20"/>
<text text-anchor="middle" x="431.5" y="-6.5" font-family="Helvetica,sans-Serif" font-size="10.00">controladors.CtrlPresentacio.tornar</text>
</a>
</g>
</g>
<!-- Node4&#45;&gt;Node7 -->
<g id="edge6_Node000004_Node000007" class="edge">
<title>Node4&#45;&gt;Node7</title>
<g id="a_edge6_Node000004_Node000007"><a xlink:title=" ">
<path fill="none" stroke="#63b8ff" d="M278.19,-62.65C297.11,-51.81 323.28,-37.98 347.75,-29 353.37,-26.94 359.29,-25.05 365.28,-23.34"/>
<polygon fill="#63b8ff" stroke="#63b8ff" points="365.86,-26.81 374.6,-20.83 364.04,-20.05 365.86,-26.81"/>
</a>
</g>
</g>
</g>
</svg>
