<?xml version="1.0" encoding="UTF-8" standalone="no"?>
<!DOCTYPE svg PUBLIC "-//W3C//DTD SVG 1.1//EN"
 "http://www.w3.org/Graphics/SVG/1.1/DTD/svg11.dtd">
<!-- Generated by graphviz version 12.2.1 (20241206.2353)
 -->
<!-- Title: interficie.VistaMenuPrincipal Pages: 1 -->
<svg width="140pt" height="404pt"
 viewBox="0.00 0.00 139.75 404.00" xmlns="http://www.w3.org/2000/svg" xmlns:xlink="http://www.w3.org/1999/xlink">
<g id="graph0" class="graph" transform="scale(1 1) rotate(0) translate(4 400)">
<title>interficie.VistaMenuPrincipal</title>
<!-- Node1 -->
<g id="Node000001" class="node">
<title>Node1</title>
<g id="a_Node000001"><a xlink:title="Classe que representa la finestra principal del menú de l&#39;aplicació Scrabble.">
<polygon fill="#999999" stroke="none" points="131.75,-308 0,-308 0,0 131.75,0 131.75,-308"/>
<text text-anchor="start" x="4" y="-294.5" font-family="Helvetica,sans-Serif" font-size="10.00">interficie.VistaMenuPrincipal</text>
<text text-anchor="start" x="9.38" y="-278.5" font-family="Helvetica,sans-Serif" font-size="10.00">&#45;</text>
<text text-anchor="start" x="21.75" y="-278.5" font-family="Helvetica,sans-Serif" font-size="10.00">panellPrincipal</text>
<text text-anchor="start" x="9.38" y="-262.5" font-family="Helvetica,sans-Serif" font-size="10.00">&#45;</text>
<text text-anchor="start" x="21.75" y="-262.5" font-family="Helvetica,sans-Serif" font-size="10.00">logo</text>
<text text-anchor="start" x="9.38" y="-246.5" font-family="Helvetica,sans-Serif" font-size="10.00">&#45;</text>
<text text-anchor="start" x="21.75" y="-246.5" font-family="Helvetica,sans-Serif" font-size="10.00">botoIniciar</text>
<text text-anchor="start" x="9.38" y="-230.5" font-family="Helvetica,sans-Serif" font-size="10.00">&#45;</text>
<text text-anchor="start" x="21.75" y="-230.5" font-family="Helvetica,sans-Serif" font-size="10.00">botoCrear</text>
<text text-anchor="start" x="9.38" y="-214.5" font-family="Helvetica,sans-Serif" font-size="10.00">&#45;</text>
<text text-anchor="start" x="21.75" y="-214.5" font-family="Helvetica,sans-Serif" font-size="10.00">botoNormes</text>
<text text-anchor="start" x="9.38" y="-198.5" font-family="Helvetica,sans-Serif" font-size="10.00">&#45;</text>
<text text-anchor="start" x="21.75" y="-198.5" font-family="Helvetica,sans-Serif" font-size="10.00">botoSortir</text>
<text text-anchor="start" x="9.38" y="-182.5" font-family="Helvetica,sans-Serif" font-size="10.00">&#45;</text>
<text text-anchor="start" x="21.75" y="-182.5" font-family="Helvetica,sans-Serif" font-size="10.00">WIDTH_BASE</text>
<text text-anchor="start" x="9.38" y="-166.5" font-family="Helvetica,sans-Serif" font-size="10.00">&#45;</text>
<text text-anchor="start" x="21.75" y="-166.5" font-family="Helvetica,sans-Serif" font-size="10.00">HEIGHT_BASE</text>
<text text-anchor="start" x="9.38" y="-150.5" font-family="Helvetica,sans-Serif" font-size="10.00">&#45;</text>
<text text-anchor="start" x="21.75" y="-150.5" font-family="Helvetica,sans-Serif" font-size="10.00">WIDTH_SORTIR</text>
<text text-anchor="start" x="9.38" y="-134.5" font-family="Helvetica,sans-Serif" font-size="10.00">&#45;</text>
<text text-anchor="start" x="21.75" y="-134.5" font-family="Helvetica,sans-Serif" font-size="10.00">HEIGHT_SORTIR</text>
<text text-anchor="start" x="9.38" y="-118.5" font-family="Helvetica,sans-Serif" font-size="10.00">&#45;</text>
<text text-anchor="start" x="21.75" y="-118.5" font-family="Helvetica,sans-Serif" font-size="10.00">OPT_X</text>
<text text-anchor="start" x="9.38" y="-102.5" font-family="Helvetica,sans-Serif" font-size="10.00">&#45;</text>
<text text-anchor="start" x="21.75" y="-102.5" font-family="Helvetica,sans-Serif" font-size="10.00">OPT_Y</text>
<text text-anchor="start" x="9.38" y="-86.5" font-family="Helvetica,sans-Serif" font-size="10.00">&#45;</text>
<text text-anchor="start" x="21.75" y="-86.5" font-family="Helvetica,sans-Serif" font-size="10.00">IMG_WIDTH</text>
<text text-anchor="start" x="9.38" y="-70.5" font-family="Helvetica,sans-Serif" font-size="10.00">&#45;</text>
<text text-anchor="start" x="21.75" y="-70.5" font-family="Helvetica,sans-Serif" font-size="10.00">IMG_HEIGTH</text>
<text text-anchor="start" x="9.38" y="-54.5" font-family="Helvetica,sans-Serif" font-size="10.00">&#45;</text>
<text text-anchor="start" x="21.75" y="-54.5" font-family="Helvetica,sans-Serif" font-size="10.00">icon</text>
<text text-anchor="start" x="7.88" y="-38.5" font-family="Helvetica,sans-Serif" font-size="10.00">+</text>
<text text-anchor="start" x="21.75" y="-38.5" font-family="Helvetica,sans-Serif" font-size="10.00">VistaMenuPrincipal()</text>
<text text-anchor="start" x="9.38" y="-22.5" font-family="Helvetica,sans-Serif" font-size="10.00">&#45;</text>
<text text-anchor="start" x="21.75" y="-22.5" font-family="Helvetica,sans-Serif" font-size="10.00">actualitzarImatge()</text>
<text text-anchor="start" x="9.38" y="-6.5" font-family="Helvetica,sans-Serif" font-size="10.00">&#45;</text>
<text text-anchor="start" x="21.75" y="-6.5" font-family="Helvetica,sans-Serif" font-size="10.00">escalarComponentes()</text>
<polygon fill="#666666" stroke="#666666" points="0,-290 0,-290 131.75,-290 131.75,-290 0,-290"/>
<polygon fill="#666666" stroke="#666666" points="0,-50 0,-50 19.75,-50 19.75,-50 0,-50"/>
<polygon fill="#666666" stroke="#666666" points="19.75,-50 19.75,-50 131.75,-50 131.75,-50 19.75,-50"/>
<polygon fill="none" stroke="#666666" points="0,0 0,-308 131.75,-308 131.75,0 0,0"/>
</a>
</g>
</g>
<!-- Node2 -->
<g id="Node000002" class="node">
<title>Node2</title>
<g id="a_Node000002"><a xlink:title=" ">
<polygon fill="white" stroke="none" points="86.38,-396 45.38,-396 45.38,-344 86.38,-344 86.38,-396"/>
<text text-anchor="start" x="49.38" y="-382.5" font-family="Helvetica,sans-Serif" font-size="10.00">JFrame</text>
<text text-anchor="start" x="64.38" y="-366.5" font-family="Helvetica,sans-Serif" font-size="10.00"> </text>
<text text-anchor="start" x="64.38" y="-350.5" font-family="Helvetica,sans-Serif" font-size="10.00"> </text>
<polygon fill="#666666" stroke="#666666" points="45.38,-378 45.38,-378 86.38,-378 86.38,-378 45.38,-378"/>
<polygon fill="#666666" stroke="#666666" points="45.38,-362 45.38,-362 86.38,-362 86.38,-362 45.38,-362"/>
<polygon fill="none" stroke="#666666" points="45.38,-344 45.38,-396 86.38,-396 86.38,-344 45.38,-344"/>
</a>
</g>
</g>
<!-- Node2&#45;&gt;Node1 -->
<g id="edge1_Node000001_Node000002" class="edge">
<title>Node2&#45;&gt;Node1</title>
<g id="a_edge1_Node000001_Node000002"><a xlink:title=" ">
<path fill="none" stroke="#63b8ff" d="M65.88,-332.61C65.88,-325.1 65.88,-316.75 65.88,-307.89"/>
<polygon fill="none" stroke="#63b8ff" points="62.38,-332.52 65.88,-342.52 69.38,-332.52 62.38,-332.52"/>
</a>
</g>
</g>
</g>
</svg>
