<?xml version="1.0" encoding="UTF-8" standalone="no"?>
<!DOCTYPE svg PUBLIC "-//W3C//DTD SVG 1.1//EN"
 "http://www.w3.org/Graphics/SVG/1.1/DTD/svg11.dtd">
<!-- Generated by graphviz version 12.2.1 (20241206.2353)
 -->
<!-- Title: interficie.VistaCrearAvatar.mostrarSelectorImagenes Pages: 1 -->
<svg width="345pt" height="58pt"
 viewBox="0.00 0.00 344.50 58.00" xmlns="http://www.w3.org/2000/svg" xmlns:xlink="http://www.w3.org/1999/xlink">
<g id="graph0" class="graph" transform="scale(1 1) rotate(0) translate(4 54)">
<title>interficie.VistaCrearAvatar.mostrarSelectorImagenes</title>
<!-- Node1 -->
<g id="Node000001" class="node">
<title>Node1</title>
<g id="a_Node000001"><a xlink:title="Mostra un diàleg modal per seleccionar la imatge de perfil de l&#39;usuari.">
<polygon fill="#999999" stroke="#666666" points="336.5,-32 169.75,-32 169.75,0 336.5,0 336.5,-32"/>
<text text-anchor="start" x="177.75" y="-18.5" font-family="Helvetica,sans-Serif" font-size="10.00">interficie.VistaCrearAvatar.mostrar</text>
<text text-anchor="middle" x="253.12" y="-6.5" font-family="Helvetica,sans-Serif" font-size="10.00">SelectorImagenes</text>
</a>
</g>
</g>
<!-- Node2 -->
<g id="Node000002" class="node">
<title>Node2</title>
<g id="a_Node000002"><a xlink:href="$classinterficie_1_1_vista_crear_avatar.html#ae0d9f95418da2ecb046e19ce8d9f8d0b" xlink:title="Constructor de la finestra VistaCrearAvatar.">
<polygon fill="white" stroke="#666666" points="133.75,-32 0,-32 0,0 133.75,0 133.75,-32"/>
<text text-anchor="start" x="8" y="-18.5" font-family="Helvetica,sans-Serif" font-size="10.00">interficie.VistaCrearAvatar.</text>
<text text-anchor="middle" x="66.88" y="-6.5" font-family="Helvetica,sans-Serif" font-size="10.00">VistaCrearAvatar</text>
</a>
</g>
</g>
<!-- Node1&#45;&gt;Node2 -->
<g id="edge1_Node000001_Node000002" class="edge">
<title>Node1&#45;&gt;Node2</title>
<g id="a_edge1_Node000001_Node000002"><a xlink:title=" ">
<path fill="none" stroke="#63b8ff" d="M157.99,-9.25C149.89,-9.26 141.82,-9.34 134.01,-9.49"/>
<polygon fill="#63b8ff" stroke="#63b8ff" points="157.91,-12.75 167.92,-9.28 157.93,-5.75 157.91,-12.75"/>
</a>
</g>
</g>
<!-- Node2&#45;&gt;Node1 -->
<g id="edge2_Node000002_Node000001" class="edge">
<title>Node2&#45;&gt;Node1</title>
<g id="a_edge2_Node000002_Node000001"><a xlink:title=" ">
<path fill="none" stroke="#63b8ff" d="M145.48,-22.67C153.4,-22.76 161.46,-22.77 169.43,-22.72"/>
<polygon fill="#63b8ff" stroke="#63b8ff" points="145.57,-19.18 135.52,-22.53 145.47,-26.18 145.57,-19.18"/>
</a>
</g>
</g>
<!-- Node2&#45;&gt;Node2 -->
<g id="edge3_Node000002_Node000002" class="edge">
<title>Node2&#45;&gt;Node2</title>
<g id="a_edge3_Node000002_Node000002"><a xlink:title=" ">
<path fill="none" stroke="#63b8ff" d="M97.91,-43.71C92.74,-47.48 82.39,-50 66.88,-50 38.5,-50 27.42,-41.58 33.62,-32.44"/>
<polygon fill="#63b8ff" stroke="#63b8ff" points="101.34,-44.42 99.83,-33.93 94.47,-43.07 101.34,-44.42"/>
</a>
</g>
</g>
</g>
</svg>
