<?xml version="1.0" encoding="UTF-8" standalone="no"?>
<!DOCTYPE svg PUBLIC "-//W3C//DTD SVG 1.1//EN"
 "http://www.w3.org/Graphics/SVG/1.1/DTD/svg11.dtd">
<!-- Generated by graphviz version 12.2.1 (20241206.2353)
 -->
<!-- Title: interficie.VistaPartida.refrescarRack Pages: 1 -->
<svg width="1062pt" height="338pt"
 viewBox="0.00 0.00 1061.75 338.26" xmlns="http://www.w3.org/2000/svg" xmlns:xlink="http://www.w3.org/1999/xlink">
<g id="graph0" class="graph" transform="scale(1 1) rotate(0) translate(4 334.26)">
<title>interficie.VistaPartida.refrescarRack</title>
<!-- Node1 -->
<g id="Node000001" class="node">
<title>Node1</title>
<g id="a_Node000001"><a xlink:title="Actualitza la visualització del rack del jugador actual.">
<polygon fill="#999999" stroke="#666666" points="1053.75,-183.26 880.25,-183.26 880.25,-163.26 1053.75,-163.26 1053.75,-183.26"/>
<text text-anchor="middle" x="967" y="-169.76" font-family="Helvetica,sans-Serif" font-size="10.00">interficie.VistaPartida.refrescarRack</text>
</a>
</g>
</g>
<!-- Node2 -->
<g id="Node000002" class="node">
<title>Node2</title>
<g id="a_Node000002"><a xlink:href="$classinterficie_1_1_vista_partida.html#a7855e7a9cc41e1450c37054781ba6309" xlink:title="Inicialitza els components de la interfície gràfica.">
<polygon fill="white" stroke="#666666" points="844.25,-145.26 709,-145.26 709,-125.26 844.25,-125.26 844.25,-145.26"/>
<text text-anchor="middle" x="776.62" y="-131.76" font-family="Helvetica,sans-Serif" font-size="10.00">interficie.VistaPartida.initUI</text>
</a>
</g>
</g>
<!-- Node1&#45;&gt;Node2 -->
<g id="edge1_Node000001_Node000002" class="edge">
<title>Node1&#45;&gt;Node2</title>
<g id="a_edge1_Node000001_Node000002"><a xlink:title=" ">
<path fill="none" stroke="#63b8ff" d="M902.93,-160.53C879.05,-155.72 852.16,-150.29 829.43,-145.71"/>
<polygon fill="#63b8ff" stroke="#63b8ff" points="902.05,-163.93 912.54,-162.47 903.43,-157.06 902.05,-163.93"/>
</a>
</g>
</g>
<!-- Node3 -->
<g id="Node000003" class="node">
<title>Node3</title>
<g id="a_Node000003"><a xlink:href="$classinterficie_1_1_vista_partida.html#abce8626a6a3750affe851e1f8bea2cb3" xlink:title="Constructor de la classe VistaPartida.">
<polygon fill="white" stroke="#666666" points="673,-151.26 561,-151.26 561,-119.26 673,-119.26 673,-151.26"/>
<text text-anchor="start" x="569" y="-137.76" font-family="Helvetica,sans-Serif" font-size="10.00">interficie.VistaPartida.</text>
<text text-anchor="middle" x="617" y="-125.76" font-family="Helvetica,sans-Serif" font-size="10.00">VistaPartida</text>
</a>
</g>
</g>
<!-- Node1&#45;&gt;Node3 -->
<g id="edge20_Node000001_Node000003" class="edge">
<title>Node1&#45;&gt;Node3</title>
<g id="a_edge20_Node000001_Node000003"><a xlink:title=" ">
<path fill="none" stroke="#63b8ff" d="M868.66,-169.09C820.46,-166.26 761.5,-161.64 709,-154.26 697.33,-152.61 684.92,-150.36 673.14,-147.99"/>
<polygon fill="#63b8ff" stroke="#63b8ff" points="868.34,-172.58 878.52,-169.66 868.73,-165.59 868.34,-172.58"/>
</a>
</g>
</g>
<!-- Node6 -->
<g id="Node000006" class="node">
<title>Node6</title>
<g id="a_Node000006"><a xlink:href="$classinterficie_1_1_vista_partida.html#a485041b781e81c64fb5414207ff21d2a" xlink:title="Actualitza la informació de la partida.">
<polygon fill="white" stroke="#666666" points="150.25,-138.26 0,-138.26 0,-106.26 150.25,-106.26 150.25,-138.26"/>
<text text-anchor="start" x="8" y="-124.76" font-family="Helvetica,sans-Serif" font-size="10.00">interficie.VistaPartida.refrescar</text>
<text text-anchor="middle" x="75.12" y="-112.76" font-family="Helvetica,sans-Serif" font-size="10.00">Informacio</text>
</a>
</g>
</g>
<!-- Node1&#45;&gt;Node6 -->
<g id="edge19_Node000001_Node000006" class="edge">
<title>Node1&#45;&gt;Node6</title>
<g id="a_edge19_Node000001_Node000006"><a xlink:title=" ">
<path fill="none" stroke="#63b8ff" d="M944.67,-190.71C892.43,-231.61 752.5,-330.26 618,-330.26 618,-330.26 618,-330.26 447.75,-330.26 322.17,-330.26 292.29,-290.52 186.25,-223.26 147.69,-198.8 110.1,-160.23 90.37,-138.52"/>
<polygon fill="#63b8ff" stroke="#63b8ff" points="946.82,-193.46 952.47,-184.5 942.46,-187.99 946.82,-193.46"/>
</a>
</g>
</g>
<!-- Node2&#45;&gt;Node3 -->
<g id="edge2_Node000002_Node000003" class="edge">
<title>Node2&#45;&gt;Node3</title>
<g id="a_edge2_Node000002_Node000003"><a xlink:title=" ">
<path fill="none" stroke="#63b8ff" d="M697.53,-128.51C689.26,-128.5 680.97,-128.59 673.04,-128.79"/>
<polygon fill="#63b8ff" stroke="#63b8ff" points="697.24,-132 707.26,-128.57 697.29,-125 697.24,-132"/>
</a>
</g>
</g>
<!-- Node3&#45;&gt;Node2 -->
<g id="edge17_Node000003_Node000002" class="edge">
<title>Node3&#45;&gt;Node2</title>
<g id="a_edge17_Node000003_Node000002"><a xlink:title=" ">
<path fill="none" stroke="#63b8ff" d="M684.32,-141.93C692.41,-142.03 700.68,-142.03 708.78,-141.94"/>
<polygon fill="#63b8ff" stroke="#63b8ff" points="684.61,-138.44 674.55,-141.75 684.48,-145.43 684.61,-138.44"/>
</a>
</g>
</g>
<!-- Node3&#45;&gt;Node3 -->
<g id="edge18_Node000003_Node000003" class="edge">
<title>Node3&#45;&gt;Node3</title>
<g id="a_edge18_Node000003_Node000003"><a xlink:title=" ">
<path fill="none" stroke="#63b8ff" d="M643.6,-162.96C639.17,-166.74 630.3,-169.26 617,-169.26 592.68,-169.26 583.18,-160.84 588.5,-151.7"/>
<polygon fill="#63b8ff" stroke="#63b8ff" points="647.04,-163.63 645.25,-153.19 640.13,-162.47 647.04,-163.63"/>
</a>
</g>
</g>
<!-- Node4 -->
<g id="Node000004" class="node">
<title>Node4</title>
<g id="a_Node000004"><a xlink:href="$classinterficie_1_1_vista_partida.html#a6bd7550fc714ba5195c8b55ffe3d973c" xlink:title="Afegeix les fitxes d&#39;un jugador al seu rack.">
<polygon fill="white" stroke="#666666" points="516.75,-214.26 380.75,-214.26 380.75,-182.26 516.75,-182.26 516.75,-214.26"/>
<text text-anchor="start" x="388.75" y="-200.76" font-family="Helvetica,sans-Serif" font-size="10.00">interficie.VistaPartida.afegir</text>
<text text-anchor="middle" x="448.75" y="-188.76" font-family="Helvetica,sans-Serif" font-size="10.00">FitxesARack</text>
</a>
</g>
</g>
<!-- Node3&#45;&gt;Node4 -->
<g id="edge3_Node000003_Node000004" class="edge">
<title>Node3&#45;&gt;Node4</title>
<g id="a_edge3_Node000003_Node000004"><a xlink:title=" ">
<path fill="none" stroke="#63b8ff" d="M562.08,-155.69C539.73,-164.16 514.16,-173.85 493.07,-181.84"/>
<polygon fill="#63b8ff" stroke="#63b8ff" points="563.23,-159 571.34,-152.18 560.75,-152.45 563.23,-159"/>
</a>
</g>
</g>
<!-- Node7 -->
<g id="Node000007" class="node">
<title>Node7</title>
<g id="a_Node000007"><a xlink:href="$classinterficie_1_1_vista_partida.html#ae6809bc2e7efc03077c111367571f788" xlink:title="Afegeix maquetes al rack de l&#39;oponent.">
<polygon fill="white" stroke="#666666" points="516.75,-264.26 380.75,-264.26 380.75,-232.26 516.75,-232.26 516.75,-264.26"/>
<text text-anchor="start" x="388.75" y="-250.76" font-family="Helvetica,sans-Serif" font-size="10.00">interficie.VistaPartida.afegir</text>
<text text-anchor="middle" x="448.75" y="-238.76" font-family="Helvetica,sans-Serif" font-size="10.00">MaquetesARack</text>
</a>
</g>
</g>
<!-- Node3&#45;&gt;Node7 -->
<g id="edge11_Node000003_Node000007" class="edge">
<title>Node3&#45;&gt;Node7</title>
<g id="a_edge11_Node000003_Node000007"><a xlink:title=" ">
<path fill="none" stroke="#63b8ff" d="M595.8,-160.18C578.75,-179.76 552.75,-206.45 525,-223.26 519.7,-226.47 513.94,-229.32 508.04,-231.84"/>
<polygon fill="#63b8ff" stroke="#63b8ff" points="598.41,-162.52 602.22,-152.63 593.07,-157.98 598.41,-162.52"/>
</a>
</g>
</g>
<!-- Node8 -->
<g id="Node000008" class="node">
<title>Node8</title>
<g id="a_Node000008"><a xlink:href="$classinterficie_1_1_vista_partida.html#a8ebc9da2a2b927ba87ed97ad85ae44e8" xlink:title="Confirma l&#39;acció de guardar la partida.">
<polygon fill="white" stroke="#666666" points="525,-50.26 372.5,-50.26 372.5,-18.26 525,-18.26 525,-50.26"/>
<text text-anchor="start" x="380.5" y="-36.76" font-family="Helvetica,sans-Serif" font-size="10.00">interficie.VistaPartida.confirmar</text>
<text text-anchor="middle" x="448.75" y="-24.76" font-family="Helvetica,sans-Serif" font-size="10.00">Guardar</text>
</a>
</g>
</g>
<!-- Node3&#45;&gt;Node8 -->
<g id="edge13_Node000003_Node000008" class="edge">
<title>Node3&#45;&gt;Node8</title>
<g id="a_edge13_Node000003_Node000008"><a xlink:title=" ">
<path fill="none" stroke="#63b8ff" d="M589.78,-111.54C572.33,-96.6 548.38,-77.68 525,-64.26 516.22,-59.22 506.42,-54.64 496.88,-50.66"/>
<polygon fill="#63b8ff" stroke="#63b8ff" points="587.29,-114.02 597.13,-117.94 591.89,-108.74 587.29,-114.02"/>
</a>
</g>
</g>
<!-- Node9 -->
<g id="Node000009" class="node">
<title>Node9</title>
<g id="a_Node000009"><a xlink:href="$classinterficie_1_1_vista_partida.html#ab47b596fbbd6a79289d4b9d7f5b5e068" xlink:title="Crea un panell amb la informació d&#39;un jugador.">
<polygon fill="white" stroke="#666666" points="328.25,-138.26 194.5,-138.26 194.5,-106.26 328.25,-106.26 328.25,-138.26"/>
<text text-anchor="start" x="202.5" y="-124.76" font-family="Helvetica,sans-Serif" font-size="10.00">interficie.VistaPartida.crear</text>
<text text-anchor="middle" x="261.38" y="-112.76" font-family="Helvetica,sans-Serif" font-size="10.00">PanelJugador</text>
</a>
</g>
</g>
<!-- Node3&#45;&gt;Node9 -->
<g id="edge15_Node000003_Node000009" class="edge">
<title>Node3&#45;&gt;Node9</title>
<g id="a_edge15_Node000003_Node000009"><a xlink:title=" ">
<path fill="none" stroke="#63b8ff" d="M549.32,-132.81C486.13,-130.48 391.75,-127.01 328.68,-124.69"/>
<polygon fill="#63b8ff" stroke="#63b8ff" points="549.11,-136.3 559.23,-133.17 549.37,-129.3 549.11,-136.3"/>
</a>
</g>
</g>
<!-- Node5 -->
<g id="Node000005" class="node">
<title>Node5</title>
<g id="a_Node000005"><a xlink:href="$classinterficie_1_1_vista_partida.html#a0698d192124492ebfd8a3b029a6fa23c" xlink:title="Actualitza els racks dels jugadors.">
<polygon fill="white" stroke="#666666" points="336.5,-214.26 186.25,-214.26 186.25,-182.26 336.5,-182.26 336.5,-214.26"/>
<text text-anchor="start" x="194.25" y="-200.76" font-family="Helvetica,sans-Serif" font-size="10.00">interficie.VistaPartida.refrescar</text>
<text text-anchor="middle" x="261.38" y="-188.76" font-family="Helvetica,sans-Serif" font-size="10.00">RackJugadors</text>
</a>
</g>
</g>
<!-- Node4&#45;&gt;Node5 -->
<g id="edge4_Node000004_Node000005" class="edge">
<title>Node4&#45;&gt;Node5</title>
<g id="a_edge4_Node000004_Node000005"><a xlink:title=" ">
<path fill="none" stroke="#63b8ff" d="M368.93,-198.26C358.34,-198.26 347.5,-198.26 336.98,-198.26"/>
<polygon fill="#63b8ff" stroke="#63b8ff" points="368.79,-201.76 378.79,-198.26 368.79,-194.76 368.79,-201.76"/>
</a>
</g>
</g>
<!-- Node5&#45;&gt;Node2 -->
<g id="edge5_Node000005_Node000002" class="edge">
<title>Node5&#45;&gt;Node2</title>
<g id="a_edge5_Node000005_Node000002"><a xlink:title=" ">
<path fill="none" stroke="#63b8ff" d="M287.88,-222.26C308.8,-240.21 340.15,-263.29 372.5,-273.26 437.27,-293.22 459.36,-290.13 525,-273.26 624.58,-247.65 726.99,-173.23 762.54,-145.67"/>
<polygon fill="#63b8ff" stroke="#63b8ff" points="290.25,-219.69 280.44,-215.69 285.62,-224.94 290.25,-219.69"/>
</a>
</g>
</g>
<!-- Node5&#45;&gt;Node3 -->
<g id="edge10_Node000005_Node000003" class="edge">
<title>Node5&#45;&gt;Node3</title>
<g id="a_edge10_Node000005_Node000003"><a xlink:title=" ">
<path fill="none" stroke="#63b8ff" d="M342.76,-179.34C352.75,-177.19 362.85,-175.1 372.5,-173.26 436.8,-160.96 511.22,-149.79 560.69,-142.79"/>
<polygon fill="#63b8ff" stroke="#63b8ff" points="342.04,-175.91 333.02,-181.47 343.54,-182.75 342.04,-175.91"/>
</a>
</g>
</g>
<!-- Node5&#45;&gt;Node6 -->
<g id="edge6_Node000005_Node000006" class="edge">
<title>Node5&#45;&gt;Node6</title>
<g id="a_edge6_Node000005_Node000006"><a xlink:title=" ">
<path fill="none" stroke="#63b8ff" d="M209.87,-177.42C180.32,-165.23 143.53,-150.06 116.03,-138.71"/>
<polygon fill="#63b8ff" stroke="#63b8ff" points="208.42,-180.61 219,-181.19 211.09,-174.14 208.42,-180.61"/>
</a>
</g>
</g>
<!-- Node6&#45;&gt;Node2 -->
<g id="edge7_Node000006_Node000002" class="edge">
<title>Node6&#45;&gt;Node2</title>
<g id="a_edge7_Node000006_Node000002"><a xlink:title=" ">
<path fill="none" stroke="#63b8ff" d="M117.7,-100.82C173.78,-73.22 277.61,-26.73 372.5,-9.26 439.16,3.02 458.36,3.13 525,-9.26 594.3,-22.14 610.47,-33.72 673,-66.26 706.9,-83.9 743.27,-110.36 762.29,-124.86"/>
<polygon fill="#63b8ff" stroke="#63b8ff" points="116.22,-97.65 108.82,-105.23 119.33,-103.91 116.22,-97.65"/>
</a>
</g>
</g>
<!-- Node6&#45;&gt;Node3 -->
<g id="edge9_Node000006_Node000003" class="edge">
<title>Node6&#45;&gt;Node3</title>
<g id="a_edge9_Node000006_Node000003"><a xlink:title=" ">
<path fill="none" stroke="#63b8ff" d="M148.34,-103.45C160.9,-100.87 173.89,-98.64 186.25,-97.26 320.42,-82.22 478.7,-107.2 560.63,-123.29"/>
<polygon fill="#63b8ff" stroke="#63b8ff" points="147.97,-99.95 138.93,-105.47 149.44,-106.79 147.97,-99.95"/>
</a>
</g>
</g>
<!-- Node6&#45;&gt;Node6 -->
<g id="edge8_Node000006_Node000006" class="edge">
<title>Node6&#45;&gt;Node6</title>
<g id="a_edge8_Node000006_Node000006"><a xlink:title=" ">
<path fill="none" stroke="#63b8ff" d="M106.16,-149.96C100.99,-153.74 90.64,-156.26 75.12,-156.26 46.75,-156.26 35.67,-147.84 41.87,-138.7"/>
<polygon fill="#63b8ff" stroke="#63b8ff" points="109.59,-150.67 108.08,-140.18 102.72,-149.32 109.59,-150.67"/>
</a>
</g>
</g>
<!-- Node7&#45;&gt;Node5 -->
<g id="edge12_Node000007_Node000005" class="edge">
<title>Node7&#45;&gt;Node5</title>
<g id="a_edge12_Node000007_Node000005"><a xlink:title=" ">
<path fill="none" stroke="#63b8ff" d="M376.11,-228.93C358.7,-224.24 340.24,-219.26 323.37,-214.71"/>
<polygon fill="#63b8ff" stroke="#63b8ff" points="374.77,-232.2 385.33,-231.42 376.59,-225.44 374.77,-232.2"/>
</a>
</g>
</g>
<!-- Node8&#45;&gt;Node2 -->
<g id="edge14_Node000008_Node000002" class="edge">
<title>Node8&#45;&gt;Node2</title>
<g id="a_edge14_Node000008_Node000002"><a xlink:title=" ">
<path fill="none" stroke="#63b8ff" d="M513.43,-53.99C581.91,-75.22 688.18,-108.16 741.98,-124.83"/>
<polygon fill="#63b8ff" stroke="#63b8ff" points="514.81,-50.76 504.23,-51.14 512.74,-57.44 514.81,-50.76"/>
</a>
</g>
</g>
<!-- Node9&#45;&gt;Node6 -->
<g id="edge16_Node000009_Node000006" class="edge">
<title>Node9&#45;&gt;Node6</title>
<g id="a_edge16_Node000009_Node000006"><a xlink:title=" ">
<path fill="none" stroke="#63b8ff" d="M182.69,-122.26C172.05,-122.26 161.13,-122.26 150.55,-122.26"/>
<polygon fill="#63b8ff" stroke="#63b8ff" points="182.6,-125.76 192.6,-122.26 182.6,-118.76 182.6,-125.76"/>
</a>
</g>
</g>
</g>
</svg>
