<?xml version="1.0" encoding="UTF-8" standalone="no"?>
<!DOCTYPE svg PUBLIC "-//W3C//DTD SVG 1.1//EN"
 "http://www.w3.org/Graphics/SVG/1.1/DTD/svg11.dtd">
<!-- Generated by graphviz version 12.2.1 (20241206.2353)
 -->
<!-- Title: domini.scrabble.Casella.EstaOcupat Pages: 1 -->
<svg width="1119pt" height="411pt"
 viewBox="0.00 0.00 1118.75 411.40" xmlns="http://www.w3.org/2000/svg" xmlns:xlink="http://www.w3.org/1999/xlink">
<g id="graph0" class="graph" transform="scale(1 1) rotate(0) translate(4 407.4)">
<title>domini.scrabble.Casella.EstaOcupat</title>
<!-- Node1 -->
<g id="Node000001" class="node">
<title>Node1</title>
<g id="a_Node000001"><a xlink:title="Comprova si la casella està ocupada per una fitxa.">
<polygon fill="#999999" stroke="#666666" points="1110.75,-227.4 987.5,-227.4 987.5,-195.4 1110.75,-195.4 1110.75,-227.4"/>
<text text-anchor="start" x="995.5" y="-213.9" font-family="Helvetica,sans-Serif" font-size="10.00">domini.scrabble.Casella.</text>
<text text-anchor="middle" x="1049.12" y="-201.9" font-family="Helvetica,sans-Serif" font-size="10.00">EstaOcupat</text>
</a>
</g>
</g>
<!-- Node2 -->
<g id="Node000002" class="node">
<title>Node2</title>
<g id="a_Node000002"><a xlink:href="classdomini_1_1scrabble_1_1_casella.html#ae94af6eaee262037bde9380a4c86ce7f" target="_top" xlink:title="Afegeix una fitxa a la casella.">
<polygon fill="white" stroke="#666666" points="941.38,-403.4 794.12,-403.4 794.12,-371.4 941.38,-371.4 941.38,-403.4"/>
<text text-anchor="start" x="802.12" y="-389.9" font-family="Helvetica,sans-Serif" font-size="10.00">domini.scrabble.Casella.afegir</text>
<text text-anchor="middle" x="867.75" y="-377.9" font-family="Helvetica,sans-Serif" font-size="10.00">Fitxa</text>
</a>
</g>
</g>
<!-- Node1&#45;&gt;Node2 -->
<g id="edge1_Node000001_Node000002" class="edge">
<title>Node1&#45;&gt;Node2</title>
<g id="a_edge1_Node000001_Node000002"><a xlink:title=" ">
<path fill="none" stroke="#63b8ff" d="M1036.94,-237.94C1021.99,-270.43 992.52,-325.11 951.5,-357.4 944.66,-362.79 936.76,-367.26 928.61,-370.97"/>
<polygon fill="#63b8ff" stroke="#63b8ff" points="1040.13,-239.38 1041.01,-228.83 1033.74,-236.53 1040.13,-239.38"/>
</a>
</g>
</g>
<!-- Node3 -->
<g id="Node000003" class="node">
<title>Node3</title>
<g id="a_Node000003"><a xlink:href="classcontroladors_1_1_ctrl_partida.html#ad0f7d5edb502bc4956cfd54612209ea7" target="_top" xlink:title="Col·loca una paraula al taulell.">
<polygon fill="white" stroke="#666666" points="533.62,-327.4 380.38,-327.4 380.38,-295.4 533.62,-295.4 533.62,-327.4"/>
<text text-anchor="start" x="388.38" y="-313.9" font-family="Helvetica,sans-Serif" font-size="10.00">controladors.CtrlPartida.colocar</text>
<text text-anchor="middle" x="457" y="-301.9" font-family="Helvetica,sans-Serif" font-size="10.00">Paraula</text>
</a>
</g>
</g>
<!-- Node1&#45;&gt;Node3 -->
<g id="edge2_Node000001_Node000003" class="edge">
<title>Node1&#45;&gt;Node3</title>
<g id="a_edge2_Node000001_Node000003"><a xlink:title=" ">
<path fill="none" stroke="#63b8ff" d="M1031.55,-237.01C1014.65,-260.55 986.03,-293.93 951.5,-308.4 812.61,-366.58 631.83,-346.29 532.14,-327.85"/>
<polygon fill="#63b8ff" stroke="#63b8ff" points="1034.39,-239.06 1037.21,-228.84 1028.64,-235.07 1034.39,-239.06"/>
</a>
</g>
</g>
<!-- Node4 -->
<g id="Node000004" class="node">
<title>Node4</title>
<g id="a_Node000004"><a xlink:href="classcontroladors_1_1_ctrl_partida.html#a11dd5c5c7252681872e3ba7baf8213a8" target="_top" xlink:title="Comprova si una paraula és vàlida.">
<polygon fill="white" stroke="#666666" points="748,-296.4 583.5,-296.4 583.5,-264.4 748,-264.4 748,-296.4"/>
<text text-anchor="start" x="591.5" y="-282.9" font-family="Helvetica,sans-Serif" font-size="10.00">controladors.CtrlPartida.comprova</text>
<text text-anchor="middle" x="665.75" y="-270.9" font-family="Helvetica,sans-Serif" font-size="10.00">_paraula</text>
</a>
</g>
</g>
<!-- Node1&#45;&gt;Node4 -->
<g id="edge3_Node000001_Node000004" class="edge">
<title>Node1&#45;&gt;Node4</title>
<g id="a_edge3_Node000001_Node000004"><a xlink:title=" ">
<path fill="none" stroke="#63b8ff" d="M1026.07,-235.59C1008.02,-253.47 980.77,-276.37 951.5,-286.4 885.78,-308.91 806.42,-304.91 748.2,-296.71"/>
<polygon fill="#63b8ff" stroke="#63b8ff" points="1028.14,-238.48 1032.63,-228.88 1023.14,-233.58 1028.14,-238.48"/>
</a>
</g>
</g>
<!-- Node5 -->
<g id="Node000005" class="node">
<title>Node5</title>
<g id="a_Node000005"><a xlink:href="classcontroladors_1_1_ctrl_partida.html#a55c08c7767d17dd7d8b4ae00d33b1fe7" target="_top" xlink:title="Comprova si una lletra és vàlida per a una casella que formi paraula transversal vertical.">
<polygon fill="white" stroke="#666666" points="951.5,-277.4 784,-277.4 784,-245.4 951.5,-245.4 951.5,-277.4"/>
<text text-anchor="start" x="792" y="-263.9" font-family="Helvetica,sans-Serif" font-size="10.00">controladors.CtrlPartida.comprovar</text>
<text text-anchor="middle" x="867.75" y="-251.9" font-family="Helvetica,sans-Serif" font-size="10.00">_noves_paraules</text>
</a>
</g>
</g>
<!-- Node1&#45;&gt;Node5 -->
<g id="edge5_Node000001_Node000005" class="edge">
<title>Node1&#45;&gt;Node5</title>
<g id="a_edge5_Node000001_Node000005"><a xlink:title=" ">
<path fill="none" stroke="#63b8ff" d="M978.57,-230.79C961.84,-235.45 944.13,-240.39 927.92,-244.91"/>
<polygon fill="#63b8ff" stroke="#63b8ff" points="979.24,-234.23 987.93,-228.18 977.36,-227.49 979.24,-234.23"/>
</a>
</g>
</g>
<!-- Node6 -->
<g id="Node000006" class="node">
<title>Node6</title>
<g id="a_Node000006"><a xlink:href="classdomini_1_1jugadors_1_1_maquina.html#a28fa4d863085aaaba920b95a47bf14b7" target="_top" xlink:title="Genera totes les paraules possibles a la dreta d&#39;una subparaula prefix.">
<polygon fill="white" stroke="#666666" points="743.88,-139.4 587.62,-139.4 587.62,-107.4 743.88,-107.4 743.88,-139.4"/>
<text text-anchor="start" x="595.62" y="-125.9" font-family="Helvetica,sans-Serif" font-size="10.00">domini.jugadors.Maquina.extend</text>
<text text-anchor="middle" x="665.75" y="-113.9" font-family="Helvetica,sans-Serif" font-size="10.00">Right</text>
</a>
</g>
</g>
<!-- Node1&#45;&gt;Node6 -->
<g id="edge7_Node000001_Node000006" class="edge">
<title>Node1&#45;&gt;Node6</title>
<g id="a_edge7_Node000001_Node000006"><a xlink:title=" ">
<path fill="none" stroke="#63b8ff" d="M976.24,-192.5C967.91,-190.4 959.53,-188.33 951.5,-186.4 912.54,-177.05 812.94,-155.19 742.55,-139.85"/>
<polygon fill="#63b8ff" stroke="#63b8ff" points="975.11,-195.82 985.66,-194.89 976.83,-189.04 975.11,-195.82"/>
</a>
</g>
</g>
<!-- Node7 -->
<g id="Node000007" class="node">
<title>Node7</title>
<g id="a_Node000007"><a xlink:href="classdomini_1_1jugadors_1_1_maquina.html#a408520f7aa4d96099ecfa1bae76728b5" target="_top" xlink:title="Genera totes les subparaules prefix possibles cap a l&#39;esquerra d&#39;una casella anchor.">
<polygon fill="white" stroke="#666666" points="547.5,-89.4 366.5,-89.4 366.5,-69.4 547.5,-69.4 547.5,-89.4"/>
<text text-anchor="middle" x="457" y="-75.9" font-family="Helvetica,sans-Serif" font-size="10.00">domini.jugadors.Maquina.generateLeft</text>
</a>
</g>
</g>
<!-- Node1&#45;&gt;Node7 -->
<g id="edge13_Node000001_Node000007" class="edge">
<title>Node1&#45;&gt;Node7</title>
<g id="a_edge13_Node000001_Node000007"><a xlink:title=" ">
<path fill="none" stroke="#63b8ff" d="M1034.22,-184.92C1018.3,-157.69 989.44,-116.77 951.5,-98.4 882.72,-65.1 670.46,-68.96 547.88,-74.38"/>
<polygon fill="#63b8ff" stroke="#63b8ff" points="1031.17,-186.63 1039.13,-193.63 1037.27,-183.2 1031.17,-186.63"/>
</a>
</g>
</g>
<!-- Node8 -->
<g id="Node000008" class="node">
<title>Node8</title>
<g id="a_Node000008"><a xlink:href="classdomini_1_1jugadors_1_1_maquina.html#afe864f5cb4ab5895e149c5aad0235400" target="_top" xlink:title="Busca la millor paraula en una direcció específica (horitzontal o vertical).">
<polygon fill="white" stroke="#666666" points="330.5,-76.4 174.25,-76.4 174.25,-44.4 330.5,-44.4 330.5,-76.4"/>
<text text-anchor="start" x="182.25" y="-62.9" font-family="Helvetica,sans-Serif" font-size="10.00">domini.jugadors.Maquina.search</text>
<text text-anchor="middle" x="252.38" y="-50.9" font-family="Helvetica,sans-Serif" font-size="10.00">BestWord</text>
</a>
</g>
</g>
<!-- Node1&#45;&gt;Node8 -->
<g id="edge14_Node000001_Node000008" class="edge">
<title>Node1&#45;&gt;Node8</title>
<g id="a_edge14_Node000001_Node000008"><a xlink:title=" ">
<path fill="none" stroke="#63b8ff" d="M1038.9,-184.63C1025.57,-150.62 997.38,-93.35 951.5,-68.4 740.41,46.42 437.58,-11.8 311.7,-43.91"/>
<polygon fill="#63b8ff" stroke="#63b8ff" points="1035.54,-185.63 1042.32,-193.77 1042.09,-183.18 1035.54,-185.63"/>
</a>
</g>
</g>
<!-- Node10 -->
<g id="Node000010" class="node">
<title>Node10</title>
<g id="a_Node000010"><a xlink:href="classcontroladors_1_1_ctrl_partida.html#ab2365dd846883b62c30985d553d5e0da" target="_top" xlink:title="Comprova si una paraula col·locada toca alguna lletra existent al taulell.">
<polygon fill="white" stroke="#666666" points="938,-227.4 797.5,-227.4 797.5,-195.4 938,-195.4 938,-227.4"/>
<text text-anchor="start" x="805.5" y="-213.9" font-family="Helvetica,sans-Serif" font-size="10.00">controladors.CtrlPartida.toca</text>
<text text-anchor="middle" x="867.75" y="-201.9" font-family="Helvetica,sans-Serif" font-size="10.00">Lletra</text>
</a>
</g>
</g>
<!-- Node1&#45;&gt;Node10 -->
<g id="edge15_Node000001_Node000010" class="edge">
<title>Node1&#45;&gt;Node10</title>
<g id="a_edge15_Node000001_Node000010"><a xlink:title=" ">
<path fill="none" stroke="#63b8ff" d="M975.89,-211.4C963.46,-211.4 950.56,-211.4 938.2,-211.4"/>
<polygon fill="#63b8ff" stroke="#63b8ff" points="975.63,-214.9 985.63,-211.4 975.63,-207.9 975.63,-214.9"/>
</a>
</g>
</g>
<!-- Node11 -->
<g id="Node000011" class="node">
<title>Node11</title>
<g id="a_Node000011"><a xlink:href="classdomini_1_1jugadors_1_1_maquina.html#a57c533590571f4918ebd03a0b0d4819b" target="_top" xlink:title="Comprova si una lletra és vàlida per a una casella que formi paraula transversal vertical.">
<polygon fill="white" stroke="#666666" points="941.38,-139.4 794.12,-139.4 794.12,-107.4 941.38,-107.4 941.38,-139.4"/>
<text text-anchor="start" x="802.12" y="-125.9" font-family="Helvetica,sans-Serif" font-size="10.00">domini.jugadors.Maquina.valid</text>
<text text-anchor="middle" x="867.75" y="-113.9" font-family="Helvetica,sans-Serif" font-size="10.00">_traversals</text>
</a>
</g>
</g>
<!-- Node1&#45;&gt;Node11 -->
<g id="edge17_Node000001_Node000011" class="edge">
<title>Node1&#45;&gt;Node11</title>
<g id="a_edge17_Node000001_Node000011"><a xlink:title=" ">
<path fill="none" stroke="#63b8ff" d="M1014.29,-188.89C996.14,-177.39 973.11,-163.69 951.5,-153.4 941.15,-148.47 929.76,-143.86 918.83,-139.8"/>
<polygon fill="#63b8ff" stroke="#63b8ff" points="1012.25,-191.74 1022.56,-194.2 1016.03,-185.85 1012.25,-191.74"/>
</a>
</g>
</g>
<!-- Node4&#45;&gt;Node3 -->
<g id="edge4_Node000004_Node000003" class="edge">
<title>Node4&#45;&gt;Node3</title>
<g id="a_edge4_Node000004_Node000003"><a xlink:title=" ">
<path fill="none" stroke="#63b8ff" d="M571.97,-294.31C559.3,-296.21 546.41,-298.14 534.07,-299.99"/>
<polygon fill="#63b8ff" stroke="#63b8ff" points="572.17,-297.82 581.54,-292.88 571.13,-290.9 572.17,-297.82"/>
</a>
</g>
</g>
<!-- Node5&#45;&gt;Node4 -->
<g id="edge6_Node000005_Node000004" class="edge">
<title>Node5&#45;&gt;Node4</title>
<g id="a_edge6_Node000005_Node000004"><a xlink:title=" ">
<path fill="none" stroke="#63b8ff" d="M772.35,-270.37C764.31,-271.13 756.22,-271.9 748.29,-272.65"/>
<polygon fill="#63b8ff" stroke="#63b8ff" points="772.54,-273.87 782.16,-269.44 771.88,-266.9 772.54,-273.87"/>
</a>
</g>
</g>
<!-- Node6&#45;&gt;Node6 -->
<g id="edge8_Node000006_Node000006" class="edge">
<title>Node6&#45;&gt;Node6</title>
<g id="a_edge8_Node000006_Node000006"><a xlink:title=" ">
<path fill="none" stroke="#63b8ff" d="M699.88,-150.78C694.44,-154.74 683.06,-157.4 665.75,-157.4 634.98,-157.4 622.96,-148.98 629.69,-139.84"/>
<polygon fill="#63b8ff" stroke="#63b8ff" points="703.26,-151.79 701.55,-141.33 696.36,-150.57 703.26,-151.79"/>
</a>
</g>
</g>
<!-- Node6&#45;&gt;Node7 -->
<g id="edge9_Node000006_Node000007" class="edge">
<title>Node6&#45;&gt;Node7</title>
<g id="a_edge9_Node000006_Node000007"><a xlink:title=" ">
<path fill="none" stroke="#63b8ff" d="M576.34,-104.58C552.71,-99.55 528.01,-94.3 507.32,-89.9"/>
<polygon fill="#63b8ff" stroke="#63b8ff" points="575.48,-107.98 585.99,-106.64 576.94,-101.13 575.48,-107.98"/>
</a>
</g>
</g>
<!-- Node7&#45;&gt;Node7 -->
<g id="edge10_Node000007_Node000007" class="edge">
<title>Node7&#45;&gt;Node7</title>
<g id="a_edge10_Node000007_Node000007"><a xlink:title=" ">
<path fill="none" stroke="#63b8ff" d="M493.55,-100.51C489.19,-104.54 477.01,-107.4 457,-107.4 421.43,-107.4 410.59,-98.38 424.49,-89.74"/>
<polygon fill="#63b8ff" stroke="#63b8ff" points="496.83,-99.29 490.04,-91.16 490.27,-101.75 496.83,-99.29"/>
</a>
</g>
</g>
<!-- Node7&#45;&gt;Node8 -->
<g id="edge11_Node000007_Node000008" class="edge">
<title>Node7&#45;&gt;Node8</title>
<g id="a_edge11_Node000007_Node000008"><a xlink:title=" ">
<path fill="none" stroke="#63b8ff" d="M354.8,-69.91C346.7,-69.15 338.59,-68.39 330.69,-67.65"/>
<polygon fill="#63b8ff" stroke="#63b8ff" points="354.45,-73.39 364.73,-70.84 355.1,-66.42 354.45,-73.39"/>
</a>
</g>
</g>
<!-- Node9 -->
<g id="Node000009" class="node">
<title>Node9</title>
<g id="a_Node000009"><a xlink:href="classdomini_1_1jugadors_1_1_maquina.html#a8b1f4889bc62ca862e4f87e55c66871e" target="_top" xlink:title="Busca la paraula amb la puntuació més alta donats un taulell i un diccionari.">
<polygon fill="white" stroke="#666666" points="138.25,-76.4 0,-76.4 0,-44.4 138.25,-44.4 138.25,-76.4"/>
<text text-anchor="start" x="8" y="-62.9" font-family="Helvetica,sans-Serif" font-size="10.00">domini.jugadors.Maquina.fer</text>
<text text-anchor="middle" x="69.12" y="-50.9" font-family="Helvetica,sans-Serif" font-size="10.00">Jugada</text>
</a>
</g>
</g>
<!-- Node8&#45;&gt;Node9 -->
<g id="edge12_Node000008_Node000009" class="edge">
<title>Node8&#45;&gt;Node9</title>
<g id="a_edge12_Node000008_Node000009"><a xlink:title=" ">
<path fill="none" stroke="#63b8ff" d="M162.64,-60.4C154.58,-60.4 146.51,-60.4 138.67,-60.4"/>
<polygon fill="#63b8ff" stroke="#63b8ff" points="162.47,-63.9 172.47,-60.4 162.47,-56.9 162.47,-63.9"/>
</a>
</g>
</g>
<!-- Node10&#45;&gt;Node4 -->
<g id="edge16_Node000010_Node000004" class="edge">
<title>Node10&#45;&gt;Node4</title>
<g id="a_edge16_Node000010_Node000004"><a xlink:title=" ">
<path fill="none" stroke="#63b8ff" d="M799.62,-231.27C794.32,-232.97 789.06,-234.69 784,-236.4 758.77,-244.93 730.84,-255.38 708.57,-263.95"/>
<polygon fill="#63b8ff" stroke="#63b8ff" points="800.57,-234.64 809.06,-228.3 798.47,-227.97 800.57,-234.64"/>
</a>
</g>
</g>
<!-- Node11&#45;&gt;Node6 -->
<g id="edge18_Node000011_Node000006" class="edge">
<title>Node11&#45;&gt;Node6</title>
<g id="a_edge18_Node000011_Node000006"><a xlink:title=" ">
<path fill="none" stroke="#63b8ff" d="M782.26,-123.4C769.67,-123.4 756.75,-123.4 744.32,-123.4"/>
<polygon fill="#63b8ff" stroke="#63b8ff" points="782.18,-126.9 792.18,-123.4 782.18,-119.9 782.18,-126.9"/>
</a>
</g>
</g>
</g>
</svg>
