<?xml version="1.0" encoding="UTF-8" standalone="no"?>
<!DOCTYPE svg PUBLIC "-//W3C//DTD SVG 1.1//EN"
 "http://www.w3.org/Graphics/SVG/1.1/DTD/svg11.dtd">
<!-- Generated by graphviz version 12.2.1 (20241206.2353)
 -->
<!-- Title: domini.scrabble.Fitxa.Fitxa Pages: 1 -->
<svg width="502pt" height="40pt"
 viewBox="0.00 0.00 502.25 40.00" xmlns="http://www.w3.org/2000/svg" xmlns:xlink="http://www.w3.org/1999/xlink">
<g id="graph0" class="graph" transform="scale(1 1) rotate(0) translate(4 36)">
<title>domini.scrabble.Fitxa.Fitxa</title>
<!-- Node1 -->
<g id="Node000001" class="node">
<title>Node1</title>
<g id="a_Node000001"><a xlink:title="Constructor de la classe Fitxa.">
<polygon fill="#999999" stroke="#666666" points="494.25,-26 360.5,-26 360.5,-6 494.25,-6 494.25,-26"/>
<text text-anchor="middle" x="427.38" y="-12.5" font-family="Helvetica,sans-Serif" font-size="10.00">domini.scrabble.Fitxa.Fitxa</text>
</a>
</g>
</g>
<!-- Node2 -->
<g id="Node000002" class="node">
<title>Node2</title>
<g id="a_Node000002"><a xlink:href="classdomini_1_1scrabble_1_1_fitxa.html#a71d279974b0e03a2865efc28229403ff" target="_top" xlink:title="Compara un objecte amb una instància de Fitxa.">
<polygon fill="white" stroke="#666666" points="324.5,-26 184,-26 184,-6 324.5,-6 324.5,-26"/>
<text text-anchor="middle" x="254.25" y="-12.5" font-family="Helvetica,sans-Serif" font-size="10.00">domini.scrabble.Fitxa.equals</text>
</a>
</g>
</g>
<!-- Node1&#45;&gt;Node2 -->
<g id="edge1_Node000001_Node000002" class="edge">
<title>Node1&#45;&gt;Node2</title>
<g id="a_edge1_Node000001_Node000002"><a xlink:title=" ">
<path fill="none" stroke="#63b8ff" d="M348.97,-16C340.96,-16 332.84,-16 324.92,-16"/>
<polygon fill="#63b8ff" stroke="#63b8ff" points="348.7,-19.5 358.7,-16 348.7,-12.5 348.7,-19.5"/>
</a>
</g>
</g>
<!-- Node3 -->
<g id="Node000003" class="node">
<title>Node3</title>
<g id="a_Node000003"><a xlink:href="classdomini_1_1scrabble_1_1_casella.html#aa5404796578555563e719f875b3b8239" target="_top" xlink:title="Treure fitxa de la casella.">
<polygon fill="white" stroke="#666666" points="148,-32 0,-32 0,0 148,0 148,-32"/>
<text text-anchor="start" x="8" y="-18.5" font-family="Helvetica,sans-Serif" font-size="10.00">domini.scrabble.Casella.retirar</text>
<text text-anchor="middle" x="74" y="-6.5" font-family="Helvetica,sans-Serif" font-size="10.00">Fitxa</text>
</a>
</g>
</g>
<!-- Node2&#45;&gt;Node3 -->
<g id="edge2_Node000002_Node000003" class="edge">
<title>Node2&#45;&gt;Node3</title>
<g id="a_edge2_Node000002_Node000003"><a xlink:title=" ">
<path fill="none" stroke="#63b8ff" d="M172.11,-16C164.23,-16 156.26,-16 148.46,-16"/>
<polygon fill="#63b8ff" stroke="#63b8ff" points="172.05,-19.5 182.05,-16 172.05,-12.5 172.05,-19.5"/>
</a>
</g>
</g>
</g>
</svg>
