<?xml version="1.0" encoding="UTF-8" standalone="no"?>
<!DOCTYPE svg PUBLIC "-//W3C//DTD SVG 1.1//EN"
 "http://www.w3.org/Graphics/SVG/1.1/DTD/svg11.dtd">
<!-- Generated by graphviz version 12.2.1 (20241206.2353)
 -->
<!-- Title: interficie.VistaCrearAvatar Pages: 1 -->
<svg width="211pt" height="469pt"
 viewBox="0.00 0.00 210.50 469.00" xmlns="http://www.w3.org/2000/svg" xmlns:xlink="http://www.w3.org/1999/xlink">
<g id="graph0" class="graph" transform="scale(1 1) rotate(0) translate(4 465)">
<title>interficie.VistaCrearAvatar</title>
<!-- Node1 -->
<g id="Node000001" class="node">
<title>Node1</title>
<g id="a_Node000001"><a xlink:title=" ">
<polygon fill="#999999" stroke="none" points="143.25,-244 0,-244 0,0 143.25,0 143.25,-244"/>
<text text-anchor="start" x="14.25" y="-230.5" font-family="Helvetica,sans-Serif" font-size="10.00">interficie.VistaCrearAvatar</text>
<text text-anchor="start" x="5.5" y="-214.5" font-family="Helvetica,sans-Serif" font-size="10.00">&#45;</text>
<text text-anchor="start" x="14" y="-214.5" font-family="Helvetica,sans-Serif" font-size="10.00">panellCrearAvatar</text>
<text text-anchor="start" x="5.5" y="-198.5" font-family="Helvetica,sans-Serif" font-size="10.00">&#45;</text>
<text text-anchor="start" x="14" y="-198.5" font-family="Helvetica,sans-Serif" font-size="10.00">labelLogo</text>
<text text-anchor="start" x="5.5" y="-182.5" font-family="Helvetica,sans-Serif" font-size="10.00">&#45;</text>
<text text-anchor="start" x="14" y="-182.5" font-family="Helvetica,sans-Serif" font-size="10.00">botoCrear</text>
<text text-anchor="start" x="5.5" y="-166.5" font-family="Helvetica,sans-Serif" font-size="10.00">&#45;</text>
<text text-anchor="start" x="14" y="-166.5" font-family="Helvetica,sans-Serif" font-size="10.00">botoTornar</text>
<text text-anchor="start" x="5.5" y="-150.5" font-family="Helvetica,sans-Serif" font-size="10.00">&#45;</text>
<text text-anchor="start" x="14" y="-150.5" font-family="Helvetica,sans-Serif" font-size="10.00">botoEscollirImatge</text>
<text text-anchor="start" x="5.5" y="-134.5" font-family="Helvetica,sans-Serif" font-size="10.00">&#45;</text>
<text text-anchor="start" x="14" y="-134.5" font-family="Helvetica,sans-Serif" font-size="10.00">botoEliminarImatge</text>
<text text-anchor="start" x="5.5" y="-118.5" font-family="Helvetica,sans-Serif" font-size="10.00">&#45;</text>
<text text-anchor="start" x="14" y="-118.5" font-family="Helvetica,sans-Serif" font-size="10.00">labelImagenSeleccionada</text>
<text text-anchor="start" x="5.5" y="-102.5" font-family="Helvetica,sans-Serif" font-size="10.00">&#45;</text>
<text text-anchor="start" x="14" y="-102.5" font-family="Helvetica,sans-Serif" font-size="10.00">formPanel</text>
<text text-anchor="start" x="5.5" y="-86.5" font-family="Helvetica,sans-Serif" font-size="10.00">&#45;</text>
<text text-anchor="start" x="14" y="-86.5" font-family="Helvetica,sans-Serif" font-size="10.00">rutaImatge</text>
<text text-anchor="start" x="5.5" y="-70.5" font-family="Helvetica,sans-Serif" font-size="10.00">&#45;</text>
<text text-anchor="start" x="14" y="-70.5" font-family="Helvetica,sans-Serif" font-size="10.00">IMATGES_PREDEFINIDES</text>
<text text-anchor="start" x="14" y="-54.5" font-family="Helvetica,sans-Serif" font-size="10.00">and 12 more...</text>
<text text-anchor="start" x="4" y="-38.5" font-family="Helvetica,sans-Serif" font-size="10.00">+</text>
<text text-anchor="start" x="14" y="-38.5" font-family="Helvetica,sans-Serif" font-size="10.00">VistaCrearAvatar()</text>
<text text-anchor="start" x="5.5" y="-22.5" font-family="Helvetica,sans-Serif" font-size="10.00">&#45;</text>
<text text-anchor="start" x="14" y="-22.5" font-family="Helvetica,sans-Serif" font-size="10.00">escalarComponentes()</text>
<text text-anchor="start" x="5.5" y="-6.5" font-family="Helvetica,sans-Serif" font-size="10.00">&#45;</text>
<text text-anchor="start" x="14" y="-6.5" font-family="Helvetica,sans-Serif" font-size="10.00">mostrarSelectorImagenes()</text>
<polygon fill="#666666" stroke="#666666" points="0,-226 0,-226 143.25,-226 143.25,-226 0,-226"/>
<polygon fill="#666666" stroke="#666666" points="0,-50 0,-50 12,-50 12,-50 0,-50"/>
<polygon fill="#666666" stroke="#666666" points="12,-50 12,-50 143.25,-50 143.25,-50 12,-50"/>
<polygon fill="none" stroke="#666666" points="0,0 0,-244 143.25,-244 143.25,0 0,0"/>
</a>
</g>
</g>
<!-- Node2 -->
<g id="Node000002" class="node">
<title>Node2</title>
<g id="a_Node000002"><a xlink:title=" ">
<polygon fill="white" stroke="none" points="59.12,-358 18.12,-358 18.12,-306 59.12,-306 59.12,-358"/>
<text text-anchor="start" x="22.12" y="-344.5" font-family="Helvetica,sans-Serif" font-size="10.00">JFrame</text>
<text text-anchor="start" x="37.12" y="-328.5" font-family="Helvetica,sans-Serif" font-size="10.00"> </text>
<text text-anchor="start" x="37.12" y="-312.5" font-family="Helvetica,sans-Serif" font-size="10.00"> </text>
<polygon fill="#666666" stroke="#666666" points="18.12,-340 18.12,-340 59.12,-340 59.12,-340 18.12,-340"/>
<polygon fill="#666666" stroke="#666666" points="18.12,-324 18.12,-324 59.12,-324 59.12,-324 18.12,-324"/>
<polygon fill="none" stroke="#666666" points="18.12,-306 18.12,-358 59.12,-358 59.12,-306 18.12,-306"/>
</a>
</g>
</g>
<!-- Node2&#45;&gt;Node1 -->
<g id="edge1_Node000001_Node000002" class="edge">
<title>Node2&#45;&gt;Node1</title>
<g id="a_edge1_Node000001_Node000002"><a xlink:title=" ">
<path fill="none" stroke="#63b8ff" d="M44.3,-295.24C46.64,-280.48 49.5,-262.44 52.48,-243.66"/>
<polygon fill="none" stroke="#63b8ff" points="40.89,-294.4 42.78,-304.83 47.8,-295.5 40.89,-294.4"/>
</a>
</g>
</g>
<!-- Node3 -->
<g id="Node000003" class="node">
<title>Node3</title>
<g id="a_Node000003"><a xlink:href="$classinterficie_1_1_vista_crear_avatar_1_1_placeholder_text_field.html" xlink:title="JTextField amb suport per a un text placeholder.">
<polygon fill="white" stroke="none" points="202.5,-372 76.75,-372 76.75,-292 202.5,-292 202.5,-372"/>
<text text-anchor="start" x="80.75" y="-358.5" font-family="Helvetica,sans-Serif" font-size="10.00">interficie.VistaCrearAvatar.</text>
<text text-anchor="start" x="94.25" y="-346.5" font-family="Helvetica,sans-Serif" font-size="10.00">PlaceholderTextField</text>
<text text-anchor="start" x="89.88" y="-330.5" font-family="Helvetica,sans-Serif" font-size="10.00">&#45;</text>
<text text-anchor="start" x="106" y="-330.5" font-family="Helvetica,sans-Serif" font-size="10.00">placeholder</text>
<text text-anchor="start" x="88.38" y="-314.5" font-family="Helvetica,sans-Serif" font-size="10.00">+</text>
<text text-anchor="start" x="106" y="-314.5" font-family="Helvetica,sans-Serif" font-size="10.00">setPlaceholder()</text>
<text text-anchor="start" x="88.75" y="-298.5" font-family="Helvetica,sans-Serif" font-size="10.00">#</text>
<text text-anchor="start" x="106" y="-298.5" font-family="Helvetica,sans-Serif" font-size="10.00">paintComponent()</text>
<polygon fill="#666666" stroke="#666666" points="76.75,-342 76.75,-342 202.5,-342 202.5,-342 76.75,-342"/>
<polygon fill="#666666" stroke="#666666" points="76.75,-326 76.75,-326 104,-326 104,-326 76.75,-326"/>
<polygon fill="#666666" stroke="#666666" points="104,-326 104,-326 202.5,-326 202.5,-326 104,-326"/>
<polygon fill="none" stroke="#666666" points="76.75,-292 76.75,-372 202.5,-372 202.5,-292 76.75,-292"/>
</a>
</g>
</g>
<!-- Node3&#45;&gt;Node1 -->
<g id="edge2_Node000001_Node000003" class="edge">
<title>Node3&#45;&gt;Node1</title>
<g id="a_edge2_Node000001_Node000003"><a xlink:title=" ">
<path fill="none" stroke="#63b8ff" d="M126.99,-292.36C123.44,-281.48 119.35,-268.99 115.05,-255.83"/>
<polygon fill="none" stroke="#63b8ff" points="115.06,-255.85 109.39,-251.39 111.33,-244.44 116.99,-248.9 115.06,-255.85"/>
</a>
</g>
<text text-anchor="middle" x="148.78" y="-264.5" font-family="Helvetica,sans-Serif" font-size="10.00" fill="grey"> &#45;campUsuari</text>
</g>
<!-- Node4 -->
<g id="Node000004" class="node">
<title>Node4</title>
<g id="a_Node000004"><a xlink:title=" ">
<polygon fill="white" stroke="none" points="166.12,-461 113.12,-461 113.12,-409 166.12,-409 166.12,-461"/>
<text text-anchor="start" x="117.12" y="-447.5" font-family="Helvetica,sans-Serif" font-size="10.00">JTextField</text>
<text text-anchor="start" x="138.12" y="-431.5" font-family="Helvetica,sans-Serif" font-size="10.00"> </text>
<text text-anchor="start" x="138.12" y="-415.5" font-family="Helvetica,sans-Serif" font-size="10.00"> </text>
<polygon fill="#666666" stroke="#666666" points="113.12,-443 113.12,-443 166.12,-443 166.12,-443 113.12,-443"/>
<polygon fill="#666666" stroke="#666666" points="113.12,-427 113.12,-427 166.12,-427 166.12,-427 113.12,-427"/>
<polygon fill="none" stroke="#666666" points="113.12,-409 113.12,-461 166.12,-461 166.12,-409 113.12,-409"/>
</a>
</g>
</g>
<!-- Node4&#45;&gt;Node3 -->
<g id="edge3_Node000003_Node000004" class="edge">
<title>Node4&#45;&gt;Node3</title>
<g id="a_edge3_Node000003_Node000004"><a xlink:title=" ">
<path fill="none" stroke="#63b8ff" d="M139.62,-397.66C139.62,-389.28 139.62,-380.32 139.62,-371.83"/>
<polygon fill="none" stroke="#63b8ff" points="136.13,-397.52 139.63,-407.52 143.13,-397.52 136.13,-397.52"/>
</a>
</g>
</g>
</g>
</svg>
