<?xml version="1.0" encoding="UTF-8" standalone="no"?>
<!DOCTYPE svg PUBLIC "-//W3C//DTD SVG 1.1//EN"
 "http://www.w3.org/Graphics/SVG/1.1/DTD/svg11.dtd">
<!-- Generated by graphviz version 12.2.1 (20241206.2353)
 -->
<!-- Title: interficie.VistaMenuJoc.eliminarPerfil Pages: 1 -->
<svg width="1005pt" height="632pt"
 viewBox="0.00 0.00 1005.25 632.31" xmlns="http://www.w3.org/2000/svg" xmlns:xlink="http://www.w3.org/1999/xlink">
<g id="graph0" class="graph" transform="scale(1 1) rotate(0) translate(4 628.31)">
<title>interficie.VistaMenuJoc.eliminarPerfil</title>
<!-- Node1 -->
<g id="Node000001" class="node">
<title>Node1</title>
<g id="a_Node000001"><a xlink:title="Lògica per eliminar el perfil.">
<polygon fill="#999999" stroke="#666666" points="154.75,-332 0,-332 0,-300 154.75,-300 154.75,-332"/>
<text text-anchor="start" x="8" y="-318.5" font-family="Helvetica,sans-Serif" font-size="10.00">interficie.VistaMenuJoc.eliminar</text>
<text text-anchor="middle" x="77.38" y="-306.5" font-family="Helvetica,sans-Serif" font-size="10.00">Perfil</text>
</a>
</g>
</g>
<!-- Node2 -->
<g id="Node000002" class="node">
<title>Node2</title>
<g id="a_Node000002"><a xlink:href="$classcontroladors_1_1_ctrl_presentacio.html#a6635d740d6fc762d245068684ba1f6bf" xlink:title="Elimina el perfil de l&#39;usuari actiu.">
<polygon fill="white" stroke="#666666" points="367.25,-400 190.75,-400 190.75,-368 367.25,-368 367.25,-400"/>
<text text-anchor="start" x="198.75" y="-386.5" font-family="Helvetica,sans-Serif" font-size="10.00">controladors.CtrlPresentacio.eliminar</text>
<text text-anchor="middle" x="279" y="-374.5" font-family="Helvetica,sans-Serif" font-size="10.00">Perfil</text>
</a>
</g>
</g>
<!-- Node1&#45;&gt;Node2 -->
<g id="edge1_Node000001_Node000002" class="edge">
<title>Node1&#45;&gt;Node2</title>
<g id="a_edge1_Node000001_Node000002"><a xlink:title=" ">
<path fill="none" stroke="#63b8ff" d="M118.9,-332.48C140.14,-340.87 166.68,-350.96 190.75,-359 196.12,-360.79 201.71,-362.58 207.34,-364.32"/>
<polygon fill="#63b8ff" stroke="#63b8ff" points="206.15,-367.61 216.73,-367.16 208.18,-360.91 206.15,-367.61"/>
</a>
</g>
</g>
<!-- Node3 -->
<g id="Node000003" class="node">
<title>Node3</title>
<g id="a_Node000003"><a xlink:href="$classinterficie_1_1_vista_menu_joc.html#afab63b4d82b26b00b711c7a5473d7707" xlink:title="Constructor de la classe VistaMenuJoc.">
<polygon fill="white" stroke="#666666" points="339.5,-332 218.5,-332 218.5,-300 339.5,-300 339.5,-332"/>
<text text-anchor="start" x="226.5" y="-318.5" font-family="Helvetica,sans-Serif" font-size="10.00">interficie.VistaMenuJoc.</text>
<text text-anchor="middle" x="279" y="-306.5" font-family="Helvetica,sans-Serif" font-size="10.00">VistaMenuJoc</text>
</a>
</g>
</g>
<!-- Node1&#45;&gt;Node3 -->
<g id="edge2_Node000001_Node000003" class="edge">
<title>Node1&#45;&gt;Node3</title>
<g id="a_edge2_Node000001_Node000003"><a xlink:title=" ">
<path fill="none" stroke="#63b8ff" d="M154.98,-309.41C171.96,-309.17 189.88,-309.2 206.63,-309.5"/>
<polygon fill="#63b8ff" stroke="#63b8ff" points="206.43,-313 216.51,-309.72 206.59,-306 206.43,-313"/>
</a>
</g>
</g>
<!-- Node3&#45;&gt;Node1 -->
<g id="edge13_Node000003_Node000001" class="edge">
<title>Node3&#45;&gt;Node1</title>
<g id="a_edge13_Node000003_Node000001"><a xlink:title=" ">
<path fill="none" stroke="#63b8ff" d="M218.02,-322.25C201.76,-322.68 183.82,-322.83 166.36,-322.71"/>
<polygon fill="#63b8ff" stroke="#63b8ff" points="166.53,-319.21 156.5,-322.6 166.46,-326.21 166.53,-319.21"/>
</a>
</g>
</g>
<!-- Node3&#45;&gt;Node3 -->
<g id="edge25_Node000003_Node000003" class="edge">
<title>Node3&#45;&gt;Node3</title>
<g id="a_edge25_Node000003_Node000003"><a xlink:title=" ">
<path fill="none" stroke="#63b8ff" d="M243,-332.44C236.29,-341.58 248.28,-350 279,-350 296.28,-350 307.63,-347.34 313.07,-343.38"/>
<polygon fill="#63b8ff" stroke="#63b8ff" points="316.44,-344.39 314.73,-333.93 309.55,-343.17 316.44,-344.39"/>
</a>
</g>
</g>
<!-- Node4 -->
<g id="Node000004" class="node">
<title>Node4</title>
<g id="a_Node000004"><a xlink:href="$classinterficie_1_1utils_1_1_tools.html#aad14ef36a2a433a18d49c46a83531892" xlink:title="Actualitza la imatge d&#39;un JLabel redimensionant&#45;la per adaptar&#45;se a les mides màximes indicades mante...">
<polygon fill="white" stroke="#666666" points="787.38,-454 639.38,-454 639.38,-422 787.38,-422 787.38,-454"/>
<text text-anchor="start" x="647.38" y="-440.5" font-family="Helvetica,sans-Serif" font-size="10.00">interficie.utils.Tools.actualitzar</text>
<text text-anchor="middle" x="713.38" y="-428.5" font-family="Helvetica,sans-Serif" font-size="10.00">Imatge</text>
</a>
</g>
</g>
<!-- Node3&#45;&gt;Node4 -->
<g id="edge3_Node000003_Node000004" class="edge">
<title>Node3&#45;&gt;Node4</title>
<g id="a_edge3_Node000003_Node000004"><a xlink:title=" ">
<path fill="none" stroke="#63b8ff" d="M333.41,-332.44C346.28,-338.8 358.75,-347.43 367.25,-359 429.01,-443.1 324.01,-523.11 403.25,-591 464.84,-643.77 512.35,-625.53 585.75,-591 641.69,-564.68 681.39,-500.18 700.15,-463.89"/>
<polygon fill="#63b8ff" stroke="#63b8ff" points="703.06,-465.89 704.41,-455.38 696.8,-462.75 703.06,-465.89"/>
</a>
</g>
</g>
<!-- Node5 -->
<g id="Node000005" class="node">
<title>Node5</title>
<g id="a_Node000005"><a xlink:href="$classcontroladors_1_1_ctrl_presentacio.html#a6d07d9d8fd5d53a00f29b8c4ad566d89" xlink:title="Canvia la vista actual a VistaConsultarAvatars.">
<polygon fill="white" stroke="#666666" points="581.62,-582 407.38,-582 407.38,-550 581.62,-550 581.62,-582"/>
<text text-anchor="start" x="415.38" y="-568.5" font-family="Helvetica,sans-Serif" font-size="10.00">controladors.CtrlPresentacio.canviar</text>
<text text-anchor="middle" x="494.5" y="-556.5" font-family="Helvetica,sans-Serif" font-size="10.00">ConsultarAvatars</text>
</a>
</g>
</g>
<!-- Node3&#45;&gt;Node5 -->
<g id="edge4_Node000003_Node000005" class="edge">
<title>Node3&#45;&gt;Node5</title>
<g id="a_edge4_Node000003_Node000005"><a xlink:title=" ">
<path fill="none" stroke="#63b8ff" d="M332.64,-332.45C345.67,-338.84 358.41,-347.47 367.25,-359 417.42,-424.44 347.17,-480.55 403.25,-541 403.62,-541.4 404,-541.8 404.39,-542.19"/>
<polygon fill="#63b8ff" stroke="#63b8ff" points="402.12,-544.85 412.05,-548.54 406.58,-539.46 402.12,-544.85"/>
</a>
</g>
</g>
<!-- Node6 -->
<g id="Node000006" class="node">
<title>Node6</title>
<g id="a_Node000006"><a xlink:href="$classcontroladors_1_1_ctrl_presentacio.html#ab855dc2f3b4843c43788473f2a300036" xlink:title="Canvia la vista actual a VistaConsultarEstadistiques.">
<polygon fill="white" stroke="#666666" points="581.62,-532 407.38,-532 407.38,-500 581.62,-500 581.62,-532"/>
<text text-anchor="start" x="415.38" y="-518.5" font-family="Helvetica,sans-Serif" font-size="10.00">controladors.CtrlPresentacio.canviar</text>
<text text-anchor="middle" x="494.5" y="-506.5" font-family="Helvetica,sans-Serif" font-size="10.00">ConsultarEstadistiques</text>
</a>
</g>
</g>
<!-- Node3&#45;&gt;Node6 -->
<g id="edge5_Node000003_Node000006" class="edge">
<title>Node3&#45;&gt;Node6</title>
<g id="a_edge5_Node000003_Node000006"><a xlink:title=" ">
<path fill="none" stroke="#63b8ff" d="M331.19,-332.44C344.53,-338.87 357.8,-347.53 367.25,-359 405.94,-405.92 360.34,-447.92 403.25,-491 403.75,-491.5 404.26,-492 404.78,-492.48"/>
<polygon fill="#63b8ff" stroke="#63b8ff" points="402.64,-495.25 412.7,-498.58 406.91,-489.71 402.64,-495.25"/>
</a>
</g>
</g>
<!-- Node7 -->
<g id="Node000007" class="node">
<title>Node7</title>
<g id="a_Node000007"><a xlink:href="$classcontroladors_1_1_ctrl_presentacio.html#ae7604c8efc594b900e294b7ef853be0d" xlink:title="Canvia la vista actual a VistaConsultarRanking.">
<polygon fill="white" stroke="#666666" points="581.62,-482 407.38,-482 407.38,-450 581.62,-450 581.62,-482"/>
<text text-anchor="start" x="415.38" y="-468.5" font-family="Helvetica,sans-Serif" font-size="10.00">controladors.CtrlPresentacio.canviar</text>
<text text-anchor="middle" x="494.5" y="-456.5" font-family="Helvetica,sans-Serif" font-size="10.00">ConsultarRanking</text>
</a>
</g>
</g>
<!-- Node3&#45;&gt;Node7 -->
<g id="edge6_Node000003_Node000007" class="edge">
<title>Node3&#45;&gt;Node7</title>
<g id="a_edge6_Node000003_Node000007"><a xlink:title=" ">
<path fill="none" stroke="#63b8ff" d="M327.87,-332.3C341.91,-338.87 356.39,-347.65 367.25,-359 394.77,-387.76 373.16,-414.95 403.25,-441 404.2,-441.82 405.18,-442.62 406.18,-443.39"/>
<polygon fill="#63b8ff" stroke="#63b8ff" points="404.18,-446.27 414.46,-448.83 408.02,-440.42 404.18,-446.27"/>
</a>
</g>
</g>
<!-- Node8 -->
<g id="Node000008" class="node">
<title>Node8</title>
<g id="a_Node000008"><a xlink:href="$classcontroladors_1_1_ctrl_presentacio.html#a3458c7f14b142196b4ca4798da2ad9a1" xlink:title="Canvia la vista actual a VistaCrearAvatar.">
<polygon fill="white" stroke="#666666" points="581.62,-432 407.38,-432 407.38,-400 581.62,-400 581.62,-432"/>
<text text-anchor="start" x="415.38" y="-418.5" font-family="Helvetica,sans-Serif" font-size="10.00">controladors.CtrlPresentacio.canviar</text>
<text text-anchor="middle" x="494.5" y="-406.5" font-family="Helvetica,sans-Serif" font-size="10.00">CrearAvatar</text>
</a>
</g>
</g>
<!-- Node3&#45;&gt;Node8 -->
<g id="edge7_Node000003_Node000008" class="edge">
<title>Node3&#45;&gt;Node8</title>
<g id="a_edge7_Node000003_Node000008"><a xlink:title=" ">
<path fill="none" stroke="#63b8ff" d="M319.03,-332.49C334.56,-339.75 352.26,-348.91 367.25,-359 385.01,-370.95 384.45,-380.77 403.25,-391 406.06,-392.53 408.97,-393.97 411.96,-395.33"/>
<polygon fill="#63b8ff" stroke="#63b8ff" points="410.34,-398.45 420.92,-399.06 413.03,-391.99 410.34,-398.45"/>
</a>
</g>
</g>
<!-- Node9 -->
<g id="Node000009" class="node">
<title>Node9</title>
<g id="a_Node000009"><a xlink:href="$classcontroladors_1_1_ctrl_presentacio.html#a57b6291aedc4d8df64f92df233c069fc" xlink:title="Canvia la vista actual a VistaCrearPartida.">
<polygon fill="white" stroke="#666666" points="581.62,-382 407.38,-382 407.38,-350 581.62,-350 581.62,-382"/>
<text text-anchor="start" x="415.38" y="-368.5" font-family="Helvetica,sans-Serif" font-size="10.00">controladors.CtrlPresentacio.canviar</text>
<text text-anchor="middle" x="494.5" y="-356.5" font-family="Helvetica,sans-Serif" font-size="10.00">CrearPartida</text>
</a>
</g>
</g>
<!-- Node3&#45;&gt;Node9 -->
<g id="edge8_Node000003_Node000009" class="edge">
<title>Node3&#45;&gt;Node9</title>
<g id="a_edge8_Node000003_Node000009"><a xlink:title=" ">
<path fill="none" stroke="#63b8ff" d="M339.76,-329.99C362.22,-335.26 388.16,-341.33 412.25,-346.97"/>
<polygon fill="#63b8ff" stroke="#63b8ff" points="411.16,-350.31 421.7,-349.18 412.76,-343.5 411.16,-350.31"/>
</a>
</g>
</g>
<!-- Node10 -->
<g id="Node000010" class="node">
<title>Node10</title>
<g id="a_Node000010"><a xlink:href="$classinterficie_1_1_vista_menu_joc.html#a75c64319a0877bfe1ea26fc51ac6f5c2" xlink:title="Configura el MouseListener per canviar colors al passar el ratolí.">
<polygon fill="white" stroke="#666666" points="576.38,-332 412.62,-332 412.62,-300 576.38,-300 576.38,-332"/>
<text text-anchor="start" x="420.62" y="-318.5" font-family="Helvetica,sans-Serif" font-size="10.00">interficie.VistaMenuJoc.configurar</text>
<text text-anchor="middle" x="494.5" y="-306.5" font-family="Helvetica,sans-Serif" font-size="10.00">MouseListener</text>
</a>
</g>
</g>
<!-- Node3&#45;&gt;Node10 -->
<g id="edge9_Node000003_Node000010" class="edge">
<title>Node3&#45;&gt;Node10</title>
<g id="a_edge9_Node000003_Node000010"><a xlink:title=" ">
<path fill="none" stroke="#63b8ff" d="M339.76,-316C358.7,-316 380.11,-316 400.8,-316"/>
<polygon fill="#63b8ff" stroke="#63b8ff" points="400.69,-319.5 410.69,-316 400.69,-312.5 400.69,-319.5"/>
</a>
</g>
</g>
<!-- Node11 -->
<g id="Node000011" class="node">
<title>Node11</title>
<g id="a_Node000011"><a xlink:href="$classcontroladors_1_1_ctrl_presentacio.html#a59bc024fc88c820d5e40a44298c5c0e9" xlink:title="Mostra la vista de consulta de normes del joc.">
<polygon fill="white" stroke="#666666" points="585.75,-282 403.25,-282 403.25,-250 585.75,-250 585.75,-282"/>
<text text-anchor="start" x="411.25" y="-268.5" font-family="Helvetica,sans-Serif" font-size="10.00">controladors.CtrlPresentacio.consultar</text>
<text text-anchor="middle" x="494.5" y="-256.5" font-family="Helvetica,sans-Serif" font-size="10.00">Normes</text>
</a>
</g>
</g>
<!-- Node3&#45;&gt;Node11 -->
<g id="edge10_Node000003_Node000011" class="edge">
<title>Node3&#45;&gt;Node11</title>
<g id="a_edge10_Node000003_Node000011"><a xlink:title=" ">
<path fill="none" stroke="#63b8ff" d="M339.76,-302.01C362.22,-296.74 388.16,-290.67 412.25,-285.03"/>
<polygon fill="#63b8ff" stroke="#63b8ff" points="412.76,-288.5 421.7,-282.82 411.16,-281.69 412.76,-288.5"/>
</a>
</g>
</g>
<!-- Node12 -->
<g id="Node000012" class="node">
<title>Node12</title>
<g id="a_Node000012"><a xlink:href="$classinterficie_1_1_vista_menu_joc.html#ac6f71c255275e13e9bad8d406c5600c3" xlink:title="Lògica per eliminar un avatar.">
<polygon fill="white" stroke="#666666" points="571.88,-182 417.12,-182 417.12,-150 571.88,-150 571.88,-182"/>
<text text-anchor="start" x="425.12" y="-168.5" font-family="Helvetica,sans-Serif" font-size="10.00">interficie.VistaMenuJoc.eliminar</text>
<text text-anchor="middle" x="494.5" y="-156.5" font-family="Helvetica,sans-Serif" font-size="10.00">Avatar</text>
</a>
</g>
</g>
<!-- Node3&#45;&gt;Node12 -->
<g id="edge11_Node000003_Node000012" class="edge">
<title>Node3&#45;&gt;Node12</title>
<g id="a_edge11_Node000003_Node000012"><a xlink:title=" ">
<path fill="none" stroke="#63b8ff" d="M291.64,-299.52C311.46,-272.69 354.38,-219.72 403.25,-191 405.7,-189.56 408.24,-188.2 410.84,-186.91"/>
<polygon fill="#63b8ff" stroke="#63b8ff" points="412.05,-190.2 419.76,-182.94 409.2,-183.81 412.05,-190.2"/>
</a>
</g>
</g>
<!-- Node14 -->
<g id="Node000014" class="node">
<title>Node14</title>
<g id="a_Node000014"><a xlink:href="$classinterficie_1_1_vista_menu_joc.html#ab3bcca3e7fed0b4d01a642012ff7ac8f" xlink:title="Escala tots els components gràfics en funció de la mida de la finestra.">
<polygon fill="white" stroke="#666666" points="570.75,-232 418.25,-232 418.25,-200 570.75,-200 570.75,-232"/>
<text text-anchor="start" x="426.25" y="-218.5" font-family="Helvetica,sans-Serif" font-size="10.00">interficie.VistaMenuJoc.escalar</text>
<text text-anchor="middle" x="494.5" y="-206.5" font-family="Helvetica,sans-Serif" font-size="10.00">Componentes</text>
</a>
</g>
</g>
<!-- Node3&#45;&gt;Node14 -->
<g id="edge14_Node000003_Node000014" class="edge">
<title>Node3&#45;&gt;Node14</title>
<g id="a_edge14_Node000003_Node000014"><a xlink:title=" ">
<path fill="none" stroke="#63b8ff" d="M302.59,-299.61C326.55,-282.87 366.01,-257.12 403.25,-241 407.25,-239.27 411.4,-237.63 415.62,-236.07"/>
<polygon fill="#63b8ff" stroke="#63b8ff" points="416.51,-239.47 424.81,-232.89 414.22,-232.86 416.51,-239.47"/>
</a>
</g>
</g>
<!-- Node15 -->
<g id="Node000015" class="node">
<title>Node15</title>
<g id="a_Node000015"><a xlink:href="$classinterficie_1_1_vista_menu_joc.html#af4bea9351119f9746e8dc96671f7bff8" xlink:title="Lògica per reprendre una partida.">
<polygon fill="white" stroke="#666666" points="575.25,-132 413.75,-132 413.75,-100 575.25,-100 575.25,-132"/>
<text text-anchor="start" x="421.75" y="-118.5" font-family="Helvetica,sans-Serif" font-size="10.00">interficie.VistaMenuJoc.reprendre</text>
<text text-anchor="middle" x="494.5" y="-106.5" font-family="Helvetica,sans-Serif" font-size="10.00">Partida</text>
</a>
</g>
</g>
<!-- Node3&#45;&gt;Node15 -->
<g id="edge16_Node000003_Node000015" class="edge">
<title>Node3&#45;&gt;Node15</title>
<g id="a_edge16_Node000003_Node000015"><a xlink:title=" ">
<path fill="none" stroke="#63b8ff" d="M286.85,-299.65C302.27,-264.89 343.1,-183.37 403.25,-141 404.85,-139.87 406.5,-138.8 408.19,-137.77"/>
<polygon fill="#63b8ff" stroke="#63b8ff" points="409.74,-140.91 416.92,-133.11 406.44,-134.73 409.74,-140.91"/>
</a>
</g>
</g>
<!-- Node21 -->
<g id="Node000021" class="node">
<title>Node21</title>
<g id="a_Node000021"><a xlink:href="$classcontroladors_1_1_ctrl_presentacio.html#a633464b50c83730927c14ed2356bb43c" xlink:title="Tanca la sessió de l&#39;usuari, allibera els recursos gràfics i finalitza l&#39;execució de l&#39;aplicació.">
<polygon fill="white" stroke="#666666" points="576.75,-82 412.25,-82 412.25,-62 576.75,-62 576.75,-82"/>
<text text-anchor="middle" x="494.5" y="-68.5" font-family="Helvetica,sans-Serif" font-size="10.00">controladors.CtrlPresentacio.sortir</text>
</a>
</g>
</g>
<!-- Node3&#45;&gt;Node21 -->
<g id="edge22_Node000003_Node000021" class="edge">
<title>Node3&#45;&gt;Node21</title>
<g id="a_edge22_Node000003_Node000021"><a xlink:title=" ">
<path fill="none" stroke="#63b8ff" d="M283.92,-299.56C294.84,-257.51 329.76,-145.56 403.25,-91 404.84,-89.82 406.49,-88.71 408.19,-87.66"/>
<polygon fill="#63b8ff" stroke="#63b8ff" points="409.76,-90.79 417.01,-83.07 406.53,-84.58 409.76,-90.79"/>
</a>
</g>
</g>
<!-- Node22 -->
<g id="Node000022" class="node">
<title>Node22</title>
<g id="a_Node000022"><a xlink:href="$classinterficie_1_1_vista_menu_joc.html#a62e98338bf23c9ce19e3c7ec87f3cca8" xlink:title="Lògica per tancar la sessió.">
<polygon fill="white" stroke="#666666" points="568.5,-38 420.5,-38 420.5,-6 568.5,-6 568.5,-38"/>
<text text-anchor="start" x="428.5" y="-24.5" font-family="Helvetica,sans-Serif" font-size="10.00">interficie.VistaMenuJoc.tancar</text>
<text text-anchor="middle" x="494.5" y="-12.5" font-family="Helvetica,sans-Serif" font-size="10.00">Sessio</text>
</a>
</g>
</g>
<!-- Node3&#45;&gt;Node22 -->
<g id="edge23_Node000003_Node000022" class="edge">
<title>Node3&#45;&gt;Node22</title>
<g id="a_edge23_Node000003_Node000022"><a xlink:title=" ">
<path fill="none" stroke="#63b8ff" d="M283.01,-299.78C292.31,-254.15 324.84,-123.41 403.25,-53 407.03,-49.61 411.19,-46.58 415.6,-43.89"/>
<polygon fill="#63b8ff" stroke="#63b8ff" points="417.11,-47.05 424.25,-39.22 413.78,-40.89 417.11,-47.05"/>
</a>
</g>
</g>
<!-- Node13 -->
<g id="Node000013" class="node">
<title>Node13</title>
<g id="a_Node000013"><a xlink:href="$classcontroladors_1_1_ctrl_presentacio.html#aad294011837fffb35248b3d654be5102" xlink:title="Elimina un avatar del sistema.">
<polygon fill="white" stroke="#666666" points="801.62,-232 625.12,-232 625.12,-200 801.62,-200 801.62,-232"/>
<text text-anchor="start" x="633.12" y="-218.5" font-family="Helvetica,sans-Serif" font-size="10.00">controladors.CtrlPresentacio.eliminar</text>
<text text-anchor="middle" x="713.38" y="-206.5" font-family="Helvetica,sans-Serif" font-size="10.00">Avatar</text>
</a>
</g>
</g>
<!-- Node12&#45;&gt;Node13 -->
<g id="edge12_Node000012_Node000013" class="edge">
<title>Node12&#45;&gt;Node13</title>
<g id="a_edge12_Node000012_Node000013"><a xlink:title=" ">
<path fill="none" stroke="#63b8ff" d="M566.81,-182.44C587.01,-187.1 609.16,-192.2 629.96,-197"/>
<polygon fill="#63b8ff" stroke="#63b8ff" points="629.01,-200.37 639.54,-199.21 630.59,-193.55 629.01,-200.37"/>
</a>
</g>
</g>
<!-- Node14&#45;&gt;Node4 -->
<g id="edge15_Node000014_Node000004" class="edge">
<title>Node14&#45;&gt;Node4</title>
<g id="a_edge15_Node000014_Node000004"><a xlink:title=" ">
<path fill="none" stroke="#63b8ff" d="M570.91,-232.18C576.15,-234.71 581.17,-237.63 585.75,-241 646.17,-285.51 685.29,-368.24 702.42,-410.95"/>
<polygon fill="#63b8ff" stroke="#63b8ff" points="699.13,-412.16 706.02,-420.21 705.66,-409.62 699.13,-412.16"/>
</a>
</g>
</g>
<!-- Node16 -->
<g id="Node000016" class="node">
<title>Node16</title>
<g id="a_Node000016"><a xlink:href="$classinterficie_1_1_selector_partida.html#abe61b878316263ec68854ac732c19187" xlink:title="Retorna l&#39;identificador de la partida seleccionada per reprendre.">
<polygon fill="white" stroke="#666666" points="782.88,-182 643.88,-182 643.88,-150 782.88,-150 782.88,-182"/>
<text text-anchor="start" x="651.88" y="-168.5" font-family="Helvetica,sans-Serif" font-size="10.00">interficie.SelectorPartida.get</text>
<text text-anchor="middle" x="713.38" y="-156.5" font-family="Helvetica,sans-Serif" font-size="10.00">IdPartida</text>
</a>
</g>
</g>
<!-- Node15&#45;&gt;Node16 -->
<g id="edge17_Node000015_Node000016" class="edge">
<title>Node15&#45;&gt;Node16</title>
<g id="a_edge17_Node000015_Node000016"><a xlink:title=" ">
<path fill="none" stroke="#63b8ff" d="M566.81,-132.44C587.84,-137.29 610.98,-142.62 632.51,-147.59"/>
<polygon fill="#63b8ff" stroke="#63b8ff" points="631.6,-150.97 642.13,-149.8 633.17,-144.15 631.6,-150.97"/>
</a>
</g>
</g>
<!-- Node17 -->
<g id="Node000017" class="node">
<title>Node17</title>
<g id="a_Node000017"><a xlink:href="$classcontroladors_1_1_ctrl_presentacio.html#a7d80b96fb70eecd976aa1b1ba530d7a7" xlink:title="Retorna el nom de l&#39;usuari que té la sessió iniciada.">
<polygon fill="white" stroke="#666666" points="791.5,-132 635.25,-132 635.25,-100 791.5,-100 791.5,-132"/>
<text text-anchor="start" x="643.25" y="-118.5" font-family="Helvetica,sans-Serif" font-size="10.00">controladors.CtrlPresentacio.get</text>
<text text-anchor="middle" x="713.38" y="-106.5" font-family="Helvetica,sans-Serif" font-size="10.00">NomUsuariActiu</text>
</a>
</g>
</g>
<!-- Node15&#45;&gt;Node17 -->
<g id="edge18_Node000015_Node000017" class="edge">
<title>Node15&#45;&gt;Node17</title>
<g id="a_edge18_Node000015_Node000017"><a xlink:title=" ">
<path fill="none" stroke="#63b8ff" d="M575.64,-116C591.27,-116 607.75,-116 623.64,-116"/>
<polygon fill="#63b8ff" stroke="#63b8ff" points="623.58,-119.5 633.58,-116 623.58,-112.5 623.58,-119.5"/>
</a>
</g>
</g>
<!-- Node18 -->
<g id="Node000018" class="node">
<title>Node18</title>
<g id="a_Node000018"><a xlink:href="$classcontroladors_1_1_ctrl_presentacio.html#ad0c6a8a429d767f53f2e0fa4c6f8a5dc" xlink:title="Reprèn una partida existent identificada pel seu ID.">
<polygon fill="white" stroke="#666666" points="805,-82 621.75,-82 621.75,-50 805,-50 805,-82"/>
<text text-anchor="start" x="629.75" y="-68.5" font-family="Helvetica,sans-Serif" font-size="10.00">controladors.CtrlPresentacio.reprendre</text>
<text text-anchor="middle" x="713.38" y="-56.5" font-family="Helvetica,sans-Serif" font-size="10.00">Partida</text>
</a>
</g>
</g>
<!-- Node15&#45;&gt;Node18 -->
<g id="edge19_Node000015_Node000018" class="edge">
<title>Node15&#45;&gt;Node18</title>
<g id="a_edge19_Node000015_Node000018"><a xlink:title=" ">
<path fill="none" stroke="#63b8ff" d="M566.81,-99.56C587.01,-94.9 609.16,-89.8 629.96,-85"/>
<polygon fill="#63b8ff" stroke="#63b8ff" points="630.59,-88.45 639.54,-82.79 629.01,-81.63 630.59,-88.45"/>
</a>
</g>
</g>
<!-- Node19 -->
<g id="Node000019" class="node">
<title>Node19</title>
<g id="a_Node000019"><a xlink:href="$classdomini_1_1scrabble_1_1_partida.html#a74ab1a1330297b7e2a8c16121db79faa" xlink:title="Retorna l&#39;idioma de la partida.">
<polygon fill="white" stroke="#666666" points="986.38,-107 851.88,-107 851.88,-75 986.38,-75 986.38,-107"/>
<text text-anchor="start" x="859.88" y="-93.5" font-family="Helvetica,sans-Serif" font-size="10.00">domini.scrabble.Partida.get</text>
<text text-anchor="middle" x="919.12" y="-81.5" font-family="Helvetica,sans-Serif" font-size="10.00">Idioma</text>
</a>
</g>
</g>
<!-- Node18&#45;&gt;Node19 -->
<g id="edge20_Node000018_Node000019" class="edge">
<title>Node18&#45;&gt;Node19</title>
<g id="a_edge20_Node000018_Node000019"><a xlink:title=" ">
<path fill="none" stroke="#63b8ff" d="M805.23,-77.15C816.93,-78.58 828.82,-80.04 840.29,-81.45"/>
<polygon fill="#63b8ff" stroke="#63b8ff" points="839.73,-84.91 850.08,-82.65 840.58,-77.96 839.73,-84.91"/>
</a>
</g>
</g>
<!-- Node20 -->
<g id="Node000020" class="node">
<title>Node20</title>
<g id="a_Node000020"><a xlink:href="$classcontroladors_1_1_ctrl_presentacio.html#af18fe9d82387504c97bd73a19eaa15e8" xlink:title="Retorna la instància de la partida actual en curs.">
<polygon fill="white" stroke="#666666" points="997.25,-57 841,-57 841,-25 997.25,-25 997.25,-57"/>
<text text-anchor="start" x="849" y="-43.5" font-family="Helvetica,sans-Serif" font-size="10.00">controladors.CtrlPresentacio.get</text>
<text text-anchor="middle" x="919.12" y="-31.5" font-family="Helvetica,sans-Serif" font-size="10.00">Partida</text>
</a>
</g>
</g>
<!-- Node18&#45;&gt;Node20 -->
<g id="edge21_Node000018_Node000020" class="edge">
<title>Node18&#45;&gt;Node20</title>
<g id="a_edge21_Node000018_Node000020"><a xlink:title=" ">
<path fill="none" stroke="#63b8ff" d="M805.23,-54.85C813.23,-53.87 821.33,-52.88 829.32,-51.9"/>
<polygon fill="#63b8ff" stroke="#63b8ff" points="829.52,-55.4 839.02,-50.71 828.67,-48.45 829.52,-55.4"/>
</a>
</g>
</g>
<!-- Node23 -->
<g id="Node000023" class="node">
<title>Node23</title>
<g id="a_Node000023"><a xlink:href="$classcontroladors_1_1_ctrl_presentacio.html#aa71bca5e297b5775bf22b0e9a0d00ced" xlink:title="Tanca la sessió de l&#39;usuari actual i retorna a la vista principal.">
<polygon fill="white" stroke="#666666" points="798.25,-32 628.5,-32 628.5,0 798.25,0 798.25,-32"/>
<text text-anchor="start" x="636.5" y="-18.5" font-family="Helvetica,sans-Serif" font-size="10.00">controladors.CtrlPresentacio.tancar</text>
<text text-anchor="middle" x="713.38" y="-6.5" font-family="Helvetica,sans-Serif" font-size="10.00">Sessio</text>
</a>
</g>
</g>
<!-- Node22&#45;&gt;Node23 -->
<g id="edge24_Node000022_Node000023" class="edge">
<title>Node22&#45;&gt;Node23</title>
<g id="a_edge24_Node000022_Node000023"><a xlink:title=" ">
<path fill="none" stroke="#63b8ff" d="M568.92,-19.97C584.4,-19.54 600.94,-19.08 617.09,-18.64"/>
<polygon fill="#63b8ff" stroke="#63b8ff" points="616.77,-22.15 626.67,-18.37 616.58,-15.15 616.77,-22.15"/>
</a>
</g>
</g>
</g>
</svg>
