<?xml version="1.0" encoding="UTF-8" standalone="no"?>
<!DOCTYPE svg PUBLIC "-//W3C//DTD SVG 1.1//EN"
 "http://www.w3.org/Graphics/SVG/1.1/DTD/svg11.dtd">
<!-- Generated by graphviz version 12.2.1 (20241206.2353)
 -->
<!-- Title: drivers.Driver.init Pages: 1 -->
<svg width="1012pt" height="90pt"
 viewBox="0.00 0.00 1012.25 90.00" xmlns="http://www.w3.org/2000/svg" xmlns:xlink="http://www.w3.org/1999/xlink">
<g id="graph0" class="graph" transform="scale(1 1) rotate(0) translate(4 86)">
<title>drivers.Driver.init</title>
<!-- Node1 -->
<g id="Node000001" class="node">
<title>Node1</title>
<g id="a_Node000001"><a xlink:title="Inicialitza el driver.">
<polygon fill="#999999" stroke="#666666" points="90.25,-51 0,-51 0,-31 90.25,-31 90.25,-51"/>
<text text-anchor="middle" x="45.12" y="-37.5" font-family="Helvetica,sans-Serif" font-size="10.00">drivers.Driver.init</text>
</a>
</g>
</g>
<!-- Node2 -->
<g id="Node000002" class="node">
<title>Node2</title>
<g id="a_Node000002"><a xlink:href="classcontroladors_1_1_ctrl_domini.html#ab9f3147d91bf87174cee2fbad80eebd0" target="_top" xlink:title="Retorna la instancia del controlador de domini.">
<polygon fill="white" stroke="#666666" points="261.5,-82 126.25,-82 126.25,-50 261.5,-50 261.5,-82"/>
<text text-anchor="start" x="134.25" y="-68.5" font-family="Helvetica,sans-Serif" font-size="10.00">controladors.CtrlDomini.get</text>
<text text-anchor="middle" x="193.88" y="-56.5" font-family="Helvetica,sans-Serif" font-size="10.00">Instancia</text>
</a>
</g>
</g>
<!-- Node1&#45;&gt;Node2 -->
<g id="edge1_Node000001_Node000002" class="edge">
<title>Node1&#45;&gt;Node2</title>
<g id="a_edge1_Node000001_Node000002"><a xlink:title=" ">
<path fill="none" stroke="#63b8ff" d="M90.55,-48.57C98.21,-49.87 106.37,-51.26 114.6,-52.67"/>
<polygon fill="#63b8ff" stroke="#63b8ff" points="113.91,-56.1 124.36,-54.33 115.09,-49.2 113.91,-56.1"/>
</a>
</g>
</g>
<!-- Node7 -->
<g id="Node000007" class="node">
<title>Node7</title>
<g id="a_Node000007"><a xlink:href="classcontroladors_1_1_ctrl_partida.html#acc3f8d0c1620b0c1befc2c1a550a23a8" target="_top" xlink:title="Obté la instància única del controlador de partida.">
<polygon fill="white" stroke="#666666" points="261.5,-32 126.25,-32 126.25,0 261.5,0 261.5,-32"/>
<text text-anchor="start" x="134.25" y="-18.5" font-family="Helvetica,sans-Serif" font-size="10.00">controladors.CtrlPartida.get</text>
<text text-anchor="middle" x="193.88" y="-6.5" font-family="Helvetica,sans-Serif" font-size="10.00">Instancia</text>
</a>
</g>
</g>
<!-- Node1&#45;&gt;Node7 -->
<g id="edge6_Node000001_Node000007" class="edge">
<title>Node1&#45;&gt;Node7</title>
<g id="a_edge6_Node000001_Node000007"><a xlink:title=" ">
<path fill="none" stroke="#63b8ff" d="M90.55,-33.43C98.21,-32.13 106.37,-30.74 114.6,-29.33"/>
<polygon fill="#63b8ff" stroke="#63b8ff" points="115.09,-32.8 124.36,-27.67 113.91,-25.9 115.09,-32.8"/>
</a>
</g>
</g>
<!-- Node3 -->
<g id="Node000003" class="node">
<title>Node3</title>
<g id="a_Node000003"><a xlink:href="classcontroladors_1_1_ctrl_domini.html#a7648cc0064b988072993a90846e84d38" target="_top" xlink:title="Constructor de la classe Ctrl_Domini.">
<polygon fill="white" stroke="#666666" points="419.25,-82 297.5,-82 297.5,-50 419.25,-50 419.25,-82"/>
<text text-anchor="start" x="305.5" y="-68.5" font-family="Helvetica,sans-Serif" font-size="10.00">controladors.CtrlDomini.</text>
<text text-anchor="middle" x="358.38" y="-56.5" font-family="Helvetica,sans-Serif" font-size="10.00">CtrlDomini</text>
</a>
</g>
</g>
<!-- Node2&#45;&gt;Node3 -->
<g id="edge2_Node000002_Node000003" class="edge">
<title>Node2&#45;&gt;Node3</title>
<g id="a_edge2_Node000002_Node000003"><a xlink:title=" ">
<path fill="none" stroke="#63b8ff" d="M261.91,-66C269.72,-66 277.71,-66 285.59,-66"/>
<polygon fill="#63b8ff" stroke="#63b8ff" points="285.49,-69.5 295.49,-66 285.49,-62.5 285.49,-69.5"/>
</a>
</g>
</g>
<!-- Node4 -->
<g id="Node000004" class="node">
<title>Node4</title>
<g id="a_Node000004"><a xlink:href="classcontroladors_1_1_ctrl_domini.html#ab06c2680b60a9e0864d8470f4888e8e9" target="_top" xlink:title="Carrega els usuaris cada cop que executem el joc.">
<polygon fill="white" stroke="#666666" points="620.5,-82 455.25,-82 455.25,-50 620.5,-50 620.5,-82"/>
<text text-anchor="start" x="463.25" y="-68.5" font-family="Helvetica,sans-Serif" font-size="10.00">controladors.CtrlDomini.inicialitzar</text>
<text text-anchor="middle" x="537.88" y="-56.5" font-family="Helvetica,sans-Serif" font-size="10.00">Usuaris</text>
</a>
</g>
</g>
<!-- Node3&#45;&gt;Node4 -->
<g id="edge3_Node000003_Node000004" class="edge">
<title>Node3&#45;&gt;Node4</title>
<g id="a_edge3_Node000003_Node000004"><a xlink:title=" ">
<path fill="none" stroke="#63b8ff" d="M419.47,-66C427.19,-66 435.24,-66 443.34,-66"/>
<polygon fill="#63b8ff" stroke="#63b8ff" points="443.29,-69.5 453.29,-66 443.29,-62.5 443.29,-69.5"/>
</a>
</g>
</g>
<!-- Node5 -->
<g id="Node000005" class="node">
<title>Node5</title>
<g id="a_Node000005"><a xlink:href="classcontroladors_1_1_ctrl_persistencia.html#a06c847181ea13b0c7dde8a61b47f0a0b" target="_top" xlink:title="Carrega els usuaris guardats a la capa de persistència.">
<polygon fill="white" stroke="#666666" points="836.75,-82 656.5,-82 656.5,-50 836.75,-50 836.75,-82"/>
<text text-anchor="start" x="664.5" y="-68.5" font-family="Helvetica,sans-Serif" font-size="10.00">controladors.CtrlPersistencia.carregar</text>
<text text-anchor="middle" x="746.62" y="-56.5" font-family="Helvetica,sans-Serif" font-size="10.00">UsuarisRegistrats</text>
</a>
</g>
</g>
<!-- Node4&#45;&gt;Node5 -->
<g id="edge4_Node000004_Node000005" class="edge">
<title>Node4&#45;&gt;Node5</title>
<g id="a_edge4_Node000004_Node000005"><a xlink:title=" ">
<path fill="none" stroke="#63b8ff" d="M620.89,-66C628.78,-66 636.84,-66 644.89,-66"/>
<polygon fill="#63b8ff" stroke="#63b8ff" points="644.72,-69.5 654.72,-66 644.72,-62.5 644.72,-69.5"/>
</a>
</g>
</g>
<!-- Node6 -->
<g id="Node000006" class="node">
<title>Node6</title>
<g id="a_Node000006"><a xlink:href="classpersistencia_1_1_usuari_i_o.html#a29677f40d007ca66a5ec1b0926e16da4" target="_top" xlink:title="Carrega un usuari des d&#39;un fitxer JSON.">
<polygon fill="white" stroke="#666666" points="1004.25,-82 872.75,-82 872.75,-50 1004.25,-50 1004.25,-82"/>
<text text-anchor="start" x="880.75" y="-68.5" font-family="Helvetica,sans-Serif" font-size="10.00">persistencia.UsuariIO.load</text>
<text text-anchor="middle" x="938.5" y="-56.5" font-family="Helvetica,sans-Serif" font-size="10.00">Usuari</text>
</a>
</g>
</g>
<!-- Node5&#45;&gt;Node6 -->
<g id="edge5_Node000005_Node000006" class="edge">
<title>Node5&#45;&gt;Node6</title>
<g id="a_edge5_Node000005_Node000006"><a xlink:title=" ">
<path fill="none" stroke="#63b8ff" d="M837,-66C845.02,-66 853.08,-66 860.97,-66"/>
<polygon fill="#63b8ff" stroke="#63b8ff" points="860.87,-69.5 870.87,-66 860.87,-62.5 860.87,-69.5"/>
</a>
</g>
</g>
<!-- Node8 -->
<g id="Node000008" class="node">
<title>Node8</title>
<g id="a_Node000008"><a xlink:href="classcontroladors_1_1_ctrl_partida.html#a8f5583dd87ab70723d68c87c1fefb5f4" target="_top" xlink:title="Constructor del controlador de la partida.">
<polygon fill="white" stroke="#666666" points="419.25,-32 297.5,-32 297.5,0 419.25,0 419.25,-32"/>
<text text-anchor="start" x="305.5" y="-18.5" font-family="Helvetica,sans-Serif" font-size="10.00">controladors.CtrlPartida.</text>
<text text-anchor="middle" x="358.38" y="-6.5" font-family="Helvetica,sans-Serif" font-size="10.00">CtrlPartida</text>
</a>
</g>
</g>
<!-- Node7&#45;&gt;Node8 -->
<g id="edge7_Node000007_Node000008" class="edge">
<title>Node7&#45;&gt;Node8</title>
<g id="a_edge7_Node000007_Node000008"><a xlink:title=" ">
<path fill="none" stroke="#63b8ff" d="M261.91,-16C269.72,-16 277.71,-16 285.59,-16"/>
<polygon fill="#63b8ff" stroke="#63b8ff" points="285.49,-19.5 295.49,-16 285.49,-12.5 285.49,-19.5"/>
</a>
</g>
</g>
</g>
</svg>
