<?xml version="1.0" encoding="UTF-8" standalone="no"?>
<!DOCTYPE svg PUBLIC "-//W3C//DTD SVG 1.1//EN"
 "http://www.w3.org/Graphics/SVG/1.1/DTD/svg11.dtd">
<!-- Generated by graphviz version 12.2.1 (20241206.2353)
 -->
<!-- Title: controladors.CtrlPersistencia.carregarPartida Pages: 1 -->
<!--zoomable 190 -->

<svg id="main" version="1.1" xmlns="http://www.w3.org/2000/svg" xmlns:xlink="http://www.w3.org/1999/xlink" xml:space="preserve" onload="init(evt)">

<style type="text/css"><![CDATA[
.node, .edge {opacity: 0.7;}
.node.selected, .edge.selected {opacity: 1;}
.edge:hover path { stroke: red; }
.edge:hover polygon { stroke: red; fill: red; }
]]></style>

<defs>
  <circle id="rim" cx="0" cy="0" r="7"/>
  <circle id="rim2" cx="0" cy="0" r="3.5"/>
  <g id="zoomPlus">
    <use xlink:href="#rim" fill="#404040"><set attributeName="fill" to="#808080" begin="zoomplus.mouseover" end="zoomplus.mouseout"/></use>
    <path d="M-4,0h8M0,-4v8" fill="none" stroke="white" stroke-width="1.5" pointer-events="none"/>
  </g>
  <g id="zoomMin">
    <use xlink:href="#rim" fill="#404040"><set attributeName="fill" to="#808080" begin="zoomminus.mouseover" end="zoomminus.mouseout"/></use>
    <path d="M-4,0h8" fill="none" stroke="white" stroke-width="1.5" pointer-events="none"/>
  </g>
  <g id="arrowUp" transform="translate(30 24)">
    <use xlink:href="#rim"/>
    <path pointer-events="none" fill="none" stroke="white" stroke-width="1.5" d="M0,-3.0v7 M-2.5,-0.5L0,-3.0L2.5,-0.5"/>
  </g>
  <g id="arrowRight" transform="rotate(90) translate(36 -43)">
    <use xlink:href="#rim"/>
    <path pointer-events="none" fill="none" stroke="white" stroke-width="1.5" d="M0,-3.0v7 M-2.5,-0.5L0,-3.0L2.5,-0.5"/>
  </g>
  <g id="arrowDown" transform="rotate(180) translate(-30 -48)">
    <use xlink:href="#rim"/>
    <path pointer-events="none" fill="none" stroke="white" stroke-width="1.5" d="M0,-3.0v7 M-2.5,-0.5L0,-3.0L2.5,-0.5"/>
  </g>
  <g id="arrowLeft" transform="rotate(270) translate(-36 17)">
    <use xlink:href="#rim"/>
    <path pointer-events="none" fill="none" stroke="white" stroke-width="1.5" d="M0,-3.0v7 M-2.5,-0.5L0,-3.0L2.5,-0.5"/>
  </g>
  <g id="resetDef">
    <use xlink:href="#rim2" fill="#404040"><set attributeName="fill" to="#808080" begin="reset.mouseover" end="reset.mouseout"/></use>
  </g>
</defs>
<script type="application/ecmascript">
var viewWidth = 529;
var viewHeight = 190;
var sectionId = 'dynsection-1';
</script>
<script type="application/ecmascript" xlink:href="svg.min.js"/>
<svg id="graph" class="graph">
<g id="viewport">
<title>controladors.CtrlPersistencia.carregarPartida</title>
<!-- Node1 -->
<g id="Node000001" class="node">
<title>Node1</title>
<g id="a_Node000001"><a xlink:title="Carrega una partida de l&#39;emmagatzematge persistent.">
<polygon fill="#999999" stroke="#666666" points="180.25,-107 0,-107 0,-75 180.25,-75 180.25,-107"/>
<text text-anchor="start" x="8" y="-93.5" font-family="Helvetica,sans-Serif" font-size="10.00">controladors.CtrlPersistencia.carregar</text>
<text text-anchor="middle" x="90.12" y="-81.5" font-family="Helvetica,sans-Serif" font-size="10.00">Partida</text>
</a>
</g>
</g>
<!-- Node2 -->
<g id="Node000002" class="node">
<title>Node2</title>
<g id="a_Node000002"><a xlink:href="classpersistencia_1_1_partida_i_o.html#a7b9bdae6d9736a012e584b268b0bcb86" target="_top" xlink:title="Carrega una partida des d&#39;un fitxer JSON.">
<polygon fill="white" stroke="#666666" points="350,-107 216.25,-107 216.25,-75 350,-75 350,-107"/>
<text text-anchor="start" x="224.25" y="-93.5" font-family="Helvetica,sans-Serif" font-size="10.00">persistencia.PartidaIO.load</text>
<text text-anchor="middle" x="283.12" y="-81.5" font-family="Helvetica,sans-Serif" font-size="10.00">Partida</text>
</a>
</g>
</g>
<!-- Node1&#45;&gt;Node2 -->
<g id="edge1_Node000001_Node000002" class="edge">
<title>Node1&#45;&gt;Node2</title>
<g id="a_edge1_Node000001_Node000002"><a xlink:title=" ">
<path fill="none" stroke="#63b8ff" d="M180.47,-91C188.5,-91 196.58,-91 204.49,-91"/>
<polygon fill="#63b8ff" stroke="#63b8ff" points="204.42,-94.5 214.42,-91 204.42,-87.5 204.42,-94.5"/>
</a>
</g>
</g>
<!-- Node3 -->
<g id="Node000003" class="node">
<title>Node3</title>
<g id="a_Node000003"><a xlink:href="classdomini_1_1scrabble_1_1_partida.html#a02bdb9c41da95458503bb9d1967ea9e8" target="_top" xlink:title="Retorna la instància de la bossa.">
<polygon fill="white" stroke="#666666" points="520.5,-182 386,-182 386,-150 520.5,-150 520.5,-182"/>
<text text-anchor="start" x="394" y="-168.5" font-family="Helvetica,sans-Serif" font-size="10.00">domini.scrabble.Partida.get</text>
<text text-anchor="middle" x="453.25" y="-156.5" font-family="Helvetica,sans-Serif" font-size="10.00">Bossa</text>
</a>
</g>
</g>
<!-- Node2&#45;&gt;Node3 -->
<g id="edge2_Node000002_Node000003" class="edge">
<title>Node2&#45;&gt;Node3</title>
<g id="a_edge2_Node000002_Node000003"><a xlink:title=" ">
<path fill="none" stroke="#63b8ff" d="M315.43,-107.33C335.39,-117.5 361.95,-130.59 386,-141 389.38,-142.47 392.89,-143.93 396.43,-145.38"/>
<polygon fill="#63b8ff" stroke="#63b8ff" points="395.12,-148.62 405.71,-149.07 397.71,-142.12 395.12,-148.62"/>
</a>
</g>
</g>
<!-- Node4 -->
<g id="Node000004" class="node">
<title>Node4</title>
<g id="a_Node000004"><a xlink:href="classdomini_1_1scrabble_1_1_partida.html#a719791835f1334957e59dcfe4d2a4cec" target="_top" xlink:title="Retorna l&#39;estat actual de la partida.">
<polygon fill="white" stroke="#666666" points="520.5,-132 386,-132 386,-100 520.5,-100 520.5,-132"/>
<text text-anchor="start" x="394" y="-118.5" font-family="Helvetica,sans-Serif" font-size="10.00">domini.scrabble.Partida.get</text>
<text text-anchor="middle" x="453.25" y="-106.5" font-family="Helvetica,sans-Serif" font-size="10.00">Estat</text>
</a>
</g>
</g>
<!-- Node2&#45;&gt;Node4 -->
<g id="edge3_Node000002_Node000004" class="edge">
<title>Node2&#45;&gt;Node4</title>
<g id="a_edge3_Node000002_Node000004"><a xlink:title=" ">
<path fill="none" stroke="#63b8ff" d="M350.09,-100.81C358.03,-101.99 366.2,-103.2 374.29,-104.41"/>
<polygon fill="#63b8ff" stroke="#63b8ff" points="373.74,-107.86 384.15,-105.87 374.77,-100.94 373.74,-107.86"/>
</a>
</g>
</g>
<!-- Node5 -->
<g id="Node000005" class="node">
<title>Node5</title>
<g id="a_Node000005"><a xlink:href="classdomini_1_1scrabble_1_1_bossa.html#aa72b114802328935e32718821a3322ce" target="_top" xlink:title="Obté les fitxes de la bossa.">
<polygon fill="white" stroke="#666666" points="519,-82 387.5,-82 387.5,-50 519,-50 519,-82"/>
<text text-anchor="start" x="395.5" y="-68.5" font-family="Helvetica,sans-Serif" font-size="10.00">domini.scrabble.Bossa.get</text>
<text text-anchor="middle" x="453.25" y="-56.5" font-family="Helvetica,sans-Serif" font-size="10.00">Fitxes</text>
</a>
</g>
</g>
<!-- Node2&#45;&gt;Node5 -->
<g id="edge4_Node000002_Node000005" class="edge">
<title>Node2&#45;&gt;Node5</title>
<g id="a_edge4_Node000002_Node000005"><a xlink:title=" ">
<path fill="none" stroke="#63b8ff" d="M350.09,-81.19C358.53,-79.94 367.23,-78.64 375.82,-77.36"/>
<polygon fill="#63b8ff" stroke="#63b8ff" points="376.15,-80.85 385.53,-75.92 375.12,-73.93 376.15,-80.85"/>
</a>
</g>
</g>
<!-- Node6 -->
<g id="Node000006" class="node">
<title>Node6</title>
<g id="a_Node000006"><a xlink:href="classdomini_1_1scrabble_1_1_estat.html#acb727a684104d60ab770231bebdcc9c6" target="_top" xlink:title="Mètode que assigna la partida del paràmetre a l&#39;estat.">
<polygon fill="white" stroke="#666666" points="516.75,-32 389.75,-32 389.75,0 516.75,0 516.75,-32"/>
<text text-anchor="start" x="397.75" y="-18.5" font-family="Helvetica,sans-Serif" font-size="10.00">domini.scrabble.Estat.set</text>
<text text-anchor="middle" x="453.25" y="-6.5" font-family="Helvetica,sans-Serif" font-size="10.00">Partida</text>
</a>
</g>
</g>
<!-- Node2&#45;&gt;Node6 -->
<g id="edge5_Node000002_Node000006" class="edge">
<title>Node2&#45;&gt;Node6</title>
<g id="a_edge5_Node000002_Node000006"><a xlink:title=" ">
<path fill="none" stroke="#63b8ff" d="M315.43,-74.67C335.39,-64.5 361.95,-51.41 386,-41 389.38,-39.53 392.89,-38.07 396.43,-36.62"/>
<polygon fill="#63b8ff" stroke="#63b8ff" points="397.71,-39.88 405.71,-32.93 395.12,-33.38 397.71,-39.88"/>
</a>
</g>
</g>
</g>
</svg>

<g id="navigator" transform="translate(0 0)" fill="#404254">
  <rect fill="#f2f5e9" fill-opacity="0.5" stroke="#606060" stroke-width=".5" x="0" y="0" width="60" height="60"/>
  <use id="zoomplus" xlink:href="#zoomPlus" x="17" y="9" onmousedown="handleZoom(evt,'in')"/>
  <use id="zoomminus" xlink:href="#zoomMin" x="42" y="9" onmousedown="handleZoom(evt,'out')"/>
  <use id="reset" xlink:href="#resetDef" x="30" y="36" onmousedown="handleReset()"/>
   <use id="arrowup" xlink:href="#arrowUp" x="0" y="0" onmousedown="handlePan(0,-1)"/>
  <use id="arrowright" xlink:href="#arrowRight" x="0" y="0" onmousedown="handlePan(1,0)"/>
  <use id="arrowdown" xlink:href="#arrowDown" x="0" y="0" onmousedown="handlePan(0,1)"/>
  <use id="arrowleft" xlink:href="#arrowLeft" x="0" y="0" onmousedown="handlePan(-1,0)"/>
</g>
<svg viewBox="0 0 15 15" width="100%" height="30px" preserveAspectRatio="xMaxYMin meet">
 <g id="arrow_out" transform="scale(0.3 0.3)">
  <a xlink:href="classcontroladors_1_1_ctrl_persistencia_a83e891c1cd5d7ed5ffca4f07eee9a396_cgraph_org.svg" target="_base">
   <rect id="button" ry="5" rx="5" y="6" x="6" height="38" width="38"
        fill="#f2f5e9" fill-opacity="0.5" stroke="#606060" stroke-width="1.0"/>
   <path id="arrow"
     d="M 11.500037,31.436501 C 11.940474,20.09759 22.043105,11.32322 32.158766,21.979434 L 37.068811,17.246167 C 37.068811,17.246167 37.088388,32 37.088388,32 L 22.160133,31.978069 C 22.160133,31.978069 26.997745,27.140456 26.997745,27.140456 C 18.528582,18.264221 13.291696,25.230495 11.500037,31.436501 z"
     style="fill:#404040;"/>
  </a>
 </g>
</svg>

<style type='text/css'>
<![CDATA[
[data-mouse-over-selected='false'] { opacity: 0.7; }
[data-mouse-over-selected='true']  { opacity: 1.0; }
]]>
</style>
<script type="application/ecmascript"><![CDATA[
document.addEventListener('DOMContentLoaded', (event) => {
  highlightEdges();
  highlightAdjacentNodes();
});
]]></script>
</svg>
