<?xml version="1.0" encoding="UTF-8" standalone="no"?>
<!DOCTYPE svg PUBLIC "-//W3C//DTD SVG 1.1//EN"
 "http://www.w3.org/Graphics/SVG/1.1/DTD/svg11.dtd">
<!-- Generated by graphviz version 12.2.1 (20241206.2353)
 -->
<!-- Title: domini.jugadors.Maquina.ferJugada Pages: 1 -->
<svg width="1523pt" height="1432pt"
 viewBox="0.00 0.00 1522.75 1432.00" xmlns="http://www.w3.org/2000/svg" xmlns:xlink="http://www.w3.org/1999/xlink">
<g id="graph0" class="graph" transform="scale(1 1) rotate(0) translate(4 1428)">
<title>domini.jugadors.Maquina.ferJugada</title>
<!-- Node1 -->
<g id="Node000001" class="node">
<title>Node1</title>
<g id="a_Node000001"><a xlink:title="Busca la paraula amb la puntuació més alta donats un taulell i un diccionari.">
<polygon fill="#999999" stroke="#666666" points="138.25,-668 0,-668 0,-636 138.25,-636 138.25,-668"/>
<text text-anchor="start" x="8" y="-654.5" font-family="Helvetica,sans-Serif" font-size="10.00">domini.jugadors.Maquina.fer</text>
<text text-anchor="middle" x="69.12" y="-642.5" font-family="Helvetica,sans-Serif" font-size="10.00">Jugada</text>
</a>
</g>
</g>
<!-- Node2 -->
<g id="Node000002" class="node">
<title>Node2</title>
<g id="a_Node000002"><a xlink:href="classdomini_1_1jugadors_1_1_maquina.html#afe864f5cb4ab5895e149c5aad0235400" target="_top" xlink:title="Busca la millor paraula en una direcció específica (horitzontal o vertical).">
<polygon fill="white" stroke="#666666" points="332.75,-1257 176.5,-1257 176.5,-1225 332.75,-1225 332.75,-1257"/>
<text text-anchor="start" x="184.5" y="-1243.5" font-family="Helvetica,sans-Serif" font-size="10.00">domini.jugadors.Maquina.search</text>
<text text-anchor="middle" x="254.62" y="-1231.5" font-family="Helvetica,sans-Serif" font-size="10.00">BestWord</text>
</a>
</g>
</g>
<!-- Node1&#45;&gt;Node2 -->
<g id="edge1_Node000001_Node000002" class="edge">
<title>Node1&#45;&gt;Node2</title>
<g id="a_edge1_Node000001_Node000002"><a xlink:title=" ">
<path fill="none" stroke="#63b8ff" d="M75.22,-668.37C100.59,-749.78 213.19,-1111.21 245.14,-1213.78"/>
<polygon fill="#63b8ff" stroke="#63b8ff" points="241.78,-1214.76 248.1,-1223.27 248.47,-1212.68 241.78,-1214.76"/>
</a>
</g>
</g>
<!-- Node31 -->
<g id="Node000031" class="node">
<title>Node31</title>
<g id="a_Node000031"><a xlink:href="classdomini_1_1scrabble_1_1_taulell.html#a622ab57cc924ec4c3ff2345698c746e2" target="_top" xlink:title="Retorna la transposició del taulell actual.">
<polygon fill="white" stroke="#666666" points="335,-76 174.25,-76 174.25,-56 335,-56 335,-76"/>
<text text-anchor="middle" x="254.62" y="-62.5" font-family="Helvetica,sans-Serif" font-size="10.00">domini.scrabble.Taulell.transpose</text>
</a>
</g>
</g>
<!-- Node1&#45;&gt;Node31 -->
<g id="edge60_Node000001_Node000031" class="edge">
<title>Node1&#45;&gt;Node31</title>
<g id="a_edge60_Node000001_Node000031"><a xlink:title=" ">
<path fill="none" stroke="#63b8ff" d="M75.22,-635.72C101.09,-553.1 217.74,-180.6 246.97,-87.26"/>
<polygon fill="#63b8ff" stroke="#63b8ff" points="250.26,-88.46 249.91,-77.87 243.58,-86.37 250.26,-88.46"/>
</a>
</g>
</g>
<!-- Node3 -->
<g id="Node000003" class="node">
<title>Node3</title>
<g id="a_Node000003"><a xlink:href="classdomini_1_1scrabble_1_1_casella.html#a45ad0a3aaeacf1bc4896a7a99c068dd3" target="_top" xlink:title="Comprova si la casella està ocupada per una fitxa.">
<polygon fill="white" stroke="#666666" points="1117.5,-1140 994.25,-1140 994.25,-1108 1117.5,-1108 1117.5,-1140"/>
<text text-anchor="start" x="1002.25" y="-1126.5" font-family="Helvetica,sans-Serif" font-size="10.00">domini.scrabble.Casella.</text>
<text text-anchor="middle" x="1055.88" y="-1114.5" font-family="Helvetica,sans-Serif" font-size="10.00">EstaOcupat</text>
</a>
</g>
</g>
<!-- Node2&#45;&gt;Node3 -->
<g id="edge2_Node000002_Node000003" class="edge">
<title>Node2&#45;&gt;Node3</title>
<g id="a_edge2_Node000002_Node000003"><a xlink:title=" ">
<path fill="none" stroke="#63b8ff" d="M332.99,-1229.68C487.53,-1207.05 832.45,-1156.56 982.66,-1134.57"/>
<polygon fill="#63b8ff" stroke="#63b8ff" points="983.11,-1138.04 992.49,-1133.13 982.09,-1131.12 983.11,-1138.04"/>
</a>
</g>
</g>
<!-- Node4 -->
<g id="Node000004" class="node">
<title>Node4</title>
<g id="a_Node000004"><a xlink:href="classdomini_1_1jugadors_1_1_maquina.html#a408520f7aa4d96099ecfa1bae76728b5" target="_top" xlink:title="Genera totes les subparaules prefix possibles cap a l&#39;esquerra d&#39;una casella anchor.">
<polygon fill="white" stroke="#666666" points="552,-1052 371,-1052 371,-1032 552,-1032 552,-1052"/>
<text text-anchor="middle" x="461.5" y="-1038.5" font-family="Helvetica,sans-Serif" font-size="10.00">domini.jugadors.Maquina.generateLeft</text>
</a>
</g>
</g>
<!-- Node2&#45;&gt;Node4 -->
<g id="edge3_Node000002_Node000004" class="edge">
<title>Node2&#45;&gt;Node4</title>
<g id="a_edge3_Node000002_Node000004"><a xlink:title=" ">
<path fill="none" stroke="#63b8ff" d="M272.39,-1224.71C310.24,-1187.95 402.09,-1098.74 441.75,-1060.21"/>
<polygon fill="#63b8ff" stroke="#63b8ff" points="443.99,-1062.92 448.72,-1053.44 439.11,-1057.9 443.99,-1062.92"/>
</a>
</g>
</g>
<!-- Node6 -->
<g id="Node000006" class="node">
<title>Node6</title>
<g id="a_Node000006"><a xlink:href="classdomini_1_1scrabble_1_1_taulell.html#a5be7b0143cecbce3e2f4dc4f53814879" target="_top" xlink:title="Donades unes coordenades, retorna la Casella que es troba en aquelles coordenades.">
<polygon fill="white" stroke="#666666" points="1322.12,-1096 1190.62,-1096 1190.62,-1064 1322.12,-1064 1322.12,-1096"/>
<text text-anchor="start" x="1198.62" y="-1082.5" font-family="Helvetica,sans-Serif" font-size="10.00">domini.scrabble.Taulell.get</text>
<text text-anchor="middle" x="1256.38" y="-1070.5" font-family="Helvetica,sans-Serif" font-size="10.00">Casella</text>
</a>
</g>
</g>
<!-- Node2&#45;&gt;Node6 -->
<g id="edge57_Node000002_Node000006" class="edge">
<title>Node2&#45;&gt;Node6</title>
<g id="a_edge57_Node000002_Node000006"><a xlink:title=" ">
<path fill="none" stroke="#63b8ff" d="M333.17,-1252.5C415.37,-1263.69 549.1,-1279 665.12,-1279 665.12,-1279 665.12,-1279 859.38,-1279 986.23,-1279 1030.65,-1288.56 1139.25,-1223 1186.68,-1194.37 1223.1,-1138.99 1241.69,-1106.19"/>
<polygon fill="#63b8ff" stroke="#63b8ff" points="1244.59,-1108.17 1246.36,-1097.72 1238.46,-1104.79 1244.59,-1108.17"/>
</a>
</g>
</g>
<!-- Node7 -->
<g id="Node000007" class="node">
<title>Node7</title>
<g id="a_Node000007"><a xlink:href="classdomini_1_1scrabble_1_1_taulell.html#afc2d8dcd225b683aa00af9ce2075ad79" target="_top" xlink:title=" ">
<polygon fill="white" stroke="#666666" points="1514.75,-416 1373.5,-416 1373.5,-396 1514.75,-396 1514.75,-416"/>
<text text-anchor="middle" x="1444.12" y="-402.5" font-family="Helvetica,sans-Serif" font-size="10.00">domini.scrabble.Taulell.limits</text>
</a>
</g>
</g>
<!-- Node2&#45;&gt;Node7 -->
<g id="edge59_Node000002_Node000007" class="edge">
<title>Node2&#45;&gt;Node7</title>
<g id="a_edge59_Node000002_Node000007"><a xlink:title=" ">
<path fill="none" stroke="#63b8ff" d="M255.19,-1224.51C253.15,-1113.03 256.14,-464.32 588,-133 613.31,-107.73 629.36,-110 665.12,-110 665.12,-110 665.12,-110 1056.88,-110 1182.26,-110 1237.57,-63.26 1337.5,-139 1418.07,-200.07 1437.28,-331.95 1441.78,-384.12"/>
<polygon fill="#63b8ff" stroke="#63b8ff" points="1438.28,-384.35 1442.52,-394.07 1445.26,-383.83 1438.28,-384.35"/>
</a>
</g>
</g>
<!-- Node27 -->
<g id="Node000027" class="node">
<title>Node27</title>
<g id="a_Node000027"><a xlink:href="classdomini_1_1scrabble_1_1_taulell.html#ad10763e1db2abab4a552e5d99b693db7" target="_top" xlink:title="Retorna un Set amb les coordenades de les caselles que son anchors.">
<polygon fill="white" stroke="#666666" points="527.25,-1389 395.75,-1389 395.75,-1357 527.25,-1357 527.25,-1389"/>
<text text-anchor="start" x="403.75" y="-1375.5" font-family="Helvetica,sans-Serif" font-size="10.00">domini.scrabble.Taulell.get</text>
<text text-anchor="middle" x="461.5" y="-1363.5" font-family="Helvetica,sans-Serif" font-size="10.00">Anchors</text>
</a>
</g>
</g>
<!-- Node2&#45;&gt;Node27 -->
<g id="edge53_Node000002_Node000027" class="edge">
<title>Node2&#45;&gt;Node27</title>
<g id="a_edge53_Node000002_Node000027"><a xlink:title=" ">
<path fill="none" stroke="#63b8ff" d="M268.75,-1257.34C288.48,-1280.85 328.09,-1323.99 371,-1348 375.4,-1350.46 380.05,-1352.69 384.83,-1354.71"/>
<polygon fill="#63b8ff" stroke="#63b8ff" points="383.47,-1357.94 394.06,-1358.27 385.98,-1351.4 383.47,-1357.94"/>
</a>
</g>
</g>
<!-- Node30 -->
<g id="Node000030" class="node">
<title>Node30</title>
<g id="a_Node000030"><a xlink:href="classdomini_1_1scrabble_1_1_casella.html#a1ed8e8ca20184dfafc007cf7b85a9e4e" target="_top" xlink:title="Mètode que indica si la casella es anchor.">
<polygon fill="white" stroke="#666666" points="526.88,-1339 396.12,-1339 396.12,-1307 526.88,-1307 526.88,-1339"/>
<text text-anchor="start" x="404.12" y="-1325.5" font-family="Helvetica,sans-Serif" font-size="10.00">domini.scrabble.Casella.is</text>
<text text-anchor="middle" x="461.5" y="-1313.5" font-family="Helvetica,sans-Serif" font-size="10.00">Anchor</text>
</a>
</g>
</g>
<!-- Node2&#45;&gt;Node30 -->
<g id="edge58_Node000002_Node000030" class="edge">
<title>Node2&#45;&gt;Node30</title>
<g id="a_edge58_Node000002_Node000030"><a xlink:title=" ">
<path fill="none" stroke="#63b8ff" d="M289.82,-1257.5C312.58,-1268.21 343.28,-1282.14 371,-1293 379.66,-1296.39 388.89,-1299.76 398,-1302.94"/>
<polygon fill="#63b8ff" stroke="#63b8ff" points="396.57,-1306.15 407.16,-1306.09 398.84,-1299.53 396.57,-1306.15"/>
</a>
</g>
</g>
<!-- Node4&#45;&gt;Node3 -->
<g id="edge4_Node000004_Node000003" class="edge">
<title>Node4&#45;&gt;Node3</title>
<g id="a_edge4_Node000004_Node000003"><a xlink:title=" ">
<path fill="none" stroke="#63b8ff" d="M489.98,-1052.37C515.12,-1061.42 553.54,-1074.14 588,-1081 725.8,-1108.44 890.04,-1118.43 982.41,-1122.02"/>
<polygon fill="#63b8ff" stroke="#63b8ff" points="982.22,-1125.52 992.34,-1122.39 982.48,-1118.52 982.22,-1125.52"/>
</a>
</g>
</g>
<!-- Node4&#45;&gt;Node4 -->
<g id="edge44_Node000004_Node000004" class="edge">
<title>Node4&#45;&gt;Node4</title>
<g id="a_edge44_Node000004_Node000004"><a xlink:title=" ">
<path fill="none" stroke="#63b8ff" d="M428.99,-1052.34C415.09,-1060.98 425.93,-1070 461.5,-1070 481.51,-1070 493.69,-1067.14 498.05,-1063.11"/>
<polygon fill="#63b8ff" stroke="#63b8ff" points="501.33,-1061.89 494.54,-1053.76 494.77,-1064.35 501.33,-1061.89"/>
</a>
</g>
</g>
<!-- Node5 -->
<g id="Node000005" class="node">
<title>Node5</title>
<g id="a_Node000005"><a xlink:href="classdomini_1_1jugadors_1_1_maquina.html#a28fa4d863085aaaba920b95a47bf14b7" target="_top" xlink:title="Genera totes les paraules possibles a la dreta d&#39;una subparaula prefix.">
<polygon fill="white" stroke="#666666" points="744.25,-850 588,-850 588,-818 744.25,-818 744.25,-850"/>
<text text-anchor="start" x="596" y="-836.5" font-family="Helvetica,sans-Serif" font-size="10.00">domini.jugadors.Maquina.extend</text>
<text text-anchor="middle" x="666.12" y="-824.5" font-family="Helvetica,sans-Serif" font-size="10.00">Right</text>
</a>
</g>
</g>
<!-- Node4&#45;&gt;Node5 -->
<g id="edge5_Node000004_Node000005" class="edge">
<title>Node4&#45;&gt;Node5</title>
<g id="a_edge5_Node000004_Node000005"><a xlink:title=" ">
<path fill="none" stroke="#63b8ff" d="M472.55,-1031.69C503.31,-1000.11 596.77,-904.16 641.19,-858.57"/>
<polygon fill="#63b8ff" stroke="#63b8ff" points="643.61,-861.1 648.08,-851.49 638.6,-856.21 643.61,-861.1"/>
</a>
</g>
</g>
<!-- Node4&#45;&gt;Node6 -->
<g id="edge45_Node000004_Node000006" class="edge">
<title>Node4&#45;&gt;Node6</title>
<g id="a_edge45_Node000004_Node000006"><a xlink:title=" ">
<path fill="none" stroke="#63b8ff" d="M467.83,-1052.15C482.59,-1079.04 526.99,-1151.87 588,-1179 811.86,-1278.57 909.98,-1268.39 1139.25,-1182 1179.77,-1166.73 1215.35,-1130.18 1236.12,-1105.24"/>
<polygon fill="#63b8ff" stroke="#63b8ff" points="1238.81,-1107.48 1242.38,-1097.5 1233.37,-1103.08 1238.81,-1107.48"/>
</a>
</g>
</g>
<!-- Node4&#45;&gt;Node7 -->
<g id="edge51_Node000004_Node000007" class="edge">
<title>Node4&#45;&gt;Node7</title>
<g id="a_edge51_Node000004_Node000007"><a xlink:title=" ">
<path fill="none" stroke="#63b8ff" d="M462.42,-1031.57C461.96,-942.99 463.22,-317.28 588,-191 673.22,-104.76 736.14,-148 857.38,-148 857.38,-148 857.38,-148 1056.88,-148 1183.41,-148 1235.79,-120.73 1337.5,-196 1401.69,-243.5 1429.46,-341.09 1438.99,-384.43"/>
<polygon fill="#63b8ff" stroke="#63b8ff" points="1435.53,-385.02 1440.99,-394.1 1442.39,-383.6 1435.53,-385.02"/>
</a>
</g>
</g>
<!-- Node8 -->
<g id="Node000008" class="node">
<title>Node8</title>
<g id="a_Node000008"><a xlink:href="classdomini_1_1diccionari_1_1_d_a_w_g.html#a5dca3044f48dcdb2aa2edc08f8554f19" target="_top" xlink:title="Donat un Node del DAWG, retorna el conjunt de lletres amb arista sortint.">
<polygon fill="white" stroke="#666666" points="927.88,-1058 788.88,-1058 788.88,-1026 927.88,-1026 927.88,-1058"/>
<text text-anchor="start" x="796.88" y="-1044.5" font-family="Helvetica,sans-Serif" font-size="10.00">domini.diccionari.DAWG.get</text>
<text text-anchor="middle" x="858.38" y="-1032.5" font-family="Helvetica,sans-Serif" font-size="10.00">EdgesFromNode</text>
</a>
</g>
</g>
<!-- Node4&#45;&gt;Node8 -->
<g id="edge46_Node000004_Node000008" class="edge">
<title>Node4&#45;&gt;Node8</title>
<g id="a_edge46_Node000004_Node000008"><a xlink:title=" ">
<path fill="none" stroke="#63b8ff" d="M552.1,-1042C619.72,-1042 711.68,-1042 776.95,-1042"/>
<polygon fill="#63b8ff" stroke="#63b8ff" points="776.89,-1045.5 786.89,-1042 776.89,-1038.5 776.89,-1045.5"/>
</a>
</g>
</g>
<!-- Node9 -->
<g id="Node000009" class="node">
<title>Node9</title>
<g id="a_Node000009"><a xlink:href="classdomini_1_1auxiliars_1_1_pair.html#af9fc7c6b0fb531c4b59cdb1048897164" target="_top" xlink:title="Obté el primer element de la parella.">
<polygon fill="white" stroke="#666666" points="1316.5,-316 1196.25,-316 1196.25,-284 1316.5,-284 1316.5,-316"/>
<text text-anchor="start" x="1204.25" y="-302.5" font-family="Helvetica,sans-Serif" font-size="10.00">domini.auxiliars.Pair.get</text>
<text text-anchor="middle" x="1256.38" y="-290.5" font-family="Helvetica,sans-Serif" font-size="10.00">First</text>
</a>
</g>
</g>
<!-- Node4&#45;&gt;Node9 -->
<g id="edge47_Node000004_Node000009" class="edge">
<title>Node4&#45;&gt;Node9</title>
<g id="a_edge47_Node000004_Node000009"><a xlink:title=" ">
<path fill="none" stroke="#63b8ff" d="M462.81,-1031.51C465.39,-949.91 486.05,-416.59 588,-301 750.9,-116.31 899.26,-189.79 1139.25,-245 1167.59,-251.52 1197.18,-265.66 1219.39,-277.97"/>
<polygon fill="#63b8ff" stroke="#63b8ff" points="1217.62,-280.99 1228.05,-282.89 1221.09,-274.91 1217.62,-280.99"/>
</a>
</g>
</g>
<!-- Node10 -->
<g id="Node000010" class="node">
<title>Node10</title>
<g id="a_Node000010"><a xlink:href="classdomini_1_1scrabble_1_1_casella.html#ad6fa4e60f906cde260a175354e4fda22" target="_top" xlink:title="Retorna la fitxa de la casella.">
<polygon fill="white" stroke="#666666" points="1124.25,-1052 987.5,-1052 987.5,-1020 1124.25,-1020 1124.25,-1052"/>
<text text-anchor="start" x="995.5" y="-1038.5" font-family="Helvetica,sans-Serif" font-size="10.00">domini.scrabble.Casella.get</text>
<text text-anchor="middle" x="1055.88" y="-1026.5" font-family="Helvetica,sans-Serif" font-size="10.00">Fitxa</text>
</a>
</g>
</g>
<!-- Node4&#45;&gt;Node10 -->
<g id="edge48_Node000004_Node000010" class="edge">
<title>Node4&#45;&gt;Node10</title>
<g id="a_edge48_Node000004_Node000010"><a xlink:title=" ">
<path fill="none" stroke="#63b8ff" d="M525.26,-1052.48C616.27,-1066.05 790,-1085.87 936.5,-1067 955,-1064.62 974.73,-1060.23 992.67,-1055.48"/>
<polygon fill="#63b8ff" stroke="#63b8ff" points="993.4,-1058.91 1002.12,-1052.89 991.55,-1052.16 993.4,-1058.91"/>
</a>
</g>
</g>
<!-- Node12 -->
<g id="Node000012" class="node">
<title>Node12</title>
<g id="a_Node000012"><a xlink:href="classdomini_1_1diccionari_1_1_d_a_w_g.html#ac58883549907777cdc59927351d3cbaa" target="_top" xlink:title="Donats un node i una lletra, retorna el node destí de la transició o &#45;1 en cas que no existeixi.">
<polygon fill="white" stroke="#666666" points="927.88,-334 788.88,-334 788.88,-302 927.88,-302 927.88,-334"/>
<text text-anchor="start" x="796.88" y="-320.5" font-family="Helvetica,sans-Serif" font-size="10.00">domini.diccionari.DAWG.get</text>
<text text-anchor="middle" x="858.38" y="-308.5" font-family="Helvetica,sans-Serif" font-size="10.00">NodeFromTransition</text>
</a>
</g>
</g>
<!-- Node4&#45;&gt;Node12 -->
<g id="edge49_Node000004_Node000012" class="edge">
<title>Node4&#45;&gt;Node12</title>
<g id="a_edge49_Node000004_Node000012"><a xlink:title=" ">
<path fill="none" stroke="#63b8ff" d="M467.02,-1031.54C503.68,-946.81 751.69,-374.94 780.25,-348 783.3,-345.12 786.67,-342.51 790.22,-340.14"/>
<polygon fill="#63b8ff" stroke="#63b8ff" points="791.85,-343.24 798.72,-335.18 788.32,-337.19 791.85,-343.24"/>
</a>
</g>
</g>
<!-- Node13 -->
<g id="Node000013" class="node">
<title>Node13</title>
<g id="a_Node000013"><a xlink:href="classdomini_1_1auxiliars_1_1_pair.html#af70cd15a3a6fe17c25fbae3a08955565" target="_top" xlink:title="Obté el segon element de la parella.">
<polygon fill="white" stroke="#666666" points="1316.5,-765 1196.25,-765 1196.25,-733 1316.5,-733 1316.5,-765"/>
<text text-anchor="start" x="1204.25" y="-751.5" font-family="Helvetica,sans-Serif" font-size="10.00">domini.auxiliars.Pair.get</text>
<text text-anchor="middle" x="1256.38" y="-739.5" font-family="Helvetica,sans-Serif" font-size="10.00">Second</text>
</a>
</g>
</g>
<!-- Node4&#45;&gt;Node13 -->
<g id="edge50_Node000004_Node000013" class="edge">
<title>Node4&#45;&gt;Node13</title>
<g id="a_edge50_Node000004_Node000013"><a xlink:title=" ">
<path fill="none" stroke="#63b8ff" d="M477.94,-1052.38C500.87,-1067.22 545.75,-1094.12 588,-1107 646.76,-1124.91 1093.79,-1190.31 1139.25,-1149 1201.21,-1092.7 1122.48,-838.99 1175.25,-774 1178.35,-770.18 1182.03,-766.94 1186.07,-764.18"/>
<polygon fill="#63b8ff" stroke="#63b8ff" points="1187.74,-767.26 1194.76,-759.33 1184.32,-761.14 1187.74,-767.26"/>
</a>
</g>
</g>
<!-- Node14 -->
<g id="Node000014" class="node">
<title>Node14</title>
<g id="a_Node000014"><a xlink:href="classdomini_1_1jugadors_1_1_maquina.html#a7d1379b7a857632d4bdcad6af82ef281" target="_top" xlink:title="Busca la posició d&#39;una lletra en el rack de la màquina.">
<polygon fill="white" stroke="#666666" points="931.25,-284 785.5,-284 785.5,-252 931.25,-252 931.25,-284"/>
<text text-anchor="start" x="793.5" y="-270.5" font-family="Helvetica,sans-Serif" font-size="10.00">domini.jugadors.Maquina.rack</text>
<text text-anchor="middle" x="858.38" y="-258.5" font-family="Helvetica,sans-Serif" font-size="10.00">ContainsLetter</text>
</a>
</g>
</g>
<!-- Node4&#45;&gt;Node14 -->
<g id="edge52_Node000004_Node000014" class="edge">
<title>Node4&#45;&gt;Node14</title>
<g id="a_edge52_Node000004_Node000014"><a xlink:title=" ">
<path fill="none" stroke="#63b8ff" d="M463.44,-1031.73C470.27,-958.98 514.05,-521.36 588,-414 633.78,-347.53 719.91,-308.57 782.49,-287.85"/>
<polygon fill="#63b8ff" stroke="#63b8ff" points="783.21,-291.3 791.66,-284.9 781.07,-284.63 783.21,-291.3"/>
</a>
</g>
</g>
<!-- Node5&#45;&gt;Node3 -->
<g id="edge6_Node000005_Node000003" class="edge">
<title>Node5&#45;&gt;Node3</title>
<g id="a_edge6_Node000005_Node000003"><a xlink:title=" ">
<path fill="none" stroke="#63b8ff" d="M675.64,-850.17C691.92,-879.46 730.32,-941.3 780.25,-974 840.5,-1013.46 881.46,-970.54 936.5,-1017 965.37,-1041.37 944.64,-1068.49 972.5,-1094 976.04,-1097.24 979.95,-1100.13 984.09,-1102.72"/>
<polygon fill="#63b8ff" stroke="#63b8ff" points="982.33,-1105.75 992.78,-1107.49 985.7,-1099.61 982.33,-1105.75"/>
</a>
</g>
</g>
<!-- Node5&#45;&gt;Node5 -->
<g id="edge7_Node000005_Node000005" class="edge">
<title>Node5&#45;&gt;Node5</title>
<g id="a_edge7_Node000005_Node000005"><a xlink:title=" ">
<path fill="none" stroke="#63b8ff" d="M631.8,-850.44C625.4,-859.58 636.84,-868 666.12,-868 682.14,-868 692.82,-865.48 698.16,-861.71"/>
<polygon fill="#63b8ff" stroke="#63b8ff" points="701.59,-862.42 700.15,-851.93 694.73,-861.03 701.59,-862.42"/>
</a>
</g>
</g>
<!-- Node5&#45;&gt;Node6 -->
<g id="edge8_Node000005_Node000006" class="edge">
<title>Node5&#45;&gt;Node6</title>
<g id="a_edge8_Node000005_Node000006"><a xlink:title=" ">
<path fill="none" stroke="#63b8ff" d="M679.83,-850.33C698.98,-873.76 737.56,-916.54 780.25,-939 843.23,-972.13 882.04,-928.19 936.5,-974 968.52,-1000.94 938.51,-1036.59 972.5,-1061 1004.43,-1083.93 1106.61,-1085.64 1178.97,-1083.69"/>
<polygon fill="#63b8ff" stroke="#63b8ff" points="1178.9,-1087.19 1188.79,-1083.39 1178.69,-1080.2 1178.9,-1087.19"/>
</a>
</g>
</g>
<!-- Node5&#45;&gt;Node7 -->
<g id="edge16_Node000005_Node000007" class="edge">
<title>Node5&#45;&gt;Node7</title>
<g id="a_edge16_Node000005_Node000007"><a xlink:title=" ">
<path fill="none" stroke="#63b8ff" d="M673.43,-817.51C687.87,-779.18 723.69,-680.85 744.25,-596 767.59,-499.71 711.82,-447.65 780.25,-376 829.27,-324.67 882.83,-389.45 936.5,-343 971.58,-312.63 934.45,-271.56 972.5,-245 1105.97,-151.84 1196.34,-193.95 1337.5,-275 1383.33,-301.31 1417.13,-355.85 1433.02,-385.58"/>
<polygon fill="#63b8ff" stroke="#63b8ff" points="1429.83,-387.03 1437.52,-394.31 1436.05,-383.82 1429.83,-387.03"/>
</a>
</g>
</g>
<!-- Node5&#45;&gt;Node8 -->
<g id="edge10_Node000005_Node000008" class="edge">
<title>Node5&#45;&gt;Node8</title>
<g id="a_edge10_Node000005_Node000008"><a xlink:title=" ">
<path fill="none" stroke="#63b8ff" d="M673.39,-850.44C687.38,-885.07 724.38,-966.09 780.25,-1012 783.93,-1015.03 787.96,-1017.77 792.17,-1020.26"/>
<polygon fill="#63b8ff" stroke="#63b8ff" points="790.47,-1023.32 800.95,-1024.9 793.74,-1017.13 790.47,-1023.32"/>
</a>
</g>
</g>
<!-- Node5&#45;&gt;Node9 -->
<g id="edge11_Node000005_Node000009" class="edge">
<title>Node5&#45;&gt;Node9</title>
<g id="a_edge11_Node000005_Node000009"><a xlink:title=" ">
<path fill="none" stroke="#63b8ff" d="M670.6,-817.83C681.24,-770.74 716.57,-630.84 780.25,-532 833.39,-449.51 883.89,-458.83 936.5,-376 961.83,-336.13 933.85,-303.16 972.5,-276 1043.06,-226.41 1149.33,-255.83 1209.52,-279.41"/>
<polygon fill="#63b8ff" stroke="#63b8ff" points="1207.86,-282.52 1218.45,-283.01 1210.48,-276.03 1207.86,-282.52"/>
</a>
</g>
</g>
<!-- Node5&#45;&gt;Node10 -->
<g id="edge12_Node000005_Node000010" class="edge">
<title>Node5&#45;&gt;Node10</title>
<g id="a_edge12_Node000005_Node000010"><a xlink:title=" ">
<path fill="none" stroke="#63b8ff" d="M689.5,-850.25C711.62,-865.67 746.89,-888.57 780.25,-903 846.36,-931.59 879.14,-902.44 936.5,-946 961.27,-964.81 948.51,-986.21 972.5,-1006 976.2,-1009.05 980.23,-1011.81 984.47,-1014.29"/>
<polygon fill="#63b8ff" stroke="#63b8ff" points="982.81,-1017.38 993.3,-1018.91 986.06,-1011.17 982.81,-1017.38"/>
</a>
</g>
</g>
<!-- Node11 -->
<g id="Node000011" class="node">
<title>Node11</title>
<g id="a_Node000011"><a xlink:href="classdomini_1_1scrabble_1_1_fitxa.html#a3ee9b39d600851a00c4ce541339ba90e" target="_top" xlink:title="Retorna la lletra associada a la fitxa.">
<polygon fill="white" stroke="#666666" points="1118.62,-850 993.12,-850 993.12,-818 1118.62,-818 1118.62,-850"/>
<text text-anchor="start" x="1001.12" y="-836.5" font-family="Helvetica,sans-Serif" font-size="10.00">domini.scrabble.Fitxa.get</text>
<text text-anchor="middle" x="1055.88" y="-824.5" font-family="Helvetica,sans-Serif" font-size="10.00">Lletra</text>
</a>
</g>
</g>
<!-- Node5&#45;&gt;Node11 -->
<g id="edge13_Node000005_Node000011" class="edge">
<title>Node5&#45;&gt;Node11</title>
<g id="a_edge13_Node000005_Node000011"><a xlink:title=" ">
<path fill="none" stroke="#63b8ff" d="M744.66,-834C813.6,-834 913.69,-834 981.38,-834"/>
<polygon fill="#63b8ff" stroke="#63b8ff" points="981.28,-837.5 991.28,-834 981.28,-830.5 981.28,-837.5"/>
</a>
</g>
</g>
<!-- Node5&#45;&gt;Node12 -->
<g id="edge14_Node000005_Node000012" class="edge">
<title>Node5&#45;&gt;Node12</title>
<g id="a_edge14_Node000005_Node000012"><a xlink:title=" ">
<path fill="none" stroke="#63b8ff" d="M678.04,-817.64C695.35,-790.81 728.7,-735.19 744.25,-683 765.63,-611.25 734.73,-407.45 780.25,-348 782.22,-345.43 784.43,-343.09 786.84,-340.94"/>
<polygon fill="#63b8ff" stroke="#63b8ff" points="788.51,-344.06 794.45,-335.29 784.34,-338.44 788.51,-344.06"/>
</a>
</g>
</g>
<!-- Node5&#45;&gt;Node13 -->
<g id="edge15_Node000005_Node000013" class="edge">
<title>Node5&#45;&gt;Node13</title>
<g id="a_edge15_Node000005_Node000013"><a xlink:title=" ">
<path fill="none" stroke="#63b8ff" d="M734.62,-817.53C796.22,-803.1 889.96,-782.68 972.5,-771 1044.25,-760.85 1126.95,-755.1 1184.33,-752.05"/>
<polygon fill="#63b8ff" stroke="#63b8ff" points="1184.49,-755.54 1194.3,-751.53 1184.13,-748.55 1184.49,-755.54"/>
</a>
</g>
</g>
<!-- Node5&#45;&gt;Node14 -->
<g id="edge17_Node000005_Node000014" class="edge">
<title>Node5&#45;&gt;Node14</title>
<g id="a_edge17_Node000005_Node000014"><a xlink:title=" ">
<path fill="none" stroke="#63b8ff" d="M670.07,-817.61C686.02,-729.3 761.92,-313.41 780.25,-293 780.61,-292.59 780.99,-292.19 781.36,-291.8"/>
<polygon fill="#63b8ff" stroke="#63b8ff" points="783.54,-294.54 788.96,-285.44 779.05,-289.17 783.54,-294.54"/>
</a>
</g>
</g>
<!-- Node15 -->
<g id="Node000015" class="node">
<title>Node15</title>
<g id="a_Node000015"><a xlink:href="classdomini_1_1jugadors_1_1_maquina.html#a57c533590571f4918ebd03a0b0d4819b" target="_top" xlink:title="Comprova si una lletra és vàlida per a una casella que formi paraula transversal vertical.">
<polygon fill="white" stroke="#666666" points="932,-894 784.75,-894 784.75,-862 932,-862 932,-894"/>
<text text-anchor="start" x="792.75" y="-880.5" font-family="Helvetica,sans-Serif" font-size="10.00">domini.jugadors.Maquina.valid</text>
<text text-anchor="middle" x="858.38" y="-868.5" font-family="Helvetica,sans-Serif" font-size="10.00">_traversals</text>
</a>
</g>
</g>
<!-- Node5&#45;&gt;Node15 -->
<g id="edge18_Node000005_Node000015" class="edge">
<title>Node5&#45;&gt;Node15</title>
<g id="a_edge18_Node000005_Node000015"><a xlink:title=" ">
<path fill="none" stroke="#63b8ff" d="M738.24,-850.45C750.2,-853.21 762.7,-856.1 774.92,-858.93"/>
<polygon fill="#63b8ff" stroke="#63b8ff" points="774.03,-862.32 784.56,-861.16 775.6,-855.5 774.03,-862.32"/>
</a>
</g>
</g>
<!-- Node18 -->
<g id="Node000018" class="node">
<title>Node18</title>
<g id="a_Node000018"><a xlink:href="classdomini_1_1jugadors_1_1_maquina.html#a247420aa69d81da6d3d1951d3b409a43" target="_top" xlink:title="Valora una paraula i actualitza la millor paraula trobada si és millor.">
<polygon fill="white" stroke="#666666" points="936.5,-573 780.25,-573 780.25,-541 936.5,-541 936.5,-573"/>
<text text-anchor="start" x="788.25" y="-559.5" font-family="Helvetica,sans-Serif" font-size="10.00">domini.jugadors.Maquina.valorar</text>
<text text-anchor="middle" x="858.38" y="-547.5" font-family="Helvetica,sans-Serif" font-size="10.00">Paraula</text>
</a>
</g>
</g>
<!-- Node5&#45;&gt;Node18 -->
<g id="edge28_Node000005_Node000018" class="edge">
<title>Node5&#45;&gt;Node18</title>
<g id="a_edge28_Node000005_Node000018"><a xlink:title=" ">
<path fill="none" stroke="#63b8ff" d="M678.46,-817.5C710.38,-771.03 801.22,-638.76 839.75,-582.66"/>
<polygon fill="#63b8ff" stroke="#63b8ff" points="842.47,-584.88 845.25,-574.66 836.7,-580.92 842.47,-584.88"/>
</a>
</g>
</g>
<!-- Node6&#45;&gt;Node7 -->
<g id="edge9_Node000006_Node000007" class="edge">
<title>Node6&#45;&gt;Node7</title>
<g id="a_edge9_Node000006_Node000007"><a xlink:title=" ">
<path fill="none" stroke="#63b8ff" d="M1272.7,-1063.59C1291.09,-1042.94 1321.45,-1005.6 1337.5,-968 1421.86,-770.34 1439.08,-505.1 1442.38,-427.92"/>
<polygon fill="#63b8ff" stroke="#63b8ff" points="1445.88,-428.1 1442.77,-417.97 1438.88,-427.83 1445.88,-428.1"/>
</a>
</g>
</g>
<!-- Node15&#45;&gt;Node3 -->
<g id="edge21_Node000015_Node000003" class="edge">
<title>Node15&#45;&gt;Node3</title>
<g id="a_edge21_Node000015_Node000003"><a xlink:title=" ">
<path fill="none" stroke="#63b8ff" d="M872.69,-894.21C888.95,-914.45 916.72,-950.48 936.5,-984 955.7,-1016.53 948.82,-1031.57 972.5,-1061 985.03,-1076.57 1002.17,-1090.47 1017.58,-1101.24"/>
<polygon fill="#63b8ff" stroke="#63b8ff" points="1015.38,-1103.98 1025.63,-1106.67 1019.3,-1098.18 1015.38,-1103.98"/>
</a>
</g>
</g>
<!-- Node15&#45;&gt;Node6 -->
<g id="edge22_Node000015_Node000006" class="edge">
<title>Node15&#45;&gt;Node6</title>
<g id="a_edge22_Node000015_Node000006"><a xlink:title=" ">
<path fill="none" stroke="#63b8ff" d="M930.01,-894.42C932.27,-895.82 934.45,-897.35 936.5,-899 963.44,-920.69 945.41,-946.49 972.5,-968 1032.44,-1015.6 1068.59,-981.6 1139.25,-1011 1169.05,-1023.4 1200.37,-1042.41 1222.97,-1057.34"/>
<polygon fill="#63b8ff" stroke="#63b8ff" points="1220.88,-1060.15 1231.13,-1062.82 1224.78,-1054.34 1220.88,-1060.15"/>
</a>
</g>
</g>
<!-- Node15&#45;&gt;Node7 -->
<g id="edge27_Node000015_Node000007" class="edge">
<title>Node15&#45;&gt;Node7</title>
<g id="a_edge27_Node000015_Node000007"><a xlink:title=" ">
<path fill="none" stroke="#63b8ff" d="M925.04,-894.49C928.96,-895.9 932.8,-897.41 936.5,-899 953.72,-906.43 954.45,-915.92 972.5,-921 1135.47,-966.86 1233.52,-945.61 1337.5,-812 1432.06,-690.49 1442.48,-492.79 1443.23,-427.61"/>
<polygon fill="#63b8ff" stroke="#63b8ff" points="1446.73,-427.92 1443.27,-417.91 1439.73,-427.9 1446.73,-427.92"/>
</a>
</g>
</g>
<!-- Node15&#45;&gt;Node9 -->
<g id="edge23_Node000015_Node000009" class="edge">
<title>Node15&#45;&gt;Node9</title>
<g id="a_edge23_Node000015_Node000009"><a xlink:title=" ">
<path fill="none" stroke="#63b8ff" d="M932.37,-882.88C1005.06,-886.06 1109.92,-885.56 1139.25,-859 1174.99,-826.63 1165.79,-692.29 1175.25,-645 1199.06,-525.98 1233.79,-385.38 1248.44,-327.25"/>
<polygon fill="#63b8ff" stroke="#63b8ff" points="1251.75,-328.46 1250.81,-317.91 1244.96,-326.74 1251.75,-328.46"/>
</a>
</g>
</g>
<!-- Node15&#45;&gt;Node10 -->
<g id="edge24_Node000015_Node000010" class="edge">
<title>Node15&#45;&gt;Node10</title>
<g id="a_edge24_Node000015_Node000010"><a xlink:title=" ">
<path fill="none" stroke="#63b8ff" d="M917.89,-894.42C924.74,-898.09 931.17,-902.56 936.5,-908 969,-941.12 939.64,-973.24 972.5,-1006 975.33,-1008.83 978.46,-1011.39 981.77,-1013.71"/>
<polygon fill="#63b8ff" stroke="#63b8ff" points="979.92,-1016.68 990.28,-1018.86 983.54,-1010.69 979.92,-1016.68"/>
</a>
</g>
</g>
<!-- Node15&#45;&gt;Node11 -->
<g id="edge25_Node000015_Node000011" class="edge">
<title>Node15&#45;&gt;Node11</title>
<g id="a_edge25_Node000015_Node000011"><a xlink:title=" ">
<path fill="none" stroke="#63b8ff" d="M932.45,-861.55C948.58,-857.92 965.66,-854.08 981.79,-850.45"/>
<polygon fill="#63b8ff" stroke="#63b8ff" points="982.31,-853.92 991.3,-848.31 980.77,-847.09 982.31,-853.92"/>
</a>
</g>
</g>
<!-- Node15&#45;&gt;Node13 -->
<g id="edge26_Node000015_Node000013" class="edge">
<title>Node15&#45;&gt;Node13</title>
<g id="a_edge26_Node000015_Node000013"><a xlink:title=" ">
<path fill="none" stroke="#63b8ff" d="M899.14,-894.39C957.88,-915.7 1068.48,-944.4 1139.25,-892 1183.32,-859.37 1136.6,-812.89 1175.25,-774 1178.45,-770.78 1182.06,-767.97 1185.93,-765.52"/>
<polygon fill="#63b8ff" stroke="#63b8ff" points="1187.5,-768.66 1194.68,-760.86 1184.2,-762.48 1187.5,-768.66"/>
</a>
</g>
</g>
<!-- Node16 -->
<g id="Node000016" class="node">
<title>Node16</title>
<g id="a_Node000016"><a xlink:href="classdomini_1_1diccionari_1_1_d_a_w_g.html#acf204a82f6e4f5cebf3313611e57b714" target="_top" xlink:title="Comprova si una paraula està reconeguda pel DAWG.">
<polygon fill="white" stroke="#666666" points="1137,-800 974.75,-800 974.75,-780 1137,-780 1137,-800"/>
<text text-anchor="middle" x="1055.88" y="-786.5" font-family="Helvetica,sans-Serif" font-size="10.00">domini.diccionari.DAWG.contains</text>
</a>
</g>
</g>
<!-- Node15&#45;&gt;Node16 -->
<g id="edge19_Node000015_Node000016" class="edge">
<title>Node15&#45;&gt;Node16</title>
<g id="a_edge19_Node000015_Node000016"><a xlink:title=" ">
<path fill="none" stroke="#63b8ff" d="M881.2,-861.74C903.19,-846.08 938.63,-822.81 972.5,-809 977.42,-806.99 982.6,-805.17 987.86,-803.53"/>
<polygon fill="#63b8ff" stroke="#63b8ff" points="988.64,-806.95 997.28,-800.81 986.7,-800.22 988.64,-806.95"/>
</a>
</g>
</g>
<!-- Node17 -->
<g id="Node000017" class="node">
<title>Node17</title>
<g id="a_Node000017"><a xlink:href="classdomini_1_1diccionari_1_1_d_a_w_g.html#ad5db7cc629d77068e51ccae18f9bfebd" target="_top" xlink:title="Genera una llista amb les lletres i dígrafs de la paraula paràmetre.">
<polygon fill="white" stroke="#666666" points="1337.5,-803 1175.25,-803 1175.25,-783 1337.5,-783 1337.5,-803"/>
<text text-anchor="middle" x="1256.38" y="-789.5" font-family="Helvetica,sans-Serif" font-size="10.00">domini.diccionari.DAWG.tokenize</text>
</a>
</g>
</g>
<!-- Node16&#45;&gt;Node17 -->
<g id="edge20_Node000016_Node000017" class="edge">
<title>Node16&#45;&gt;Node17</title>
<g id="a_edge20_Node000016_Node000017"><a xlink:title=" ">
<path fill="none" stroke="#63b8ff" d="M1137.33,-791.22C1145.92,-791.35 1154.71,-791.48 1163.42,-791.61"/>
<polygon fill="#63b8ff" stroke="#63b8ff" points="1163.24,-795.11 1173.3,-791.76 1163.35,-788.11 1163.24,-795.11"/>
</a>
</g>
</g>
<!-- Node18&#45;&gt;Node7 -->
<g id="edge39_Node000018_Node000007" class="edge">
<title>Node18&#45;&gt;Node7</title>
<g id="a_edge39_Node000018_Node000007"><a xlink:title=" ">
<path fill="none" stroke="#63b8ff" d="M887.55,-573.42C909.79,-585.38 942.04,-600.57 972.5,-607 1045.01,-622.31 1068.28,-628.35 1139.25,-607 1261.65,-570.18 1380.16,-466.25 1424.65,-424.1"/>
<polygon fill="#63b8ff" stroke="#63b8ff" points="1426.88,-426.8 1431.68,-417.35 1422.04,-421.75 1426.88,-426.8"/>
</a>
</g>
</g>
<!-- Node18&#45;&gt;Node9 -->
<g id="edge36_Node000018_Node000009" class="edge">
<title>Node18&#45;&gt;Node9</title>
<g id="a_edge36_Node000018_Node000009"><a xlink:title=" ">
<path fill="none" stroke="#63b8ff" d="M869.13,-540.63C884.53,-514.43 914.94,-461.21 936.5,-414 955.26,-372.93 936.22,-345.89 972.5,-319 1033.18,-274.03 1122.75,-276.14 1184.78,-285.05"/>
<polygon fill="#63b8ff" stroke="#63b8ff" points="1184.11,-288.49 1194.53,-286.56 1185.18,-281.57 1184.11,-288.49"/>
</a>
</g>
</g>
<!-- Node18&#45;&gt;Node13 -->
<g id="edge38_Node000018_Node000013" class="edge">
<title>Node18&#45;&gt;Node13</title>
<g id="a_edge38_Node000018_Node000013"><a xlink:title=" ">
<path fill="none" stroke="#63b8ff" d="M867.71,-573.32C883.7,-602.83 921.64,-664.76 972.5,-695 1007.58,-715.86 1112.97,-732.07 1184.72,-741.09"/>
<polygon fill="#63b8ff" stroke="#63b8ff" points="1184.08,-744.53 1194.43,-742.29 1184.93,-737.59 1184.08,-744.53"/>
</a>
</g>
</g>
<!-- Node18&#45;&gt;Node16 -->
<g id="edge34_Node000018_Node000016" class="edge">
<title>Node18&#45;&gt;Node16</title>
<g id="a_edge34_Node000018_Node000016"><a xlink:title=" ">
<path fill="none" stroke="#63b8ff" d="M867.74,-573.38C884.61,-605.44 925.18,-677.71 972.5,-728 989.11,-745.65 1011.2,-761.98 1028.32,-773.44"/>
<polygon fill="#63b8ff" stroke="#63b8ff" points="1026.2,-776.23 1036.48,-778.77 1030.03,-770.37 1026.2,-776.23"/>
</a>
</g>
</g>
<!-- Node19 -->
<g id="Node000019" class="node">
<title>Node19</title>
<g id="a_Node000019"><a xlink:href="classdomini_1_1jugadors_1_1_maquina.html#a80169174406c5da6922feb0f4c854ac8" target="_top" xlink:title="Calcula la puntuació d&#39;una paraula col·locada en el taulell.">
<polygon fill="white" stroke="#666666" points="1136.25,-686 975.5,-686 975.5,-654 1136.25,-654 1136.25,-686"/>
<text text-anchor="start" x="983.5" y="-672.5" font-family="Helvetica,sans-Serif" font-size="10.00">domini.jugadors.Maquina.calcular</text>
<text text-anchor="middle" x="1055.88" y="-660.5" font-family="Helvetica,sans-Serif" font-size="10.00">Puntatge</text>
</a>
</g>
</g>
<!-- Node18&#45;&gt;Node19 -->
<g id="edge29_Node000018_Node000019" class="edge">
<title>Node18&#45;&gt;Node19</title>
<g id="a_edge29_Node000018_Node000019"><a xlink:title=" ">
<path fill="none" stroke="#63b8ff" d="M878.27,-573.49C899.86,-591.69 936.84,-620.93 972.5,-640 978.75,-643.34 985.46,-646.47 992.25,-649.33"/>
<polygon fill="#63b8ff" stroke="#63b8ff" points="990.94,-652.58 1001.52,-653.06 993.55,-646.08 990.94,-652.58"/>
</a>
</g>
</g>
<!-- Node21 -->
<g id="Node000021" class="node">
<title>Node21</title>
<g id="a_Node000021"><a xlink:href="classdomini_1_1jugadors_1_1_maquina.html#ae5ea3ad1e6cf736172f038349b70857d" target="_top" xlink:title="Converteix una llista de fitxes en una cadena de text.">
<polygon fill="white" stroke="#666666" points="1134,-598 977.75,-598 977.75,-566 1134,-566 1134,-598"/>
<text text-anchor="start" x="985.75" y="-584.5" font-family="Helvetica,sans-Serif" font-size="10.00">domini.jugadors.Maquina.fitxes2</text>
<text text-anchor="middle" x="1055.88" y="-572.5" font-family="Helvetica,sans-Serif" font-size="10.00">String</text>
</a>
</g>
</g>
<!-- Node18&#45;&gt;Node21 -->
<g id="edge35_Node000018_Node000021" class="edge">
<title>Node18&#45;&gt;Node21</title>
<g id="a_edge35_Node000018_Node000021"><a xlink:title=" ">
<path fill="none" stroke="#63b8ff" d="M936.92,-566.92C946.5,-568.14 956.35,-569.4 966.08,-570.64"/>
<polygon fill="#63b8ff" stroke="#63b8ff" points="965.56,-574.11 975.92,-571.9 966.44,-567.16 965.56,-574.11"/>
</a>
</g>
</g>
<!-- Node22 -->
<g id="Node000022" class="node">
<title>Node22</title>
<g id="a_Node000022"><a xlink:href="classdomini_1_1auxiliars_1_1_max_word.html#a095b18721ed654f8c136b6fd2b9a4f6d" target="_top" xlink:title="Obté la puntuació de la paraula.">
<polygon fill="white" stroke="#666666" points="1128,-548 983.75,-548 983.75,-516 1128,-516 1128,-548"/>
<text text-anchor="start" x="991.75" y="-534.5" font-family="Helvetica,sans-Serif" font-size="10.00">domini.auxiliars.MaxWord.get</text>
<text text-anchor="middle" x="1055.88" y="-522.5" font-family="Helvetica,sans-Serif" font-size="10.00">Points</text>
</a>
</g>
</g>
<!-- Node18&#45;&gt;Node22 -->
<g id="edge37_Node000018_Node000022" class="edge">
<title>Node18&#45;&gt;Node22</title>
<g id="a_edge37_Node000018_Node000022"><a xlink:title=" ">
<path fill="none" stroke="#63b8ff" d="M936.92,-547.08C948.56,-545.6 960.59,-544.06 972.32,-542.56"/>
<polygon fill="#63b8ff" stroke="#63b8ff" points="972.48,-546.07 981.96,-541.32 971.59,-539.12 972.48,-546.07"/>
</a>
</g>
</g>
<!-- Node23 -->
<g id="Node000023" class="node">
<title>Node23</title>
<g id="a_Node000023"><a xlink:href="classdomini_1_1auxiliars_1_1_max_word.html#a946a8835bbce29ef90f8c76455735c0d" target="_top" xlink:title="Assigna unes noves coordenades inicials a la paraula.">
<polygon fill="white" stroke="#666666" points="1128,-498 983.75,-498 983.75,-466 1128,-466 1128,-498"/>
<text text-anchor="start" x="991.75" y="-484.5" font-family="Helvetica,sans-Serif" font-size="10.00">domini.auxiliars.MaxWord.set</text>
<text text-anchor="middle" x="1055.88" y="-472.5" font-family="Helvetica,sans-Serif" font-size="10.00">Coordinates</text>
</a>
</g>
</g>
<!-- Node18&#45;&gt;Node23 -->
<g id="edge40_Node000018_Node000023" class="edge">
<title>Node18&#45;&gt;Node23</title>
<g id="a_edge40_Node000018_Node000023"><a xlink:title=" ">
<path fill="none" stroke="#63b8ff" d="M893.58,-540.58C915.79,-530.24 945.52,-517.01 972.5,-507 977.12,-505.29 981.91,-503.6 986.76,-501.96"/>
<polygon fill="#63b8ff" stroke="#63b8ff" points="987.57,-505.38 995.97,-498.93 985.38,-498.73 987.57,-505.38"/>
</a>
</g>
</g>
<!-- Node24 -->
<g id="Node000024" class="node">
<title>Node24</title>
<g id="a_Node000024"><a xlink:href="classdomini_1_1auxiliars_1_1_max_word.html#adb214547721bf7d9bb1a04c97827d0b0" target="_top" xlink:title="Defineix la direcció de la paraula.">
<polygon fill="white" stroke="#666666" points="1128,-448 983.75,-448 983.75,-416 1128,-416 1128,-448"/>
<text text-anchor="start" x="991.75" y="-434.5" font-family="Helvetica,sans-Serif" font-size="10.00">domini.auxiliars.MaxWord.set</text>
<text text-anchor="middle" x="1055.88" y="-422.5" font-family="Helvetica,sans-Serif" font-size="10.00">Horizontal</text>
</a>
</g>
</g>
<!-- Node18&#45;&gt;Node24 -->
<g id="edge41_Node000018_Node000024" class="edge">
<title>Node18&#45;&gt;Node24</title>
<g id="a_edge41_Node000018_Node000024"><a xlink:title=" ">
<path fill="none" stroke="#63b8ff" d="M873.47,-540.77C893.42,-518.77 931.99,-479.62 972.5,-457 975.01,-455.6 977.61,-454.26 980.27,-453"/>
<polygon fill="#63b8ff" stroke="#63b8ff" points="981.61,-456.23 989.39,-449.04 978.82,-449.81 981.61,-456.23"/>
</a>
</g>
</g>
<!-- Node25 -->
<g id="Node000025" class="node">
<title>Node25</title>
<g id="a_Node000025"><a xlink:href="classdomini_1_1auxiliars_1_1_max_word.html#ae599f47659f48bcc17daf17b83bd7255" target="_top" xlink:title="Assigna una nova puntuació a la paraula.">
<polygon fill="white" stroke="#666666" points="1128,-398 983.75,-398 983.75,-366 1128,-366 1128,-398"/>
<text text-anchor="start" x="991.75" y="-384.5" font-family="Helvetica,sans-Serif" font-size="10.00">domini.auxiliars.MaxWord.set</text>
<text text-anchor="middle" x="1055.88" y="-372.5" font-family="Helvetica,sans-Serif" font-size="10.00">Points</text>
</a>
</g>
</g>
<!-- Node18&#45;&gt;Node25 -->
<g id="edge42_Node000018_Node000025" class="edge">
<title>Node18&#45;&gt;Node25</title>
<g id="a_edge42_Node000018_Node000025"><a xlink:title=" ">
<path fill="none" stroke="#63b8ff" d="M867.18,-540.77C882.8,-510 920.89,-443.04 972.5,-407 974.1,-405.88 975.75,-404.81 977.45,-403.79"/>
<polygon fill="#63b8ff" stroke="#63b8ff" points="979.01,-406.93 986.2,-399.15 975.72,-400.74 979.01,-406.93"/>
</a>
</g>
</g>
<!-- Node26 -->
<g id="Node000026" class="node">
<title>Node26</title>
<g id="a_Node000026"><a xlink:href="classdomini_1_1auxiliars_1_1_max_word.html#a452955f9d5f0cfedcab85fd1c74609c6" target="_top" xlink:title="Assigna una nova llista de fitxes a la paraula.">
<polygon fill="white" stroke="#666666" points="1139.25,-348 972.5,-348 972.5,-328 1139.25,-328 1139.25,-348"/>
<text text-anchor="middle" x="1055.88" y="-334.5" font-family="Helvetica,sans-Serif" font-size="10.00">domini.auxiliars.MaxWord.setWord</text>
</a>
</g>
</g>
<!-- Node18&#45;&gt;Node26 -->
<g id="edge43_Node000018_Node000026" class="edge">
<title>Node18&#45;&gt;Node26</title>
<g id="a_edge43_Node000018_Node000026"><a xlink:title=" ">
<path fill="none" stroke="#63b8ff" d="M868.21,-540.55C893.36,-493.83 964.11,-363.27 972.5,-357 974.08,-355.82 975.71,-354.72 977.4,-353.68"/>
<polygon fill="#63b8ff" stroke="#63b8ff" points="978.92,-356.83 986.2,-349.13 975.71,-350.61 978.92,-356.83"/>
</a>
</g>
</g>
<!-- Node19&#45;&gt;Node6 -->
<g id="edge30_Node000019_Node000006" class="edge">
<title>Node19&#45;&gt;Node6</title>
<g id="a_edge30_Node000019_Node000006"><a xlink:title=" ">
<path fill="none" stroke="#63b8ff" d="M1072.99,-686.26C1091.1,-705.24 1120.41,-738.24 1139.25,-771 1195.14,-868.2 1233.43,-997.31 1248.37,-1052.78"/>
<polygon fill="#63b8ff" stroke="#63b8ff" points="1244.95,-1053.53 1250.9,-1062.3 1251.72,-1051.73 1244.95,-1053.53"/>
</a>
</g>
</g>
<!-- Node19&#45;&gt;Node9 -->
<g id="edge31_Node000019_Node000009" class="edge">
<title>Node19&#45;&gt;Node9</title>
<g id="a_edge31_Node000019_Node000009"><a xlink:title=" ">
<path fill="none" stroke="#63b8ff" d="M1085.75,-653.65C1103.28,-642.46 1124.95,-626.21 1139.25,-607 1206.12,-517.14 1238.77,-384.26 1250.32,-327.42"/>
<polygon fill="#63b8ff" stroke="#63b8ff" points="1253.74,-328.15 1252.23,-317.67 1246.87,-326.8 1253.74,-328.15"/>
</a>
</g>
</g>
<!-- Node19&#45;&gt;Node13 -->
<g id="edge33_Node000019_Node000013" class="edge">
<title>Node19&#45;&gt;Node13</title>
<g id="a_edge33_Node000019_Node000013"><a xlink:title=" ">
<path fill="none" stroke="#63b8ff" d="M1103.21,-686.41C1115.01,-690.72 1127.63,-695.44 1139.25,-700 1161.71,-708.82 1186.37,-719.14 1207.16,-728.02"/>
<polygon fill="#63b8ff" stroke="#63b8ff" points="1205.69,-731.2 1216.26,-731.92 1208.45,-724.76 1205.69,-731.2"/>
</a>
</g>
</g>
<!-- Node20 -->
<g id="Node000020" class="node">
<title>Node20</title>
<g id="a_Node000020"><a xlink:href="classdomini_1_1scrabble_1_1_casella.html#a2ce7db6c414e455606dfbd8ee8056a3b" target="_top" xlink:title="Retorna el multiplicador de la casella.">
<polygon fill="white" stroke="#666666" points="1324.75,-686 1188,-686 1188,-654 1324.75,-654 1324.75,-686"/>
<text text-anchor="start" x="1196" y="-672.5" font-family="Helvetica,sans-Serif" font-size="10.00">domini.scrabble.Casella.get</text>
<text text-anchor="middle" x="1256.38" y="-660.5" font-family="Helvetica,sans-Serif" font-size="10.00">Multiplicador</text>
</a>
</g>
</g>
<!-- Node19&#45;&gt;Node20 -->
<g id="edge32_Node000019_Node000020" class="edge">
<title>Node19&#45;&gt;Node20</title>
<g id="a_edge32_Node000019_Node000020"><a xlink:title=" ">
<path fill="none" stroke="#63b8ff" d="M1136.47,-670C1149.57,-670 1163.14,-670 1176.23,-670"/>
<polygon fill="#63b8ff" stroke="#63b8ff" points="1176.06,-673.5 1186.06,-670 1176.06,-666.5 1176.06,-673.5"/>
</a>
</g>
</g>
<!-- Node27&#45;&gt;Node6 -->
<g id="edge55_Node000027_Node000006" class="edge">
<title>Node27&#45;&gt;Node6</title>
<g id="a_edge55_Node000027_Node000006"><a xlink:title=" ">
<path fill="none" stroke="#63b8ff" d="M527.66,-1356.83C546.99,-1352.48 568.27,-1348.12 588,-1345 831.07,-1306.58 933.79,-1428.45 1139.25,-1293 1205.56,-1249.28 1237.19,-1154.39 1249.25,-1107.44"/>
<polygon fill="#63b8ff" stroke="#63b8ff" points="1252.63,-1108.35 1251.61,-1097.8 1245.83,-1106.69 1252.63,-1108.35"/>
</a>
</g>
</g>
<!-- Node28 -->
<g id="Node000028" class="node">
<title>Node28</title>
<g id="a_Node000028"><a xlink:href="classdomini_1_1scrabble_1_1_taulell.html#a268ce8c62ca09000409a18be258fbc89" target="_top" xlink:title="Comprova si el taulell està completament buit (cap casella ocupada).">
<polygon fill="white" stroke="#666666" points="743.12,-1374 589.12,-1374 589.12,-1354 743.12,-1354 743.12,-1374"/>
<text text-anchor="middle" x="666.12" y="-1360.5" font-family="Helvetica,sans-Serif" font-size="10.00">domini.scrabble.Taulell.estaBuit</text>
</a>
</g>
</g>
<!-- Node27&#45;&gt;Node28 -->
<g id="edge54_Node000027_Node000028" class="edge">
<title>Node27&#45;&gt;Node28</title>
<g id="a_edge54_Node000027_Node000028"><a xlink:title=" ">
<path fill="none" stroke="#63b8ff" d="M527.73,-1370.1C543.52,-1369.4 560.66,-1368.64 577.3,-1367.9"/>
<polygon fill="#63b8ff" stroke="#63b8ff" points="577.37,-1371.4 587.21,-1367.46 577.06,-1364.41 577.37,-1371.4"/>
</a>
</g>
</g>
<!-- Node29 -->
<g id="Node000029" class="node">
<title>Node29</title>
<g id="a_Node000029"><a xlink:href="classdomini_1_1scrabble_1_1_taulell.html#a28a346ace920ef6a74f94825249d671c" target="_top" xlink:title="Mètode que calcula les coordenades del centre del taulell.">
<polygon fill="white" stroke="#666666" points="731.88,-1424 600.38,-1424 600.38,-1392 731.88,-1392 731.88,-1424"/>
<text text-anchor="start" x="608.38" y="-1410.5" font-family="Helvetica,sans-Serif" font-size="10.00">domini.scrabble.Taulell.get</text>
<text text-anchor="middle" x="666.12" y="-1398.5" font-family="Helvetica,sans-Serif" font-size="10.00">CentreTaulell</text>
</a>
</g>
</g>
<!-- Node27&#45;&gt;Node29 -->
<g id="edge56_Node000027_Node000029" class="edge">
<title>Node27&#45;&gt;Node29</title>
<g id="a_edge56_Node000027_Node000029"><a xlink:title=" ">
<path fill="none" stroke="#63b8ff" d="M527.73,-1384.27C547.16,-1387.62 568.63,-1391.33 588.71,-1394.8"/>
<polygon fill="#63b8ff" stroke="#63b8ff" points="588.08,-1398.24 598.53,-1396.5 589.27,-1391.35 588.08,-1398.24"/>
</a>
</g>
</g>
<!-- Node32 -->
<g id="Node000032" class="node">
<title>Node32</title>
<g id="a_Node000032"><a xlink:href="classdomini_1_1scrabble_1_1_taulell.html#a10eef6a9fe59fa18f5b2d6d311c6356c" target="_top" xlink:title="Retorna la casella de la posició indicada.">
<polygon fill="white" stroke="#666666" points="527.25,-82 395.75,-82 395.75,-50 527.25,-50 527.25,-82"/>
<text text-anchor="start" x="403.75" y="-68.5" font-family="Helvetica,sans-Serif" font-size="10.00">domini.scrabble.Taulell.set</text>
<text text-anchor="middle" x="461.5" y="-56.5" font-family="Helvetica,sans-Serif" font-size="10.00">Casella</text>
</a>
</g>
</g>
<!-- Node31&#45;&gt;Node32 -->
<g id="edge61_Node000031_Node000032" class="edge">
<title>Node31&#45;&gt;Node32</title>
<g id="a_edge61_Node000031_Node000032"><a xlink:title=" ">
<path fill="none" stroke="#63b8ff" d="M335.42,-66C351.42,-66 368.2,-66 384.09,-66"/>
<polygon fill="#63b8ff" stroke="#63b8ff" points="383.96,-69.5 393.96,-66 383.96,-62.5 383.96,-69.5"/>
</a>
</g>
</g>
<!-- Node33 -->
<g id="Node000033" class="node">
<title>Node33</title>
<g id="a_Node000033"><a xlink:href="classdomini_1_1scrabble_1_1_taulell.html#a2f2deb612c9af047decb87cc0d7e85d1" target="_top" xlink:title="Constructora de la classe Taulell.">
<polygon fill="white" stroke="#666666" points="520.5,-32 402.5,-32 402.5,0 520.5,0 520.5,-32"/>
<text text-anchor="start" x="410.5" y="-18.5" font-family="Helvetica,sans-Serif" font-size="10.00">domini.scrabble.Taulell.</text>
<text text-anchor="middle" x="461.5" y="-6.5" font-family="Helvetica,sans-Serif" font-size="10.00">Taulell</text>
</a>
</g>
</g>
<!-- Node31&#45;&gt;Node33 -->
<g id="edge62_Node000031_Node000033" class="edge">
<title>Node31&#45;&gt;Node33</title>
<g id="a_edge62_Node000031_Node000033"><a xlink:title=" ">
<path fill="none" stroke="#63b8ff" d="M298.57,-55.52C325.33,-48.99 360.36,-40.44 391,-32.96"/>
<polygon fill="#63b8ff" stroke="#63b8ff" points="391.71,-36.39 400.59,-30.62 390.05,-29.59 391.71,-36.39"/>
</a>
</g>
</g>
</g>
</svg>
