<?xml version="1.0" encoding="UTF-8" standalone="no"?>
<!DOCTYPE svg PUBLIC "-//W3C//DTD SVG 1.1//EN"
 "http://www.w3.org/Graphics/SVG/1.1/DTD/svg11.dtd">
<!-- Generated by graphviz version 12.2.1 (20241206.2353)
 -->
<!-- Title: controladors.CtrlPartida.tocaLletra Pages: 1 -->
<svg width="514pt" height="128pt"
 viewBox="0.00 0.00 514.25 128.00" xmlns="http://www.w3.org/2000/svg" xmlns:xlink="http://www.w3.org/1999/xlink">
<g id="graph0" class="graph" transform="scale(1 1) rotate(0) translate(4 124)">
<title>controladors.CtrlPartida.tocaLletra</title>
<!-- Node1 -->
<g id="Node000001" class="node">
<title>Node1</title>
<g id="a_Node000001"><a xlink:title="Comprova si una paraula col·locada toca alguna lletra existent al taulell.">
<polygon fill="#999999" stroke="#666666" points="140.5,-70 0,-70 0,-38 140.5,-38 140.5,-70"/>
<text text-anchor="start" x="8" y="-56.5" font-family="Helvetica,sans-Serif" font-size="10.00">controladors.CtrlPartida.toca</text>
<text text-anchor="middle" x="70.25" y="-44.5" font-family="Helvetica,sans-Serif" font-size="10.00">Lletra</text>
</a>
</g>
</g>
<!-- Node2 -->
<g id="Node000002" class="node">
<title>Node2</title>
<g id="a_Node000002"><a xlink:href="classdomini_1_1scrabble_1_1_casella.html#a45ad0a3aaeacf1bc4896a7a99c068dd3" target="_top" xlink:title="Comprova si la casella està ocupada per una fitxa.">
<polygon fill="white" stroke="#666666" points="314.38,-120 191.12,-120 191.12,-88 314.38,-88 314.38,-120"/>
<text text-anchor="start" x="199.12" y="-106.5" font-family="Helvetica,sans-Serif" font-size="10.00">domini.scrabble.Casella.</text>
<text text-anchor="middle" x="252.75" y="-94.5" font-family="Helvetica,sans-Serif" font-size="10.00">EstaOcupat</text>
</a>
</g>
</g>
<!-- Node1&#45;&gt;Node2 -->
<g id="edge1_Node000001_Node000002" class="edge">
<title>Node1&#45;&gt;Node2</title>
<g id="a_edge1_Node000001_Node000002"><a xlink:title=" ">
<path fill="none" stroke="#63b8ff" d="M130.6,-70.44C146.87,-74.95 164.66,-79.88 181.48,-84.53"/>
<polygon fill="#63b8ff" stroke="#63b8ff" points="180.33,-87.85 190.9,-87.14 182.2,-81.1 180.33,-87.85"/>
</a>
</g>
</g>
<!-- Node3 -->
<g id="Node000003" class="node">
<title>Node3</title>
<g id="a_Node000003"><a xlink:href="classdomini_1_1scrabble_1_1_taulell.html#a5be7b0143cecbce3e2f4dc4f53814879" target="_top" xlink:title="Donades unes coordenades, retorna la Casella que es troba en aquelles coordenades.">
<polygon fill="white" stroke="#666666" points="318.5,-70 187,-70 187,-38 318.5,-38 318.5,-70"/>
<text text-anchor="start" x="195" y="-56.5" font-family="Helvetica,sans-Serif" font-size="10.00">domini.scrabble.Taulell.get</text>
<text text-anchor="middle" x="252.75" y="-44.5" font-family="Helvetica,sans-Serif" font-size="10.00">Casella</text>
</a>
</g>
</g>
<!-- Node1&#45;&gt;Node3 -->
<g id="edge2_Node000001_Node000003" class="edge">
<title>Node1&#45;&gt;Node3</title>
<g id="a_edge2_Node000001_Node000003"><a xlink:title=" ">
<path fill="none" stroke="#63b8ff" d="M140.78,-54C152.1,-54 163.88,-54 175.36,-54"/>
<polygon fill="#63b8ff" stroke="#63b8ff" points="175.19,-57.5 185.19,-54 175.19,-50.5 175.19,-57.5"/>
</a>
</g>
</g>
<!-- Node5 -->
<g id="Node000005" class="node">
<title>Node5</title>
<g id="a_Node000005"><a xlink:href="classdomini_1_1scrabble_1_1_taulell.html#a6df3c705440324d9c2ca283a464a3a8f" target="_top" xlink:title="Retorna el nombre de files/columnes del taulell.">
<polygon fill="white" stroke="#666666" points="329,-20 176.5,-20 176.5,0 329,0 329,-20"/>
<text text-anchor="middle" x="252.75" y="-6.5" font-family="Helvetica,sans-Serif" font-size="10.00">domini.scrabble.Taulell.getMida</text>
</a>
</g>
</g>
<!-- Node1&#45;&gt;Node5 -->
<g id="edge4_Node000001_Node000005" class="edge">
<title>Node1&#45;&gt;Node5</title>
<g id="a_edge4_Node000001_Node000005"><a xlink:title=" ">
<path fill="none" stroke="#63b8ff" d="M138.72,-37.55C158.12,-32.82 179.03,-27.73 197.52,-23.22"/>
<polygon fill="#63b8ff" stroke="#63b8ff" points="198.33,-26.62 207.22,-20.85 196.68,-19.82 198.33,-26.62"/>
</a>
</g>
</g>
<!-- Node4 -->
<g id="Node000004" class="node">
<title>Node4</title>
<g id="a_Node000004"><a xlink:href="classdomini_1_1scrabble_1_1_taulell.html#afc2d8dcd225b683aa00af9ce2075ad79" target="_top" xlink:title=" ">
<polygon fill="white" stroke="#666666" points="506.25,-64 365,-64 365,-44 506.25,-44 506.25,-64"/>
<text text-anchor="middle" x="435.62" y="-50.5" font-family="Helvetica,sans-Serif" font-size="10.00">domini.scrabble.Taulell.limits</text>
</a>
</g>
</g>
<!-- Node3&#45;&gt;Node4 -->
<g id="edge3_Node000003_Node000004" class="edge">
<title>Node3&#45;&gt;Node4</title>
<g id="a_edge3_Node000003_Node000004"><a xlink:title=" ">
<path fill="none" stroke="#63b8ff" d="M318.79,-54C329.96,-54 341.69,-54 353.22,-54"/>
<polygon fill="#63b8ff" stroke="#63b8ff" points="353.14,-57.5 363.14,-54 353.14,-50.5 353.14,-57.5"/>
</a>
</g>
</g>
</g>
</svg>
