<?xml version="1.0" encoding="UTF-8" standalone="no"?>
<!DOCTYPE svg PUBLIC "-//W3C//DTD SVG 1.1//EN"
 "http://www.w3.org/Graphics/SVG/1.1/DTD/svg11.dtd">
<!-- Generated by graphviz version 12.2.1 (20241206.2353)
 -->
<!-- Title: controladors.CtrlDomini.inicialitzarUsuaris Pages: 1 -->
<svg width="1081pt" height="134pt"
 viewBox="0.00 0.00 1080.50 134.00" xmlns="http://www.w3.org/2000/svg" xmlns:xlink="http://www.w3.org/1999/xlink">
<g id="graph0" class="graph" transform="scale(1 1) rotate(0) translate(4 130)">
<title>controladors.CtrlDomini.inicialitzarUsuaris</title>
<!-- Node1 -->
<g id="Node000001" class="node">
<title>Node1</title>
<g id="a_Node000001"><a xlink:title="Carrega els usuaris cada cop que executem el joc.">
<polygon fill="#999999" stroke="#666666" points="1072.5,-64 907.25,-64 907.25,-32 1072.5,-32 1072.5,-64"/>
<text text-anchor="start" x="915.25" y="-50.5" font-family="Helvetica,sans-Serif" font-size="10.00">controladors.CtrlDomini.inicialitzar</text>
<text text-anchor="middle" x="989.88" y="-38.5" font-family="Helvetica,sans-Serif" font-size="10.00">Usuaris</text>
</a>
</g>
</g>
<!-- Node2 -->
<g id="Node000002" class="node">
<title>Node2</title>
<g id="a_Node000002"><a xlink:href="classcontroladors_1_1_ctrl_domini.html#a7648cc0064b988072993a90846e84d38" target="_top" xlink:title="Constructor de la classe Ctrl_Domini.">
<polygon fill="white" stroke="#666666" points="871.25,-64 749.5,-64 749.5,-32 871.25,-32 871.25,-64"/>
<text text-anchor="start" x="757.5" y="-50.5" font-family="Helvetica,sans-Serif" font-size="10.00">controladors.CtrlDomini.</text>
<text text-anchor="middle" x="810.38" y="-38.5" font-family="Helvetica,sans-Serif" font-size="10.00">CtrlDomini</text>
</a>
</g>
</g>
<!-- Node1&#45;&gt;Node2 -->
<g id="edge1_Node000001_Node000002" class="edge">
<title>Node1&#45;&gt;Node2</title>
<g id="a_edge1_Node000001_Node000002"><a xlink:title=" ">
<path fill="none" stroke="#63b8ff" d="M895.42,-48C887.32,-48 879.28,-48 871.55,-48"/>
<polygon fill="#63b8ff" stroke="#63b8ff" points="895.37,-51.5 905.37,-48 895.37,-44.5 895.37,-51.5"/>
</a>
</g>
</g>
<!-- Node3 -->
<g id="Node000003" class="node">
<title>Node3</title>
<g id="a_Node000003"><a xlink:href="classcontroladors_1_1_ctrl_domini.html#ab9f3147d91bf87174cee2fbad80eebd0" target="_top" xlink:title="Retorna la instancia del controlador de domini.">
<polygon fill="white" stroke="#666666" points="713.5,-64 578.25,-64 578.25,-32 713.5,-32 713.5,-64"/>
<text text-anchor="start" x="586.25" y="-50.5" font-family="Helvetica,sans-Serif" font-size="10.00">controladors.CtrlDomini.get</text>
<text text-anchor="middle" x="645.88" y="-38.5" font-family="Helvetica,sans-Serif" font-size="10.00">Instancia</text>
</a>
</g>
</g>
<!-- Node2&#45;&gt;Node3 -->
<g id="edge2_Node000002_Node000003" class="edge">
<title>Node2&#45;&gt;Node3</title>
<g id="a_edge2_Node000002_Node000003"><a xlink:title=" ">
<path fill="none" stroke="#63b8ff" d="M738.05,-48C729.99,-48 721.79,-48 713.79,-48"/>
<polygon fill="#63b8ff" stroke="#63b8ff" points="737.81,-51.5 747.81,-48 737.81,-44.5 737.81,-51.5"/>
</a>
</g>
</g>
<!-- Node4 -->
<g id="Node000004" class="node">
<title>Node4</title>
<g id="a_Node000004"><a xlink:href="classcontroladors_1_1_ctrl_presentacio.html#acaf9b6cf3f40d88428b5d77b735e8856" target="_top" xlink:title="Obté el rànquing global d&#39;avatares limitat a un cert nombre.">
<polygon fill="white" stroke="#666666" points="526.12,-108 369.88,-108 369.88,-76 526.12,-76 526.12,-108"/>
<text text-anchor="start" x="377.88" y="-94.5" font-family="Helvetica,sans-Serif" font-size="10.00">controladors.CtrlPresentacio.get</text>
<text text-anchor="middle" x="448" y="-82.5" font-family="Helvetica,sans-Serif" font-size="10.00">Ranking</text>
</a>
</g>
</g>
<!-- Node3&#45;&gt;Node4 -->
<g id="edge3_Node000003_Node000004" class="edge">
<title>Node3&#45;&gt;Node4</title>
<g id="a_edge3_Node000003_Node000004"><a xlink:title=" ">
<path fill="none" stroke="#63b8ff" d="M566.9,-65.51C552.19,-68.82 536.84,-72.27 522.27,-75.54"/>
<polygon fill="#63b8ff" stroke="#63b8ff" points="567.55,-68.96 576.54,-63.35 566.01,-62.13 567.55,-68.96"/>
</a>
</g>
</g>
<!-- Node7 -->
<g id="Node000007" class="node">
<title>Node7</title>
<g id="a_Node000007"><a xlink:href="classdrivers_1_1_driver.html#a2cf45ad0923853bf6a6ffec27822acfc" target="_top" xlink:title="Inicialitza el driver.">
<polygon fill="white" stroke="#666666" points="493.12,-58 402.88,-58 402.88,-38 493.12,-38 493.12,-58"/>
<text text-anchor="middle" x="448" y="-44.5" font-family="Helvetica,sans-Serif" font-size="10.00">drivers.Driver.init</text>
</a>
</g>
</g>
<!-- Node3&#45;&gt;Node7 -->
<g id="edge8_Node000003_Node000007" class="edge">
<title>Node3&#45;&gt;Node7</title>
<g id="a_edge8_Node000003_Node000007"><a xlink:title=" ">
<path fill="none" stroke="#63b8ff" d="M566.71,-48C541.79,-48 515.08,-48 493.41,-48"/>
<polygon fill="#63b8ff" stroke="#63b8ff" points="566.5,-51.5 576.5,-48 566.5,-44.5 566.5,-51.5"/>
</a>
</g>
</g>
<!-- Node9 -->
<g id="Node000009" class="node">
<title>Node9</title>
<g id="a_Node000009"><a xlink:href="classcontroladors_1_1_ctrl_presentacio.html#ae660314487eb1c9764a52ac98b431108" target="_top" xlink:title="Inicialitza l&#39;aplicació creant les instàncies del controlador de domini i de partida,...">
<polygon fill="white" stroke="#666666" points="542.25,-20 353.75,-20 353.75,0 542.25,0 542.25,-20"/>
<text text-anchor="middle" x="448" y="-6.5" font-family="Helvetica,sans-Serif" font-size="10.00">controladors.CtrlPresentacio.launchApp</text>
</a>
</g>
</g>
<!-- Node3&#45;&gt;Node9 -->
<g id="edge10_Node000003_Node000009" class="edge">
<title>Node3&#45;&gt;Node9</title>
<g id="a_edge10_Node000003_Node000009"><a xlink:title=" ">
<path fill="none" stroke="#63b8ff" d="M566.94,-32.88C545.48,-28.72 522.69,-24.3 502.92,-20.46"/>
<polygon fill="#63b8ff" stroke="#63b8ff" points="566.04,-36.27 576.53,-34.74 567.38,-29.4 566.04,-36.27"/>
</a>
</g>
</g>
<!-- Node5 -->
<g id="Node000005" class="node">
<title>Node5</title>
<g id="a_Node000005"><a xlink:href="classinterficie_1_1_vista_consultar_ranking.html#ac8bcd1db92441badfd8650cd3c54025b" target="_top" xlink:title="Carrega i mostra el rànquing a partir del límit indicat.">
<polygon fill="white" stroke="#666666" points="317.75,-108 191.5,-108 191.5,-76 317.75,-76 317.75,-108"/>
<text text-anchor="start" x="199.5" y="-94.5" font-family="Helvetica,sans-Serif" font-size="10.00">interficie.VistaConsultar</text>
<text text-anchor="middle" x="254.62" y="-82.5" font-family="Helvetica,sans-Serif" font-size="10.00">Ranking.carregarRanking</text>
</a>
</g>
</g>
<!-- Node4&#45;&gt;Node5 -->
<g id="edge4_Node000004_Node000005" class="edge">
<title>Node4&#45;&gt;Node5</title>
<g id="a_edge4_Node000004_Node000005"><a xlink:title=" ">
<path fill="none" stroke="#63b8ff" d="M358.13,-92C344.58,-92 330.85,-92 318.04,-92"/>
<polygon fill="#63b8ff" stroke="#63b8ff" points="357.92,-95.5 367.92,-92 357.92,-88.5 357.92,-95.5"/>
</a>
</g>
</g>
<!-- Node6 -->
<g id="Node000006" class="node">
<title>Node6</title>
<g id="a_Node000006"><a xlink:href="classinterficie_1_1_vista_consultar_ranking.html#a86d8edbe84e816fcf7c14b51a8d2e214" target="_top" xlink:title="Constructor de la classe.">
<polygon fill="white" stroke="#666666" points="155.5,-108 0,-108 0,-76 155.5,-76 155.5,-108"/>
<text text-anchor="start" x="8" y="-94.5" font-family="Helvetica,sans-Serif" font-size="10.00">interficie.VistaConsultar</text>
<text text-anchor="middle" x="77.75" y="-82.5" font-family="Helvetica,sans-Serif" font-size="10.00">Ranking.VistaConsultarRanking</text>
</a>
</g>
</g>
<!-- Node5&#45;&gt;Node6 -->
<g id="edge5_Node000005_Node000006" class="edge">
<title>Node5&#45;&gt;Node6</title>
<g id="a_edge5_Node000005_Node000006"><a xlink:title=" ">
<path fill="none" stroke="#63b8ff" d="M180,-85.33C172.06,-85.24 163.97,-85.23 156,-85.29"/>
<polygon fill="#63b8ff" stroke="#63b8ff" points="179.91,-88.82 189.96,-85.48 180.02,-81.83 179.91,-88.82"/>
</a>
</g>
</g>
<!-- Node6&#45;&gt;Node5 -->
<g id="edge6_Node000006_Node000005" class="edge">
<title>Node6&#45;&gt;Node5</title>
<g id="a_edge6_Node000006_Node000005"><a xlink:title=" ">
<path fill="none" stroke="#63b8ff" d="M167.45,-98.75C175.57,-98.74 183.67,-98.66 191.48,-98.49"/>
<polygon fill="#63b8ff" stroke="#63b8ff" points="167.53,-95.25 157.51,-98.71 167.5,-102.25 167.53,-95.25"/>
</a>
</g>
</g>
<!-- Node6&#45;&gt;Node6 -->
<g id="edge7_Node000006_Node000006" class="edge">
<title>Node6&#45;&gt;Node6</title>
<g id="a_edge7_Node000006_Node000006"><a xlink:title=" ">
<path fill="none" stroke="#63b8ff" d="M107.23,-119.71C102.31,-123.48 92.49,-126 77.75,-126 50.8,-126 40.28,-117.58 46.17,-108.44"/>
<polygon fill="#63b8ff" stroke="#63b8ff" points="110.66,-120.4 109.05,-109.93 103.77,-119.12 110.66,-120.4"/>
</a>
</g>
</g>
<!-- Node8 -->
<g id="Node000008" class="node">
<title>Node8</title>
<g id="a_Node000008"><a xlink:href="classdrivers_1_1_driver.html#a3f94ce3595725e82b34c92548e071d04" target="_top" xlink:title="Inici del driver.">
<polygon fill="white" stroke="#666666" points="303.88,-58 205.38,-58 205.38,-38 303.88,-38 303.88,-58"/>
<text text-anchor="middle" x="254.62" y="-44.5" font-family="Helvetica,sans-Serif" font-size="10.00">drivers.Driver.main</text>
</a>
</g>
</g>
<!-- Node7&#45;&gt;Node8 -->
<g id="edge9_Node000007_Node000008" class="edge">
<title>Node7&#45;&gt;Node8</title>
<g id="a_edge9_Node000007_Node000008"><a xlink:title=" ">
<path fill="none" stroke="#63b8ff" d="M391.16,-48C363.59,-48 330.64,-48 304.13,-48"/>
<polygon fill="#63b8ff" stroke="#63b8ff" points="391.1,-51.5 401.1,-48 391.1,-44.5 391.1,-51.5"/>
</a>
</g>
</g>
<!-- Node10 -->
<g id="Node000010" class="node">
<title>Node10</title>
<g id="a_Node000010"><a xlink:href="classinterficie_1_1_main_g_u_i.html#ae12d6baaff26bc828aa5d7b411923165" target="_top" xlink:title="Punt d&#39;entrada principal del programa.">
<polygon fill="white" stroke="#666666" points="314,-20 195.25,-20 195.25,0 314,0 314,-20"/>
<text text-anchor="middle" x="254.62" y="-6.5" font-family="Helvetica,sans-Serif" font-size="10.00">interficie.MainGUI.main</text>
</a>
</g>
</g>
<!-- Node9&#45;&gt;Node10 -->
<g id="edge11_Node000009_Node000010" class="edge">
<title>Node9&#45;&gt;Node10</title>
<g id="a_edge11_Node000009_Node000010"><a xlink:title=" ">
<path fill="none" stroke="#63b8ff" d="M341.79,-10C332.4,-10 323.14,-10 314.37,-10"/>
<polygon fill="#63b8ff" stroke="#63b8ff" points="341.76,-13.5 351.76,-10 341.76,-6.5 341.76,-13.5"/>
</a>
</g>
</g>
</g>
</svg>
