<?xml version="1.0" encoding="UTF-8" standalone="no"?>
<!DOCTYPE svg PUBLIC "-//W3C//DTD SVG 1.1//EN"
 "http://www.w3.org/Graphics/SVG/1.1/DTD/svg11.dtd">
<!-- Generated by graphviz version 12.2.1 (20241206.2353)
 -->
<!-- Title: interficie.VistaConsultarNormes.createStyledButton Pages: 1 -->
<svg width="491pt" height="58pt"
 viewBox="0.00 0.00 491.00 58.00" xmlns="http://www.w3.org/2000/svg" xmlns:xlink="http://www.w3.org/1999/xlink">
<g id="graph0" class="graph" transform="scale(1 1) rotate(0) translate(4 54)">
<title>interficie.VistaConsultarNormes.createStyledButton</title>
<!-- Node1 -->
<g id="Node000001" class="node">
<title>Node1</title>
<g id="a_Node000001"><a xlink:title="Crea un botó estilitzat amb comportament visual quan el ratolí entra i surt.">
<polygon fill="#999999" stroke="#666666" points="483,-32 346.25,-32 346.25,0 483,0 483,-32"/>
<text text-anchor="start" x="354.25" y="-18.5" font-family="Helvetica,sans-Serif" font-size="10.00">interficie.VistaConsultar</text>
<text text-anchor="middle" x="414.62" y="-6.5" font-family="Helvetica,sans-Serif" font-size="10.00">Normes.createStyledButton</text>
</a>
</g>
</g>
<!-- Node2 -->
<g id="Node000002" class="node">
<title>Node2</title>
<g id="a_Node000002"><a xlink:href="$classinterficie_1_1_vista_consultar_normes.html#aa2b3d841acae7945dad388f04b002967" xlink:title="Inicialitza els components gràfics de la vista.">
<polygon fill="white" stroke="#666666" points="310.25,-32 188.5,-32 188.5,0 310.25,0 310.25,-32"/>
<text text-anchor="start" x="196.5" y="-18.5" font-family="Helvetica,sans-Serif" font-size="10.00">interficie.VistaConsultar</text>
<text text-anchor="middle" x="249.38" y="-6.5" font-family="Helvetica,sans-Serif" font-size="10.00">Normes.initComponents</text>
</a>
</g>
</g>
<!-- Node1&#45;&gt;Node2 -->
<g id="edge1_Node000001_Node000002" class="edge">
<title>Node1&#45;&gt;Node2</title>
<g id="a_edge1_Node000001_Node000002"><a xlink:title=" ">
<path fill="none" stroke="#63b8ff" d="M334.53,-16C326.51,-16 318.46,-16 310.68,-16"/>
<polygon fill="#63b8ff" stroke="#63b8ff" points="334.3,-19.5 344.3,-16 334.3,-12.5 334.3,-19.5"/>
</a>
</g>
</g>
<!-- Node3 -->
<g id="Node000003" class="node">
<title>Node3</title>
<g id="a_Node000003"><a xlink:href="$classinterficie_1_1_vista_consultar_normes.html#adfd2eba4d3f7f6f2d67a1655b14be2de" xlink:title="Constructora.">
<polygon fill="white" stroke="#666666" points="152.5,-32 0,-32 0,0 152.5,0 152.5,-32"/>
<text text-anchor="start" x="8" y="-18.5" font-family="Helvetica,sans-Serif" font-size="10.00">interficie.VistaConsultar</text>
<text text-anchor="middle" x="76.25" y="-6.5" font-family="Helvetica,sans-Serif" font-size="10.00">Normes.VistaConsultarNormes</text>
</a>
</g>
</g>
<!-- Node2&#45;&gt;Node3 -->
<g id="edge2_Node000002_Node000003" class="edge">
<title>Node2&#45;&gt;Node3</title>
<g id="a_edge2_Node000002_Node000003"><a xlink:title=" ">
<path fill="none" stroke="#63b8ff" d="M176.69,-9.33C168.84,-9.24 160.83,-9.23 152.93,-9.29"/>
<polygon fill="#63b8ff" stroke="#63b8ff" points="176.47,-12.83 186.53,-9.49 176.59,-5.83 176.47,-12.83"/>
</a>
</g>
</g>
<!-- Node3&#45;&gt;Node2 -->
<g id="edge3_Node000003_Node000002" class="edge">
<title>Node3&#45;&gt;Node2</title>
<g id="a_edge3_Node000003_Node000002"><a xlink:title=" ">
<path fill="none" stroke="#63b8ff" d="M164.27,-22.75C172.31,-22.74 180.33,-22.65 188.04,-22.48"/>
<polygon fill="#63b8ff" stroke="#63b8ff" points="164.45,-19.25 154.44,-22.72 164.43,-26.25 164.45,-19.25"/>
</a>
</g>
</g>
<!-- Node3&#45;&gt;Node3 -->
<g id="edge4_Node000003_Node000003" class="edge">
<title>Node3&#45;&gt;Node3</title>
<g id="a_edge4_Node000003_Node000003"><a xlink:title=" ">
<path fill="none" stroke="#63b8ff" d="M105.1,-43.71C100.29,-47.48 90.67,-50 76.25,-50 49.88,-50 39.57,-41.58 45.34,-32.44"/>
<polygon fill="#63b8ff" stroke="#63b8ff" points="108.53,-44.4 106.89,-33.93 101.65,-43.14 108.53,-44.4"/>
</a>
</g>
</g>
</g>
</svg>
