<?xml version="1.0" encoding="UTF-8" standalone="no"?>
<!DOCTYPE svg PUBLIC "-//W3C//DTD SVG 1.1//EN"
 "http://www.w3.org/Graphics/SVG/1.1/DTD/svg11.dtd">
<!-- Generated by graphviz version 12.2.1 (20241206.2353)
 -->
<!-- Title: persistencia.JugadorIO.saveJugador Pages: 1 -->
<svg width="547pt" height="90pt"
 viewBox="0.00 0.00 546.50 90.00" xmlns="http://www.w3.org/2000/svg" xmlns:xlink="http://www.w3.org/1999/xlink">
<g id="graph0" class="graph" transform="scale(1 1) rotate(0) translate(4 86)">
<title>persistencia.JugadorIO.saveJugador</title>
<!-- Node1 -->
<g id="Node000001" class="node">
<title>Node1</title>
<g id="a_Node000001"><a xlink:title="Desa un jugador a un fitxer JSON.">
<polygon fill="#999999" stroke="#666666" points="538.5,-57 398,-57 398,-25 538.5,-25 538.5,-57"/>
<text text-anchor="start" x="406" y="-43.5" font-family="Helvetica,sans-Serif" font-size="10.00">persistencia.JugadorIO.save</text>
<text text-anchor="middle" x="468.25" y="-31.5" font-family="Helvetica,sans-Serif" font-size="10.00">Jugador</text>
</a>
</g>
</g>
<!-- Node2 -->
<g id="Node000002" class="node">
<title>Node2</title>
<g id="a_Node000002"><a xlink:href="$classcontroladors_1_1_ctrl_persistencia.html#a087f94cda6a408396c8faa53f84a1e0e" xlink:title="Desa un jugador a l&#39;emmagatzematge persistent.">
<polygon fill="white" stroke="#666666" points="362,-57 184.75,-57 184.75,-25 362,-25 362,-57"/>
<text text-anchor="start" x="192.75" y="-43.5" font-family="Helvetica,sans-Serif" font-size="10.00">controladors.CtrlPersistencia.guardar</text>
<text text-anchor="middle" x="273.38" y="-31.5" font-family="Helvetica,sans-Serif" font-size="10.00">Jugador</text>
</a>
</g>
</g>
<!-- Node1&#45;&gt;Node2 -->
<g id="edge1_Node000001_Node000002" class="edge">
<title>Node1&#45;&gt;Node2</title>
<g id="a_edge1_Node000001_Node000002"><a xlink:title=" ">
<path fill="none" stroke="#63b8ff" d="M386.21,-41C378.33,-41 370.32,-41 362.38,-41"/>
<polygon fill="#63b8ff" stroke="#63b8ff" points="386.1,-44.5 396.1,-41 386.1,-37.5 386.1,-44.5"/>
</a>
</g>
</g>
<!-- Node3 -->
<g id="Node000003" class="node">
<title>Node3</title>
<g id="a_Node000003"><a xlink:href="$classcontroladors_1_1_ctrl_domini.html#a7ee797a2519cf4765bbbcf674836a1a6" xlink:title="Crea un jugador associat a l&#39;usuari actiu.">
<polygon fill="white" stroke="#666666" points="146.12,-82 2.62,-82 2.62,-50 146.12,-50 146.12,-82"/>
<text text-anchor="start" x="10.62" y="-68.5" font-family="Helvetica,sans-Serif" font-size="10.00">controladors.CtrlDomini.crear</text>
<text text-anchor="middle" x="74.38" y="-56.5" font-family="Helvetica,sans-Serif" font-size="10.00">Jugador</text>
</a>
</g>
</g>
<!-- Node2&#45;&gt;Node3 -->
<g id="edge2_Node000002_Node000003" class="edge">
<title>Node2&#45;&gt;Node3</title>
<g id="a_edge2_Node000002_Node000003"><a xlink:title=" ">
<path fill="none" stroke="#63b8ff" d="M173.16,-53.59C164.17,-54.73 155.18,-55.87 146.51,-56.97"/>
<polygon fill="#63b8ff" stroke="#63b8ff" points="173.55,-57.07 183.03,-52.34 172.67,-50.12 173.55,-57.07"/>
</a>
</g>
</g>
<!-- Node4 -->
<g id="Node000004" class="node">
<title>Node4</title>
<g id="a_Node000004"><a xlink:href="$classcontroladors_1_1_ctrl_domini.html#af2548caf15c0ac424b6f3c73b4f019a7" xlink:title="Es tanca la sessió de l&#39;usuari.">
<polygon fill="white" stroke="#666666" points="148.75,-32 0,-32 0,0 148.75,0 148.75,-32"/>
<text text-anchor="start" x="8" y="-18.5" font-family="Helvetica,sans-Serif" font-size="10.00">controladors.CtrlDomini.tancar</text>
<text text-anchor="middle" x="74.38" y="-6.5" font-family="Helvetica,sans-Serif" font-size="10.00">Sessio</text>
</a>
</g>
</g>
<!-- Node2&#45;&gt;Node4 -->
<g id="edge3_Node000002_Node000004" class="edge">
<title>Node2&#45;&gt;Node4</title>
<g id="a_edge3_Node000002_Node000004"><a xlink:title=" ">
<path fill="none" stroke="#63b8ff" d="M173.15,-28.41C165.09,-27.39 157.04,-26.36 149.2,-25.37"/>
<polygon fill="#63b8ff" stroke="#63b8ff" points="172.67,-31.88 183.03,-29.66 173.55,-24.93 172.67,-31.88"/>
</a>
</g>
</g>
</g>
</svg>
