<?xml version="1.0" encoding="UTF-8" standalone="no"?>
<!DOCTYPE svg PUBLIC "-//W3C//DTD SVG 1.1//EN"
 "http://www.w3.org/Graphics/SVG/1.1/DTD/svg11.dtd">
<!-- Generated by graphviz version 12.2.1 (20241206.2353)
 -->
<!-- Title: domini.jugadors.Maquina.valid_traversals Pages: 1 -->
<svg width="552pt" height="366pt"
 viewBox="0.00 0.00 551.75 366.00" xmlns="http://www.w3.org/2000/svg" xmlns:xlink="http://www.w3.org/1999/xlink">
<g id="graph0" class="graph" transform="scale(1 1) rotate(0) translate(4 362)">
<title>domini.jugadors.Maquina.valid_traversals</title>
<!-- Node1 -->
<g id="Node000001" class="node">
<title>Node1</title>
<g id="a_Node000001"><a xlink:title="Comprova si una lletra és vàlida per a una casella que formi paraula transversal vertical.">
<polygon fill="#999999" stroke="#666666" points="147.25,-204 0,-204 0,-172 147.25,-172 147.25,-204"/>
<text text-anchor="start" x="8" y="-190.5" font-family="Helvetica,sans-Serif" font-size="10.00">domini.jugadors.Maquina.valid</text>
<text text-anchor="middle" x="73.62" y="-178.5" font-family="Helvetica,sans-Serif" font-size="10.00">_traversals</text>
</a>
</g>
</g>
<!-- Node2 -->
<g id="Node000002" class="node">
<title>Node2</title>
<g id="a_Node000002"><a xlink:href="classdomini_1_1diccionari_1_1_d_a_w_g.html#acf204a82f6e4f5cebf3313611e57b714" target="_top" xlink:title="Comprova si una paraula està reconeguda pel DAWG.">
<polygon fill="white" stroke="#666666" points="345.5,-358 183.25,-358 183.25,-338 345.5,-338 345.5,-358"/>
<text text-anchor="middle" x="264.38" y="-344.5" font-family="Helvetica,sans-Serif" font-size="10.00">domini.diccionari.DAWG.contains</text>
</a>
</g>
</g>
<!-- Node1&#45;&gt;Node2 -->
<g id="edge1_Node000001_Node000002" class="edge">
<title>Node1&#45;&gt;Node2</title>
<g id="a_edge1_Node000001_Node000002"><a xlink:title=" ">
<path fill="none" stroke="#63b8ff" d="M82.49,-204.46C97.61,-234.25 133.68,-296.97 183.25,-329 185.4,-330.39 187.63,-331.67 189.94,-332.86"/>
<polygon fill="#63b8ff" stroke="#63b8ff" points="188.46,-336.04 199.02,-336.9 191.31,-329.64 188.46,-336.04"/>
</a>
</g>
</g>
<!-- Node4 -->
<g id="Node000004" class="node">
<title>Node4</title>
<g id="a_Node000004"><a xlink:href="classdomini_1_1scrabble_1_1_casella.html#a45ad0a3aaeacf1bc4896a7a99c068dd3" target="_top" xlink:title="Comprova si la casella està ocupada per una fitxa.">
<polygon fill="white" stroke="#666666" points="326,-320 202.75,-320 202.75,-288 326,-288 326,-320"/>
<text text-anchor="start" x="210.75" y="-306.5" font-family="Helvetica,sans-Serif" font-size="10.00">domini.scrabble.Casella.</text>
<text text-anchor="middle" x="264.38" y="-294.5" font-family="Helvetica,sans-Serif" font-size="10.00">EstaOcupat</text>
</a>
</g>
</g>
<!-- Node1&#45;&gt;Node4 -->
<g id="edge3_Node000001_Node000004" class="edge">
<title>Node1&#45;&gt;Node4</title>
<g id="a_edge3_Node000001_Node000004"><a xlink:title=" ">
<path fill="none" stroke="#63b8ff" d="M90.04,-204.41C109.84,-224.61 146.11,-258.72 183.25,-279 186.07,-280.54 188.99,-282 191.99,-283.38"/>
<polygon fill="#63b8ff" stroke="#63b8ff" points="190.41,-286.51 200.99,-287.19 193.14,-280.07 190.41,-286.51"/>
</a>
</g>
</g>
<!-- Node5 -->
<g id="Node000005" class="node">
<title>Node5</title>
<g id="a_Node000005"><a xlink:href="classdomini_1_1scrabble_1_1_taulell.html#a5be7b0143cecbce3e2f4dc4f53814879" target="_top" xlink:title="Donades unes coordenades, retorna la Casella que es troba en aquelles coordenades.">
<polygon fill="white" stroke="#666666" points="330.12,-270 198.62,-270 198.62,-238 330.12,-238 330.12,-270"/>
<text text-anchor="start" x="206.62" y="-256.5" font-family="Helvetica,sans-Serif" font-size="10.00">domini.scrabble.Taulell.get</text>
<text text-anchor="middle" x="264.38" y="-244.5" font-family="Helvetica,sans-Serif" font-size="10.00">Casella</text>
</a>
</g>
</g>
<!-- Node1&#45;&gt;Node5 -->
<g id="edge4_Node000001_Node000005" class="edge">
<title>Node1&#45;&gt;Node5</title>
<g id="a_edge4_Node000001_Node000005"><a xlink:title=" ">
<path fill="none" stroke="#63b8ff" d="M121.77,-204.48C147.2,-213.38 178.8,-224.43 205.69,-233.83"/>
<polygon fill="#63b8ff" stroke="#63b8ff" points="204.48,-237.12 215.08,-237.11 206.79,-230.51 204.48,-237.12"/>
</a>
</g>
</g>
<!-- Node6 -->
<g id="Node000006" class="node">
<title>Node6</title>
<g id="a_Node000006"><a xlink:href="classdomini_1_1scrabble_1_1_taulell.html#afc2d8dcd225b683aa00af9ce2075ad79" target="_top" xlink:title=" ">
<polygon fill="white" stroke="#666666" points="533.25,-242 392,-242 392,-222 533.25,-222 533.25,-242"/>
<text text-anchor="middle" x="462.62" y="-228.5" font-family="Helvetica,sans-Serif" font-size="10.00">domini.scrabble.Taulell.limits</text>
</a>
</g>
</g>
<!-- Node1&#45;&gt;Node6 -->
<g id="edge10_Node000001_Node000006" class="edge">
<title>Node1&#45;&gt;Node6</title>
<g id="a_edge10_Node000001_Node000006"><a xlink:title=" ">
<path fill="none" stroke="#63b8ff" d="M147.42,-196.28C213.79,-203.82 311.7,-214.95 380.55,-222.78"/>
<polygon fill="#63b8ff" stroke="#63b8ff" points="379.93,-226.23 390.26,-223.89 380.72,-219.28 379.93,-226.23"/>
</a>
</g>
</g>
<!-- Node7 -->
<g id="Node000007" class="node">
<title>Node7</title>
<g id="a_Node000007"><a xlink:href="classdomini_1_1auxiliars_1_1_pair.html#af9fc7c6b0fb531c4b59cdb1048897164" target="_top" xlink:title="Obté el primer element de la parella.">
<polygon fill="white" stroke="#666666" points="324.5,-182 204.25,-182 204.25,-150 324.5,-150 324.5,-182"/>
<text text-anchor="start" x="212.25" y="-168.5" font-family="Helvetica,sans-Serif" font-size="10.00">domini.auxiliars.Pair.get</text>
<text text-anchor="middle" x="264.38" y="-156.5" font-family="Helvetica,sans-Serif" font-size="10.00">First</text>
</a>
</g>
</g>
<!-- Node1&#45;&gt;Node7 -->
<g id="edge6_Node000001_Node000007" class="edge">
<title>Node1&#45;&gt;Node7</title>
<g id="a_edge6_Node000001_Node000007"><a xlink:title=" ">
<path fill="none" stroke="#63b8ff" d="M147.6,-179.49C162.48,-177.76 178.11,-175.94 192.9,-174.21"/>
<polygon fill="#63b8ff" stroke="#63b8ff" points="192.99,-177.73 202.52,-173.09 192.18,-170.77 192.99,-177.73"/>
</a>
</g>
</g>
<!-- Node8 -->
<g id="Node000008" class="node">
<title>Node8</title>
<g id="a_Node000008"><a xlink:href="classdomini_1_1scrabble_1_1_casella.html#ad6fa4e60f906cde260a175354e4fda22" target="_top" xlink:title="Retorna la fitxa de la casella.">
<polygon fill="white" stroke="#666666" points="332.75,-132 196,-132 196,-100 332.75,-100 332.75,-132"/>
<text text-anchor="start" x="204" y="-118.5" font-family="Helvetica,sans-Serif" font-size="10.00">domini.scrabble.Casella.get</text>
<text text-anchor="middle" x="264.38" y="-106.5" font-family="Helvetica,sans-Serif" font-size="10.00">Fitxa</text>
</a>
</g>
</g>
<!-- Node1&#45;&gt;Node8 -->
<g id="edge7_Node000001_Node000008" class="edge">
<title>Node1&#45;&gt;Node8</title>
<g id="a_edge7_Node000001_Node000008"><a xlink:title=" ">
<path fill="none" stroke="#63b8ff" d="M109.95,-171.59C131.01,-162.09 158.4,-150.22 183.25,-141 187.83,-139.3 192.59,-137.62 197.39,-135.97"/>
<polygon fill="#63b8ff" stroke="#63b8ff" points="198.13,-139.42 206.51,-132.93 195.92,-132.78 198.13,-139.42"/>
</a>
</g>
</g>
<!-- Node9 -->
<g id="Node000009" class="node">
<title>Node9</title>
<g id="a_Node000009"><a xlink:href="classdomini_1_1scrabble_1_1_fitxa.html#a3ee9b39d600851a00c4ce541339ba90e" target="_top" xlink:title="Retorna la lletra associada a la fitxa.">
<polygon fill="white" stroke="#666666" points="327.12,-82 201.62,-82 201.62,-50 327.12,-50 327.12,-82"/>
<text text-anchor="start" x="209.62" y="-68.5" font-family="Helvetica,sans-Serif" font-size="10.00">domini.scrabble.Fitxa.get</text>
<text text-anchor="middle" x="264.38" y="-56.5" font-family="Helvetica,sans-Serif" font-size="10.00">Lletra</text>
</a>
</g>
</g>
<!-- Node1&#45;&gt;Node9 -->
<g id="edge8_Node000001_Node000009" class="edge">
<title>Node1&#45;&gt;Node9</title>
<g id="a_edge8_Node000001_Node000009"><a xlink:title=" ">
<path fill="none" stroke="#63b8ff" d="M88.81,-171.57C108.13,-150.14 144.76,-112.82 183.25,-91 185.75,-89.59 188.33,-88.24 190.98,-86.96"/>
<polygon fill="#63b8ff" stroke="#63b8ff" points="192.3,-90.2 200.05,-82.97 189.48,-83.8 192.3,-90.2"/>
</a>
</g>
</g>
<!-- Node10 -->
<g id="Node000010" class="node">
<title>Node10</title>
<g id="a_Node000010"><a xlink:href="classdomini_1_1auxiliars_1_1_pair.html#af70cd15a3a6fe17c25fbae3a08955565" target="_top" xlink:title="Obté el segon element de la parella.">
<polygon fill="white" stroke="#666666" points="324.5,-32 204.25,-32 204.25,0 324.5,0 324.5,-32"/>
<text text-anchor="start" x="212.25" y="-18.5" font-family="Helvetica,sans-Serif" font-size="10.00">domini.auxiliars.Pair.get</text>
<text text-anchor="middle" x="264.38" y="-6.5" font-family="Helvetica,sans-Serif" font-size="10.00">Second</text>
</a>
</g>
</g>
<!-- Node1&#45;&gt;Node10 -->
<g id="edge9_Node000001_Node000010" class="edge">
<title>Node1&#45;&gt;Node10</title>
<g id="a_edge9_Node000001_Node000010"><a xlink:title=" ">
<path fill="none" stroke="#63b8ff" d="M82.29,-171.65C97.33,-141.35 133.61,-76.32 183.25,-41 186.59,-38.62 190.17,-36.46 193.89,-34.51"/>
<polygon fill="#63b8ff" stroke="#63b8ff" points="195.05,-37.83 202.63,-30.42 192.09,-31.48 195.05,-37.83"/>
</a>
</g>
</g>
<!-- Node3 -->
<g id="Node000003" class="node">
<title>Node3</title>
<g id="a_Node000003"><a xlink:href="classdomini_1_1diccionari_1_1_d_a_w_g.html#ad5db7cc629d77068e51ccae18f9bfebd" target="_top" xlink:title="Genera una llista amb les lletres i dígrafs de la paraula paràmetre.">
<polygon fill="white" stroke="#666666" points="543.75,-358 381.5,-358 381.5,-338 543.75,-338 543.75,-358"/>
<text text-anchor="middle" x="462.62" y="-344.5" font-family="Helvetica,sans-Serif" font-size="10.00">domini.diccionari.DAWG.tokenize</text>
</a>
</g>
</g>
<!-- Node2&#45;&gt;Node3 -->
<g id="edge2_Node000002_Node000003" class="edge">
<title>Node2&#45;&gt;Node3</title>
<g id="a_edge2_Node000002_Node000003"><a xlink:title=" ">
<path fill="none" stroke="#63b8ff" d="M345.76,-348C353.68,-348 361.75,-348 369.77,-348"/>
<polygon fill="#63b8ff" stroke="#63b8ff" points="369.53,-351.5 379.53,-348 369.53,-344.5 369.53,-351.5"/>
</a>
</g>
</g>
<!-- Node5&#45;&gt;Node6 -->
<g id="edge5_Node000005_Node000006" class="edge">
<title>Node5&#45;&gt;Node6</title>
<g id="a_edge5_Node000005_Node000006"><a xlink:title=" ">
<path fill="none" stroke="#63b8ff" d="M330.45,-246.7C346.41,-244.92 363.68,-242.98 380.29,-241.12"/>
<polygon fill="#63b8ff" stroke="#63b8ff" points="380.61,-244.6 390.16,-240.01 379.83,-237.65 380.61,-244.6"/>
</a>
</g>
</g>
</g>
</svg>
