<?xml version="1.0" encoding="UTF-8" standalone="no"?>
<!DOCTYPE svg PUBLIC "-//W3C//DTD SVG 1.1//EN"
 "http://www.w3.org/Graphics/SVG/1.1/DTD/svg11.dtd">
<!-- Generated by graphviz version 12.2.1 (20241206.2353)
 -->
<!-- Title: persistencia.JugadorDeserializer Pages: 1 -->
<svg width="158pt" height="148pt"
 viewBox="0.00 0.00 157.75 148.00" xmlns="http://www.w3.org/2000/svg" xmlns:xlink="http://www.w3.org/1999/xlink">
<g id="graph0" class="graph" transform="scale(1 1) rotate(0) translate(4 144)">
<title>persistencia.JugadorDeserializer</title>
<!-- Node1 -->
<g id="Node000001" class="node">
<title>Node1</title>
<g id="a_Node000001"><a xlink:title="Classe per deserialitzar instàncies de Jugador a partir de JSON utilitzant GSON.">
<polygon fill="#999999" stroke="none" points="149.75,-52 0,-52 0,0 149.75,0 149.75,-52"/>
<text text-anchor="start" x="4" y="-38.5" font-family="Helvetica,sans-Serif" font-size="10.00">persistencia.JugadorDeserializer</text>
<text text-anchor="start" x="73.38" y="-22.5" font-family="Helvetica,sans-Serif" font-size="10.00"> </text>
<text text-anchor="start" x="23.81" y="-6.5" font-family="Helvetica,sans-Serif" font-size="10.00">+</text>
<text text-anchor="start" x="53.62" y="-6.5" font-family="Helvetica,sans-Serif" font-size="10.00">deserialize()</text>
<polygon fill="#666666" stroke="#666666" points="0,-34 0,-34 149.75,-34 149.75,-34 0,-34"/>
<polygon fill="#666666" stroke="#666666" points="0,-18 0,-18 149.75,-18 149.75,-18 0,-18"/>
<polygon fill="none" stroke="#666666" points="0,0 0,-52 149.75,-52 149.75,0 0,0"/>
</a>
</g>
</g>
<!-- Node2 -->
<g id="Node000002" class="node">
<title>Node2</title>
<g id="a_Node000002"><a xlink:title=" ">
<polygon fill="white" stroke="none" points="141.5,-140 8.25,-140 8.25,-88 141.5,-88 141.5,-140"/>
<text text-anchor="start" x="12.25" y="-126.5" font-family="Helvetica,sans-Serif" font-size="10.00">JsonDeserializer&lt; Jugador &gt;</text>
<text text-anchor="start" x="73.38" y="-110.5" font-family="Helvetica,sans-Serif" font-size="10.00"> </text>
<text text-anchor="start" x="73.38" y="-94.5" font-family="Helvetica,sans-Serif" font-size="10.00"> </text>
<polygon fill="#666666" stroke="#666666" points="8.25,-122 8.25,-122 141.5,-122 141.5,-122 8.25,-122"/>
<polygon fill="#666666" stroke="#666666" points="8.25,-106 8.25,-106 141.5,-106 141.5,-106 8.25,-106"/>
<polygon fill="none" stroke="#666666" points="8.25,-88 8.25,-140 141.5,-140 141.5,-88 8.25,-88"/>
</a>
</g>
</g>
<!-- Node2&#45;&gt;Node1 -->
<g id="edge1_Node000001_Node000002" class="edge">
<title>Node2&#45;&gt;Node1</title>
<g id="a_edge1_Node000001_Node000002"><a xlink:title=" ">
<path fill="none" stroke="#63b8ff" d="M74.88,-76.66C74.88,-68.29 74.88,-59.57 74.88,-51.82"/>
<polygon fill="none" stroke="#63b8ff" points="71.38,-76.61 74.88,-86.61 78.38,-76.61 71.38,-76.61"/>
</a>
</g>
</g>
</g>
</svg>
