<?xml version="1.0" encoding="UTF-8" standalone="no"?>
<!DOCTYPE svg PUBLIC "-//W3C//DTD SVG 1.1//EN"
 "http://www.w3.org/Graphics/SVG/1.1/DTD/svg11.dtd">
<!-- Generated by graphviz version 12.2.1 (20241206.2353)
 -->
<!-- Title: controladors.CtrlDomini.reprendrePartida Pages: 1 -->
<!--zoomable 253 -->

<svg id="main" version="1.1" xmlns="http://www.w3.org/2000/svg" xmlns:xlink="http://www.w3.org/1999/xlink" xml:space="preserve" onload="init(evt)">

<style type="text/css"><![CDATA[
.node, .edge {opacity: 0.7;}
.node.selected, .edge.selected {opacity: 1;}
.edge:hover path { stroke: red; }
.edge:hover polygon { stroke: red; fill: red; }
]]></style>

<defs>
  <circle id="rim" cx="0" cy="0" r="7"/>
  <circle id="rim2" cx="0" cy="0" r="3.5"/>
  <g id="zoomPlus">
    <use xlink:href="#rim" fill="#404040"><set attributeName="fill" to="#808080" begin="zoomplus.mouseover" end="zoomplus.mouseout"/></use>
    <path d="M-4,0h8M0,-4v8" fill="none" stroke="white" stroke-width="1.5" pointer-events="none"/>
  </g>
  <g id="zoomMin">
    <use xlink:href="#rim" fill="#404040"><set attributeName="fill" to="#808080" begin="zoomminus.mouseover" end="zoomminus.mouseout"/></use>
    <path d="M-4,0h8" fill="none" stroke="white" stroke-width="1.5" pointer-events="none"/>
  </g>
  <g id="arrowUp" transform="translate(30 24)">
    <use xlink:href="#rim"/>
    <path pointer-events="none" fill="none" stroke="white" stroke-width="1.5" d="M0,-3.0v7 M-2.5,-0.5L0,-3.0L2.5,-0.5"/>
  </g>
  <g id="arrowRight" transform="rotate(90) translate(36 -43)">
    <use xlink:href="#rim"/>
    <path pointer-events="none" fill="none" stroke="white" stroke-width="1.5" d="M0,-3.0v7 M-2.5,-0.5L0,-3.0L2.5,-0.5"/>
  </g>
  <g id="arrowDown" transform="rotate(180) translate(-30 -48)">
    <use xlink:href="#rim"/>
    <path pointer-events="none" fill="none" stroke="white" stroke-width="1.5" d="M0,-3.0v7 M-2.5,-0.5L0,-3.0L2.5,-0.5"/>
  </g>
  <g id="arrowLeft" transform="rotate(270) translate(-36 17)">
    <use xlink:href="#rim"/>
    <path pointer-events="none" fill="none" stroke="white" stroke-width="1.5" d="M0,-3.0v7 M-2.5,-0.5L0,-3.0L2.5,-0.5"/>
  </g>
  <g id="resetDef">
    <use xlink:href="#rim2" fill="#404040"><set attributeName="fill" to="#808080" begin="reset.mouseover" end="reset.mouseout"/></use>
  </g>
</defs>
<script type="application/ecmascript">
var viewWidth = 743;
var viewHeight = 253;
var sectionId = 'dynsection-30';
</script>
<script type="application/ecmascript" xlink:href="svg.min.js"/>
<svg id="graph" class="graph">
<g id="viewport">
<title>controladors.CtrlDomini.reprendrePartida</title>
<!-- Node1 -->
<g id="Node000001" class="node">
<title>Node1</title>
<g id="a_Node000001"><a xlink:title="Continuar partida.">
<polygon fill="#999999" stroke="#666666" points="162.25,-98 0,-98 0,-66 162.25,-66 162.25,-98"/>
<text text-anchor="start" x="8" y="-84.5" font-family="Helvetica,sans-Serif" font-size="10.00">controladors.CtrlDomini.reprendre</text>
<text text-anchor="middle" x="81.12" y="-72.5" font-family="Helvetica,sans-Serif" font-size="10.00">Partida</text>
</a>
</g>
</g>
<!-- Node2 -->
<g id="Node000002" class="node">
<title>Node2</title>
<g id="a_Node000002"><a xlink:href="classcontroladors_1_1_ctrl_persistencia.html#a83e891c1cd5d7ed5ffca4f07eee9a396" target="_top" xlink:title="Carrega una partida de l&#39;emmagatzematge persistent.">
<polygon fill="white" stroke="#666666" points="378.5,-170 198.25,-170 198.25,-138 378.5,-138 378.5,-170"/>
<text text-anchor="start" x="206.25" y="-156.5" font-family="Helvetica,sans-Serif" font-size="10.00">controladors.CtrlPersistencia.carregar</text>
<text text-anchor="middle" x="288.38" y="-144.5" font-family="Helvetica,sans-Serif" font-size="10.00">Partida</text>
</a>
</g>
</g>
<!-- Node1&#45;&gt;Node2 -->
<g id="edge1_Node000001_Node000002" class="edge">
<title>Node1&#45;&gt;Node2</title>
<g id="a_edge1_Node000001_Node000002"><a xlink:title=" ">
<path fill="none" stroke="#63b8ff" d="M119.64,-98.42C142.19,-107.98 171.6,-119.9 198.25,-129 203.53,-130.8 209.02,-132.58 214.57,-134.3"/>
<polygon fill="#63b8ff" stroke="#63b8ff" points="213.22,-137.55 223.8,-137.09 215.25,-130.85 213.22,-137.55"/>
</a>
</g>
</g>
<!-- Node8 -->
<g id="Node000008" class="node">
<title>Node8</title>
<g id="a_Node000008"><a xlink:href="classcontroladors_1_1_ctrl_persistencia.html#a3daeaccbdea3d7d1f4cae106f952bb70" target="_top" xlink:title="Elimina una partida de l&#39;emmagatzematge persistent.">
<polygon fill="white" stroke="#666666" points="377.75,-120 199,-120 199,-88 377.75,-88 377.75,-120"/>
<text text-anchor="start" x="207" y="-106.5" font-family="Helvetica,sans-Serif" font-size="10.00">controladors.CtrlPersistencia.eliminar</text>
<text text-anchor="middle" x="288.38" y="-94.5" font-family="Helvetica,sans-Serif" font-size="10.00">Partida</text>
</a>
</g>
</g>
<!-- Node1&#45;&gt;Node8 -->
<g id="edge7_Node000001_Node000008" class="edge">
<title>Node1&#45;&gt;Node8</title>
<g id="a_edge7_Node000001_Node000008"><a xlink:title=" ">
<path fill="none" stroke="#63b8ff" d="M162.66,-90.63C170.76,-91.5 179.06,-92.39 187.34,-93.28"/>
<polygon fill="#63b8ff" stroke="#63b8ff" points="186.77,-96.74 197.09,-94.32 187.52,-89.78 186.77,-96.74"/>
</a>
</g>
</g>
<!-- Node10 -->
<g id="Node000010" class="node">
<title>Node10</title>
<g id="a_Node000010"><a xlink:href="classdomini_1_1scrabble_1_1_partida.html#a08fafff3effb2531336daf54639ffe99" target="_top" xlink:title="Reanuda la partida si està en pausa.">
<polygon fill="white" stroke="#666666" points="363.5,-70 213.25,-70 213.25,-50 363.5,-50 363.5,-70"/>
<text text-anchor="middle" x="288.38" y="-56.5" font-family="Helvetica,sans-Serif" font-size="10.00">domini.scrabble.Partida.encurs</text>
</a>
</g>
</g>
<!-- Node1&#45;&gt;Node10 -->
<g id="edge9_Node000001_Node000010" class="edge">
<title>Node1&#45;&gt;Node10</title>
<g id="a_edge9_Node000001_Node000010"><a xlink:title=" ">
<path fill="none" stroke="#63b8ff" d="M162.66,-73.37C175.43,-72 188.67,-70.58 201.56,-69.2"/>
<polygon fill="#63b8ff" stroke="#63b8ff" points="201.69,-72.7 211.26,-68.16 200.94,-65.74 201.69,-72.7"/>
</a>
</g>
</g>
<!-- Node11 -->
<g id="Node000011" class="node">
<title>Node11</title>
<g id="a_Node000011"><a xlink:href="classcontroladors_1_1_ctrl_persistencia.html#a3e338a9b45aaa502d95cb1816545b734" target="_top" xlink:title="Desa un usuari a l&#39;emmagatzematge persistent.">
<polygon fill="white" stroke="#666666" points="377,-32 199.75,-32 199.75,0 377,0 377,-32"/>
<text text-anchor="start" x="207.75" y="-18.5" font-family="Helvetica,sans-Serif" font-size="10.00">controladors.CtrlPersistencia.guardar</text>
<text text-anchor="middle" x="288.38" y="-6.5" font-family="Helvetica,sans-Serif" font-size="10.00">Usuari</text>
</a>
</g>
</g>
<!-- Node1&#45;&gt;Node11 -->
<g id="edge10_Node000001_Node000011" class="edge">
<title>Node1&#45;&gt;Node11</title>
<g id="a_edge10_Node000001_Node000011"><a xlink:title=" ">
<path fill="none" stroke="#63b8ff" d="M126.56,-65.54C148.09,-57.76 174.4,-48.55 198.25,-41 204,-39.18 209.97,-37.36 215.98,-35.57"/>
<polygon fill="#63b8ff" stroke="#63b8ff" points="216.74,-39 225.36,-32.83 214.78,-32.28 216.74,-39"/>
</a>
</g>
</g>
<!-- Node3 -->
<g id="Node000003" class="node">
<title>Node3</title>
<g id="a_Node000003"><a xlink:href="classpersistencia_1_1_partida_i_o.html#a7b9bdae6d9736a012e584b268b0bcb86" target="_top" xlink:title="Carrega una partida des d&#39;un fitxer JSON.">
<polygon fill="white" stroke="#666666" points="556.12,-170 422.38,-170 422.38,-138 556.12,-138 556.12,-170"/>
<text text-anchor="start" x="430.38" y="-156.5" font-family="Helvetica,sans-Serif" font-size="10.00">persistencia.PartidaIO.load</text>
<text text-anchor="middle" x="489.25" y="-144.5" font-family="Helvetica,sans-Serif" font-size="10.00">Partida</text>
</a>
</g>
</g>
<!-- Node2&#45;&gt;Node3 -->
<g id="edge2_Node000002_Node000003" class="edge">
<title>Node2&#45;&gt;Node3</title>
<g id="a_edge2_Node000002_Node000003"><a xlink:title=" ">
<path fill="none" stroke="#63b8ff" d="M378.92,-154C389.6,-154 400.43,-154 410.91,-154"/>
<polygon fill="#63b8ff" stroke="#63b8ff" points="410.61,-157.5 420.61,-154 410.61,-150.5 410.61,-157.5"/>
</a>
</g>
</g>
<!-- Node4 -->
<g id="Node000004" class="node">
<title>Node4</title>
<g id="a_Node000004"><a xlink:href="classdomini_1_1scrabble_1_1_partida.html#a02bdb9c41da95458503bb9d1967ea9e8" target="_top" xlink:title="Retorna la instància de la bossa.">
<polygon fill="white" stroke="#666666" points="734.5,-245 600,-245 600,-213 734.5,-213 734.5,-245"/>
<text text-anchor="start" x="608" y="-231.5" font-family="Helvetica,sans-Serif" font-size="10.00">domini.scrabble.Partida.get</text>
<text text-anchor="middle" x="667.25" y="-219.5" font-family="Helvetica,sans-Serif" font-size="10.00">Bossa</text>
</a>
</g>
</g>
<!-- Node3&#45;&gt;Node4 -->
<g id="edge3_Node000003_Node000004" class="edge">
<title>Node3&#45;&gt;Node4</title>
<g id="a_edge3_Node000003_Node000004"><a xlink:title=" ">
<path fill="none" stroke="#63b8ff" d="M524.59,-170.36C546.1,-180.42 574.48,-193.39 600,-204 603.57,-205.48 607.26,-206.98 610.99,-208.47"/>
<polygon fill="#63b8ff" stroke="#63b8ff" points="609.55,-211.66 620.13,-212.04 612.1,-205.14 609.55,-211.66"/>
</a>
</g>
</g>
<!-- Node5 -->
<g id="Node000005" class="node">
<title>Node5</title>
<g id="a_Node000005"><a xlink:href="classdomini_1_1scrabble_1_1_partida.html#a719791835f1334957e59dcfe4d2a4cec" target="_top" xlink:title="Retorna l&#39;estat actual de la partida.">
<polygon fill="white" stroke="#666666" points="734.5,-195 600,-195 600,-163 734.5,-163 734.5,-195"/>
<text text-anchor="start" x="608" y="-181.5" font-family="Helvetica,sans-Serif" font-size="10.00">domini.scrabble.Partida.get</text>
<text text-anchor="middle" x="667.25" y="-169.5" font-family="Helvetica,sans-Serif" font-size="10.00">Estat</text>
</a>
</g>
</g>
<!-- Node3&#45;&gt;Node5 -->
<g id="edge4_Node000003_Node000005" class="edge">
<title>Node3&#45;&gt;Node5</title>
<g id="a_edge4_Node000003_Node000005"><a xlink:title=" ">
<path fill="none" stroke="#63b8ff" d="M556.54,-163.42C567.02,-164.91 577.95,-166.46 588.67,-167.98"/>
<polygon fill="#63b8ff" stroke="#63b8ff" points="587.84,-171.4 598.23,-169.34 588.82,-164.47 587.84,-171.4"/>
</a>
</g>
</g>
<!-- Node6 -->
<g id="Node000006" class="node">
<title>Node6</title>
<g id="a_Node000006"><a xlink:href="classdomini_1_1scrabble_1_1_bossa.html#aa72b114802328935e32718821a3322ce" target="_top" xlink:title="Obté les fitxes de la bossa.">
<polygon fill="white" stroke="#666666" points="733,-145 601.5,-145 601.5,-113 733,-113 733,-145"/>
<text text-anchor="start" x="609.5" y="-131.5" font-family="Helvetica,sans-Serif" font-size="10.00">domini.scrabble.Bossa.get</text>
<text text-anchor="middle" x="667.25" y="-119.5" font-family="Helvetica,sans-Serif" font-size="10.00">Fitxes</text>
</a>
</g>
</g>
<!-- Node3&#45;&gt;Node6 -->
<g id="edge5_Node000003_Node000006" class="edge">
<title>Node3&#45;&gt;Node6</title>
<g id="a_edge5_Node000003_Node000006"><a xlink:title=" ">
<path fill="none" stroke="#63b8ff" d="M556.54,-144.58C567.5,-143.03 578.94,-141.4 590.12,-139.81"/>
<polygon fill="#63b8ff" stroke="#63b8ff" points="590.28,-143.33 599.69,-138.45 589.3,-136.4 590.28,-143.33"/>
</a>
</g>
</g>
<!-- Node7 -->
<g id="Node000007" class="node">
<title>Node7</title>
<g id="a_Node000007"><a xlink:href="classdomini_1_1scrabble_1_1_estat.html#acb727a684104d60ab770231bebdcc9c6" target="_top" xlink:title="Mètode que assigna la partida del paràmetre a l&#39;estat.">
<polygon fill="white" stroke="#666666" points="730.75,-95 603.75,-95 603.75,-63 730.75,-63 730.75,-95"/>
<text text-anchor="start" x="611.75" y="-81.5" font-family="Helvetica,sans-Serif" font-size="10.00">domini.scrabble.Estat.set</text>
<text text-anchor="middle" x="667.25" y="-69.5" font-family="Helvetica,sans-Serif" font-size="10.00">Partida</text>
</a>
</g>
</g>
<!-- Node3&#45;&gt;Node7 -->
<g id="edge6_Node000003_Node000007" class="edge">
<title>Node3&#45;&gt;Node7</title>
<g id="a_edge6_Node000003_Node000007"><a xlink:title=" ">
<path fill="none" stroke="#63b8ff" d="M544.54,-137.55C551.21,-134.96 557.84,-132.1 564,-129 581.39,-120.23 582.76,-113.06 600,-104 602.66,-102.6 605.42,-101.24 608.23,-99.92"/>
<polygon fill="#63b8ff" stroke="#63b8ff" points="609.45,-103.21 617.19,-95.97 606.63,-96.81 609.45,-103.21"/>
</a>
</g>
</g>
<!-- Node9 -->
<g id="Node000009" class="node">
<title>Node9</title>
<g id="a_Node000009"><a xlink:href="classpersistencia_1_1_partida_i_o.html#a5c2c99bab58abf77d06e20995a12080f" target="_top" xlink:title="Elimina una partida esborrant el seu fitxer JSON.">
<polygon fill="white" stroke="#666666" points="564,-120 414.5,-120 414.5,-88 564,-88 564,-120"/>
<text text-anchor="start" x="422.5" y="-106.5" font-family="Helvetica,sans-Serif" font-size="10.00">persistencia.PartidaIO.eliminar</text>
<text text-anchor="middle" x="489.25" y="-94.5" font-family="Helvetica,sans-Serif" font-size="10.00">Partida</text>
</a>
</g>
</g>
<!-- Node8&#45;&gt;Node9 -->
<g id="edge8_Node000008_Node000009" class="edge">
<title>Node8&#45;&gt;Node9</title>
<g id="a_edge8_Node000008_Node000009"><a xlink:title=" ">
<path fill="none" stroke="#63b8ff" d="M378.05,-104C386.22,-104 394.48,-104 402.62,-104"/>
<polygon fill="#63b8ff" stroke="#63b8ff" points="402.51,-107.5 412.51,-104 402.51,-100.5 402.51,-107.5"/>
</a>
</g>
</g>
<!-- Node12 -->
<g id="Node000012" class="node">
<title>Node12</title>
<g id="a_Node000012"><a xlink:href="classpersistencia_1_1_usuari_i_o.html#adae8b6b62d1b4cbbff286eaa19877937" target="_top" xlink:title="Desa un usuari a un fitxer JSON.">
<polygon fill="white" stroke="#666666" points="556.5,-32 422,-32 422,0 556.5,0 556.5,-32"/>
<text text-anchor="start" x="430" y="-18.5" font-family="Helvetica,sans-Serif" font-size="10.00">persistencia.UsuariIO.save</text>
<text text-anchor="middle" x="489.25" y="-6.5" font-family="Helvetica,sans-Serif" font-size="10.00">Usuari</text>
</a>
</g>
</g>
<!-- Node11&#45;&gt;Node12 -->
<g id="edge11_Node000011_Node000012" class="edge">
<title>Node11&#45;&gt;Node12</title>
<g id="a_edge11_Node000011_Node000012"><a xlink:title=" ">
<path fill="none" stroke="#63b8ff" d="M377.47,-16C388.38,-16 399.48,-16 410.22,-16"/>
<polygon fill="#63b8ff" stroke="#63b8ff" points="410.21,-19.5 420.21,-16 410.21,-12.5 410.21,-19.5"/>
</a>
</g>
</g>
</g>
</svg>

<g id="navigator" transform="translate(0 0)" fill="#404254">
  <rect fill="#f2f5e9" fill-opacity="0.5" stroke="#606060" stroke-width=".5" x="0" y="0" width="60" height="60"/>
  <use id="zoomplus" xlink:href="#zoomPlus" x="17" y="9" onmousedown="handleZoom(evt,'in')"/>
  <use id="zoomminus" xlink:href="#zoomMin" x="42" y="9" onmousedown="handleZoom(evt,'out')"/>
  <use id="reset" xlink:href="#resetDef" x="30" y="36" onmousedown="handleReset()"/>
   <use id="arrowup" xlink:href="#arrowUp" x="0" y="0" onmousedown="handlePan(0,-1)"/>
  <use id="arrowright" xlink:href="#arrowRight" x="0" y="0" onmousedown="handlePan(1,0)"/>
  <use id="arrowdown" xlink:href="#arrowDown" x="0" y="0" onmousedown="handlePan(0,1)"/>
  <use id="arrowleft" xlink:href="#arrowLeft" x="0" y="0" onmousedown="handlePan(-1,0)"/>
</g>
<svg viewBox="0 0 15 15" width="100%" height="30px" preserveAspectRatio="xMaxYMin meet">
 <g id="arrow_out" transform="scale(0.3 0.3)">
  <a xlink:href="classcontroladors_1_1_ctrl_domini_a8f8379a74fba56b9e4e82d4c5743360e_cgraph_org.svg" target="_base">
   <rect id="button" ry="5" rx="5" y="6" x="6" height="38" width="38"
        fill="#f2f5e9" fill-opacity="0.5" stroke="#606060" stroke-width="1.0"/>
   <path id="arrow"
     d="M 11.500037,31.436501 C 11.940474,20.09759 22.043105,11.32322 32.158766,21.979434 L 37.068811,17.246167 C 37.068811,17.246167 37.088388,32 37.088388,32 L 22.160133,31.978069 C 22.160133,31.978069 26.997745,27.140456 26.997745,27.140456 C 18.528582,18.264221 13.291696,25.230495 11.500037,31.436501 z"
     style="fill:#404040;"/>
  </a>
 </g>
</svg>

<style type='text/css'>
<![CDATA[
[data-mouse-over-selected='false'] { opacity: 0.7; }
[data-mouse-over-selected='true']  { opacity: 1.0; }
]]>
</style>
<script type="application/ecmascript"><![CDATA[
document.addEventListener('DOMContentLoaded', (event) => {
  highlightEdges();
  highlightAdjacentNodes();
});
]]></script>
</svg>
