<?xml version="1.0" encoding="UTF-8" standalone="no"?>
<!DOCTYPE svg PUBLIC "-//W3C//DTD SVG 1.1//EN"
 "http://www.w3.org/Graphics/SVG/1.1/DTD/svg11.dtd">
<!-- Generated by graphviz version 12.2.1 (20241206.2353)
 -->
<!-- Title: controladors.CtrlDomini.eliminarUsuari Pages: 1 -->
<svg width="568pt" height="90pt"
 viewBox="0.00 0.00 567.50 90.00" xmlns="http://www.w3.org/2000/svg" xmlns:xlink="http://www.w3.org/1999/xlink">
<g id="graph0" class="graph" transform="scale(1 1) rotate(0) translate(4 86)">
<title>controladors.CtrlDomini.eliminarUsuari</title>
<!-- Node1 -->
<g id="Node000001" class="node">
<title>Node1</title>
<g id="a_Node000001"><a xlink:title="Elimina un usuari.">
<polygon fill="#999999" stroke="#666666" points="155.5,-57 0,-57 0,-25 155.5,-25 155.5,-57"/>
<text text-anchor="start" x="8" y="-43.5" font-family="Helvetica,sans-Serif" font-size="10.00">controladors.CtrlDomini.eliminar</text>
<text text-anchor="middle" x="77.75" y="-31.5" font-family="Helvetica,sans-Serif" font-size="10.00">Usuari</text>
</a>
</g>
</g>
<!-- Node2 -->
<g id="Node000002" class="node">
<title>Node2</title>
<g id="a_Node000002"><a xlink:href="classcontroladors_1_1_ctrl_persistencia.html#a09020132c18c52085e84f9e4480bdb30" target="_top" xlink:title="Elimina un jugador de l&#39;emmagatzematge persistent.">
<polygon fill="white" stroke="#666666" points="370.25,-82 191.5,-82 191.5,-50 370.25,-50 370.25,-82"/>
<text text-anchor="start" x="199.5" y="-68.5" font-family="Helvetica,sans-Serif" font-size="10.00">controladors.CtrlPersistencia.eliminar</text>
<text text-anchor="middle" x="280.88" y="-56.5" font-family="Helvetica,sans-Serif" font-size="10.00">Jugador</text>
</a>
</g>
</g>
<!-- Node1&#45;&gt;Node2 -->
<g id="edge1_Node000001_Node000002" class="edge">
<title>Node1&#45;&gt;Node2</title>
<g id="a_edge1_Node000001_Node000002"><a xlink:title=" ">
<path fill="none" stroke="#63b8ff" d="M155.93,-50.59C163.77,-51.57 171.8,-52.57 179.82,-53.56"/>
<polygon fill="#63b8ff" stroke="#63b8ff" points="179.29,-57.02 189.64,-54.78 180.15,-50.08 179.29,-57.02"/>
</a>
</g>
</g>
<!-- Node4 -->
<g id="Node000004" class="node">
<title>Node4</title>
<g id="a_Node000004"><a xlink:href="classcontroladors_1_1_ctrl_persistencia.html#ae1e8c88230469b75e9aece365028e9ad" target="_top" xlink:title="Elimina un usuari de l&#39;emmagatzematge persistent.">
<polygon fill="white" stroke="#666666" points="370.25,-32 191.5,-32 191.5,0 370.25,0 370.25,-32"/>
<text text-anchor="start" x="199.5" y="-18.5" font-family="Helvetica,sans-Serif" font-size="10.00">controladors.CtrlPersistencia.eliminar</text>
<text text-anchor="middle" x="280.88" y="-6.5" font-family="Helvetica,sans-Serif" font-size="10.00">Usuari</text>
</a>
</g>
</g>
<!-- Node1&#45;&gt;Node4 -->
<g id="edge3_Node000001_Node000004" class="edge">
<title>Node1&#45;&gt;Node4</title>
<g id="a_edge3_Node000001_Node000004"><a xlink:title=" ">
<path fill="none" stroke="#63b8ff" d="M155.93,-31.41C163.77,-30.43 171.8,-29.43 179.82,-28.44"/>
<polygon fill="#63b8ff" stroke="#63b8ff" points="180.15,-31.92 189.64,-27.22 179.29,-24.98 180.15,-31.92"/>
</a>
</g>
</g>
<!-- Node3 -->
<g id="Node000003" class="node">
<title>Node3</title>
<g id="a_Node000003"><a xlink:href="classpersistencia_1_1_jugador_i_o.html#a33bb33e9446715359568286f85f9f307" target="_top" xlink:title="Elimina un jugador esborrant el seu fitxer JSON.">
<polygon fill="white" stroke="#666666" points="559.5,-82 406.25,-82 406.25,-50 559.5,-50 559.5,-82"/>
<text text-anchor="start" x="414.25" y="-68.5" font-family="Helvetica,sans-Serif" font-size="10.00">persistencia.JugadorIO.eliminar</text>
<text text-anchor="middle" x="482.88" y="-56.5" font-family="Helvetica,sans-Serif" font-size="10.00">Jugador</text>
</a>
</g>
</g>
<!-- Node2&#45;&gt;Node3 -->
<g id="edge2_Node000002_Node000003" class="edge">
<title>Node2&#45;&gt;Node3</title>
<g id="a_edge2_Node000002_Node000003"><a xlink:title=" ">
<path fill="none" stroke="#63b8ff" d="M370.47,-66C378.4,-66 386.43,-66 394.36,-66"/>
<polygon fill="#63b8ff" stroke="#63b8ff" points="394.35,-69.5 404.35,-66 394.35,-62.5 394.35,-69.5"/>
</a>
</g>
</g>
<!-- Node5 -->
<g id="Node000005" class="node">
<title>Node5</title>
<g id="a_Node000005"><a xlink:href="classpersistencia_1_1_usuari_i_o.html#a69cfc343d143faa096f55b5476bb7231" target="_top" xlink:title="Elimina un usuari esborrant el seu fitxer JSON.">
<polygon fill="white" stroke="#666666" points="556.5,-32 409.25,-32 409.25,0 556.5,0 556.5,-32"/>
<text text-anchor="start" x="417.25" y="-18.5" font-family="Helvetica,sans-Serif" font-size="10.00">persistencia.UsuariIO.eliminar</text>
<text text-anchor="middle" x="482.88" y="-6.5" font-family="Helvetica,sans-Serif" font-size="10.00">Usuari</text>
</a>
</g>
</g>
<!-- Node4&#45;&gt;Node5 -->
<g id="edge4_Node000004_Node000005" class="edge">
<title>Node4&#45;&gt;Node5</title>
<g id="a_edge4_Node000004_Node000005"><a xlink:title=" ">
<path fill="none" stroke="#63b8ff" d="M370.47,-16C379.51,-16 388.67,-16 397.66,-16"/>
<polygon fill="#63b8ff" stroke="#63b8ff" points="397.41,-19.5 407.41,-16 397.41,-12.5 397.41,-19.5"/>
</a>
</g>
</g>
</g>
</svg>
