<?xml version="1.0" encoding="UTF-8" standalone="no"?>
<!DOCTYPE svg PUBLIC "-//W3C//DTD SVG 1.1//EN"
 "http://www.w3.org/Graphics/SVG/1.1/DTD/svg11.dtd">
<!-- Generated by graphviz version 12.2.1 (20241206.2353)
 -->
<!-- Title: drivers.Driver.jugarPartida Pages: 1 -->
<!--zoomable 480 -->

<svg id="main" version="1.1" xmlns="http://www.w3.org/2000/svg" xmlns:xlink="http://www.w3.org/1999/xlink" xml:space="preserve" onload="init(evt)">

<style type="text/css"><![CDATA[
.node, .edge {opacity: 0.7;}
.node.selected, .edge.selected {opacity: 1;}
.edge:hover path { stroke: red; }
.edge:hover polygon { stroke: red; fill: red; }
]]></style>

<defs>
  <circle id="rim" cx="0" cy="0" r="7"/>
  <circle id="rim2" cx="0" cy="0" r="3.5"/>
  <g id="zoomPlus">
    <use xlink:href="#rim" fill="#404040"><set attributeName="fill" to="#808080" begin="zoomplus.mouseover" end="zoomplus.mouseout"/></use>
    <path d="M-4,0h8M0,-4v8" fill="none" stroke="white" stroke-width="1.5" pointer-events="none"/>
  </g>
  <g id="zoomMin">
    <use xlink:href="#rim" fill="#404040"><set attributeName="fill" to="#808080" begin="zoomminus.mouseover" end="zoomminus.mouseout"/></use>
    <path d="M-4,0h8" fill="none" stroke="white" stroke-width="1.5" pointer-events="none"/>
  </g>
  <g id="arrowUp" transform="translate(30 24)">
    <use xlink:href="#rim"/>
    <path pointer-events="none" fill="none" stroke="white" stroke-width="1.5" d="M0,-3.0v7 M-2.5,-0.5L0,-3.0L2.5,-0.5"/>
  </g>
  <g id="arrowRight" transform="rotate(90) translate(36 -43)">
    <use xlink:href="#rim"/>
    <path pointer-events="none" fill="none" stroke="white" stroke-width="1.5" d="M0,-3.0v7 M-2.5,-0.5L0,-3.0L2.5,-0.5"/>
  </g>
  <g id="arrowDown" transform="rotate(180) translate(-30 -48)">
    <use xlink:href="#rim"/>
    <path pointer-events="none" fill="none" stroke="white" stroke-width="1.5" d="M0,-3.0v7 M-2.5,-0.5L0,-3.0L2.5,-0.5"/>
  </g>
  <g id="arrowLeft" transform="rotate(270) translate(-36 17)">
    <use xlink:href="#rim"/>
    <path pointer-events="none" fill="none" stroke="white" stroke-width="1.5" d="M0,-3.0v7 M-2.5,-0.5L0,-3.0L2.5,-0.5"/>
  </g>
  <g id="resetDef">
    <use xlink:href="#rim2" fill="#404040"><set attributeName="fill" to="#808080" begin="reset.mouseover" end="reset.mouseout"/></use>
  </g>
</defs>
<script type="application/ecmascript">
var viewWidth = 894;
var viewHeight = 480;
var sectionId = 'dynsection-22';
</script>
<script type="application/ecmascript" xlink:href="svg.min.js"/>
<svg id="graph" class="graph">
<g id="viewport">
<title>drivers.Driver.jugarPartida</title>
<!-- Node1 -->
<g id="Node000001" class="node">
<title>Node1</title>
<g id="a_Node000001"><a xlink:title="Juga una partida.">
<polygon fill="#999999" stroke="#666666" points="129.25,-240 0,-240 0,-220 129.25,-220 129.25,-240"/>
<text text-anchor="middle" x="64.62" y="-226.5" font-family="Helvetica,sans-Serif" font-size="10.00">drivers.Driver.jugarPartida</text>
</a>
</g>
</g>
<!-- Node2 -->
<g id="Node000002" class="node">
<title>Node2</title>
<g id="a_Node000002"><a xlink:href="classdrivers_1_1_driver.html#ac619a13f9534e9347b26fae373236cfd" target="_top" xlink:title="Abandona la partida actual.">
<polygon fill="white" stroke="#666666" points="680.88,-325 558.38,-325 558.38,-293 680.88,-293 680.88,-325"/>
<text text-anchor="start" x="566.38" y="-311.5" font-family="Helvetica,sans-Serif" font-size="10.00">drivers.Driver.abandonar</text>
<text text-anchor="middle" x="619.62" y="-299.5" font-family="Helvetica,sans-Serif" font-size="10.00">Partida</text>
</a>
</g>
</g>
<!-- Node1&#45;&gt;Node2 -->
<g id="edge1_Node000001_Node000002" class="edge">
<title>Node1&#45;&gt;Node2</title>
<g id="a_edge1_Node000001_Node000002"><a xlink:title=" ">
<path fill="none" stroke="#63b8ff" d="M91.83,-240.43C111.67,-247.9 139.77,-257.56 165.25,-263 298.11,-291.39 456.73,-302.39 546.77,-306.56"/>
<polygon fill="#63b8ff" stroke="#63b8ff" points="546.55,-310.05 556.69,-307 546.86,-303.06 546.55,-310.05"/>
</a>
</g>
</g>
<!-- Node3 -->
<g id="Node000003" class="node">
<title>Node3</title>
<g id="a_Node000003"><a xlink:href="classdrivers_1_1_driver.html#a8bc044826a5994373681c23cc5555bce" target="_top" xlink:title="Neteja la pantalla del terminal.">
<polygon fill="white" stroke="#666666" points="884.38,-190 755.12,-190 755.12,-170 884.38,-170 884.38,-190"/>
<text text-anchor="middle" x="819.75" y="-176.5" font-family="Helvetica,sans-Serif" font-size="10.00">drivers.Driver.clearScreen</text>
</a>
</g>
</g>
<!-- Node1&#45;&gt;Node3 -->
<g id="edge7_Node000001_Node000003" class="edge">
<title>Node1&#45;&gt;Node3</title>
<g id="a_edge7_Node000001_Node000003"><a xlink:title=" ">
<path fill="none" stroke="#63b8ff" d="M69.18,-240.31C79.22,-267.63 110.67,-341.89 165.25,-372 380.11,-490.54 508.63,-513.21 717.25,-384 783.36,-343.05 807.79,-244.69 815.57,-201.24"/>
<polygon fill="#63b8ff" stroke="#63b8ff" points="818.99,-202.02 817.16,-191.58 812.08,-200.88 818.99,-202.02"/>
</a>
</g>
</g>
<!-- Node4 -->
<g id="Node000004" class="node">
<title>Node4</title>
<g id="a_Node000004"><a xlink:href="classdrivers_1_1_driver.html#a511e05515632a6b31d522a3faa1998a8" target="_top" xlink:title="Canvia fitxes del jugador actual.">
<polygon fill="white" stroke="#666666" points="687.62,-61 551.62,-61 551.62,-41 687.62,-41 687.62,-61"/>
<text text-anchor="middle" x="619.62" y="-47.5" font-family="Helvetica,sans-Serif" font-size="10.00">drivers.Driver.canviarFitxes</text>
</a>
</g>
</g>
<!-- Node1&#45;&gt;Node4 -->
<g id="edge3_Node000001_Node000004" class="edge">
<title>Node1&#45;&gt;Node4</title>
<g id="a_edge3_Node000001_Node000004"><a xlink:title=" ">
<path fill="none" stroke="#63b8ff" d="M71.86,-219.58C85.68,-197.45 121.18,-145.7 165.25,-120 282.56,-51.59 444.81,-43.71 540.04,-46.07"/>
<polygon fill="#63b8ff" stroke="#63b8ff" points="539.7,-49.56 549.8,-46.36 539.91,-42.56 539.7,-49.56"/>
</a>
</g>
</g>
<!-- Node7 -->
<g id="Node000007" class="node">
<title>Node7</title>
<g id="a_Node000007"><a xlink:href="classdrivers_1_1_driver.html#a2e8cde796339c2db37f3e7332bf695ea" target="_top" xlink:title="Col·loca una paraula al taulell.">
<polygon fill="white" stroke="#666666" points="309.5,-149 167.5,-149 167.5,-129 309.5,-129 309.5,-149"/>
<text text-anchor="middle" x="238.5" y="-135.5" font-family="Helvetica,sans-Serif" font-size="10.00">drivers.Driver.colocarParaula</text>
</a>
</g>
</g>
<!-- Node1&#45;&gt;Node7 -->
<g id="edge8_Node000001_Node000007" class="edge">
<title>Node1&#45;&gt;Node7</title>
<g id="a_edge8_Node000001_Node000007"><a xlink:title=" ">
<path fill="none" stroke="#63b8ff" d="M79.95,-219.68C98.86,-206.37 133.45,-183.02 165.25,-167 175.06,-162.06 185.96,-157.42 196.26,-153.39"/>
<polygon fill="#63b8ff" stroke="#63b8ff" points="197.17,-156.79 205.28,-149.97 194.69,-150.24 197.17,-156.79"/>
</a>
</g>
</g>
<!-- Node13 -->
<g id="Node000013" class="node">
<title>Node13</title>
<g id="a_Node000013"><a xlink:href="classdrivers_1_1_driver.html#af17ae20af9da7fe473559b18f57b3846" target="_top" xlink:title="Consulta les normes del joc.">
<polygon fill="white" stroke="#666666" points="475.5,-246 358.25,-246 358.25,-214 475.5,-214 475.5,-246"/>
<text text-anchor="start" x="366.25" y="-232.5" font-family="Helvetica,sans-Serif" font-size="10.00">drivers.Driver.consultar</text>
<text text-anchor="middle" x="416.88" y="-220.5" font-family="Helvetica,sans-Serif" font-size="10.00">Normes</text>
</a>
</g>
</g>
<!-- Node1&#45;&gt;Node13 -->
<g id="edge17_Node000001_Node000013" class="edge">
<title>Node1&#45;&gt;Node13</title>
<g id="a_edge17_Node000001_Node000013"><a xlink:title=" ">
<path fill="none" stroke="#63b8ff" d="M129.46,-230C190.85,-230 283.4,-230 346.56,-230"/>
<polygon fill="#63b8ff" stroke="#63b8ff" points="346.49,-233.5 356.49,-230 346.49,-226.5 346.49,-233.5"/>
</a>
</g>
</g>
<!-- Node14 -->
<g id="Node000014" class="node">
<title>Node14</title>
<g id="a_Node000014"><a xlink:href="classdrivers_1_1_driver.html#ac54b560952a6b33f46dfb41fa9cdb421" target="_top" xlink:title="Permet guardar la partida i torna a la pantalla d&#39;inici.">
<polygon fill="white" stroke="#666666" points="689.88,-275 549.38,-275 549.38,-255 689.88,-255 689.88,-275"/>
<text text-anchor="middle" x="619.62" y="-261.5" font-family="Helvetica,sans-Serif" font-size="10.00">drivers.Driver.guardarPartida</text>
</a>
</g>
</g>
<!-- Node1&#45;&gt;Node14 -->
<g id="edge19_Node000001_Node000014" class="edge">
<title>Node1&#45;&gt;Node14</title>
<g id="a_edge19_Node000001_Node000014"><a xlink:title=" ">
<path fill="none" stroke="#63b8ff" d="M129.58,-239.75C141.42,-241.34 153.69,-242.84 165.25,-244 295.14,-257.02 446.78,-261.98 537.62,-263.86"/>
<polygon fill="#63b8ff" stroke="#63b8ff" points="537.36,-267.36 547.43,-264.06 537.5,-260.36 537.36,-267.36"/>
</a>
</g>
</g>
<!-- Node15 -->
<g id="Node000015" class="node">
<title>Node15</title>
<g id="a_Node000015"><a xlink:href="classdrivers_1_1_driver.html#a016b62cedb8884ea6333d8c8506d73ee" target="_top" xlink:title="Mostra per pantalla les opcions de les que disposa un jugador durant la partida.">
<polygon fill="white" stroke="#666666" points="311.75,-32 165.25,-32 165.25,0 311.75,0 311.75,-32"/>
<text text-anchor="start" x="173.25" y="-18.5" font-family="Helvetica,sans-Serif" font-size="10.00">drivers.Driver.mostrarOpcions</text>
<text text-anchor="middle" x="238.5" y="-6.5" font-family="Helvetica,sans-Serif" font-size="10.00">Partida</text>
</a>
</g>
</g>
<!-- Node1&#45;&gt;Node15 -->
<g id="edge20_Node000001_Node000015" class="edge">
<title>Node1&#45;&gt;Node15</title>
<g id="a_edge20_Node000001_Node000015"><a xlink:title=" ">
<path fill="none" stroke="#63b8ff" d="M68.5,-219.7C77.56,-189.05 108.34,-97.35 165.25,-46 168.5,-43.06 172.08,-40.39 175.86,-37.96"/>
<polygon fill="#63b8ff" stroke="#63b8ff" points="177.3,-41.17 184.25,-33.17 173.83,-35.09 177.3,-41.17"/>
</a>
</g>
</g>
<!-- Node16 -->
<g id="Node000016" class="node">
<title>Node16</title>
<g id="a_Node000016"><a xlink:href="classdrivers_1_1_driver.html#a1349f8ca44272d07a91da7c4a689ce2e" target="_top" xlink:title="Passa el torn del jugador actual.">
<polygon fill="white" stroke="#666666" points="301.25,-196 175.75,-196 175.75,-176 301.25,-176 301.25,-196"/>
<text text-anchor="middle" x="238.5" y="-182.5" font-family="Helvetica,sans-Serif" font-size="10.00">drivers.Driver.passarTorn</text>
</a>
</g>
</g>
<!-- Node1&#45;&gt;Node16 -->
<g id="edge21_Node000001_Node000016" class="edge">
<title>Node1&#45;&gt;Node16</title>
<g id="a_edge21_Node000001_Node000016"><a xlink:title=" ">
<path fill="none" stroke="#63b8ff" d="M106.36,-219.57C130.14,-213.48 160.37,-205.74 185.82,-199.23"/>
<polygon fill="#63b8ff" stroke="#63b8ff" points="186.48,-202.67 195.3,-196.8 184.74,-195.89 186.48,-202.67"/>
</a>
</g>
</g>
<!-- Node17 -->
<g id="Node000017" class="node">
<title>Node17</title>
<g id="a_Node000017"><a xlink:href="classdrivers_1_1_driver.html#a5bdeffe74ac8e28325692a231275787b" target="_top" xlink:title="Pausa la partida actual.">
<polygon fill="white" stroke="#666666" points="307.25,-363 169.75,-363 169.75,-343 307.25,-343 307.25,-363"/>
<text text-anchor="middle" x="238.5" y="-349.5" font-family="Helvetica,sans-Serif" font-size="10.00">drivers.Driver.pausarPartida</text>
</a>
</g>
</g>
<!-- Node1&#45;&gt;Node17 -->
<g id="edge23_Node000001_Node000017" class="edge">
<title>Node1&#45;&gt;Node17</title>
<g id="a_edge23_Node000001_Node000017"><a xlink:title=" ">
<path fill="none" stroke="#63b8ff" d="M73.88,-240.39C89.7,-259.71 126.23,-301.42 165.25,-326 172.9,-330.82 181.53,-334.97 190.11,-338.48"/>
<polygon fill="#63b8ff" stroke="#63b8ff" points="188.85,-341.74 199.44,-342.03 191.34,-335.2 188.85,-341.74"/>
</a>
</g>
</g>
<!-- Node2&#45;&gt;Node3 -->
<g id="edge2_Node000002_Node000003" class="edge">
<title>Node2&#45;&gt;Node3</title>
<g id="a_edge2_Node000002_Node000003"><a xlink:title=" ">
<path fill="none" stroke="#63b8ff" d="M681.13,-298.74C693.58,-295.17 706.23,-290.39 717.25,-284 754.68,-262.3 787.51,-223 805.11,-199.42"/>
<polygon fill="#63b8ff" stroke="#63b8ff" points="807.75,-201.74 810.8,-191.6 802.09,-197.63 807.75,-201.74"/>
</a>
</g>
</g>
<!-- Node4&#45;&gt;Node3 -->
<g id="edge4_Node000004_Node000003" class="edge">
<title>Node4&#45;&gt;Node3</title>
<g id="a_edge4_Node000004_Node000003"><a xlink:title=" ">
<path fill="none" stroke="#63b8ff" d="M687.93,-56.03C698.45,-59.05 708.66,-63.5 717.25,-70 745.46,-91.35 729.09,-115.15 753.25,-141 761.95,-150.31 773.36,-158.13 784.22,-164.26"/>
<polygon fill="#63b8ff" stroke="#63b8ff" points="782.54,-167.34 793.02,-168.92 785.82,-161.15 782.54,-167.34"/>
</a>
</g>
</g>
<!-- Node5 -->
<g id="Node000005" class="node">
<title>Node5</title>
<g id="a_Node000005"><a xlink:href="classdrivers_1_1_driver.html#a922b257b3c0425d1b3a89e6202abb26a" target="_top" xlink:title="Identifica els caràcters del paràmetre d&#39;entrada que hauríen de correspondre&#39;s amb &#39;Ç&#39; i els substitu...">
<polygon fill="white" stroke="#666666" points="879.5,-44 760,-44 760,-12 879.5,-12 879.5,-44"/>
<text text-anchor="start" x="768" y="-30.5" font-family="Helvetica,sans-Serif" font-size="10.00">drivers.Driver.identificar</text>
<text text-anchor="middle" x="819.75" y="-18.5" font-family="Helvetica,sans-Serif" font-size="10.00">CTrenada</text>
</a>
</g>
</g>
<!-- Node4&#45;&gt;Node5 -->
<g id="edge5_Node000004_Node000005" class="edge">
<title>Node4&#45;&gt;Node5</title>
<g id="a_edge5_Node000004_Node000005"><a xlink:title=" ">
<path fill="none" stroke="#63b8ff" d="M687.98,-43.18C707.39,-40.93 728.62,-38.46 748.22,-36.19"/>
<polygon fill="#63b8ff" stroke="#63b8ff" points="748.51,-39.68 758.04,-35.05 747.7,-32.72 748.51,-39.68"/>
</a>
</g>
</g>
<!-- Node6 -->
<g id="Node000006" class="node">
<title>Node6</title>
<g id="a_Node000006"><a xlink:href="classdrivers_1_1_driver.html#a5786bc8fc6091766d21fc7e775c38b45" target="_top" xlink:title="Donada una seqüència de caràcters identifica qualsevol submot &quot;LxL&quot; on x no pertany al conjunt {A&#45;Z}...">
<polygon fill="white" stroke="#666666" points="886.25,-82 753.25,-82 753.25,-62 886.25,-62 886.25,-82"/>
<text text-anchor="middle" x="819.75" y="-68.5" font-family="Helvetica,sans-Serif" font-size="10.00">drivers.Driver.substituirLxL</text>
</a>
</g>
</g>
<!-- Node4&#45;&gt;Node6 -->
<g id="edge6_Node000004_Node000006" class="edge">
<title>Node4&#45;&gt;Node6</title>
<g id="a_edge6_Node000004_Node000006"><a xlink:title=" ">
<path fill="none" stroke="#63b8ff" d="M687.98,-58.14C705.19,-59.96 723.82,-61.94 741.48,-63.81"/>
<polygon fill="#63b8ff" stroke="#63b8ff" points="741.11,-67.29 751.42,-64.86 741.85,-60.33 741.11,-67.29"/>
</a>
</g>
</g>
<!-- Node7&#45;&gt;Node3 -->
<g id="edge9_Node000007_Node000003" class="edge">
<title>Node7&#45;&gt;Node3</title>
<g id="a_edge9_Node000007_Node000003"><a xlink:title=" ">
<path fill="none" stroke="#63b8ff" d="M309.91,-143.38C359.22,-146.49 426.64,-150.84 486,-155 574.36,-161.19 675.88,-168.9 743.31,-174.11"/>
<polygon fill="#63b8ff" stroke="#63b8ff" points="742.91,-177.59 753.15,-174.87 743.45,-170.61 742.91,-177.59"/>
</a>
</g>
</g>
<!-- Node8 -->
<g id="Node000008" class="node">
<title>Node8</title>
<g id="a_Node000008"><a xlink:href="classdrivers_1_1_driver.html#a735bc9f4183f4abd4c702da4c62b0ce8" target="_top" xlink:title="Mostra la pantalla de canvi de torn donant temps per a que el jugador es retiri i no vegi la pantalla...">
<polygon fill="white" stroke="#666666" points="486,-196 347.75,-196 347.75,-164 486,-164 486,-196"/>
<text text-anchor="start" x="355.75" y="-182.5" font-family="Helvetica,sans-Serif" font-size="10.00">drivers.Driver.PantallaCanvi</text>
<text text-anchor="middle" x="416.88" y="-170.5" font-family="Helvetica,sans-Serif" font-size="10.00">DeTorn</text>
</a>
</g>
</g>
<!-- Node7&#45;&gt;Node8 -->
<g id="edge10_Node000007_Node000008" class="edge">
<title>Node7&#45;&gt;Node8</title>
<g id="a_edge10_Node000007_Node000008"><a xlink:title=" ">
<path fill="none" stroke="#63b8ff" d="M284.46,-149.45C300.27,-153.13 318.53,-157.37 336.33,-161.51"/>
<polygon fill="#63b8ff" stroke="#63b8ff" points="335.31,-164.87 345.84,-163.72 336.9,-158.05 335.31,-164.87"/>
</a>
</g>
</g>
<!-- Node10 -->
<g id="Node000010" class="node">
<title>Node10</title>
<g id="a_Node000010"><a xlink:href="classdrivers_1_1_driver.html#a0ebb5e3010ea1f086dc4fd28df56ae54" target="_top" xlink:title="Genera una llista amb les lletres i dígrafs del paràmetre.">
<polygon fill="white" stroke="#666666" points="474,-108 359.75,-108 359.75,-88 474,-88 474,-108"/>
<text text-anchor="middle" x="416.88" y="-94.5" font-family="Helvetica,sans-Serif" font-size="10.00">drivers.Driver.tokenize</text>
</a>
</g>
</g>
<!-- Node7&#45;&gt;Node10 -->
<g id="edge13_Node000007_Node000010" class="edge">
<title>Node7&#45;&gt;Node10</title>
<g id="a_edge13_Node000007_Node000010"><a xlink:title=" ">
<path fill="none" stroke="#63b8ff" d="M284.46,-128.55C307.47,-123.2 335.7,-116.64 360.09,-110.97"/>
<polygon fill="#63b8ff" stroke="#63b8ff" points="360.57,-114.45 369.52,-108.78 358.99,-107.63 360.57,-114.45"/>
</a>
</g>
</g>
<!-- Node8&#45;&gt;Node3 -->
<g id="edge12_Node000008_Node000003" class="edge">
<title>Node8&#45;&gt;Node3</title>
<g id="a_edge12_Node000008_Node000003"><a xlink:title=" ">
<path fill="none" stroke="#63b8ff" d="M486.33,-180C557.91,-180 669.9,-180 743.81,-180"/>
<polygon fill="#63b8ff" stroke="#63b8ff" points="743.36,-183.5 753.36,-180 743.36,-176.5 743.36,-183.5"/>
</a>
</g>
</g>
<!-- Node9 -->
<g id="Node000009" class="node">
<title>Node9</title>
<g id="a_Node000009"><a xlink:href="classdomini_1_1auxiliars_1_1_color_terminal.html#a2fe2444decaa0df626b98d7e35637dbb" target="_top" xlink:title="Centra el text en una línia de la terminal.">
<polygon fill="white" stroke="#666666" points="717.25,-234 522,-234 522,-214 717.25,-214 717.25,-234"/>
<text text-anchor="middle" x="619.62" y="-220.5" font-family="Helvetica,sans-Serif" font-size="10.00">domini.auxiliars.ColorTerminal.centerText</text>
</a>
</g>
</g>
<!-- Node8&#45;&gt;Node9 -->
<g id="edge11_Node000008_Node000009" class="edge">
<title>Node8&#45;&gt;Node9</title>
<g id="a_edge11_Node000008_Node000009"><a xlink:title=" ">
<path fill="none" stroke="#63b8ff" d="M486.4,-195.02C510.32,-200.26 536.92,-206.09 559.96,-211.14"/>
<polygon fill="#63b8ff" stroke="#63b8ff" points="558.96,-214.51 569.48,-213.23 560.46,-207.67 558.96,-214.51"/>
</a>
</g>
</g>
<!-- Node11 -->
<g id="Node000011" class="node">
<title>Node11</title>
<g id="a_Node000011"><a xlink:href="classdrivers_1_1_driver.html#a1f0852212ac7d690fe9c705f9eadd737" target="_top" xlink:title="Donat un text entrat per terminal, és possible que el charSet de la consola no reconegui correctament...">
<polygon fill="white" stroke="#666666" points="692.12,-111 547.12,-111 547.12,-79 692.12,-79 692.12,-111"/>
<text text-anchor="start" x="555.12" y="-97.5" font-family="Helvetica,sans-Serif" font-size="10.00">drivers.Driver.corregir</text>
<text text-anchor="middle" x="619.62" y="-85.5" font-family="Helvetica,sans-Serif" font-size="10.00">_caracters_terminal_windows</text>
</a>
</g>
</g>
<!-- Node10&#45;&gt;Node11 -->
<g id="edge14_Node000010_Node000011" class="edge">
<title>Node10&#45;&gt;Node11</title>
<g id="a_edge14_Node000010_Node000011"><a xlink:title=" ">
<path fill="none" stroke="#63b8ff" d="M474.33,-97.16C493.31,-96.87 514.91,-96.55 535.5,-96.24"/>
<polygon fill="#63b8ff" stroke="#63b8ff" points="535.36,-99.74 545.3,-96.1 535.25,-92.75 535.36,-99.74"/>
</a>
</g>
</g>
<!-- Node11&#45;&gt;Node6 -->
<g id="edge16_Node000011_Node000006" class="edge">
<title>Node11&#45;&gt;Node6</title>
<g id="a_edge16_Node000011_Node000006"><a xlink:title=" ">
<path fill="none" stroke="#63b8ff" d="M692.43,-86.66C708.45,-84.8 725.5,-82.83 741.71,-80.94"/>
<polygon fill="#63b8ff" stroke="#63b8ff" points="741.75,-84.46 751.28,-79.83 740.94,-77.51 741.75,-84.46"/>
</a>
</g>
</g>
<!-- Node12 -->
<g id="Node000012" class="node">
<title>Node12</title>
<g id="a_Node000012"><a xlink:href="classdrivers_1_1_driver.html#a5337e850da710900d1ef6e2c4455a416" target="_top" xlink:title="Donada una seqüència de caràcters identifica qualsevol submot &quot;[VOCAL]?&quot; o &quot;?[VOCAL]&quot; i ho substituei...">
<polygon fill="white" stroke="#666666" points="878.38,-132 761.12,-132 761.12,-100 878.38,-100 878.38,-132"/>
<text text-anchor="start" x="769.12" y="-118.5" font-family="Helvetica,sans-Serif" font-size="10.00">drivers.Driver.substituir</text>
<text text-anchor="middle" x="819.75" y="-106.5" font-family="Helvetica,sans-Serif" font-size="10.00">Ctrencada</text>
</a>
</g>
</g>
<!-- Node11&#45;&gt;Node12 -->
<g id="edge15_Node000011_Node000012" class="edge">
<title>Node11&#45;&gt;Node12</title>
<g id="a_edge15_Node000011_Node000012"><a xlink:title=" ">
<path fill="none" stroke="#63b8ff" d="M692.43,-102.61C711.05,-104.58 731.06,-106.71 749.54,-108.66"/>
<polygon fill="#63b8ff" stroke="#63b8ff" points="749,-112.13 759.32,-109.7 749.74,-105.17 749,-112.13"/>
</a>
</g>
</g>
<!-- Node13&#45;&gt;Node9 -->
<g id="edge18_Node000013_Node000009" class="edge">
<title>Node13&#45;&gt;Node9</title>
<g id="a_edge18_Node000013_Node000009"><a xlink:title=" ">
<path fill="none" stroke="#63b8ff" d="M475.94,-228.26C486.82,-227.94 498.52,-227.59 510.36,-227.24"/>
<polygon fill="#63b8ff" stroke="#63b8ff" points="510.33,-230.74 520.22,-226.94 510.12,-223.74 510.33,-230.74"/>
</a>
</g>
</g>
<!-- Node16&#45;&gt;Node8 -->
<g id="edge22_Node000016_Node000008" class="edge">
<title>Node16&#45;&gt;Node8</title>
<g id="a_edge22_Node000016_Node000008"><a xlink:title=" ">
<path fill="none" stroke="#63b8ff" d="M301.68,-183.88C312.77,-183.51 324.45,-183.11 335.95,-182.72"/>
<polygon fill="#63b8ff" stroke="#63b8ff" points="335.96,-186.22 345.84,-182.38 335.73,-179.22 335.96,-186.22"/>
</a>
</g>
</g>
<!-- Node18 -->
<g id="Node000018" class="node">
<title>Node18</title>
<g id="a_Node000018"><a xlink:href="classdrivers_1_1_driver.html#a65d5cdb033b4f42c0a2adf1fabb7b6ff" target="_top" xlink:title="Mostra el menú de pausa.">
<polygon fill="white" stroke="#666666" points="484.12,-372 349.62,-372 349.62,-340 484.12,-340 484.12,-372"/>
<text text-anchor="start" x="357.62" y="-358.5" font-family="Helvetica,sans-Serif" font-size="10.00">drivers.Driver.mostrarMenu</text>
<text text-anchor="middle" x="416.88" y="-346.5" font-family="Helvetica,sans-Serif" font-size="10.00">Pausa</text>
</a>
</g>
</g>
<!-- Node17&#45;&gt;Node18 -->
<g id="edge24_Node000017_Node000018" class="edge">
<title>Node17&#45;&gt;Node18</title>
<g id="a_edge24_Node000017_Node000018"><a xlink:title=" ">
<path fill="none" stroke="#63b8ff" d="M307.69,-354.16C317.62,-354.33 327.91,-354.5 338.01,-354.68"/>
<polygon fill="#63b8ff" stroke="#63b8ff" points="337.74,-358.17 347.8,-354.84 337.86,-351.17 337.74,-358.17"/>
</a>
</g>
</g>
<!-- Node18&#45;&gt;Node2 -->
<g id="edge25_Node000018_Node000002" class="edge">
<title>Node18&#45;&gt;Node2</title>
<g id="a_edge25_Node000018_Node000002"><a xlink:title=" ">
<path fill="none" stroke="#63b8ff" d="M484.44,-340.41C504.47,-335.73 526.54,-330.56 546.89,-325.8"/>
<polygon fill="#63b8ff" stroke="#63b8ff" points="547.58,-329.23 556.52,-323.54 545.99,-322.41 547.58,-329.23"/>
</a>
</g>
</g>
<!-- Node18&#45;&gt;Node14 -->
<g id="edge26_Node000018_Node000014" class="edge">
<title>Node18&#45;&gt;Node14</title>
<g id="a_edge26_Node000018_Node000014"><a xlink:title=" ">
<path fill="none" stroke="#63b8ff" d="M436.41,-339.61C456.22,-323 489.2,-297.85 522,-284 527.18,-281.81 532.63,-279.87 538.19,-278.15"/>
<polygon fill="#63b8ff" stroke="#63b8ff" points="538.84,-281.61 547.51,-275.52 536.94,-274.87 538.84,-281.61"/>
</a>
</g>
</g>
<!-- Node19 -->
<g id="Node000019" class="node">
<title>Node19</title>
<g id="a_Node000019"><a xlink:href="classdrivers_1_1_driver.html#a54fdfdd4f8f7e6333ada1d3dee920f44" target="_top" xlink:title="Reanuda una partida pausada.">
<polygon fill="white" stroke="#666666" points="678.62,-375 560.62,-375 560.62,-343 678.62,-343 678.62,-375"/>
<text text-anchor="start" x="568.62" y="-361.5" font-family="Helvetica,sans-Serif" font-size="10.00">drivers.Driver.reprendre</text>
<text text-anchor="middle" x="619.62" y="-349.5" font-family="Helvetica,sans-Serif" font-size="10.00">Partida</text>
</a>
</g>
</g>
<!-- Node18&#45;&gt;Node19 -->
<g id="edge27_Node000018_Node000019" class="edge">
<title>Node18&#45;&gt;Node19</title>
<g id="a_edge27_Node000018_Node000019"><a xlink:title=" ">
<path fill="none" stroke="#63b8ff" d="M484.44,-356.99C505.15,-357.3 528.03,-357.65 548.94,-357.96"/>
<polygon fill="#63b8ff" stroke="#63b8ff" points="548.76,-361.46 558.81,-358.11 548.87,-354.46 548.76,-361.46"/>
</a>
</g>
</g>
</g>
</svg>

<g id="navigator" transform="translate(0 0)" fill="#404254">
  <rect fill="#f2f5e9" fill-opacity="0.5" stroke="#606060" stroke-width=".5" x="0" y="0" width="60" height="60"/>
  <use id="zoomplus" xlink:href="#zoomPlus" x="17" y="9" onmousedown="handleZoom(evt,'in')"/>
  <use id="zoomminus" xlink:href="#zoomMin" x="42" y="9" onmousedown="handleZoom(evt,'out')"/>
  <use id="reset" xlink:href="#resetDef" x="30" y="36" onmousedown="handleReset()"/>
   <use id="arrowup" xlink:href="#arrowUp" x="0" y="0" onmousedown="handlePan(0,-1)"/>
  <use id="arrowright" xlink:href="#arrowRight" x="0" y="0" onmousedown="handlePan(1,0)"/>
  <use id="arrowdown" xlink:href="#arrowDown" x="0" y="0" onmousedown="handlePan(0,1)"/>
  <use id="arrowleft" xlink:href="#arrowLeft" x="0" y="0" onmousedown="handlePan(-1,0)"/>
</g>
<svg viewBox="0 0 15 15" width="100%" height="30px" preserveAspectRatio="xMaxYMin meet">
 <g id="arrow_out" transform="scale(0.3 0.3)">
  <a xlink:href="classdrivers_1_1_driver_a13e38153634507d9ad6e24cb267237b9_cgraph_org.svg" target="_base">
   <rect id="button" ry="5" rx="5" y="6" x="6" height="38" width="38"
        fill="#f2f5e9" fill-opacity="0.5" stroke="#606060" stroke-width="1.0"/>
   <path id="arrow"
     d="M 11.500037,31.436501 C 11.940474,20.09759 22.043105,11.32322 32.158766,21.979434 L 37.068811,17.246167 C 37.068811,17.246167 37.088388,32 37.088388,32 L 22.160133,31.978069 C 22.160133,31.978069 26.997745,27.140456 26.997745,27.140456 C 18.528582,18.264221 13.291696,25.230495 11.500037,31.436501 z"
     style="fill:#404040;"/>
  </a>
 </g>
</svg>

<style type='text/css'>
<![CDATA[
[data-mouse-over-selected='false'] { opacity: 0.7; }
[data-mouse-over-selected='true']  { opacity: 1.0; }
]]>
</style>
<script type="application/ecmascript"><![CDATA[
document.addEventListener('DOMContentLoaded', (event) => {
  highlightEdges();
  highlightAdjacentNodes();
});
]]></script>
</svg>
