<?xml version="1.0" encoding="UTF-8" standalone="no"?>
<!DOCTYPE svg PUBLIC "-//W3C//DTD SVG 1.1//EN"
 "http://www.w3.org/Graphics/SVG/1.1/DTD/svg11.dtd">
<!-- Generated by graphviz version 12.2.1 (20241206.2353)
 -->
<!-- Title: domini.scrabble.Taulell.inserirParaula Pages: 1 -->
<svg width="517pt" height="106pt"
 viewBox="0.00 0.00 517.25 106.00" xmlns="http://www.w3.org/2000/svg" xmlns:xlink="http://www.w3.org/1999/xlink">
<g id="graph0" class="graph" transform="scale(1 1) rotate(0) translate(4 102)">
<title>domini.scrabble.Taulell.inserirParaula</title>
<!-- Node1 -->
<g id="Node000001" class="node">
<title>Node1</title>
<g id="a_Node000001"><a xlink:title="Insereix una paraula al Taulell.">
<polygon fill="#999999" stroke="#666666" points="144.25,-48 0,-48 0,-16 144.25,-16 144.25,-48"/>
<text text-anchor="start" x="8" y="-34.5" font-family="Helvetica,sans-Serif" font-size="10.00">domini.scrabble.Taulell.inserir</text>
<text text-anchor="middle" x="72.12" y="-22.5" font-family="Helvetica,sans-Serif" font-size="10.00">Paraula</text>
</a>
</g>
</g>
<!-- Node2 -->
<g id="Node000002" class="node">
<title>Node2</title>
<g id="a_Node000002"><a xlink:href="classdomini_1_1scrabble_1_1_taulell.html#a6ca2cf041414fa0a7c451cd03fbbfe4a" target="_top" xlink:title="Mètode que calcula la puntuació que donaria col·locar una paraula en una determinada posició del taul...">
<polygon fill="white" stroke="#666666" points="332,-98 180.25,-98 180.25,-66 332,-66 332,-98"/>
<text text-anchor="start" x="188.25" y="-84.5" font-family="Helvetica,sans-Serif" font-size="10.00">domini.scrabble.Taulell.calcular</text>
<text text-anchor="middle" x="256.12" y="-72.5" font-family="Helvetica,sans-Serif" font-size="10.00">Puntatge</text>
</a>
</g>
</g>
<!-- Node1&#45;&gt;Node2 -->
<g id="edge1_Node000001_Node000002" class="edge">
<title>Node1&#45;&gt;Node2</title>
<g id="a_edge1_Node000001_Node000002"><a xlink:title=" ">
<path fill="none" stroke="#63b8ff" d="M132.97,-48.44C149.37,-52.95 167.31,-57.88 184.27,-62.53"/>
<polygon fill="#63b8ff" stroke="#63b8ff" points="183.21,-65.87 193.78,-65.15 185.07,-59.12 183.21,-65.87"/>
</a>
</g>
</g>
<!-- Node3 -->
<g id="Node000003" class="node">
<title>Node3</title>
<g id="a_Node000003"><a xlink:href="classdomini_1_1scrabble_1_1_taulell.html#a5be7b0143cecbce3e2f4dc4f53814879" target="_top" xlink:title="Donades unes coordenades, retorna la Casella que es troba en aquelles coordenades.">
<polygon fill="white" stroke="#666666" points="321.88,-48 190.38,-48 190.38,-16 321.88,-16 321.88,-48"/>
<text text-anchor="start" x="198.38" y="-34.5" font-family="Helvetica,sans-Serif" font-size="10.00">domini.scrabble.Taulell.get</text>
<text text-anchor="middle" x="256.12" y="-22.5" font-family="Helvetica,sans-Serif" font-size="10.00">Casella</text>
</a>
</g>
</g>
<!-- Node1&#45;&gt;Node3 -->
<g id="edge2_Node000001_Node000003" class="edge">
<title>Node1&#45;&gt;Node3</title>
<g id="a_edge2_Node000001_Node000003"><a xlink:title=" ">
<path fill="none" stroke="#63b8ff" d="M144.53,-32C155.81,-32 167.51,-32 178.89,-32"/>
<polygon fill="#63b8ff" stroke="#63b8ff" points="178.63,-35.5 188.63,-32 178.63,-28.5 178.63,-35.5"/>
</a>
</g>
</g>
<!-- Node4 -->
<g id="Node000004" class="node">
<title>Node4</title>
<g id="a_Node000004"><a xlink:href="classdomini_1_1scrabble_1_1_taulell.html#afc2d8dcd225b683aa00af9ce2075ad79" target="_top" xlink:title=" ">
<polygon fill="white" stroke="#666666" points="509.25,-20 368,-20 368,0 509.25,0 509.25,-20"/>
<text text-anchor="middle" x="438.62" y="-6.5" font-family="Helvetica,sans-Serif" font-size="10.00">domini.scrabble.Taulell.limits</text>
</a>
</g>
</g>
<!-- Node1&#45;&gt;Node4 -->
<g id="edge4_Node000001_Node000004" class="edge">
<title>Node1&#45;&gt;Node4</title>
<g id="a_edge4_Node000001_Node000004"><a xlink:title=" ">
<path fill="none" stroke="#63b8ff" d="M132.76,-15.53C148.11,-12 164.69,-8.79 180.25,-7 238.96,-0.24 305.7,-1.27 356.5,-3.84"/>
<polygon fill="#63b8ff" stroke="#63b8ff" points="356.06,-7.32 366.23,-4.36 356.43,-0.33 356.06,-7.32"/>
</a>
</g>
</g>
<!-- Node3&#45;&gt;Node4 -->
<g id="edge3_Node000003_Node000004" class="edge">
<title>Node3&#45;&gt;Node4</title>
<g id="a_edge3_Node000003_Node000004"><a xlink:title=" ">
<path fill="none" stroke="#63b8ff" d="M322.29,-24.06C333.35,-22.71 344.95,-21.3 356.36,-19.9"/>
<polygon fill="#63b8ff" stroke="#63b8ff" points="356.67,-23.39 366.18,-18.71 355.83,-16.44 356.67,-23.39"/>
</a>
</g>
</g>
</g>
</svg>
