<?xml version="1.0" encoding="UTF-8" standalone="no"?>
<!DOCTYPE svg PUBLIC "-//W3C//DTD SVG 1.1//EN"
 "http://www.w3.org/Graphics/SVG/1.1/DTD/svg11.dtd">
<!-- Generated by graphviz version 12.2.1 (20241206.2353)
 -->
<!-- Title: interficie.VistaPartida.confirmarAbandonar Pages: 1 -->
<svg width="577pt" height="240pt"
 viewBox="0.00 0.00 576.50 240.00" xmlns="http://www.w3.org/2000/svg" xmlns:xlink="http://www.w3.org/1999/xlink">
<g id="graph0" class="graph" transform="scale(1 1) rotate(0) translate(4 236)">
<title>interficie.VistaPartida.confirmarAbandonar</title>
<!-- Node1 -->
<g id="Node000001" class="node">
<title>Node1</title>
<g id="a_Node000001"><a xlink:title="Confirma l&#39;acció d&#39;abandonar la partida.">
<polygon fill="#999999" stroke="#666666" points="152.5,-157 0,-157 0,-125 152.5,-125 152.5,-157"/>
<text text-anchor="start" x="8" y="-143.5" font-family="Helvetica,sans-Serif" font-size="10.00">interficie.VistaPartida.confirmar</text>
<text text-anchor="middle" x="76.25" y="-131.5" font-family="Helvetica,sans-Serif" font-size="10.00">Abandonar</text>
</a>
</g>
</g>
<!-- Node2 -->
<g id="Node000002" class="node">
<title>Node2</title>
<g id="a_Node000002"><a xlink:href="$classcontroladors_1_1_ctrl_presentacio.html#aade10ef9769feff03c1bed6677942541" xlink:title="Abandona la partida actual en curs.">
<polygon fill="white" stroke="#666666" points="376.25,-182 188.5,-182 188.5,-150 376.25,-150 376.25,-182"/>
<text text-anchor="start" x="196.5" y="-168.5" font-family="Helvetica,sans-Serif" font-size="10.00">controladors.CtrlPresentacio.abandonar</text>
<text text-anchor="middle" x="282.38" y="-156.5" font-family="Helvetica,sans-Serif" font-size="10.00">Partida</text>
</a>
</g>
</g>
<!-- Node1&#45;&gt;Node2 -->
<g id="edge1_Node000001_Node000002" class="edge">
<title>Node1&#45;&gt;Node2</title>
<g id="a_edge1_Node000001_Node000002"><a xlink:title=" ">
<path fill="none" stroke="#63b8ff" d="M152.97,-150.27C160.76,-151.23 168.77,-152.21 176.8,-153.19"/>
<polygon fill="#63b8ff" stroke="#63b8ff" points="176.29,-156.66 186.64,-154.4 177.14,-149.71 176.29,-156.66"/>
</a>
</g>
</g>
<!-- Node3 -->
<g id="Node000003" class="node">
<title>Node3</title>
<g id="a_Node000003"><a xlink:href="$classcontroladors_1_1_ctrl_presentacio.html#af82e544e6fad5efe4bce551be338f5f1" xlink:title="Canvia la vista a la pantalla de rànquing final un cop acabada la partida.">
<polygon fill="white" stroke="#666666" points="365.38,-132 199.38,-132 199.38,-100 365.38,-100 365.38,-132"/>
<text text-anchor="start" x="207.38" y="-118.5" font-family="Helvetica,sans-Serif" font-size="10.00">controladors.CtrlPresentacio.canvi</text>
<text text-anchor="middle" x="282.38" y="-106.5" font-family="Helvetica,sans-Serif" font-size="10.00">RankingPartida</text>
</a>
</g>
</g>
<!-- Node1&#45;&gt;Node3 -->
<g id="edge2_Node000001_Node000003" class="edge">
<title>Node1&#45;&gt;Node3</title>
<g id="a_edge2_Node000001_Node000003"><a xlink:title=" ">
<path fill="none" stroke="#63b8ff" d="M152.97,-131.73C164.32,-130.34 176.13,-128.89 187.8,-127.46"/>
<polygon fill="#63b8ff" stroke="#63b8ff" points="187.92,-130.97 197.42,-126.28 187.07,-124.02 187.92,-130.97"/>
</a>
</g>
</g>
<!-- Node4 -->
<g id="Node000004" class="node">
<title>Node4</title>
<g id="a_Node000004"><a xlink:href="$classdomini_1_1scrabble_1_1_partida.html#aa70bb260790c2c58f008a3a5acf4d14c" xlink:title="Retorna el jugador 1 de la partida.">
<polygon fill="white" stroke="#666666" points="557.62,-232 423.12,-232 423.12,-200 557.62,-200 557.62,-232"/>
<text text-anchor="start" x="431.12" y="-218.5" font-family="Helvetica,sans-Serif" font-size="10.00">domini.scrabble.Partida.get</text>
<text text-anchor="middle" x="490.38" y="-206.5" font-family="Helvetica,sans-Serif" font-size="10.00">Jugador1</text>
</a>
</g>
</g>
<!-- Node3&#45;&gt;Node4 -->
<g id="edge3_Node000003_Node000004" class="edge">
<title>Node3&#45;&gt;Node4</title>
<g id="a_edge3_Node000003_Node000004"><a xlink:title=" ">
<path fill="none" stroke="#63b8ff" d="M360.77,-132.3C366.21,-134.79 371.44,-137.68 376.25,-141 398.77,-156.57 390.13,-174.86 412.25,-191 413.77,-192.11 415.35,-193.18 416.97,-194.19"/>
<polygon fill="#63b8ff" stroke="#63b8ff" points="414.87,-197.03 425.31,-198.8 418.25,-190.9 414.87,-197.03"/>
</a>
</g>
</g>
<!-- Node5 -->
<g id="Node000005" class="node">
<title>Node5</title>
<g id="a_Node000005"><a xlink:href="$classdomini_1_1scrabble_1_1_partida.html#a0b74d361ee022b4e90911616286443aa" xlink:title="Retorna el jugador 2 de la partida.">
<polygon fill="white" stroke="#666666" points="557.62,-182 423.12,-182 423.12,-150 557.62,-150 557.62,-182"/>
<text text-anchor="start" x="431.12" y="-168.5" font-family="Helvetica,sans-Serif" font-size="10.00">domini.scrabble.Partida.get</text>
<text text-anchor="middle" x="490.38" y="-156.5" font-family="Helvetica,sans-Serif" font-size="10.00">Jugador2</text>
</a>
</g>
</g>
<!-- Node3&#45;&gt;Node5 -->
<g id="edge4_Node000003_Node000005" class="edge">
<title>Node3&#45;&gt;Node5</title>
<g id="a_edge4_Node000003_Node000005"><a xlink:title=" ">
<path fill="none" stroke="#63b8ff" d="M351.11,-132.44C370.51,-137.15 391.8,-142.32 411.73,-147.15"/>
<polygon fill="#63b8ff" stroke="#63b8ff" points="410.64,-150.49 421.18,-149.45 412.29,-143.69 410.64,-150.49"/>
</a>
</g>
</g>
<!-- Node6 -->
<g id="Node000006" class="node">
<title>Node6</title>
<g id="a_Node000006"><a xlink:href="$classcontroladors_1_1_ctrl_presentacio.html#af18fe9d82387504c97bd73a19eaa15e8" xlink:title="Retorna la instància de la partida actual en curs.">
<polygon fill="white" stroke="#666666" points="568.5,-132 412.25,-132 412.25,-100 568.5,-100 568.5,-132"/>
<text text-anchor="start" x="420.25" y="-118.5" font-family="Helvetica,sans-Serif" font-size="10.00">controladors.CtrlPresentacio.get</text>
<text text-anchor="middle" x="490.38" y="-106.5" font-family="Helvetica,sans-Serif" font-size="10.00">Partida</text>
</a>
</g>
</g>
<!-- Node3&#45;&gt;Node6 -->
<g id="edge5_Node000003_Node000006" class="edge">
<title>Node3&#45;&gt;Node6</title>
<g id="a_edge5_Node000003_Node000006"><a xlink:title=" ">
<path fill="none" stroke="#63b8ff" d="M365.68,-116C377.11,-116 388.9,-116 400.44,-116"/>
<polygon fill="#63b8ff" stroke="#63b8ff" points="400.37,-119.5 410.37,-116 400.37,-112.5 400.37,-119.5"/>
</a>
</g>
</g>
<!-- Node7 -->
<g id="Node000007" class="node">
<title>Node7</title>
<g id="a_Node000007"><a xlink:href="$classdomini_1_1scrabble_1_1_partida.html#a974f15ba9601af217cd16510b3009343" xlink:title="Retorna la puntuació del jugador 1.">
<polygon fill="white" stroke="#666666" points="557.62,-82 423.12,-82 423.12,-50 557.62,-50 557.62,-82"/>
<text text-anchor="start" x="431.12" y="-68.5" font-family="Helvetica,sans-Serif" font-size="10.00">domini.scrabble.Partida.get</text>
<text text-anchor="middle" x="490.38" y="-56.5" font-family="Helvetica,sans-Serif" font-size="10.00">PuntuacioJugador1</text>
</a>
</g>
</g>
<!-- Node3&#45;&gt;Node7 -->
<g id="edge6_Node000003_Node000007" class="edge">
<title>Node3&#45;&gt;Node7</title>
<g id="a_edge6_Node000003_Node000007"><a xlink:title=" ">
<path fill="none" stroke="#63b8ff" d="M351.11,-99.56C370.51,-94.85 391.8,-89.68 411.73,-84.85"/>
<polygon fill="#63b8ff" stroke="#63b8ff" points="412.29,-88.31 421.18,-82.55 410.64,-81.51 412.29,-88.31"/>
</a>
</g>
</g>
<!-- Node8 -->
<g id="Node000008" class="node">
<title>Node8</title>
<g id="a_Node000008"><a xlink:href="$classdomini_1_1scrabble_1_1_partida.html#a7e2de1d70128d27e1477c2e4b144569e" xlink:title="Retorna la puntuació del jugador 2.">
<polygon fill="white" stroke="#666666" points="557.62,-32 423.12,-32 423.12,0 557.62,0 557.62,-32"/>
<text text-anchor="start" x="431.12" y="-18.5" font-family="Helvetica,sans-Serif" font-size="10.00">domini.scrabble.Partida.get</text>
<text text-anchor="middle" x="490.38" y="-6.5" font-family="Helvetica,sans-Serif" font-size="10.00">PuntuacioJugador2</text>
</a>
</g>
</g>
<!-- Node3&#45;&gt;Node8 -->
<g id="edge7_Node000003_Node000008" class="edge">
<title>Node3&#45;&gt;Node8</title>
<g id="a_edge7_Node000003_Node000008"><a xlink:title=" ">
<path fill="none" stroke="#63b8ff" d="M307.73,-99.71C333.04,-83.28 374.2,-58 412.25,-41 415.76,-39.43 419.4,-37.91 423.11,-36.45"/>
<polygon fill="#63b8ff" stroke="#63b8ff" points="424.1,-39.81 432.23,-33.02 421.64,-33.26 424.1,-39.81"/>
</a>
</g>
</g>
</g>
</svg>
