<?xml version="1.0" encoding="UTF-8" standalone="no"?>
<!DOCTYPE svg PUBLIC "-//W3C//DTD SVG 1.1//EN"
 "http://www.w3.org/Graphics/SVG/1.1/DTD/svg11.dtd">
<!-- Generated by graphviz version 12.2.1 (20241206.2353)
 -->
<!-- Title: drivers.Driver.PantallaCanviDeTorn Pages: 1 -->
<svg width="624pt" height="66pt"
 viewBox="0.00 0.00 624.00 66.00" xmlns="http://www.w3.org/2000/svg" xmlns:xlink="http://www.w3.org/1999/xlink">
<g id="graph0" class="graph" transform="scale(1 1) rotate(0) translate(4 62)">
<title>drivers.Driver.PantallaCanviDeTorn</title>
<!-- Node1 -->
<g id="Node000001" class="node">
<title>Node1</title>
<g id="a_Node000001"><a xlink:title="Mostra la pantalla de canvi de torn donant temps per a que el jugador es retiri i no vegi la pantalla...">
<polygon fill="#999999" stroke="#666666" points="616,-45 477.75,-45 477.75,-13 616,-13 616,-45"/>
<text text-anchor="start" x="485.75" y="-31.5" font-family="Helvetica,sans-Serif" font-size="10.00">drivers.Driver.PantallaCanvi</text>
<text text-anchor="middle" x="546.88" y="-19.5" font-family="Helvetica,sans-Serif" font-size="10.00">DeTorn</text>
</a>
</g>
</g>
<!-- Node2 -->
<g id="Node000002" class="node">
<title>Node2</title>
<g id="a_Node000002"><a xlink:href="classdrivers_1_1_driver.html#a2e8cde796339c2db37f3e7332bf695ea" target="_top" xlink:title="Col·loca una paraula al taulell.">
<polygon fill="white" stroke="#666666" points="441.75,-58 299.75,-58 299.75,-38 441.75,-38 441.75,-58"/>
<text text-anchor="middle" x="370.75" y="-44.5" font-family="Helvetica,sans-Serif" font-size="10.00">drivers.Driver.colocarParaula</text>
</a>
</g>
</g>
<!-- Node1&#45;&gt;Node2 -->
<g id="edge1_Node000001_Node000002" class="edge">
<title>Node1&#45;&gt;Node2</title>
<g id="a_edge1_Node000001_Node000002"><a xlink:title=" ">
<path fill="none" stroke="#63b8ff" d="M466.27,-37.69C458.23,-38.56 450.1,-39.45 442.16,-40.32"/>
<polygon fill="#63b8ff" stroke="#63b8ff" points="466.49,-41.18 476.05,-36.62 465.73,-34.22 466.49,-41.18"/>
</a>
</g>
</g>
<!-- Node5 -->
<g id="Node000005" class="node">
<title>Node5</title>
<g id="a_Node000005"><a xlink:href="classdrivers_1_1_driver.html#a1349f8ca44272d07a91da7c4a689ce2e" target="_top" xlink:title="Passa el torn del jugador actual.">
<polygon fill="white" stroke="#666666" points="433.5,-20 308,-20 308,0 433.5,0 433.5,-20"/>
<text text-anchor="middle" x="370.75" y="-6.5" font-family="Helvetica,sans-Serif" font-size="10.00">drivers.Driver.passarTorn</text>
</a>
</g>
</g>
<!-- Node1&#45;&gt;Node5 -->
<g id="edge4_Node000001_Node000005" class="edge">
<title>Node1&#45;&gt;Node5</title>
<g id="a_edge4_Node000001_Node000005"><a xlink:title=" ">
<path fill="none" stroke="#63b8ff" d="M466.31,-20.32C455.44,-19.13 444.42,-17.93 433.92,-16.78"/>
<polygon fill="#63b8ff" stroke="#63b8ff" points="465.73,-23.78 476.05,-21.38 466.49,-16.82 465.73,-23.78"/>
</a>
</g>
</g>
<!-- Node3 -->
<g id="Node000003" class="node">
<title>Node3</title>
<g id="a_Node000003"><a xlink:href="classdrivers_1_1_driver.html#a13e38153634507d9ad6e24cb267237b9" target="_top" xlink:title="Juga una partida.">
<polygon fill="white" stroke="#666666" points="263.75,-39 134.5,-39 134.5,-19 263.75,-19 263.75,-39"/>
<text text-anchor="middle" x="199.12" y="-25.5" font-family="Helvetica,sans-Serif" font-size="10.00">drivers.Driver.jugarPartida</text>
</a>
</g>
</g>
<!-- Node2&#45;&gt;Node3 -->
<g id="edge2_Node000002_Node000003" class="edge">
<title>Node2&#45;&gt;Node3</title>
<g id="a_edge2_Node000002_Node000003"><a xlink:title=" ">
<path fill="none" stroke="#63b8ff" d="M288.01,-38.84C279.99,-37.95 271.94,-37.04 264.13,-36.17"/>
<polygon fill="#63b8ff" stroke="#63b8ff" points="287.46,-42.3 297.78,-39.94 288.23,-35.35 287.46,-42.3"/>
</a>
</g>
</g>
<!-- Node4 -->
<g id="Node000004" class="node">
<title>Node4</title>
<g id="a_Node000004"><a xlink:href="classdrivers_1_1_driver.html#a3f94ce3595725e82b34c92548e071d04" target="_top" xlink:title="Inici del driver.">
<polygon fill="white" stroke="#666666" points="98.5,-39 0,-39 0,-19 98.5,-19 98.5,-39"/>
<text text-anchor="middle" x="49.25" y="-25.5" font-family="Helvetica,sans-Serif" font-size="10.00">drivers.Driver.main</text>
</a>
</g>
</g>
<!-- Node3&#45;&gt;Node4 -->
<g id="edge3_Node000003_Node000004" class="edge">
<title>Node3&#45;&gt;Node4</title>
<g id="a_edge3_Node000003_Node000004"><a xlink:title=" ">
<path fill="none" stroke="#63b8ff" d="M122.66,-29C114.53,-29 106.43,-29 98.74,-29"/>
<polygon fill="#63b8ff" stroke="#63b8ff" points="122.61,-32.5 132.61,-29 122.61,-25.5 122.61,-32.5"/>
</a>
</g>
</g>
<!-- Node5&#45;&gt;Node3 -->
<g id="edge5_Node000005_Node000003" class="edge">
<title>Node5&#45;&gt;Node3</title>
<g id="a_edge5_Node000005_Node000003"><a xlink:title=" ">
<path fill="none" stroke="#63b8ff" d="M296.43,-18.21C285.64,-19.42 274.6,-20.66 264.02,-21.84"/>
<polygon fill="#63b8ff" stroke="#63b8ff" points="296.5,-21.73 306.05,-17.14 295.72,-14.77 296.5,-21.73"/>
</a>
</g>
</g>
</g>
</svg>
