<?xml version="1.0" encoding="UTF-8" standalone="no"?>
<!DOCTYPE svg PUBLIC "-//W3C//DTD SVG 1.1//EN"
 "http://www.w3.org/Graphics/SVG/1.1/DTD/svg11.dtd">
<!-- Generated by graphviz version 12.2.1 (20241206.2353)
 -->
<!-- Title: domini.scrabble.Partida.reomplirFitxesJugador Pages: 1 -->
<svg width="364pt" height="90pt"
 viewBox="0.00 0.00 364.00 90.00" xmlns="http://www.w3.org/2000/svg" xmlns:xlink="http://www.w3.org/1999/xlink">
<g id="graph0" class="graph" transform="scale(1 1) rotate(0) translate(4 86)">
<title>domini.scrabble.Partida.reomplirFitxesJugador</title>
<!-- Node1 -->
<g id="Node000001" class="node">
<title>Node1</title>
<g id="a_Node000001"><a xlink:title="Reomple les fitxes d&#39;un jugador fins al màxim permès.">
<polygon fill="#999999" stroke="#666666" points="356,-57 200.5,-57 200.5,-25 356,-25 356,-57"/>
<text text-anchor="start" x="208.5" y="-43.5" font-family="Helvetica,sans-Serif" font-size="10.00">domini.scrabble.Partida.reomplir</text>
<text text-anchor="middle" x="278.25" y="-31.5" font-family="Helvetica,sans-Serif" font-size="10.00">FitxesJugador</text>
</a>
</g>
</g>
<!-- Node2 -->
<g id="Node000002" class="node">
<title>Node2</title>
<g id="a_Node000002"><a xlink:href="classdomini_1_1scrabble_1_1_partida.html#a86e61fd71ee980fd43e1b4f788dfc6ae" target="_top" xlink:title="Permet que la màquina faci una jugada.">
<polygon fill="white" stroke="#666666" points="148.38,-82 16.12,-82 16.12,-50 148.38,-50 148.38,-82"/>
<text text-anchor="start" x="24.12" y="-68.5" font-family="Helvetica,sans-Serif" font-size="10.00">domini.scrabble.Partida.fer</text>
<text text-anchor="middle" x="82.25" y="-56.5" font-family="Helvetica,sans-Serif" font-size="10.00">JugadaMaquina</text>
</a>
</g>
</g>
<!-- Node1&#45;&gt;Node2 -->
<g id="edge1_Node000001_Node000002" class="edge">
<title>Node1&#45;&gt;Node2</title>
<g id="a_edge1_Node000001_Node000002"><a xlink:title=" ">
<path fill="none" stroke="#63b8ff" d="M188.76,-52.4C175.26,-54.14 161.54,-55.91 148.66,-57.57"/>
<polygon fill="#63b8ff" stroke="#63b8ff" points="189.05,-55.9 198.52,-51.15 188.15,-48.95 189.05,-55.9"/>
</a>
</g>
</g>
<!-- Node3 -->
<g id="Node000003" class="node">
<title>Node3</title>
<g id="a_Node000003"><a xlink:href="classdomini_1_1scrabble_1_1_partida.html#a039d5724618f54fc293f4035422596c2" target="_top" xlink:title="Assigna fitxes inicials als jugadors.">
<polygon fill="white" stroke="#666666" points="164.5,-32 0,-32 0,0 164.5,0 164.5,-32"/>
<text text-anchor="start" x="8" y="-18.5" font-family="Helvetica,sans-Serif" font-size="10.00">domini.scrabble.Partida.inicialitzar</text>
<text text-anchor="middle" x="82.25" y="-6.5" font-family="Helvetica,sans-Serif" font-size="10.00">Jugadors</text>
</a>
</g>
</g>
<!-- Node1&#45;&gt;Node3 -->
<g id="edge2_Node000001_Node000003" class="edge">
<title>Node1&#45;&gt;Node3</title>
<g id="a_edge2_Node000001_Node000003"><a xlink:title=" ">
<path fill="none" stroke="#63b8ff" d="M188.85,-29.61C180.9,-28.58 172.88,-27.55 164.99,-26.53"/>
<polygon fill="#63b8ff" stroke="#63b8ff" points="188.15,-33.05 198.52,-30.85 189.05,-26.1 188.15,-33.05"/>
</a>
</g>
</g>
</g>
</svg>
