<?xml version="1.0" encoding="UTF-8" standalone="no"?>
<!DOCTYPE svg PUBLIC "-//W3C//DTD SVG 1.1//EN"
 "http://www.w3.org/Graphics/SVG/1.1/DTD/svg11.dtd">
<!-- Generated by graphviz version 12.2.1 (20241206.2353)
 -->
<!-- Title: domini.scrabble.EstatFinalitzada Pages: 1 -->
<svg width="158pt" height="292pt"
 viewBox="0.00 0.00 157.75 292.00" xmlns="http://www.w3.org/2000/svg" xmlns:xlink="http://www.w3.org/1999/xlink">

<svg id="main" version="1.1" xmlns="http://www.w3.org/2000/svg" xmlns:xlink="http://www.w3.org/1999/xlink" xml:space="preserve">

<style type="text/css"><![CDATA[
.node, .edge {opacity: 0.7;}
.node.selected, .edge.selected {opacity: 1;}
.edge:hover path { stroke: red; }
.edge:hover polygon { stroke: red; fill: red; }
]]></style>
<script type="application/ecmascript" xlink:href="svg.min.js"/>
<svg id="graph" class="graph">
<g id="graph0" class="graph" transform="scale(1 1) rotate(0) translate(4 288)">
<title>domini.scrabble.EstatFinalitzada</title>
<!-- Node1 -->
<g id="Node000001" class="node">
<title>Node1</title>
<g id="a_Node000001"><a xlink:title="Representa l&#39;estat &#39;Finalitzada&#39; d&#39;una partida.">
<polygon fill="#999999" stroke="none" points="149.75,-116 0,-116 0,0 149.75,0 149.75,-116"/>
<text text-anchor="start" x="4" y="-102.5" font-family="Helvetica,sans-Serif" font-size="10.00">domini.scrabble.EstatFinalitzada</text>
<text text-anchor="start" x="73.38" y="-86.5" font-family="Helvetica,sans-Serif" font-size="10.00"> </text>
<text text-anchor="start" x="17.81" y="-70.5" font-family="Helvetica,sans-Serif" font-size="10.00">+</text>
<text text-anchor="start" x="41.62" y="-70.5" font-family="Helvetica,sans-Serif" font-size="10.00">EstatFinalitzada()</text>
<text text-anchor="start" x="17.81" y="-54.5" font-family="Helvetica,sans-Serif" font-size="10.00">+</text>
<text text-anchor="start" x="41.62" y="-54.5" font-family="Helvetica,sans-Serif" font-size="10.00">iniciar()</text>
<text text-anchor="start" x="17.81" y="-38.5" font-family="Helvetica,sans-Serif" font-size="10.00">+</text>
<text text-anchor="start" x="41.62" y="-38.5" font-family="Helvetica,sans-Serif" font-size="10.00">pausar()</text>
<text text-anchor="start" x="17.81" y="-22.5" font-family="Helvetica,sans-Serif" font-size="10.00">+</text>
<text text-anchor="start" x="41.62" y="-22.5" font-family="Helvetica,sans-Serif" font-size="10.00">encurs()</text>
<text text-anchor="start" x="17.81" y="-6.5" font-family="Helvetica,sans-Serif" font-size="10.00">+</text>
<text text-anchor="start" x="41.62" y="-6.5" font-family="Helvetica,sans-Serif" font-size="10.00">finalitzar()</text>
<polygon fill="#666666" stroke="#666666" points="0,-98 0,-98 149.75,-98 149.75,-98 0,-98"/>
<polygon fill="#666666" stroke="#666666" points="0,-82 0,-82 149.75,-82 149.75,-82 0,-82"/>
<polygon fill="none" stroke="#666666" points="0,0 0,-116 149.75,-116 149.75,0 0,0"/>
</a>
</g>
</g>
<!-- Node2 -->
<g id="Node000002" class="node">
<title>Node2</title>
<g id="a_Node000002"><a xlink:href="classdomini_1_1scrabble_1_1_estat.html" target="_top" xlink:title="Classe abstracta que defineix el comportament genèric per als diferents estats d&#39;una partida.">
<polygon fill="white" stroke="none" points="126.12,-284 23.62,-284 23.62,-152 126.12,-152 126.12,-284"/>
<text text-anchor="start" x="27.62" y="-270.5" font-family="Helvetica,sans-Serif" font-size="10.00">domini.scrabble.Estat</text>
<text text-anchor="start" x="36.56" y="-254.5" font-family="Helvetica,sans-Serif" font-size="10.00">#</text>
<text text-anchor="start" x="54.75" y="-254.5" font-family="Helvetica,sans-Serif" font-size="10.00">partida</text>
<text text-anchor="start" x="36.19" y="-238.5" font-family="Helvetica,sans-Serif" font-size="10.00">+</text>
<text text-anchor="start" x="54.75" y="-238.5" font-family="Helvetica,sans-Serif" font-size="10.00">Estat()</text>
<text text-anchor="start" x="36.19" y="-222.5" font-family="Helvetica,sans-Serif" font-size="10.00">+</text>
<text text-anchor="start" x="54.75" y="-222.5" font-family="Helvetica,sans-Serif" font-size="10.00">setPartida()</text>
<text text-anchor="start" x="36.19" y="-206.5" font-family="Helvetica,sans-Serif" font-size="10.00">+</text>
<text text-anchor="start" x="54.75" y="-206.5" font-family="Helvetica,sans-Serif" font-size="10.00">iniciar()</text>
<text text-anchor="start" x="36.19" y="-190.5" font-family="Helvetica,sans-Serif" font-size="10.00">+</text>
<text text-anchor="start" x="54.75" y="-190.5" font-family="Helvetica,sans-Serif" font-size="10.00">encurs()</text>
<text text-anchor="start" x="36.19" y="-174.5" font-family="Helvetica,sans-Serif" font-size="10.00">+</text>
<text text-anchor="start" x="54.75" y="-174.5" font-family="Helvetica,sans-Serif" font-size="10.00">pausar()</text>
<text text-anchor="start" x="36.19" y="-158.5" font-family="Helvetica,sans-Serif" font-size="10.00">+</text>
<text text-anchor="start" x="54.75" y="-158.5" font-family="Helvetica,sans-Serif" font-size="10.00">finalitzar()</text>
<polygon fill="#666666" stroke="#666666" points="23.62,-266 23.62,-266 126.12,-266 126.12,-266 23.62,-266"/>
<polygon fill="#666666" stroke="#666666" points="23.62,-250 23.62,-250 52.75,-250 52.75,-250 23.62,-250"/>
<polygon fill="#666666" stroke="#666666" points="52.75,-250 52.75,-250 126.12,-250 126.12,-250 52.75,-250"/>
<polygon fill="none" stroke="#666666" points="23.62,-152 23.62,-284 126.12,-284 126.12,-152 23.62,-152"/>
</a>
</g>
</g>
<!-- Node2&#45;&gt;Node1 -->
<g id="edge1_Node000001_Node000002" class="edge">
<title>Node2&#45;&gt;Node1</title>
<g id="a_edge1_Node000001_Node000002"><a xlink:title=" ">
<path fill="none" stroke="#63b8ff" d="M74.88,-140.84C74.88,-132.4 74.88,-123.91 74.88,-115.77"/>
<polygon fill="none" stroke="#63b8ff" points="71.38,-140.77 74.88,-150.77 78.38,-140.77 71.38,-140.77"/>
</a>
</g>
</g>
</g>
</svg>
</svg>

<style type='text/css'>
<![CDATA[
[data-mouse-over-selected='false'] { opacity: 0.7; }
[data-mouse-over-selected='true']  { opacity: 1.0; }
]]>
</style>
<script type="application/ecmascript"><![CDATA[
document.addEventListener('DOMContentLoaded', (event) => {
  highlightEdges();
  highlightAdjacentNodes();
});
]]></script>
</svg>
