<?xml version="1.0" encoding="UTF-8" standalone="no"?>
<!DOCTYPE svg PUBLIC "-//W3C//DTD SVG 1.1//EN"
 "http://www.w3.org/Graphics/SVG/1.1/DTD/svg11.dtd">
<!-- Generated by graphviz version 12.2.1 (20241206.2353)
 -->
<!-- Title: domini.auxiliars.Pair&lt; T, U &gt; Pages: 1 -->
<svg width="104pt" height="168pt"
 viewBox="0.00 0.00 103.75 168.00" xmlns="http://www.w3.org/2000/svg" xmlns:xlink="http://www.w3.org/1999/xlink">
<g id="graph0" class="graph" transform="scale(1 1) rotate(0) translate(4 164)">
<title>domini.auxiliars.Pair&lt; T, U &gt;</title>
<!-- Node1 -->
<g id="Node000001" class="node">
<title>Node1</title>
<g id="a_Node000001"><a xlink:title="Representa una parella de valors (first, second).">
<polygon fill="#999999" stroke="none" points="95.75,-160 0,-160 0,0 95.75,0 95.75,-160"/>
<text text-anchor="start" x="4" y="-146.5" font-family="Helvetica,sans-Serif" font-size="10.00">domini.auxiliars.Pair</text>
<text text-anchor="start" x="29.88" y="-134.5" font-family="Helvetica,sans-Serif" font-size="10.00">&lt; T, U &gt;</text>
<text text-anchor="start" x="11.81" y="-118.5" font-family="Helvetica,sans-Serif" font-size="10.00">&#45;</text>
<text text-anchor="start" x="26.62" y="-118.5" font-family="Helvetica,sans-Serif" font-size="10.00">first</text>
<text text-anchor="start" x="11.81" y="-102.5" font-family="Helvetica,sans-Serif" font-size="10.00">&#45;</text>
<text text-anchor="start" x="26.62" y="-102.5" font-family="Helvetica,sans-Serif" font-size="10.00">second</text>
<text text-anchor="start" x="10.31" y="-86.5" font-family="Helvetica,sans-Serif" font-size="10.00">+</text>
<text text-anchor="start" x="26.62" y="-86.5" font-family="Helvetica,sans-Serif" font-size="10.00">Pair()</text>
<text text-anchor="start" x="10.31" y="-70.5" font-family="Helvetica,sans-Serif" font-size="10.00">+</text>
<text text-anchor="start" x="26.62" y="-70.5" font-family="Helvetica,sans-Serif" font-size="10.00">Pair()</text>
<text text-anchor="start" x="10.31" y="-54.5" font-family="Helvetica,sans-Serif" font-size="10.00">+</text>
<text text-anchor="start" x="26.62" y="-54.5" font-family="Helvetica,sans-Serif" font-size="10.00">getFirst()</text>
<text text-anchor="start" x="10.31" y="-38.5" font-family="Helvetica,sans-Serif" font-size="10.00">+</text>
<text text-anchor="start" x="26.62" y="-38.5" font-family="Helvetica,sans-Serif" font-size="10.00">getSecond()</text>
<text text-anchor="start" x="10.31" y="-22.5" font-family="Helvetica,sans-Serif" font-size="10.00">+</text>
<text text-anchor="start" x="26.62" y="-22.5" font-family="Helvetica,sans-Serif" font-size="10.00">equals()</text>
<text text-anchor="start" x="10.31" y="-6.5" font-family="Helvetica,sans-Serif" font-size="10.00">+</text>
<text text-anchor="start" x="26.62" y="-6.5" font-family="Helvetica,sans-Serif" font-size="10.00">toString()</text>
<polygon fill="#666666" stroke="#666666" points="0,-130 0,-130 95.75,-130 95.75,-130 0,-130"/>
<polygon fill="#666666" stroke="#666666" points="0,-98 0,-98 24.62,-98 24.62,-98 0,-98"/>
<polygon fill="#666666" stroke="#666666" points="24.62,-98 24.62,-98 95.75,-98 95.75,-98 24.62,-98"/>
<polygon fill="none" stroke="#666666" points="0,0 0,-160 95.75,-160 95.75,0 0,0"/>
</a>
</g>
</g>
</g>
</svg>
