<?xml version="1.0" encoding="UTF-8" standalone="no"?>
<!DOCTYPE svg PUBLIC "-//W3C//DTD SVG 1.1//EN"
 "http://www.w3.org/Graphics/SVG/1.1/DTD/svg11.dtd">
<!-- Generated by graphviz version 12.2.1 (20241206.2353)
 -->
<!-- Title: domini.scrabble.Partida.getJugadorActual Pages: 1 -->
<svg width="1233pt" height="490pt"
 viewBox="0.00 0.00 1233.00 489.82" xmlns="http://www.w3.org/2000/svg" xmlns:xlink="http://www.w3.org/1999/xlink">
<g id="graph0" class="graph" transform="scale(1 1) rotate(0) translate(4 485.82)">
<title>domini.scrabble.Partida.getJugadorActual</title>
<!-- Node1 -->
<g id="Node000001" class="node">
<title>Node1</title>
<g id="a_Node000001"><a xlink:title="Obté el jugador que està jugant el torn.">
<polygon fill="#999999" stroke="#666666" points="1225,-343.82 1090.5,-343.82 1090.5,-311.82 1225,-311.82 1225,-343.82"/>
<text text-anchor="start" x="1098.5" y="-330.32" font-family="Helvetica,sans-Serif" font-size="10.00">domini.scrabble.Partida.get</text>
<text text-anchor="middle" x="1157.75" y="-318.32" font-family="Helvetica,sans-Serif" font-size="10.00">JugadorActual</text>
</a>
</g>
</g>
<!-- Node2 -->
<g id="Node000002" class="node">
<title>Node2</title>
<g id="a_Node000002"><a xlink:href="classdomini_1_1scrabble_1_1_partida.html#a6ccabc3836d6c8c400042b24b077c064" target="_top" xlink:title="Incrementa la puntuació del jugador actual.">
<polygon fill="white" stroke="#666666" points="1039.88,-481.82 894.88,-481.82 894.88,-449.82 1039.88,-449.82 1039.88,-481.82"/>
<text text-anchor="start" x="902.88" y="-468.32" font-family="Helvetica,sans-Serif" font-size="10.00">domini.scrabble.Partida.afegir</text>
<text text-anchor="middle" x="967.38" y="-456.32" font-family="Helvetica,sans-Serif" font-size="10.00">PuntsJugadorActual</text>
</a>
</g>
</g>
<!-- Node1&#45;&gt;Node2 -->
<g id="edge1_Node000001_Node000002" class="edge">
<title>Node1&#45;&gt;Node2</title>
<g id="a_edge1_Node000001_Node000002"><a xlink:title=" ">
<path fill="none" stroke="#63b8ff" d="M1138.65,-353.02C1120.03,-377.3 1088.96,-413.54 1054.5,-435.82 1046.26,-441.15 1036.95,-445.65 1027.59,-449.43"/>
<polygon fill="#63b8ff" stroke="#63b8ff" points="1141.28,-355.36 1144.48,-345.26 1135.68,-351.16 1141.28,-355.36"/>
</a>
</g>
</g>
<!-- Node3 -->
<g id="Node000003" class="node">
<title>Node3</title>
<g id="a_Node000003"><a xlink:href="classcontroladors_1_1_ctrl_presentacio.html#a7420312f0b6f73606984a5329267a4ce" target="_top" xlink:title="Canvia a la vista de canvi de torn entre jugadors.">
<polygon fill="white" stroke="#666666" points="1054.5,-343.82 880.25,-343.82 880.25,-311.82 1054.5,-311.82 1054.5,-343.82"/>
<text text-anchor="start" x="888.25" y="-330.32" font-family="Helvetica,sans-Serif" font-size="10.00">controladors.CtrlPresentacio.canviar</text>
<text text-anchor="middle" x="967.38" y="-318.32" font-family="Helvetica,sans-Serif" font-size="10.00">CanviTorn</text>
</a>
</g>
</g>
<!-- Node1&#45;&gt;Node3 -->
<g id="edge2_Node000001_Node000003" class="edge">
<title>Node1&#45;&gt;Node3</title>
<g id="a_edge2_Node000001_Node000003"><a xlink:title=" ">
<path fill="none" stroke="#63b8ff" d="M1078.65,-327.82C1070.77,-327.82 1062.73,-327.82 1054.76,-327.82"/>
<polygon fill="#63b8ff" stroke="#63b8ff" points="1078.56,-331.32 1088.56,-327.82 1078.56,-324.32 1078.56,-331.32"/>
</a>
</g>
</g>
<!-- Node4 -->
<g id="Node000004" class="node">
<title>Node4</title>
<g id="a_Node000004"><a xlink:href="classinterficie_1_1_vista_partida.html#a7855e7a9cc41e1450c37054781ba6309" target="_top" xlink:title="Inicialitza els components de la interfície gràfica.">
<polygon fill="white" stroke="#666666" points="844.25,-287.82 709,-287.82 709,-267.82 844.25,-267.82 844.25,-287.82"/>
<text text-anchor="middle" x="776.62" y="-274.32" font-family="Helvetica,sans-Serif" font-size="10.00">interficie.VistaPartida.initUI</text>
</a>
</g>
</g>
<!-- Node1&#45;&gt;Node4 -->
<g id="edge22_Node000001_Node000004" class="edge">
<title>Node1&#45;&gt;Node4</title>
<g id="a_edge22_Node000001_Node000004"><a xlink:title=" ">
<path fill="none" stroke="#63b8ff" d="M1085.01,-308.84C1074.82,-306.57 1064.43,-304.47 1054.5,-302.82 983.32,-290.97 900.85,-284.43 844.56,-281.05"/>
<polygon fill="#63b8ff" stroke="#63b8ff" points="1083.96,-312.19 1094.49,-311.03 1085.53,-305.37 1083.96,-312.19"/>
</a>
</g>
</g>
<!-- Node7 -->
<g id="Node000007" class="node">
<title>Node7</title>
<g id="a_Node000007"><a xlink:href="classinterficie_1_1_vista_partida.html#a0698d192124492ebfd8a3b029a6fa23c" target="_top" xlink:title="Actualitza els racks dels jugadors.">
<polygon fill="white" stroke="#666666" points="336.5,-213.82 186.25,-213.82 186.25,-181.82 336.5,-181.82 336.5,-213.82"/>
<text text-anchor="start" x="194.25" y="-200.32" font-family="Helvetica,sans-Serif" font-size="10.00">interficie.VistaPartida.refrescar</text>
<text text-anchor="middle" x="261.38" y="-188.32" font-family="Helvetica,sans-Serif" font-size="10.00">RackJugadors</text>
</a>
</g>
</g>
<!-- Node1&#45;&gt;Node7 -->
<g id="edge28_Node000001_Node000007" class="edge">
<title>Node1&#45;&gt;Node7</title>
<g id="a_edge28_Node000001_Node000007"><a xlink:title=" ">
<path fill="none" stroke="#63b8ff" d="M1083.84,-346.85C1074.02,-349.06 1064.04,-351.12 1054.5,-352.82 932.58,-374.45 901.45,-383.82 777.62,-383.82 777.62,-383.82 777.62,-383.82 616,-383.82 503.52,-383.82 468.64,-373.22 372.5,-314.82 328.63,-288.17 290.93,-239.38 273.2,-214.05"/>
<polygon fill="#63b8ff" stroke="#63b8ff" points="1084.41,-350.31 1093.36,-344.64 1082.83,-343.49 1084.41,-350.31"/>
</a>
</g>
</g>
<!-- Node8 -->
<g id="Node000008" class="node">
<title>Node8</title>
<g id="a_Node000008"><a xlink:href="classinterficie_1_1_vista_partida.html#a485041b781e81c64fb5414207ff21d2a" target="_top" xlink:title="Actualitza la informació de la partida.">
<polygon fill="white" stroke="#666666" points="150.25,-197.82 0,-197.82 0,-165.82 150.25,-165.82 150.25,-197.82"/>
<text text-anchor="start" x="8" y="-184.32" font-family="Helvetica,sans-Serif" font-size="10.00">interficie.VistaPartida.refrescar</text>
<text text-anchor="middle" x="75.12" y="-172.32" font-family="Helvetica,sans-Serif" font-size="10.00">Informacio</text>
</a>
</g>
</g>
<!-- Node1&#45;&gt;Node8 -->
<g id="edge23_Node000001_Node000008" class="edge">
<title>Node1&#45;&gt;Node8</title>
<g id="a_edge23_Node000001_Node000008"><a xlink:title=" ">
<path fill="none" stroke="#63b8ff" d="M1121.14,-349.99C1102.05,-360.91 1077.72,-373.31 1054.5,-380.82 936.13,-419.07 902.02,-421.82 777.62,-421.82 777.62,-421.82 777.62,-421.82 447.75,-421.82 282.62,-421.82 132.74,-252.53 88.96,-198.31"/>
<polygon fill="#63b8ff" stroke="#63b8ff" points="1122.72,-353.12 1129.59,-345.05 1119.19,-347.08 1122.72,-353.12"/>
</a>
</g>
</g>
<!-- Node12 -->
<g id="Node000012" class="node">
<title>Node12</title>
<g id="a_Node000012"><a xlink:href="classdomini_1_1scrabble_1_1_partida.html#a2cfb2a0e022254c8d75b439f3a9589d7" target="_top" xlink:title="Retorna la llista de fitxes actuals del jugador que té el torn.">
<polygon fill="white" stroke="#666666" points="1034.62,-217.82 900.12,-217.82 900.12,-185.82 1034.62,-185.82 1034.62,-217.82"/>
<text text-anchor="start" x="908.12" y="-204.32" font-family="Helvetica,sans-Serif" font-size="10.00">domini.scrabble.Partida.get</text>
<text text-anchor="middle" x="967.38" y="-192.32" font-family="Helvetica,sans-Serif" font-size="10.00">FitxesActuals</text>
</a>
</g>
</g>
<!-- Node1&#45;&gt;Node12 -->
<g id="edge21_Node000001_Node000012" class="edge">
<title>Node1&#45;&gt;Node12</title>
<g id="a_edge21_Node000001_Node000012"><a xlink:title=" ">
<path fill="none" stroke="#63b8ff" d="M1137.66,-302.84C1118.87,-279.91 1088.16,-246.58 1054.5,-226.82 1048.32,-223.19 1041.59,-220.06 1034.69,-217.36"/>
<polygon fill="#63b8ff" stroke="#63b8ff" points="1134.8,-304.86 1143.78,-310.48 1140.26,-300.49 1134.8,-304.86"/>
</a>
</g>
</g>
<!-- Node13 -->
<g id="Node000013" class="node">
<title>Node13</title>
<g id="a_Node000013"><a xlink:href="classinterficie_1_1_vista_partida.html#a338cec676072419cb1cdf74a8c57ece5" target="_top" xlink:title="Actualitza la visualització del rack del jugador actual.">
<polygon fill="white" stroke="#666666" points="1054.12,-255.82 880.62,-255.82 880.62,-235.82 1054.12,-235.82 1054.12,-255.82"/>
<text text-anchor="middle" x="967.38" y="-242.32" font-family="Helvetica,sans-Serif" font-size="10.00">interficie.VistaPartida.refrescarRack</text>
</a>
</g>
</g>
<!-- Node1&#45;&gt;Node13 -->
<g id="edge24_Node000001_Node000013" class="edge">
<title>Node1&#45;&gt;Node13</title>
<g id="a_edge24_Node000001_Node000013"><a xlink:title=" ">
<path fill="none" stroke="#63b8ff" d="M1122.42,-305.54C1103.06,-293.7 1078.09,-279.62 1054.5,-269.82 1041.6,-264.45 1027.13,-259.9 1013.78,-256.24"/>
<polygon fill="#63b8ff" stroke="#63b8ff" points="1120.37,-308.38 1130.71,-310.69 1124.06,-302.44 1120.37,-308.38"/>
</a>
</g>
</g>
<!-- Node3&#45;&gt;Node4 -->
<g id="edge3_Node000003_Node000004" class="edge">
<title>Node3&#45;&gt;Node4</title>
<g id="a_edge3_Node000003_Node000004"><a xlink:title=" ">
<path fill="none" stroke="#63b8ff" d="M893.36,-308.48C867.44,-301.61 839.25,-294.14 817.18,-288.29"/>
<polygon fill="#63b8ff" stroke="#63b8ff" points="892.28,-311.81 902.85,-310.99 894.08,-305.04 892.28,-311.81"/>
</a>
</g>
</g>
<!-- Node5 -->
<g id="Node000005" class="node">
<title>Node5</title>
<g id="a_Node000005"><a xlink:href="classinterficie_1_1_vista_partida.html#abce8626a6a3750affe851e1f8bea2cb3" target="_top" xlink:title="Constructor de la classe VistaPartida.">
<polygon fill="white" stroke="#666666" points="673,-223.82 561,-223.82 561,-191.82 673,-191.82 673,-223.82"/>
<text text-anchor="start" x="569" y="-210.32" font-family="Helvetica,sans-Serif" font-size="10.00">interficie.VistaPartida.</text>
<text text-anchor="middle" x="617" y="-198.32" font-family="Helvetica,sans-Serif" font-size="10.00">VistaPartida</text>
</a>
</g>
</g>
<!-- Node4&#45;&gt;Node5 -->
<g id="edge4_Node000004_Node000005" class="edge">
<title>Node4&#45;&gt;Node5</title>
<g id="a_edge4_Node000004_Node000005"><a xlink:title=" ">
<path fill="none" stroke="#63b8ff" d="M751.34,-261.99C729.57,-250.65 696.92,-235.7 669.38,-224.26"/>
<polygon fill="#63b8ff" stroke="#63b8ff" points="749.56,-265.01 760.03,-266.68 752.89,-258.85 749.56,-265.01"/>
</a>
</g>
</g>
<!-- Node5&#45;&gt;Node4 -->
<g id="edge19_Node000005_Node000004" class="edge">
<title>Node5&#45;&gt;Node4</title>
<g id="a_edge19_Node000005_Node000004"><a xlink:title=" ">
<path fill="none" stroke="#63b8ff" d="M653.54,-229.35C679.05,-242 713.33,-257.23 739.07,-267.38"/>
<polygon fill="#63b8ff" stroke="#63b8ff" points="655.4,-226.37 644.89,-224.97 652.24,-232.61 655.4,-226.37"/>
</a>
</g>
</g>
<!-- Node5&#45;&gt;Node5 -->
<g id="edge20_Node000005_Node000005" class="edge">
<title>Node5&#45;&gt;Node5</title>
<g id="a_edge20_Node000005_Node000005"><a xlink:title=" ">
<path fill="none" stroke="#63b8ff" d="M643.6,-235.52C639.17,-239.3 630.3,-241.82 617,-241.82 592.68,-241.82 583.18,-233.4 588.5,-224.26"/>
<polygon fill="#63b8ff" stroke="#63b8ff" points="647.04,-236.19 645.25,-225.75 640.13,-235.03 647.04,-236.19"/>
</a>
</g>
</g>
<!-- Node6 -->
<g id="Node000006" class="node">
<title>Node6</title>
<g id="a_Node000006"><a xlink:href="classinterficie_1_1_vista_partida.html#a6bd7550fc714ba5195c8b55ffe3d973c" target="_top" xlink:title="Afegeix les fitxes d&#39;un jugador al seu rack.">
<polygon fill="white" stroke="#666666" points="516.75,-229.82 380.75,-229.82 380.75,-197.82 516.75,-197.82 516.75,-229.82"/>
<text text-anchor="start" x="388.75" y="-216.32" font-family="Helvetica,sans-Serif" font-size="10.00">interficie.VistaPartida.afegir</text>
<text text-anchor="middle" x="448.75" y="-204.32" font-family="Helvetica,sans-Serif" font-size="10.00">FitxesARack</text>
</a>
</g>
</g>
<!-- Node5&#45;&gt;Node6 -->
<g id="edge5_Node000005_Node000006" class="edge">
<title>Node5&#45;&gt;Node6</title>
<g id="a_edge5_Node000005_Node000006"><a xlink:title=" ">
<path fill="none" stroke="#63b8ff" d="M549.29,-210.22C538.65,-210.61 527.65,-211 517,-211.39"/>
<polygon fill="#63b8ff" stroke="#63b8ff" points="549.26,-213.73 559.13,-209.87 549.01,-206.73 549.26,-213.73"/>
</a>
</g>
</g>
<!-- Node9 -->
<g id="Node000009" class="node">
<title>Node9</title>
<g id="a_Node000009"><a xlink:href="classinterficie_1_1_vista_partida.html#ae6809bc2e7efc03077c111367571f788" target="_top" xlink:title="Afegeix maquetes al rack de l&#39;oponent.">
<polygon fill="white" stroke="#666666" points="516.75,-141.82 380.75,-141.82 380.75,-109.82 516.75,-109.82 516.75,-141.82"/>
<text text-anchor="start" x="388.75" y="-128.32" font-family="Helvetica,sans-Serif" font-size="10.00">interficie.VistaPartida.afegir</text>
<text text-anchor="middle" x="448.75" y="-116.32" font-family="Helvetica,sans-Serif" font-size="10.00">MaquetesARack</text>
</a>
</g>
</g>
<!-- Node5&#45;&gt;Node9 -->
<g id="edge13_Node000005_Node000009" class="edge">
<title>Node5&#45;&gt;Node9</title>
<g id="a_edge13_Node000005_Node000009"><a xlink:title=" ">
<path fill="none" stroke="#63b8ff" d="M579.71,-185.53C563.29,-175.85 543.46,-164.72 525,-155.82 515.12,-151.05 504.27,-146.41 493.97,-142.25"/>
<polygon fill="#63b8ff" stroke="#63b8ff" points="577.77,-188.45 588.15,-190.56 581.36,-182.43 577.77,-188.45"/>
</a>
</g>
</g>
<!-- Node10 -->
<g id="Node000010" class="node">
<title>Node10</title>
<g id="a_Node000010"><a xlink:href="classinterficie_1_1_vista_partida.html#a8ebc9da2a2b927ba87ed97ad85ae44e8" target="_top" xlink:title="Confirma l&#39;acció de guardar la partida.">
<polygon fill="white" stroke="#666666" points="525,-279.82 372.5,-279.82 372.5,-247.82 525,-247.82 525,-279.82"/>
<text text-anchor="start" x="380.5" y="-266.32" font-family="Helvetica,sans-Serif" font-size="10.00">interficie.VistaPartida.confirmar</text>
<text text-anchor="middle" x="448.75" y="-254.32" font-family="Helvetica,sans-Serif" font-size="10.00">Guardar</text>
</a>
</g>
</g>
<!-- Node5&#45;&gt;Node10 -->
<g id="edge15_Node000005_Node000010" class="edge">
<title>Node5&#45;&gt;Node10</title>
<g id="a_edge15_Node000005_Node000010"><a xlink:title=" ">
<path fill="none" stroke="#63b8ff" d="M557.28,-227.89C546.55,-231.54 535.44,-235.3 525,-238.82 516.78,-241.58 508.05,-244.5 499.55,-247.33"/>
<polygon fill="#63b8ff" stroke="#63b8ff" points="558.08,-231.32 566.42,-224.78 555.82,-224.69 558.08,-231.32"/>
</a>
</g>
</g>
<!-- Node11 -->
<g id="Node000011" class="node">
<title>Node11</title>
<g id="a_Node000011"><a xlink:href="classinterficie_1_1_vista_partida.html#ab47b596fbbd6a79289d4b9d7f5b5e068" target="_top" xlink:title="Crea un panell amb la informació d&#39;un jugador.">
<polygon fill="white" stroke="#666666" points="328.25,-134.82 194.5,-134.82 194.5,-102.82 328.25,-102.82 328.25,-134.82"/>
<text text-anchor="start" x="202.5" y="-121.32" font-family="Helvetica,sans-Serif" font-size="10.00">interficie.VistaPartida.crear</text>
<text text-anchor="middle" x="261.38" y="-109.32" font-family="Helvetica,sans-Serif" font-size="10.00">PanelJugador</text>
</a>
</g>
</g>
<!-- Node5&#45;&gt;Node11 -->
<g id="edge17_Node000005_Node000011" class="edge">
<title>Node5&#45;&gt;Node11</title>
<g id="a_edge17_Node000005_Node000011"><a xlink:title=" ">
<path fill="none" stroke="#63b8ff" d="M602.63,-181.7C587.68,-155.7 560.8,-117.36 525,-100.82 455.52,-68.69 364.53,-86.31 309.92,-102.33"/>
<polygon fill="#63b8ff" stroke="#63b8ff" points="599.49,-183.26 607.39,-190.33 605.62,-179.88 599.49,-183.26"/>
</a>
</g>
</g>
<!-- Node6&#45;&gt;Node7 -->
<g id="edge6_Node000006_Node000007" class="edge">
<title>Node6&#45;&gt;Node7</title>
<g id="a_edge6_Node000006_Node000007"><a xlink:title=" ">
<path fill="none" stroke="#63b8ff" d="M368.93,-207.01C358.34,-206.1 347.5,-205.16 336.98,-204.26"/>
<polygon fill="#63b8ff" stroke="#63b8ff" points="368.53,-210.49 378.79,-207.86 369.13,-203.52 368.53,-210.49"/>
</a>
</g>
</g>
<!-- Node7&#45;&gt;Node4 -->
<g id="edge7_Node000007_Node000004" class="edge">
<title>Node7&#45;&gt;Node4</title>
<g id="a_edge7_Node000007_Node000004"><a xlink:title=" ">
<path fill="none" stroke="#63b8ff" d="M283.16,-222.81C303.35,-244.96 336.19,-275.76 372.5,-288.82 498.5,-334.14 661.23,-305.6 735.48,-288.27"/>
<polygon fill="#63b8ff" stroke="#63b8ff" points="285.81,-220.53 276.57,-215.35 280.57,-225.16 285.81,-220.53"/>
</a>
</g>
</g>
<!-- Node7&#45;&gt;Node5 -->
<g id="edge12_Node000007_Node000005" class="edge">
<title>Node7&#45;&gt;Node5</title>
<g id="a_edge12_Node000007_Node000005"><a xlink:title=" ">
<path fill="none" stroke="#63b8ff" d="M348.38,-188.95C399.76,-185.12 466.25,-182.75 525,-188.82 536.72,-190.03 549.15,-192.09 560.94,-194.43"/>
<polygon fill="#63b8ff" stroke="#63b8ff" points="348.2,-185.45 338.5,-189.72 348.74,-192.43 348.2,-185.45"/>
</a>
</g>
</g>
<!-- Node7&#45;&gt;Node8 -->
<g id="edge8_Node000007_Node000008" class="edge">
<title>Node7&#45;&gt;Node8</title>
<g id="a_edge8_Node000007_Node000008"><a xlink:title=" ">
<path fill="none" stroke="#63b8ff" d="M174.64,-190.37C166.58,-189.67 158.46,-188.97 150.51,-188.28"/>
<polygon fill="#63b8ff" stroke="#63b8ff" points="174.19,-193.84 184.46,-191.22 174.8,-186.87 174.19,-193.84"/>
</a>
</g>
</g>
<!-- Node8&#45;&gt;Node4 -->
<g id="edge9_Node000008_Node000004" class="edge">
<title>Node8&#45;&gt;Node4</title>
<g id="a_edge9_Node000008_Node000004"><a xlink:title=" ">
<path fill="none" stroke="#63b8ff" d="M112.91,-204.04C167.36,-235.57 273.64,-292 372.5,-314.82 392.91,-319.53 630.77,-329.3 673,-320.82 703.87,-314.61 737.03,-298.87 757.06,-288.26"/>
<polygon fill="#63b8ff" stroke="#63b8ff" points="114.75,-201.06 104.35,-199.03 111.22,-207.1 114.75,-201.06"/>
</a>
</g>
</g>
<!-- Node8&#45;&gt;Node5 -->
<g id="edge11_Node000008_Node000005" class="edge">
<title>Node8&#45;&gt;Node5</title>
<g id="a_edge11_Node000008_Node000005"><a xlink:title=" ">
<path fill="none" stroke="#63b8ff" d="M98.38,-157.21C118.93,-136.32 151.46,-107.6 186.25,-93.82 326.35,-38.3 391.2,-9.46 525,-78.82 571.48,-102.91 599.26,-162.86 610.37,-191.75"/>
<polygon fill="#63b8ff" stroke="#63b8ff" points="96.03,-154.61 91.64,-164.25 101.09,-159.45 96.03,-154.61"/>
</a>
</g>
</g>
<!-- Node8&#45;&gt;Node8 -->
<g id="edge10_Node000008_Node000008" class="edge">
<title>Node8&#45;&gt;Node8</title>
<g id="a_edge10_Node000008_Node000008"><a xlink:title=" ">
<path fill="none" stroke="#63b8ff" d="M106.16,-209.52C100.99,-213.3 90.64,-215.82 75.12,-215.82 46.75,-215.82 35.67,-207.4 41.87,-198.26"/>
<polygon fill="#63b8ff" stroke="#63b8ff" points="109.59,-210.23 108.08,-199.74 102.72,-208.88 109.59,-210.23"/>
</a>
</g>
</g>
<!-- Node9&#45;&gt;Node7 -->
<g id="edge14_Node000009_Node000007" class="edge">
<title>Node9&#45;&gt;Node7</title>
<g id="a_edge14_Node000009_Node000007"><a xlink:title=" ">
<path fill="none" stroke="#63b8ff" d="M395.04,-146.29C366.39,-157.42 331.43,-170.99 304.59,-181.42"/>
<polygon fill="#63b8ff" stroke="#63b8ff" points="396.22,-149.58 404.27,-142.7 393.69,-143.06 396.22,-149.58"/>
</a>
</g>
</g>
<!-- Node10&#45;&gt;Node4 -->
<g id="edge16_Node000010_Node000004" class="edge">
<title>Node10&#45;&gt;Node4</title>
<g id="a_edge16_Node000010_Node000004"><a xlink:title=" ">
<path fill="none" stroke="#63b8ff" d="M536.53,-267.54C590.6,-269.87 659.09,-272.81 708.89,-274.95"/>
<polygon fill="#63b8ff" stroke="#63b8ff" points="536.88,-264.06 526.74,-267.12 536.58,-271.05 536.88,-264.06"/>
</a>
</g>
</g>
<!-- Node11&#45;&gt;Node8 -->
<g id="edge18_Node000011_Node000008" class="edge">
<title>Node11&#45;&gt;Node8</title>
<g id="a_edge18_Node000011_Node000008"><a xlink:title=" ">
<path fill="none" stroke="#63b8ff" d="M201.62,-138.9C176.62,-147.45 147.83,-157.3 124.13,-165.4"/>
<polygon fill="#63b8ff" stroke="#63b8ff" points="202.68,-142.24 211.01,-135.69 200.42,-135.62 202.68,-142.24"/>
</a>
</g>
</g>
<!-- Node13&#45;&gt;Node4 -->
<g id="edge25_Node000013_Node000004" class="edge">
<title>Node13&#45;&gt;Node4</title>
<g id="a_edge25_Node000013_Node000004"><a xlink:title=" ">
<path fill="none" stroke="#63b8ff" d="M893.32,-258.2C875.45,-261.23 856.51,-264.44 839.25,-267.37"/>
<polygon fill="#63b8ff" stroke="#63b8ff" points="893.8,-261.67 903.08,-256.55 892.63,-254.77 893.8,-261.67"/>
</a>
</g>
</g>
<!-- Node13&#45;&gt;Node5 -->
<g id="edge27_Node000013_Node000005" class="edge">
<title>Node13&#45;&gt;Node5</title>
<g id="a_edge27_Node000013_Node000005"><a xlink:title=" ">
<path fill="none" stroke="#63b8ff" d="M869.07,-235.2C805.86,-228.31 725.76,-219.57 673.26,-213.84"/>
<polygon fill="#63b8ff" stroke="#63b8ff" points="868.43,-238.65 878.76,-236.26 869.19,-231.69 868.43,-238.65"/>
</a>
</g>
</g>
<!-- Node13&#45;&gt;Node8 -->
<g id="edge26_Node000013_Node000008" class="edge">
<title>Node13&#45;&gt;Node8</title>
<g id="a_edge26_Node000013_Node000008"><a xlink:title=" ">
<path fill="none" stroke="#63b8ff" d="M891.86,-231.82C887.87,-230.31 883.97,-228.65 880.25,-226.82 743.58,-159.33 770.42,-5.82 618,-5.82 618,-5.82 618,-5.82 447.75,-5.82 330.61,-5.82 287.91,19.39 186.25,-38.82 133.77,-68.87 97.83,-134.88 83.32,-165.56"/>
<polygon fill="#63b8ff" stroke="#63b8ff" points="890.58,-235.08 901.18,-234.95 892.81,-228.44 890.58,-235.08"/>
</a>
</g>
</g>
</g>
</svg>
