<?xml version="1.0" encoding="UTF-8" standalone="no"?>
<!DOCTYPE svg PUBLIC "-//W3C//DTD SVG 1.1//EN"
 "http://www.w3.org/Graphics/SVG/1.1/DTD/svg11.dtd">
<!-- Generated by graphviz version 12.2.1 (20241206.2353)
 -->
<!-- Title: drivers.Driver.corregir_caracters_terminal_windows Pages: 1 -->
<svg width="781pt" height="40pt"
 viewBox="0.00 0.00 781.00 40.00" xmlns="http://www.w3.org/2000/svg" xmlns:xlink="http://www.w3.org/1999/xlink">
<g id="graph0" class="graph" transform="scale(1 1) rotate(0) translate(4 36)">
<title>drivers.Driver.corregir_caracters_terminal_windows</title>
<!-- Node1 -->
<g id="Node000001" class="node">
<title>Node1</title>
<g id="a_Node000001"><a xlink:title="Donat un text entrat per terminal, és possible que el charSet de la consola no reconegui correctament...">
<polygon fill="#999999" stroke="#666666" points="773,-32 628,-32 628,0 773,0 773,-32"/>
<text text-anchor="start" x="636" y="-18.5" font-family="Helvetica,sans-Serif" font-size="10.00">drivers.Driver.corregir</text>
<text text-anchor="middle" x="700.5" y="-6.5" font-family="Helvetica,sans-Serif" font-size="10.00">_caracters_terminal_windows</text>
</a>
</g>
</g>
<!-- Node2 -->
<g id="Node000002" class="node">
<title>Node2</title>
<g id="a_Node000002"><a xlink:href="classdrivers_1_1_driver.html#a0ebb5e3010ea1f086dc4fd28df56ae54" target="_top" xlink:title="Genera una llista amb les lletres i dígrafs del paràmetre.">
<polygon fill="white" stroke="#666666" points="592,-26 477.75,-26 477.75,-6 592,-6 592,-26"/>
<text text-anchor="middle" x="534.88" y="-12.5" font-family="Helvetica,sans-Serif" font-size="10.00">drivers.Driver.tokenize</text>
</a>
</g>
</g>
<!-- Node1&#45;&gt;Node2 -->
<g id="edge1_Node000001_Node000002" class="edge">
<title>Node1&#45;&gt;Node2</title>
<g id="a_edge1_Node000001_Node000002"><a xlink:title=" ">
<path fill="none" stroke="#63b8ff" d="M616.29,-16C608.18,-16 600.09,-16 592.34,-16"/>
<polygon fill="#63b8ff" stroke="#63b8ff" points="616.22,-19.5 626.22,-16 616.22,-12.5 616.22,-19.5"/>
</a>
</g>
</g>
<!-- Node3 -->
<g id="Node000003" class="node">
<title>Node3</title>
<g id="a_Node000003"><a xlink:href="classdrivers_1_1_driver.html#a2e8cde796339c2db37f3e7332bf695ea" target="_top" xlink:title="Col·loca una paraula al taulell.">
<polygon fill="white" stroke="#666666" points="441.75,-26 299.75,-26 299.75,-6 441.75,-6 441.75,-26"/>
<text text-anchor="middle" x="370.75" y="-12.5" font-family="Helvetica,sans-Serif" font-size="10.00">drivers.Driver.colocarParaula</text>
</a>
</g>
</g>
<!-- Node2&#45;&gt;Node3 -->
<g id="edge2_Node000002_Node000003" class="edge">
<title>Node2&#45;&gt;Node3</title>
<g id="a_edge2_Node000002_Node000003"><a xlink:title=" ">
<path fill="none" stroke="#63b8ff" d="M466.17,-16C458.25,-16 450.14,-16 442.18,-16"/>
<polygon fill="#63b8ff" stroke="#63b8ff" points="466.11,-19.5 476.11,-16 466.11,-12.5 466.11,-19.5"/>
</a>
</g>
</g>
<!-- Node4 -->
<g id="Node000004" class="node">
<title>Node4</title>
<g id="a_Node000004"><a xlink:href="classdrivers_1_1_driver.html#a13e38153634507d9ad6e24cb267237b9" target="_top" xlink:title="Juga una partida.">
<polygon fill="white" stroke="#666666" points="263.75,-26 134.5,-26 134.5,-6 263.75,-6 263.75,-26"/>
<text text-anchor="middle" x="199.12" y="-12.5" font-family="Helvetica,sans-Serif" font-size="10.00">drivers.Driver.jugarPartida</text>
</a>
</g>
</g>
<!-- Node3&#45;&gt;Node4 -->
<g id="edge3_Node000003_Node000004" class="edge">
<title>Node3&#45;&gt;Node4</title>
<g id="a_edge3_Node000003_Node000004"><a xlink:title=" ">
<path fill="none" stroke="#63b8ff" d="M288.01,-16C279.99,-16 271.94,-16 264.13,-16"/>
<polygon fill="#63b8ff" stroke="#63b8ff" points="287.77,-19.5 297.77,-16 287.77,-12.5 287.77,-19.5"/>
</a>
</g>
</g>
<!-- Node5 -->
<g id="Node000005" class="node">
<title>Node5</title>
<g id="a_Node000005"><a xlink:href="classdrivers_1_1_driver.html#a3f94ce3595725e82b34c92548e071d04" target="_top" xlink:title="Inici del driver.">
<polygon fill="white" stroke="#666666" points="98.5,-26 0,-26 0,-6 98.5,-6 98.5,-26"/>
<text text-anchor="middle" x="49.25" y="-12.5" font-family="Helvetica,sans-Serif" font-size="10.00">drivers.Driver.main</text>
</a>
</g>
</g>
<!-- Node4&#45;&gt;Node5 -->
<g id="edge4_Node000004_Node000005" class="edge">
<title>Node4&#45;&gt;Node5</title>
<g id="a_edge4_Node000004_Node000005"><a xlink:title=" ">
<path fill="none" stroke="#63b8ff" d="M122.66,-16C114.53,-16 106.43,-16 98.74,-16"/>
<polygon fill="#63b8ff" stroke="#63b8ff" points="122.61,-19.5 132.61,-16 122.61,-12.5 122.61,-19.5"/>
</a>
</g>
</g>
</g>
</svg>
