<?xml version="1.0" encoding="UTF-8" standalone="no"?>
<!DOCTYPE svg PUBLIC "-//W3C//DTD SVG 1.1//EN"
 "http://www.w3.org/Graphics/SVG/1.1/DTD/svg11.dtd">
<!-- Generated by graphviz version 12.2.1 (20241206.2353)
 -->
<!-- Title: interficie.VistaCrearPartida.VistaCrearPartida Pages: 1 -->
<svg width="354pt" height="178pt"
 viewBox="0.00 0.00 354.25 178.00" xmlns="http://www.w3.org/2000/svg" xmlns:xlink="http://www.w3.org/1999/xlink">
<g id="graph0" class="graph" transform="scale(1 1) rotate(0) translate(4 174)">
<title>interficie.VistaCrearPartida.VistaCrearPartida</title>
<!-- Node1 -->
<g id="Node000001" class="node">
<title>Node1</title>
<g id="a_Node000001"><a xlink:title="Crea una nova finestra per a la creació d&#39;una partida de Scrabble.">
<polygon fill="#999999" stroke="#666666" points="136,-95 0,-95 0,-63 136,-63 136,-95"/>
<text text-anchor="start" x="8" y="-81.5" font-family="Helvetica,sans-Serif" font-size="10.00">interficie.VistaCrearPartida.</text>
<text text-anchor="middle" x="68" y="-69.5" font-family="Helvetica,sans-Serif" font-size="10.00">VistaCrearPartida</text>
</a>
</g>
</g>
<!-- Node1&#45;&gt;Node1 -->
<g id="edge5_Node000001_Node000001" class="edge">
<title>Node1&#45;&gt;Node1</title>
<g id="a_edge5_Node000001_Node000001"><a xlink:title=" ">
<path fill="none" stroke="#63b8ff" d="M33.88,-95.44C27.51,-104.58 38.88,-113 68,-113 83.92,-113 94.54,-110.48 99.85,-106.71"/>
<polygon fill="#63b8ff" stroke="#63b8ff" points="103.28,-107.42 101.82,-96.93 96.41,-106.04 103.28,-107.42"/>
</a>
</g>
</g>
<!-- Node2 -->
<g id="Node000002" class="node">
<title>Node2</title>
<g id="a_Node000002"><a xlink:href="$classinterficie_1_1utils_1_1_tools.html#aad14ef36a2a433a18d49c46a83531892" xlink:title="Actualitza la imatge d&#39;un JLabel redimensionant&#45;la per adaptar&#45;se a les mides màximes indicades mante...">
<polygon fill="white" stroke="#666666" points="333.12,-170 185.12,-170 185.12,-138 333.12,-138 333.12,-170"/>
<text text-anchor="start" x="193.12" y="-156.5" font-family="Helvetica,sans-Serif" font-size="10.00">interficie.utils.Tools.actualitzar</text>
<text text-anchor="middle" x="259.12" y="-144.5" font-family="Helvetica,sans-Serif" font-size="10.00">Imatge</text>
</a>
</g>
</g>
<!-- Node1&#45;&gt;Node2 -->
<g id="edge1_Node000001_Node000002" class="edge">
<title>Node1&#45;&gt;Node2</title>
<g id="a_edge1_Node000001_Node000002"><a xlink:title=" ">
<path fill="none" stroke="#63b8ff" d="M99.49,-95.49C119.68,-105.99 146.95,-119.37 172,-129 176.41,-130.7 180.99,-132.34 185.64,-133.93"/>
<polygon fill="#63b8ff" stroke="#63b8ff" points="184.51,-137.24 195.1,-137.03 186.69,-130.59 184.51,-137.24"/>
</a>
</g>
</g>
<!-- Node3 -->
<g id="Node000003" class="node">
<title>Node3</title>
<g id="a_Node000003"><a xlink:href="$classcontroladors_1_1_ctrl_presentacio.html#abe061b0ca878d411af8834231f88e029" xlink:title="Crea una nova partida amb els paràmetres indicats.">
<polygon fill="white" stroke="#666666" points="341.38,-120 176.88,-120 176.88,-88 341.38,-88 341.38,-120"/>
<text text-anchor="start" x="184.88" y="-106.5" font-family="Helvetica,sans-Serif" font-size="10.00">controladors.CtrlPresentacio.crear</text>
<text text-anchor="middle" x="259.12" y="-94.5" font-family="Helvetica,sans-Serif" font-size="10.00">Partida</text>
</a>
</g>
</g>
<!-- Node1&#45;&gt;Node3 -->
<g id="edge2_Node000001_Node000003" class="edge">
<title>Node1&#45;&gt;Node3</title>
<g id="a_edge2_Node000001_Node000003"><a xlink:title=" ">
<path fill="none" stroke="#63b8ff" d="M136.48,-87.92C145.78,-89.15 155.46,-90.43 165.13,-91.71"/>
<polygon fill="#63b8ff" stroke="#63b8ff" points="164.56,-95.16 174.93,-93 165.48,-88.22 164.56,-95.16"/>
</a>
</g>
</g>
<!-- Node4 -->
<g id="Node000004" class="node">
<title>Node4</title>
<g id="a_Node000004"><a xlink:href="$classinterficie_1_1_vista_crear_partida_1_1_placeholder_text_field.html#a3bd23c6ec82dd745cfff840762c9904f" xlink:title="Estableix el text del placeholder.">
<polygon fill="white" stroke="#666666" points="346.25,-70 172,-70 172,-38 346.25,-38 346.25,-70"/>
<text text-anchor="start" x="180" y="-56.5" font-family="Helvetica,sans-Serif" font-size="10.00">interficie.VistaCrearPartida.</text>
<text text-anchor="middle" x="259.12" y="-44.5" font-family="Helvetica,sans-Serif" font-size="10.00">PlaceholderTextField.setPlaceholder</text>
</a>
</g>
</g>
<!-- Node1&#45;&gt;Node4 -->
<g id="edge3_Node000001_Node000004" class="edge">
<title>Node1&#45;&gt;Node4</title>
<g id="a_edge3_Node000001_Node000004"><a xlink:title=" ">
<path fill="none" stroke="#63b8ff" d="M136.48,-70.08C144.19,-69.06 152.17,-68.01 160.18,-66.95"/>
<polygon fill="#63b8ff" stroke="#63b8ff" points="160.55,-70.43 170,-65.65 159.63,-63.49 160.55,-70.43"/>
</a>
</g>
</g>
<!-- Node5 -->
<g id="Node000005" class="node">
<title>Node5</title>
<g id="a_Node000005"><a xlink:href="$classcontroladors_1_1_ctrl_presentacio.html#a66901a833c124fd1acc592cea93f4e6d" xlink:title="Torna a la vista anterior a l&#39;actual.">
<polygon fill="white" stroke="#666666" points="342.88,-20 175.38,-20 175.38,0 342.88,0 342.88,-20"/>
<text text-anchor="middle" x="259.12" y="-6.5" font-family="Helvetica,sans-Serif" font-size="10.00">controladors.CtrlPresentacio.tornar</text>
</a>
</g>
</g>
<!-- Node1&#45;&gt;Node5 -->
<g id="edge4_Node000001_Node000005" class="edge">
<title>Node1&#45;&gt;Node5</title>
<g id="a_edge4_Node000001_Node000005"><a xlink:title=" ">
<path fill="none" stroke="#63b8ff" d="M97.96,-62.66C118.18,-51.83 146.09,-38.01 172,-29 178.02,-26.91 184.36,-24.99 190.76,-23.25"/>
<polygon fill="#63b8ff" stroke="#63b8ff" points="191.25,-26.74 200.07,-20.87 189.51,-19.96 191.25,-26.74"/>
</a>
</g>
</g>
</g>
</svg>
