<?xml version="1.0" encoding="UTF-8" standalone="no"?>
<!DOCTYPE svg PUBLIC "-//W3C//DTD SVG 1.1//EN"
 "http://www.w3.org/Graphics/SVG/1.1/DTD/svg11.dtd">
<!-- Generated by graphviz version 12.2.1 (20241206.2353)
 -->
<!-- Title: domini.scrabble.Taulell.getAnchors Pages: 1 -->
<svg width="507pt" height="128pt"
 viewBox="0.00 0.00 506.75 128.00" xmlns="http://www.w3.org/2000/svg" xmlns:xlink="http://www.w3.org/1999/xlink">
<g id="graph0" class="graph" transform="scale(1 1) rotate(0) translate(4 124)">
<title>domini.scrabble.Taulell.getAnchors</title>
<!-- Node1 -->
<g id="Node000001" class="node">
<title>Node1</title>
<g id="a_Node000001"><a xlink:title="Retorna un Set amb les coordenades de les caselles que son anchors.">
<polygon fill="#999999" stroke="#666666" points="131.5,-82 0,-82 0,-50 131.5,-50 131.5,-82"/>
<text text-anchor="start" x="8" y="-68.5" font-family="Helvetica,sans-Serif" font-size="10.00">domini.scrabble.Taulell.get</text>
<text text-anchor="middle" x="65.75" y="-56.5" font-family="Helvetica,sans-Serif" font-size="10.00">Anchors</text>
</a>
</g>
</g>
<!-- Node2 -->
<g id="Node000002" class="node">
<title>Node2</title>
<g id="a_Node000002"><a xlink:href="classdomini_1_1scrabble_1_1_taulell.html#a268ce8c62ca09000409a18be258fbc89" target="_top" xlink:title="Comprova si el taulell està completament buit (cap casella ocupada).">
<polygon fill="white" stroke="#666666" points="321.5,-120 167.5,-120 167.5,-100 321.5,-100 321.5,-120"/>
<text text-anchor="middle" x="244.5" y="-106.5" font-family="Helvetica,sans-Serif" font-size="10.00">domini.scrabble.Taulell.estaBuit</text>
</a>
</g>
</g>
<!-- Node1&#45;&gt;Node2 -->
<g id="edge1_Node000001_Node000002" class="edge">
<title>Node1&#45;&gt;Node2</title>
<g id="a_edge1_Node000001_Node000002"><a xlink:title=" ">
<path fill="none" stroke="#63b8ff" d="M131.81,-82.2C151.05,-86.99 171.87,-92.17 190.27,-96.75"/>
<polygon fill="#63b8ff" stroke="#63b8ff" points="189.36,-100.13 199.91,-99.15 191.05,-93.34 189.36,-100.13"/>
</a>
</g>
</g>
<!-- Node3 -->
<g id="Node000003" class="node">
<title>Node3</title>
<g id="a_Node000003"><a xlink:href="classdomini_1_1scrabble_1_1_taulell.html#a5be7b0143cecbce3e2f4dc4f53814879" target="_top" xlink:title="Donades unes coordenades, retorna la Casella que es troba en aquelles coordenades.">
<polygon fill="white" stroke="#666666" points="310.25,-82 178.75,-82 178.75,-50 310.25,-50 310.25,-82"/>
<text text-anchor="start" x="186.75" y="-68.5" font-family="Helvetica,sans-Serif" font-size="10.00">domini.scrabble.Taulell.get</text>
<text text-anchor="middle" x="244.5" y="-56.5" font-family="Helvetica,sans-Serif" font-size="10.00">Casella</text>
</a>
</g>
</g>
<!-- Node1&#45;&gt;Node3 -->
<g id="edge2_Node000001_Node000003" class="edge">
<title>Node1&#45;&gt;Node3</title>
<g id="a_edge2_Node000001_Node000003"><a xlink:title=" ">
<path fill="none" stroke="#63b8ff" d="M131.81,-66C143.3,-66 155.35,-66 167.12,-66"/>
<polygon fill="#63b8ff" stroke="#63b8ff" points="166.77,-69.5 176.77,-66 166.77,-62.5 166.77,-69.5"/>
</a>
</g>
</g>
<!-- Node5 -->
<g id="Node000005" class="node">
<title>Node5</title>
<g id="a_Node000005"><a xlink:href="classdomini_1_1scrabble_1_1_taulell.html#a28a346ace920ef6a74f94825249d671c" target="_top" xlink:title="Mètode que calcula les coordenades del centre del taulell.">
<polygon fill="white" stroke="#666666" points="310.25,-32 178.75,-32 178.75,0 310.25,0 310.25,-32"/>
<text text-anchor="start" x="186.75" y="-18.5" font-family="Helvetica,sans-Serif" font-size="10.00">domini.scrabble.Taulell.get</text>
<text text-anchor="middle" x="244.5" y="-6.5" font-family="Helvetica,sans-Serif" font-size="10.00">CentreTaulell</text>
</a>
</g>
</g>
<!-- Node1&#45;&gt;Node5 -->
<g id="edge4_Node000001_Node000005" class="edge">
<title>Node1&#45;&gt;Node5</title>
<g id="a_edge4_Node000001_Node000005"><a xlink:title=" ">
<path fill="none" stroke="#63b8ff" d="M124.62,-49.63C140.56,-45.12 158.01,-40.18 174.51,-35.52"/>
<polygon fill="#63b8ff" stroke="#63b8ff" points="175.07,-39 183.74,-32.91 173.16,-32.26 175.07,-39"/>
</a>
</g>
</g>
<!-- Node4 -->
<g id="Node000004" class="node">
<title>Node4</title>
<g id="a_Node000004"><a xlink:href="classdomini_1_1scrabble_1_1_taulell.html#afc2d8dcd225b683aa00af9ce2075ad79" target="_top" xlink:title=" ">
<polygon fill="white" stroke="#666666" points="498.75,-76 357.5,-76 357.5,-56 498.75,-56 498.75,-76"/>
<text text-anchor="middle" x="428.12" y="-62.5" font-family="Helvetica,sans-Serif" font-size="10.00">domini.scrabble.Taulell.limits</text>
</a>
</g>
</g>
<!-- Node3&#45;&gt;Node4 -->
<g id="edge3_Node000003_Node000004" class="edge">
<title>Node3&#45;&gt;Node4</title>
<g id="a_edge3_Node000003_Node000004"><a xlink:title=" ">
<path fill="none" stroke="#63b8ff" d="M310.56,-66C322.05,-66 334.14,-66 346.01,-66"/>
<polygon fill="#63b8ff" stroke="#63b8ff" points="345.79,-69.5 355.79,-66 345.79,-62.5 345.79,-69.5"/>
</a>
</g>
</g>
</g>
</svg>
