<?xml version="1.0" encoding="UTF-8" standalone="no"?>
<!DOCTYPE svg PUBLIC "-//W3C//DTD SVG 1.1//EN"
 "http://www.w3.org/Graphics/SVG/1.1/DTD/svg11.dtd">
<!-- Generated by graphviz version 12.2.1 (20241206.2353)
 -->
<!-- Title: drivers.Driver.abandonarPartida Pages: 1 -->
<svg width="774pt" height="62pt"
 viewBox="0.00 0.00 774.25 62.00" xmlns="http://www.w3.org/2000/svg" xmlns:xlink="http://www.w3.org/1999/xlink">
<g id="graph0" class="graph" transform="scale(1 1) rotate(0) translate(4 58)">
<title>drivers.Driver.abandonarPartida</title>
<!-- Node1 -->
<g id="Node000001" class="node">
<title>Node1</title>
<g id="a_Node000001"><a xlink:title="Abandona la partida actual.">
<polygon fill="#999999" stroke="#666666" points="766.25,-54 643.75,-54 643.75,-22 766.25,-22 766.25,-54"/>
<text text-anchor="start" x="651.75" y="-40.5" font-family="Helvetica,sans-Serif" font-size="10.00">drivers.Driver.abandonar</text>
<text text-anchor="middle" x="705" y="-28.5" font-family="Helvetica,sans-Serif" font-size="10.00">Partida</text>
</a>
</g>
</g>
<!-- Node2 -->
<g id="Node000002" class="node">
<title>Node2</title>
<g id="a_Node000002"><a xlink:href="classdrivers_1_1_driver.html#a13e38153634507d9ad6e24cb267237b9" target="_top" xlink:title="Juga una partida.">
<polygon fill="white" stroke="#666666" points="263.75,-48 134.5,-48 134.5,-28 263.75,-28 263.75,-48"/>
<text text-anchor="middle" x="199.12" y="-34.5" font-family="Helvetica,sans-Serif" font-size="10.00">drivers.Driver.jugarPartida</text>
</a>
</g>
</g>
<!-- Node1&#45;&gt;Node2 -->
<g id="edge1_Node000001_Node000002" class="edge">
<title>Node1&#45;&gt;Node2</title>
<g id="a_edge1_Node000001_Node000002"><a xlink:title=" ">
<path fill="none" stroke="#63b8ff" d="M631.95,-40.49C623.79,-40.7 615.59,-40.88 607.75,-41 486.22,-42.89 344.28,-40.9 264.02,-39.38"/>
<polygon fill="#63b8ff" stroke="#63b8ff" points="632.01,-43.99 641.91,-40.22 631.82,-36.99 632.01,-43.99"/>
</a>
</g>
</g>
<!-- Node4 -->
<g id="Node000004" class="node">
<title>Node4</title>
<g id="a_Node000004"><a xlink:href="classdrivers_1_1_driver.html#a65d5cdb033b4f42c0a2adf1fabb7b6ff" target="_top" xlink:title="Mostra el menú de pausa.">
<polygon fill="white" stroke="#666666" points="607.75,-32 473.25,-32 473.25,0 607.75,0 607.75,-32"/>
<text text-anchor="start" x="481.25" y="-18.5" font-family="Helvetica,sans-Serif" font-size="10.00">drivers.Driver.mostrarMenu</text>
<text text-anchor="middle" x="540.5" y="-6.5" font-family="Helvetica,sans-Serif" font-size="10.00">Pausa</text>
</a>
</g>
</g>
<!-- Node1&#45;&gt;Node4 -->
<g id="edge3_Node000001_Node000004" class="edge">
<title>Node1&#45;&gt;Node4</title>
<g id="a_edge3_Node000001_Node000004"><a xlink:title=" ">
<path fill="none" stroke="#63b8ff" d="M632.24,-28.28C624.2,-27.2 616.03,-26.09 608.06,-25.01"/>
<polygon fill="#63b8ff" stroke="#63b8ff" points="631.61,-31.73 641.99,-29.6 632.55,-24.79 631.61,-31.73"/>
</a>
</g>
</g>
<!-- Node3 -->
<g id="Node000003" class="node">
<title>Node3</title>
<g id="a_Node000003"><a xlink:href="classdrivers_1_1_driver.html#a3f94ce3595725e82b34c92548e071d04" target="_top" xlink:title="Inici del driver.">
<polygon fill="white" stroke="#666666" points="98.5,-48 0,-48 0,-28 98.5,-28 98.5,-48"/>
<text text-anchor="middle" x="49.25" y="-34.5" font-family="Helvetica,sans-Serif" font-size="10.00">drivers.Driver.main</text>
</a>
</g>
</g>
<!-- Node2&#45;&gt;Node3 -->
<g id="edge2_Node000002_Node000003" class="edge">
<title>Node2&#45;&gt;Node3</title>
<g id="a_edge2_Node000002_Node000003"><a xlink:title=" ">
<path fill="none" stroke="#63b8ff" d="M122.66,-38C114.53,-38 106.43,-38 98.74,-38"/>
<polygon fill="#63b8ff" stroke="#63b8ff" points="122.61,-41.5 132.61,-38 122.61,-34.5 122.61,-41.5"/>
</a>
</g>
</g>
<!-- Node5 -->
<g id="Node000005" class="node">
<title>Node5</title>
<g id="a_Node000005"><a xlink:href="classdrivers_1_1_driver.html#a5bdeffe74ac8e28325692a231275787b" target="_top" xlink:title="Pausa la partida actual.">
<polygon fill="white" stroke="#666666" points="437.25,-29 299.75,-29 299.75,-9 437.25,-9 437.25,-29"/>
<text text-anchor="middle" x="368.5" y="-15.5" font-family="Helvetica,sans-Serif" font-size="10.00">drivers.Driver.pausarPartida</text>
</a>
</g>
</g>
<!-- Node4&#45;&gt;Node5 -->
<g id="edge4_Node000004_Node000005" class="edge">
<title>Node4&#45;&gt;Node5</title>
<g id="a_edge4_Node000004_Node000005"><a xlink:title=" ">
<path fill="none" stroke="#63b8ff" d="M461.32,-17.38C453.43,-17.52 445.46,-17.66 437.69,-17.8"/>
<polygon fill="#63b8ff" stroke="#63b8ff" points="461.35,-20.88 471.29,-17.2 461.23,-13.88 461.35,-20.88"/>
</a>
</g>
</g>
<!-- Node5&#45;&gt;Node2 -->
<g id="edge5_Node000005_Node000002" class="edge">
<title>Node5&#45;&gt;Node2</title>
<g id="a_edge5_Node000005_Node000002"><a xlink:title=" ">
<path fill="none" stroke="#63b8ff" d="M288.11,-28.01C280.05,-28.93 271.95,-29.85 264.09,-30.74"/>
<polygon fill="#63b8ff" stroke="#63b8ff" points="288.38,-31.5 297.92,-26.9 287.59,-24.55 288.38,-31.5"/>
</a>
</g>
</g>
</g>
</svg>
