<?xml version="1.0" encoding="UTF-8" standalone="no"?>
<!DOCTYPE svg PUBLIC "-//W3C//DTD SVG 1.1//EN"
 "http://www.w3.org/Graphics/SVG/1.1/DTD/svg11.dtd">
<!-- Generated by graphviz version 12.2.1 (20241206.2353)
 -->
<!-- Title: controladors.CtrlPartida.crearPartida Pages: 1 -->
<svg width="797pt" height="78pt"
 viewBox="0.00 0.00 797.25 78.00" xmlns="http://www.w3.org/2000/svg" xmlns:xlink="http://www.w3.org/1999/xlink">
<g id="graph0" class="graph" transform="scale(1 1) rotate(0) translate(4 74)">
<title>controladors.CtrlPartida.crearPartida</title>
<!-- Node1 -->
<g id="Node000001" class="node">
<title>Node1</title>
<g id="a_Node000001"><a xlink:title="Crea una nova partida.">
<polygon fill="#999999" stroke="#666666" points="143.5,-54 0,-54 0,-22 143.5,-22 143.5,-54"/>
<text text-anchor="start" x="8" y="-40.5" font-family="Helvetica,sans-Serif" font-size="10.00">controladors.CtrlPartida.crear</text>
<text text-anchor="middle" x="71.75" y="-28.5" font-family="Helvetica,sans-Serif" font-size="10.00">Partida</text>
</a>
</g>
</g>
<!-- Node2 -->
<g id="Node000002" class="node">
<title>Node2</title>
<g id="a_Node000002"><a xlink:href="classdomini_1_1diccionari_1_1_d_a_w_g.html#a0e940935fc1a6e9b34df72a5f2a78c85" target="_top" xlink:title="Genera un DAWG a partir d&#39;un fitxer amb un format específic.">
<polygon fill="white" stroke="#666666" points="383,-70 179.5,-70 179.5,-50 383,-50 383,-70"/>
<text text-anchor="middle" x="281.25" y="-56.5" font-family="Helvetica,sans-Serif" font-size="10.00">domini.diccionari.DAWG.dictionary2DAWG</text>
</a>
</g>
</g>
<!-- Node1&#45;&gt;Node2 -->
<g id="edge1_Node000001_Node000002" class="edge">
<title>Node1&#45;&gt;Node2</title>
<g id="a_edge1_Node000001_Node000002"><a xlink:title=" ">
<path fill="none" stroke="#63b8ff" d="M143.87,-45.54C152.37,-46.44 161.19,-47.38 170.07,-48.32"/>
<polygon fill="#63b8ff" stroke="#63b8ff" points="169.52,-51.78 179.83,-49.35 170.26,-44.82 169.52,-51.78"/>
</a>
</g>
</g>
<!-- Node5 -->
<g id="Node000005" class="node">
<title>Node5</title>
<g id="a_Node000005"><a xlink:href="classcontroladors_1_1_ctrl_partida.html#a3f08b463362f9364a6e5d04cc8de0dc2" target="_top" xlink:title="Obté el nom del fitxer del diccionari segons l&#39;idioma.">
<polygon fill="white" stroke="#666666" points="348.88,-32 213.62,-32 213.62,0 348.88,0 348.88,-32"/>
<text text-anchor="start" x="221.62" y="-18.5" font-family="Helvetica,sans-Serif" font-size="10.00">controladors.CtrlPartida.get</text>
<text text-anchor="middle" x="281.25" y="-6.5" font-family="Helvetica,sans-Serif" font-size="10.00">DictionaryFileName</text>
</a>
</g>
</g>
<!-- Node1&#45;&gt;Node5 -->
<g id="edge4_Node000001_Node000005" class="edge">
<title>Node1&#45;&gt;Node5</title>
<g id="a_edge4_Node000001_Node000005"><a xlink:title=" ">
<path fill="none" stroke="#63b8ff" d="M143.87,-30.46C162.61,-28.47 182.93,-26.32 202.03,-24.29"/>
<polygon fill="#63b8ff" stroke="#63b8ff" points="202.34,-27.78 211.91,-23.25 201.6,-20.82 202.34,-27.78"/>
</a>
</g>
</g>
<!-- Node3 -->
<g id="Node000003" class="node">
<title>Node3</title>
<g id="a_Node000003"><a xlink:href="classdomini_1_1diccionari_1_1_d_a_w_g.html#a4556b78b36bb9abd60c62c0c67b65c94" target="_top" xlink:title="Modifica el DAWG perquè reconegui la paraula d&#39;entrada com a pertanyent al lèxic.">
<polygon fill="white" stroke="#666666" points="591,-70 419,-70 419,-50 591,-50 591,-70"/>
<text text-anchor="middle" x="505" y="-56.5" font-family="Helvetica,sans-Serif" font-size="10.00">domini.diccionari.DAWG.insertWord</text>
</a>
</g>
</g>
<!-- Node2&#45;&gt;Node3 -->
<g id="edge2_Node000002_Node000003" class="edge">
<title>Node2&#45;&gt;Node3</title>
<g id="a_edge2_Node000002_Node000003"><a xlink:title=" ">
<path fill="none" stroke="#63b8ff" d="M383.39,-60C391.3,-60 399.27,-60 407.14,-60"/>
<polygon fill="#63b8ff" stroke="#63b8ff" points="407.08,-63.5 417.08,-60 407.08,-56.5 407.08,-63.5"/>
</a>
</g>
</g>
<!-- Node4 -->
<g id="Node000004" class="node">
<title>Node4</title>
<g id="a_Node000004"><a xlink:href="classdomini_1_1diccionari_1_1_d_a_w_g.html#ad5db7cc629d77068e51ccae18f9bfebd" target="_top" xlink:title="Genera una llista amb les lletres i dígrafs de la paraula paràmetre.">
<polygon fill="white" stroke="#666666" points="789.25,-70 627,-70 627,-50 789.25,-50 789.25,-70"/>
<text text-anchor="middle" x="708.12" y="-56.5" font-family="Helvetica,sans-Serif" font-size="10.00">domini.diccionari.DAWG.tokenize</text>
</a>
</g>
</g>
<!-- Node3&#45;&gt;Node4 -->
<g id="edge3_Node000003_Node000004" class="edge">
<title>Node3&#45;&gt;Node4</title>
<g id="a_edge3_Node000003_Node000004"><a xlink:title=" ">
<path fill="none" stroke="#63b8ff" d="M591.3,-60C599.3,-60 607.44,-60 615.5,-60"/>
<polygon fill="#63b8ff" stroke="#63b8ff" points="615.3,-63.5 625.3,-60 615.3,-56.5 615.3,-63.5"/>
</a>
</g>
</g>
</g>
</svg>
