<?xml version="1.0" encoding="UTF-8" standalone="no"?>
<!DOCTYPE svg PUBLIC "-//W3C//DTD SVG 1.1//EN"
 "http://www.w3.org/Graphics/SVG/1.1/DTD/svg11.dtd">
<!-- Generated by graphviz version 12.2.1 (20241206.2353)
 -->
<!-- Title: persistencia.JugadorIO.eliminarJugador Pages: 1 -->
<svg width="568pt" height="90pt"
 viewBox="0.00 0.00 567.50 90.00" xmlns="http://www.w3.org/2000/svg" xmlns:xlink="http://www.w3.org/1999/xlink">
<g id="graph0" class="graph" transform="scale(1 1) rotate(0) translate(4 86)">
<title>persistencia.JugadorIO.eliminarJugador</title>
<!-- Node1 -->
<g id="Node000001" class="node">
<title>Node1</title>
<g id="a_Node000001"><a xlink:title="Elimina un jugador esborrant el seu fitxer JSON.">
<polygon fill="#999999" stroke="#666666" points="559.5,-57 406.25,-57 406.25,-25 559.5,-25 559.5,-57"/>
<text text-anchor="start" x="414.25" y="-43.5" font-family="Helvetica,sans-Serif" font-size="10.00">persistencia.JugadorIO.eliminar</text>
<text text-anchor="middle" x="482.88" y="-31.5" font-family="Helvetica,sans-Serif" font-size="10.00">Jugador</text>
</a>
</g>
</g>
<!-- Node2 -->
<g id="Node000002" class="node">
<title>Node2</title>
<g id="a_Node000002"><a xlink:href="$classcontroladors_1_1_ctrl_persistencia.html#a09020132c18c52085e84f9e4480bdb30" xlink:title="Elimina un jugador de l&#39;emmagatzematge persistent.">
<polygon fill="white" stroke="#666666" points="370.25,-57 191.5,-57 191.5,-25 370.25,-25 370.25,-57"/>
<text text-anchor="start" x="199.5" y="-43.5" font-family="Helvetica,sans-Serif" font-size="10.00">controladors.CtrlPersistencia.eliminar</text>
<text text-anchor="middle" x="280.88" y="-31.5" font-family="Helvetica,sans-Serif" font-size="10.00">Jugador</text>
</a>
</g>
</g>
<!-- Node1&#45;&gt;Node2 -->
<g id="edge1_Node000001_Node000002" class="edge">
<title>Node1&#45;&gt;Node2</title>
<g id="a_edge1_Node000001_Node000002"><a xlink:title=" ">
<path fill="none" stroke="#63b8ff" d="M394.71,-41C386.67,-41 378.52,-41 370.47,-41"/>
<polygon fill="#63b8ff" stroke="#63b8ff" points="394.46,-44.5 404.46,-41 394.46,-37.5 394.46,-44.5"/>
</a>
</g>
</g>
<!-- Node3 -->
<g id="Node000003" class="node">
<title>Node3</title>
<g id="a_Node000003"><a xlink:href="$classcontroladors_1_1_ctrl_domini.html#a6cfce66fee04b251667d4527c7f011e9" xlink:title="Elimina un jugador registrat del sistema.">
<polygon fill="white" stroke="#666666" points="155.5,-82 0,-82 0,-50 155.5,-50 155.5,-82"/>
<text text-anchor="start" x="8" y="-68.5" font-family="Helvetica,sans-Serif" font-size="10.00">controladors.CtrlDomini.eliminar</text>
<text text-anchor="middle" x="77.75" y="-56.5" font-family="Helvetica,sans-Serif" font-size="10.00">Jugador</text>
</a>
</g>
</g>
<!-- Node2&#45;&gt;Node3 -->
<g id="edge2_Node000002_Node000003" class="edge">
<title>Node2&#45;&gt;Node3</title>
<g id="a_edge2_Node000002_Node000003"><a xlink:title=" ">
<path fill="none" stroke="#63b8ff" d="M179.7,-53.45C171.64,-54.45 163.58,-55.46 155.72,-56.43"/>
<polygon fill="#63b8ff" stroke="#63b8ff" points="180.08,-56.93 189.57,-52.22 179.22,-49.99 180.08,-56.93"/>
</a>
</g>
</g>
<!-- Node4 -->
<g id="Node000004" class="node">
<title>Node4</title>
<g id="a_Node000004"><a xlink:href="$classcontroladors_1_1_ctrl_domini.html#a34432049ad1864a2b638b590d38b343d" xlink:title="Elimina un usuari.">
<polygon fill="white" stroke="#666666" points="155.5,-32 0,-32 0,0 155.5,0 155.5,-32"/>
<text text-anchor="start" x="8" y="-18.5" font-family="Helvetica,sans-Serif" font-size="10.00">controladors.CtrlDomini.eliminar</text>
<text text-anchor="middle" x="77.75" y="-6.5" font-family="Helvetica,sans-Serif" font-size="10.00">Usuari</text>
</a>
</g>
</g>
<!-- Node2&#45;&gt;Node4 -->
<g id="edge3_Node000002_Node000004" class="edge">
<title>Node2&#45;&gt;Node4</title>
<g id="a_edge3_Node000002_Node000004"><a xlink:title=" ">
<path fill="none" stroke="#63b8ff" d="M179.7,-28.55C171.64,-27.55 163.58,-26.54 155.72,-25.57"/>
<polygon fill="#63b8ff" stroke="#63b8ff" points="179.22,-32.01 189.57,-29.78 180.08,-25.07 179.22,-32.01"/>
</a>
</g>
</g>
</g>
</svg>
