<?xml version="1.0" encoding="UTF-8" standalone="no"?>
<!DOCTYPE svg PUBLIC "-//W3C//DTD SVG 1.1//EN"
 "http://www.w3.org/Graphics/SVG/1.1/DTD/svg11.dtd">
<!-- Generated by graphviz version 12.2.1 (20241206.2353)
 -->
<!-- Title: domini.scrabble.Partida.getJugador2 Pages: 1 -->
<!--zoomable 381 -->

<svg id="main" version="1.1" xmlns="http://www.w3.org/2000/svg" xmlns:xlink="http://www.w3.org/1999/xlink" xml:space="preserve" onload="init(evt)">

<style type="text/css"><![CDATA[
.node, .edge {opacity: 0.7;}
.node.selected, .edge.selected {opacity: 1;}
.edge:hover path { stroke: red; }
.edge:hover polygon { stroke: red; fill: red; }
]]></style>

<defs>
  <circle id="rim" cx="0" cy="0" r="7"/>
  <circle id="rim2" cx="0" cy="0" r="3.5"/>
  <g id="zoomPlus">
    <use xlink:href="#rim" fill="#404040"><set attributeName="fill" to="#808080" begin="zoomplus.mouseover" end="zoomplus.mouseout"/></use>
    <path d="M-4,0h8M0,-4v8" fill="none" stroke="white" stroke-width="1.5" pointer-events="none"/>
  </g>
  <g id="zoomMin">
    <use xlink:href="#rim" fill="#404040"><set attributeName="fill" to="#808080" begin="zoomminus.mouseover" end="zoomminus.mouseout"/></use>
    <path d="M-4,0h8" fill="none" stroke="white" stroke-width="1.5" pointer-events="none"/>
  </g>
  <g id="arrowUp" transform="translate(30 24)">
    <use xlink:href="#rim"/>
    <path pointer-events="none" fill="none" stroke="white" stroke-width="1.5" d="M0,-3.0v7 M-2.5,-0.5L0,-3.0L2.5,-0.5"/>
  </g>
  <g id="arrowRight" transform="rotate(90) translate(36 -43)">
    <use xlink:href="#rim"/>
    <path pointer-events="none" fill="none" stroke="white" stroke-width="1.5" d="M0,-3.0v7 M-2.5,-0.5L0,-3.0L2.5,-0.5"/>
  </g>
  <g id="arrowDown" transform="rotate(180) translate(-30 -48)">
    <use xlink:href="#rim"/>
    <path pointer-events="none" fill="none" stroke="white" stroke-width="1.5" d="M0,-3.0v7 M-2.5,-0.5L0,-3.0L2.5,-0.5"/>
  </g>
  <g id="arrowLeft" transform="rotate(270) translate(-36 17)">
    <use xlink:href="#rim"/>
    <path pointer-events="none" fill="none" stroke="white" stroke-width="1.5" d="M0,-3.0v7 M-2.5,-0.5L0,-3.0L2.5,-0.5"/>
  </g>
  <g id="resetDef">
    <use xlink:href="#rim2" fill="#404040"><set attributeName="fill" to="#808080" begin="reset.mouseover" end="reset.mouseout"/></use>
  </g>
</defs>
<script type="application/ecmascript">
var viewWidth = 1413;
var viewHeight = 381;
var sectionId = 'dynsection-14';
</script>
<script type="application/ecmascript" xlink:href="svg.min.js"/>
<svg id="graph" class="graph">
<g id="viewport">
<title>domini.scrabble.Partida.getJugador2</title>
<!-- Node1 -->
<g id="Node000001" class="node">
<title>Node1</title>
<g id="a_Node000001"><a xlink:title="Retorna el jugador 2 de la partida.">
<polygon fill="#999999" stroke="#666666" points="1405.25,-54 1270.75,-54 1270.75,-22 1405.25,-22 1405.25,-54"/>
<text text-anchor="start" x="1278.75" y="-40.5" font-family="Helvetica,sans-Serif" font-size="10.00">domini.scrabble.Partida.get</text>
<text text-anchor="middle" x="1338" y="-28.5" font-family="Helvetica,sans-Serif" font-size="10.00">Jugador2</text>
</a>
</g>
</g>
<!-- Node2 -->
<g id="Node000002" class="node">
<title>Node2</title>
<g id="a_Node000002"><a xlink:href="classcontroladors_1_1_ctrl_presentacio.html#af82e544e6fad5efe4bce551be338f5f1" target="_top" xlink:title="Canvia la vista a la pantalla de rànquing final un cop acabada la partida.">
<polygon fill="white" stroke="#666666" points="1234.75,-205 1068.75,-205 1068.75,-173 1234.75,-173 1234.75,-205"/>
<text text-anchor="start" x="1076.75" y="-191.5" font-family="Helvetica,sans-Serif" font-size="10.00">controladors.CtrlPresentacio.canvi</text>
<text text-anchor="middle" x="1151.75" y="-179.5" font-family="Helvetica,sans-Serif" font-size="10.00">RankingPartida</text>
</a>
</g>
</g>
<!-- Node1&#45;&gt;Node2 -->
<g id="edge1_Node000001_Node000002" class="edge">
<title>Node1&#45;&gt;Node2</title>
<g id="a_edge1_Node000001_Node000002"><a xlink:title=" ">
<path fill="none" stroke="#63b8ff" d="M1308.45,-61.4C1270.82,-92.24 1205.59,-145.7 1172.79,-172.57"/>
<polygon fill="#63b8ff" stroke="#63b8ff" points="1310.24,-64.45 1315.76,-55.41 1305.81,-59.04 1310.24,-64.45"/>
</a>
</g>
</g>
<!-- Node7 -->
<g id="Node000007" class="node">
<title>Node7</title>
<g id="a_Node000007"><a xlink:href="classinterficie_1_1_vista_partida.html#a0698d192124492ebfd8a3b029a6fa23c" target="_top" xlink:title="Actualitza els racks dels jugadors.">
<polygon fill="white" stroke="#666666" points="336.5,-161 186.25,-161 186.25,-129 336.5,-129 336.5,-161"/>
<text text-anchor="start" x="194.25" y="-147.5" font-family="Helvetica,sans-Serif" font-size="10.00">interficie.VistaPartida.refrescar</text>
<text text-anchor="middle" x="261.38" y="-135.5" font-family="Helvetica,sans-Serif" font-size="10.00">RackJugadors</text>
</a>
</g>
</g>
<!-- Node1&#45;&gt;Node7 -->
<g id="edge23_Node000001_Node000007" class="edge">
<title>Node1&#45;&gt;Node7</title>
<g id="a_edge23_Node000001_Node000007"><a xlink:title=" ">
<path fill="none" stroke="#63b8ff" d="M1259.04,-38C1182.32,-38 1061.84,-38 957.5,-38 957.5,-38 957.5,-38 616,-38 506.25,-38 475.46,-41.02 372.5,-79 339.46,-91.19 305.25,-113.47 283.91,-128.75"/>
<polygon fill="#63b8ff" stroke="#63b8ff" points="1258.99,-41.5 1268.99,-38 1258.99,-34.5 1258.99,-41.5"/>
</a>
</g>
</g>
<!-- Node8 -->
<g id="Node000008" class="node">
<title>Node8</title>
<g id="a_Node000008"><a xlink:href="classinterficie_1_1_vista_partida.html#a485041b781e81c64fb5414207ff21d2a" target="_top" xlink:title="Actualitza la informació de la partida.">
<polygon fill="white" stroke="#666666" points="150.25,-268 0,-268 0,-236 150.25,-236 150.25,-268"/>
<text text-anchor="start" x="8" y="-254.5" font-family="Helvetica,sans-Serif" font-size="10.00">interficie.VistaPartida.refrescar</text>
<text text-anchor="middle" x="75.12" y="-242.5" font-family="Helvetica,sans-Serif" font-size="10.00">Informacio</text>
</a>
</g>
</g>
<!-- Node1&#45;&gt;Node8 -->
<g id="edge22_Node000001_Node000008" class="edge">
<title>Node1&#45;&gt;Node8</title>
<g id="a_edge22_Node000001_Node000008"><a xlink:title=" ">
<path fill="none" stroke="#63b8ff" d="M1259.4,-25.65C1182.85,-14.56 1062.42,0 957.5,0 957.5,0 957.5,0 447.75,0 319.87,0 287.83,-42.32 186.25,-120 141.92,-153.9 103.59,-208.71 86.15,-235.79"/>
<polygon fill="#63b8ff" stroke="#63b8ff" points="1258.46,-29.05 1268.87,-27.04 1259.48,-22.13 1258.46,-29.05"/>
</a>
</g>
</g>
<!-- Node3 -->
<g id="Node000003" class="node">
<title>Node3</title>
<g id="a_Node000003"><a xlink:href="classinterficie_1_1_vista_partida.html#acc96652063e859fc2d8d0345dfd381d5" target="_top" xlink:title="Confirma l&#39;acció d&#39;abandonar la partida.">
<polygon fill="white" stroke="#666666" points="1032.75,-249 880.25,-249 880.25,-217 1032.75,-217 1032.75,-249"/>
<text text-anchor="start" x="888.25" y="-235.5" font-family="Helvetica,sans-Serif" font-size="10.00">interficie.VistaPartida.confirmar</text>
<text text-anchor="middle" x="956.5" y="-223.5" font-family="Helvetica,sans-Serif" font-size="10.00">Abandonar</text>
</a>
</g>
</g>
<!-- Node2&#45;&gt;Node3 -->
<g id="edge2_Node000002_Node000003" class="edge">
<title>Node2&#45;&gt;Node3</title>
<g id="a_edge2_Node000002_Node000003"><a xlink:title=" ">
<path fill="none" stroke="#63b8ff" d="M1067.61,-207.93C1055.08,-210.78 1042.25,-213.7 1029.97,-216.5"/>
<polygon fill="#63b8ff" stroke="#63b8ff" points="1068.07,-211.42 1077.04,-205.78 1066.51,-204.59 1068.07,-211.42"/>
</a>
</g>
</g>
<!-- Node4 -->
<g id="Node000004" class="node">
<title>Node4</title>
<g id="a_Node000004"><a xlink:href="classinterficie_1_1_vista_partida.html#a7855e7a9cc41e1450c37054781ba6309" target="_top" xlink:title="Inicialitza els components de la interfície gràfica.">
<polygon fill="white" stroke="#666666" points="844.25,-243 709,-243 709,-223 844.25,-223 844.25,-243"/>
<text text-anchor="middle" x="776.62" y="-229.5" font-family="Helvetica,sans-Serif" font-size="10.00">interficie.VistaPartida.initUI</text>
</a>
</g>
</g>
<!-- Node2&#45;&gt;Node4 -->
<g id="edge21_Node000002_Node000004" class="edge">
<title>Node2&#45;&gt;Node4</title>
<g id="a_edge21_Node000002_Node000004"><a xlink:title=" ">
<path fill="none" stroke="#63b8ff" d="M1057.1,-191.69C1004.82,-194.16 938.65,-198.9 880.25,-208 857.96,-211.47 833.4,-217.38 813.9,-222.58"/>
<polygon fill="#63b8ff" stroke="#63b8ff" points="1057.03,-195.19 1066.86,-191.25 1056.71,-188.2 1057.03,-195.19"/>
</a>
</g>
</g>
<!-- Node3&#45;&gt;Node4 -->
<g id="edge3_Node000003_Node000004" class="edge">
<title>Node3&#45;&gt;Node4</title>
<g id="a_edge3_Node000003_Node000004"><a xlink:title=" ">
<path fill="none" stroke="#63b8ff" d="M868.47,-233C860.42,-233 852.35,-233 844.53,-233"/>
<polygon fill="#63b8ff" stroke="#63b8ff" points="868.29,-236.5 878.29,-233 868.29,-229.5 868.29,-236.5"/>
</a>
</g>
</g>
<!-- Node5 -->
<g id="Node000005" class="node">
<title>Node5</title>
<g id="a_Node000005"><a xlink:href="classinterficie_1_1_vista_partida.html#abce8626a6a3750affe851e1f8bea2cb3" target="_top" xlink:title="Constructor de la classe VistaPartida.">
<polygon fill="white" stroke="#666666" points="673,-249 561,-249 561,-217 673,-217 673,-249"/>
<text text-anchor="start" x="569" y="-235.5" font-family="Helvetica,sans-Serif" font-size="10.00">interficie.VistaPartida.</text>
<text text-anchor="middle" x="617" y="-223.5" font-family="Helvetica,sans-Serif" font-size="10.00">VistaPartida</text>
</a>
</g>
</g>
<!-- Node4&#45;&gt;Node5 -->
<g id="edge4_Node000004_Node000005" class="edge">
<title>Node4&#45;&gt;Node5</title>
<g id="a_edge4_Node000004_Node000005"><a xlink:title=" ">
<path fill="none" stroke="#63b8ff" d="M697.53,-226.25C689.26,-226.24 680.97,-226.34 673.04,-226.53"/>
<polygon fill="#63b8ff" stroke="#63b8ff" points="697.24,-229.75 707.26,-226.31 697.29,-222.75 697.24,-229.75"/>
</a>
</g>
</g>
<!-- Node5&#45;&gt;Node4 -->
<g id="edge19_Node000005_Node000004" class="edge">
<title>Node5&#45;&gt;Node4</title>
<g id="a_edge19_Node000005_Node000004"><a xlink:title=" ">
<path fill="none" stroke="#63b8ff" d="M684.32,-239.67C692.41,-239.77 700.68,-239.78 708.78,-239.68"/>
<polygon fill="#63b8ff" stroke="#63b8ff" points="684.61,-236.18 674.55,-239.5 684.48,-243.18 684.61,-236.18"/>
</a>
</g>
</g>
<!-- Node5&#45;&gt;Node5 -->
<g id="edge20_Node000005_Node000005" class="edge">
<title>Node5&#45;&gt;Node5</title>
<g id="a_edge20_Node000005_Node000005"><a xlink:title=" ">
<path fill="none" stroke="#63b8ff" d="M643.6,-260.71C639.17,-264.48 630.3,-267 617,-267 592.68,-267 583.18,-258.58 588.5,-249.44"/>
<polygon fill="#63b8ff" stroke="#63b8ff" points="647.04,-261.38 645.25,-250.94 640.13,-260.22 647.04,-261.38"/>
</a>
</g>
</g>
<!-- Node6 -->
<g id="Node000006" class="node">
<title>Node6</title>
<g id="a_Node000006"><a xlink:href="classinterficie_1_1_vista_partida.html#a6bd7550fc714ba5195c8b55ffe3d973c" target="_top" xlink:title="Afegeix les fitxes d&#39;un jugador al seu rack.">
<polygon fill="white" stroke="#666666" points="516.75,-186 380.75,-186 380.75,-154 516.75,-154 516.75,-186"/>
<text text-anchor="start" x="388.75" y="-172.5" font-family="Helvetica,sans-Serif" font-size="10.00">interficie.VistaPartida.afegir</text>
<text text-anchor="middle" x="448.75" y="-160.5" font-family="Helvetica,sans-Serif" font-size="10.00">FitxesARack</text>
</a>
</g>
</g>
<!-- Node5&#45;&gt;Node6 -->
<g id="edge5_Node000005_Node000006" class="edge">
<title>Node5&#45;&gt;Node6</title>
<g id="a_edge5_Node000005_Node000006"><a xlink:title=" ">
<path fill="none" stroke="#63b8ff" d="M562.08,-212.57C539.73,-204.1 514.16,-194.41 493.07,-186.42"/>
<polygon fill="#63b8ff" stroke="#63b8ff" points="560.75,-215.8 571.34,-216.08 563.23,-209.26 560.75,-215.8"/>
</a>
</g>
</g>
<!-- Node9 -->
<g id="Node000009" class="node">
<title>Node9</title>
<g id="a_Node000009"><a xlink:href="classinterficie_1_1_vista_partida.html#ae6809bc2e7efc03077c111367571f788" target="_top" xlink:title="Afegeix maquetes al rack de l&#39;oponent.">
<polygon fill="white" stroke="#666666" points="516.75,-136 380.75,-136 380.75,-104 516.75,-104 516.75,-136"/>
<text text-anchor="start" x="388.75" y="-122.5" font-family="Helvetica,sans-Serif" font-size="10.00">interficie.VistaPartida.afegir</text>
<text text-anchor="middle" x="448.75" y="-110.5" font-family="Helvetica,sans-Serif" font-size="10.00">MaquetesARack</text>
</a>
</g>
</g>
<!-- Node5&#45;&gt;Node9 -->
<g id="edge13_Node000005_Node000009" class="edge">
<title>Node5&#45;&gt;Node9</title>
<g id="a_edge13_Node000005_Node000009"><a xlink:title=" ">
<path fill="none" stroke="#63b8ff" d="M595.8,-208.08C578.75,-188.5 552.75,-161.81 525,-145 519.7,-141.79 513.94,-138.94 508.04,-136.41"/>
<polygon fill="#63b8ff" stroke="#63b8ff" points="593.07,-210.27 602.22,-215.62 598.41,-205.74 593.07,-210.27"/>
</a>
</g>
</g>
<!-- Node10 -->
<g id="Node000010" class="node">
<title>Node10</title>
<g id="a_Node000010"><a xlink:href="classinterficie_1_1_vista_partida.html#a8ebc9da2a2b927ba87ed97ad85ae44e8" target="_top" xlink:title="Confirma l&#39;acció de guardar la partida.">
<polygon fill="white" stroke="#666666" points="525,-350 372.5,-350 372.5,-318 525,-318 525,-350"/>
<text text-anchor="start" x="380.5" y="-336.5" font-family="Helvetica,sans-Serif" font-size="10.00">interficie.VistaPartida.confirmar</text>
<text text-anchor="middle" x="448.75" y="-324.5" font-family="Helvetica,sans-Serif" font-size="10.00">Guardar</text>
</a>
</g>
</g>
<!-- Node5&#45;&gt;Node10 -->
<g id="edge15_Node000005_Node000010" class="edge">
<title>Node5&#45;&gt;Node10</title>
<g id="a_edge15_Node000005_Node000010"><a xlink:title=" ">
<path fill="none" stroke="#63b8ff" d="M589.78,-256.72C572.33,-271.66 548.38,-290.58 525,-304 516.22,-309.04 506.42,-313.62 496.88,-317.6"/>
<polygon fill="#63b8ff" stroke="#63b8ff" points="591.89,-259.52 597.13,-250.31 587.29,-254.24 591.89,-259.52"/>
</a>
</g>
</g>
<!-- Node11 -->
<g id="Node000011" class="node">
<title>Node11</title>
<g id="a_Node000011"><a xlink:href="classinterficie_1_1_vista_partida.html#ab47b596fbbd6a79289d4b9d7f5b5e068" target="_top" xlink:title="Crea un panell amb la informació d&#39;un jugador.">
<polygon fill="white" stroke="#666666" points="328.25,-312 194.5,-312 194.5,-280 328.25,-280 328.25,-312"/>
<text text-anchor="start" x="202.5" y="-298.5" font-family="Helvetica,sans-Serif" font-size="10.00">interficie.VistaPartida.crear</text>
<text text-anchor="middle" x="261.38" y="-286.5" font-family="Helvetica,sans-Serif" font-size="10.00">PanelJugador</text>
</a>
</g>
</g>
<!-- Node5&#45;&gt;Node11 -->
<g id="edge17_Node000005_Node000011" class="edge">
<title>Node5&#45;&gt;Node11</title>
<g id="a_edge17_Node000005_Node000011"><a xlink:title=" ">
<path fill="none" stroke="#63b8ff" d="M566.78,-253.23C553.41,-258.06 538.81,-262.75 525,-266 459.22,-281.46 382.22,-289.06 328.68,-292.73"/>
<polygon fill="#63b8ff" stroke="#63b8ff" points="567.63,-256.64 575.77,-249.87 565.18,-250.08 567.63,-256.64"/>
</a>
</g>
</g>
<!-- Node6&#45;&gt;Node7 -->
<g id="edge6_Node000006_Node000007" class="edge">
<title>Node6&#45;&gt;Node7</title>
<g id="a_edge6_Node000006_Node000007"><a xlink:title=" ">
<path fill="none" stroke="#63b8ff" d="M368.93,-159.37C358.34,-157.94 347.5,-156.48 336.98,-155.06"/>
<polygon fill="#63b8ff" stroke="#63b8ff" points="368.42,-162.83 378.8,-160.7 369.36,-155.9 368.42,-162.83"/>
</a>
</g>
</g>
<!-- Node7&#45;&gt;Node4 -->
<g id="edge7_Node000007_Node000004" class="edge">
<title>Node7&#45;&gt;Node4</title>
<g id="a_edge7_Node000007_Node000004"><a xlink:title=" ">
<path fill="none" stroke="#63b8ff" d="M299.7,-123.23C320.4,-112.42 347.04,-100.51 372.5,-95 438.74,-80.67 459.36,-78.12 525,-95 624.58,-120.6 726.99,-195.03 762.54,-222.58"/>
<polygon fill="#63b8ff" stroke="#63b8ff" points="298.23,-120.05 291.08,-127.87 301.55,-126.21 298.23,-120.05"/>
</a>
</g>
</g>
<!-- Node7&#45;&gt;Node5 -->
<g id="edge12_Node000007_Node000005" class="edge">
<title>Node7&#45;&gt;Node5</title>
<g id="a_edge12_Node000007_Node000005"><a xlink:title=" ">
<path fill="none" stroke="#63b8ff" d="M302.55,-166.43C322.99,-176.49 348.52,-187.83 372.5,-195 435.63,-213.87 510.92,-223.79 560.9,-228.7"/>
<polygon fill="#63b8ff" stroke="#63b8ff" points="304.23,-163.35 293.72,-161.99 301.08,-169.61 304.23,-163.35"/>
</a>
</g>
</g>
<!-- Node7&#45;&gt;Node8 -->
<g id="edge8_Node000007_Node000008" class="edge">
<title>Node7&#45;&gt;Node8</title>
<g id="a_edge8_Node000007_Node000008"><a xlink:title=" ">
<path fill="none" stroke="#63b8ff" d="M222.09,-167.23C186.96,-187.63 135.73,-217.38 104.24,-235.67"/>
<polygon fill="#63b8ff" stroke="#63b8ff" points="223.79,-170.29 230.68,-162.24 220.28,-164.24 223.79,-170.29"/>
</a>
</g>
</g>
<!-- Node8&#45;&gt;Node4 -->
<g id="edge9_Node000008_Node000004" class="edge">
<title>Node8&#45;&gt;Node4</title>
<g id="a_edge9_Node000008_Node000004"><a xlink:title=" ">
<path fill="none" stroke="#63b8ff" d="M106.38,-275.13C127.65,-290.32 157.37,-309.45 186.25,-321 326.91,-377.26 375.73,-384.92 525,-359 593.84,-347.05 611.06,-338.33 673,-306 708.08,-287.69 744.86,-258.78 763.39,-243.41"/>
<polygon fill="#63b8ff" stroke="#63b8ff" points="108.6,-272.42 98.45,-269.36 104.48,-278.08 108.6,-272.42"/>
</a>
</g>
</g>
<!-- Node8&#45;&gt;Node5 -->
<g id="edge11_Node000008_Node000005" class="edge">
<title>Node8&#45;&gt;Node5</title>
<g id="a_edge11_Node000008_Node000005"><a xlink:title=" ">
<path fill="none" stroke="#63b8ff" d="M161.73,-248.99C273.52,-245.05 466.08,-238.28 560.51,-234.95"/>
<polygon fill="#63b8ff" stroke="#63b8ff" points="161.88,-245.48 152.01,-249.33 162.13,-252.48 161.88,-245.48"/>
</a>
</g>
</g>
<!-- Node8&#45;&gt;Node8 -->
<g id="edge10_Node000008_Node000008" class="edge">
<title>Node8&#45;&gt;Node8</title>
<g id="a_edge10_Node000008_Node000008"><a xlink:title=" ">
<path fill="none" stroke="#63b8ff" d="M106.16,-279.71C100.99,-283.48 90.64,-286 75.12,-286 46.75,-286 35.67,-277.58 41.87,-268.44"/>
<polygon fill="#63b8ff" stroke="#63b8ff" points="109.59,-280.42 108.08,-269.93 102.72,-279.07 109.59,-280.42"/>
</a>
</g>
</g>
<!-- Node9&#45;&gt;Node7 -->
<g id="edge14_Node000009_Node000007" class="edge">
<title>Node9&#45;&gt;Node7</title>
<g id="a_edge14_Node000009_Node000007"><a xlink:title=" ">
<path fill="none" stroke="#63b8ff" d="M368.93,-130.63C358.34,-132.06 347.5,-133.52 336.98,-134.94"/>
<polygon fill="#63b8ff" stroke="#63b8ff" points="369.36,-134.1 378.8,-129.3 368.42,-127.17 369.36,-134.1"/>
</a>
</g>
</g>
<!-- Node10&#45;&gt;Node4 -->
<g id="edge16_Node000010_Node000004" class="edge">
<title>Node10&#45;&gt;Node4</title>
<g id="a_edge16_Node000010_Node000004"><a xlink:title=" ">
<path fill="none" stroke="#63b8ff" d="M534.95,-314.89C576.94,-304.71 628.07,-291.16 673,-276 701.37,-266.43 733.01,-252.68 753.56,-243.33"/>
<polygon fill="#63b8ff" stroke="#63b8ff" points="534.31,-311.44 525.4,-317.18 535.94,-318.25 534.31,-311.44"/>
</a>
</g>
</g>
<!-- Node11&#45;&gt;Node8 -->
<g id="edge18_Node000011_Node000008" class="edge">
<title>Node11&#45;&gt;Node8</title>
<g id="a_edge18_Node000011_Node000008"><a xlink:title=" ">
<path fill="none" stroke="#63b8ff" d="M183.17,-277.56C170.57,-274.56 157.6,-271.46 145.21,-268.5"/>
<polygon fill="#63b8ff" stroke="#63b8ff" points="182.11,-280.91 192.64,-279.83 183.73,-274.1 182.11,-280.91"/>
</a>
</g>
</g>
</g>
</svg>

<g id="navigator" transform="translate(0 0)" fill="#404254">
  <rect fill="#f2f5e9" fill-opacity="0.5" stroke="#606060" stroke-width=".5" x="0" y="0" width="60" height="60"/>
  <use id="zoomplus" xlink:href="#zoomPlus" x="17" y="9" onmousedown="handleZoom(evt,'in')"/>
  <use id="zoomminus" xlink:href="#zoomMin" x="42" y="9" onmousedown="handleZoom(evt,'out')"/>
  <use id="reset" xlink:href="#resetDef" x="30" y="36" onmousedown="handleReset()"/>
   <use id="arrowup" xlink:href="#arrowUp" x="0" y="0" onmousedown="handlePan(0,-1)"/>
  <use id="arrowright" xlink:href="#arrowRight" x="0" y="0" onmousedown="handlePan(1,0)"/>
  <use id="arrowdown" xlink:href="#arrowDown" x="0" y="0" onmousedown="handlePan(0,1)"/>
  <use id="arrowleft" xlink:href="#arrowLeft" x="0" y="0" onmousedown="handlePan(-1,0)"/>
</g>
<svg viewBox="0 0 15 15" width="100%" height="30px" preserveAspectRatio="xMaxYMin meet">
 <g id="arrow_out" transform="scale(0.3 0.3)">
  <a xlink:href="classdomini_1_1scrabble_1_1_partida_a0b74d361ee022b4e90911616286443aa_icgraph_org.svg" target="_base">
   <rect id="button" ry="5" rx="5" y="6" x="6" height="38" width="38"
        fill="#f2f5e9" fill-opacity="0.5" stroke="#606060" stroke-width="1.0"/>
   <path id="arrow"
     d="M 11.500037,31.436501 C 11.940474,20.09759 22.043105,11.32322 32.158766,21.979434 L 37.068811,17.246167 C 37.068811,17.246167 37.088388,32 37.088388,32 L 22.160133,31.978069 C 22.160133,31.978069 26.997745,27.140456 26.997745,27.140456 C 18.528582,18.264221 13.291696,25.230495 11.500037,31.436501 z"
     style="fill:#404040;"/>
  </a>
 </g>
</svg>

<style type='text/css'>
<![CDATA[
[data-mouse-over-selected='false'] { opacity: 0.7; }
[data-mouse-over-selected='true']  { opacity: 1.0; }
]]>
</style>
<script type="application/ecmascript"><![CDATA[
document.addEventListener('DOMContentLoaded', (event) => {
  highlightEdges();
  highlightAdjacentNodes();
});
]]></script>
</svg>
