<?xml version="1.0" encoding="UTF-8" standalone="no"?>
<!DOCTYPE svg PUBLIC "-//W3C//DTD SVG 1.1//EN"
 "http://www.w3.org/Graphics/SVG/1.1/DTD/svg11.dtd">
<!-- Generated by graphviz version 12.2.1 (20241206.2353)
 -->
<!-- Title: domini.scrabble.Estat Pages: 1 -->
<svg width="470pt" height="308pt"
 viewBox="0.00 0.00 470.12 308.00" xmlns="http://www.w3.org/2000/svg" xmlns:xlink="http://www.w3.org/1999/xlink">
<g id="graph0" class="graph" transform="scale(1 1) rotate(0) translate(4 304)">
<title>domini.scrabble.Estat</title>
<!-- Node1 -->
<g id="Node000001" class="node">
<title>Node1</title>
<g id="a_Node000001"><a xlink:title="Classe abstracta que defineix el comportament genèric per als diferents estats d&#39;una partida.">
<polygon fill="#999999" stroke="none" points="280,-300 177.5,-300 177.5,-168 280,-168 280,-300"/>
<text text-anchor="start" x="181.5" y="-286.5" font-family="Helvetica,sans-Serif" font-size="10.00">domini.scrabble.Estat</text>
<text text-anchor="start" x="190.44" y="-270.5" font-family="Helvetica,sans-Serif" font-size="10.00">#</text>
<text text-anchor="start" x="208.62" y="-270.5" font-family="Helvetica,sans-Serif" font-size="10.00">partida</text>
<text text-anchor="start" x="190.06" y="-254.5" font-family="Helvetica,sans-Serif" font-size="10.00">+</text>
<text text-anchor="start" x="208.62" y="-254.5" font-family="Helvetica,sans-Serif" font-size="10.00">Estat()</text>
<text text-anchor="start" x="190.06" y="-238.5" font-family="Helvetica,sans-Serif" font-size="10.00">+</text>
<text text-anchor="start" x="208.62" y="-238.5" font-family="Helvetica,sans-Serif" font-size="10.00">setPartida()</text>
<text text-anchor="start" x="190.06" y="-222.5" font-family="Helvetica,sans-Serif" font-size="10.00">+</text>
<text text-anchor="start" x="208.62" y="-222.5" font-family="Helvetica,sans-Serif" font-size="10.00">iniciar()</text>
<text text-anchor="start" x="190.06" y="-206.5" font-family="Helvetica,sans-Serif" font-size="10.00">+</text>
<text text-anchor="start" x="208.62" y="-206.5" font-family="Helvetica,sans-Serif" font-size="10.00">encurs()</text>
<text text-anchor="start" x="190.06" y="-190.5" font-family="Helvetica,sans-Serif" font-size="10.00">+</text>
<text text-anchor="start" x="208.62" y="-190.5" font-family="Helvetica,sans-Serif" font-size="10.00">pausar()</text>
<text text-anchor="start" x="190.06" y="-174.5" font-family="Helvetica,sans-Serif" font-size="10.00">+</text>
<text text-anchor="start" x="208.62" y="-174.5" font-family="Helvetica,sans-Serif" font-size="10.00">finalitzar()</text>
<polygon fill="#666666" stroke="#666666" points="177.5,-282 177.5,-282 280,-282 280,-282 177.5,-282"/>
<polygon fill="#666666" stroke="#666666" points="177.5,-266 177.5,-266 206.62,-266 206.62,-266 177.5,-266"/>
<polygon fill="#666666" stroke="#666666" points="206.62,-266 206.62,-266 280,-266 280,-266 206.62,-266"/>
<polygon fill="none" stroke="#666666" points="177.5,-168 177.5,-300 280,-300 280,-168 177.5,-168"/>
</a>
</g>
</g>
<!-- Node2 -->
<g id="Node000002" class="node">
<title>Node2</title>
<g id="a_Node000002"><a xlink:href="classdomini_1_1scrabble_1_1_estat_en_curs.html" target="_top" xlink:title="Representa l&#39;estat &#39;EnCurs&#39; d&#39;una partida.">
<polygon fill="white" stroke="none" points="135.5,-132 0,-132 0,0 135.5,0 135.5,-132"/>
<text text-anchor="start" x="4" y="-118.5" font-family="Helvetica,sans-Serif" font-size="10.00">domini.scrabble.EstatEnCurs</text>
<text text-anchor="start" x="66.25" y="-102.5" font-family="Helvetica,sans-Serif" font-size="10.00"> </text>
<text text-anchor="start" x="17.81" y="-86.5" font-family="Helvetica,sans-Serif" font-size="10.00">+</text>
<text text-anchor="start" x="41.62" y="-86.5" font-family="Helvetica,sans-Serif" font-size="10.00">EstatEnCurs()</text>
<text text-anchor="start" x="17.81" y="-70.5" font-family="Helvetica,sans-Serif" font-size="10.00">+</text>
<text text-anchor="start" x="41.62" y="-70.5" font-family="Helvetica,sans-Serif" font-size="10.00">EstatEnCurs()</text>
<text text-anchor="start" x="17.81" y="-54.5" font-family="Helvetica,sans-Serif" font-size="10.00">+</text>
<text text-anchor="start" x="41.62" y="-54.5" font-family="Helvetica,sans-Serif" font-size="10.00">iniciar()</text>
<text text-anchor="start" x="17.81" y="-38.5" font-family="Helvetica,sans-Serif" font-size="10.00">+</text>
<text text-anchor="start" x="41.62" y="-38.5" font-family="Helvetica,sans-Serif" font-size="10.00">pausar()</text>
<text text-anchor="start" x="17.81" y="-22.5" font-family="Helvetica,sans-Serif" font-size="10.00">+</text>
<text text-anchor="start" x="41.62" y="-22.5" font-family="Helvetica,sans-Serif" font-size="10.00">encurs()</text>
<text text-anchor="start" x="17.81" y="-6.5" font-family="Helvetica,sans-Serif" font-size="10.00">+</text>
<text text-anchor="start" x="41.62" y="-6.5" font-family="Helvetica,sans-Serif" font-size="10.00">finalitzar()</text>
<polygon fill="#666666" stroke="#666666" points="0,-114 0,-114 135.5,-114 135.5,-114 0,-114"/>
<polygon fill="#666666" stroke="#666666" points="0,-98 0,-98 135.5,-98 135.5,-98 0,-98"/>
<polygon fill="none" stroke="#666666" points="0,0 0,-132 135.5,-132 135.5,0 0,0"/>
</a>
</g>
</g>
<!-- Node1&#45;&gt;Node2 -->
<g id="edge1_Node000001_Node000002" class="edge">
<title>Node1&#45;&gt;Node2</title>
<g id="a_edge1_Node000001_Node000002"><a xlink:title=" ">
<path fill="none" stroke="#63b8ff" d="M169.94,-172.36C157.11,-159.14 143.49,-145.09 130.52,-131.71"/>
<polygon fill="none" stroke="#63b8ff" points="167.28,-174.65 176.75,-179.39 172.31,-169.77 167.28,-174.65"/>
</a>
</g>
</g>
<!-- Node3 -->
<g id="Node000003" class="node">
<title>Node3</title>
<g id="a_Node000003"><a xlink:href="classdomini_1_1scrabble_1_1_estat_finalitzada.html" target="_top" xlink:title="Representa l&#39;estat &#39;Finalitzada&#39; d&#39;una partida.">
<polygon fill="white" stroke="none" points="303.62,-124 153.88,-124 153.88,-8 303.62,-8 303.62,-124"/>
<text text-anchor="start" x="157.88" y="-110.5" font-family="Helvetica,sans-Serif" font-size="10.00">domini.scrabble.EstatFinalitzada</text>
<text text-anchor="start" x="227.25" y="-94.5" font-family="Helvetica,sans-Serif" font-size="10.00"> </text>
<text text-anchor="start" x="171.69" y="-78.5" font-family="Helvetica,sans-Serif" font-size="10.00">+</text>
<text text-anchor="start" x="195.5" y="-78.5" font-family="Helvetica,sans-Serif" font-size="10.00">EstatFinalitzada()</text>
<text text-anchor="start" x="171.69" y="-62.5" font-family="Helvetica,sans-Serif" font-size="10.00">+</text>
<text text-anchor="start" x="195.5" y="-62.5" font-family="Helvetica,sans-Serif" font-size="10.00">iniciar()</text>
<text text-anchor="start" x="171.69" y="-46.5" font-family="Helvetica,sans-Serif" font-size="10.00">+</text>
<text text-anchor="start" x="195.5" y="-46.5" font-family="Helvetica,sans-Serif" font-size="10.00">pausar()</text>
<text text-anchor="start" x="171.69" y="-30.5" font-family="Helvetica,sans-Serif" font-size="10.00">+</text>
<text text-anchor="start" x="195.5" y="-30.5" font-family="Helvetica,sans-Serif" font-size="10.00">encurs()</text>
<text text-anchor="start" x="171.69" y="-14.5" font-family="Helvetica,sans-Serif" font-size="10.00">+</text>
<text text-anchor="start" x="195.5" y="-14.5" font-family="Helvetica,sans-Serif" font-size="10.00">finalitzar()</text>
<polygon fill="#666666" stroke="#666666" points="153.88,-106 153.88,-106 303.62,-106 303.62,-106 153.88,-106"/>
<polygon fill="#666666" stroke="#666666" points="153.88,-90 153.88,-90 303.62,-90 303.62,-90 153.88,-90"/>
<polygon fill="none" stroke="#666666" points="153.88,-8 153.88,-124 303.62,-124 303.62,-8 153.88,-8"/>
</a>
</g>
</g>
<!-- Node1&#45;&gt;Node3 -->
<g id="edge2_Node000001_Node000003" class="edge">
<title>Node1&#45;&gt;Node3</title>
<g id="a_edge2_Node000001_Node000003"><a xlink:title=" ">
<path fill="none" stroke="#63b8ff" d="M228.75,-156.88C228.75,-145.79 228.75,-134.54 228.75,-123.92"/>
<polygon fill="none" stroke="#63b8ff" points="225.25,-156.83 228.75,-166.83 232.25,-156.83 225.25,-156.83"/>
</a>
</g>
</g>
<!-- Node4 -->
<g id="Node000004" class="node">
<title>Node4</title>
<g id="a_Node000004"><a xlink:href="classdomini_1_1scrabble_1_1_estat_pausada.html" target="_top" xlink:title="Representa l&#39;estat &#39;Pausada&#39; d&#39;una partida.">
<polygon fill="white" stroke="none" points="462.12,-124 321.38,-124 321.38,-8 462.12,-8 462.12,-124"/>
<text text-anchor="start" x="325.38" y="-110.5" font-family="Helvetica,sans-Serif" font-size="10.00">domini.scrabble.EstatPausada</text>
<text text-anchor="start" x="390.25" y="-94.5" font-family="Helvetica,sans-Serif" font-size="10.00"> </text>
<text text-anchor="start" x="339.19" y="-78.5" font-family="Helvetica,sans-Serif" font-size="10.00">+</text>
<text text-anchor="start" x="363" y="-78.5" font-family="Helvetica,sans-Serif" font-size="10.00">EstatPausada()</text>
<text text-anchor="start" x="339.19" y="-62.5" font-family="Helvetica,sans-Serif" font-size="10.00">+</text>
<text text-anchor="start" x="363" y="-62.5" font-family="Helvetica,sans-Serif" font-size="10.00">iniciar()</text>
<text text-anchor="start" x="339.19" y="-46.5" font-family="Helvetica,sans-Serif" font-size="10.00">+</text>
<text text-anchor="start" x="363" y="-46.5" font-family="Helvetica,sans-Serif" font-size="10.00">pausar()</text>
<text text-anchor="start" x="339.19" y="-30.5" font-family="Helvetica,sans-Serif" font-size="10.00">+</text>
<text text-anchor="start" x="363" y="-30.5" font-family="Helvetica,sans-Serif" font-size="10.00">encurs()</text>
<text text-anchor="start" x="339.19" y="-14.5" font-family="Helvetica,sans-Serif" font-size="10.00">+</text>
<text text-anchor="start" x="363" y="-14.5" font-family="Helvetica,sans-Serif" font-size="10.00">finalitzar()</text>
<polygon fill="#666666" stroke="#666666" points="321.38,-106 321.38,-106 462.12,-106 462.12,-106 321.38,-106"/>
<polygon fill="#666666" stroke="#666666" points="321.38,-90 321.38,-90 462.12,-90 462.12,-90 321.38,-90"/>
<polygon fill="none" stroke="#666666" points="321.38,-8 321.38,-124 462.12,-124 462.12,-8 321.38,-8"/>
</a>
</g>
</g>
<!-- Node1&#45;&gt;Node4 -->
<g id="edge3_Node000001_Node000004" class="edge">
<title>Node1&#45;&gt;Node4</title>
<g id="a_edge3_Node000001_Node000004"><a xlink:title=" ">
<path fill="none" stroke="#63b8ff" d="M287.52,-173.15C303.32,-157.05 320.36,-139.7 336,-123.78"/>
<polygon fill="none" stroke="#63b8ff" points="285.45,-170.26 280.94,-179.85 290.44,-175.17 285.45,-170.26"/>
</a>
</g>
</g>
</g>
</svg>
