<?xml version="1.0" encoding="UTF-8" standalone="no"?>
<!DOCTYPE svg PUBLIC "-//W3C//DTD SVG 1.1//EN"
 "http://www.w3.org/Graphics/SVG/1.1/DTD/svg11.dtd">
<!-- Generated by graphviz version 12.2.1 (20241206.2353)
 -->
<!-- Title: interficie.VistaConsultarEstadistiques.afegirListenerLlista Pages: 1 -->
<svg width="570pt" height="428pt"
 viewBox="0.00 0.00 569.75 428.00" xmlns="http://www.w3.org/2000/svg" xmlns:xlink="http://www.w3.org/1999/xlink">
<g id="graph0" class="graph" transform="scale(1 1) rotate(0) translate(4 424)">
<title>interficie.VistaConsultarEstadistiques.afegirListenerLlista</title>
<!-- Node1 -->
<g id="Node000001" class="node">
<title>Node1</title>
<g id="a_Node000001"><a xlink:title="Afegeix un listener a la llista per mostrar estadístiques quan es selecciona un avatar.">
<polygon fill="#999999" stroke="#666666" points="160,-232 0,-232 0,-200 160,-200 160,-232"/>
<text text-anchor="start" x="8" y="-218.5" font-family="Helvetica,sans-Serif" font-size="10.00">interficie.VistaConsultar</text>
<text text-anchor="middle" x="80" y="-206.5" font-family="Helvetica,sans-Serif" font-size="10.00">Estadistiques.afegirListenerLlista</text>
</a>
</g>
</g>
<!-- Node2 -->
<g id="Node000002" class="node">
<title>Node2</title>
<g id="a_Node000002"><a xlink:href="$classinterficie_1_1_vista_consultar_estadistiques.html#a2d04a42f93b8d16629d5795a935ae87e" xlink:title="Mostra les estadístiques d’un avatar seleccionat a l’àrea d’estadístiques.">
<polygon fill="white" stroke="#666666" points="366.5,-232 196,-232 196,-200 366.5,-200 366.5,-232"/>
<text text-anchor="start" x="204" y="-218.5" font-family="Helvetica,sans-Serif" font-size="10.00">interficie.VistaConsultar</text>
<text text-anchor="middle" x="281.25" y="-206.5" font-family="Helvetica,sans-Serif" font-size="10.00">Estadistiques.mostrarEstadistiques</text>
</a>
</g>
</g>
<!-- Node1&#45;&gt;Node2 -->
<g id="edge1_Node000001_Node000002" class="edge">
<title>Node1&#45;&gt;Node2</title>
<g id="a_edge1_Node000001_Node000002"><a xlink:title=" ">
<path fill="none" stroke="#63b8ff" d="M160.32,-216C168.21,-216 176.28,-216 184.32,-216"/>
<polygon fill="#63b8ff" stroke="#63b8ff" points="184.13,-219.5 194.13,-216 184.13,-212.5 184.13,-219.5"/>
</a>
</g>
</g>
<!-- Node3 -->
<g id="Node000003" class="node">
<title>Node3</title>
<g id="a_Node000003"><a xlink:href="$classdomini_1_1jugadors_1_1_jugador.html#abd263319ed47cf1469e301659e15dd26" xlink:title="Retorna el nom del jugador.">
<polygon fill="white" stroke="#666666" points="561.75,-420 402.5,-420 402.5,-400 561.75,-400 561.75,-420"/>
<text text-anchor="middle" x="482.12" y="-406.5" font-family="Helvetica,sans-Serif" font-size="10.00">domini.jugadors.Jugador.getNom</text>
</a>
</g>
</g>
<!-- Node2&#45;&gt;Node3 -->
<g id="edge2_Node000002_Node000003" class="edge">
<title>Node2&#45;&gt;Node3</title>
<g id="a_edge2_Node000002_Node000003"><a xlink:title=" ">
<path fill="none" stroke="#63b8ff" d="M288.6,-232.24C303.13,-267.14 342.23,-349.51 402.5,-391 404.44,-392.34 406.47,-393.58 408.56,-394.74"/>
<polygon fill="#63b8ff" stroke="#63b8ff" points="406.83,-397.79 417.37,-398.89 409.82,-391.46 406.83,-397.79"/>
</a>
</g>
</g>
<!-- Node4 -->
<g id="Node000004" class="node">
<title>Node4</title>
<g id="a_Node000004"><a xlink:href="$classdomini_1_1jugadors_1_1_avatar.html#ae03a80bc5530cb674e348c164d5bce96" xlink:title="Obté el nombre de partides abandonades.">
<polygon fill="white" stroke="#666666" points="548.25,-382 416,-382 416,-350 548.25,-350 548.25,-382"/>
<text text-anchor="start" x="424" y="-368.5" font-family="Helvetica,sans-Serif" font-size="10.00">domini.jugadors.Avatar.get</text>
<text text-anchor="middle" x="482.12" y="-356.5" font-family="Helvetica,sans-Serif" font-size="10.00">Partides_abandonades</text>
</a>
</g>
</g>
<!-- Node2&#45;&gt;Node4 -->
<g id="edge3_Node000002_Node000004" class="edge">
<title>Node2&#45;&gt;Node4</title>
<g id="a_edge3_Node000002_Node000004"><a xlink:title=" ">
<path fill="none" stroke="#63b8ff" d="M293.64,-232.29C313.01,-258.84 354.94,-311.42 402.5,-341 404.62,-342.32 406.83,-343.58 409.08,-344.77"/>
<polygon fill="#63b8ff" stroke="#63b8ff" points="407.37,-347.84 417.91,-348.98 410.39,-341.52 407.37,-347.84"/>
</a>
</g>
</g>
<!-- Node5 -->
<g id="Node000005" class="node">
<title>Node5</title>
<g id="a_Node000005"><a xlink:href="$classdomini_1_1jugadors_1_1_avatar.html#a09267d0c45d69d64bb99bdccc476f37f" xlink:title="Obté el nombre total de partides guanyades.">
<polygon fill="white" stroke="#666666" points="548.25,-332 416,-332 416,-300 548.25,-300 548.25,-332"/>
<text text-anchor="start" x="424" y="-318.5" font-family="Helvetica,sans-Serif" font-size="10.00">domini.jugadors.Avatar.get</text>
<text text-anchor="middle" x="482.12" y="-306.5" font-family="Helvetica,sans-Serif" font-size="10.00">Partides_guanyades</text>
</a>
</g>
</g>
<!-- Node2&#45;&gt;Node5 -->
<g id="edge4_Node000002_Node000005" class="edge">
<title>Node2&#45;&gt;Node5</title>
<g id="a_edge4_Node000002_Node000005"><a xlink:title=" ">
<path fill="none" stroke="#63b8ff" d="M304.78,-232.46C328.25,-249.01 366.54,-274.39 402.5,-291 405.99,-292.61 409.61,-294.16 413.29,-295.64"/>
<polygon fill="#63b8ff" stroke="#63b8ff" points="411.79,-298.81 422.38,-299.09 414.27,-292.27 411.79,-298.81"/>
</a>
</g>
</g>
<!-- Node6 -->
<g id="Node000006" class="node">
<title>Node6</title>
<g id="a_Node000006"><a xlink:href="$classdomini_1_1jugadors_1_1_avatar.html#ab4f6aa10583b4cefd2fefcad13ef0a1d" xlink:title="Obté el nombre de partides guanyades contra altres jugadors.">
<polygon fill="white" stroke="#666666" points="552.75,-282 411.5,-282 411.5,-250 552.75,-250 552.75,-282"/>
<text text-anchor="start" x="419.5" y="-268.5" font-family="Helvetica,sans-Serif" font-size="10.00">domini.jugadors.Avatar.get</text>
<text text-anchor="middle" x="482.12" y="-256.5" font-family="Helvetica,sans-Serif" font-size="10.00">Partides_guanyades_jugador</text>
</a>
</g>
</g>
<!-- Node2&#45;&gt;Node6 -->
<g id="edge5_Node000002_Node000006" class="edge">
<title>Node2&#45;&gt;Node6</title>
<g id="a_edge5_Node000002_Node000006"><a xlink:title=" ">
<path fill="none" stroke="#63b8ff" d="M347.64,-232.44C365.91,-237.03 385.92,-242.06 404.76,-246.8"/>
<polygon fill="#63b8ff" stroke="#63b8ff" points="403.67,-250.14 414.22,-249.18 405.38,-243.35 403.67,-250.14"/>
</a>
</g>
</g>
<!-- Node7 -->
<g id="Node000007" class="node">
<title>Node7</title>
<g id="a_Node000007"><a xlink:href="$classdomini_1_1jugadors_1_1_avatar.html#aab66b96891906cf55c60e50ff8b8096d" xlink:title="Obté el nombre de partides guanyades contra la màquina.">
<polygon fill="white" stroke="#666666" points="555.38,-232 408.88,-232 408.88,-200 555.38,-200 555.38,-232"/>
<text text-anchor="start" x="416.88" y="-218.5" font-family="Helvetica,sans-Serif" font-size="10.00">domini.jugadors.Avatar.get</text>
<text text-anchor="middle" x="482.12" y="-206.5" font-family="Helvetica,sans-Serif" font-size="10.00">Partides_guanyades_maquina</text>
</a>
</g>
</g>
<!-- Node2&#45;&gt;Node7 -->
<g id="edge6_Node000002_Node000007" class="edge">
<title>Node2&#45;&gt;Node7</title>
<g id="a_edge6_Node000002_Node000007"><a xlink:title=" ">
<path fill="none" stroke="#63b8ff" d="M366.88,-216C376.94,-216 387.21,-216 397.26,-216"/>
<polygon fill="#63b8ff" stroke="#63b8ff" points="396.98,-219.5 406.98,-216 396.98,-212.5 396.98,-219.5"/>
</a>
</g>
</g>
<!-- Node8 -->
<g id="Node000008" class="node">
<title>Node8</title>
<g id="a_Node000008"><a xlink:href="$classdomini_1_1jugadors_1_1_avatar.html#a71b0c5addcb4d9e43dde6f2b21319849" xlink:title="Obté el nombre de partides jugades contra altres jugadors.">
<polygon fill="white" stroke="#666666" points="548.25,-182 416,-182 416,-150 548.25,-150 548.25,-182"/>
<text text-anchor="start" x="424" y="-168.5" font-family="Helvetica,sans-Serif" font-size="10.00">domini.jugadors.Avatar.get</text>
<text text-anchor="middle" x="482.12" y="-156.5" font-family="Helvetica,sans-Serif" font-size="10.00">Partides_jugades_jugador</text>
</a>
</g>
</g>
<!-- Node2&#45;&gt;Node8 -->
<g id="edge7_Node000002_Node000008" class="edge">
<title>Node2&#45;&gt;Node8</title>
<g id="a_edge7_Node000002_Node000008"><a xlink:title=" ">
<path fill="none" stroke="#63b8ff" d="M347.64,-199.56C365.91,-194.97 385.92,-189.94 404.76,-185.2"/>
<polygon fill="#63b8ff" stroke="#63b8ff" points="405.38,-188.65 414.22,-182.82 403.67,-181.86 405.38,-188.65"/>
</a>
</g>
</g>
<!-- Node9 -->
<g id="Node000009" class="node">
<title>Node9</title>
<g id="a_Node000009"><a xlink:href="$classdomini_1_1jugadors_1_1_avatar.html#a9e6ce3724548357bff45d01a82757e98" xlink:title="Obté el nombre de partides jugades contra la màquina.">
<polygon fill="white" stroke="#666666" points="548.62,-132 415.62,-132 415.62,-100 548.62,-100 548.62,-132"/>
<text text-anchor="start" x="423.62" y="-118.5" font-family="Helvetica,sans-Serif" font-size="10.00">domini.jugadors.Avatar.get</text>
<text text-anchor="middle" x="482.12" y="-106.5" font-family="Helvetica,sans-Serif" font-size="10.00">Partides_jugades_maquina</text>
</a>
</g>
</g>
<!-- Node2&#45;&gt;Node9 -->
<g id="edge8_Node000002_Node000009" class="edge">
<title>Node2&#45;&gt;Node9</title>
<g id="a_edge8_Node000002_Node000009"><a xlink:title=" ">
<path fill="none" stroke="#63b8ff" d="M304.78,-199.54C328.25,-182.99 366.54,-157.61 402.5,-141 405.99,-139.39 409.61,-137.84 413.29,-136.36"/>
<polygon fill="#63b8ff" stroke="#63b8ff" points="414.27,-139.73 422.38,-132.91 411.79,-133.19 414.27,-139.73"/>
</a>
</g>
</g>
<!-- Node10 -->
<g id="Node000010" class="node">
<title>Node10</title>
<g id="a_Node000010"><a xlink:href="$classdomini_1_1jugadors_1_1_avatar.html#a36dd848bbc2c712120c9c53d892cc5fd" xlink:title="Obté el nombre total de partides jugades.">
<polygon fill="white" stroke="#666666" points="548.25,-82 416,-82 416,-50 548.25,-50 548.25,-82"/>
<text text-anchor="start" x="424" y="-68.5" font-family="Helvetica,sans-Serif" font-size="10.00">domini.jugadors.Avatar.get</text>
<text text-anchor="middle" x="482.12" y="-56.5" font-family="Helvetica,sans-Serif" font-size="10.00">PartidesJugades</text>
</a>
</g>
</g>
<!-- Node2&#45;&gt;Node10 -->
<g id="edge9_Node000002_Node000010" class="edge">
<title>Node2&#45;&gt;Node10</title>
<g id="a_edge9_Node000002_Node000010"><a xlink:title=" ">
<path fill="none" stroke="#63b8ff" d="M293.64,-199.71C313.01,-173.16 354.94,-120.58 402.5,-91 404.62,-89.68 406.83,-88.42 409.08,-87.23"/>
<polygon fill="#63b8ff" stroke="#63b8ff" points="410.39,-90.48 417.91,-83.02 407.37,-84.16 410.39,-90.48"/>
</a>
</g>
</g>
<!-- Node11 -->
<g id="Node000011" class="node">
<title>Node11</title>
<g id="a_Node000011"><a xlink:href="$classdomini_1_1jugadors_1_1_avatar.html#a34ab1967919207e6fbee5a4893579dc5" xlink:title="Obté la puntuació màxima obtinguda en una paraula.">
<polygon fill="white" stroke="#666666" points="548.25,-32 416,-32 416,0 548.25,0 548.25,-32"/>
<text text-anchor="start" x="424" y="-18.5" font-family="Helvetica,sans-Serif" font-size="10.00">domini.jugadors.Avatar.get</text>
<text text-anchor="middle" x="482.12" y="-6.5" font-family="Helvetica,sans-Serif" font-size="10.00">Puntuacio_max_paraula</text>
</a>
</g>
</g>
<!-- Node2&#45;&gt;Node11 -->
<g id="edge10_Node000002_Node000011" class="edge">
<title>Node2&#45;&gt;Node11</title>
<g id="a_edge10_Node000002_Node000011"><a xlink:title=" ">
<path fill="none" stroke="#63b8ff" d="M289.06,-199.56C304.21,-164.98 344.03,-84.38 402.5,-41 403.87,-39.99 405.27,-39.01 406.72,-38.08"/>
<polygon fill="#63b8ff" stroke="#63b8ff" points="408.38,-41.16 415.37,-33.2 404.94,-35.06 408.38,-41.16"/>
</a>
</g>
</g>
</g>
</svg>
