<?xml version="1.0" encoding="UTF-8" standalone="no"?>
<!DOCTYPE svg PUBLIC "-//W3C//DTD SVG 1.1//EN"
 "http://www.w3.org/Graphics/SVG/1.1/DTD/svg11.dtd">
<!-- Generated by graphviz version 12.2.1 (20241206.2353)
 -->
<!-- Title: drivers.Driver.main Pages: 1 -->
<svg width="1299pt" height="668pt"
 viewBox="0.00 0.00 1299.00 668.34" xmlns="http://www.w3.org/2000/svg" xmlns:xlink="http://www.w3.org/1999/xlink">
<g id="graph0" class="graph" transform="scale(1 1) rotate(0) translate(4 664.34)">
<title>drivers.Driver.main</title>
<!-- Node1 -->
<g id="Node000001" class="node">
<title>Node1</title>
<g id="a_Node000001"><a xlink:title="Inici del driver.">
<polygon fill="#999999" stroke="#666666" points="98.5,-387.34 0,-387.34 0,-367.34 98.5,-367.34 98.5,-387.34"/>
<text text-anchor="middle" x="49.25" y="-373.84" font-family="Helvetica,sans-Serif" font-size="10.00">drivers.Driver.main</text>
</a>
</g>
</g>
<!-- Node2 -->
<g id="Node000002" class="node">
<title>Node2</title>
<g id="a_Node000002"><a xlink:href="classdrivers_1_1_driver.html#a8bc044826a5994373681c23cc5555bce" target="_top" xlink:title="Neteja la pantalla del terminal.">
<polygon fill="white" stroke="#666666" points="1098,-211.34 968.75,-211.34 968.75,-191.34 1098,-191.34 1098,-211.34"/>
<text text-anchor="middle" x="1033.38" y="-197.84" font-family="Helvetica,sans-Serif" font-size="10.00">drivers.Driver.clearScreen</text>
</a>
</g>
</g>
<!-- Node1&#45;&gt;Node2 -->
<g id="edge1_Node000001_Node000002" class="edge">
<title>Node1&#45;&gt;Node2</title>
<g id="a_edge1_Node000001_Node000002"><a xlink:title=" ">
<path fill="none" stroke="#63b8ff" d="M55.94,-367.16C67.97,-346.41 97.93,-298.81 134.5,-270.34 236.46,-190.96 273.16,-157.34 402.38,-157.34 402.38,-157.34 402.38,-157.34 601.12,-157.34 737.44,-157.34 772.08,-158.73 907.25,-176.34 930.06,-179.32 954.95,-183.99 976.48,-188.5"/>
<polygon fill="#63b8ff" stroke="#63b8ff" points="975.75,-191.92 986.26,-190.58 977.21,-185.07 975.75,-191.92"/>
</a>
</g>
</g>
<!-- Node3 -->
<g id="Node000003" class="node">
<title>Node3</title>
<g id="a_Node000003"><a xlink:href="classdrivers_1_1_driver.html#adda8e206a382258495735e0d099907b8" target="_top" xlink:title="Serveix per comparar dos arxius.">
<polygon fill="white" stroke="#666666" points="282.5,-577.34 134.5,-577.34 134.5,-557.34 282.5,-557.34 282.5,-577.34"/>
<text text-anchor="middle" x="208.5" y="-563.84" font-family="Helvetica,sans-Serif" font-size="10.00">drivers.Driver.CompararArxius</text>
</a>
</g>
</g>
<!-- Node1&#45;&gt;Node3 -->
<g id="edge2_Node000001_Node000003" class="edge">
<title>Node1&#45;&gt;Node3</title>
<g id="a_edge2_Node000001_Node000003"><a xlink:title=" ">
<path fill="none" stroke="#63b8ff" d="M52.54,-387.63C59.53,-416.55 83.25,-499.35 134.5,-543.34 138.53,-546.8 143.07,-549.76 147.86,-552.3"/>
<polygon fill="#63b8ff" stroke="#63b8ff" points="146.05,-555.32 156.6,-556.3 148.96,-548.96 146.05,-555.32"/>
</a>
</g>
</g>
<!-- Node4 -->
<g id="Node000004" class="node">
<title>Node4</title>
<g id="a_Node000004"><a xlink:href="classdrivers_1_1_driver.html#af17ae20af9da7fe473559b18f57b3846" target="_top" xlink:title="Consulta les normes del joc.">
<polygon fill="white" stroke="#666666" points="462,-556.34 344.75,-556.34 344.75,-524.34 462,-524.34 462,-556.34"/>
<text text-anchor="start" x="352.75" y="-542.84" font-family="Helvetica,sans-Serif" font-size="10.00">drivers.Driver.consultar</text>
<text text-anchor="middle" x="403.38" y="-530.84" font-family="Helvetica,sans-Serif" font-size="10.00">Normes</text>
</a>
</g>
</g>
<!-- Node1&#45;&gt;Node4 -->
<g id="edge3_Node000001_Node000004" class="edge">
<title>Node1&#45;&gt;Node4</title>
<g id="a_edge3_Node000001_Node000004"><a xlink:title=" ">
<path fill="none" stroke="#63b8ff" d="M53.29,-387.54C61.55,-413.22 86.99,-480.63 134.5,-510.34 166.52,-530.37 264.66,-537.07 332.8,-539.28"/>
<polygon fill="#63b8ff" stroke="#63b8ff" points="332.7,-542.78 342.8,-539.58 332.91,-535.79 332.7,-542.78"/>
</a>
</g>
</g>
<!-- Node6 -->
<g id="Node000006" class="node">
<title>Node6</title>
<g id="a_Node000006"><a xlink:href="classdrivers_1_1_driver.html#a22eff28e910198ce00e2e5724bd5eb9a" target="_top" xlink:title="Crea un nou jugador al sistema.">
<polygon fill="white" stroke="#666666" points="275.38,-501.34 141.62,-501.34 141.62,-481.34 275.38,-481.34 275.38,-501.34"/>
<text text-anchor="middle" x="208.5" y="-487.84" font-family="Helvetica,sans-Serif" font-size="10.00">drivers.Driver.crearJugador</text>
</a>
</g>
</g>
<!-- Node1&#45;&gt;Node6 -->
<g id="edge5_Node000001_Node000006" class="edge">
<title>Node1&#45;&gt;Node6</title>
<g id="a_edge5_Node000001_Node000006"><a xlink:title=" ">
<path fill="none" stroke="#63b8ff" d="M56.46,-387.73C68.76,-407.4 98.23,-450.11 134.5,-472.34 136.94,-473.84 139.5,-475.22 142.14,-476.49"/>
<polygon fill="#63b8ff" stroke="#63b8ff" points="140.64,-479.66 151.21,-480.3 143.34,-473.2 140.64,-479.66"/>
</a>
</g>
</g>
<!-- Node7 -->
<g id="Node000007" class="node">
<title>Node7</title>
<g id="a_Node000007"><a xlink:href="classdrivers_1_1_driver.html#ad2d6dcad9bc4e8b0fd7944de78cb9fc3" target="_top" xlink:title="Crea una nova partida.">
<polygon fill="white" stroke="#666666" points="273.5,-463.34 143.5,-463.34 143.5,-443.34 273.5,-443.34 273.5,-463.34"/>
<text text-anchor="middle" x="208.5" y="-449.84" font-family="Helvetica,sans-Serif" font-size="10.00">drivers.Driver.crearPartida</text>
</a>
</g>
</g>
<!-- Node1&#45;&gt;Node7 -->
<g id="edge6_Node000001_Node000007" class="edge">
<title>Node1&#45;&gt;Node7</title>
<g id="a_edge6_Node000001_Node000007"><a xlink:title=" ">
<path fill="none" stroke="#63b8ff" d="M62.57,-387.68C78.31,-400.4 106.82,-421.83 134.5,-434.34 138.55,-436.17 142.8,-437.85 147.14,-439.39"/>
<polygon fill="#63b8ff" stroke="#63b8ff" points="145.99,-442.69 156.58,-442.44 148.14,-436.03 145.99,-442.69"/>
</a>
</g>
</g>
<!-- Node8 -->
<g id="Node000008" class="node">
<title>Node8</title>
<g id="a_Node000008"><a xlink:href="classdrivers_1_1_driver.html#a2e0f09317b37a87c9dd58f2eeedc201a" target="_top" xlink:title="Elimina un jugador del sistema.">
<polygon fill="white" stroke="#666666" points="281.38,-425.34 135.62,-425.34 135.62,-405.34 281.38,-405.34 281.38,-425.34"/>
<text text-anchor="middle" x="208.5" y="-411.84" font-family="Helvetica,sans-Serif" font-size="10.00">drivers.Driver.eliminarJugador</text>
</a>
</g>
</g>
<!-- Node1&#45;&gt;Node8 -->
<g id="edge7_Node000001_Node000008" class="edge">
<title>Node1&#45;&gt;Node8</title>
<g id="a_edge7_Node000001_Node000008"><a xlink:title=" ">
<path fill="none" stroke="#63b8ff" d="M93.64,-387.83C112.03,-392.27 133.66,-397.5 153.1,-402.2"/>
<polygon fill="#63b8ff" stroke="#63b8ff" points="152.24,-405.59 162.78,-404.54 153.89,-398.79 152.24,-405.59"/>
</a>
</g>
</g>
<!-- Node9 -->
<g id="Node000009" class="node">
<title>Node9</title>
<g id="a_Node000009"><a xlink:href="classdrivers_1_1_driver.html#a599f18dc6daf8c79f5f1354436c4b6f8" target="_top" xlink:title="Inicia sessió amb un jugador existent.">
<polygon fill="white" stroke="#666666" points="275,-387.34 142,-387.34 142,-367.34 275,-367.34 275,-387.34"/>
<text text-anchor="middle" x="208.5" y="-373.84" font-family="Helvetica,sans-Serif" font-size="10.00">drivers.Driver.iniciarSessio</text>
</a>
</g>
</g>
<!-- Node1&#45;&gt;Node9 -->
<g id="edge8_Node000001_Node000009" class="edge">
<title>Node1&#45;&gt;Node9</title>
<g id="a_edge8_Node000001_Node000009"><a xlink:title=" ">
<path fill="none" stroke="#63b8ff" d="M98.71,-377.34C108.76,-377.34 119.58,-377.34 130.36,-377.34"/>
<polygon fill="#63b8ff" stroke="#63b8ff" points="130.04,-380.84 140.04,-377.34 130.04,-373.84 130.04,-380.84"/>
</a>
</g>
</g>
<!-- Node10 -->
<g id="Node000010" class="node">
<title>Node10</title>
<g id="a_Node000010"><a xlink:href="classdrivers_1_1_driver.html#a2f60d11a9e5dda6413c72ed56d36b2d3" target="_top" xlink:title="Reprén una partida que s&#39;ha deixat a mitges (no implementada).">
<polygon fill="white" stroke="#666666" points="278.75,-349.34 138.25,-349.34 138.25,-317.34 278.75,-317.34 278.75,-349.34"/>
<text text-anchor="start" x="146.25" y="-335.84" font-family="Helvetica,sans-Serif" font-size="10.00">drivers.Driver.IniciReprendre</text>
<text text-anchor="middle" x="208.5" y="-323.84" font-family="Helvetica,sans-Serif" font-size="10.00">Partida</text>
</a>
</g>
</g>
<!-- Node1&#45;&gt;Node10 -->
<g id="edge9_Node000001_Node000010" class="edge">
<title>Node1&#45;&gt;Node10</title>
<g id="a_edge9_Node000001_Node000010"><a xlink:title=" ">
<path fill="none" stroke="#63b8ff" d="M87.52,-366.92C102.63,-362.69 120.6,-357.66 137.97,-352.8"/>
<polygon fill="#63b8ff" stroke="#63b8ff" points="138.53,-356.27 147.22,-350.21 136.65,-349.53 138.53,-356.27"/>
</a>
</g>
</g>
<!-- Node11 -->
<g id="Node000011" class="node">
<title>Node11</title>
<g id="a_Node000011"><a xlink:href="classdrivers_1_1_driver.html#a2cf45ad0923853bf6a6ffec27822acfc" target="_top" xlink:title="Inicialitza el driver.">
<polygon fill="white" stroke="#666666" points="253.62,-615.34 163.38,-615.34 163.38,-595.34 253.62,-595.34 253.62,-615.34"/>
<text text-anchor="middle" x="208.5" y="-601.84" font-family="Helvetica,sans-Serif" font-size="10.00">drivers.Driver.init</text>
</a>
</g>
</g>
<!-- Node1&#45;&gt;Node11 -->
<g id="edge10_Node000001_Node000011" class="edge">
<title>Node1&#45;&gt;Node11</title>
<g id="a_edge10_Node000001_Node000011"><a xlink:title=" ">
<path fill="none" stroke="#63b8ff" d="M51.18,-387.44C54.84,-421.14 71.33,-530.81 134.5,-586.34 139.73,-590.94 145.93,-594.45 152.48,-597.12"/>
<polygon fill="#63b8ff" stroke="#63b8ff" points="150.94,-600.29 161.54,-600.18 153.18,-593.66 150.94,-600.29"/>
</a>
</g>
</g>
<!-- Node19 -->
<g id="Node000019" class="node">
<title>Node19</title>
<g id="a_Node000019"><a xlink:href="classdrivers_1_1_driver.html#a13e38153634507d9ad6e24cb267237b9" target="_top" xlink:title="Juga una partida.">
<polygon fill="white" stroke="#666666" points="273.12,-299.34 143.88,-299.34 143.88,-279.34 273.12,-279.34 273.12,-299.34"/>
<text text-anchor="middle" x="208.5" y="-285.84" font-family="Helvetica,sans-Serif" font-size="10.00">drivers.Driver.jugarPartida</text>
</a>
</g>
</g>
<!-- Node1&#45;&gt;Node19 -->
<g id="edge18_Node000001_Node000019" class="edge">
<title>Node1&#45;&gt;Node19</title>
<g id="a_edge18_Node000001_Node000019"><a xlink:title=" ">
<path fill="none" stroke="#63b8ff" d="M59.85,-367.04C74.51,-351.92 104,-323.85 134.5,-308.34 137.93,-306.6 141.54,-305 145.23,-303.55"/>
<polygon fill="#63b8ff" stroke="#63b8ff" points="146.12,-306.95 154.38,-300.31 143.79,-300.35 146.12,-306.95"/>
</a>
</g>
</g>
<!-- Node35 -->
<g id="Node000035" class="node">
<title>Node35</title>
<g id="a_Node000035"><a xlink:href="classdrivers_1_1_driver.html#a0411868fb5e262af5563f7926ab25d48" target="_top" xlink:title="Mostra les estadístiques d&#39;un jugador.">
<polygon fill="white" stroke="#666666" points="488.25,-129.34 318.5,-129.34 318.5,-109.34 488.25,-109.34 488.25,-129.34"/>
<text text-anchor="middle" x="403.38" y="-115.84" font-family="Helvetica,sans-Serif" font-size="10.00">drivers.Driver.mostrarEstadistiques</text>
</a>
</g>
</g>
<!-- Node1&#45;&gt;Node35 -->
<g id="edge45_Node000001_Node000035" class="edge">
<title>Node1&#45;&gt;Node35</title>
<g id="a_edge45_Node000001_Node000035"><a xlink:title=" ">
<path fill="none" stroke="#63b8ff" d="M50.35,-366.95C51.32,-329.51 60.15,-200.72 134.5,-143.34 192.75,-98.39 280.8,-99.68 339.88,-107.33"/>
<polygon fill="#63b8ff" stroke="#63b8ff" points="339.04,-110.74 349.43,-108.66 340.01,-103.81 339.04,-110.74"/>
</a>
</g>
</g>
<!-- Node36 -->
<g id="Node000036" class="node">
<title>Node36</title>
<g id="a_Node000036"><a xlink:href="classdrivers_1_1_driver.html#a3c6e5962c87e73aa09ce30acdbc18a20" target="_top" xlink:title="Mostrar les opcions disponibles al menú principal.">
<polygon fill="white" stroke="#666666" points="673.38,-91.34 526.88,-91.34 526.88,-71.34 673.38,-71.34 673.38,-91.34"/>
<text text-anchor="middle" x="600.12" y="-77.84" font-family="Helvetica,sans-Serif" font-size="10.00">drivers.Driver.mostrarOpcions</text>
</a>
</g>
</g>
<!-- Node1&#45;&gt;Node36 -->
<g id="edge47_Node000001_Node000036" class="edge">
<title>Node1&#45;&gt;Node36</title>
<g id="a_edge47_Node000001_Node000036"><a xlink:title=" ">
<path fill="none" stroke="#63b8ff" d="M51.77,-367.02C58.82,-320.82 89.8,-133.87 134.5,-99.34 191.92,-54.99 397.8,-64.05 515.33,-73.38"/>
<polygon fill="#63b8ff" stroke="#63b8ff" points="515.01,-76.87 525.26,-74.19 515.58,-69.89 515.01,-76.87"/>
</a>
</g>
</g>
<!-- Node37 -->
<g id="Node000037" class="node">
<title>Node37</title>
<g id="a_Node000037"><a xlink:href="classdrivers_1_1_driver.html#a7476cfc83bad8b4d1ba7204c750db2c2" target="_top" xlink:title="Mostra el rànquing global de jugadors.">
<polygon fill="white" stroke="#666666" points="676,-53.34 524.25,-53.34 524.25,-33.34 676,-33.34 676,-53.34"/>
<text text-anchor="middle" x="600.12" y="-39.84" font-family="Helvetica,sans-Serif" font-size="10.00">drivers.Driver.mostrarRankings</text>
</a>
</g>
</g>
<!-- Node1&#45;&gt;Node37 -->
<g id="edge49_Node000001_Node000037" class="edge">
<title>Node1&#45;&gt;Node37</title>
<g id="a_edge49_Node000001_Node000037"><a xlink:title=" ">
<path fill="none" stroke="#63b8ff" d="M51.4,-367.06C57.18,-317.41 84.74,-103.24 134.5,-63.34 258.03,35.71 464.96,-5.26 555.02,-29.85"/>
<polygon fill="#63b8ff" stroke="#63b8ff" points="553.89,-33.17 564.46,-32.5 555.78,-26.43 553.89,-33.17"/>
</a>
</g>
</g>
<!-- Node5 -->
<g id="Node000005" class="node">
<title>Node5</title>
<g id="a_Node000005"><a xlink:href="classdomini_1_1auxiliars_1_1_color_terminal.html#a2fe2444decaa0df626b98d7e35637dbb" target="_top" xlink:title="Centra el text en una línia de la terminal.">
<polygon fill="white" stroke="#666666" points="907.25,-546.34 712,-546.34 712,-526.34 907.25,-526.34 907.25,-546.34"/>
<text text-anchor="middle" x="809.62" y="-532.84" font-family="Helvetica,sans-Serif" font-size="10.00">domini.auxiliars.ColorTerminal.centerText</text>
</a>
</g>
</g>
<!-- Node4&#45;&gt;Node5 -->
<g id="edge4_Node000004_Node000005" class="edge">
<title>Node4&#45;&gt;Node5</title>
<g id="a_edge4_Node000004_Node000005"><a xlink:title=" ">
<path fill="none" stroke="#63b8ff" d="M462.29,-539.77C524.3,-539.16 624.1,-538.17 700.67,-537.41"/>
<polygon fill="#63b8ff" stroke="#63b8ff" points="700.31,-540.92 710.28,-537.32 700.24,-533.92 700.31,-540.92"/>
</a>
</g>
</g>
<!-- Node12 -->
<g id="Node000012" class="node">
<title>Node12</title>
<g id="a_Node000012"><a xlink:href="classcontroladors_1_1_ctrl_domini.html#ab9f3147d91bf87174cee2fbad80eebd0" target="_top" xlink:title="Retorna la instancia del controlador de domini.">
<polygon fill="white" stroke="#666666" points="471,-660.34 335.75,-660.34 335.75,-628.34 471,-628.34 471,-660.34"/>
<text text-anchor="start" x="343.75" y="-646.84" font-family="Helvetica,sans-Serif" font-size="10.00">controladors.CtrlDomini.get</text>
<text text-anchor="middle" x="403.38" y="-634.84" font-family="Helvetica,sans-Serif" font-size="10.00">Instancia</text>
</a>
</g>
</g>
<!-- Node11&#45;&gt;Node12 -->
<g id="edge11_Node000011_Node000012" class="edge">
<title>Node11&#45;&gt;Node12</title>
<g id="a_edge11_Node000011_Node000012"><a xlink:title=" ">
<path fill="none" stroke="#63b8ff" d="M253.75,-614.29C274.68,-618.52 300.3,-623.7 324.34,-628.56"/>
<polygon fill="#63b8ff" stroke="#63b8ff" points="323.64,-631.99 334.14,-630.55 325.03,-625.13 323.64,-631.99"/>
</a>
</g>
</g>
<!-- Node17 -->
<g id="Node000017" class="node">
<title>Node17</title>
<g id="a_Node000017"><a xlink:href="classcontroladors_1_1_ctrl_partida.html#acc3f8d0c1620b0c1befc2c1a550a23a8" target="_top" xlink:title="Obté la instància única del controlador de partida.">
<polygon fill="white" stroke="#666666" points="471,-610.34 335.75,-610.34 335.75,-578.34 471,-578.34 471,-610.34"/>
<text text-anchor="start" x="343.75" y="-596.84" font-family="Helvetica,sans-Serif" font-size="10.00">controladors.CtrlPartida.get</text>
<text text-anchor="middle" x="403.38" y="-584.84" font-family="Helvetica,sans-Serif" font-size="10.00">Instancia</text>
</a>
</g>
</g>
<!-- Node11&#45;&gt;Node17 -->
<g id="edge16_Node000011_Node000017" class="edge">
<title>Node11&#45;&gt;Node17</title>
<g id="a_edge16_Node000011_Node000017"><a xlink:title=" ">
<path fill="none" stroke="#63b8ff" d="M253.75,-602.82C274.68,-601.63 300.3,-600.16 324.34,-598.79"/>
<polygon fill="#63b8ff" stroke="#63b8ff" points="324.33,-602.3 334.11,-598.24 323.93,-595.31 324.33,-602.3"/>
</a>
</g>
</g>
<!-- Node13 -->
<g id="Node000013" class="node">
<title>Node13</title>
<g id="a_Node000013"><a xlink:href="classcontroladors_1_1_ctrl_domini.html#a7648cc0064b988072993a90846e84d38" target="_top" xlink:title="Constructor de la classe Ctrl_Domini.">
<polygon fill="white" stroke="#666666" points="661,-660.34 539.25,-660.34 539.25,-628.34 661,-628.34 661,-660.34"/>
<text text-anchor="start" x="547.25" y="-646.84" font-family="Helvetica,sans-Serif" font-size="10.00">controladors.CtrlDomini.</text>
<text text-anchor="middle" x="600.12" y="-634.84" font-family="Helvetica,sans-Serif" font-size="10.00">CtrlDomini</text>
</a>
</g>
</g>
<!-- Node12&#45;&gt;Node13 -->
<g id="edge12_Node000012_Node000013" class="edge">
<title>Node12&#45;&gt;Node13</title>
<g id="a_edge12_Node000012_Node000013"><a xlink:title=" ">
<path fill="none" stroke="#63b8ff" d="M471.4,-644.34C489.44,-644.34 509.04,-644.34 527.33,-644.34"/>
<polygon fill="#63b8ff" stroke="#63b8ff" points="527.32,-647.84 537.32,-644.34 527.32,-640.84 527.32,-647.84"/>
</a>
</g>
</g>
<!-- Node14 -->
<g id="Node000014" class="node">
<title>Node14</title>
<g id="a_Node000014"><a xlink:href="classcontroladors_1_1_ctrl_domini.html#ab06c2680b60a9e0864d8470f4888e8e9" target="_top" xlink:title="Carrega els usuaris cada cop que executem el joc.">
<polygon fill="white" stroke="#666666" points="892.25,-660.34 727,-660.34 727,-628.34 892.25,-628.34 892.25,-660.34"/>
<text text-anchor="start" x="735" y="-646.84" font-family="Helvetica,sans-Serif" font-size="10.00">controladors.CtrlDomini.inicialitzar</text>
<text text-anchor="middle" x="809.62" y="-634.84" font-family="Helvetica,sans-Serif" font-size="10.00">Usuaris</text>
</a>
</g>
</g>
<!-- Node13&#45;&gt;Node14 -->
<g id="edge13_Node000013_Node000014" class="edge">
<title>Node13&#45;&gt;Node14</title>
<g id="a_edge13_Node000013_Node000014"><a xlink:title=" ">
<path fill="none" stroke="#63b8ff" d="M661.42,-644.34C678.27,-644.34 696.98,-644.34 715.26,-644.34"/>
<polygon fill="#63b8ff" stroke="#63b8ff" points="715.04,-647.84 725.04,-644.34 715.04,-640.84 715.04,-647.84"/>
</a>
</g>
</g>
<!-- Node15 -->
<g id="Node000015" class="node">
<title>Node15</title>
<g id="a_Node000015"><a xlink:href="classcontroladors_1_1_ctrl_persistencia.html#a06c847181ea13b0c7dde8a61b47f0a0b" target="_top" xlink:title="Carrega els usuaris guardats a la capa de persistència.">
<polygon fill="white" stroke="#666666" points="1123.5,-660.34 943.25,-660.34 943.25,-628.34 1123.5,-628.34 1123.5,-660.34"/>
<text text-anchor="start" x="951.25" y="-646.84" font-family="Helvetica,sans-Serif" font-size="10.00">controladors.CtrlPersistencia.carregar</text>
<text text-anchor="middle" x="1033.38" y="-634.84" font-family="Helvetica,sans-Serif" font-size="10.00">UsuarisRegistrats</text>
</a>
</g>
</g>
<!-- Node14&#45;&gt;Node15 -->
<g id="edge14_Node000014_Node000015" class="edge">
<title>Node14&#45;&gt;Node15</title>
<g id="a_edge14_Node000014_Node000015"><a xlink:title=" ">
<path fill="none" stroke="#63b8ff" d="M892.57,-644.34C905.26,-644.34 918.49,-644.34 931.54,-644.34"/>
<polygon fill="#63b8ff" stroke="#63b8ff" points="931.43,-647.84 941.43,-644.34 931.43,-640.84 931.43,-647.84"/>
</a>
</g>
</g>
<!-- Node16 -->
<g id="Node000016" class="node">
<title>Node16</title>
<g id="a_Node000016"><a xlink:href="classpersistencia_1_1_usuari_i_o.html#a29677f40d007ca66a5ec1b0926e16da4" target="_top" xlink:title="Carrega un usuari des d&#39;un fitxer JSON.">
<polygon fill="white" stroke="#666666" points="1291,-660.34 1159.5,-660.34 1159.5,-628.34 1291,-628.34 1291,-660.34"/>
<text text-anchor="start" x="1167.5" y="-646.84" font-family="Helvetica,sans-Serif" font-size="10.00">persistencia.UsuariIO.load</text>
<text text-anchor="middle" x="1225.25" y="-634.84" font-family="Helvetica,sans-Serif" font-size="10.00">Usuari</text>
</a>
</g>
</g>
<!-- Node15&#45;&gt;Node16 -->
<g id="edge15_Node000015_Node000016" class="edge">
<title>Node15&#45;&gt;Node16</title>
<g id="a_edge15_Node000015_Node000016"><a xlink:title=" ">
<path fill="none" stroke="#63b8ff" d="M1123.75,-644.34C1131.77,-644.34 1139.83,-644.34 1147.72,-644.34"/>
<polygon fill="#63b8ff" stroke="#63b8ff" points="1147.62,-647.84 1157.62,-644.34 1147.62,-640.84 1147.62,-647.84"/>
</a>
</g>
</g>
<!-- Node18 -->
<g id="Node000018" class="node">
<title>Node18</title>
<g id="a_Node000018"><a xlink:href="classcontroladors_1_1_ctrl_partida.html#a8f5583dd87ab70723d68c87c1fefb5f4" target="_top" xlink:title="Constructor del controlador de la partida.">
<polygon fill="white" stroke="#666666" points="661,-610.34 539.25,-610.34 539.25,-578.34 661,-578.34 661,-610.34"/>
<text text-anchor="start" x="547.25" y="-596.84" font-family="Helvetica,sans-Serif" font-size="10.00">controladors.CtrlPartida.</text>
<text text-anchor="middle" x="600.12" y="-584.84" font-family="Helvetica,sans-Serif" font-size="10.00">CtrlPartida</text>
</a>
</g>
</g>
<!-- Node17&#45;&gt;Node18 -->
<g id="edge17_Node000017_Node000018" class="edge">
<title>Node17&#45;&gt;Node18</title>
<g id="a_edge17_Node000017_Node000018"><a xlink:title=" ">
<path fill="none" stroke="#63b8ff" d="M471.4,-594.34C489.44,-594.34 509.04,-594.34 527.33,-594.34"/>
<polygon fill="#63b8ff" stroke="#63b8ff" points="527.32,-597.84 537.32,-594.34 527.32,-590.84 527.32,-597.84"/>
</a>
</g>
</g>
<!-- Node19&#45;&gt;Node2 -->
<g id="edge25_Node000019_Node000002" class="edge">
<title>Node19&#45;&gt;Node2</title>
<g id="a_edge25_Node000019_Node000002"><a xlink:title=" ">
<path fill="none" stroke="#63b8ff" d="M264.41,-299.78C270.74,-302.09 276.93,-304.91 282.5,-308.34 303.14,-321.07 296.41,-339.34 318.5,-349.34 369.03,-372.22 837.59,-344.53 907.25,-314.34 955.12,-293.6 996.98,-246.97 1018,-220.55"/>
<polygon fill="#63b8ff" stroke="#63b8ff" points="1020.72,-222.75 1024.08,-212.71 1015.19,-218.47 1020.72,-222.75"/>
</a>
</g>
</g>
<!-- Node19&#45;&gt;Node4 -->
<g id="edge35_Node000019_Node000004" class="edge">
<title>Node19&#45;&gt;Node4</title>
<g id="a_edge35_Node000019_Node000004"><a xlink:title=" ">
<path fill="none" stroke="#63b8ff" d="M271.48,-299.65C275.56,-302.02 279.3,-304.88 282.5,-308.34 344.41,-375.3 259.62,-440.7 318.5,-510.34 323.02,-515.69 328.57,-520.09 334.63,-523.7"/>
<polygon fill="#63b8ff" stroke="#63b8ff" points="332.68,-526.63 343.18,-528.06 335.86,-520.39 332.68,-526.63"/>
</a>
</g>
</g>
<!-- Node20 -->
<g id="Node000020" class="node">
<title>Node20</title>
<g id="a_Node000020"><a xlink:href="classdrivers_1_1_driver.html#ac619a13f9534e9347b26fae373236cfd" target="_top" xlink:title="Abandona la partida actual.">
<polygon fill="white" stroke="#666666" points="870.88,-217.34 748.38,-217.34 748.38,-185.34 870.88,-185.34 870.88,-217.34"/>
<text text-anchor="start" x="756.38" y="-203.84" font-family="Helvetica,sans-Serif" font-size="10.00">drivers.Driver.abandonar</text>
<text text-anchor="middle" x="809.62" y="-191.84" font-family="Helvetica,sans-Serif" font-size="10.00">Partida</text>
</a>
</g>
</g>
<!-- Node19&#45;&gt;Node20 -->
<g id="edge19_Node000019_Node000020" class="edge">
<title>Node19&#45;&gt;Node20</title>
<g id="a_edge19_Node000019_Node000020"><a xlink:title=" ">
<path fill="none" stroke="#63b8ff" d="M221.9,-278.92C241.13,-263.46 279.97,-235.04 318.5,-223.34 461.83,-179.84 639.52,-185.72 736.73,-193.67"/>
<polygon fill="#63b8ff" stroke="#63b8ff" points="736.41,-197.16 746.67,-194.52 737,-190.18 736.41,-197.16"/>
</a>
</g>
</g>
<!-- Node21 -->
<g id="Node000021" class="node">
<title>Node21</title>
<g id="a_Node000021"><a xlink:href="classdrivers_1_1_driver.html#a511e05515632a6b31d522a3faa1998a8" target="_top" xlink:title="Canvia fitxes del jugador actual.">
<polygon fill="white" stroke="#666666" points="877.62,-507.34 741.62,-507.34 741.62,-487.34 877.62,-487.34 877.62,-507.34"/>
<text text-anchor="middle" x="809.62" y="-493.84" font-family="Helvetica,sans-Serif" font-size="10.00">drivers.Driver.canviarFitxes</text>
</a>
</g>
</g>
<!-- Node19&#45;&gt;Node21 -->
<g id="edge21_Node000019_Node000021" class="edge">
<title>Node19&#45;&gt;Node21</title>
<g id="a_edge21_Node000019_Node000021"><a xlink:title=" ">
<path fill="none" stroke="#63b8ff" d="M271.31,-299.81C275.42,-302.14 279.22,-304.95 282.5,-308.34 333.17,-360.73 262.95,-421.15 318.5,-468.34 378.58,-519.39 607.73,-511.81 730.25,-503.67"/>
<polygon fill="#63b8ff" stroke="#63b8ff" points="730.16,-507.19 739.9,-503.01 729.68,-500.2 730.16,-507.19"/>
</a>
</g>
</g>
<!-- Node24 -->
<g id="Node000024" class="node">
<title>Node24</title>
<g id="a_Node000024"><a xlink:href="classdrivers_1_1_driver.html#a2e8cde796339c2db37f3e7332bf695ea" target="_top" xlink:title="Col·loca una paraula al taulell.">
<polygon fill="white" stroke="#666666" points="474.38,-418.34 332.38,-418.34 332.38,-398.34 474.38,-398.34 474.38,-418.34"/>
<text text-anchor="middle" x="403.38" y="-404.84" font-family="Helvetica,sans-Serif" font-size="10.00">drivers.Driver.colocarParaula</text>
</a>
</g>
</g>
<!-- Node19&#45;&gt;Node24 -->
<g id="edge26_Node000019_Node000024" class="edge">
<title>Node19&#45;&gt;Node24</title>
<g id="a_edge26_Node000019_Node000024"><a xlink:title=" ">
<path fill="none" stroke="#63b8ff" d="M268.69,-299.84C273.65,-302.14 278.35,-304.94 282.5,-308.34 310.79,-331.52 290.75,-358.52 318.5,-382.34 323.74,-386.84 329.75,-390.56 336.09,-393.63"/>
<polygon fill="#63b8ff" stroke="#63b8ff" points="334.31,-396.68 344.88,-397.37 337.04,-390.24 334.31,-396.68"/>
</a>
</g>
</g>
<!-- Node29 -->
<g id="Node000029" class="node">
<title>Node29</title>
<g id="a_Node000029"><a xlink:href="classdrivers_1_1_driver.html#ac54b560952a6b33f46dfb41fa9cdb421" target="_top" xlink:title="Permet guardar la partida i torna a la pantalla d&#39;inici.">
<polygon fill="white" stroke="#666666" points="879.88,-305.34 739.38,-305.34 739.38,-285.34 879.88,-285.34 879.88,-305.34"/>
<text text-anchor="middle" x="809.62" y="-291.84" font-family="Helvetica,sans-Serif" font-size="10.00">drivers.Driver.guardarPartida</text>
</a>
</g>
</g>
<!-- Node19&#45;&gt;Node29 -->
<g id="edge36_Node000019_Node000029" class="edge">
<title>Node19&#45;&gt;Node29</title>
<g id="a_edge36_Node000019_Node000029"><a xlink:title=" ">
<path fill="none" stroke="#63b8ff" d="M273.62,-289.99C383.43,-291.08 607.26,-293.33 727.67,-294.53"/>
<polygon fill="#63b8ff" stroke="#63b8ff" points="727.44,-298.03 737.48,-294.63 727.51,-291.03 727.44,-298.03"/>
</a>
</g>
</g>
<!-- Node30 -->
<g id="Node000030" class="node">
<title>Node30</title>
<g id="a_Node000030"><a xlink:href="classdrivers_1_1_driver.html#a016b62cedb8884ea6333d8c8506d73ee" target="_top" xlink:title="Mostra per pantalla les opcions de les que disposa un jugador durant la partida.">
<polygon fill="white" stroke="#666666" points="476.62,-340.34 330.12,-340.34 330.12,-308.34 476.62,-308.34 476.62,-340.34"/>
<text text-anchor="start" x="338.12" y="-326.84" font-family="Helvetica,sans-Serif" font-size="10.00">drivers.Driver.mostrarOpcions</text>
<text text-anchor="middle" x="403.38" y="-314.84" font-family="Helvetica,sans-Serif" font-size="10.00">Partida</text>
</a>
</g>
</g>
<!-- Node19&#45;&gt;Node30 -->
<g id="edge37_Node000019_Node000030" class="edge">
<title>Node19&#45;&gt;Node30</title>
<g id="a_edge37_Node000019_Node000030"><a xlink:title=" ">
<path fill="none" stroke="#63b8ff" d="M267.11,-299.8C283.22,-302.72 301.08,-305.96 318.39,-309.1"/>
<polygon fill="#63b8ff" stroke="#63b8ff" points="317.71,-312.54 328.17,-310.88 318.96,-305.65 317.71,-312.54"/>
</a>
</g>
</g>
<!-- Node31 -->
<g id="Node000031" class="node">
<title>Node31</title>
<g id="a_Node000031"><a xlink:href="classdrivers_1_1_driver.html#a1349f8ca44272d07a91da7c4a689ce2e" target="_top" xlink:title="Passa el torn del jugador actual.">
<polygon fill="white" stroke="#666666" points="466.12,-459.34 340.62,-459.34 340.62,-439.34 466.12,-439.34 466.12,-459.34"/>
<text text-anchor="middle" x="403.38" y="-445.84" font-family="Helvetica,sans-Serif" font-size="10.00">drivers.Driver.passarTorn</text>
</a>
</g>
</g>
<!-- Node19&#45;&gt;Node31 -->
<g id="edge38_Node000019_Node000031" class="edge">
<title>Node19&#45;&gt;Node31</title>
<g id="a_edge38_Node000019_Node000031"><a xlink:title=" ">
<path fill="none" stroke="#63b8ff" d="M270.35,-299.71C274.78,-302.05 278.91,-304.89 282.5,-308.34 322.33,-346.64 278.71,-389.01 318.5,-427.34 321.98,-430.69 325.9,-433.55 330.1,-435.98"/>
<polygon fill="#63b8ff" stroke="#63b8ff" points="328.44,-439.06 338.96,-440.26 331.48,-432.76 328.44,-439.06"/>
</a>
</g>
</g>
<!-- Node32 -->
<g id="Node000032" class="node">
<title>Node32</title>
<g id="a_Node000032"><a xlink:href="classdrivers_1_1_driver.html#a5bdeffe74ac8e28325692a231275787b" target="_top" xlink:title="Pausa la partida actual.">
<polygon fill="white" stroke="#666666" points="472.12,-252.34 334.62,-252.34 334.62,-232.34 472.12,-232.34 472.12,-252.34"/>
<text text-anchor="middle" x="403.38" y="-238.84" font-family="Helvetica,sans-Serif" font-size="10.00">drivers.Driver.pausarPartida</text>
</a>
</g>
</g>
<!-- Node19&#45;&gt;Node32 -->
<g id="edge40_Node000019_Node000032" class="edge">
<title>Node19&#45;&gt;Node32</title>
<g id="a_edge40_Node000019_Node000032"><a xlink:title=" ">
<path fill="none" stroke="#63b8ff" d="M252.31,-278.91C280.67,-272 318.12,-262.87 348.51,-255.47"/>
<polygon fill="#63b8ff" stroke="#63b8ff" points="349,-258.95 357.89,-253.18 347.34,-252.15 349,-258.95"/>
</a>
</g>
</g>
<!-- Node20&#45;&gt;Node2 -->
<g id="edge20_Node000020_Node000002" class="edge">
<title>Node20&#45;&gt;Node2</title>
<g id="a_edge20_Node000020_Node000002"><a xlink:title=" ">
<path fill="none" stroke="#63b8ff" d="M871.22,-201.34C897.71,-201.34 929.05,-201.34 957.02,-201.34"/>
<polygon fill="#63b8ff" stroke="#63b8ff" points="956.85,-204.84 966.85,-201.34 956.85,-197.84 956.85,-204.84"/>
</a>
</g>
</g>
<!-- Node21&#45;&gt;Node2 -->
<g id="edge22_Node000021_Node000002" class="edge">
<title>Node21&#45;&gt;Node2</title>
<g id="a_edge22_Node000021_Node000002"><a xlink:title=" ">
<path fill="none" stroke="#63b8ff" d="M877.68,-492.78C888.35,-489.73 898.68,-485.14 907.25,-478.34 912.75,-473.98 995.53,-285.55 1023.34,-222.01"/>
<polygon fill="#63b8ff" stroke="#63b8ff" points="1026.46,-223.62 1027.26,-213.06 1020.04,-220.82 1026.46,-223.62"/>
</a>
</g>
</g>
<!-- Node22 -->
<g id="Node000022" class="node">
<title>Node22</title>
<g id="a_Node000022"><a xlink:href="classdrivers_1_1_driver.html#a922b257b3c0425d1b3a89e6202abb26a" target="_top" xlink:title="Identifica els caràcters del paràmetre d&#39;entrada que hauríen de correspondre&#39;s amb &#39;Ç&#39; i els substitu...">
<polygon fill="white" stroke="#666666" points="1093.12,-535.34 973.62,-535.34 973.62,-503.34 1093.12,-503.34 1093.12,-535.34"/>
<text text-anchor="start" x="981.62" y="-521.84" font-family="Helvetica,sans-Serif" font-size="10.00">drivers.Driver.identificar</text>
<text text-anchor="middle" x="1033.38" y="-509.84" font-family="Helvetica,sans-Serif" font-size="10.00">CTrenada</text>
</a>
</g>
</g>
<!-- Node21&#45;&gt;Node22 -->
<g id="edge23_Node000021_Node000022" class="edge">
<title>Node21&#45;&gt;Node22</title>
<g id="a_edge23_Node000021_Node000022"><a xlink:title=" ">
<path fill="none" stroke="#63b8ff" d="M878.06,-504.03C904.6,-506.67 935.07,-509.69 961.9,-512.35"/>
<polygon fill="#63b8ff" stroke="#63b8ff" points="961.35,-515.81 971.64,-513.32 962.04,-508.85 961.35,-515.81"/>
</a>
</g>
</g>
<!-- Node23 -->
<g id="Node000023" class="node">
<title>Node23</title>
<g id="a_Node000023"><a xlink:href="classdrivers_1_1_driver.html#a5786bc8fc6091766d21fc7e775c38b45" target="_top" xlink:title="Donada una seqüència de caràcters identifica qualsevol submot &quot;LxL&quot; on x no pertany al conjunt {A&#45;Z}...">
<polygon fill="white" stroke="#666666" points="1099.88,-485.34 966.88,-485.34 966.88,-465.34 1099.88,-465.34 1099.88,-485.34"/>
<text text-anchor="middle" x="1033.38" y="-471.84" font-family="Helvetica,sans-Serif" font-size="10.00">drivers.Driver.substituirLxL</text>
</a>
</g>
</g>
<!-- Node21&#45;&gt;Node23 -->
<g id="edge24_Node000021_Node000023" class="edge">
<title>Node21&#45;&gt;Node23</title>
<g id="a_edge24_Node000021_Node000023"><a xlink:title=" ">
<path fill="none" stroke="#63b8ff" d="M878.06,-490.65C902.37,-488.24 929.99,-485.5 955.08,-483.01"/>
<polygon fill="#63b8ff" stroke="#63b8ff" points="955.29,-486.51 964.9,-482.04 954.6,-479.54 955.29,-486.51"/>
</a>
</g>
</g>
<!-- Node24&#45;&gt;Node2 -->
<g id="edge27_Node000024_Node000002" class="edge">
<title>Node24&#45;&gt;Node2</title>
<g id="a_edge27_Node000024_Node000002"><a xlink:title=" ">
<path fill="none" stroke="#63b8ff" d="M471.2,-397.86C488.47,-395.27 507.04,-392.6 524.25,-390.34 609.17,-379.2 831.56,-387.43 907.25,-347.34 962.11,-318.29 1003.3,-254.4 1021.73,-221.62"/>
<polygon fill="#63b8ff" stroke="#63b8ff" points="1024.65,-223.57 1026.36,-213.12 1018.5,-220.22 1024.65,-223.57"/>
</a>
</g>
</g>
<!-- Node25 -->
<g id="Node000025" class="node">
<title>Node25</title>
<g id="a_Node000025"><a xlink:href="classdrivers_1_1_driver.html#a735bc9f4183f4abd4c702da4c62b0ce8" target="_top" xlink:title="Mostra la pantalla de canvi de torn donant temps per a que el jugador es retiri i no vegi la pantalla...">
<polygon fill="white" stroke="#666666" points="669.25,-469.34 531,-469.34 531,-437.34 669.25,-437.34 669.25,-469.34"/>
<text text-anchor="start" x="539" y="-455.84" font-family="Helvetica,sans-Serif" font-size="10.00">drivers.Driver.PantallaCanvi</text>
<text text-anchor="middle" x="600.12" y="-443.84" font-family="Helvetica,sans-Serif" font-size="10.00">DeTorn</text>
</a>
</g>
</g>
<!-- Node24&#45;&gt;Node25 -->
<g id="edge28_Node000024_Node000025" class="edge">
<title>Node24&#45;&gt;Node25</title>
<g id="a_edge28_Node000024_Node000025"><a xlink:title=" ">
<path fill="none" stroke="#63b8ff" d="M449.54,-418.78C470.3,-423.58 495.56,-429.41 519.36,-434.91"/>
<polygon fill="#63b8ff" stroke="#63b8ff" points="518.53,-438.31 529.06,-437.15 520.1,-431.49 518.53,-438.31"/>
</a>
</g>
</g>
<!-- Node26 -->
<g id="Node000026" class="node">
<title>Node26</title>
<g id="a_Node000026"><a xlink:href="classdrivers_1_1_driver.html#a0ebb5e3010ea1f086dc4fd28df56ae54" target="_top" xlink:title="Genera una llista amb les lletres i dígrafs del paràmetre.">
<polygon fill="white" stroke="#666666" points="657.25,-419.34 543,-419.34 543,-399.34 657.25,-399.34 657.25,-419.34"/>
<text text-anchor="middle" x="600.12" y="-405.84" font-family="Helvetica,sans-Serif" font-size="10.00">drivers.Driver.tokenize</text>
</a>
</g>
</g>
<!-- Node24&#45;&gt;Node26 -->
<g id="edge31_Node000024_Node000026" class="edge">
<title>Node24&#45;&gt;Node26</title>
<g id="a_edge31_Node000024_Node000026"><a xlink:title=" ">
<path fill="none" stroke="#63b8ff" d="M474.68,-408.7C493.09,-408.8 512.9,-408.9 531.19,-408.99"/>
<polygon fill="#63b8ff" stroke="#63b8ff" points="531.12,-412.49 541.13,-409.05 531.15,-405.49 531.12,-412.49"/>
</a>
</g>
</g>
<!-- Node25&#45;&gt;Node2 -->
<g id="edge30_Node000025_Node000002" class="edge">
<title>Node25&#45;&gt;Node2</title>
<g id="a_edge30_Node000025_Node000002"><a xlink:title=" ">
<path fill="none" stroke="#63b8ff" d="M669.72,-437.82C683.71,-434.67 698.33,-431.39 712,-428.34 798.73,-409.02 833.67,-435.16 907.25,-385.34 968.71,-343.73 1008.39,-260.94 1024.37,-222.22"/>
<polygon fill="#63b8ff" stroke="#63b8ff" points="1027.55,-223.7 1028.01,-213.12 1021.05,-221.11 1027.55,-223.7"/>
</a>
</g>
</g>
<!-- Node25&#45;&gt;Node5 -->
<g id="edge29_Node000025_Node000005" class="edge">
<title>Node25&#45;&gt;Node5</title>
<g id="a_edge29_Node000025_Node000005"><a xlink:title=" ">
<path fill="none" stroke="#63b8ff" d="M624.71,-469.65C646.45,-483.96 680.1,-504.32 712,-516.34 718.71,-518.87 725.8,-521.11 732.98,-523.08"/>
<polygon fill="#63b8ff" stroke="#63b8ff" points="731.87,-526.41 742.43,-525.5 733.61,-519.63 731.87,-526.41"/>
</a>
</g>
</g>
<!-- Node27 -->
<g id="Node000027" class="node">
<title>Node27</title>
<g id="a_Node000027"><a xlink:href="classdrivers_1_1_driver.html#a1f0852212ac7d690fe9c705f9eadd737" target="_top" xlink:title="Donat un text entrat per terminal, és possible que el charSet de la consola no reconegui correctament...">
<polygon fill="white" stroke="#666666" points="882.12,-469.34 737.12,-469.34 737.12,-437.34 882.12,-437.34 882.12,-469.34"/>
<text text-anchor="start" x="745.12" y="-455.84" font-family="Helvetica,sans-Serif" font-size="10.00">drivers.Driver.corregir</text>
<text text-anchor="middle" x="809.62" y="-443.84" font-family="Helvetica,sans-Serif" font-size="10.00">_caracters_terminal_windows</text>
</a>
</g>
</g>
<!-- Node26&#45;&gt;Node27 -->
<g id="edge32_Node000026_Node000027" class="edge">
<title>Node26&#45;&gt;Node27</title>
<g id="a_edge32_Node000026_Node000027"><a xlink:title=" ">
<path fill="none" stroke="#63b8ff" d="M650.56,-419.83C673.01,-424.59 700.19,-430.35 725.63,-435.74"/>
<polygon fill="#63b8ff" stroke="#63b8ff" points="724.8,-439.15 735.31,-437.8 726.25,-432.3 724.8,-439.15"/>
</a>
</g>
</g>
<!-- Node27&#45;&gt;Node23 -->
<g id="edge34_Node000027_Node000023" class="edge">
<title>Node27&#45;&gt;Node23</title>
<g id="a_edge34_Node000027_Node000023"><a xlink:title=" ">
<path fill="none" stroke="#63b8ff" d="M882.62,-460.49C905.88,-462.79 931.75,-465.36 955.36,-467.7"/>
<polygon fill="#63b8ff" stroke="#63b8ff" points="954.94,-471.18 965.23,-468.68 955.63,-464.21 954.94,-471.18"/>
</a>
</g>
</g>
<!-- Node28 -->
<g id="Node000028" class="node">
<title>Node28</title>
<g id="a_Node000028"><a xlink:href="classdrivers_1_1_driver.html#a5337e850da710900d1ef6e2c4455a416" target="_top" xlink:title="Donada una seqüència de caràcters identifica qualsevol submot &quot;[VOCAL]?&quot; o &quot;?[VOCAL]&quot; i ho substituei...">
<polygon fill="white" stroke="#666666" points="1092,-447.34 974.75,-447.34 974.75,-415.34 1092,-415.34 1092,-447.34"/>
<text text-anchor="start" x="982.75" y="-433.84" font-family="Helvetica,sans-Serif" font-size="10.00">drivers.Driver.substituir</text>
<text text-anchor="middle" x="1033.38" y="-421.84" font-family="Helvetica,sans-Serif" font-size="10.00">Ctrencada</text>
</a>
</g>
</g>
<!-- Node27&#45;&gt;Node28 -->
<g id="edge33_Node000027_Node000028" class="edge">
<title>Node27&#45;&gt;Node28</title>
<g id="a_edge33_Node000027_Node000028"><a xlink:title=" ">
<path fill="none" stroke="#63b8ff" d="M882.62,-446.2C908.51,-443.63 937.63,-440.74 963.27,-438.2"/>
<polygon fill="#63b8ff" stroke="#63b8ff" points="963.29,-441.71 972.9,-437.24 962.6,-434.75 963.29,-441.71"/>
</a>
</g>
</g>
<!-- Node31&#45;&gt;Node25 -->
<g id="edge39_Node000031_Node000025" class="edge">
<title>Node31&#45;&gt;Node25</title>
<g id="a_edge39_Node000031_Node000025"><a xlink:title=" ">
<path fill="none" stroke="#63b8ff" d="M466.53,-450.62C483.33,-450.96 501.75,-451.34 519.37,-451.71"/>
<polygon fill="#63b8ff" stroke="#63b8ff" points="519.23,-455.2 529.3,-451.91 519.38,-448.2 519.23,-455.2"/>
</a>
</g>
</g>
<!-- Node33 -->
<g id="Node000033" class="node">
<title>Node33</title>
<g id="a_Node000033"><a xlink:href="classdrivers_1_1_driver.html#a65d5cdb033b4f42c0a2adf1fabb7b6ff" target="_top" xlink:title="Mostra el menú de pausa.">
<polygon fill="white" stroke="#666666" points="667.38,-258.34 532.88,-258.34 532.88,-226.34 667.38,-226.34 667.38,-258.34"/>
<text text-anchor="start" x="540.88" y="-244.84" font-family="Helvetica,sans-Serif" font-size="10.00">drivers.Driver.mostrarMenu</text>
<text text-anchor="middle" x="600.12" y="-232.84" font-family="Helvetica,sans-Serif" font-size="10.00">Pausa</text>
</a>
</g>
</g>
<!-- Node32&#45;&gt;Node33 -->
<g id="edge41_Node000032_Node000033" class="edge">
<title>Node32&#45;&gt;Node33</title>
<g id="a_edge41_Node000032_Node000033"><a xlink:title=" ">
<path fill="none" stroke="#63b8ff" d="M472.49,-242.34C488.35,-242.34 505.36,-242.34 521.6,-242.34"/>
<polygon fill="#63b8ff" stroke="#63b8ff" points="521.18,-245.84 531.18,-242.34 521.18,-238.84 521.18,-245.84"/>
</a>
</g>
</g>
<!-- Node33&#45;&gt;Node20 -->
<g id="edge42_Node000033_Node000020" class="edge">
<title>Node33&#45;&gt;Node20</title>
<g id="a_edge42_Node000033_Node000020"><a xlink:title=" ">
<path fill="none" stroke="#63b8ff" d="M667.64,-229.2C689.74,-224.83 714.45,-219.95 736.93,-215.51"/>
<polygon fill="#63b8ff" stroke="#63b8ff" points="737.5,-218.97 746.63,-213.59 736.14,-212.1 737.5,-218.97"/>
</a>
</g>
</g>
<!-- Node33&#45;&gt;Node29 -->
<g id="edge43_Node000033_Node000029" class="edge">
<title>Node33&#45;&gt;Node29</title>
<g id="a_edge43_Node000033_Node000029"><a xlink:title=" ">
<path fill="none" stroke="#63b8ff" d="M650.77,-258.77C669.8,-264.74 691.79,-271.27 712,-276.34 720.72,-278.53 729.94,-280.62 739.08,-282.57"/>
<polygon fill="#63b8ff" stroke="#63b8ff" points="738.18,-285.95 748.68,-284.55 739.59,-279.1 738.18,-285.95"/>
</a>
</g>
</g>
<!-- Node34 -->
<g id="Node000034" class="node">
<title>Node34</title>
<g id="a_Node000034"><a xlink:href="classdrivers_1_1_driver.html#a54fdfdd4f8f7e6333ada1d3dee920f44" target="_top" xlink:title="Reanuda una partida pausada.">
<polygon fill="white" stroke="#666666" points="868.62,-267.34 750.62,-267.34 750.62,-235.34 868.62,-235.34 868.62,-267.34"/>
<text text-anchor="start" x="758.62" y="-253.84" font-family="Helvetica,sans-Serif" font-size="10.00">drivers.Driver.reprendre</text>
<text text-anchor="middle" x="809.62" y="-241.84" font-family="Helvetica,sans-Serif" font-size="10.00">Partida</text>
</a>
</g>
</g>
<!-- Node33&#45;&gt;Node34 -->
<g id="edge44_Node000033_Node000034" class="edge">
<title>Node33&#45;&gt;Node34</title>
<g id="a_edge44_Node000033_Node000034"><a xlink:title=" ">
<path fill="none" stroke="#63b8ff" d="M667.64,-245.23C690.35,-246.21 715.81,-247.32 738.78,-248.31"/>
<polygon fill="#63b8ff" stroke="#63b8ff" points="738.53,-251.81 748.67,-248.74 738.84,-244.81 738.53,-251.81"/>
</a>
</g>
</g>
<!-- Node35&#45;&gt;Node2 -->
<g id="edge46_Node000035_Node000002" class="edge">
<title>Node35&#45;&gt;Node2</title>
<g id="a_edge46_Node000035_Node000002"><a xlink:title=" ">
<path fill="none" stroke="#63b8ff" d="M488.54,-113.61C589.57,-108.94 763.38,-108 907.25,-143.34 943.26,-152.19 981.5,-171.56 1006.08,-185.48"/>
<polygon fill="#63b8ff" stroke="#63b8ff" points="1004.02,-188.33 1014.43,-190.31 1007.53,-182.27 1004.02,-188.33"/>
</a>
</g>
</g>
<!-- Node36&#45;&gt;Node2 -->
<g id="edge48_Node000036_Node000002" class="edge">
<title>Node36&#45;&gt;Node2</title>
<g id="a_edge48_Node000036_Node000002"><a xlink:title=" ">
<path fill="none" stroke="#63b8ff" d="M673.87,-75.65C737.55,-73.29 831.47,-76.27 907.25,-105.34 951.26,-122.23 992.66,-159.81 1015.06,-182.63"/>
<polygon fill="#63b8ff" stroke="#63b8ff" points="1012.45,-184.96 1021.89,-189.75 1017.5,-180.11 1012.45,-184.96"/>
</a>
</g>
</g>
<!-- Node37&#45;&gt;Node2 -->
<g id="edge50_Node000037_Node000002" class="edge">
<title>Node37&#45;&gt;Node2</title>
<g id="a_edge50_Node000037_Node000002"><a xlink:title=" ">
<path fill="none" stroke="#63b8ff" d="M676.4,-36.01C740.85,-32.96 834.49,-36.39 907.25,-71.34 958.78,-96.1 1000.42,-151.62 1020.09,-181.46"/>
<polygon fill="#63b8ff" stroke="#63b8ff" points="1016.95,-183.05 1025.3,-189.58 1022.85,-179.27 1016.95,-183.05"/>
</a>
</g>
</g>
</g>
</svg>
