<?xml version="1.0" encoding="UTF-8" standalone="no"?>
<!DOCTYPE svg PUBLIC "-//W3C//DTD SVG 1.1//EN"
 "http://www.w3.org/Graphics/SVG/1.1/DTD/svg11.dtd">
<!-- Generated by graphviz version 12.2.1 (20241206.2353)
 -->
<!-- Title: domini.scrabble.Taulell.getMida Pages: 1 -->
<svg width="727pt" height="40pt"
 viewBox="0.00 0.00 726.75 40.00" xmlns="http://www.w3.org/2000/svg" xmlns:xlink="http://www.w3.org/1999/xlink">
<g id="graph0" class="graph" transform="scale(1 1) rotate(0) translate(4 36)">
<title>domini.scrabble.Taulell.getMida</title>
<!-- Node1 -->
<g id="Node000001" class="node">
<title>Node1</title>
<g id="a_Node000001"><a xlink:title="Retorna el nombre de files/columnes del taulell.">
<polygon fill="#999999" stroke="#666666" points="718.75,-26 566.25,-26 566.25,-6 718.75,-6 718.75,-26"/>
<text text-anchor="middle" x="642.5" y="-12.5" font-family="Helvetica,sans-Serif" font-size="10.00">domini.scrabble.Taulell.getMida</text>
</a>
</g>
</g>
<!-- Node2 -->
<g id="Node000002" class="node">
<title>Node2</title>
<g id="a_Node000002"><a xlink:href="classcontroladors_1_1_ctrl_partida.html#ab2365dd846883b62c30985d553d5e0da" target="_top" xlink:title="Comprova si una paraula col·locada toca alguna lletra existent al taulell.">
<polygon fill="white" stroke="#666666" points="530.25,-32 389.75,-32 389.75,0 530.25,0 530.25,-32"/>
<text text-anchor="start" x="397.75" y="-18.5" font-family="Helvetica,sans-Serif" font-size="10.00">controladors.CtrlPartida.toca</text>
<text text-anchor="middle" x="460" y="-6.5" font-family="Helvetica,sans-Serif" font-size="10.00">Lletra</text>
</a>
</g>
</g>
<!-- Node1&#45;&gt;Node2 -->
<g id="edge1_Node000001_Node000002" class="edge">
<title>Node1&#45;&gt;Node2</title>
<g id="a_edge1_Node000001_Node000002"><a xlink:title=" ">
<path fill="none" stroke="#63b8ff" d="M554.69,-16C546.65,-16 538.58,-16 530.73,-16"/>
<polygon fill="#63b8ff" stroke="#63b8ff" points="554.48,-19.5 564.48,-16 554.48,-12.5 554.48,-19.5"/>
</a>
</g>
</g>
<!-- Node3 -->
<g id="Node000003" class="node">
<title>Node3</title>
<g id="a_Node000003"><a xlink:href="classcontroladors_1_1_ctrl_partida.html#a11dd5c5c7252681872e3ba7baf8213a8" target="_top" xlink:title="Comprova si una paraula és vàlida.">
<polygon fill="white" stroke="#666666" points="353.75,-32 189.25,-32 189.25,0 353.75,0 353.75,-32"/>
<text text-anchor="start" x="197.25" y="-18.5" font-family="Helvetica,sans-Serif" font-size="10.00">controladors.CtrlPartida.comprova</text>
<text text-anchor="middle" x="271.5" y="-6.5" font-family="Helvetica,sans-Serif" font-size="10.00">_paraula</text>
</a>
</g>
</g>
<!-- Node2&#45;&gt;Node3 -->
<g id="edge2_Node000002_Node000003" class="edge">
<title>Node2&#45;&gt;Node3</title>
<g id="a_edge2_Node000002_Node000003"><a xlink:title=" ">
<path fill="none" stroke="#63b8ff" d="M377.85,-16C369.96,-16 361.96,-16 354.07,-16"/>
<polygon fill="#63b8ff" stroke="#63b8ff" points="377.78,-19.5 387.78,-16 377.78,-12.5 377.78,-19.5"/>
</a>
</g>
</g>
<!-- Node4 -->
<g id="Node000004" class="node">
<title>Node4</title>
<g id="a_Node000004"><a xlink:href="classcontroladors_1_1_ctrl_partida.html#ad0f7d5edb502bc4956cfd54612209ea7" target="_top" xlink:title="Col·loca una paraula al taulell.">
<polygon fill="white" stroke="#666666" points="153.25,-32 0,-32 0,0 153.25,0 153.25,-32"/>
<text text-anchor="start" x="8" y="-18.5" font-family="Helvetica,sans-Serif" font-size="10.00">controladors.CtrlPartida.colocar</text>
<text text-anchor="middle" x="76.62" y="-6.5" font-family="Helvetica,sans-Serif" font-size="10.00">Paraula</text>
</a>
</g>
</g>
<!-- Node3&#45;&gt;Node4 -->
<g id="edge3_Node000003_Node000004" class="edge">
<title>Node3&#45;&gt;Node4</title>
<g id="a_edge3_Node000003_Node000004"><a xlink:title=" ">
<path fill="none" stroke="#63b8ff" d="M177.65,-16C169.6,-16 161.52,-16 153.63,-16"/>
<polygon fill="#63b8ff" stroke="#63b8ff" points="177.47,-19.5 187.47,-16 177.47,-12.5 177.47,-19.5"/>
</a>
</g>
</g>
</g>
</svg>
