<?xml version="1.0" encoding="UTF-8" standalone="no"?>
<!DOCTYPE svg PUBLIC "-//W3C//DTD SVG 1.1//EN"
 "http://www.w3.org/Graphics/SVG/1.1/DTD/svg11.dtd">
<!-- Generated by graphviz version 12.2.1 (20241206.2353)
 -->
<!-- Title: controladors.CtrlPresentacio.getJugadorsRegistrats Pages: 1 -->
<svg width="586pt" height="126pt"
 viewBox="0.00 0.00 585.50 126.00" xmlns="http://www.w3.org/2000/svg" xmlns:xlink="http://www.w3.org/1999/xlink">
<g id="graph0" class="graph" transform="scale(1 1) rotate(0) translate(4 122)">
<title>controladors.CtrlPresentacio.getJugadorsRegistrats</title>
<!-- Node1 -->
<g id="Node000001" class="node">
<title>Node1</title>
<g id="a_Node000001"><a xlink:title="Retorna el conjunt de jugadors registrats al sistema.">
<polygon fill="#999999" stroke="#666666" points="577.5,-66 421.25,-66 421.25,-34 577.5,-34 577.5,-66"/>
<text text-anchor="start" x="429.25" y="-52.5" font-family="Helvetica,sans-Serif" font-size="10.00">controladors.CtrlPresentacio.get</text>
<text text-anchor="middle" x="499.38" y="-40.5" font-family="Helvetica,sans-Serif" font-size="10.00">JugadorsRegistrats</text>
</a>
</g>
</g>
<!-- Node2 -->
<g id="Node000002" class="node">
<title>Node2</title>
<g id="a_Node000002"><a xlink:href="classinterficie_1_1_vista_consultar_avatars.html#a2a900bc768080abeed9eb8f61321dbb0" target="_top" xlink:title="Carrega i mostra visualment tots els avatars registrats en un panell donat.">
<polygon fill="white" stroke="#666666" points="372.5,-95 250.75,-95 250.75,-63 372.5,-63 372.5,-95"/>
<text text-anchor="start" x="258.75" y="-81.5" font-family="Helvetica,sans-Serif" font-size="10.00">interficie.VistaConsultar</text>
<text text-anchor="middle" x="311.62" y="-69.5" font-family="Helvetica,sans-Serif" font-size="10.00">Avatars.carregarAvatars</text>
</a>
</g>
</g>
<!-- Node1&#45;&gt;Node2 -->
<g id="edge1_Node000001_Node000002" class="edge">
<title>Node1&#45;&gt;Node2</title>
<g id="a_edge1_Node000001_Node000002"><a xlink:title=" ">
<path fill="none" stroke="#63b8ff" d="M409.6,-63.86C397.18,-65.8 384.67,-67.75 372.95,-69.58"/>
<polygon fill="#63b8ff" stroke="#63b8ff" points="410.11,-67.32 419.45,-62.32 409.03,-60.41 410.11,-67.32"/>
</a>
</g>
</g>
<!-- Node4 -->
<g id="Node000004" class="node">
<title>Node4</title>
<g id="a_Node000004"><a xlink:href="classinterficie_1_1_vista_consultar_estadistiques.html#a1750040263d1dc3000d715a201aee3b2" target="_top" xlink:title="Carrega els avatars dels jugadors registrats al model de la llista.">
<polygon fill="white" stroke="#666666" points="385.25,-41 238,-41 238,-9 385.25,-9 385.25,-41"/>
<text text-anchor="start" x="246" y="-27.5" font-family="Helvetica,sans-Serif" font-size="10.00">interficie.VistaConsultar</text>
<text text-anchor="middle" x="311.62" y="-15.5" font-family="Helvetica,sans-Serif" font-size="10.00">Estadistiques.carregarAvatars</text>
</a>
</g>
</g>
<!-- Node1&#45;&gt;Node4 -->
<g id="edge4_Node000001_Node000004" class="edge">
<title>Node1&#45;&gt;Node4</title>
<g id="a_edge4_Node000001_Node000004"><a xlink:title=" ">
<path fill="none" stroke="#63b8ff" d="M409.58,-38.05C401.5,-36.96 393.38,-35.87 385.47,-34.8"/>
<polygon fill="#63b8ff" stroke="#63b8ff" points="409.07,-41.51 419.45,-39.38 410,-34.57 409.07,-41.51"/>
</a>
</g>
</g>
<!-- Node3 -->
<g id="Node000003" class="node">
<title>Node3</title>
<g id="a_Node000003"><a xlink:href="classinterficie_1_1_vista_consultar_avatars.html#aad0f3c358880880d6c374569d93117cd" target="_top" xlink:title="Constructor de la vista que mostra la llista d&#39;avatares registrats.">
<polygon fill="white" stroke="#666666" points="176.5,-100 25.5,-100 25.5,-68 176.5,-68 176.5,-100"/>
<text text-anchor="start" x="33.5" y="-86.5" font-family="Helvetica,sans-Serif" font-size="10.00">interficie.VistaConsultar</text>
<text text-anchor="middle" x="101" y="-74.5" font-family="Helvetica,sans-Serif" font-size="10.00">Avatars.VistaConsultarAvatars</text>
</a>
</g>
</g>
<!-- Node2&#45;&gt;Node3 -->
<g id="edge2_Node000002_Node000003" class="edge">
<title>Node2&#45;&gt;Node3</title>
<g id="a_edge2_Node000002_Node000003"><a xlink:title=" ">
<path fill="none" stroke="#63b8ff" d="M238.99,-80.72C218.88,-81.2 196.96,-81.72 176.67,-82.21"/>
<polygon fill="#63b8ff" stroke="#63b8ff" points="238.86,-84.22 248.77,-80.48 238.69,-77.22 238.86,-84.22"/>
</a>
</g>
</g>
<!-- Node3&#45;&gt;Node3 -->
<g id="edge3_Node000003_Node000003" class="edge">
<title>Node3&#45;&gt;Node3</title>
<g id="a_edge3_Node000003_Node000003"><a xlink:title=" ">
<path fill="none" stroke="#63b8ff" d="M136.35,-111.54C130.58,-115.41 118.8,-118 101,-118 68.91,-118 56.38,-109.58 63.4,-100.44"/>
<polygon fill="#63b8ff" stroke="#63b8ff" points="139.74,-112.42 138.3,-101.93 132.88,-111.03 139.74,-112.42"/>
</a>
</g>
</g>
<!-- Node5 -->
<g id="Node000005" class="node">
<title>Node5</title>
<g id="a_Node000005"><a xlink:href="classinterficie_1_1_vista_consultar_estadistiques.html#a72ea2d682e9b49e5fa9a21c42187f581" target="_top" xlink:title="Constructor principal de la vista.">
<polygon fill="white" stroke="#666666" points="202,-32 0,-32 0,0 202,0 202,-32"/>
<text text-anchor="start" x="8" y="-18.5" font-family="Helvetica,sans-Serif" font-size="10.00">interficie.VistaConsultar</text>
<text text-anchor="middle" x="101" y="-6.5" font-family="Helvetica,sans-Serif" font-size="10.00">Estadistiques.VistaConsultarEstadistiques</text>
</a>
</g>
</g>
<!-- Node4&#45;&gt;Node5 -->
<g id="edge5_Node000004_Node000005" class="edge">
<title>Node4&#45;&gt;Node5</title>
<g id="a_edge5_Node000004_Node000005"><a xlink:title=" ">
<path fill="none" stroke="#63b8ff" d="M226.28,-21.36C218.43,-21.02 210.41,-20.68 202.43,-20.33"/>
<polygon fill="#63b8ff" stroke="#63b8ff" points="226,-24.85 236.15,-21.79 226.31,-17.86 226,-24.85"/>
</a>
</g>
</g>
<!-- Node5&#45;&gt;Node5 -->
<g id="edge6_Node000005_Node000005" class="edge">
<title>Node5&#45;&gt;Node5</title>
<g id="a_edge6_Node000005_Node000005"><a xlink:title=" ">
<path fill="none" stroke="#63b8ff" d="M136.35,-43.54C130.58,-47.41 118.8,-50 101,-50 68.91,-50 56.38,-41.58 63.4,-32.44"/>
<polygon fill="#63b8ff" stroke="#63b8ff" points="139.74,-44.42 138.3,-33.93 132.88,-43.03 139.74,-44.42"/>
</a>
</g>
</g>
</g>
</svg>
