<?xml version="1.0" encoding="UTF-8" standalone="no"?>
<!DOCTYPE svg PUBLIC "-//W3C//DTD SVG 1.1//EN"
 "http://www.w3.org/Graphics/SVG/1.1/DTD/svg11.dtd">
<!-- Generated by graphviz version 12.2.1 (20241206.2353)
 -->
<!-- Title: controladors.CtrlDomini.eliminarJugador Pages: 1 -->
<svg width="568pt" height="140pt"
 viewBox="0.00 0.00 567.50 140.00" xmlns="http://www.w3.org/2000/svg" xmlns:xlink="http://www.w3.org/1999/xlink">
<g id="graph0" class="graph" transform="scale(1 1) rotate(0) translate(4 136)">
<title>controladors.CtrlDomini.eliminarJugador</title>
<!-- Node1 -->
<g id="Node000001" class="node">
<title>Node1</title>
<g id="a_Node000001"><a xlink:title="Elimina un jugador registrat del sistema.">
<polygon fill="#999999" stroke="#666666" points="155.5,-82 0,-82 0,-50 155.5,-50 155.5,-82"/>
<text text-anchor="start" x="8" y="-68.5" font-family="Helvetica,sans-Serif" font-size="10.00">controladors.CtrlDomini.eliminar</text>
<text text-anchor="middle" x="77.75" y="-56.5" font-family="Helvetica,sans-Serif" font-size="10.00">Jugador</text>
</a>
</g>
</g>
<!-- Node2 -->
<g id="Node000002" class="node">
<title>Node2</title>
<g id="a_Node000002"><a xlink:href="classcontroladors_1_1_ctrl_persistencia.html#a09020132c18c52085e84f9e4480bdb30" target="_top" xlink:title="Elimina un jugador de l&#39;emmagatzematge persistent.">
<polygon fill="white" stroke="#666666" points="370.25,-132 191.5,-132 191.5,-100 370.25,-100 370.25,-132"/>
<text text-anchor="start" x="199.5" y="-118.5" font-family="Helvetica,sans-Serif" font-size="10.00">controladors.CtrlPersistencia.eliminar</text>
<text text-anchor="middle" x="280.88" y="-106.5" font-family="Helvetica,sans-Serif" font-size="10.00">Jugador</text>
</a>
</g>
</g>
<!-- Node1&#45;&gt;Node2 -->
<g id="edge1_Node000001_Node000002" class="edge">
<title>Node1&#45;&gt;Node2</title>
<g id="a_edge1_Node000001_Node000002"><a xlink:title=" ">
<path fill="none" stroke="#63b8ff" d="M144.88,-82.44C163.36,-87.03 183.59,-92.06 202.64,-96.8"/>
<polygon fill="#63b8ff" stroke="#63b8ff" points="201.68,-100.17 212.23,-99.18 203.37,-93.37 201.68,-100.17"/>
</a>
</g>
</g>
<!-- Node4 -->
<g id="Node000004" class="node">
<title>Node4</title>
<g id="a_Node000004"><a xlink:href="classcontroladors_1_1_ctrl_persistencia.html#a3e338a9b45aaa502d95cb1816545b734" target="_top" xlink:title="Desa un usuari a l&#39;emmagatzematge persistent.">
<polygon fill="white" stroke="#666666" points="369.5,-82 192.25,-82 192.25,-50 369.5,-50 369.5,-82"/>
<text text-anchor="start" x="200.25" y="-68.5" font-family="Helvetica,sans-Serif" font-size="10.00">controladors.CtrlPersistencia.guardar</text>
<text text-anchor="middle" x="280.88" y="-56.5" font-family="Helvetica,sans-Serif" font-size="10.00">Usuari</text>
</a>
</g>
</g>
<!-- Node1&#45;&gt;Node4 -->
<g id="edge3_Node000001_Node000004" class="edge">
<title>Node1&#45;&gt;Node4</title>
<g id="a_edge3_Node000001_Node000004"><a xlink:title=" ">
<path fill="none" stroke="#63b8ff" d="M155.93,-66C164.01,-66 172.29,-66 180.57,-66"/>
<polygon fill="#63b8ff" stroke="#63b8ff" points="180.31,-69.5 190.31,-66 180.31,-62.5 180.31,-69.5"/>
</a>
</g>
</g>
<!-- Node6 -->
<g id="Node000006" class="node">
<title>Node6</title>
<g id="a_Node000006"><a xlink:href="classcontroladors_1_1_ctrl_domini.html#a06fdbc3f2ea636aedeb64b9265678f32" target="_top" xlink:title="Obté l&#39;identificador d&#39;un jugador registrat.">
<polygon fill="white" stroke="#666666" points="356.38,-32 205.38,-32 205.38,0 356.38,0 356.38,-32"/>
<text text-anchor="start" x="213.38" y="-18.5" font-family="Helvetica,sans-Serif" font-size="10.00">controladors.CtrlDomini.obtenir</text>
<text text-anchor="middle" x="280.88" y="-6.5" font-family="Helvetica,sans-Serif" font-size="10.00">IdJugador</text>
</a>
</g>
</g>
<!-- Node1&#45;&gt;Node6 -->
<g id="edge5_Node000001_Node000006" class="edge">
<title>Node1&#45;&gt;Node6</title>
<g id="a_edge5_Node000001_Node000006"><a xlink:title=" ">
<path fill="none" stroke="#63b8ff" d="M144.88,-49.56C163.36,-44.97 183.59,-39.94 202.64,-35.2"/>
<polygon fill="#63b8ff" stroke="#63b8ff" points="203.37,-38.63 212.23,-32.82 201.68,-31.83 203.37,-38.63"/>
</a>
</g>
</g>
<!-- Node3 -->
<g id="Node000003" class="node">
<title>Node3</title>
<g id="a_Node000003"><a xlink:href="classpersistencia_1_1_jugador_i_o.html#a33bb33e9446715359568286f85f9f307" target="_top" xlink:title="Elimina un jugador esborrant el seu fitxer JSON.">
<polygon fill="white" stroke="#666666" points="559.5,-132 406.25,-132 406.25,-100 559.5,-100 559.5,-132"/>
<text text-anchor="start" x="414.25" y="-118.5" font-family="Helvetica,sans-Serif" font-size="10.00">persistencia.JugadorIO.eliminar</text>
<text text-anchor="middle" x="482.88" y="-106.5" font-family="Helvetica,sans-Serif" font-size="10.00">Jugador</text>
</a>
</g>
</g>
<!-- Node2&#45;&gt;Node3 -->
<g id="edge2_Node000002_Node000003" class="edge">
<title>Node2&#45;&gt;Node3</title>
<g id="a_edge2_Node000002_Node000003"><a xlink:title=" ">
<path fill="none" stroke="#63b8ff" d="M370.47,-116C378.4,-116 386.43,-116 394.36,-116"/>
<polygon fill="#63b8ff" stroke="#63b8ff" points="394.35,-119.5 404.35,-116 394.35,-112.5 394.35,-119.5"/>
</a>
</g>
</g>
<!-- Node5 -->
<g id="Node000005" class="node">
<title>Node5</title>
<g id="a_Node000005"><a xlink:href="classpersistencia_1_1_usuari_i_o.html#adae8b6b62d1b4cbbff286eaa19877937" target="_top" xlink:title="Desa un usuari a un fitxer JSON.">
<polygon fill="white" stroke="#666666" points="550.12,-82 415.62,-82 415.62,-50 550.12,-50 550.12,-82"/>
<text text-anchor="start" x="423.62" y="-68.5" font-family="Helvetica,sans-Serif" font-size="10.00">persistencia.UsuariIO.save</text>
<text text-anchor="middle" x="482.88" y="-56.5" font-family="Helvetica,sans-Serif" font-size="10.00">Usuari</text>
</a>
</g>
</g>
<!-- Node4&#45;&gt;Node5 -->
<g id="edge4_Node000004_Node000005" class="edge">
<title>Node4&#45;&gt;Node5</title>
<g id="a_edge4_Node000004_Node000005"><a xlink:title=" ">
<path fill="none" stroke="#63b8ff" d="M369.89,-66C381.17,-66 392.65,-66 403.76,-66"/>
<polygon fill="#63b8ff" stroke="#63b8ff" points="403.66,-69.5 413.66,-66 403.66,-62.5 403.66,-69.5"/>
</a>
</g>
</g>
</g>
</svg>
