<?xml version="1.0" encoding="UTF-8" standalone="no"?>
<!DOCTYPE svg PUBLIC "-//W3C//DTD SVG 1.1//EN"
 "http://www.w3.org/Graphics/SVG/1.1/DTD/svg11.dtd">
<!-- Generated by graphviz version 12.2.1 (20241206.2353)
 -->
<!-- Title: interficie.VistaMenuJoc.escalarComponentes Pages: 1 -->
<svg width="508pt" height="58pt"
 viewBox="0.00 0.00 508.25 58.00" xmlns="http://www.w3.org/2000/svg" xmlns:xlink="http://www.w3.org/1999/xlink">
<g id="graph0" class="graph" transform="scale(1 1) rotate(0) translate(4 54)">
<title>interficie.VistaMenuJoc.escalarComponentes</title>
<!-- Node1 -->
<g id="Node000001" class="node">
<title>Node1</title>
<g id="a_Node000001"><a xlink:title="Escala tots els components gràfics en funció de la mida de la finestra.">
<polygon fill="#999999" stroke="#666666" points="500.25,-32 347.75,-32 347.75,0 500.25,0 500.25,-32"/>
<text text-anchor="start" x="355.75" y="-18.5" font-family="Helvetica,sans-Serif" font-size="10.00">interficie.VistaMenuJoc.escalar</text>
<text text-anchor="middle" x="424" y="-6.5" font-family="Helvetica,sans-Serif" font-size="10.00">Componentes</text>
</a>
</g>
</g>
<!-- Node2 -->
<g id="Node000002" class="node">
<title>Node2</title>
<g id="a_Node000002"><a xlink:href="$classinterficie_1_1_vista_menu_joc.html#afab63b4d82b26b00b711c7a5473d7707" xlink:title="Constructor de la classe VistaMenuJoc.">
<polygon fill="white" stroke="#666666" points="311.75,-32 190.75,-32 190.75,0 311.75,0 311.75,-32"/>
<text text-anchor="start" x="198.75" y="-18.5" font-family="Helvetica,sans-Serif" font-size="10.00">interficie.VistaMenuJoc.</text>
<text text-anchor="middle" x="251.25" y="-6.5" font-family="Helvetica,sans-Serif" font-size="10.00">VistaMenuJoc</text>
</a>
</g>
</g>
<!-- Node1&#45;&gt;Node2 -->
<g id="edge1_Node000001_Node000002" class="edge">
<title>Node1&#45;&gt;Node2</title>
<g id="a_edge1_Node000001_Node000002"><a xlink:title=" ">
<path fill="none" stroke="#63b8ff" d="M336.14,-16C328.02,-16 319.91,-16 312.12,-16"/>
<polygon fill="#63b8ff" stroke="#63b8ff" points="336.1,-19.5 346.1,-16 336.1,-12.5 336.1,-19.5"/>
</a>
</g>
</g>
<!-- Node2&#45;&gt;Node2 -->
<g id="edge4_Node000002_Node000002" class="edge">
<title>Node2&#45;&gt;Node2</title>
<g id="a_edge4_Node000002_Node000002"><a xlink:title=" ">
<path fill="none" stroke="#63b8ff" d="M280.04,-43.71C275.24,-47.48 265.64,-50 251.25,-50 224.93,-50 214.65,-41.58 220.41,-32.44"/>
<polygon fill="#63b8ff" stroke="#63b8ff" points="283.47,-44.4 281.82,-33.93 276.58,-43.14 283.47,-44.4"/>
</a>
</g>
</g>
<!-- Node3 -->
<g id="Node000003" class="node">
<title>Node3</title>
<g id="a_Node000003"><a xlink:href="$classinterficie_1_1_vista_menu_joc.html#a357d2c3488fc972b443bb25cf44c8d1b" xlink:title="Lògica per eliminar el perfil.">
<polygon fill="white" stroke="#666666" points="154.75,-32 0,-32 0,0 154.75,0 154.75,-32"/>
<text text-anchor="start" x="8" y="-18.5" font-family="Helvetica,sans-Serif" font-size="10.00">interficie.VistaMenuJoc.eliminar</text>
<text text-anchor="middle" x="77.38" y="-6.5" font-family="Helvetica,sans-Serif" font-size="10.00">Perfil</text>
</a>
</g>
</g>
<!-- Node2&#45;&gt;Node3 -->
<g id="edge2_Node000002_Node000003" class="edge">
<title>Node2&#45;&gt;Node3</title>
<g id="a_edge2_Node000002_Node000003"><a xlink:title=" ">
<path fill="none" stroke="#63b8ff" d="M179.17,-9.34C171.24,-9.24 163.15,-9.22 155.16,-9.28"/>
<polygon fill="#63b8ff" stroke="#63b8ff" points="179.05,-12.84 189.11,-9.51 179.17,-5.84 179.05,-12.84"/>
</a>
</g>
</g>
<!-- Node3&#45;&gt;Node2 -->
<g id="edge3_Node000003_Node000002" class="edge">
<title>Node3&#45;&gt;Node2</title>
<g id="a_edge3_Node000003_Node000002"><a xlink:title=" ">
<path fill="none" stroke="#63b8ff" d="M166.63,-22.75C174.75,-22.73 182.84,-22.64 190.62,-22.46"/>
<polygon fill="#63b8ff" stroke="#63b8ff" points="166.68,-19.25 156.67,-22.72 166.66,-26.25 166.68,-19.25"/>
</a>
</g>
</g>
</g>
</svg>
