<?xml version="1.0" encoding="UTF-8" standalone="no"?>
<!DOCTYPE svg PUBLIC "-//W3C//DTD SVG 1.1//EN"
 "http://www.w3.org/Graphics/SVG/1.1/DTD/svg11.dtd">
<!-- Generated by graphviz version 12.2.1 (20241206.2353)
 -->
<!-- Title: controladors.CtrlDomini.crearJugador Pages: 1 -->
<!--zoomable 140 -->

<svg id="main" version="1.1" xmlns="http://www.w3.org/2000/svg" xmlns:xlink="http://www.w3.org/1999/xlink" xml:space="preserve" onload="init(evt)">

<style type="text/css"><![CDATA[
.node, .edge {opacity: 0.7;}
.node.selected, .edge.selected {opacity: 1;}
.edge:hover path { stroke: red; }
.edge:hover polygon { stroke: red; fill: red; }
]]></style>

<defs>
  <circle id="rim" cx="0" cy="0" r="7"/>
  <circle id="rim2" cx="0" cy="0" r="3.5"/>
  <g id="zoomPlus">
    <use xlink:href="#rim" fill="#404040"><set attributeName="fill" to="#808080" begin="zoomplus.mouseover" end="zoomplus.mouseout"/></use>
    <path d="M-4,0h8M0,-4v8" fill="none" stroke="white" stroke-width="1.5" pointer-events="none"/>
  </g>
  <g id="zoomMin">
    <use xlink:href="#rim" fill="#404040"><set attributeName="fill" to="#808080" begin="zoomminus.mouseover" end="zoomminus.mouseout"/></use>
    <path d="M-4,0h8" fill="none" stroke="white" stroke-width="1.5" pointer-events="none"/>
  </g>
  <g id="arrowUp" transform="translate(30 24)">
    <use xlink:href="#rim"/>
    <path pointer-events="none" fill="none" stroke="white" stroke-width="1.5" d="M0,-3.0v7 M-2.5,-0.5L0,-3.0L2.5,-0.5"/>
  </g>
  <g id="arrowRight" transform="rotate(90) translate(36 -43)">
    <use xlink:href="#rim"/>
    <path pointer-events="none" fill="none" stroke="white" stroke-width="1.5" d="M0,-3.0v7 M-2.5,-0.5L0,-3.0L2.5,-0.5"/>
  </g>
  <g id="arrowDown" transform="rotate(180) translate(-30 -48)">
    <use xlink:href="#rim"/>
    <path pointer-events="none" fill="none" stroke="white" stroke-width="1.5" d="M0,-3.0v7 M-2.5,-0.5L0,-3.0L2.5,-0.5"/>
  </g>
  <g id="arrowLeft" transform="rotate(270) translate(-36 17)">
    <use xlink:href="#rim"/>
    <path pointer-events="none" fill="none" stroke="white" stroke-width="1.5" d="M0,-3.0v7 M-2.5,-0.5L0,-3.0L2.5,-0.5"/>
  </g>
  <g id="resetDef">
    <use xlink:href="#rim2" fill="#404040"><set attributeName="fill" to="#808080" begin="reset.mouseover" end="reset.mouseout"/></use>
  </g>
</defs>
<script type="application/ecmascript">
var viewWidth = 541;
var viewHeight = 140;
var sectionId = 'dynsection-8';
</script>
<script type="application/ecmascript" xlink:href="svg.min.js"/>
<svg id="graph" class="graph">
<g id="viewport">
<title>controladors.CtrlDomini.crearJugador</title>
<!-- Node1 -->
<g id="Node000001" class="node">
<title>Node1</title>
<g id="a_Node000001"><a xlink:title="Crea un jugador associat a l&#39;usuari actiu.">
<polygon fill="#999999" stroke="#666666" points="143.5,-82 0,-82 0,-50 143.5,-50 143.5,-82"/>
<text text-anchor="start" x="8" y="-68.5" font-family="Helvetica,sans-Serif" font-size="10.00">controladors.CtrlDomini.crear</text>
<text text-anchor="middle" x="71.75" y="-56.5" font-family="Helvetica,sans-Serif" font-size="10.00">Jugador</text>
</a>
</g>
</g>
<!-- Node2 -->
<g id="Node000002" class="node">
<title>Node2</title>
<g id="a_Node000002"><a xlink:href="classcontroladors_1_1_ctrl_persistencia.html#a087f94cda6a408396c8faa53f84a1e0e" target="_top" xlink:title="Desa un jugador a l&#39;emmagatzematge persistent.">
<polygon fill="white" stroke="#666666" points="356.75,-132 179.5,-132 179.5,-100 356.75,-100 356.75,-132"/>
<text text-anchor="start" x="187.5" y="-118.5" font-family="Helvetica,sans-Serif" font-size="10.00">controladors.CtrlPersistencia.guardar</text>
<text text-anchor="middle" x="268.12" y="-106.5" font-family="Helvetica,sans-Serif" font-size="10.00">Jugador</text>
</a>
</g>
</g>
<!-- Node1&#45;&gt;Node2 -->
<g id="edge1_Node000001_Node000002" class="edge">
<title>Node1&#45;&gt;Node2</title>
<g id="a_edge1_Node000001_Node000002"><a xlink:title=" ">
<path fill="none" stroke="#63b8ff" d="M136.66,-82.44C154.43,-87.01 173.89,-92.02 192.23,-96.73"/>
<polygon fill="#63b8ff" stroke="#63b8ff" points="191.15,-100.07 201.71,-99.17 192.89,-93.29 191.15,-100.07"/>
</a>
</g>
</g>
<!-- Node4 -->
<g id="Node000004" class="node">
<title>Node4</title>
<g id="a_Node000004"><a xlink:href="classcontroladors_1_1_ctrl_persistencia.html#a3e338a9b45aaa502d95cb1816545b734" target="_top" xlink:title="Desa un usuari a l&#39;emmagatzematge persistent.">
<polygon fill="white" stroke="#666666" points="356.75,-82 179.5,-82 179.5,-50 356.75,-50 356.75,-82"/>
<text text-anchor="start" x="187.5" y="-68.5" font-family="Helvetica,sans-Serif" font-size="10.00">controladors.CtrlPersistencia.guardar</text>
<text text-anchor="middle" x="268.12" y="-56.5" font-family="Helvetica,sans-Serif" font-size="10.00">Usuari</text>
</a>
</g>
</g>
<!-- Node1&#45;&gt;Node4 -->
<g id="edge3_Node000001_Node000004" class="edge">
<title>Node1&#45;&gt;Node4</title>
<g id="a_edge3_Node000001_Node000004"><a xlink:title=" ">
<path fill="none" stroke="#63b8ff" d="M143.75,-66C151.56,-66 159.62,-66 167.7,-66"/>
<polygon fill="#63b8ff" stroke="#63b8ff" points="167.6,-69.5 177.6,-66 167.6,-62.5 167.6,-69.5"/>
</a>
</g>
</g>
<!-- Node6 -->
<g id="Node000006" class="node">
<title>Node6</title>
<g id="a_Node000006"><a xlink:href="classcontroladors_1_1_ctrl_domini.html#acbfe76cf3d8881c6f330c28dca4677d5" target="_top" xlink:title="Assigna un id a un jugador.">
<polygon fill="white" stroke="#666666" points="343.62,-32 192.62,-32 192.62,0 343.62,0 343.62,-32"/>
<text text-anchor="start" x="200.62" y="-18.5" font-family="Helvetica,sans-Serif" font-size="10.00">controladors.CtrlDomini.obtenir</text>
<text text-anchor="middle" x="268.12" y="-6.5" font-family="Helvetica,sans-Serif" font-size="10.00">NouIdJugador</text>
</a>
</g>
</g>
<!-- Node1&#45;&gt;Node6 -->
<g id="edge5_Node000001_Node000006" class="edge">
<title>Node1&#45;&gt;Node6</title>
<g id="a_edge5_Node000001_Node000006"><a xlink:title=" ">
<path fill="none" stroke="#63b8ff" d="M136.66,-49.56C154.43,-44.99 173.89,-39.98 192.23,-35.27"/>
<polygon fill="#63b8ff" stroke="#63b8ff" points="192.89,-38.71 201.71,-32.83 191.15,-31.93 192.89,-38.71"/>
</a>
</g>
</g>
<!-- Node3 -->
<g id="Node000003" class="node">
<title>Node3</title>
<g id="a_Node000003"><a xlink:href="classpersistencia_1_1_jugador_i_o.html#aeb13d0e82937696c7c053612278c6ee9" target="_top" xlink:title="Desa un jugador a un fitxer JSON.">
<polygon fill="white" stroke="#666666" points="533.25,-132 392.75,-132 392.75,-100 533.25,-100 533.25,-132"/>
<text text-anchor="start" x="400.75" y="-118.5" font-family="Helvetica,sans-Serif" font-size="10.00">persistencia.JugadorIO.save</text>
<text text-anchor="middle" x="463" y="-106.5" font-family="Helvetica,sans-Serif" font-size="10.00">Jugador</text>
</a>
</g>
</g>
<!-- Node2&#45;&gt;Node3 -->
<g id="edge2_Node000002_Node000003" class="edge">
<title>Node2&#45;&gt;Node3</title>
<g id="a_edge2_Node000002_Node000003"><a xlink:title=" ">
<path fill="none" stroke="#63b8ff" d="M357.1,-116C365.04,-116 373.06,-116 380.94,-116"/>
<polygon fill="#63b8ff" stroke="#63b8ff" points="380.85,-119.5 390.85,-116 380.85,-112.5 380.85,-119.5"/>
</a>
</g>
</g>
<!-- Node5 -->
<g id="Node000005" class="node">
<title>Node5</title>
<g id="a_Node000005"><a xlink:href="classpersistencia_1_1_usuari_i_o.html#adae8b6b62d1b4cbbff286eaa19877937" target="_top" xlink:title="Desa un usuari a un fitxer JSON.">
<polygon fill="white" stroke="#666666" points="530.25,-82 395.75,-82 395.75,-50 530.25,-50 530.25,-82"/>
<text text-anchor="start" x="403.75" y="-68.5" font-family="Helvetica,sans-Serif" font-size="10.00">persistencia.UsuariIO.save</text>
<text text-anchor="middle" x="463" y="-56.5" font-family="Helvetica,sans-Serif" font-size="10.00">Usuari</text>
</a>
</g>
</g>
<!-- Node4&#45;&gt;Node5 -->
<g id="edge4_Node000004_Node000005" class="edge">
<title>Node4&#45;&gt;Node5</title>
<g id="a_edge4_Node000004_Node000005"><a xlink:title=" ">
<path fill="none" stroke="#63b8ff" d="M357.1,-66C366.08,-66 375.16,-66 384.02,-66"/>
<polygon fill="#63b8ff" stroke="#63b8ff" points="384.01,-69.5 394.01,-66 384.01,-62.5 384.01,-69.5"/>
</a>
</g>
</g>
</g>
</svg>

<g id="navigator" transform="translate(0 0)" fill="#404254">
  <rect fill="#f2f5e9" fill-opacity="0.5" stroke="#606060" stroke-width=".5" x="0" y="0" width="60" height="60"/>
  <use id="zoomplus" xlink:href="#zoomPlus" x="17" y="9" onmousedown="handleZoom(evt,'in')"/>
  <use id="zoomminus" xlink:href="#zoomMin" x="42" y="9" onmousedown="handleZoom(evt,'out')"/>
  <use id="reset" xlink:href="#resetDef" x="30" y="36" onmousedown="handleReset()"/>
   <use id="arrowup" xlink:href="#arrowUp" x="0" y="0" onmousedown="handlePan(0,-1)"/>
  <use id="arrowright" xlink:href="#arrowRight" x="0" y="0" onmousedown="handlePan(1,0)"/>
  <use id="arrowdown" xlink:href="#arrowDown" x="0" y="0" onmousedown="handlePan(0,1)"/>
  <use id="arrowleft" xlink:href="#arrowLeft" x="0" y="0" onmousedown="handlePan(-1,0)"/>
</g>
<svg viewBox="0 0 15 15" width="100%" height="30px" preserveAspectRatio="xMaxYMin meet">
 <g id="arrow_out" transform="scale(0.3 0.3)">
  <a xlink:href="classcontroladors_1_1_ctrl_domini_a7ee797a2519cf4765bbbcf674836a1a6_cgraph_org.svg" target="_base">
   <rect id="button" ry="5" rx="5" y="6" x="6" height="38" width="38"
        fill="#f2f5e9" fill-opacity="0.5" stroke="#606060" stroke-width="1.0"/>
   <path id="arrow"
     d="M 11.500037,31.436501 C 11.940474,20.09759 22.043105,11.32322 32.158766,21.979434 L 37.068811,17.246167 C 37.068811,17.246167 37.088388,32 37.088388,32 L 22.160133,31.978069 C 22.160133,31.978069 26.997745,27.140456 26.997745,27.140456 C 18.528582,18.264221 13.291696,25.230495 11.500037,31.436501 z"
     style="fill:#404040;"/>
  </a>
 </g>
</svg>

<style type='text/css'>
<![CDATA[
[data-mouse-over-selected='false'] { opacity: 0.7; }
[data-mouse-over-selected='true']  { opacity: 1.0; }
]]>
</style>
<script type="application/ecmascript"><![CDATA[
document.addEventListener('DOMContentLoaded', (event) => {
  highlightEdges();
  highlightAdjacentNodes();
});
]]></script>
</svg>
