<?xml version="1.0" encoding="UTF-8" standalone="no"?>
<!DOCTYPE svg PUBLIC "-//W3C//DTD SVG 1.1//EN"
 "http://www.w3.org/Graphics/SVG/1.1/DTD/svg11.dtd">
<!-- Generated by graphviz version 12.2.1 (20241206.2353)
 -->
<!-- Title: controladors.CtrlPresentacio.launchApp Pages: 1 -->
<!--zoomable 90 -->

<svg id="main" version="1.1" xmlns="http://www.w3.org/2000/svg" xmlns:xlink="http://www.w3.org/1999/xlink" xml:space="preserve" onload="init(evt)">

<style type="text/css"><![CDATA[
.node, .edge {opacity: 0.7;}
.node.selected, .edge.selected {opacity: 1;}
.edge:hover path { stroke: red; }
.edge:hover polygon { stroke: red; fill: red; }
]]></style>

<defs>
  <circle id="rim" cx="0" cy="0" r="7"/>
  <circle id="rim2" cx="0" cy="0" r="3.5"/>
  <g id="zoomPlus">
    <use xlink:href="#rim" fill="#404040"><set attributeName="fill" to="#808080" begin="zoomplus.mouseover" end="zoomplus.mouseout"/></use>
    <path d="M-4,0h8M0,-4v8" fill="none" stroke="white" stroke-width="1.5" pointer-events="none"/>
  </g>
  <g id="zoomMin">
    <use xlink:href="#rim" fill="#404040"><set attributeName="fill" to="#808080" begin="zoomminus.mouseover" end="zoomminus.mouseout"/></use>
    <path d="M-4,0h8" fill="none" stroke="white" stroke-width="1.5" pointer-events="none"/>
  </g>
  <g id="arrowUp" transform="translate(30 24)">
    <use xlink:href="#rim"/>
    <path pointer-events="none" fill="none" stroke="white" stroke-width="1.5" d="M0,-3.0v7 M-2.5,-0.5L0,-3.0L2.5,-0.5"/>
  </g>
  <g id="arrowRight" transform="rotate(90) translate(36 -43)">
    <use xlink:href="#rim"/>
    <path pointer-events="none" fill="none" stroke="white" stroke-width="1.5" d="M0,-3.0v7 M-2.5,-0.5L0,-3.0L2.5,-0.5"/>
  </g>
  <g id="arrowDown" transform="rotate(180) translate(-30 -48)">
    <use xlink:href="#rim"/>
    <path pointer-events="none" fill="none" stroke="white" stroke-width="1.5" d="M0,-3.0v7 M-2.5,-0.5L0,-3.0L2.5,-0.5"/>
  </g>
  <g id="arrowLeft" transform="rotate(270) translate(-36 17)">
    <use xlink:href="#rim"/>
    <path pointer-events="none" fill="none" stroke="white" stroke-width="1.5" d="M0,-3.0v7 M-2.5,-0.5L0,-3.0L2.5,-0.5"/>
  </g>
  <g id="resetDef">
    <use xlink:href="#rim2" fill="#404040"><set attributeName="fill" to="#808080" begin="reset.mouseover" end="reset.mouseout"/></use>
  </g>
</defs>
<script type="application/ecmascript">
var viewWidth = 1111;
var viewHeight = 90;
var sectionId = 'dynsection-33';
</script>
<script type="application/ecmascript" xlink:href="svg.min.js"/>
<svg id="graph" class="graph">
<g id="viewport">
<title>controladors.CtrlPresentacio.launchApp</title>
<!-- Node1 -->
<g id="Node000001" class="node">
<title>Node1</title>
<g id="a_Node000001"><a xlink:title="Inicialitza l&#39;aplicació creant les instàncies del controlador de domini i de partida,...">
<polygon fill="#999999" stroke="#666666" points="188.5,-51 0,-51 0,-31 188.5,-31 188.5,-51"/>
<text text-anchor="middle" x="94.25" y="-37.5" font-family="Helvetica,sans-Serif" font-size="10.00">controladors.CtrlPresentacio.launchApp</text>
</a>
</g>
</g>
<!-- Node2 -->
<g id="Node000002" class="node">
<title>Node2</title>
<g id="a_Node000002"><a xlink:href="classcontroladors_1_1_ctrl_domini.html#ab9f3147d91bf87174cee2fbad80eebd0" target="_top" xlink:title="Retorna la instancia del controlador de domini.">
<polygon fill="white" stroke="#666666" points="359.75,-82 224.5,-82 224.5,-50 359.75,-50 359.75,-82"/>
<text text-anchor="start" x="232.5" y="-68.5" font-family="Helvetica,sans-Serif" font-size="10.00">controladors.CtrlDomini.get</text>
<text text-anchor="middle" x="292.12" y="-56.5" font-family="Helvetica,sans-Serif" font-size="10.00">Instancia</text>
</a>
</g>
</g>
<!-- Node1&#45;&gt;Node2 -->
<g id="edge1_Node000001_Node000002" class="edge">
<title>Node1&#45;&gt;Node2</title>
<g id="a_edge1_Node000001_Node000002"><a xlink:title=" ">
<path fill="none" stroke="#63b8ff" d="M177.47,-51.49C189.29,-53 201.42,-54.55 213.16,-56.05"/>
<polygon fill="#63b8ff" stroke="#63b8ff" points="212.4,-59.48 222.76,-57.27 213.29,-52.54 212.4,-59.48"/>
</a>
</g>
</g>
<!-- Node7 -->
<g id="Node000007" class="node">
<title>Node7</title>
<g id="a_Node000007"><a xlink:href="classcontroladors_1_1_ctrl_partida.html#acc3f8d0c1620b0c1befc2c1a550a23a8" target="_top" xlink:title="Obté la instància única del controlador de partida.">
<polygon fill="white" stroke="#666666" points="359.75,-32 224.5,-32 224.5,0 359.75,0 359.75,-32"/>
<text text-anchor="start" x="232.5" y="-18.5" font-family="Helvetica,sans-Serif" font-size="10.00">controladors.CtrlPartida.get</text>
<text text-anchor="middle" x="292.12" y="-6.5" font-family="Helvetica,sans-Serif" font-size="10.00">Instancia</text>
</a>
</g>
</g>
<!-- Node1&#45;&gt;Node7 -->
<g id="edge6_Node000001_Node000007" class="edge">
<title>Node1&#45;&gt;Node7</title>
<g id="a_edge6_Node000001_Node000007"><a xlink:title=" ">
<path fill="none" stroke="#63b8ff" d="M177.47,-30.51C189.29,-29 201.42,-27.45 213.16,-25.95"/>
<polygon fill="#63b8ff" stroke="#63b8ff" points="213.29,-29.46 222.76,-24.73 212.4,-22.52 213.29,-29.46"/>
</a>
</g>
</g>
<!-- Node3 -->
<g id="Node000003" class="node">
<title>Node3</title>
<g id="a_Node000003"><a xlink:href="classcontroladors_1_1_ctrl_domini.html#a7648cc0064b988072993a90846e84d38" target="_top" xlink:title="Constructor de la classe Ctrl_Domini.">
<polygon fill="white" stroke="#666666" points="517.5,-82 395.75,-82 395.75,-50 517.5,-50 517.5,-82"/>
<text text-anchor="start" x="403.75" y="-68.5" font-family="Helvetica,sans-Serif" font-size="10.00">controladors.CtrlDomini.</text>
<text text-anchor="middle" x="456.62" y="-56.5" font-family="Helvetica,sans-Serif" font-size="10.00">CtrlDomini</text>
</a>
</g>
</g>
<!-- Node2&#45;&gt;Node3 -->
<g id="edge2_Node000002_Node000003" class="edge">
<title>Node2&#45;&gt;Node3</title>
<g id="a_edge2_Node000002_Node000003"><a xlink:title=" ">
<path fill="none" stroke="#63b8ff" d="M360.16,-66C367.97,-66 375.96,-66 383.84,-66"/>
<polygon fill="#63b8ff" stroke="#63b8ff" points="383.74,-69.5 393.74,-66 383.74,-62.5 383.74,-69.5"/>
</a>
</g>
</g>
<!-- Node4 -->
<g id="Node000004" class="node">
<title>Node4</title>
<g id="a_Node000004"><a xlink:href="classcontroladors_1_1_ctrl_domini.html#ab06c2680b60a9e0864d8470f4888e8e9" target="_top" xlink:title="Carrega els usuaris cada cop que executem el joc.">
<polygon fill="white" stroke="#666666" points="718.75,-82 553.5,-82 553.5,-50 718.75,-50 718.75,-82"/>
<text text-anchor="start" x="561.5" y="-68.5" font-family="Helvetica,sans-Serif" font-size="10.00">controladors.CtrlDomini.inicialitzar</text>
<text text-anchor="middle" x="636.12" y="-56.5" font-family="Helvetica,sans-Serif" font-size="10.00">Usuaris</text>
</a>
</g>
</g>
<!-- Node3&#45;&gt;Node4 -->
<g id="edge3_Node000003_Node000004" class="edge">
<title>Node3&#45;&gt;Node4</title>
<g id="a_edge3_Node000003_Node000004"><a xlink:title=" ">
<path fill="none" stroke="#63b8ff" d="M517.72,-66C525.44,-66 533.49,-66 541.59,-66"/>
<polygon fill="#63b8ff" stroke="#63b8ff" points="541.54,-69.5 551.54,-66 541.54,-62.5 541.54,-69.5"/>
</a>
</g>
</g>
<!-- Node5 -->
<g id="Node000005" class="node">
<title>Node5</title>
<g id="a_Node000005"><a xlink:href="classcontroladors_1_1_ctrl_persistencia.html#a06c847181ea13b0c7dde8a61b47f0a0b" target="_top" xlink:title="Carrega els usuaris guardats a la capa de persistència.">
<polygon fill="white" stroke="#666666" points="935,-82 754.75,-82 754.75,-50 935,-50 935,-82"/>
<text text-anchor="start" x="762.75" y="-68.5" font-family="Helvetica,sans-Serif" font-size="10.00">controladors.CtrlPersistencia.carregar</text>
<text text-anchor="middle" x="844.88" y="-56.5" font-family="Helvetica,sans-Serif" font-size="10.00">UsuarisRegistrats</text>
</a>
</g>
</g>
<!-- Node4&#45;&gt;Node5 -->
<g id="edge4_Node000004_Node000005" class="edge">
<title>Node4&#45;&gt;Node5</title>
<g id="a_edge4_Node000004_Node000005"><a xlink:title=" ">
<path fill="none" stroke="#63b8ff" d="M719.14,-66C727.03,-66 735.09,-66 743.14,-66"/>
<polygon fill="#63b8ff" stroke="#63b8ff" points="742.97,-69.5 752.97,-66 742.97,-62.5 742.97,-69.5"/>
</a>
</g>
</g>
<!-- Node6 -->
<g id="Node000006" class="node">
<title>Node6</title>
<g id="a_Node000006"><a xlink:href="classpersistencia_1_1_usuari_i_o.html#a29677f40d007ca66a5ec1b0926e16da4" target="_top" xlink:title="Carrega un usuari des d&#39;un fitxer JSON.">
<polygon fill="white" stroke="#666666" points="1102.5,-82 971,-82 971,-50 1102.5,-50 1102.5,-82"/>
<text text-anchor="start" x="979" y="-68.5" font-family="Helvetica,sans-Serif" font-size="10.00">persistencia.UsuariIO.load</text>
<text text-anchor="middle" x="1036.75" y="-56.5" font-family="Helvetica,sans-Serif" font-size="10.00">Usuari</text>
</a>
</g>
</g>
<!-- Node5&#45;&gt;Node6 -->
<g id="edge5_Node000005_Node000006" class="edge">
<title>Node5&#45;&gt;Node6</title>
<g id="a_edge5_Node000005_Node000006"><a xlink:title=" ">
<path fill="none" stroke="#63b8ff" d="M935.25,-66C943.27,-66 951.33,-66 959.22,-66"/>
<polygon fill="#63b8ff" stroke="#63b8ff" points="959.12,-69.5 969.12,-66 959.12,-62.5 959.12,-69.5"/>
</a>
</g>
</g>
<!-- Node8 -->
<g id="Node000008" class="node">
<title>Node8</title>
<g id="a_Node000008"><a xlink:href="classcontroladors_1_1_ctrl_partida.html#a8f5583dd87ab70723d68c87c1fefb5f4" target="_top" xlink:title="Constructor del controlador de la partida.">
<polygon fill="white" stroke="#666666" points="517.5,-32 395.75,-32 395.75,0 517.5,0 517.5,-32"/>
<text text-anchor="start" x="403.75" y="-18.5" font-family="Helvetica,sans-Serif" font-size="10.00">controladors.CtrlPartida.</text>
<text text-anchor="middle" x="456.62" y="-6.5" font-family="Helvetica,sans-Serif" font-size="10.00">CtrlPartida</text>
</a>
</g>
</g>
<!-- Node7&#45;&gt;Node8 -->
<g id="edge7_Node000007_Node000008" class="edge">
<title>Node7&#45;&gt;Node8</title>
<g id="a_edge7_Node000007_Node000008"><a xlink:title=" ">
<path fill="none" stroke="#63b8ff" d="M360.16,-16C367.97,-16 375.96,-16 383.84,-16"/>
<polygon fill="#63b8ff" stroke="#63b8ff" points="383.74,-19.5 393.74,-16 383.74,-12.5 383.74,-19.5"/>
</a>
</g>
</g>
</g>
</svg>

<g id="navigator" transform="translate(0 0)" fill="#404254">
  <rect fill="#f2f5e9" fill-opacity="0.5" stroke="#606060" stroke-width=".5" x="0" y="0" width="60" height="60"/>
  <use id="zoomplus" xlink:href="#zoomPlus" x="17" y="9" onmousedown="handleZoom(evt,'in')"/>
  <use id="zoomminus" xlink:href="#zoomMin" x="42" y="9" onmousedown="handleZoom(evt,'out')"/>
  <use id="reset" xlink:href="#resetDef" x="30" y="36" onmousedown="handleReset()"/>
   <use id="arrowup" xlink:href="#arrowUp" x="0" y="0" onmousedown="handlePan(0,-1)"/>
  <use id="arrowright" xlink:href="#arrowRight" x="0" y="0" onmousedown="handlePan(1,0)"/>
  <use id="arrowdown" xlink:href="#arrowDown" x="0" y="0" onmousedown="handlePan(0,1)"/>
  <use id="arrowleft" xlink:href="#arrowLeft" x="0" y="0" onmousedown="handlePan(-1,0)"/>
</g>
<svg viewBox="0 0 15 15" width="100%" height="30px" preserveAspectRatio="xMaxYMin meet">
 <g id="arrow_out" transform="scale(0.3 0.3)">
  <a xlink:href="classcontroladors_1_1_ctrl_presentacio_ae660314487eb1c9764a52ac98b431108_cgraph_org.svg" target="_base">
   <rect id="button" ry="5" rx="5" y="6" x="6" height="38" width="38"
        fill="#f2f5e9" fill-opacity="0.5" stroke="#606060" stroke-width="1.0"/>
   <path id="arrow"
     d="M 11.500037,31.436501 C 11.940474,20.09759 22.043105,11.32322 32.158766,21.979434 L 37.068811,17.246167 C 37.068811,17.246167 37.088388,32 37.088388,32 L 22.160133,31.978069 C 22.160133,31.978069 26.997745,27.140456 26.997745,27.140456 C 18.528582,18.264221 13.291696,25.230495 11.500037,31.436501 z"
     style="fill:#404040;"/>
  </a>
 </g>
</svg>

<style type='text/css'>
<![CDATA[
[data-mouse-over-selected='false'] { opacity: 0.7; }
[data-mouse-over-selected='true']  { opacity: 1.0; }
]]>
</style>
<script type="application/ecmascript"><![CDATA[
document.addEventListener('DOMContentLoaded', (event) => {
  highlightEdges();
  highlightAdjacentNodes();
});
]]></script>
</svg>
