<?xml version="1.0" encoding="UTF-8" standalone="no"?>
<!DOCTYPE svg PUBLIC "-//W3C//DTD SVG 1.1//EN"
 "http://www.w3.org/Graphics/SVG/1.1/DTD/svg11.dtd">
<!-- Generated by graphviz version 12.2.1 (20241206.2353)
 -->
<!-- Title: domini.scrabble.Taulell.getCasella Pages: 1 -->
<!--zoomable 552 -->

<svg id="main" version="1.1" xmlns="http://www.w3.org/2000/svg" xmlns:xlink="http://www.w3.org/1999/xlink" xml:space="preserve" onload="init(evt)">

<style type="text/css"><![CDATA[
.node, .edge {opacity: 0.7;}
.node.selected, .edge.selected {opacity: 1;}
.edge:hover path { stroke: red; }
.edge:hover polygon { stroke: red; fill: red; }
]]></style>

<defs>
  <circle id="rim" cx="0" cy="0" r="7"/>
  <circle id="rim2" cx="0" cy="0" r="3.5"/>
  <g id="zoomPlus">
    <use xlink:href="#rim" fill="#404040"><set attributeName="fill" to="#808080" begin="zoomplus.mouseover" end="zoomplus.mouseout"/></use>
    <path d="M-4,0h8M0,-4v8" fill="none" stroke="white" stroke-width="1.5" pointer-events="none"/>
  </g>
  <g id="zoomMin">
    <use xlink:href="#rim" fill="#404040"><set attributeName="fill" to="#808080" begin="zoomminus.mouseover" end="zoomminus.mouseout"/></use>
    <path d="M-4,0h8" fill="none" stroke="white" stroke-width="1.5" pointer-events="none"/>
  </g>
  <g id="arrowUp" transform="translate(30 24)">
    <use xlink:href="#rim"/>
    <path pointer-events="none" fill="none" stroke="white" stroke-width="1.5" d="M0,-3.0v7 M-2.5,-0.5L0,-3.0L2.5,-0.5"/>
  </g>
  <g id="arrowRight" transform="rotate(90) translate(36 -43)">
    <use xlink:href="#rim"/>
    <path pointer-events="none" fill="none" stroke="white" stroke-width="1.5" d="M0,-3.0v7 M-2.5,-0.5L0,-3.0L2.5,-0.5"/>
  </g>
  <g id="arrowDown" transform="rotate(180) translate(-30 -48)">
    <use xlink:href="#rim"/>
    <path pointer-events="none" fill="none" stroke="white" stroke-width="1.5" d="M0,-3.0v7 M-2.5,-0.5L0,-3.0L2.5,-0.5"/>
  </g>
  <g id="arrowLeft" transform="rotate(270) translate(-36 17)">
    <use xlink:href="#rim"/>
    <path pointer-events="none" fill="none" stroke="white" stroke-width="1.5" d="M0,-3.0v7 M-2.5,-0.5L0,-3.0L2.5,-0.5"/>
  </g>
  <g id="resetDef">
    <use xlink:href="#rim2" fill="#404040"><set attributeName="fill" to="#808080" begin="reset.mouseover" end="reset.mouseout"/></use>
  </g>
</defs>
<script type="application/ecmascript">
var viewWidth = 1319;
var viewHeight = 552;
var sectionId = 'dynsection-7';
</script>
<script type="application/ecmascript" xlink:href="svg.min.js"/>
<svg id="graph" class="graph">
<g id="viewport">
<title>domini.scrabble.Taulell.getCasella</title>
<!-- Node1 -->
<g id="Node000001" class="node">
<title>Node1</title>
<g id="a_Node000001"><a xlink:title="Donades unes coordenades, retorna la Casella que es troba en aquelles coordenades.">
<polygon fill="#999999" stroke="#666666" points="1311.25,-286.07 1179.75,-286.07 1179.75,-254.07 1311.25,-254.07 1311.25,-286.07"/>
<text text-anchor="start" x="1187.75" y="-272.57" font-family="Helvetica,sans-Serif" font-size="10.00">domini.scrabble.Taulell.get</text>
<text text-anchor="middle" x="1245.5" y="-260.57" font-family="Helvetica,sans-Serif" font-size="10.00">Casella</text>
</a>
</g>
</g>
<!-- Node2 -->
<g id="Node000002" class="node">
<title>Node2</title>
<g id="a_Node000002"><a xlink:href="classdomini_1_1jugadors_1_1_maquina.html#a80169174406c5da6922feb0f4c854ac8" target="_top" xlink:title="Calcula la puntuació d&#39;una paraula col·locada en el taulell.">
<polygon fill="white" stroke="#666666" points="1140.38,-437.07 979.62,-437.07 979.62,-405.07 1140.38,-405.07 1140.38,-437.07"/>
<text text-anchor="start" x="987.62" y="-423.57" font-family="Helvetica,sans-Serif" font-size="10.00">domini.jugadors.Maquina.calcular</text>
<text text-anchor="middle" x="1060" y="-411.57" font-family="Helvetica,sans-Serif" font-size="10.00">Puntatge</text>
</a>
</g>
</g>
<!-- Node1&#45;&gt;Node2 -->
<g id="edge1_Node000001_Node000002" class="edge">
<title>Node1&#45;&gt;Node2</title>
<g id="a_edge1_Node000001_Node000002"><a xlink:title=" ">
<path fill="none" stroke="#63b8ff" d="M1228.76,-296.16C1211.15,-323.33 1180.25,-365.44 1143.75,-391.07 1136.12,-396.43 1127.43,-400.93 1118.61,-404.69"/>
<polygon fill="#63b8ff" stroke="#63b8ff" points="1231.65,-298.14 1234.03,-287.82 1225.73,-294.4 1231.65,-298.14"/>
</a>
</g>
</g>
<!-- Node4 -->
<g id="Node000004" class="node">
<title>Node4</title>
<g id="a_Node000004"><a xlink:href="classdomini_1_1jugadors_1_1_maquina.html#a28fa4d863085aaaba920b95a47bf14b7" target="_top" xlink:title="Genera totes les paraules possibles a la dreta d&#39;una subparaula prefix.">
<polygon fill="white" stroke="#666666" points="739.75,-437.07 583.5,-437.07 583.5,-405.07 739.75,-405.07 739.75,-437.07"/>
<text text-anchor="start" x="591.5" y="-423.57" font-family="Helvetica,sans-Serif" font-size="10.00">domini.jugadors.Maquina.extend</text>
<text text-anchor="middle" x="661.62" y="-411.57" font-family="Helvetica,sans-Serif" font-size="10.00">Right</text>
</a>
</g>
</g>
<!-- Node1&#45;&gt;Node4 -->
<g id="edge14_Node000001_Node000004" class="edge">
<title>Node1&#45;&gt;Node4</title>
<g id="a_edge14_Node000001_Node000004"><a xlink:title=" ">
<path fill="none" stroke="#63b8ff" d="M1222.68,-294.53C1203.83,-313.91 1174.81,-339.84 1143.75,-353.07 992.25,-417.61 938.13,-368.71 775.75,-396.07 761.47,-398.48 746.27,-401.51 731.81,-404.62"/>
<polygon fill="#63b8ff" stroke="#63b8ff" points="1224.98,-297.19 1229.31,-287.52 1219.89,-292.38 1224.98,-297.19"/>
</a>
</g>
</g>
<!-- Node5 -->
<g id="Node000005" class="node">
<title>Node5</title>
<g id="a_Node000005"><a xlink:href="classdomini_1_1jugadors_1_1_maquina.html#a408520f7aa4d96099ecfa1bae76728b5" target="_top" xlink:title="Genera totes les subparaules prefix possibles cap a l&#39;esquerra d&#39;una casella anchor.">
<polygon fill="white" stroke="#666666" points="547.5,-431.07 366.5,-431.07 366.5,-411.07 547.5,-411.07 547.5,-431.07"/>
<text text-anchor="middle" x="457" y="-417.57" font-family="Helvetica,sans-Serif" font-size="10.00">domini.jugadors.Maquina.generateLeft</text>
</a>
</g>
</g>
<!-- Node1&#45;&gt;Node5 -->
<g id="edge15_Node000001_Node000005" class="edge">
<title>Node1&#45;&gt;Node5</title>
<g id="a_edge15_Node000001_Node000005"><a xlink:title=" ">
<path fill="none" stroke="#63b8ff" d="M1240.12,-297.6C1231.16,-343.83 1206.05,-436.22 1143.75,-479.07 924.71,-629.72 568.41,-474.69 478.9,-431.53"/>
<polygon fill="#63b8ff" stroke="#63b8ff" points="1243.54,-298.33 1241.88,-287.87 1236.65,-297.08 1243.54,-298.33"/>
</a>
</g>
</g>
<!-- Node6 -->
<g id="Node000006" class="node">
<title>Node6</title>
<g id="a_Node000006"><a xlink:href="classdomini_1_1jugadors_1_1_maquina.html#afe864f5cb4ab5895e149c5aad0235400" target="_top" xlink:title="Busca la millor paraula en una direcció específica (horitzontal o vertical).">
<polygon fill="white" stroke="#666666" points="330.5,-355.07 174.25,-355.07 174.25,-323.07 330.5,-323.07 330.5,-355.07"/>
<text text-anchor="start" x="182.25" y="-341.57" font-family="Helvetica,sans-Serif" font-size="10.00">domini.jugadors.Maquina.search</text>
<text text-anchor="middle" x="252.38" y="-329.57" font-family="Helvetica,sans-Serif" font-size="10.00">BestWord</text>
</a>
</g>
</g>
<!-- Node1&#45;&gt;Node6 -->
<g id="edge20_Node000001_Node000006" class="edge">
<title>Node1&#45;&gt;Node6</title>
<g id="a_edge20_Node000001_Node000006"><a xlink:title=" ">
<path fill="none" stroke="#63b8ff" d="M1208.87,-292.07C1190.18,-302.47 1166.5,-313.93 1143.75,-320.07 1021.3,-353.13 985.84,-339.07 859,-339.07 859,-339.07 859,-339.07 660.62,-339.07 545.73,-339.07 412.61,-339.07 330.69,-339.07"/>
<polygon fill="#63b8ff" stroke="#63b8ff" points="1210.45,-295.2 1217.38,-287.2 1206.97,-289.13 1210.45,-295.2"/>
</a>
</g>
</g>
<!-- Node8 -->
<g id="Node000008" class="node">
<title>Node8</title>
<g id="a_Node000008"><a xlink:href="classcontroladors_1_1_ctrl_partida.html#ad0f7d5edb502bc4956cfd54612209ea7" target="_top" xlink:title="Col·loca una paraula al taulell.">
<polygon fill="white" stroke="#666666" points="738.25,-168.07 585,-168.07 585,-136.07 738.25,-136.07 738.25,-168.07"/>
<text text-anchor="start" x="593" y="-154.57" font-family="Helvetica,sans-Serif" font-size="10.00">controladors.CtrlPartida.colocar</text>
<text text-anchor="middle" x="661.62" y="-142.57" font-family="Helvetica,sans-Serif" font-size="10.00">Paraula</text>
</a>
</g>
</g>
<!-- Node1&#45;&gt;Node8 -->
<g id="edge9_Node000001_Node000008" class="edge">
<title>Node1&#45;&gt;Node8</title>
<g id="a_edge9_Node000001_Node000008"><a xlink:title=" ">
<path fill="none" stroke="#63b8ff" d="M1238.1,-242.84C1226.87,-202.01 1199.33,-126.3 1143.75,-94.07 994.72,-7.67 776.31,-96.58 694.83,-135.64"/>
<polygon fill="#63b8ff" stroke="#63b8ff" points="1234.67,-243.57 1240.58,-252.37 1241.45,-241.81 1234.67,-243.57"/>
</a>
</g>
</g>
<!-- Node9 -->
<g id="Node000009" class="node">
<title>Node9</title>
<g id="a_Node000009"><a xlink:href="classcontroladors_1_1_ctrl_partida.html#a11dd5c5c7252681872e3ba7baf8213a8" target="_top" xlink:title="Comprova si una paraula és vàlida.">
<polygon fill="white" stroke="#666666" points="940.25,-239.07 775.75,-239.07 775.75,-207.07 940.25,-207.07 940.25,-239.07"/>
<text text-anchor="start" x="783.75" y="-225.57" font-family="Helvetica,sans-Serif" font-size="10.00">controladors.CtrlPartida.comprova</text>
<text text-anchor="middle" x="858" y="-213.57" font-family="Helvetica,sans-Serif" font-size="10.00">_paraula</text>
</a>
</g>
</g>
<!-- Node1&#45;&gt;Node9 -->
<g id="edge10_Node000001_Node000009" class="edge">
<title>Node1&#45;&gt;Node9</title>
<g id="a_edge10_Node000001_Node000009"><a xlink:title=" ">
<path fill="none" stroke="#63b8ff" d="M1209.81,-247.88C1191.05,-237.19 1167.01,-225.53 1143.75,-220.07 1076.6,-204.33 998.08,-206.63 940.52,-211.99"/>
<polygon fill="#63b8ff" stroke="#63b8ff" points="1207.95,-250.84 1218.34,-252.9 1211.5,-244.81 1207.95,-250.84"/>
</a>
</g>
</g>
<!-- Node10 -->
<g id="Node000010" class="node">
<title>Node10</title>
<g id="a_Node000010"><a xlink:href="classcontroladors_1_1_ctrl_partida.html#a55c08c7767d17dd7d8b4ae00d33b1fe7" target="_top" xlink:title="Comprova si una lletra és vàlida per a una casella que formi paraula transversal vertical.">
<polygon fill="white" stroke="#666666" points="1143.75,-311.07 976.25,-311.07 976.25,-279.07 1143.75,-279.07 1143.75,-311.07"/>
<text text-anchor="start" x="984.25" y="-297.57" font-family="Helvetica,sans-Serif" font-size="10.00">controladors.CtrlPartida.comprovar</text>
<text text-anchor="middle" x="1060" y="-285.57" font-family="Helvetica,sans-Serif" font-size="10.00">_noves_paraules</text>
</a>
</g>
</g>
<!-- Node1&#45;&gt;Node10 -->
<g id="edge12_Node000001_Node000010" class="edge">
<title>Node1&#45;&gt;Node10</title>
<g id="a_edge12_Node000001_Node000010"><a xlink:title=" ">
<path fill="none" stroke="#63b8ff" d="M1168.14,-280.47C1160.16,-281.56 1152.02,-282.67 1143.98,-283.77"/>
<polygon fill="#63b8ff" stroke="#63b8ff" points="1168.35,-283.98 1177.79,-279.16 1167.41,-277.04 1168.35,-283.98"/>
</a>
</g>
</g>
<!-- Node11 -->
<g id="Node000011" class="node">
<title>Node11</title>
<g id="a_Node000011"><a xlink:href="classdomini_1_1scrabble_1_1_taulell.html#ad10763e1db2abab4a552e5d99b693db7" target="_top" xlink:title="Retorna un Set amb les coordenades de les caselles que son anchors.">
<polygon fill="white" stroke="#666666" points="522.75,-182.07 391.25,-182.07 391.25,-150.07 522.75,-150.07 522.75,-182.07"/>
<text text-anchor="start" x="399.25" y="-168.57" font-family="Helvetica,sans-Serif" font-size="10.00">domini.scrabble.Taulell.get</text>
<text text-anchor="middle" x="457" y="-156.57" font-family="Helvetica,sans-Serif" font-size="10.00">Anchors</text>
</a>
</g>
</g>
<!-- Node1&#45;&gt;Node11 -->
<g id="edge16_Node000001_Node000011" class="edge">
<title>Node1&#45;&gt;Node11</title>
<g id="a_edge16_Node000001_Node000011"><a xlink:title=" ">
<path fill="none" stroke="#63b8ff" d="M1241.12,-242.63C1233.53,-194.4 1210.24,-95.51 1143.75,-53.07 922.53,88.12 582.21,-92.17 484.85,-149.59"/>
<polygon fill="#63b8ff" stroke="#63b8ff" points="1237.61,-242.85 1242.51,-252.24 1244.54,-241.84 1237.61,-242.85"/>
</a>
</g>
</g>
<!-- Node12 -->
<g id="Node000012" class="node">
<title>Node12</title>
<g id="a_Node000012"><a xlink:href="classdomini_1_1scrabble_1_1_taulell.html#ab0d90c6619b4237ae0dff2190e991843" target="_top" xlink:title="Insereix una paraula al Taulell.">
<polygon fill="white" stroke="#666666" points="1132.12,-173.07 987.88,-173.07 987.88,-141.07 1132.12,-141.07 1132.12,-173.07"/>
<text text-anchor="start" x="995.88" y="-159.57" font-family="Helvetica,sans-Serif" font-size="10.00">domini.scrabble.Taulell.inserir</text>
<text text-anchor="middle" x="1060" y="-147.57" font-family="Helvetica,sans-Serif" font-size="10.00">Paraula</text>
</a>
</g>
</g>
<!-- Node1&#45;&gt;Node12 -->
<g id="edge18_Node000001_Node000012" class="edge">
<title>Node1&#45;&gt;Node12</title>
<g id="a_edge18_Node000001_Node000012"><a xlink:title=" ">
<path fill="none" stroke="#63b8ff" d="M1220.13,-245.91C1200.75,-227.76 1172.26,-203.33 1143.75,-187.07 1134.72,-181.92 1124.65,-177.39 1114.73,-173.51"/>
<polygon fill="#63b8ff" stroke="#63b8ff" points="1217.61,-248.34 1227.26,-252.71 1222.44,-243.27 1217.61,-248.34"/>
</a>
</g>
</g>
<!-- Node13 -->
<g id="Node000013" class="node">
<title>Node13</title>
<g id="a_Node000013"><a xlink:href="classdomini_1_1scrabble_1_1_taulell.html#ac2c62e3051ec0a2452f74c4a39c15598" target="_top" xlink:title="Mètode per imprimir el taulell per pantalla.">
<polygon fill="white" stroke="#666666" points="1128.38,-123.07 991.62,-123.07 991.62,-103.07 1128.38,-103.07 1128.38,-123.07"/>
<text text-anchor="middle" x="1060" y="-109.57" font-family="Helvetica,sans-Serif" font-size="10.00">domini.scrabble.Taulell.print</text>
</a>
</g>
</g>
<!-- Node1&#45;&gt;Node13 -->
<g id="edge19_Node000001_Node000013" class="edge">
<title>Node1&#45;&gt;Node13</title>
<g id="a_edge19_Node000001_Node000013"><a xlink:title=" ">
<path fill="none" stroke="#63b8ff" d="M1232.52,-243.69C1216.77,-212.1 1186.06,-159.97 1143.75,-132.07 1138.58,-128.66 1132.88,-125.86 1126.96,-123.56"/>
<polygon fill="#63b8ff" stroke="#63b8ff" points="1229.31,-245.08 1236.8,-252.57 1235.61,-242.04 1229.31,-245.08"/>
</a>
</g>
</g>
<!-- Node14 -->
<g id="Node000014" class="node">
<title>Node14</title>
<g id="a_Node000014"><a xlink:href="classcontroladors_1_1_ctrl_partida.html#ab2365dd846883b62c30985d553d5e0da" target="_top" xlink:title="Comprova si una paraula col·locada toca alguna lletra existent al taulell.">
<polygon fill="white" stroke="#666666" points="1130.25,-261.07 989.75,-261.07 989.75,-229.07 1130.25,-229.07 1130.25,-261.07"/>
<text text-anchor="start" x="997.75" y="-247.57" font-family="Helvetica,sans-Serif" font-size="10.00">controladors.CtrlPartida.toca</text>
<text text-anchor="middle" x="1060" y="-235.57" font-family="Helvetica,sans-Serif" font-size="10.00">Lletra</text>
</a>
</g>
</g>
<!-- Node1&#45;&gt;Node14 -->
<g id="edge21_Node000001_Node000014" class="edge">
<title>Node1&#45;&gt;Node14</title>
<g id="a_edge21_Node000001_Node000014"><a xlink:title=" ">
<path fill="none" stroke="#63b8ff" d="M1168.04,-259.66C1155.66,-257.97 1142.88,-256.23 1130.67,-254.56"/>
<polygon fill="#63b8ff" stroke="#63b8ff" points="1167.41,-263.1 1177.79,-260.98 1168.35,-256.16 1167.41,-263.1"/>
</a>
</g>
</g>
<!-- Node15 -->
<g id="Node000015" class="node">
<title>Node15</title>
<g id="a_Node000015"><a xlink:href="classdomini_1_1jugadors_1_1_maquina.html#a57c533590571f4918ebd03a0b0d4819b" target="_top" xlink:title="Comprova si una lletra és vàlida per a una casella que formi paraula transversal vertical.">
<polygon fill="white" stroke="#666666" points="931.62,-487.07 784.38,-487.07 784.38,-455.07 931.62,-455.07 931.62,-487.07"/>
<text text-anchor="start" x="792.38" y="-473.57" font-family="Helvetica,sans-Serif" font-size="10.00">domini.jugadors.Maquina.valid</text>
<text text-anchor="middle" x="858" y="-461.57" font-family="Helvetica,sans-Serif" font-size="10.00">_traversals</text>
</a>
</g>
</g>
<!-- Node1&#45;&gt;Node15 -->
<g id="edge23_Node000001_Node000015" class="edge">
<title>Node1&#45;&gt;Node15</title>
<g id="a_edge23_Node000001_Node000015"><a xlink:title=" ">
<path fill="none" stroke="#63b8ff" d="M1237.56,-297.31C1225.74,-337.5 1197.6,-411.62 1143.75,-446.07 1080.74,-486.39 993.19,-487.9 931.86,-482.32"/>
<polygon fill="#63b8ff" stroke="#63b8ff" points="1240.86,-298.5 1240.18,-287.93 1234.12,-296.62 1240.86,-298.5"/>
</a>
</g>
</g>
<!-- Node3 -->
<g id="Node000003" class="node">
<title>Node3</title>
<g id="a_Node000003"><a xlink:href="classdomini_1_1jugadors_1_1_maquina.html#a247420aa69d81da6d3d1951d3b409a43" target="_top" xlink:title="Valora una paraula i actualitza la millor paraula trobada si és millor.">
<polygon fill="white" stroke="#666666" points="936.12,-437.07 779.88,-437.07 779.88,-405.07 936.12,-405.07 936.12,-437.07"/>
<text text-anchor="start" x="787.88" y="-423.57" font-family="Helvetica,sans-Serif" font-size="10.00">domini.jugadors.Maquina.valorar</text>
<text text-anchor="middle" x="858" y="-411.57" font-family="Helvetica,sans-Serif" font-size="10.00">Paraula</text>
</a>
</g>
</g>
<!-- Node2&#45;&gt;Node3 -->
<g id="edge2_Node000002_Node000003" class="edge">
<title>Node2&#45;&gt;Node3</title>
<g id="a_edge2_Node000002_Node000003"><a xlink:title=" ">
<path fill="none" stroke="#63b8ff" d="M968,-421.07C957.44,-421.07 946.74,-421.07 936.39,-421.07"/>
<polygon fill="#63b8ff" stroke="#63b8ff" points="967.87,-424.57 977.87,-421.07 967.87,-417.57 967.87,-424.57"/>
</a>
</g>
</g>
<!-- Node3&#45;&gt;Node4 -->
<g id="edge3_Node000003_Node000004" class="edge">
<title>Node3&#45;&gt;Node4</title>
<g id="a_edge3_Node000003_Node000004"><a xlink:title=" ">
<path fill="none" stroke="#63b8ff" d="M768.23,-421.07C758.82,-421.07 749.32,-421.07 740.06,-421.07"/>
<polygon fill="#63b8ff" stroke="#63b8ff" points="768.11,-424.57 778.11,-421.07 768.11,-417.57 768.11,-424.57"/>
</a>
</g>
</g>
<!-- Node4&#45;&gt;Node4 -->
<g id="edge4_Node000004_Node000004" class="edge">
<title>Node4&#45;&gt;Node4</title>
<g id="a_edge4_Node000004_Node000004"><a xlink:title=" ">
<path fill="none" stroke="#63b8ff" d="M694.35,-448.78C688.89,-452.55 677.99,-455.07 661.62,-455.07 631.71,-455.07 620.02,-446.65 626.57,-437.51"/>
<polygon fill="#63b8ff" stroke="#63b8ff" points="697.78,-449.5 696.38,-439 690.92,-448.08 697.78,-449.5"/>
</a>
</g>
</g>
<!-- Node4&#45;&gt;Node5 -->
<g id="edge5_Node000004_Node000005" class="edge">
<title>Node4&#45;&gt;Node5</title>
<g id="a_edge5_Node000004_Node000005"><a xlink:title=" ">
<path fill="none" stroke="#63b8ff" d="M571.71,-421.07C563.83,-421.07 555.85,-421.07 547.97,-421.07"/>
<polygon fill="#63b8ff" stroke="#63b8ff" points="571.64,-424.57 581.64,-421.07 571.64,-417.57 571.64,-424.57"/>
</a>
</g>
</g>
<!-- Node5&#45;&gt;Node5 -->
<g id="edge6_Node000005_Node000005" class="edge">
<title>Node5&#45;&gt;Node5</title>
<g id="a_edge6_Node000005_Node000005"><a xlink:title=" ">
<path fill="none" stroke="#63b8ff" d="M493.55,-442.18C489.19,-446.22 477.01,-449.07 457,-449.07 421.43,-449.07 410.59,-440.05 424.49,-431.41"/>
<polygon fill="#63b8ff" stroke="#63b8ff" points="496.83,-440.96 490.04,-432.83 490.27,-443.42 496.83,-440.96"/>
</a>
</g>
</g>
<!-- Node5&#45;&gt;Node6 -->
<g id="edge7_Node000005_Node000006" class="edge">
<title>Node5&#45;&gt;Node6</title>
<g id="a_edge7_Node000005_Node000006"><a xlink:title=" ">
<path fill="none" stroke="#63b8ff" d="M419.99,-406.5C384.61,-392.18 330.7,-370.37 293.85,-355.45"/>
<polygon fill="#63b8ff" stroke="#63b8ff" points="418.35,-409.61 428.93,-410.12 420.98,-403.12 418.35,-409.61"/>
</a>
</g>
</g>
<!-- Node7 -->
<g id="Node000007" class="node">
<title>Node7</title>
<g id="a_Node000007"><a xlink:href="classdomini_1_1jugadors_1_1_maquina.html#a8b1f4889bc62ca862e4f87e55c66871e" target="_top" xlink:title="Busca la paraula amb la puntuació més alta donats un taulell i un diccionari.">
<polygon fill="white" stroke="#666666" points="138.25,-355.07 0,-355.07 0,-323.07 138.25,-323.07 138.25,-355.07"/>
<text text-anchor="start" x="8" y="-341.57" font-family="Helvetica,sans-Serif" font-size="10.00">domini.jugadors.Maquina.fer</text>
<text text-anchor="middle" x="69.12" y="-329.57" font-family="Helvetica,sans-Serif" font-size="10.00">Jugada</text>
</a>
</g>
</g>
<!-- Node6&#45;&gt;Node7 -->
<g id="edge8_Node000006_Node000007" class="edge">
<title>Node6&#45;&gt;Node7</title>
<g id="a_edge8_Node000006_Node000007"><a xlink:title=" ">
<path fill="none" stroke="#63b8ff" d="M162.64,-339.07C154.58,-339.07 146.51,-339.07 138.67,-339.07"/>
<polygon fill="#63b8ff" stroke="#63b8ff" points="162.47,-342.57 172.47,-339.07 162.47,-335.57 162.47,-342.57"/>
</a>
</g>
</g>
<!-- Node9&#45;&gt;Node8 -->
<g id="edge11_Node000009_Node000008" class="edge">
<title>Node9&#45;&gt;Node8</title>
<g id="a_edge11_Node000009_Node000008"><a xlink:title=" ">
<path fill="none" stroke="#63b8ff" d="M801.27,-202.72C771.52,-191.85 735.38,-178.65 707.46,-168.45"/>
<polygon fill="#63b8ff" stroke="#63b8ff" points="799.9,-205.94 810.5,-206.09 802.3,-199.37 799.9,-205.94"/>
</a>
</g>
</g>
<!-- Node10&#45;&gt;Node9 -->
<g id="edge13_Node000010_Node000009" class="edge">
<title>Node10&#45;&gt;Node9</title>
<g id="a_edge13_Node000010_Node000009"><a xlink:title=" ">
<path fill="none" stroke="#63b8ff" d="M991.56,-275.24C986.36,-273.54 981.21,-271.81 976.25,-270.07 949.66,-260.75 920.22,-248.94 897.49,-239.49"/>
<polygon fill="#63b8ff" stroke="#63b8ff" points="990.22,-278.48 1000.81,-278.19 992.35,-271.81 990.22,-278.48"/>
</a>
</g>
</g>
<!-- Node11&#45;&gt;Node6 -->
<g id="edge17_Node000011_Node000006" class="edge">
<title>Node11&#45;&gt;Node6</title>
<g id="a_edge17_Node000011_Node000006"><a xlink:title=" ">
<path fill="none" stroke="#63b8ff" d="M428.37,-189.66C386.64,-225.29 308.59,-291.93 272.53,-322.71"/>
<polygon fill="#63b8ff" stroke="#63b8ff" points="430.45,-192.48 435.79,-183.33 425.91,-187.16 430.45,-192.48"/>
</a>
</g>
</g>
<!-- Node14&#45;&gt;Node9 -->
<g id="edge22_Node000014_Node000009" class="edge">
<title>Node14&#45;&gt;Node9</title>
<g id="a_edge22_Node000014_Node000009"><a xlink:title=" ">
<path fill="none" stroke="#63b8ff" d="M978.07,-236.17C965.66,-234.8 952.85,-233.4 940.43,-232.03"/>
<polygon fill="#63b8ff" stroke="#63b8ff" points="977.5,-239.63 987.83,-237.24 978.27,-232.67 977.5,-239.63"/>
</a>
</g>
</g>
<!-- Node15&#45;&gt;Node4 -->
<g id="edge24_Node000015_Node000004" class="edge">
<title>Node15&#45;&gt;Node4</title>
<g id="a_edge24_Node000015_Node000004"><a xlink:title=" ">
<path fill="none" stroke="#63b8ff" d="M782.14,-451.82C763.81,-447.1 744.35,-442.09 726.58,-437.52"/>
<polygon fill="#63b8ff" stroke="#63b8ff" points="781.06,-455.15 791.62,-454.25 782.81,-448.37 781.06,-455.15"/>
</a>
</g>
</g>
</g>
</svg>

<g id="navigator" transform="translate(0 0)" fill="#404254">
  <rect fill="#f2f5e9" fill-opacity="0.5" stroke="#606060" stroke-width=".5" x="0" y="0" width="60" height="60"/>
  <use id="zoomplus" xlink:href="#zoomPlus" x="17" y="9" onmousedown="handleZoom(evt,'in')"/>
  <use id="zoomminus" xlink:href="#zoomMin" x="42" y="9" onmousedown="handleZoom(evt,'out')"/>
  <use id="reset" xlink:href="#resetDef" x="30" y="36" onmousedown="handleReset()"/>
   <use id="arrowup" xlink:href="#arrowUp" x="0" y="0" onmousedown="handlePan(0,-1)"/>
  <use id="arrowright" xlink:href="#arrowRight" x="0" y="0" onmousedown="handlePan(1,0)"/>
  <use id="arrowdown" xlink:href="#arrowDown" x="0" y="0" onmousedown="handlePan(0,1)"/>
  <use id="arrowleft" xlink:href="#arrowLeft" x="0" y="0" onmousedown="handlePan(-1,0)"/>
</g>
<svg viewBox="0 0 15 15" width="100%" height="30px" preserveAspectRatio="xMaxYMin meet">
 <g id="arrow_out" transform="scale(0.3 0.3)">
  <a xlink:href="classdomini_1_1scrabble_1_1_taulell_a5be7b0143cecbce3e2f4dc4f53814879_icgraph_org.svg" target="_base">
   <rect id="button" ry="5" rx="5" y="6" x="6" height="38" width="38"
        fill="#f2f5e9" fill-opacity="0.5" stroke="#606060" stroke-width="1.0"/>
   <path id="arrow"
     d="M 11.500037,31.436501 C 11.940474,20.09759 22.043105,11.32322 32.158766,21.979434 L 37.068811,17.246167 C 37.068811,17.246167 37.088388,32 37.088388,32 L 22.160133,31.978069 C 22.160133,31.978069 26.997745,27.140456 26.997745,27.140456 C 18.528582,18.264221 13.291696,25.230495 11.500037,31.436501 z"
     style="fill:#404040;"/>
  </a>
 </g>
</svg>

<style type='text/css'>
<![CDATA[
[data-mouse-over-selected='false'] { opacity: 0.7; }
[data-mouse-over-selected='true']  { opacity: 1.0; }
]]>
</style>
<script type="application/ecmascript"><![CDATA[
document.addEventListener('DOMContentLoaded', (event) => {
  highlightEdges();
  highlightAdjacentNodes();
});
]]></script>
</svg>
