<?xml version="1.0" encoding="UTF-8" standalone="no"?>
<!DOCTYPE svg PUBLIC "-//W3C//DTD SVG 1.1//EN"
 "http://www.w3.org/Graphics/SVG/1.1/DTD/svg11.dtd">
<!-- Generated by graphviz version 12.2.1 (20241206.2353)
 -->
<!-- Title: interficie.VistaPartida.refrescarInformacio Pages: 1 -->
<svg width="852pt" height="283pt"
 viewBox="0.00 0.00 852.25 282.54" xmlns="http://www.w3.org/2000/svg" xmlns:xlink="http://www.w3.org/1999/xlink">
<g id="graph0" class="graph" transform="scale(1 1) rotate(0) translate(4 278.54)">
<title>interficie.VistaPartida.refrescarInformacio</title>
<!-- Node1 -->
<g id="Node000001" class="node">
<title>Node1</title>
<g id="a_Node000001"><a xlink:title="Actualitza la informació de la partida.">
<polygon fill="#999999" stroke="#666666" points="844.25,-177 694,-177 694,-145 844.25,-145 844.25,-177"/>
<text text-anchor="start" x="702" y="-163.5" font-family="Helvetica,sans-Serif" font-size="10.00">interficie.VistaPartida.refrescar</text>
<text text-anchor="middle" x="769.12" y="-151.5" font-family="Helvetica,sans-Serif" font-size="10.00">Informacio</text>
</a>
</g>
</g>
<!-- Node1&#45;&gt;Node1 -->
<g id="edge16_Node000001_Node000001" class="edge">
<title>Node1&#45;&gt;Node1</title>
<g id="a_edge16_Node000001_Node000001"><a xlink:title=" ">
<path fill="none" stroke="#63b8ff" d="M798.91,-188.71C793.95,-192.48 784.02,-195 769.12,-195 741.89,-195 731.26,-186.58 737.21,-177.44"/>
<polygon fill="#63b8ff" stroke="#63b8ff" points="802.34,-189.41 800.76,-178.93 795.46,-188.11 802.34,-189.41"/>
</a>
</g>
</g>
<!-- Node2 -->
<g id="Node000002" class="node">
<title>Node2</title>
<g id="a_Node000002"><a xlink:href="$classinterficie_1_1_vista_partida.html#a7855e7a9cc41e1450c37054781ba6309" xlink:title="Inicialitza els components de la interfície gràfica.">
<polygon fill="white" stroke="#666666" points="658,-190 522.75,-190 522.75,-170 658,-170 658,-190"/>
<text text-anchor="middle" x="590.38" y="-176.5" font-family="Helvetica,sans-Serif" font-size="10.00">interficie.VistaPartida.initUI</text>
</a>
</g>
</g>
<!-- Node1&#45;&gt;Node2 -->
<g id="edge1_Node000001_Node000002" class="edge">
<title>Node1&#45;&gt;Node2</title>
<g id="a_edge1_Node000001_Node000002"><a xlink:title=" ">
<path fill="none" stroke="#63b8ff" d="M682.36,-170.22C674.32,-171.08 666.26,-171.95 658.43,-172.79"/>
<polygon fill="#63b8ff" stroke="#63b8ff" points="682.61,-173.71 692.17,-169.16 681.86,-166.75 682.61,-173.71"/>
</a>
</g>
</g>
<!-- Node3 -->
<g id="Node000003" class="node">
<title>Node3</title>
<g id="a_Node000003"><a xlink:href="$classinterficie_1_1_vista_partida.html#abce8626a6a3750affe851e1f8bea2cb3" xlink:title="Constructor de la classe VistaPartida.">
<polygon fill="white" stroke="#666666" points="486.75,-158 374.75,-158 374.75,-126 486.75,-126 486.75,-158"/>
<text text-anchor="start" x="382.75" y="-144.5" font-family="Helvetica,sans-Serif" font-size="10.00">interficie.VistaPartida.</text>
<text text-anchor="middle" x="430.75" y="-132.5" font-family="Helvetica,sans-Serif" font-size="10.00">VistaPartida</text>
</a>
</g>
</g>
<!-- Node1&#45;&gt;Node3 -->
<g id="edge17_Node000001_Node000003" class="edge">
<title>Node1&#45;&gt;Node3</title>
<g id="a_edge17_Node000001_Node000003"><a xlink:title=" ">
<path fill="none" stroke="#63b8ff" d="M682.65,-156.17C621.2,-152.7 540.12,-148.12 486.99,-145.12"/>
<polygon fill="#63b8ff" stroke="#63b8ff" points="682.2,-159.65 692.38,-156.72 682.59,-152.66 682.2,-159.65"/>
</a>
</g>
</g>
<!-- Node2&#45;&gt;Node3 -->
<g id="edge2_Node000002_Node000003" class="edge">
<title>Node2&#45;&gt;Node3</title>
<g id="a_edge2_Node000002_Node000003"><a xlink:title=" ">
<path fill="none" stroke="#63b8ff" d="M555.73,-166.24C535.76,-160.32 509.94,-153.83 487.05,-148.86"/>
<polygon fill="#63b8ff" stroke="#63b8ff" points="554.42,-169.5 565.01,-169.1 556.48,-162.81 554.42,-169.5"/>
</a>
</g>
</g>
<!-- Node3&#45;&gt;Node2 -->
<g id="edge14_Node000003_Node000002" class="edge">
<title>Node3&#45;&gt;Node2</title>
<g id="a_edge14_Node000003_Node000002"><a xlink:title=" ">
<path fill="none" stroke="#63b8ff" d="M485.57,-161.41C497.46,-164.58 510.19,-167.74 522.53,-170.56"/>
<polygon fill="#63b8ff" stroke="#63b8ff" points="486.5,-158.04 475.93,-158.77 484.65,-164.79 486.5,-158.04"/>
</a>
</g>
</g>
<!-- Node3&#45;&gt;Node3 -->
<g id="edge15_Node000003_Node000003" class="edge">
<title>Node3&#45;&gt;Node3</title>
<g id="a_edge15_Node000003_Node000003"><a xlink:title=" ">
<path fill="none" stroke="#63b8ff" d="M457.35,-169.71C452.92,-173.48 444.05,-176 430.75,-176 406.43,-176 396.93,-167.58 402.25,-158.44"/>
<polygon fill="#63b8ff" stroke="#63b8ff" points="460.79,-170.38 459,-159.94 453.88,-169.22 460.79,-170.38"/>
</a>
</g>
</g>
<!-- Node4 -->
<g id="Node000004" class="node">
<title>Node4</title>
<g id="a_Node000004"><a xlink:href="$classinterficie_1_1_vista_partida.html#a6bd7550fc714ba5195c8b55ffe3d973c" xlink:title="Afegeix les fitxes d&#39;un jugador al seu rack.">
<polygon fill="white" stroke="#666666" points="330.5,-132 194.5,-132 194.5,-100 330.5,-100 330.5,-132"/>
<text text-anchor="start" x="202.5" y="-118.5" font-family="Helvetica,sans-Serif" font-size="10.00">interficie.VistaPartida.afegir</text>
<text text-anchor="middle" x="262.5" y="-106.5" font-family="Helvetica,sans-Serif" font-size="10.00">FitxesARack</text>
</a>
</g>
</g>
<!-- Node3&#45;&gt;Node4 -->
<g id="edge3_Node000003_Node000004" class="edge">
<title>Node3&#45;&gt;Node4</title>
<g id="a_edge3_Node000003_Node000004"><a xlink:title=" ">
<path fill="none" stroke="#63b8ff" d="M363.04,-131.57C352.4,-129.9 341.4,-128.18 330.75,-126.52"/>
<polygon fill="#63b8ff" stroke="#63b8ff" points="362.48,-135.02 372.9,-133.11 363.56,-128.11 362.48,-135.02"/>
</a>
</g>
</g>
<!-- Node6 -->
<g id="Node000006" class="node">
<title>Node6</title>
<g id="a_Node000006"><a xlink:href="$classinterficie_1_1_vista_partida.html#ae6809bc2e7efc03077c111367571f788" xlink:title="Afegeix maquetes al rack de l&#39;oponent.">
<polygon fill="white" stroke="#666666" points="330.5,-82 194.5,-82 194.5,-50 330.5,-50 330.5,-82"/>
<text text-anchor="start" x="202.5" y="-68.5" font-family="Helvetica,sans-Serif" font-size="10.00">interficie.VistaPartida.afegir</text>
<text text-anchor="middle" x="262.5" y="-56.5" font-family="Helvetica,sans-Serif" font-size="10.00">MaquetesARack</text>
</a>
</g>
</g>
<!-- Node3&#45;&gt;Node6 -->
<g id="edge8_Node000003_Node000006" class="edge">
<title>Node3&#45;&gt;Node6</title>
<g id="a_edge8_Node000003_Node000006"><a xlink:title=" ">
<path fill="none" stroke="#63b8ff" d="M394.01,-119.89C377.56,-110.26 357.55,-99.3 338.75,-91 331.82,-87.94 324.4,-85.04 317.01,-82.38"/>
<polygon fill="#63b8ff" stroke="#63b8ff" points="392.07,-122.81 402.45,-124.91 395.64,-116.79 392.07,-122.81"/>
</a>
</g>
</g>
<!-- Node7 -->
<g id="Node000007" class="node">
<title>Node7</title>
<g id="a_Node000007"><a xlink:href="$classinterficie_1_1_vista_partida.html#a8ebc9da2a2b927ba87ed97ad85ae44e8" xlink:title="Confirma l&#39;acció de guardar la partida.">
<polygon fill="white" stroke="#666666" points="338.75,-220 186.25,-220 186.25,-188 338.75,-188 338.75,-220"/>
<text text-anchor="start" x="194.25" y="-206.5" font-family="Helvetica,sans-Serif" font-size="10.00">interficie.VistaPartida.confirmar</text>
<text text-anchor="middle" x="262.5" y="-194.5" font-family="Helvetica,sans-Serif" font-size="10.00">Guardar</text>
</a>
</g>
</g>
<!-- Node3&#45;&gt;Node7 -->
<g id="edge10_Node000003_Node000007" class="edge">
<title>Node3&#45;&gt;Node7</title>
<g id="a_edge10_Node000003_Node000007"><a xlink:title=" ">
<path fill="none" stroke="#63b8ff" d="M375.14,-162.36C353.21,-170.54 328.27,-179.84 307.53,-187.58"/>
<polygon fill="#63b8ff" stroke="#63b8ff" points="376.07,-165.75 384.22,-158.98 373.62,-159.2 376.07,-165.75"/>
</a>
</g>
</g>
<!-- Node8 -->
<g id="Node000008" class="node">
<title>Node8</title>
<g id="a_Node000008"><a xlink:href="$classinterficie_1_1_vista_partida.html#ab47b596fbbd6a79289d4b9d7f5b5e068" xlink:title="Crea un panell amb la informació d&#39;un jugador.">
<polygon fill="white" stroke="#666666" points="329.38,-32 195.62,-32 195.62,0 329.38,0 329.38,-32"/>
<text text-anchor="start" x="203.62" y="-18.5" font-family="Helvetica,sans-Serif" font-size="10.00">interficie.VistaPartida.crear</text>
<text text-anchor="middle" x="262.5" y="-6.5" font-family="Helvetica,sans-Serif" font-size="10.00">PanelJugador</text>
</a>
</g>
</g>
<!-- Node3&#45;&gt;Node8 -->
<g id="edge12_Node000003_Node000008" class="edge">
<title>Node3&#45;&gt;Node8</title>
<g id="a_edge12_Node000003_Node000008"><a xlink:title=" ">
<path fill="none" stroke="#63b8ff" d="M412.47,-116.23C395.99,-93.48 369.21,-60.92 338.75,-41 333.8,-37.76 328.38,-34.9 322.8,-32.39"/>
<polygon fill="#63b8ff" stroke="#63b8ff" points="409.59,-118.22 418.22,-124.38 415.31,-114.19 409.59,-118.22"/>
</a>
</g>
</g>
<!-- Node5 -->
<g id="Node000005" class="node">
<title>Node5</title>
<g id="a_Node000005"><a xlink:href="$classinterficie_1_1_vista_partida.html#a0698d192124492ebfd8a3b029a6fa23c" xlink:title="Actualitza els racks dels jugadors.">
<polygon fill="white" stroke="#666666" points="150.25,-176 0,-176 0,-144 150.25,-144 150.25,-176"/>
<text text-anchor="start" x="8" y="-162.5" font-family="Helvetica,sans-Serif" font-size="10.00">interficie.VistaPartida.refrescar</text>
<text text-anchor="middle" x="75.12" y="-150.5" font-family="Helvetica,sans-Serif" font-size="10.00">RackJugadors</text>
</a>
</g>
</g>
<!-- Node4&#45;&gt;Node5 -->
<g id="edge4_Node000004_Node000005" class="edge">
<title>Node4&#45;&gt;Node5</title>
<g id="a_edge4_Node000004_Node000005"><a xlink:title=" ">
<path fill="none" stroke="#63b8ff" d="M183.15,-134.6C170.6,-137.57 157.7,-140.64 145.39,-143.56"/>
<polygon fill="#63b8ff" stroke="#63b8ff" points="183.66,-138.07 192.58,-132.36 182.04,-131.26 183.66,-138.07"/>
</a>
</g>
</g>
<!-- Node5&#45;&gt;Node1 -->
<g id="edge6_Node000005_Node000001" class="edge">
<title>Node5&#45;&gt;Node1</title>
<g id="a_edge6_Node000005_Node000001"><a xlink:title=" ">
<path fill="none" stroke="#63b8ff" d="M96.97,-184.73C117.2,-206.64 150.07,-237.1 186.25,-250 385.26,-320.98 642.35,-219.26 733.9,-177.5"/>
<polygon fill="#63b8ff" stroke="#63b8ff" points="99.64,-182.47 90.36,-177.36 94.43,-187.14 99.64,-182.47"/>
</a>
</g>
</g>
<!-- Node5&#45;&gt;Node2 -->
<g id="edge5_Node000005_Node000002" class="edge">
<title>Node5&#45;&gt;Node2</title>
<g id="a_edge5_Node000005_Node000002"><a xlink:title=" ">
<path fill="none" stroke="#63b8ff" d="M103.77,-183.52C124.85,-199.83 155.41,-220.14 186.25,-229 324.14,-268.63 497.54,-214.29 562.86,-190.34"/>
<polygon fill="#63b8ff" stroke="#63b8ff" points="105.98,-180.8 95.98,-177.31 101.62,-186.28 105.98,-180.8"/>
</a>
</g>
</g>
<!-- Node5&#45;&gt;Node3 -->
<g id="edge7_Node000005_Node000003" class="edge">
<title>Node5&#45;&gt;Node3</title>
<g id="a_edge7_Node000005_Node000003"><a xlink:title=" ">
<path fill="none" stroke="#63b8ff" d="M161.92,-155.63C228.06,-152.27 317.57,-147.71 374.5,-144.81"/>
<polygon fill="#63b8ff" stroke="#63b8ff" points="162.01,-152.12 152.2,-156.13 162.36,-159.11 162.01,-152.12"/>
</a>
</g>
</g>
<!-- Node6&#45;&gt;Node5 -->
<g id="edge9_Node000006_Node000005" class="edge">
<title>Node6&#45;&gt;Node5</title>
<g id="a_edge9_Node000006_Node000005"><a xlink:title=" ">
<path fill="none" stroke="#63b8ff" d="M196.46,-86.5C192.97,-87.94 189.55,-89.45 186.25,-91 154.41,-106 120.48,-128.34 98.83,-143.51"/>
<polygon fill="#63b8ff" stroke="#63b8ff" points="197.59,-89.82 205.63,-82.92 195.04,-83.3 197.59,-89.82"/>
</a>
</g>
</g>
<!-- Node7&#45;&gt;Node2 -->
<g id="edge11_Node000007_Node000002" class="edge">
<title>Node7&#45;&gt;Node2</title>
<g id="a_edge11_Node000007_Node000002"><a xlink:title=" ">
<path fill="none" stroke="#63b8ff" d="M350.28,-197.61C404.35,-193.63 472.84,-188.58 522.64,-184.91"/>
<polygon fill="#63b8ff" stroke="#63b8ff" points="350.2,-194.1 340.49,-198.33 350.72,-201.09 350.2,-194.1"/>
</a>
</g>
</g>
<!-- Node8&#45;&gt;Node1 -->
<g id="edge13_Node000008_Node000001" class="edge">
<title>Node8&#45;&gt;Node1</title>
<g id="a_edge13_Node000008_Node000001"><a xlink:title=" ">
<path fill="none" stroke="#63b8ff" d="M331.74,-35.61C431.95,-64.4 617.11,-117.61 710.73,-144.51"/>
<polygon fill="#63b8ff" stroke="#63b8ff" points="332.87,-32.29 322.3,-32.89 330.94,-39.02 332.87,-32.29"/>
</a>
</g>
</g>
</g>
</svg>
