<?xml version="1.0" encoding="UTF-8" standalone="no"?>
<!DOCTYPE svg PUBLIC "-//W3C//DTD SVG 1.1//EN"
 "http://www.w3.org/Graphics/SVG/1.1/DTD/svg11.dtd">
<!-- Generated by graphviz version 12.2.1 (20241206.2353)
 -->
<!-- Title: drivers.Driver.colocarParaula Pages: 1 -->
<svg width="725pt" height="135pt"
 viewBox="0.00 0.00 724.50 135.00" xmlns="http://www.w3.org/2000/svg" xmlns:xlink="http://www.w3.org/1999/xlink">
<g id="graph0" class="graph" transform="scale(1 1) rotate(0) translate(4 131)">
<title>drivers.Driver.colocarParaula</title>
<!-- Node1 -->
<g id="Node000001" class="node">
<title>Node1</title>
<g id="a_Node000001"><a xlink:title="Col·loca una paraula al taulell.">
<polygon fill="#999999" stroke="#666666" points="142,-86 0,-86 0,-66 142,-66 142,-86"/>
<text text-anchor="middle" x="71" y="-72.5" font-family="Helvetica,sans-Serif" font-size="10.00">drivers.Driver.colocarParaula</text>
</a>
</g>
</g>
<!-- Node2 -->
<g id="Node000002" class="node">
<title>Node2</title>
<g id="a_Node000002"><a xlink:href="classdrivers_1_1_driver.html#a8bc044826a5994373681c23cc5555bce" target="_top" xlink:title="Neteja la pantalla del terminal.">
<polygon fill="white" stroke="#666666" points="514.5,-127 385.25,-127 385.25,-107 514.5,-107 514.5,-127"/>
<text text-anchor="middle" x="449.88" y="-113.5" font-family="Helvetica,sans-Serif" font-size="10.00">drivers.Driver.clearScreen</text>
</a>
</g>
</g>
<!-- Node1&#45;&gt;Node2 -->
<g id="edge1_Node000001_Node000002" class="edge">
<title>Node1&#45;&gt;Node2</title>
<g id="a_edge1_Node000001_Node000002"><a xlink:title=" ">
<path fill="none" stroke="#63b8ff" d="M108.98,-86.38C129.21,-91.63 154.8,-97.61 178,-101 243.6,-110.6 318.94,-114.48 373.49,-116.03"/>
<polygon fill="#63b8ff" stroke="#63b8ff" points="373.2,-119.52 383.28,-116.29 373.38,-112.52 373.2,-119.52"/>
</a>
</g>
</g>
<!-- Node3 -->
<g id="Node000003" class="node">
<title>Node3</title>
<g id="a_Node000003"><a xlink:href="classdrivers_1_1_driver.html#a735bc9f4183f4abd4c702da4c62b0ce8" target="_top" xlink:title="Mostra la pantalla de canvi de torn donant temps per a que el jugador es retiri i no vegi la pantalla...">
<polygon fill="white" stroke="#666666" points="316.25,-92 178,-92 178,-60 316.25,-60 316.25,-92"/>
<text text-anchor="start" x="186" y="-78.5" font-family="Helvetica,sans-Serif" font-size="10.00">drivers.Driver.PantallaCanvi</text>
<text text-anchor="middle" x="247.12" y="-66.5" font-family="Helvetica,sans-Serif" font-size="10.00">DeTorn</text>
</a>
</g>
</g>
<!-- Node1&#45;&gt;Node3 -->
<g id="edge2_Node000001_Node000003" class="edge">
<title>Node1&#45;&gt;Node3</title>
<g id="a_edge2_Node000001_Node000003"><a xlink:title=" ">
<path fill="none" stroke="#63b8ff" d="M142.32,-76C150.12,-76 158.11,-76 166.02,-76"/>
<polygon fill="#63b8ff" stroke="#63b8ff" points="166.01,-79.5 176.01,-76 166.01,-72.5 166.01,-79.5"/>
</a>
</g>
</g>
<!-- Node5 -->
<g id="Node000005" class="node">
<title>Node5</title>
<g id="a_Node000005"><a xlink:href="classdrivers_1_1_driver.html#a0ebb5e3010ea1f086dc4fd28df56ae54" target="_top" xlink:title="Genera una llista amb les lletres i dígrafs del paràmetre.">
<polygon fill="white" stroke="#666666" points="304.25,-42 190,-42 190,-22 304.25,-22 304.25,-42"/>
<text text-anchor="middle" x="247.12" y="-28.5" font-family="Helvetica,sans-Serif" font-size="10.00">drivers.Driver.tokenize</text>
</a>
</g>
</g>
<!-- Node1&#45;&gt;Node5 -->
<g id="edge5_Node000001_Node000005" class="edge">
<title>Node1&#45;&gt;Node5</title>
<g id="a_edge5_Node000001_Node000005"><a xlink:title=" ">
<path fill="none" stroke="#63b8ff" d="M113.27,-65.57C137.36,-59.48 167.99,-51.74 193.77,-45.23"/>
<polygon fill="#63b8ff" stroke="#63b8ff" points="194.55,-48.64 203.39,-42.8 192.83,-41.86 194.55,-48.64"/>
</a>
</g>
</g>
<!-- Node3&#45;&gt;Node2 -->
<g id="edge4_Node000003_Node000002" class="edge">
<title>Node3&#45;&gt;Node2</title>
<g id="a_edge4_Node000003_Node000002"><a xlink:title=" ">
<path fill="none" stroke="#63b8ff" d="M316.65,-90C339.39,-94.64 364.56,-99.78 386.78,-104.32"/>
<polygon fill="#63b8ff" stroke="#63b8ff" points="385.79,-107.69 396.29,-106.26 387.19,-100.83 385.79,-107.69"/>
</a>
</g>
</g>
<!-- Node4 -->
<g id="Node000004" class="node">
<title>Node4</title>
<g id="a_Node000004"><a xlink:href="classdomini_1_1auxiliars_1_1_color_terminal.html#a2fe2444decaa0df626b98d7e35637dbb" target="_top" xlink:title="Centra el text en una línia de la terminal.">
<polygon fill="white" stroke="#666666" points="547.5,-86 352.25,-86 352.25,-66 547.5,-66 547.5,-86"/>
<text text-anchor="middle" x="449.88" y="-72.5" font-family="Helvetica,sans-Serif" font-size="10.00">domini.auxiliars.ColorTerminal.centerText</text>
</a>
</g>
</g>
<!-- Node3&#45;&gt;Node4 -->
<g id="edge3_Node000003_Node000004" class="edge">
<title>Node3&#45;&gt;Node4</title>
<g id="a_edge3_Node000003_Node000004"><a xlink:title=" ">
<path fill="none" stroke="#63b8ff" d="M316.65,-76C324.37,-76 332.37,-76 340.44,-76"/>
<polygon fill="#63b8ff" stroke="#63b8ff" points="340.36,-79.5 350.36,-76 340.36,-72.5 340.36,-79.5"/>
</a>
</g>
</g>
<!-- Node6 -->
<g id="Node000006" class="node">
<title>Node6</title>
<g id="a_Node000006"><a xlink:href="classdrivers_1_1_driver.html#a1f0852212ac7d690fe9c705f9eadd737" target="_top" xlink:title="Donat un text entrat per terminal, és possible que el charSet de la consola no reconegui correctament...">
<polygon fill="white" stroke="#666666" points="522.38,-48 377.38,-48 377.38,-16 522.38,-16 522.38,-48"/>
<text text-anchor="start" x="385.38" y="-34.5" font-family="Helvetica,sans-Serif" font-size="10.00">drivers.Driver.corregir</text>
<text text-anchor="middle" x="449.88" y="-22.5" font-family="Helvetica,sans-Serif" font-size="10.00">_caracters_terminal_windows</text>
</a>
</g>
</g>
<!-- Node5&#45;&gt;Node6 -->
<g id="edge6_Node000005_Node000006" class="edge">
<title>Node5&#45;&gt;Node6</title>
<g id="a_edge6_Node000005_Node000006"><a xlink:title=" ">
<path fill="none" stroke="#63b8ff" d="M304.58,-32C323.56,-32 345.16,-32 365.75,-32"/>
<polygon fill="#63b8ff" stroke="#63b8ff" points="365.55,-35.5 375.55,-32 365.55,-28.5 365.55,-35.5"/>
</a>
</g>
</g>
<!-- Node7 -->
<g id="Node000007" class="node">
<title>Node7</title>
<g id="a_Node000007"><a xlink:href="classdrivers_1_1_driver.html#a5337e850da710900d1ef6e2c4455a416" target="_top" xlink:title="Donada una seqüència de caràcters identifica qualsevol submot &quot;[VOCAL]?&quot; o &quot;?[VOCAL]&quot; i ho substituei...">
<polygon fill="white" stroke="#666666" points="708.62,-70 591.38,-70 591.38,-38 708.62,-38 708.62,-70"/>
<text text-anchor="start" x="599.38" y="-56.5" font-family="Helvetica,sans-Serif" font-size="10.00">drivers.Driver.substituir</text>
<text text-anchor="middle" x="650" y="-44.5" font-family="Helvetica,sans-Serif" font-size="10.00">Ctrencada</text>
</a>
</g>
</g>
<!-- Node6&#45;&gt;Node7 -->
<g id="edge7_Node000006_Node000007" class="edge">
<title>Node6&#45;&gt;Node7</title>
<g id="a_edge7_Node000006_Node000007"><a xlink:title=" ">
<path fill="none" stroke="#63b8ff" d="M522.68,-39.97C541.3,-42.04 561.31,-44.26 579.79,-46.31"/>
<polygon fill="#63b8ff" stroke="#63b8ff" points="579.24,-49.78 589.57,-47.4 580.02,-42.82 579.24,-49.78"/>
</a>
</g>
</g>
<!-- Node8 -->
<g id="Node000008" class="node">
<title>Node8</title>
<g id="a_Node000008"><a xlink:href="classdrivers_1_1_driver.html#a5786bc8fc6091766d21fc7e775c38b45" target="_top" xlink:title="Donada una seqüència de caràcters identifica qualsevol submot &quot;LxL&quot; on x no pertany al conjunt {A&#45;Z}...">
<polygon fill="white" stroke="#666666" points="716.5,-20 583.5,-20 583.5,0 716.5,0 716.5,-20"/>
<text text-anchor="middle" x="650" y="-6.5" font-family="Helvetica,sans-Serif" font-size="10.00">drivers.Driver.substituirLxL</text>
</a>
</g>
</g>
<!-- Node6&#45;&gt;Node8 -->
<g id="edge8_Node000006_Node000008" class="edge">
<title>Node6&#45;&gt;Node8</title>
<g id="a_edge8_Node000006_Node000008"><a xlink:title=" ">
<path fill="none" stroke="#63b8ff" d="M522.68,-24.03C538.7,-22.25 555.75,-20.36 571.96,-18.55"/>
<polygon fill="#63b8ff" stroke="#63b8ff" points="571.98,-22.07 581.53,-17.49 571.21,-15.12 571.98,-22.07"/>
</a>
</g>
</g>
</g>
</svg>
