<?xml version="1.0" encoding="UTF-8" standalone="no"?>
<!DOCTYPE svg PUBLIC "-//W3C//DTD SVG 1.1//EN"
 "http://www.w3.org/Graphics/SVG/1.1/DTD/svg11.dtd">
<!-- Generated by graphviz version 12.2.1 (20241206.2353)
 -->
<!-- Title: interficie.VistaCrearAvatar.VistaCrearAvatar Pages: 1 -->
<svg width="345pt" height="58pt"
 viewBox="0.00 0.00 344.50 58.00" xmlns="http://www.w3.org/2000/svg" xmlns:xlink="http://www.w3.org/1999/xlink">
<g id="graph0" class="graph" transform="scale(1 1) rotate(0) translate(4 54)">
<title>interficie.VistaCrearAvatar.VistaCrearAvatar</title>
<!-- Node1 -->
<g id="Node000001" class="node">
<title>Node1</title>
<g id="a_Node000001"><a xlink:title="Constructor de la finestra VistaCrearAvatar.">
<polygon fill="#999999" stroke="#666666" points="336.5,-32 202.75,-32 202.75,0 336.5,0 336.5,-32"/>
<text text-anchor="start" x="210.75" y="-18.5" font-family="Helvetica,sans-Serif" font-size="10.00">interficie.VistaCrearAvatar.</text>
<text text-anchor="middle" x="269.62" y="-6.5" font-family="Helvetica,sans-Serif" font-size="10.00">VistaCrearAvatar</text>
</a>
</g>
</g>
<!-- Node1&#45;&gt;Node1 -->
<g id="edge3_Node000001_Node000001" class="edge">
<title>Node1&#45;&gt;Node1</title>
<g id="a_edge3_Node000001_Node000001"><a xlink:title=" ">
<path fill="none" stroke="#63b8ff" d="M300.66,-43.71C295.49,-47.48 285.14,-50 269.62,-50 241.25,-50 230.17,-41.58 236.37,-32.44"/>
<polygon fill="#63b8ff" stroke="#63b8ff" points="304.09,-44.42 302.58,-33.93 297.22,-43.07 304.09,-44.42"/>
</a>
</g>
</g>
<!-- Node2 -->
<g id="Node000002" class="node">
<title>Node2</title>
<g id="a_Node000002"><a xlink:href="$classinterficie_1_1_vista_crear_avatar.html#a8815061362fcbb6852ed1013c55cf773" xlink:title="Mostra un diàleg modal per seleccionar la imatge de perfil de l&#39;usuari.">
<polygon fill="white" stroke="#666666" points="166.75,-32 0,-32 0,0 166.75,0 166.75,-32"/>
<text text-anchor="start" x="8" y="-18.5" font-family="Helvetica,sans-Serif" font-size="10.00">interficie.VistaCrearAvatar.mostrar</text>
<text text-anchor="middle" x="83.38" y="-6.5" font-family="Helvetica,sans-Serif" font-size="10.00">SelectorImagenes</text>
</a>
</g>
</g>
<!-- Node1&#45;&gt;Node2 -->
<g id="edge1_Node000001_Node000002" class="edge">
<title>Node1&#45;&gt;Node2</title>
<g id="a_edge1_Node000001_Node000002"><a xlink:title=" ">
<path fill="none" stroke="#63b8ff" d="M190.93,-9.32C183.04,-9.24 175,-9.23 167.06,-9.28"/>
<polygon fill="#63b8ff" stroke="#63b8ff" points="190.8,-12.82 200.85,-9.47 190.91,-5.82 190.8,-12.82"/>
</a>
</g>
</g>
<!-- Node2&#45;&gt;Node1 -->
<g id="edge2_Node000002_Node000001" class="edge">
<title>Node2&#45;&gt;Node1</title>
<g id="a_edge2_Node000002_Node000001"><a xlink:title=" ">
<path fill="none" stroke="#63b8ff" d="M178.46,-22.75C186.53,-22.74 194.58,-22.66 202.37,-22.51"/>
<polygon fill="#63b8ff" stroke="#63b8ff" points="178.58,-19.25 168.57,-22.72 178.56,-26.25 178.58,-19.25"/>
</a>
</g>
</g>
</g>
</svg>
