<?xml version="1.0" encoding="UTF-8" standalone="no"?>
<!DOCTYPE svg PUBLIC "-//W3C//DTD SVG 1.1//EN"
 "http://www.w3.org/Graphics/SVG/1.1/DTD/svg11.dtd">
<!-- Generated by graphviz version 12.2.1 (20241206.2353)
 -->
<!-- Title: controladors.CtrlPresentacio.canviarCrearPerfilDesdeIniciarSessio Pages: 1 -->
<svg width="356pt" height="58pt"
 viewBox="0.00 0.00 355.75 58.00" xmlns="http://www.w3.org/2000/svg" xmlns:xlink="http://www.w3.org/1999/xlink">
<g id="graph0" class="graph" transform="scale(1 1) rotate(0) translate(4 54)">
<title>controladors.CtrlPresentacio.canviarCrearPerfilDesdeIniciarSessio</title>
<!-- Node1 -->
<g id="Node000001" class="node">
<title>Node1</title>
<g id="a_Node000001"><a xlink:title="Canvia la vista des de VistaIniciarSessio a VistaCrearPerfil.">
<polygon fill="#999999" stroke="#666666" points="347.75,-32 173.5,-32 173.5,0 347.75,0 347.75,-32"/>
<text text-anchor="start" x="181.5" y="-18.5" font-family="Helvetica,sans-Serif" font-size="10.00">controladors.CtrlPresentacio.canviar</text>
<text text-anchor="middle" x="260.62" y="-6.5" font-family="Helvetica,sans-Serif" font-size="10.00">CrearPerfilDesdeIniciarSessio</text>
</a>
</g>
</g>
<!-- Node2 -->
<g id="Node000002" class="node">
<title>Node2</title>
<g id="a_Node000002"><a xlink:href="classinterficie_1_1_vista_iniciar_sessio.html#afc5613ff799374e1f28b0e885c6cc264" target="_top" xlink:title="Constructor que crea la vista d&#39;iniciar sessió.">
<polygon fill="white" stroke="#666666" points="137.5,-32 0,-32 0,0 137.5,0 137.5,-32"/>
<text text-anchor="start" x="8" y="-18.5" font-family="Helvetica,sans-Serif" font-size="10.00">interficie.VistaIniciarSessio.</text>
<text text-anchor="middle" x="68.75" y="-6.5" font-family="Helvetica,sans-Serif" font-size="10.00">VistaIniciarSessio</text>
</a>
</g>
</g>
<!-- Node1&#45;&gt;Node2 -->
<g id="edge1_Node000001_Node000002" class="edge">
<title>Node1&#45;&gt;Node2</title>
<g id="a_edge1_Node000001_Node000002"><a xlink:title=" ">
<path fill="none" stroke="#63b8ff" d="M161.62,-16C153.55,-16 145.51,-16 137.74,-16"/>
<polygon fill="#63b8ff" stroke="#63b8ff" points="161.51,-19.5 171.51,-16 161.51,-12.5 161.51,-19.5"/>
</a>
</g>
</g>
<!-- Node2&#45;&gt;Node2 -->
<g id="edge2_Node000002_Node000002" class="edge">
<title>Node2&#45;&gt;Node2</title>
<g id="a_edge2_Node000002_Node000002"><a xlink:title=" ">
<path fill="none" stroke="#63b8ff" d="M100.73,-43.71C95.39,-47.48 84.74,-50 68.75,-50 39.52,-50 28.1,-41.58 34.49,-32.44"/>
<polygon fill="#63b8ff" stroke="#63b8ff" points="104.15,-44.42 102.7,-33.93 97.29,-43.03 104.15,-44.42"/>
</a>
</g>
</g>
</g>
</svg>
