<?xml version="1.0" encoding="UTF-8" standalone="no"?>
<!DOCTYPE svg PUBLIC "-//W3C//DTD SVG 1.1//EN"
 "http://www.w3.org/Graphics/SVG/1.1/DTD/svg11.dtd">
<!-- Generated by graphviz version 12.2.1 (20241206.2353)
 -->
<!-- Title: interficie.VistaConsultarEstadistiques.AvatarRenderer Pages: 1 -->
<svg width="202pt" height="160pt"
 viewBox="0.00 0.00 201.50 160.00" xmlns="http://www.w3.org/2000/svg" xmlns:xlink="http://www.w3.org/1999/xlink">
<g id="graph0" class="graph" transform="scale(1 1) rotate(0) translate(4 156)">
<title>interficie.VistaConsultarEstadistiques.AvatarRenderer</title>
<!-- Node1 -->
<g id="Node000001" class="node">
<title>Node1</title>
<g id="a_Node000001"><a xlink:title="Renderer personalitzat per mostrar l’avatar amb imatge i nom.">
<polygon fill="#999999" stroke="none" points="160.5,-64 0,-64 0,0 160.5,0 160.5,-64"/>
<text text-anchor="start" x="15" y="-50.5" font-family="Helvetica,sans-Serif" font-size="10.00">interficie.VistaConsultar</text>
<text text-anchor="start" x="15" y="-38.5" font-family="Helvetica,sans-Serif" font-size="10.00">Estadistiques.AvatarRenderer</text>
<text text-anchor="start" x="78.75" y="-22.5" font-family="Helvetica,sans-Serif" font-size="10.00"> </text>
<text text-anchor="start" x="4" y="-6.5" font-family="Helvetica,sans-Serif" font-size="10.00">+</text>
<text text-anchor="start" x="14" y="-6.5" font-family="Helvetica,sans-Serif" font-size="10.00">getListCellRendererComponent()</text>
<polygon fill="#666666" stroke="#666666" points="0,-34 0,-34 160.5,-34 160.5,-34 0,-34"/>
<polygon fill="#666666" stroke="#666666" points="0,-18 0,-18 160.5,-18 160.5,-18 0,-18"/>
<polygon fill="none" stroke="#666666" points="0,0 0,-64 160.5,-64 160.5,0 0,0"/>
</a>
</g>
</g>
<!-- Node2 -->
<g id="Node000002" class="node">
<title>Node2</title>
<g id="a_Node000002"><a xlink:title=" ">
<polygon fill="white" stroke="none" points="48.5,-152 12,-152 12,-100 48.5,-100 48.5,-152"/>
<text text-anchor="start" x="16" y="-138.5" font-family="Helvetica,sans-Serif" font-size="10.00">JLabel</text>
<text text-anchor="start" x="28.75" y="-122.5" font-family="Helvetica,sans-Serif" font-size="10.00"> </text>
<text text-anchor="start" x="28.75" y="-106.5" font-family="Helvetica,sans-Serif" font-size="10.00"> </text>
<polygon fill="#666666" stroke="#666666" points="12,-134 12,-134 48.5,-134 48.5,-134 12,-134"/>
<polygon fill="#666666" stroke="#666666" points="12,-118 12,-118 48.5,-118 48.5,-118 12,-118"/>
<polygon fill="none" stroke="#666666" points="12,-100 12,-152 48.5,-152 48.5,-100 12,-100"/>
</a>
</g>
</g>
<!-- Node2&#45;&gt;Node1 -->
<g id="edge1_Node000001_Node000002" class="edge">
<title>Node2&#45;&gt;Node1</title>
<g id="a_edge1_Node000001_Node000002"><a xlink:title=" ">
<path fill="none" stroke="#63b8ff" d="M49.01,-90.48C53.74,-81.78 58.78,-72.5 63.41,-63.98"/>
<polygon fill="none" stroke="#63b8ff" points="46.07,-88.56 44.37,-99.02 52.22,-91.9 46.07,-88.56"/>
</a>
</g>
</g>
<!-- Node3 -->
<g id="Node000003" class="node">
<title>Node3</title>
<g id="a_Node000003"><a xlink:title=" ">
<polygon fill="white" stroke="none" points="193.5,-152 67,-152 67,-100 193.5,-100 193.5,-152"/>
<text text-anchor="start" x="71" y="-138.5" font-family="Helvetica,sans-Serif" font-size="10.00">ListCellRenderer&lt; Avatar &gt;</text>
<text text-anchor="start" x="128.75" y="-122.5" font-family="Helvetica,sans-Serif" font-size="10.00"> </text>
<text text-anchor="start" x="128.75" y="-106.5" font-family="Helvetica,sans-Serif" font-size="10.00"> </text>
<polygon fill="#666666" stroke="#666666" points="67,-134 67,-134 193.5,-134 193.5,-134 67,-134"/>
<polygon fill="#666666" stroke="#666666" points="67,-118 67,-118 193.5,-118 193.5,-118 67,-118"/>
<polygon fill="none" stroke="#666666" points="67,-100 67,-152 193.5,-152 193.5,-100 67,-100"/>
</a>
</g>
</g>
<!-- Node3&#45;&gt;Node1 -->
<g id="edge2_Node000001_Node000003" class="edge">
<title>Node3&#45;&gt;Node1</title>
<g id="a_edge2_Node000001_Node000003"><a xlink:title=" ">
<path fill="none" stroke="#63b8ff" d="M111.49,-90.48C106.76,-81.78 101.72,-72.5 97.09,-63.98"/>
<polygon fill="none" stroke="#63b8ff" points="108.28,-91.9 116.13,-99.02 114.43,-88.56 108.28,-91.9"/>
</a>
</g>
</g>
</g>
</svg>
