<?xml version="1.0" encoding="UTF-8" standalone="no"?>
<!DOCTYPE svg PUBLIC "-//W3C//DTD SVG 1.1//EN"
 "http://www.w3.org/Graphics/SVG/1.1/DTD/svg11.dtd">
<!-- Generated by graphviz version 12.2.1 (20241206.2353)
 -->
<!-- Title: interficie.VistaRankingPartida.VistaRankingPartida Pages: 1 -->
<svg width="360pt" height="58pt"
 viewBox="0.00 0.00 359.50 58.00" xmlns="http://www.w3.org/2000/svg" xmlns:xlink="http://www.w3.org/1999/xlink">
<g id="graph0" class="graph" transform="scale(1 1) rotate(0) translate(4 54)">
<title>interficie.VistaRankingPartida.VistaRankingPartida</title>
<!-- Node1 -->
<g id="Node000001" class="node">
<title>Node1</title>
<g id="a_Node000001"><a xlink:title="Constructor que inicialitza i mostra la finestra de rànquing.">
<polygon fill="#999999" stroke="#666666" points="148,-32 0,-32 0,0 148,0 148,-32"/>
<text text-anchor="start" x="8" y="-18.5" font-family="Helvetica,sans-Serif" font-size="10.00">interficie.VistaRankingPartida.</text>
<text text-anchor="middle" x="74" y="-6.5" font-family="Helvetica,sans-Serif" font-size="10.00">VistaRankingPartida</text>
</a>
</g>
</g>
<!-- Node1&#45;&gt;Node1 -->
<g id="edge2_Node000001_Node000001" class="edge">
<title>Node1&#45;&gt;Node1</title>
<g id="a_edge2_Node000001_Node000001"><a xlink:title=" ">
<path fill="none" stroke="#63b8ff" d="M39.41,-32.44C32.95,-41.58 44.48,-50 74,-50 90.14,-50 100.9,-47.48 106.29,-43.71"/>
<polygon fill="#63b8ff" stroke="#63b8ff" points="109.71,-44.42 108.29,-33.93 102.86,-43.02 109.71,-44.42"/>
</a>
</g>
</g>
<!-- Node2 -->
<g id="Node000002" class="node">
<title>Node2</title>
<g id="a_Node000002"><a xlink:href="$classcontroladors_1_1_ctrl_presentacio.html#a66901a833c124fd1acc592cea93f4e6d" xlink:title="Torna a la vista anterior a l&#39;actual.">
<polygon fill="white" stroke="#666666" points="351.5,-26 184,-26 184,-6 351.5,-6 351.5,-26"/>
<text text-anchor="middle" x="267.75" y="-12.5" font-family="Helvetica,sans-Serif" font-size="10.00">controladors.CtrlPresentacio.tornar</text>
</a>
</g>
</g>
<!-- Node1&#45;&gt;Node2 -->
<g id="edge1_Node000001_Node000002" class="edge">
<title>Node1&#45;&gt;Node2</title>
<g id="a_edge1_Node000001_Node000002"><a xlink:title=" ">
<path fill="none" stroke="#63b8ff" d="M148.31,-16C156.15,-16 164.19,-16 172.23,-16"/>
<polygon fill="#63b8ff" stroke="#63b8ff" points="172.04,-19.5 182.04,-16 172.04,-12.5 172.04,-19.5"/>
</a>
</g>
</g>
</g>
</svg>
