<?xml version="1.0" encoding="UTF-8" standalone="no"?>
<!DOCTYPE svg PUBLIC "-//W3C//DTD SVG 1.1//EN"
 "http://www.w3.org/Graphics/SVG/1.1/DTD/svg11.dtd">
<!-- Generated by graphviz version 12.2.1 (20241206.2353)
 -->
<!-- Title: domini.scrabble.EstatPausada Pages: 1 -->
<svg width="149pt" height="292pt"
 viewBox="0.00 0.00 148.75 292.00" xmlns="http://www.w3.org/2000/svg" xmlns:xlink="http://www.w3.org/1999/xlink">
<g id="graph0" class="graph" transform="scale(1 1) rotate(0) translate(4 288)">
<title>domini.scrabble.EstatPausada</title>
<!-- Node1 -->
<g id="Node000001" class="node">
<title>Node1</title>
<g id="a_Node000001"><a xlink:title="Representa l&#39;estat &#39;Pausada&#39; d&#39;una partida.">
<polygon fill="#999999" stroke="none" points="140.75,-116 0,-116 0,0 140.75,0 140.75,-116"/>
<text text-anchor="start" x="4" y="-102.5" font-family="Helvetica,sans-Serif" font-size="10.00">domini.scrabble.EstatPausada</text>
<text text-anchor="start" x="68.88" y="-86.5" font-family="Helvetica,sans-Serif" font-size="10.00"> </text>
<text text-anchor="start" x="17.81" y="-70.5" font-family="Helvetica,sans-Serif" font-size="10.00">+</text>
<text text-anchor="start" x="41.62" y="-70.5" font-family="Helvetica,sans-Serif" font-size="10.00">EstatPausada()</text>
<text text-anchor="start" x="17.81" y="-54.5" font-family="Helvetica,sans-Serif" font-size="10.00">+</text>
<text text-anchor="start" x="41.62" y="-54.5" font-family="Helvetica,sans-Serif" font-size="10.00">iniciar()</text>
<text text-anchor="start" x="17.81" y="-38.5" font-family="Helvetica,sans-Serif" font-size="10.00">+</text>
<text text-anchor="start" x="41.62" y="-38.5" font-family="Helvetica,sans-Serif" font-size="10.00">pausar()</text>
<text text-anchor="start" x="17.81" y="-22.5" font-family="Helvetica,sans-Serif" font-size="10.00">+</text>
<text text-anchor="start" x="41.62" y="-22.5" font-family="Helvetica,sans-Serif" font-size="10.00">encurs()</text>
<text text-anchor="start" x="17.81" y="-6.5" font-family="Helvetica,sans-Serif" font-size="10.00">+</text>
<text text-anchor="start" x="41.62" y="-6.5" font-family="Helvetica,sans-Serif" font-size="10.00">finalitzar()</text>
<polygon fill="#666666" stroke="#666666" points="0,-98 0,-98 140.75,-98 140.75,-98 0,-98"/>
<polygon fill="#666666" stroke="#666666" points="0,-82 0,-82 140.75,-82 140.75,-82 0,-82"/>
<polygon fill="none" stroke="#666666" points="0,0 0,-116 140.75,-116 140.75,0 0,0"/>
</a>
</g>
</g>
<!-- Node2 -->
<g id="Node000002" class="node">
<title>Node2</title>
<g id="a_Node000002"><a xlink:href="classdomini_1_1scrabble_1_1_estat.html" target="_top" xlink:title="Classe abstracta que defineix el comportament genèric per als diferents estats d&#39;una partida.">
<polygon fill="white" stroke="none" points="121.62,-284 19.12,-284 19.12,-152 121.62,-152 121.62,-284"/>
<text text-anchor="start" x="23.12" y="-270.5" font-family="Helvetica,sans-Serif" font-size="10.00">domini.scrabble.Estat</text>
<text text-anchor="start" x="32.06" y="-254.5" font-family="Helvetica,sans-Serif" font-size="10.00">#</text>
<text text-anchor="start" x="50.25" y="-254.5" font-family="Helvetica,sans-Serif" font-size="10.00">partida</text>
<text text-anchor="start" x="31.69" y="-238.5" font-family="Helvetica,sans-Serif" font-size="10.00">+</text>
<text text-anchor="start" x="50.25" y="-238.5" font-family="Helvetica,sans-Serif" font-size="10.00">Estat()</text>
<text text-anchor="start" x="31.69" y="-222.5" font-family="Helvetica,sans-Serif" font-size="10.00">+</text>
<text text-anchor="start" x="50.25" y="-222.5" font-family="Helvetica,sans-Serif" font-size="10.00">setPartida()</text>
<text text-anchor="start" x="31.69" y="-206.5" font-family="Helvetica,sans-Serif" font-size="10.00">+</text>
<text text-anchor="start" x="50.25" y="-206.5" font-family="Helvetica,sans-Serif" font-size="10.00">iniciar()</text>
<text text-anchor="start" x="31.69" y="-190.5" font-family="Helvetica,sans-Serif" font-size="10.00">+</text>
<text text-anchor="start" x="50.25" y="-190.5" font-family="Helvetica,sans-Serif" font-size="10.00">encurs()</text>
<text text-anchor="start" x="31.69" y="-174.5" font-family="Helvetica,sans-Serif" font-size="10.00">+</text>
<text text-anchor="start" x="50.25" y="-174.5" font-family="Helvetica,sans-Serif" font-size="10.00">pausar()</text>
<text text-anchor="start" x="31.69" y="-158.5" font-family="Helvetica,sans-Serif" font-size="10.00">+</text>
<text text-anchor="start" x="50.25" y="-158.5" font-family="Helvetica,sans-Serif" font-size="10.00">finalitzar()</text>
<polygon fill="#666666" stroke="#666666" points="19.12,-266 19.12,-266 121.62,-266 121.62,-266 19.12,-266"/>
<polygon fill="#666666" stroke="#666666" points="19.12,-250 19.12,-250 48.25,-250 48.25,-250 19.12,-250"/>
<polygon fill="#666666" stroke="#666666" points="48.25,-250 48.25,-250 121.62,-250 121.62,-250 48.25,-250"/>
<polygon fill="none" stroke="#666666" points="19.12,-152 19.12,-284 121.62,-284 121.62,-152 19.12,-152"/>
</a>
</g>
</g>
<!-- Node2&#45;&gt;Node1 -->
<g id="edge1_Node000001_Node000002" class="edge">
<title>Node2&#45;&gt;Node1</title>
<g id="a_edge1_Node000001_Node000002"><a xlink:title=" ">
<path fill="none" stroke="#63b8ff" d="M70.38,-140.84C70.38,-132.4 70.38,-123.91 70.38,-115.77"/>
<polygon fill="none" stroke="#63b8ff" points="66.88,-140.77 70.38,-150.77 73.88,-140.77 66.88,-140.77"/>
</a>
</g>
</g>
</g>
</svg>
