<?xml version="1.0" encoding="UTF-8" standalone="no"?>
<!DOCTYPE svg PUBLIC "-//W3C//DTD SVG 1.1//EN"
 "http://www.w3.org/Graphics/SVG/1.1/DTD/svg11.dtd">
<!-- Generated by graphviz version 12.2.1 (20241206.2353)
 -->
<!-- Title: persistencia.PartidaIO.loadPartida Pages: 1 -->
<svg width="556pt" height="90pt"
 viewBox="0.00 0.00 556.25 90.00" xmlns="http://www.w3.org/2000/svg" xmlns:xlink="http://www.w3.org/1999/xlink">
<g id="graph0" class="graph" transform="scale(1 1) rotate(0) translate(4 86)">
<title>persistencia.PartidaIO.loadPartida</title>
<!-- Node1 -->
<g id="Node000001" class="node">
<title>Node1</title>
<g id="a_Node000001"><a xlink:title="Carrega una partida des d&#39;un fitxer JSON.">
<polygon fill="#999999" stroke="#666666" points="548.25,-57 414.5,-57 414.5,-25 548.25,-25 548.25,-57"/>
<text text-anchor="start" x="422.5" y="-43.5" font-family="Helvetica,sans-Serif" font-size="10.00">persistencia.PartidaIO.load</text>
<text text-anchor="middle" x="481.38" y="-31.5" font-family="Helvetica,sans-Serif" font-size="10.00">Partida</text>
</a>
</g>
</g>
<!-- Node2 -->
<g id="Node000002" class="node">
<title>Node2</title>
<g id="a_Node000002"><a xlink:href="$classcontroladors_1_1_ctrl_persistencia.html#a83e891c1cd5d7ed5ffca4f07eee9a396" xlink:title="Carrega una partida de l&#39;emmagatzematge persistent.">
<polygon fill="white" stroke="#666666" points="378.5,-82 198.25,-82 198.25,-50 378.5,-50 378.5,-82"/>
<text text-anchor="start" x="206.25" y="-68.5" font-family="Helvetica,sans-Serif" font-size="10.00">controladors.CtrlPersistencia.carregar</text>
<text text-anchor="middle" x="288.38" y="-56.5" font-family="Helvetica,sans-Serif" font-size="10.00">Partida</text>
</a>
</g>
</g>
<!-- Node1&#45;&gt;Node2 -->
<g id="edge1_Node000001_Node000002" class="edge">
<title>Node1&#45;&gt;Node2</title>
<g id="a_edge1_Node000001_Node000002"><a xlink:title=" ">
<path fill="none" stroke="#63b8ff" d="M402.69,-51.17C394.8,-52.2 386.74,-53.26 378.74,-54.3"/>
<polygon fill="#63b8ff" stroke="#63b8ff" points="403.15,-54.64 412.61,-49.87 402.24,-47.7 403.15,-54.64"/>
</a>
</g>
</g>
<!-- Node4 -->
<g id="Node000004" class="node">
<title>Node4</title>
<g id="a_Node000004"><a xlink:href="$classdomini_1_1sessio_1_1_usuari.html#a63a56e633d9b9636475551b738a2fc2e" xlink:title="Retorna les partides jugades de l&#39;usuari.">
<polygon fill="white" stroke="#666666" points="350.38,-32 226.38,-32 226.38,0 350.38,0 350.38,-32"/>
<text text-anchor="start" x="234.38" y="-18.5" font-family="Helvetica,sans-Serif" font-size="10.00">domini.sessio.Usuari.get</text>
<text text-anchor="middle" x="288.38" y="-6.5" font-family="Helvetica,sans-Serif" font-size="10.00">Partides</text>
</a>
</g>
</g>
<!-- Node1&#45;&gt;Node4 -->
<g id="edge3_Node000001_Node000004" class="edge">
<title>Node1&#45;&gt;Node4</title>
<g id="a_edge3_Node000001_Node000004"><a xlink:title=" ">
<path fill="none" stroke="#63b8ff" d="M402.85,-30.85C385.49,-28.58 367.31,-26.2 350.72,-24.03"/>
<polygon fill="#63b8ff" stroke="#63b8ff" points="402.24,-34.3 412.61,-32.13 403.15,-27.36 402.24,-34.3"/>
</a>
</g>
</g>
<!-- Node3 -->
<g id="Node000003" class="node">
<title>Node3</title>
<g id="a_Node000003"><a xlink:href="$classcontroladors_1_1_ctrl_domini.html#a8f8379a74fba56b9e4e82d4c5743360e" xlink:title="Continuar partida.">
<polygon fill="white" stroke="#666666" points="162.25,-82 0,-82 0,-50 162.25,-50 162.25,-82"/>
<text text-anchor="start" x="8" y="-68.5" font-family="Helvetica,sans-Serif" font-size="10.00">controladors.CtrlDomini.reprendre</text>
<text text-anchor="middle" x="81.12" y="-56.5" font-family="Helvetica,sans-Serif" font-size="10.00">Partida</text>
</a>
</g>
</g>
<!-- Node2&#45;&gt;Node3 -->
<g id="edge2_Node000002_Node000003" class="edge">
<title>Node2&#45;&gt;Node3</title>
<g id="a_edge2_Node000002_Node000003"><a xlink:title=" ">
<path fill="none" stroke="#63b8ff" d="M186.58,-66C178.52,-66 170.44,-66 162.55,-66"/>
<polygon fill="#63b8ff" stroke="#63b8ff" points="186.43,-69.5 196.43,-66 186.43,-62.5 186.43,-69.5"/>
</a>
</g>
</g>
<!-- Node5 -->
<g id="Node000005" class="node">
<title>Node5</title>
<g id="a_Node000005"><a xlink:href="$classcontroladors_1_1_ctrl_domini.html#a5d856a54a1cc695dba14558f0864bf3d" xlink:title="Inicia la sessio d&#39;un usuari.">
<polygon fill="white" stroke="#666666" points="154.75,-32 7.5,-32 7.5,0 154.75,0 154.75,-32"/>
<text text-anchor="start" x="15.5" y="-18.5" font-family="Helvetica,sans-Serif" font-size="10.00">controladors.CtrlDomini.iniciar</text>
<text text-anchor="middle" x="81.12" y="-6.5" font-family="Helvetica,sans-Serif" font-size="10.00">SessioUser</text>
</a>
</g>
</g>
<!-- Node4&#45;&gt;Node5 -->
<g id="edge4_Node000004_Node000005" class="edge">
<title>Node4&#45;&gt;Node5</title>
<g id="a_edge4_Node000004_Node000005"><a xlink:title=" ">
<path fill="none" stroke="#63b8ff" d="M214.58,-16C195.26,-16 174.38,-16 155.05,-16"/>
<polygon fill="#63b8ff" stroke="#63b8ff" points="214.56,-19.5 224.56,-16 214.56,-12.5 214.56,-19.5"/>
</a>
</g>
</g>
</g>
</svg>
