<?xml version="1.0" encoding="UTF-8" standalone="no"?>
<!DOCTYPE svg PUBLIC "-//W3C//DTD SVG 1.1//EN"
 "http://www.w3.org/Graphics/SVG/1.1/DTD/svg11.dtd">
<!-- Generated by graphviz version 12.2.1 (20241206.2353)
 -->
<!-- Title: controladors.CtrlDomini.actualitzarRanking Pages: 1 -->
<!--zoomable 430 -->

<svg id="main" version="1.1" xmlns="http://www.w3.org/2000/svg" xmlns:xlink="http://www.w3.org/1999/xlink" xml:space="preserve" onload="init(evt)">

<style type="text/css"><![CDATA[
.node, .edge {opacity: 0.7;}
.node.selected, .edge.selected {opacity: 1;}
.edge:hover path { stroke: red; }
.edge:hover polygon { stroke: red; fill: red; }
]]></style>

<defs>
  <circle id="rim" cx="0" cy="0" r="7"/>
  <circle id="rim2" cx="0" cy="0" r="3.5"/>
  <g id="zoomPlus">
    <use xlink:href="#rim" fill="#404040"><set attributeName="fill" to="#808080" begin="zoomplus.mouseover" end="zoomplus.mouseout"/></use>
    <path d="M-4,0h8M0,-4v8" fill="none" stroke="white" stroke-width="1.5" pointer-events="none"/>
  </g>
  <g id="zoomMin">
    <use xlink:href="#rim" fill="#404040"><set attributeName="fill" to="#808080" begin="zoomminus.mouseover" end="zoomminus.mouseout"/></use>
    <path d="M-4,0h8" fill="none" stroke="white" stroke-width="1.5" pointer-events="none"/>
  </g>
  <g id="arrowUp" transform="translate(30 24)">
    <use xlink:href="#rim"/>
    <path pointer-events="none" fill="none" stroke="white" stroke-width="1.5" d="M0,-3.0v7 M-2.5,-0.5L0,-3.0L2.5,-0.5"/>
  </g>
  <g id="arrowRight" transform="rotate(90) translate(36 -43)">
    <use xlink:href="#rim"/>
    <path pointer-events="none" fill="none" stroke="white" stroke-width="1.5" d="M0,-3.0v7 M-2.5,-0.5L0,-3.0L2.5,-0.5"/>
  </g>
  <g id="arrowDown" transform="rotate(180) translate(-30 -48)">
    <use xlink:href="#rim"/>
    <path pointer-events="none" fill="none" stroke="white" stroke-width="1.5" d="M0,-3.0v7 M-2.5,-0.5L0,-3.0L2.5,-0.5"/>
  </g>
  <g id="arrowLeft" transform="rotate(270) translate(-36 17)">
    <use xlink:href="#rim"/>
    <path pointer-events="none" fill="none" stroke="white" stroke-width="1.5" d="M0,-3.0v7 M-2.5,-0.5L0,-3.0L2.5,-0.5"/>
  </g>
  <g id="resetDef">
    <use xlink:href="#rim2" fill="#404040"><set attributeName="fill" to="#808080" begin="reset.mouseover" end="reset.mouseout"/></use>
  </g>
</defs>
<script type="application/ecmascript">
var viewWidth = 764;
var viewHeight = 430;
var sectionId = 'dynsection-7';
</script>
<script type="application/ecmascript" xlink:href="svg.min.js"/>
<svg id="graph" class="graph">
<g id="viewport">
<title>controladors.CtrlDomini.actualitzarRanking</title>
<!-- Node1 -->
<g id="Node000001" class="node">
<title>Node1</title>
<g id="a_Node000001"><a xlink:title="Actualitza el rànquing després d&#39;una partida.">
<polygon fill="#999999" stroke="#666666" points="166.75,-246 0,-246 0,-214 166.75,-214 166.75,-246"/>
<text text-anchor="start" x="8" y="-232.5" font-family="Helvetica,sans-Serif" font-size="10.00">controladors.CtrlDomini.actualitzar</text>
<text text-anchor="middle" x="83.38" y="-220.5" font-family="Helvetica,sans-Serif" font-size="10.00">Ranking</text>
</a>
</g>
</g>
<!-- Node2 -->
<g id="Node000002" class="node">
<title>Node2</title>
<g id="a_Node000002"><a xlink:href="classcontroladors_1_1_ctrl_domini.html#a9b8102ac23ea03ea525c42517a8dbbbc" target="_top" xlink:title="Actualitza les dades globals dels jugadors després d&#39;una partida.">
<polygon fill="white" stroke="#666666" points="369.5,-356 202.75,-356 202.75,-324 369.5,-324 369.5,-356"/>
<text text-anchor="start" x="210.75" y="-342.5" font-family="Helvetica,sans-Serif" font-size="10.00">controladors.CtrlDomini.actualitzar</text>
<text text-anchor="middle" x="286.12" y="-330.5" font-family="Helvetica,sans-Serif" font-size="10.00">DadesGlobals</text>
</a>
</g>
</g>
<!-- Node1&#45;&gt;Node2 -->
<g id="edge1_Node000001_Node000002" class="edge">
<title>Node1&#45;&gt;Node2</title>
<g id="a_edge1_Node000001_Node000002"><a xlink:title=" ">
<path fill="none" stroke="#63b8ff" d="M114.43,-246.47C149.27,-265.56 206.83,-297.1 245.35,-318.21"/>
<polygon fill="#63b8ff" stroke="#63b8ff" points="243.41,-321.14 253.87,-322.87 246.78,-315 243.41,-321.14"/>
</a>
</g>
</g>
<!-- Node4 -->
<g id="Node000004" class="node">
<title>Node4</title>
<g id="a_Node000004"><a xlink:href="classdomini_1_1jugadors_1_1_jugador.html#afa999de0f50bb1671ac42dbe31388b01" target="_top" xlink:title="Retorna l&#39;identificador del jugador.">
<polygon fill="white" stroke="#666666" points="755.5,-271 617.25,-271 617.25,-239 755.5,-239 755.5,-271"/>
<text text-anchor="start" x="625.25" y="-257.5" font-family="Helvetica,sans-Serif" font-size="10.00">domini.jugadors.Jugador.get</text>
<text text-anchor="middle" x="686.38" y="-245.5" font-family="Helvetica,sans-Serif" font-size="10.00">IdJugador</text>
</a>
</g>
</g>
<!-- Node1&#45;&gt;Node4 -->
<g id="edge8_Node000001_Node000004" class="edge">
<title>Node1&#45;&gt;Node4</title>
<g id="a_edge8_Node000001_Node000004"><a xlink:title=" ">
<path fill="none" stroke="#63b8ff" d="M150.99,-246.48C167.78,-249.97 185.84,-253.15 202.75,-255 343.82,-270.44 509.47,-265.45 605.43,-260.3"/>
<polygon fill="#63b8ff" stroke="#63b8ff" points="605.48,-263.81 615.27,-259.76 605.1,-256.82 605.48,-263.81"/>
</a>
</g>
</g>
<!-- Node6 -->
<g id="Node000006" class="node">
<title>Node6</title>
<g id="a_Node000006"><a xlink:href="classcontroladors_1_1_ctrl_domini.html#aac72588aa6810f2eb705116646a3a40b" target="_top" xlink:title="Comprova si la partida és contra la màquina.">
<polygon fill="white" stroke="#666666" points="352.25,-246 220,-246 220,-214 352.25,-214 352.25,-246"/>
<text text-anchor="start" x="228" y="-232.5" font-family="Helvetica,sans-Serif" font-size="10.00">controladors.CtrlDomini.es</text>
<text text-anchor="middle" x="286.12" y="-220.5" font-family="Helvetica,sans-Serif" font-size="10.00">PartidaContraMaquina</text>
</a>
</g>
</g>
<!-- Node1&#45;&gt;Node6 -->
<g id="edge6_Node000001_Node000006" class="edge">
<title>Node1&#45;&gt;Node6</title>
<g id="a_edge6_Node000001_Node000006"><a xlink:title=" ">
<path fill="none" stroke="#63b8ff" d="M167.19,-230C180.86,-230 194.97,-230 208.48,-230"/>
<polygon fill="#63b8ff" stroke="#63b8ff" points="208.15,-233.5 218.15,-230 208.15,-226.5 208.15,-233.5"/>
</a>
</g>
</g>
<!-- Node7 -->
<g id="Node000007" class="node">
<title>Node7</title>
<g id="a_Node000007"><a xlink:href="classcontroladors_1_1_ctrl_domini.html#aa3baef8745a51c1b1f73035104f72446" target="_top" xlink:title="Comprova que els jugadors registrats siguin valids.">
<polygon fill="white" stroke="#666666" points="365.38,-196 206.88,-196 206.88,-164 365.38,-164 365.38,-196"/>
<text text-anchor="start" x="214.88" y="-182.5" font-family="Helvetica,sans-Serif" font-size="10.00">controladors.CtrlDomini.jugadors</text>
<text text-anchor="middle" x="286.12" y="-170.5" font-family="Helvetica,sans-Serif" font-size="10.00">RegistratsValids</text>
</a>
</g>
</g>
<!-- Node1&#45;&gt;Node7 -->
<g id="edge9_Node000001_Node000007" class="edge">
<title>Node1&#45;&gt;Node7</title>
<g id="a_edge9_Node000001_Node000007"><a xlink:title=" ">
<path fill="none" stroke="#63b8ff" d="M150.39,-213.56C168.82,-208.97 189.02,-203.94 208.04,-199.2"/>
<polygon fill="#63b8ff" stroke="#63b8ff" points="208.75,-202.63 217.61,-196.82 207.06,-195.84 208.75,-202.63"/>
</a>
</g>
</g>
<!-- Node8 -->
<g id="Node000008" class="node">
<title>Node8</title>
<g id="a_Node000008"><a xlink:href="classcontroladors_1_1_ctrl_domini.html#a635aeffb46f12e2188110476c797a038" target="_top" xlink:title="Processa els resultats d&#39;una partida contra la màquina.">
<polygon fill="white" stroke="#666666" points="368.38,-132 203.88,-132 203.88,-100 368.38,-100 368.38,-132"/>
<text text-anchor="start" x="211.88" y="-118.5" font-family="Helvetica,sans-Serif" font-size="10.00">controladors.CtrlDomini.processar</text>
<text text-anchor="middle" x="286.12" y="-106.5" font-family="Helvetica,sans-Serif" font-size="10.00">PartidaMaquina</text>
</a>
</g>
</g>
<!-- Node1&#45;&gt;Node8 -->
<g id="edge11_Node000001_Node000008" class="edge">
<title>Node1&#45;&gt;Node8</title>
<g id="a_edge11_Node000001_Node000008"><a xlink:title=" ">
<path fill="none" stroke="#63b8ff" d="M108.33,-213.6C131.88,-197.77 169.08,-173.55 202.75,-155 213.89,-148.86 226.16,-142.73 237.75,-137.21"/>
<polygon fill="#63b8ff" stroke="#63b8ff" points="239.21,-140.39 246.77,-132.98 236.24,-134.06 239.21,-140.39"/>
</a>
</g>
</g>
<!-- Node3 -->
<g id="Node000003" class="node">
<title>Node3</title>
<g id="a_Node000003"><a xlink:href="classcontroladors_1_1_ctrl_domini.html#a96336985c6a802beb79a7a9a9f82b3d4" target="_top" xlink:title="Actualitza les dades globals d&#39;un jugador.">
<polygon fill="white" stroke="#666666" points="576.75,-422 410,-422 410,-390 576.75,-390 576.75,-422"/>
<text text-anchor="start" x="418" y="-408.5" font-family="Helvetica,sans-Serif" font-size="10.00">controladors.CtrlDomini.actualitzar</text>
<text text-anchor="middle" x="493.38" y="-396.5" font-family="Helvetica,sans-Serif" font-size="10.00">JugadorGlobal</text>
</a>
</g>
</g>
<!-- Node2&#45;&gt;Node3 -->
<g id="edge2_Node000002_Node000003" class="edge">
<title>Node2&#45;&gt;Node3</title>
<g id="a_edge2_Node000002_Node000003"><a xlink:title=" ">
<path fill="none" stroke="#63b8ff" d="M338.39,-356.48C366.41,-365.5 401.32,-376.72 430.81,-386.2"/>
<polygon fill="#63b8ff" stroke="#63b8ff" points="429.38,-389.42 439.97,-389.15 431.52,-382.75 429.38,-389.42"/>
</a>
</g>
</g>
<!-- Node2&#45;&gt;Node4 -->
<g id="edge4_Node000002_Node000004" class="edge">
<title>Node2&#45;&gt;Node4</title>
<g id="a_edge4_Node000002_Node000004"><a xlink:title=" ">
<path fill="none" stroke="#63b8ff" d="M369.96,-356.12C430.4,-364.29 513.27,-367.88 581.25,-343 615.48,-330.47 646.21,-301.17 665.26,-279.81"/>
<polygon fill="#63b8ff" stroke="#63b8ff" points="667.81,-282.22 671.7,-272.36 662.51,-277.64 667.81,-282.22"/>
</a>
</g>
</g>
<!-- Node5 -->
<g id="Node000005" class="node">
<title>Node5</title>
<g id="a_Node000005"><a xlink:href="classdomini_1_1jugadors_1_1_jugador.html#ac035aeae1fdd82b932fe2c717ae9b3d5" target="_top" xlink:title="Afegeix punts a la puntuació actual del jugador.">
<polygon fill="white" stroke="#666666" points="581.25,-334 405.5,-334 405.5,-302 581.25,-302 581.25,-334"/>
<text text-anchor="start" x="413.5" y="-320.5" font-family="Helvetica,sans-Serif" font-size="10.00">domini.jugadors.Jugador.incrementar</text>
<text text-anchor="middle" x="493.38" y="-308.5" font-family="Helvetica,sans-Serif" font-size="10.00">_puntuacio_actual</text>
</a>
</g>
</g>
<!-- Node2&#45;&gt;Node5 -->
<g id="edge5_Node000002_Node000005" class="edge">
<title>Node2&#45;&gt;Node5</title>
<g id="a_edge5_Node000002_Node000005"><a xlink:title=" ">
<path fill="none" stroke="#63b8ff" d="M369.72,-331.15C377.67,-330.29 385.79,-329.42 393.87,-328.56"/>
<polygon fill="#63b8ff" stroke="#63b8ff" points="394.18,-332.05 403.75,-327.5 393.43,-325.09 394.18,-332.05"/>
</a>
</g>
</g>
<!-- Node3&#45;&gt;Node4 -->
<g id="edge3_Node000003_Node000004" class="edge">
<title>Node3&#45;&gt;Node4</title>
<g id="a_edge3_Node000003_Node000004"><a xlink:title=" ">
<path fill="none" stroke="#63b8ff" d="M555.24,-389.63C564.35,-385.88 573.33,-381.38 581.25,-376 618.87,-350.47 651.03,-307.97 669.28,-280.74"/>
<polygon fill="#63b8ff" stroke="#63b8ff" points="672.2,-282.67 674.75,-272.38 666.35,-278.83 672.2,-282.67"/>
</a>
</g>
</g>
<!-- Node6&#45;&gt;Node4 -->
<g id="edge7_Node000006_Node000004" class="edge">
<title>Node6&#45;&gt;Node4</title>
<g id="a_edge7_Node000006_Node000004"><a xlink:title=" ">
<path fill="none" stroke="#63b8ff" d="M352.44,-234.1C421.81,-238.45 531.51,-245.34 605.86,-250.01"/>
<polygon fill="#63b8ff" stroke="#63b8ff" points="605.31,-253.48 615.51,-250.61 605.75,-246.49 605.31,-253.48"/>
</a>
</g>
</g>
<!-- Node7&#45;&gt;Node4 -->
<g id="edge10_Node000007_Node000004" class="edge">
<title>Node7&#45;&gt;Node4</title>
<g id="a_edge10_Node000007_Node000004"><a xlink:title=" ">
<path fill="none" stroke="#63b8ff" d="M365.84,-194.07C425.12,-204.75 508.35,-219.96 581.25,-234 589.16,-235.52 597.39,-237.14 605.62,-238.77"/>
<polygon fill="#63b8ff" stroke="#63b8ff" points="604.82,-242.18 615.31,-240.7 606.19,-235.31 604.82,-242.18"/>
</a>
</g>
</g>
<!-- Node8&#45;&gt;Node4 -->
<g id="edge12_Node000008_Node000004" class="edge">
<title>Node8&#45;&gt;Node4</title>
<g id="a_edge12_Node000008_Node000004"><a xlink:title=" ">
<path fill="none" stroke="#63b8ff" d="M366.54,-132.43C426.72,-146.17 510.79,-168.16 581.25,-197 605.22,-206.81 630.65,-220.9 650.37,-232.73"/>
<polygon fill="#63b8ff" stroke="#63b8ff" points="648.48,-235.67 658.84,-237.89 652.12,-229.69 648.48,-235.67"/>
</a>
</g>
</g>
<!-- Node9 -->
<g id="Node000009" class="node">
<title>Node9</title>
<g id="a_Node000009"><a xlink:href="classdomini_1_1jugadors_1_1_jugador.html#af5b78b5a60aa1845f6665113225281da" target="_top" xlink:title="Retorna la puntuació actual del jugador.">
<polygon fill="white" stroke="#666666" points="562.5,-132 424.25,-132 424.25,-100 562.5,-100 562.5,-132"/>
<text text-anchor="start" x="432.25" y="-118.5" font-family="Helvetica,sans-Serif" font-size="10.00">domini.jugadors.Jugador.get</text>
<text text-anchor="middle" x="493.38" y="-106.5" font-family="Helvetica,sans-Serif" font-size="10.00">Puntuacio_actual</text>
</a>
</g>
</g>
<!-- Node8&#45;&gt;Node9 -->
<g id="edge13_Node000008_Node000009" class="edge">
<title>Node8&#45;&gt;Node9</title>
<g id="a_edge13_Node000008_Node000009"><a xlink:title=" ">
<path fill="none" stroke="#63b8ff" d="M368.83,-116C383.21,-116 398.16,-116 412.49,-116"/>
<polygon fill="#63b8ff" stroke="#63b8ff" points="412.31,-119.5 422.31,-116 412.31,-112.5 412.31,-119.5"/>
</a>
</g>
</g>
<!-- Node10 -->
<g id="Node000010" class="node">
<title>Node10</title>
<g id="a_Node000010"><a xlink:href="classdomini_1_1jugadors_1_1_avatar.html#aae510bc2635d40405e60a218b1b7c097" target="_top" xlink:title="Incrementa el nombre de partides guanyades contra la màquina.">
<polygon fill="white" stroke="#666666" points="578.25,-82 408.5,-82 408.5,-50 578.25,-50 578.25,-82"/>
<text text-anchor="start" x="416.5" y="-68.5" font-family="Helvetica,sans-Serif" font-size="10.00">domini.jugadors.Avatar.incrementar</text>
<text text-anchor="middle" x="493.38" y="-56.5" font-family="Helvetica,sans-Serif" font-size="10.00">PartidesGuanyadesMaquina</text>
</a>
</g>
</g>
<!-- Node8&#45;&gt;Node10 -->
<g id="edge14_Node000008_Node000010" class="edge">
<title>Node8&#45;&gt;Node10</title>
<g id="a_edge14_Node000008_Node000010"><a xlink:title=" ">
<path fill="none" stroke="#63b8ff" d="M354.62,-99.56C373.55,-94.95 394.31,-89.89 413.83,-85.13"/>
<polygon fill="#63b8ff" stroke="#63b8ff" points="414.49,-88.58 423.37,-82.81 412.83,-81.78 414.49,-88.58"/>
</a>
</g>
</g>
<!-- Node11 -->
<g id="Node000011" class="node">
<title>Node11</title>
<g id="a_Node000011"><a xlink:href="classdomini_1_1jugadors_1_1_avatar.html#a11001791e000608d3ae4e7698bfd3b72" target="_top" xlink:title="Incrementa el nombre de partides jugades contra la màquina.">
<polygon fill="white" stroke="#666666" points="578.25,-32 408.5,-32 408.5,0 578.25,0 578.25,-32"/>
<text text-anchor="start" x="416.5" y="-18.5" font-family="Helvetica,sans-Serif" font-size="10.00">domini.jugadors.Avatar.incrementar</text>
<text text-anchor="middle" x="493.38" y="-6.5" font-family="Helvetica,sans-Serif" font-size="10.00">PartidesJugadesMaquina</text>
</a>
</g>
</g>
<!-- Node8&#45;&gt;Node11 -->
<g id="edge15_Node000008_Node000011" class="edge">
<title>Node8&#45;&gt;Node11</title>
<g id="a_edge15_Node000008_Node000011"><a xlink:title=" ">
<path fill="none" stroke="#63b8ff" d="M308.74,-99.63C331.7,-82.9 369.55,-57.16 405.5,-41 409.23,-39.32 413.09,-37.73 417.03,-36.22"/>
<polygon fill="#63b8ff" stroke="#63b8ff" points="417.94,-39.61 426.16,-32.93 415.57,-33.03 417.94,-39.61"/>
</a>
</g>
</g>
</g>
</svg>

<g id="navigator" transform="translate(0 0)" fill="#404254">
  <rect fill="#f2f5e9" fill-opacity="0.5" stroke="#606060" stroke-width=".5" x="0" y="0" width="60" height="60"/>
  <use id="zoomplus" xlink:href="#zoomPlus" x="17" y="9" onmousedown="handleZoom(evt,'in')"/>
  <use id="zoomminus" xlink:href="#zoomMin" x="42" y="9" onmousedown="handleZoom(evt,'out')"/>
  <use id="reset" xlink:href="#resetDef" x="30" y="36" onmousedown="handleReset()"/>
   <use id="arrowup" xlink:href="#arrowUp" x="0" y="0" onmousedown="handlePan(0,-1)"/>
  <use id="arrowright" xlink:href="#arrowRight" x="0" y="0" onmousedown="handlePan(1,0)"/>
  <use id="arrowdown" xlink:href="#arrowDown" x="0" y="0" onmousedown="handlePan(0,1)"/>
  <use id="arrowleft" xlink:href="#arrowLeft" x="0" y="0" onmousedown="handlePan(-1,0)"/>
</g>
<svg viewBox="0 0 15 15" width="100%" height="30px" preserveAspectRatio="xMaxYMin meet">
 <g id="arrow_out" transform="scale(0.3 0.3)">
  <a xlink:href="classcontroladors_1_1_ctrl_domini_af2774b364abee1ac4832823ff1b0d556_cgraph_org.svg" target="_base">
   <rect id="button" ry="5" rx="5" y="6" x="6" height="38" width="38"
        fill="#f2f5e9" fill-opacity="0.5" stroke="#606060" stroke-width="1.0"/>
   <path id="arrow"
     d="M 11.500037,31.436501 C 11.940474,20.09759 22.043105,11.32322 32.158766,21.979434 L 37.068811,17.246167 C 37.068811,17.246167 37.088388,32 37.088388,32 L 22.160133,31.978069 C 22.160133,31.978069 26.997745,27.140456 26.997745,27.140456 C 18.528582,18.264221 13.291696,25.230495 11.500037,31.436501 z"
     style="fill:#404040;"/>
  </a>
 </g>
</svg>

<style type='text/css'>
<![CDATA[
[data-mouse-over-selected='false'] { opacity: 0.7; }
[data-mouse-over-selected='true']  { opacity: 1.0; }
]]>
</style>
<script type="application/ecmascript"><![CDATA[
document.addEventListener('DOMContentLoaded', (event) => {
  highlightEdges();
  highlightAdjacentNodes();
});
]]></script>
</svg>
