<?xml version="1.0" encoding="UTF-8" standalone="no"?>
<!DOCTYPE svg PUBLIC "-//W3C//DTD SVG 1.1//EN"
 "http://www.w3.org/Graphics/SVG/1.1/DTD/svg11.dtd">
<!-- Generated by graphviz version 12.2.1 (20241206.2353)
 -->
<!-- Title: domini.scrabble.Casella.getFitxa Pages: 1 -->
<svg width="1331pt" height="610pt"
 viewBox="0.00 0.00 1330.50 610.05" xmlns="http://www.w3.org/2000/svg" xmlns:xlink="http://www.w3.org/1999/xlink">
<g id="graph0" class="graph" transform="scale(1 1) rotate(0) translate(4 606.05)">
<title>domini.scrabble.Casella.getFitxa</title>
<!-- Node1 -->
<g id="Node000001" class="node">
<title>Node1</title>
<g id="a_Node000001"><a xlink:title="Retorna la fitxa de la casella.">
<polygon fill="#999999" stroke="#666666" points="1322.5,-447.38 1185.75,-447.38 1185.75,-415.38 1322.5,-415.38 1322.5,-447.38"/>
<text text-anchor="start" x="1193.75" y="-433.88" font-family="Helvetica,sans-Serif" font-size="10.00">domini.scrabble.Casella.get</text>
<text text-anchor="middle" x="1254.12" y="-421.88" font-family="Helvetica,sans-Serif" font-size="10.00">Fitxa</text>
</a>
</g>
</g>
<!-- Node2 -->
<g id="Node000002" class="node">
<title>Node2</title>
<g id="a_Node000002"><a xlink:href="classcontroladors_1_1_ctrl_partida.html#ad0f7d5edb502bc4956cfd54612209ea7" target="_top" xlink:title="Col·loca una paraula al taulell.">
<polygon fill="white" stroke="#666666" points="731.88,-573.38 578.62,-573.38 578.62,-541.38 731.88,-541.38 731.88,-573.38"/>
<text text-anchor="start" x="586.62" y="-559.88" font-family="Helvetica,sans-Serif" font-size="10.00">controladors.CtrlPartida.colocar</text>
<text text-anchor="middle" x="655.25" y="-547.88" font-family="Helvetica,sans-Serif" font-size="10.00">Paraula</text>
</a>
</g>
</g>
<!-- Node1&#45;&gt;Node2 -->
<g id="edge1_Node000001_Node000002" class="edge">
<title>Node1&#45;&gt;Node2</title>
<g id="a_edge1_Node000001_Node000002"><a xlink:title=" ">
<path fill="none" stroke="#63b8ff" d="M1241.1,-457.65C1225.2,-488.8 1193.95,-539.15 1149.75,-560.38 1007.05,-628.89 813.29,-596.95 716.49,-573.87"/>
<polygon fill="#63b8ff" stroke="#63b8ff" points="1244.14,-459.39 1245.41,-448.87 1237.86,-456.31 1244.14,-459.39"/>
</a>
</g>
</g>
<!-- Node3 -->
<g id="Node000003" class="node">
<title>Node3</title>
<g id="a_Node000003"><a xlink:href="classcontroladors_1_1_ctrl_partida.html#a11dd5c5c7252681872e3ba7baf8213a8" target="_top" xlink:title="Comprova si una paraula és vàlida.">
<polygon fill="white" stroke="#666666" points="946.25,-551.38 781.75,-551.38 781.75,-519.38 946.25,-519.38 946.25,-551.38"/>
<text text-anchor="start" x="789.75" y="-537.88" font-family="Helvetica,sans-Serif" font-size="10.00">controladors.CtrlPartida.comprova</text>
<text text-anchor="middle" x="864" y="-525.88" font-family="Helvetica,sans-Serif" font-size="10.00">_paraula</text>
</a>
</g>
</g>
<!-- Node1&#45;&gt;Node3 -->
<g id="edge2_Node000001_Node000003" class="edge">
<title>Node1&#45;&gt;Node3</title>
<g id="a_edge2_Node000001_Node000003"><a xlink:title=" ">
<path fill="none" stroke="#63b8ff" d="M1198.38,-451.59C1182.77,-457.04 1165.68,-462.71 1149.75,-467.38 1080.61,-487.62 1000.73,-506.29 943.21,-518.93"/>
<polygon fill="#63b8ff" stroke="#63b8ff" points="1199.23,-455.01 1207.49,-448.37 1196.9,-448.41 1199.23,-455.01"/>
</a>
</g>
</g>
<!-- Node4 -->
<g id="Node000004" class="node">
<title>Node4</title>
<g id="a_Node000004"><a xlink:href="classcontroladors_1_1_ctrl_partida.html#a55c08c7767d17dd7d8b4ae00d33b1fe7" target="_top" xlink:title="Comprova si una lletra és vàlida per a una casella que formi paraula transversal vertical.">
<polygon fill="white" stroke="#666666" points="1149.75,-551.38 982.25,-551.38 982.25,-519.38 1149.75,-519.38 1149.75,-551.38"/>
<text text-anchor="start" x="990.25" y="-537.88" font-family="Helvetica,sans-Serif" font-size="10.00">controladors.CtrlPartida.comprovar</text>
<text text-anchor="middle" x="1066" y="-525.88" font-family="Helvetica,sans-Serif" font-size="10.00">_noves_paraules</text>
</a>
</g>
</g>
<!-- Node1&#45;&gt;Node4 -->
<g id="edge4_Node000001_Node000004" class="edge">
<title>Node1&#45;&gt;Node4</title>
<g id="a_edge4_Node000001_Node000004"><a xlink:title=" ">
<path fill="none" stroke="#63b8ff" d="M1224.72,-454.96C1204.69,-470.76 1176.73,-491.18 1149.75,-505.38 1140.15,-510.43 1129.51,-514.99 1119.14,-518.94"/>
<polygon fill="#63b8ff" stroke="#63b8ff" points="1226.8,-457.78 1232.42,-448.8 1222.42,-452.32 1226.8,-457.78"/>
</a>
</g>
</g>
<!-- Node5 -->
<g id="Node000005" class="node">
<title>Node5</title>
<g id="a_Node000005"><a xlink:href="classdomini_1_1jugadors_1_1_maquina.html#a28fa4d863085aaaba920b95a47bf14b7" target="_top" xlink:title="Genera totes les paraules possibles a la dreta d&#39;una subparaula prefix.">
<polygon fill="white" stroke="#666666" points="942.12,-407.38 785.88,-407.38 785.88,-375.38 942.12,-375.38 942.12,-407.38"/>
<text text-anchor="start" x="793.88" y="-393.88" font-family="Helvetica,sans-Serif" font-size="10.00">domini.jugadors.Maquina.extend</text>
<text text-anchor="middle" x="864" y="-381.88" font-family="Helvetica,sans-Serif" font-size="10.00">Right</text>
</a>
</g>
</g>
<!-- Node1&#45;&gt;Node5 -->
<g id="edge6_Node000001_Node000005" class="edge">
<title>Node1&#45;&gt;Node5</title>
<g id="a_edge6_Node000001_Node000005"><a xlink:title=" ">
<path fill="none" stroke="#63b8ff" d="M1232.36,-406.69C1213.31,-386.11 1183.05,-358.31 1149.75,-346.38 1079.67,-321.26 1055.25,-331.78 982.25,-346.38 965.25,-349.78 962.38,-355.04 946.25,-361.38 934.77,-365.88 922.31,-370.58 910.68,-374.89"/>
<polygon fill="#63b8ff" stroke="#63b8ff" points="1229.52,-408.77 1238.8,-413.87 1234.73,-404.09 1229.52,-408.77"/>
</a>
</g>
</g>
<!-- Node6 -->
<g id="Node000006" class="node">
<title>Node6</title>
<g id="a_Node000006"><a xlink:href="classdomini_1_1jugadors_1_1_maquina.html#a408520f7aa4d96099ecfa1bae76728b5" target="_top" xlink:title="Genera totes les subparaules prefix possibles cap a l&#39;esquerra d&#39;una casella anchor.">
<polygon fill="white" stroke="#666666" points="745.75,-432.38 564.75,-432.38 564.75,-412.38 745.75,-412.38 745.75,-432.38"/>
<text text-anchor="middle" x="655.25" y="-418.88" font-family="Helvetica,sans-Serif" font-size="10.00">domini.jugadors.Maquina.generateLeft</text>
</a>
</g>
</g>
<!-- Node1&#45;&gt;Node6 -->
<g id="edge12_Node000001_Node000006" class="edge">
<title>Node1&#45;&gt;Node6</title>
<g id="a_edge12_Node000001_Node000006"><a xlink:title=" ">
<path fill="none" stroke="#63b8ff" d="M1174.19,-434.48C1080.53,-437.56 919.66,-440.96 781.75,-434.38 770.16,-433.82 757.99,-432.99 745.98,-432"/>
<polygon fill="#63b8ff" stroke="#63b8ff" points="1174.17,-437.98 1184.04,-434.15 1173.93,-430.99 1174.17,-437.98"/>
</a>
</g>
</g>
<!-- Node9 -->
<g id="Node000009" class="node">
<title>Node9</title>
<g id="a_Node000009"><a xlink:href="classdomini_1_1scrabble_1_1_taulell.html#ac2c62e3051ec0a2452f74c4a39c15598" target="_top" xlink:title="Mètode per imprimir el taulell per pantalla.">
<polygon fill="white" stroke="#666666" points="1134.38,-375.38 997.62,-375.38 997.62,-355.38 1134.38,-355.38 1134.38,-375.38"/>
<text text-anchor="middle" x="1066" y="-361.88" font-family="Helvetica,sans-Serif" font-size="10.00">domini.scrabble.Taulell.print</text>
</a>
</g>
</g>
<!-- Node1&#45;&gt;Node9 -->
<g id="edge13_Node000001_Node000009" class="edge">
<title>Node1&#45;&gt;Node9</title>
<g id="a_edge13_Node000001_Node000009"><a xlink:title=" ">
<path fill="none" stroke="#63b8ff" d="M1211.5,-410.14C1192.95,-401.28 1170.61,-391.43 1149.75,-384.38 1140.26,-381.17 1129.97,-378.32 1119.97,-375.87"/>
<polygon fill="#63b8ff" stroke="#63b8ff" points="1209.78,-413.19 1220.3,-414.41 1212.84,-406.9 1209.78,-413.19"/>
</a>
</g>
</g>
<!-- Node10 -->
<g id="Node000010" class="node">
<title>Node10</title>
<g id="a_Node000010"><a xlink:href="classinterficie_1_1_vista_partida.html#a9f0d9c59b7bc013b948846f280acba77" target="_top" xlink:title="Actualitza la visualització del taulell de joc.">
<polygon fill="white" stroke="#666666" points="1141.12,-268.38 990.88,-268.38 990.88,-236.38 1141.12,-236.38 1141.12,-268.38"/>
<text text-anchor="start" x="998.88" y="-254.88" font-family="Helvetica,sans-Serif" font-size="10.00">interficie.VistaPartida.refrescar</text>
<text text-anchor="middle" x="1066" y="-242.88" font-family="Helvetica,sans-Serif" font-size="10.00">Taulell</text>
</a>
</g>
</g>
<!-- Node1&#45;&gt;Node10 -->
<g id="edge14_Node000001_Node000010" class="edge">
<title>Node1&#45;&gt;Node10</title>
<g id="a_edge14_Node000001_Node000010"><a xlink:title=" ">
<path fill="none" stroke="#63b8ff" d="M1233.81,-406.3C1214.04,-381.4 1181.75,-342.79 1149.75,-313.38 1131.62,-296.71 1108.99,-280.29 1091.98,-268.69"/>
<polygon fill="#63b8ff" stroke="#63b8ff" points="1230.88,-408.24 1239.81,-413.93 1236.38,-403.91 1230.88,-408.24"/>
</a>
</g>
</g>
<!-- Node19 -->
<g id="Node000019" class="node">
<title>Node19</title>
<g id="a_Node000019"><a xlink:href="classdomini_1_1jugadors_1_1_maquina.html#a57c533590571f4918ebd03a0b0d4819b" target="_top" xlink:title="Comprova si una lletra és vàlida per a una casella que formi paraula transversal vertical.">
<polygon fill="white" stroke="#666666" points="1139.62,-425.38 992.38,-425.38 992.38,-393.38 1139.62,-393.38 1139.62,-425.38"/>
<text text-anchor="start" x="1000.38" y="-411.88" font-family="Helvetica,sans-Serif" font-size="10.00">domini.jugadors.Maquina.valid</text>
<text text-anchor="middle" x="1066" y="-399.88" font-family="Helvetica,sans-Serif" font-size="10.00">_traversals</text>
</a>
</g>
</g>
<!-- Node1&#45;&gt;Node19 -->
<g id="edge35_Node000001_Node000019" class="edge">
<title>Node1&#45;&gt;Node19</title>
<g id="a_edge35_Node000001_Node000019"><a xlink:title=" ">
<path fill="none" stroke="#63b8ff" d="M1174.19,-422.05C1162.85,-420.71 1151.22,-419.33 1140.01,-418.01"/>
<polygon fill="#63b8ff" stroke="#63b8ff" points="1173.56,-425.5 1183.9,-423.19 1174.38,-418.54 1173.56,-425.5"/>
</a>
</g>
</g>
<!-- Node3&#45;&gt;Node2 -->
<g id="edge3_Node000003_Node000002" class="edge">
<title>Node3&#45;&gt;Node2</title>
<g id="a_edge3_Node000003_Node000002"><a xlink:title=" ">
<path fill="none" stroke="#63b8ff" d="M770.22,-545.25C757.55,-546.6 744.66,-547.97 732.32,-549.28"/>
<polygon fill="#63b8ff" stroke="#63b8ff" points="770.21,-548.77 779.78,-544.23 769.47,-541.81 770.21,-548.77"/>
</a>
</g>
</g>
<!-- Node4&#45;&gt;Node3 -->
<g id="edge5_Node000004_Node000003" class="edge">
<title>Node4&#45;&gt;Node3</title>
<g id="a_edge5_Node000004_Node000003"><a xlink:title=" ">
<path fill="none" stroke="#63b8ff" d="M970.6,-535.38C962.56,-535.38 954.47,-535.38 946.54,-535.38"/>
<polygon fill="#63b8ff" stroke="#63b8ff" points="970.41,-538.88 980.41,-535.38 970.41,-531.88 970.41,-538.88"/>
</a>
</g>
</g>
<!-- Node5&#45;&gt;Node5 -->
<g id="edge7_Node000005_Node000005" class="edge">
<title>Node5&#45;&gt;Node5</title>
<g id="a_edge7_Node000005_Node000005"><a xlink:title=" ">
<path fill="none" stroke="#63b8ff" d="M898.13,-418.76C892.69,-422.71 881.31,-425.38 864,-425.38 833.23,-425.38 821.21,-416.96 827.94,-407.82"/>
<polygon fill="#63b8ff" stroke="#63b8ff" points="901.51,-419.77 899.8,-409.31 894.61,-418.55 901.51,-419.77"/>
</a>
</g>
</g>
<!-- Node5&#45;&gt;Node6 -->
<g id="edge8_Node000005_Node000006" class="edge">
<title>Node5&#45;&gt;Node6</title>
<g id="a_edge8_Node000005_Node000006"><a xlink:title=" ">
<path fill="none" stroke="#63b8ff" d="M774.35,-404.67C758.21,-407.09 741.59,-409.58 726.09,-411.91"/>
<polygon fill="#63b8ff" stroke="#63b8ff" points="774.56,-408.18 783.93,-403.23 773.52,-401.25 774.56,-408.18"/>
</a>
</g>
</g>
<!-- Node6&#45;&gt;Node6 -->
<g id="edge9_Node000006_Node000006" class="edge">
<title>Node6&#45;&gt;Node6</title>
<g id="a_edge9_Node000006_Node000006"><a xlink:title=" ">
<path fill="none" stroke="#63b8ff" d="M691.8,-443.49C687.44,-447.52 675.26,-450.38 655.25,-450.38 619.68,-450.38 608.84,-441.35 622.74,-432.72"/>
<polygon fill="#63b8ff" stroke="#63b8ff" points="695.08,-442.27 688.29,-434.13 688.52,-444.73 695.08,-442.27"/>
</a>
</g>
</g>
<!-- Node7 -->
<g id="Node000007" class="node">
<title>Node7</title>
<g id="a_Node000007"><a xlink:href="classdomini_1_1jugadors_1_1_maquina.html#afe864f5cb4ab5895e149c5aad0235400" target="_top" xlink:title="Busca la millor paraula en una direcció específica (horitzontal o vertical).">
<polygon fill="white" stroke="#666666" points="528.75,-438.38 372.5,-438.38 372.5,-406.38 528.75,-406.38 528.75,-438.38"/>
<text text-anchor="start" x="380.5" y="-424.88" font-family="Helvetica,sans-Serif" font-size="10.00">domini.jugadors.Maquina.search</text>
<text text-anchor="middle" x="450.62" y="-412.88" font-family="Helvetica,sans-Serif" font-size="10.00">BestWord</text>
</a>
</g>
</g>
<!-- Node6&#45;&gt;Node7 -->
<g id="edge10_Node000006_Node000007" class="edge">
<title>Node6&#45;&gt;Node7</title>
<g id="a_edge10_Node000006_Node000007"><a xlink:title=" ">
<path fill="none" stroke="#63b8ff" d="M553.05,-422.38C544.95,-422.38 536.84,-422.38 528.94,-422.38"/>
<polygon fill="#63b8ff" stroke="#63b8ff" points="552.98,-425.88 562.98,-422.38 552.98,-418.88 552.98,-425.88"/>
</a>
</g>
</g>
<!-- Node8 -->
<g id="Node000008" class="node">
<title>Node8</title>
<g id="a_Node000008"><a xlink:href="classdomini_1_1jugadors_1_1_maquina.html#a8b1f4889bc62ca862e4f87e55c66871e" target="_top" xlink:title="Busca la paraula amb la puntuació més alta donats un taulell i un diccionari.">
<polygon fill="white" stroke="#666666" points="330.5,-438.38 192.25,-438.38 192.25,-406.38 330.5,-406.38 330.5,-438.38"/>
<text text-anchor="start" x="200.25" y="-424.88" font-family="Helvetica,sans-Serif" font-size="10.00">domini.jugadors.Maquina.fer</text>
<text text-anchor="middle" x="261.38" y="-412.88" font-family="Helvetica,sans-Serif" font-size="10.00">Jugada</text>
</a>
</g>
</g>
<!-- Node7&#45;&gt;Node8 -->
<g id="edge11_Node000007_Node000008" class="edge">
<title>Node7&#45;&gt;Node8</title>
<g id="a_edge11_Node000007_Node000008"><a xlink:title=" ">
<path fill="none" stroke="#63b8ff" d="M360.81,-422.38C350.74,-422.38 340.6,-422.38 330.86,-422.38"/>
<polygon fill="#63b8ff" stroke="#63b8ff" points="360.6,-425.88 370.6,-422.38 360.6,-418.88 360.6,-425.88"/>
</a>
</g>
</g>
<!-- Node11 -->
<g id="Node000011" class="node">
<title>Node11</title>
<g id="a_Node000011"><a xlink:href="classinterficie_1_1_vista_partida.html#a7855e7a9cc41e1450c37054781ba6309" target="_top" xlink:title="Inicialitza els components de la interfície gràfica.">
<polygon fill="white" stroke="#666666" points="931.62,-246.38 796.38,-246.38 796.38,-226.38 931.62,-226.38 931.62,-246.38"/>
<text text-anchor="middle" x="864" y="-232.88" font-family="Helvetica,sans-Serif" font-size="10.00">interficie.VistaPartida.initUI</text>
</a>
</g>
</g>
<!-- Node10&#45;&gt;Node11 -->
<g id="edge15_Node000010_Node000011" class="edge">
<title>Node10&#45;&gt;Node11</title>
<g id="a_edge15_Node000010_Node000011"><a xlink:title=" ">
<path fill="none" stroke="#63b8ff" d="M979.14,-245.51C963.35,-244.25 947.08,-242.94 931.95,-241.73"/>
<polygon fill="#63b8ff" stroke="#63b8ff" points="978.77,-248.99 989.02,-246.3 979.33,-242.01 978.77,-248.99"/>
</a>
</g>
</g>
<!-- Node12 -->
<g id="Node000012" class="node">
<title>Node12</title>
<g id="a_Node000012"><a xlink:href="classinterficie_1_1_vista_partida.html#abce8626a6a3750affe851e1f8bea2cb3" target="_top" xlink:title="Constructor de la classe VistaPartida.">
<polygon fill="white" stroke="#666666" points="711.25,-175.38 599.25,-175.38 599.25,-143.38 711.25,-143.38 711.25,-175.38"/>
<text text-anchor="start" x="607.25" y="-161.88" font-family="Helvetica,sans-Serif" font-size="10.00">interficie.VistaPartida.</text>
<text text-anchor="middle" x="655.25" y="-149.88" font-family="Helvetica,sans-Serif" font-size="10.00">VistaPartida</text>
</a>
</g>
</g>
<!-- Node10&#45;&gt;Node12 -->
<g id="edge34_Node000010_Node000012" class="edge">
<title>Node10&#45;&gt;Node12</title>
<g id="a_edge34_Node000010_Node000012"><a xlink:title=" ">
<path fill="none" stroke="#63b8ff" d="M1002.03,-232.68C984.1,-227.38 964.48,-221.88 946.25,-217.38 865.25,-197.38 770.23,-179.4 711.63,-168.93"/>
<polygon fill="#63b8ff" stroke="#63b8ff" points="1000.92,-236 1011.51,-235.51 1002.93,-229.3 1000.92,-236"/>
</a>
</g>
</g>
<!-- Node15 -->
<g id="Node000015" class="node">
<title>Node15</title>
<g id="a_Node000015"><a xlink:href="classinterficie_1_1_vista_partida.html#a485041b781e81c64fb5414207ff21d2a" target="_top" xlink:title="Actualitza la informació de la partida.">
<polygon fill="white" stroke="#666666" points="150.25,-171.38 0,-171.38 0,-139.38 150.25,-139.38 150.25,-171.38"/>
<text text-anchor="start" x="8" y="-157.88" font-family="Helvetica,sans-Serif" font-size="10.00">interficie.VistaPartida.refrescar</text>
<text text-anchor="middle" x="75.12" y="-145.88" font-family="Helvetica,sans-Serif" font-size="10.00">Informacio</text>
</a>
</g>
</g>
<!-- Node10&#45;&gt;Node15 -->
<g id="edge33_Node000010_Node000015" class="edge">
<title>Node10&#45;&gt;Node15</title>
<g id="a_edge33_Node000010_Node000015"><a xlink:title=" ">
<path fill="none" stroke="#63b8ff" d="M1012.72,-272.62C935.85,-300.52 787.24,-347.38 656.25,-347.38 656.25,-347.38 656.25,-347.38 449.62,-347.38 326.89,-347.38 291.34,-327.77 186.25,-264.38 144.56,-239.23 106.77,-195.15 88.21,-171.49"/>
<polygon fill="#63b8ff" stroke="#63b8ff" points="1013.48,-276.07 1021.66,-269.34 1011.07,-269.5 1013.48,-276.07"/>
</a>
</g>
</g>
<!-- Node11&#45;&gt;Node12 -->
<g id="edge16_Node000011_Node000012" class="edge">
<title>Node11&#45;&gt;Node12</title>
<g id="a_edge16_Node000011_Node000012"><a xlink:title=" ">
<path fill="none" stroke="#63b8ff" d="M835.5,-221.37C803.96,-207.51 751.44,-187.53 711.38,-173.86"/>
<polygon fill="#63b8ff" stroke="#63b8ff" points="833.8,-224.44 844.35,-225.37 836.68,-218.06 833.8,-224.44"/>
</a>
</g>
</g>
<!-- Node12&#45;&gt;Node11 -->
<g id="edge31_Node000012_Node000011" class="edge">
<title>Node12&#45;&gt;Node11</title>
<g id="a_edge31_Node000012_Node000011"><a xlink:title=" ">
<path fill="none" stroke="#63b8ff" d="M697.35,-180.2C732.81,-195.02 783.87,-214.07 819.91,-225.93"/>
<polygon fill="#63b8ff" stroke="#63b8ff" points="698.84,-177.03 688.27,-176.34 696.1,-183.47 698.84,-177.03"/>
</a>
</g>
</g>
<!-- Node12&#45;&gt;Node12 -->
<g id="edge32_Node000012_Node000012" class="edge">
<title>Node12&#45;&gt;Node12</title>
<g id="a_edge32_Node000012_Node000012"><a xlink:title=" ">
<path fill="none" stroke="#63b8ff" d="M689.59,-186.92C683.99,-190.79 672.54,-193.38 655.25,-193.38 624.08,-193.38 611.9,-184.96 618.72,-175.82"/>
<polygon fill="#63b8ff" stroke="#63b8ff" points="692.99,-187.79 691.49,-177.3 686.12,-186.44 692.99,-187.79"/>
</a>
</g>
</g>
<!-- Node13 -->
<g id="Node000013" class="node">
<title>Node13</title>
<g id="a_Node000013"><a xlink:href="classinterficie_1_1_vista_partida.html#a6bd7550fc714ba5195c8b55ffe3d973c" target="_top" xlink:title="Afegeix les fitxes d&#39;un jugador al seu rack.">
<polygon fill="white" stroke="#666666" points="518.62,-105.38 382.62,-105.38 382.62,-73.38 518.62,-73.38 518.62,-105.38"/>
<text text-anchor="start" x="390.62" y="-91.88" font-family="Helvetica,sans-Serif" font-size="10.00">interficie.VistaPartida.afegir</text>
<text text-anchor="middle" x="450.62" y="-79.88" font-family="Helvetica,sans-Serif" font-size="10.00">FitxesARack</text>
</a>
</g>
</g>
<!-- Node12&#45;&gt;Node13 -->
<g id="edge17_Node000012_Node000013" class="edge">
<title>Node12&#45;&gt;Node13</title>
<g id="a_edge17_Node000012_Node000013"><a xlink:title=" ">
<path fill="none" stroke="#63b8ff" d="M596.17,-139.31C565.44,-128.7 528.18,-115.82 499.18,-105.81"/>
<polygon fill="#63b8ff" stroke="#63b8ff" points="594.72,-142.51 605.31,-142.47 597,-135.9 594.72,-142.51"/>
</a>
</g>
</g>
<!-- Node16 -->
<g id="Node000016" class="node">
<title>Node16</title>
<g id="a_Node000016"><a xlink:href="classinterficie_1_1_vista_partida.html#ae6809bc2e7efc03077c111367571f788" target="_top" xlink:title="Afegeix maquetes al rack de l&#39;oponent.">
<polygon fill="white" stroke="#666666" points="518.62,-193.38 382.62,-193.38 382.62,-161.38 518.62,-161.38 518.62,-193.38"/>
<text text-anchor="start" x="390.62" y="-179.88" font-family="Helvetica,sans-Serif" font-size="10.00">interficie.VistaPartida.afegir</text>
<text text-anchor="middle" x="450.62" y="-167.88" font-family="Helvetica,sans-Serif" font-size="10.00">MaquetesARack</text>
</a>
</g>
</g>
<!-- Node12&#45;&gt;Node16 -->
<g id="edge25_Node000012_Node000016" class="edge">
<title>Node12&#45;&gt;Node16</title>
<g id="a_edge25_Node000012_Node000016"><a xlink:title=" ">
<path fill="none" stroke="#63b8ff" d="M587.59,-165.3C565.52,-167.26 540.95,-169.44 518.83,-171.41"/>
<polygon fill="#63b8ff" stroke="#63b8ff" points="587.72,-168.8 597.37,-164.43 587.1,-161.83 587.72,-168.8"/>
</a>
</g>
</g>
<!-- Node17 -->
<g id="Node000017" class="node">
<title>Node17</title>
<g id="a_Node000017"><a xlink:href="classinterficie_1_1_vista_partida.html#a8ebc9da2a2b927ba87ed97ad85ae44e8" target="_top" xlink:title="Confirma l&#39;acció de guardar la partida.">
<polygon fill="white" stroke="#666666" points="526.88,-281.38 374.38,-281.38 374.38,-249.38 526.88,-249.38 526.88,-281.38"/>
<text text-anchor="start" x="382.38" y="-267.88" font-family="Helvetica,sans-Serif" font-size="10.00">interficie.VistaPartida.confirmar</text>
<text text-anchor="middle" x="450.62" y="-255.88" font-family="Helvetica,sans-Serif" font-size="10.00">Guardar</text>
</a>
</g>
</g>
<!-- Node12&#45;&gt;Node17 -->
<g id="edge27_Node000012_Node000017" class="edge">
<title>Node12&#45;&gt;Node17</title>
<g id="a_edge27_Node000012_Node000017"><a xlink:title=" ">
<path fill="none" stroke="#63b8ff" d="M613.17,-180.87C574.63,-201.03 517.84,-230.74 482.88,-249.03"/>
<polygon fill="#63b8ff" stroke="#63b8ff" points="614.45,-184.15 621.69,-176.41 611.21,-177.94 614.45,-184.15"/>
</a>
</g>
</g>
<!-- Node18 -->
<g id="Node000018" class="node">
<title>Node18</title>
<g id="a_Node000018"><a xlink:href="classinterficie_1_1_vista_partida.html#ab47b596fbbd6a79289d4b9d7f5b5e068" target="_top" xlink:title="Crea un panell amb la informació d&#39;un jugador.">
<polygon fill="white" stroke="#666666" points="328.25,-83.38 194.5,-83.38 194.5,-51.38 328.25,-51.38 328.25,-83.38"/>
<text text-anchor="start" x="202.5" y="-69.88" font-family="Helvetica,sans-Serif" font-size="10.00">interficie.VistaPartida.crear</text>
<text text-anchor="middle" x="261.38" y="-57.88" font-family="Helvetica,sans-Serif" font-size="10.00">PanelJugador</text>
</a>
</g>
</g>
<!-- Node12&#45;&gt;Node18 -->
<g id="edge29_Node000012_Node000018" class="edge">
<title>Node12&#45;&gt;Node18</title>
<g id="a_edge29_Node000012_Node000018"><a xlink:title=" ">
<path fill="none" stroke="#63b8ff" d="M631.78,-134.94C608.58,-111.68 570.05,-78.25 528.75,-64.38 463.31,-42.4 383.64,-47.07 328.57,-54.78"/>
<polygon fill="#63b8ff" stroke="#63b8ff" points="629.07,-137.17 638.55,-141.9 634.09,-132.29 629.07,-137.17"/>
</a>
</g>
</g>
<!-- Node14 -->
<g id="Node000014" class="node">
<title>Node14</title>
<g id="a_Node000014"><a xlink:href="classinterficie_1_1_vista_partida.html#a0698d192124492ebfd8a3b029a6fa23c" target="_top" xlink:title="Actualitza els racks dels jugadors.">
<polygon fill="white" stroke="#666666" points="336.5,-171.38 186.25,-171.38 186.25,-139.38 336.5,-139.38 336.5,-171.38"/>
<text text-anchor="start" x="194.25" y="-157.88" font-family="Helvetica,sans-Serif" font-size="10.00">interficie.VistaPartida.refrescar</text>
<text text-anchor="middle" x="261.38" y="-145.88" font-family="Helvetica,sans-Serif" font-size="10.00">RackJugadors</text>
</a>
</g>
</g>
<!-- Node13&#45;&gt;Node14 -->
<g id="edge18_Node000013_Node000014" class="edge">
<title>Node13&#45;&gt;Node14</title>
<g id="a_edge18_Node000013_Node000014"><a xlink:title=" ">
<path fill="none" stroke="#63b8ff" d="M392.11,-109.65C365.4,-119.06 334.06,-130.11 308.87,-138.99"/>
<polygon fill="#63b8ff" stroke="#63b8ff" points="393.16,-112.99 401.43,-106.36 390.83,-106.39 393.16,-112.99"/>
</a>
</g>
</g>
<!-- Node14&#45;&gt;Node11 -->
<g id="edge19_Node000014_Node000011" class="edge">
<title>Node14&#45;&gt;Node11</title>
<g id="a_edge19_Node000014_Node000011"><a xlink:title=" ">
<path fill="none" stroke="#63b8ff" d="M303.34,-176.74C323.6,-186.29 348.75,-196.66 372.5,-202.38 520.63,-238.05 700.66,-240.5 796.09,-238.72"/>
<polygon fill="#63b8ff" stroke="#63b8ff" points="305.11,-173.71 294.58,-172.51 302.06,-180.01 305.11,-173.71"/>
</a>
</g>
</g>
<!-- Node14&#45;&gt;Node12 -->
<g id="edge24_Node000014_Node000012" class="edge">
<title>Node14&#45;&gt;Node12</title>
<g id="a_edge24_Node000014_Node000012"><a xlink:title=" ">
<path fill="none" stroke="#63b8ff" d="M347.98,-152.82C356.27,-152.64 364.55,-152.49 372.5,-152.38 441.94,-151.43 459.33,-150.44 528.75,-152.38 551.76,-153.02 577.12,-154.32 598.99,-155.63"/>
<polygon fill="#63b8ff" stroke="#63b8ff" points="348.14,-149.31 338.23,-153.04 348.3,-156.31 348.14,-149.31"/>
</a>
</g>
</g>
<!-- Node14&#45;&gt;Node15 -->
<g id="edge20_Node000014_Node000015" class="edge">
<title>Node14&#45;&gt;Node15</title>
<g id="a_edge20_Node000014_Node000015"><a xlink:title=" ">
<path fill="none" stroke="#63b8ff" d="M174.64,-155.38C166.58,-155.38 158.46,-155.38 150.51,-155.38"/>
<polygon fill="#63b8ff" stroke="#63b8ff" points="174.45,-158.88 184.45,-155.38 174.45,-151.88 174.45,-158.88"/>
</a>
</g>
</g>
<!-- Node15&#45;&gt;Node11 -->
<g id="edge21_Node000015_Node000011" class="edge">
<title>Node15&#45;&gt;Node11</title>
<g id="a_edge21_Node000015_Node000011"><a xlink:title=" ">
<path fill="none" stroke="#63b8ff" d="M111.5,-177.59C165.37,-209.97 272.32,-268.63 372.5,-290.38 543.08,-327.4 752.84,-271.28 831.36,-246.83"/>
<polygon fill="#63b8ff" stroke="#63b8ff" points="113.42,-174.66 103.06,-172.46 109.79,-180.64 113.42,-174.66"/>
</a>
</g>
</g>
<!-- Node15&#45;&gt;Node12 -->
<g id="edge23_Node000015_Node000012" class="edge">
<title>Node15&#45;&gt;Node12</title>
<g id="a_edge23_Node000015_Node000012"><a xlink:title=" ">
<path fill="none" stroke="#63b8ff" d="M91.97,-129.68C110.63,-102.14 144.44,-60.01 186.25,-42.38 326.51,16.78 387.16,11.53 528.75,-44.38 580.15,-64.67 623.42,-116.68 643.02,-143.24"/>
<polygon fill="#63b8ff" stroke="#63b8ff" points="89.18,-127.55 86.62,-137.83 95.04,-131.39 89.18,-127.55"/>
</a>
</g>
</g>
<!-- Node15&#45;&gt;Node15 -->
<g id="edge22_Node000015_Node000015" class="edge">
<title>Node15&#45;&gt;Node15</title>
<g id="a_edge22_Node000015_Node000015"><a xlink:title=" ">
<path fill="none" stroke="#63b8ff" d="M106.16,-183.08C100.99,-186.86 90.64,-189.38 75.12,-189.38 46.75,-189.38 35.67,-180.96 41.87,-171.82"/>
<polygon fill="#63b8ff" stroke="#63b8ff" points="109.59,-183.79 108.08,-173.3 102.72,-182.44 109.59,-183.79"/>
</a>
</g>
</g>
<!-- Node16&#45;&gt;Node14 -->
<g id="edge26_Node000016_Node000014" class="edge">
<title>Node16&#45;&gt;Node14</title>
<g id="a_edge26_Node000016_Node000014"><a xlink:title=" ">
<path fill="none" stroke="#63b8ff" d="M371.05,-168.15C359.68,-166.81 348.01,-165.44 336.73,-164.11"/>
<polygon fill="#63b8ff" stroke="#63b8ff" points="370.44,-171.6 380.78,-169.29 371.26,-164.65 370.44,-171.6"/>
</a>
</g>
</g>
<!-- Node17&#45;&gt;Node11 -->
<g id="edge28_Node000017_Node000011" class="edge">
<title>Node17&#45;&gt;Node11</title>
<g id="a_edge28_Node000017_Node000011"><a xlink:title=" ">
<path fill="none" stroke="#63b8ff" d="M538.42,-259.26C615.25,-253.84 725.79,-246.05 795.99,-241.1"/>
<polygon fill="#63b8ff" stroke="#63b8ff" points="538.58,-255.74 528.85,-259.93 539.07,-262.72 538.58,-255.74"/>
</a>
</g>
</g>
<!-- Node18&#45;&gt;Node15 -->
<g id="edge30_Node000018_Node000015" class="edge">
<title>Node18&#45;&gt;Node15</title>
<g id="a_edge30_Node000018_Node000015"><a xlink:title=" ">
<path fill="none" stroke="#63b8ff" d="M216.04,-88.55C183.62,-104.04 140.29,-124.73 110.48,-138.97"/>
<polygon fill="#63b8ff" stroke="#63b8ff" points="217.27,-91.84 224.79,-84.38 214.25,-85.53 217.27,-91.84"/>
</a>
</g>
</g>
<!-- Node19&#45;&gt;Node5 -->
<g id="edge36_Node000019_Node000005" class="edge">
<title>Node19&#45;&gt;Node5</title>
<g id="a_edge36_Node000019_Node000005"><a xlink:title=" ">
<path fill="none" stroke="#63b8ff" d="M980.51,-401.77C967.92,-400.64 955,-399.48 942.57,-398.36"/>
<polygon fill="#63b8ff" stroke="#63b8ff" points="980.17,-405.26 990.44,-402.67 980.79,-398.28 980.17,-405.26"/>
</a>
</g>
</g>
</g>
</svg>
