<?xml version="1.0" encoding="UTF-8" standalone="no"?>
<!DOCTYPE svg PUBLIC "-//W3C//DTD SVG 1.1//EN"
 "http://www.w3.org/Graphics/SVG/1.1/DTD/svg11.dtd">
<!-- Generated by graphviz version 12.2.1 (20241206.2353)
 -->
<!-- Title: domini.scrabble.Partida.getTorn Pages: 1 -->
<svg width="1042pt" height="262pt"
 viewBox="0.00 0.00 1041.50 261.91" xmlns="http://www.w3.org/2000/svg" xmlns:xlink="http://www.w3.org/1999/xlink">
<g id="graph0" class="graph" transform="scale(1 1) rotate(0) translate(4 257.91)">
<title>domini.scrabble.Partida.getTorn</title>
<!-- Node1 -->
<g id="Node000001" class="node">
<title>Node1</title>
<g id="a_Node000001"><a xlink:title="Retorna el torn de la partida.">
<polygon fill="#999999" stroke="#666666" points="1033.5,-130 880.25,-130 880.25,-110 1033.5,-110 1033.5,-130"/>
<text text-anchor="middle" x="956.88" y="-116.5" font-family="Helvetica,sans-Serif" font-size="10.00">domini.scrabble.Partida.getTorn</text>
</a>
</g>
</g>
<!-- Node2 -->
<g id="Node000002" class="node">
<title>Node2</title>
<g id="a_Node000002"><a xlink:href="classinterficie_1_1_vista_partida.html#a0698d192124492ebfd8a3b029a6fa23c" target="_top" xlink:title="Actualitza els racks dels jugadors.">
<polygon fill="white" stroke="#666666" points="844.25,-136 694,-136 694,-104 844.25,-104 844.25,-136"/>
<text text-anchor="start" x="702" y="-122.5" font-family="Helvetica,sans-Serif" font-size="10.00">interficie.VistaPartida.refrescar</text>
<text text-anchor="middle" x="769.12" y="-110.5" font-family="Helvetica,sans-Serif" font-size="10.00">RackJugadors</text>
</a>
</g>
</g>
<!-- Node1&#45;&gt;Node2 -->
<g id="edge1_Node000001_Node000002" class="edge">
<title>Node1&#45;&gt;Node2</title>
<g id="a_edge1_Node000001_Node000002"><a xlink:title=" ">
<path fill="none" stroke="#63b8ff" d="M868.53,-120C860.53,-120 852.47,-120 844.59,-120"/>
<polygon fill="#63b8ff" stroke="#63b8ff" points="868.27,-123.5 878.27,-120 868.27,-116.5 868.27,-123.5"/>
</a>
</g>
</g>
<!-- Node3 -->
<g id="Node000003" class="node">
<title>Node3</title>
<g id="a_Node000003"><a xlink:href="classinterficie_1_1_vista_partida.html#a7855e7a9cc41e1450c37054781ba6309" target="_top" xlink:title="Inicialitza els components de la interfície gràfica.">
<polygon fill="white" stroke="#666666" points="658,-168 522.75,-168 522.75,-148 658,-148 658,-168"/>
<text text-anchor="middle" x="590.38" y="-154.5" font-family="Helvetica,sans-Serif" font-size="10.00">interficie.VistaPartida.initUI</text>
</a>
</g>
</g>
<!-- Node2&#45;&gt;Node3 -->
<g id="edge2_Node000002_Node000003" class="edge">
<title>Node2&#45;&gt;Node3</title>
<g id="a_edge2_Node000002_Node000003"><a xlink:title=" ">
<path fill="none" stroke="#63b8ff" d="M682.57,-138.39C667.98,-141.53 653.28,-144.69 640.08,-147.53"/>
<polygon fill="#63b8ff" stroke="#63b8ff" points="683.16,-141.85 692.2,-136.32 681.69,-135 683.16,-141.85"/>
</a>
</g>
</g>
<!-- Node4 -->
<g id="Node000004" class="node">
<title>Node4</title>
<g id="a_Node000004"><a xlink:href="classinterficie_1_1_vista_partida.html#abce8626a6a3750affe851e1f8bea2cb3" target="_top" xlink:title="Constructor de la classe VistaPartida.">
<polygon fill="white" stroke="#666666" points="486.75,-150 374.75,-150 374.75,-118 486.75,-118 486.75,-150"/>
<text text-anchor="start" x="382.75" y="-136.5" font-family="Helvetica,sans-Serif" font-size="10.00">interficie.VistaPartida.</text>
<text text-anchor="middle" x="430.75" y="-124.5" font-family="Helvetica,sans-Serif" font-size="10.00">VistaPartida</text>
</a>
</g>
</g>
<!-- Node2&#45;&gt;Node4 -->
<g id="edge18_Node000002_Node000004" class="edge">
<title>Node2&#45;&gt;Node4</title>
<g id="a_edge18_Node000002_Node000004"><a xlink:title=" ">
<path fill="none" stroke="#63b8ff" d="M682.65,-123.56C621.2,-126.12 540.12,-129.49 486.99,-131.7"/>
<polygon fill="#63b8ff" stroke="#63b8ff" points="682.53,-127.07 692.38,-123.15 682.24,-120.07 682.53,-127.07"/>
</a>
</g>
</g>
<!-- Node9 -->
<g id="Node000009" class="node">
<title>Node9</title>
<g id="a_Node000009"><a xlink:href="classinterficie_1_1_vista_partida.html#a485041b781e81c64fb5414207ff21d2a" target="_top" xlink:title="Actualitza la informació de la partida.">
<polygon fill="white" stroke="#666666" points="150.25,-220 0,-220 0,-188 150.25,-188 150.25,-220"/>
<text text-anchor="start" x="8" y="-206.5" font-family="Helvetica,sans-Serif" font-size="10.00">interficie.VistaPartida.refrescar</text>
<text text-anchor="middle" x="75.12" y="-194.5" font-family="Helvetica,sans-Serif" font-size="10.00">Informacio</text>
</a>
</g>
</g>
<!-- Node2&#45;&gt;Node9 -->
<g id="edge17_Node000002_Node000009" class="edge">
<title>Node2&#45;&gt;Node9</title>
<g id="a_edge17_Node000002_Node000009"><a xlink:title=" ">
<path fill="none" stroke="#63b8ff" d="M730.27,-141.91C709.41,-153.38 682.79,-167.07 658,-177 523.15,-230.99 483.68,-237.25 338.75,-247 271.13,-251.55 252.86,-259.54 186.25,-247 159.02,-241.87 129.88,-230.19 108.43,-220.3"/>
<polygon fill="#63b8ff" stroke="#63b8ff" points="731.96,-144.97 738.99,-137.05 728.55,-138.86 731.96,-144.97"/>
</a>
</g>
</g>
<!-- Node3&#45;&gt;Node4 -->
<g id="edge3_Node000003_Node000004" class="edge">
<title>Node3&#45;&gt;Node4</title>
<g id="a_edge3_Node000003_Node000004"><a xlink:title=" ">
<path fill="none" stroke="#63b8ff" d="M545.92,-145.28C527.69,-141.79 506.29,-138.41 486.96,-135.93"/>
<polygon fill="#63b8ff" stroke="#63b8ff" points="545.12,-148.69 555.61,-147.22 546.49,-141.82 545.12,-148.69"/>
</a>
</g>
</g>
<!-- Node4&#45;&gt;Node3 -->
<g id="edge15_Node000004_Node000003" class="edge">
<title>Node4&#45;&gt;Node3</title>
<g id="a_edge15_Node000004_Node000003"><a xlink:title=" ">
<path fill="none" stroke="#63b8ff" d="M498.07,-150.77C506.16,-152.1 514.43,-153.36 522.53,-154.5"/>
<polygon fill="#63b8ff" stroke="#63b8ff" points="498.72,-147.33 488.28,-149.1 497.55,-154.23 498.72,-147.33"/>
</a>
</g>
</g>
<!-- Node4&#45;&gt;Node4 -->
<g id="edge16_Node000004_Node000004" class="edge">
<title>Node4&#45;&gt;Node4</title>
<g id="a_edge16_Node000004_Node000004"><a xlink:title=" ">
<path fill="none" stroke="#63b8ff" d="M457.35,-161.71C452.92,-165.48 444.05,-168 430.75,-168 406.43,-168 396.93,-159.58 402.25,-150.44"/>
<polygon fill="#63b8ff" stroke="#63b8ff" points="460.79,-162.38 459,-151.94 453.88,-161.22 460.79,-162.38"/>
</a>
</g>
</g>
<!-- Node5 -->
<g id="Node000005" class="node">
<title>Node5</title>
<g id="a_Node000005"><a xlink:href="classinterficie_1_1_vista_partida.html#a6bd7550fc714ba5195c8b55ffe3d973c" target="_top" xlink:title="Afegeix les fitxes d&#39;un jugador al seu rack.">
<polygon fill="white" stroke="#666666" points="330.5,-82 194.5,-82 194.5,-50 330.5,-50 330.5,-82"/>
<text text-anchor="start" x="202.5" y="-68.5" font-family="Helvetica,sans-Serif" font-size="10.00">interficie.VistaPartida.afegir</text>
<text text-anchor="middle" x="262.5" y="-56.5" font-family="Helvetica,sans-Serif" font-size="10.00">FitxesARack</text>
</a>
</g>
</g>
<!-- Node4&#45;&gt;Node5 -->
<g id="edge4_Node000004_Node000005" class="edge">
<title>Node4&#45;&gt;Node5</title>
<g id="a_edge4_Node000004_Node000005"><a xlink:title=" ">
<path fill="none" stroke="#63b8ff" d="M387.23,-112.61C372.1,-105.34 354.83,-97.44 338.75,-91 331.34,-88.03 323.42,-85.12 315.61,-82.4"/>
<polygon fill="#63b8ff" stroke="#63b8ff" points="385.43,-115.62 395.96,-116.85 388.49,-109.33 385.43,-115.62"/>
</a>
</g>
</g>
<!-- Node6 -->
<g id="Node000006" class="node">
<title>Node6</title>
<g id="a_Node000006"><a xlink:href="classinterficie_1_1_vista_partida.html#ae6809bc2e7efc03077c111367571f788" target="_top" xlink:title="Afegeix maquetes al rack de l&#39;oponent.">
<polygon fill="white" stroke="#666666" points="330.5,-32 194.5,-32 194.5,0 330.5,0 330.5,-32"/>
<text text-anchor="start" x="202.5" y="-18.5" font-family="Helvetica,sans-Serif" font-size="10.00">interficie.VistaPartida.afegir</text>
<text text-anchor="middle" x="262.5" y="-6.5" font-family="Helvetica,sans-Serif" font-size="10.00">MaquetesARack</text>
</a>
</g>
</g>
<!-- Node4&#45;&gt;Node6 -->
<g id="edge6_Node000004_Node000006" class="edge">
<title>Node4&#45;&gt;Node6</title>
<g id="a_edge6_Node000004_Node000006"><a xlink:title=" ">
<path fill="none" stroke="#63b8ff" d="M410.65,-108.62C393.8,-87.81 367.49,-58.96 338.75,-41 333.61,-37.79 328.02,-34.95 322.28,-32.43"/>
<polygon fill="#63b8ff" stroke="#63b8ff" points="407.82,-110.68 416.77,-116.35 413.31,-106.34 407.82,-110.68"/>
</a>
</g>
</g>
<!-- Node7 -->
<g id="Node000007" class="node">
<title>Node7</title>
<g id="a_Node000007"><a xlink:href="classinterficie_1_1_vista_partida.html#a8ebc9da2a2b927ba87ed97ad85ae44e8" target="_top" xlink:title="Confirma l&#39;acció de guardar la partida.">
<polygon fill="white" stroke="#666666" points="338.75,-220 186.25,-220 186.25,-188 338.75,-188 338.75,-220"/>
<text text-anchor="start" x="194.25" y="-206.5" font-family="Helvetica,sans-Serif" font-size="10.00">interficie.VistaPartida.confirmar</text>
<text text-anchor="middle" x="262.5" y="-194.5" font-family="Helvetica,sans-Serif" font-size="10.00">Guardar</text>
</a>
</g>
</g>
<!-- Node4&#45;&gt;Node7 -->
<g id="edge8_Node000004_Node000007" class="edge">
<title>Node4&#45;&gt;Node7</title>
<g id="a_edge8_Node000004_Node000007"><a xlink:title=" ">
<path fill="none" stroke="#63b8ff" d="M382.68,-155.06C368.59,-161.27 353.08,-168 338.75,-174 327.98,-178.51 316.29,-183.25 305.4,-187.6"/>
<polygon fill="#63b8ff" stroke="#63b8ff" points="384.01,-158.3 391.74,-151.06 381.18,-151.9 384.01,-158.3"/>
</a>
</g>
</g>
<!-- Node8 -->
<g id="Node000008" class="node">
<title>Node8</title>
<g id="a_Node000008"><a xlink:href="classinterficie_1_1_vista_partida.html#ab47b596fbbd6a79289d4b9d7f5b5e068" target="_top" xlink:title="Crea un panell amb la informació d&#39;un jugador.">
<polygon fill="white" stroke="#666666" points="329.38,-132 195.62,-132 195.62,-100 329.38,-100 329.38,-132"/>
<text text-anchor="start" x="203.62" y="-118.5" font-family="Helvetica,sans-Serif" font-size="10.00">interficie.VistaPartida.crear</text>
<text text-anchor="middle" x="262.5" y="-106.5" font-family="Helvetica,sans-Serif" font-size="10.00">PanelJugador</text>
</a>
</g>
</g>
<!-- Node4&#45;&gt;Node8 -->
<g id="edge10_Node000004_Node000008" class="edge">
<title>Node4&#45;&gt;Node8</title>
<g id="a_edge10_Node000004_Node000008"><a xlink:title=" ">
<path fill="none" stroke="#63b8ff" d="M363.15,-126.79C352.19,-125.6 340.83,-124.37 329.87,-123.19"/>
<polygon fill="#63b8ff" stroke="#63b8ff" points="362.57,-130.25 372.89,-127.84 363.32,-123.29 362.57,-130.25"/>
</a>
</g>
</g>
<!-- Node5&#45;&gt;Node2 -->
<g id="edge5_Node000005_Node000002" class="edge">
<title>Node5&#45;&gt;Node2</title>
<g id="a_edge5_Node000005_Node000002"><a xlink:title=" ">
<path fill="none" stroke="#63b8ff" d="M342.38,-74.44C438.48,-84.72 599.61,-101.97 693.67,-112.03"/>
<polygon fill="#63b8ff" stroke="#63b8ff" points="342.81,-70.97 332.5,-73.38 342.07,-77.93 342.81,-70.97"/>
</a>
</g>
</g>
<!-- Node6&#45;&gt;Node2 -->
<g id="edge7_Node000006_Node000002" class="edge">
<title>Node6&#45;&gt;Node2</title>
<g id="a_edge7_Node000006_Node000002"><a xlink:title=" ">
<path fill="none" stroke="#63b8ff" d="M341.8,-28.77C421.68,-42.25 549.03,-64.98 658,-90 675.38,-93.99 694.15,-98.88 711.19,-103.55"/>
<polygon fill="#63b8ff" stroke="#63b8ff" points="342.79,-25.39 332.34,-27.18 341.63,-32.29 342.79,-25.39"/>
</a>
</g>
</g>
<!-- Node7&#45;&gt;Node3 -->
<g id="edge9_Node000007_Node000003" class="edge">
<title>Node7&#45;&gt;Node3</title>
<g id="a_edge9_Node000007_Node000003"><a xlink:title=" ">
<path fill="none" stroke="#63b8ff" d="M350.52,-194.76C391.87,-190.04 441.95,-183.85 486.75,-177 502.87,-174.54 520.34,-171.46 536.22,-168.5"/>
<polygon fill="#63b8ff" stroke="#63b8ff" points="350.14,-191.28 340.6,-195.88 350.93,-198.23 350.14,-191.28"/>
</a>
</g>
</g>
<!-- Node8&#45;&gt;Node9 -->
<g id="edge11_Node000008_Node000009" class="edge">
<title>Node8&#45;&gt;Node9</title>
<g id="a_edge11_Node000008_Node000009"><a xlink:title=" ">
<path fill="none" stroke="#63b8ff" d="M207.66,-136.66C200.41,-139.68 193.11,-142.83 186.25,-146 158.19,-158.94 127.12,-175.52 105.15,-187.64"/>
<polygon fill="#63b8ff" stroke="#63b8ff" points="208.86,-139.95 216.79,-132.93 206.21,-133.47 208.86,-139.95"/>
</a>
</g>
</g>
<!-- Node9&#45;&gt;Node3 -->
<g id="edge12_Node000009_Node000003" class="edge">
<title>Node9&#45;&gt;Node3</title>
<g id="a_edge12_Node000009_Node000003"><a xlink:title=" ">
<path fill="none" stroke="#63b8ff" d="M148.34,-222.81C160.9,-225.38 173.89,-227.62 186.25,-229 319.68,-243.95 358.06,-236.27 486.75,-198 514.61,-189.71 545.57,-177.17 566.12,-168.34"/>
<polygon fill="#63b8ff" stroke="#63b8ff" points="149.44,-219.46 138.93,-220.78 147.97,-226.31 149.44,-219.46"/>
</a>
</g>
</g>
<!-- Node9&#45;&gt;Node4 -->
<g id="edge14_Node000009_Node000004" class="edge">
<title>Node9&#45;&gt;Node4</title>
<g id="a_edge14_Node000009_Node000004"><a xlink:title=" ">
<path fill="none" stroke="#63b8ff" d="M157.95,-185.04C167.48,-182.94 177.07,-180.89 186.25,-179 250.67,-165.74 325.07,-152.26 374.5,-143.55"/>
<polygon fill="#63b8ff" stroke="#63b8ff" points="157.31,-181.6 148.3,-187.18 158.82,-188.43 157.31,-181.6"/>
</a>
</g>
</g>
<!-- Node9&#45;&gt;Node9 -->
<g id="edge13_Node000009_Node000009" class="edge">
<title>Node9&#45;&gt;Node9</title>
<g id="a_edge13_Node000009_Node000009"><a xlink:title=" ">
<path fill="none" stroke="#63b8ff" d="M106.35,-231.71C101.14,-235.48 90.74,-238 75.12,-238 46.58,-238 35.43,-229.58 41.67,-220.44"/>
<polygon fill="#63b8ff" stroke="#63b8ff" points="109.78,-232.42 108.28,-221.93 102.91,-231.06 109.78,-232.42"/>
</a>
</g>
</g>
</g>
</svg>
