<?xml version="1.0" encoding="UTF-8" standalone="no"?>
<!DOCTYPE svg PUBLIC "-//W3C//DTD SVG 1.1//EN"
 "http://www.w3.org/Graphics/SVG/1.1/DTD/svg11.dtd">
<!-- Generated by graphviz version 12.2.1 (20241206.2353)
 -->
<!-- Title: domini.sessio.Usuari.getJugadors Pages: 1 -->
<svg width="313pt" height="78pt"
 viewBox="0.00 0.00 313.00 78.00" xmlns="http://www.w3.org/2000/svg" xmlns:xlink="http://www.w3.org/1999/xlink">
<g id="graph0" class="graph" transform="scale(1 1) rotate(0) translate(4 74)">
<title>domini.sessio.Usuari.getJugadors</title>
<!-- Node1 -->
<g id="Node000001" class="node">
<title>Node1</title>
<g id="a_Node000001"><a xlink:title="Retorna els jugadors que té guardats l&#39;usuari.">
<polygon fill="#999999" stroke="#666666" points="124,-54 0,-54 0,-22 124,-22 124,-54"/>
<text text-anchor="start" x="8" y="-40.5" font-family="Helvetica,sans-Serif" font-size="10.00">domini.sessio.Usuari.get</text>
<text text-anchor="middle" x="62" y="-28.5" font-family="Helvetica,sans-Serif" font-size="10.00">Jugadors</text>
</a>
</g>
</g>
<!-- Node2 -->
<g id="Node000002" class="node">
<title>Node2</title>
<g id="a_Node000002"><a xlink:href="classdomini_1_1sessio_1_1_usuari.html#a0268a823e2a2431d8260cddc9f3b522e" target="_top" xlink:title="Retorna el nom de l&#39;usuari.">
<polygon fill="white" stroke="#666666" points="305,-70 160,-70 160,-50 305,-50 305,-70"/>
<text text-anchor="middle" x="232.5" y="-56.5" font-family="Helvetica,sans-Serif" font-size="10.00">domini.sessio.Usuari.getNom</text>
</a>
</g>
</g>
<!-- Node1&#45;&gt;Node2 -->
<g id="edge1_Node000001_Node000002" class="edge">
<title>Node1&#45;&gt;Node2</title>
<g id="a_edge1_Node000001_Node000002"><a xlink:title=" ">
<path fill="none" stroke="#63b8ff" d="M124.31,-46C132.11,-47.02 140.2,-48.08 148.27,-49.13"/>
<polygon fill="#63b8ff" stroke="#63b8ff" points="147.78,-52.6 158.15,-50.42 148.69,-45.66 147.78,-52.6"/>
</a>
</g>
</g>
<!-- Node3 -->
<g id="Node000003" class="node">
<title>Node3</title>
<g id="a_Node000003"><a xlink:href="classpersistencia_1_1_jugador_i_o.html#a106d66ddcbb5a4af122f1630f5aaad6c" target="_top" xlink:title="Carrega un jugador des d&#39;un fitxer JSON.">
<polygon fill="white" stroke="#666666" points="301.25,-32 163.75,-32 163.75,0 301.25,0 301.25,-32"/>
<text text-anchor="start" x="171.75" y="-18.5" font-family="Helvetica,sans-Serif" font-size="10.00">persistencia.JugadorIO.load</text>
<text text-anchor="middle" x="232.5" y="-6.5" font-family="Helvetica,sans-Serif" font-size="10.00">Jugador</text>
</a>
</g>
</g>
<!-- Node1&#45;&gt;Node3 -->
<g id="edge2_Node000001_Node000003" class="edge">
<title>Node1&#45;&gt;Node3</title>
<g id="a_edge2_Node000001_Node000003"><a xlink:title=" ">
<path fill="none" stroke="#63b8ff" d="M124.31,-30C133.34,-28.82 142.75,-27.59 152.08,-26.37"/>
<polygon fill="#63b8ff" stroke="#63b8ff" points="152.43,-29.85 161.9,-25.09 151.53,-22.91 152.43,-29.85"/>
</a>
</g>
</g>
</g>
</svg>
