<?xml version="1.0" encoding="UTF-8" standalone="no"?>
<!DOCTYPE svg PUBLIC "-//W3C//DTD SVG 1.1//EN"
 "http://www.w3.org/Graphics/SVG/1.1/DTD/svg11.dtd">
<!-- Generated by graphviz version 12.2.1 (20241206.2353)
 -->
<!-- Title: domini.scrabble.Ranking.JugadorPuntuacio Pages: 1 -->
<svg width="165pt" height="192pt"
 viewBox="0.00 0.00 164.50 192.00" xmlns="http://www.w3.org/2000/svg" xmlns:xlink="http://www.w3.org/1999/xlink">

<svg id="main" version="1.1" xmlns="http://www.w3.org/2000/svg" xmlns:xlink="http://www.w3.org/1999/xlink" xml:space="preserve">

<style type="text/css"><![CDATA[
.node, .edge {opacity: 0.7;}
.node.selected, .edge.selected {opacity: 1;}
.edge:hover path { stroke: red; }
.edge:hover polygon { stroke: red; fill: red; }
]]></style>
<script type="application/ecmascript" xlink:href="svg.min.js"/>
<svg id="graph" class="graph">
<g id="graph0" class="graph" transform="scale(1 1) rotate(0) translate(4 188)">
<title>domini.scrabble.Ranking.JugadorPuntuacio</title>
<!-- Node1 -->
<g id="Node000001" class="node">
<title>Node1</title>
<g id="a_Node000001"><a xlink:title="Classe interna que representa un jugador amb la seva puntuació.">
<polygon fill="#999999" stroke="none" points="137.38,-96 19.12,-96 19.12,0 137.38,0 137.38,-96"/>
<text text-anchor="start" x="23.12" y="-82.5" font-family="Helvetica,sans-Serif" font-size="10.00">domini.scrabble.Ranking.</text>
<text text-anchor="start" x="39.25" y="-70.5" font-family="Helvetica,sans-Serif" font-size="10.00">JugadorPuntuacio</text>
<text text-anchor="start" x="27.19" y="-54.5" font-family="Helvetica,sans-Serif" font-size="10.00">~</text>
<text text-anchor="start" x="41.25" y="-54.5" font-family="Helvetica,sans-Serif" font-size="10.00">idJugador</text>
<text text-anchor="start" x="27.19" y="-38.5" font-family="Helvetica,sans-Serif" font-size="10.00">~</text>
<text text-anchor="start" x="41.25" y="-38.5" font-family="Helvetica,sans-Serif" font-size="10.00">puntuacio</text>
<text text-anchor="start" x="27.19" y="-22.5" font-family="Helvetica,sans-Serif" font-size="10.00">+</text>
<text text-anchor="start" x="41.25" y="-22.5" font-family="Helvetica,sans-Serif" font-size="10.00">JugadorPuntuacio()</text>
<text text-anchor="start" x="27.19" y="-6.5" font-family="Helvetica,sans-Serif" font-size="10.00">+</text>
<text text-anchor="start" x="41.25" y="-6.5" font-family="Helvetica,sans-Serif" font-size="10.00">compareTo()</text>
<polygon fill="#666666" stroke="#666666" points="19.12,-66 19.12,-66 137.38,-66 137.38,-66 19.12,-66"/>
<polygon fill="#666666" stroke="#666666" points="19.12,-34 19.12,-34 39.25,-34 39.25,-34 19.12,-34"/>
<polygon fill="#666666" stroke="#666666" points="39.25,-34 39.25,-34 137.38,-34 137.38,-34 39.25,-34"/>
<polygon fill="none" stroke="#666666" points="19.12,0 19.12,-96 137.38,-96 137.38,0 19.12,0"/>
</a>
</g>
</g>
<!-- Node2 -->
<g id="Node000002" class="node">
<title>Node2</title>
<g id="a_Node000002"><a xlink:title=" ">
<polygon fill="white" stroke="none" points="156.5,-184 0,-184 0,-132 156.5,-132 156.5,-184"/>
<text text-anchor="start" x="4" y="-170.5" font-family="Helvetica,sans-Serif" font-size="10.00">Comparable&lt; JugadorPuntuacio &gt;</text>
<text text-anchor="start" x="76.75" y="-154.5" font-family="Helvetica,sans-Serif" font-size="10.00"> </text>
<text text-anchor="start" x="76.75" y="-138.5" font-family="Helvetica,sans-Serif" font-size="10.00"> </text>
<polygon fill="#666666" stroke="#666666" points="0,-166 0,-166 156.5,-166 156.5,-166 0,-166"/>
<polygon fill="#666666" stroke="#666666" points="0,-150 0,-150 156.5,-150 156.5,-150 0,-150"/>
<polygon fill="none" stroke="#666666" points="0,-132 0,-184 156.5,-184 156.5,-132 0,-132"/>
</a>
</g>
</g>
<!-- Node2&#45;&gt;Node1 -->
<g id="edge1_Node000001_Node000002" class="edge">
<title>Node2&#45;&gt;Node1</title>
<g id="a_edge1_Node000001_Node000002"><a xlink:title=" ">
<path fill="none" stroke="#63b8ff" d="M78.25,-120.93C78.25,-112.86 78.25,-104.19 78.25,-95.75"/>
<polygon fill="none" stroke="#63b8ff" points="74.75,-120.71 78.25,-130.71 81.75,-120.71 74.75,-120.71"/>
</a>
</g>
</g>
</g>
</svg>
</svg>

<style type='text/css'>
<![CDATA[
[data-mouse-over-selected='false'] { opacity: 0.7; }
[data-mouse-over-selected='true']  { opacity: 1.0; }
]]>
</style>
<script type="application/ecmascript"><![CDATA[
document.addEventListener('DOMContentLoaded', (event) => {
  highlightEdges();
  highlightAdjacentNodes();
});
]]></script>
</svg>
