<?xml version="1.0" encoding="UTF-8" standalone="no"?>
<!DOCTYPE svg PUBLIC "-//W3C//DTD SVG 1.1//EN"
 "http://www.w3.org/Graphics/SVG/1.1/DTD/svg11.dtd">
<!-- Generated by graphviz version 12.2.1 (20241206.2353)
 -->
<!-- Title: domini.jugadors.Avatar.incrementarPartidesGuanyades Pages: 1 -->
<svg width="755pt" height="140pt"
 viewBox="0.00 0.00 755.25 140.00" xmlns="http://www.w3.org/2000/svg" xmlns:xlink="http://www.w3.org/1999/xlink">
<g id="graph0" class="graph" transform="scale(1 1) rotate(0) translate(4 136)">
<title>domini.jugadors.Avatar.incrementarPartidesGuanyades</title>
<!-- Node1 -->
<g id="Node000001" class="node">
<title>Node1</title>
<g id="a_Node000001"><a xlink:title="Incrementa el nombre total de partides guanyades.">
<polygon fill="#999999" stroke="#666666" points="747.25,-82 577.5,-82 577.5,-50 747.25,-50 747.25,-82"/>
<text text-anchor="start" x="585.5" y="-68.5" font-family="Helvetica,sans-Serif" font-size="10.00">domini.jugadors.Avatar.incrementar</text>
<text text-anchor="middle" x="662.38" y="-56.5" font-family="Helvetica,sans-Serif" font-size="10.00">PartidesGuanyades</text>
</a>
</g>
</g>
<!-- Node2 -->
<g id="Node000002" class="node">
<title>Node2</title>
<g id="a_Node000002"><a xlink:href="classcontroladors_1_1_ctrl_partida.html#a15489fe587b7fe577bd1c4be09c58e6e" target="_top" xlink:title="El jugador actual abandona la partida.">
<polygon fill="white" stroke="#666666" points="541.5,-132 374.75,-132 374.75,-100 541.5,-100 541.5,-132"/>
<text text-anchor="start" x="382.75" y="-118.5" font-family="Helvetica,sans-Serif" font-size="10.00">controladors.CtrlPartida.abandonar</text>
<text text-anchor="middle" x="458.12" y="-106.5" font-family="Helvetica,sans-Serif" font-size="10.00">Partida</text>
</a>
</g>
</g>
<!-- Node1&#45;&gt;Node2 -->
<g id="edge1_Node000001_Node000002" class="edge">
<title>Node1&#45;&gt;Node2</title>
<g id="a_edge1_Node000001_Node000002"><a xlink:title=" ">
<path fill="none" stroke="#63b8ff" d="M583.75,-85.19C564.59,-89.93 544.25,-94.96 525.67,-99.55"/>
<polygon fill="#63b8ff" stroke="#63b8ff" points="584.53,-88.6 593.4,-82.8 582.85,-81.81 584.53,-88.6"/>
</a>
</g>
</g>
<!-- Node3 -->
<g id="Node000003" class="node">
<title>Node3</title>
<g id="a_Node000003"><a xlink:href="classcontroladors_1_1_ctrl_partida.html#a7478be76eed4811d7b93e3d8865b8622" target="_top" xlink:title="Finalitza la partida si les fitxes s&#39;han esgotat.">
<polygon fill="white" stroke="#666666" points="537.38,-82 378.88,-82 378.88,-50 537.38,-50 537.38,-82"/>
<text text-anchor="start" x="386.88" y="-68.5" font-family="Helvetica,sans-Serif" font-size="10.00">controladors.CtrlPartida.finalitzar</text>
<text text-anchor="middle" x="458.12" y="-56.5" font-family="Helvetica,sans-Serif" font-size="10.00">PerLletresEsgotades</text>
</a>
</g>
</g>
<!-- Node1&#45;&gt;Node3 -->
<g id="edge2_Node000001_Node000003" class="edge">
<title>Node1&#45;&gt;Node3</title>
<g id="a_edge2_Node000001_Node000003"><a xlink:title=" ">
<path fill="none" stroke="#63b8ff" d="M565.71,-66C556.36,-66 546.95,-66 537.8,-66"/>
<polygon fill="#63b8ff" stroke="#63b8ff" points="565.55,-69.5 575.55,-66 565.55,-62.5 565.55,-69.5"/>
</a>
</g>
</g>
<!-- Node4 -->
<g id="Node000004" class="node">
<title>Node4</title>
<g id="a_Node000004"><a xlink:href="classcontroladors_1_1_ctrl_partida.html#a98e85139630d752ac3e94d8a540aba0c" target="_top" xlink:title="Finalitza la partida si s&#39;han passat torns consecutius sense acció.">
<polygon fill="white" stroke="#666666" points="537.38,-32 378.88,-32 378.88,0 537.38,0 537.38,-32"/>
<text text-anchor="start" x="386.88" y="-18.5" font-family="Helvetica,sans-Serif" font-size="10.00">controladors.CtrlPartida.finalitzar</text>
<text text-anchor="middle" x="458.12" y="-6.5" font-family="Helvetica,sans-Serif" font-size="10.00">PerTornsConsecutius</text>
</a>
</g>
</g>
<!-- Node1&#45;&gt;Node4 -->
<g id="edge3_Node000001_Node000004" class="edge">
<title>Node1&#45;&gt;Node4</title>
<g id="a_edge3_Node000001_Node000004"><a xlink:title=" ">
<path fill="none" stroke="#63b8ff" d="M583.75,-46.81C564.59,-42.07 544.25,-37.04 525.67,-32.45"/>
<polygon fill="#63b8ff" stroke="#63b8ff" points="582.85,-50.19 593.4,-49.2 584.53,-43.4 582.85,-50.19"/>
</a>
</g>
</g>
<!-- Node5 -->
<g id="Node000005" class="node">
<title>Node5</title>
<g id="a_Node000005"><a xlink:href="classcontroladors_1_1_ctrl_partida.html#a2c8fdc3b9f3ee33aae30bd0e0d1f09b7" target="_top" xlink:title="Passa el torn al següent jugador.">
<polygon fill="white" stroke="#666666" points="338.75,-26 169,-26 169,-6 338.75,-6 338.75,-26"/>
<text text-anchor="middle" x="253.88" y="-12.5" font-family="Helvetica,sans-Serif" font-size="10.00">controladors.CtrlPartida.passarTorn</text>
</a>
</g>
</g>
<!-- Node4&#45;&gt;Node5 -->
<g id="edge4_Node000004_Node000005" class="edge">
<title>Node4&#45;&gt;Node5</title>
<g id="a_edge4_Node000004_Node000005"><a xlink:title=" ">
<path fill="none" stroke="#63b8ff" d="M367.26,-16C357.87,-16 348.34,-16 339.01,-16"/>
<polygon fill="#63b8ff" stroke="#63b8ff" points="367.13,-19.5 377.13,-16 367.13,-12.5 367.13,-19.5"/>
</a>
</g>
</g>
<!-- Node6 -->
<g id="Node000006" class="node">
<title>Node6</title>
<g id="a_Node000006"><a xlink:href="classcontroladors_1_1_ctrl_partida.html#afa4340f6a2cb198455d536ccaf87717b" target="_top" xlink:title="Gestiona el desenvolupament de la jugada de la màquina.">
<polygon fill="white" stroke="#666666" points="133,-32 0,-32 0,0 133,0 133,-32"/>
<text text-anchor="start" x="8" y="-18.5" font-family="Helvetica,sans-Serif" font-size="10.00">controladors.CtrlPartida.fer</text>
<text text-anchor="middle" x="66.5" y="-6.5" font-family="Helvetica,sans-Serif" font-size="10.00">JugadaMaquina</text>
</a>
</g>
</g>
<!-- Node5&#45;&gt;Node6 -->
<g id="edge5_Node000005_Node000006" class="edge">
<title>Node5&#45;&gt;Node6</title>
<g id="a_edge5_Node000005_Node000006"><a xlink:title=" ">
<path fill="none" stroke="#63b8ff" d="M157.17,-16C149.08,-16 141.02,-16 133.25,-16"/>
<polygon fill="#63b8ff" stroke="#63b8ff" points="157.08,-19.5 167.08,-16 157.08,-12.5 157.08,-19.5"/>
</a>
</g>
</g>
</g>
</svg>
