<?xml version="1.0" encoding="UTF-8" standalone="no"?>
<!DOCTYPE svg PUBLIC "-//W3C//DTD SVG 1.1//EN"
 "http://www.w3.org/Graphics/SVG/1.1/DTD/svg11.dtd">
<!-- Generated by graphviz version 12.2.1 (20241206.2353)
 -->
<!-- Title: controladors.CtrlPresentacio.tornar Pages: 1 -->
<svg width="1309pt" height="746pt"
 viewBox="0.00 0.00 1308.75 745.63" xmlns="http://www.w3.org/2000/svg" xmlns:xlink="http://www.w3.org/1999/xlink">
<g id="graph0" class="graph" transform="scale(1 1) rotate(0) translate(4 741.63)">
<title>controladors.CtrlPresentacio.tornar</title>
<!-- Node1 -->
<g id="Node000001" class="node">
<title>Node1</title>
<g id="a_Node000001"><a xlink:title="Torna a la vista anterior a l&#39;actual.">
<polygon fill="#999999" stroke="#666666" points="1300.75,-332 1133.25,-332 1133.25,-312 1300.75,-312 1300.75,-332"/>
<text text-anchor="middle" x="1217" y="-318.5" font-family="Helvetica,sans-Serif" font-size="10.00">controladors.CtrlPresentacio.tornar</text>
</a>
</g>
</g>
<!-- Node2 -->
<g id="Node000002" class="node">
<title>Node2</title>
<g id="a_Node000002"><a xlink:href="classinterficie_1_1_vista_partida.html#a8ebc9da2a2b927ba87ed97ad85ae44e8" target="_top" xlink:title="Confirma l&#39;acció de guardar la partida.">
<polygon fill="white" stroke="#666666" points="1072.5,-638 920,-638 920,-606 1072.5,-606 1072.5,-638"/>
<text text-anchor="start" x="928" y="-624.5" font-family="Helvetica,sans-Serif" font-size="10.00">interficie.VistaPartida.confirmar</text>
<text text-anchor="middle" x="996.25" y="-612.5" font-family="Helvetica,sans-Serif" font-size="10.00">Guardar</text>
</a>
</g>
</g>
<!-- Node1&#45;&gt;Node2 -->
<g id="edge1_Node000001_Node000002" class="edge">
<title>Node1&#45;&gt;Node2</title>
<g id="a_edge1_Node000001_Node000002"><a xlink:title=" ">
<path fill="none" stroke="#63b8ff" d="M1212.11,-343.69C1202.1,-393.35 1170.89,-516.32 1097.25,-585 1087.91,-593.71 1076.34,-600.41 1064.42,-605.56"/>
<polygon fill="#63b8ff" stroke="#63b8ff" points="1215.53,-344.44 1213.97,-333.96 1208.65,-343.12 1215.53,-344.44"/>
</a>
</g>
</g>
<!-- Node10 -->
<g id="Node000010" class="node">
<title>Node10</title>
<g id="a_Node000010"><a xlink:href="classinterficie_1_1_vista_consultar_normes.html#aa2b3d841acae7945dad388f04b002967" target="_top" xlink:title="Inicialitza els components gràfics de la vista.">
<polygon fill="white" stroke="#666666" points="1057.12,-576 935.38,-576 935.38,-544 1057.12,-544 1057.12,-576"/>
<text text-anchor="start" x="943.38" y="-562.5" font-family="Helvetica,sans-Serif" font-size="10.00">interficie.VistaConsultar</text>
<text text-anchor="middle" x="996.25" y="-550.5" font-family="Helvetica,sans-Serif" font-size="10.00">Normes.initComponents</text>
</a>
</g>
</g>
<!-- Node1&#45;&gt;Node10 -->
<g id="edge19_Node000001_Node000010" class="edge">
<title>Node1&#45;&gt;Node10</title>
<g id="a_edge19_Node000001_Node000010"><a xlink:title=" ">
<path fill="none" stroke="#63b8ff" d="M1210.36,-343.23C1197.78,-386.39 1163.16,-484.52 1097.25,-535 1085.74,-543.81 1071.51,-549.55 1057.42,-553.28"/>
<polygon fill="#63b8ff" stroke="#63b8ff" points="1213.67,-344.41 1212.99,-333.84 1206.93,-342.53 1213.67,-344.41"/>
</a>
</g>
</g>
<!-- Node12 -->
<g id="Node000012" class="node">
<title>Node12</title>
<g id="a_Node000012"><a xlink:href="classinterficie_1_1_vista_consultar_avatars.html#aad0f3c358880880d6c374569d93117cd" target="_top" xlink:title="Constructor de la vista que mostra la llista d&#39;avatares registrats.">
<polygon fill="white" stroke="#666666" points="1071.75,-508 920.75,-508 920.75,-476 1071.75,-476 1071.75,-508"/>
<text text-anchor="start" x="928.75" y="-494.5" font-family="Helvetica,sans-Serif" font-size="10.00">interficie.VistaConsultar</text>
<text text-anchor="middle" x="996.25" y="-482.5" font-family="Helvetica,sans-Serif" font-size="10.00">Avatars.VistaConsultarAvatars</text>
</a>
</g>
</g>
<!-- Node1&#45;&gt;Node12 -->
<g id="edge23_Node000001_Node000012" class="edge">
<title>Node1&#45;&gt;Node12</title>
<g id="a_edge23_Node000001_Node000012"><a xlink:title=" ">
<path fill="none" stroke="#63b8ff" d="M1205.19,-342.21C1187.16,-373.89 1147.9,-434.91 1097.25,-467 1089.54,-471.88 1080.93,-475.82 1072.09,-478.98"/>
<polygon fill="#63b8ff" stroke="#63b8ff" points="1208.14,-344.1 1209.93,-333.65 1202.02,-340.7 1208.14,-344.1"/>
</a>
</g>
</g>
<!-- Node13 -->
<g id="Node000013" class="node">
<title>Node13</title>
<g id="a_Node000013"><a xlink:href="classinterficie_1_1_vista_consultar_estadistiques.html#a72ea2d682e9b49e5fa9a21c42187f581" target="_top" xlink:title="Constructor principal de la vista.">
<polygon fill="white" stroke="#666666" points="1097.25,-440 895.25,-440 895.25,-408 1097.25,-408 1097.25,-440"/>
<text text-anchor="start" x="903.25" y="-426.5" font-family="Helvetica,sans-Serif" font-size="10.00">interficie.VistaConsultar</text>
<text text-anchor="middle" x="996.25" y="-414.5" font-family="Helvetica,sans-Serif" font-size="10.00">Estadistiques.VistaConsultarEstadistiques</text>
</a>
</g>
</g>
<!-- Node1&#45;&gt;Node13 -->
<g id="edge25_Node000001_Node000013" class="edge">
<title>Node1&#45;&gt;Node13</title>
<g id="a_edge25_Node000001_Node000013"><a xlink:title=" ">
<path fill="none" stroke="#63b8ff" d="M1194.44,-339.14C1171.55,-356.55 1133.73,-383.14 1097.25,-399 1089.95,-402.18 1082.16,-405 1074.28,-407.51"/>
<polygon fill="#63b8ff" stroke="#63b8ff" points="1196.32,-342.11 1202.09,-333.23 1192.03,-336.58 1196.32,-342.11"/>
</a>
</g>
</g>
<!-- Node14 -->
<g id="Node000014" class="node">
<title>Node14</title>
<g id="a_Node000014"><a xlink:href="classinterficie_1_1_vista_consultar_ranking.html#a86d8edbe84e816fcf7c14b51a8d2e214" target="_top" xlink:title="Constructor de la classe.">
<polygon fill="white" stroke="#666666" points="1074,-372 918.5,-372 918.5,-340 1074,-340 1074,-372"/>
<text text-anchor="start" x="926.5" y="-358.5" font-family="Helvetica,sans-Serif" font-size="10.00">interficie.VistaConsultar</text>
<text text-anchor="middle" x="996.25" y="-346.5" font-family="Helvetica,sans-Serif" font-size="10.00">Ranking.VistaConsultarRanking</text>
</a>
</g>
</g>
<!-- Node1&#45;&gt;Node14 -->
<g id="edge27_Node000001_Node000014" class="edge">
<title>Node1&#45;&gt;Node14</title>
<g id="a_edge27_Node000001_Node000014"><a xlink:title=" ">
<path fill="none" stroke="#63b8ff" d="M1137.38,-334.22C1116.88,-337.41 1094.81,-340.84 1074.39,-344.01"/>
<polygon fill="#63b8ff" stroke="#63b8ff" points="1137.74,-337.71 1147.09,-332.71 1136.67,-330.79 1137.74,-337.71"/>
</a>
</g>
</g>
<!-- Node16 -->
<g id="Node000016" class="node">
<title>Node16</title>
<g id="a_Node000016"><a xlink:href="classinterficie_1_1_vista_crear_avatar.html#ae0d9f95418da2ecb046e19ce8d9f8d0b" target="_top" xlink:title="Constructor de la finestra VistaCrearAvatar.">
<polygon fill="white" stroke="#666666" points="1063.12,-304 929.38,-304 929.38,-272 1063.12,-272 1063.12,-304"/>
<text text-anchor="start" x="937.38" y="-290.5" font-family="Helvetica,sans-Serif" font-size="10.00">interficie.VistaCrearAvatar.</text>
<text text-anchor="middle" x="996.25" y="-278.5" font-family="Helvetica,sans-Serif" font-size="10.00">VistaCrearAvatar</text>
</a>
</g>
</g>
<!-- Node1&#45;&gt;Node16 -->
<g id="edge31_Node000001_Node000016" class="edge">
<title>Node1&#45;&gt;Node16</title>
<g id="a_edge31_Node000001_Node000016"><a xlink:title=" ">
<path fill="none" stroke="#63b8ff" d="M1137.25,-309.76C1113.02,-305.99 1086.61,-301.89 1063.32,-298.27"/>
<polygon fill="#63b8ff" stroke="#63b8ff" points="1136.67,-313.21 1147.09,-311.29 1137.74,-306.29 1136.67,-313.21"/>
</a>
</g>
</g>
<!-- Node18 -->
<g id="Node000018" class="node">
<title>Node18</title>
<g id="a_Node000018"><a xlink:href="classinterficie_1_1_vista_crear_partida.html#a2f8245af959f715f5a43d233fdf6a564" target="_top" xlink:title="Crea una nova finestra per a la creació d&#39;una partida de Scrabble.">
<polygon fill="white" stroke="#666666" points="1064.25,-236 928.25,-236 928.25,-204 1064.25,-204 1064.25,-236"/>
<text text-anchor="start" x="936.25" y="-222.5" font-family="Helvetica,sans-Serif" font-size="10.00">interficie.VistaCrearPartida.</text>
<text text-anchor="middle" x="996.25" y="-210.5" font-family="Helvetica,sans-Serif" font-size="10.00">VistaCrearPartida</text>
</a>
</g>
</g>
<!-- Node1&#45;&gt;Node18 -->
<g id="edge35_Node000001_Node000018" class="edge">
<title>Node1&#45;&gt;Node18</title>
<g id="a_edge35_Node000001_Node000018"><a xlink:title=" ">
<path fill="none" stroke="#63b8ff" d="M1185.81,-306.43C1161.94,-294.25 1127.68,-277.09 1097.25,-263 1077.53,-253.87 1055.35,-244.26 1036.89,-236.45"/>
<polygon fill="#63b8ff" stroke="#63b8ff" points="1184.15,-309.51 1194.64,-310.95 1187.34,-303.28 1184.15,-309.51"/>
</a>
</g>
</g>
<!-- Node19 -->
<g id="Node000019" class="node">
<title>Node19</title>
<g id="a_Node000019"><a xlink:href="classinterficie_1_1_vista_crear_perfil.html#aea921123ade57f0e42263807a1842aaf" target="_top" xlink:title="Constructor que crea la finestra per crear un perfil.">
<polygon fill="white" stroke="#666666" points="1060.12,-168 932.38,-168 932.38,-136 1060.12,-136 1060.12,-168"/>
<text text-anchor="start" x="940.38" y="-154.5" font-family="Helvetica,sans-Serif" font-size="10.00">interficie.VistaCrearPerfil.</text>
<text text-anchor="middle" x="996.25" y="-142.5" font-family="Helvetica,sans-Serif" font-size="10.00">VistaCrearPerfil</text>
</a>
</g>
</g>
<!-- Node1&#45;&gt;Node19 -->
<g id="edge37_Node000001_Node000019" class="edge">
<title>Node1&#45;&gt;Node19</title>
<g id="a_edge37_Node000001_Node000019"><a xlink:title=" ">
<path fill="none" stroke="#63b8ff" d="M1201.97,-302.52C1181.55,-275.35 1141.27,-225.93 1097.25,-195 1081.86,-184.19 1063.33,-175.29 1046.42,-168.44"/>
<polygon fill="#63b8ff" stroke="#63b8ff" points="1199.13,-304.58 1207.89,-310.55 1204.77,-300.42 1199.13,-304.58"/>
</a>
</g>
</g>
<!-- Node20 -->
<g id="Node000020" class="node">
<title>Node20</title>
<g id="a_Node000020"><a xlink:href="classinterficie_1_1_vista_iniciar_sessio.html#afc5613ff799374e1f28b0e885c6cc264" target="_top" xlink:title="Constructor que crea la vista d&#39;iniciar sessió.">
<polygon fill="white" stroke="#666666" points="1065,-100 927.5,-100 927.5,-68 1065,-68 1065,-100"/>
<text text-anchor="start" x="935.5" y="-86.5" font-family="Helvetica,sans-Serif" font-size="10.00">interficie.VistaIniciarSessio.</text>
<text text-anchor="middle" x="996.25" y="-74.5" font-family="Helvetica,sans-Serif" font-size="10.00">VistaIniciarSessio</text>
</a>
</g>
</g>
<!-- Node1&#45;&gt;Node20 -->
<g id="edge39_Node000001_Node000020" class="edge">
<title>Node1&#45;&gt;Node20</title>
<g id="a_edge39_Node000001_Node000020"><a xlink:title=" ">
<path fill="none" stroke="#63b8ff" d="M1208.25,-300.96C1192.83,-261.74 1154.76,-176.92 1097.25,-127 1084.19,-115.66 1067.69,-106.94 1051.88,-100.4"/>
<polygon fill="#63b8ff" stroke="#63b8ff" points="1204.93,-302.07 1211.77,-310.17 1211.47,-299.58 1204.93,-302.07"/>
</a>
</g>
</g>
<!-- Node21 -->
<g id="Node000021" class="node">
<title>Node21</title>
<g id="a_Node000021"><a xlink:href="classinterficie_1_1_vista_ranking_partida.html#a412c49ef97f9f0ed0146f97c7004722b" target="_top" xlink:title="Constructor que inicialitza i mostra la finestra de rànquing.">
<polygon fill="white" stroke="#666666" points="1070.25,-32 922.25,-32 922.25,0 1070.25,0 1070.25,-32"/>
<text text-anchor="start" x="930.25" y="-18.5" font-family="Helvetica,sans-Serif" font-size="10.00">interficie.VistaRankingPartida.</text>
<text text-anchor="middle" x="996.25" y="-6.5" font-family="Helvetica,sans-Serif" font-size="10.00">VistaRankingPartida</text>
</a>
</g>
</g>
<!-- Node1&#45;&gt;Node21 -->
<g id="edge41_Node000001_Node000021" class="edge">
<title>Node1&#45;&gt;Node21</title>
<g id="a_edge41_Node000001_Node000021"><a xlink:title=" ">
<path fill="none" stroke="#63b8ff" d="M1211.86,-300.57C1201.33,-251.45 1169.09,-129.56 1097.25,-59 1085.52,-47.48 1070.21,-38.82 1055.12,-32.41"/>
<polygon fill="#63b8ff" stroke="#63b8ff" points="1208.39,-301.08 1213.83,-310.18 1215.25,-299.68 1208.39,-301.08"/>
</a>
</g>
</g>
<!-- Node3 -->
<g id="Node000003" class="node">
<title>Node3</title>
<g id="a_Node000003"><a xlink:href="classinterficie_1_1_vista_partida.html#a7855e7a9cc41e1450c37054781ba6309" target="_top" xlink:title="Inicialitza els components de la interfície gràfica.">
<polygon fill="white" stroke="#666666" points="843.5,-670 708.25,-670 708.25,-650 843.5,-650 843.5,-670"/>
<text text-anchor="middle" x="775.88" y="-656.5" font-family="Helvetica,sans-Serif" font-size="10.00">interficie.VistaPartida.initUI</text>
</a>
</g>
</g>
<!-- Node2&#45;&gt;Node3 -->
<g id="edge2_Node000002_Node000003" class="edge">
<title>Node2&#45;&gt;Node3</title>
<g id="a_edge2_Node000002_Node000003"><a xlink:title=" ">
<path fill="none" stroke="#63b8ff" d="M908.57,-637.08C884.66,-641.24 859.25,-645.67 837.19,-649.5"/>
<polygon fill="#63b8ff" stroke="#63b8ff" points="909.05,-640.55 918.3,-635.39 907.85,-633.66 909.05,-640.55"/>
</a>
</g>
</g>
<!-- Node4 -->
<g id="Node000004" class="node">
<title>Node4</title>
<g id="a_Node000004"><a xlink:href="classinterficie_1_1_vista_partida.html#abce8626a6a3750affe851e1f8bea2cb3" target="_top" xlink:title="Constructor de la classe VistaPartida.">
<polygon fill="white" stroke="#666666" points="656.5,-638 544.5,-638 544.5,-606 656.5,-606 656.5,-638"/>
<text text-anchor="start" x="552.5" y="-624.5" font-family="Helvetica,sans-Serif" font-size="10.00">interficie.VistaPartida.</text>
<text text-anchor="middle" x="600.5" y="-612.5" font-family="Helvetica,sans-Serif" font-size="10.00">VistaPartida</text>
</a>
</g>
</g>
<!-- Node3&#45;&gt;Node4 -->
<g id="edge3_Node000003_Node000004" class="edge">
<title>Node3&#45;&gt;Node4</title>
<g id="a_edge3_Node000003_Node000004"><a xlink:title=" ">
<path fill="none" stroke="#63b8ff" d="M738.71,-646.47C715.03,-640.06 683.62,-632.93 656.82,-627.78"/>
<polygon fill="#63b8ff" stroke="#63b8ff" points="737.63,-649.8 748.21,-649.14 739.53,-643.06 737.63,-649.8"/>
</a>
</g>
</g>
<!-- Node4&#45;&gt;Node2 -->
<g id="edge14_Node000004_Node000002" class="edge">
<title>Node4&#45;&gt;Node2</title>
<g id="a_edge14_Node000004_Node000002"><a xlink:title=" ">
<path fill="none" stroke="#63b8ff" d="M667.96,-622C737.64,-622 846.93,-622 919.8,-622"/>
<polygon fill="#63b8ff" stroke="#63b8ff" points="668.22,-618.5 658.22,-622 668.22,-625.5 668.22,-618.5"/>
</a>
</g>
</g>
<!-- Node4&#45;&gt;Node3 -->
<g id="edge17_Node000004_Node000003" class="edge">
<title>Node4&#45;&gt;Node3</title>
<g id="a_edge17_Node000004_Node000003"><a xlink:title=" ">
<path fill="none" stroke="#63b8ff" d="M659.73,-641.18C675.17,-644.94 691.97,-648.68 707.84,-651.9"/>
<polygon fill="#63b8ff" stroke="#63b8ff" points="660.77,-637.83 650.22,-638.81 659.08,-644.62 660.77,-637.83"/>
</a>
</g>
</g>
<!-- Node4&#45;&gt;Node4 -->
<g id="edge18_Node000004_Node000004" class="edge">
<title>Node4&#45;&gt;Node4</title>
<g id="a_edge18_Node000004_Node000004"><a xlink:title=" ">
<path fill="none" stroke="#63b8ff" d="M627.16,-649.71C622.72,-653.48 613.83,-656 600.5,-656 576.12,-656 566.6,-647.58 571.94,-638.44"/>
<polygon fill="#63b8ff" stroke="#63b8ff" points="630.6,-650.38 628.81,-639.94 623.7,-649.21 630.6,-650.38"/>
</a>
</g>
</g>
<!-- Node5 -->
<g id="Node000005" class="node">
<title>Node5</title>
<g id="a_Node000005"><a xlink:href="classinterficie_1_1_vista_partida.html#a6bd7550fc714ba5195c8b55ffe3d973c" target="_top" xlink:title="Afegeix les fitxes d&#39;un jugador al seu rack.">
<polygon fill="white" stroke="#666666" points="508.5,-688 372.5,-688 372.5,-656 508.5,-656 508.5,-688"/>
<text text-anchor="start" x="380.5" y="-674.5" font-family="Helvetica,sans-Serif" font-size="10.00">interficie.VistaPartida.afegir</text>
<text text-anchor="middle" x="440.5" y="-662.5" font-family="Helvetica,sans-Serif" font-size="10.00">FitxesARack</text>
</a>
</g>
</g>
<!-- Node4&#45;&gt;Node5 -->
<g id="edge4_Node000004_Node000005" class="edge">
<title>Node4&#45;&gt;Node5</title>
<g id="a_edge4_Node000004_Node000005"><a xlink:title=" ">
<path fill="none" stroke="#63b8ff" d="M536.97,-641.79C522.61,-646.33 507.49,-651.12 493.62,-655.51"/>
<polygon fill="#63b8ff" stroke="#63b8ff" points="537.84,-645.18 546.32,-638.83 535.73,-638.51 537.84,-645.18"/>
</a>
</g>
</g>
<!-- Node8 -->
<g id="Node000008" class="node">
<title>Node8</title>
<g id="a_Node000008"><a xlink:href="classinterficie_1_1_vista_partida.html#ae6809bc2e7efc03077c111367571f788" target="_top" xlink:title="Afegeix maquetes al rack de l&#39;oponent.">
<polygon fill="white" stroke="#666666" points="508.5,-638 372.5,-638 372.5,-606 508.5,-606 508.5,-638"/>
<text text-anchor="start" x="380.5" y="-624.5" font-family="Helvetica,sans-Serif" font-size="10.00">interficie.VistaPartida.afegir</text>
<text text-anchor="middle" x="440.5" y="-612.5" font-family="Helvetica,sans-Serif" font-size="10.00">MaquetesARack</text>
</a>
</g>
</g>
<!-- Node4&#45;&gt;Node8 -->
<g id="edge12_Node000004_Node000008" class="edge">
<title>Node4&#45;&gt;Node8</title>
<g id="a_edge12_Node000004_Node000008"><a xlink:title=" ">
<path fill="none" stroke="#63b8ff" d="M532.83,-622C524.93,-622 516.87,-622 508.96,-622"/>
<polygon fill="#63b8ff" stroke="#63b8ff" points="532.73,-625.5 542.73,-622 532.73,-618.5 532.73,-625.5"/>
</a>
</g>
</g>
<!-- Node9 -->
<g id="Node000009" class="node">
<title>Node9</title>
<g id="a_Node000009"><a xlink:href="classinterficie_1_1_vista_partida.html#ab47b596fbbd6a79289d4b9d7f5b5e068" target="_top" xlink:title="Crea un panell amb la informació d&#39;un jugador.">
<polygon fill="white" stroke="#666666" points="328.25,-575 194.5,-575 194.5,-543 328.25,-543 328.25,-575"/>
<text text-anchor="start" x="202.5" y="-561.5" font-family="Helvetica,sans-Serif" font-size="10.00">interficie.VistaPartida.crear</text>
<text text-anchor="middle" x="261.38" y="-549.5" font-family="Helvetica,sans-Serif" font-size="10.00">PanelJugador</text>
</a>
</g>
</g>
<!-- Node4&#45;&gt;Node9 -->
<g id="edge15_Node000004_Node000009" class="edge">
<title>Node4&#45;&gt;Node9</title>
<g id="a_edge15_Node000004_Node000009"><a xlink:title=" ">
<path fill="none" stroke="#63b8ff" d="M552.65,-601.37C538.68,-595.94 523.17,-590.59 508.5,-587 448.66,-572.34 378.73,-565.32 328.73,-561.98"/>
<polygon fill="#63b8ff" stroke="#63b8ff" points="551,-604.48 561.59,-604.95 553.61,-597.99 551,-604.48"/>
</a>
</g>
</g>
<!-- Node6 -->
<g id="Node000006" class="node">
<title>Node6</title>
<g id="a_Node000006"><a xlink:href="classinterficie_1_1_vista_partida.html#a0698d192124492ebfd8a3b029a6fa23c" target="_top" xlink:title="Actualitza els racks dels jugadors.">
<polygon fill="white" stroke="#666666" points="336.5,-638 186.25,-638 186.25,-606 336.5,-606 336.5,-638"/>
<text text-anchor="start" x="194.25" y="-624.5" font-family="Helvetica,sans-Serif" font-size="10.00">interficie.VistaPartida.refrescar</text>
<text text-anchor="middle" x="261.38" y="-612.5" font-family="Helvetica,sans-Serif" font-size="10.00">RackJugadors</text>
</a>
</g>
</g>
<!-- Node5&#45;&gt;Node6 -->
<g id="edge5_Node000005_Node000006" class="edge">
<title>Node5&#45;&gt;Node6</title>
<g id="a_edge5_Node000005_Node000006"><a xlink:title=" ">
<path fill="none" stroke="#63b8ff" d="M370.81,-652.61C354.3,-647.95 336.81,-643.01 320.81,-638.49"/>
<polygon fill="#63b8ff" stroke="#63b8ff" points="369.47,-655.87 380.05,-655.22 371.37,-649.13 369.47,-655.87"/>
</a>
</g>
</g>
<!-- Node6&#45;&gt;Node3 -->
<g id="edge6_Node000006_Node000003" class="edge">
<title>Node6&#45;&gt;Node3</title>
<g id="a_edge6_Node000006_Node000003"><a xlink:title=" ">
<path fill="none" stroke="#63b8ff" d="M287.88,-646.01C308.8,-663.95 340.15,-687.03 372.5,-697 506.58,-738.32 676.75,-692.49 744.78,-670.47"/>
<polygon fill="#63b8ff" stroke="#63b8ff" points="290.25,-643.43 280.44,-639.44 285.62,-648.68 290.25,-643.43"/>
</a>
</g>
</g>
<!-- Node6&#45;&gt;Node4 -->
<g id="edge11_Node000006_Node000004" class="edge">
<title>Node6&#45;&gt;Node4</title>
<g id="a_edge11_Node000006_Node000004"><a xlink:title=" ">
<path fill="none" stroke="#63b8ff" d="M334.59,-603.19C347.15,-600.62 360.14,-598.38 372.5,-597 432.57,-590.27 448.6,-588.92 508.5,-597 521.81,-598.8 535.94,-602.01 548.98,-605.54"/>
<polygon fill="#63b8ff" stroke="#63b8ff" points="334.22,-599.69 325.18,-605.22 335.69,-606.54 334.22,-599.69"/>
</a>
</g>
</g>
<!-- Node7 -->
<g id="Node000007" class="node">
<title>Node7</title>
<g id="a_Node000007"><a xlink:href="classinterficie_1_1_vista_partida.html#a485041b781e81c64fb5414207ff21d2a" target="_top" xlink:title="Actualitza la informació de la partida.">
<polygon fill="white" stroke="#666666" points="150.25,-613 0,-613 0,-581 150.25,-581 150.25,-613"/>
<text text-anchor="start" x="8" y="-599.5" font-family="Helvetica,sans-Serif" font-size="10.00">interficie.VistaPartida.refrescar</text>
<text text-anchor="middle" x="75.12" y="-587.5" font-family="Helvetica,sans-Serif" font-size="10.00">Informacio</text>
</a>
</g>
</g>
<!-- Node6&#45;&gt;Node7 -->
<g id="edge7_Node000006_Node000007" class="edge">
<title>Node6&#45;&gt;Node7</title>
<g id="a_edge7_Node000006_Node000007"><a xlink:title=" ">
<path fill="none" stroke="#63b8ff" d="M174.64,-610.37C166.58,-609.27 158.46,-608.17 150.51,-607.09"/>
<polygon fill="#63b8ff" stroke="#63b8ff" points="174.08,-613.82 184.46,-611.7 175.03,-606.89 174.08,-613.82"/>
</a>
</g>
</g>
<!-- Node7&#45;&gt;Node3 -->
<g id="edge8_Node000007_Node000003" class="edge">
<title>Node7&#45;&gt;Node3</title>
<g id="a_edge8_Node000007_Node000003"><a xlink:title=" ">
<path fill="none" stroke="#63b8ff" d="M114.32,-618.77C169.3,-648.66 274.86,-700.78 372.5,-719 496.58,-742.15 533.63,-745.92 656.5,-717 695.8,-707.75 737.34,-684.04 759.24,-670.29"/>
<polygon fill="#63b8ff" stroke="#63b8ff" points="116.12,-615.76 105.67,-614.01 112.75,-621.89 116.12,-615.76"/>
</a>
</g>
</g>
<!-- Node7&#45;&gt;Node4 -->
<g id="edge10_Node000007_Node000004" class="edge">
<title>Node7&#45;&gt;Node4</title>
<g id="a_edge10_Node000007_Node000004"><a xlink:title=" ">
<path fill="none" stroke="#63b8ff" d="M106.36,-573.93C127.49,-559.32 157.03,-541.77 186.25,-534 325.19,-497.07 374.58,-509.73 508.5,-562 535.29,-572.46 562.35,-591.65 579.91,-605.52"/>
<polygon fill="#63b8ff" stroke="#63b8ff" points="104.35,-571.07 98.23,-579.72 108.41,-576.77 104.35,-571.07"/>
</a>
</g>
</g>
<!-- Node7&#45;&gt;Node7 -->
<g id="edge9_Node000007_Node000007" class="edge">
<title>Node7&#45;&gt;Node7</title>
<g id="a_edge9_Node000007_Node000007"><a xlink:title=" ">
<path fill="none" stroke="#63b8ff" d="M106.16,-624.71C100.99,-628.48 90.64,-631 75.12,-631 46.75,-631 35.67,-622.58 41.87,-613.44"/>
<polygon fill="#63b8ff" stroke="#63b8ff" points="109.59,-625.42 108.08,-614.93 102.72,-624.07 109.59,-625.42"/>
</a>
</g>
</g>
<!-- Node8&#45;&gt;Node6 -->
<g id="edge13_Node000008_Node000006" class="edge">
<title>Node8&#45;&gt;Node6</title>
<g id="a_edge13_Node000008_Node000006"><a xlink:title=" ">
<path fill="none" stroke="#63b8ff" d="M360.54,-622C352.63,-622 344.61,-622 336.75,-622"/>
<polygon fill="#63b8ff" stroke="#63b8ff" points="360.52,-625.5 370.52,-622 360.52,-618.5 360.52,-625.5"/>
</a>
</g>
</g>
<!-- Node9&#45;&gt;Node7 -->
<g id="edge16_Node000009_Node000007" class="edge">
<title>Node9&#45;&gt;Node7</title>
<g id="a_edge16_Node000009_Node000007"><a xlink:title=" ">
<path fill="none" stroke="#63b8ff" d="M183.03,-574.95C172.28,-577.17 161.25,-579.44 150.55,-581.65"/>
<polygon fill="#63b8ff" stroke="#63b8ff" points="183.55,-578.42 192.63,-572.97 182.13,-571.56 183.55,-578.42"/>
</a>
</g>
</g>
<!-- Node11 -->
<g id="Node000011" class="node">
<title>Node11</title>
<g id="a_Node000011"><a xlink:href="classinterficie_1_1_vista_consultar_normes.html#adfd2eba4d3f7f6f2d67a1655b14be2de" target="_top" xlink:title="Constructora.">
<polygon fill="white" stroke="#666666" points="852.12,-576 699.62,-576 699.62,-544 852.12,-544 852.12,-576"/>
<text text-anchor="start" x="707.62" y="-562.5" font-family="Helvetica,sans-Serif" font-size="10.00">interficie.VistaConsultar</text>
<text text-anchor="middle" x="775.88" y="-550.5" font-family="Helvetica,sans-Serif" font-size="10.00">Normes.VistaConsultarNormes</text>
</a>
</g>
</g>
<!-- Node10&#45;&gt;Node11 -->
<g id="edge20_Node000010_Node000011" class="edge">
<title>Node10&#45;&gt;Node11</title>
<g id="a_edge20_Node000010_Node000011"><a xlink:title=" ">
<path fill="none" stroke="#63b8ff" d="M923.68,-553.62C900.89,-553.15 875.61,-553.13 852.54,-553.54"/>
<polygon fill="#63b8ff" stroke="#63b8ff" points="923.41,-557.11 933.49,-553.86 923.57,-550.12 923.41,-557.11"/>
</a>
</g>
</g>
<!-- Node11&#45;&gt;Node10 -->
<g id="edge21_Node000011_Node000010" class="edge">
<title>Node11&#45;&gt;Node10</title>
<g id="a_edge21_Node000011_Node000010"><a xlink:title=" ">
<path fill="none" stroke="#63b8ff" d="M863.75,-566.62C887.62,-566.9 912.98,-566.73 935,-566.11"/>
<polygon fill="#63b8ff" stroke="#63b8ff" points="864.1,-563.13 854.05,-566.48 864,-570.13 864.1,-563.13"/>
</a>
</g>
</g>
<!-- Node11&#45;&gt;Node11 -->
<g id="edge22_Node000011_Node000011" class="edge">
<title>Node11&#45;&gt;Node11</title>
<g id="a_edge22_Node000011_Node000011"><a xlink:title=" ">
<path fill="none" stroke="#63b8ff" d="M805.1,-587.71C800.23,-591.48 790.49,-594 775.88,-594 749.16,-594 738.72,-585.58 744.57,-576.44"/>
<polygon fill="#63b8ff" stroke="#63b8ff" points="808.53,-588.4 806.91,-577.93 801.65,-587.13 808.53,-588.4"/>
</a>
</g>
</g>
<!-- Node12&#45;&gt;Node12 -->
<g id="edge24_Node000012_Node000012" class="edge">
<title>Node12&#45;&gt;Node12</title>
<g id="a_edge24_Node000012_Node000012"><a xlink:title=" ">
<path fill="none" stroke="#63b8ff" d="M1033.23,-519.54C1027.2,-523.41 1014.87,-526 996.25,-526 962.68,-526 949.56,-517.58 956.91,-508.44"/>
<polygon fill="#63b8ff" stroke="#63b8ff" points="1036.62,-520.43 1035.28,-509.92 1029.78,-518.98 1036.62,-520.43"/>
</a>
</g>
</g>
<!-- Node13&#45;&gt;Node13 -->
<g id="edge26_Node000013_Node000013" class="edge">
<title>Node13&#45;&gt;Node13</title>
<g id="a_edge26_Node000013_Node000013"><a xlink:title=" ">
<path fill="none" stroke="#63b8ff" d="M1033.23,-451.54C1027.2,-455.41 1014.87,-458 996.25,-458 962.68,-458 949.56,-449.58 956.91,-440.44"/>
<polygon fill="#63b8ff" stroke="#63b8ff" points="1036.62,-452.43 1035.28,-441.92 1029.78,-450.98 1036.62,-452.43"/>
</a>
</g>
</g>
<!-- Node14&#45;&gt;Node14 -->
<g id="edge30_Node000014_Node000014" class="edge">
<title>Node14&#45;&gt;Node14</title>
<g id="a_edge30_Node000014_Node000014"><a xlink:title=" ">
<path fill="none" stroke="#63b8ff" d="M1033.23,-383.54C1027.2,-387.41 1014.87,-390 996.25,-390 962.68,-390 949.56,-381.58 956.91,-372.44"/>
<polygon fill="#63b8ff" stroke="#63b8ff" points="1036.62,-384.43 1035.28,-373.92 1029.78,-382.98 1036.62,-384.43"/>
</a>
</g>
</g>
<!-- Node15 -->
<g id="Node000015" class="node">
<title>Node15</title>
<g id="a_Node000015"><a xlink:href="classinterficie_1_1_vista_consultar_ranking.html#ac8bcd1db92441badfd8650cd3c54025b" target="_top" xlink:title="Carrega i mostra el rànquing a partir del límit indicat.">
<polygon fill="white" stroke="#666666" points="839,-372 712.75,-372 712.75,-340 839,-340 839,-372"/>
<text text-anchor="start" x="720.75" y="-358.5" font-family="Helvetica,sans-Serif" font-size="10.00">interficie.VistaConsultar</text>
<text text-anchor="middle" x="775.88" y="-346.5" font-family="Helvetica,sans-Serif" font-size="10.00">Ranking.carregarRanking</text>
</a>
</g>
</g>
<!-- Node14&#45;&gt;Node15 -->
<g id="edge28_Node000014_Node000015" class="edge">
<title>Node14&#45;&gt;Node15</title>
<g id="a_edge28_Node000014_Node000015"><a xlink:title=" ">
<path fill="none" stroke="#63b8ff" d="M906.88,-349.36C884.17,-349.12 860.22,-349.28 839.15,-349.84"/>
<polygon fill="#63b8ff" stroke="#63b8ff" points="906.7,-352.86 916.75,-349.5 906.8,-345.86 906.7,-352.86"/>
</a>
</g>
</g>
<!-- Node15&#45;&gt;Node14 -->
<g id="edge29_Node000015_Node000014" class="edge">
<title>Node15&#45;&gt;Node14</title>
<g id="a_edge29_Node000015_Node000014"><a xlink:title=" ">
<path fill="none" stroke="#63b8ff" d="M850.66,-362.42C872.43,-362.84 896.3,-362.86 918.26,-362.48"/>
<polygon fill="#63b8ff" stroke="#63b8ff" points="850.74,-358.93 840.66,-362.2 850.58,-365.92 850.74,-358.93"/>
</a>
</g>
</g>
<!-- Node16&#45;&gt;Node16 -->
<g id="edge34_Node000016_Node000016" class="edge">
<title>Node16&#45;&gt;Node16</title>
<g id="a_edge34_Node000016_Node000016"><a xlink:title=" ">
<path fill="none" stroke="#63b8ff" d="M1033.23,-315.54C1027.2,-319.41 1014.87,-322 996.25,-322 962.68,-322 949.56,-313.58 956.91,-304.44"/>
<polygon fill="#63b8ff" stroke="#63b8ff" points="1036.62,-316.43 1035.28,-305.92 1029.78,-314.98 1036.62,-316.43"/>
</a>
</g>
</g>
<!-- Node17 -->
<g id="Node000017" class="node">
<title>Node17</title>
<g id="a_Node000017"><a xlink:href="classinterficie_1_1_vista_crear_avatar.html#a8815061362fcbb6852ed1013c55cf773" target="_top" xlink:title="Mostra un diàleg modal per seleccionar la imatge de perfil de l&#39;usuari.">
<polygon fill="white" stroke="#666666" points="859.25,-304 692.5,-304 692.5,-272 859.25,-272 859.25,-304"/>
<text text-anchor="start" x="700.5" y="-290.5" font-family="Helvetica,sans-Serif" font-size="10.00">interficie.VistaCrearAvatar.mostrar</text>
<text text-anchor="middle" x="775.88" y="-278.5" font-family="Helvetica,sans-Serif" font-size="10.00">SelectorImagenes</text>
</a>
</g>
</g>
<!-- Node16&#45;&gt;Node17 -->
<g id="edge32_Node000016_Node000017" class="edge">
<title>Node16&#45;&gt;Node17</title>
<g id="a_edge32_Node000016_Node000017"><a xlink:title=" ">
<path fill="none" stroke="#63b8ff" d="M917.85,-281.51C898.91,-281.19 878.56,-281.17 859.38,-281.43"/>
<polygon fill="#63b8ff" stroke="#63b8ff" points="917.56,-285.01 927.62,-281.71 917.7,-278.01 917.56,-285.01"/>
</a>
</g>
</g>
<!-- Node17&#45;&gt;Node16 -->
<g id="edge33_Node000017_Node000016" class="edge">
<title>Node17&#45;&gt;Node16</title>
<g id="a_edge33_Node000017_Node000016"><a xlink:title=" ">
<path fill="none" stroke="#63b8ff" d="M870.84,-294.69C890.47,-294.84 910.77,-294.7 929.14,-294.26"/>
<polygon fill="#63b8ff" stroke="#63b8ff" points="870.93,-291.19 860.89,-294.58 870.86,-298.19 870.93,-291.19"/>
</a>
</g>
</g>
<!-- Node18&#45;&gt;Node18 -->
<g id="edge36_Node000018_Node000018" class="edge">
<title>Node18&#45;&gt;Node18</title>
<g id="a_edge36_Node000018_Node000018"><a xlink:title=" ">
<path fill="none" stroke="#63b8ff" d="M1033.23,-247.54C1027.2,-251.41 1014.87,-254 996.25,-254 962.68,-254 949.56,-245.58 956.91,-236.44"/>
<polygon fill="#63b8ff" stroke="#63b8ff" points="1036.62,-248.43 1035.28,-237.92 1029.78,-246.98 1036.62,-248.43"/>
</a>
</g>
</g>
<!-- Node19&#45;&gt;Node19 -->
<g id="edge38_Node000019_Node000019" class="edge">
<title>Node19&#45;&gt;Node19</title>
<g id="a_edge38_Node000019_Node000019"><a xlink:title=" ">
<path fill="none" stroke="#63b8ff" d="M1033.23,-179.54C1027.2,-183.41 1014.87,-186 996.25,-186 962.68,-186 949.56,-177.58 956.91,-168.44"/>
<polygon fill="#63b8ff" stroke="#63b8ff" points="1036.62,-180.43 1035.28,-169.92 1029.78,-178.98 1036.62,-180.43"/>
</a>
</g>
</g>
<!-- Node20&#45;&gt;Node20 -->
<g id="edge40_Node000020_Node000020" class="edge">
<title>Node20&#45;&gt;Node20</title>
<g id="a_edge40_Node000020_Node000020"><a xlink:title=" ">
<path fill="none" stroke="#63b8ff" d="M1033.23,-111.54C1027.2,-115.41 1014.87,-118 996.25,-118 962.68,-118 949.56,-109.58 956.91,-100.44"/>
<polygon fill="#63b8ff" stroke="#63b8ff" points="1036.62,-112.43 1035.28,-101.92 1029.78,-110.98 1036.62,-112.43"/>
</a>
</g>
</g>
<!-- Node21&#45;&gt;Node21 -->
<g id="edge42_Node000021_Node000021" class="edge">
<title>Node21&#45;&gt;Node21</title>
<g id="a_edge42_Node000021_Node000021"><a xlink:title=" ">
<path fill="none" stroke="#63b8ff" d="M1033.23,-43.54C1027.2,-47.41 1014.87,-50 996.25,-50 962.68,-50 949.56,-41.58 956.91,-32.44"/>
<polygon fill="#63b8ff" stroke="#63b8ff" points="1036.62,-44.43 1035.28,-33.92 1029.78,-42.98 1036.62,-44.43"/>
</a>
</g>
</g>
</g>
</svg>
