<?xml version="1.0" encoding="UTF-8" standalone="no"?>
<!DOCTYPE svg PUBLIC "-//W3C//DTD SVG 1.1//EN"
 "http://www.w3.org/Graphics/SVG/1.1/DTD/svg11.dtd">
<!-- Generated by graphviz version 12.2.1 (20241206.2353)
 -->
<!-- Title: controladors.CtrlDomini.eliminarPartida Pages: 1 -->
<svg width="564pt" height="40pt"
 viewBox="0.00 0.00 563.75 40.00" xmlns="http://www.w3.org/2000/svg" xmlns:xlink="http://www.w3.org/1999/xlink">
<g id="graph0" class="graph" transform="scale(1 1) rotate(0) translate(4 36)">
<title>controladors.CtrlDomini.eliminarPartida</title>
<!-- Node1 -->
<g id="Node000001" class="node">
<title>Node1</title>
<g id="a_Node000001"><a xlink:title="Elimina el .json de la partida indicada al paràmetre.">
<polygon fill="#999999" stroke="#666666" points="155.5,-32 0,-32 0,0 155.5,0 155.5,-32"/>
<text text-anchor="start" x="8" y="-18.5" font-family="Helvetica,sans-Serif" font-size="10.00">controladors.CtrlDomini.eliminar</text>
<text text-anchor="middle" x="77.75" y="-6.5" font-family="Helvetica,sans-Serif" font-size="10.00">Partida</text>
</a>
</g>
</g>
<!-- Node2 -->
<g id="Node000002" class="node">
<title>Node2</title>
<g id="a_Node000002"><a xlink:href="classcontroladors_1_1_ctrl_persistencia.html#a3daeaccbdea3d7d1f4cae106f952bb70" target="_top" xlink:title="Elimina una partida de l&#39;emmagatzematge persistent.">
<polygon fill="white" stroke="#666666" points="370.25,-32 191.5,-32 191.5,0 370.25,0 370.25,-32"/>
<text text-anchor="start" x="199.5" y="-18.5" font-family="Helvetica,sans-Serif" font-size="10.00">controladors.CtrlPersistencia.eliminar</text>
<text text-anchor="middle" x="280.88" y="-6.5" font-family="Helvetica,sans-Serif" font-size="10.00">Partida</text>
</a>
</g>
</g>
<!-- Node1&#45;&gt;Node2 -->
<g id="edge1_Node000001_Node000002" class="edge">
<title>Node1&#45;&gt;Node2</title>
<g id="a_edge1_Node000001_Node000002"><a xlink:title=" ">
<path fill="none" stroke="#63b8ff" d="M155.93,-16C163.77,-16 171.8,-16 179.82,-16"/>
<polygon fill="#63b8ff" stroke="#63b8ff" points="179.63,-19.5 189.63,-16 179.63,-12.5 179.63,-19.5"/>
</a>
</g>
</g>
<!-- Node3 -->
<g id="Node000003" class="node">
<title>Node3</title>
<g id="a_Node000003"><a xlink:href="classpersistencia_1_1_partida_i_o.html#a5c2c99bab58abf77d06e20995a12080f" target="_top" xlink:title="Elimina una partida esborrant el seu fitxer JSON.">
<polygon fill="white" stroke="#666666" points="555.75,-32 406.25,-32 406.25,0 555.75,0 555.75,-32"/>
<text text-anchor="start" x="414.25" y="-18.5" font-family="Helvetica,sans-Serif" font-size="10.00">persistencia.PartidaIO.eliminar</text>
<text text-anchor="middle" x="481" y="-6.5" font-family="Helvetica,sans-Serif" font-size="10.00">Partida</text>
</a>
</g>
</g>
<!-- Node2&#45;&gt;Node3 -->
<g id="edge2_Node000002_Node000003" class="edge">
<title>Node2&#45;&gt;Node3</title>
<g id="a_edge2_Node000002_Node000003"><a xlink:title=" ">
<path fill="none" stroke="#63b8ff" d="M370.51,-16C378.56,-16 386.71,-16 394.73,-16"/>
<polygon fill="#63b8ff" stroke="#63b8ff" points="394.45,-19.5 404.45,-16 394.45,-12.5 394.45,-19.5"/>
</a>
</g>
</g>
</g>
</svg>
