<?xml version="1.0" encoding="UTF-8" standalone="no"?>
<!DOCTYPE svg PUBLIC "-//W3C//DTD SVG 1.1//EN"
 "http://www.w3.org/Graphics/SVG/1.1/DTD/svg11.dtd">
<!-- Generated by graphviz version 12.2.1 (20241206.2353)
 -->
<!-- Title: interficie.VistaIniciarSessio Pages: 1 -->
<svg width="135pt" height="324pt"
 viewBox="0.00 0.00 134.50 324.00" xmlns="http://www.w3.org/2000/svg" xmlns:xlink="http://www.w3.org/1999/xlink">
<g id="graph0" class="graph" transform="scale(1 1) rotate(0) translate(4 320)">
<title>interficie.VistaIniciarSessio</title>
<!-- Node1 -->
<g id="Node000001" class="node">
<title>Node1</title>
<g id="a_Node000001"><a xlink:title="Classe que representa la finestra principal del menú de l&#39;aplicació Scrabble un cop s&#39;ha iniciat sess...">
<polygon fill="#999999" stroke="none" points="126.5,-228 0,-228 0,0 126.5,0 126.5,-228"/>
<text text-anchor="start" x="4" y="-214.5" font-family="Helvetica,sans-Serif" font-size="10.00">interficie.VistaIniciarSessio</text>
<text text-anchor="start" x="8.06" y="-198.5" font-family="Helvetica,sans-Serif" font-size="10.00">&#45;</text>
<text text-anchor="start" x="19.12" y="-198.5" font-family="Helvetica,sans-Serif" font-size="10.00">panellIniciarSessio</text>
<text text-anchor="start" x="8.06" y="-182.5" font-family="Helvetica,sans-Serif" font-size="10.00">&#45;</text>
<text text-anchor="start" x="19.12" y="-182.5" font-family="Helvetica,sans-Serif" font-size="10.00">formWrapper</text>
<text text-anchor="start" x="8.06" y="-166.5" font-family="Helvetica,sans-Serif" font-size="10.00">&#45;</text>
<text text-anchor="start" x="19.12" y="-166.5" font-family="Helvetica,sans-Serif" font-size="10.00">labelLogo</text>
<text text-anchor="start" x="8.06" y="-150.5" font-family="Helvetica,sans-Serif" font-size="10.00">&#45;</text>
<text text-anchor="start" x="19.12" y="-150.5" font-family="Helvetica,sans-Serif" font-size="10.00">labelAnimal</text>
<text text-anchor="start" x="8.06" y="-134.5" font-family="Helvetica,sans-Serif" font-size="10.00">&#45;</text>
<text text-anchor="start" x="19.12" y="-134.5" font-family="Helvetica,sans-Serif" font-size="10.00">campContrasenya</text>
<text text-anchor="start" x="8.06" y="-118.5" font-family="Helvetica,sans-Serif" font-size="10.00">&#45;</text>
<text text-anchor="start" x="19.12" y="-118.5" font-family="Helvetica,sans-Serif" font-size="10.00">botoIniciar</text>
<text text-anchor="start" x="8.06" y="-102.5" font-family="Helvetica,sans-Serif" font-size="10.00">&#45;</text>
<text text-anchor="start" x="19.12" y="-102.5" font-family="Helvetica,sans-Serif" font-size="10.00">botoTornar</text>
<text text-anchor="start" x="8.06" y="-86.5" font-family="Helvetica,sans-Serif" font-size="10.00">&#45;</text>
<text text-anchor="start" x="19.12" y="-86.5" font-family="Helvetica,sans-Serif" font-size="10.00">WIDTH_BASE</text>
<text text-anchor="start" x="8.06" y="-70.5" font-family="Helvetica,sans-Serif" font-size="10.00">&#45;</text>
<text text-anchor="start" x="19.12" y="-70.5" font-family="Helvetica,sans-Serif" font-size="10.00">HEIGHT_BASE</text>
<text text-anchor="start" x="8.06" y="-54.5" font-family="Helvetica,sans-Serif" font-size="10.00">&#45;</text>
<text text-anchor="start" x="19.12" y="-54.5" font-family="Helvetica,sans-Serif" font-size="10.00">WIDTH_TORNAR</text>
<text text-anchor="start" x="19.12" y="-38.5" font-family="Helvetica,sans-Serif" font-size="10.00">and 8 more...</text>
<text text-anchor="start" x="6.56" y="-22.5" font-family="Helvetica,sans-Serif" font-size="10.00">+</text>
<text text-anchor="start" x="19.12" y="-22.5" font-family="Helvetica,sans-Serif" font-size="10.00">VistaIniciarSessio()</text>
<text text-anchor="start" x="8.06" y="-6.5" font-family="Helvetica,sans-Serif" font-size="10.00">&#45;</text>
<text text-anchor="start" x="19.12" y="-6.5" font-family="Helvetica,sans-Serif" font-size="10.00">escalarComponentes()</text>
<polygon fill="#666666" stroke="#666666" points="0,-210 0,-210 126.5,-210 126.5,-210 0,-210"/>
<polygon fill="#666666" stroke="#666666" points="0,-34 0,-34 17.12,-34 17.12,-34 0,-34"/>
<polygon fill="#666666" stroke="#666666" points="17.12,-34 17.12,-34 126.5,-34 126.5,-34 17.12,-34"/>
<polygon fill="none" stroke="#666666" points="0,0 0,-228 126.5,-228 126.5,0 0,0"/>
</a>
</g>
</g>
<!-- Node2 -->
<g id="Node000002" class="node">
<title>Node2</title>
<g id="a_Node000002"><a xlink:title=" ">
<polygon fill="white" stroke="none" points="83.75,-316 42.75,-316 42.75,-264 83.75,-264 83.75,-316"/>
<text text-anchor="start" x="46.75" y="-302.5" font-family="Helvetica,sans-Serif" font-size="10.00">JFrame</text>
<text text-anchor="start" x="61.75" y="-286.5" font-family="Helvetica,sans-Serif" font-size="10.00"> </text>
<text text-anchor="start" x="61.75" y="-270.5" font-family="Helvetica,sans-Serif" font-size="10.00"> </text>
<polygon fill="#666666" stroke="#666666" points="42.75,-298 42.75,-298 83.75,-298 83.75,-298 42.75,-298"/>
<polygon fill="#666666" stroke="#666666" points="42.75,-282 42.75,-282 83.75,-282 83.75,-282 42.75,-282"/>
<polygon fill="none" stroke="#666666" points="42.75,-264 42.75,-316 83.75,-316 83.75,-264 42.75,-264"/>
</a>
</g>
</g>
<!-- Node2&#45;&gt;Node1 -->
<g id="edge1_Node000001_Node000002" class="edge">
<title>Node2&#45;&gt;Node1</title>
<g id="a_edge1_Node000001_Node000002"><a xlink:title=" ">
<path fill="none" stroke="#63b8ff" d="M63.25,-252.72C63.25,-245.03 63.25,-236.53 63.25,-227.64"/>
<polygon fill="none" stroke="#63b8ff" points="59.75,-252.56 63.25,-262.56 66.75,-252.56 59.75,-252.56"/>
</a>
</g>
</g>
</g>
</svg>
