<?xml version="1.0" encoding="UTF-8" standalone="no"?>
<!DOCTYPE svg PUBLIC "-//W3C//DTD SVG 1.1//EN"
 "http://www.w3.org/Graphics/SVG/1.1/DTD/svg11.dtd">
<!-- Generated by graphviz version 12.2.1 (20241206.2353)
 -->
<!-- Title: interficie.VistaConsultarEstadistiques.VistaConsultarEstadistiques Pages: 1 -->
<svg width="815pt" height="428pt"
 viewBox="0.00 0.00 815.25 428.00" xmlns="http://www.w3.org/2000/svg" xmlns:xlink="http://www.w3.org/1999/xlink">
<g id="graph0" class="graph" transform="scale(1 1) rotate(0) translate(4 424)">
<title>interficie.VistaConsultarEstadistiques.VistaConsultarEstadistiques</title>
<!-- Node1 -->
<g id="Node000001" class="node">
<title>Node1</title>
<g id="a_Node000001"><a xlink:title="Constructor principal de la vista.">
<polygon fill="#999999" stroke="#666666" points="202,-207 0,-207 0,-175 202,-175 202,-207"/>
<text text-anchor="start" x="8" y="-193.5" font-family="Helvetica,sans-Serif" font-size="10.00">interficie.VistaConsultar</text>
<text text-anchor="middle" x="101" y="-181.5" font-family="Helvetica,sans-Serif" font-size="10.00">Estadistiques.VistaConsultarEstadistiques</text>
</a>
</g>
</g>
<!-- Node1&#45;&gt;Node1 -->
<g id="edge16_Node000001_Node000001" class="edge">
<title>Node1&#45;&gt;Node1</title>
<g id="a_edge16_Node000001_Node000001"><a xlink:title=" ">
<path fill="none" stroke="#63b8ff" d="M61.59,-207.44C54.23,-216.58 67.37,-225 101,-225 119.65,-225 132,-222.41 138.05,-218.54"/>
<polygon fill="#63b8ff" stroke="#63b8ff" points="141.44,-219.43 140.09,-208.92 134.59,-217.97 141.44,-219.43"/>
</a>
</g>
</g>
<!-- Node2 -->
<g id="Node000002" class="node">
<title>Node2</title>
<g id="a_Node000002"><a xlink:href="$classinterficie_1_1utils_1_1_tools.html#aad14ef36a2a433a18d49c46a83531892" xlink:title="Actualitza la imatge d&#39;un JLabel redimensionant&#45;la per adaptar&#45;se a les mides màximes indicades mante...">
<polygon fill="white" stroke="#666666" points="395.75,-282 247.75,-282 247.75,-250 395.75,-250 395.75,-282"/>
<text text-anchor="start" x="255.75" y="-268.5" font-family="Helvetica,sans-Serif" font-size="10.00">interficie.utils.Tools.actualitzar</text>
<text text-anchor="middle" x="321.75" y="-256.5" font-family="Helvetica,sans-Serif" font-size="10.00">Imatge</text>
</a>
</g>
</g>
<!-- Node1&#45;&gt;Node2 -->
<g id="edge1_Node000001_Node000002" class="edge">
<title>Node1&#45;&gt;Node2</title>
<g id="a_edge1_Node000001_Node000002"><a xlink:title=" ">
<path fill="none" stroke="#63b8ff" d="M144.65,-207.41C171.34,-217.5 206.51,-230.46 238,-241 243.07,-242.7 248.33,-244.4 253.63,-246.09"/>
<polygon fill="#63b8ff" stroke="#63b8ff" points="252.49,-249.4 263.08,-249.05 254.58,-242.72 252.49,-249.4"/>
</a>
</g>
</g>
<!-- Node3 -->
<g id="Node000003" class="node">
<title>Node3</title>
<g id="a_Node000003"><a xlink:href="$classinterficie_1_1_vista_consultar_estadistiques.html#a1f4f83c8a4fdc86e24ef38f338645fbf" xlink:title="Afegeix un listener a la llista per mostrar estadístiques quan es selecciona un avatar.">
<polygon fill="white" stroke="#666666" points="401.75,-232 241.75,-232 241.75,-200 401.75,-200 401.75,-232"/>
<text text-anchor="start" x="249.75" y="-218.5" font-family="Helvetica,sans-Serif" font-size="10.00">interficie.VistaConsultar</text>
<text text-anchor="middle" x="321.75" y="-206.5" font-family="Helvetica,sans-Serif" font-size="10.00">Estadistiques.afegirListenerLlista</text>
</a>
</g>
</g>
<!-- Node1&#45;&gt;Node3 -->
<g id="edge2_Node000001_Node000003" class="edge">
<title>Node1&#45;&gt;Node3</title>
<g id="a_edge2_Node000001_Node000003"><a xlink:title=" ">
<path fill="none" stroke="#63b8ff" d="M202.41,-202.48C211.57,-203.52 220.82,-204.58 229.89,-205.62"/>
<polygon fill="#63b8ff" stroke="#63b8ff" points="229.43,-209.09 239.76,-206.74 230.22,-202.13 229.43,-209.09"/>
</a>
</g>
</g>
<!-- Node14 -->
<g id="Node000014" class="node">
<title>Node14</title>
<g id="a_Node000014"><a xlink:href="$classinterficie_1_1_vista_consultar_estadistiques.html#a1750040263d1dc3000d715a201aee3b2" xlink:title="Carrega els avatars dels jugadors registrats al model de la llista.">
<polygon fill="white" stroke="#666666" points="395.38,-182 248.12,-182 248.12,-150 395.38,-150 395.38,-182"/>
<text text-anchor="start" x="256.12" y="-168.5" font-family="Helvetica,sans-Serif" font-size="10.00">interficie.VistaConsultar</text>
<text text-anchor="middle" x="321.75" y="-156.5" font-family="Helvetica,sans-Serif" font-size="10.00">Estadistiques.carregarAvatars</text>
</a>
</g>
</g>
<!-- Node1&#45;&gt;Node14 -->
<g id="edge13_Node000001_Node000014" class="edge">
<title>Node1&#45;&gt;Node14</title>
<g id="a_edge13_Node000001_Node000014"><a xlink:title=" ">
<path fill="none" stroke="#63b8ff" d="M202.41,-179.52C213.75,-178.23 225.21,-176.92 236.32,-175.65"/>
<polygon fill="#63b8ff" stroke="#63b8ff" points="236.7,-179.13 246.23,-174.52 235.9,-172.17 236.7,-179.13"/>
</a>
</g>
</g>
<!-- Node16 -->
<g id="Node000016" class="node">
<title>Node16</title>
<g id="a_Node000016"><a xlink:href="$classcontroladors_1_1_ctrl_presentacio.html#a66901a833c124fd1acc592cea93f4e6d" xlink:title="Torna a la vista anterior a l&#39;actual.">
<polygon fill="white" stroke="#666666" points="405.5,-132 238,-132 238,-112 405.5,-112 405.5,-132"/>
<text text-anchor="middle" x="321.75" y="-118.5" font-family="Helvetica,sans-Serif" font-size="10.00">controladors.CtrlPresentacio.tornar</text>
</a>
</g>
</g>
<!-- Node1&#45;&gt;Node16 -->
<g id="edge15_Node000001_Node000016" class="edge">
<title>Node1&#45;&gt;Node16</title>
<g id="a_edge15_Node000001_Node000016"><a xlink:title=" ">
<path fill="none" stroke="#63b8ff" d="M142.61,-174.54C169.41,-164.05 205.45,-150.68 238,-141 244.94,-138.94 252.27,-136.96 259.58,-135.12"/>
<polygon fill="#63b8ff" stroke="#63b8ff" points="260.24,-138.57 269.13,-132.8 258.58,-131.76 260.24,-138.57"/>
</a>
</g>
</g>
<!-- Node4 -->
<g id="Node000004" class="node">
<title>Node4</title>
<g id="a_Node000004"><a xlink:href="$classinterficie_1_1_vista_consultar_estadistiques.html#a2d04a42f93b8d16629d5795a935ae87e" xlink:title="Mostra les estadístiques d’un avatar seleccionat a l’àrea d’estadístiques.">
<polygon fill="white" stroke="#666666" points="612,-232 441.5,-232 441.5,-200 612,-200 612,-232"/>
<text text-anchor="start" x="449.5" y="-218.5" font-family="Helvetica,sans-Serif" font-size="10.00">interficie.VistaConsultar</text>
<text text-anchor="middle" x="526.75" y="-206.5" font-family="Helvetica,sans-Serif" font-size="10.00">Estadistiques.mostrarEstadistiques</text>
</a>
</g>
</g>
<!-- Node3&#45;&gt;Node4 -->
<g id="edge3_Node000003_Node000004" class="edge">
<title>Node3&#45;&gt;Node4</title>
<g id="a_edge3_Node000003_Node000004"><a xlink:title=" ">
<path fill="none" stroke="#63b8ff" d="M402.11,-216C411.2,-216 420.54,-216 429.82,-216"/>
<polygon fill="#63b8ff" stroke="#63b8ff" points="429.57,-219.5 439.57,-216 429.57,-212.5 429.57,-219.5"/>
</a>
</g>
</g>
<!-- Node5 -->
<g id="Node000005" class="node">
<title>Node5</title>
<g id="a_Node000005"><a xlink:href="$classdomini_1_1jugadors_1_1_jugador.html#abd263319ed47cf1469e301659e15dd26" xlink:title="Retorna el nom del jugador.">
<polygon fill="white" stroke="#666666" points="807.25,-420 648,-420 648,-400 807.25,-400 807.25,-420"/>
<text text-anchor="middle" x="727.62" y="-406.5" font-family="Helvetica,sans-Serif" font-size="10.00">domini.jugadors.Jugador.getNom</text>
</a>
</g>
</g>
<!-- Node4&#45;&gt;Node5 -->
<g id="edge4_Node000004_Node000005" class="edge">
<title>Node4&#45;&gt;Node5</title>
<g id="a_edge4_Node000004_Node000005"><a xlink:title=" ">
<path fill="none" stroke="#63b8ff" d="M534.1,-232.24C548.63,-267.14 587.73,-349.51 648,-391 649.94,-392.34 651.97,-393.58 654.06,-394.74"/>
<polygon fill="#63b8ff" stroke="#63b8ff" points="652.33,-397.79 662.87,-398.89 655.32,-391.46 652.33,-397.79"/>
</a>
</g>
</g>
<!-- Node6 -->
<g id="Node000006" class="node">
<title>Node6</title>
<g id="a_Node000006"><a xlink:href="$classdomini_1_1jugadors_1_1_avatar.html#ae03a80bc5530cb674e348c164d5bce96" xlink:title="Obté el nombre de partides abandonades.">
<polygon fill="white" stroke="#666666" points="793.75,-382 661.5,-382 661.5,-350 793.75,-350 793.75,-382"/>
<text text-anchor="start" x="669.5" y="-368.5" font-family="Helvetica,sans-Serif" font-size="10.00">domini.jugadors.Avatar.get</text>
<text text-anchor="middle" x="727.62" y="-356.5" font-family="Helvetica,sans-Serif" font-size="10.00">Partides_abandonades</text>
</a>
</g>
</g>
<!-- Node4&#45;&gt;Node6 -->
<g id="edge5_Node000004_Node000006" class="edge">
<title>Node4&#45;&gt;Node6</title>
<g id="a_edge5_Node000004_Node000006"><a xlink:title=" ">
<path fill="none" stroke="#63b8ff" d="M539.14,-232.29C558.51,-258.84 600.44,-311.42 648,-341 650.12,-342.32 652.33,-343.58 654.58,-344.77"/>
<polygon fill="#63b8ff" stroke="#63b8ff" points="652.87,-347.84 663.41,-348.98 655.89,-341.52 652.87,-347.84"/>
</a>
</g>
</g>
<!-- Node7 -->
<g id="Node000007" class="node">
<title>Node7</title>
<g id="a_Node000007"><a xlink:href="$classdomini_1_1jugadors_1_1_avatar.html#a09267d0c45d69d64bb99bdccc476f37f" xlink:title="Obté el nombre total de partides guanyades.">
<polygon fill="white" stroke="#666666" points="793.75,-332 661.5,-332 661.5,-300 793.75,-300 793.75,-332"/>
<text text-anchor="start" x="669.5" y="-318.5" font-family="Helvetica,sans-Serif" font-size="10.00">domini.jugadors.Avatar.get</text>
<text text-anchor="middle" x="727.62" y="-306.5" font-family="Helvetica,sans-Serif" font-size="10.00">Partides_guanyades</text>
</a>
</g>
</g>
<!-- Node4&#45;&gt;Node7 -->
<g id="edge6_Node000004_Node000007" class="edge">
<title>Node4&#45;&gt;Node7</title>
<g id="a_edge6_Node000004_Node000007"><a xlink:title=" ">
<path fill="none" stroke="#63b8ff" d="M550.28,-232.46C573.75,-249.01 612.04,-274.39 648,-291 651.49,-292.61 655.11,-294.16 658.79,-295.64"/>
<polygon fill="#63b8ff" stroke="#63b8ff" points="657.29,-298.81 667.88,-299.09 659.77,-292.27 657.29,-298.81"/>
</a>
</g>
</g>
<!-- Node8 -->
<g id="Node000008" class="node">
<title>Node8</title>
<g id="a_Node000008"><a xlink:href="$classdomini_1_1jugadors_1_1_avatar.html#ab4f6aa10583b4cefd2fefcad13ef0a1d" xlink:title="Obté el nombre de partides guanyades contra altres jugadors.">
<polygon fill="white" stroke="#666666" points="798.25,-282 657,-282 657,-250 798.25,-250 798.25,-282"/>
<text text-anchor="start" x="665" y="-268.5" font-family="Helvetica,sans-Serif" font-size="10.00">domini.jugadors.Avatar.get</text>
<text text-anchor="middle" x="727.62" y="-256.5" font-family="Helvetica,sans-Serif" font-size="10.00">Partides_guanyades_jugador</text>
</a>
</g>
</g>
<!-- Node4&#45;&gt;Node8 -->
<g id="edge7_Node000004_Node000008" class="edge">
<title>Node4&#45;&gt;Node8</title>
<g id="a_edge7_Node000004_Node000008"><a xlink:title=" ">
<path fill="none" stroke="#63b8ff" d="M593.14,-232.44C611.41,-237.03 631.42,-242.06 650.26,-246.8"/>
<polygon fill="#63b8ff" stroke="#63b8ff" points="649.17,-250.14 659.72,-249.18 650.88,-243.35 649.17,-250.14"/>
</a>
</g>
</g>
<!-- Node9 -->
<g id="Node000009" class="node">
<title>Node9</title>
<g id="a_Node000009"><a xlink:href="$classdomini_1_1jugadors_1_1_avatar.html#aab66b96891906cf55c60e50ff8b8096d" xlink:title="Obté el nombre de partides guanyades contra la màquina.">
<polygon fill="white" stroke="#666666" points="800.88,-232 654.38,-232 654.38,-200 800.88,-200 800.88,-232"/>
<text text-anchor="start" x="662.38" y="-218.5" font-family="Helvetica,sans-Serif" font-size="10.00">domini.jugadors.Avatar.get</text>
<text text-anchor="middle" x="727.62" y="-206.5" font-family="Helvetica,sans-Serif" font-size="10.00">Partides_guanyades_maquina</text>
</a>
</g>
</g>
<!-- Node4&#45;&gt;Node9 -->
<g id="edge8_Node000004_Node000009" class="edge">
<title>Node4&#45;&gt;Node9</title>
<g id="a_edge8_Node000004_Node000009"><a xlink:title=" ">
<path fill="none" stroke="#63b8ff" d="M612.38,-216C622.44,-216 632.71,-216 642.76,-216"/>
<polygon fill="#63b8ff" stroke="#63b8ff" points="642.48,-219.5 652.48,-216 642.48,-212.5 642.48,-219.5"/>
</a>
</g>
</g>
<!-- Node10 -->
<g id="Node000010" class="node">
<title>Node10</title>
<g id="a_Node000010"><a xlink:href="$classdomini_1_1jugadors_1_1_avatar.html#a71b0c5addcb4d9e43dde6f2b21319849" xlink:title="Obté el nombre de partides jugades contra altres jugadors.">
<polygon fill="white" stroke="#666666" points="793.75,-182 661.5,-182 661.5,-150 793.75,-150 793.75,-182"/>
<text text-anchor="start" x="669.5" y="-168.5" font-family="Helvetica,sans-Serif" font-size="10.00">domini.jugadors.Avatar.get</text>
<text text-anchor="middle" x="727.62" y="-156.5" font-family="Helvetica,sans-Serif" font-size="10.00">Partides_jugades_jugador</text>
</a>
</g>
</g>
<!-- Node4&#45;&gt;Node10 -->
<g id="edge9_Node000004_Node000010" class="edge">
<title>Node4&#45;&gt;Node10</title>
<g id="a_edge9_Node000004_Node000010"><a xlink:title=" ">
<path fill="none" stroke="#63b8ff" d="M593.14,-199.56C611.41,-194.97 631.42,-189.94 650.26,-185.2"/>
<polygon fill="#63b8ff" stroke="#63b8ff" points="650.88,-188.65 659.72,-182.82 649.17,-181.86 650.88,-188.65"/>
</a>
</g>
</g>
<!-- Node11 -->
<g id="Node000011" class="node">
<title>Node11</title>
<g id="a_Node000011"><a xlink:href="$classdomini_1_1jugadors_1_1_avatar.html#a9e6ce3724548357bff45d01a82757e98" xlink:title="Obté el nombre de partides jugades contra la màquina.">
<polygon fill="white" stroke="#666666" points="794.12,-132 661.12,-132 661.12,-100 794.12,-100 794.12,-132"/>
<text text-anchor="start" x="669.12" y="-118.5" font-family="Helvetica,sans-Serif" font-size="10.00">domini.jugadors.Avatar.get</text>
<text text-anchor="middle" x="727.62" y="-106.5" font-family="Helvetica,sans-Serif" font-size="10.00">Partides_jugades_maquina</text>
</a>
</g>
</g>
<!-- Node4&#45;&gt;Node11 -->
<g id="edge10_Node000004_Node000011" class="edge">
<title>Node4&#45;&gt;Node11</title>
<g id="a_edge10_Node000004_Node000011"><a xlink:title=" ">
<path fill="none" stroke="#63b8ff" d="M597.12,-199.59C602.37,-197.12 607.4,-194.27 612,-191 634.32,-175.14 625.83,-157.07 648,-141 649.55,-139.87 651.16,-138.8 652.81,-137.76"/>
<polygon fill="#63b8ff" stroke="#63b8ff" points="654.25,-140.97 661.34,-133.1 650.89,-134.83 654.25,-140.97"/>
</a>
</g>
</g>
<!-- Node12 -->
<g id="Node000012" class="node">
<title>Node12</title>
<g id="a_Node000012"><a xlink:href="$classdomini_1_1jugadors_1_1_avatar.html#a36dd848bbc2c712120c9c53d892cc5fd" xlink:title="Obté el nombre total de partides jugades.">
<polygon fill="white" stroke="#666666" points="793.75,-82 661.5,-82 661.5,-50 793.75,-50 793.75,-82"/>
<text text-anchor="start" x="669.5" y="-68.5" font-family="Helvetica,sans-Serif" font-size="10.00">domini.jugadors.Avatar.get</text>
<text text-anchor="middle" x="727.62" y="-56.5" font-family="Helvetica,sans-Serif" font-size="10.00">PartidesJugades</text>
</a>
</g>
</g>
<!-- Node4&#45;&gt;Node12 -->
<g id="edge11_Node000004_Node000012" class="edge">
<title>Node4&#45;&gt;Node12</title>
<g id="a_edge11_Node000004_Node000012"><a xlink:title=" ">
<path fill="none" stroke="#63b8ff" d="M600.62,-199.54C604.72,-197.08 608.56,-194.25 612,-191 646.34,-158.57 613.97,-123.77 648,-91 649.23,-89.82 650.51,-88.7 651.83,-87.62"/>
<polygon fill="#63b8ff" stroke="#63b8ff" points="653.63,-90.64 659.96,-82.14 649.71,-84.84 653.63,-90.64"/>
</a>
</g>
</g>
<!-- Node13 -->
<g id="Node000013" class="node">
<title>Node13</title>
<g id="a_Node000013"><a xlink:href="$classdomini_1_1jugadors_1_1_avatar.html#a34ab1967919207e6fbee5a4893579dc5" xlink:title="Obté la puntuació màxima obtinguda en una paraula.">
<polygon fill="white" stroke="#666666" points="793.75,-32 661.5,-32 661.5,0 793.75,0 793.75,-32"/>
<text text-anchor="start" x="669.5" y="-18.5" font-family="Helvetica,sans-Serif" font-size="10.00">domini.jugadors.Avatar.get</text>
<text text-anchor="middle" x="727.62" y="-6.5" font-family="Helvetica,sans-Serif" font-size="10.00">Puntuacio_max_paraula</text>
</a>
</g>
</g>
<!-- Node4&#45;&gt;Node13 -->
<g id="edge12_Node000004_Node000013" class="edge">
<title>Node4&#45;&gt;Node13</title>
<g id="a_edge12_Node000004_Node000013"><a xlink:title=" ">
<path fill="none" stroke="#63b8ff" d="M601.44,-199.71C605.28,-197.21 608.85,-194.32 612,-191 659.18,-141.26 601.3,-91.2 648,-41 649.31,-39.59 650.69,-38.27 652.15,-37.01"/>
<polygon fill="#63b8ff" stroke="#63b8ff" points="653.77,-40.15 659.89,-31.5 649.71,-34.45 653.77,-40.15"/>
</a>
</g>
</g>
<!-- Node15 -->
<g id="Node000015" class="node">
<title>Node15</title>
<g id="a_Node000015"><a xlink:href="$classcontroladors_1_1_ctrl_presentacio.html#a1d233e08aadf10e279ffef4b329ffd8a" xlink:title="Retorna el conjunt de jugadors registrats al sistema.">
<polygon fill="white" stroke="#666666" points="604.88,-182 448.62,-182 448.62,-150 604.88,-150 604.88,-182"/>
<text text-anchor="start" x="456.62" y="-168.5" font-family="Helvetica,sans-Serif" font-size="10.00">controladors.CtrlPresentacio.get</text>
<text text-anchor="middle" x="526.75" y="-156.5" font-family="Helvetica,sans-Serif" font-size="10.00">JugadorsRegistrats</text>
</a>
</g>
</g>
<!-- Node14&#45;&gt;Node15 -->
<g id="edge14_Node000014_Node000015" class="edge">
<title>Node14&#45;&gt;Node15</title>
<g id="a_edge14_Node000014_Node000015"><a xlink:title=" ">
<path fill="none" stroke="#63b8ff" d="M395.75,-166C409.07,-166 423.1,-166 436.83,-166"/>
<polygon fill="#63b8ff" stroke="#63b8ff" points="436.74,-169.5 446.74,-166 436.74,-162.5 436.74,-169.5"/>
</a>
</g>
</g>
</g>
</svg>
