<?xml version="1.0" encoding="UTF-8" standalone="no"?>
<!DOCTYPE svg PUBLIC "-//W3C//DTD SVG 1.1//EN"
 "http://www.w3.org/Graphics/SVG/1.1/DTD/svg11.dtd">
<!-- Generated by graphviz version 12.2.1 (20241206.2353)
 -->
<!-- Title: interficie.VistaCrearAvatar.mostrarSelectorImagenes Pages: 1 -->
<svg width="732pt" height="147pt"
 viewBox="0.00 0.00 732.00 147.28" xmlns="http://www.w3.org/2000/svg" xmlns:xlink="http://www.w3.org/1999/xlink">
<g id="graph0" class="graph" transform="scale(1 1) rotate(0) translate(4 143.28)">
<title>interficie.VistaCrearAvatar.mostrarSelectorImagenes</title>
<!-- Node1 -->
<g id="Node000001" class="node">
<title>Node1</title>
<g id="a_Node000001"><a xlink:title="Mostra un diàleg modal per seleccionar la imatge de perfil de l&#39;usuari.">
<polygon fill="#999999" stroke="#666666" points="166.75,-95 0,-95 0,-63 166.75,-63 166.75,-95"/>
<text text-anchor="start" x="8" y="-81.5" font-family="Helvetica,sans-Serif" font-size="10.00">interficie.VistaCrearAvatar.mostrar</text>
<text text-anchor="middle" x="83.38" y="-69.5" font-family="Helvetica,sans-Serif" font-size="10.00">SelectorImagenes</text>
</a>
</g>
</g>
<!-- Node2 -->
<g id="Node000002" class="node">
<title>Node2</title>
<g id="a_Node000002"><a xlink:href="$classinterficie_1_1_vista_crear_avatar.html#ae0d9f95418da2ecb046e19ce8d9f8d0b" xlink:title="Constructor de la finestra VistaCrearAvatar.">
<polygon fill="white" stroke="#666666" points="336.5,-95 202.75,-95 202.75,-63 336.5,-63 336.5,-95"/>
<text text-anchor="start" x="210.75" y="-81.5" font-family="Helvetica,sans-Serif" font-size="10.00">interficie.VistaCrearAvatar.</text>
<text text-anchor="middle" x="269.62" y="-69.5" font-family="Helvetica,sans-Serif" font-size="10.00">VistaCrearAvatar</text>
</a>
</g>
</g>
<!-- Node1&#45;&gt;Node2 -->
<g id="edge1_Node000001_Node000002" class="edge">
<title>Node1&#45;&gt;Node2</title>
<g id="a_edge1_Node000001_Node000002"><a xlink:title=" ">
<path fill="none" stroke="#63b8ff" d="M167.07,-72.28C175.04,-72.23 183.1,-72.24 191.02,-72.33"/>
<polygon fill="#63b8ff" stroke="#63b8ff" points="190.93,-75.82 200.98,-72.47 191.03,-68.82 190.93,-75.82"/>
</a>
</g>
</g>
<!-- Node2&#45;&gt;Node1 -->
<g id="edge6_Node000002_Node000001" class="edge">
<title>Node2&#45;&gt;Node1</title>
<g id="a_edge6_Node000002_Node000001"><a xlink:title=" ">
<path fill="none" stroke="#63b8ff" d="M202.49,-85.51C194.68,-85.66 186.61,-85.74 178.51,-85.75"/>
<polygon fill="#63b8ff" stroke="#63b8ff" points="178.59,-82.25 168.58,-85.72 178.57,-89.25 178.59,-82.25"/>
</a>
</g>
</g>
<!-- Node2&#45;&gt;Node2 -->
<g id="edge8_Node000002_Node000002" class="edge">
<title>Node2&#45;&gt;Node2</title>
<g id="a_edge8_Node000002_Node000002"><a xlink:title=" ">
<path fill="none" stroke="#63b8ff" d="M236.37,-95.44C230.17,-104.58 241.25,-113 269.62,-113 285.14,-113 295.49,-110.48 300.66,-106.71"/>
<polygon fill="#63b8ff" stroke="#63b8ff" points="304.09,-107.42 302.58,-96.93 297.22,-106.07 304.09,-107.42"/>
</a>
</g>
</g>
<!-- Node3 -->
<g id="Node000003" class="node">
<title>Node3</title>
<g id="a_Node000003"><a xlink:href="$classinterficie_1_1utils_1_1_tools.html#aad14ef36a2a433a18d49c46a83531892" xlink:title="Actualitza la imatge d&#39;un JLabel redimensionant&#45;la per adaptar&#45;se a les mides màximes indicades mante...">
<polygon fill="white" stroke="#666666" points="724,-117 576,-117 576,-85 724,-85 724,-117"/>
<text text-anchor="start" x="584" y="-103.5" font-family="Helvetica,sans-Serif" font-size="10.00">interficie.utils.Tools.actualitzar</text>
<text text-anchor="middle" x="650" y="-91.5" font-family="Helvetica,sans-Serif" font-size="10.00">Imatge</text>
</a>
</g>
</g>
<!-- Node2&#45;&gt;Node3 -->
<g id="edge2_Node000002_Node000003" class="edge">
<title>Node2&#45;&gt;Node3</title>
<g id="a_edge2_Node000002_Node000003"><a xlink:title=" ">
<path fill="none" stroke="#63b8ff" d="M295.78,-95.4C315.68,-107.36 344.67,-122.54 372.5,-129 445.02,-145.84 466.14,-138.33 540,-129 554.75,-127.14 570.36,-123.91 585.02,-120.29"/>
<polygon fill="#63b8ff" stroke="#63b8ff" points="585.74,-123.72 594.55,-117.84 584,-116.94 585.74,-123.72"/>
</a>
</g>
</g>
<!-- Node4 -->
<g id="Node000004" class="node">
<title>Node4</title>
<g id="a_Node000004"><a xlink:href="$classcontroladors_1_1_ctrl_presentacio.html#a4fa76d231d08867ff21eff04a379d280" xlink:title="Crea un nou avatar amb el nom i la imatge especificats.">
<polygon fill="white" stroke="#666666" points="538.5,-120 374,-120 374,-88 538.5,-88 538.5,-120"/>
<text text-anchor="start" x="382" y="-106.5" font-family="Helvetica,sans-Serif" font-size="10.00">controladors.CtrlPresentacio.crear</text>
<text text-anchor="middle" x="456.25" y="-94.5" font-family="Helvetica,sans-Serif" font-size="10.00">Avatar</text>
</a>
</g>
</g>
<!-- Node2&#45;&gt;Node4 -->
<g id="edge3_Node000002_Node000004" class="edge">
<title>Node2&#45;&gt;Node4</title>
<g id="a_edge3_Node000002_Node000004"><a xlink:title=" ">
<path fill="none" stroke="#63b8ff" d="M336.76,-87.95C345.1,-89.09 353.76,-90.26 362.42,-91.43"/>
<polygon fill="#63b8ff" stroke="#63b8ff" points="361.91,-94.89 372.29,-92.77 362.85,-87.96 361.91,-94.89"/>
</a>
</g>
</g>
<!-- Node5 -->
<g id="Node000005" class="node">
<title>Node5</title>
<g id="a_Node000005"><a xlink:href="$classinterficie_1_1_vista_crear_avatar.html#a275c320ec75c735937be368a8becfb46" xlink:title="Escala i posiciona els components segons la mida actual.">
<polygon fill="white" stroke="#666666" points="538.88,-70 373.62,-70 373.62,-38 538.88,-38 538.88,-70"/>
<text text-anchor="start" x="381.62" y="-56.5" font-family="Helvetica,sans-Serif" font-size="10.00">interficie.VistaCrearAvatar.escalar</text>
<text text-anchor="middle" x="456.25" y="-44.5" font-family="Helvetica,sans-Serif" font-size="10.00">Componentes</text>
</a>
</g>
</g>
<!-- Node2&#45;&gt;Node5 -->
<g id="edge4_Node000002_Node000005" class="edge">
<title>Node2&#45;&gt;Node5</title>
<g id="a_edge4_Node000002_Node000005"><a xlink:title=" ">
<path fill="none" stroke="#63b8ff" d="M336.76,-70.05C344.96,-68.93 353.46,-67.78 361.97,-66.63"/>
<polygon fill="#63b8ff" stroke="#63b8ff" points="362.21,-70.13 371.65,-65.32 361.27,-63.19 362.21,-70.13"/>
</a>
</g>
</g>
<!-- Node6 -->
<g id="Node000006" class="node">
<title>Node6</title>
<g id="a_Node000006"><a xlink:href="$classcontroladors_1_1_ctrl_presentacio.html#a66901a833c124fd1acc592cea93f4e6d" xlink:title="Torna a la vista anterior a l&#39;actual.">
<polygon fill="white" stroke="#666666" points="540,-20 372.5,-20 372.5,0 540,0 540,-20"/>
<text text-anchor="middle" x="456.25" y="-6.5" font-family="Helvetica,sans-Serif" font-size="10.00">controladors.CtrlPresentacio.tornar</text>
</a>
</g>
</g>
<!-- Node2&#45;&gt;Node6 -->
<g id="edge7_Node000002_Node000006" class="edge">
<title>Node2&#45;&gt;Node6</title>
<g id="a_edge7_Node000002_Node000006"><a xlink:title=" ">
<path fill="none" stroke="#63b8ff" d="M299.27,-62.72C319.27,-51.91 346.88,-38.09 372.5,-29 378.23,-26.97 384.26,-25.1 390.35,-23.39"/>
<polygon fill="#63b8ff" stroke="#63b8ff" points="391.08,-26.81 399.85,-20.87 389.29,-20.05 391.08,-26.81"/>
</a>
</g>
</g>
<!-- Node5&#45;&gt;Node3 -->
<g id="edge5_Node000005_Node000003" class="edge">
<title>Node5&#45;&gt;Node3</title>
<g id="a_edge5_Node000005_Node000003"><a xlink:title=" ">
<path fill="none" stroke="#63b8ff" d="M524.31,-70.44C539.35,-74.12 555.43,-78.06 570.87,-81.85"/>
<polygon fill="#63b8ff" stroke="#63b8ff" points="569.96,-85.23 580.5,-84.21 571.62,-78.43 569.96,-85.23"/>
</a>
</g>
</g>
</g>
</svg>
