<?xml version="1.0" encoding="UTF-8" standalone="no"?>
<!DOCTYPE svg PUBLIC "-//W3C//DTD SVG 1.1//EN"
 "http://www.w3.org/Graphics/SVG/1.1/DTD/svg11.dtd">
<!-- Generated by graphviz version 12.2.1 (20241206.2353)
 -->
<!-- Title: interficie.VistaCrearAvatar.escalarComponentes Pages: 1 -->
<svg width="546pt" height="58pt"
 viewBox="0.00 0.00 545.75 58.00" xmlns="http://www.w3.org/2000/svg" xmlns:xlink="http://www.w3.org/1999/xlink">
<g id="graph0" class="graph" transform="scale(1 1) rotate(0) translate(4 54)">
<title>interficie.VistaCrearAvatar.escalarComponentes</title>
<!-- Node1 -->
<g id="Node000001" class="node">
<title>Node1</title>
<g id="a_Node000001"><a xlink:title="Escala i posiciona els components segons la mida actual.">
<polygon fill="#999999" stroke="#666666" points="537.75,-32 372.5,-32 372.5,0 537.75,0 537.75,-32"/>
<text text-anchor="start" x="380.5" y="-18.5" font-family="Helvetica,sans-Serif" font-size="10.00">interficie.VistaCrearAvatar.escalar</text>
<text text-anchor="middle" x="455.12" y="-6.5" font-family="Helvetica,sans-Serif" font-size="10.00">Componentes</text>
</a>
</g>
</g>
<!-- Node2 -->
<g id="Node000002" class="node">
<title>Node2</title>
<g id="a_Node000002"><a xlink:href="$classinterficie_1_1_vista_crear_avatar.html#ae0d9f95418da2ecb046e19ce8d9f8d0b" xlink:title="Constructor de la finestra VistaCrearAvatar.">
<polygon fill="white" stroke="#666666" points="336.5,-32 202.75,-32 202.75,0 336.5,0 336.5,-32"/>
<text text-anchor="start" x="210.75" y="-18.5" font-family="Helvetica,sans-Serif" font-size="10.00">interficie.VistaCrearAvatar.</text>
<text text-anchor="middle" x="269.62" y="-6.5" font-family="Helvetica,sans-Serif" font-size="10.00">VistaCrearAvatar</text>
</a>
</g>
</g>
<!-- Node1&#45;&gt;Node2 -->
<g id="edge1_Node000001_Node000002" class="edge">
<title>Node1&#45;&gt;Node2</title>
<g id="a_edge1_Node000001_Node000002"><a xlink:title=" ">
<path fill="none" stroke="#63b8ff" d="M360.72,-16C352.7,-16 344.7,-16 336.96,-16"/>
<polygon fill="#63b8ff" stroke="#63b8ff" points="360.52,-19.5 370.52,-16 360.52,-12.5 360.52,-19.5"/>
</a>
</g>
</g>
<!-- Node2&#45;&gt;Node2 -->
<g id="edge4_Node000002_Node000002" class="edge">
<title>Node2&#45;&gt;Node2</title>
<g id="a_edge4_Node000002_Node000002"><a xlink:title=" ">
<path fill="none" stroke="#63b8ff" d="M300.54,-43.71C295.38,-47.48 285.08,-50 269.62,-50 241.37,-50 230.33,-41.58 236.51,-32.44"/>
<polygon fill="#63b8ff" stroke="#63b8ff" points="303.97,-44.41 302.45,-33.93 297.1,-43.07 303.97,-44.41"/>
</a>
</g>
</g>
<!-- Node3 -->
<g id="Node000003" class="node">
<title>Node3</title>
<g id="a_Node000003"><a xlink:href="$classinterficie_1_1_vista_crear_avatar.html#a8815061362fcbb6852ed1013c55cf773" xlink:title="Mostra un diàleg modal per seleccionar la imatge de perfil de l&#39;usuari.">
<polygon fill="white" stroke="#666666" points="166.75,-32 0,-32 0,0 166.75,0 166.75,-32"/>
<text text-anchor="start" x="8" y="-18.5" font-family="Helvetica,sans-Serif" font-size="10.00">interficie.VistaCrearAvatar.mostrar</text>
<text text-anchor="middle" x="83.38" y="-6.5" font-family="Helvetica,sans-Serif" font-size="10.00">SelectorImagenes</text>
</a>
</g>
</g>
<!-- Node2&#45;&gt;Node3 -->
<g id="edge2_Node000002_Node000003" class="edge">
<title>Node2&#45;&gt;Node3</title>
<g id="a_edge2_Node000002_Node000003"><a xlink:title=" ">
<path fill="none" stroke="#63b8ff" d="M190.93,-9.32C183.04,-9.24 175,-9.23 167.06,-9.28"/>
<polygon fill="#63b8ff" stroke="#63b8ff" points="190.8,-12.82 200.85,-9.47 190.91,-5.82 190.8,-12.82"/>
</a>
</g>
</g>
<!-- Node3&#45;&gt;Node2 -->
<g id="edge3_Node000003_Node000002" class="edge">
<title>Node3&#45;&gt;Node2</title>
<g id="a_edge3_Node000003_Node000002"><a xlink:title=" ">
<path fill="none" stroke="#63b8ff" d="M178.46,-22.75C186.53,-22.74 194.58,-22.66 202.37,-22.51"/>
<polygon fill="#63b8ff" stroke="#63b8ff" points="178.58,-19.25 168.57,-22.72 178.56,-26.25 178.58,-19.25"/>
</a>
</g>
</g>
</g>
</svg>
