<?xml version="1.0" encoding="UTF-8" standalone="no"?>
<!DOCTYPE svg PUBLIC "-//W3C//DTD SVG 1.1//EN"
 "http://www.w3.org/Graphics/SVG/1.1/DTD/svg11.dtd">
<!-- Generated by graphviz version 12.2.1 (20241206.2353)
 -->
<!-- Title: controladors.CtrlPresentacio.iniciarSessio Pages: 1 -->
<svg width="350pt" height="126pt"
 viewBox="0.00 0.00 349.75 126.00" xmlns="http://www.w3.org/2000/svg" xmlns:xlink="http://www.w3.org/1999/xlink">

<svg id="main" version="1.1" xmlns="http://www.w3.org/2000/svg" xmlns:xlink="http://www.w3.org/1999/xlink" xml:space="preserve">

<style type="text/css"><![CDATA[
.node, .edge {opacity: 0.7;}
.node.selected, .edge.selected {opacity: 1;}
.edge:hover path { stroke: red; }
.edge:hover polygon { stroke: red; fill: red; }
]]></style>
<script type="application/ecmascript" xlink:href="svg.min.js"/>
<svg id="graph" class="graph">
<g id="graph0" class="graph" transform="scale(1 1) rotate(0) translate(4 122)">
<title>controladors.CtrlPresentacio.iniciarSessio</title>
<!-- Node1 -->
<g id="Node000001" class="node">
<title>Node1</title>
<g id="a_Node000001"><a xlink:title="Inicia una sessió amb l&#39;usuari especificat.">
<polygon fill="#999999" stroke="#666666" points="341.75,-66 173.5,-66 173.5,-34 341.75,-34 341.75,-66"/>
<text text-anchor="start" x="181.5" y="-52.5" font-family="Helvetica,sans-Serif" font-size="10.00">controladors.CtrlPresentacio.iniciar</text>
<text text-anchor="middle" x="257.62" y="-40.5" font-family="Helvetica,sans-Serif" font-size="10.00">Sessio</text>
</a>
</g>
</g>
<!-- Node2 -->
<g id="Node000002" class="node">
<title>Node2</title>
<g id="a_Node000002"><a xlink:href="classinterficie_1_1_vista_crear_perfil.html#aea921123ade57f0e42263807a1842aaf" target="_top" xlink:title="Constructor que crea la finestra per crear un perfil.">
<polygon fill="white" stroke="#666666" points="132.62,-100 4.88,-100 4.88,-68 132.62,-68 132.62,-100"/>
<text text-anchor="start" x="12.88" y="-86.5" font-family="Helvetica,sans-Serif" font-size="10.00">interficie.VistaCrearPerfil.</text>
<text text-anchor="middle" x="68.75" y="-74.5" font-family="Helvetica,sans-Serif" font-size="10.00">VistaCrearPerfil</text>
</a>
</g>
</g>
<!-- Node1&#45;&gt;Node2 -->
<g id="edge1_Node000001_Node000002" class="edge">
<title>Node1&#45;&gt;Node2</title>
<g id="a_edge1_Node000001_Node000002"><a xlink:title=" ">
<path fill="none" stroke="#63b8ff" d="M161.99,-67.22C152.19,-69 142.42,-70.78 133.09,-72.48"/>
<polygon fill="#63b8ff" stroke="#63b8ff" points="162.32,-70.71 171.54,-65.48 161.07,-63.83 162.32,-70.71"/>
</a>
</g>
</g>
<!-- Node3 -->
<g id="Node000003" class="node">
<title>Node3</title>
<g id="a_Node000003"><a xlink:href="classinterficie_1_1_vista_iniciar_sessio.html#afc5613ff799374e1f28b0e885c6cc264" target="_top" xlink:title="Constructor que crea la vista d&#39;iniciar sessió.">
<polygon fill="white" stroke="#666666" points="137.5,-32 0,-32 0,0 137.5,0 137.5,-32"/>
<text text-anchor="start" x="8" y="-18.5" font-family="Helvetica,sans-Serif" font-size="10.00">interficie.VistaIniciarSessio.</text>
<text text-anchor="middle" x="68.75" y="-6.5" font-family="Helvetica,sans-Serif" font-size="10.00">VistaIniciarSessio</text>
</a>
</g>
</g>
<!-- Node1&#45;&gt;Node3 -->
<g id="edge3_Node000001_Node000003" class="edge">
<title>Node1&#45;&gt;Node3</title>
<g id="a_edge3_Node000001_Node000003"><a xlink:title=" ">
<path fill="none" stroke="#63b8ff" d="M161.96,-32.78C153.84,-31.3 145.73,-29.82 137.88,-28.39"/>
<polygon fill="#63b8ff" stroke="#63b8ff" points="161.07,-36.17 171.54,-34.52 162.32,-29.29 161.07,-36.17"/>
</a>
</g>
</g>
<!-- Node2&#45;&gt;Node2 -->
<g id="edge2_Node000002_Node000002" class="edge">
<title>Node2&#45;&gt;Node2</title>
<g id="a_edge2_Node000002_Node000002"><a xlink:title=" ">
<path fill="none" stroke="#63b8ff" d="M100.23,-111.71C94.98,-115.48 84.49,-118 68.75,-118 39.98,-118 28.74,-109.58 35.03,-100.44"/>
<polygon fill="#63b8ff" stroke="#63b8ff" points="103.65,-112.42 102.17,-101.93 96.79,-111.05 103.65,-112.42"/>
</a>
</g>
</g>
<!-- Node3&#45;&gt;Node3 -->
<g id="edge4_Node000003_Node000003" class="edge">
<title>Node3&#45;&gt;Node3</title>
<g id="a_edge4_Node000003_Node000003"><a xlink:title=" ">
<path fill="none" stroke="#63b8ff" d="M100.23,-43.71C94.98,-47.48 84.49,-50 68.75,-50 39.98,-50 28.74,-41.58 35.03,-32.44"/>
<polygon fill="#63b8ff" stroke="#63b8ff" points="103.65,-44.42 102.17,-33.93 96.79,-43.05 103.65,-44.42"/>
</a>
</g>
</g>
</g>
</svg>
</svg>

<style type='text/css'>
<![CDATA[
[data-mouse-over-selected='false'] { opacity: 0.7; }
[data-mouse-over-selected='true']  { opacity: 1.0; }
]]>
</style>
<script type="application/ecmascript"><![CDATA[
document.addEventListener('DOMContentLoaded', (event) => {
  highlightEdges();
  highlightAdjacentNodes();
});
]]></script>
</svg>
