<?xml version="1.0" encoding="UTF-8" standalone="no"?>
<!DOCTYPE svg PUBLIC "-//W3C//DTD SVG 1.1//EN"
 "http://www.w3.org/Graphics/SVG/1.1/DTD/svg11.dtd">
<!-- Generated by graphviz version 12.2.1 (20241206.2353)
 -->
<!-- Title: domini.jugadors.Jugador.getrutaImatge Pages: 1 -->
<svg width="1243pt" height="260pt"
 viewBox="0.00 0.00 1242.75 259.85" xmlns="http://www.w3.org/2000/svg" xmlns:xlink="http://www.w3.org/1999/xlink">
<g id="graph0" class="graph" transform="scale(1 1) rotate(0) translate(4 255.85)">
<title>domini.jugadors.Jugador.getrutaImatge</title>
<!-- Node1 -->
<g id="Node000001" class="node">
<title>Node1</title>
<g id="a_Node000001"><a xlink:title="Obté a ruta a la imatge de l&#39;avatar.">
<polygon fill="#999999" stroke="#666666" points="1234.75,-153.85 1080,-153.85 1080,-121.85 1234.75,-121.85 1234.75,-153.85"/>
<text text-anchor="start" x="1088" y="-140.35" font-family="Helvetica,sans-Serif" font-size="10.00">domini.jugadors.Jugador.getruta</text>
<text text-anchor="middle" x="1157.38" y="-128.35" font-family="Helvetica,sans-Serif" font-size="10.00">Imatge</text>
</a>
</g>
</g>
<!-- Node2 -->
<g id="Node000002" class="node">
<title>Node2</title>
<g id="a_Node000002"><a xlink:href="classinterficie_1_1_vista_partida.html#a6bd7550fc714ba5195c8b55ffe3d973c" target="_top" xlink:title="Afegeix les fitxes d&#39;un jugador al seu rack.">
<polygon fill="white" stroke="#666666" points="1030.5,-153.85 894.5,-153.85 894.5,-121.85 1030.5,-121.85 1030.5,-153.85"/>
<text text-anchor="start" x="902.5" y="-140.35" font-family="Helvetica,sans-Serif" font-size="10.00">interficie.VistaPartida.afegir</text>
<text text-anchor="middle" x="962.5" y="-128.35" font-family="Helvetica,sans-Serif" font-size="10.00">FitxesARack</text>
</a>
</g>
</g>
<!-- Node1&#45;&gt;Node2 -->
<g id="edge1_Node000001_Node000002" class="edge">
<title>Node1&#45;&gt;Node2</title>
<g id="a_edge1_Node000001_Node000002"><a xlink:title=" ">
<path fill="none" stroke="#63b8ff" d="M1068.19,-137.85C1055.69,-137.85 1043,-137.85 1030.98,-137.85"/>
<polygon fill="#63b8ff" stroke="#63b8ff" points="1068.08,-141.35 1078.08,-137.85 1068.08,-134.35 1068.08,-141.35"/>
</a>
</g>
</g>
<!-- Node6 -->
<g id="Node000006" class="node">
<title>Node6</title>
<g id="a_Node000006"><a xlink:href="classinterficie_1_1_vista_partida.html#ae6809bc2e7efc03077c111367571f788" target="_top" xlink:title="Afegeix maquetes al rack de l&#39;oponent.">
<polygon fill="white" stroke="#666666" points="330.5,-222.85 194.5,-222.85 194.5,-190.85 330.5,-190.85 330.5,-222.85"/>
<text text-anchor="start" x="202.5" y="-209.35" font-family="Helvetica,sans-Serif" font-size="10.00">interficie.VistaPartida.afegir</text>
<text text-anchor="middle" x="262.5" y="-197.35" font-family="Helvetica,sans-Serif" font-size="10.00">MaquetesARack</text>
</a>
</g>
</g>
<!-- Node1&#45;&gt;Node6 -->
<g id="edge19_Node000001_Node000006" class="edge">
<title>Node1&#45;&gt;Node6</title>
<g id="a_edge19_Node000001_Node000006"><a xlink:title=" ">
<path fill="none" stroke="#63b8ff" d="M1124.08,-160.59C1102.38,-174.81 1072.63,-192.37 1044,-202.85 928.03,-245.29 893.99,-251.85 770.5,-251.85 770.5,-251.85 770.5,-251.85 589.38,-251.85 499.28,-251.85 396.48,-234.76 330.84,-221.64"/>
<polygon fill="#63b8ff" stroke="#63b8ff" points="1125.82,-163.63 1132.19,-155.16 1121.93,-157.81 1125.82,-163.63"/>
</a>
</g>
</g>
<!-- Node8 -->
<g id="Node000008" class="node">
<title>Node8</title>
<g id="a_Node000008"><a xlink:href="classinterficie_1_1_vista_partida.html#ab47b596fbbd6a79289d4b9d7f5b5e068" target="_top" xlink:title="Crea un panell amb la informació d&#39;un jugador.">
<polygon fill="white" stroke="#666666" points="329.38,-172.85 195.62,-172.85 195.62,-140.85 329.38,-140.85 329.38,-172.85"/>
<text text-anchor="start" x="203.62" y="-159.35" font-family="Helvetica,sans-Serif" font-size="10.00">interficie.VistaPartida.crear</text>
<text text-anchor="middle" x="262.5" y="-147.35" font-family="Helvetica,sans-Serif" font-size="10.00">PanelJugador</text>
</a>
</g>
</g>
<!-- Node1&#45;&gt;Node8 -->
<g id="edge23_Node000001_Node000008" class="edge">
<title>Node1&#45;&gt;Node8</title>
<g id="a_edge23_Node000001_Node000008"><a xlink:title=" ">
<path fill="none" stroke="#63b8ff" d="M1095.1,-157.57C1019.6,-180.09 886.99,-213.85 770.5,-213.85 770.5,-213.85 770.5,-213.85 589.38,-213.85 494.61,-213.85 386.63,-190.17 321.83,-173.33"/>
<polygon fill="#63b8ff" stroke="#63b8ff" points="1095.81,-161.02 1104.37,-154.77 1093.78,-154.31 1095.81,-161.02"/>
</a>
</g>
</g>
<!-- Node10 -->
<g id="Node000010" class="node">
<title>Node10</title>
<g id="a_Node000010"><a xlink:href="classinterficie_1_1_vista_consultar_avatars.html#a2a900bc768080abeed9eb8f61321dbb0" target="_top" xlink:title="Carrega i mostra visualment tots els avatars registrats en un panell donat.">
<polygon fill="white" stroke="#666666" points="1023.38,-103.85 901.62,-103.85 901.62,-71.85 1023.38,-71.85 1023.38,-103.85"/>
<text text-anchor="start" x="909.62" y="-90.35" font-family="Helvetica,sans-Serif" font-size="10.00">interficie.VistaConsultar</text>
<text text-anchor="middle" x="962.5" y="-78.35" font-family="Helvetica,sans-Serif" font-size="10.00">Avatars.carregarAvatars</text>
</a>
</g>
</g>
<!-- Node1&#45;&gt;Node10 -->
<g id="edge20_Node000001_Node000010" class="edge">
<title>Node1&#45;&gt;Node10</title>
<g id="a_edge20_Node000001_Node000010"><a xlink:title=" ">
<path fill="none" stroke="#63b8ff" d="M1082.06,-118.58C1062.74,-113.57 1042.17,-108.24 1023.69,-103.45"/>
<polygon fill="#63b8ff" stroke="#63b8ff" points="1080.93,-121.9 1091.49,-121.03 1082.69,-115.13 1080.93,-121.9"/>
</a>
</g>
</g>
<!-- Node12 -->
<g id="Node000012" class="node">
<title>Node12</title>
<g id="a_Node000012"><a xlink:href="classinterficie_1_1_vista_consultar_estadistiques_1_1_avatar_renderer.html#ac65c84e86f810db5624e9cc60ac61047" target="_top" xlink:title=" ">
<polygon fill="white" stroke="#666666" points="1044,-53.85 881,-53.85 881,-9.85 1044,-9.85 1044,-53.85"/>
<text text-anchor="start" x="889" y="-40.35" font-family="Helvetica,sans-Serif" font-size="10.00">interficie.VistaConsultar</text>
<text text-anchor="start" x="889" y="-28.35" font-family="Helvetica,sans-Serif" font-size="10.00">Estadistiques.AvatarRenderer.get</text>
<text text-anchor="middle" x="962.5" y="-16.35" font-family="Helvetica,sans-Serif" font-size="10.00">ListCellRendererComponent</text>
</a>
</g>
</g>
<!-- Node1&#45;&gt;Node12 -->
<g id="edge24_Node000001_Node000012" class="edge">
<title>Node1&#45;&gt;Node12</title>
<g id="a_edge24_Node000001_Node000012"><a xlink:title=" ">
<path fill="none" stroke="#63b8ff" d="M1125.73,-114.7C1103.76,-98.78 1073.03,-77.89 1044,-62.85 1038.15,-59.81 1031.93,-56.91 1025.65,-54.18"/>
<polygon fill="#63b8ff" stroke="#63b8ff" points="1123.52,-117.42 1133.66,-120.51 1127.66,-111.77 1123.52,-117.42"/>
</a>
</g>
</g>
<!-- Node3 -->
<g id="Node000003" class="node">
<title>Node3</title>
<g id="a_Node000003"><a xlink:href="classinterficie_1_1_vista_partida.html#a0698d192124492ebfd8a3b029a6fa23c" target="_top" xlink:title="Actualitza els racks dels jugadors.">
<polygon fill="white" stroke="#666666" points="844.62,-109.85 694.38,-109.85 694.38,-77.85 844.62,-77.85 844.62,-109.85"/>
<text text-anchor="start" x="702.38" y="-96.35" font-family="Helvetica,sans-Serif" font-size="10.00">interficie.VistaPartida.refrescar</text>
<text text-anchor="middle" x="769.5" y="-84.35" font-family="Helvetica,sans-Serif" font-size="10.00">RackJugadors</text>
</a>
</g>
</g>
<!-- Node2&#45;&gt;Node3 -->
<g id="edge2_Node000002_Node000003" class="edge">
<title>Node2&#45;&gt;Node3</title>
<g id="a_edge2_Node000002_Node000003"><a xlink:title=" ">
<path fill="none" stroke="#63b8ff" d="M883.34,-119.84C869.69,-116.7 855.55,-113.44 842.09,-110.34"/>
<polygon fill="#63b8ff" stroke="#63b8ff" points="882.16,-123.16 892.69,-121.99 883.73,-116.34 882.16,-123.16"/>
</a>
</g>
</g>
<!-- Node4 -->
<g id="Node000004" class="node">
<title>Node4</title>
<g id="a_Node000004"><a xlink:href="classinterficie_1_1_vista_partida.html#a7855e7a9cc41e1450c37054781ba6309" target="_top" xlink:title="Inicialitza els components de la interfície gràfica.">
<polygon fill="white" stroke="#666666" points="658,-71.85 522.75,-71.85 522.75,-51.85 658,-51.85 658,-71.85"/>
<text text-anchor="middle" x="590.38" y="-58.35" font-family="Helvetica,sans-Serif" font-size="10.00">interficie.VistaPartida.initUI</text>
</a>
</g>
</g>
<!-- Node3&#45;&gt;Node4 -->
<g id="edge3_Node000003_Node000004" class="edge">
<title>Node3&#45;&gt;Node4</title>
<g id="a_edge3_Node000003_Node000004"><a xlink:title=" ">
<path fill="none" stroke="#63b8ff" d="M682.69,-78.34C671.44,-76.31 660.12,-74.27 649.48,-72.34"/>
<polygon fill="#63b8ff" stroke="#63b8ff" points="681.94,-81.77 692.41,-80.1 683.19,-74.88 681.94,-81.77"/>
</a>
</g>
</g>
<!-- Node5 -->
<g id="Node000005" class="node">
<title>Node5</title>
<g id="a_Node000005"><a xlink:href="classinterficie_1_1_vista_partida.html#abce8626a6a3750affe851e1f8bea2cb3" target="_top" xlink:title="Constructor de la classe VistaPartida.">
<polygon fill="white" stroke="#666666" points="486.75,-126.85 374.75,-126.85 374.75,-94.85 486.75,-94.85 486.75,-126.85"/>
<text text-anchor="start" x="382.75" y="-113.35" font-family="Helvetica,sans-Serif" font-size="10.00">interficie.VistaPartida.</text>
<text text-anchor="middle" x="430.75" y="-101.35" font-family="Helvetica,sans-Serif" font-size="10.00">VistaPartida</text>
</a>
</g>
</g>
<!-- Node3&#45;&gt;Node5 -->
<g id="edge18_Node000003_Node000005" class="edge">
<title>Node3&#45;&gt;Node5</title>
<g id="a_edge18_Node000003_Node000005"><a xlink:title=" ">
<path fill="none" stroke="#63b8ff" d="M682.93,-98.17C621.41,-101.27 540.24,-105.37 487.05,-108.05"/>
<polygon fill="#63b8ff" stroke="#63b8ff" points="682.86,-101.67 692.67,-97.67 682.51,-94.68 682.86,-101.67"/>
</a>
</g>
</g>
<!-- Node9 -->
<g id="Node000009" class="node">
<title>Node9</title>
<g id="a_Node000009"><a xlink:href="classinterficie_1_1_vista_partida.html#a485041b781e81c64fb5414207ff21d2a" target="_top" xlink:title="Actualitza la informació de la partida.">
<polygon fill="white" stroke="#666666" points="150.25,-84.85 0,-84.85 0,-52.85 150.25,-52.85 150.25,-84.85"/>
<text text-anchor="start" x="8" y="-71.35" font-family="Helvetica,sans-Serif" font-size="10.00">interficie.VistaPartida.refrescar</text>
<text text-anchor="middle" x="75.12" y="-59.35" font-family="Helvetica,sans-Serif" font-size="10.00">Informacio</text>
</a>
</g>
</g>
<!-- Node3&#45;&gt;Node9 -->
<g id="edge17_Node000003_Node000009" class="edge">
<title>Node3&#45;&gt;Node9</title>
<g id="a_edge17_Node000003_Node000009"><a xlink:title=" ">
<path fill="none" stroke="#63b8ff" d="M702.8,-73.05C699.79,-71.71 696.84,-70.31 694,-68.85 676.45,-59.83 676.65,-49.3 658,-42.85 459.83,25.74 393.48,-1.71 186.25,-33.85 162.96,-37.46 137.85,-45.13 117.49,-52.37"/>
<polygon fill="#63b8ff" stroke="#63b8ff" points="701.23,-76.19 711.81,-76.81 703.92,-69.73 701.23,-76.19"/>
</a>
</g>
</g>
<!-- Node4&#45;&gt;Node5 -->
<g id="edge4_Node000004_Node000005" class="edge">
<title>Node4&#45;&gt;Node5</title>
<g id="a_edge4_Node000004_Node000005"><a xlink:title=" ">
<path fill="none" stroke="#63b8ff" d="M524.25,-75.43C504.39,-81.34 483.34,-88.2 466.34,-94.39"/>
<polygon fill="#63b8ff" stroke="#63b8ff" points="525.06,-78.84 533.68,-72.68 523.1,-72.12 525.06,-78.84"/>
</a>
</g>
</g>
<!-- Node5&#45;&gt;Node2 -->
<g id="edge5_Node000005_Node000002" class="edge">
<title>Node5&#45;&gt;Node2</title>
<g id="a_edge5_Node000005_Node000002"><a xlink:title=" ">
<path fill="none" stroke="#63b8ff" d="M498.53,-115.39C506.69,-115.9 514.91,-116.4 522.75,-116.85 654.27,-124.33 808.08,-131.28 894.21,-135"/>
<polygon fill="#63b8ff" stroke="#63b8ff" points="498.8,-111.9 488.59,-114.75 498.35,-118.88 498.8,-111.9"/>
</a>
</g>
</g>
<!-- Node5&#45;&gt;Node4 -->
<g id="edge15_Node000005_Node000004" class="edge">
<title>Node5&#45;&gt;Node4</title>
<g id="a_edge15_Node000005_Node000004"><a xlink:title=" ">
<path fill="none" stroke="#63b8ff" d="M497.78,-96.99C524.07,-89.15 552.3,-79.68 570.36,-72.34"/>
<polygon fill="#63b8ff" stroke="#63b8ff" points="497.13,-93.53 488.52,-99.7 499.1,-100.25 497.13,-93.53"/>
</a>
</g>
</g>
<!-- Node5&#45;&gt;Node5 -->
<g id="edge16_Node000005_Node000005" class="edge">
<title>Node5&#45;&gt;Node5</title>
<g id="a_edge16_Node000005_Node000005"><a xlink:title=" ">
<path fill="none" stroke="#63b8ff" d="M457.35,-138.55C452.92,-142.33 444.05,-144.85 430.75,-144.85 406.43,-144.85 396.93,-136.43 402.25,-127.29"/>
<polygon fill="#63b8ff" stroke="#63b8ff" points="460.79,-139.22 459,-128.78 453.88,-138.06 460.79,-139.22"/>
</a>
</g>
</g>
<!-- Node5&#45;&gt;Node6 -->
<g id="edge6_Node000005_Node000006" class="edge">
<title>Node5&#45;&gt;Node6</title>
<g id="a_edge6_Node000005_Node000006"><a xlink:title=" ">
<path fill="none" stroke="#63b8ff" d="M404.12,-134.74C386.74,-149.92 362.67,-169.04 338.75,-181.85 332.8,-185.03 326.38,-187.91 319.87,-190.49"/>
<polygon fill="#63b8ff" stroke="#63b8ff" points="406.29,-137.5 411.42,-128.23 401.63,-132.27 406.29,-137.5"/>
</a>
</g>
</g>
<!-- Node7 -->
<g id="Node000007" class="node">
<title>Node7</title>
<g id="a_Node000007"><a xlink:href="classinterficie_1_1_vista_partida.html#a8ebc9da2a2b927ba87ed97ad85ae44e8" target="_top" xlink:title="Confirma l&#39;acció de guardar la partida.">
<polygon fill="white" stroke="#666666" points="338.75,-84.85 186.25,-84.85 186.25,-52.85 338.75,-52.85 338.75,-84.85"/>
<text text-anchor="start" x="194.25" y="-71.35" font-family="Helvetica,sans-Serif" font-size="10.00">interficie.VistaPartida.confirmar</text>
<text text-anchor="middle" x="262.5" y="-59.35" font-family="Helvetica,sans-Serif" font-size="10.00">Guardar</text>
</a>
</g>
</g>
<!-- Node5&#45;&gt;Node7 -->
<g id="edge8_Node000005_Node000007" class="edge">
<title>Node5&#45;&gt;Node7</title>
<g id="a_edge8_Node000005_Node000007"><a xlink:title=" ">
<path fill="none" stroke="#63b8ff" d="M363.56,-94.12C352.08,-91.22 340.15,-88.21 328.7,-85.32"/>
<polygon fill="#63b8ff" stroke="#63b8ff" points="362.37,-97.43 372.92,-96.49 364.09,-90.65 362.37,-97.43"/>
</a>
</g>
</g>
<!-- Node5&#45;&gt;Node8 -->
<g id="edge10_Node000005_Node000008" class="edge">
<title>Node5&#45;&gt;Node8</title>
<g id="a_edge10_Node000005_Node000008"><a xlink:title=" ">
<path fill="none" stroke="#63b8ff" d="M363.34,-129.22C349.97,-132.92 336.01,-136.78 322.9,-140.41"/>
<polygon fill="#63b8ff" stroke="#63b8ff" points="364.23,-132.61 372.93,-126.57 362.36,-125.86 364.23,-132.61"/>
</a>
</g>
</g>
<!-- Node6&#45;&gt;Node3 -->
<g id="edge7_Node000006_Node000003" class="edge">
<title>Node6&#45;&gt;Node3</title>
<g id="a_edge7_Node000006_Node000003"><a xlink:title=" ">
<path fill="none" stroke="#63b8ff" d="M342.01,-189.28C438.41,-167.71 600.66,-131.4 694.8,-110.34"/>
<polygon fill="#63b8ff" stroke="#63b8ff" points="341.35,-185.84 332.36,-191.44 342.88,-192.67 341.35,-185.84"/>
</a>
</g>
</g>
<!-- Node7&#45;&gt;Node4 -->
<g id="edge9_Node000007_Node000004" class="edge">
<title>Node7&#45;&gt;Node4</title>
<g id="a_edge9_Node000007_Node000004"><a xlink:title=" ">
<path fill="none" stroke="#63b8ff" d="M350.28,-66.98C404.35,-65.82 472.84,-64.35 522.64,-63.28"/>
<polygon fill="#63b8ff" stroke="#63b8ff" points="350.42,-63.48 340.49,-67.19 350.57,-70.48 350.42,-63.48"/>
</a>
</g>
</g>
<!-- Node8&#45;&gt;Node9 -->
<g id="edge11_Node000008_Node000009" class="edge">
<title>Node8&#45;&gt;Node9</title>
<g id="a_edge11_Node000008_Node000009"><a xlink:title=" ">
<path fill="none" stroke="#63b8ff" d="M207.66,-136.19C200.41,-133.17 193.11,-130.01 186.25,-126.85 158.19,-113.91 127.12,-97.33 105.15,-85.21"/>
<polygon fill="#63b8ff" stroke="#63b8ff" points="206.21,-139.37 216.79,-139.91 208.86,-132.89 206.21,-139.37"/>
</a>
</g>
</g>
<!-- Node9&#45;&gt;Node4 -->
<g id="edge12_Node000009_Node000004" class="edge">
<title>Node9&#45;&gt;Node4</title>
<g id="a_edge12_Node000009_Node000004"><a xlink:title=" ">
<path fill="none" stroke="#63b8ff" d="M148.34,-50.04C160.9,-47.46 173.89,-45.23 186.25,-43.85 304.08,-30.64 442.31,-42.76 522.47,-52.5"/>
<polygon fill="#63b8ff" stroke="#63b8ff" points="147.97,-46.54 138.93,-52.06 149.44,-53.38 147.97,-46.54"/>
</a>
</g>
</g>
<!-- Node9&#45;&gt;Node5 -->
<g id="edge14_Node000009_Node000005" class="edge">
<title>Node9&#45;&gt;Node5</title>
<g id="a_edge14_Node000009_Node000005"><a xlink:title=" ">
<path fill="none" stroke="#63b8ff" d="M152.26,-87.72C163.6,-90.07 175.19,-92.22 186.25,-93.85 250.39,-103.31 324.84,-107.53 374.37,-109.4"/>
<polygon fill="#63b8ff" stroke="#63b8ff" points="153.02,-84.31 142.51,-85.64 151.56,-91.15 153.02,-84.31"/>
</a>
</g>
</g>
<!-- Node9&#45;&gt;Node9 -->
<g id="edge13_Node000009_Node000009" class="edge">
<title>Node9&#45;&gt;Node9</title>
<g id="a_edge13_Node000009_Node000009"><a xlink:title=" ">
<path fill="none" stroke="#63b8ff" d="M106.35,-96.55C101.14,-100.33 90.74,-102.85 75.12,-102.85 46.58,-102.85 35.43,-94.43 41.67,-85.29"/>
<polygon fill="#63b8ff" stroke="#63b8ff" points="109.78,-97.26 108.28,-86.77 102.91,-95.91 109.78,-97.26"/>
</a>
</g>
</g>
<!-- Node11 -->
<g id="Node000011" class="node">
<title>Node11</title>
<g id="a_Node000011"><a xlink:href="classinterficie_1_1_vista_consultar_avatars.html#aad0f3c358880880d6c374569d93117cd" target="_top" xlink:title="Constructor de la vista que mostra la llista d&#39;avatares registrats.">
<polygon fill="white" stroke="#666666" points="845,-41.85 694,-41.85 694,-9.85 845,-9.85 845,-41.85"/>
<text text-anchor="start" x="702" y="-28.35" font-family="Helvetica,sans-Serif" font-size="10.00">interficie.VistaConsultar</text>
<text text-anchor="middle" x="769.5" y="-16.35" font-family="Helvetica,sans-Serif" font-size="10.00">Avatars.VistaConsultarAvatars</text>
</a>
</g>
</g>
<!-- Node10&#45;&gt;Node11 -->
<g id="edge21_Node000010_Node000011" class="edge">
<title>Node10&#45;&gt;Node11</title>
<g id="a_edge21_Node000010_Node000011"><a xlink:title=" ">
<path fill="none" stroke="#63b8ff" d="M897.48,-68.1C891.9,-66.34 886.35,-64.57 881,-62.85 860.59,-56.26 838.14,-48.79 818.83,-42.29"/>
<polygon fill="#63b8ff" stroke="#63b8ff" points="896.15,-71.36 906.74,-71.02 898.25,-64.68 896.15,-71.36"/>
</a>
</g>
</g>
<!-- Node11&#45;&gt;Node11 -->
<g id="edge22_Node000011_Node000011" class="edge">
<title>Node11&#45;&gt;Node11</title>
<g id="a_edge22_Node000011_Node000011"><a xlink:title=" ">
<path fill="none" stroke="#63b8ff" d="M799.35,-53.55C794.37,-57.33 784.42,-59.85 769.5,-59.85 742.21,-59.85 731.55,-51.43 737.52,-42.29"/>
<polygon fill="#63b8ff" stroke="#63b8ff" points="802.78,-54.25 801.2,-43.78 795.9,-52.95 802.78,-54.25"/>
</a>
</g>
</g>
</g>
</svg>
