<?xml version="1.0" encoding="UTF-8" standalone="no"?>
<!DOCTYPE svg PUBLIC "-//W3C//DTD SVG 1.1//EN"
 "http://www.w3.org/Graphics/SVG/1.1/DTD/svg11.dtd">
<!-- Generated by graphviz version 12.2.1 (20241206.2353)
 -->
<!-- Title: controladors.CtrlPartida.comprova_paraula Pages: 1 -->
<!--zoomable 601 -->

<svg id="main" version="1.1" xmlns="http://www.w3.org/2000/svg" xmlns:xlink="http://www.w3.org/1999/xlink" xml:space="preserve" onload="init(evt)">

<style type="text/css"><![CDATA[
.node, .edge {opacity: 0.7;}
.node.selected, .edge.selected {opacity: 1;}
.edge:hover path { stroke: red; }
.edge:hover polygon { stroke: red; fill: red; }
]]></style>

<defs>
  <circle id="rim" cx="0" cy="0" r="7"/>
  <circle id="rim2" cx="0" cy="0" r="3.5"/>
  <g id="zoomPlus">
    <use xlink:href="#rim" fill="#404040"><set attributeName="fill" to="#808080" begin="zoomplus.mouseover" end="zoomplus.mouseout"/></use>
    <path d="M-4,0h8M0,-4v8" fill="none" stroke="white" stroke-width="1.5" pointer-events="none"/>
  </g>
  <g id="zoomMin">
    <use xlink:href="#rim" fill="#404040"><set attributeName="fill" to="#808080" begin="zoomminus.mouseover" end="zoomminus.mouseout"/></use>
    <path d="M-4,0h8" fill="none" stroke="white" stroke-width="1.5" pointer-events="none"/>
  </g>
  <g id="arrowUp" transform="translate(30 24)">
    <use xlink:href="#rim"/>
    <path pointer-events="none" fill="none" stroke="white" stroke-width="1.5" d="M0,-3.0v7 M-2.5,-0.5L0,-3.0L2.5,-0.5"/>
  </g>
  <g id="arrowRight" transform="rotate(90) translate(36 -43)">
    <use xlink:href="#rim"/>
    <path pointer-events="none" fill="none" stroke="white" stroke-width="1.5" d="M0,-3.0v7 M-2.5,-0.5L0,-3.0L2.5,-0.5"/>
  </g>
  <g id="arrowDown" transform="rotate(180) translate(-30 -48)">
    <use xlink:href="#rim"/>
    <path pointer-events="none" fill="none" stroke="white" stroke-width="1.5" d="M0,-3.0v7 M-2.5,-0.5L0,-3.0L2.5,-0.5"/>
  </g>
  <g id="arrowLeft" transform="rotate(270) translate(-36 17)">
    <use xlink:href="#rim"/>
    <path pointer-events="none" fill="none" stroke="white" stroke-width="1.5" d="M0,-3.0v7 M-2.5,-0.5L0,-3.0L2.5,-0.5"/>
  </g>
  <g id="resetDef">
    <use xlink:href="#rim2" fill="#404040"><set attributeName="fill" to="#808080" begin="reset.mouseover" end="reset.mouseout"/></use>
  </g>
</defs>
<script type="application/ecmascript">
var viewWidth = 742;
var viewHeight = 601;
var sectionId = 'dynsection-8';
</script>
<script type="application/ecmascript" xlink:href="svg.min.js"/>
<svg id="graph" class="graph">
<g id="viewport">
<title>controladors.CtrlPartida.comprova_paraula</title>
<!-- Node1 -->
<g id="Node000001" class="node">
<title>Node1</title>
<g id="a_Node000001"><a xlink:title="Comprova si una paraula és vàlida.">
<polygon fill="#999999" stroke="#666666" points="164.5,-366 0,-366 0,-334 164.5,-334 164.5,-366"/>
<text text-anchor="start" x="8" y="-352.5" font-family="Helvetica,sans-Serif" font-size="10.00">controladors.CtrlPartida.comprova</text>
<text text-anchor="middle" x="82.25" y="-340.5" font-family="Helvetica,sans-Serif" font-size="10.00">_paraula</text>
</a>
</g>
</g>
<!-- Node2 -->
<g id="Node000002" class="node">
<title>Node2</title>
<g id="a_Node000002"><a xlink:href="classcontroladors_1_1_ctrl_partida.html#a55c08c7767d17dd7d8b4ae00d33b1fe7" target="_top" xlink:title="Comprova si una lletra és vàlida per a una casella que formi paraula transversal vertical.">
<polygon fill="white" stroke="#666666" points="368,-253 200.5,-253 200.5,-221 368,-221 368,-253"/>
<text text-anchor="start" x="208.5" y="-239.5" font-family="Helvetica,sans-Serif" font-size="10.00">controladors.CtrlPartida.comprovar</text>
<text text-anchor="middle" x="284.25" y="-227.5" font-family="Helvetica,sans-Serif" font-size="10.00">_noves_paraules</text>
</a>
</g>
</g>
<!-- Node1&#45;&gt;Node2 -->
<g id="edge1_Node000001_Node000002" class="edge">
<title>Node1&#45;&gt;Node2</title>
<g id="a_edge1_Node000001_Node000002"><a xlink:title=" ">
<path fill="none" stroke="#63b8ff" d="M100.6,-333.84C122.4,-314.32 161.67,-281.66 200.5,-262 203.55,-260.46 206.71,-258.99 209.94,-257.6"/>
<polygon fill="#63b8ff" stroke="#63b8ff" points="211.03,-260.93 219.02,-253.97 208.44,-254.43 211.03,-260.93"/>
</a>
</g>
</g>
<!-- Node3 -->
<g id="Node000003" class="node">
<title>Node3</title>
<g id="a_Node000003"><a xlink:href="classdomini_1_1scrabble_1_1_casella.html#a45ad0a3aaeacf1bc4896a7a99c068dd3" target="_top" xlink:title="Comprova si la casella està ocupada per una fitxa.">
<polygon fill="white" stroke="#666666" points="541.88,-508 418.62,-508 418.62,-476 541.88,-476 541.88,-508"/>
<text text-anchor="start" x="426.62" y="-494.5" font-family="Helvetica,sans-Serif" font-size="10.00">domini.scrabble.Casella.</text>
<text text-anchor="middle" x="480.25" y="-482.5" font-family="Helvetica,sans-Serif" font-size="10.00">EstaOcupat</text>
</a>
</g>
</g>
<!-- Node1&#45;&gt;Node3 -->
<g id="edge11_Node000001_Node000003" class="edge">
<title>Node1&#45;&gt;Node3</title>
<g id="a_edge11_Node000001_Node000003"><a xlink:title=" ">
<path fill="none" stroke="#63b8ff" d="M88.99,-366.29C102.25,-401.12 138.72,-482.22 200.5,-514 266.7,-548.05 293.91,-521.26 368,-514 380.73,-512.75 394.16,-510.72 407.12,-508.39"/>
<polygon fill="#63b8ff" stroke="#63b8ff" points="407.7,-511.84 416.88,-506.55 406.4,-504.96 407.7,-511.84"/>
</a>
</g>
</g>
<!-- Node4 -->
<g id="Node000004" class="node">
<title>Node4</title>
<g id="a_Node000004"><a xlink:href="classdomini_1_1scrabble_1_1_taulell.html#a5be7b0143cecbce3e2f4dc4f53814879" target="_top" xlink:title="Donades unes coordenades, retorna la Casella que es troba en aquelles coordenades.">
<polygon fill="white" stroke="#666666" points="546,-458 414.5,-458 414.5,-426 546,-426 546,-458"/>
<text text-anchor="start" x="422.5" y="-444.5" font-family="Helvetica,sans-Serif" font-size="10.00">domini.scrabble.Taulell.get</text>
<text text-anchor="middle" x="480.25" y="-432.5" font-family="Helvetica,sans-Serif" font-size="10.00">Casella</text>
</a>
</g>
</g>
<!-- Node1&#45;&gt;Node4 -->
<g id="edge12_Node000001_Node000004" class="edge">
<title>Node1&#45;&gt;Node4</title>
<g id="a_edge12_Node000001_Node000004"><a xlink:title=" ">
<path fill="none" stroke="#63b8ff" d="M131.11,-366.42C152.23,-373.33 177.44,-381.11 200.5,-387 268.24,-404.31 346.41,-419.31 402.71,-429.26"/>
<polygon fill="#63b8ff" stroke="#63b8ff" points="402.07,-432.7 412.53,-430.98 403.28,-425.8 402.07,-432.7"/>
</a>
</g>
</g>
<!-- Node5 -->
<g id="Node000005" class="node">
<title>Node5</title>
<g id="a_Node000005"><a xlink:href="classdomini_1_1scrabble_1_1_taulell.html#afc2d8dcd225b683aa00af9ce2075ad79" target="_top" xlink:title=" ">
<polygon fill="white" stroke="#666666" points="733.75,-380 592.5,-380 592.5,-360 733.75,-360 733.75,-380"/>
<text text-anchor="middle" x="663.12" y="-366.5" font-family="Helvetica,sans-Serif" font-size="10.00">domini.scrabble.Taulell.limits</text>
</a>
</g>
</g>
<!-- Node1&#45;&gt;Node5 -->
<g id="edge16_Node000001_Node000005" class="edge">
<title>Node1&#45;&gt;Node5</title>
<g id="a_edge16_Node000001_Node000005"><a xlink:title=" ">
<path fill="none" stroke="#63b8ff" d="M88.25,-333.63C100.56,-296.3 136.12,-204.82 200.5,-162 266.65,-118 489.99,-85.53 556.5,-129 633.36,-179.23 654.64,-299.16 660.24,-348.37"/>
<polygon fill="#63b8ff" stroke="#63b8ff" points="656.72,-348.41 661.22,-358.01 663.69,-347.71 656.72,-348.41"/>
</a>
</g>
</g>
<!-- Node7 -->
<g id="Node000007" class="node">
<title>Node7</title>
<g id="a_Node000007"><a xlink:href="classdomini_1_1scrabble_1_1_casella.html#ad6fa4e60f906cde260a175354e4fda22" target="_top" xlink:title="Retorna la fitxa de la casella.">
<polygon fill="white" stroke="#666666" points="548.62,-408 411.88,-408 411.88,-376 548.62,-376 548.62,-408"/>
<text text-anchor="start" x="419.88" y="-394.5" font-family="Helvetica,sans-Serif" font-size="10.00">domini.scrabble.Casella.get</text>
<text text-anchor="middle" x="480.25" y="-382.5" font-family="Helvetica,sans-Serif" font-size="10.00">Fitxa</text>
</a>
</g>
</g>
<!-- Node1&#45;&gt;Node7 -->
<g id="edge13_Node000001_Node000007" class="edge">
<title>Node1&#45;&gt;Node7</title>
<g id="a_edge13_Node000001_Node000007"><a xlink:title=" ">
<path fill="none" stroke="#63b8ff" d="M164.89,-360.77C176.83,-362.25 188.98,-363.71 200.5,-365 267.85,-372.57 344.5,-379.9 400.36,-385.01"/>
<polygon fill="#63b8ff" stroke="#63b8ff" points="399.81,-388.47 410.09,-385.89 400.45,-381.5 399.81,-388.47"/>
</a>
</g>
</g>
<!-- Node8 -->
<g id="Node000008" class="node">
<title>Node8</title>
<g id="a_Node000008"><a xlink:href="classdomini_1_1scrabble_1_1_fitxa.html#a3ee9b39d600851a00c4ce541339ba90e" target="_top" xlink:title="Retorna la lletra associada a la fitxa.">
<polygon fill="white" stroke="#666666" points="543,-358 417.5,-358 417.5,-326 543,-326 543,-358"/>
<text text-anchor="start" x="425.5" y="-344.5" font-family="Helvetica,sans-Serif" font-size="10.00">domini.scrabble.Fitxa.get</text>
<text text-anchor="middle" x="480.25" y="-332.5" font-family="Helvetica,sans-Serif" font-size="10.00">Lletra</text>
</a>
</g>
</g>
<!-- Node1&#45;&gt;Node8 -->
<g id="edge15_Node000001_Node000008" class="edge">
<title>Node1&#45;&gt;Node8</title>
<g id="a_edge15_Node000001_Node000008"><a xlink:title=" ">
<path fill="none" stroke="#63b8ff" d="M164.9,-351.55C221.84,-352.26 299.58,-352.46 368,-350 380.22,-349.56 393.19,-348.85 405.78,-348.03"/>
<polygon fill="#63b8ff" stroke="#63b8ff" points="405.97,-351.53 415.7,-347.36 405.49,-344.54 405.97,-351.53"/>
</a>
</g>
</g>
<!-- Node10 -->
<g id="Node000010" class="node">
<title>Node10</title>
<g id="a_Node000010"><a xlink:href="classdomini_1_1scrabble_1_1_taulell.html#a268ce8c62ca09000409a18be258fbc89" target="_top" xlink:title="Comprova si el taulell està completament buit (cap casella ocupada).">
<polygon fill="white" stroke="#666666" points="361.25,-341 207.25,-341 207.25,-321 361.25,-321 361.25,-341"/>
<text text-anchor="middle" x="284.25" y="-327.5" font-family="Helvetica,sans-Serif" font-size="10.00">domini.scrabble.Taulell.estaBuit</text>
</a>
</g>
</g>
<!-- Node1&#45;&gt;Node10 -->
<g id="edge10_Node000001_Node000010" class="edge">
<title>Node1&#45;&gt;Node10</title>
<g id="a_edge10_Node000001_Node000010"><a xlink:title=" ">
<path fill="none" stroke="#63b8ff" d="M164.89,-342.24C175.01,-341.28 185.39,-340.3 195.6,-339.33"/>
<polygon fill="#63b8ff" stroke="#63b8ff" points="195.9,-342.81 205.53,-338.38 195.24,-335.85 195.9,-342.81"/>
</a>
</g>
</g>
<!-- Node11 -->
<g id="Node000011" class="node">
<title>Node11</title>
<g id="a_Node000011"><a xlink:href="classdomini_1_1jugadors_1_1_jugador.html#acf9520ec234c3f2cc52e1b79b85a008e" target="_top" xlink:title="Retorna la llista amb les fitxes actuals del jugador.">
<polygon fill="white" stroke="#666666" points="353.38,-303 215.12,-303 215.12,-271 353.38,-271 353.38,-303"/>
<text text-anchor="start" x="223.12" y="-289.5" font-family="Helvetica,sans-Serif" font-size="10.00">domini.jugadors.Jugador.get</text>
<text text-anchor="middle" x="284.25" y="-277.5" font-family="Helvetica,sans-Serif" font-size="10.00">Fitxes_actuals</text>
</a>
</g>
</g>
<!-- Node1&#45;&gt;Node11 -->
<g id="edge14_Node000001_Node000011" class="edge">
<title>Node1&#45;&gt;Node11</title>
<g id="a_edge14_Node000001_Node000011"><a xlink:title=" ">
<path fill="none" stroke="#63b8ff" d="M133.39,-333.51C154.13,-326.75 178.45,-318.9 200.5,-312 206,-310.28 211.71,-308.51 217.44,-306.75"/>
<polygon fill="#63b8ff" stroke="#63b8ff" points="218.47,-310.1 227.01,-303.83 216.42,-303.4 218.47,-310.1"/>
</a>
</g>
</g>
<!-- Node12 -->
<g id="Node000012" class="node">
<title>Node12</title>
<g id="a_Node000012"><a xlink:href="classcontroladors_1_1_ctrl_partida.html#ab65218f4ac10157e095836864c00a526" target="_top" xlink:title="Comprova si una paraula col·locada passa pel centre del taulell.">
<polygon fill="white" stroke="#666666" points="360.88,-203 207.62,-203 207.62,-171 360.88,-171 360.88,-203"/>
<text text-anchor="start" x="215.62" y="-189.5" font-family="Helvetica,sans-Serif" font-size="10.00">controladors.CtrlPartida.paraula</text>
<text text-anchor="middle" x="284.25" y="-177.5" font-family="Helvetica,sans-Serif" font-size="10.00">_centre</text>
</a>
</g>
</g>
<!-- Node1&#45;&gt;Node12 -->
<g id="edge17_Node000001_Node000012" class="edge">
<title>Node1&#45;&gt;Node12</title>
<g id="a_edge17_Node000001_Node000012"><a xlink:title=" ">
<path fill="none" stroke="#63b8ff" d="M92.65,-333.74C110.15,-304.89 150.53,-244.73 200.5,-212 202.46,-210.72 204.49,-209.49 206.58,-208.33"/>
<polygon fill="#63b8ff" stroke="#63b8ff" points="207.89,-211.59 215.3,-204.01 204.78,-205.31 207.89,-211.59"/>
</a>
</g>
</g>
<!-- Node14 -->
<g id="Node000014" class="node">
<title>Node14</title>
<g id="a_Node000014"><a xlink:href="classcontroladors_1_1_ctrl_partida.html#a9de7e8a2258b08affa0274996d2ed9df" target="_top" xlink:title="Comprova si la posició d&#39;una paraula és vàlida dins dels límits del taulell.">
<polygon fill="white" stroke="#666666" points="360.5,-593 208,-593 208,-561 360.5,-561 360.5,-593"/>
<text text-anchor="start" x="216" y="-579.5" font-family="Helvetica,sans-Serif" font-size="10.00">controladors.CtrlPartida.posicio</text>
<text text-anchor="middle" x="284.25" y="-567.5" font-family="Helvetica,sans-Serif" font-size="10.00">Correcta</text>
</a>
</g>
</g>
<!-- Node1&#45;&gt;Node14 -->
<g id="edge21_Node000001_Node000014" class="edge">
<title>Node1&#45;&gt;Node14</title>
<g id="a_edge21_Node000001_Node000014"><a xlink:title=" ">
<path fill="none" stroke="#63b8ff" d="M88.62,-366.31C101.73,-403.65 138.84,-496.02 200.5,-547 204.31,-550.15 208.48,-552.99 212.86,-555.53"/>
<polygon fill="#63b8ff" stroke="#63b8ff" points="210.89,-558.45 221.38,-559.96 214.12,-552.24 210.89,-558.45"/>
</a>
</g>
</g>
<!-- Node15 -->
<g id="Node000015" class="node">
<title>Node15</title>
<g id="a_Node000015"><a xlink:href="classcontroladors_1_1_ctrl_partida.html#ab2365dd846883b62c30985d553d5e0da" target="_top" xlink:title="Comprova si una paraula col·locada toca alguna lletra existent al taulell.">
<polygon fill="white" stroke="#666666" points="354.5,-505 214,-505 214,-473 354.5,-473 354.5,-505"/>
<text text-anchor="start" x="222" y="-491.5" font-family="Helvetica,sans-Serif" font-size="10.00">controladors.CtrlPartida.toca</text>
<text text-anchor="middle" x="284.25" y="-479.5" font-family="Helvetica,sans-Serif" font-size="10.00">Lletra</text>
</a>
</g>
</g>
<!-- Node1&#45;&gt;Node15 -->
<g id="edge23_Node000001_Node000015" class="edge">
<title>Node1&#45;&gt;Node15</title>
<g id="a_edge23_Node000001_Node000015"><a xlink:title=" ">
<path fill="none" stroke="#63b8ff" d="M96.83,-366.22C117.18,-389.63 157.81,-432.92 200.5,-459 206.01,-462.37 211.96,-465.44 218.05,-468.23"/>
<polygon fill="#63b8ff" stroke="#63b8ff" points="216.42,-471.34 227,-472.05 219.18,-464.9 216.42,-471.34"/>
</a>
</g>
</g>
<!-- Node17 -->
<g id="Node000017" class="node">
<title>Node17</title>
<g id="a_Node000017"><a xlink:href="classdomini_1_1scrabble_1_1_taulell.html#a622ab57cc924ec4c3ff2345698c746e2" target="_top" xlink:title="Retorna la transposició del taulell actual.">
<polygon fill="white" stroke="#666666" points="364.62,-76 203.88,-76 203.88,-56 364.62,-56 364.62,-76"/>
<text text-anchor="middle" x="284.25" y="-62.5" font-family="Helvetica,sans-Serif" font-size="10.00">domini.scrabble.Taulell.transpose</text>
</a>
</g>
</g>
<!-- Node1&#45;&gt;Node17 -->
<g id="edge27_Node000001_Node000017" class="edge">
<title>Node1&#45;&gt;Node17</title>
<g id="a_edge27_Node000001_Node000017"><a xlink:title=" ">
<path fill="none" stroke="#63b8ff" d="M86.22,-333.77C95.2,-289.31 126.11,-164.35 200.5,-96 207.46,-89.61 215.88,-84.56 224.65,-80.57"/>
<polygon fill="#63b8ff" stroke="#63b8ff" points="225.69,-83.92 233.64,-76.92 223.06,-77.43 225.69,-83.92"/>
</a>
</g>
</g>
<!-- Node2&#45;&gt;Node3 -->
<g id="edge2_Node000002_Node000003" class="edge">
<title>Node2&#45;&gt;Node3</title>
<g id="a_edge2_Node000002_Node000003"><a xlink:title=" ">
<path fill="none" stroke="#63b8ff" d="M358.24,-253.43C361.82,-255.91 365.11,-258.74 368,-262 429.39,-331.2 343.57,-396.96 404,-467 405.64,-468.91 407.44,-470.67 409.35,-472.29"/>
<polygon fill="#63b8ff" stroke="#63b8ff" points="406.96,-474.89 417.16,-477.74 410.96,-469.15 406.96,-474.89"/>
</a>
</g>
</g>
<!-- Node2&#45;&gt;Node4 -->
<g id="edge3_Node000002_Node000004" class="edge">
<title>Node2&#45;&gt;Node4</title>
<g id="a_edge3_Node000002_Node000004"><a xlink:title=" ">
<path fill="none" stroke="#63b8ff" d="M357.66,-253.37C361.43,-255.86 364.92,-258.71 368,-262 416.35,-313.61 356.36,-364.73 404,-417 404.46,-417.51 404.94,-418.01 405.42,-418.5"/>
<polygon fill="#63b8ff" stroke="#63b8ff" points="402.92,-420.97 412.88,-424.59 407.35,-415.55 402.92,-420.97"/>
</a>
</g>
</g>
<!-- Node2&#45;&gt;Node5 -->
<g id="edge9_Node000002_Node000005" class="edge">
<title>Node2&#45;&gt;Node5</title>
<g id="a_edge9_Node000002_Node000005"><a xlink:title=" ">
<path fill="none" stroke="#63b8ff" d="M343.49,-253.41C351.78,-256.09 360.16,-258.98 368,-262 384.51,-268.35 387.33,-273.05 404,-279 469.79,-302.47 491,-292.74 556.5,-317 583.99,-327.18 613.69,-342.5 634.58,-354.06"/>
<polygon fill="#63b8ff" stroke="#63b8ff" points="632.6,-356.96 643.03,-358.81 636.03,-350.86 632.6,-356.96"/>
</a>
</g>
</g>
<!-- Node6 -->
<g id="Node000006" class="node">
<title>Node6</title>
<g id="a_Node000006"><a xlink:href="classdomini_1_1auxiliars_1_1_pair.html#af9fc7c6b0fb531c4b59cdb1048897164" target="_top" xlink:title="Obté el primer element de la parella.">
<polygon fill="white" stroke="#666666" points="540.38,-270 420.12,-270 420.12,-238 540.38,-238 540.38,-270"/>
<text text-anchor="start" x="428.12" y="-256.5" font-family="Helvetica,sans-Serif" font-size="10.00">domini.auxiliars.Pair.get</text>
<text text-anchor="middle" x="480.25" y="-244.5" font-family="Helvetica,sans-Serif" font-size="10.00">First</text>
</a>
</g>
</g>
<!-- Node2&#45;&gt;Node6 -->
<g id="edge5_Node000002_Node000006" class="edge">
<title>Node2&#45;&gt;Node6</title>
<g id="a_edge5_Node000002_Node000006"><a xlink:title=" ">
<path fill="none" stroke="#63b8ff" d="M368.37,-244.28C381.73,-245.45 395.45,-246.66 408.49,-247.8"/>
<polygon fill="#63b8ff" stroke="#63b8ff" points="407.97,-251.27 418.24,-248.65 408.58,-244.29 407.97,-251.27"/>
</a>
</g>
</g>
<!-- Node2&#45;&gt;Node7 -->
<g id="edge6_Node000002_Node000007" class="edge">
<title>Node2&#45;&gt;Node7</title>
<g id="a_edge6_Node000002_Node000007"><a xlink:title=" ">
<path fill="none" stroke="#63b8ff" d="M356.5,-253.27C360.66,-255.78 364.54,-258.67 368,-262 403.52,-296.23 368.95,-332.28 404,-367 404.62,-367.62 405.26,-368.22 405.92,-368.81"/>
<polygon fill="#63b8ff" stroke="#63b8ff" points="403.8,-371.59 413.92,-374.74 407.97,-365.97 403.8,-371.59"/>
</a>
</g>
</g>
<!-- Node2&#45;&gt;Node8 -->
<g id="edge7_Node000002_Node000008" class="edge">
<title>Node2&#45;&gt;Node8</title>
<g id="a_edge7_Node000002_Node000008"><a xlink:title=" ">
<path fill="none" stroke="#63b8ff" d="M353.39,-253.5C358.54,-255.96 363.48,-258.77 368,-262 390.29,-277.91 382.42,-295.14 404,-312 407.97,-315.1 412.31,-317.93 416.83,-320.48"/>
<polygon fill="#63b8ff" stroke="#63b8ff" points="415.1,-323.53 425.6,-324.98 418.3,-317.3 415.1,-323.53"/>
</a>
</g>
</g>
<!-- Node9 -->
<g id="Node000009" class="node">
<title>Node9</title>
<g id="a_Node000009"><a xlink:href="classdomini_1_1auxiliars_1_1_pair.html#af70cd15a3a6fe17c25fbae3a08955565" target="_top" xlink:title="Obté el segon element de la parella.">
<polygon fill="white" stroke="#666666" points="540.38,-220 420.12,-220 420.12,-188 540.38,-188 540.38,-220"/>
<text text-anchor="start" x="428.12" y="-206.5" font-family="Helvetica,sans-Serif" font-size="10.00">domini.auxiliars.Pair.get</text>
<text text-anchor="middle" x="480.25" y="-194.5" font-family="Helvetica,sans-Serif" font-size="10.00">Second</text>
</a>
</g>
</g>
<!-- Node2&#45;&gt;Node9 -->
<g id="edge8_Node000002_Node000009" class="edge">
<title>Node2&#45;&gt;Node9</title>
<g id="a_edge8_Node000002_Node000009"><a xlink:title=" ">
<path fill="none" stroke="#63b8ff" d="M368.37,-222.86C381.73,-220.59 395.45,-218.25 408.49,-216.04"/>
<polygon fill="#63b8ff" stroke="#63b8ff" points="408.98,-219.5 418.25,-214.38 407.81,-212.6 408.98,-219.5"/>
</a>
</g>
</g>
<!-- Node4&#45;&gt;Node5 -->
<g id="edge4_Node000004_Node000005" class="edge">
<title>Node4&#45;&gt;Node5</title>
<g id="a_edge4_Node000004_Node000005"><a xlink:title=" ">
<path fill="none" stroke="#63b8ff" d="M532.9,-425.59C540.85,-422.84 548.93,-419.93 556.5,-417 581.68,-407.24 609.57,-394.76 630.36,-385.11"/>
<polygon fill="#63b8ff" stroke="#63b8ff" points="631.59,-388.4 639.17,-380.99 628.63,-382.06 631.59,-388.4"/>
</a>
</g>
</g>
<!-- Node12&#45;&gt;Node6 -->
<g id="edge19_Node000012_Node000006" class="edge">
<title>Node12&#45;&gt;Node6</title>
<g id="a_edge19_Node000012_Node000006"><a xlink:title=" ">
<path fill="none" stroke="#63b8ff" d="M343.49,-203.41C351.78,-206.09 360.16,-208.98 368,-212 384.51,-218.35 387.57,-222.42 404,-229 408.05,-230.62 412.26,-232.23 416.51,-233.79"/>
<polygon fill="#63b8ff" stroke="#63b8ff" points="415.12,-237.01 425.71,-237.09 417.48,-230.42 415.12,-237.01"/>
</a>
</g>
</g>
<!-- Node12&#45;&gt;Node9 -->
<g id="edge20_Node000012_Node000009" class="edge">
<title>Node12&#45;&gt;Node9</title>
<g id="a_edge20_Node000012_Node000009"><a xlink:title=" ">
<path fill="none" stroke="#63b8ff" d="M361.37,-193.67C377,-195.04 393.39,-196.48 408.81,-197.83"/>
<polygon fill="#63b8ff" stroke="#63b8ff" points="408.07,-201.28 418.34,-198.66 408.68,-194.3 408.07,-201.28"/>
</a>
</g>
</g>
<!-- Node13 -->
<g id="Node000013" class="node">
<title>Node13</title>
<g id="a_Node000013"><a xlink:href="classdomini_1_1scrabble_1_1_taulell.html#a28a346ace920ef6a74f94825249d671c" target="_top" xlink:title="Mètode que calcula les coordenades del centre del taulell.">
<polygon fill="white" stroke="#666666" points="546,-170 414.5,-170 414.5,-138 546,-138 546,-170"/>
<text text-anchor="start" x="422.5" y="-156.5" font-family="Helvetica,sans-Serif" font-size="10.00">domini.scrabble.Taulell.get</text>
<text text-anchor="middle" x="480.25" y="-144.5" font-family="Helvetica,sans-Serif" font-size="10.00">CentreTaulell</text>
</a>
</g>
</g>
<!-- Node12&#45;&gt;Node13 -->
<g id="edge18_Node000012_Node000013" class="edge">
<title>Node12&#45;&gt;Node13</title>
<g id="a_edge18_Node000012_Node000013"><a xlink:title=" ">
<path fill="none" stroke="#63b8ff" d="M361.37,-174.05C374.97,-171.74 389.14,-169.33 402.76,-167.01"/>
<polygon fill="#63b8ff" stroke="#63b8ff" points="403.27,-170.48 412.54,-165.35 402.09,-163.57 403.27,-170.48"/>
</a>
</g>
</g>
<!-- Node14&#45;&gt;Node5 -->
<g id="edge22_Node000014_Node000005" class="edge">
<title>Node14&#45;&gt;Node5</title>
<g id="a_edge22_Node000014_Node000005"><a xlink:title=" ">
<path fill="none" stroke="#63b8ff" d="M360.81,-588.86C418.8,-593.95 498.49,-591.89 556.5,-555 616.61,-516.77 646.06,-431.34 656.96,-391.38"/>
<polygon fill="#63b8ff" stroke="#63b8ff" points="660.32,-392.35 659.43,-381.79 653.55,-390.6 660.32,-392.35"/>
</a>
</g>
</g>
<!-- Node15&#45;&gt;Node3 -->
<g id="edge24_Node000015_Node000003" class="edge">
<title>Node15&#45;&gt;Node3</title>
<g id="a_edge24_Node000015_Node000003"><a xlink:title=" ">
<path fill="none" stroke="#63b8ff" d="M354.74,-490.07C371.78,-490.34 390.04,-490.62 407.2,-490.89"/>
<polygon fill="#63b8ff" stroke="#63b8ff" points="406.72,-494.38 416.77,-491.03 406.82,-487.38 406.72,-494.38"/>
</a>
</g>
</g>
<!-- Node15&#45;&gt;Node4 -->
<g id="edge25_Node000015_Node000004" class="edge">
<title>Node15&#45;&gt;Node4</title>
<g id="a_edge25_Node000015_Node000004"><a xlink:title=" ">
<path fill="none" stroke="#63b8ff" d="M353.1,-472.56C369.33,-468.63 386.75,-464.41 403.31,-460.4"/>
<polygon fill="#63b8ff" stroke="#63b8ff" points="403.68,-463.91 412.58,-458.15 402.03,-457.11 403.68,-463.91"/>
</a>
</g>
</g>
<!-- Node16 -->
<g id="Node000016" class="node">
<title>Node16</title>
<g id="a_Node000016"><a xlink:href="classdomini_1_1scrabble_1_1_taulell.html#a6df3c705440324d9c2ca283a464a3a8f" target="_top" xlink:title="Retorna el nombre de files/columnes del taulell.">
<polygon fill="white" stroke="#666666" points="556.5,-546 404,-546 404,-526 556.5,-526 556.5,-546"/>
<text text-anchor="middle" x="480.25" y="-532.5" font-family="Helvetica,sans-Serif" font-size="10.00">domini.scrabble.Taulell.getMida</text>
</a>
</g>
</g>
<!-- Node15&#45;&gt;Node16 -->
<g id="edge26_Node000015_Node000016" class="edge">
<title>Node15&#45;&gt;Node16</title>
<g id="a_edge26_Node000015_Node000016"><a xlink:title=" ">
<path fill="none" stroke="#63b8ff" d="M353.1,-505.44C376.66,-511.15 402.74,-517.46 425.05,-522.87"/>
<polygon fill="#63b8ff" stroke="#63b8ff" points="423.99,-526.21 434.53,-525.17 425.63,-519.41 423.99,-526.21"/>
</a>
</g>
</g>
<!-- Node18 -->
<g id="Node000018" class="node">
<title>Node18</title>
<g id="a_Node000018"><a xlink:href="classdomini_1_1scrabble_1_1_taulell.html#a10eef6a9fe59fa18f5b2d6d311c6356c" target="_top" xlink:title="Retorna la casella de la posició indicada.">
<polygon fill="white" stroke="#666666" points="546,-82 414.5,-82 414.5,-50 546,-50 546,-82"/>
<text text-anchor="start" x="422.5" y="-68.5" font-family="Helvetica,sans-Serif" font-size="10.00">domini.scrabble.Taulell.set</text>
<text text-anchor="middle" x="480.25" y="-56.5" font-family="Helvetica,sans-Serif" font-size="10.00">Casella</text>
</a>
</g>
</g>
<!-- Node17&#45;&gt;Node18 -->
<g id="edge28_Node000017_Node000018" class="edge">
<title>Node17&#45;&gt;Node18</title>
<g id="a_edge28_Node000017_Node000018"><a xlink:title=" ">
<path fill="none" stroke="#63b8ff" d="M365,-66C377.56,-66 390.52,-66 403,-66"/>
<polygon fill="#63b8ff" stroke="#63b8ff" points="402.79,-69.5 412.79,-66 402.79,-62.5 402.79,-69.5"/>
</a>
</g>
</g>
<!-- Node19 -->
<g id="Node000019" class="node">
<title>Node19</title>
<g id="a_Node000019"><a xlink:href="classdomini_1_1scrabble_1_1_taulell.html#a2f2deb612c9af047decb87cc0d7e85d1" target="_top" xlink:title="Constructora de la classe Taulell.">
<polygon fill="white" stroke="#666666" points="539.25,-32 421.25,-32 421.25,0 539.25,0 539.25,-32"/>
<text text-anchor="start" x="429.25" y="-18.5" font-family="Helvetica,sans-Serif" font-size="10.00">domini.scrabble.Taulell.</text>
<text text-anchor="middle" x="480.25" y="-6.5" font-family="Helvetica,sans-Serif" font-size="10.00">Taulell</text>
</a>
</g>
</g>
<!-- Node17&#45;&gt;Node19 -->
<g id="edge29_Node000017_Node000019" class="edge">
<title>Node17&#45;&gt;Node19</title>
<g id="a_edge29_Node000017_Node000019"><a xlink:title=" ">
<path fill="none" stroke="#63b8ff" d="M325.92,-55.52C350.24,-49.25 381.8,-41.12 409.96,-33.86"/>
<polygon fill="#63b8ff" stroke="#63b8ff" points="410.69,-37.28 419.5,-31.4 408.95,-30.51 410.69,-37.28"/>
</a>
</g>
</g>
</g>
</svg>

<g id="navigator" transform="translate(0 0)" fill="#404254">
  <rect fill="#f2f5e9" fill-opacity="0.5" stroke="#606060" stroke-width=".5" x="0" y="0" width="60" height="60"/>
  <use id="zoomplus" xlink:href="#zoomPlus" x="17" y="9" onmousedown="handleZoom(evt,'in')"/>
  <use id="zoomminus" xlink:href="#zoomMin" x="42" y="9" onmousedown="handleZoom(evt,'out')"/>
  <use id="reset" xlink:href="#resetDef" x="30" y="36" onmousedown="handleReset()"/>
   <use id="arrowup" xlink:href="#arrowUp" x="0" y="0" onmousedown="handlePan(0,-1)"/>
  <use id="arrowright" xlink:href="#arrowRight" x="0" y="0" onmousedown="handlePan(1,0)"/>
  <use id="arrowdown" xlink:href="#arrowDown" x="0" y="0" onmousedown="handlePan(0,1)"/>
  <use id="arrowleft" xlink:href="#arrowLeft" x="0" y="0" onmousedown="handlePan(-1,0)"/>
</g>
<svg viewBox="0 0 15 15" width="100%" height="30px" preserveAspectRatio="xMaxYMin meet">
 <g id="arrow_out" transform="scale(0.3 0.3)">
  <a xlink:href="classcontroladors_1_1_ctrl_partida_a11dd5c5c7252681872e3ba7baf8213a8_cgraph_org.svg" target="_base">
   <rect id="button" ry="5" rx="5" y="6" x="6" height="38" width="38"
        fill="#f2f5e9" fill-opacity="0.5" stroke="#606060" stroke-width="1.0"/>
   <path id="arrow"
     d="M 11.500037,31.436501 C 11.940474,20.09759 22.043105,11.32322 32.158766,21.979434 L 37.068811,17.246167 C 37.068811,17.246167 37.088388,32 37.088388,32 L 22.160133,31.978069 C 22.160133,31.978069 26.997745,27.140456 26.997745,27.140456 C 18.528582,18.264221 13.291696,25.230495 11.500037,31.436501 z"
     style="fill:#404040;"/>
  </a>
 </g>
</svg>

<style type='text/css'>
<![CDATA[
[data-mouse-over-selected='false'] { opacity: 0.7; }
[data-mouse-over-selected='true']  { opacity: 1.0; }
]]>
</style>
<script type="application/ecmascript"><![CDATA[
document.addEventListener('DOMContentLoaded', (event) => {
  highlightEdges();
  highlightAdjacentNodes();
});
]]></script>
</svg>
