<?xml version="1.0" encoding="UTF-8" standalone="no"?>
<!DOCTYPE svg PUBLIC "-//W3C//DTD SVG 1.1//EN"
 "http://www.w3.org/Graphics/SVG/1.1/DTD/svg11.dtd">
<!-- Generated by graphviz version 12.2.1 (20241206.2353)
 -->
<!-- Title: interficie.VistaCrearPerfil.VistaCrearPerfil Pages: 1 -->
<svg width="524pt" height="200pt"
 viewBox="0.00 0.00 524.00 199.93" xmlns="http://www.w3.org/2000/svg" xmlns:xlink="http://www.w3.org/1999/xlink">
<g id="graph0" class="graph" transform="scale(1 1) rotate(0) translate(4 195.93)">
<title>interficie.VistaCrearPerfil.VistaCrearPerfil</title>
<!-- Node1 -->
<g id="Node000001" class="node">
<title>Node1</title>
<g id="a_Node000001"><a xlink:title="Constructor que crea la finestra per crear un perfil.">
<polygon fill="#999999" stroke="#666666" points="127.75,-120 0,-120 0,-88 127.75,-88 127.75,-120"/>
<text text-anchor="start" x="8" y="-106.5" font-family="Helvetica,sans-Serif" font-size="10.00">interficie.VistaCrearPerfil.</text>
<text text-anchor="middle" x="63.88" y="-94.5" font-family="Helvetica,sans-Serif" font-size="10.00">VistaCrearPerfil</text>
</a>
</g>
</g>
<!-- Node1&#45;&gt;Node1 -->
<g id="edge7_Node000001_Node000001" class="edge">
<title>Node1&#45;&gt;Node1</title>
<g id="a_edge7_Node000001_Node000001"><a xlink:title=" ">
<path fill="none" stroke="#63b8ff" d="M31.03,-120.44C24.89,-129.58 35.84,-138 63.88,-138 79.2,-138 89.43,-135.48 94.54,-131.71"/>
<polygon fill="#63b8ff" stroke="#63b8ff" points="97.97,-132.41 96.44,-121.93 91.09,-131.08 97.97,-132.41"/>
</a>
</g>
</g>
<!-- Node2 -->
<g id="Node000002" class="node">
<title>Node2</title>
<g id="a_Node000002"><a xlink:href="$classinterficie_1_1utils_1_1_tools.html#aad14ef36a2a433a18d49c46a83531892" xlink:title="Actualitza la imatge d&#39;un JLabel redimensionant&#45;la per adaptar&#45;se a les mides màximes indicades mante...">
<polygon fill="white" stroke="#666666" points="516,-167 368,-167 368,-135 516,-135 516,-167"/>
<text text-anchor="start" x="376" y="-153.5" font-family="Helvetica,sans-Serif" font-size="10.00">interficie.utils.Tools.actualitzar</text>
<text text-anchor="middle" x="442" y="-141.5" font-family="Helvetica,sans-Serif" font-size="10.00">Imatge</text>
</a>
</g>
</g>
<!-- Node1&#45;&gt;Node2 -->
<g id="edge1_Node000001_Node000002" class="edge">
<title>Node1&#45;&gt;Node2</title>
<g id="a_edge1_Node000001_Node000002"><a xlink:title=" ">
<path fill="none" stroke="#63b8ff" d="M79.73,-120.4C97.58,-138.77 129.44,-167.46 163.75,-179 236.62,-203.51 325.85,-186.8 383.05,-170.6"/>
<polygon fill="#63b8ff" stroke="#63b8ff" points="383.98,-173.98 392.6,-167.81 382.02,-167.26 383.98,-173.98"/>
</a>
</g>
</g>
<!-- Node3 -->
<g id="Node000003" class="node">
<title>Node3</title>
<g id="a_Node000003"><a xlink:href="$classcontroladors_1_1_ctrl_presentacio.html#ac1e59448659f7308cb047c74c5ab1416" xlink:title="Crea un nou perfil d&#39;usuari amb el nom i la contrasenya proporcionats.">
<polygon fill="white" stroke="#666666" points="330.12,-170 165.62,-170 165.62,-138 330.12,-138 330.12,-170"/>
<text text-anchor="start" x="173.62" y="-156.5" font-family="Helvetica,sans-Serif" font-size="10.00">controladors.CtrlPresentacio.crear</text>
<text text-anchor="middle" x="247.88" y="-144.5" font-family="Helvetica,sans-Serif" font-size="10.00">Perfil</text>
</a>
</g>
</g>
<!-- Node1&#45;&gt;Node3 -->
<g id="edge2_Node000001_Node000003" class="edge">
<title>Node1&#45;&gt;Node3</title>
<g id="a_edge2_Node000001_Node000003"><a xlink:title=" ">
<path fill="none" stroke="#63b8ff" d="M124.72,-120.44C141.12,-124.95 159.06,-129.88 176.02,-134.53"/>
<polygon fill="#63b8ff" stroke="#63b8ff" points="174.96,-137.87 185.53,-137.15 176.82,-131.12 174.96,-137.87"/>
</a>
</g>
</g>
<!-- Node4 -->
<g id="Node000004" class="node">
<title>Node4</title>
<g id="a_Node000004"><a xlink:href="$classinterficie_1_1_vista_crear_perfil.html#ab2dea48a192f08da5032b8c03bdaa697" xlink:title="Escala i reubica els components segons la mida actual de la finestra, mantenint proporcions relatives...">
<polygon fill="white" stroke="#666666" points="327.5,-120 168.25,-120 168.25,-88 327.5,-88 327.5,-120"/>
<text text-anchor="start" x="176.25" y="-106.5" font-family="Helvetica,sans-Serif" font-size="10.00">interficie.VistaCrearPerfil.escalar</text>
<text text-anchor="middle" x="247.88" y="-94.5" font-family="Helvetica,sans-Serif" font-size="10.00">Componentes</text>
</a>
</g>
</g>
<!-- Node1&#45;&gt;Node4 -->
<g id="edge3_Node000001_Node000004" class="edge">
<title>Node1&#45;&gt;Node4</title>
<g id="a_edge3_Node000001_Node000004"><a xlink:title=" ">
<path fill="none" stroke="#63b8ff" d="M128.02,-104C137.24,-104 146.89,-104 156.53,-104"/>
<polygon fill="#63b8ff" stroke="#63b8ff" points="156.3,-107.5 166.3,-104 156.3,-100.5 156.3,-107.5"/>
</a>
</g>
</g>
<!-- Node5 -->
<g id="Node000005" class="node">
<title>Node5</title>
<g id="a_Node000005"><a xlink:href="$classcontroladors_1_1_ctrl_presentacio.html#ada9c0d9a25124701e9b640403d3ffd6c" xlink:title="Inicia una sessió amb l&#39;usuari especificat.">
<polygon fill="white" stroke="#666666" points="332,-70 163.75,-70 163.75,-38 332,-38 332,-70"/>
<text text-anchor="start" x="171.75" y="-56.5" font-family="Helvetica,sans-Serif" font-size="10.00">controladors.CtrlPresentacio.iniciar</text>
<text text-anchor="middle" x="247.88" y="-44.5" font-family="Helvetica,sans-Serif" font-size="10.00">Sessio</text>
</a>
</g>
</g>
<!-- Node1&#45;&gt;Node5 -->
<g id="edge5_Node000001_Node000005" class="edge">
<title>Node1&#45;&gt;Node5</title>
<g id="a_edge5_Node000001_Node000005"><a xlink:title=" ">
<path fill="none" stroke="#63b8ff" d="M124.72,-87.56C141.12,-83.05 159.06,-78.12 176.02,-73.47"/>
<polygon fill="#63b8ff" stroke="#63b8ff" points="176.82,-76.88 185.53,-70.85 174.96,-70.13 176.82,-76.88"/>
</a>
</g>
</g>
<!-- Node6 -->
<g id="Node000006" class="node">
<title>Node6</title>
<g id="a_Node000006"><a xlink:href="$classcontroladors_1_1_ctrl_presentacio.html#a66901a833c124fd1acc592cea93f4e6d" xlink:title="Torna a la vista anterior a l&#39;actual.">
<polygon fill="white" stroke="#666666" points="331.62,-20 164.12,-20 164.12,0 331.62,0 331.62,-20"/>
<text text-anchor="middle" x="247.88" y="-6.5" font-family="Helvetica,sans-Serif" font-size="10.00">controladors.CtrlPresentacio.tornar</text>
</a>
</g>
</g>
<!-- Node1&#45;&gt;Node6 -->
<g id="edge6_Node000001_Node000006" class="edge">
<title>Node1&#45;&gt;Node6</title>
<g id="a_edge6_Node000001_Node000006"><a xlink:title=" ">
<path fill="none" stroke="#63b8ff" d="M81.6,-87.7C100.16,-70.52 131.73,-43.95 163.75,-29 167.78,-27.12 172.02,-25.41 176.35,-23.87"/>
<polygon fill="#63b8ff" stroke="#63b8ff" points="177.36,-27.22 185.81,-20.84 175.22,-20.56 177.36,-27.22"/>
</a>
</g>
</g>
<!-- Node4&#45;&gt;Node2 -->
<g id="edge4_Node000004_Node000002" class="edge">
<title>Node4&#45;&gt;Node2</title>
<g id="a_edge4_Node000004_Node000002"><a xlink:title=" ">
<path fill="none" stroke="#63b8ff" d="M316.07,-120.44C331.13,-124.12 347.24,-128.06 362.71,-131.85"/>
<polygon fill="#63b8ff" stroke="#63b8ff" points="361.83,-135.23 372.37,-134.21 363.49,-128.44 361.83,-135.23"/>
</a>
</g>
</g>
</g>
</svg>
