<?xml version="1.0" encoding="UTF-8" standalone="no"?>
<!DOCTYPE svg PUBLIC "-//W3C//DTD SVG 1.1//EN"
 "http://www.w3.org/Graphics/SVG/1.1/DTD/svg11.dtd">
<!-- Generated by graphviz version 12.2.1 (20241206.2353)
 -->
<!-- Title: controladors.CtrlPresentacio.getPartida Pages: 1 -->
<!--zoomable 502 -->

<svg id="main" version="1.1" xmlns="http://www.w3.org/2000/svg" xmlns:xlink="http://www.w3.org/1999/xlink" xml:space="preserve" onload="init(evt)">

<style type="text/css"><![CDATA[
.node, .edge {opacity: 0.7;}
.node.selected, .edge.selected {opacity: 1;}
.edge:hover path { stroke: red; }
.edge:hover polygon { stroke: red; fill: red; }
]]></style>

<defs>
  <circle id="rim" cx="0" cy="0" r="7"/>
  <circle id="rim2" cx="0" cy="0" r="3.5"/>
  <g id="zoomPlus">
    <use xlink:href="#rim" fill="#404040"><set attributeName="fill" to="#808080" begin="zoomplus.mouseover" end="zoomplus.mouseout"/></use>
    <path d="M-4,0h8M0,-4v8" fill="none" stroke="white" stroke-width="1.5" pointer-events="none"/>
  </g>
  <g id="zoomMin">
    <use xlink:href="#rim" fill="#404040"><set attributeName="fill" to="#808080" begin="zoomminus.mouseover" end="zoomminus.mouseout"/></use>
    <path d="M-4,0h8" fill="none" stroke="white" stroke-width="1.5" pointer-events="none"/>
  </g>
  <g id="arrowUp" transform="translate(30 24)">
    <use xlink:href="#rim"/>
    <path pointer-events="none" fill="none" stroke="white" stroke-width="1.5" d="M0,-3.0v7 M-2.5,-0.5L0,-3.0L2.5,-0.5"/>
  </g>
  <g id="arrowRight" transform="rotate(90) translate(36 -43)">
    <use xlink:href="#rim"/>
    <path pointer-events="none" fill="none" stroke="white" stroke-width="1.5" d="M0,-3.0v7 M-2.5,-0.5L0,-3.0L2.5,-0.5"/>
  </g>
  <g id="arrowDown" transform="rotate(180) translate(-30 -48)">
    <use xlink:href="#rim"/>
    <path pointer-events="none" fill="none" stroke="white" stroke-width="1.5" d="M0,-3.0v7 M-2.5,-0.5L0,-3.0L2.5,-0.5"/>
  </g>
  <g id="arrowLeft" transform="rotate(270) translate(-36 17)">
    <use xlink:href="#rim"/>
    <path pointer-events="none" fill="none" stroke="white" stroke-width="1.5" d="M0,-3.0v7 M-2.5,-0.5L0,-3.0L2.5,-0.5"/>
  </g>
  <g id="resetDef">
    <use xlink:href="#rim2" fill="#404040"><set attributeName="fill" to="#808080" begin="reset.mouseover" end="reset.mouseout"/></use>
  </g>
</defs>
<script type="application/ecmascript">
var viewWidth = 1516;
var viewHeight = 502;
var sectionId = 'dynsection-28';
</script>
<script type="application/ecmascript" xlink:href="svg.min.js"/>
<svg id="graph" class="graph">
<g id="viewport">
<title>controladors.CtrlPresentacio.getPartida</title>
<!-- Node1 -->
<g id="Node000001" class="node">
<title>Node1</title>
<g id="a_Node000001"><a xlink:title="Retorna la instància de la partida actual en curs.">
<polygon fill="#999999" stroke="#666666" points="1508,-315 1351.75,-315 1351.75,-283 1508,-283 1508,-315"/>
<text text-anchor="start" x="1359.75" y="-301.5" font-family="Helvetica,sans-Serif" font-size="10.00">controladors.CtrlPresentacio.get</text>
<text text-anchor="middle" x="1429.88" y="-289.5" font-family="Helvetica,sans-Serif" font-size="10.00">Partida</text>
</a>
</g>
</g>
<!-- Node2 -->
<g id="Node000002" class="node">
<title>Node2</title>
<g id="a_Node000002"><a xlink:href="classcontroladors_1_1_ctrl_presentacio.html#a7420312f0b6f73606984a5329267a4ce" target="_top" xlink:title="Canvia a la vista de canvi de torn entre jugadors.">
<polygon fill="white" stroke="#666666" points="1311.25,-340 1137,-340 1137,-308 1311.25,-308 1311.25,-340"/>
<text text-anchor="start" x="1145" y="-326.5" font-family="Helvetica,sans-Serif" font-size="10.00">controladors.CtrlPresentacio.canviar</text>
<text text-anchor="middle" x="1224.12" y="-314.5" font-family="Helvetica,sans-Serif" font-size="10.00">CanviTorn</text>
</a>
</g>
</g>
<!-- Node1&#45;&gt;Node2 -->
<g id="edge1_Node000001_Node000002" class="edge">
<title>Node1&#45;&gt;Node2</title>
<g id="a_edge1_Node000001_Node000002"><a xlink:title=" ">
<path fill="none" stroke="#63b8ff" d="M1339.93,-309.91C1330.56,-311.06 1321.05,-312.23 1311.71,-313.38"/>
<polygon fill="#63b8ff" stroke="#63b8ff" points="1340.26,-313.4 1349.76,-308.71 1339.41,-306.45 1340.26,-313.4"/>
</a>
</g>
</g>
<!-- Node3 -->
<g id="Node000003" class="node">
<title>Node3</title>
<g id="a_Node000003"><a xlink:href="classinterficie_1_1_vista_partida.html#a7855e7a9cc41e1450c37054781ba6309" target="_top" xlink:title="Inicialitza els components de la interfície gràfica.">
<polygon fill="white" stroke="#666666" points="887,-252 751.75,-252 751.75,-232 887,-232 887,-252"/>
<text text-anchor="middle" x="819.38" y="-238.5" font-family="Helvetica,sans-Serif" font-size="10.00">interficie.VistaPartida.initUI</text>
</a>
</g>
</g>
<!-- Node1&#45;&gt;Node3 -->
<g id="edge24_Node000001_Node000003" class="edge">
<title>Node1&#45;&gt;Node3</title>
<g id="a_edge24_Node000001_Node000003"><a xlink:title=" ">
<path fill="none" stroke="#63b8ff" d="M1389.97,-277.24C1368.73,-266.55 1341.57,-254.76 1315.75,-249 1165.69,-215.53 983.67,-225.38 887.48,-234.38"/>
<polygon fill="#63b8ff" stroke="#63b8ff" points="1388.36,-280.35 1398.85,-281.83 1391.57,-274.13 1388.36,-280.35"/>
</a>
</g>
</g>
<!-- Node4 -->
<g id="Node000004" class="node">
<title>Node4</title>
<g id="a_Node000004"><a xlink:href="classinterficie_1_1_vista_partida.html#abce8626a6a3750affe851e1f8bea2cb3" target="_top" xlink:title="Constructor de la classe VistaPartida.">
<polygon fill="white" stroke="#666666" points="694.38,-258 582.38,-258 582.38,-226 694.38,-226 694.38,-258"/>
<text text-anchor="start" x="590.38" y="-244.5" font-family="Helvetica,sans-Serif" font-size="10.00">interficie.VistaPartida.</text>
<text text-anchor="middle" x="638.38" y="-232.5" font-family="Helvetica,sans-Serif" font-size="10.00">VistaPartida</text>
</a>
</g>
</g>
<!-- Node1&#45;&gt;Node4 -->
<g id="edge37_Node000001_Node000004" class="edge">
<title>Node1&#45;&gt;Node4</title>
<g id="a_edge37_Node000001_Node000004"><a xlink:title=" ">
<path fill="none" stroke="#63b8ff" d="M1390.75,-320.62C1369.43,-331.48 1341.93,-343.47 1315.75,-349 1144.87,-385.08 1094.48,-369.16 923,-336 832.85,-318.57 731.78,-280.31 677.98,-258.35"/>
<polygon fill="#63b8ff" stroke="#63b8ff" points="1392.12,-323.86 1399.36,-316.12 1388.87,-317.66 1392.12,-323.86"/>
</a>
</g>
</g>
<!-- Node6 -->
<g id="Node000006" class="node">
<title>Node6</title>
<g id="a_Node000006"><a xlink:href="classinterficie_1_1_vista_partida.html#a0698d192124492ebfd8a3b029a6fa23c" target="_top" xlink:title="Actualitza els racks dels jugadors.">
<polygon fill="white" stroke="#666666" points="336.5,-313 186.25,-313 186.25,-281 336.5,-281 336.5,-313"/>
<text text-anchor="start" x="194.25" y="-299.5" font-family="Helvetica,sans-Serif" font-size="10.00">interficie.VistaPartida.refrescar</text>
<text text-anchor="middle" x="261.38" y="-287.5" font-family="Helvetica,sans-Serif" font-size="10.00">RackJugadors</text>
</a>
</g>
</g>
<!-- Node1&#45;&gt;Node6 -->
<g id="edge30_Node000001_Node000006" class="edge">
<title>Node1&#45;&gt;Node6</title>
<g id="a_edge30_Node000001_Node000006"><a xlink:title=" ">
<path fill="none" stroke="#63b8ff" d="M1399.23,-322.13C1377.24,-338.33 1345.96,-359.42 1315.75,-373 1187.62,-430.6 1151.24,-456 1010.75,-456 1010.75,-456 1010.75,-456 637.38,-456 515.14,-456 473.05,-451.5 372.5,-382 350.27,-366.63 357.26,-350.3 336.5,-333 327.27,-325.31 316.11,-318.79 305.29,-313.5"/>
<polygon fill="#63b8ff" stroke="#63b8ff" points="1401.23,-325 1407.13,-316.21 1397.03,-319.4 1401.23,-325"/>
</a>
</g>
</g>
<!-- Node7 -->
<g id="Node000007" class="node">
<title>Node7</title>
<g id="a_Node000007"><a xlink:href="classinterficie_1_1_vista_partida.html#a485041b781e81c64fb5414207ff21d2a" target="_top" xlink:title="Actualitza la informació de la partida.">
<polygon fill="white" stroke="#666666" points="150.25,-283 0,-283 0,-251 150.25,-251 150.25,-283"/>
<text text-anchor="start" x="8" y="-269.5" font-family="Helvetica,sans-Serif" font-size="10.00">interficie.VistaPartida.refrescar</text>
<text text-anchor="middle" x="75.12" y="-257.5" font-family="Helvetica,sans-Serif" font-size="10.00">Informacio</text>
</a>
</g>
</g>
<!-- Node1&#45;&gt;Node7 -->
<g id="edge25_Node000001_Node000007" class="edge">
<title>Node1&#45;&gt;Node7</title>
<g id="a_edge25_Node000001_Node000007"><a xlink:title=" ">
<path fill="none" stroke="#63b8ff" d="M1412.69,-324.48C1393.2,-352.98 1357.81,-398.36 1315.75,-423 1195.66,-493.36 1149.93,-494 1010.75,-494 1010.75,-494 1010.75,-494 447.75,-494 321.49,-494 290,-454.96 186.25,-383 144.72,-354.2 106.58,-307.72 88,-283.25"/>
<polygon fill="#63b8ff" stroke="#63b8ff" points="1415.42,-326.69 1418.06,-316.42 1409.6,-322.8 1415.42,-326.69"/>
</a>
</g>
</g>
<!-- Node11 -->
<g id="Node000011" class="node">
<title>Node11</title>
<g id="a_Node000011"><a xlink:href="classcontroladors_1_1_ctrl_presentacio.html#af82e544e6fad5efe4bce551be338f5f1" target="_top" xlink:title="Canvia la vista a la pantalla de rànquing final un cop acabada la partida.">
<polygon fill="white" stroke="#666666" points="1307.12,-290 1141.12,-290 1141.12,-258 1307.12,-258 1307.12,-290"/>
<text text-anchor="start" x="1149.12" y="-276.5" font-family="Helvetica,sans-Serif" font-size="10.00">controladors.CtrlPresentacio.canvi</text>
<text text-anchor="middle" x="1224.12" y="-264.5" font-family="Helvetica,sans-Serif" font-size="10.00">RankingPartida</text>
</a>
</g>
</g>
<!-- Node1&#45;&gt;Node11 -->
<g id="edge20_Node000001_Node000011" class="edge">
<title>Node1&#45;&gt;Node11</title>
<g id="a_edge20_Node000001_Node000011"><a xlink:title=" ">
<path fill="none" stroke="#63b8ff" d="M1340.1,-288.11C1329.31,-286.78 1318.31,-285.43 1307.6,-284.12"/>
<polygon fill="#63b8ff" stroke="#63b8ff" points="1339.41,-291.55 1349.76,-289.29 1340.26,-284.6 1339.41,-291.55"/>
</a>
</g>
</g>
<!-- Node13 -->
<g id="Node000013" class="node">
<title>Node13</title>
<g id="a_Node000013"><a xlink:href="classinterficie_1_1_vista_partida.html#a338cec676072419cb1cdf74a8c57ece5" target="_top" xlink:title="Actualitza la visualització del rack del jugador actual.">
<polygon fill="white" stroke="#666666" points="1096.5,-176 923,-176 923,-156 1096.5,-156 1096.5,-176"/>
<text text-anchor="middle" x="1009.75" y="-162.5" font-family="Helvetica,sans-Serif" font-size="10.00">interficie.VistaPartida.refrescarRack</text>
</a>
</g>
</g>
<!-- Node1&#45;&gt;Node13 -->
<g id="edge26_Node000001_Node000013" class="edge">
<title>Node1&#45;&gt;Node13</title>
<g id="a_edge26_Node000001_Node000013"><a xlink:title=" ">
<path fill="none" stroke="#63b8ff" d="M1411.3,-273.94C1391.44,-247.86 1356.51,-208.33 1315.75,-190 1246.72,-158.95 1160.04,-155.03 1096.74,-157.66"/>
<polygon fill="#63b8ff" stroke="#63b8ff" points="1408.26,-275.7 1417.02,-281.65 1413.88,-271.53 1408.26,-275.7"/>
</a>
</g>
</g>
<!-- Node14 -->
<g id="Node000014" class="node">
<title>Node14</title>
<g id="a_Node000014"><a xlink:href="classcontroladors_1_1_ctrl_presentacio.html#ad0c6a8a429d767f53f2e0fa4c6f8a5dc" target="_top" xlink:title="Reprèn una partida existent identificada pel seu ID.">
<polygon fill="white" stroke="#666666" points="1315.75,-112 1132.5,-112 1132.5,-80 1315.75,-80 1315.75,-112"/>
<text text-anchor="start" x="1140.5" y="-98.5" font-family="Helvetica,sans-Serif" font-size="10.00">controladors.CtrlPresentacio.reprendre</text>
<text text-anchor="middle" x="1224.12" y="-86.5" font-family="Helvetica,sans-Serif" font-size="10.00">Partida</text>
</a>
</g>
</g>
<!-- Node1&#45;&gt;Node14 -->
<g id="edge31_Node000001_Node000014" class="edge">
<title>Node1&#45;&gt;Node14</title>
<g id="a_edge31_Node000001_Node000014"><a xlink:title=" ">
<path fill="none" stroke="#63b8ff" d="M1413.16,-273.18C1393.24,-241.9 1356.56,-188.83 1315.75,-152 1298.31,-136.26 1275.87,-122.36 1257.69,-112.34"/>
<polygon fill="#63b8ff" stroke="#63b8ff" points="1410.17,-275 1418.45,-281.62 1416.1,-271.29 1410.17,-275"/>
</a>
</g>
</g>
<!-- Node2&#45;&gt;Node3 -->
<g id="edge2_Node000002_Node000003" class="edge">
<title>Node2&#45;&gt;Node3</title>
<g id="a_edge2_Node000002_Node000003"><a xlink:title=" ">
<path fill="none" stroke="#63b8ff" d="M1125.16,-332.97C1065.31,-335.25 988.05,-332.38 923,-311 885.47,-298.66 848.87,-268.42 831.26,-252.38"/>
<polygon fill="#63b8ff" stroke="#63b8ff" points="1125.15,-336.48 1134.99,-332.54 1124.84,-329.49 1125.15,-336.48"/>
</a>
</g>
</g>
<!-- Node3&#45;&gt;Node4 -->
<g id="edge3_Node000003_Node000004" class="edge">
<title>Node3&#45;&gt;Node4</title>
<g id="a_edge3_Node000003_Node000004"><a xlink:title=" ">
<path fill="none" stroke="#63b8ff" d="M740.39,-235.3C725.04,-235.17 709.23,-235.3 694.8,-235.71"/>
<polygon fill="#63b8ff" stroke="#63b8ff" points="739.91,-238.79 749.95,-235.43 740,-231.79 739.91,-238.79"/>
</a>
</g>
</g>
<!-- Node4&#45;&gt;Node3 -->
<g id="edge18_Node000004_Node000003" class="edge">
<title>Node4&#45;&gt;Node3</title>
<g id="a_edge18_Node000004_Node000003"><a xlink:title=" ">
<path fill="none" stroke="#63b8ff" d="M705.96,-248.55C720.82,-248.81 736.59,-248.82 751.47,-248.56"/>
<polygon fill="#63b8ff" stroke="#63b8ff" points="706.39,-245.06 696.31,-248.33 706.23,-252.06 706.39,-245.06"/>
</a>
</g>
</g>
<!-- Node4&#45;&gt;Node4 -->
<g id="edge19_Node000004_Node000004" class="edge">
<title>Node4&#45;&gt;Node4</title>
<g id="a_edge19_Node000004_Node000004"><a xlink:title=" ">
<path fill="none" stroke="#63b8ff" d="M668.54,-269.71C663.51,-273.48 653.45,-276 638.38,-276 610.8,-276 600.03,-267.58 606.06,-258.44"/>
<polygon fill="#63b8ff" stroke="#63b8ff" points="671.97,-270.41 670.4,-259.93 665.09,-269.1 671.97,-270.41"/>
</a>
</g>
</g>
<!-- Node5 -->
<g id="Node000005" class="node">
<title>Node5</title>
<g id="a_Node000005"><a xlink:href="classinterficie_1_1_vista_partida.html#a6bd7550fc714ba5195c8b55ffe3d973c" target="_top" xlink:title="Afegeix les fitxes d&#39;un jugador al seu rack.">
<polygon fill="white" stroke="#666666" points="516.75,-302 380.75,-302 380.75,-270 516.75,-270 516.75,-302"/>
<text text-anchor="start" x="388.75" y="-288.5" font-family="Helvetica,sans-Serif" font-size="10.00">interficie.VistaPartida.afegir</text>
<text text-anchor="middle" x="448.75" y="-276.5" font-family="Helvetica,sans-Serif" font-size="10.00">FitxesARack</text>
</a>
</g>
</g>
<!-- Node4&#45;&gt;Node5 -->
<g id="edge4_Node000004_Node000005" class="edge">
<title>Node4&#45;&gt;Node5</title>
<g id="a_edge4_Node000004_Node000005"><a xlink:title=" ">
<path fill="none" stroke="#63b8ff" d="M571.33,-257.49C553.69,-261.63 534.61,-266.1 516.92,-270.25"/>
<polygon fill="#63b8ff" stroke="#63b8ff" points="571.69,-261 580.62,-255.31 570.09,-254.18 571.69,-261"/>
</a>
</g>
</g>
<!-- Node8 -->
<g id="Node000008" class="node">
<title>Node8</title>
<g id="a_Node000008"><a xlink:href="classinterficie_1_1_vista_partida.html#ae6809bc2e7efc03077c111367571f788" target="_top" xlink:title="Afegeix maquetes al rack de l&#39;oponent.">
<polygon fill="white" stroke="#666666" points="516.75,-352 380.75,-352 380.75,-320 516.75,-320 516.75,-352"/>
<text text-anchor="start" x="388.75" y="-338.5" font-family="Helvetica,sans-Serif" font-size="10.00">interficie.VistaPartida.afegir</text>
<text text-anchor="middle" x="448.75" y="-326.5" font-family="Helvetica,sans-Serif" font-size="10.00">MaquetesARack</text>
</a>
</g>
</g>
<!-- Node4&#45;&gt;Node8 -->
<g id="edge12_Node000004_Node000008" class="edge">
<title>Node4&#45;&gt;Node8</title>
<g id="a_edge12_Node000004_Node000008"><a xlink:title=" ">
<path fill="none" stroke="#63b8ff" d="M604.71,-264.84C582.86,-279.4 553.08,-297.93 525,-311 518.39,-314.08 511.28,-316.96 504.18,-319.58"/>
<polygon fill="#63b8ff" stroke="#63b8ff" points="606.57,-267.81 612.9,-259.31 602.65,-262 606.57,-267.81"/>
</a>
</g>
</g>
<!-- Node9 -->
<g id="Node000009" class="node">
<title>Node9</title>
<g id="a_Node000009"><a xlink:href="classinterficie_1_1_vista_partida.html#a8ebc9da2a2b927ba87ed97ad85ae44e8" target="_top" xlink:title="Confirma l&#39;acció de guardar la partida.">
<polygon fill="white" stroke="#666666" points="525,-176 372.5,-176 372.5,-144 525,-144 525,-176"/>
<text text-anchor="start" x="380.5" y="-162.5" font-family="Helvetica,sans-Serif" font-size="10.00">interficie.VistaPartida.confirmar</text>
<text text-anchor="middle" x="448.75" y="-150.5" font-family="Helvetica,sans-Serif" font-size="10.00">Guardar</text>
</a>
</g>
</g>
<!-- Node4&#45;&gt;Node9 -->
<g id="edge14_Node000004_Node000009" class="edge">
<title>Node4&#45;&gt;Node9</title>
<g id="a_edge14_Node000004_Node000009"><a xlink:title=" ">
<path fill="none" stroke="#63b8ff" d="M592.84,-220.72C572.3,-211.08 547.53,-199.7 525,-190 514.41,-185.44 502.88,-180.73 492.1,-176.42"/>
<polygon fill="#63b8ff" stroke="#63b8ff" points="591.26,-223.84 601.79,-224.94 594.24,-217.51 591.26,-223.84"/>
</a>
</g>
</g>
<!-- Node10 -->
<g id="Node000010" class="node">
<title>Node10</title>
<g id="a_Node000010"><a xlink:href="classinterficie_1_1_vista_partida.html#ab47b596fbbd6a79289d4b9d7f5b5e068" target="_top" xlink:title="Crea un panell amb la informació d&#39;un jugador.">
<polygon fill="white" stroke="#666666" points="328.25,-374 194.5,-374 194.5,-342 328.25,-342 328.25,-374"/>
<text text-anchor="start" x="202.5" y="-360.5" font-family="Helvetica,sans-Serif" font-size="10.00">interficie.VistaPartida.crear</text>
<text text-anchor="middle" x="261.38" y="-348.5" font-family="Helvetica,sans-Serif" font-size="10.00">PanelJugador</text>
</a>
</g>
</g>
<!-- Node4&#45;&gt;Node10 -->
<g id="edge16_Node000004_Node000010" class="edge">
<title>Node4&#45;&gt;Node10</title>
<g id="a_edge16_Node000004_Node000010"><a xlink:title=" ">
<path fill="none" stroke="#63b8ff" d="M622.27,-267.73C603.61,-296.67 568.88,-342.08 525,-361 462.51,-387.94 383.61,-382.45 328.69,-373.18"/>
<polygon fill="#63b8ff" stroke="#63b8ff" points="625.05,-269.87 627.38,-259.54 619.12,-266.16 625.05,-269.87"/>
</a>
</g>
</g>
<!-- Node5&#45;&gt;Node6 -->
<g id="edge5_Node000005_Node000006" class="edge">
<title>Node5&#45;&gt;Node6</title>
<g id="a_edge5_Node000005_Node000006"><a xlink:title=" ">
<path fill="none" stroke="#63b8ff" d="M368.93,-290.68C358.34,-291.31 347.5,-291.95 336.98,-292.57"/>
<polygon fill="#63b8ff" stroke="#63b8ff" points="369.02,-294.18 378.79,-290.09 368.6,-287.19 369.02,-294.18"/>
</a>
</g>
</g>
<!-- Node6&#45;&gt;Node3 -->
<g id="edge6_Node000006_Node000003" class="edge">
<title>Node6&#45;&gt;Node3</title>
<g id="a_edge6_Node000006_Node000003"><a xlink:title=" ">
<path fill="none" stroke="#63b8ff" d="M310.4,-318.5C319.26,-322.98 328.29,-327.89 336.5,-333 353.71,-343.71 353.33,-354.42 372.5,-361 436.61,-383 458.44,-373.77 525,-361 634.58,-339.97 754.85,-277.47 799.95,-252.49"/>
<polygon fill="#63b8ff" stroke="#63b8ff" points="312.02,-315.4 301.5,-314.14 308.93,-321.68 312.02,-315.4"/>
</a>
</g>
</g>
<!-- Node6&#45;&gt;Node4 -->
<g id="edge11_Node000006_Node000004" class="edge">
<title>Node6&#45;&gt;Node4</title>
<g id="a_edge11_Node000006_Node000004"><a xlink:title=" ">
<path fill="none" stroke="#63b8ff" d="M315.42,-276.76C333.3,-270.72 353.54,-264.72 372.5,-261 443.98,-246.97 528.12,-243.02 582.07,-242.05"/>
<polygon fill="#63b8ff" stroke="#63b8ff" points="314.35,-273.43 306.05,-280.01 316.64,-280.04 314.35,-273.43"/>
</a>
</g>
</g>
<!-- Node6&#45;&gt;Node7 -->
<g id="edge7_Node000006_Node000007" class="edge">
<title>Node6&#45;&gt;Node7</title>
<g id="a_edge7_Node000006_Node000007"><a xlink:title=" ">
<path fill="none" stroke="#63b8ff" d="M174.64,-283.04C166.58,-281.73 158.46,-280.41 150.51,-279.11"/>
<polygon fill="#63b8ff" stroke="#63b8ff" points="174.04,-286.49 184.47,-284.64 175.16,-279.58 174.04,-286.49"/>
</a>
</g>
</g>
<!-- Node7&#45;&gt;Node3 -->
<g id="edge8_Node000007_Node000003" class="edge">
<title>Node7&#45;&gt;Node3</title>
<g id="a_edge8_Node000007_Node000003"><a xlink:title=" ">
<path fill="none" stroke="#63b8ff" d="M112.42,-244.78C166.65,-213.02 273.12,-156.13 372.5,-135 523,-103 573.3,-121.85 715.75,-180 749.67,-193.85 785.46,-217.96 804.51,-231.68"/>
<polygon fill="#63b8ff" stroke="#63b8ff" points="110.72,-241.72 103.9,-249.82 114.29,-247.74 110.72,-241.72"/>
</a>
</g>
</g>
<!-- Node7&#45;&gt;Node4 -->
<g id="edge10_Node000007_Node000004" class="edge">
<title>Node7&#45;&gt;Node4</title>
<g id="a_edge10_Node000007_Node000004"><a xlink:title=" ">
<path fill="none" stroke="#63b8ff" d="M161.76,-257.12C220.87,-250.82 301.34,-243.23 372.5,-240 440.21,-236.92 457.22,-239.4 525,-240 543.54,-240.16 563.79,-240.48 581.93,-240.82"/>
<polygon fill="#63b8ff" stroke="#63b8ff" points="161.67,-253.61 152.11,-258.16 162.42,-260.57 161.67,-253.61"/>
</a>
</g>
</g>
<!-- Node7&#45;&gt;Node7 -->
<g id="edge9_Node000007_Node000007" class="edge">
<title>Node7&#45;&gt;Node7</title>
<g id="a_edge9_Node000007_Node000007"><a xlink:title=" ">
<path fill="none" stroke="#63b8ff" d="M106.16,-294.71C100.99,-298.48 90.64,-301 75.12,-301 46.75,-301 35.67,-292.58 41.87,-283.44"/>
<polygon fill="#63b8ff" stroke="#63b8ff" points="109.59,-295.42 108.08,-284.93 102.72,-294.07 109.59,-295.42"/>
</a>
</g>
</g>
<!-- Node8&#45;&gt;Node6 -->
<g id="edge13_Node000008_Node000006" class="edge">
<title>Node8&#45;&gt;Node6</title>
<g id="a_edge13_Node000008_Node000006"><a xlink:title=" ">
<path fill="none" stroke="#63b8ff" d="M369.27,-319.49C358.57,-317.24 347.61,-314.93 336.98,-312.7"/>
<polygon fill="#63b8ff" stroke="#63b8ff" points="368.31,-322.86 378.82,-321.5 369.75,-316.01 368.31,-322.86"/>
</a>
</g>
</g>
<!-- Node9&#45;&gt;Node3 -->
<g id="edge15_Node000009_Node000003" class="edge">
<title>Node9&#45;&gt;Node3</title>
<g id="a_edge15_Node000009_Node000003"><a xlink:title=" ">
<path fill="none" stroke="#63b8ff" d="M536.46,-177.94C588.52,-188.88 656.02,-203.33 715.75,-217 735.77,-221.58 757.92,-226.94 776.5,-231.52"/>
<polygon fill="#63b8ff" stroke="#63b8ff" points="537.25,-174.53 526.74,-175.91 535.81,-181.38 537.25,-174.53"/>
</a>
</g>
</g>
<!-- Node10&#45;&gt;Node7 -->
<g id="edge17_Node000010_Node000007" class="edge">
<title>Node10&#45;&gt;Node7</title>
<g id="a_edge17_Node000010_Node000007"><a xlink:title=" ">
<path fill="none" stroke="#63b8ff" d="M216.32,-336.7C206.42,-331.89 195.97,-326.79 186.25,-322 160.18,-309.16 130.73,-294.44 108.85,-283.46"/>
<polygon fill="#63b8ff" stroke="#63b8ff" points="214.5,-339.71 225.03,-340.93 217.56,-333.41 214.5,-339.71"/>
</a>
</g>
</g>
<!-- Node11&#45;&gt;Node3 -->
<g id="edge23_Node000011_Node000003" class="edge">
<title>Node11&#45;&gt;Node3</title>
<g id="a_edge23_Node000011_Node000003"><a xlink:title=" ">
<path fill="none" stroke="#63b8ff" d="M1129.63,-264.04C1118.47,-262.96 1107.23,-261.92 1096.5,-261 1025.16,-254.89 943.33,-249.45 887.38,-245.98"/>
<polygon fill="#63b8ff" stroke="#63b8ff" points="1128.94,-267.49 1139.24,-264.99 1129.63,-260.53 1128.94,-267.49"/>
</a>
</g>
</g>
<!-- Node12 -->
<g id="Node000012" class="node">
<title>Node12</title>
<g id="a_Node000012"><a xlink:href="classinterficie_1_1_vista_partida.html#acc96652063e859fc2d8d0345dfd381d5" target="_top" xlink:title="Confirma l&#39;acció d&#39;abandonar la partida.">
<polygon fill="white" stroke="#666666" points="1086,-302 933.5,-302 933.5,-270 1086,-270 1086,-302"/>
<text text-anchor="start" x="941.5" y="-288.5" font-family="Helvetica,sans-Serif" font-size="10.00">interficie.VistaPartida.confirmar</text>
<text text-anchor="middle" x="1009.75" y="-276.5" font-family="Helvetica,sans-Serif" font-size="10.00">Abandonar</text>
</a>
</g>
</g>
<!-- Node11&#45;&gt;Node12 -->
<g id="edge21_Node000011_Node000012" class="edge">
<title>Node11&#45;&gt;Node12</title>
<g id="a_edge21_Node000011_Node000012"><a xlink:title=" ">
<path fill="none" stroke="#63b8ff" d="M1129.24,-279.3C1114.83,-280.12 1100.12,-280.95 1086.18,-281.74"/>
<polygon fill="#63b8ff" stroke="#63b8ff" points="1129.41,-282.8 1139.2,-278.74 1129.02,-275.81 1129.41,-282.8"/>
</a>
</g>
</g>
<!-- Node12&#45;&gt;Node3 -->
<g id="edge22_Node000012_Node000003" class="edge">
<title>Node12&#45;&gt;Node3</title>
<g id="a_edge22_Node000012_Node000003"><a xlink:title=" ">
<path fill="none" stroke="#63b8ff" d="M927.32,-266.98C906.05,-262.01 883.9,-256.84 865.31,-252.5"/>
<polygon fill="#63b8ff" stroke="#63b8ff" points="926.33,-270.34 936.86,-269.21 927.92,-263.53 926.33,-270.34"/>
</a>
</g>
</g>
<!-- Node13&#45;&gt;Node3 -->
<g id="edge27_Node000013_Node000003" class="edge">
<title>Node13&#45;&gt;Node3</title>
<g id="a_edge27_Node000013_Node000003"><a xlink:title=" ">
<path fill="none" stroke="#63b8ff" d="M954.25,-179.52C943.76,-182.61 932.94,-186.13 923,-190 892.1,-202.02 858.12,-220.32 838.05,-231.69"/>
<polygon fill="#63b8ff" stroke="#63b8ff" points="954.9,-182.97 963.57,-176.87 952.99,-176.24 954.9,-182.97"/>
</a>
</g>
</g>
<!-- Node13&#45;&gt;Node4 -->
<g id="edge29_Node000013_Node000004" class="edge">
<title>Node13&#45;&gt;Node4</title>
<g id="a_edge29_Node000013_Node000004"><a xlink:title=" ">
<path fill="none" stroke="#63b8ff" d="M946.85,-178.74C876.36,-193.24 762.24,-216.72 694.64,-230.63"/>
<polygon fill="#63b8ff" stroke="#63b8ff" points="947.21,-182.24 956.3,-176.79 945.8,-175.38 947.21,-182.24"/>
</a>
</g>
</g>
<!-- Node13&#45;&gt;Node7 -->
<g id="edge28_Node000013_Node000007" class="edge">
<title>Node13&#45;&gt;Node7</title>
<g id="a_edge28_Node000013_Node000007"><a xlink:title=" ">
<path fill="none" stroke="#63b8ff" d="M972.74,-151.47C907.44,-126.48 764.63,-78 639.38,-78 639.38,-78 639.38,-78 447.75,-78 328.2,-78 288.51,-79.08 186.25,-141 139.78,-169.14 102.44,-223.4 85.68,-250.61"/>
<polygon fill="#63b8ff" stroke="#63b8ff" points="971.28,-154.66 981.86,-155.01 973.81,-148.13 971.28,-154.66"/>
</a>
</g>
</g>
<!-- Node15 -->
<g id="Node000015" class="node">
<title>Node15</title>
<g id="a_Node000015"><a xlink:href="classinterficie_1_1_vista_menu_joc.html#af4bea9351119f9746e8dc96671f7bff8" target="_top" xlink:title="Lògica per reprendre una partida.">
<polygon fill="white" stroke="#666666" points="1090.5,-59 929,-59 929,-27 1090.5,-27 1090.5,-59"/>
<text text-anchor="start" x="937" y="-45.5" font-family="Helvetica,sans-Serif" font-size="10.00">interficie.VistaMenuJoc.reprendre</text>
<text text-anchor="middle" x="1009.75" y="-33.5" font-family="Helvetica,sans-Serif" font-size="10.00">Partida</text>
</a>
</g>
</g>
<!-- Node14&#45;&gt;Node15 -->
<g id="edge32_Node000014_Node000015" class="edge">
<title>Node14&#45;&gt;Node15</title>
<g id="a_edge32_Node000014_Node000015"><a xlink:title=" ">
<path fill="none" stroke="#63b8ff" d="M1146.11,-76.78C1123.38,-71.11 1098.71,-64.95 1076.74,-59.47"/>
<polygon fill="#63b8ff" stroke="#63b8ff" points="1145.07,-80.13 1155.62,-79.15 1146.77,-73.34 1145.07,-80.13"/>
</a>
</g>
</g>
<!-- Node16 -->
<g id="Node000016" class="node">
<title>Node16</title>
<g id="a_Node000016"><a xlink:href="classinterficie_1_1_vista_menu_joc.html#afab63b4d82b26b00b711c7a5473d7707" target="_top" xlink:title="Constructor de la classe VistaMenuJoc.">
<polygon fill="white" stroke="#666666" points="879.88,-32 758.88,-32 758.88,0 879.88,0 879.88,-32"/>
<text text-anchor="start" x="766.88" y="-18.5" font-family="Helvetica,sans-Serif" font-size="10.00">interficie.VistaMenuJoc.</text>
<text text-anchor="middle" x="819.38" y="-6.5" font-family="Helvetica,sans-Serif" font-size="10.00">VistaMenuJoc</text>
</a>
</g>
</g>
<!-- Node15&#45;&gt;Node16 -->
<g id="edge33_Node000015_Node000016" class="edge">
<title>Node15&#45;&gt;Node16</title>
<g id="a_edge33_Node000015_Node000016"><a xlink:title=" ">
<path fill="none" stroke="#63b8ff" d="M917.5,-29.92C904.83,-28.11 892.09,-26.28 880.2,-24.57"/>
<polygon fill="#63b8ff" stroke="#63b8ff" points="916.7,-33.34 927.09,-31.3 917.69,-26.41 916.7,-33.34"/>
</a>
</g>
</g>
<!-- Node16&#45;&gt;Node16 -->
<g id="edge36_Node000016_Node000016" class="edge">
<title>Node16&#45;&gt;Node16</title>
<g id="a_edge36_Node000016_Node000016"><a xlink:title=" ">
<path fill="none" stroke="#63b8ff" d="M849.54,-43.71C844.51,-47.48 834.45,-50 819.38,-50 791.8,-50 781.03,-41.58 787.06,-32.44"/>
<polygon fill="#63b8ff" stroke="#63b8ff" points="852.97,-44.41 851.4,-33.93 846.09,-43.1 852.97,-44.41"/>
</a>
</g>
</g>
<!-- Node17 -->
<g id="Node000017" class="node">
<title>Node17</title>
<g id="a_Node000017"><a xlink:href="classinterficie_1_1_vista_menu_joc.html#a357d2c3488fc972b443bb25cf44c8d1b" target="_top" xlink:title="Lògica per eliminar el perfil.">
<polygon fill="white" stroke="#666666" points="715.75,-32 561,-32 561,0 715.75,0 715.75,-32"/>
<text text-anchor="start" x="569" y="-18.5" font-family="Helvetica,sans-Serif" font-size="10.00">interficie.VistaMenuJoc.eliminar</text>
<text text-anchor="middle" x="638.38" y="-6.5" font-family="Helvetica,sans-Serif" font-size="10.00">Perfil</text>
</a>
</g>
</g>
<!-- Node16&#45;&gt;Node17 -->
<g id="edge34_Node000016_Node000017" class="edge">
<title>Node16&#45;&gt;Node17</title>
<g id="a_edge34_Node000016_Node000017"><a xlink:title=" ">
<path fill="none" stroke="#63b8ff" d="M747.39,-9.38C737.15,-9.23 726.58,-9.21 716.23,-9.31"/>
<polygon fill="#63b8ff" stroke="#63b8ff" points="747.19,-12.88 757.26,-9.57 747.33,-5.88 747.19,-12.88"/>
</a>
</g>
</g>
<!-- Node17&#45;&gt;Node16 -->
<g id="edge35_Node000017_Node000016" class="edge">
<title>Node17&#45;&gt;Node16</title>
<g id="a_edge35_Node000017_Node000016"><a xlink:title=" ">
<path fill="none" stroke="#63b8ff" d="M727.64,-22.75C738.19,-22.76 748.76,-22.64 758.77,-22.4"/>
<polygon fill="#63b8ff" stroke="#63b8ff" points="727.76,-19.25 717.75,-22.7 727.73,-26.25 727.76,-19.25"/>
</a>
</g>
</g>
</g>
</svg>

<g id="navigator" transform="translate(0 0)" fill="#404254">
  <rect fill="#f2f5e9" fill-opacity="0.5" stroke="#606060" stroke-width=".5" x="0" y="0" width="60" height="60"/>
  <use id="zoomplus" xlink:href="#zoomPlus" x="17" y="9" onmousedown="handleZoom(evt,'in')"/>
  <use id="zoomminus" xlink:href="#zoomMin" x="42" y="9" onmousedown="handleZoom(evt,'out')"/>
  <use id="reset" xlink:href="#resetDef" x="30" y="36" onmousedown="handleReset()"/>
   <use id="arrowup" xlink:href="#arrowUp" x="0" y="0" onmousedown="handlePan(0,-1)"/>
  <use id="arrowright" xlink:href="#arrowRight" x="0" y="0" onmousedown="handlePan(1,0)"/>
  <use id="arrowdown" xlink:href="#arrowDown" x="0" y="0" onmousedown="handlePan(0,1)"/>
  <use id="arrowleft" xlink:href="#arrowLeft" x="0" y="0" onmousedown="handlePan(-1,0)"/>
</g>
<svg viewBox="0 0 15 15" width="100%" height="30px" preserveAspectRatio="xMaxYMin meet">
 <g id="arrow_out" transform="scale(0.3 0.3)">
  <a xlink:href="classcontroladors_1_1_ctrl_presentacio_af18fe9d82387504c97bd73a19eaa15e8_icgraph_org.svg" target="_base">
   <rect id="button" ry="5" rx="5" y="6" x="6" height="38" width="38"
        fill="#f2f5e9" fill-opacity="0.5" stroke="#606060" stroke-width="1.0"/>
   <path id="arrow"
     d="M 11.500037,31.436501 C 11.940474,20.09759 22.043105,11.32322 32.158766,21.979434 L 37.068811,17.246167 C 37.068811,17.246167 37.088388,32 37.088388,32 L 22.160133,31.978069 C 22.160133,31.978069 26.997745,27.140456 26.997745,27.140456 C 18.528582,18.264221 13.291696,25.230495 11.500037,31.436501 z"
     style="fill:#404040;"/>
  </a>
 </g>
</svg>

<style type='text/css'>
<![CDATA[
[data-mouse-over-selected='false'] { opacity: 0.7; }
[data-mouse-over-selected='true']  { opacity: 1.0; }
]]>
</style>
<script type="application/ecmascript"><![CDATA[
document.addEventListener('DOMContentLoaded', (event) => {
  highlightEdges();
  highlightAdjacentNodes();
});
]]></script>
</svg>
