<?xml version="1.0" encoding="UTF-8" standalone="no"?>
<!DOCTYPE svg PUBLIC "-//W3C//DTD SVG 1.1//EN"
 "http://www.w3.org/Graphics/SVG/1.1/DTD/svg11.dtd">
<!-- Generated by graphviz version 12.2.1 (20241206.2353)
 -->
<!-- Title: domini.jugadors.Jugador.getIdJugador Pages: 1 -->
<svg width="755pt" height="518pt"
 viewBox="0.00 0.00 754.50 517.56" xmlns="http://www.w3.org/2000/svg" xmlns:xlink="http://www.w3.org/1999/xlink">
<g id="graph0" class="graph" transform="scale(1 1) rotate(0) translate(4 513.56)">
<title>domini.jugadors.Jugador.getIdJugador</title>
<!-- Node1 -->
<g id="Node000001" class="node">
<title>Node1</title>
<g id="a_Node000001"><a xlink:title="Retorna l&#39;identificador del jugador.">
<polygon fill="#999999" stroke="#666666" points="746.5,-261.56 608.25,-261.56 608.25,-229.56 746.5,-229.56 746.5,-261.56"/>
<text text-anchor="start" x="616.25" y="-248.06" font-family="Helvetica,sans-Serif" font-size="10.00">domini.jugadors.Jugador.get</text>
<text text-anchor="middle" x="677.38" y="-236.06" font-family="Helvetica,sans-Serif" font-size="10.00">IdJugador</text>
</a>
</g>
</g>
<!-- Node2 -->
<g id="Node000002" class="node">
<title>Node2</title>
<g id="a_Node000002"><a xlink:href="classcontroladors_1_1_ctrl_partida.html#a15489fe587b7fe577bd1c4be09c58e6e" target="_top" xlink:title="El jugador actual abandona la partida.">
<polygon fill="white" stroke="#666666" points="572.25,-509.56 405.5,-509.56 405.5,-477.56 572.25,-477.56 572.25,-509.56"/>
<text text-anchor="start" x="413.5" y="-496.06" font-family="Helvetica,sans-Serif" font-size="10.00">controladors.CtrlPartida.abandonar</text>
<text text-anchor="middle" x="488.88" y="-484.06" font-family="Helvetica,sans-Serif" font-size="10.00">Partida</text>
</a>
</g>
</g>
<!-- Node1&#45;&gt;Node2 -->
<g id="edge1_Node000001_Node000002" class="edge">
<title>Node1&#45;&gt;Node2</title>
<g id="a_edge1_Node000001_Node000002"><a xlink:title=" ">
<path fill="none" stroke="#63b8ff" d="M670.46,-272.85C659.19,-318.55 630.4,-410.76 572.25,-463.56 566.28,-468.98 559.25,-473.45 551.85,-477.11"/>
<polygon fill="#63b8ff" stroke="#63b8ff" points="673.84,-273.78 672.73,-263.24 667.03,-272.17 673.84,-273.78"/>
</a>
</g>
</g>
<!-- Node3 -->
<g id="Node000003" class="node">
<title>Node3</title>
<g id="a_Node000003"><a xlink:href="classcontroladors_1_1_ctrl_domini.html#a9b8102ac23ea03ea525c42517a8dbbbc" target="_top" xlink:title="Actualitza les dades globals dels jugadors després d&#39;una partida.">
<polygon fill="white" stroke="#666666" points="369.5,-421.56 202.75,-421.56 202.75,-389.56 369.5,-389.56 369.5,-421.56"/>
<text text-anchor="start" x="210.75" y="-408.06" font-family="Helvetica,sans-Serif" font-size="10.00">controladors.CtrlDomini.actualitzar</text>
<text text-anchor="middle" x="286.12" y="-396.06" font-family="Helvetica,sans-Serif" font-size="10.00">DadesGlobals</text>
</a>
</g>
</g>
<!-- Node1&#45;&gt;Node3 -->
<g id="edge2_Node000001_Node000003" class="edge">
<title>Node1&#45;&gt;Node3</title>
<g id="a_edge2_Node000001_Node000003"><a xlink:title=" ">
<path fill="none" stroke="#63b8ff" d="M670.22,-272.98C659.03,-315.57 630.85,-396.3 572.25,-430.56 493.96,-476.33 382.39,-444.14 324.78,-421.88"/>
<polygon fill="#63b8ff" stroke="#63b8ff" points="673.56,-274.06 672.58,-263.52 666.77,-272.38 673.56,-274.06"/>
</a>
</g>
</g>
<!-- Node4 -->
<g id="Node000004" class="node">
<title>Node4</title>
<g id="a_Node000004"><a xlink:href="classcontroladors_1_1_ctrl_domini.html#af2774b364abee1ac4832823ff1b0d556" target="_top" xlink:title="Actualitza el rànquing després d&#39;una partida.">
<polygon fill="white" stroke="#666666" points="166.75,-239.56 0,-239.56 0,-207.56 166.75,-207.56 166.75,-239.56"/>
<text text-anchor="start" x="8" y="-226.06" font-family="Helvetica,sans-Serif" font-size="10.00">controladors.CtrlDomini.actualitzar</text>
<text text-anchor="middle" x="83.38" y="-214.06" font-family="Helvetica,sans-Serif" font-size="10.00">Ranking</text>
</a>
</g>
</g>
<!-- Node1&#45;&gt;Node4 -->
<g id="edge6_Node000001_Node000004" class="edge">
<title>Node1&#45;&gt;Node4</title>
<g id="a_edge6_Node000001_Node000004"><a xlink:title=" ">
<path fill="none" stroke="#63b8ff" d="M658.32,-270.94C639.8,-294.58 608.62,-328.24 572.25,-342.56 503.29,-369.7 478.45,-355.64 405.5,-342.56 295.19,-322.78 173.22,-267.61 116.57,-239.89"/>
<polygon fill="#63b8ff" stroke="#63b8ff" points="661.07,-273.11 664.32,-263.03 655.49,-268.89 661.07,-273.11"/>
</a>
</g>
</g>
<!-- Node5 -->
<g id="Node000005" class="node">
<title>Node5</title>
<g id="a_Node000005"><a xlink:href="classcontroladors_1_1_ctrl_domini.html#a96336985c6a802beb79a7a9a9f82b3d4" target="_top" xlink:title="Actualitza les dades globals d&#39;un jugador.">
<polygon fill="white" stroke="#666666" points="572.25,-421.56 405.5,-421.56 405.5,-389.56 572.25,-389.56 572.25,-421.56"/>
<text text-anchor="start" x="413.5" y="-408.06" font-family="Helvetica,sans-Serif" font-size="10.00">controladors.CtrlDomini.actualitzar</text>
<text text-anchor="middle" x="488.88" y="-396.06" font-family="Helvetica,sans-Serif" font-size="10.00">JugadorGlobal</text>
</a>
</g>
</g>
<!-- Node1&#45;&gt;Node5 -->
<g id="edge4_Node000001_Node000005" class="edge">
<title>Node1&#45;&gt;Node5</title>
<g id="a_edge4_Node000001_Node000005"><a xlink:title=" ">
<path fill="none" stroke="#63b8ff" d="M661.45,-271.8C643.67,-300.92 611.38,-347.48 572.25,-375.56 564.83,-380.88 556.36,-385.36 547.75,-389.09"/>
<polygon fill="#63b8ff" stroke="#63b8ff" points="664.45,-273.61 666.56,-263.23 658.43,-270.03 664.45,-273.61"/>
</a>
</g>
</g>
<!-- Node6 -->
<g id="Node000006" class="node">
<title>Node6</title>
<g id="a_Node000006"><a xlink:href="classdomini_1_1sessio_1_1_usuari.html#a8e2e78072c91b5124791949c8f7ee2ae" target="_top" xlink:title="Afegim un jugador a la llista de jugadors de l&#39;usuari.">
<polygon fill="white" stroke="#666666" points="556.12,-333.56 421.62,-333.56 421.62,-301.56 556.12,-301.56 556.12,-333.56"/>
<text text-anchor="start" x="429.62" y="-320.06" font-family="Helvetica,sans-Serif" font-size="10.00">domini.sessio.Usuari.afegir</text>
<text text-anchor="middle" x="488.88" y="-308.06" font-family="Helvetica,sans-Serif" font-size="10.00">Jugador</text>
</a>
</g>
</g>
<!-- Node1&#45;&gt;Node6 -->
<g id="edge7_Node000001_Node000006" class="edge">
<title>Node1&#45;&gt;Node6</title>
<g id="a_edge7_Node000001_Node000006"><a xlink:title=" ">
<path fill="none" stroke="#63b8ff" d="M632.66,-266.81C614.24,-275.37 592.43,-284.98 572.25,-292.56 564.28,-295.56 555.77,-298.46 547.36,-301.16"/>
<polygon fill="#63b8ff" stroke="#63b8ff" points="634.14,-269.98 641.7,-262.56 631.16,-263.65 634.14,-269.98"/>
</a>
</g>
</g>
<!-- Node7 -->
<g id="Node000007" class="node">
<title>Node7</title>
<g id="a_Node000007"><a xlink:href="classcontroladors_1_1_ctrl_partida.html#ad0f7d5edb502bc4956cfd54612209ea7" target="_top" xlink:title="Col·loca una paraula al taulell.">
<polygon fill="white" stroke="#666666" points="565.5,-283.56 412.25,-283.56 412.25,-251.56 565.5,-251.56 565.5,-283.56"/>
<text text-anchor="start" x="420.25" y="-270.06" font-family="Helvetica,sans-Serif" font-size="10.00">controladors.CtrlPartida.colocar</text>
<text text-anchor="middle" x="488.88" y="-258.06" font-family="Helvetica,sans-Serif" font-size="10.00">Paraula</text>
</a>
</g>
</g>
<!-- Node1&#45;&gt;Node7 -->
<g id="edge8_Node000001_Node000007" class="edge">
<title>Node1&#45;&gt;Node7</title>
<g id="a_edge8_Node000001_Node000007"><a xlink:title=" ">
<path fill="none" stroke="#63b8ff" d="M596.58,-254.97C586.38,-256.18 575.95,-257.41 565.81,-258.6"/>
<polygon fill="#63b8ff" stroke="#63b8ff" points="596.96,-258.45 606.49,-253.8 596.14,-251.5 596.96,-258.45"/>
</a>
</g>
</g>
<!-- Node8 -->
<g id="Node000008" class="node">
<title>Node8</title>
<g id="a_Node000008"><a xlink:href="classcontroladors_1_1_ctrl_domini.html#aac72588aa6810f2eb705116646a3a40b" target="_top" xlink:title="Comprova si la partida és contra la màquina.">
<polygon fill="white" stroke="#666666" points="352.25,-239.56 220,-239.56 220,-207.56 352.25,-207.56 352.25,-239.56"/>
<text text-anchor="start" x="228" y="-226.06" font-family="Helvetica,sans-Serif" font-size="10.00">controladors.CtrlDomini.es</text>
<text text-anchor="middle" x="286.12" y="-214.06" font-family="Helvetica,sans-Serif" font-size="10.00">PartidaContraMaquina</text>
</a>
</g>
</g>
<!-- Node1&#45;&gt;Node8 -->
<g id="edge9_Node000001_Node000008" class="edge">
<title>Node1&#45;&gt;Node8</title>
<g id="a_edge9_Node000001_Node000008"><a xlink:title=" ">
<path fill="none" stroke="#63b8ff" d="M596.86,-241.07C524.85,-237 420.02,-231.07 352.7,-227.27"/>
<polygon fill="#63b8ff" stroke="#63b8ff" points="596.43,-244.55 606.62,-241.62 596.83,-237.56 596.43,-244.55"/>
</a>
</g>
</g>
<!-- Node9 -->
<g id="Node000009" class="node">
<title>Node9</title>
<g id="a_Node000009"><a xlink:href="classcontroladors_1_1_ctrl_partida.html#afa4340f6a2cb198455d536ccaf87717b" target="_top" xlink:title="Gestiona el desenvolupament de la jugada de la màquina.">
<polygon fill="white" stroke="#666666" points="555.38,-195.56 422.38,-195.56 422.38,-163.56 555.38,-163.56 555.38,-195.56"/>
<text text-anchor="start" x="430.38" y="-182.06" font-family="Helvetica,sans-Serif" font-size="10.00">controladors.CtrlPartida.fer</text>
<text text-anchor="middle" x="488.88" y="-170.06" font-family="Helvetica,sans-Serif" font-size="10.00">JugadaMaquina</text>
</a>
</g>
</g>
<!-- Node1&#45;&gt;Node9 -->
<g id="edge11_Node000001_Node000009" class="edge">
<title>Node1&#45;&gt;Node9</title>
<g id="a_edge11_Node000001_Node000009"><a xlink:title=" ">
<path fill="none" stroke="#63b8ff" d="M619.09,-225.29C592.49,-215.87 561.27,-204.83 536.18,-195.95"/>
<polygon fill="#63b8ff" stroke="#63b8ff" points="617.77,-228.53 628.37,-228.57 620.11,-221.93 617.77,-228.53"/>
</a>
</g>
</g>
<!-- Node10 -->
<g id="Node000010" class="node">
<title>Node10</title>
<g id="a_Node000010"><a xlink:href="classcontroladors_1_1_ctrl_partida.html#a7478be76eed4811d7b93e3d8865b8622" target="_top" xlink:title="Finalitza la partida si les fitxes s&#39;han esgotat.">
<polygon fill="white" stroke="#666666" points="568.12,-145.56 409.62,-145.56 409.62,-113.56 568.12,-113.56 568.12,-145.56"/>
<text text-anchor="start" x="417.62" y="-132.06" font-family="Helvetica,sans-Serif" font-size="10.00">controladors.CtrlPartida.finalitzar</text>
<text text-anchor="middle" x="488.88" y="-120.06" font-family="Helvetica,sans-Serif" font-size="10.00">PerLletresEsgotades</text>
</a>
</g>
</g>
<!-- Node1&#45;&gt;Node10 -->
<g id="edge12_Node000001_Node000010" class="edge">
<title>Node1&#45;&gt;Node10</title>
<g id="a_edge12_Node000001_Node000010"><a xlink:title=" ">
<path fill="none" stroke="#63b8ff" d="M654,-220.86C634.28,-200.46 603.85,-172.09 572.25,-154.56 566.5,-151.37 560.29,-148.54 553.96,-146.04"/>
<polygon fill="#63b8ff" stroke="#63b8ff" points="651.31,-223.11 660.72,-227.97 656.39,-218.3 651.31,-223.11"/>
</a>
</g>
</g>
<!-- Node11 -->
<g id="Node000011" class="node">
<title>Node11</title>
<g id="a_Node000011"><a xlink:href="classcontroladors_1_1_ctrl_partida.html#a418a06894a327cb03d3ad62185c714b9" target="_top" xlink:title="Obté l&#39;identificador del jugador actual.">
<polygon fill="white" stroke="#666666" points="565.5,-95.56 412.25,-95.56 412.25,-63.56 565.5,-63.56 565.5,-95.56"/>
<text text-anchor="start" x="420.25" y="-82.06" font-family="Helvetica,sans-Serif" font-size="10.00">controladors.CtrlPartida.jugador</text>
<text text-anchor="middle" x="488.88" y="-70.06" font-family="Helvetica,sans-Serif" font-size="10.00">_controladorID</text>
</a>
</g>
</g>
<!-- Node1&#45;&gt;Node11 -->
<g id="edge13_Node000001_Node000011" class="edge">
<title>Node1&#45;&gt;Node11</title>
<g id="a_edge13_Node000001_Node000011"><a xlink:title=" ">
<path fill="none" stroke="#63b8ff" d="M663.8,-219.51C647.17,-187.77 614.91,-134.67 572.25,-104.56 567.61,-101.28 562.53,-98.43 557.25,-95.95"/>
<polygon fill="#63b8ff" stroke="#63b8ff" points="660.48,-220.72 668.14,-228.04 666.72,-217.54 660.48,-220.72"/>
</a>
</g>
</g>
<!-- Node12 -->
<g id="Node000012" class="node">
<title>Node12</title>
<g id="a_Node000012"><a xlink:href="classcontroladors_1_1_ctrl_domini.html#aa3baef8745a51c1b1f73035104f72446" target="_top" xlink:title="Comprova que els jugadors registrats siguin valids.">
<polygon fill="white" stroke="#666666" points="365.38,-126.56 206.88,-126.56 206.88,-94.56 365.38,-94.56 365.38,-126.56"/>
<text text-anchor="start" x="214.88" y="-113.06" font-family="Helvetica,sans-Serif" font-size="10.00">controladors.CtrlDomini.jugadors</text>
<text text-anchor="middle" x="286.12" y="-101.06" font-family="Helvetica,sans-Serif" font-size="10.00">RegistratsValids</text>
</a>
</g>
</g>
<!-- Node1&#45;&gt;Node12 -->
<g id="edge14_Node000001_Node000012" class="edge">
<title>Node1&#45;&gt;Node12</title>
<g id="a_edge14_Node000001_Node000012"><a xlink:title=" ">
<path fill="none" stroke="#63b8ff" d="M670.67,-217.94C659.98,-174.18 632.36,-90.25 572.25,-54.56 487.45,-4.21 365.89,-63.42 313.16,-94.22"/>
<polygon fill="#63b8ff" stroke="#63b8ff" points="667.25,-218.7 672.91,-227.66 674.08,-217.13 667.25,-218.7"/>
</a>
</g>
</g>
<!-- Node13 -->
<g id="Node000013" class="node">
<title>Node13</title>
<g id="a_Node000013"><a xlink:href="classcontroladors_1_1_ctrl_domini.html#a635aeffb46f12e2188110476c797a038" target="_top" xlink:title="Processa els resultats d&#39;una partida contra la màquina.">
<polygon fill="white" stroke="#666666" points="368.38,-45.56 203.88,-45.56 203.88,-13.56 368.38,-13.56 368.38,-45.56"/>
<text text-anchor="start" x="211.88" y="-32.06" font-family="Helvetica,sans-Serif" font-size="10.00">controladors.CtrlDomini.processar</text>
<text text-anchor="middle" x="286.12" y="-20.06" font-family="Helvetica,sans-Serif" font-size="10.00">PartidaMaquina</text>
</a>
</g>
</g>
<!-- Node1&#45;&gt;Node13 -->
<g id="edge16_Node000001_Node000013" class="edge">
<title>Node1&#45;&gt;Node13</title>
<g id="a_edge16_Node000001_Node000013"><a xlink:title=" ">
<path fill="none" stroke="#63b8ff" d="M672.41,-218.01C663.85,-170.06 638.75,-72.4 572.25,-30.56 503.54,12.68 405.85,0.93 344.51,-13.1"/>
<polygon fill="#63b8ff" stroke="#63b8ff" points="668.9,-218.27 673.99,-227.57 675.81,-217.13 668.9,-218.27"/>
</a>
</g>
</g>
<!-- Node3&#45;&gt;Node4 -->
<g id="edge3_Node000003_Node000004" class="edge">
<title>Node3&#45;&gt;Node4</title>
<g id="a_edge3_Node000003_Node000004"><a xlink:title=" ">
<path fill="none" stroke="#63b8ff" d="M216.84,-384.23C211.89,-381.63 207.13,-378.75 202.75,-375.56 150.56,-337.57 109.78,-270.47 92.87,-239.74"/>
<polygon fill="#63b8ff" stroke="#63b8ff" points="215.29,-387.37 225.82,-388.53 218.31,-381.06 215.29,-387.37"/>
</a>
</g>
</g>
<!-- Node5&#45;&gt;Node3 -->
<g id="edge5_Node000005_Node000003" class="edge">
<title>Node5&#45;&gt;Node3</title>
<g id="a_edge5_Node000005_Node000003"><a xlink:title=" ">
<path fill="none" stroke="#63b8ff" d="M393.78,-405.56C385.75,-405.56 377.67,-405.56 369.75,-405.56"/>
<polygon fill="#63b8ff" stroke="#63b8ff" points="393.55,-409.06 403.55,-405.56 393.55,-402.06 393.55,-409.06"/>
</a>
</g>
</g>
<!-- Node8&#45;&gt;Node4 -->
<g id="edge10_Node000008_Node000004" class="edge">
<title>Node8&#45;&gt;Node4</title>
<g id="a_edge10_Node000008_Node000004"><a xlink:title=" ">
<path fill="none" stroke="#63b8ff" d="M208.44,-223.56C194.87,-223.56 180.69,-223.56 166.97,-223.56"/>
<polygon fill="#63b8ff" stroke="#63b8ff" points="208.16,-227.06 218.16,-223.56 208.16,-220.06 208.16,-227.06"/>
</a>
</g>
</g>
<!-- Node12&#45;&gt;Node4 -->
<g id="edge15_Node000012_Node000004" class="edge">
<title>Node12&#45;&gt;Node4</title>
<g id="a_edge15_Node000012_Node000004"><a xlink:title=" ">
<path fill="none" stroke="#63b8ff" d="M246.03,-132.57C207.2,-154.42 148.56,-187.43 113.6,-207.11"/>
<polygon fill="#63b8ff" stroke="#63b8ff" points="247.62,-135.69 254.62,-127.73 244.18,-129.59 247.62,-135.69"/>
</a>
</g>
</g>
<!-- Node13&#45;&gt;Node4 -->
<g id="edge17_Node000013_Node000004" class="edge">
<title>Node13&#45;&gt;Node4</title>
<g id="a_edge17_Node000013_Node000004"><a xlink:title=" ">
<path fill="none" stroke="#63b8ff" d="M247.76,-51.95C233.09,-61.5 216.5,-73.27 202.75,-85.56 158.74,-124.9 115.86,-180.4 95.95,-207.46"/>
<polygon fill="#63b8ff" stroke="#63b8ff" points="249.25,-55.15 255.81,-46.83 245.49,-49.25 249.25,-55.15"/>
</a>
</g>
</g>
</g>
</svg>
