<?xml version="1.0" encoding="UTF-8" standalone="no"?>
<!DOCTYPE svg PUBLIC "-//W3C//DTD SVG 1.1//EN"
 "http://www.w3.org/Graphics/SVG/1.1/DTD/svg11.dtd">
<!-- Generated by graphviz version 12.2.1 (20241206.2353)
 -->
<!-- Title: interficie.VistaMenuJoc.reprendrePartida Pages: 1 -->
<svg width="581pt" height="165pt"
 viewBox="0.00 0.00 581.00 165.00" xmlns="http://www.w3.org/2000/svg" xmlns:xlink="http://www.w3.org/1999/xlink">
<g id="graph0" class="graph" transform="scale(1 1) rotate(0) translate(4 161)">
<title>interficie.VistaMenuJoc.reprendrePartida</title>
<!-- Node1 -->
<g id="Node000001" class="node">
<title>Node1</title>
<g id="a_Node000001"><a xlink:title="Lògica per reprendre una partida.">
<polygon fill="#999999" stroke="#666666" points="161.5,-107 0,-107 0,-75 161.5,-75 161.5,-107"/>
<text text-anchor="start" x="8" y="-93.5" font-family="Helvetica,sans-Serif" font-size="10.00">interficie.VistaMenuJoc.reprendre</text>
<text text-anchor="middle" x="80.75" y="-81.5" font-family="Helvetica,sans-Serif" font-size="10.00">Partida</text>
</a>
</g>
</g>
<!-- Node2 -->
<g id="Node000002" class="node">
<title>Node2</title>
<g id="a_Node000002"><a xlink:href="$classinterficie_1_1_selector_partida.html#abe61b878316263ec68854ac732c19187" xlink:title="Retorna l&#39;identificador de la partida seleccionada per reprendre.">
<polygon fill="white" stroke="#666666" points="358.62,-157 219.62,-157 219.62,-125 358.62,-125 358.62,-157"/>
<text text-anchor="start" x="227.62" y="-143.5" font-family="Helvetica,sans-Serif" font-size="10.00">interficie.SelectorPartida.get</text>
<text text-anchor="middle" x="289.12" y="-131.5" font-family="Helvetica,sans-Serif" font-size="10.00">IdPartida</text>
</a>
</g>
</g>
<!-- Node1&#45;&gt;Node2 -->
<g id="edge1_Node000001_Node000002" class="edge">
<title>Node1&#45;&gt;Node2</title>
<g id="a_edge1_Node000001_Node000002"><a xlink:title=" ">
<path fill="none" stroke="#63b8ff" d="M149.61,-107.44C168.65,-112.05 189.52,-117.11 209.15,-121.87"/>
<polygon fill="#63b8ff" stroke="#63b8ff" points="208.21,-125.24 218.75,-124.19 209.86,-118.44 208.21,-125.24"/>
</a>
</g>
</g>
<!-- Node3 -->
<g id="Node000003" class="node">
<title>Node3</title>
<g id="a_Node000003"><a xlink:href="$classcontroladors_1_1_ctrl_presentacio.html#a7d80b96fb70eecd976aa1b1ba530d7a7" xlink:title="Retorna el nom de l&#39;usuari que té la sessió iniciada.">
<polygon fill="white" stroke="#666666" points="367.25,-107 211,-107 211,-75 367.25,-75 367.25,-107"/>
<text text-anchor="start" x="219" y="-93.5" font-family="Helvetica,sans-Serif" font-size="10.00">controladors.CtrlPresentacio.get</text>
<text text-anchor="middle" x="289.12" y="-81.5" font-family="Helvetica,sans-Serif" font-size="10.00">NomUsuariActiu</text>
</a>
</g>
</g>
<!-- Node1&#45;&gt;Node3 -->
<g id="edge2_Node000001_Node000003" class="edge">
<title>Node1&#45;&gt;Node3</title>
<g id="a_edge2_Node000001_Node000003"><a xlink:title=" ">
<path fill="none" stroke="#63b8ff" d="M161.84,-91C174.15,-91 186.93,-91 199.43,-91"/>
<polygon fill="#63b8ff" stroke="#63b8ff" points="199.28,-94.5 209.28,-91 199.28,-87.5 199.28,-94.5"/>
</a>
</g>
</g>
<!-- Node4 -->
<g id="Node000004" class="node">
<title>Node4</title>
<g id="a_Node000004"><a xlink:href="$classcontroladors_1_1_ctrl_presentacio.html#ad0c6a8a429d767f53f2e0fa4c6f8a5dc" xlink:title="Reprèn una partida existent identificada pel seu ID.">
<polygon fill="white" stroke="#666666" points="380.75,-57 197.5,-57 197.5,-25 380.75,-25 380.75,-57"/>
<text text-anchor="start" x="205.5" y="-43.5" font-family="Helvetica,sans-Serif" font-size="10.00">controladors.CtrlPresentacio.reprendre</text>
<text text-anchor="middle" x="289.12" y="-31.5" font-family="Helvetica,sans-Serif" font-size="10.00">Partida</text>
</a>
</g>
</g>
<!-- Node1&#45;&gt;Node4 -->
<g id="edge3_Node000001_Node000004" class="edge">
<title>Node1&#45;&gt;Node4</title>
<g id="a_edge3_Node000001_Node000004"><a xlink:title=" ">
<path fill="none" stroke="#63b8ff" d="M149.61,-74.56C168.65,-69.95 189.52,-64.89 209.15,-60.13"/>
<polygon fill="#63b8ff" stroke="#63b8ff" points="209.86,-63.56 218.75,-57.81 208.21,-56.76 209.86,-63.56"/>
</a>
</g>
</g>
<!-- Node5 -->
<g id="Node000005" class="node">
<title>Node5</title>
<g id="a_Node000005"><a xlink:href="$classdomini_1_1scrabble_1_1_partida.html#a74ab1a1330297b7e2a8c16121db79faa" xlink:title="Retorna l&#39;idioma de la partida.">
<polygon fill="white" stroke="#666666" points="562.12,-82 427.62,-82 427.62,-50 562.12,-50 562.12,-82"/>
<text text-anchor="start" x="435.62" y="-68.5" font-family="Helvetica,sans-Serif" font-size="10.00">domini.scrabble.Partida.get</text>
<text text-anchor="middle" x="494.88" y="-56.5" font-family="Helvetica,sans-Serif" font-size="10.00">Idioma</text>
</a>
</g>
</g>
<!-- Node4&#45;&gt;Node5 -->
<g id="edge4_Node000004_Node000005" class="edge">
<title>Node4&#45;&gt;Node5</title>
<g id="a_edge4_Node000004_Node000005"><a xlink:title=" ">
<path fill="none" stroke="#63b8ff" d="M380.98,-52.15C392.68,-53.58 404.57,-55.04 416.04,-56.45"/>
<polygon fill="#63b8ff" stroke="#63b8ff" points="415.48,-59.91 425.83,-57.65 416.33,-52.96 415.48,-59.91"/>
</a>
</g>
</g>
<!-- Node6 -->
<g id="Node000006" class="node">
<title>Node6</title>
<g id="a_Node000006"><a xlink:href="$classcontroladors_1_1_ctrl_presentacio.html#af18fe9d82387504c97bd73a19eaa15e8" xlink:title="Retorna la instància de la partida actual en curs.">
<polygon fill="white" stroke="#666666" points="573,-32 416.75,-32 416.75,0 573,0 573,-32"/>
<text text-anchor="start" x="424.75" y="-18.5" font-family="Helvetica,sans-Serif" font-size="10.00">controladors.CtrlPresentacio.get</text>
<text text-anchor="middle" x="494.88" y="-6.5" font-family="Helvetica,sans-Serif" font-size="10.00">Partida</text>
</a>
</g>
</g>
<!-- Node4&#45;&gt;Node6 -->
<g id="edge5_Node000004_Node000006" class="edge">
<title>Node4&#45;&gt;Node6</title>
<g id="a_edge5_Node000004_Node000006"><a xlink:title=" ">
<path fill="none" stroke="#63b8ff" d="M380.98,-29.85C388.98,-28.87 397.08,-27.88 405.07,-26.9"/>
<polygon fill="#63b8ff" stroke="#63b8ff" points="405.27,-30.4 414.77,-25.71 404.42,-23.45 405.27,-30.4"/>
</a>
</g>
</g>
</g>
</svg>
