<?xml version="1.0" encoding="UTF-8" standalone="no"?>
<!DOCTYPE svg PUBLIC "-//W3C//DTD SVG 1.1//EN"
 "http://www.w3.org/Graphics/SVG/1.1/DTD/svg11.dtd">
<!-- Generated by graphviz version 12.2.1 (20241206.2353)
 -->
<!-- Title: drivers.Driver.pausarPartida Pages: 1 -->
<svg width="658pt" height="128pt"
 viewBox="0.00 0.00 657.75 128.00" xmlns="http://www.w3.org/2000/svg" xmlns:xlink="http://www.w3.org/1999/xlink">
<g id="graph0" class="graph" transform="scale(1 1) rotate(0) translate(4 124)">
<title>drivers.Driver.pausarPartida</title>
<!-- Node1 -->
<g id="Node000001" class="node">
<title>Node1</title>
<g id="a_Node000001"><a xlink:title="Pausa la partida actual.">
<polygon fill="#999999" stroke="#666666" points="137.5,-70 0,-70 0,-50 137.5,-50 137.5,-70"/>
<text text-anchor="middle" x="68.75" y="-56.5" font-family="Helvetica,sans-Serif" font-size="10.00">drivers.Driver.pausarPartida</text>
</a>
</g>
</g>
<!-- Node2 -->
<g id="Node000002" class="node">
<title>Node2</title>
<g id="a_Node000002"><a xlink:href="classdrivers_1_1_driver.html#a65d5cdb033b4f42c0a2adf1fabb7b6ff" target="_top" xlink:title="Mostra el menú de pausa.">
<polygon fill="white" stroke="#666666" points="308,-76 173.5,-76 173.5,-44 308,-44 308,-76"/>
<text text-anchor="start" x="181.5" y="-62.5" font-family="Helvetica,sans-Serif" font-size="10.00">drivers.Driver.mostrarMenu</text>
<text text-anchor="middle" x="240.75" y="-50.5" font-family="Helvetica,sans-Serif" font-size="10.00">Pausa</text>
</a>
</g>
</g>
<!-- Node1&#45;&gt;Node2 -->
<g id="edge1_Node000001_Node000002" class="edge">
<title>Node1&#45;&gt;Node2</title>
<g id="a_edge1_Node000001_Node000002"><a xlink:title=" ">
<path fill="none" stroke="#63b8ff" d="M137.92,-60C145.83,-60 153.94,-60 161.97,-60"/>
<polygon fill="#63b8ff" stroke="#63b8ff" points="161.71,-63.5 171.71,-60 161.71,-56.5 161.71,-63.5"/>
</a>
</g>
</g>
<!-- Node3 -->
<g id="Node000003" class="node">
<title>Node3</title>
<g id="a_Node000003"><a xlink:href="classdrivers_1_1_driver.html#ac619a13f9534e9347b26fae373236cfd" target="_top" xlink:title="Abandona la partida actual.">
<polygon fill="white" stroke="#666666" points="475.5,-120 353,-120 353,-88 475.5,-88 475.5,-120"/>
<text text-anchor="start" x="361" y="-106.5" font-family="Helvetica,sans-Serif" font-size="10.00">drivers.Driver.abandonar</text>
<text text-anchor="middle" x="414.25" y="-94.5" font-family="Helvetica,sans-Serif" font-size="10.00">Partida</text>
</a>
</g>
</g>
<!-- Node2&#45;&gt;Node3 -->
<g id="edge2_Node000002_Node000003" class="edge">
<title>Node2&#45;&gt;Node3</title>
<g id="a_edge2_Node000002_Node000003"><a xlink:title=" ">
<path fill="none" stroke="#63b8ff" d="M305.61,-76.38C317.42,-79.41 329.83,-82.6 341.85,-85.68"/>
<polygon fill="#63b8ff" stroke="#63b8ff" points="340.73,-89.01 351.28,-88.1 342.47,-82.23 340.73,-89.01"/>
</a>
</g>
</g>
<!-- Node5 -->
<g id="Node000005" class="node">
<title>Node5</title>
<g id="a_Node000005"><a xlink:href="classdrivers_1_1_driver.html#ac54b560952a6b33f46dfb41fa9cdb421" target="_top" xlink:title="Permet guardar la partida i torna a la pantalla d&#39;inici.">
<polygon fill="white" stroke="#666666" points="484.5,-70 344,-70 344,-50 484.5,-50 484.5,-70"/>
<text text-anchor="middle" x="414.25" y="-56.5" font-family="Helvetica,sans-Serif" font-size="10.00">drivers.Driver.guardarPartida</text>
</a>
</g>
</g>
<!-- Node2&#45;&gt;Node5 -->
<g id="edge4_Node000002_Node000005" class="edge">
<title>Node2&#45;&gt;Node5</title>
<g id="a_edge4_Node000002_Node000005"><a xlink:title=" ">
<path fill="none" stroke="#63b8ff" d="M308.06,-60C316,-60 324.18,-60 332.3,-60"/>
<polygon fill="#63b8ff" stroke="#63b8ff" points="332.2,-63.5 342.2,-60 332.2,-56.5 332.2,-63.5"/>
</a>
</g>
</g>
<!-- Node6 -->
<g id="Node000006" class="node">
<title>Node6</title>
<g id="a_Node000006"><a xlink:href="classdrivers_1_1_driver.html#a54fdfdd4f8f7e6333ada1d3dee920f44" target="_top" xlink:title="Reanuda una partida pausada.">
<polygon fill="white" stroke="#666666" points="473.25,-32 355.25,-32 355.25,0 473.25,0 473.25,-32"/>
<text text-anchor="start" x="363.25" y="-18.5" font-family="Helvetica,sans-Serif" font-size="10.00">drivers.Driver.reprendre</text>
<text text-anchor="middle" x="414.25" y="-6.5" font-family="Helvetica,sans-Serif" font-size="10.00">Partida</text>
</a>
</g>
</g>
<!-- Node2&#45;&gt;Node6 -->
<g id="edge5_Node000002_Node000006" class="edge">
<title>Node2&#45;&gt;Node6</title>
<g id="a_edge5_Node000002_Node000006"><a xlink:title=" ">
<path fill="none" stroke="#63b8ff" d="M305.61,-43.62C318.13,-40.4 331.32,-37.02 344.01,-33.76"/>
<polygon fill="#63b8ff" stroke="#63b8ff" points="344.72,-37.2 353.53,-31.32 342.98,-30.42 344.72,-37.2"/>
</a>
</g>
</g>
<!-- Node4 -->
<g id="Node000004" class="node">
<title>Node4</title>
<g id="a_Node000004"><a xlink:href="classdrivers_1_1_driver.html#a8bc044826a5994373681c23cc5555bce" target="_top" xlink:title="Neteja la pantalla del terminal.">
<polygon fill="white" stroke="#666666" points="649.75,-114 520.5,-114 520.5,-94 649.75,-94 649.75,-114"/>
<text text-anchor="middle" x="585.12" y="-100.5" font-family="Helvetica,sans-Serif" font-size="10.00">drivers.Driver.clearScreen</text>
</a>
</g>
</g>
<!-- Node3&#45;&gt;Node4 -->
<g id="edge3_Node000003_Node000004" class="edge">
<title>Node3&#45;&gt;Node4</title>
<g id="a_edge3_Node000003_Node000004"><a xlink:title=" ">
<path fill="none" stroke="#63b8ff" d="M475.74,-104C486.42,-104 497.65,-104 508.68,-104"/>
<polygon fill="#63b8ff" stroke="#63b8ff" points="508.55,-107.5 518.55,-104 508.55,-100.5 508.55,-107.5"/>
</a>
</g>
</g>
</g>
</svg>
