<?xml version="1.0" encoding="UTF-8" standalone="no"?>
<!DOCTYPE svg PUBLIC "-//W3C//DTD SVG 1.1//EN"
 "http://www.w3.org/Graphics/SVG/1.1/DTD/svg11.dtd">
<!-- Generated by graphviz version 12.2.1 (20241206.2353)
 -->
<!-- Title: domini.scrabble.Bossa.getMidaBossa Pages: 1 -->
<svg width="518pt" height="90pt"
 viewBox="0.00 0.00 518.00 90.00" xmlns="http://www.w3.org/2000/svg" xmlns:xlink="http://www.w3.org/1999/xlink">
<g id="graph0" class="graph" transform="scale(1 1) rotate(0) translate(4 86)">
<title>domini.scrabble.Bossa.getMidaBossa</title>
<!-- Node1 -->
<g id="Node000001" class="node">
<title>Node1</title>
<g id="a_Node000001"><a xlink:title="Obté el nombre total de fitxes disponibles a la bossa.">
<polygon fill="#999999" stroke="#666666" points="510,-57 378.5,-57 378.5,-25 510,-25 510,-57"/>
<text text-anchor="start" x="386.5" y="-43.5" font-family="Helvetica,sans-Serif" font-size="10.00">domini.scrabble.Bossa.get</text>
<text text-anchor="middle" x="444.25" y="-31.5" font-family="Helvetica,sans-Serif" font-size="10.00">MidaBossa</text>
</a>
</g>
</g>
<!-- Node2 -->
<g id="Node000002" class="node">
<title>Node2</title>
<g id="a_Node000002"><a xlink:href="classcontroladors_1_1_ctrl_partida.html#a5e6d4a5bbd0538e02909fdd067b9c553" target="_top" xlink:title="Canvia un cert nombre de fitxes de la mà del jugador actual.">
<polygon fill="white" stroke="#666666" points="342.5,-57 189.25,-57 189.25,-25 342.5,-25 342.5,-57"/>
<text text-anchor="start" x="197.25" y="-43.5" font-family="Helvetica,sans-Serif" font-size="10.00">controladors.CtrlPartida.canviar</text>
<text text-anchor="middle" x="265.88" y="-31.5" font-family="Helvetica,sans-Serif" font-size="10.00">Fitxes</text>
</a>
</g>
</g>
<!-- Node1&#45;&gt;Node2 -->
<g id="edge1_Node000001_Node000002" class="edge">
<title>Node1&#45;&gt;Node2</title>
<g id="a_edge1_Node000001_Node000002"><a xlink:title=" ">
<path fill="none" stroke="#63b8ff" d="M366.62,-41C358.72,-41 350.7,-41 342.81,-41"/>
<polygon fill="#63b8ff" stroke="#63b8ff" points="366.56,-44.5 376.56,-41 366.56,-37.5 366.56,-44.5"/>
</a>
</g>
</g>
<!-- Node3 -->
<g id="Node000003" class="node">
<title>Node3</title>
<g id="a_Node000003"><a xlink:href="classcontroladors_1_1_ctrl_partida.html#ad0f7d5edb502bc4956cfd54612209ea7" target="_top" xlink:title="Col·loca una paraula al taulell.">
<polygon fill="white" stroke="#666666" points="153.25,-82 0,-82 0,-50 153.25,-50 153.25,-82"/>
<text text-anchor="start" x="8" y="-68.5" font-family="Helvetica,sans-Serif" font-size="10.00">controladors.CtrlPartida.colocar</text>
<text text-anchor="middle" x="76.62" y="-56.5" font-family="Helvetica,sans-Serif" font-size="10.00">Paraula</text>
</a>
</g>
</g>
<!-- Node2&#45;&gt;Node3 -->
<g id="edge2_Node000002_Node000003" class="edge">
<title>Node2&#45;&gt;Node3</title>
<g id="a_edge2_Node000002_Node000003"><a xlink:title=" ">
<path fill="none" stroke="#63b8ff" d="M177.69,-52.64C169.65,-53.71 161.55,-54.79 153.62,-55.85"/>
<polygon fill="#63b8ff" stroke="#63b8ff" points="178.03,-56.13 187.48,-51.33 177.11,-49.19 178.03,-56.13"/>
</a>
</g>
</g>
<!-- Node4 -->
<g id="Node000004" class="node">
<title>Node4</title>
<g id="a_Node000004"><a xlink:href="classcontroladors_1_1_ctrl_partida.html#afa4340f6a2cb198455d536ccaf87717b" target="_top" xlink:title="Gestiona el desenvolupament de la jugada de la màquina.">
<polygon fill="white" stroke="#666666" points="143.12,-32 10.12,-32 10.12,0 143.12,0 143.12,-32"/>
<text text-anchor="start" x="18.12" y="-18.5" font-family="Helvetica,sans-Serif" font-size="10.00">controladors.CtrlPartida.fer</text>
<text text-anchor="middle" x="76.62" y="-6.5" font-family="Helvetica,sans-Serif" font-size="10.00">JugadaMaquina</text>
</a>
</g>
</g>
<!-- Node2&#45;&gt;Node4 -->
<g id="edge3_Node000002_Node000004" class="edge">
<title>Node2&#45;&gt;Node4</title>
<g id="a_edge3_Node000002_Node000004"><a xlink:title=" ">
<path fill="none" stroke="#63b8ff" d="M177.92,-29.39C166.31,-27.84 154.57,-26.27 143.4,-24.78"/>
<polygon fill="#63b8ff" stroke="#63b8ff" points="177.11,-32.81 187.48,-30.67 178.03,-25.87 177.11,-32.81"/>
</a>
</g>
</g>
</g>
</svg>
