<?xml version="1.0" encoding="UTF-8" standalone="no"?>
<!DOCTYPE svg PUBLIC "-//W3C//DTD SVG 1.1//EN"
 "http://www.w3.org/Graphics/SVG/1.1/DTD/svg11.dtd">
<!-- Generated by graphviz version 12.2.1 (20241206.2353)
 -->
<!-- Title: domini.jugadors.Maquina.calcularPuntatge Pages: 1 -->
<svg width="519pt" height="190pt"
 viewBox="0.00 0.00 518.75 190.00" xmlns="http://www.w3.org/2000/svg" xmlns:xlink="http://www.w3.org/1999/xlink">
<g id="graph0" class="graph" transform="scale(1 1) rotate(0) translate(4 186)">
<title>domini.jugadors.Maquina.calcularPuntatge</title>
<!-- Node1 -->
<g id="Node000001" class="node">
<title>Node1</title>
<g id="a_Node000001"><a xlink:title="Calcula la puntuació d&#39;una paraula col·locada en el taulell.">
<polygon fill="#999999" stroke="#666666" points="160.75,-107 0,-107 0,-75 160.75,-75 160.75,-107"/>
<text text-anchor="start" x="8" y="-93.5" font-family="Helvetica,sans-Serif" font-size="10.00">domini.jugadors.Maquina.calcular</text>
<text text-anchor="middle" x="80.38" y="-81.5" font-family="Helvetica,sans-Serif" font-size="10.00">Puntatge</text>
</a>
</g>
</g>
<!-- Node2 -->
<g id="Node000002" class="node">
<title>Node2</title>
<g id="a_Node000002"><a xlink:href="classdomini_1_1scrabble_1_1_taulell.html#a5be7b0143cecbce3e2f4dc4f53814879" target="_top" xlink:title="Donades unes coordenades, retorna la Casella que es troba en aquelles coordenades.">
<polygon fill="white" stroke="#666666" points="330.88,-182 199.38,-182 199.38,-150 330.88,-150 330.88,-182"/>
<text text-anchor="start" x="207.38" y="-168.5" font-family="Helvetica,sans-Serif" font-size="10.00">domini.scrabble.Taulell.get</text>
<text text-anchor="middle" x="265.12" y="-156.5" font-family="Helvetica,sans-Serif" font-size="10.00">Casella</text>
</a>
</g>
</g>
<!-- Node1&#45;&gt;Node2 -->
<g id="edge1_Node000001_Node000002" class="edge">
<title>Node1&#45;&gt;Node2</title>
<g id="a_edge1_Node000001_Node000002"><a xlink:title=" ">
<path fill="none" stroke="#63b8ff" d="M118.06,-107.49C140.63,-117.49 170.21,-130.34 196.75,-141 200.39,-142.46 204.15,-143.94 207.96,-145.42"/>
<polygon fill="#63b8ff" stroke="#63b8ff" points="206.69,-148.68 217.28,-148.98 209.19,-142.14 206.69,-148.68"/>
</a>
</g>
</g>
<!-- Node4 -->
<g id="Node000004" class="node">
<title>Node4</title>
<g id="a_Node000004"><a xlink:href="classdomini_1_1auxiliars_1_1_pair.html#af9fc7c6b0fb531c4b59cdb1048897164" target="_top" xlink:title="Obté el primer element de la parella.">
<polygon fill="white" stroke="#666666" points="325.25,-132 205,-132 205,-100 325.25,-100 325.25,-132"/>
<text text-anchor="start" x="213" y="-118.5" font-family="Helvetica,sans-Serif" font-size="10.00">domini.auxiliars.Pair.get</text>
<text text-anchor="middle" x="265.12" y="-106.5" font-family="Helvetica,sans-Serif" font-size="10.00">First</text>
</a>
</g>
</g>
<!-- Node1&#45;&gt;Node4 -->
<g id="edge3_Node000001_Node000004" class="edge">
<title>Node1&#45;&gt;Node4</title>
<g id="a_edge3_Node000001_Node000004"><a xlink:title=" ">
<path fill="none" stroke="#63b8ff" d="M161,-101.89C171.74,-103.36 182.69,-104.86 193.26,-106.31"/>
<polygon fill="#63b8ff" stroke="#63b8ff" points="192.67,-109.76 203.05,-107.65 193.62,-102.82 192.67,-109.76"/>
</a>
</g>
</g>
<!-- Node5 -->
<g id="Node000005" class="node">
<title>Node5</title>
<g id="a_Node000005"><a xlink:href="classdomini_1_1scrabble_1_1_casella.html#a2ce7db6c414e455606dfbd8ee8056a3b" target="_top" xlink:title="Retorna el multiplicador de la casella.">
<polygon fill="white" stroke="#666666" points="333.5,-82 196.75,-82 196.75,-50 333.5,-50 333.5,-82"/>
<text text-anchor="start" x="204.75" y="-68.5" font-family="Helvetica,sans-Serif" font-size="10.00">domini.scrabble.Casella.get</text>
<text text-anchor="middle" x="265.12" y="-56.5" font-family="Helvetica,sans-Serif" font-size="10.00">Multiplicador</text>
</a>
</g>
</g>
<!-- Node1&#45;&gt;Node5 -->
<g id="edge4_Node000001_Node000005" class="edge">
<title>Node1&#45;&gt;Node5</title>
<g id="a_edge4_Node000001_Node000005"><a xlink:title=" ">
<path fill="none" stroke="#63b8ff" d="M161,-80.11C169.04,-79.01 177.21,-77.89 185.24,-76.79"/>
<polygon fill="#63b8ff" stroke="#63b8ff" points="185.55,-80.28 194.98,-75.46 184.6,-73.35 185.55,-80.28"/>
</a>
</g>
</g>
<!-- Node6 -->
<g id="Node000006" class="node">
<title>Node6</title>
<g id="a_Node000006"><a xlink:href="classdomini_1_1auxiliars_1_1_pair.html#af70cd15a3a6fe17c25fbae3a08955565" target="_top" xlink:title="Obté el segon element de la parella.">
<polygon fill="white" stroke="#666666" points="325.25,-32 205,-32 205,0 325.25,0 325.25,-32"/>
<text text-anchor="start" x="213" y="-18.5" font-family="Helvetica,sans-Serif" font-size="10.00">domini.auxiliars.Pair.get</text>
<text text-anchor="middle" x="265.12" y="-6.5" font-family="Helvetica,sans-Serif" font-size="10.00">Second</text>
</a>
</g>
</g>
<!-- Node1&#45;&gt;Node6 -->
<g id="edge5_Node000001_Node000006" class="edge">
<title>Node1&#45;&gt;Node6</title>
<g id="a_edge5_Node000001_Node000006"><a xlink:title=" ">
<path fill="none" stroke="#63b8ff" d="M118.06,-74.51C140.63,-64.51 170.21,-51.66 196.75,-41 200.39,-39.54 204.15,-38.06 207.96,-36.58"/>
<polygon fill="#63b8ff" stroke="#63b8ff" points="209.19,-39.86 217.28,-33.02 206.69,-33.32 209.19,-39.86"/>
</a>
</g>
</g>
<!-- Node3 -->
<g id="Node000003" class="node">
<title>Node3</title>
<g id="a_Node000003"><a xlink:href="classdomini_1_1scrabble_1_1_taulell.html#afc2d8dcd225b683aa00af9ce2075ad79" target="_top" xlink:title=" ">
<polygon fill="white" stroke="#666666" points="510.75,-176 369.5,-176 369.5,-156 510.75,-156 510.75,-176"/>
<text text-anchor="middle" x="440.12" y="-162.5" font-family="Helvetica,sans-Serif" font-size="10.00">domini.scrabble.Taulell.limits</text>
</a>
</g>
</g>
<!-- Node2&#45;&gt;Node3 -->
<g id="edge2_Node000002_Node000003" class="edge">
<title>Node2&#45;&gt;Node3</title>
<g id="a_edge2_Node000002_Node000003"><a xlink:title=" ">
<path fill="none" stroke="#63b8ff" d="M331.04,-166C339.8,-166 348.88,-166 357.88,-166"/>
<polygon fill="#63b8ff" stroke="#63b8ff" points="357.7,-169.5 367.7,-166 357.7,-162.5 357.7,-169.5"/>
</a>
</g>
</g>
</g>
</svg>
