<?xml version="1.0" encoding="UTF-8" standalone="no"?>
<!DOCTYPE svg PUBLIC "-//W3C//DTD SVG 1.1//EN"
 "http://www.w3.org/Graphics/SVG/1.1/DTD/svg11.dtd">
<!-- Generated by graphviz version 12.2.1 (20241206.2353)
 -->
<!-- Title: interficie.VistaIniciarSessio.VistaIniciarSessio Pages: 1 -->
<svg width="540pt" height="253pt"
 viewBox="0.00 0.00 539.75 252.64" xmlns="http://www.w3.org/2000/svg" xmlns:xlink="http://www.w3.org/1999/xlink">
<g id="graph0" class="graph" transform="scale(1 1) rotate(0) translate(4 248.64)">
<title>interficie.VistaIniciarSessio.VistaIniciarSessio</title>
<!-- Node1 -->
<g id="Node000001" class="node">
<title>Node1</title>
<g id="a_Node000001"><a xlink:title="Constructor que crea la vista d&#39;iniciar sessió.">
<polygon fill="#999999" stroke="#666666" points="137.5,-145 0,-145 0,-113 137.5,-113 137.5,-145"/>
<text text-anchor="start" x="8" y="-131.5" font-family="Helvetica,sans-Serif" font-size="10.00">interficie.VistaIniciarSessio.</text>
<text text-anchor="middle" x="68.75" y="-119.5" font-family="Helvetica,sans-Serif" font-size="10.00">VistaIniciarSessio</text>
</a>
</g>
</g>
<!-- Node1&#45;&gt;Node1 -->
<g id="edge8_Node000001_Node000001" class="edge">
<title>Node1&#45;&gt;Node1</title>
<g id="a_edge8_Node000001_Node000001"><a xlink:title=" ">
<path fill="none" stroke="#63b8ff" d="M34.49,-145.44C28.1,-154.58 39.52,-163 68.75,-163 84.74,-163 95.39,-160.48 100.73,-156.71"/>
<polygon fill="#63b8ff" stroke="#63b8ff" points="104.15,-157.42 102.7,-146.93 97.29,-156.03 104.15,-157.42"/>
</a>
</g>
</g>
<!-- Node2 -->
<g id="Node000002" class="node">
<title>Node2</title>
<g id="a_Node000002"><a xlink:href="$classinterficie_1_1utils_1_1_tools.html#aad14ef36a2a433a18d49c46a83531892" xlink:title="Actualitza la imatge d&#39;un JLabel redimensionant&#45;la per adaptar&#45;se a les mides màximes indicades mante...">
<polygon fill="white" stroke="#666666" points="531.75,-217 383.75,-217 383.75,-185 531.75,-185 531.75,-217"/>
<text text-anchor="start" x="391.75" y="-203.5" font-family="Helvetica,sans-Serif" font-size="10.00">interficie.utils.Tools.actualitzar</text>
<text text-anchor="middle" x="457.75" y="-191.5" font-family="Helvetica,sans-Serif" font-size="10.00">Imatge</text>
</a>
</g>
</g>
<!-- Node1&#45;&gt;Node2 -->
<g id="edge1_Node000001_Node000002" class="edge">
<title>Node1&#45;&gt;Node2</title>
<g id="a_edge1_Node000001_Node000002"><a xlink:title=" ">
<path fill="none" stroke="#63b8ff" d="M80.43,-145.36C97.03,-169.08 131.51,-212.06 173.5,-229 248.84,-259.4 344.23,-239.2 402.85,-220.86"/>
<polygon fill="#63b8ff" stroke="#63b8ff" points="403.83,-224.22 412.27,-217.82 401.68,-217.56 403.83,-224.22"/>
</a>
</g>
</g>
<!-- Node3 -->
<g id="Node000003" class="node">
<title>Node3</title>
<g id="a_Node000003"><a xlink:href="$classcontroladors_1_1_ctrl_presentacio.html#a28d8149aa0fa44a898679b6a03d59ba0" xlink:title="Canvia la vista des de VistaIniciarSessio a VistaCrearPerfil.">
<polygon fill="white" stroke="#666666" points="347.75,-220 173.5,-220 173.5,-188 347.75,-188 347.75,-220"/>
<text text-anchor="start" x="181.5" y="-206.5" font-family="Helvetica,sans-Serif" font-size="10.00">controladors.CtrlPresentacio.canviar</text>
<text text-anchor="middle" x="260.62" y="-194.5" font-family="Helvetica,sans-Serif" font-size="10.00">CrearPerfilDesdeIniciarSessio</text>
</a>
</g>
</g>
<!-- Node1&#45;&gt;Node3 -->
<g id="edge2_Node000001_Node000003" class="edge">
<title>Node1&#45;&gt;Node3</title>
<g id="a_edge2_Node000001_Node000003"><a xlink:title=" ">
<path fill="none" stroke="#63b8ff" d="M100.48,-145.48C120.82,-155.97 148.29,-169.34 173.5,-179 178.12,-180.77 182.93,-182.49 187.79,-184.14"/>
<polygon fill="#63b8ff" stroke="#63b8ff" points="186.48,-187.39 197.07,-187.16 188.65,-180.73 186.48,-187.39"/>
</a>
</g>
</g>
<!-- Node4 -->
<g id="Node000004" class="node">
<title>Node4</title>
<g id="a_Node000004"><a xlink:href="$classinterficie_1_1_vista_iniciar_sessio.html#a71d2fc69c337099df6c2a8ba9c34eca0" xlink:title="Escala i recol·loca els components en funció de la mida actual de la finestra.">
<polygon fill="white" stroke="#666666" points="345.12,-170 176.12,-170 176.12,-138 345.12,-138 345.12,-170"/>
<text text-anchor="start" x="184.12" y="-156.5" font-family="Helvetica,sans-Serif" font-size="10.00">interficie.VistaIniciarSessio.escalar</text>
<text text-anchor="middle" x="260.62" y="-144.5" font-family="Helvetica,sans-Serif" font-size="10.00">Componentes</text>
</a>
</g>
</g>
<!-- Node1&#45;&gt;Node4 -->
<g id="edge3_Node000001_Node000004" class="edge">
<title>Node1&#45;&gt;Node4</title>
<g id="a_edge3_Node000001_Node000004"><a xlink:title=" ">
<path fill="none" stroke="#63b8ff" d="M137.76,-137.95C146.44,-139.1 155.45,-140.28 164.46,-141.47"/>
<polygon fill="#63b8ff" stroke="#63b8ff" points="163.97,-144.94 174.35,-142.77 164.89,-138 163.97,-144.94"/>
</a>
</g>
</g>
<!-- Node5 -->
<g id="Node000005" class="node">
<title>Node5</title>
<g id="a_Node000005"><a xlink:href="$classcontroladors_1_1_ctrl_presentacio.html#ada9c0d9a25124701e9b640403d3ffd6c" xlink:title="Inicia una sessió amb l&#39;usuari especificat.">
<polygon fill="white" stroke="#666666" points="344.75,-120 176.5,-120 176.5,-88 344.75,-88 344.75,-120"/>
<text text-anchor="start" x="184.5" y="-106.5" font-family="Helvetica,sans-Serif" font-size="10.00">controladors.CtrlPresentacio.iniciar</text>
<text text-anchor="middle" x="260.62" y="-94.5" font-family="Helvetica,sans-Serif" font-size="10.00">Sessio</text>
</a>
</g>
</g>
<!-- Node1&#45;&gt;Node5 -->
<g id="edge5_Node000001_Node000005" class="edge">
<title>Node1&#45;&gt;Node5</title>
<g id="a_edge5_Node000001_Node000005"><a xlink:title=" ">
<path fill="none" stroke="#63b8ff" d="M137.76,-120.05C146.61,-118.88 155.81,-117.67 164.99,-116.46"/>
<polygon fill="#63b8ff" stroke="#63b8ff" points="165.22,-119.96 174.68,-115.18 164.3,-113.02 165.22,-119.96"/>
</a>
</g>
</g>
<!-- Node6 -->
<g id="Node000006" class="node">
<title>Node6</title>
<g id="a_Node000006"><a xlink:href="$classinterficie_1_1_vista_iniciar_sessio_1_1_placeholder_text_field.html#a4ea5492510e5e0fa948ae59b04477524" xlink:title="Estableix el text placeholder que es mostrarà quan el camp estigui buit.">
<polygon fill="white" stroke="#666666" points="347.75,-70 173.5,-70 173.5,-38 347.75,-38 347.75,-70"/>
<text text-anchor="start" x="181.5" y="-56.5" font-family="Helvetica,sans-Serif" font-size="10.00">interficie.VistaIniciarSessio.</text>
<text text-anchor="middle" x="260.62" y="-44.5" font-family="Helvetica,sans-Serif" font-size="10.00">PlaceholderTextField.setPlaceholder</text>
</a>
</g>
</g>
<!-- Node1&#45;&gt;Node6 -->
<g id="edge6_Node000001_Node000006" class="edge">
<title>Node1&#45;&gt;Node6</title>
<g id="a_edge6_Node000001_Node000006"><a xlink:title=" ">
<path fill="none" stroke="#63b8ff" d="M100.48,-112.52C120.82,-102.03 148.29,-88.66 173.5,-79 178.12,-77.23 182.93,-75.51 187.79,-73.86"/>
<polygon fill="#63b8ff" stroke="#63b8ff" points="188.65,-77.27 197.07,-70.84 186.48,-70.61 188.65,-77.27"/>
</a>
</g>
</g>
<!-- Node7 -->
<g id="Node000007" class="node">
<title>Node7</title>
<g id="a_Node000007"><a xlink:href="$classcontroladors_1_1_ctrl_presentacio.html#a66901a833c124fd1acc592cea93f4e6d" xlink:title="Torna a la vista anterior a l&#39;actual.">
<polygon fill="white" stroke="#666666" points="344.38,-20 176.88,-20 176.88,0 344.38,0 344.38,-20"/>
<text text-anchor="middle" x="260.62" y="-6.5" font-family="Helvetica,sans-Serif" font-size="10.00">controladors.CtrlPresentacio.tornar</text>
</a>
</g>
</g>
<!-- Node1&#45;&gt;Node7 -->
<g id="edge7_Node000001_Node000007" class="edge">
<title>Node1&#45;&gt;Node7</title>
<g id="a_edge7_Node000001_Node000007"><a xlink:title=" ">
<path fill="none" stroke="#63b8ff" d="M81.85,-112.67C99.42,-90.17 134.25,-50.04 173.5,-29 176.74,-27.26 180.13,-25.69 183.61,-24.25"/>
<polygon fill="#63b8ff" stroke="#63b8ff" points="184.65,-27.6 192.85,-20.89 182.26,-21.02 184.65,-27.6"/>
</a>
</g>
</g>
<!-- Node4&#45;&gt;Node2 -->
<g id="edge4_Node000004_Node000002" class="edge">
<title>Node4&#45;&gt;Node2</title>
<g id="a_edge4_Node000004_Node000002"><a xlink:title=" ">
<path fill="none" stroke="#63b8ff" d="M329.87,-170.44C345.32,-174.16 361.85,-178.14 377.7,-181.96"/>
<polygon fill="#63b8ff" stroke="#63b8ff" points="376.53,-185.28 387.07,-184.22 378.17,-178.47 376.53,-185.28"/>
</a>
</g>
</g>
</g>
</svg>
