<?xml version="1.0" encoding="UTF-8" standalone="no"?>
<!DOCTYPE svg PUBLIC "-//W3C//DTD SVG 1.1//EN"
 "http://www.w3.org/Graphics/SVG/1.1/DTD/svg11.dtd">
<!-- Generated by graphviz version 12.2.1 (20241206.2353)
 -->
<!-- Title: interficie.VistaPartida.refrescarRack Pages: 1 -->
<svg width="374pt" height="140pt"
 viewBox="0.00 0.00 373.75 140.00" xmlns="http://www.w3.org/2000/svg" xmlns:xlink="http://www.w3.org/1999/xlink">
<g id="graph0" class="graph" transform="scale(1 1) rotate(0) translate(4 136)">
<title>interficie.VistaPartida.refrescarRack</title>
<!-- Node1 -->
<g id="Node000001" class="node">
<title>Node1</title>
<g id="a_Node000001"><a xlink:title="Actualitza la visualització del rack del jugador actual.">
<polygon fill="#999999" stroke="#666666" points="173.5,-76 0,-76 0,-56 173.5,-56 173.5,-76"/>
<text text-anchor="middle" x="86.75" y="-62.5" font-family="Helvetica,sans-Serif" font-size="10.00">interficie.VistaPartida.refrescarRack</text>
</a>
</g>
</g>
<!-- Node2 -->
<g id="Node000002" class="node">
<title>Node2</title>
<g id="a_Node000002"><a xlink:href="$classdomini_1_1jugadors_1_1_jugador.html#acf9520ec234c3f2cc52e1b79b85a008e" xlink:title="Retorna la llista amb les fitxes actuals del jugador.">
<polygon fill="white" stroke="#666666" points="356.75,-132 218.5,-132 218.5,-100 356.75,-100 356.75,-132"/>
<text text-anchor="start" x="226.5" y="-118.5" font-family="Helvetica,sans-Serif" font-size="10.00">domini.jugadors.Jugador.get</text>
<text text-anchor="middle" x="287.62" y="-106.5" font-family="Helvetica,sans-Serif" font-size="10.00">Fitxes_actuals</text>
</a>
</g>
</g>
<!-- Node1&#45;&gt;Node2 -->
<g id="edge1_Node000001_Node000002" class="edge">
<title>Node1&#45;&gt;Node2</title>
<g id="a_edge1_Node000001_Node000002"><a xlink:title=" ">
<path fill="none" stroke="#63b8ff" d="M129.44,-76.48C152.77,-82.35 182.58,-89.84 209.96,-96.72"/>
<polygon fill="#63b8ff" stroke="#63b8ff" points="209.09,-100.12 219.64,-99.16 210.8,-93.33 209.09,-100.12"/>
</a>
</g>
</g>
<!-- Node3 -->
<g id="Node000003" class="node">
<title>Node3</title>
<g id="a_Node000003"><a xlink:href="$classdomini_1_1scrabble_1_1_partida.html#a97c82dc47217e0515691e5c2ffaa3626" xlink:title="Obté el jugador que està jugant el torn.">
<polygon fill="white" stroke="#666666" points="354.88,-82 220.38,-82 220.38,-50 354.88,-50 354.88,-82"/>
<text text-anchor="start" x="228.38" y="-68.5" font-family="Helvetica,sans-Serif" font-size="10.00">domini.scrabble.Partida.get</text>
<text text-anchor="middle" x="287.62" y="-56.5" font-family="Helvetica,sans-Serif" font-size="10.00">JugadorActual</text>
</a>
</g>
</g>
<!-- Node1&#45;&gt;Node3 -->
<g id="edge2_Node000001_Node000003" class="edge">
<title>Node1&#45;&gt;Node3</title>
<g id="a_edge2_Node000001_Node000003"><a xlink:title=" ">
<path fill="none" stroke="#63b8ff" d="M173.82,-66C185.4,-66 197.22,-66 208.64,-66"/>
<polygon fill="#63b8ff" stroke="#63b8ff" points="208.39,-69.5 218.39,-66 208.39,-62.5 208.39,-69.5"/>
</a>
</g>
</g>
<!-- Node4 -->
<g id="Node000004" class="node">
<title>Node4</title>
<g id="a_Node000004"><a xlink:href="$classcontroladors_1_1_ctrl_presentacio.html#af18fe9d82387504c97bd73a19eaa15e8" xlink:title="Retorna la instància de la partida actual en curs.">
<polygon fill="white" stroke="#666666" points="365.75,-32 209.5,-32 209.5,0 365.75,0 365.75,-32"/>
<text text-anchor="start" x="217.5" y="-18.5" font-family="Helvetica,sans-Serif" font-size="10.00">controladors.CtrlPresentacio.get</text>
<text text-anchor="middle" x="287.62" y="-6.5" font-family="Helvetica,sans-Serif" font-size="10.00">Partida</text>
</a>
</g>
</g>
<!-- Node1&#45;&gt;Node4 -->
<g id="edge3_Node000001_Node000004" class="edge">
<title>Node1&#45;&gt;Node4</title>
<g id="a_edge3_Node000001_Node000004"><a xlink:title=" ">
<path fill="none" stroke="#63b8ff" d="M129.44,-55.52C152.77,-49.65 182.58,-42.16 209.96,-35.28"/>
<polygon fill="#63b8ff" stroke="#63b8ff" points="210.8,-38.67 219.64,-32.84 209.09,-31.88 210.8,-38.67"/>
</a>
</g>
</g>
</g>
</svg>
