<?xml version="1.0" encoding="UTF-8" standalone="no"?>
<!DOCTYPE svg PUBLIC "-//W3C//DTD SVG 1.1//EN"
 "http://www.w3.org/Graphics/SVG/1.1/DTD/svg11.dtd">
<!-- Generated by graphviz version 12.2.1 (20241206.2353)
 -->
<!-- Title: interficie.VistaPartida.VistaPartida Pages: 1 -->
<svg width="838pt" height="300pt"
 viewBox="0.00 0.00 838.00 300.04" xmlns="http://www.w3.org/2000/svg" xmlns:xlink="http://www.w3.org/1999/xlink">
<g id="graph0" class="graph" transform="scale(1 1) rotate(0) translate(4 296.04)">
<title>interficie.VistaPartida.VistaPartida</title>
<!-- Node1 -->
<g id="Node000001" class="node">
<title>Node1</title>
<g id="a_Node000001"><a xlink:title="Constructor de la classe VistaPartida.">
<polygon fill="#999999" stroke="#666666" points="830,-175.33 718,-175.33 718,-143.33 830,-143.33 830,-175.33"/>
<text text-anchor="start" x="726" y="-161.83" font-family="Helvetica,sans-Serif" font-size="10.00">interficie.VistaPartida.</text>
<text text-anchor="middle" x="774" y="-149.83" font-family="Helvetica,sans-Serif" font-size="10.00">VistaPartida</text>
</a>
</g>
</g>
<!-- Node1&#45;&gt;Node1 -->
<g id="edge17_Node000001_Node000001" class="edge">
<title>Node1&#45;&gt;Node1</title>
<g id="a_edge17_Node000001_Node000001"><a xlink:title=" ">
<path fill="none" stroke="#63b8ff" d="M800.66,-187.03C796.22,-190.81 787.33,-193.33 774,-193.33 749.62,-193.33 740.1,-184.91 745.44,-175.77"/>
<polygon fill="#63b8ff" stroke="#63b8ff" points="804.1,-187.71 802.31,-177.26 797.2,-186.54 804.1,-187.71"/>
</a>
</g>
</g>
<!-- Node2 -->
<g id="Node000002" class="node">
<title>Node2</title>
<g id="a_Node000002"><a xlink:href="$classinterficie_1_1_vista_partida.html#a6bd7550fc714ba5195c8b55ffe3d973c" xlink:title="Afegeix les fitxes d&#39;un jugador al seu rack.">
<polygon fill="white" stroke="#666666" points="682,-241.33 546,-241.33 546,-209.33 682,-209.33 682,-241.33"/>
<text text-anchor="start" x="554" y="-227.83" font-family="Helvetica,sans-Serif" font-size="10.00">interficie.VistaPartida.afegir</text>
<text text-anchor="middle" x="614" y="-215.83" font-family="Helvetica,sans-Serif" font-size="10.00">FitxesARack</text>
</a>
</g>
</g>
<!-- Node1&#45;&gt;Node2 -->
<g id="edge1_Node000001_Node000002" class="edge">
<title>Node1&#45;&gt;Node2</title>
<g id="a_edge1_Node000001_Node000002"><a xlink:title=" ">
<path fill="none" stroke="#63b8ff" d="M722.96,-180.23C700.76,-189.51 675.01,-200.26 654.23,-208.94"/>
<polygon fill="#63b8ff" stroke="#63b8ff" points="724.26,-183.48 732.14,-176.4 721.56,-177.02 724.26,-183.48"/>
</a>
</g>
</g>
<!-- Node4 -->
<g id="Node000004" class="node">
<title>Node4</title>
<g id="a_Node000004"><a xlink:href="$classinterficie_1_1_vista_partida.html#a7855e7a9cc41e1450c37054781ba6309" xlink:title="Inicialitza els components de la interfície gràfica.">
<polygon fill="white" stroke="#666666" points="135.25,-181.33 0,-181.33 0,-161.33 135.25,-161.33 135.25,-181.33"/>
<text text-anchor="middle" x="67.62" y="-167.83" font-family="Helvetica,sans-Serif" font-size="10.00">interficie.VistaPartida.initUI</text>
</a>
</g>
</g>
<!-- Node1&#45;&gt;Node4 -->
<g id="edge16_Node000001_Node000004" class="edge">
<title>Node1&#45;&gt;Node4</title>
<g id="a_edge16_Node000001_Node000004"><a xlink:title=" ">
<path fill="none" stroke="#63b8ff" d="M751.02,-184.34C734.75,-203.96 710.51,-229.52 682,-241.33 472.45,-328.13 191.06,-217.88 99.09,-181.74"/>
<polygon fill="#63b8ff" stroke="#63b8ff" points="753.62,-186.7 757.19,-176.72 748.18,-182.29 753.62,-186.7"/>
</a>
</g>
</g>
<!-- Node6 -->
<g id="Node000006" class="node">
<title>Node6</title>
<g id="a_Node000006"><a xlink:href="$classinterficie_1_1_vista_partida.html#ae6809bc2e7efc03077c111367571f788" xlink:title="Afegeix maquetes al rack de l&#39;oponent.">
<polygon fill="white" stroke="#666666" points="682,-153.33 546,-153.33 546,-121.33 682,-121.33 682,-153.33"/>
<text text-anchor="start" x="554" y="-139.83" font-family="Helvetica,sans-Serif" font-size="10.00">interficie.VistaPartida.afegir</text>
<text text-anchor="middle" x="614" y="-127.83" font-family="Helvetica,sans-Serif" font-size="10.00">MaquetesARack</text>
</a>
</g>
</g>
<!-- Node1&#45;&gt;Node6 -->
<g id="edge10_Node000001_Node000006" class="edge">
<title>Node1&#45;&gt;Node6</title>
<g id="a_edge10_Node000001_Node000006"><a xlink:title=" ">
<path fill="none" stroke="#63b8ff" d="M706.61,-150.08C698.62,-148.97 690.46,-147.84 682.46,-146.72"/>
<polygon fill="#63b8ff" stroke="#63b8ff" points="705.85,-153.51 716.24,-151.42 706.82,-146.58 705.85,-153.51"/>
</a>
</g>
</g>
<!-- Node7 -->
<g id="Node000007" class="node">
<title>Node7</title>
<g id="a_Node000007"><a xlink:href="$classinterficie_1_1_vista_partida.html#a8ebc9da2a2b927ba87ed97ad85ae44e8" xlink:title="Confirma l&#39;acció de guardar la partida.">
<polygon fill="white" stroke="#666666" points="323.75,-41.33 171.25,-41.33 171.25,-9.33 323.75,-9.33 323.75,-41.33"/>
<text text-anchor="start" x="179.25" y="-27.83" font-family="Helvetica,sans-Serif" font-size="10.00">interficie.VistaPartida.confirmar</text>
<text text-anchor="middle" x="247.5" y="-15.83" font-family="Helvetica,sans-Serif" font-size="10.00">Guardar</text>
</a>
</g>
</g>
<!-- Node1&#45;&gt;Node7 -->
<g id="edge12_Node000001_Node000007" class="edge">
<title>Node1&#45;&gt;Node7</title>
<g id="a_edge12_Node000001_Node000007"><a xlink:title=" ">
<path fill="none" stroke="#63b8ff" d="M759.5,-133.03C744.45,-106.7 717.48,-67.44 682,-48.33 569.21,12.44 415.05,2.64 324.21,-10.8"/>
<polygon fill="#63b8ff" stroke="#63b8ff" points="756.42,-134.69 764.3,-141.76 762.55,-131.31 756.42,-134.69"/>
</a>
</g>
</g>
<!-- Node8 -->
<g id="Node000008" class="node">
<title>Node8</title>
<g id="a_Node000008"><a xlink:href="$classinterficie_1_1_vista_partida.html#ab47b596fbbd6a79289d4b9d7f5b5e068" xlink:title="Crea un panell amb la informació d&#39;un jugador.">
<polygon fill="white" stroke="#666666" points="501.75,-71.33 368,-71.33 368,-39.33 501.75,-39.33 501.75,-71.33"/>
<text text-anchor="start" x="376" y="-57.83" font-family="Helvetica,sans-Serif" font-size="10.00">interficie.VistaPartida.crear</text>
<text text-anchor="middle" x="434.88" y="-45.83" font-family="Helvetica,sans-Serif" font-size="10.00">PanelJugador</text>
</a>
</g>
</g>
<!-- Node1&#45;&gt;Node8 -->
<g id="edge14_Node000001_Node000008" class="edge">
<title>Node1&#45;&gt;Node8</title>
<g id="a_edge14_Node000001_Node000008"><a xlink:title=" ">
<path fill="none" stroke="#63b8ff" d="M752.67,-134.51C735.85,-115.88 710.19,-91.55 682,-79.33 624.79,-54.52 553.27,-50.14 502.09,-50.99"/>
<polygon fill="#63b8ff" stroke="#63b8ff" points="749.99,-136.76 759.2,-141.99 755.26,-132.15 749.99,-136.76"/>
</a>
</g>
</g>
<!-- Node3 -->
<g id="Node000003" class="node">
<title>Node3</title>
<g id="a_Node000003"><a xlink:href="$classinterficie_1_1_vista_partida.html#a0698d192124492ebfd8a3b029a6fa23c" xlink:title="Actualitza els racks dels jugadors.">
<polygon fill="white" stroke="#666666" points="510,-187.33 359.75,-187.33 359.75,-155.33 510,-155.33 510,-187.33"/>
<text text-anchor="start" x="367.75" y="-173.83" font-family="Helvetica,sans-Serif" font-size="10.00">interficie.VistaPartida.refrescar</text>
<text text-anchor="middle" x="434.88" y="-161.83" font-family="Helvetica,sans-Serif" font-size="10.00">RackJugadors</text>
</a>
</g>
</g>
<!-- Node2&#45;&gt;Node3 -->
<g id="edge2_Node000002_Node000003" class="edge">
<title>Node2&#45;&gt;Node3</title>
<g id="a_edge2_Node000002_Node000003"><a xlink:title=" ">
<path fill="none" stroke="#63b8ff" d="M547.89,-205.48C528.84,-199.67 508.24,-193.39 489.95,-187.82"/>
<polygon fill="#63b8ff" stroke="#63b8ff" points="546.86,-208.82 557.45,-208.39 548.9,-202.13 546.86,-208.82"/>
</a>
</g>
</g>
<!-- Node3&#45;&gt;Node1 -->
<g id="edge9_Node000003_Node000001" class="edge">
<title>Node3&#45;&gt;Node1</title>
<g id="a_edge9_Node000003_Node000001"><a xlink:title=" ">
<path fill="none" stroke="#63b8ff" d="M521.7,-168.27C583.3,-166.08 664.51,-163.19 717.71,-161.3"/>
<polygon fill="#63b8ff" stroke="#63b8ff" points="521.82,-164.77 511.95,-168.62 522.07,-171.76 521.82,-164.77"/>
</a>
</g>
</g>
<!-- Node3&#45;&gt;Node4 -->
<g id="edge3_Node000003_Node000004" class="edge">
<title>Node3&#45;&gt;Node4</title>
<g id="a_edge3_Node000003_Node000004"><a xlink:title=" ">
<path fill="none" stroke="#63b8ff" d="M348.09,-171.33C283.16,-171.33 195.26,-171.33 135.5,-171.33"/>
<polygon fill="#63b8ff" stroke="#63b8ff" points="348.01,-174.83 358.01,-171.33 348.01,-167.83 348.01,-174.83"/>
</a>
</g>
</g>
<!-- Node5 -->
<g id="Node000005" class="node">
<title>Node5</title>
<g id="a_Node000005"><a xlink:href="$classinterficie_1_1_vista_partida.html#a485041b781e81c64fb5414207ff21d2a" xlink:title="Actualitza la informació de la partida.">
<polygon fill="white" stroke="#666666" points="322.62,-120.33 172.38,-120.33 172.38,-88.33 322.62,-88.33 322.62,-120.33"/>
<text text-anchor="start" x="180.38" y="-106.83" font-family="Helvetica,sans-Serif" font-size="10.00">interficie.VistaPartida.refrescar</text>
<text text-anchor="middle" x="247.5" y="-94.83" font-family="Helvetica,sans-Serif" font-size="10.00">Informacio</text>
</a>
</g>
</g>
<!-- Node3&#45;&gt;Node5 -->
<g id="edge5_Node000003_Node000005" class="edge">
<title>Node3&#45;&gt;Node5</title>
<g id="a_edge5_Node000003_Node000005"><a xlink:title=" ">
<path fill="none" stroke="#63b8ff" d="M377.76,-151.04C350.96,-141.36 319.3,-129.92 294.02,-120.78"/>
<polygon fill="#63b8ff" stroke="#63b8ff" points="376.51,-154.32 387.1,-154.42 378.89,-147.73 376.51,-154.32"/>
</a>
</g>
</g>
<!-- Node4&#45;&gt;Node1 -->
<g id="edge4_Node000004_Node000001" class="edge">
<title>Node4&#45;&gt;Node1</title>
<g id="a_edge4_Node000004_Node000001"><a xlink:title=" ">
<path fill="none" stroke="#63b8ff" d="M94.02,-187.04C180.27,-231.59 468.44,-347.79 682,-259.33 721.63,-242.91 753,-199.93 766.21,-175.67"/>
<polygon fill="#63b8ff" stroke="#63b8ff" points="95.89,-184.07 85.42,-182.45 92.6,-190.25 95.89,-184.07"/>
</a>
</g>
</g>
<!-- Node5&#45;&gt;Node1 -->
<g id="edge8_Node000005_Node000001" class="edge">
<title>Node5&#45;&gt;Node1</title>
<g id="a_edge8_Node000005_Node000001"><a xlink:title=" ">
<path fill="none" stroke="#63b8ff" d="M334.44,-94.57C423.01,-87.13 564.37,-82.59 682,-112.33 706.13,-118.43 731.09,-131.91 748.75,-142.88"/>
<polygon fill="#63b8ff" stroke="#63b8ff" points="334.27,-91.07 324.61,-95.43 334.88,-98.05 334.27,-91.07"/>
</a>
</g>
</g>
<!-- Node5&#45;&gt;Node4 -->
<g id="edge6_Node000005_Node000004" class="edge">
<title>Node5&#45;&gt;Node4</title>
<g id="a_edge6_Node000005_Node000004"><a xlink:title=" ">
<path fill="none" stroke="#63b8ff" d="M192.54,-124.65C160.84,-136.59 122.09,-151.19 96.45,-160.85"/>
<polygon fill="#63b8ff" stroke="#63b8ff" points="193.45,-128.05 201.57,-121.25 190.98,-121.5 193.45,-128.05"/>
</a>
</g>
</g>
<!-- Node5&#45;&gt;Node5 -->
<g id="edge7_Node000005_Node000005" class="edge">
<title>Node5&#45;&gt;Node5</title>
<g id="a_edge7_Node000005_Node000005"><a xlink:title=" ">
<path fill="none" stroke="#63b8ff" d="M277.48,-132.03C272.48,-135.81 262.49,-138.33 247.5,-138.33 220.1,-138.33 209.39,-129.91 215.39,-120.77"/>
<polygon fill="#63b8ff" stroke="#63b8ff" points="280.9,-132.73 279.33,-122.26 274.03,-131.43 280.9,-132.73"/>
</a>
</g>
</g>
<!-- Node6&#45;&gt;Node3 -->
<g id="edge11_Node000006_Node000003" class="edge">
<title>Node6&#45;&gt;Node3</title>
<g id="a_edge11_Node000006_Node000003"><a xlink:title=" ">
<path fill="none" stroke="#63b8ff" d="M534.32,-152.43C526.31,-153.97 518.2,-155.52 510.25,-157.05"/>
<polygon fill="#63b8ff" stroke="#63b8ff" points="534.88,-155.89 544.04,-150.56 533.56,-149.01 534.88,-155.89"/>
</a>
</g>
</g>
<!-- Node7&#45;&gt;Node4 -->
<g id="edge13_Node000007_Node000004" class="edge">
<title>Node7&#45;&gt;Node4</title>
<g id="a_edge13_Node000007_Node000004"><a xlink:title=" ">
<path fill="none" stroke="#63b8ff" d="M213.04,-48.17C199.79,-57.52 184.57,-68.63 171.25,-79.33 136.36,-107.35 97.68,-143.52 79.37,-160.99"/>
<polygon fill="#63b8ff" stroke="#63b8ff" points="214.85,-51.17 221.05,-42.57 210.84,-45.43 214.85,-51.17"/>
</a>
</g>
</g>
<!-- Node8&#45;&gt;Node5 -->
<g id="edge15_Node000008_Node000005" class="edge">
<title>Node8&#45;&gt;Node5</title>
<g id="a_edge15_Node000008_Node000005"><a xlink:title=" ">
<path fill="none" stroke="#63b8ff" d="M360.91,-74.61C344.37,-78.99 326.95,-83.59 310.89,-87.84"/>
<polygon fill="#63b8ff" stroke="#63b8ff" points="361.4,-78.11 370.17,-72.17 359.61,-71.34 361.4,-78.11"/>
</a>
</g>
</g>
</g>
</svg>
