<?xml version="1.0" encoding="UTF-8" standalone="no"?>
<!DOCTYPE svg PUBLIC "-//W3C//DTD SVG 1.1//EN"
 "http://www.w3.org/Graphics/SVG/1.1/DTD/svg11.dtd">
<!-- Generated by graphviz version 12.2.1 (20241206.2353)
 -->
<!-- Title: domini.scrabble.Taulell Pages: 1 -->
<svg width="375pt" height="752pt"
 viewBox="0.00 0.00 375.38 752.00" xmlns="http://www.w3.org/2000/svg" xmlns:xlink="http://www.w3.org/1999/xlink">
<g id="graph0" class="graph" transform="scale(1 1) rotate(0) translate(4 748)">
<title>domini.scrabble.Taulell</title>
<!-- Node1 -->
<g id="Node000001" class="node">
<title>Node1</title>
<g id="a_Node000001"><a xlink:title="Representa el Taulell d&#39;Scrabble.">
<polygon fill="#999999" stroke="none" points="234.38,-228 127.38,-228 127.38,0 234.38,0 234.38,-228"/>
<text text-anchor="start" x="131.38" y="-214.5" font-family="Helvetica,sans-Serif" font-size="10.00">domini.scrabble.Taulell</text>
<text text-anchor="start" x="133.94" y="-198.5" font-family="Helvetica,sans-Serif" font-size="10.00">~</text>
<text text-anchor="start" x="146.5" y="-198.5" font-family="Helvetica,sans-Serif" font-size="10.00">n</text>
<text text-anchor="start" x="133.94" y="-182.5" font-family="Helvetica,sans-Serif" font-size="10.00">+</text>
<text text-anchor="start" x="146.5" y="-182.5" font-family="Helvetica,sans-Serif" font-size="10.00">Taulell()</text>
<text text-anchor="start" x="133.94" y="-166.5" font-family="Helvetica,sans-Serif" font-size="10.00">+</text>
<text text-anchor="start" x="146.5" y="-166.5" font-family="Helvetica,sans-Serif" font-size="10.00">getCasella()</text>
<text text-anchor="start" x="133.94" y="-150.5" font-family="Helvetica,sans-Serif" font-size="10.00">+</text>
<text text-anchor="start" x="146.5" y="-150.5" font-family="Helvetica,sans-Serif" font-size="10.00">getMida()</text>
<text text-anchor="start" x="133.94" y="-134.5" font-family="Helvetica,sans-Serif" font-size="10.00">+</text>
<text text-anchor="start" x="146.5" y="-134.5" font-family="Helvetica,sans-Serif" font-size="10.00">estaBuit()</text>
<text text-anchor="start" x="133.94" y="-118.5" font-family="Helvetica,sans-Serif" font-size="10.00">+</text>
<text text-anchor="start" x="146.5" y="-118.5" font-family="Helvetica,sans-Serif" font-size="10.00">limits()</text>
<text text-anchor="start" x="133.94" y="-102.5" font-family="Helvetica,sans-Serif" font-size="10.00">+</text>
<text text-anchor="start" x="146.5" y="-102.5" font-family="Helvetica,sans-Serif" font-size="10.00">getAnchors()</text>
<text text-anchor="start" x="133.94" y="-86.5" font-family="Helvetica,sans-Serif" font-size="10.00">+</text>
<text text-anchor="start" x="146.5" y="-86.5" font-family="Helvetica,sans-Serif" font-size="10.00">transpose()</text>
<text text-anchor="start" x="133.94" y="-70.5" font-family="Helvetica,sans-Serif" font-size="10.00">+</text>
<text text-anchor="start" x="146.5" y="-70.5" font-family="Helvetica,sans-Serif" font-size="10.00">setCasella()</text>
<text text-anchor="start" x="133.94" y="-54.5" font-family="Helvetica,sans-Serif" font-size="10.00">+</text>
<text text-anchor="start" x="146.5" y="-54.5" font-family="Helvetica,sans-Serif" font-size="10.00">inserirParaula()</text>
<text text-anchor="start" x="133.94" y="-38.5" font-family="Helvetica,sans-Serif" font-size="10.00">+</text>
<text text-anchor="start" x="146.5" y="-38.5" font-family="Helvetica,sans-Serif" font-size="10.00">getCentreTaulell()</text>
<text text-anchor="start" x="133.94" y="-22.5" font-family="Helvetica,sans-Serif" font-size="10.00">+</text>
<text text-anchor="start" x="146.5" y="-22.5" font-family="Helvetica,sans-Serif" font-size="10.00">print()</text>
<text text-anchor="start" x="135.44" y="-6.5" font-family="Helvetica,sans-Serif" font-size="10.00">&#45;</text>
<text text-anchor="start" x="146.5" y="-6.5" font-family="Helvetica,sans-Serif" font-size="10.00">calcularPuntatge()</text>
<polygon fill="#666666" stroke="#666666" points="127.38,-210 127.38,-210 234.38,-210 234.38,-210 127.38,-210"/>
<polygon fill="#666666" stroke="#666666" points="127.38,-194 127.38,-194 144.5,-194 144.5,-194 127.38,-194"/>
<polygon fill="#666666" stroke="#666666" points="144.5,-194 144.5,-194 234.38,-194 234.38,-194 144.5,-194"/>
<polygon fill="none" stroke="#666666" points="127.38,0 127.38,-228 234.38,-228 234.38,0 127.38,0"/>
</a>
</g>
</g>
<!-- Node2 -->
<g id="Node000002" class="node">
<title>Node2</title>
<g id="a_Node000002"><a xlink:href="classdomini_1_1scrabble_1_1_casella.html" target="_top" xlink:title="Representa una casella del tauler d&#39;Scrabble.">
<polygon fill="white" stroke="none" points="245.38,-536 116.38,-536 116.38,-276 245.38,-276 245.38,-536"/>
<text text-anchor="start" x="128.75" y="-522.5" font-family="Helvetica,sans-Serif" font-size="10.00">domini.scrabble.Casella</text>
<text text-anchor="start" x="121.88" y="-506.5" font-family="Helvetica,sans-Serif" font-size="10.00">&#45;</text>
<text text-anchor="start" x="130.38" y="-506.5" font-family="Helvetica,sans-Serif" font-size="10.00">cross_checks</text>
<text text-anchor="start" x="121.88" y="-490.5" font-family="Helvetica,sans-Serif" font-size="10.00">&#45;</text>
<text text-anchor="start" x="130.38" y="-490.5" font-family="Helvetica,sans-Serif" font-size="10.00">anchor</text>
<text text-anchor="start" x="120.38" y="-474.5" font-family="Helvetica,sans-Serif" font-size="10.00">+</text>
<text text-anchor="start" x="130.38" y="-474.5" font-family="Helvetica,sans-Serif" font-size="10.00">Casella()</text>
<text text-anchor="start" x="120.38" y="-458.5" font-family="Helvetica,sans-Serif" font-size="10.00">+</text>
<text text-anchor="start" x="130.38" y="-458.5" font-family="Helvetica,sans-Serif" font-size="10.00">setMultiplicador()</text>
<text text-anchor="start" x="120.38" y="-442.5" font-family="Helvetica,sans-Serif" font-size="10.00">+</text>
<text text-anchor="start" x="130.38" y="-442.5" font-family="Helvetica,sans-Serif" font-size="10.00">EstaOcupat()</text>
<text text-anchor="start" x="120.38" y="-426.5" font-family="Helvetica,sans-Serif" font-size="10.00">+</text>
<text text-anchor="start" x="130.38" y="-426.5" font-family="Helvetica,sans-Serif" font-size="10.00">afegirFitxa()</text>
<text text-anchor="start" x="120.38" y="-410.5" font-family="Helvetica,sans-Serif" font-size="10.00">+</text>
<text text-anchor="start" x="130.38" y="-410.5" font-family="Helvetica,sans-Serif" font-size="10.00">setAnchor()</text>
<text text-anchor="start" x="120.38" y="-394.5" font-family="Helvetica,sans-Serif" font-size="10.00">+</text>
<text text-anchor="start" x="130.38" y="-394.5" font-family="Helvetica,sans-Serif" font-size="10.00">isAnchor()</text>
<text text-anchor="start" x="120.38" y="-378.5" font-family="Helvetica,sans-Serif" font-size="10.00">+</text>
<text text-anchor="start" x="130.38" y="-378.5" font-family="Helvetica,sans-Serif" font-size="10.00">getCoord()</text>
<text text-anchor="start" x="120.38" y="-362.5" font-family="Helvetica,sans-Serif" font-size="10.00">+</text>
<text text-anchor="start" x="130.38" y="-362.5" font-family="Helvetica,sans-Serif" font-size="10.00">getMultiplicador()</text>
<text text-anchor="start" x="120.38" y="-346.5" font-family="Helvetica,sans-Serif" font-size="10.00">+</text>
<text text-anchor="start" x="130.38" y="-346.5" font-family="Helvetica,sans-Serif" font-size="10.00">getFitxa()</text>
<text text-anchor="start" x="120.38" y="-330.5" font-family="Helvetica,sans-Serif" font-size="10.00">+</text>
<text text-anchor="start" x="130.38" y="-330.5" font-family="Helvetica,sans-Serif" font-size="10.00">getCrossChecks()</text>
<text text-anchor="start" x="120.38" y="-314.5" font-family="Helvetica,sans-Serif" font-size="10.00">+</text>
<text text-anchor="start" x="130.38" y="-314.5" font-family="Helvetica,sans-Serif" font-size="10.00">actualitzarCrossChecks()</text>
<text text-anchor="start" x="120.38" y="-298.5" font-family="Helvetica,sans-Serif" font-size="10.00">+</text>
<text text-anchor="start" x="130.38" y="-298.5" font-family="Helvetica,sans-Serif" font-size="10.00">reiniciarCrossCheck()</text>
<text text-anchor="start" x="120.38" y="-282.5" font-family="Helvetica,sans-Serif" font-size="10.00">+</text>
<text text-anchor="start" x="130.38" y="-282.5" font-family="Helvetica,sans-Serif" font-size="10.00">retirarFitxa()</text>
<polygon fill="#666666" stroke="#666666" points="116.38,-518 116.38,-518 245.38,-518 245.38,-518 116.38,-518"/>
<polygon fill="#666666" stroke="#666666" points="116.38,-486 116.38,-486 128.38,-486 128.38,-486 116.38,-486"/>
<polygon fill="#666666" stroke="#666666" points="128.38,-486 128.38,-486 245.38,-486 245.38,-486 128.38,-486"/>
<polygon fill="none" stroke="#666666" points="116.38,-276 116.38,-536 245.38,-536 245.38,-276 116.38,-276"/>
</a>
</g>
</g>
<!-- Node2&#45;&gt;Node1 -->
<g id="edge1_Node000001_Node000002" class="edge">
<title>Node2&#45;&gt;Node1</title>
<g id="a_edge1_Node000001_Node000002"><a xlink:title=" ">
<path fill="none" stroke="#63b8ff" d="M180.88,-276.11C180.88,-264.23 180.88,-252.19 180.88,-240.34"/>
<polygon fill="none" stroke="#63b8ff" points="180.88,-240.46 176.88,-234.46 180.88,-228.46 184.88,-234.46 180.88,-240.46"/>
</a>
</g>
<text text-anchor="middle" x="196.62" y="-248.5" font-family="Helvetica,sans-Serif" font-size="10.00" fill="grey"> &#45;taulell</text>
</g>
<!-- Node3 -->
<g id="Node000003" class="node">
<title>Node3</title>
<g id="a_Node000003"><a xlink:href="classdomini_1_1auxiliars_1_1_pair.html" target="_top" xlink:title=" ">
<polygon fill="white" stroke="none" points="95.75,-744 0,-744 0,-584 95.75,-584 95.75,-744"/>
<text text-anchor="start" x="4" y="-730.5" font-family="Helvetica,sans-Serif" font-size="10.00">domini.auxiliars.Pair</text>
<text text-anchor="start" x="5.88" y="-718.5" font-family="Helvetica,sans-Serif" font-size="10.00">&lt; Integer, Integer &gt;</text>
<text text-anchor="start" x="11.81" y="-702.5" font-family="Helvetica,sans-Serif" font-size="10.00">&#45;</text>
<text text-anchor="start" x="26.62" y="-702.5" font-family="Helvetica,sans-Serif" font-size="10.00">first</text>
<text text-anchor="start" x="11.81" y="-686.5" font-family="Helvetica,sans-Serif" font-size="10.00">&#45;</text>
<text text-anchor="start" x="26.62" y="-686.5" font-family="Helvetica,sans-Serif" font-size="10.00">second</text>
<text text-anchor="start" x="10.31" y="-670.5" font-family="Helvetica,sans-Serif" font-size="10.00">+</text>
<text text-anchor="start" x="26.62" y="-670.5" font-family="Helvetica,sans-Serif" font-size="10.00">Pair()</text>
<text text-anchor="start" x="10.31" y="-654.5" font-family="Helvetica,sans-Serif" font-size="10.00">+</text>
<text text-anchor="start" x="26.62" y="-654.5" font-family="Helvetica,sans-Serif" font-size="10.00">Pair()</text>
<text text-anchor="start" x="10.31" y="-638.5" font-family="Helvetica,sans-Serif" font-size="10.00">+</text>
<text text-anchor="start" x="26.62" y="-638.5" font-family="Helvetica,sans-Serif" font-size="10.00">getFirst()</text>
<text text-anchor="start" x="10.31" y="-622.5" font-family="Helvetica,sans-Serif" font-size="10.00">+</text>
<text text-anchor="start" x="26.62" y="-622.5" font-family="Helvetica,sans-Serif" font-size="10.00">getSecond()</text>
<text text-anchor="start" x="10.31" y="-606.5" font-family="Helvetica,sans-Serif" font-size="10.00">+</text>
<text text-anchor="start" x="26.62" y="-606.5" font-family="Helvetica,sans-Serif" font-size="10.00">equals()</text>
<text text-anchor="start" x="10.31" y="-590.5" font-family="Helvetica,sans-Serif" font-size="10.00">+</text>
<text text-anchor="start" x="26.62" y="-590.5" font-family="Helvetica,sans-Serif" font-size="10.00">toString()</text>
<polygon fill="#666666" stroke="#666666" points="0,-714 0,-714 95.75,-714 95.75,-714 0,-714"/>
<polygon fill="#666666" stroke="#666666" points="0,-682 0,-682 24.62,-682 24.62,-682 0,-682"/>
<polygon fill="#666666" stroke="#666666" points="24.62,-682 24.62,-682 95.75,-682 95.75,-682 24.62,-682"/>
<polygon fill="none" stroke="#666666" points="0,-584 0,-744 95.75,-744 95.75,-584 0,-584"/>
</a>
</g>
</g>
<!-- Node3&#45;&gt;Node2 -->
<g id="edge2_Node000002_Node000003" class="edge">
<title>Node3&#45;&gt;Node2</title>
<g id="a_edge2_Node000002_Node000003"><a xlink:title=" ">
<path fill="none" stroke="#63b8ff" d="M88.86,-584.1C95.79,-570.77 103.15,-556.6 110.58,-542.31"/>
<polygon fill="none" stroke="#63b8ff" points="110.59,-542.29 109.81,-535.12 116.12,-531.64 116.9,-538.81 110.59,-542.29"/>
</a>
</g>
<text text-anchor="middle" x="133.21" y="-556.5" font-family="Helvetica,sans-Serif" font-size="10.00" fill="grey"> &#45;coordenades</text>
</g>
<!-- Node4 -->
<g id="Node000004" class="node">
<title>Node4</title>
<g id="a_Node000004"><a xlink:href="enumdomini_1_1scrabble_1_1_multiplicador.html" target="_top" xlink:title="Representa els diferents tipus de multiplicadors d&#39;Scrabble.">
<polygon fill="white" stroke="none" points="247.88,-738 113.88,-738 113.88,-590 247.88,-590 247.88,-738"/>
<text text-anchor="start" x="117.88" y="-724.5" font-family="Helvetica,sans-Serif" font-size="10.00">domini.scrabble.Multiplicador</text>
<text text-anchor="start" x="125.12" y="-708.5" font-family="Helvetica,sans-Serif" font-size="10.00">+</text>
<text text-anchor="start" x="142.38" y="-708.5" font-family="Helvetica,sans-Serif" font-size="10.00">CAP</text>
<text text-anchor="start" x="125.12" y="-692.5" font-family="Helvetica,sans-Serif" font-size="10.00">+</text>
<text text-anchor="start" x="142.38" y="-692.5" font-family="Helvetica,sans-Serif" font-size="10.00">DOBLE_LLETRA</text>
<text text-anchor="start" x="125.12" y="-676.5" font-family="Helvetica,sans-Serif" font-size="10.00">+</text>
<text text-anchor="start" x="142.38" y="-676.5" font-family="Helvetica,sans-Serif" font-size="10.00">TRIPLE_LLETRA</text>
<text text-anchor="start" x="125.12" y="-660.5" font-family="Helvetica,sans-Serif" font-size="10.00">+</text>
<text text-anchor="start" x="142.38" y="-660.5" font-family="Helvetica,sans-Serif" font-size="10.00">DOBLE_PARAULA</text>
<text text-anchor="start" x="125.12" y="-644.5" font-family="Helvetica,sans-Serif" font-size="10.00">+</text>
<text text-anchor="start" x="142.38" y="-644.5" font-family="Helvetica,sans-Serif" font-size="10.00">TRIPLE_PARAULA</text>
<text text-anchor="start" x="126.62" y="-628.5" font-family="Helvetica,sans-Serif" font-size="10.00">&#45;</text>
<text text-anchor="start" x="142.38" y="-628.5" font-family="Helvetica,sans-Serif" font-size="10.00">multiplicador</text>
<text text-anchor="start" x="125.12" y="-612.5" font-family="Helvetica,sans-Serif" font-size="10.00">+</text>
<text text-anchor="start" x="142.38" y="-612.5" font-family="Helvetica,sans-Serif" font-size="10.00">getMultiplicador()</text>
<text text-anchor="start" x="126.62" y="-596.5" font-family="Helvetica,sans-Serif" font-size="10.00">&#45;</text>
<text text-anchor="start" x="142.38" y="-596.5" font-family="Helvetica,sans-Serif" font-size="10.00">Multiplicador()</text>
<polygon fill="#666666" stroke="#666666" points="113.88,-720 113.88,-720 247.88,-720 247.88,-720 113.88,-720"/>
<polygon fill="#666666" stroke="#666666" points="113.88,-624 113.88,-624 140.38,-624 140.38,-624 113.88,-624"/>
<polygon fill="#666666" stroke="#666666" points="140.38,-624 140.38,-624 247.88,-624 247.88,-624 140.38,-624"/>
<polygon fill="none" stroke="#666666" points="113.88,-590 113.88,-738 247.88,-738 247.88,-590 113.88,-590"/>
</a>
</g>
</g>
<!-- Node4&#45;&gt;Node2 -->
<g id="edge3_Node000002_Node000004" class="edge">
<title>Node4&#45;&gt;Node2</title>
<g id="a_edge3_Node000002_Node000004"><a xlink:title=" ">
<path fill="none" stroke="#63b8ff" d="M180.88,-590.33C180.88,-577.06 180.88,-562.82 180.88,-548.35"/>
<polygon fill="none" stroke="#63b8ff" points="180.88,-548.49 176.88,-542.49 180.88,-536.49 184.88,-542.49 180.88,-548.49"/>
</a>
</g>
<text text-anchor="middle" x="211.25" y="-556.5" font-family="Helvetica,sans-Serif" font-size="10.00" fill="grey"> &#45;multiplicador</text>
</g>
<!-- Node5 -->
<g id="Node000005" class="node">
<title>Node5</title>
<g id="a_Node000005"><a xlink:href="classdomini_1_1scrabble_1_1_fitxa.html" target="_top" xlink:title="Representa una fitxa d&#39;Scrabble.">
<polygon fill="white" stroke="none" points="367.38,-738 266.38,-738 266.38,-590 367.38,-590 367.38,-738"/>
<text text-anchor="start" x="270.38" y="-724.5" font-family="Helvetica,sans-Serif" font-size="10.00">domini.scrabble.Fitxa</text>
<text text-anchor="start" x="276.88" y="-708.5" font-family="Helvetica,sans-Serif" font-size="10.00">&#45;</text>
<text text-anchor="start" x="290.38" y="-708.5" font-family="Helvetica,sans-Serif" font-size="10.00">id</text>
<text text-anchor="start" x="276.88" y="-692.5" font-family="Helvetica,sans-Serif" font-size="10.00">&#45;</text>
<text text-anchor="start" x="290.38" y="-692.5" font-family="Helvetica,sans-Serif" font-size="10.00">lletra</text>
<text text-anchor="start" x="276.88" y="-676.5" font-family="Helvetica,sans-Serif" font-size="10.00">&#45;</text>
<text text-anchor="start" x="290.38" y="-676.5" font-family="Helvetica,sans-Serif" font-size="10.00">puntuacio</text>
<text text-anchor="start" x="275.38" y="-660.5" font-family="Helvetica,sans-Serif" font-size="10.00">+</text>
<text text-anchor="start" x="290.38" y="-660.5" font-family="Helvetica,sans-Serif" font-size="10.00">Fitxa()</text>
<text text-anchor="start" x="275.38" y="-644.5" font-family="Helvetica,sans-Serif" font-size="10.00">+</text>
<text text-anchor="start" x="290.38" y="-644.5" font-family="Helvetica,sans-Serif" font-size="10.00">getId()</text>
<text text-anchor="start" x="275.38" y="-628.5" font-family="Helvetica,sans-Serif" font-size="10.00">+</text>
<text text-anchor="start" x="290.38" y="-628.5" font-family="Helvetica,sans-Serif" font-size="10.00">getLletra()</text>
<text text-anchor="start" x="275.38" y="-612.5" font-family="Helvetica,sans-Serif" font-size="10.00">+</text>
<text text-anchor="start" x="290.38" y="-612.5" font-family="Helvetica,sans-Serif" font-size="10.00">getPuntuacio()</text>
<text text-anchor="start" x="275.38" y="-596.5" font-family="Helvetica,sans-Serif" font-size="10.00">+</text>
<text text-anchor="start" x="290.38" y="-596.5" font-family="Helvetica,sans-Serif" font-size="10.00">equals()</text>
<polygon fill="#666666" stroke="#666666" points="266.38,-720 266.38,-720 367.38,-720 367.38,-720 266.38,-720"/>
<polygon fill="#666666" stroke="#666666" points="266.38,-672 266.38,-672 288.38,-672 288.38,-672 266.38,-672"/>
<polygon fill="#666666" stroke="#666666" points="288.38,-672 288.38,-672 367.38,-672 367.38,-672 288.38,-672"/>
<polygon fill="none" stroke="#666666" points="266.38,-590 266.38,-738 367.38,-738 367.38,-590 266.38,-590"/>
</a>
</g>
</g>
<!-- Node5&#45;&gt;Node2 -->
<g id="edge4_Node000002_Node000005" class="edge">
<title>Node5&#45;&gt;Node2</title>
<g id="a_edge4_Node000002_Node000005"><a xlink:title=" ">
<path fill="none" stroke="#63b8ff" d="M278.27,-590.33C269.83,-574.44 260.64,-557.15 251.39,-539.74"/>
<polygon fill="none" stroke="#63b8ff" points="251.37,-539.69 245.02,-536.27 245.74,-529.09 252.08,-532.51 251.37,-539.69"/>
</a>
</g>
<text text-anchor="middle" x="277.43" y="-556.5" font-family="Helvetica,sans-Serif" font-size="10.00" fill="grey"> &#45;fitxa</text>
</g>
</g>
</svg>
