<?xml version="1.0" encoding="UTF-8" standalone="no"?>
<!DOCTYPE svg PUBLIC "-//W3C//DTD SVG 1.1//EN"
 "http://www.w3.org/Graphics/SVG/1.1/DTD/svg11.dtd">
<!-- Generated by graphviz version 12.2.1 (20241206.2353)
 -->
<!-- Title: controladors.CtrlPartida.ferJugadaMaquina Pages: 1 -->
<!--zoomable 528 -->

<svg id="main" version="1.1" xmlns="http://www.w3.org/2000/svg" xmlns:xlink="http://www.w3.org/1999/xlink" xml:space="preserve" onload="init(evt)">

<style type="text/css"><![CDATA[
.node, .edge {opacity: 0.7;}
.node.selected, .edge.selected {opacity: 1;}
.edge:hover path { stroke: red; }
.edge:hover polygon { stroke: red; fill: red; }
]]></style>

<defs>
  <circle id="rim" cx="0" cy="0" r="7"/>
  <circle id="rim2" cx="0" cy="0" r="3.5"/>
  <g id="zoomPlus">
    <use xlink:href="#rim" fill="#404040"><set attributeName="fill" to="#808080" begin="zoomplus.mouseover" end="zoomplus.mouseout"/></use>
    <path d="M-4,0h8M0,-4v8" fill="none" stroke="white" stroke-width="1.5" pointer-events="none"/>
  </g>
  <g id="zoomMin">
    <use xlink:href="#rim" fill="#404040"><set attributeName="fill" to="#808080" begin="zoomminus.mouseover" end="zoomminus.mouseout"/></use>
    <path d="M-4,0h8" fill="none" stroke="white" stroke-width="1.5" pointer-events="none"/>
  </g>
  <g id="arrowUp" transform="translate(30 24)">
    <use xlink:href="#rim"/>
    <path pointer-events="none" fill="none" stroke="white" stroke-width="1.5" d="M0,-3.0v7 M-2.5,-0.5L0,-3.0L2.5,-0.5"/>
  </g>
  <g id="arrowRight" transform="rotate(90) translate(36 -43)">
    <use xlink:href="#rim"/>
    <path pointer-events="none" fill="none" stroke="white" stroke-width="1.5" d="M0,-3.0v7 M-2.5,-0.5L0,-3.0L2.5,-0.5"/>
  </g>
  <g id="arrowDown" transform="rotate(180) translate(-30 -48)">
    <use xlink:href="#rim"/>
    <path pointer-events="none" fill="none" stroke="white" stroke-width="1.5" d="M0,-3.0v7 M-2.5,-0.5L0,-3.0L2.5,-0.5"/>
  </g>
  <g id="arrowLeft" transform="rotate(270) translate(-36 17)">
    <use xlink:href="#rim"/>
    <path pointer-events="none" fill="none" stroke="white" stroke-width="1.5" d="M0,-3.0v7 M-2.5,-0.5L0,-3.0L2.5,-0.5"/>
  </g>
  <g id="resetDef">
    <use xlink:href="#rim2" fill="#404040"><set attributeName="fill" to="#808080" begin="reset.mouseover" end="reset.mouseout"/></use>
  </g>
</defs>
<script type="application/ecmascript">
var viewWidth = 747;
var viewHeight = 528;
var sectionId = 'dynsection-13';
</script>
<script type="application/ecmascript" xlink:href="svg.min.js"/>
<svg id="graph" class="graph">
<g id="viewport">
<title>controladors.CtrlPartida.ferJugadaMaquina</title>
<!-- Node1 -->
<g id="Node000001" class="node">
<title>Node1</title>
<g id="a_Node000001"><a xlink:title="Gestiona el desenvolupament de la jugada de la màquina.">
<polygon fill="#999999" stroke="#666666" points="133,-215 0,-215 0,-183 133,-183 133,-215"/>
<text text-anchor="start" x="8" y="-201.5" font-family="Helvetica,sans-Serif" font-size="10.00">controladors.CtrlPartida.fer</text>
<text text-anchor="middle" x="66.5" y="-189.5" font-family="Helvetica,sans-Serif" font-size="10.00">JugadaMaquina</text>
</a>
</g>
</g>
<!-- Node2 -->
<g id="Node000002" class="node">
<title>Node2</title>
<g id="a_Node000002"><a xlink:href="classcontroladors_1_1_ctrl_partida.html#a5e6d4a5bbd0538e02909fdd067b9c553" target="_top" xlink:title="Canvia un cert nombre de fitxes de la mà del jugador actual.">
<polygon fill="white" stroke="#666666" points="330.5,-304 177.25,-304 177.25,-272 330.5,-272 330.5,-304"/>
<text text-anchor="start" x="185.25" y="-290.5" font-family="Helvetica,sans-Serif" font-size="10.00">controladors.CtrlPartida.canviar</text>
<text text-anchor="middle" x="253.88" y="-278.5" font-family="Helvetica,sans-Serif" font-size="10.00">Fitxes</text>
</a>
</g>
</g>
<!-- Node1&#45;&gt;Node2 -->
<g id="edge1_Node000001_Node000002" class="edge">
<title>Node1&#45;&gt;Node2</title>
<g id="a_edge1_Node000001_Node000002"><a xlink:title=" ">
<path fill="none" stroke="#63b8ff" d="M100.32,-215.4C120.15,-225.25 145.97,-237.97 169,-249 181.33,-254.9 194.74,-261.2 207.15,-266.96"/>
<polygon fill="#63b8ff" stroke="#63b8ff" points="205.37,-270 215.91,-271.03 208.31,-263.65 205.37,-270"/>
</a>
</g>
</g>
<!-- Node12 -->
<g id="Node000012" class="node">
<title>Node12</title>
<g id="a_Node000012"><a xlink:href="classdomini_1_1jugadors_1_1_jugador.html#acf9520ec234c3f2cc52e1b79b85a008e" target="_top" xlink:title="Retorna la llista amb les fitxes actuals del jugador.">
<polygon fill="white" stroke="#666666" points="323,-240 184.75,-240 184.75,-208 323,-208 323,-240"/>
<text text-anchor="start" x="192.75" y="-226.5" font-family="Helvetica,sans-Serif" font-size="10.00">domini.jugadors.Jugador.get</text>
<text text-anchor="middle" x="253.88" y="-214.5" font-family="Helvetica,sans-Serif" font-size="10.00">Fitxes_actuals</text>
</a>
</g>
</g>
<!-- Node1&#45;&gt;Node12 -->
<g id="edge11_Node000001_Node000012" class="edge">
<title>Node1&#45;&gt;Node12</title>
<g id="a_edge11_Node000001_Node000012"><a xlink:title=" ">
<path fill="none" stroke="#63b8ff" d="M133.38,-207.88C146.31,-209.63 159.99,-211.47 173.31,-213.27"/>
<polygon fill="#63b8ff" stroke="#63b8ff" points="172.51,-216.69 182.89,-214.56 173.45,-209.76 172.51,-216.69"/>
</a>
</g>
</g>
<!-- Node13 -->
<g id="Node000013" class="node">
<title>Node13</title>
<g id="a_Node000013"><a xlink:href="classdomini_1_1jugadors_1_1_jugador.html#afa999de0f50bb1671ac42dbe31388b01" target="_top" xlink:title="Retorna l&#39;identificador del jugador.">
<polygon fill="white" stroke="#666666" points="323,-190 184.75,-190 184.75,-158 323,-158 323,-190"/>
<text text-anchor="start" x="192.75" y="-176.5" font-family="Helvetica,sans-Serif" font-size="10.00">domini.jugadors.Jugador.get</text>
<text text-anchor="middle" x="253.88" y="-164.5" font-family="Helvetica,sans-Serif" font-size="10.00">IdJugador</text>
</a>
</g>
</g>
<!-- Node1&#45;&gt;Node13 -->
<g id="edge12_Node000001_Node000013" class="edge">
<title>Node1&#45;&gt;Node13</title>
<g id="a_edge12_Node000001_Node000013"><a xlink:title=" ">
<path fill="none" stroke="#63b8ff" d="M133.38,-190.12C146.31,-188.37 159.99,-186.53 173.31,-184.73"/>
<polygon fill="#63b8ff" stroke="#63b8ff" points="173.45,-188.24 182.89,-183.44 172.51,-181.31 173.45,-188.24"/>
</a>
</g>
</g>
<!-- Node14 -->
<g id="Node000014" class="node">
<title>Node14</title>
<g id="a_Node000014"><a xlink:href="classcontroladors_1_1_ctrl_partida.html#a2c8fdc3b9f3ee33aae30bd0e0d1f09b7" target="_top" xlink:title="Passa el torn al següent jugador.">
<polygon fill="white" stroke="#666666" points="338.75,-112 169,-112 169,-92 338.75,-92 338.75,-112"/>
<text text-anchor="middle" x="253.88" y="-98.5" font-family="Helvetica,sans-Serif" font-size="10.00">controladors.CtrlPartida.passarTorn</text>
</a>
</g>
</g>
<!-- Node1&#45;&gt;Node14 -->
<g id="edge13_Node000001_Node000014" class="edge">
<title>Node1&#45;&gt;Node14</title>
<g id="a_edge13_Node000001_Node000014"><a xlink:title=" ">
<path fill="none" stroke="#63b8ff" d="M98.95,-182.55C133.68,-164.37 189.17,-135.33 223.18,-117.54"/>
<polygon fill="#63b8ff" stroke="#63b8ff" points="224.42,-120.84 231.66,-113.1 221.18,-114.64 224.42,-120.84"/>
</a>
</g>
</g>
<!-- Node3 -->
<g id="Node000003" class="node">
<title>Node3</title>
<g id="a_Node000003"><a xlink:href="classdomini_1_1jugadors_1_1_jugador.html#a28fa4b7dcf1f5eabdc608591e61509ae" target="_top" xlink:title="El jugador afegeix una fitxa a la seva llista de fitxes.">
<polygon fill="white" stroke="#666666" points="528.38,-520 379.62,-520 379.62,-488 528.38,-488 528.38,-520"/>
<text text-anchor="start" x="387.62" y="-506.5" font-family="Helvetica,sans-Serif" font-size="10.00">domini.jugadors.Jugador.afegir</text>
<text text-anchor="middle" x="454" y="-494.5" font-family="Helvetica,sans-Serif" font-size="10.00">Fitxa</text>
</a>
</g>
</g>
<!-- Node2&#45;&gt;Node3 -->
<g id="edge2_Node000002_Node000003" class="edge">
<title>Node2&#45;&gt;Node3</title>
<g id="a_edge2_Node000002_Node000003"><a xlink:title=" ">
<path fill="none" stroke="#63b8ff" d="M260.59,-304.26C274.33,-340.98 312.73,-430.89 374.75,-479 376.05,-480.01 377.4,-480.98 378.78,-481.91"/>
<polygon fill="#63b8ff" stroke="#63b8ff" points="376.63,-484.71 387.03,-486.75 380.17,-478.67 376.63,-484.71"/>
</a>
</g>
</g>
<!-- Node4 -->
<g id="Node000004" class="node">
<title>Node4</title>
<g id="a_Node000004"><a xlink:href="classdomini_1_1scrabble_1_1_bossa.html#a89707eebb134ecb159a2f7a001b027d0" target="_top" xlink:title="Afegeix una nova fitxa a la bossa.">
<polygon fill="white" stroke="#666666" points="525,-470 383,-470 383,-438 525,-438 525,-470"/>
<text text-anchor="start" x="391" y="-456.5" font-family="Helvetica,sans-Serif" font-size="10.00">domini.scrabble.Bossa.afegir</text>
<text text-anchor="middle" x="454" y="-444.5" font-family="Helvetica,sans-Serif" font-size="10.00">FitxaBossa</text>
</a>
</g>
</g>
<!-- Node2&#45;&gt;Node4 -->
<g id="edge3_Node000002_Node000004" class="edge">
<title>Node2&#45;&gt;Node4</title>
<g id="a_edge3_Node000002_Node000004"><a xlink:title=" ">
<path fill="none" stroke="#63b8ff" d="M264.26,-304.07C282.09,-333.23 323.68,-394.97 374.75,-429 376.57,-430.22 378.46,-431.38 380.4,-432.48"/>
<polygon fill="#63b8ff" stroke="#63b8ff" points="378.58,-435.48 389.08,-436.89 381.75,-429.24 378.58,-435.48"/>
</a>
</g>
</g>
<!-- Node5 -->
<g id="Node000005" class="node">
<title>Node5</title>
<g id="a_Node000005"><a xlink:href="classdomini_1_1scrabble_1_1_bossa.html#afa53a19569d75ae80205a5fa5759f6b5" target="_top" xlink:title="Retira una fitxa aleatòria de la bossa.">
<polygon fill="white" stroke="#666666" points="526.5,-420 381.5,-420 381.5,-388 526.5,-388 526.5,-420"/>
<text text-anchor="start" x="389.5" y="-406.5" font-family="Helvetica,sans-Serif" font-size="10.00">domini.scrabble.Bossa.agafar</text>
<text text-anchor="middle" x="454" y="-394.5" font-family="Helvetica,sans-Serif" font-size="10.00">Fitxa</text>
</a>
</g>
</g>
<!-- Node2&#45;&gt;Node5 -->
<g id="edge4_Node000002_Node000005" class="edge">
<title>Node2&#45;&gt;Node5</title>
<g id="a_edge4_Node000002_Node000005"><a xlink:title=" ">
<path fill="none" stroke="#63b8ff" d="M272.24,-304.27C294.47,-324.32 334.87,-358.28 374.75,-379 377.6,-380.48 380.55,-381.89 383.56,-383.24"/>
<polygon fill="#63b8ff" stroke="#63b8ff" points="382.02,-386.39 392.6,-386.98 384.7,-379.92 382.02,-386.39"/>
</a>
</g>
</g>
<!-- Node6 -->
<g id="Node000006" class="node">
<title>Node6</title>
<g id="a_Node000006"><a xlink:href="classdomini_1_1jugadors_1_1_jugador.html#a958cd1f187802e5dcd496be3d60f5c30" target="_top" xlink:title="El jugador elimina una fitxa de la seva llista de fitxes.">
<polygon fill="white" stroke="#666666" points="533.25,-370 374.75,-370 374.75,-338 533.25,-338 533.25,-370"/>
<text text-anchor="start" x="382.75" y="-356.5" font-family="Helvetica,sans-Serif" font-size="10.00">domini.jugadors.Jugador.eliminar</text>
<text text-anchor="middle" x="454" y="-344.5" font-family="Helvetica,sans-Serif" font-size="10.00">Fitxa</text>
</a>
</g>
</g>
<!-- Node2&#45;&gt;Node6 -->
<g id="edge5_Node000002_Node000006" class="edge">
<title>Node2&#45;&gt;Node6</title>
<g id="a_edge5_Node000002_Node000006"><a xlink:title=" ">
<path fill="none" stroke="#63b8ff" d="M302.34,-304.48C324.34,-312.06 350.84,-321.09 374.75,-329 379.81,-330.68 385.07,-332.39 390.35,-334.11"/>
<polygon fill="#63b8ff" stroke="#63b8ff" points="389.15,-337.4 399.74,-337.14 391.3,-330.74 389.15,-337.4"/>
</a>
</g>
</g>
<!-- Node7 -->
<g id="Node000007" class="node">
<title>Node7</title>
<g id="a_Node000007"><a xlink:href="classdomini_1_1scrabble_1_1_fitxa.html#ac71d738d062e9b3bff05145c171240c3" target="_top" xlink:title="Retorna el identificador de la fitxa.">
<polygon fill="white" stroke="#666666" points="520.88,-320 387.12,-320 387.12,-300 520.88,-300 520.88,-320"/>
<text text-anchor="middle" x="454" y="-306.5" font-family="Helvetica,sans-Serif" font-size="10.00">domini.scrabble.Fitxa.getId</text>
</a>
</g>
</g>
<!-- Node2&#45;&gt;Node7 -->
<g id="edge6_Node000002_Node000007" class="edge">
<title>Node2&#45;&gt;Node7</title>
<g id="a_edge6_Node000002_Node000007"><a xlink:title=" ">
<path fill="none" stroke="#63b8ff" d="M330.91,-296.44C345.6,-298.07 361.02,-299.79 375.75,-301.42"/>
<polygon fill="#63b8ff" stroke="#63b8ff" points="375.03,-304.86 385.36,-302.49 375.81,-297.91 375.03,-304.86"/>
</a>
</g>
</g>
<!-- Node8 -->
<g id="Node000008" class="node">
<title>Node8</title>
<g id="a_Node000008"><a xlink:href="classdomini_1_1scrabble_1_1_fitxa.html#a3ee9b39d600851a00c4ce541339ba90e" target="_top" xlink:title="Retorna la lletra associada a la fitxa.">
<polygon fill="white" stroke="#666666" points="516.75,-282 391.25,-282 391.25,-250 516.75,-250 516.75,-282"/>
<text text-anchor="start" x="399.25" y="-268.5" font-family="Helvetica,sans-Serif" font-size="10.00">domini.scrabble.Fitxa.get</text>
<text text-anchor="middle" x="454" y="-256.5" font-family="Helvetica,sans-Serif" font-size="10.00">Lletra</text>
</a>
</g>
</g>
<!-- Node2&#45;&gt;Node8 -->
<g id="edge7_Node000002_Node000008" class="edge">
<title>Node2&#45;&gt;Node8</title>
<g id="a_edge7_Node000002_Node000008"><a xlink:title=" ">
<path fill="none" stroke="#63b8ff" d="M330.91,-279.56C346.89,-277.78 363.72,-275.91 379.6,-274.15"/>
<polygon fill="#63b8ff" stroke="#63b8ff" points="379.92,-277.64 389.47,-273.05 379.14,-270.68 379.92,-277.64"/>
</a>
</g>
</g>
<!-- Node9 -->
<g id="Node000009" class="node">
<title>Node9</title>
<g id="a_Node000009"><a xlink:href="classdomini_1_1scrabble_1_1_bossa.html#a58c8a4207e37d1b10159b73ed131c2c2" target="_top" xlink:title="Obté el nombre total de fitxes disponibles a la bossa.">
<polygon fill="white" stroke="#666666" points="519.75,-232 388.25,-232 388.25,-200 519.75,-200 519.75,-232"/>
<text text-anchor="start" x="396.25" y="-218.5" font-family="Helvetica,sans-Serif" font-size="10.00">domini.scrabble.Bossa.get</text>
<text text-anchor="middle" x="454" y="-206.5" font-family="Helvetica,sans-Serif" font-size="10.00">MidaBossa</text>
</a>
</g>
</g>
<!-- Node2&#45;&gt;Node9 -->
<g id="edge8_Node000002_Node000009" class="edge">
<title>Node2&#45;&gt;Node9</title>
<g id="a_edge8_Node000002_Node000009"><a xlink:title=" ">
<path fill="none" stroke="#63b8ff" d="M294.86,-271.58C318.05,-262.24 347.89,-250.54 374.75,-241 379.41,-239.34 384.25,-237.68 389.12,-236.03"/>
<polygon fill="#63b8ff" stroke="#63b8ff" points="389.99,-239.43 398.37,-232.96 387.78,-232.79 389.99,-239.43"/>
</a>
</g>
</g>
<!-- Node10 -->
<g id="Node000010" class="node">
<title>Node10</title>
<g id="a_Node000010"><a xlink:href="classdomini_1_1scrabble_1_1_fitxa.html#af8169852ecf1df6524e8b13a2fd171ec" target="_top" xlink:title="Retorna la puntuació associada a la fitxa.">
<polygon fill="white" stroke="#666666" points="516.75,-182 391.25,-182 391.25,-150 516.75,-150 516.75,-182"/>
<text text-anchor="start" x="399.25" y="-168.5" font-family="Helvetica,sans-Serif" font-size="10.00">domini.scrabble.Fitxa.get</text>
<text text-anchor="middle" x="454" y="-156.5" font-family="Helvetica,sans-Serif" font-size="10.00">Puntuacio</text>
</a>
</g>
</g>
<!-- Node2&#45;&gt;Node10 -->
<g id="edge9_Node000002_Node000010" class="edge">
<title>Node2&#45;&gt;Node10</title>
<g id="a_edge9_Node000002_Node000010"><a xlink:title=" ">
<path fill="none" stroke="#63b8ff" d="M302.6,-271.57C315.26,-265.74 328.3,-258.27 338.75,-249 361.45,-228.87 350.82,-209.66 374.75,-191 376.76,-189.43 378.87,-187.96 381.06,-186.58"/>
<polygon fill="#63b8ff" stroke="#63b8ff" points="382.65,-189.7 389.74,-181.83 379.29,-183.56 382.65,-189.7"/>
</a>
</g>
</g>
<!-- Node11 -->
<g id="Node000011" class="node">
<title>Node11</title>
<g id="a_Node000011"><a xlink:href="classdomini_1_1jugadors_1_1_jugador.html#a65f71c37c6890c64cc63ebf0a4d7e185" target="_top" xlink:title="Reinicia el comptador de torns passats consecutius.">
<polygon fill="white" stroke="#666666" points="533.25,-132 374.75,-132 374.75,-100 533.25,-100 533.25,-132"/>
<text text-anchor="start" x="382.75" y="-118.5" font-family="Helvetica,sans-Serif" font-size="10.00">domini.jugadors.Jugador.reiniciar</text>
<text text-anchor="middle" x="454" y="-106.5" font-family="Helvetica,sans-Serif" font-size="10.00">TornsPassatsConsecutius</text>
</a>
</g>
</g>
<!-- Node2&#45;&gt;Node11 -->
<g id="edge10_Node000002_Node000011" class="edge">
<title>Node2&#45;&gt;Node11</title>
<g id="a_edge10_Node000002_Node000011"><a xlink:title=" ">
<path fill="none" stroke="#63b8ff" d="M307.17,-271.64C318.8,-265.99 330.2,-258.58 338.75,-249 372.44,-211.25 338.75,-176.55 374.75,-141 375.48,-140.28 376.24,-139.57 377.01,-138.89"/>
<polygon fill="#63b8ff" stroke="#63b8ff" points="378.73,-141.97 384.72,-133.23 374.59,-136.33 378.73,-141.97"/>
</a>
</g>
</g>
<!-- Node15 -->
<g id="Node000015" class="node">
<title>Node15</title>
<g id="a_Node000015"><a xlink:href="classcontroladors_1_1_ctrl_partida.html#a98e85139630d752ac3e94d8a540aba0c" target="_top" xlink:title="Finalitza la partida si s&#39;han passat torns consecutius sense acció.">
<polygon fill="white" stroke="#666666" points="533.25,-82 374.75,-82 374.75,-50 533.25,-50 533.25,-82"/>
<text text-anchor="start" x="382.75" y="-68.5" font-family="Helvetica,sans-Serif" font-size="10.00">controladors.CtrlPartida.finalitzar</text>
<text text-anchor="middle" x="454" y="-56.5" font-family="Helvetica,sans-Serif" font-size="10.00">PerTornsConsecutius</text>
</a>
</g>
</g>
<!-- Node14&#45;&gt;Node15 -->
<g id="edge14_Node000014_Node000015" class="edge">
<title>Node14&#45;&gt;Node15</title>
<g id="a_edge14_Node000014_Node000015"><a xlink:title=" ">
<path fill="none" stroke="#63b8ff" d="M312.45,-91.54C328.29,-88.66 345.85,-85.47 363.05,-82.34"/>
<polygon fill="#63b8ff" stroke="#63b8ff" points="363.57,-85.81 372.79,-80.58 362.32,-78.92 363.57,-85.81"/>
</a>
</g>
</g>
<!-- Node16 -->
<g id="Node000016" class="node">
<title>Node16</title>
<g id="a_Node000016"><a xlink:href="classdomini_1_1jugadors_1_1_avatar.html#a44e5e6a2ee9245697351fe390849b810" target="_top" xlink:title="Incrementa el nombre total de partides guanyades.">
<polygon fill="white" stroke="#666666" points="739,-132 569.25,-132 569.25,-100 739,-100 739,-132"/>
<text text-anchor="start" x="577.25" y="-118.5" font-family="Helvetica,sans-Serif" font-size="10.00">domini.jugadors.Avatar.incrementar</text>
<text text-anchor="middle" x="654.12" y="-106.5" font-family="Helvetica,sans-Serif" font-size="10.00">PartidesGuanyades</text>
</a>
</g>
</g>
<!-- Node15&#45;&gt;Node16 -->
<g id="edge15_Node000015_Node000016" class="edge">
<title>Node15&#45;&gt;Node16</title>
<g id="a_edge15_Node000015_Node000016"><a xlink:title=" ">
<path fill="none" stroke="#63b8ff" d="M520.15,-82.44C538.26,-87.01 558.09,-92.02 576.78,-96.73"/>
<polygon fill="#63b8ff" stroke="#63b8ff" points="575.92,-100.13 586.47,-99.18 577.63,-93.34 575.92,-100.13"/>
</a>
</g>
</g>
<!-- Node17 -->
<g id="Node000017" class="node">
<title>Node17</title>
<g id="a_Node000017"><a xlink:href="classdomini_1_1jugadors_1_1_avatar.html#a750332bc2deadb604d43d1a0936a09d2" target="_top" xlink:title="Incrementa el nombre de partides guanyades contra altres jugadors.">
<polygon fill="white" stroke="#666666" points="739,-82 569.25,-82 569.25,-50 739,-50 739,-82"/>
<text text-anchor="start" x="577.25" y="-68.5" font-family="Helvetica,sans-Serif" font-size="10.00">domini.jugadors.Avatar.incrementar</text>
<text text-anchor="middle" x="654.12" y="-56.5" font-family="Helvetica,sans-Serif" font-size="10.00">PartidesGuanyadesJugador</text>
</a>
</g>
</g>
<!-- Node15&#45;&gt;Node17 -->
<g id="edge16_Node000015_Node000017" class="edge">
<title>Node15&#45;&gt;Node17</title>
<g id="a_edge16_Node000015_Node000017"><a xlink:title=" ">
<path fill="none" stroke="#63b8ff" d="M533.59,-66C541.45,-66 549.48,-66 557.49,-66"/>
<polygon fill="#63b8ff" stroke="#63b8ff" points="557.25,-69.5 567.25,-66 557.25,-62.5 557.25,-69.5"/>
</a>
</g>
</g>
<!-- Node18 -->
<g id="Node000018" class="node">
<title>Node18</title>
<g id="a_Node000018"><a xlink:href="classdomini_1_1jugadors_1_1_avatar.html#aae510bc2635d40405e60a218b1b7c097" target="_top" xlink:title="Incrementa el nombre de partides guanyades contra la màquina.">
<polygon fill="white" stroke="#666666" points="739,-32 569.25,-32 569.25,0 739,0 739,-32"/>
<text text-anchor="start" x="577.25" y="-18.5" font-family="Helvetica,sans-Serif" font-size="10.00">domini.jugadors.Avatar.incrementar</text>
<text text-anchor="middle" x="654.12" y="-6.5" font-family="Helvetica,sans-Serif" font-size="10.00">PartidesGuanyadesMaquina</text>
</a>
</g>
</g>
<!-- Node15&#45;&gt;Node18 -->
<g id="edge17_Node000015_Node000018" class="edge">
<title>Node15&#45;&gt;Node18</title>
<g id="a_edge17_Node000015_Node000018"><a xlink:title=" ">
<path fill="none" stroke="#63b8ff" d="M520.15,-49.56C538.26,-44.99 558.09,-39.98 576.78,-35.27"/>
<polygon fill="#63b8ff" stroke="#63b8ff" points="577.63,-38.66 586.47,-32.82 575.92,-31.87 577.63,-38.66"/>
</a>
</g>
</g>
</g>
</svg>

<g id="navigator" transform="translate(0 0)" fill="#404254">
  <rect fill="#f2f5e9" fill-opacity="0.5" stroke="#606060" stroke-width=".5" x="0" y="0" width="60" height="60"/>
  <use id="zoomplus" xlink:href="#zoomPlus" x="17" y="9" onmousedown="handleZoom(evt,'in')"/>
  <use id="zoomminus" xlink:href="#zoomMin" x="42" y="9" onmousedown="handleZoom(evt,'out')"/>
  <use id="reset" xlink:href="#resetDef" x="30" y="36" onmousedown="handleReset()"/>
   <use id="arrowup" xlink:href="#arrowUp" x="0" y="0" onmousedown="handlePan(0,-1)"/>
  <use id="arrowright" xlink:href="#arrowRight" x="0" y="0" onmousedown="handlePan(1,0)"/>
  <use id="arrowdown" xlink:href="#arrowDown" x="0" y="0" onmousedown="handlePan(0,1)"/>
  <use id="arrowleft" xlink:href="#arrowLeft" x="0" y="0" onmousedown="handlePan(-1,0)"/>
</g>
<svg viewBox="0 0 15 15" width="100%" height="30px" preserveAspectRatio="xMaxYMin meet">
 <g id="arrow_out" transform="scale(0.3 0.3)">
  <a xlink:href="classcontroladors_1_1_ctrl_partida_afa4340f6a2cb198455d536ccaf87717b_cgraph_org.svg" target="_base">
   <rect id="button" ry="5" rx="5" y="6" x="6" height="38" width="38"
        fill="#f2f5e9" fill-opacity="0.5" stroke="#606060" stroke-width="1.0"/>
   <path id="arrow"
     d="M 11.500037,31.436501 C 11.940474,20.09759 22.043105,11.32322 32.158766,21.979434 L 37.068811,17.246167 C 37.068811,17.246167 37.088388,32 37.088388,32 L 22.160133,31.978069 C 22.160133,31.978069 26.997745,27.140456 26.997745,27.140456 C 18.528582,18.264221 13.291696,25.230495 11.500037,31.436501 z"
     style="fill:#404040;"/>
  </a>
 </g>
</svg>

<style type='text/css'>
<![CDATA[
[data-mouse-over-selected='false'] { opacity: 0.7; }
[data-mouse-over-selected='true']  { opacity: 1.0; }
]]>
</style>
<script type="application/ecmascript"><![CDATA[
document.addEventListener('DOMContentLoaded', (event) => {
  highlightEdges();
  highlightAdjacentNodes();
});
]]></script>
</svg>
