<?xml version="1.0" encoding="UTF-8" standalone="no"?>
<!DOCTYPE svg PUBLIC "-//W3C//DTD SVG 1.1//EN"
 "http://www.w3.org/Graphics/SVG/1.1/DTD/svg11.dtd">
<!-- Generated by graphviz version 12.2.1 (20241206.2353)
 -->
<!-- Title: drivers.Driver.clearScreen Pages: 1 -->
<!--zoomable 414 -->

<svg id="main" version="1.1" xmlns="http://www.w3.org/2000/svg" xmlns:xlink="http://www.w3.org/1999/xlink" xml:space="preserve" onload="init(evt)">

<style type="text/css"><![CDATA[
.node, .edge {opacity: 0.7;}
.node.selected, .edge.selected {opacity: 1;}
.edge:hover path { stroke: red; }
.edge:hover polygon { stroke: red; fill: red; }
]]></style>

<defs>
  <circle id="rim" cx="0" cy="0" r="7"/>
  <circle id="rim2" cx="0" cy="0" r="3.5"/>
  <g id="zoomPlus">
    <use xlink:href="#rim" fill="#404040"><set attributeName="fill" to="#808080" begin="zoomplus.mouseover" end="zoomplus.mouseout"/></use>
    <path d="M-4,0h8M0,-4v8" fill="none" stroke="white" stroke-width="1.5" pointer-events="none"/>
  </g>
  <g id="zoomMin">
    <use xlink:href="#rim" fill="#404040"><set attributeName="fill" to="#808080" begin="zoomminus.mouseover" end="zoomminus.mouseout"/></use>
    <path d="M-4,0h8" fill="none" stroke="white" stroke-width="1.5" pointer-events="none"/>
  </g>
  <g id="arrowUp" transform="translate(30 24)">
    <use xlink:href="#rim"/>
    <path pointer-events="none" fill="none" stroke="white" stroke-width="1.5" d="M0,-3.0v7 M-2.5,-0.5L0,-3.0L2.5,-0.5"/>
  </g>
  <g id="arrowRight" transform="rotate(90) translate(36 -43)">
    <use xlink:href="#rim"/>
    <path pointer-events="none" fill="none" stroke="white" stroke-width="1.5" d="M0,-3.0v7 M-2.5,-0.5L0,-3.0L2.5,-0.5"/>
  </g>
  <g id="arrowDown" transform="rotate(180) translate(-30 -48)">
    <use xlink:href="#rim"/>
    <path pointer-events="none" fill="none" stroke="white" stroke-width="1.5" d="M0,-3.0v7 M-2.5,-0.5L0,-3.0L2.5,-0.5"/>
  </g>
  <g id="arrowLeft" transform="rotate(270) translate(-36 17)">
    <use xlink:href="#rim"/>
    <path pointer-events="none" fill="none" stroke="white" stroke-width="1.5" d="M0,-3.0v7 M-2.5,-0.5L0,-3.0L2.5,-0.5"/>
  </g>
  <g id="resetDef">
    <use xlink:href="#rim2" fill="#404040"><set attributeName="fill" to="#808080" begin="reset.mouseover" end="reset.mouseout"/></use>
  </g>
</defs>
<script type="application/ecmascript">
var viewWidth = 1012;
var viewHeight = 414;
var sectionId = 'dynsection-5';
</script>
<script type="application/ecmascript" xlink:href="svg.min.js"/>
<svg id="graph" class="graph">
<g id="viewport">
<title>drivers.Driver.clearScreen</title>
<!-- Node1 -->
<g id="Node000001" class="node">
<title>Node1</title>
<g id="a_Node000001"><a xlink:title="Neteja la pantalla del terminal.">
<polygon fill="#999999" stroke="#666666" points="1004.25,-226.27 875,-226.27 875,-206.27 1004.25,-206.27 1004.25,-226.27"/>
<text text-anchor="middle" x="939.62" y="-212.77" font-family="Helvetica,sans-Serif" font-size="10.00">drivers.Driver.clearScreen</text>
</a>
</g>
</g>
<!-- Node2 -->
<g id="Node000002" class="node">
<title>Node2</title>
<g id="a_Node000002"><a xlink:href="classdrivers_1_1_driver.html#ac619a13f9534e9347b26fae373236cfd" target="_top" xlink:title="Abandona la partida actual.">
<polygon fill="white" stroke="#666666" points="831.12,-232.27 708.62,-232.27 708.62,-200.27 831.12,-200.27 831.12,-232.27"/>
<text text-anchor="start" x="716.62" y="-218.77" font-family="Helvetica,sans-Serif" font-size="10.00">drivers.Driver.abandonar</text>
<text text-anchor="middle" x="769.88" y="-206.77" font-family="Helvetica,sans-Serif" font-size="10.00">Partida</text>
</a>
</g>
</g>
<!-- Node1&#45;&gt;Node2 -->
<g id="edge1_Node000001_Node000002" class="edge">
<title>Node1&#45;&gt;Node2</title>
<g id="a_edge1_Node000001_Node000002"><a xlink:title=" ">
<path fill="none" stroke="#63b8ff" d="M863.3,-216.27C852.67,-216.27 841.86,-216.27 831.55,-216.27"/>
<polygon fill="#63b8ff" stroke="#63b8ff" points="863.21,-219.77 873.21,-216.27 863.21,-212.77 863.21,-219.77"/>
</a>
</g>
</g>
<!-- Node3 -->
<g id="Node000003" class="node">
<title>Node3</title>
<g id="a_Node000003"><a xlink:href="classdrivers_1_1_driver.html#a13e38153634507d9ad6e24cb267237b9" target="_top" xlink:title="Juga una partida.">
<polygon fill="white" stroke="#666666" points="284,-295.27 154.75,-295.27 154.75,-275.27 284,-275.27 284,-295.27"/>
<text text-anchor="middle" x="219.38" y="-281.77" font-family="Helvetica,sans-Serif" font-size="10.00">drivers.Driver.jugarPartida</text>
</a>
</g>
</g>
<!-- Node1&#45;&gt;Node3 -->
<g id="edge11_Node000001_Node000003" class="edge">
<title>Node1&#45;&gt;Node3</title>
<g id="a_edge11_Node000001_Node000003"><a xlink:title=" ">
<path fill="none" stroke="#63b8ff" d="M931.28,-237.24C918.37,-270.65 888.21,-335.24 839,-365.27 772.46,-405.87 742.58,-380.82 664.75,-385.27 520.75,-393.51 475.81,-429.56 340.25,-380.27 291.34,-362.48 247.05,-316.24 228.98,-295.55"/>
<polygon fill="#63b8ff" stroke="#63b8ff" points="934.55,-238.48 934.73,-227.88 927.99,-236.05 934.55,-238.48"/>
</a>
</g>
</g>
<!-- Node4 -->
<g id="Node000004" class="node">
<title>Node4</title>
<g id="a_Node000004"><a xlink:href="classdrivers_1_1_driver.html#a3f94ce3595725e82b34c92548e071d04" target="_top" xlink:title="Inici del driver.">
<polygon fill="white" stroke="#666666" points="98.5,-131.27 0,-131.27 0,-111.27 98.5,-111.27 98.5,-131.27"/>
<text text-anchor="middle" x="49.25" y="-117.77" font-family="Helvetica,sans-Serif" font-size="10.00">drivers.Driver.main</text>
</a>
</g>
</g>
<!-- Node1&#45;&gt;Node4 -->
<g id="edge12_Node000001_Node000004" class="edge">
<title>Node1&#45;&gt;Node4</title>
<g id="a_edge12_Node000001_Node000004"><a xlink:title=" ">
<path fill="none" stroke="#63b8ff" d="M889.88,-203C823.61,-186.16 701.15,-159.27 594.75,-159.27 594.75,-159.27 594.75,-159.27 412.5,-159.27 288.66,-159.27 257.04,-158.17 134.5,-140.27 120.11,-138.17 104.53,-134.93 90.72,-131.72"/>
<polygon fill="#63b8ff" stroke="#63b8ff" points="888.78,-206.33 899.33,-205.44 890.52,-199.55 888.78,-206.33"/>
</a>
</g>
</g>
<!-- Node7 -->
<g id="Node000007" class="node">
<title>Node7</title>
<g id="a_Node000007"><a xlink:href="classdrivers_1_1_driver.html#a511e05515632a6b31d522a3faa1998a8" target="_top" xlink:title="Canvia fitxes del jugador actual.">
<polygon fill="white" stroke="#666666" points="481.5,-371.27 345.5,-371.27 345.5,-351.27 481.5,-351.27 481.5,-371.27"/>
<text text-anchor="middle" x="413.5" y="-357.77" font-family="Helvetica,sans-Serif" font-size="10.00">drivers.Driver.canviarFitxes</text>
</a>
</g>
</g>
<!-- Node1&#45;&gt;Node7 -->
<g id="edge7_Node000001_Node000007" class="edge">
<title>Node1&#45;&gt;Node7</title>
<g id="a_edge7_Node000001_Node000007"><a xlink:title=" ">
<path fill="none" stroke="#63b8ff" d="M927.88,-236.54C912.31,-263.57 880.74,-310.4 839,-331.27 724.02,-388.77 569.23,-381.96 481.87,-371.7"/>
<polygon fill="#63b8ff" stroke="#63b8ff" points="930.85,-238.39 932.65,-227.95 924.73,-234.99 930.85,-238.39"/>
</a>
</g>
</g>
<!-- Node8 -->
<g id="Node000008" class="node">
<title>Node8</title>
<g id="a_Node000008"><a xlink:href="classdrivers_1_1_driver.html#a2e8cde796339c2db37f3e7332bf695ea" target="_top" xlink:title="Col·loca una paraula al taulell.">
<polygon fill="white" stroke="#666666" points="664.75,-333.27 522.75,-333.27 522.75,-313.27 664.75,-313.27 664.75,-333.27"/>
<text text-anchor="middle" x="593.75" y="-319.77" font-family="Helvetica,sans-Serif" font-size="10.00">drivers.Driver.colocarParaula</text>
</a>
</g>
</g>
<!-- Node1&#45;&gt;Node8 -->
<g id="edge9_Node000001_Node000008" class="edge">
<title>Node1&#45;&gt;Node8</title>
<g id="a_edge9_Node000001_Node000008"><a xlink:title=" ">
<path fill="none" stroke="#63b8ff" d="M923.86,-235.19C906.21,-256.23 874.57,-289.21 839,-304.27 783.87,-327.61 715.53,-331.03 665.17,-329.38"/>
<polygon fill="#63b8ff" stroke="#63b8ff" points="926.4,-237.62 929.99,-227.65 920.97,-233.2 926.4,-237.62"/>
</a>
</g>
</g>
<!-- Node9 -->
<g id="Node000009" class="node">
<title>Node9</title>
<g id="a_Node000009"><a xlink:href="classdrivers_1_1_driver.html#a0411868fb5e262af5563f7926ab25d48" target="_top" xlink:title="Mostra les estadístiques d&#39;un jugador.">
<polygon fill="white" stroke="#666666" points="304.25,-131.27 134.5,-131.27 134.5,-111.27 304.25,-111.27 304.25,-131.27"/>
<text text-anchor="middle" x="219.38" y="-117.77" font-family="Helvetica,sans-Serif" font-size="10.00">drivers.Driver.mostrarEstadistiques</text>
</a>
</g>
</g>
<!-- Node1&#45;&gt;Node9 -->
<g id="edge13_Node000001_Node000009" class="edge">
<title>Node1&#45;&gt;Node9</title>
<g id="a_edge13_Node000001_Node000009"><a xlink:title=" ">
<path fill="none" stroke="#63b8ff" d="M920.31,-198.11C901.64,-180.92 870.96,-156.18 839,-145.27 742.69,-112.39 450.34,-115.02 304.7,-118.62"/>
<polygon fill="#63b8ff" stroke="#63b8ff" points="917.71,-200.46 927.37,-204.8 922.52,-195.38 917.71,-200.46"/>
</a>
</g>
</g>
<!-- Node10 -->
<g id="Node000010" class="node">
<title>Node10</title>
<g id="a_Node000010"><a xlink:href="classdrivers_1_1_driver.html#a3c6e5962c87e73aa09ce30acdbc18a20" target="_top" xlink:title="Mostrar les opcions disponibles al menú principal.">
<polygon fill="white" stroke="#666666" points="486.75,-93.27 340.25,-93.27 340.25,-73.27 486.75,-73.27 486.75,-93.27"/>
<text text-anchor="middle" x="413.5" y="-79.77" font-family="Helvetica,sans-Serif" font-size="10.00">drivers.Driver.mostrarOpcions</text>
</a>
</g>
</g>
<!-- Node1&#45;&gt;Node10 -->
<g id="edge15_Node000001_Node000010" class="edge">
<title>Node1&#45;&gt;Node10</title>
<g id="a_edge15_Node000001_Node000010"><a xlink:title=" ">
<path fill="none" stroke="#63b8ff" d="M927.19,-196.22C911.2,-170.38 879.53,-126.52 839,-107.27 720.65,-51.06 562.34,-61.26 476.38,-72.8"/>
<polygon fill="#63b8ff" stroke="#63b8ff" points="924.15,-197.97 932.28,-204.76 930.17,-194.38 924.15,-197.97"/>
</a>
</g>
</g>
<!-- Node11 -->
<g id="Node000011" class="node">
<title>Node11</title>
<g id="a_Node000011"><a xlink:href="classdrivers_1_1_driver.html#a7476cfc83bad8b4d1ba7204c750db2c2" target="_top" xlink:title="Mostra el rànquing global de jugadors.">
<polygon fill="white" stroke="#666666" points="295.25,-55.27 143.5,-55.27 143.5,-35.27 295.25,-35.27 295.25,-55.27"/>
<text text-anchor="middle" x="219.38" y="-41.77" font-family="Helvetica,sans-Serif" font-size="10.00">drivers.Driver.mostrarRankings</text>
</a>
</g>
</g>
<!-- Node1&#45;&gt;Node11 -->
<g id="edge17_Node000001_Node000011" class="edge">
<title>Node1&#45;&gt;Node11</title>
<g id="a_edge17_Node000001_Node000011"><a xlink:title=" ">
<path fill="none" stroke="#63b8ff" d="M931.73,-195.18C919.33,-161.09 889.7,-94.78 839,-66.27 646.29,42.12 363.74,-10.15 260.25,-34.85"/>
<polygon fill="#63b8ff" stroke="#63b8ff" points="928.33,-196.06 934.91,-204.36 934.94,-193.76 928.33,-196.06"/>
</a>
</g>
</g>
<!-- Node12 -->
<g id="Node000012" class="node">
<title>Node12</title>
<g id="a_Node000012"><a xlink:href="classdrivers_1_1_driver.html#a735bc9f4183f4abd4c702da4c62b0ce8" target="_top" xlink:title="Mostra la pantalla de canvi de torn donant temps per a que el jugador es retiri i no vegi la pantalla...">
<polygon fill="white" stroke="#666666" points="839,-295.27 700.75,-295.27 700.75,-263.27 839,-263.27 839,-295.27"/>
<text text-anchor="start" x="708.75" y="-281.77" font-family="Helvetica,sans-Serif" font-size="10.00">drivers.Driver.PantallaCanvi</text>
<text text-anchor="middle" x="769.88" y="-269.77" font-family="Helvetica,sans-Serif" font-size="10.00">DeTorn</text>
</a>
</g>
</g>
<!-- Node1&#45;&gt;Node12 -->
<g id="edge19_Node000001_Node000012" class="edge">
<title>Node1&#45;&gt;Node12</title>
<g id="a_edge19_Node000001_Node000012"><a xlink:title=" ">
<path fill="none" stroke="#63b8ff" d="M900.19,-230.7C874.71,-240.27 841.22,-252.85 814.71,-262.81"/>
<polygon fill="#63b8ff" stroke="#63b8ff" points="901.38,-234 909.51,-227.2 898.92,-227.44 901.38,-234"/>
</a>
</g>
</g>
<!-- Node2&#45;&gt;Node3 -->
<g id="edge2_Node000002_Node000003" class="edge">
<title>Node2&#45;&gt;Node3</title>
<g id="a_edge2_Node000002_Node000003"><a xlink:title=" ">
<path fill="none" stroke="#63b8ff" d="M696.95,-225.32C589.18,-238.87 387.48,-264.25 284.48,-277.2"/>
<polygon fill="#63b8ff" stroke="#63b8ff" points="697.36,-228.79 706.84,-224.07 696.48,-221.85 697.36,-228.79"/>
</a>
</g>
</g>
<!-- Node5 -->
<g id="Node000005" class="node">
<title>Node5</title>
<g id="a_Node000005"><a xlink:href="classdrivers_1_1_driver.html#a65d5cdb033b4f42c0a2adf1fabb7b6ff" target="_top" xlink:title="Mostra el menú de pausa.">
<polygon fill="white" stroke="#666666" points="661,-219.27 526.5,-219.27 526.5,-187.27 661,-187.27 661,-219.27"/>
<text text-anchor="start" x="534.5" y="-205.77" font-family="Helvetica,sans-Serif" font-size="10.00">drivers.Driver.mostrarMenu</text>
<text text-anchor="middle" x="593.75" y="-193.77" font-family="Helvetica,sans-Serif" font-size="10.00">Pausa</text>
</a>
</g>
</g>
<!-- Node2&#45;&gt;Node5 -->
<g id="edge4_Node000002_Node000005" class="edge">
<title>Node2&#45;&gt;Node5</title>
<g id="a_edge4_Node000002_Node000005"><a xlink:title=" ">
<path fill="none" stroke="#63b8ff" d="M697.22,-210.92C685.33,-210.03 673.05,-209.11 661.3,-208.24"/>
<polygon fill="#63b8ff" stroke="#63b8ff" points="696.72,-214.39 706.95,-211.65 697.24,-207.41 696.72,-214.39"/>
</a>
</g>
</g>
<!-- Node3&#45;&gt;Node4 -->
<g id="edge3_Node000003_Node000004" class="edge">
<title>Node3&#45;&gt;Node4</title>
<g id="a_edge3_Node000003_Node000004"><a xlink:title=" ">
<path fill="none" stroke="#63b8ff" d="M199.8,-267.15C164.46,-232.68 88.59,-158.67 60.76,-131.52"/>
<polygon fill="#63b8ff" stroke="#63b8ff" points="197.17,-269.48 206.77,-273.95 202.06,-264.46 197.17,-269.48"/>
</a>
</g>
</g>
<!-- Node6 -->
<g id="Node000006" class="node">
<title>Node6</title>
<g id="a_Node000006"><a xlink:href="classdrivers_1_1_driver.html#a5bdeffe74ac8e28325692a231275787b" target="_top" xlink:title="Pausa la partida actual.">
<polygon fill="white" stroke="#666666" points="482.25,-216.27 344.75,-216.27 344.75,-196.27 482.25,-196.27 482.25,-216.27"/>
<text text-anchor="middle" x="413.5" y="-202.77" font-family="Helvetica,sans-Serif" font-size="10.00">drivers.Driver.pausarPartida</text>
</a>
</g>
</g>
<!-- Node5&#45;&gt;Node6 -->
<g id="edge5_Node000005_Node000006" class="edge">
<title>Node5&#45;&gt;Node6</title>
<g id="a_edge5_Node000005_Node000006"><a xlink:title=" ">
<path fill="none" stroke="#63b8ff" d="M514.63,-204.58C503.94,-204.76 493.03,-204.95 482.53,-205.12"/>
<polygon fill="#63b8ff" stroke="#63b8ff" points="514.67,-208.08 524.61,-204.42 514.55,-201.08 514.67,-208.08"/>
</a>
</g>
</g>
<!-- Node6&#45;&gt;Node3 -->
<g id="edge6_Node000006_Node000003" class="edge">
<title>Node6&#45;&gt;Node3</title>
<g id="a_edge6_Node000006_Node000003"><a xlink:title=" ">
<path fill="none" stroke="#63b8ff" d="M372.84,-220.67C362.21,-224.64 350.76,-229.03 340.25,-233.27 306.17,-247.02 267.22,-264.19 243.21,-274.95"/>
<polygon fill="#63b8ff" stroke="#63b8ff" points="373.96,-223.99 382.12,-217.23 371.53,-217.42 373.96,-223.99"/>
</a>
</g>
</g>
<!-- Node7&#45;&gt;Node3 -->
<g id="edge8_Node000007_Node000003" class="edge">
<title>Node7&#45;&gt;Node3</title>
<g id="a_edge8_Node000007_Node000003"><a xlink:title=" ">
<path fill="none" stroke="#63b8ff" d="M368.46,-347.33C359.09,-344.17 349.3,-340.73 340.25,-337.27 305.71,-324.07 266.56,-306.6 242.67,-295.64"/>
<polygon fill="#63b8ff" stroke="#63b8ff" points="367.16,-350.59 377.75,-350.41 369.36,-343.94 367.16,-350.59"/>
</a>
</g>
</g>
<!-- Node8&#45;&gt;Node3 -->
<g id="edge10_Node000008_Node000003" class="edge">
<title>Node8&#45;&gt;Node3</title>
<g id="a_edge10_Node000008_Node000003"><a xlink:title=" ">
<path fill="none" stroke="#63b8ff" d="M511.22,-315.97C461.74,-311.42 397.33,-305.31 340.25,-299.27 322.12,-297.35 302.47,-295.12 284.43,-293.01"/>
<polygon fill="#63b8ff" stroke="#63b8ff" points="510.72,-319.44 521,-316.86 511.36,-312.46 510.72,-319.44"/>
</a>
</g>
</g>
<!-- Node9&#45;&gt;Node4 -->
<g id="edge14_Node000009_Node000004" class="edge">
<title>Node9&#45;&gt;Node4</title>
<g id="a_edge14_Node000009_Node000004"><a xlink:title=" ">
<path fill="none" stroke="#63b8ff" d="M122.95,-121.27C114.67,-121.27 106.53,-121.27 98.88,-121.27"/>
<polygon fill="#63b8ff" stroke="#63b8ff" points="122.8,-124.77 132.8,-121.27 122.8,-117.77 122.8,-124.77"/>
</a>
</g>
</g>
<!-- Node10&#45;&gt;Node4 -->
<g id="edge16_Node000010_Node000004" class="edge">
<title>Node10&#45;&gt;Node4</title>
<g id="a_edge16_Node000010_Node000004"><a xlink:title=" ">
<path fill="none" stroke="#63b8ff" d="M328.72,-85.64C273.36,-88.03 199.32,-92.8 134.5,-102.27 120.11,-104.37 104.53,-107.61 90.72,-110.82"/>
<polygon fill="#63b8ff" stroke="#63b8ff" points="328.53,-89.15 338.37,-85.24 328.24,-82.16 328.53,-89.15"/>
</a>
</g>
</g>
<!-- Node11&#45;&gt;Node4 -->
<g id="edge18_Node000011_Node000004" class="edge">
<title>Node11&#45;&gt;Node4</title>
<g id="a_edge18_Node000011_Node000004"><a xlink:title=" ">
<path fill="none" stroke="#63b8ff" d="M162.23,-59.02C152.82,-61.98 143.26,-65.4 134.5,-69.27 108.4,-80.79 80.72,-99.24 64.49,-110.78"/>
<polygon fill="#63b8ff" stroke="#63b8ff" points="163.14,-62.4 171.72,-56.19 161.14,-55.69 163.14,-62.4"/>
</a>
</g>
</g>
<!-- Node12&#45;&gt;Node8 -->
<g id="edge20_Node000012_Node000008" class="edge">
<title>Node12&#45;&gt;Node8</title>
<g id="a_edge20_Node000012_Node000008"><a xlink:title=" ">
<path fill="none" stroke="#63b8ff" d="M692.98,-298.45C673.46,-303.38 653.18,-308.5 636.15,-312.81"/>
<polygon fill="#63b8ff" stroke="#63b8ff" points="693.73,-301.87 702.57,-296.02 692.02,-295.08 693.73,-301.87"/>
</a>
</g>
</g>
<!-- Node13 -->
<g id="Node000013" class="node">
<title>Node13</title>
<g id="a_Node000013"><a xlink:href="classdrivers_1_1_driver.html#a1349f8ca44272d07a91da7c4a689ce2e" target="_top" xlink:title="Passa el torn del jugador actual.">
<polygon fill="white" stroke="#666666" points="656.5,-295.27 531,-295.27 531,-275.27 656.5,-275.27 656.5,-295.27"/>
<text text-anchor="middle" x="593.75" y="-281.77" font-family="Helvetica,sans-Serif" font-size="10.00">drivers.Driver.passarTorn</text>
</a>
</g>
</g>
<!-- Node12&#45;&gt;Node13 -->
<g id="edge21_Node000012_Node000013" class="edge">
<title>Node12&#45;&gt;Node13</title>
<g id="a_edge21_Node000012_Node000013"><a xlink:title=" ">
<path fill="none" stroke="#63b8ff" d="M689.31,-282.01C678.44,-282.38 667.42,-282.76 656.92,-283.13"/>
<polygon fill="#63b8ff" stroke="#63b8ff" points="689.17,-285.52 699.04,-281.67 688.93,-278.52 689.17,-285.52"/>
</a>
</g>
</g>
<!-- Node13&#45;&gt;Node3 -->
<g id="edge22_Node000013_Node000003" class="edge">
<title>Node13&#45;&gt;Node3</title>
<g id="a_edge22_Node000013_Node000003"><a xlink:title=" ">
<path fill="none" stroke="#63b8ff" d="M519.71,-285.27C451.18,-285.27 349.71,-285.27 284.3,-285.27"/>
<polygon fill="#63b8ff" stroke="#63b8ff" points="519.33,-288.77 529.33,-285.27 519.33,-281.77 519.33,-288.77"/>
</a>
</g>
</g>
</g>
</svg>

<g id="navigator" transform="translate(0 0)" fill="#404254">
  <rect fill="#f2f5e9" fill-opacity="0.5" stroke="#606060" stroke-width=".5" x="0" y="0" width="60" height="60"/>
  <use id="zoomplus" xlink:href="#zoomPlus" x="17" y="9" onmousedown="handleZoom(evt,'in')"/>
  <use id="zoomminus" xlink:href="#zoomMin" x="42" y="9" onmousedown="handleZoom(evt,'out')"/>
  <use id="reset" xlink:href="#resetDef" x="30" y="36" onmousedown="handleReset()"/>
   <use id="arrowup" xlink:href="#arrowUp" x="0" y="0" onmousedown="handlePan(0,-1)"/>
  <use id="arrowright" xlink:href="#arrowRight" x="0" y="0" onmousedown="handlePan(1,0)"/>
  <use id="arrowdown" xlink:href="#arrowDown" x="0" y="0" onmousedown="handlePan(0,1)"/>
  <use id="arrowleft" xlink:href="#arrowLeft" x="0" y="0" onmousedown="handlePan(-1,0)"/>
</g>
<svg viewBox="0 0 15 15" width="100%" height="30px" preserveAspectRatio="xMaxYMin meet">
 <g id="arrow_out" transform="scale(0.3 0.3)">
  <a xlink:href="classdrivers_1_1_driver_a8bc044826a5994373681c23cc5555bce_icgraph_org.svg" target="_base">
   <rect id="button" ry="5" rx="5" y="6" x="6" height="38" width="38"
        fill="#f2f5e9" fill-opacity="0.5" stroke="#606060" stroke-width="1.0"/>
   <path id="arrow"
     d="M 11.500037,31.436501 C 11.940474,20.09759 22.043105,11.32322 32.158766,21.979434 L 37.068811,17.246167 C 37.068811,17.246167 37.088388,32 37.088388,32 L 22.160133,31.978069 C 22.160133,31.978069 26.997745,27.140456 26.997745,27.140456 C 18.528582,18.264221 13.291696,25.230495 11.500037,31.436501 z"
     style="fill:#404040;"/>
  </a>
 </g>
</svg>

<style type='text/css'>
<![CDATA[
[data-mouse-over-selected='false'] { opacity: 0.7; }
[data-mouse-over-selected='true']  { opacity: 1.0; }
]]>
</style>
<script type="application/ecmascript"><![CDATA[
document.addEventListener('DOMContentLoaded', (event) => {
  highlightEdges();
  highlightAdjacentNodes();
});
]]></script>
</svg>
