<?xml version="1.0" encoding="UTF-8" standalone="no"?>
<!DOCTYPE svg PUBLIC "-//W3C//DTD SVG 1.1//EN"
 "http://www.w3.org/Graphics/SVG/1.1/DTD/svg11.dtd">
<!-- Generated by graphviz version 12.2.1 (20241206.2353)
 -->
<!-- Title: domini.scrabble.Taulell.Taulell Pages: 1 -->
<svg width="713pt" height="90pt"
 viewBox="0.00 0.00 712.50 90.00" xmlns="http://www.w3.org/2000/svg" xmlns:xlink="http://www.w3.org/1999/xlink">
<g id="graph0" class="graph" transform="scale(1 1) rotate(0) translate(4 86)">
<title>domini.scrabble.Taulell.Taulell</title>
<!-- Node1 -->
<g id="Node000001" class="node">
<title>Node1</title>
<g id="a_Node000001"><a xlink:title="Constructora de la classe Taulell.">
<polygon fill="#999999" stroke="#666666" points="704.5,-57 586.5,-57 586.5,-25 704.5,-25 704.5,-57"/>
<text text-anchor="start" x="594.5" y="-43.5" font-family="Helvetica,sans-Serif" font-size="10.00">domini.scrabble.Taulell.</text>
<text text-anchor="middle" x="645.5" y="-31.5" font-family="Helvetica,sans-Serif" font-size="10.00">Taulell</text>
</a>
</g>
</g>
<!-- Node2 -->
<g id="Node000002" class="node">
<title>Node2</title>
<g id="a_Node000002"><a xlink:href="classdomini_1_1scrabble_1_1_taulell.html#a622ab57cc924ec4c3ff2345698c746e2" target="_top" xlink:title="Retorna la transposició del taulell actual.">
<polygon fill="white" stroke="#666666" points="550.5,-51 389.75,-51 389.75,-31 550.5,-31 550.5,-51"/>
<text text-anchor="middle" x="470.12" y="-37.5" font-family="Helvetica,sans-Serif" font-size="10.00">domini.scrabble.Taulell.transpose</text>
</a>
</g>
</g>
<!-- Node1&#45;&gt;Node2 -->
<g id="edge1_Node000001_Node000002" class="edge">
<title>Node1&#45;&gt;Node2</title>
<g id="a_edge1_Node000001_Node000002"><a xlink:title=" ">
<path fill="none" stroke="#63b8ff" d="M574.85,-41C566.92,-41 558.8,-41 550.75,-41"/>
<polygon fill="#63b8ff" stroke="#63b8ff" points="574.77,-44.5 584.77,-41 574.77,-37.5 574.77,-44.5"/>
</a>
</g>
</g>
<!-- Node3 -->
<g id="Node000003" class="node">
<title>Node3</title>
<g id="a_Node000003"><a xlink:href="classcontroladors_1_1_ctrl_partida.html#a11dd5c5c7252681872e3ba7baf8213a8" target="_top" xlink:title="Comprova si una paraula és vàlida.">
<polygon fill="white" stroke="#666666" points="353.75,-82 189.25,-82 189.25,-50 353.75,-50 353.75,-82"/>
<text text-anchor="start" x="197.25" y="-68.5" font-family="Helvetica,sans-Serif" font-size="10.00">controladors.CtrlPartida.comprova</text>
<text text-anchor="middle" x="271.5" y="-56.5" font-family="Helvetica,sans-Serif" font-size="10.00">_paraula</text>
</a>
</g>
</g>
<!-- Node2&#45;&gt;Node3 -->
<g id="edge2_Node000002_Node000003" class="edge">
<title>Node2&#45;&gt;Node3</title>
<g id="a_edge2_Node000002_Node000003"><a xlink:title=" ">
<path fill="none" stroke="#63b8ff" d="M378.2,-52.56C370.2,-53.58 362.14,-54.6 354.22,-55.61"/>
<polygon fill="#63b8ff" stroke="#63b8ff" points="378.45,-56.06 387.93,-51.32 377.57,-49.11 378.45,-56.06"/>
</a>
</g>
</g>
<!-- Node5 -->
<g id="Node000005" class="node">
<title>Node5</title>
<g id="a_Node000005"><a xlink:href="classdomini_1_1jugadors_1_1_maquina.html#a8b1f4889bc62ca862e4f87e55c66871e" target="_top" xlink:title="Busca la paraula amb la puntuació més alta donats un taulell i un diccionari.">
<polygon fill="white" stroke="#666666" points="340.62,-32 202.38,-32 202.38,0 340.62,0 340.62,-32"/>
<text text-anchor="start" x="210.38" y="-18.5" font-family="Helvetica,sans-Serif" font-size="10.00">domini.jugadors.Maquina.fer</text>
<text text-anchor="middle" x="271.5" y="-6.5" font-family="Helvetica,sans-Serif" font-size="10.00">Jugada</text>
</a>
</g>
</g>
<!-- Node2&#45;&gt;Node5 -->
<g id="edge4_Node000002_Node000005" class="edge">
<title>Node2&#45;&gt;Node5</title>
<g id="a_edge4_Node000002_Node000005"><a xlink:title=" ">
<path fill="none" stroke="#63b8ff" d="M378.04,-29.42C365.56,-27.83 352.93,-26.23 340.95,-24.7"/>
<polygon fill="#63b8ff" stroke="#63b8ff" points="377.57,-32.89 387.93,-30.68 378.45,-25.94 377.57,-32.89"/>
</a>
</g>
</g>
<!-- Node4 -->
<g id="Node000004" class="node">
<title>Node4</title>
<g id="a_Node000004"><a xlink:href="classcontroladors_1_1_ctrl_partida.html#ad0f7d5edb502bc4956cfd54612209ea7" target="_top" xlink:title="Col·loca una paraula al taulell.">
<polygon fill="white" stroke="#666666" points="153.25,-82 0,-82 0,-50 153.25,-50 153.25,-82"/>
<text text-anchor="start" x="8" y="-68.5" font-family="Helvetica,sans-Serif" font-size="10.00">controladors.CtrlPartida.colocar</text>
<text text-anchor="middle" x="76.62" y="-56.5" font-family="Helvetica,sans-Serif" font-size="10.00">Paraula</text>
</a>
</g>
</g>
<!-- Node3&#45;&gt;Node4 -->
<g id="edge3_Node000003_Node000004" class="edge">
<title>Node3&#45;&gt;Node4</title>
<g id="a_edge3_Node000003_Node000004"><a xlink:title=" ">
<path fill="none" stroke="#63b8ff" d="M177.65,-66C169.6,-66 161.52,-66 153.63,-66"/>
<polygon fill="#63b8ff" stroke="#63b8ff" points="177.47,-69.5 187.47,-66 177.47,-62.5 177.47,-69.5"/>
</a>
</g>
</g>
</g>
</svg>
