<?xml version="1.0" encoding="UTF-8" standalone="no"?>
<!DOCTYPE svg PUBLIC "-//W3C//DTD SVG 1.1//EN"
 "http://www.w3.org/Graphics/SVG/1.1/DTD/svg11.dtd">
<!-- Generated by graphviz version 12.2.1 (20241206.2353)
 -->
<!-- Title: Jerarquia Gràfica de la Classe Pages: 1 -->
<svg width="421pt" height="90pt"
 viewBox="0.00 0.00 420.50 90.00" xmlns="http://www.w3.org/2000/svg" xmlns:xlink="http://www.w3.org/1999/xlink">
<g id="graph0" class="graph" transform="scale(1 1) rotate(0) translate(4 86)">
<title>Jerarquia Gràfica de la Classe</title>
<!-- Node0 -->
<g id="Node000000" class="node">
<title>Node0</title>
<g id="a_Node000000"><a xlink:title=" ">
<polygon fill="#e0e0e0" stroke="#999999" points="59.5,-51 0,-51 0,-31 59.5,-31 59.5,-51"/>
<text text-anchor="middle" x="29.75" y="-37.5" font-family="Helvetica,sans-Serif" font-size="10.00">Exception</text>
</a>
</g>
</g>
<!-- Node1 -->
<g id="Node000001" class="node">
<title>Node1</title>
<g id="a_Node000001"><a xlink:href="$classdomini_1_1excepcions_1_1_excepcio_domini.html" xlink:title="Excepció arrel de tot el paquet domini.">
<polygon fill="white" stroke="#666666" points="236,-57 95.5,-57 95.5,-25 236,-25 236,-57"/>
<text text-anchor="start" x="103.5" y="-43.5" font-family="Helvetica,sans-Serif" font-size="10.00">domini.excepcions.Excepcio</text>
<text text-anchor="middle" x="165.75" y="-31.5" font-family="Helvetica,sans-Serif" font-size="10.00">Domini</text>
</a>
</g>
</g>
<!-- Node0&#45;&gt;Node1 -->
<g id="edge7_Node000000_Node000001" class="edge">
<title>Node0&#45;&gt;Node1</title>
<g id="a_edge7_Node000000_Node000001"><a xlink:title=" ">
<path fill="none" stroke="#63b8ff" d="M71.2,-41C78.77,-41 86.88,-41 95.04,-41"/>
<polygon fill="#63b8ff" stroke="#63b8ff" points="71.34,-37.5 61.34,-41 71.34,-44.5 71.34,-37.5"/>
</a>
</g>
</g>
<!-- Node2 -->
<g id="Node000002" class="node">
<title>Node2</title>
<g id="a_Node000002"><a xlink:href="$classdomini_1_1excepcions_1_1_excepcio_arxiu_bossa.html" xlink:title="Problemes al carregar el fitxer del set de fitxes.">
<polygon fill="white" stroke="#666666" points="412.5,-82 272,-82 272,-50 412.5,-50 412.5,-82"/>
<text text-anchor="start" x="280" y="-68.5" font-family="Helvetica,sans-Serif" font-size="10.00">domini.excepcions.Excepcio</text>
<text text-anchor="middle" x="342.25" y="-56.5" font-family="Helvetica,sans-Serif" font-size="10.00">ArxiuBossa</text>
</a>
</g>
</g>
<!-- Node1&#45;&gt;Node2 -->
<g id="edge8_Node000001_Node000002" class="edge">
<title>Node1&#45;&gt;Node2</title>
<g id="a_edge8_Node000001_Node000002"><a xlink:title=" ">
<path fill="none" stroke="#63b8ff" d="M247.7,-52.6C255.7,-53.74 263.77,-54.9 271.64,-56.03"/>
<polygon fill="#63b8ff" stroke="#63b8ff" points="248.36,-49.16 237.97,-51.2 247.37,-56.09 248.36,-49.16"/>
</a>
</g>
</g>
<!-- Node3 -->
<g id="Node000003" class="node">
<title>Node3</title>
<g id="a_Node000003"><a xlink:href="$classdomini_1_1excepcions_1_1_excepcio_arxiu_diccionari.html" xlink:title="Problemes al carregar el fitxer de diccionari.">
<polygon fill="white" stroke="#666666" points="412.5,-32 272,-32 272,0 412.5,0 412.5,-32"/>
<text text-anchor="start" x="280" y="-18.5" font-family="Helvetica,sans-Serif" font-size="10.00">domini.excepcions.Excepcio</text>
<text text-anchor="middle" x="342.25" y="-6.5" font-family="Helvetica,sans-Serif" font-size="10.00">ArxiuDiccionari</text>
</a>
</g>
</g>
<!-- Node1&#45;&gt;Node3 -->
<g id="edge9_Node000001_Node000003" class="edge">
<title>Node1&#45;&gt;Node3</title>
<g id="a_edge9_Node000001_Node000003"><a xlink:title=" ">
<path fill="none" stroke="#63b8ff" d="M247.7,-29.4C255.7,-28.26 263.77,-27.1 271.64,-25.97"/>
<polygon fill="#63b8ff" stroke="#63b8ff" points="247.37,-25.91 237.97,-30.8 248.36,-32.84 247.37,-25.91"/>
</a>
</g>
</g>
</g>
</svg>
