<?xml version="1.0" encoding="UTF-8" standalone="no"?>
<!DOCTYPE svg PUBLIC "-//W3C//DTD SVG 1.1//EN"
 "http://www.w3.org/Graphics/SVG/1.1/DTD/svg11.dtd">
<!-- Generated by graphviz version 12.2.1 (20241206.2353)
 -->
<!-- Title: Jerarquia Gràfica de la Classe Pages: 1 -->
<svg width="243pt" height="190pt"
 viewBox="0.00 0.00 242.50 190.00" xmlns="http://www.w3.org/2000/svg" xmlns:xlink="http://www.w3.org/1999/xlink">
<g id="graph0" class="graph" transform="scale(1 1) rotate(0) translate(4 186)">
<title>Jerarquia Gràfica de la Classe</title>
<!-- Node0 -->
<g id="Node000000" class="node">
<title>Node0</title>
<g id="a_Node000000"><a xlink:title=" ">
<polygon fill="#e0e0e0" stroke="#999999" points="61,-101 0,-101 0,-81 61,-81 61,-101"/>
<text text-anchor="middle" x="30.5" y="-87.5" font-family="Helvetica,sans-Serif" font-size="10.00">JTextField</text>
</a>
</g>
</g>
<!-- Node1 -->
<g id="Node000001" class="node">
<title>Node1</title>
<g id="a_Node000001"><a xlink:href="classinterficie_1_1_vista_crear_avatar_1_1_placeholder_text_field.html" target="_top" xlink:title="JTextField amb suport per a un text placeholder.">
<polygon fill="white" stroke="#666666" points="232.62,-182 98.88,-182 98.88,-150 232.62,-150 232.62,-182"/>
<text text-anchor="start" x="106.88" y="-168.5" font-family="Helvetica,sans-Serif" font-size="10.00">interficie.VistaCrearAvatar.</text>
<text text-anchor="middle" x="165.75" y="-156.5" font-family="Helvetica,sans-Serif" font-size="10.00">PlaceholderTextField</text>
</a>
</g>
</g>
<!-- Node0&#45;&gt;Node1 -->
<g id="edge30_Node000000_Node000001" class="edge">
<title>Node0&#45;&gt;Node1</title>
<g id="a_edge30_Node000000_Node000001"><a xlink:title=" ">
<path fill="none" stroke="#63b8ff" d="M51.44,-108.74C63.89,-119.15 80.62,-131.99 97,-141 102.6,-144.08 108.66,-146.93 114.77,-149.51"/>
<polygon fill="#63b8ff" stroke="#63b8ff" points="53.85,-106.19 43.98,-102.34 49.29,-111.5 53.85,-106.19"/>
</a>
</g>
</g>
<!-- Node2 -->
<g id="Node000002" class="node">
<title>Node2</title>
<g id="a_Node000002"><a xlink:href="classinterficie_1_1_vista_crear_partida_1_1_placeholder_text_field.html" target="_top" xlink:title="JTextField personalitzat que mostra un text &quot;placeholder&quot; quan el camp està buit i no té el focus,...">
<polygon fill="white" stroke="#666666" points="233.75,-132 97.75,-132 97.75,-100 233.75,-100 233.75,-132"/>
<text text-anchor="start" x="105.75" y="-118.5" font-family="Helvetica,sans-Serif" font-size="10.00">interficie.VistaCrearPartida.</text>
<text text-anchor="middle" x="165.75" y="-106.5" font-family="Helvetica,sans-Serif" font-size="10.00">PlaceholderTextField</text>
</a>
</g>
</g>
<!-- Node0&#45;&gt;Node2 -->
<g id="edge31_Node000000_Node000002" class="edge">
<title>Node0&#45;&gt;Node2</title>
<g id="a_edge31_Node000000_Node000002"><a xlink:title=" ">
<path fill="none" stroke="#63b8ff" d="M72.51,-98.69C80.42,-100.18 88.89,-101.77 97.37,-103.36"/>
<polygon fill="#63b8ff" stroke="#63b8ff" points="73.37,-95.29 62.89,-96.89 72.07,-102.17 73.37,-95.29"/>
</a>
</g>
</g>
<!-- Node3 -->
<g id="Node000003" class="node">
<title>Node3</title>
<g id="a_Node000003"><a xlink:href="classinterficie_1_1_vista_crear_perfil_1_1_placeholder_text_field.html" target="_top" xlink:title="Camp de text personalitzat que mostra un placeholder quan està buit i no té focus.">
<polygon fill="white" stroke="#666666" points="229.62,-82 101.88,-82 101.88,-50 229.62,-50 229.62,-82"/>
<text text-anchor="start" x="109.88" y="-68.5" font-family="Helvetica,sans-Serif" font-size="10.00">interficie.VistaCrearPerfil.</text>
<text text-anchor="middle" x="165.75" y="-56.5" font-family="Helvetica,sans-Serif" font-size="10.00">PlaceholderTextField</text>
</a>
</g>
</g>
<!-- Node0&#45;&gt;Node3 -->
<g id="edge32_Node000000_Node000003" class="edge">
<title>Node0&#45;&gt;Node3</title>
<g id="a_edge32_Node000000_Node000003"><a xlink:title=" ">
<path fill="none" stroke="#63b8ff" d="M72.53,-83.3C81.69,-81.58 91.61,-79.72 101.43,-77.88"/>
<polygon fill="#63b8ff" stroke="#63b8ff" points="72.07,-79.83 62.89,-85.11 73.37,-86.71 72.07,-79.83"/>
</a>
</g>
</g>
<!-- Node4 -->
<g id="Node000004" class="node">
<title>Node4</title>
<g id="a_Node000004"><a xlink:href="classinterficie_1_1_vista_iniciar_sessio_1_1_placeholder_text_field.html" target="_top" xlink:title="Classe interna que permet mostrar un placeholder (text predefinit i en gris) dins d&#39;un JTextField qua...">
<polygon fill="white" stroke="#666666" points="234.5,-32 97,-32 97,0 234.5,0 234.5,-32"/>
<text text-anchor="start" x="105" y="-18.5" font-family="Helvetica,sans-Serif" font-size="10.00">interficie.VistaIniciarSessio.</text>
<text text-anchor="middle" x="165.75" y="-6.5" font-family="Helvetica,sans-Serif" font-size="10.00">PlaceholderTextField</text>
</a>
</g>
</g>
<!-- Node0&#45;&gt;Node4 -->
<g id="edge33_Node000000_Node000004" class="edge">
<title>Node0&#45;&gt;Node4</title>
<g id="a_edge33_Node000000_Node000004"><a xlink:title=" ">
<path fill="none" stroke="#63b8ff" d="M51.44,-73.26C63.89,-62.85 80.62,-50.01 97,-41 102.6,-37.92 108.66,-35.07 114.77,-32.49"/>
<polygon fill="#63b8ff" stroke="#63b8ff" points="49.29,-70.5 43.98,-79.66 53.85,-75.81 49.29,-70.5"/>
</a>
</g>
</g>
</g>
</svg>
