<?xml version="1.0" encoding="UTF-8" standalone="no"?>
<!DOCTYPE svg PUBLIC "-//W3C//DTD SVG 1.1//EN"
 "http://www.w3.org/Graphics/SVG/1.1/DTD/svg11.dtd">
<!-- Generated by graphviz version 12.2.1 (20241206.2353)
 -->
<!-- Title: Jerarquia Gràfica de la Classe Pages: 1 -->
<svg width="238pt" height="532pt"
 viewBox="0.00 0.00 238.00 532.00" xmlns="http://www.w3.org/2000/svg" xmlns:xlink="http://www.w3.org/1999/xlink">
<g id="graph0" class="graph" transform="scale(1 1) rotate(0) translate(4 528)">
<title>Jerarquia Gràfica de la Classe</title>
<!-- Node0 -->
<g id="Node000000" class="node">
<title>Node0</title>
<g id="a_Node000000"><a xlink:title=" ">
<polygon fill="#e0e0e0" stroke="#999999" points="49,-248 0,-248 0,-228 49,-228 49,-248"/>
<text text-anchor="middle" x="24.5" y="-234.5" font-family="Helvetica,sans-Serif" font-size="10.00">JFrame</text>
</a>
</g>
</g>
<!-- Node1 -->
<g id="Node000001" class="node">
<title>Node1</title>
<g id="a_Node000001"><a xlink:href="$classinterficie_1_1_vista_canvi_torn.html" xlink:title="Mostra una finestra indicant que un jugador ha de passar el dispositiu a un altre.">
<polygon fill="white" stroke="#666666" points="218.75,-524 96.25,-524 96.25,-504 218.75,-504 218.75,-524"/>
<text text-anchor="middle" x="157.5" y="-510.5" font-family="Helvetica,sans-Serif" font-size="10.00">interficie.VistaCanviTorn</text>
</a>
</g>
</g>
<!-- Node0&#45;&gt;Node1 -->
<g id="edge13_Node000000_Node000001" class="edge">
<title>Node0&#45;&gt;Node1</title>
<g id="a_edge13_Node000000_Node000001"><a xlink:title=" ">
<path fill="none" stroke="#63b8ff" d="M27.67,-259.74C33.66,-315.41 52.19,-461.12 85,-495 88.31,-498.41 92.15,-501.24 96.31,-503.57"/>
<polygon fill="#63b8ff" stroke="#63b8ff" points="31.17,-259.55 26.66,-249.97 24.21,-260.28 31.17,-259.55"/>
</a>
</g>
</g>
<!-- Node2 -->
<g id="Node000002" class="node">
<title>Node2</title>
<g id="a_Node000002"><a xlink:href="$classinterficie_1_1_vista_consultar_avatars.html" xlink:title="Mostra una finestra llistant els avatars disponibles.">
<polygon fill="white" stroke="#666666" points="217.62,-486 97.38,-486 97.38,-454 217.62,-454 217.62,-486"/>
<text text-anchor="start" x="105.38" y="-472.5" font-family="Helvetica,sans-Serif" font-size="10.00">interficie.VistaConsultar</text>
<text text-anchor="middle" x="157.5" y="-460.5" font-family="Helvetica,sans-Serif" font-size="10.00">Avatars</text>
</a>
</g>
</g>
<!-- Node0&#45;&gt;Node2 -->
<g id="edge14_Node000000_Node000002" class="edge">
<title>Node0&#45;&gt;Node2</title>
<g id="a_edge14_Node000000_Node000002"><a xlink:title=" ">
<path fill="none" stroke="#63b8ff" d="M25.52,-259.57C26.74,-301.04 35.3,-392.41 85,-445 88.52,-448.73 92.63,-451.9 97.07,-454.6"/>
<polygon fill="#63b8ff" stroke="#63b8ff" points="29.02,-259.65 25.36,-249.7 22.02,-259.76 29.02,-259.65"/>
</a>
</g>
</g>
<!-- Node3 -->
<g id="Node000003" class="node">
<title>Node3</title>
<g id="a_Node000003"><a xlink:href="$classinterficie_1_1_vista_consultar_estadistiques.html" xlink:title="Mostra una finestra amb les estadístiques dels avatars de l&#39;usuari registrat.">
<polygon fill="white" stroke="#666666" points="217.62,-436 97.38,-436 97.38,-404 217.62,-404 217.62,-436"/>
<text text-anchor="start" x="105.38" y="-422.5" font-family="Helvetica,sans-Serif" font-size="10.00">interficie.VistaConsultar</text>
<text text-anchor="middle" x="157.5" y="-410.5" font-family="Helvetica,sans-Serif" font-size="10.00">Estadistiques</text>
</a>
</g>
</g>
<!-- Node0&#45;&gt;Node3 -->
<g id="edge15_Node000000_Node000003" class="edge">
<title>Node0&#45;&gt;Node3</title>
<g id="a_edge15_Node000000_Node000003"><a xlink:title=" ">
<path fill="none" stroke="#63b8ff" d="M27.89,-259.63C32.72,-293.15 46.68,-357.66 85,-395 88.58,-398.49 92.67,-401.49 97.04,-404.08"/>
<polygon fill="#63b8ff" stroke="#63b8ff" points="31.39,-259.4 26.65,-249.93 24.45,-260.29 31.39,-259.4"/>
</a>
</g>
</g>
<!-- Node4 -->
<g id="Node000004" class="node">
<title>Node4</title>
<g id="a_Node000004"><a xlink:href="$classinterficie_1_1_vista_consultar_normes.html" xlink:title="Mostra una finestra amb les normes del joc Scrabble en format HTML.">
<polygon fill="white" stroke="#666666" points="217.62,-386 97.38,-386 97.38,-354 217.62,-354 217.62,-386"/>
<text text-anchor="start" x="105.38" y="-372.5" font-family="Helvetica,sans-Serif" font-size="10.00">interficie.VistaConsultar</text>
<text text-anchor="middle" x="157.5" y="-360.5" font-family="Helvetica,sans-Serif" font-size="10.00">Normes</text>
</a>
</g>
</g>
<!-- Node0&#45;&gt;Node4 -->
<g id="edge16_Node000000_Node000004" class="edge">
<title>Node0&#45;&gt;Node4</title>
<g id="a_edge16_Node000000_Node000004"><a xlink:title=" ">
<path fill="none" stroke="#63b8ff" d="M32.13,-259.23C40.66,-283.26 57.74,-322.05 85,-345 88.92,-348.3 93.31,-351.18 97.93,-353.68"/>
<polygon fill="#63b8ff" stroke="#63b8ff" points="35.49,-258.26 29,-249.89 28.86,-260.49 35.49,-258.26"/>
</a>
</g>
</g>
<!-- Node5 -->
<g id="Node000005" class="node">
<title>Node5</title>
<g id="a_Node000005"><a xlink:href="$classinterficie_1_1_vista_consultar_ranking.html" xlink:title="Vista gràfica que mostra el rànquing d&#39;avatars dels jugadors, ordenats per puntuació.">
<polygon fill="white" stroke="#666666" points="217.62,-336 97.38,-336 97.38,-304 217.62,-304 217.62,-336"/>
<text text-anchor="start" x="105.38" y="-322.5" font-family="Helvetica,sans-Serif" font-size="10.00">interficie.VistaConsultar</text>
<text text-anchor="middle" x="157.5" y="-310.5" font-family="Helvetica,sans-Serif" font-size="10.00">Ranking</text>
</a>
</g>
</g>
<!-- Node0&#45;&gt;Node5 -->
<g id="edge17_Node000000_Node000005" class="edge">
<title>Node0&#45;&gt;Node5</title>
<g id="a_edge17_Node000000_Node000005"><a xlink:title=" ">
<path fill="none" stroke="#63b8ff" d="M41.27,-256.84C52.41,-269.14 68.29,-284.75 85,-295 90.16,-298.16 95.77,-301 101.51,-303.52"/>
<polygon fill="#63b8ff" stroke="#63b8ff" points="43.95,-254.59 34.74,-249.37 38.69,-259.2 43.95,-254.59"/>
</a>
</g>
</g>
<!-- Node6 -->
<g id="Node000006" class="node">
<title>Node6</title>
<g id="a_Node000006"><a xlink:href="$classinterficie_1_1_vista_crear_avatar.html" xlink:title=" ">
<polygon fill="white" stroke="#666666" points="222.88,-286 92.12,-286 92.12,-266 222.88,-266 222.88,-286"/>
<text text-anchor="middle" x="157.5" y="-272.5" font-family="Helvetica,sans-Serif" font-size="10.00">interficie.VistaCrearAvatar</text>
</a>
</g>
</g>
<!-- Node0&#45;&gt;Node6 -->
<g id="edge18_Node000000_Node000006" class="edge">
<title>Node0&#45;&gt;Node6</title>
<g id="a_edge18_Node000000_Node000006"><a xlink:title=" ">
<path fill="none" stroke="#63b8ff" d="M60.4,-249.46C68.45,-252.02 77.01,-254.66 85,-257 94.99,-259.92 105.81,-262.89 115.94,-265.6"/>
<polygon fill="#63b8ff" stroke="#63b8ff" points="61.48,-246.13 50.89,-246.41 59.34,-252.8 61.48,-246.13"/>
</a>
</g>
</g>
<!-- Node7 -->
<g id="Node000007" class="node">
<title>Node7</title>
<g id="a_Node000007"><a xlink:href="$classinterficie_1_1_vista_crear_partida.html" xlink:title=" ">
<polygon fill="white" stroke="#666666" points="224,-248 91,-248 91,-228 224,-228 224,-248"/>
<text text-anchor="middle" x="157.5" y="-234.5" font-family="Helvetica,sans-Serif" font-size="10.00">interficie.VistaCrearPartida</text>
</a>
</g>
</g>
<!-- Node0&#45;&gt;Node7 -->
<g id="edge19_Node000000_Node000007" class="edge">
<title>Node0&#45;&gt;Node7</title>
<g id="a_edge19_Node000000_Node000007"><a xlink:title=" ">
<path fill="none" stroke="#63b8ff" d="M60.71,-238C69.96,-238 80.25,-238 90.55,-238"/>
<polygon fill="#63b8ff" stroke="#63b8ff" points="60.74,-234.5 50.74,-238 60.74,-241.5 60.74,-234.5"/>
</a>
</g>
</g>
<!-- Node8 -->
<g id="Node000008" class="node">
<title>Node8</title>
<g id="a_Node000008"><a xlink:href="$classinterficie_1_1_vista_crear_perfil.html" xlink:title=" ">
<polygon fill="white" stroke="#666666" points="219.88,-210 95.12,-210 95.12,-190 219.88,-190 219.88,-210"/>
<text text-anchor="middle" x="157.5" y="-196.5" font-family="Helvetica,sans-Serif" font-size="10.00">interficie.VistaCrearPerfil</text>
</a>
</g>
</g>
<!-- Node0&#45;&gt;Node8 -->
<g id="edge20_Node000000_Node000008" class="edge">
<title>Node0&#45;&gt;Node8</title>
<g id="a_edge20_Node000000_Node000008"><a xlink:title=" ">
<path fill="none" stroke="#63b8ff" d="M60.4,-226.54C68.45,-223.98 77.01,-221.34 85,-219 94.99,-216.08 105.81,-213.11 115.94,-210.4"/>
<polygon fill="#63b8ff" stroke="#63b8ff" points="59.34,-223.2 50.89,-229.59 61.48,-229.87 59.34,-223.2"/>
</a>
</g>
</g>
<!-- Node9 -->
<g id="Node000009" class="node">
<title>Node9</title>
<g id="a_Node000009"><a xlink:href="$classinterficie_1_1_vista_iniciar_sessio.html" xlink:title="Classe que representa la finestra principal del menú de l&#39;aplicació Scrabble un cop s&#39;ha iniciat sess...">
<polygon fill="white" stroke="#666666" points="224.75,-172 90.25,-172 90.25,-152 224.75,-152 224.75,-172"/>
<text text-anchor="middle" x="157.5" y="-158.5" font-family="Helvetica,sans-Serif" font-size="10.00">interficie.VistaIniciarSessio</text>
</a>
</g>
</g>
<!-- Node0&#45;&gt;Node9 -->
<g id="edge21_Node000000_Node000009" class="edge">
<title>Node0&#45;&gt;Node9</title>
<g id="a_edge21_Node000000_Node000009"><a xlink:title=" ">
<path fill="none" stroke="#63b8ff" d="M41.03,-218.74C52.06,-206.26 67.91,-190.6 85,-181 91.05,-177.6 97.72,-174.79 104.5,-172.48"/>
<polygon fill="#63b8ff" stroke="#63b8ff" points="38.37,-216.47 34.56,-226.35 43.7,-220.99 38.37,-216.47"/>
</a>
</g>
</g>
<!-- Node10 -->
<g id="Node000010" class="node">
<title>Node10</title>
<g id="a_Node000010"><a xlink:href="$classinterficie_1_1_vista_menu_joc.html" xlink:title="Classe que representa la finestra principal del menú de l&#39;aplicació Scrabble un cop s&#39;ha iniciat sess...">
<polygon fill="white" stroke="#666666" points="216.5,-134 98.5,-134 98.5,-114 216.5,-114 216.5,-134"/>
<text text-anchor="middle" x="157.5" y="-120.5" font-family="Helvetica,sans-Serif" font-size="10.00">interficie.VistaMenuJoc</text>
</a>
</g>
</g>
<!-- Node0&#45;&gt;Node10 -->
<g id="edge22_Node000000_Node000010" class="edge">
<title>Node0&#45;&gt;Node10</title>
<g id="a_edge22_Node000000_Node000010"><a xlink:title=" ">
<path fill="none" stroke="#63b8ff" d="M33.15,-217.19C42.2,-195.44 59.38,-161.9 85,-143 89.65,-139.57 94.88,-136.76 100.33,-134.45"/>
<polygon fill="#63b8ff" stroke="#63b8ff" points="30,-215.63 29.6,-226.21 36.51,-218.19 30,-215.63"/>
</a>
</g>
</g>
<!-- Node11 -->
<g id="Node000011" class="node">
<title>Node11</title>
<g id="a_Node000011"><a xlink:href="$classinterficie_1_1_vista_menu_principal.html" xlink:title="Classe que representa la finestra principal del menú de l&#39;aplicació Scrabble.">
<polygon fill="white" stroke="#666666" points="227.38,-96 87.62,-96 87.62,-76 227.38,-76 227.38,-96"/>
<text text-anchor="middle" x="157.5" y="-82.5" font-family="Helvetica,sans-Serif" font-size="10.00">interficie.VistaMenuPrincipal</text>
</a>
</g>
</g>
<!-- Node0&#45;&gt;Node11 -->
<g id="edge23_Node000000_Node000011" class="edge">
<title>Node0&#45;&gt;Node11</title>
<g id="a_edge23_Node000000_Node000011"><a xlink:title=" ">
<path fill="none" stroke="#63b8ff" d="M29.19,-216.42C35.4,-186.86 50.78,-134.11 85,-105 89.01,-101.59 93.57,-98.78 98.4,-96.47"/>
<polygon fill="#63b8ff" stroke="#63b8ff" points="25.79,-215.57 27.35,-226.05 32.67,-216.89 25.79,-215.57"/>
</a>
</g>
</g>
<!-- Node12 -->
<g id="Node000012" class="node">
<title>Node12</title>
<g id="a_Node000012"><a xlink:href="$classinterficie_1_1_vista_partida.html" xlink:title="Classe que representa la interfície gràfica d&#39;una partida de Scrabble.">
<polygon fill="white" stroke="#666666" points="212,-58 103,-58 103,-38 212,-38 212,-58"/>
<text text-anchor="middle" x="157.5" y="-44.5" font-family="Helvetica,sans-Serif" font-size="10.00">interficie.VistaPartida</text>
</a>
</g>
</g>
<!-- Node0&#45;&gt;Node12 -->
<g id="edge24_Node000000_Node000012" class="edge">
<title>Node0&#45;&gt;Node12</title>
<g id="a_edge24_Node000000_Node000012"><a xlink:title=" ">
<path fill="none" stroke="#63b8ff" d="M26.7,-216.63C29.91,-180.46 41.71,-107.16 85,-67 90.09,-62.28 96.21,-58.71 102.7,-56.01"/>
<polygon fill="#63b8ff" stroke="#63b8ff" points="23.24,-216.03 26,-226.26 30.22,-216.54 23.24,-216.03"/>
</a>
</g>
</g>
<!-- Node13 -->
<g id="Node000013" class="node">
<title>Node13</title>
<g id="a_Node000013"><a xlink:href="$classinterficie_1_1_vista_ranking_partida.html" xlink:title="Finestra que mostra el rànquing i el resultat final d&#39;una partida de Scrabble.">
<polygon fill="white" stroke="#666666" points="230,-20 85,-20 85,0 230,0 230,-20"/>
<text text-anchor="middle" x="157.5" y="-6.5" font-family="Helvetica,sans-Serif" font-size="10.00">interficie.VistaRankingPartida</text>
</a>
</g>
</g>
<!-- Node0&#45;&gt;Node13 -->
<g id="edge25_Node000000_Node000013" class="edge">
<title>Node0&#45;&gt;Node13</title>
<g id="a_edge25_Node000000_Node000013"><a xlink:title=" ">
<path fill="none" stroke="#63b8ff" d="M25.09,-216.15C25.55,-173.81 32.81,-80.28 85,-29 88.48,-25.58 92.5,-22.76 96.83,-20.43"/>
<polygon fill="#63b8ff" stroke="#63b8ff" points="21.59,-216.04 25.12,-226.02 28.59,-216.01 21.59,-216.04"/>
</a>
</g>
</g>
</g>
</svg>
