<?xml version="1.0" encoding="UTF-8" standalone="no"?>
<!DOCTYPE svg PUBLIC "-//W3C//DTD SVG 1.1//EN"
 "http://www.w3.org/Graphics/SVG/1.1/DTD/svg11.dtd">
<!-- Generated by graphviz version 12.2.1 (20241206.2353)
 -->
<!-- Title: Jerarquia Gràfica de la Classe Pages: 1 -->
<svg width="279pt" height="66pt"
 viewBox="0.00 0.00 279.25 66.00" xmlns="http://www.w3.org/2000/svg" xmlns:xlink="http://www.w3.org/1999/xlink">
<g id="graph0" class="graph" transform="scale(1 1) rotate(0) translate(4 62)">
<title>Jerarquia Gràfica de la Classe</title>
<!-- Node0 -->
<g id="Node000000" class="node">
<title>Node0</title>
<g id="a_Node000000"><a xlink:title=" ">
<polygon fill="#e0e0e0" stroke="#999999" points="66.62,-58 22.12,-58 22.12,-38 66.62,-38 66.62,-58"/>
<text text-anchor="middle" x="44.38" y="-44.5" font-family="Helvetica,sans-Serif" font-size="10.00">JLabel</text>
</a>
</g>
</g>
<!-- Node1 -->
<g id="Node000001" class="node">
<title>Node1</title>
<g id="a_Node000001"><a xlink:href="$classinterficie_1_1_vista_consultar_estadistiques_1_1_avatar_renderer.html" xlink:title="Renderer personalitzat per mostrar l’avatar amb imatge i nom.">
<polygon fill="white" stroke="#666666" points="271.25,-45 124.75,-45 124.75,-13 271.25,-13 271.25,-45"/>
<text text-anchor="start" x="132.75" y="-31.5" font-family="Helvetica,sans-Serif" font-size="10.00">interficie.VistaConsultar</text>
<text text-anchor="middle" x="198" y="-19.5" font-family="Helvetica,sans-Serif" font-size="10.00">Estadistiques.AvatarRenderer</text>
</a>
</g>
</g>
<!-- Node0&#45;&gt;Node1 -->
<g id="edge26_Node000000_Node000001" class="edge">
<title>Node0&#45;&gt;Node1</title>
<g id="a_edge26_Node000000_Node000001"><a xlink:title=" ">
<path fill="none" stroke="#63b8ff" d="M78.25,-43.88C91.82,-42.18 108.13,-40.14 124.26,-38.12"/>
<polygon fill="#63b8ff" stroke="#63b8ff" points="78.09,-40.37 68.6,-45.09 78.96,-47.32 78.09,-40.37"/>
</a>
</g>
</g>
<!-- Node2 -->
<g id="Node000002" class="node">
<title>Node2</title>
<g id="a_Node000002"><a xlink:title=" ">
<polygon fill="#e0e0e0" stroke="#999999" points="88.75,-20 0,-20 0,0 88.75,0 88.75,-20"/>
<text text-anchor="middle" x="44.38" y="-6.5" font-family="Helvetica,sans-Serif" font-size="10.00">ListCellRenderer</text>
</a>
</g>
</g>
<!-- Node2&#45;&gt;Node1 -->
<g id="edge27_Node000002_Node000001" class="edge">
<title>Node2&#45;&gt;Node1</title>
<g id="a_edge27_Node000002_Node000001"><a xlink:title=" ">
<path fill="none" stroke="#63b8ff" d="M100.39,-16.89C108.2,-17.87 116.32,-18.89 124.39,-19.9"/>
<polygon fill="#63b8ff" stroke="#63b8ff" points="101.09,-13.45 90.73,-15.68 100.22,-20.4 101.09,-13.45"/>
</a>
</g>
</g>
</g>
</svg>
