<?xml version="1.0" encoding="UTF-8" standalone="no"?>
<!DOCTYPE svg PUBLIC "-//W3C//DTD SVG 1.1//EN"
 "http://www.w3.org/Graphics/SVG/1.1/DTD/svg11.dtd">
<!-- Generated by graphviz version 12.2.1 (20241206.2353)
 -->
<!-- Title: FONTS/persistencia/PartidaIO.java Pages: 1 -->
<svg width="959pt" height="96pt"
 viewBox="0.00 0.00 958.62 96.00" xmlns="http://www.w3.org/2000/svg" xmlns:xlink="http://www.w3.org/1999/xlink">
<g id="graph0" class="graph" transform="scale(1 1) rotate(0) translate(4 92)">
<title>FONTS/persistencia/PartidaIO.java</title>
<!-- Node1 -->
<g id="Node000001" class="node">
<title>Node1</title>
<g id="a_Node000001"><a xlink:title=" ">
<polygon fill="#999999" stroke="#666666" points="570.5,-88 465.25,-88 465.25,-56 570.5,-56 570.5,-88"/>
<text text-anchor="start" x="473.25" y="-74.5" font-family="Helvetica,sans-Serif" font-size="10.00">FONTS/persistencia</text>
<text text-anchor="middle" x="517.88" y="-62.5" font-family="Helvetica,sans-Serif" font-size="10.00">/PartidaIO.java</text>
</a>
</g>
</g>
<!-- Node2 -->
<g id="Node000002" class="node">
<title>Node2</title>
<g id="a_Node000002"><a xlink:title=" ">
<polygon fill="#e0e0e0" stroke="#999999" points="121.75,-20 0,-20 0,0 121.75,0 121.75,-20"/>
<text text-anchor="middle" x="60.88" y="-6.5" font-family="Helvetica,sans-Serif" font-size="10.00">domini.jugadors.Jugador</text>
</a>
</g>
</g>
<!-- Node1&#45;&gt;Node2 -->
<g id="edge1_Node000001_Node000002" class="edge">
<title>Node1&#45;&gt;Node2</title>
<g id="a_edge1_Node000001_Node000002"><a xlink:title=" ">
<path fill="none" stroke="#63b8ff" d="M465,-64.06C383.13,-53.31 225.51,-32.61 133.17,-20.49"/>
<polygon fill="#63b8ff" stroke="#63b8ff" points="133.83,-17.05 123.46,-19.22 132.92,-23.99 133.83,-17.05"/>
</a>
</g>
</g>
<!-- Node3 -->
<g id="Node000003" class="node">
<title>Node3</title>
<g id="a_Node000003"><a xlink:title=" ">
<polygon fill="#e0e0e0" stroke="#999999" points="230.38,-20 139.38,-20 139.38,0 230.38,0 230.38,-20"/>
<text text-anchor="middle" x="184.88" y="-6.5" font-family="Helvetica,sans-Serif" font-size="10.00">domini.scrabble.*</text>
</a>
</g>
</g>
<!-- Node1&#45;&gt;Node3 -->
<g id="edge2_Node000001_Node000003" class="edge">
<title>Node1&#45;&gt;Node3</title>
<g id="a_edge2_Node000001_Node000003"><a xlink:title=" ">
<path fill="none" stroke="#63b8ff" d="M465.11,-61.49C404.25,-50.53 304.56,-32.57 241.94,-21.28"/>
<polygon fill="#63b8ff" stroke="#63b8ff" points="242.65,-17.85 232.19,-19.52 241.41,-24.74 242.65,-17.85"/>
</a>
</g>
</g>
<!-- Node4 -->
<g id="Node000004" class="node">
<title>Node4</title>
<g id="a_Node000004"><a xlink:title=" ">
<polygon fill="#e0e0e0" stroke="#999999" points="365.12,-20 248.62,-20 248.62,0 365.12,0 365.12,-20"/>
<text text-anchor="middle" x="306.88" y="-6.5" font-family="Helvetica,sans-Serif" font-size="10.00">com.google.gson.Gson</text>
</a>
</g>
</g>
<!-- Node1&#45;&gt;Node4 -->
<g id="edge3_Node000001_Node000004" class="edge">
<title>Node1&#45;&gt;Node4</title>
<g id="a_edge3_Node000001_Node000004"><a xlink:title=" ">
<path fill="none" stroke="#63b8ff" d="M464.9,-55.94C429.7,-45.93 384.01,-32.93 350.83,-23.5"/>
<polygon fill="#63b8ff" stroke="#63b8ff" points="352.11,-20.23 341.54,-20.86 350.2,-26.96 352.11,-20.23"/>
</a>
</g>
</g>
<!-- Node5 -->
<g id="Node000005" class="node">
<title>Node5</title>
<g id="a_Node000005"><a xlink:title=" ">
<polygon fill="#e0e0e0" stroke="#999999" points="530.12,-20 383.62,-20 383.62,0 530.12,0 530.12,-20"/>
<text text-anchor="middle" x="456.88" y="-6.5" font-family="Helvetica,sans-Serif" font-size="10.00">com.google.gson.GsonBuilder</text>
</a>
</g>
</g>
<!-- Node1&#45;&gt;Node5 -->
<g id="edge4_Node000001_Node000005" class="edge">
<title>Node1&#45;&gt;Node5</title>
<g id="a_edge4_Node000001_Node000005"><a xlink:title=" ">
<path fill="none" stroke="#63b8ff" d="M502.17,-55.55C493.69,-47.22 483.21,-36.91 474.47,-28.3"/>
<polygon fill="#63b8ff" stroke="#63b8ff" points="477.1,-25.99 467.52,-21.47 472.19,-30.98 477.1,-25.99"/>
</a>
</g>
</g>
<!-- Node6 -->
<g id="Node000006" class="node">
<title>Node6</title>
<g id="a_Node000006"><a xlink:title=" ">
<polygon fill="#e0e0e0" stroke="#999999" points="611.5,-20 548.25,-20 548.25,0 611.5,0 611.5,-20"/>
<text text-anchor="middle" x="579.88" y="-6.5" font-family="Helvetica,sans-Serif" font-size="10.00">java.io.File</text>
</a>
</g>
</g>
<!-- Node1&#45;&gt;Node6 -->
<g id="edge5_Node000001_Node000006" class="edge">
<title>Node1&#45;&gt;Node6</title>
<g id="a_edge5_Node000001_Node000006"><a xlink:title=" ">
<path fill="none" stroke="#63b8ff" d="M533.84,-55.55C542.45,-47.22 553.11,-36.91 561.99,-28.3"/>
<polygon fill="#63b8ff" stroke="#63b8ff" points="564.31,-30.93 569.07,-21.46 559.45,-25.9 564.31,-30.93"/>
</a>
</g>
</g>
<!-- Node7 -->
<g id="Node000007" class="node">
<title>Node7</title>
<g id="a_Node000007"><a xlink:title=" ">
<polygon fill="#e0e0e0" stroke="#999999" points="724.25,-20 629.5,-20 629.5,0 724.25,0 724.25,-20"/>
<text text-anchor="middle" x="676.88" y="-6.5" font-family="Helvetica,sans-Serif" font-size="10.00">java.io.FileReader</text>
</a>
</g>
</g>
<!-- Node1&#45;&gt;Node7 -->
<g id="edge6_Node000001_Node000007" class="edge">
<title>Node1&#45;&gt;Node7</title>
<g id="a_edge6_Node000001_Node000007"><a xlink:title=" ">
<path fill="none" stroke="#63b8ff" d="M558.82,-55.55C584.36,-45.91 616.89,-33.64 641.34,-24.41"/>
<polygon fill="#63b8ff" stroke="#63b8ff" points="642.41,-27.75 650.53,-20.94 639.94,-21.2 642.41,-27.75"/>
</a>
</g>
</g>
<!-- Node8 -->
<g id="Node000008" class="node">
<title>Node8</title>
<g id="a_Node000008"><a xlink:title=" ">
<polygon fill="#e0e0e0" stroke="#999999" points="831.25,-20 742.5,-20 742.5,0 831.25,0 831.25,-20"/>
<text text-anchor="middle" x="786.88" y="-6.5" font-family="Helvetica,sans-Serif" font-size="10.00">java.io.FileWriter</text>
</a>
</g>
</g>
<!-- Node1&#45;&gt;Node8 -->
<g id="edge7_Node000001_Node000008" class="edge">
<title>Node1&#45;&gt;Node8</title>
<g id="a_edge7_Node000001_Node000008"><a xlink:title=" ">
<path fill="none" stroke="#63b8ff" d="M570.7,-59.22C617.63,-48.75 685.91,-33.52 733.12,-22.99"/>
<polygon fill="#63b8ff" stroke="#63b8ff" points="733.87,-26.41 742.86,-20.82 732.34,-19.58 733.87,-26.41"/>
</a>
</g>
</g>
<!-- Node9 -->
<g id="Node000009" class="node">
<title>Node9</title>
<g id="a_Node000009"><a xlink:title=" ">
<polygon fill="#e0e0e0" stroke="#999999" points="950.62,-20 849.12,-20 849.12,0 950.62,0 950.62,-20"/>
<text text-anchor="middle" x="899.88" y="-6.5" font-family="Helvetica,sans-Serif" font-size="10.00">java.io.IOException</text>
</a>
</g>
</g>
<!-- Node1&#45;&gt;Node9 -->
<g id="edge8_Node000001_Node000009" class="edge">
<title>Node1&#45;&gt;Node9</title>
<g id="a_edge8_Node000001_Node000009"><a xlink:title=" ">
<path fill="none" stroke="#63b8ff" d="M570.99,-62.66C640.9,-51.68 763.57,-32.41 837.71,-20.76"/>
<polygon fill="#63b8ff" stroke="#63b8ff" points="837.9,-24.28 847.24,-19.27 836.82,-17.36 837.9,-24.28"/>
</a>
</g>
</g>
</g>
</svg>
