<?xml version="1.0" encoding="UTF-8" standalone="no"?>
<!DOCTYPE svg PUBLIC "-//W3C//DTD SVG 1.1//EN"
 "http://www.w3.org/Graphics/SVG/1.1/DTD/svg11.dtd">
<!-- Generated by graphviz version 12.2.1 (20241206.2353)
 -->
<!-- Title: FONTS/persistencia/UsuariIO.java Pages: 1 -->
<svg width="670pt" height="96pt"
 viewBox="0.00 0.00 670.00 96.00" xmlns="http://www.w3.org/2000/svg" xmlns:xlink="http://www.w3.org/1999/xlink">
<g id="graph0" class="graph" transform="scale(1 1) rotate(0) translate(4 92)">
<title>FONTS/persistencia/UsuariIO.java</title>
<!-- Node1 -->
<g id="Node000001" class="node">
<title>Node1</title>
<g id="a_Node000001"><a xlink:title=" ">
<polygon fill="#999999" stroke="#666666" points="391.88,-88 286.62,-88 286.62,-56 391.88,-56 391.88,-88"/>
<text text-anchor="start" x="294.62" y="-74.5" font-family="Helvetica,sans-Serif" font-size="10.00">FONTS/persistencia</text>
<text text-anchor="middle" x="339.25" y="-62.5" font-family="Helvetica,sans-Serif" font-size="10.00">/UsuariIO.java</text>
</a>
</g>
</g>
<!-- Node2 -->
<g id="Node000002" class="node">
<title>Node2</title>
<g id="a_Node000002"><a xlink:title=" ">
<polygon fill="#e0e0e0" stroke="#999999" points="116.5,-20 0,-20 0,0 116.5,0 116.5,-20"/>
<text text-anchor="middle" x="58.25" y="-6.5" font-family="Helvetica,sans-Serif" font-size="10.00">com.google.gson.Gson</text>
</a>
</g>
</g>
<!-- Node1&#45;&gt;Node2 -->
<g id="edge1_Node000001_Node000002" class="edge">
<title>Node1&#45;&gt;Node2</title>
<g id="a_edge1_Node000001_Node000002"><a xlink:title=" ">
<path fill="none" stroke="#63b8ff" d="M286.4,-59.71C237.03,-49.17 163.63,-33.5 113.5,-22.8"/>
<polygon fill="#63b8ff" stroke="#63b8ff" points="114.54,-19.44 104.03,-20.77 113.08,-26.29 114.54,-19.44"/>
</a>
</g>
</g>
<!-- Node3 -->
<g id="Node000003" class="node">
<title>Node3</title>
<g id="a_Node000003"><a xlink:title=" ">
<polygon fill="#e0e0e0" stroke="#999999" points="242,-20 134.5,-20 134.5,0 242,0 242,-20"/>
<text text-anchor="middle" x="188.25" y="-6.5" font-family="Helvetica,sans-Serif" font-size="10.00">domini.sessio.Usuari</text>
</a>
</g>
</g>
<!-- Node1&#45;&gt;Node3 -->
<g id="edge2_Node000001_Node000003" class="edge">
<title>Node1&#45;&gt;Node3</title>
<g id="a_edge2_Node000001_Node000003"><a xlink:title=" ">
<path fill="none" stroke="#63b8ff" d="M300.36,-55.55C276.22,-45.96 245.5,-33.75 222.32,-24.54"/>
<polygon fill="#63b8ff" stroke="#63b8ff" points="223.92,-21.41 213.33,-20.97 221.33,-27.91 223.92,-21.41"/>
</a>
</g>
</g>
<!-- Node4 -->
<g id="Node000004" class="node">
<title>Node4</title>
<g id="a_Node000004"><a xlink:title=" ">
<polygon fill="#e0e0e0" stroke="#999999" points="322.88,-20 259.62,-20 259.62,0 322.88,0 322.88,-20"/>
<text text-anchor="middle" x="291.25" y="-6.5" font-family="Helvetica,sans-Serif" font-size="10.00">java.io.File</text>
</a>
</g>
</g>
<!-- Node1&#45;&gt;Node4 -->
<g id="edge3_Node000001_Node000004" class="edge">
<title>Node1&#45;&gt;Node4</title>
<g id="a_edge3_Node000001_Node000004"><a xlink:title=" ">
<path fill="none" stroke="#63b8ff" d="M326.89,-55.55C320.5,-47.56 312.66,-37.76 305.96,-29.39"/>
<polygon fill="#63b8ff" stroke="#63b8ff" points="308.7,-27.21 299.72,-21.59 303.24,-31.59 308.7,-27.21"/>
</a>
</g>
</g>
<!-- Node5 -->
<g id="Node000005" class="node">
<title>Node5</title>
<g id="a_Node000005"><a xlink:title=" ">
<polygon fill="#e0e0e0" stroke="#999999" points="435.62,-20 340.88,-20 340.88,0 435.62,0 435.62,-20"/>
<text text-anchor="middle" x="388.25" y="-6.5" font-family="Helvetica,sans-Serif" font-size="10.00">java.io.FileReader</text>
</a>
</g>
</g>
<!-- Node1&#45;&gt;Node5 -->
<g id="edge4_Node000001_Node000005" class="edge">
<title>Node1&#45;&gt;Node5</title>
<g id="a_edge4_Node000001_Node000005"><a xlink:title=" ">
<path fill="none" stroke="#63b8ff" d="M351.87,-55.55C358.46,-47.48 366.57,-37.55 373.46,-29.12"/>
<polygon fill="#63b8ff" stroke="#63b8ff" points="375.99,-31.54 379.61,-21.58 370.57,-27.11 375.99,-31.54"/>
</a>
</g>
</g>
<!-- Node6 -->
<g id="Node000006" class="node">
<title>Node6</title>
<g id="a_Node000006"><a xlink:title=" ">
<polygon fill="#e0e0e0" stroke="#999999" points="542.62,-20 453.88,-20 453.88,0 542.62,0 542.62,-20"/>
<text text-anchor="middle" x="498.25" y="-6.5" font-family="Helvetica,sans-Serif" font-size="10.00">java.io.FileWriter</text>
</a>
</g>
</g>
<!-- Node1&#45;&gt;Node6 -->
<g id="edge5_Node000001_Node000006" class="edge">
<title>Node1&#45;&gt;Node6</title>
<g id="a_edge5_Node000001_Node000006"><a xlink:title=" ">
<path fill="none" stroke="#63b8ff" d="M380.2,-55.55C405.73,-45.91 438.26,-33.64 462.71,-24.41"/>
<polygon fill="#63b8ff" stroke="#63b8ff" points="463.78,-27.75 471.9,-20.94 461.31,-21.2 463.78,-27.75"/>
</a>
</g>
</g>
<!-- Node7 -->
<g id="Node000007" class="node">
<title>Node7</title>
<g id="a_Node000007"><a xlink:title=" ">
<polygon fill="#e0e0e0" stroke="#999999" points="662,-20 560.5,-20 560.5,0 662,0 662,-20"/>
<text text-anchor="middle" x="611.25" y="-6.5" font-family="Helvetica,sans-Serif" font-size="10.00">java.io.IOException</text>
</a>
</g>
</g>
<!-- Node1&#45;&gt;Node7 -->
<g id="edge6_Node000001_Node000007" class="edge">
<title>Node1&#45;&gt;Node7</title>
<g id="a_edge6_Node000001_Node000007"><a xlink:title=" ">
<path fill="none" stroke="#63b8ff" d="M392.34,-59.29C440,-48.78 509.63,-33.42 557.5,-22.86"/>
<polygon fill="#63b8ff" stroke="#63b8ff" points="558.08,-26.31 567.09,-20.74 556.57,-19.48 558.08,-26.31"/>
</a>
</g>
</g>
</g>
</svg>
