<?xml version="1.0" encoding="UTF-8" standalone="no"?>
<!DOCTYPE svg PUBLIC "-//W3C//DTD SVG 1.1//EN"
 "http://www.w3.org/Graphics/SVG/1.1/DTD/svg11.dtd">
<!-- Generated by graphviz version 12.2.1 (20241206.2353)
 -->
<!-- Title: FONTS/interficie/VistaConsultarEstadistiques.java Pages: 1 -->
<svg width="859pt" height="108pt"
 viewBox="0.00 0.00 858.50 108.00" xmlns="http://www.w3.org/2000/svg" xmlns:xlink="http://www.w3.org/1999/xlink">
<g id="graph0" class="graph" transform="scale(1 1) rotate(0) translate(4 104)">
<title>FONTS/interficie/VistaConsultarEstadistiques.java</title>
<!-- Node1 -->
<g id="Node000001" class="node">
<title>Node1</title>
<g id="a_Node000001"><a xlink:title=" ">
<polygon fill="#999999" stroke="#666666" points="484.75,-100 327.75,-100 327.75,-68 484.75,-68 484.75,-100"/>
<text text-anchor="start" x="335.75" y="-86.5" font-family="Helvetica,sans-Serif" font-size="10.00">FONTS/interficie/VistaConsultar</text>
<text text-anchor="middle" x="406.25" y="-74.5" font-family="Helvetica,sans-Serif" font-size="10.00">Estadistiques.java</text>
</a>
</g>
</g>
<!-- Node2 -->
<g id="Node000002" class="node">
<title>Node2</title>
<g id="a_Node000002"><a xlink:title=" ">
<polygon fill="#e0e0e0" stroke="#999999" points="74.5,-26 0,-26 0,-6 74.5,-6 74.5,-26"/>
<text text-anchor="middle" x="37.25" y="-12.5" font-family="Helvetica,sans-Serif" font-size="10.00">javax.swing.*</text>
</a>
</g>
</g>
<!-- Node1&#45;&gt;Node2 -->
<g id="edge1_Node000001_Node000002" class="edge">
<title>Node1&#45;&gt;Node2</title>
<g id="a_edge1_Node000001_Node000002"><a xlink:title=" ">
<path fill="none" stroke="#63b8ff" d="M327.57,-74.12C261.74,-65.85 165.63,-51.8 83.25,-32 80.46,-31.33 77.6,-30.57 74.74,-29.76"/>
<polygon fill="#63b8ff" stroke="#63b8ff" points="75.84,-26.44 65.25,-26.89 73.81,-33.14 75.84,-26.44"/>
</a>
</g>
</g>
<!-- Node3 -->
<g id="Node000003" class="node">
<title>Node3</title>
<g id="a_Node000003"><a xlink:title=" ">
<polygon fill="#e0e0e0" stroke="#999999" points="221.88,-32 92.62,-32 92.62,0 221.88,0 221.88,-32"/>
<text text-anchor="start" x="100.62" y="-18.5" font-family="Helvetica,sans-Serif" font-size="10.00">javax.swing.border.Empty</text>
<text text-anchor="middle" x="157.25" y="-6.5" font-family="Helvetica,sans-Serif" font-size="10.00">Border</text>
</a>
</g>
</g>
<!-- Node1&#45;&gt;Node3 -->
<g id="edge2_Node000001_Node000003" class="edge">
<title>Node1&#45;&gt;Node3</title>
<g id="a_edge2_Node000001_Node000003"><a xlink:title=" ">
<path fill="none" stroke="#63b8ff" d="M347.87,-67.53C311.63,-57.92 264.86,-45.52 226.72,-35.41"/>
<polygon fill="#63b8ff" stroke="#63b8ff" points="227.72,-32.06 217.16,-32.88 225.93,-38.82 227.72,-32.06"/>
</a>
</g>
</g>
<!-- Node4 -->
<g id="Node000004" class="node">
<title>Node4</title>
<g id="a_Node000004"><a xlink:title=" ">
<polygon fill="#e0e0e0" stroke="#999999" points="299,-26 239.5,-26 239.5,-6 299,-6 299,-26"/>
<text text-anchor="middle" x="269.25" y="-12.5" font-family="Helvetica,sans-Serif" font-size="10.00">java.awt.*</text>
</a>
</g>
</g>
<!-- Node1&#45;&gt;Node4 -->
<g id="edge3_Node000001_Node000004" class="edge">
<title>Node1&#45;&gt;Node4</title>
<g id="a_edge3_Node000001_Node000004"><a xlink:title=" ">
<path fill="none" stroke="#63b8ff" d="M374.13,-67.53C351.43,-56.59 321.22,-42.04 299.05,-31.36"/>
<polygon fill="#63b8ff" stroke="#63b8ff" points="300.78,-28.3 290.25,-27.12 297.74,-34.61 300.78,-28.3"/>
</a>
</g>
</g>
<!-- Node5 -->
<g id="Node000005" class="node">
<title>Node5</title>
<g id="a_Node000005"><a xlink:title=" ">
<polygon fill="#e0e0e0" stroke="#999999" points="403.5,-26 317,-26 317,-6 403.5,-6 403.5,-26"/>
<text text-anchor="middle" x="360.25" y="-12.5" font-family="Helvetica,sans-Serif" font-size="10.00">java.awt.event.*</text>
</a>
</g>
</g>
<!-- Node1&#45;&gt;Node5 -->
<g id="edge4_Node000001_Node000005" class="edge">
<title>Node1&#45;&gt;Node5</title>
<g id="a_edge4_Node000001_Node000005"><a xlink:title=" ">
<path fill="none" stroke="#63b8ff" d="M395.58,-67.69C388.89,-58.1 380.23,-45.67 373.16,-35.52"/>
<polygon fill="#63b8ff" stroke="#63b8ff" points="376.2,-33.76 367.61,-27.56 370.46,-37.76 376.2,-33.76"/>
</a>
</g>
</g>
<!-- Node6 -->
<g id="Node000006" class="node">
<title>Node6</title>
<g id="a_Node000006"><a xlink:title=" ">
<polygon fill="#e0e0e0" stroke="#999999" points="484.88,-26 421.62,-26 421.62,-6 484.88,-6 484.88,-26"/>
<text text-anchor="middle" x="453.25" y="-12.5" font-family="Helvetica,sans-Serif" font-size="10.00">java.io.File</text>
</a>
</g>
</g>
<!-- Node1&#45;&gt;Node6 -->
<g id="edge5_Node000001_Node000006" class="edge">
<title>Node1&#45;&gt;Node6</title>
<g id="a_edge5_Node000001_Node000006"><a xlink:title=" ">
<path fill="none" stroke="#63b8ff" d="M417.15,-67.69C423.98,-58.1 432.84,-45.67 440.06,-35.52"/>
<polygon fill="#63b8ff" stroke="#63b8ff" points="442.79,-37.73 445.74,-27.55 437.09,-33.66 442.79,-37.73"/>
</a>
</g>
</g>
<!-- Node7 -->
<g id="Node000007" class="node">
<title>Node7</title>
<g id="a_Node000007"><a xlink:title=" ">
<polygon fill="#e0e0e0" stroke="#999999" points="643.12,-26 503.38,-26 503.38,-6 643.12,-6 643.12,-26"/>
<text text-anchor="middle" x="573.25" y="-12.5" font-family="Helvetica,sans-Serif" font-size="10.00">controladors.CtrlPresentacio</text>
</a>
</g>
</g>
<!-- Node1&#45;&gt;Node7 -->
<g id="edge6_Node000001_Node000007" class="edge">
<title>Node1&#45;&gt;Node7</title>
<g id="a_edge6_Node000001_Node000007"><a xlink:title=" ">
<path fill="none" stroke="#63b8ff" d="M445.4,-67.53C473.7,-56.34 511.58,-41.37 538.75,-30.64"/>
<polygon fill="#63b8ff" stroke="#63b8ff" points="539.89,-33.95 547.91,-27.02 537.32,-27.44 539.89,-33.95"/>
</a>
</g>
</g>
<!-- Node8 -->
<g id="Node000008" class="node">
<title>Node8</title>
<g id="a_Node000008"><a xlink:title=" ">
<polygon fill="#e0e0e0" stroke="#999999" points="751.75,-26 660.75,-26 660.75,-6 751.75,-6 751.75,-26"/>
<text text-anchor="middle" x="706.25" y="-12.5" font-family="Helvetica,sans-Serif" font-size="10.00">domini.jugadors.*</text>
</a>
</g>
</g>
<!-- Node1&#45;&gt;Node8 -->
<g id="edge7_Node000001_Node000008" class="edge">
<title>Node1&#45;&gt;Node8</title>
<g id="a_edge7_Node000001_Node000008"><a xlink:title=" ">
<path fill="none" stroke="#63b8ff" d="M485.21,-68.02C533.6,-58.49 596.72,-45.45 652.25,-32 655.59,-31.19 659.04,-30.32 662.51,-29.42"/>
<polygon fill="#63b8ff" stroke="#63b8ff" points="663.28,-32.83 672.04,-26.86 661.47,-26.07 663.28,-32.83"/>
</a>
</g>
</g>
<!-- Node9 -->
<g id="Node000009" class="node">
<title>Node9</title>
<g id="a_Node000009"><a xlink:title=" ">
<polygon fill="#e0e0e0" stroke="#999999" points="850.5,-26 770,-26 770,-6 850.5,-6 850.5,-26"/>
<text text-anchor="middle" x="810.25" y="-12.5" font-family="Helvetica,sans-Serif" font-size="10.00">interficie.utils.*</text>
</a>
</g>
</g>
<!-- Node1&#45;&gt;Node9 -->
<g id="edge8_Node000001_Node000009" class="edge">
<title>Node1&#45;&gt;Node9</title>
<g id="a_edge8_Node000001_Node000009"><a xlink:title=" ">
<path fill="none" stroke="#63b8ff" d="M485.14,-75.2C557.5,-67.21 667.37,-52.98 761.25,-32 764.42,-31.29 767.69,-30.48 770.96,-29.61"/>
<polygon fill="#63b8ff" stroke="#63b8ff" points="771.83,-33 780.49,-26.89 769.92,-26.26 771.83,-33"/>
</a>
</g>
</g>
</g>
</svg>
