<?xml version="1.0" encoding="UTF-8" standalone="no"?>
<!DOCTYPE svg PUBLIC "-//W3C//DTD SVG 1.1//EN"
 "http://www.w3.org/Graphics/SVG/1.1/DTD/svg11.dtd">
<!-- Generated by graphviz version 12.2.1 (20241206.2353)
 -->
<!-- Title: FONTS/interficie/VistaMenuPrincipal.java Pages: 1 -->
<svg width="627pt" height="96pt"
 viewBox="0.00 0.00 626.88 96.00" xmlns="http://www.w3.org/2000/svg" xmlns:xlink="http://www.w3.org/1999/xlink">
<g id="graph0" class="graph" transform="scale(1 1) rotate(0) translate(4 92)">
<title>FONTS/interficie/VistaMenuPrincipal.java</title>
<!-- Node1 -->
<g id="Node000001" class="node">
<title>Node1</title>
<g id="a_Node000001"><a xlink:title=" ">
<polygon fill="#999999" stroke="#666666" points="394.75,-88 255.75,-88 255.75,-56 394.75,-56 394.75,-88"/>
<text text-anchor="start" x="263.75" y="-74.5" font-family="Helvetica,sans-Serif" font-size="10.00">FONTS/interficie/VistaMenu</text>
<text text-anchor="middle" x="325.25" y="-62.5" font-family="Helvetica,sans-Serif" font-size="10.00">Principal.java</text>
</a>
</g>
</g>
<!-- Node2 -->
<g id="Node000002" class="node">
<title>Node2</title>
<g id="a_Node000002"><a xlink:title=" ">
<polygon fill="#e0e0e0" stroke="#999999" points="74.5,-20 0,-20 0,0 74.5,0 74.5,-20"/>
<text text-anchor="middle" x="37.25" y="-6.5" font-family="Helvetica,sans-Serif" font-size="10.00">javax.swing.*</text>
</a>
</g>
</g>
<!-- Node1&#45;&gt;Node2 -->
<g id="edge1_Node000001_Node000002" class="edge">
<title>Node1&#45;&gt;Node2</title>
<g id="a_edge1_Node000001_Node000002"><a xlink:title=" ">
<path fill="none" stroke="#63b8ff" d="M255.53,-56.48C202.94,-45.52 132.13,-30.77 85.62,-21.08"/>
<polygon fill="#63b8ff" stroke="#63b8ff" points="86.62,-17.71 76.12,-19.1 85.19,-24.56 86.62,-17.71"/>
</a>
</g>
</g>
<!-- Node3 -->
<g id="Node000003" class="node">
<title>Node3</title>
<g id="a_Node000003"><a xlink:title=" ">
<polygon fill="#e0e0e0" stroke="#999999" points="232.12,-20 92.38,-20 92.38,0 232.12,0 232.12,-20"/>
<text text-anchor="middle" x="162.25" y="-6.5" font-family="Helvetica,sans-Serif" font-size="10.00">controladors.CtrlPresentacio</text>
</a>
</g>
</g>
<!-- Node1&#45;&gt;Node3 -->
<g id="edge2_Node000001_Node000003" class="edge">
<title>Node1&#45;&gt;Node3</title>
<g id="a_edge2_Node000001_Node000003"><a xlink:title=" ">
<path fill="none" stroke="#63b8ff" d="M283.27,-55.55C256.98,-45.87 223.44,-33.53 198.35,-24.29"/>
<polygon fill="#63b8ff" stroke="#63b8ff" points="199.82,-21.1 189.23,-20.93 197.4,-27.67 199.82,-21.1"/>
</a>
</g>
</g>
<!-- Node4 -->
<g id="Node000004" class="node">
<title>Node4</title>
<g id="a_Node000004"><a xlink:title=" ">
<polygon fill="#e0e0e0" stroke="#999999" points="310,-20 250.5,-20 250.5,0 310,0 310,-20"/>
<text text-anchor="middle" x="280.25" y="-6.5" font-family="Helvetica,sans-Serif" font-size="10.00">java.awt.*</text>
</a>
</g>
</g>
<!-- Node1&#45;&gt;Node4 -->
<g id="edge3_Node000001_Node000004" class="edge">
<title>Node1&#45;&gt;Node4</title>
<g id="a_edge3_Node000001_Node000004"><a xlink:title=" ">
<path fill="none" stroke="#63b8ff" d="M313.66,-55.55C307.67,-47.56 300.32,-37.76 294.04,-29.39"/>
<polygon fill="#63b8ff" stroke="#63b8ff" points="297.01,-27.52 288.21,-21.62 291.41,-31.72 297.01,-27.52"/>
</a>
</g>
</g>
<!-- Node5 -->
<g id="Node000005" class="node">
<title>Node5</title>
<g id="a_Node000005"><a xlink:title=" ">
<polygon fill="#e0e0e0" stroke="#999999" points="414.5,-20 328,-20 328,0 414.5,0 414.5,-20"/>
<text text-anchor="middle" x="371.25" y="-6.5" font-family="Helvetica,sans-Serif" font-size="10.00">java.awt.event.*</text>
</a>
</g>
</g>
<!-- Node1&#45;&gt;Node5 -->
<g id="edge4_Node000001_Node000005" class="edge">
<title>Node1&#45;&gt;Node5</title>
<g id="a_edge4_Node000001_Node000005"><a xlink:title=" ">
<path fill="none" stroke="#63b8ff" d="M337.1,-55.55C343.22,-47.56 350.73,-37.76 357.15,-29.39"/>
<polygon fill="#63b8ff" stroke="#63b8ff" points="359.81,-31.67 363.12,-21.61 354.25,-27.42 359.81,-31.67"/>
</a>
</g>
</g>
<!-- Node6 -->
<g id="Node000006" class="node">
<title>Node6</title>
<g id="a_Node000006"><a xlink:title=" ">
<polygon fill="#e0e0e0" stroke="#999999" points="495.88,-20 432.62,-20 432.62,0 495.88,0 495.88,-20"/>
<text text-anchor="middle" x="464.25" y="-6.5" font-family="Helvetica,sans-Serif" font-size="10.00">java.io.File</text>
</a>
</g>
</g>
<!-- Node1&#45;&gt;Node6 -->
<g id="edge5_Node000001_Node000006" class="edge">
<title>Node1&#45;&gt;Node6</title>
<g id="a_edge5_Node000001_Node000006"><a xlink:title=" ">
<path fill="none" stroke="#63b8ff" d="M361.05,-55.55C382.97,-46.09 410.79,-34.08 432.02,-24.91"/>
<polygon fill="#63b8ff" stroke="#63b8ff" points="433.27,-28.18 441.07,-21.01 430.5,-21.76 433.27,-28.18"/>
</a>
</g>
</g>
<!-- Node7 -->
<g id="Node000007" class="node">
<title>Node7</title>
<g id="a_Node000007"><a xlink:title=" ">
<polygon fill="#e0e0e0" stroke="#999999" points="618.88,-20 513.62,-20 513.62,0 618.88,0 618.88,-20"/>
<text text-anchor="middle" x="566.25" y="-6.5" font-family="Helvetica,sans-Serif" font-size="10.00">interficie.utils.Colors</text>
</a>
</g>
</g>
<!-- Node1&#45;&gt;Node7 -->
<g id="edge6_Node000001_Node000007" class="edge">
<title>Node1&#45;&gt;Node7</title>
<g id="a_edge6_Node000001_Node000007"><a xlink:title=" ">
<path fill="none" stroke="#63b8ff" d="M387.31,-55.55C427.63,-45.51 479.47,-32.61 516.96,-23.27"/>
<polygon fill="#63b8ff" stroke="#63b8ff" points="517.78,-26.67 526.64,-20.86 516.09,-19.88 517.78,-26.67"/>
</a>
</g>
</g>
</g>
</svg>
