<?xml version="1.0" encoding="UTF-8" standalone="no"?>
<!DOCTYPE svg PUBLIC "-//W3C//DTD SVG 1.1//EN"
 "http://www.w3.org/Graphics/SVG/1.1/DTD/svg11.dtd">
<!-- Generated by graphviz version 12.2.1 (20241206.2353)
 -->
<!-- Title: FONTS/interficie/VistaRankingPartida.java Pages: 1 -->
<svg width="879pt" height="96pt"
 viewBox="0.00 0.00 879.00 96.00" xmlns="http://www.w3.org/2000/svg" xmlns:xlink="http://www.w3.org/1999/xlink">
<g id="graph0" class="graph" transform="scale(1 1) rotate(0) translate(4 92)">
<title>FONTS/interficie/VistaRankingPartida.java</title>
<!-- Node1 -->
<g id="Node000001" class="node">
<title>Node1</title>
<g id="a_Node000001"><a xlink:title=" ">
<polygon fill="#999999" stroke="#666666" points="512.75,-88 361.75,-88 361.75,-56 512.75,-56 512.75,-88"/>
<text text-anchor="start" x="369.75" y="-74.5" font-family="Helvetica,sans-Serif" font-size="10.00">FONTS/interficie/VistaRanking</text>
<text text-anchor="middle" x="437.25" y="-62.5" font-family="Helvetica,sans-Serif" font-size="10.00">Partida.java</text>
</a>
</g>
</g>
<!-- Node2 -->
<g id="Node000002" class="node">
<title>Node2</title>
<g id="a_Node000002"><a xlink:title=" ">
<polygon fill="#e0e0e0" stroke="#999999" points="74.5,-20 0,-20 0,0 74.5,0 74.5,-20"/>
<text text-anchor="middle" x="37.25" y="-6.5" font-family="Helvetica,sans-Serif" font-size="10.00">javax.swing.*</text>
</a>
</g>
</g>
<!-- Node1&#45;&gt;Node2 -->
<g id="edge1_Node000001_Node000002" class="edge">
<title>Node1&#45;&gt;Node2</title>
<g id="a_edge1_Node000001_Node000002"><a xlink:title=" ">
<path fill="none" stroke="#63b8ff" d="M361.46,-61.2C292.26,-52 186.86,-37.34 86.18,-20.43"/>
<polygon fill="#63b8ff" stroke="#63b8ff" points="86.81,-16.99 76.37,-18.77 85.65,-23.89 86.81,-16.99"/>
</a>
</g>
</g>
<!-- Node3 -->
<g id="Node000003" class="node">
<title>Node3</title>
<g id="a_Node000003"><a xlink:title=" ">
<polygon fill="#e0e0e0" stroke="#999999" points="232.12,-20 92.38,-20 92.38,0 232.12,0 232.12,-20"/>
<text text-anchor="middle" x="162.25" y="-6.5" font-family="Helvetica,sans-Serif" font-size="10.00">controladors.CtrlPresentacio</text>
</a>
</g>
</g>
<!-- Node1&#45;&gt;Node3 -->
<g id="edge2_Node000001_Node000003" class="edge">
<title>Node1&#45;&gt;Node3</title>
<g id="a_edge2_Node000001_Node000003"><a xlink:title=" ">
<path fill="none" stroke="#63b8ff" d="M366.43,-55.55C319.83,-45.38 259.74,-32.27 216.84,-22.91"/>
<polygon fill="#63b8ff" stroke="#63b8ff" points="217.77,-19.53 207.25,-20.82 216.28,-26.37 217.77,-19.53"/>
</a>
</g>
</g>
<!-- Node4 -->
<g id="Node000004" class="node">
<title>Node4</title>
<g id="a_Node000004"><a xlink:title=" ">
<polygon fill="#e0e0e0" stroke="#999999" points="310,-20 250.5,-20 250.5,0 310,0 310,-20"/>
<text text-anchor="middle" x="280.25" y="-6.5" font-family="Helvetica,sans-Serif" font-size="10.00">java.awt.*</text>
</a>
</g>
</g>
<!-- Node1&#45;&gt;Node4 -->
<g id="edge3_Node000001_Node000004" class="edge">
<title>Node1&#45;&gt;Node4</title>
<g id="a_edge3_Node000001_Node000004"><a xlink:title=" ">
<path fill="none" stroke="#63b8ff" d="M396.82,-55.55C371.61,-45.91 339.48,-33.64 315.34,-24.41"/>
<polygon fill="#63b8ff" stroke="#63b8ff" points="316.87,-21.25 306.28,-20.95 314.37,-27.79 316.87,-21.25"/>
</a>
</g>
</g>
<!-- Node5 -->
<g id="Node000005" class="node">
<title>Node5</title>
<g id="a_Node000005"><a xlink:title=" ">
<polygon fill="#e0e0e0" stroke="#999999" points="432.88,-20 327.62,-20 327.62,0 432.88,0 432.88,-20"/>
<text text-anchor="middle" x="380.25" y="-6.5" font-family="Helvetica,sans-Serif" font-size="10.00">interficie.utils.Colors</text>
</a>
</g>
</g>
<!-- Node1&#45;&gt;Node5 -->
<g id="edge4_Node000001_Node000005" class="edge">
<title>Node1&#45;&gt;Node5</title>
<g id="a_edge4_Node000001_Node000005"><a xlink:title=" ">
<path fill="none" stroke="#63b8ff" d="M422.57,-55.55C414.74,-47.3 405.06,-37.12 396.94,-28.57"/>
<polygon fill="#63b8ff" stroke="#63b8ff" points="399.66,-26.34 390.23,-21.51 394.58,-31.17 399.66,-26.34"/>
</a>
</g>
</g>
<!-- Node6 -->
<g id="Node000006" class="node">
<title>Node6</title>
<g id="a_Node000006"><a xlink:title=" ">
<polygon fill="#e0e0e0" stroke="#999999" points="537.5,-20 451,-20 451,0 537.5,0 537.5,-20"/>
<text text-anchor="middle" x="494.25" y="-6.5" font-family="Helvetica,sans-Serif" font-size="10.00">java.awt.event.*</text>
</a>
</g>
</g>
<!-- Node1&#45;&gt;Node6 -->
<g id="edge5_Node000001_Node000006" class="edge">
<title>Node1&#45;&gt;Node6</title>
<g id="a_edge5_Node000001_Node000006"><a xlink:title=" ">
<path fill="none" stroke="#63b8ff" d="M451.93,-55.55C459.76,-47.3 469.44,-37.12 477.56,-28.57"/>
<polygon fill="#63b8ff" stroke="#63b8ff" points="479.92,-31.17 484.27,-21.51 474.84,-26.34 479.92,-31.17"/>
</a>
</g>
</g>
<!-- Node7 -->
<g id="Node000007" class="node">
<title>Node7</title>
<g id="a_Node000007"><a xlink:title=" ">
<polygon fill="#e0e0e0" stroke="#999999" points="670.75,-20 555.75,-20 555.75,0 670.75,0 670.75,-20"/>
<text text-anchor="middle" x="613.25" y="-6.5" font-family="Helvetica,sans-Serif" font-size="10.00">javax.sound.sampled.*</text>
</a>
</g>
</g>
<!-- Node1&#45;&gt;Node7 -->
<g id="edge6_Node000001_Node000007" class="edge">
<title>Node1&#45;&gt;Node7</title>
<g id="a_edge6_Node000001_Node000007"><a xlink:title=" ">
<path fill="none" stroke="#63b8ff" d="M482.57,-55.55C511.13,-45.81 547.6,-33.38 574.75,-24.13"/>
<polygon fill="#63b8ff" stroke="#63b8ff" points="575.63,-27.52 583.96,-20.98 573.37,-20.9 575.63,-27.52"/>
</a>
</g>
</g>
<!-- Node8 -->
<g id="Node000008" class="node">
<title>Node8</title>
<g id="a_Node000008"><a xlink:title=" ">
<polygon fill="#e0e0e0" stroke="#999999" points="751.88,-20 688.62,-20 688.62,0 751.88,0 751.88,-20"/>
<text text-anchor="middle" x="720.25" y="-6.5" font-family="Helvetica,sans-Serif" font-size="10.00">java.io.File</text>
</a>
</g>
</g>
<!-- Node1&#45;&gt;Node8 -->
<g id="edge7_Node000001_Node000008" class="edge">
<title>Node1&#45;&gt;Node8</title>
<g id="a_edge7_Node000001_Node000008"><a xlink:title=" ">
<path fill="none" stroke="#63b8ff" d="M512.3,-55.54C557.63,-46.14 616.85,-33.73 677.45,-20.59"/>
<polygon fill="#63b8ff" stroke="#63b8ff" points="677.87,-24.08 686.9,-18.54 676.39,-17.24 677.87,-24.08"/>
</a>
</g>
</g>
<!-- Node9 -->
<g id="Node000009" class="node">
<title>Node9</title>
<g id="a_Node000009"><a xlink:title=" ">
<polygon fill="#e0e0e0" stroke="#999999" points="871,-20 769.5,-20 769.5,0 871,0 871,-20"/>
<text text-anchor="middle" x="820.25" y="-6.5" font-family="Helvetica,sans-Serif" font-size="10.00">java.io.IOException</text>
</a>
</g>
</g>
<!-- Node1&#45;&gt;Node9 -->
<g id="edge8_Node000001_Node000009" class="edge">
<title>Node1&#45;&gt;Node9</title>
<g id="a_edge8_Node000001_Node000009"><a xlink:title=" ">
<path fill="none" stroke="#63b8ff" d="M512.92,-59.15C584.63,-47.91 691.07,-31.24 758,-20.75"/>
<polygon fill="#63b8ff" stroke="#63b8ff" points="758.37,-24.24 767.71,-19.23 757.29,-17.32 758.37,-24.24"/>
</a>
</g>
</g>
</g>
</svg>
