<?xml version="1.0" encoding="UTF-8" standalone="no"?>
<!DOCTYPE svg PUBLIC "-//W3C//DTD SVG 1.1//EN"
 "http://www.w3.org/Graphics/SVG/1.1/DTD/svg11.dtd">
<!-- Generated by graphviz version 12.2.1 (20241206.2353)
 -->
<!-- Title: domini.scrabble.Taulell.getCentreTaulell Pages: 1 -->
<svg width="719pt" height="90pt"
 viewBox="0.00 0.00 718.50 90.00" xmlns="http://www.w3.org/2000/svg" xmlns:xlink="http://www.w3.org/1999/xlink">
<g id="graph0" class="graph" transform="scale(1 1) rotate(0) translate(4 86)">
<title>domini.scrabble.Taulell.getCentreTaulell</title>
<!-- Node1 -->
<g id="Node000001" class="node">
<title>Node1</title>
<g id="a_Node000001"><a xlink:title="Mètode que calcula les coordenades del centre del taulell.">
<polygon fill="#999999" stroke="#666666" points="710.5,-57 579,-57 579,-25 710.5,-25 710.5,-57"/>
<text text-anchor="start" x="587" y="-43.5" font-family="Helvetica,sans-Serif" font-size="10.00">domini.scrabble.Taulell.get</text>
<text text-anchor="middle" x="644.75" y="-31.5" font-family="Helvetica,sans-Serif" font-size="10.00">CentreTaulell</text>
</a>
</g>
</g>
<!-- Node2 -->
<g id="Node000002" class="node">
<title>Node2</title>
<g id="a_Node000002"><a xlink:href="classdomini_1_1scrabble_1_1_taulell.html#ad10763e1db2abab4a552e5d99b693db7" target="_top" xlink:title="Retorna un Set amb les coordenades de les caselles que son anchors.">
<polygon fill="white" stroke="#666666" points="532.12,-82 400.62,-82 400.62,-50 532.12,-50 532.12,-82"/>
<text text-anchor="start" x="408.62" y="-68.5" font-family="Helvetica,sans-Serif" font-size="10.00">domini.scrabble.Taulell.get</text>
<text text-anchor="middle" x="466.38" y="-56.5" font-family="Helvetica,sans-Serif" font-size="10.00">Anchors</text>
</a>
</g>
</g>
<!-- Node1&#45;&gt;Node2 -->
<g id="edge1_Node000001_Node000002" class="edge">
<title>Node1&#45;&gt;Node2</title>
<g id="a_edge1_Node000001_Node000002"><a xlink:title=" ">
<path fill="none" stroke="#63b8ff" d="M567.53,-51.8C555.88,-53.45 543.95,-55.15 532.58,-56.76"/>
<polygon fill="#63b8ff" stroke="#63b8ff" points="567.67,-55.32 577.08,-50.45 566.68,-48.39 567.67,-55.32"/>
</a>
</g>
</g>
<!-- Node5 -->
<g id="Node000005" class="node">
<title>Node5</title>
<g id="a_Node000005"><a xlink:href="classcontroladors_1_1_ctrl_partida.html#ab65218f4ac10157e095836864c00a526" target="_top" xlink:title="Comprova si una paraula col·locada passa pel centre del taulell.">
<polygon fill="white" stroke="#666666" points="543,-32 389.75,-32 389.75,0 543,0 543,-32"/>
<text text-anchor="start" x="397.75" y="-18.5" font-family="Helvetica,sans-Serif" font-size="10.00">controladors.CtrlPartida.paraula</text>
<text text-anchor="middle" x="466.38" y="-6.5" font-family="Helvetica,sans-Serif" font-size="10.00">_centre</text>
</a>
</g>
</g>
<!-- Node1&#45;&gt;Node5 -->
<g id="edge4_Node000001_Node000005" class="edge">
<title>Node1&#45;&gt;Node5</title>
<g id="a_edge4_Node000001_Node000005"><a xlink:title=" ">
<path fill="none" stroke="#63b8ff" d="M567.4,-30.18C559.41,-29.05 551.29,-27.89 543.31,-26.76"/>
<polygon fill="#63b8ff" stroke="#63b8ff" points="566.68,-33.61 577.08,-31.55 567.67,-26.68 566.68,-33.61"/>
</a>
</g>
</g>
<!-- Node3 -->
<g id="Node000003" class="node">
<title>Node3</title>
<g id="a_Node000003"><a xlink:href="classdomini_1_1jugadors_1_1_maquina.html#afe864f5cb4ab5895e149c5aad0235400" target="_top" xlink:title="Busca la millor paraula en una direcció específica (horitzontal o vertical).">
<polygon fill="white" stroke="#666666" points="349.62,-82 193.38,-82 193.38,-50 349.62,-50 349.62,-82"/>
<text text-anchor="start" x="201.38" y="-68.5" font-family="Helvetica,sans-Serif" font-size="10.00">domini.jugadors.Maquina.search</text>
<text text-anchor="middle" x="271.5" y="-56.5" font-family="Helvetica,sans-Serif" font-size="10.00">BestWord</text>
</a>
</g>
</g>
<!-- Node2&#45;&gt;Node3 -->
<g id="edge2_Node000002_Node000003" class="edge">
<title>Node2&#45;&gt;Node3</title>
<g id="a_edge2_Node000002_Node000003"><a xlink:title=" ">
<path fill="none" stroke="#63b8ff" d="M389.16,-66C376.27,-66 362.86,-66 349.93,-66"/>
<polygon fill="#63b8ff" stroke="#63b8ff" points="388.83,-69.5 398.83,-66 388.83,-62.5 388.83,-69.5"/>
</a>
</g>
</g>
<!-- Node4 -->
<g id="Node000004" class="node">
<title>Node4</title>
<g id="a_Node000004"><a xlink:href="classdomini_1_1jugadors_1_1_maquina.html#a8b1f4889bc62ca862e4f87e55c66871e" target="_top" xlink:title="Busca la paraula amb la puntuació més alta donats un taulell i un diccionari.">
<polygon fill="white" stroke="#666666" points="145.75,-82 7.5,-82 7.5,-50 145.75,-50 145.75,-82"/>
<text text-anchor="start" x="15.5" y="-68.5" font-family="Helvetica,sans-Serif" font-size="10.00">domini.jugadors.Maquina.fer</text>
<text text-anchor="middle" x="76.62" y="-56.5" font-family="Helvetica,sans-Serif" font-size="10.00">Jugada</text>
</a>
</g>
</g>
<!-- Node3&#45;&gt;Node4 -->
<g id="edge3_Node000003_Node000004" class="edge">
<title>Node3&#45;&gt;Node4</title>
<g id="a_edge3_Node000003_Node000004"><a xlink:title=" ">
<path fill="none" stroke="#63b8ff" d="M181.53,-66C169.62,-66 157.55,-66 146.07,-66"/>
<polygon fill="#63b8ff" stroke="#63b8ff" points="181.37,-69.5 191.37,-66 181.37,-62.5 181.37,-69.5"/>
</a>
</g>
</g>
<!-- Node6 -->
<g id="Node000006" class="node">
<title>Node6</title>
<g id="a_Node000006"><a xlink:href="classcontroladors_1_1_ctrl_partida.html#a11dd5c5c7252681872e3ba7baf8213a8" target="_top" xlink:title="Comprova si una paraula és vàlida.">
<polygon fill="white" stroke="#666666" points="353.75,-32 189.25,-32 189.25,0 353.75,0 353.75,-32"/>
<text text-anchor="start" x="197.25" y="-18.5" font-family="Helvetica,sans-Serif" font-size="10.00">controladors.CtrlPartida.comprova</text>
<text text-anchor="middle" x="271.5" y="-6.5" font-family="Helvetica,sans-Serif" font-size="10.00">_paraula</text>
</a>
</g>
</g>
<!-- Node5&#45;&gt;Node6 -->
<g id="edge5_Node000005_Node000006" class="edge">
<title>Node5&#45;&gt;Node6</title>
<g id="a_edge5_Node000005_Node000006"><a xlink:title=" ">
<path fill="none" stroke="#63b8ff" d="M378.18,-16C370.16,-16 362.07,-16 354.11,-16"/>
<polygon fill="#63b8ff" stroke="#63b8ff" points="377.91,-19.5 387.91,-16 377.91,-12.5 377.91,-19.5"/>
</a>
</g>
</g>
<!-- Node7 -->
<g id="Node000007" class="node">
<title>Node7</title>
<g id="a_Node000007"><a xlink:href="classcontroladors_1_1_ctrl_partida.html#ad0f7d5edb502bc4956cfd54612209ea7" target="_top" xlink:title="Col·loca una paraula al taulell.">
<polygon fill="white" stroke="#666666" points="153.25,-32 0,-32 0,0 153.25,0 153.25,-32"/>
<text text-anchor="start" x="8" y="-18.5" font-family="Helvetica,sans-Serif" font-size="10.00">controladors.CtrlPartida.colocar</text>
<text text-anchor="middle" x="76.62" y="-6.5" font-family="Helvetica,sans-Serif" font-size="10.00">Paraula</text>
</a>
</g>
</g>
<!-- Node6&#45;&gt;Node7 -->
<g id="edge6_Node000006_Node000007" class="edge">
<title>Node6&#45;&gt;Node7</title>
<g id="a_edge6_Node000006_Node000007"><a xlink:title=" ">
<path fill="none" stroke="#63b8ff" d="M177.65,-16C169.6,-16 161.52,-16 153.63,-16"/>
<polygon fill="#63b8ff" stroke="#63b8ff" points="177.47,-19.5 187.47,-16 177.47,-12.5 177.47,-19.5"/>
</a>
</g>
</g>
</g>
</svg>
