<?xml version="1.0" encoding="UTF-8" standalone="no"?>
<!DOCTYPE svg PUBLIC "-//W3C//DTD SVG 1.1//EN"
 "http://www.w3.org/Graphics/SVG/1.1/DTD/svg11.dtd">
<!-- Generated by graphviz version 12.2.1 (20241206.2353)
 -->
<!-- Title: drivers.Driver.substituirCtrencada Pages: 1 -->
<!--zoomable 40 -->

<svg id="main" version="1.1" xmlns="http://www.w3.org/2000/svg" xmlns:xlink="http://www.w3.org/1999/xlink" xml:space="preserve" onload="init(evt)">

<style type="text/css"><![CDATA[
.node, .edge {opacity: 0.7;}
.node.selected, .edge.selected {opacity: 1;}
.edge:hover path { stroke: red; }
.edge:hover polygon { stroke: red; fill: red; }
]]></style>

<defs>
  <circle id="rim" cx="0" cy="0" r="7"/>
  <circle id="rim2" cx="0" cy="0" r="3.5"/>
  <g id="zoomPlus">
    <use xlink:href="#rim" fill="#404040"><set attributeName="fill" to="#808080" begin="zoomplus.mouseover" end="zoomplus.mouseout"/></use>
    <path d="M-4,0h8M0,-4v8" fill="none" stroke="white" stroke-width="1.5" pointer-events="none"/>
  </g>
  <g id="zoomMin">
    <use xlink:href="#rim" fill="#404040"><set attributeName="fill" to="#808080" begin="zoomminus.mouseover" end="zoomminus.mouseout"/></use>
    <path d="M-4,0h8" fill="none" stroke="white" stroke-width="1.5" pointer-events="none"/>
  </g>
  <g id="arrowUp" transform="translate(30 24)">
    <use xlink:href="#rim"/>
    <path pointer-events="none" fill="none" stroke="white" stroke-width="1.5" d="M0,-3.0v7 M-2.5,-0.5L0,-3.0L2.5,-0.5"/>
  </g>
  <g id="arrowRight" transform="rotate(90) translate(36 -43)">
    <use xlink:href="#rim"/>
    <path pointer-events="none" fill="none" stroke="white" stroke-width="1.5" d="M0,-3.0v7 M-2.5,-0.5L0,-3.0L2.5,-0.5"/>
  </g>
  <g id="arrowDown" transform="rotate(180) translate(-30 -48)">
    <use xlink:href="#rim"/>
    <path pointer-events="none" fill="none" stroke="white" stroke-width="1.5" d="M0,-3.0v7 M-2.5,-0.5L0,-3.0L2.5,-0.5"/>
  </g>
  <g id="arrowLeft" transform="rotate(270) translate(-36 17)">
    <use xlink:href="#rim"/>
    <path pointer-events="none" fill="none" stroke="white" stroke-width="1.5" d="M0,-3.0v7 M-2.5,-0.5L0,-3.0L2.5,-0.5"/>
  </g>
  <g id="resetDef">
    <use xlink:href="#rim2" fill="#404040"><set attributeName="fill" to="#808080" begin="reset.mouseover" end="reset.mouseout"/></use>
  </g>
</defs>
<script type="application/ecmascript">
var viewWidth = 934;
var viewHeight = 40;
var sectionId = 'dynsection-41';
</script>
<script type="application/ecmascript" xlink:href="svg.min.js"/>
<svg id="graph" class="graph">
<g id="viewport">
<title>drivers.Driver.substituirCtrencada</title>
<!-- Node1 -->
<g id="Node000001" class="node">
<title>Node1</title>
<g id="a_Node000001"><a xlink:title="Donada una seqüència de caràcters identifica qualsevol submot &quot;[VOCAL]?&quot; o &quot;?[VOCAL]&quot; i ho substituei...">
<polygon fill="#999999" stroke="#666666" points="926.25,-32 809,-32 809,0 926.25,0 926.25,-32"/>
<text text-anchor="start" x="817" y="-18.5" font-family="Helvetica,sans-Serif" font-size="10.00">drivers.Driver.substituir</text>
<text text-anchor="middle" x="867.62" y="-6.5" font-family="Helvetica,sans-Serif" font-size="10.00">Ctrencada</text>
</a>
</g>
</g>
<!-- Node2 -->
<g id="Node000002" class="node">
<title>Node2</title>
<g id="a_Node000002"><a xlink:href="classdrivers_1_1_driver.html#a1f0852212ac7d690fe9c705f9eadd737" target="_top" xlink:title="Donat un text entrat per terminal, és possible que el charSet de la consola no reconegui correctament...">
<polygon fill="white" stroke="#666666" points="773,-32 628,-32 628,0 773,0 773,-32"/>
<text text-anchor="start" x="636" y="-18.5" font-family="Helvetica,sans-Serif" font-size="10.00">drivers.Driver.corregir</text>
<text text-anchor="middle" x="700.5" y="-6.5" font-family="Helvetica,sans-Serif" font-size="10.00">_caracters_terminal_windows</text>
</a>
</g>
</g>
<!-- Node1&#45;&gt;Node2 -->
<g id="edge1_Node000001_Node000002" class="edge">
<title>Node1&#45;&gt;Node2</title>
<g id="a_edge1_Node000001_Node000002"><a xlink:title=" ">
<path fill="none" stroke="#63b8ff" d="M797.42,-16C789.5,-16 781.41,-16 773.45,-16"/>
<polygon fill="#63b8ff" stroke="#63b8ff" points="797.36,-19.5 807.36,-16 797.36,-12.5 797.36,-19.5"/>
</a>
</g>
</g>
<!-- Node3 -->
<g id="Node000003" class="node">
<title>Node3</title>
<g id="a_Node000003"><a xlink:href="classdrivers_1_1_driver.html#a0ebb5e3010ea1f086dc4fd28df56ae54" target="_top" xlink:title="Genera una llista amb les lletres i dígrafs del paràmetre.">
<polygon fill="white" stroke="#666666" points="592,-26 477.75,-26 477.75,-6 592,-6 592,-26"/>
<text text-anchor="middle" x="534.88" y="-12.5" font-family="Helvetica,sans-Serif" font-size="10.00">drivers.Driver.tokenize</text>
</a>
</g>
</g>
<!-- Node2&#45;&gt;Node3 -->
<g id="edge2_Node000002_Node000003" class="edge">
<title>Node2&#45;&gt;Node3</title>
<g id="a_edge2_Node000002_Node000003"><a xlink:title=" ">
<path fill="none" stroke="#63b8ff" d="M616.29,-16C608.18,-16 600.09,-16 592.34,-16"/>
<polygon fill="#63b8ff" stroke="#63b8ff" points="616.22,-19.5 626.22,-16 616.22,-12.5 616.22,-19.5"/>
</a>
</g>
</g>
<!-- Node4 -->
<g id="Node000004" class="node">
<title>Node4</title>
<g id="a_Node000004"><a xlink:href="classdrivers_1_1_driver.html#a2e8cde796339c2db37f3e7332bf695ea" target="_top" xlink:title="Col·loca una paraula al taulell.">
<polygon fill="white" stroke="#666666" points="441.75,-26 299.75,-26 299.75,-6 441.75,-6 441.75,-26"/>
<text text-anchor="middle" x="370.75" y="-12.5" font-family="Helvetica,sans-Serif" font-size="10.00">drivers.Driver.colocarParaula</text>
</a>
</g>
</g>
<!-- Node3&#45;&gt;Node4 -->
<g id="edge3_Node000003_Node000004" class="edge">
<title>Node3&#45;&gt;Node4</title>
<g id="a_edge3_Node000003_Node000004"><a xlink:title=" ">
<path fill="none" stroke="#63b8ff" d="M466.17,-16C458.25,-16 450.14,-16 442.18,-16"/>
<polygon fill="#63b8ff" stroke="#63b8ff" points="466.11,-19.5 476.11,-16 466.11,-12.5 466.11,-19.5"/>
</a>
</g>
</g>
<!-- Node5 -->
<g id="Node000005" class="node">
<title>Node5</title>
<g id="a_Node000005"><a xlink:href="classdrivers_1_1_driver.html#a13e38153634507d9ad6e24cb267237b9" target="_top" xlink:title="Juga una partida.">
<polygon fill="white" stroke="#666666" points="263.75,-26 134.5,-26 134.5,-6 263.75,-6 263.75,-26"/>
<text text-anchor="middle" x="199.12" y="-12.5" font-family="Helvetica,sans-Serif" font-size="10.00">drivers.Driver.jugarPartida</text>
</a>
</g>
</g>
<!-- Node4&#45;&gt;Node5 -->
<g id="edge4_Node000004_Node000005" class="edge">
<title>Node4&#45;&gt;Node5</title>
<g id="a_edge4_Node000004_Node000005"><a xlink:title=" ">
<path fill="none" stroke="#63b8ff" d="M288.01,-16C279.99,-16 271.94,-16 264.13,-16"/>
<polygon fill="#63b8ff" stroke="#63b8ff" points="287.77,-19.5 297.77,-16 287.77,-12.5 287.77,-19.5"/>
</a>
</g>
</g>
<!-- Node6 -->
<g id="Node000006" class="node">
<title>Node6</title>
<g id="a_Node000006"><a xlink:href="classdrivers_1_1_driver.html#a3f94ce3595725e82b34c92548e071d04" target="_top" xlink:title="Inici del driver.">
<polygon fill="white" stroke="#666666" points="98.5,-26 0,-26 0,-6 98.5,-6 98.5,-26"/>
<text text-anchor="middle" x="49.25" y="-12.5" font-family="Helvetica,sans-Serif" font-size="10.00">drivers.Driver.main</text>
</a>
</g>
</g>
<!-- Node5&#45;&gt;Node6 -->
<g id="edge5_Node000005_Node000006" class="edge">
<title>Node5&#45;&gt;Node6</title>
<g id="a_edge5_Node000005_Node000006"><a xlink:title=" ">
<path fill="none" stroke="#63b8ff" d="M122.66,-16C114.53,-16 106.43,-16 98.74,-16"/>
<polygon fill="#63b8ff" stroke="#63b8ff" points="122.61,-19.5 132.61,-16 122.61,-12.5 122.61,-19.5"/>
</a>
</g>
</g>
</g>
</svg>

<g id="navigator" transform="translate(0 0)" fill="#404254">
  <rect fill="#f2f5e9" fill-opacity="0.5" stroke="#606060" stroke-width=".5" x="0" y="0" width="60" height="60"/>
  <use id="zoomplus" xlink:href="#zoomPlus" x="17" y="9" onmousedown="handleZoom(evt,'in')"/>
  <use id="zoomminus" xlink:href="#zoomMin" x="42" y="9" onmousedown="handleZoom(evt,'out')"/>
  <use id="reset" xlink:href="#resetDef" x="30" y="36" onmousedown="handleReset()"/>
   <use id="arrowup" xlink:href="#arrowUp" x="0" y="0" onmousedown="handlePan(0,-1)"/>
  <use id="arrowright" xlink:href="#arrowRight" x="0" y="0" onmousedown="handlePan(1,0)"/>
  <use id="arrowdown" xlink:href="#arrowDown" x="0" y="0" onmousedown="handlePan(0,1)"/>
  <use id="arrowleft" xlink:href="#arrowLeft" x="0" y="0" onmousedown="handlePan(-1,0)"/>
</g>
<svg viewBox="0 0 15 15" width="100%" height="30px" preserveAspectRatio="xMaxYMin meet">
 <g id="arrow_out" transform="scale(0.3 0.3)">
  <a xlink:href="classdrivers_1_1_driver_a5337e850da710900d1ef6e2c4455a416_icgraph_org.svg" target="_base">
   <rect id="button" ry="5" rx="5" y="6" x="6" height="38" width="38"
        fill="#f2f5e9" fill-opacity="0.5" stroke="#606060" stroke-width="1.0"/>
   <path id="arrow"
     d="M 11.500037,31.436501 C 11.940474,20.09759 22.043105,11.32322 32.158766,21.979434 L 37.068811,17.246167 C 37.068811,17.246167 37.088388,32 37.088388,32 L 22.160133,31.978069 C 22.160133,31.978069 26.997745,27.140456 26.997745,27.140456 C 18.528582,18.264221 13.291696,25.230495 11.500037,31.436501 z"
     style="fill:#404040;"/>
  </a>
 </g>
</svg>

<style type='text/css'>
<![CDATA[
[data-mouse-over-selected='false'] { opacity: 0.7; }
[data-mouse-over-selected='true']  { opacity: 1.0; }
]]>
</style>
<script type="application/ecmascript"><![CDATA[
document.addEventListener('DOMContentLoaded', (event) => {
  highlightEdges();
  highlightAdjacentNodes();
});
]]></script>
</svg>
