<?xml version="1.0" encoding="UTF-8" standalone="no"?>
<!DOCTYPE svg PUBLIC "-//W3C//DTD SVG 1.1//EN"
 "http://www.w3.org/Graphics/SVG/1.1/DTD/svg11.dtd">
<!-- Generated by graphviz version 12.2.1 (20241206.2353)
 -->
<!-- Title: controladors.CtrlDomini.obtenirIdJugador Pages: 1 -->
<svg width="351pt" height="90pt"
 viewBox="0.00 0.00 350.50 90.00" xmlns="http://www.w3.org/2000/svg" xmlns:xlink="http://www.w3.org/1999/xlink">
<g id="graph0" class="graph" transform="scale(1 1) rotate(0) translate(4 86)">
<title>controladors.CtrlDomini.obtenirIdJugador</title>
<!-- Node1 -->
<g id="Node000001" class="node">
<title>Node1</title>
<g id="a_Node000001"><a xlink:title="Obté l&#39;identificador d&#39;un jugador registrat.">
<polygon fill="#999999" stroke="#666666" points="342.5,-57 191.5,-57 191.5,-25 342.5,-25 342.5,-57"/>
<text text-anchor="start" x="199.5" y="-43.5" font-family="Helvetica,sans-Serif" font-size="10.00">controladors.CtrlDomini.obtenir</text>
<text text-anchor="middle" x="267" y="-31.5" font-family="Helvetica,sans-Serif" font-size="10.00">IdJugador</text>
</a>
</g>
</g>
<!-- Node2 -->
<g id="Node000002" class="node">
<title>Node2</title>
<g id="a_Node000002"><a xlink:href="classcontroladors_1_1_ctrl_domini.html#aa9ac49fa6869b07b4cb23de318ea0d48" target="_top" xlink:title="Crear Partida.">
<polygon fill="white" stroke="#666666" points="138.62,-82 16.87,-82 16.87,-50 138.62,-50 138.62,-82"/>
<text text-anchor="start" x="24.88" y="-68.5" font-family="Helvetica,sans-Serif" font-size="10.00">controladors.CtrlDomini.</text>
<text text-anchor="middle" x="77.75" y="-56.5" font-family="Helvetica,sans-Serif" font-size="10.00">CrearPartida</text>
</a>
</g>
</g>
<!-- Node1&#45;&gt;Node2 -->
<g id="edge1_Node000001_Node000002" class="edge">
<title>Node1&#45;&gt;Node2</title>
<g id="a_edge1_Node000001_Node000002"><a xlink:title=" ">
<path fill="none" stroke="#63b8ff" d="M180.13,-52.46C166.26,-54.32 152.15,-56.2 139.05,-57.95"/>
<polygon fill="#63b8ff" stroke="#63b8ff" points="180.24,-55.98 189.69,-51.19 179.31,-49.04 180.24,-55.98"/>
</a>
</g>
</g>
<!-- Node3 -->
<g id="Node000003" class="node">
<title>Node3</title>
<g id="a_Node000003"><a xlink:href="classcontroladors_1_1_ctrl_domini.html#a6cfce66fee04b251667d4527c7f011e9" target="_top" xlink:title="Elimina un jugador registrat del sistema.">
<polygon fill="white" stroke="#666666" points="155.5,-32 0,-32 0,0 155.5,0 155.5,-32"/>
<text text-anchor="start" x="8" y="-18.5" font-family="Helvetica,sans-Serif" font-size="10.00">controladors.CtrlDomini.eliminar</text>
<text text-anchor="middle" x="77.75" y="-6.5" font-family="Helvetica,sans-Serif" font-size="10.00">Jugador</text>
</a>
</g>
</g>
<!-- Node1&#45;&gt;Node3 -->
<g id="edge2_Node000001_Node000003" class="edge">
<title>Node1&#45;&gt;Node3</title>
<g id="a_edge2_Node000001_Node000003"><a xlink:title=" ">
<path fill="none" stroke="#63b8ff" d="M179.93,-29.51C171.91,-28.44 163.82,-27.36 155.89,-26.3"/>
<polygon fill="#63b8ff" stroke="#63b8ff" points="179.31,-32.96 189.69,-30.81 180.24,-26.02 179.31,-32.96"/>
</a>
</g>
</g>
</g>
</svg>
