<?xml version="1.0" encoding="UTF-8" standalone="no"?>
<!DOCTYPE svg PUBLIC "-//W3C//DTD SVG 1.1//EN"
 "http://www.w3.org/Graphics/SVG/1.1/DTD/svg11.dtd">
<!-- Generated by graphviz version 12.2.1 (20241206.2353)
 -->
<!-- Title: domini.scrabble.Casella.getMultiplicador Pages: 1 -->
<!--zoomable 440 -->

<svg id="main" version="1.1" xmlns="http://www.w3.org/2000/svg" xmlns:xlink="http://www.w3.org/1999/xlink" xml:space="preserve" onload="init(evt)">

<style type="text/css"><![CDATA[
.node, .edge {opacity: 0.7;}
.node.selected, .edge.selected {opacity: 1;}
.edge:hover path { stroke: red; }
.edge:hover polygon { stroke: red; fill: red; }
]]></style>

<defs>
  <circle id="rim" cx="0" cy="0" r="7"/>
  <circle id="rim2" cx="0" cy="0" r="3.5"/>
  <g id="zoomPlus">
    <use xlink:href="#rim" fill="#404040"><set attributeName="fill" to="#808080" begin="zoomplus.mouseover" end="zoomplus.mouseout"/></use>
    <path d="M-4,0h8M0,-4v8" fill="none" stroke="white" stroke-width="1.5" pointer-events="none"/>
  </g>
  <g id="zoomMin">
    <use xlink:href="#rim" fill="#404040"><set attributeName="fill" to="#808080" begin="zoomminus.mouseover" end="zoomminus.mouseout"/></use>
    <path d="M-4,0h8" fill="none" stroke="white" stroke-width="1.5" pointer-events="none"/>
  </g>
  <g id="arrowUp" transform="translate(30 24)">
    <use xlink:href="#rim"/>
    <path pointer-events="none" fill="none" stroke="white" stroke-width="1.5" d="M0,-3.0v7 M-2.5,-0.5L0,-3.0L2.5,-0.5"/>
  </g>
  <g id="arrowRight" transform="rotate(90) translate(36 -43)">
    <use xlink:href="#rim"/>
    <path pointer-events="none" fill="none" stroke="white" stroke-width="1.5" d="M0,-3.0v7 M-2.5,-0.5L0,-3.0L2.5,-0.5"/>
  </g>
  <g id="arrowDown" transform="rotate(180) translate(-30 -48)">
    <use xlink:href="#rim"/>
    <path pointer-events="none" fill="none" stroke="white" stroke-width="1.5" d="M0,-3.0v7 M-2.5,-0.5L0,-3.0L2.5,-0.5"/>
  </g>
  <g id="arrowLeft" transform="rotate(270) translate(-36 17)">
    <use xlink:href="#rim"/>
    <path pointer-events="none" fill="none" stroke="white" stroke-width="1.5" d="M0,-3.0v7 M-2.5,-0.5L0,-3.0L2.5,-0.5"/>
  </g>
  <g id="resetDef">
    <use xlink:href="#rim2" fill="#404040"><set attributeName="fill" to="#808080" begin="reset.mouseover" end="reset.mouseout"/></use>
  </g>
</defs>
<script type="application/ecmascript">
var viewWidth = 1322;
var viewHeight = 440;
var sectionId = 'dynsection-5';
</script>
<script type="application/ecmascript" xlink:href="svg.min.js"/>
<svg id="graph" class="graph">
<g id="viewport">
<title>domini.scrabble.Casella.getMultiplicador</title>
<!-- Node1 -->
<g id="Node000001" class="node">
<title>Node1</title>
<g id="a_Node000001"><a xlink:title="Retorna el multiplicador de la casella.">
<polygon fill="#999999" stroke="#666666" points="1313.5,-314.82 1176.75,-314.82 1176.75,-282.82 1313.5,-282.82 1313.5,-314.82"/>
<text text-anchor="start" x="1184.75" y="-301.32" font-family="Helvetica,sans-Serif" font-size="10.00">domini.scrabble.Casella.get</text>
<text text-anchor="middle" x="1245.12" y="-289.32" font-family="Helvetica,sans-Serif" font-size="10.00">Multiplicador</text>
</a>
</g>
</g>
<!-- Node2 -->
<g id="Node000002" class="node">
<title>Node2</title>
<g id="a_Node000002"><a xlink:href="classdomini_1_1jugadors_1_1_maquina.html#a80169174406c5da6922feb0f4c854ac8" target="_top" xlink:title="Calcula la puntuació d&#39;una paraula col·locada en el taulell.">
<polygon fill="white" stroke="#666666" points="1140.75,-359.82 980,-359.82 980,-327.82 1140.75,-327.82 1140.75,-359.82"/>
<text text-anchor="start" x="988" y="-346.32" font-family="Helvetica,sans-Serif" font-size="10.00">domini.jugadors.Maquina.calcular</text>
<text text-anchor="middle" x="1060.38" y="-334.32" font-family="Helvetica,sans-Serif" font-size="10.00">Puntatge</text>
</a>
</g>
</g>
<!-- Node1&#45;&gt;Node2 -->
<g id="edge1_Node000001_Node000002" class="edge">
<title>Node1&#45;&gt;Node2</title>
<g id="a_edge1_Node000001_Node000002"><a xlink:title=" ">
<path fill="none" stroke="#63b8ff" d="M1166.35,-317.97C1153.67,-321.1 1140.64,-324.31 1128.25,-327.36"/>
<polygon fill="#63b8ff" stroke="#63b8ff" points="1167.03,-321.41 1175.9,-315.62 1165.36,-314.62 1167.03,-321.41"/>
</a>
</g>
</g>
<!-- Node8 -->
<g id="Node000008" class="node">
<title>Node8</title>
<g id="a_Node000008"><a xlink:href="classinterficie_1_1_vista_partida.html#a9f0d9c59b7bc013b948846f280acba77" target="_top" xlink:title="Actualitza la visualització del taulell de joc.">
<polygon fill="white" stroke="#666666" points="1135.5,-289.82 985.25,-289.82 985.25,-257.82 1135.5,-257.82 1135.5,-289.82"/>
<text text-anchor="start" x="993.25" y="-276.32" font-family="Helvetica,sans-Serif" font-size="10.00">interficie.VistaPartida.refrescar</text>
<text text-anchor="middle" x="1060.38" y="-264.32" font-family="Helvetica,sans-Serif" font-size="10.00">Taulell</text>
</a>
</g>
</g>
<!-- Node1&#45;&gt;Node8 -->
<g id="edge9_Node000001_Node000008" class="edge">
<title>Node1&#45;&gt;Node8</title>
<g id="a_edge9_Node000001_Node000008"><a xlink:title=" ">
<path fill="none" stroke="#63b8ff" d="M1165.05,-288.01C1155.35,-286.68 1145.45,-285.32 1135.81,-284.01"/>
<polygon fill="#63b8ff" stroke="#63b8ff" points="1164.45,-291.46 1174.84,-289.34 1165.4,-284.52 1164.45,-291.46"/>
</a>
</g>
</g>
<!-- Node3 -->
<g id="Node000003" class="node">
<title>Node3</title>
<g id="a_Node000003"><a xlink:href="classdomini_1_1jugadors_1_1_maquina.html#a247420aa69d81da6d3d1951d3b409a43" target="_top" xlink:title="Valora una paraula i actualitza la millor paraula trobada si és millor.">
<polygon fill="white" stroke="#666666" points="944,-413.82 787.75,-413.82 787.75,-381.82 944,-381.82 944,-413.82"/>
<text text-anchor="start" x="795.75" y="-400.32" font-family="Helvetica,sans-Serif" font-size="10.00">domini.jugadors.Maquina.valorar</text>
<text text-anchor="middle" x="865.88" y="-388.32" font-family="Helvetica,sans-Serif" font-size="10.00">Paraula</text>
</a>
</g>
</g>
<!-- Node2&#45;&gt;Node3 -->
<g id="edge2_Node000002_Node000003" class="edge">
<title>Node2&#45;&gt;Node3</title>
<g id="a_edge2_Node000002_Node000003"><a xlink:title=" ">
<path fill="none" stroke="#63b8ff" d="M989.77,-363.35C968.75,-369.25 945.89,-375.66 925.65,-381.34"/>
<polygon fill="#63b8ff" stroke="#63b8ff" points="990.43,-366.8 999.12,-360.73 988.54,-360.06 990.43,-366.8"/>
</a>
</g>
</g>
<!-- Node4 -->
<g id="Node000004" class="node">
<title>Node4</title>
<g id="a_Node000004"><a xlink:href="classdomini_1_1jugadors_1_1_maquina.html#a28fa4d863085aaaba920b95a47bf14b7" target="_top" xlink:title="Genera totes les paraules possibles a la dreta d&#39;una subparaula prefix.">
<polygon fill="white" stroke="#666666" points="751.75,-413.82 595.5,-413.82 595.5,-381.82 751.75,-381.82 751.75,-413.82"/>
<text text-anchor="start" x="603.5" y="-400.32" font-family="Helvetica,sans-Serif" font-size="10.00">domini.jugadors.Maquina.extend</text>
<text text-anchor="middle" x="673.62" y="-388.32" font-family="Helvetica,sans-Serif" font-size="10.00">Right</text>
</a>
</g>
</g>
<!-- Node3&#45;&gt;Node4 -->
<g id="edge3_Node000003_Node000004" class="edge">
<title>Node3&#45;&gt;Node4</title>
<g id="a_edge3_Node000003_Node000004"><a xlink:title=" ">
<path fill="none" stroke="#63b8ff" d="M776.23,-397.82C768.22,-397.82 760.15,-397.82 752.25,-397.82"/>
<polygon fill="#63b8ff" stroke="#63b8ff" points="775.98,-401.32 785.98,-397.82 775.98,-394.32 775.98,-401.32"/>
</a>
</g>
</g>
<!-- Node4&#45;&gt;Node4 -->
<g id="edge4_Node000004_Node000004" class="edge">
<title>Node4&#45;&gt;Node4</title>
<g id="a_edge4_Node000004_Node000004"><a xlink:title=" ">
<path fill="none" stroke="#63b8ff" d="M705.66,-425.53C700.32,-429.31 689.64,-431.82 673.62,-431.82 644.34,-431.82 632.9,-423.41 639.3,-414.27"/>
<polygon fill="#63b8ff" stroke="#63b8ff" points="709.09,-426.25 707.65,-415.75 702.23,-424.85 709.09,-426.25"/>
</a>
</g>
</g>
<!-- Node5 -->
<g id="Node000005" class="node">
<title>Node5</title>
<g id="a_Node000005"><a xlink:href="classdomini_1_1jugadors_1_1_maquina.html#a408520f7aa4d96099ecfa1bae76728b5" target="_top" xlink:title="Genera totes les subparaules prefix possibles cap a l&#39;esquerra d&#39;una casella anchor.">
<polygon fill="white" stroke="#666666" points="559.5,-407.82 378.5,-407.82 378.5,-387.82 559.5,-387.82 559.5,-407.82"/>
<text text-anchor="middle" x="469" y="-394.32" font-family="Helvetica,sans-Serif" font-size="10.00">domini.jugadors.Maquina.generateLeft</text>
</a>
</g>
</g>
<!-- Node4&#45;&gt;Node5 -->
<g id="edge5_Node000004_Node000005" class="edge">
<title>Node4&#45;&gt;Node5</title>
<g id="a_edge5_Node000004_Node000005"><a xlink:title=" ">
<path fill="none" stroke="#63b8ff" d="M583.71,-397.82C575.83,-397.82 567.85,-397.82 559.97,-397.82"/>
<polygon fill="#63b8ff" stroke="#63b8ff" points="583.64,-401.32 593.64,-397.82 583.64,-394.32 583.64,-401.32"/>
</a>
</g>
</g>
<!-- Node5&#45;&gt;Node5 -->
<g id="edge6_Node000005_Node000005" class="edge">
<title>Node5&#45;&gt;Node5</title>
<g id="a_edge6_Node000005_Node000005"><a xlink:title=" ">
<path fill="none" stroke="#63b8ff" d="M505.55,-418.93C501.19,-422.97 489.01,-425.82 469,-425.82 433.43,-425.82 422.59,-416.8 436.49,-408.16"/>
<polygon fill="#63b8ff" stroke="#63b8ff" points="508.83,-417.72 502.04,-409.58 502.27,-420.17 508.83,-417.72"/>
</a>
</g>
</g>
<!-- Node6 -->
<g id="Node000006" class="node">
<title>Node6</title>
<g id="a_Node000006"><a xlink:href="classdomini_1_1jugadors_1_1_maquina.html#afe864f5cb4ab5895e149c5aad0235400" target="_top" xlink:title="Busca la millor paraula en una direcció específica (horitzontal o vertical).">
<polygon fill="white" stroke="#666666" points="342.5,-413.82 186.25,-413.82 186.25,-381.82 342.5,-381.82 342.5,-413.82"/>
<text text-anchor="start" x="194.25" y="-400.32" font-family="Helvetica,sans-Serif" font-size="10.00">domini.jugadors.Maquina.search</text>
<text text-anchor="middle" x="264.38" y="-388.32" font-family="Helvetica,sans-Serif" font-size="10.00">BestWord</text>
</a>
</g>
</g>
<!-- Node5&#45;&gt;Node6 -->
<g id="edge7_Node000005_Node000006" class="edge">
<title>Node5&#45;&gt;Node6</title>
<g id="a_edge7_Node000005_Node000006"><a xlink:title=" ">
<path fill="none" stroke="#63b8ff" d="M366.8,-397.82C358.7,-397.82 350.59,-397.82 342.69,-397.82"/>
<polygon fill="#63b8ff" stroke="#63b8ff" points="366.73,-401.32 376.73,-397.82 366.73,-394.32 366.73,-401.32"/>
</a>
</g>
</g>
<!-- Node7 -->
<g id="Node000007" class="node">
<title>Node7</title>
<g id="a_Node000007"><a xlink:href="classdomini_1_1jugadors_1_1_maquina.html#a8b1f4889bc62ca862e4f87e55c66871e" target="_top" xlink:title="Busca la paraula amb la puntuació més alta donats un taulell i un diccionari.">
<polygon fill="white" stroke="#666666" points="144.25,-413.82 6,-413.82 6,-381.82 144.25,-381.82 144.25,-413.82"/>
<text text-anchor="start" x="14" y="-400.32" font-family="Helvetica,sans-Serif" font-size="10.00">domini.jugadors.Maquina.fer</text>
<text text-anchor="middle" x="75.12" y="-388.32" font-family="Helvetica,sans-Serif" font-size="10.00">Jugada</text>
</a>
</g>
</g>
<!-- Node6&#45;&gt;Node7 -->
<g id="edge8_Node000006_Node000007" class="edge">
<title>Node6&#45;&gt;Node7</title>
<g id="a_edge8_Node000006_Node000007"><a xlink:title=" ">
<path fill="none" stroke="#63b8ff" d="M174.56,-397.82C164.49,-397.82 154.35,-397.82 144.61,-397.82"/>
<polygon fill="#63b8ff" stroke="#63b8ff" points="174.35,-401.32 184.35,-397.82 174.35,-394.32 174.35,-401.32"/>
</a>
</g>
</g>
<!-- Node9 -->
<g id="Node000009" class="node">
<title>Node9</title>
<g id="a_Node000009"><a xlink:href="classinterficie_1_1_vista_partida.html#a7855e7a9cc41e1450c37054781ba6309" target="_top" xlink:title="Inicialitza els components de la interfície gràfica.">
<polygon fill="white" stroke="#666666" points="933.5,-159.82 798.25,-159.82 798.25,-139.82 933.5,-139.82 933.5,-159.82"/>
<text text-anchor="middle" x="865.88" y="-146.32" font-family="Helvetica,sans-Serif" font-size="10.00">interficie.VistaPartida.initUI</text>
</a>
</g>
</g>
<!-- Node8&#45;&gt;Node9 -->
<g id="edge10_Node000008_Node000009" class="edge">
<title>Node8&#45;&gt;Node9</title>
<g id="a_edge10_Node000008_Node000009"><a xlink:title=" ">
<path fill="none" stroke="#63b8ff" d="M1024.26,-251.21C982.31,-224.18 913.9,-180.12 882.97,-160.19"/>
<polygon fill="#63b8ff" stroke="#63b8ff" points="1022.24,-254.06 1032.54,-256.54 1026.03,-248.18 1022.24,-254.06"/>
</a>
</g>
</g>
<!-- Node10 -->
<g id="Node000010" class="node">
<title>Node10</title>
<g id="a_Node000010"><a xlink:href="classinterficie_1_1_vista_partida.html#abce8626a6a3750affe851e1f8bea2cb3" target="_top" xlink:title="Constructor de la classe VistaPartida.">
<polygon fill="white" stroke="#666666" points="729.62,-199.82 617.62,-199.82 617.62,-167.82 729.62,-167.82 729.62,-199.82"/>
<text text-anchor="start" x="625.62" y="-186.32" font-family="Helvetica,sans-Serif" font-size="10.00">interficie.VistaPartida.</text>
<text text-anchor="middle" x="673.62" y="-174.32" font-family="Helvetica,sans-Serif" font-size="10.00">VistaPartida</text>
</a>
</g>
</g>
<!-- Node8&#45;&gt;Node10 -->
<g id="edge29_Node000008_Node000010" class="edge">
<title>Node8&#45;&gt;Node10</title>
<g id="a_edge29_Node000008_Node000010"><a xlink:title=" ">
<path fill="none" stroke="#63b8ff" d="M978.04,-254.8C903.44,-237.35 794.96,-211.97 729.94,-196.76"/>
<polygon fill="#63b8ff" stroke="#63b8ff" points="977.25,-258.21 987.78,-257.08 978.84,-251.39 977.25,-258.21"/>
</a>
</g>
</g>
<!-- Node13 -->
<g id="Node000013" class="node">
<title>Node13</title>
<g id="a_Node000013"><a xlink:href="classinterficie_1_1_vista_partida.html#a485041b781e81c64fb5414207ff21d2a" target="_top" xlink:title="Actualitza la informació de la partida.">
<polygon fill="white" stroke="#666666" points="150.25,-281.82 0,-281.82 0,-249.82 150.25,-249.82 150.25,-281.82"/>
<text text-anchor="start" x="8" y="-268.32" font-family="Helvetica,sans-Serif" font-size="10.00">interficie.VistaPartida.refrescar</text>
<text text-anchor="middle" x="75.12" y="-256.32" font-family="Helvetica,sans-Serif" font-size="10.00">Informacio</text>
</a>
</g>
</g>
<!-- Node8&#45;&gt;Node13 -->
<g id="edge28_Node000008_Node000013" class="edge">
<title>Node8&#45;&gt;Node13</title>
<g id="a_edge28_Node000008_Node000013"><a xlink:title=" ">
<path fill="none" stroke="#63b8ff" d="M1001.17,-293.7C926.49,-317.39 792.49,-353.82 674.62,-353.82 674.62,-353.82 674.62,-353.82 468,-353.82 342.49,-353.82 305.64,-373.53 186.25,-334.82 151.27,-323.48 116.19,-298.61 95.32,-282.04"/>
<polygon fill="#63b8ff" stroke="#63b8ff" points="1001.86,-297.16 1010.31,-290.77 999.72,-290.49 1001.86,-297.16"/>
</a>
</g>
</g>
<!-- Node9&#45;&gt;Node10 -->
<g id="edge11_Node000009_Node000010" class="edge">
<title>Node9&#45;&gt;Node10</title>
<g id="a_edge11_Node000009_Node000010"><a xlink:title=" ">
<path fill="none" stroke="#63b8ff" d="M786.48,-157.18C767.56,-160.35 747.73,-164.04 730.1,-167.71"/>
<polygon fill="#63b8ff" stroke="#63b8ff" points="787,-160.64 796.31,-155.57 785.87,-153.73 787,-160.64"/>
</a>
</g>
</g>
<!-- Node10&#45;&gt;Node9 -->
<g id="edge26_Node000010_Node000009" class="edge">
<title>Node10&#45;&gt;Node9</title>
<g id="a_edge26_Node000010_Node000009"><a xlink:title=" ">
<path fill="none" stroke="#63b8ff" d="M740.99,-178.43C772.91,-173.37 809.61,-166.35 834.73,-160.3"/>
<polygon fill="#63b8ff" stroke="#63b8ff" points="740.77,-174.92 731.42,-179.91 741.83,-181.84 740.77,-174.92"/>
</a>
</g>
</g>
<!-- Node10&#45;&gt;Node10 -->
<g id="edge27_Node000010_Node000010" class="edge">
<title>Node10&#45;&gt;Node10</title>
<g id="a_edge27_Node000010_Node000010"><a xlink:title=" ">
<path fill="none" stroke="#63b8ff" d="M705.66,-211.53C700.32,-215.31 689.64,-217.82 673.62,-217.82 644.34,-217.82 632.9,-209.41 639.3,-200.27"/>
<polygon fill="#63b8ff" stroke="#63b8ff" points="709.09,-212.25 707.65,-201.75 702.23,-210.85 709.09,-212.25"/>
</a>
</g>
</g>
<!-- Node11 -->
<g id="Node000011" class="node">
<title>Node11</title>
<g id="a_Node000011"><a xlink:href="classinterficie_1_1_vista_partida.html#a6bd7550fc714ba5195c8b55ffe3d973c" target="_top" xlink:title="Afegeix les fitxes d&#39;un jugador al seu rack.">
<polygon fill="white" stroke="#666666" points="537,-243.82 401,-243.82 401,-211.82 537,-211.82 537,-243.82"/>
<text text-anchor="start" x="409" y="-230.32" font-family="Helvetica,sans-Serif" font-size="10.00">interficie.VistaPartida.afegir</text>
<text text-anchor="middle" x="469" y="-218.32" font-family="Helvetica,sans-Serif" font-size="10.00">FitxesARack</text>
</a>
</g>
</g>
<!-- Node10&#45;&gt;Node11 -->
<g id="edge12_Node000010_Node000011" class="edge">
<title>Node10&#45;&gt;Node11</title>
<g id="a_edge12_Node000010_Node000011"><a xlink:title=" ">
<path fill="none" stroke="#63b8ff" d="M606.27,-198.23C584.12,-203.04 559.42,-208.41 537.21,-213.23"/>
<polygon fill="#63b8ff" stroke="#63b8ff" points="606.75,-201.71 615.78,-196.17 605.26,-194.87 606.75,-201.71"/>
</a>
</g>
</g>
<!-- Node14 -->
<g id="Node000014" class="node">
<title>Node14</title>
<g id="a_Node000014"><a xlink:href="classinterficie_1_1_vista_partida.html#ae6809bc2e7efc03077c111367571f788" target="_top" xlink:title="Afegeix maquetes al rack de l&#39;oponent.">
<polygon fill="white" stroke="#666666" points="537,-155.82 401,-155.82 401,-123.82 537,-123.82 537,-155.82"/>
<text text-anchor="start" x="409" y="-142.32" font-family="Helvetica,sans-Serif" font-size="10.00">interficie.VistaPartida.afegir</text>
<text text-anchor="middle" x="469" y="-130.32" font-family="Helvetica,sans-Serif" font-size="10.00">MaquetesARack</text>
</a>
</g>
</g>
<!-- Node10&#45;&gt;Node14 -->
<g id="edge20_Node000010_Node000014" class="edge">
<title>Node10&#45;&gt;Node14</title>
<g id="a_edge20_Node000010_Node000014"><a xlink:title=" ">
<path fill="none" stroke="#63b8ff" d="M606.27,-169.41C584.12,-164.6 559.42,-159.24 537.21,-154.42"/>
<polygon fill="#63b8ff" stroke="#63b8ff" points="605.26,-172.78 615.78,-171.48 606.75,-165.94 605.26,-172.78"/>
</a>
</g>
</g>
<!-- Node15 -->
<g id="Node000015" class="node">
<title>Node15</title>
<g id="a_Node000015"><a xlink:href="classinterficie_1_1_vista_partida.html#a8ebc9da2a2b927ba87ed97ad85ae44e8" target="_top" xlink:title="Confirma l&#39;acció de guardar la partida.">
<polygon fill="white" stroke="#666666" points="545.25,-105.82 392.75,-105.82 392.75,-73.82 545.25,-73.82 545.25,-105.82"/>
<text text-anchor="start" x="400.75" y="-92.32" font-family="Helvetica,sans-Serif" font-size="10.00">interficie.VistaPartida.confirmar</text>
<text text-anchor="middle" x="469" y="-80.32" font-family="Helvetica,sans-Serif" font-size="10.00">Guardar</text>
</a>
</g>
</g>
<!-- Node10&#45;&gt;Node15 -->
<g id="edge22_Node000010_Node000015" class="edge">
<title>Node10&#45;&gt;Node15</title>
<g id="a_edge22_Node000010_Node000015"><a xlink:title=" ">
<path fill="none" stroke="#63b8ff" d="M640.76,-161.11C618.78,-146.27 588.41,-127.39 559.5,-114.82 552.25,-111.67 544.5,-108.81 536.7,-106.25"/>
<polygon fill="#63b8ff" stroke="#63b8ff" points="638.76,-163.98 648.99,-166.75 642.72,-158.2 638.76,-163.98"/>
</a>
</g>
</g>
<!-- Node16 -->
<g id="Node000016" class="node">
<title>Node16</title>
<g id="a_Node000016"><a xlink:href="classinterficie_1_1_vista_partida.html#ab47b596fbbd6a79289d4b9d7f5b5e068" target="_top" xlink:title="Crea un panell amb la informació d&#39;un jugador.">
<polygon fill="white" stroke="#666666" points="331.25,-325.82 197.5,-325.82 197.5,-293.82 331.25,-293.82 331.25,-325.82"/>
<text text-anchor="start" x="205.5" y="-312.32" font-family="Helvetica,sans-Serif" font-size="10.00">interficie.VistaPartida.crear</text>
<text text-anchor="middle" x="264.38" y="-300.32" font-family="Helvetica,sans-Serif" font-size="10.00">PanelJugador</text>
</a>
</g>
</g>
<!-- Node10&#45;&gt;Node16 -->
<g id="edge24_Node000010_Node000016" class="edge">
<title>Node10&#45;&gt;Node16</title>
<g id="a_edge24_Node000010_Node000016"><a xlink:title=" ">
<path fill="none" stroke="#63b8ff" d="M653.41,-208.8C633.04,-233.18 598.47,-269 559.5,-285.82 486.24,-317.45 393.25,-319.48 331.66,-316.22"/>
<polygon fill="#63b8ff" stroke="#63b8ff" points="655.95,-211.21 659.55,-201.25 650.52,-206.8 655.95,-211.21"/>
</a>
</g>
</g>
<!-- Node12 -->
<g id="Node000012" class="node">
<title>Node12</title>
<g id="a_Node000012"><a xlink:href="classinterficie_1_1_vista_partida.html#a0698d192124492ebfd8a3b029a6fa23c" target="_top" xlink:title="Actualitza els racks dels jugadors.">
<polygon fill="white" stroke="#666666" points="339.5,-199.82 189.25,-199.82 189.25,-167.82 339.5,-167.82 339.5,-199.82"/>
<text text-anchor="start" x="197.25" y="-186.32" font-family="Helvetica,sans-Serif" font-size="10.00">interficie.VistaPartida.refrescar</text>
<text text-anchor="middle" x="264.38" y="-174.32" font-family="Helvetica,sans-Serif" font-size="10.00">RackJugadors</text>
</a>
</g>
</g>
<!-- Node11&#45;&gt;Node12 -->
<g id="edge13_Node000011_Node000012" class="edge">
<title>Node11&#45;&gt;Node12</title>
<g id="a_edge13_Node000011_Node000012"><a xlink:title=" ">
<path fill="none" stroke="#63b8ff" d="M389.41,-210.76C373.12,-207.22 356.01,-203.51 339.88,-200"/>
<polygon fill="#63b8ff" stroke="#63b8ff" points="388.53,-214.15 399.05,-212.85 390.02,-207.31 388.53,-214.15"/>
</a>
</g>
</g>
<!-- Node12&#45;&gt;Node9 -->
<g id="edge14_Node000012_Node000009" class="edge">
<title>Node12&#45;&gt;Node9</title>
<g id="a_edge14_Node000012_Node000009"><a xlink:title=" ">
<path fill="none" stroke="#63b8ff" d="M280.63,-158.09C299.45,-129.15 334.45,-83.73 378.5,-64.82 549.44,8.53 780.05,-103.55 846.35,-139.4"/>
<polygon fill="#63b8ff" stroke="#63b8ff" points="277.83,-155.96 275.46,-166.29 283.75,-159.69 277.83,-155.96"/>
</a>
</g>
</g>
<!-- Node12&#45;&gt;Node10 -->
<g id="edge19_Node000012_Node000010" class="edge">
<title>Node12&#45;&gt;Node10</title>
<g id="a_edge19_Node000012_Node000010"><a xlink:title=" ">
<path fill="none" stroke="#63b8ff" d="M351.02,-183.82C431.23,-183.82 548.73,-183.82 617.28,-183.82"/>
<polygon fill="#63b8ff" stroke="#63b8ff" points="351.47,-180.32 341.47,-183.82 351.47,-187.32 351.47,-180.32"/>
</a>
</g>
</g>
<!-- Node12&#45;&gt;Node13 -->
<g id="edge15_Node000012_Node000013" class="edge">
<title>Node12&#45;&gt;Node13</title>
<g id="a_edge15_Node000012_Node000013"><a xlink:title=" ">
<path fill="none" stroke="#63b8ff" d="M215.56,-204.76C183.85,-218.65 142.83,-236.61 113.5,-249.46"/>
<polygon fill="#63b8ff" stroke="#63b8ff" points="216.79,-208.05 224.55,-200.83 213.98,-201.63 216.79,-208.05"/>
</a>
</g>
</g>
<!-- Node13&#45;&gt;Node9 -->
<g id="edge16_Node000013_Node000009" class="edge">
<title>Node13&#45;&gt;Node9</title>
<g id="a_edge16_Node000013_Node000009"><a xlink:title=" ">
<path fill="none" stroke="#63b8ff" d="M96.94,-240.83C141.83,-189.31 253.82,-73.04 378.5,-36.82 537.85,9.47 598.6,18.04 751.75,-45.82 800.5,-66.15 841.51,-117.25 857.59,-139.36"/>
<polygon fill="#63b8ff" stroke="#63b8ff" points="94.44,-238.37 90.58,-248.24 99.75,-242.93 94.44,-238.37"/>
</a>
</g>
</g>
<!-- Node13&#45;&gt;Node10 -->
<g id="edge18_Node000013_Node000010" class="edge">
<title>Node13&#45;&gt;Node10</title>
<g id="a_edge18_Node000013_Node000010"><a xlink:title=" ">
<path fill="none" stroke="#63b8ff" d="M161.79,-276.58C260.05,-285.97 424.94,-292.58 559.5,-252.82 595.46,-242.2 631.49,-217.13 652.92,-200.32"/>
<polygon fill="#63b8ff" stroke="#63b8ff" points="162.24,-273.11 151.94,-275.61 161.55,-280.08 162.24,-273.11"/>
</a>
</g>
</g>
<!-- Node13&#45;&gt;Node13 -->
<g id="edge17_Node000013_Node000013" class="edge">
<title>Node13&#45;&gt;Node13</title>
<g id="a_edge17_Node000013_Node000013"><a xlink:title=" ">
<path fill="none" stroke="#63b8ff" d="M106.66,-293.53C101.4,-297.31 90.89,-299.82 75.12,-299.82 46.29,-299.82 35.03,-291.41 41.34,-282.27"/>
<polygon fill="#63b8ff" stroke="#63b8ff" points="110.09,-294.24 108.62,-283.75 103.23,-292.87 110.09,-294.24"/>
</a>
</g>
</g>
<!-- Node14&#45;&gt;Node12 -->
<g id="edge21_Node000014_Node000012" class="edge">
<title>Node14&#45;&gt;Node12</title>
<g id="a_edge21_Node000014_Node000012"><a xlink:title=" ">
<path fill="none" stroke="#63b8ff" d="M389.41,-156.89C373.12,-160.43 356.01,-164.14 339.88,-167.65"/>
<polygon fill="#63b8ff" stroke="#63b8ff" points="390.02,-160.34 399.05,-154.8 388.53,-153.5 390.02,-160.34"/>
</a>
</g>
</g>
<!-- Node15&#45;&gt;Node9 -->
<g id="edge23_Node000015_Node000009" class="edge">
<title>Node15&#45;&gt;Node9</title>
<g id="a_edge23_Node000015_Node000009"><a xlink:title=" ">
<path fill="none" stroke="#63b8ff" d="M556.35,-102.94C628.98,-113.98 731.33,-129.53 797.89,-139.65"/>
<polygon fill="#63b8ff" stroke="#63b8ff" points="557.32,-99.55 546.91,-101.51 556.27,-106.47 557.32,-99.55"/>
</a>
</g>
</g>
<!-- Node16&#45;&gt;Node13 -->
<g id="edge25_Node000016_Node000013" class="edge">
<title>Node16&#45;&gt;Node13</title>
<g id="a_edge25_Node000016_Node000013"><a xlink:title=" ">
<path fill="none" stroke="#63b8ff" d="M186.1,-291.67C172.86,-288.55 159.16,-285.34 146.12,-282.27"/>
<polygon fill="#63b8ff" stroke="#63b8ff" points="185.09,-295.02 195.62,-293.9 186.69,-288.21 185.09,-295.02"/>
</a>
</g>
</g>
</g>
</svg>

<g id="navigator" transform="translate(0 0)" fill="#404254">
  <rect fill="#f2f5e9" fill-opacity="0.5" stroke="#606060" stroke-width=".5" x="0" y="0" width="60" height="60"/>
  <use id="zoomplus" xlink:href="#zoomPlus" x="17" y="9" onmousedown="handleZoom(evt,'in')"/>
  <use id="zoomminus" xlink:href="#zoomMin" x="42" y="9" onmousedown="handleZoom(evt,'out')"/>
  <use id="reset" xlink:href="#resetDef" x="30" y="36" onmousedown="handleReset()"/>
   <use id="arrowup" xlink:href="#arrowUp" x="0" y="0" onmousedown="handlePan(0,-1)"/>
  <use id="arrowright" xlink:href="#arrowRight" x="0" y="0" onmousedown="handlePan(1,0)"/>
  <use id="arrowdown" xlink:href="#arrowDown" x="0" y="0" onmousedown="handlePan(0,1)"/>
  <use id="arrowleft" xlink:href="#arrowLeft" x="0" y="0" onmousedown="handlePan(-1,0)"/>
</g>
<svg viewBox="0 0 15 15" width="100%" height="30px" preserveAspectRatio="xMaxYMin meet">
 <g id="arrow_out" transform="scale(0.3 0.3)">
  <a xlink:href="classdomini_1_1scrabble_1_1_casella_a2ce7db6c414e455606dfbd8ee8056a3b_icgraph_org.svg" target="_base">
   <rect id="button" ry="5" rx="5" y="6" x="6" height="38" width="38"
        fill="#f2f5e9" fill-opacity="0.5" stroke="#606060" stroke-width="1.0"/>
   <path id="arrow"
     d="M 11.500037,31.436501 C 11.940474,20.09759 22.043105,11.32322 32.158766,21.979434 L 37.068811,17.246167 C 37.068811,17.246167 37.088388,32 37.088388,32 L 22.160133,31.978069 C 22.160133,31.978069 26.997745,27.140456 26.997745,27.140456 C 18.528582,18.264221 13.291696,25.230495 11.500037,31.436501 z"
     style="fill:#404040;"/>
  </a>
 </g>
</svg>

<style type='text/css'>
<![CDATA[
[data-mouse-over-selected='false'] { opacity: 0.7; }
[data-mouse-over-selected='true']  { opacity: 1.0; }
]]>
</style>
<script type="application/ecmascript"><![CDATA[
document.addEventListener('DOMContentLoaded', (event) => {
  highlightEdges();
  highlightAdjacentNodes();
});
]]></script>
</svg>
