<?xml version="1.0" encoding="UTF-8" standalone="no"?>
<!DOCTYPE svg PUBLIC "-//W3C//DTD SVG 1.1//EN"
 "http://www.w3.org/Graphics/SVG/1.1/DTD/svg11.dtd">
<!-- Generated by graphviz version 12.2.1 (20241206.2353)
 -->
<!-- Title: interficie.VistaCrearPerfil Pages: 1 -->
<svg width="192pt" height="453pt"
 viewBox="0.00 0.00 192.25 453.00" xmlns="http://www.w3.org/2000/svg" xmlns:xlink="http://www.w3.org/1999/xlink">
<g id="graph0" class="graph" transform="scale(1 1) rotate(0) translate(4 449)">
<title>interficie.VistaCrearPerfil</title>
<!-- Node1 -->
<g id="Node000001" class="node">
<title>Node1</title>
<g id="a_Node000001"><a xlink:title=" ">
<polygon fill="#999999" stroke="none" points="116.75,-228 0,-228 0,0 116.75,0 116.75,-228"/>
<text text-anchor="start" x="4" y="-214.5" font-family="Helvetica,sans-Serif" font-size="10.00">interficie.VistaCrearPerfil</text>
<text text-anchor="start" x="5.62" y="-198.5" font-family="Helvetica,sans-Serif" font-size="10.00">&#45;</text>
<text text-anchor="start" x="14.25" y="-198.5" font-family="Helvetica,sans-Serif" font-size="10.00">panellCrearPerfil</text>
<text text-anchor="start" x="5.62" y="-182.5" font-family="Helvetica,sans-Serif" font-size="10.00">&#45;</text>
<text text-anchor="start" x="14.25" y="-182.5" font-family="Helvetica,sans-Serif" font-size="10.00">labelLogo</text>
<text text-anchor="start" x="5.62" y="-166.5" font-family="Helvetica,sans-Serif" font-size="10.00">&#45;</text>
<text text-anchor="start" x="14.25" y="-166.5" font-family="Helvetica,sans-Serif" font-size="10.00">labelAnimal</text>
<text text-anchor="start" x="5.62" y="-150.5" font-family="Helvetica,sans-Serif" font-size="10.00">&#45;</text>
<text text-anchor="start" x="14.25" y="-150.5" font-family="Helvetica,sans-Serif" font-size="10.00">campContrasenya</text>
<text text-anchor="start" x="5.62" y="-134.5" font-family="Helvetica,sans-Serif" font-size="10.00">&#45;</text>
<text text-anchor="start" x="14.25" y="-134.5" font-family="Helvetica,sans-Serif" font-size="10.00">botoCrear</text>
<text text-anchor="start" x="5.62" y="-118.5" font-family="Helvetica,sans-Serif" font-size="10.00">&#45;</text>
<text text-anchor="start" x="14.25" y="-118.5" font-family="Helvetica,sans-Serif" font-size="10.00">botoTornar</text>
<text text-anchor="start" x="5.62" y="-102.5" font-family="Helvetica,sans-Serif" font-size="10.00">&#45;</text>
<text text-anchor="start" x="14.25" y="-102.5" font-family="Helvetica,sans-Serif" font-size="10.00">WIDTH_BASE</text>
<text text-anchor="start" x="5.62" y="-86.5" font-family="Helvetica,sans-Serif" font-size="10.00">&#45;</text>
<text text-anchor="start" x="14.25" y="-86.5" font-family="Helvetica,sans-Serif" font-size="10.00">HEIGHT_BASE</text>
<text text-anchor="start" x="5.62" y="-70.5" font-family="Helvetica,sans-Serif" font-size="10.00">&#45;</text>
<text text-anchor="start" x="14.25" y="-70.5" font-family="Helvetica,sans-Serif" font-size="10.00">WIDTH_TORNAR</text>
<text text-anchor="start" x="5.62" y="-54.5" font-family="Helvetica,sans-Serif" font-size="10.00">&#45;</text>
<text text-anchor="start" x="14.25" y="-54.5" font-family="Helvetica,sans-Serif" font-size="10.00">HEIGHT_TORNAR</text>
<text text-anchor="start" x="14.25" y="-38.5" font-family="Helvetica,sans-Serif" font-size="10.00">and 7 more...</text>
<text text-anchor="start" x="4.12" y="-22.5" font-family="Helvetica,sans-Serif" font-size="10.00">+</text>
<text text-anchor="start" x="14.25" y="-22.5" font-family="Helvetica,sans-Serif" font-size="10.00">VistaCrearPerfil()</text>
<text text-anchor="start" x="5.62" y="-6.5" font-family="Helvetica,sans-Serif" font-size="10.00">&#45;</text>
<text text-anchor="start" x="14.25" y="-6.5" font-family="Helvetica,sans-Serif" font-size="10.00">escalarComponentes()</text>
<polygon fill="#666666" stroke="#666666" points="0,-210 0,-210 116.75,-210 116.75,-210 0,-210"/>
<polygon fill="#666666" stroke="#666666" points="0,-34 0,-34 12.25,-34 12.25,-34 0,-34"/>
<polygon fill="#666666" stroke="#666666" points="12.25,-34 12.25,-34 116.75,-34 116.75,-34 12.25,-34"/>
<polygon fill="none" stroke="#666666" points="0,0 0,-228 116.75,-228 116.75,0 0,0"/>
</a>
</g>
</g>
<!-- Node2 -->
<g id="Node000002" class="node">
<title>Node2</title>
<g id="a_Node000002"><a xlink:title=" ">
<polygon fill="white" stroke="none" points="46.88,-342 5.88,-342 5.88,-290 46.88,-290 46.88,-342"/>
<text text-anchor="start" x="9.88" y="-328.5" font-family="Helvetica,sans-Serif" font-size="10.00">JFrame</text>
<text text-anchor="start" x="24.88" y="-312.5" font-family="Helvetica,sans-Serif" font-size="10.00"> </text>
<text text-anchor="start" x="24.88" y="-296.5" font-family="Helvetica,sans-Serif" font-size="10.00"> </text>
<polygon fill="#666666" stroke="#666666" points="5.88,-324 5.88,-324 46.88,-324 46.88,-324 5.88,-324"/>
<polygon fill="#666666" stroke="#666666" points="5.88,-308 5.88,-308 46.88,-308 46.88,-308 5.88,-308"/>
<polygon fill="none" stroke="#666666" points="5.88,-290 5.88,-342 46.88,-342 46.88,-290 5.88,-290"/>
</a>
</g>
</g>
<!-- Node2&#45;&gt;Node1 -->
<g id="edge1_Node000001_Node000002" class="edge">
<title>Node2&#45;&gt;Node1</title>
<g id="a_edge1_Node000001_Node000002"><a xlink:title=" ">
<path fill="none" stroke="#63b8ff" d="M32.13,-279.02C34.48,-264.33 37.34,-246.46 40.3,-227.98"/>
<polygon fill="none" stroke="#63b8ff" points="28.73,-278.15 30.6,-288.58 35.64,-279.26 28.73,-278.15"/>
</a>
</g>
</g>
<!-- Node3 -->
<g id="Node000003" class="node">
<title>Node3</title>
<g id="a_Node000003"><a xlink:href="$classinterficie_1_1_vista_crear_perfil_1_1_placeholder_text_field.html" xlink:title="Camp de text personalitzat que mostra un placeholder quan està buit i no té focus.">
<polygon fill="white" stroke="none" points="184.25,-356 64.5,-356 64.5,-276 184.25,-276 184.25,-356"/>
<text text-anchor="start" x="68.5" y="-342.5" font-family="Helvetica,sans-Serif" font-size="10.00">interficie.VistaCrearPerfil.</text>
<text text-anchor="start" x="79" y="-330.5" font-family="Helvetica,sans-Serif" font-size="10.00">PlaceholderTextField</text>
<text text-anchor="start" x="76.12" y="-314.5" font-family="Helvetica,sans-Serif" font-size="10.00">&#45;</text>
<text text-anchor="start" x="90.75" y="-314.5" font-family="Helvetica,sans-Serif" font-size="10.00">placeholder</text>
<text text-anchor="start" x="74.62" y="-298.5" font-family="Helvetica,sans-Serif" font-size="10.00">+</text>
<text text-anchor="start" x="90.75" y="-298.5" font-family="Helvetica,sans-Serif" font-size="10.00">setPlaceholder()</text>
<text text-anchor="start" x="75" y="-282.5" font-family="Helvetica,sans-Serif" font-size="10.00">#</text>
<text text-anchor="start" x="90.75" y="-282.5" font-family="Helvetica,sans-Serif" font-size="10.00">paintComponent()</text>
<polygon fill="#666666" stroke="#666666" points="64.5,-326 64.5,-326 184.25,-326 184.25,-326 64.5,-326"/>
<polygon fill="#666666" stroke="#666666" points="64.5,-310 64.5,-310 88.75,-310 88.75,-310 64.5,-310"/>
<polygon fill="#666666" stroke="#666666" points="88.75,-310 88.75,-310 184.25,-310 184.25,-310 88.75,-310"/>
<polygon fill="none" stroke="#666666" points="64.5,-276 64.5,-356 184.25,-356 184.25,-276 64.5,-276"/>
</a>
</g>
</g>
<!-- Node3&#45;&gt;Node1 -->
<g id="edge2_Node000001_Node000003" class="edge">
<title>Node3&#45;&gt;Node1</title>
<g id="a_edge2_Node000001_Node000003"><a xlink:title=" ">
<path fill="none" stroke="#63b8ff" d="M111.65,-276.44C108.06,-265.57 103.96,-253.13 99.65,-240.08"/>
<polygon fill="none" stroke="#63b8ff" points="99.69,-240.2 94.01,-235.76 95.93,-228.81 101.61,-233.25 99.69,-240.2"/>
</a>
</g>
<text text-anchor="middle" x="134.12" y="-248.5" font-family="Helvetica,sans-Serif" font-size="10.00" fill="grey"> &#45;campUsuari</text>
</g>
<!-- Node4 -->
<g id="Node000004" class="node">
<title>Node4</title>
<g id="a_Node000004"><a xlink:title=" ">
<polygon fill="white" stroke="none" points="150.88,-445 97.88,-445 97.88,-393 150.88,-393 150.88,-445"/>
<text text-anchor="start" x="101.88" y="-431.5" font-family="Helvetica,sans-Serif" font-size="10.00">JTextField</text>
<text text-anchor="start" x="122.88" y="-415.5" font-family="Helvetica,sans-Serif" font-size="10.00"> </text>
<text text-anchor="start" x="122.88" y="-399.5" font-family="Helvetica,sans-Serif" font-size="10.00"> </text>
<polygon fill="#666666" stroke="#666666" points="97.88,-427 97.88,-427 150.88,-427 150.88,-427 97.88,-427"/>
<polygon fill="#666666" stroke="#666666" points="97.88,-411 97.88,-411 150.88,-411 150.88,-411 97.88,-411"/>
<polygon fill="none" stroke="#666666" points="97.88,-393 97.88,-445 150.88,-445 150.88,-393 97.88,-393"/>
</a>
</g>
</g>
<!-- Node4&#45;&gt;Node3 -->
<g id="edge3_Node000003_Node000004" class="edge">
<title>Node4&#45;&gt;Node3</title>
<g id="a_edge3_Node000003_Node000004"><a xlink:title=" ">
<path fill="none" stroke="#63b8ff" d="M124.38,-381.66C124.38,-373.28 124.38,-364.32 124.38,-355.83"/>
<polygon fill="none" stroke="#63b8ff" points="120.88,-381.52 124.38,-391.52 127.88,-381.52 120.88,-381.52"/>
</a>
</g>
</g>
</g>
</svg>
