<?xml version="1.0" encoding="UTF-8" standalone="no"?>
<!DOCTYPE svg PUBLIC "-//W3C//DTD SVG 1.1//EN"
 "http://www.w3.org/Graphics/SVG/1.1/DTD/svg11.dtd">
<!-- Generated by graphviz version 12.2.1 (20241206.2353)
 -->
<!-- Title: interficie.VistaMenuJoc.eliminarPerfil Pages: 1 -->
<svg width="320pt" height="58pt"
 viewBox="0.00 0.00 319.75 58.00" xmlns="http://www.w3.org/2000/svg" xmlns:xlink="http://www.w3.org/1999/xlink">
<g id="graph0" class="graph" transform="scale(1 1) rotate(0) translate(4 54)">
<title>interficie.VistaMenuJoc.eliminarPerfil</title>
<!-- Node1 -->
<g id="Node000001" class="node">
<title>Node1</title>
<g id="a_Node000001"><a xlink:title="Lògica per eliminar el perfil.">
<polygon fill="#999999" stroke="#666666" points="311.75,-32 157,-32 157,0 311.75,0 311.75,-32"/>
<text text-anchor="start" x="165" y="-18.5" font-family="Helvetica,sans-Serif" font-size="10.00">interficie.VistaMenuJoc.eliminar</text>
<text text-anchor="middle" x="234.38" y="-6.5" font-family="Helvetica,sans-Serif" font-size="10.00">Perfil</text>
</a>
</g>
</g>
<!-- Node2 -->
<g id="Node000002" class="node">
<title>Node2</title>
<g id="a_Node000002"><a xlink:href="$classinterficie_1_1_vista_menu_joc.html#afab63b4d82b26b00b711c7a5473d7707" xlink:title="Constructor de la classe VistaMenuJoc.">
<polygon fill="white" stroke="#666666" points="121,-32 0,-32 0,0 121,0 121,-32"/>
<text text-anchor="start" x="8" y="-18.5" font-family="Helvetica,sans-Serif" font-size="10.00">interficie.VistaMenuJoc.</text>
<text text-anchor="middle" x="60.5" y="-6.5" font-family="Helvetica,sans-Serif" font-size="10.00">VistaMenuJoc</text>
</a>
</g>
</g>
<!-- Node1&#45;&gt;Node2 -->
<g id="edge1_Node000001_Node000002" class="edge">
<title>Node1&#45;&gt;Node2</title>
<g id="a_edge1_Node000001_Node000002"><a xlink:title=" ">
<path fill="none" stroke="#63b8ff" d="M145.34,-9.25C137.27,-9.27 129.22,-9.36 121.48,-9.53"/>
<polygon fill="#63b8ff" stroke="#63b8ff" points="145.21,-12.75 155.22,-9.28 145.23,-5.75 145.21,-12.75"/>
</a>
</g>
</g>
<!-- Node2&#45;&gt;Node1 -->
<g id="edge2_Node000002_Node000001" class="edge">
<title>Node2&#45;&gt;Node1</title>
<g id="a_edge2_Node000002_Node000001"><a xlink:title=" ">
<path fill="none" stroke="#63b8ff" d="M132.87,-22.66C140.75,-22.76 148.8,-22.78 156.74,-22.71"/>
<polygon fill="#63b8ff" stroke="#63b8ff" points="133.06,-19.17 123,-22.49 132.94,-26.16 133.06,-19.17"/>
</a>
</g>
</g>
<!-- Node2&#45;&gt;Node2 -->
<g id="edge3_Node000002_Node000002" class="edge">
<title>Node2&#45;&gt;Node2</title>
<g id="a_edge3_Node000002_Node000002"><a xlink:title=" ">
<path fill="none" stroke="#63b8ff" d="M89.48,-43.71C84.64,-47.48 74.99,-50 60.5,-50 34.01,-50 23.66,-41.58 29.46,-32.44"/>
<polygon fill="#63b8ff" stroke="#63b8ff" points="92.91,-44.4 91.27,-33.93 86.02,-43.14 92.91,-44.4"/>
</a>
</g>
</g>
</g>
</svg>
