<?xml version="1.0" encoding="UTF-8" standalone="no"?>
<!DOCTYPE svg PUBLIC "-//W3C//DTD SVG 1.1//EN"
 "http://www.w3.org/Graphics/SVG/1.1/DTD/svg11.dtd">
<!-- Generated by graphviz version 12.2.1 (20241206.2353)
 -->
<!-- Title: controladors.CtrlDomini.CtrlDomini Pages: 1 -->
<svg width="715pt" height="40pt"
 viewBox="0.00 0.00 714.75 40.00" xmlns="http://www.w3.org/2000/svg" xmlns:xlink="http://www.w3.org/1999/xlink">
<g id="graph0" class="graph" transform="scale(1 1) rotate(0) translate(4 36)">
<title>controladors.CtrlDomini.CtrlDomini</title>
<!-- Node1 -->
<g id="Node000001" class="node">
<title>Node1</title>
<g id="a_Node000001"><a xlink:title="Constructor de la classe Ctrl_Domini.">
<polygon fill="#999999" stroke="#666666" points="121.75,-32 0,-32 0,0 121.75,0 121.75,-32"/>
<text text-anchor="start" x="8" y="-18.5" font-family="Helvetica,sans-Serif" font-size="10.00">controladors.CtrlDomini.</text>
<text text-anchor="middle" x="60.88" y="-6.5" font-family="Helvetica,sans-Serif" font-size="10.00">CtrlDomini</text>
</a>
</g>
</g>
<!-- Node2 -->
<g id="Node000002" class="node">
<title>Node2</title>
<g id="a_Node000002"><a xlink:href="classcontroladors_1_1_ctrl_domini.html#ab06c2680b60a9e0864d8470f4888e8e9" target="_top" xlink:title="Carrega els usuaris cada cop que executem el joc.">
<polygon fill="white" stroke="#666666" points="323,-32 157.75,-32 157.75,0 323,0 323,-32"/>
<text text-anchor="start" x="165.75" y="-18.5" font-family="Helvetica,sans-Serif" font-size="10.00">controladors.CtrlDomini.inicialitzar</text>
<text text-anchor="middle" x="240.38" y="-6.5" font-family="Helvetica,sans-Serif" font-size="10.00">Usuaris</text>
</a>
</g>
</g>
<!-- Node1&#45;&gt;Node2 -->
<g id="edge1_Node000001_Node000002" class="edge">
<title>Node1&#45;&gt;Node2</title>
<g id="a_edge1_Node000001_Node000002"><a xlink:title=" ">
<path fill="none" stroke="#63b8ff" d="M121.97,-16C129.69,-16 137.74,-16 145.84,-16"/>
<polygon fill="#63b8ff" stroke="#63b8ff" points="145.79,-19.5 155.79,-16 145.79,-12.5 145.79,-19.5"/>
</a>
</g>
</g>
<!-- Node3 -->
<g id="Node000003" class="node">
<title>Node3</title>
<g id="a_Node000003"><a xlink:href="classcontroladors_1_1_ctrl_persistencia.html#a06c847181ea13b0c7dde8a61b47f0a0b" target="_top" xlink:title="Carrega els usuaris guardats a la capa de persistència.">
<polygon fill="white" stroke="#666666" points="539.25,-32 359,-32 359,0 539.25,0 539.25,-32"/>
<text text-anchor="start" x="367" y="-18.5" font-family="Helvetica,sans-Serif" font-size="10.00">controladors.CtrlPersistencia.carregar</text>
<text text-anchor="middle" x="449.12" y="-6.5" font-family="Helvetica,sans-Serif" font-size="10.00">UsuarisRegistrats</text>
</a>
</g>
</g>
<!-- Node2&#45;&gt;Node3 -->
<g id="edge2_Node000002_Node000003" class="edge">
<title>Node2&#45;&gt;Node3</title>
<g id="a_edge2_Node000002_Node000003"><a xlink:title=" ">
<path fill="none" stroke="#63b8ff" d="M323.39,-16C331.28,-16 339.34,-16 347.39,-16"/>
<polygon fill="#63b8ff" stroke="#63b8ff" points="347.22,-19.5 357.22,-16 347.22,-12.5 347.22,-19.5"/>
</a>
</g>
</g>
<!-- Node4 -->
<g id="Node000004" class="node">
<title>Node4</title>
<g id="a_Node000004"><a xlink:href="classpersistencia_1_1_usuari_i_o.html#a29677f40d007ca66a5ec1b0926e16da4" target="_top" xlink:title="Carrega un usuari des d&#39;un fitxer JSON.">
<polygon fill="white" stroke="#666666" points="706.75,-32 575.25,-32 575.25,0 706.75,0 706.75,-32"/>
<text text-anchor="start" x="583.25" y="-18.5" font-family="Helvetica,sans-Serif" font-size="10.00">persistencia.UsuariIO.load</text>
<text text-anchor="middle" x="641" y="-6.5" font-family="Helvetica,sans-Serif" font-size="10.00">Usuari</text>
</a>
</g>
</g>
<!-- Node3&#45;&gt;Node4 -->
<g id="edge3_Node000003_Node000004" class="edge">
<title>Node3&#45;&gt;Node4</title>
<g id="a_edge3_Node000003_Node000004"><a xlink:title=" ">
<path fill="none" stroke="#63b8ff" d="M539.5,-16C547.52,-16 555.58,-16 563.47,-16"/>
<polygon fill="#63b8ff" stroke="#63b8ff" points="563.37,-19.5 573.37,-16 563.37,-12.5 563.37,-19.5"/>
</a>
</g>
</g>
</g>
</svg>
