<?xml version="1.0" encoding="UTF-8" standalone="no"?>
<!DOCTYPE svg PUBLIC "-//W3C//DTD SVG 1.1//EN"
 "http://www.w3.org/Graphics/SVG/1.1/DTD/svg11.dtd">
<!-- Generated by graphviz version 12.2.1 (20241206.2353)
 -->
<!-- Title: controladors.CtrlPartida.abandonarPartida Pages: 1 -->
<svg width="381pt" height="240pt"
 viewBox="0.00 0.00 380.50 240.00" xmlns="http://www.w3.org/2000/svg" xmlns:xlink="http://www.w3.org/1999/xlink">

<svg id="main" version="1.1" xmlns="http://www.w3.org/2000/svg" xmlns:xlink="http://www.w3.org/1999/xlink" xml:space="preserve">

<style type="text/css"><![CDATA[
.node, .edge {opacity: 0.7;}
.node.selected, .edge.selected {opacity: 1;}
.edge:hover path { stroke: red; }
.edge:hover polygon { stroke: red; fill: red; }
]]></style>
<script type="application/ecmascript" xlink:href="svg.min.js"/>
<svg id="graph" class="graph">
<g id="graph0" class="graph" transform="scale(1 1) rotate(0) translate(4 236)">
<title>controladors.CtrlPartida.abandonarPartida</title>
<!-- Node1 -->
<g id="Node000001" class="node">
<title>Node1</title>
<g id="a_Node000001"><a xlink:title="El jugador actual abandona la partida.">
<polygon fill="#999999" stroke="#666666" points="166.75,-132 0,-132 0,-100 166.75,-100 166.75,-132"/>
<text text-anchor="start" x="8" y="-118.5" font-family="Helvetica,sans-Serif" font-size="10.00">controladors.CtrlPartida.abandonar</text>
<text text-anchor="middle" x="83.38" y="-106.5" font-family="Helvetica,sans-Serif" font-size="10.00">Partida</text>
</a>
</g>
</g>
<!-- Node2 -->
<g id="Node000002" class="node">
<title>Node2</title>
<g id="a_Node000002"><a xlink:href="classdomini_1_1jugadors_1_1_jugador.html#afa999de0f50bb1671ac42dbe31388b01" target="_top" xlink:title="Retorna l&#39;identificador del jugador.">
<polygon fill="white" stroke="#666666" points="356.75,-232 218.5,-232 218.5,-200 356.75,-200 356.75,-232"/>
<text text-anchor="start" x="226.5" y="-218.5" font-family="Helvetica,sans-Serif" font-size="10.00">domini.jugadors.Jugador.get</text>
<text text-anchor="middle" x="287.62" y="-206.5" font-family="Helvetica,sans-Serif" font-size="10.00">IdJugador</text>
</a>
</g>
</g>
<!-- Node1&#45;&gt;Node2 -->
<g id="edge1_Node000001_Node000002" class="edge">
<title>Node1&#45;&gt;Node2</title>
<g id="a_edge1_Node000001_Node000002"><a xlink:title=" ">
<path fill="none" stroke="#63b8ff" d="M106.03,-132.3C129,-148.97 166.88,-174.67 202.75,-191 206.32,-192.62 210.01,-194.17 213.78,-195.65"/>
<polygon fill="#63b8ff" stroke="#63b8ff" points="212.52,-198.91 223.11,-199.08 214.93,-192.34 212.52,-198.91"/>
</a>
</g>
</g>
<!-- Node3 -->
<g id="Node000003" class="node">
<title>Node3</title>
<g id="a_Node000003"><a xlink:href="classdomini_1_1jugadors_1_1_avatar.html#a4d348eabeb2b15c1dedc8cbd74fa1917" target="_top" xlink:title="Incrementa el nombre de partides abandonades.">
<polygon fill="white" stroke="#666666" points="372.5,-182 202.75,-182 202.75,-150 372.5,-150 372.5,-182"/>
<text text-anchor="start" x="210.75" y="-168.5" font-family="Helvetica,sans-Serif" font-size="10.00">domini.jugadors.Avatar.incrementar</text>
<text text-anchor="middle" x="287.62" y="-156.5" font-family="Helvetica,sans-Serif" font-size="10.00">PartidesAbandonades</text>
</a>
</g>
</g>
<!-- Node1&#45;&gt;Node3 -->
<g id="edge2_Node000001_Node000003" class="edge">
<title>Node1&#45;&gt;Node3</title>
<g id="a_edge2_Node000001_Node000003"><a xlink:title=" ">
<path fill="none" stroke="#63b8ff" d="M150.88,-132.44C169.45,-137.03 189.8,-142.06 208.96,-146.8"/>
<polygon fill="#63b8ff" stroke="#63b8ff" points="208.06,-150.18 218.61,-149.19 209.74,-143.39 208.06,-150.18"/>
</a>
</g>
</g>
<!-- Node4 -->
<g id="Node000004" class="node">
<title>Node4</title>
<g id="a_Node000004"><a xlink:href="classdomini_1_1jugadors_1_1_avatar.html#a44e5e6a2ee9245697351fe390849b810" target="_top" xlink:title="Incrementa el nombre total de partides guanyades.">
<polygon fill="white" stroke="#666666" points="372.5,-132 202.75,-132 202.75,-100 372.5,-100 372.5,-132"/>
<text text-anchor="start" x="210.75" y="-118.5" font-family="Helvetica,sans-Serif" font-size="10.00">domini.jugadors.Avatar.incrementar</text>
<text text-anchor="middle" x="287.62" y="-106.5" font-family="Helvetica,sans-Serif" font-size="10.00">PartidesGuanyades</text>
</a>
</g>
</g>
<!-- Node1&#45;&gt;Node4 -->
<g id="edge3_Node000001_Node000004" class="edge">
<title>Node1&#45;&gt;Node4</title>
<g id="a_edge3_Node000001_Node000004"><a xlink:title=" ">
<path fill="none" stroke="#63b8ff" d="M167.22,-116C174.99,-116 182.91,-116 190.78,-116"/>
<polygon fill="#63b8ff" stroke="#63b8ff" points="190.76,-119.5 200.76,-116 190.76,-112.5 190.76,-119.5"/>
</a>
</g>
</g>
<!-- Node5 -->
<g id="Node000005" class="node">
<title>Node5</title>
<g id="a_Node000005"><a xlink:href="classdomini_1_1jugadors_1_1_avatar.html#a750332bc2deadb604d43d1a0936a09d2" target="_top" xlink:title="Incrementa el nombre de partides guanyades contra altres jugadors.">
<polygon fill="white" stroke="#666666" points="372.5,-82 202.75,-82 202.75,-50 372.5,-50 372.5,-82"/>
<text text-anchor="start" x="210.75" y="-68.5" font-family="Helvetica,sans-Serif" font-size="10.00">domini.jugadors.Avatar.incrementar</text>
<text text-anchor="middle" x="287.62" y="-56.5" font-family="Helvetica,sans-Serif" font-size="10.00">PartidesGuanyadesJugador</text>
</a>
</g>
</g>
<!-- Node1&#45;&gt;Node5 -->
<g id="edge4_Node000001_Node000005" class="edge">
<title>Node1&#45;&gt;Node5</title>
<g id="a_edge4_Node000001_Node000005"><a xlink:title=" ">
<path fill="none" stroke="#63b8ff" d="M150.88,-99.56C169.45,-94.97 189.8,-89.94 208.96,-85.2"/>
<polygon fill="#63b8ff" stroke="#63b8ff" points="209.74,-88.61 218.61,-82.81 208.06,-81.82 209.74,-88.61"/>
</a>
</g>
</g>
<!-- Node6 -->
<g id="Node000006" class="node">
<title>Node6</title>
<g id="a_Node000006"><a xlink:href="classdomini_1_1jugadors_1_1_avatar.html#aae510bc2635d40405e60a218b1b7c097" target="_top" xlink:title="Incrementa el nombre de partides guanyades contra la màquina.">
<polygon fill="white" stroke="#666666" points="372.5,-32 202.75,-32 202.75,0 372.5,0 372.5,-32"/>
<text text-anchor="start" x="210.75" y="-18.5" font-family="Helvetica,sans-Serif" font-size="10.00">domini.jugadors.Avatar.incrementar</text>
<text text-anchor="middle" x="287.62" y="-6.5" font-family="Helvetica,sans-Serif" font-size="10.00">PartidesGuanyadesMaquina</text>
</a>
</g>
</g>
<!-- Node1&#45;&gt;Node6 -->
<g id="edge5_Node000001_Node000006" class="edge">
<title>Node1&#45;&gt;Node6</title>
<g id="a_edge5_Node000001_Node000006"><a xlink:title=" ">
<path fill="none" stroke="#63b8ff" d="M106.03,-99.7C129,-83.03 166.88,-57.33 202.75,-41 206.32,-39.38 210.01,-37.83 213.78,-36.35"/>
<polygon fill="#63b8ff" stroke="#63b8ff" points="214.93,-39.66 223.11,-32.92 212.52,-33.09 214.93,-39.66"/>
</a>
</g>
</g>
</g>
</svg>
</svg>

<style type='text/css'>
<![CDATA[
[data-mouse-over-selected='false'] { opacity: 0.7; }
[data-mouse-over-selected='true']  { opacity: 1.0; }
]]>
</style>
<script type="application/ecmascript"><![CDATA[
document.addEventListener('DOMContentLoaded', (event) => {
  highlightEdges();
  highlightAdjacentNodes();
});
]]></script>
</svg>
