<?xml version="1.0" encoding="UTF-8" standalone="no"?>
<!DOCTYPE svg PUBLIC "-//W3C//DTD SVG 1.1//EN"
 "http://www.w3.org/Graphics/SVG/1.1/DTD/svg11.dtd">
<!-- Generated by graphviz version 12.2.1 (20241206.2353)
 -->
<!-- Title: domini.excepcions.ExcepcioArxiuDiccionari Pages: 1 -->
<svg width="141pt" height="276pt"
 viewBox="0.00 0.00 140.50 276.00" xmlns="http://www.w3.org/2000/svg" xmlns:xlink="http://www.w3.org/1999/xlink">
<g id="graph0" class="graph" transform="scale(1 1) rotate(0) translate(4 272)">
<title>domini.excepcions.ExcepcioArxiuDiccionari</title>
<!-- Node1 -->
<g id="Node000001" class="node">
<title>Node1</title>
<g id="a_Node000001"><a xlink:title="Problemes al carregar el fitxer de diccionari.">
<polygon fill="#999999" stroke="none" points="132.5,-64 0,-64 0,0 132.5,0 132.5,-64"/>
<text text-anchor="start" x="4" y="-50.5" font-family="Helvetica,sans-Serif" font-size="10.00">domini.excepcions.Excepcio</text>
<text text-anchor="start" x="33.25" y="-38.5" font-family="Helvetica,sans-Serif" font-size="10.00">ArxiuDiccionari</text>
<text text-anchor="start" x="64.75" y="-22.5" font-family="Helvetica,sans-Serif" font-size="10.00"> </text>
<text text-anchor="start" x="4.5" y="-6.5" font-family="Helvetica,sans-Serif" font-size="10.00">+</text>
<text text-anchor="start" x="15" y="-6.5" font-family="Helvetica,sans-Serif" font-size="10.00">ExcepcioArxiuDiccionari()</text>
<polygon fill="#666666" stroke="#666666" points="0,-34 0,-34 132.5,-34 132.5,-34 0,-34"/>
<polygon fill="#666666" stroke="#666666" points="0,-18 0,-18 132.5,-18 132.5,-18 0,-18"/>
<polygon fill="none" stroke="#666666" points="0,0 0,-64 132.5,-64 132.5,0 0,0"/>
</a>
</g>
</g>
<!-- Node2 -->
<g id="Node000002" class="node">
<title>Node2</title>
<g id="a_Node000002"><a xlink:href="classdomini_1_1excepcions_1_1_excepcio_domini.html" target="_top" xlink:title="Excepció arrel de tot el paquet domini.">
<polygon fill="white" stroke="none" points="132.5,-180 0,-180 0,-100 132.5,-100 132.5,-180"/>
<text text-anchor="start" x="4" y="-166.5" font-family="Helvetica,sans-Serif" font-size="10.00">domini.excepcions.Excepcio</text>
<text text-anchor="start" x="50.88" y="-154.5" font-family="Helvetica,sans-Serif" font-size="10.00">Domini</text>
<text text-anchor="start" x="64.75" y="-138.5" font-family="Helvetica,sans-Serif" font-size="10.00"> </text>
<text text-anchor="start" x="13.31" y="-122.5" font-family="Helvetica,sans-Serif" font-size="10.00">+</text>
<text text-anchor="start" x="32.62" y="-122.5" font-family="Helvetica,sans-Serif" font-size="10.00">ExcepcioDomini()</text>
<text text-anchor="start" x="13.31" y="-106.5" font-family="Helvetica,sans-Serif" font-size="10.00">+</text>
<text text-anchor="start" x="32.62" y="-106.5" font-family="Helvetica,sans-Serif" font-size="10.00">ExcepcioDomini()</text>
<polygon fill="#666666" stroke="#666666" points="0,-150 0,-150 132.5,-150 132.5,-150 0,-150"/>
<polygon fill="#666666" stroke="#666666" points="0,-134 0,-134 132.5,-134 132.5,-134 0,-134"/>
<polygon fill="none" stroke="#666666" points="0,-100 0,-180 132.5,-180 132.5,-100 0,-100"/>
</a>
</g>
</g>
<!-- Node2&#45;&gt;Node1 -->
<g id="edge1_Node000001_Node000002" class="edge">
<title>Node2&#45;&gt;Node1</title>
<g id="a_edge1_Node000001_Node000002"><a xlink:title=" ">
<path fill="none" stroke="#63b8ff" d="M66.25,-88.72C66.25,-80.25 66.25,-71.69 66.25,-63.9"/>
<polygon fill="none" stroke="#63b8ff" points="62.75,-88.62 66.25,-98.62 69.75,-88.62 62.75,-88.62"/>
</a>
</g>
</g>
<!-- Node3 -->
<g id="Node000003" class="node">
<title>Node3</title>
<g id="a_Node000003"><a xlink:title=" ">
<polygon fill="white" stroke="none" points="92,-268 40.5,-268 40.5,-216 92,-216 92,-268"/>
<text text-anchor="start" x="44.5" y="-254.5" font-family="Helvetica,sans-Serif" font-size="10.00">Exception</text>
<text text-anchor="start" x="64.75" y="-238.5" font-family="Helvetica,sans-Serif" font-size="10.00"> </text>
<text text-anchor="start" x="64.75" y="-222.5" font-family="Helvetica,sans-Serif" font-size="10.00"> </text>
<polygon fill="#666666" stroke="#666666" points="40.5,-250 40.5,-250 92,-250 92,-250 40.5,-250"/>
<polygon fill="#666666" stroke="#666666" points="40.5,-234 40.5,-234 92,-234 92,-234 40.5,-234"/>
<polygon fill="none" stroke="#666666" points="40.5,-216 40.5,-268 92,-268 92,-216 40.5,-216"/>
</a>
</g>
</g>
<!-- Node3&#45;&gt;Node2 -->
<g id="edge2_Node000002_Node000003" class="edge">
<title>Node3&#45;&gt;Node2</title>
<g id="a_edge2_Node000002_Node000003"><a xlink:title=" ">
<path fill="none" stroke="#63b8ff" d="M66.25,-204.61C66.25,-196.5 66.25,-187.86 66.25,-179.65"/>
<polygon fill="none" stroke="#63b8ff" points="62.75,-204.51 66.25,-214.51 69.75,-204.51 62.75,-204.51"/>
</a>
</g>
</g>
</g>
</svg>
