<?xml version="1.0" encoding="UTF-8" standalone="no"?>
<!DOCTYPE svg PUBLIC "-//W3C//DTD SVG 1.1//EN"
 "http://www.w3.org/Graphics/SVG/1.1/DTD/svg11.dtd">
<!-- Generated by graphviz version 12.2.1 (20241206.2353)
 -->
<!-- Title: domini.auxiliars.FastDeleteList.add Pages: 1 -->
<svg width="488pt" height="40pt"
 viewBox="0.00 0.00 488.00 40.00" xmlns="http://www.w3.org/2000/svg" xmlns:xlink="http://www.w3.org/1999/xlink">
<g id="graph0" class="graph" transform="scale(1 1) rotate(0) translate(4 36)">
<title>domini.auxiliars.FastDeleteList.add</title>
<!-- Node1 -->
<g id="Node000001" class="node">
<title>Node1</title>
<g id="a_Node000001"><a xlink:title="Afegeix un element al final de la llista.">
<polygon fill="#999999" stroke="#666666" points="480,-32 345.5,-32 345.5,0 480,0 480,-32"/>
<text text-anchor="start" x="353.5" y="-18.5" font-family="Helvetica,sans-Serif" font-size="10.00">domini.auxiliars.FastDelete</text>
<text text-anchor="middle" x="412.75" y="-6.5" font-family="Helvetica,sans-Serif" font-size="10.00">List.add</text>
</a>
</g>
</g>
<!-- Node2 -->
<g id="Node000002" class="node">
<title>Node2</title>
<g id="a_Node000002"><a xlink:href="classdomini_1_1auxiliars_1_1_fast_delete_list.html#a980586fffd42cc58377054b38c75a05f" target="_top" xlink:title="Afegeix tots els elements de la llista proporcionada.">
<polygon fill="white" stroke="#666666" points="309.5,-32 175,-32 175,0 309.5,0 309.5,-32"/>
<text text-anchor="start" x="183" y="-18.5" font-family="Helvetica,sans-Serif" font-size="10.00">domini.auxiliars.FastDelete</text>
<text text-anchor="middle" x="242.25" y="-6.5" font-family="Helvetica,sans-Serif" font-size="10.00">List.addAll</text>
</a>
</g>
</g>
<!-- Node1&#45;&gt;Node2 -->
<g id="edge1_Node000001_Node000002" class="edge">
<title>Node1&#45;&gt;Node2</title>
<g id="a_edge1_Node000001_Node000002"><a xlink:title=" ">
<path fill="none" stroke="#63b8ff" d="M333.9,-16C325.89,-16 317.79,-16 309.91,-16"/>
<polygon fill="#63b8ff" stroke="#63b8ff" points="333.64,-19.5 343.64,-16 333.64,-12.5 333.64,-19.5"/>
</a>
</g>
</g>
<!-- Node3 -->
<g id="Node000003" class="node">
<title>Node3</title>
<g id="a_Node000003"><a xlink:href="classdomini_1_1scrabble_1_1_bossa.html#ae2d17893015c31a6dfb0b69a76844587" target="_top" xlink:title="Buida la bossa i l&#39;omple amb les fitxes proporcionades.">
<polygon fill="white" stroke="#666666" points="139,-32 0,-32 0,0 139,0 139,-32"/>
<text text-anchor="start" x="8" y="-18.5" font-family="Helvetica,sans-Serif" font-size="10.00">domini.scrabble.Bossa.clear</text>
<text text-anchor="middle" x="69.5" y="-6.5" font-family="Helvetica,sans-Serif" font-size="10.00">Bossa</text>
</a>
</g>
</g>
<!-- Node2&#45;&gt;Node3 -->
<g id="edge2_Node000002_Node000003" class="edge">
<title>Node2&#45;&gt;Node3</title>
<g id="a_edge2_Node000002_Node000003"><a xlink:title=" ">
<path fill="none" stroke="#63b8ff" d="M163.47,-16C155.42,-16 147.29,-16 139.36,-16"/>
<polygon fill="#63b8ff" stroke="#63b8ff" points="163.23,-19.5 173.23,-16 163.23,-12.5 163.23,-19.5"/>
</a>
</g>
</g>
</g>
</svg>
