<?xml version="1.0" encoding="UTF-8" standalone="no"?>
<!DOCTYPE svg PUBLIC "-//W3C//DTD SVG 1.1//EN"
 "http://www.w3.org/Graphics/SVG/1.1/DTD/svg11.dtd">
<!-- Generated by graphviz version 12.2.1 (20241206.2353)
 -->
<!-- Title: domini.jugadors.Jugador.incrementar_puntuacio_actual Pages: 1 -->
<svg width="589pt" height="90pt"
 viewBox="0.00 0.00 589.25 90.00" xmlns="http://www.w3.org/2000/svg" xmlns:xlink="http://www.w3.org/1999/xlink">
<g id="graph0" class="graph" transform="scale(1 1) rotate(0) translate(4 86)">
<title>domini.jugadors.Jugador.incrementar_puntuacio_actual</title>
<!-- Node1 -->
<g id="Node000001" class="node">
<title>Node1</title>
<g id="a_Node000001"><a xlink:title="Afegeix punts a la puntuació actual del jugador.">
<polygon fill="#999999" stroke="#666666" points="581.25,-57 405.5,-57 405.5,-25 581.25,-25 581.25,-57"/>
<text text-anchor="start" x="413.5" y="-43.5" font-family="Helvetica,sans-Serif" font-size="10.00">domini.jugadors.Jugador.incrementar</text>
<text text-anchor="middle" x="493.38" y="-31.5" font-family="Helvetica,sans-Serif" font-size="10.00">_puntuacio_actual</text>
</a>
</g>
</g>
<!-- Node2 -->
<g id="Node000002" class="node">
<title>Node2</title>
<g id="a_Node000002"><a xlink:href="classcontroladors_1_1_ctrl_domini.html#a9b8102ac23ea03ea525c42517a8dbbbc" target="_top" xlink:title="Actualitza les dades globals dels jugadors després d&#39;una partida.">
<polygon fill="white" stroke="#666666" points="369.5,-82 202.75,-82 202.75,-50 369.5,-50 369.5,-82"/>
<text text-anchor="start" x="210.75" y="-68.5" font-family="Helvetica,sans-Serif" font-size="10.00">controladors.CtrlDomini.actualitzar</text>
<text text-anchor="middle" x="286.12" y="-56.5" font-family="Helvetica,sans-Serif" font-size="10.00">DadesGlobals</text>
</a>
</g>
</g>
<!-- Node1&#45;&gt;Node2 -->
<g id="edge1_Node000001_Node000002" class="edge">
<title>Node1&#45;&gt;Node2</title>
<g id="a_edge1_Node000001_Node000002"><a xlink:title=" ">
<path fill="none" stroke="#63b8ff" d="M393.75,-53.01C385.74,-53.99 377.7,-54.97 369.82,-55.93"/>
<polygon fill="#63b8ff" stroke="#63b8ff" points="394.03,-56.51 403.53,-51.82 393.18,-49.56 394.03,-56.51"/>
</a>
</g>
</g>
<!-- Node4 -->
<g id="Node000004" class="node">
<title>Node4</title>
<g id="a_Node000004"><a xlink:href="classdomini_1_1scrabble_1_1_partida.html#a6ccabc3836d6c8c400042b24b077c064" target="_top" xlink:title="Incrementa la puntuació del jugador actual.">
<polygon fill="white" stroke="#666666" points="358.62,-32 213.62,-32 213.62,0 358.62,0 358.62,-32"/>
<text text-anchor="start" x="221.62" y="-18.5" font-family="Helvetica,sans-Serif" font-size="10.00">domini.scrabble.Partida.afegir</text>
<text text-anchor="middle" x="286.12" y="-6.5" font-family="Helvetica,sans-Serif" font-size="10.00">PuntsJugadorActual</text>
</a>
</g>
</g>
<!-- Node1&#45;&gt;Node4 -->
<g id="edge3_Node000001_Node000004" class="edge">
<title>Node1&#45;&gt;Node4</title>
<g id="a_edge3_Node000001_Node000004"><a xlink:title=" ">
<path fill="none" stroke="#63b8ff" d="M393.79,-28.99C382.03,-27.56 370.19,-26.12 358.9,-24.74"/>
<polygon fill="#63b8ff" stroke="#63b8ff" points="393.18,-32.44 403.53,-30.18 394.03,-25.49 393.18,-32.44"/>
</a>
</g>
</g>
<!-- Node3 -->
<g id="Node000003" class="node">
<title>Node3</title>
<g id="a_Node000003"><a xlink:href="classcontroladors_1_1_ctrl_domini.html#af2774b364abee1ac4832823ff1b0d556" target="_top" xlink:title="Actualitza el rànquing després d&#39;una partida.">
<polygon fill="white" stroke="#666666" points="166.75,-82 0,-82 0,-50 166.75,-50 166.75,-82"/>
<text text-anchor="start" x="8" y="-68.5" font-family="Helvetica,sans-Serif" font-size="10.00">controladors.CtrlDomini.actualitzar</text>
<text text-anchor="middle" x="83.38" y="-56.5" font-family="Helvetica,sans-Serif" font-size="10.00">Ranking</text>
</a>
</g>
</g>
<!-- Node2&#45;&gt;Node3 -->
<g id="edge2_Node000002_Node000003" class="edge">
<title>Node2&#45;&gt;Node3</title>
<g id="a_edge2_Node000002_Node000003"><a xlink:title=" ">
<path fill="none" stroke="#63b8ff" d="M191.03,-66C183,-66 174.92,-66 167,-66"/>
<polygon fill="#63b8ff" stroke="#63b8ff" points="190.8,-69.5 200.8,-66 190.8,-62.5 190.8,-69.5"/>
</a>
</g>
</g>
</g>
</svg>
