<?xml version="1.0" encoding="UTF-8" standalone="no"?>
<!DOCTYPE svg PUBLIC "-//W3C//DTD SVG 1.1//EN"
 "http://www.w3.org/Graphics/SVG/1.1/DTD/svg11.dtd">
<!-- Generated by graphviz version 12.2.1 (20241206.2353)
 -->
<!-- Title: domini.auxiliars.MaxWord.getPoints Pages: 1 -->
<svg width="1120pt" height="90pt"
 viewBox="0.00 0.00 1120.25 90.00" xmlns="http://www.w3.org/2000/svg" xmlns:xlink="http://www.w3.org/1999/xlink">
<g id="graph0" class="graph" transform="scale(1 1) rotate(0) translate(4 86)">
<title>domini.auxiliars.MaxWord.getPoints</title>
<!-- Node1 -->
<g id="Node000001" class="node">
<title>Node1</title>
<g id="a_Node000001"><a xlink:title="Obté la puntuació de la paraula.">
<polygon fill="#999999" stroke="#666666" points="1112.25,-57 968,-57 968,-25 1112.25,-25 1112.25,-57"/>
<text text-anchor="start" x="976" y="-43.5" font-family="Helvetica,sans-Serif" font-size="10.00">domini.auxiliars.MaxWord.get</text>
<text text-anchor="middle" x="1040.12" y="-31.5" font-family="Helvetica,sans-Serif" font-size="10.00">Points</text>
</a>
</g>
</g>
<!-- Node2 -->
<g id="Node000002" class="node">
<title>Node2</title>
<g id="a_Node000002"><a xlink:href="classdomini_1_1scrabble_1_1_partida.html#a86e61fd71ee980fd43e1b4f788dfc6ae" target="_top" xlink:title="Permet que la màquina faci una jugada.">
<polygon fill="white" stroke="#666666" points="920,-82 787.75,-82 787.75,-50 920,-50 920,-82"/>
<text text-anchor="start" x="795.75" y="-68.5" font-family="Helvetica,sans-Serif" font-size="10.00">domini.scrabble.Partida.fer</text>
<text text-anchor="middle" x="853.88" y="-56.5" font-family="Helvetica,sans-Serif" font-size="10.00">JugadaMaquina</text>
</a>
</g>
</g>
<!-- Node1&#45;&gt;Node2 -->
<g id="edge1_Node000001_Node000002" class="edge">
<title>Node1&#45;&gt;Node2</title>
<g id="a_edge1_Node000001_Node000002"><a xlink:title=" ">
<path fill="none" stroke="#63b8ff" d="M956.56,-52.2C944.42,-53.85 932.05,-55.53 920.31,-57.12"/>
<polygon fill="#63b8ff" stroke="#63b8ff" points="956.69,-55.72 966.13,-50.9 955.75,-48.78 956.69,-55.72"/>
</a>
</g>
</g>
<!-- Node3 -->
<g id="Node000003" class="node">
<title>Node3</title>
<g id="a_Node000003"><a xlink:href="classdomini_1_1jugadors_1_1_maquina.html#a247420aa69d81da6d3d1951d3b409a43" target="_top" xlink:title="Valora una paraula i actualitza la millor paraula trobada si és millor.">
<polygon fill="white" stroke="#666666" points="932,-32 775.75,-32 775.75,0 932,0 932,-32"/>
<text text-anchor="start" x="783.75" y="-18.5" font-family="Helvetica,sans-Serif" font-size="10.00">domini.jugadors.Maquina.valorar</text>
<text text-anchor="middle" x="853.88" y="-6.5" font-family="Helvetica,sans-Serif" font-size="10.00">Paraula</text>
</a>
</g>
</g>
<!-- Node1&#45;&gt;Node3 -->
<g id="edge2_Node000001_Node000003" class="edge">
<title>Node1&#45;&gt;Node3</title>
<g id="a_edge2_Node000001_Node000003"><a xlink:title=" ">
<path fill="none" stroke="#63b8ff" d="M956.43,-29.78C948.45,-28.7 940.37,-27.6 932.44,-26.52"/>
<polygon fill="#63b8ff" stroke="#63b8ff" points="955.75,-33.22 966.13,-31.1 956.69,-26.28 955.75,-33.22"/>
</a>
</g>
</g>
<!-- Node4 -->
<g id="Node000004" class="node">
<title>Node4</title>
<g id="a_Node000004"><a xlink:href="classdomini_1_1jugadors_1_1_maquina.html#a28fa4d863085aaaba920b95a47bf14b7" target="_top" xlink:title="Genera totes les paraules possibles a la dreta d&#39;una subparaula prefix.">
<polygon fill="white" stroke="#666666" points="739.75,-32 583.5,-32 583.5,0 739.75,0 739.75,-32"/>
<text text-anchor="start" x="591.5" y="-18.5" font-family="Helvetica,sans-Serif" font-size="10.00">domini.jugadors.Maquina.extend</text>
<text text-anchor="middle" x="661.62" y="-6.5" font-family="Helvetica,sans-Serif" font-size="10.00">Right</text>
</a>
</g>
</g>
<!-- Node3&#45;&gt;Node4 -->
<g id="edge3_Node000003_Node000004" class="edge">
<title>Node3&#45;&gt;Node4</title>
<g id="a_edge3_Node000003_Node000004"><a xlink:title=" ">
<path fill="none" stroke="#63b8ff" d="M764.23,-16C756.22,-16 748.15,-16 740.25,-16"/>
<polygon fill="#63b8ff" stroke="#63b8ff" points="763.98,-19.5 773.98,-16 763.98,-12.5 763.98,-19.5"/>
</a>
</g>
</g>
<!-- Node4&#45;&gt;Node4 -->
<g id="edge4_Node000004_Node000004" class="edge">
<title>Node4&#45;&gt;Node4</title>
<g id="a_edge4_Node000004_Node000004"><a xlink:title=" ">
<path fill="none" stroke="#63b8ff" d="M693.66,-43.71C688.32,-47.48 677.64,-50 661.62,-50 632.34,-50 620.9,-41.58 627.3,-32.44"/>
<polygon fill="#63b8ff" stroke="#63b8ff" points="697.09,-44.42 695.65,-33.93 690.23,-43.03 697.09,-44.42"/>
</a>
</g>
</g>
<!-- Node5 -->
<g id="Node000005" class="node">
<title>Node5</title>
<g id="a_Node000005"><a xlink:href="classdomini_1_1jugadors_1_1_maquina.html#a408520f7aa4d96099ecfa1bae76728b5" target="_top" xlink:title="Genera totes les subparaules prefix possibles cap a l&#39;esquerra d&#39;una casella anchor.">
<polygon fill="white" stroke="#666666" points="547.5,-26 366.5,-26 366.5,-6 547.5,-6 547.5,-26"/>
<text text-anchor="middle" x="457" y="-12.5" font-family="Helvetica,sans-Serif" font-size="10.00">domini.jugadors.Maquina.generateLeft</text>
</a>
</g>
</g>
<!-- Node4&#45;&gt;Node5 -->
<g id="edge5_Node000004_Node000005" class="edge">
<title>Node4&#45;&gt;Node5</title>
<g id="a_edge5_Node000004_Node000005"><a xlink:title=" ">
<path fill="none" stroke="#63b8ff" d="M571.71,-16C563.83,-16 555.85,-16 547.97,-16"/>
<polygon fill="#63b8ff" stroke="#63b8ff" points="571.64,-19.5 581.64,-16 571.64,-12.5 571.64,-19.5"/>
</a>
</g>
</g>
<!-- Node5&#45;&gt;Node5 -->
<g id="edge6_Node000005_Node000005" class="edge">
<title>Node5&#45;&gt;Node5</title>
<g id="a_edge6_Node000005_Node000005"><a xlink:title=" ">
<path fill="none" stroke="#63b8ff" d="M493.55,-37.11C489.19,-41.14 477.01,-44 457,-44 421.43,-44 410.59,-34.98 424.49,-26.34"/>
<polygon fill="#63b8ff" stroke="#63b8ff" points="496.83,-35.89 490.04,-27.76 490.27,-38.35 496.83,-35.89"/>
</a>
</g>
</g>
<!-- Node6 -->
<g id="Node000006" class="node">
<title>Node6</title>
<g id="a_Node000006"><a xlink:href="classdomini_1_1jugadors_1_1_maquina.html#afe864f5cb4ab5895e149c5aad0235400" target="_top" xlink:title="Busca la millor paraula en una direcció específica (horitzontal o vertical).">
<polygon fill="white" stroke="#666666" points="330.5,-32 174.25,-32 174.25,0 330.5,0 330.5,-32"/>
<text text-anchor="start" x="182.25" y="-18.5" font-family="Helvetica,sans-Serif" font-size="10.00">domini.jugadors.Maquina.search</text>
<text text-anchor="middle" x="252.38" y="-6.5" font-family="Helvetica,sans-Serif" font-size="10.00">BestWord</text>
</a>
</g>
</g>
<!-- Node5&#45;&gt;Node6 -->
<g id="edge7_Node000005_Node000006" class="edge">
<title>Node5&#45;&gt;Node6</title>
<g id="a_edge7_Node000005_Node000006"><a xlink:title=" ">
<path fill="none" stroke="#63b8ff" d="M354.8,-16C346.7,-16 338.59,-16 330.69,-16"/>
<polygon fill="#63b8ff" stroke="#63b8ff" points="354.73,-19.5 364.73,-16 354.73,-12.5 354.73,-19.5"/>
</a>
</g>
</g>
<!-- Node7 -->
<g id="Node000007" class="node">
<title>Node7</title>
<g id="a_Node000007"><a xlink:href="classdomini_1_1jugadors_1_1_maquina.html#a8b1f4889bc62ca862e4f87e55c66871e" target="_top" xlink:title="Busca la paraula amb la puntuació més alta donats un taulell i un diccionari.">
<polygon fill="white" stroke="#666666" points="138.25,-32 0,-32 0,0 138.25,0 138.25,-32"/>
<text text-anchor="start" x="8" y="-18.5" font-family="Helvetica,sans-Serif" font-size="10.00">domini.jugadors.Maquina.fer</text>
<text text-anchor="middle" x="69.12" y="-6.5" font-family="Helvetica,sans-Serif" font-size="10.00">Jugada</text>
</a>
</g>
</g>
<!-- Node6&#45;&gt;Node7 -->
<g id="edge8_Node000006_Node000007" class="edge">
<title>Node6&#45;&gt;Node7</title>
<g id="a_edge8_Node000006_Node000007"><a xlink:title=" ">
<path fill="none" stroke="#63b8ff" d="M162.64,-16C154.58,-16 146.51,-16 138.67,-16"/>
<polygon fill="#63b8ff" stroke="#63b8ff" points="162.47,-19.5 172.47,-16 162.47,-12.5 162.47,-19.5"/>
</a>
</g>
</g>
</g>
</svg>
