<?xml version="1.0" encoding="UTF-8" standalone="no"?>
<!DOCTYPE svg PUBLIC "-//W3C//DTD SVG 1.1//EN"
 "http://www.w3.org/Graphics/SVG/1.1/DTD/svg11.dtd">
<!-- Generated by graphviz version 12.2.1 (20241206.2353)
 -->
<!-- Title: domini.scrabble.Fitxa.getLletra Pages: 1 -->
<svg width="1319pt" height="590pt"
 viewBox="0.00 0.00 1319.25 589.71" xmlns="http://www.w3.org/2000/svg" xmlns:xlink="http://www.w3.org/1999/xlink">
<g id="graph0" class="graph" transform="scale(1 1) rotate(0) translate(4 585.71)">
<title>domini.scrabble.Fitxa.getLletra</title>
<!-- Node1 -->
<g id="Node000001" class="node">
<title>Node1</title>
<g id="a_Node000001"><a xlink:title="Retorna la lletra associada a la fitxa.">
<polygon fill="#999999" stroke="#666666" points="1311.25,-414.83 1185.75,-414.83 1185.75,-382.83 1311.25,-382.83 1311.25,-414.83"/>
<text text-anchor="start" x="1193.75" y="-401.33" font-family="Helvetica,sans-Serif" font-size="10.00">domini.scrabble.Fitxa.get</text>
<text text-anchor="middle" x="1248.5" y="-389.33" font-family="Helvetica,sans-Serif" font-size="10.00">Lletra</text>
</a>
</g>
</g>
<!-- Node2 -->
<g id="Node000002" class="node">
<title>Node2</title>
<g id="a_Node000002"><a xlink:href="classcontroladors_1_1_ctrl_partida.html#a5e6d4a5bbd0538e02909fdd067b9c553" target="_top" xlink:title="Canvia un cert nombre de fitxes de la mà del jugador actual.">
<polygon fill="white" stroke="#666666" points="1142.62,-562.83 989.38,-562.83 989.38,-530.83 1142.62,-530.83 1142.62,-562.83"/>
<text text-anchor="start" x="997.38" y="-549.33" font-family="Helvetica,sans-Serif" font-size="10.00">controladors.CtrlPartida.canviar</text>
<text text-anchor="middle" x="1066" y="-537.33" font-family="Helvetica,sans-Serif" font-size="10.00">Fitxes</text>
</a>
</g>
</g>
<!-- Node1&#45;&gt;Node2 -->
<g id="edge1_Node000001_Node000002" class="edge">
<title>Node1&#45;&gt;Node2</title>
<g id="a_edge1_Node000001_Node000002"><a xlink:title=" ">
<path fill="none" stroke="#63b8ff" d="M1231.98,-424.71C1214.87,-451.22 1185.05,-491.98 1149.75,-516.83 1142.13,-522.19 1133.44,-526.7 1124.63,-530.47"/>
<polygon fill="#63b8ff" stroke="#63b8ff" points="1234.73,-426.91 1237.09,-416.58 1228.8,-423.18 1234.73,-426.91"/>
</a>
</g>
</g>
<!-- Node3 -->
<g id="Node000003" class="node">
<title>Node3</title>
<g id="a_Node000003"><a xlink:href="classcontroladors_1_1_ctrl_partida.html#ad0f7d5edb502bc4956cfd54612209ea7" target="_top" xlink:title="Col·loca una paraula al taulell.">
<polygon fill="white" stroke="#666666" points="731.88,-518.83 578.62,-518.83 578.62,-486.83 731.88,-486.83 731.88,-518.83"/>
<text text-anchor="start" x="586.62" y="-505.33" font-family="Helvetica,sans-Serif" font-size="10.00">controladors.CtrlPartida.colocar</text>
<text text-anchor="middle" x="655.25" y="-493.33" font-family="Helvetica,sans-Serif" font-size="10.00">Paraula</text>
</a>
</g>
</g>
<!-- Node1&#45;&gt;Node3 -->
<g id="edge4_Node000001_Node000003" class="edge">
<title>Node1&#45;&gt;Node3</title>
<g id="a_edge4_Node000001_Node000003"><a xlink:title=" ">
<path fill="none" stroke="#63b8ff" d="M1222.43,-422.76C1203.91,-438.85 1177.24,-458.87 1149.75,-468.83 1009.05,-519.79 831.25,-517.13 732.04,-510.23"/>
<polygon fill="#63b8ff" stroke="#63b8ff" points="1224.59,-425.53 1229.71,-416.25 1219.92,-420.31 1224.59,-425.53"/>
</a>
</g>
</g>
<!-- Node5 -->
<g id="Node000005" class="node">
<title>Node5</title>
<g id="a_Node000005"><a xlink:href="classcontroladors_1_1_ctrl_partida.html#a11dd5c5c7252681872e3ba7baf8213a8" target="_top" xlink:title="Comprova si una paraula és vàlida.">
<polygon fill="white" stroke="#666666" points="946.25,-474.83 781.75,-474.83 781.75,-442.83 946.25,-442.83 946.25,-474.83"/>
<text text-anchor="start" x="789.75" y="-461.33" font-family="Helvetica,sans-Serif" font-size="10.00">controladors.CtrlPartida.comprova</text>
<text text-anchor="middle" x="864" y="-449.33" font-family="Helvetica,sans-Serif" font-size="10.00">_paraula</text>
</a>
</g>
</g>
<!-- Node1&#45;&gt;Node5 -->
<g id="edge5_Node000001_Node000005" class="edge">
<title>Node1&#45;&gt;Node5</title>
<g id="a_edge5_Node000001_Node000005"><a xlink:title=" ">
<path fill="none" stroke="#63b8ff" d="M1210.87,-420.78C1193.06,-430.3 1170.97,-440.48 1149.75,-445.83 1082.81,-462.7 1004.27,-465.04 946.65,-463.68"/>
<polygon fill="#63b8ff" stroke="#63b8ff" points="1212.42,-423.92 1219.49,-416.03 1209.04,-417.79 1212.42,-423.92"/>
</a>
</g>
</g>
<!-- Node6 -->
<g id="Node000006" class="node">
<title>Node6</title>
<g id="a_Node000006"><a xlink:href="classcontroladors_1_1_ctrl_partida.html#a55c08c7767d17dd7d8b4ae00d33b1fe7" target="_top" xlink:title="Comprova si una lletra és vàlida per a una casella que formi paraula transversal vertical.">
<polygon fill="white" stroke="#666666" points="1149.75,-436.83 982.25,-436.83 982.25,-404.83 1149.75,-404.83 1149.75,-436.83"/>
<text text-anchor="start" x="990.25" y="-423.33" font-family="Helvetica,sans-Serif" font-size="10.00">controladors.CtrlPartida.comprovar</text>
<text text-anchor="middle" x="1066" y="-411.33" font-family="Helvetica,sans-Serif" font-size="10.00">_noves_paraules</text>
</a>
</g>
</g>
<!-- Node1&#45;&gt;Node6 -->
<g id="edge7_Node000001_Node000006" class="edge">
<title>Node1&#45;&gt;Node6</title>
<g id="a_edge7_Node000001_Node000006"><a xlink:title=" ">
<path fill="none" stroke="#63b8ff" d="M1174.23,-407.76C1166.23,-408.73 1158.05,-409.73 1149.95,-410.72"/>
<polygon fill="#63b8ff" stroke="#63b8ff" points="1174.38,-411.27 1183.88,-406.58 1173.53,-404.32 1174.38,-411.27"/>
</a>
</g>
</g>
<!-- Node7 -->
<g id="Node000007" class="node">
<title>Node7</title>
<g id="a_Node000007"><a xlink:href="classdomini_1_1jugadors_1_1_maquina.html#a28fa4d863085aaaba920b95a47bf14b7" target="_top" xlink:title="Genera totes les paraules possibles a la dreta d&#39;una subparaula prefix.">
<polygon fill="white" stroke="#666666" points="942.12,-392.83 785.88,-392.83 785.88,-360.83 942.12,-360.83 942.12,-392.83"/>
<text text-anchor="start" x="793.88" y="-379.33" font-family="Helvetica,sans-Serif" font-size="10.00">domini.jugadors.Maquina.extend</text>
<text text-anchor="middle" x="864" y="-367.33" font-family="Helvetica,sans-Serif" font-size="10.00">Right</text>
</a>
</g>
</g>
<!-- Node1&#45;&gt;Node7 -->
<g id="edge9_Node000001_Node000007" class="edge">
<title>Node1&#45;&gt;Node7</title>
<g id="a_edge9_Node000001_Node000007"><a xlink:title=" ">
<path fill="none" stroke="#63b8ff" d="M1174.41,-394.62C1107.92,-390.8 1010.1,-385.17 942.32,-381.27"/>
<polygon fill="#63b8ff" stroke="#63b8ff" points="1173.92,-398.1 1184.11,-395.18 1174.33,-391.11 1173.92,-398.1"/>
</a>
</g>
</g>
<!-- Node11 -->
<g id="Node000011" class="node">
<title>Node11</title>
<g id="a_Node000011"><a xlink:href="classdomini_1_1scrabble_1_1_taulell.html#ac2c62e3051ec0a2452f74c4a39c15598" target="_top" xlink:title="Mètode per imprimir el taulell per pantalla.">
<polygon fill="white" stroke="#666666" points="1134.38,-298.83 997.62,-298.83 997.62,-278.83 1134.38,-278.83 1134.38,-298.83"/>
<text text-anchor="middle" x="1066" y="-285.33" font-family="Helvetica,sans-Serif" font-size="10.00">domini.scrabble.Taulell.print</text>
</a>
</g>
</g>
<!-- Node1&#45;&gt;Node11 -->
<g id="edge15_Node000001_Node000011" class="edge">
<title>Node1&#45;&gt;Node11</title>
<g id="a_edge15_Node000001_Node000011"><a xlink:title=" ">
<path fill="none" stroke="#63b8ff" d="M1227.47,-373.97C1209.35,-353.16 1180.8,-324.29 1149.75,-307.83 1143.24,-304.37 1136.11,-301.54 1128.87,-299.23"/>
<polygon fill="#63b8ff" stroke="#63b8ff" points="1224.69,-376.1 1233.83,-381.46 1230.03,-371.57 1224.69,-376.1"/>
</a>
</g>
</g>
<!-- Node12 -->
<g id="Node000012" class="node">
<title>Node12</title>
<g id="a_Node000012"><a xlink:href="classinterficie_1_1_vista_partida.html#a9f0d9c59b7bc013b948846f280acba77" target="_top" xlink:title="Actualitza la visualització del taulell de joc.">
<polygon fill="white" stroke="#666666" points="1141.12,-238.83 990.88,-238.83 990.88,-206.83 1141.12,-206.83 1141.12,-238.83"/>
<text text-anchor="start" x="998.88" y="-225.33" font-family="Helvetica,sans-Serif" font-size="10.00">interficie.VistaPartida.refrescar</text>
<text text-anchor="middle" x="1066" y="-213.33" font-family="Helvetica,sans-Serif" font-size="10.00">Taulell</text>
</a>
</g>
</g>
<!-- Node1&#45;&gt;Node12 -->
<g id="edge16_Node000001_Node000012" class="edge">
<title>Node1&#45;&gt;Node12</title>
<g id="a_edge16_Node000001_Node000012"><a xlink:title=" ">
<path fill="none" stroke="#63b8ff" d="M1232.37,-372.98C1215.06,-345.01 1184.57,-300.34 1149.75,-269.83 1135.83,-257.63 1118.25,-247.11 1102.88,-239.14"/>
<polygon fill="#63b8ff" stroke="#63b8ff" points="1229.17,-374.44 1237.35,-381.17 1235.15,-370.81 1229.17,-374.44"/>
</a>
</g>
</g>
<!-- Node21 -->
<g id="Node000021" class="node">
<title>Node21</title>
<g id="a_Node000021"><a xlink:href="classdomini_1_1jugadors_1_1_maquina.html#a57c533590571f4918ebd03a0b0d4819b" target="_top" xlink:title="Comprova si una lletra és vàlida per a una casella que formi paraula transversal vertical.">
<polygon fill="white" stroke="#666666" points="1139.62,-348.83 992.38,-348.83 992.38,-316.83 1139.62,-316.83 1139.62,-348.83"/>
<text text-anchor="start" x="1000.38" y="-335.33" font-family="Helvetica,sans-Serif" font-size="10.00">domini.jugadors.Maquina.valid</text>
<text text-anchor="middle" x="1066" y="-323.33" font-family="Helvetica,sans-Serif" font-size="10.00">_traversals</text>
</a>
</g>
</g>
<!-- Node1&#45;&gt;Node21 -->
<g id="edge37_Node000001_Node000021" class="edge">
<title>Node1&#45;&gt;Node21</title>
<g id="a_edge37_Node000001_Node000021"><a xlink:title=" ">
<path fill="none" stroke="#63b8ff" d="M1192.76,-378.61C1178.74,-373.45 1163.69,-367.92 1149.75,-362.83 1137.69,-358.42 1124.64,-353.68 1112.54,-349.29"/>
<polygon fill="#63b8ff" stroke="#63b8ff" points="1191.22,-381.77 1201.82,-381.95 1193.64,-375.21 1191.22,-381.77"/>
</a>
</g>
</g>
<!-- Node2&#45;&gt;Node3 -->
<g id="edge2_Node000002_Node000003" class="edge">
<title>Node2&#45;&gt;Node3</title>
<g id="a_edge2_Node000002_Node000003"><a xlink:title=" ">
<path fill="none" stroke="#63b8ff" d="M995.69,-565.77C937.68,-578.59 853.17,-590.17 781.75,-571.83 742.25,-561.69 701.86,-536.22 677.92,-519.23"/>
<polygon fill="#63b8ff" stroke="#63b8ff" points="996.12,-569.26 1005.09,-563.62 994.56,-562.44 996.12,-569.26"/>
</a>
</g>
</g>
<!-- Node4 -->
<g id="Node000004" class="node">
<title>Node4</title>
<g id="a_Node000004"><a xlink:href="classcontroladors_1_1_ctrl_partida.html#afa4340f6a2cb198455d536ccaf87717b" target="_top" xlink:title="Gestiona el desenvolupament de la jugada de la màquina.">
<polygon fill="white" stroke="#666666" points="930.5,-562.83 797.5,-562.83 797.5,-530.83 930.5,-530.83 930.5,-562.83"/>
<text text-anchor="start" x="805.5" y="-549.33" font-family="Helvetica,sans-Serif" font-size="10.00">controladors.CtrlPartida.fer</text>
<text text-anchor="middle" x="864" y="-537.33" font-family="Helvetica,sans-Serif" font-size="10.00">JugadaMaquina</text>
</a>
</g>
</g>
<!-- Node2&#45;&gt;Node4 -->
<g id="edge3_Node000002_Node000004" class="edge">
<title>Node2&#45;&gt;Node4</title>
<g id="a_edge3_Node000002_Node000004"><a xlink:title=" ">
<path fill="none" stroke="#63b8ff" d="M977.72,-546.83C961.94,-546.83 945.74,-546.83 930.71,-546.83"/>
<polygon fill="#63b8ff" stroke="#63b8ff" points="977.59,-550.33 987.59,-546.83 977.59,-543.33 977.59,-550.33"/>
</a>
</g>
</g>
<!-- Node5&#45;&gt;Node3 -->
<g id="edge6_Node000005_Node000003" class="edge">
<title>Node5&#45;&gt;Node3</title>
<g id="a_edge6_Node000005_Node000003"><a xlink:title=" ">
<path fill="none" stroke="#63b8ff" d="M774.49,-477.66C760.37,-480.67 745.86,-483.76 732.06,-486.69"/>
<polygon fill="#63b8ff" stroke="#63b8ff" points="775.19,-481.09 784.24,-475.59 773.73,-474.25 775.19,-481.09"/>
</a>
</g>
</g>
<!-- Node6&#45;&gt;Node5 -->
<g id="edge8_Node000006_Node000005" class="edge">
<title>Node6&#45;&gt;Node5</title>
<g id="a_edge8_Node000006_Node000005"><a xlink:title=" ">
<path fill="none" stroke="#63b8ff" d="M970.88,-438.71C962.74,-440.26 954.56,-441.81 946.54,-443.33"/>
<polygon fill="#63b8ff" stroke="#63b8ff" points="971.26,-442.2 980.43,-436.89 969.95,-435.32 971.26,-442.2"/>
</a>
</g>
</g>
<!-- Node7&#45;&gt;Node7 -->
<g id="edge10_Node000007_Node000007" class="edge">
<title>Node7&#45;&gt;Node7</title>
<g id="a_edge10_Node000007_Node000007"><a xlink:title=" ">
<path fill="none" stroke="#63b8ff" d="M898.13,-404.21C892.69,-408.16 881.31,-410.83 864,-410.83 833.23,-410.83 821.21,-402.41 827.94,-393.27"/>
<polygon fill="#63b8ff" stroke="#63b8ff" points="901.51,-405.22 899.8,-394.76 894.61,-404 901.51,-405.22"/>
</a>
</g>
</g>
<!-- Node8 -->
<g id="Node000008" class="node">
<title>Node8</title>
<g id="a_Node000008"><a xlink:href="classdomini_1_1jugadors_1_1_maquina.html#a408520f7aa4d96099ecfa1bae76728b5" target="_top" xlink:title="Genera totes les subparaules prefix possibles cap a l&#39;esquerra d&#39;una casella anchor.">
<polygon fill="white" stroke="#666666" points="745.75,-386.83 564.75,-386.83 564.75,-366.83 745.75,-366.83 745.75,-386.83"/>
<text text-anchor="middle" x="655.25" y="-373.33" font-family="Helvetica,sans-Serif" font-size="10.00">domini.jugadors.Maquina.generateLeft</text>
</a>
</g>
</g>
<!-- Node7&#45;&gt;Node8 -->
<g id="edge11_Node000007_Node000008" class="edge">
<title>Node7&#45;&gt;Node8</title>
<g id="a_edge11_Node000007_Node000008"><a xlink:title=" ">
<path fill="none" stroke="#63b8ff" d="M774.18,-376.83C764.87,-376.83 755.4,-376.83 746.09,-376.83"/>
<polygon fill="#63b8ff" stroke="#63b8ff" points="773.91,-380.33 783.91,-376.83 773.91,-373.33 773.91,-380.33"/>
</a>
</g>
</g>
<!-- Node8&#45;&gt;Node8 -->
<g id="edge12_Node000008_Node000008" class="edge">
<title>Node8&#45;&gt;Node8</title>
<g id="a_edge12_Node000008_Node000008"><a xlink:title=" ">
<path fill="none" stroke="#63b8ff" d="M691.8,-397.94C687.44,-401.97 675.26,-404.83 655.25,-404.83 619.68,-404.83 608.84,-395.8 622.74,-387.17"/>
<polygon fill="#63b8ff" stroke="#63b8ff" points="695.08,-396.72 688.29,-388.58 688.52,-399.17 695.08,-396.72"/>
</a>
</g>
</g>
<!-- Node9 -->
<g id="Node000009" class="node">
<title>Node9</title>
<g id="a_Node000009"><a xlink:href="classdomini_1_1jugadors_1_1_maquina.html#afe864f5cb4ab5895e149c5aad0235400" target="_top" xlink:title="Busca la millor paraula en una direcció específica (horitzontal o vertical).">
<polygon fill="white" stroke="#666666" points="528.75,-392.83 372.5,-392.83 372.5,-360.83 528.75,-360.83 528.75,-392.83"/>
<text text-anchor="start" x="380.5" y="-379.33" font-family="Helvetica,sans-Serif" font-size="10.00">domini.jugadors.Maquina.search</text>
<text text-anchor="middle" x="450.62" y="-367.33" font-family="Helvetica,sans-Serif" font-size="10.00">BestWord</text>
</a>
</g>
</g>
<!-- Node8&#45;&gt;Node9 -->
<g id="edge13_Node000008_Node000009" class="edge">
<title>Node8&#45;&gt;Node9</title>
<g id="a_edge13_Node000008_Node000009"><a xlink:title=" ">
<path fill="none" stroke="#63b8ff" d="M553.05,-376.83C544.95,-376.83 536.84,-376.83 528.94,-376.83"/>
<polygon fill="#63b8ff" stroke="#63b8ff" points="552.98,-380.33 562.98,-376.83 552.98,-373.33 552.98,-380.33"/>
</a>
</g>
</g>
<!-- Node10 -->
<g id="Node000010" class="node">
<title>Node10</title>
<g id="a_Node000010"><a xlink:href="classdomini_1_1jugadors_1_1_maquina.html#a8b1f4889bc62ca862e4f87e55c66871e" target="_top" xlink:title="Busca la paraula amb la puntuació més alta donats un taulell i un diccionari.">
<polygon fill="white" stroke="#666666" points="330.5,-392.83 192.25,-392.83 192.25,-360.83 330.5,-360.83 330.5,-392.83"/>
<text text-anchor="start" x="200.25" y="-379.33" font-family="Helvetica,sans-Serif" font-size="10.00">domini.jugadors.Maquina.fer</text>
<text text-anchor="middle" x="261.38" y="-367.33" font-family="Helvetica,sans-Serif" font-size="10.00">Jugada</text>
</a>
</g>
</g>
<!-- Node9&#45;&gt;Node10 -->
<g id="edge14_Node000009_Node000010" class="edge">
<title>Node9&#45;&gt;Node10</title>
<g id="a_edge14_Node000009_Node000010"><a xlink:title=" ">
<path fill="none" stroke="#63b8ff" d="M360.81,-376.83C350.74,-376.83 340.6,-376.83 330.86,-376.83"/>
<polygon fill="#63b8ff" stroke="#63b8ff" points="360.6,-380.33 370.6,-376.83 360.6,-373.33 360.6,-380.33"/>
</a>
</g>
</g>
<!-- Node13 -->
<g id="Node000013" class="node">
<title>Node13</title>
<g id="a_Node000013"><a xlink:href="classinterficie_1_1_vista_partida.html#a7855e7a9cc41e1450c37054781ba6309" target="_top" xlink:title="Inicialitza els components de la interfície gràfica.">
<polygon fill="white" stroke="#666666" points="931.62,-172.83 796.38,-172.83 796.38,-152.83 931.62,-152.83 931.62,-172.83"/>
<text text-anchor="middle" x="864" y="-159.33" font-family="Helvetica,sans-Serif" font-size="10.00">interficie.VistaPartida.initUI</text>
</a>
</g>
</g>
<!-- Node12&#45;&gt;Node13 -->
<g id="edge17_Node000012_Node000013" class="edge">
<title>Node12&#45;&gt;Node13</title>
<g id="a_edge17_Node000012_Node000013"><a xlink:title=" ">
<path fill="none" stroke="#63b8ff" d="M999.11,-203.06C966.03,-193.13 927.29,-181.51 899.97,-173.32"/>
<polygon fill="#63b8ff" stroke="#63b8ff" points="998.05,-206.4 1008.63,-205.92 1000.06,-199.69 998.05,-206.4"/>
</a>
</g>
</g>
<!-- Node14 -->
<g id="Node000014" class="node">
<title>Node14</title>
<g id="a_Node000014"><a xlink:href="classinterficie_1_1_vista_partida.html#abce8626a6a3750affe851e1f8bea2cb3" target="_top" xlink:title="Constructor de la classe VistaPartida.">
<polygon fill="white" stroke="#666666" points="711.25,-178.83 599.25,-178.83 599.25,-146.83 711.25,-146.83 711.25,-178.83"/>
<text text-anchor="start" x="607.25" y="-165.33" font-family="Helvetica,sans-Serif" font-size="10.00">interficie.VistaPartida.</text>
<text text-anchor="middle" x="655.25" y="-153.33" font-family="Helvetica,sans-Serif" font-size="10.00">VistaPartida</text>
</a>
</g>
</g>
<!-- Node12&#45;&gt;Node14 -->
<g id="edge36_Node000012_Node000014" class="edge">
<title>Node12&#45;&gt;Node14</title>
<g id="a_edge36_Node000012_Node000014"><a xlink:title=" ">
<path fill="none" stroke="#63b8ff" d="M979.1,-210.54C922.93,-202.47 847.97,-191.63 781.75,-181.83 758.75,-178.42 733.4,-174.6 711.53,-171.27"/>
<polygon fill="#63b8ff" stroke="#63b8ff" points="978.54,-214 988.94,-211.95 979.53,-207.07 978.54,-214"/>
</a>
</g>
</g>
<!-- Node17 -->
<g id="Node000017" class="node">
<title>Node17</title>
<g id="a_Node000017"><a xlink:href="classinterficie_1_1_vista_partida.html#a485041b781e81c64fb5414207ff21d2a" target="_top" xlink:title="Actualitza la informació de la partida.">
<polygon fill="white" stroke="#666666" points="150.25,-134.83 0,-134.83 0,-102.83 150.25,-102.83 150.25,-134.83"/>
<text text-anchor="start" x="8" y="-121.33" font-family="Helvetica,sans-Serif" font-size="10.00">interficie.VistaPartida.refrescar</text>
<text text-anchor="middle" x="75.12" y="-109.33" font-family="Helvetica,sans-Serif" font-size="10.00">Informacio</text>
</a>
</g>
</g>
<!-- Node12&#45;&gt;Node17 -->
<g id="edge35_Node000012_Node000017" class="edge">
<title>Node12&#45;&gt;Node17</title>
<g id="a_edge35_Node000012_Node000017"><a xlink:title=" ">
<path fill="none" stroke="#63b8ff" d="M1018.8,-243.81C944.18,-275.73 791.78,-332.83 656.25,-332.83 656.25,-332.83 656.25,-332.83 449.62,-332.83 324.26,-332.83 290.96,-300.77 186.25,-231.83 144.84,-204.56 106.93,-159.36 88.28,-135.22"/>
<polygon fill="#63b8ff" stroke="#63b8ff" points="1020.06,-247.08 1027.84,-239.9 1017.28,-240.66 1020.06,-247.08"/>
</a>
</g>
</g>
<!-- Node13&#45;&gt;Node14 -->
<g id="edge18_Node000013_Node000014" class="edge">
<title>Node13&#45;&gt;Node14</title>
<g id="a_edge18_Node000013_Node000014"><a xlink:title=" ">
<path fill="none" stroke="#63b8ff" d="M784.74,-156.26C760.33,-155.9 733.94,-156.07 711.46,-156.78"/>
<polygon fill="#63b8ff" stroke="#63b8ff" points="784.58,-159.75 794.65,-156.44 784.71,-152.76 784.58,-159.75"/>
</a>
</g>
</g>
<!-- Node14&#45;&gt;Node13 -->
<g id="edge33_Node000014_Node000013" class="edge">
<title>Node14&#45;&gt;Node13</title>
<g id="a_edge33_Node000014_Node000013"><a xlink:title=" ">
<path fill="none" stroke="#63b8ff" d="M722.73,-169.18C746.22,-169.71 772.64,-169.71 796.16,-169.19"/>
<polygon fill="#63b8ff" stroke="#63b8ff" points="723.06,-165.69 712.97,-168.92 722.87,-172.68 723.06,-165.69"/>
</a>
</g>
</g>
<!-- Node14&#45;&gt;Node14 -->
<g id="edge34_Node000014_Node000014" class="edge">
<title>Node14&#45;&gt;Node14</title>
<g id="a_edge34_Node000014_Node000014"><a xlink:title=" ">
<path fill="none" stroke="#63b8ff" d="M689.59,-190.37C683.99,-194.24 672.54,-196.83 655.25,-196.83 624.08,-196.83 611.9,-188.41 618.72,-179.27"/>
<polygon fill="#63b8ff" stroke="#63b8ff" points="692.99,-191.24 691.49,-180.75 686.12,-189.89 692.99,-191.24"/>
</a>
</g>
</g>
<!-- Node15 -->
<g id="Node000015" class="node">
<title>Node15</title>
<g id="a_Node000015"><a xlink:href="classinterficie_1_1_vista_partida.html#a6bd7550fc714ba5195c8b55ffe3d973c" target="_top" xlink:title="Afegeix les fitxes d&#39;un jugador al seu rack.">
<polygon fill="white" stroke="#666666" points="518.62,-266.83 382.62,-266.83 382.62,-234.83 518.62,-234.83 518.62,-266.83"/>
<text text-anchor="start" x="390.62" y="-253.33" font-family="Helvetica,sans-Serif" font-size="10.00">interficie.VistaPartida.afegir</text>
<text text-anchor="middle" x="450.62" y="-241.33" font-family="Helvetica,sans-Serif" font-size="10.00">FitxesARack</text>
</a>
</g>
</g>
<!-- Node14&#45;&gt;Node15 -->
<g id="edge19_Node000014_Node000015" class="edge">
<title>Node14&#45;&gt;Node15</title>
<g id="a_edge19_Node000014_Node000015"><a xlink:title=" ">
<path fill="none" stroke="#63b8ff" d="M609.98,-184.1C586.08,-195.38 555.98,-209.25 528.75,-220.83 517.91,-225.44 506.1,-230.17 495.05,-234.48"/>
<polygon fill="#63b8ff" stroke="#63b8ff" points="611.24,-187.37 618.78,-179.93 608.25,-181.05 611.24,-187.37"/>
</a>
</g>
</g>
<!-- Node18 -->
<g id="Node000018" class="node">
<title>Node18</title>
<g id="a_Node000018"><a xlink:href="classinterficie_1_1_vista_partida.html#ae6809bc2e7efc03077c111367571f788" target="_top" xlink:title="Afegeix maquetes al rack de l&#39;oponent.">
<polygon fill="white" stroke="#666666" points="518.62,-178.83 382.62,-178.83 382.62,-146.83 518.62,-146.83 518.62,-178.83"/>
<text text-anchor="start" x="390.62" y="-165.33" font-family="Helvetica,sans-Serif" font-size="10.00">interficie.VistaPartida.afegir</text>
<text text-anchor="middle" x="450.62" y="-153.33" font-family="Helvetica,sans-Serif" font-size="10.00">MaquetesARack</text>
</a>
</g>
</g>
<!-- Node14&#45;&gt;Node18 -->
<g id="edge27_Node000014_Node000018" class="edge">
<title>Node14&#45;&gt;Node18</title>
<g id="a_edge27_Node000014_Node000018"><a xlink:title=" ">
<path fill="none" stroke="#63b8ff" d="M587.59,-162.83C565.52,-162.83 540.95,-162.83 518.83,-162.83"/>
<polygon fill="#63b8ff" stroke="#63b8ff" points="587.37,-166.33 597.37,-162.83 587.37,-159.33 587.37,-166.33"/>
</a>
</g>
</g>
<!-- Node19 -->
<g id="Node000019" class="node">
<title>Node19</title>
<g id="a_Node000019"><a xlink:href="classinterficie_1_1_vista_partida.html#a8ebc9da2a2b927ba87ed97ad85ae44e8" target="_top" xlink:title="Confirma l&#39;acció de guardar la partida.">
<polygon fill="white" stroke="#666666" points="526.88,-52.83 374.38,-52.83 374.38,-20.83 526.88,-20.83 526.88,-52.83"/>
<text text-anchor="start" x="382.38" y="-39.33" font-family="Helvetica,sans-Serif" font-size="10.00">interficie.VistaPartida.confirmar</text>
<text text-anchor="middle" x="450.62" y="-27.33" font-family="Helvetica,sans-Serif" font-size="10.00">Guardar</text>
</a>
</g>
</g>
<!-- Node14&#45;&gt;Node19 -->
<g id="edge29_Node000014_Node000019" class="edge">
<title>Node14&#45;&gt;Node19</title>
<g id="a_edge29_Node000014_Node000019"><a xlink:title=" ">
<path fill="none" stroke="#63b8ff" d="M624.45,-139.33C590.65,-112.79 538.89,-72.52 528.75,-66.83 519.73,-61.76 509.69,-57.17 499.9,-53.19"/>
<polygon fill="#63b8ff" stroke="#63b8ff" points="622.25,-142.05 632.27,-145.48 626.57,-136.55 622.25,-142.05"/>
</a>
</g>
</g>
<!-- Node20 -->
<g id="Node000020" class="node">
<title>Node20</title>
<g id="a_Node000020"><a xlink:href="classinterficie_1_1_vista_partida.html#ab47b596fbbd6a79289d4b9d7f5b5e068" target="_top" xlink:title="Crea un panell amb la informació d&#39;un jugador.">
<polygon fill="white" stroke="#666666" points="328.25,-90.83 194.5,-90.83 194.5,-58.83 328.25,-58.83 328.25,-90.83"/>
<text text-anchor="start" x="202.5" y="-77.33" font-family="Helvetica,sans-Serif" font-size="10.00">interficie.VistaPartida.crear</text>
<text text-anchor="middle" x="261.38" y="-65.33" font-family="Helvetica,sans-Serif" font-size="10.00">PanelJugador</text>
</a>
</g>
</g>
<!-- Node14&#45;&gt;Node20 -->
<g id="edge31_Node000014_Node000020" class="edge">
<title>Node14&#45;&gt;Node20</title>
<g id="a_edge31_Node000014_Node000020"><a xlink:title=" ">
<path fill="none" stroke="#63b8ff" d="M615.99,-141.22C591.74,-128.54 559.29,-113.36 528.75,-104.83 462.19,-86.22 383.22,-79.11 328.63,-76.41"/>
<polygon fill="#63b8ff" stroke="#63b8ff" points="614.04,-144.15 624.51,-145.77 617.34,-137.98 614.04,-144.15"/>
</a>
</g>
</g>
<!-- Node16 -->
<g id="Node000016" class="node">
<title>Node16</title>
<g id="a_Node000016"><a xlink:href="classinterficie_1_1_vista_partida.html#a0698d192124492ebfd8a3b029a6fa23c" target="_top" xlink:title="Actualitza els racks dels jugadors.">
<polygon fill="white" stroke="#666666" points="336.5,-222.83 186.25,-222.83 186.25,-190.83 336.5,-190.83 336.5,-222.83"/>
<text text-anchor="start" x="194.25" y="-209.33" font-family="Helvetica,sans-Serif" font-size="10.00">interficie.VistaPartida.refrescar</text>
<text text-anchor="middle" x="261.38" y="-197.33" font-family="Helvetica,sans-Serif" font-size="10.00">RackJugadors</text>
</a>
</g>
</g>
<!-- Node15&#45;&gt;Node16 -->
<g id="edge20_Node000015_Node000016" class="edge">
<title>Node15&#45;&gt;Node16</title>
<g id="a_edge20_Node000015_Node000016"><a xlink:title=" ">
<path fill="none" stroke="#63b8ff" d="M371.16,-232.39C358.36,-229.38 345.17,-226.28 332.59,-223.32"/>
<polygon fill="#63b8ff" stroke="#63b8ff" points="370.28,-235.78 380.81,-234.66 371.88,-228.96 370.28,-235.78"/>
</a>
</g>
</g>
<!-- Node16&#45;&gt;Node13 -->
<g id="edge21_Node000016_Node000013" class="edge">
<title>Node16&#45;&gt;Node13</title>
<g id="a_edge21_Node000016_Node000013"><a xlink:title=" ">
<path fill="none" stroke="#63b8ff" d="M290.02,-230.35C311.1,-246.65 341.66,-266.96 372.5,-275.83 439.24,-295.01 460.15,-286.62 528.75,-275.83 650.98,-256.6 788.43,-197.36 840.97,-173.22"/>
<polygon fill="#63b8ff" stroke="#63b8ff" points="292.23,-227.63 282.23,-224.14 287.87,-233.11 292.23,-227.63"/>
</a>
</g>
</g>
<!-- Node16&#45;&gt;Node14 -->
<g id="edge26_Node000016_Node000014" class="edge">
<title>Node16&#45;&gt;Node14</title>
<g id="a_edge26_Node000016_Node000014"><a xlink:title=" ">
<path fill="none" stroke="#63b8ff" d="M348.23,-203.44C400.57,-200.7 468.71,-195.92 528.75,-187.83 551.87,-184.71 577.13,-179.95 598.9,-175.41"/>
<polygon fill="#63b8ff" stroke="#63b8ff" points="348.3,-199.93 338.49,-203.93 348.65,-206.92 348.3,-199.93"/>
</a>
</g>
</g>
<!-- Node16&#45;&gt;Node17 -->
<g id="edge22_Node000016_Node000017" class="edge">
<title>Node16&#45;&gt;Node17</title>
<g id="a_edge22_Node000016_Node000017"><a xlink:title=" ">
<path fill="none" stroke="#63b8ff" d="M216.04,-185.65C183.62,-170.17 140.29,-149.47 110.48,-135.23"/>
<polygon fill="#63b8ff" stroke="#63b8ff" points="214.25,-188.68 224.79,-189.83 217.27,-182.36 214.25,-188.68"/>
</a>
</g>
</g>
<!-- Node17&#45;&gt;Node13 -->
<g id="edge23_Node000017_Node000013" class="edge">
<title>Node17&#45;&gt;Node13</title>
<g id="a_edge23_Node000017_Node000013"><a xlink:title=" ">
<path fill="none" stroke="#63b8ff" d="M106.38,-95.69C127.65,-80.5 157.37,-61.38 186.25,-49.83 328.45,7.05 376.9,8.12 528.75,-11.83 627.73,-24.83 656.56,-24.98 745.75,-69.83 790.32,-92.23 833.99,-133.34 853.04,-152.5"/>
<polygon fill="#63b8ff" stroke="#63b8ff" points="104.48,-92.75 98.45,-101.46 108.6,-98.4 104.48,-92.75"/>
</a>
</g>
</g>
<!-- Node17&#45;&gt;Node14 -->
<g id="edge25_Node000017_Node000014" class="edge">
<title>Node17&#45;&gt;Node14</title>
<g id="a_edge25_Node000017_Node000014"><a xlink:title=" ">
<path fill="none" stroke="#63b8ff" d="M161.89,-118.49C253.16,-119.05 401.63,-122.59 528.75,-137.83 551.91,-140.6 577.19,-145.31 598.94,-149.89"/>
<polygon fill="#63b8ff" stroke="#63b8ff" points="162.03,-114.99 152.01,-118.44 161.99,-121.99 162.03,-114.99"/>
</a>
</g>
</g>
<!-- Node17&#45;&gt;Node17 -->
<g id="edge24_Node000017_Node000017" class="edge">
<title>Node17&#45;&gt;Node17</title>
<g id="a_edge24_Node000017_Node000017"><a xlink:title=" ">
<path fill="none" stroke="#63b8ff" d="M106.16,-146.53C100.99,-150.31 90.64,-152.83 75.12,-152.83 46.75,-152.83 35.67,-144.41 41.87,-135.27"/>
<polygon fill="#63b8ff" stroke="#63b8ff" points="109.59,-147.24 108.08,-136.75 102.72,-145.89 109.59,-147.24"/>
</a>
</g>
</g>
<!-- Node18&#45;&gt;Node16 -->
<g id="edge28_Node000018_Node000016" class="edge">
<title>Node18&#45;&gt;Node16</title>
<g id="a_edge28_Node000018_Node000016"><a xlink:title=" ">
<path fill="none" stroke="#63b8ff" d="M371.16,-181.26C358.36,-184.27 345.17,-187.37 332.59,-190.33"/>
<polygon fill="#63b8ff" stroke="#63b8ff" points="371.88,-184.69 380.81,-179 370.28,-177.88 371.88,-184.69"/>
</a>
</g>
</g>
<!-- Node19&#45;&gt;Node13 -->
<g id="edge30_Node000019_Node000013" class="edge">
<title>Node19&#45;&gt;Node13</title>
<g id="a_edge30_Node000019_Node000013"><a xlink:title=" ">
<path fill="none" stroke="#63b8ff" d="M516.45,-56.68C604.98,-83.8 760.5,-131.43 828.99,-152.41"/>
<polygon fill="#63b8ff" stroke="#63b8ff" points="517.5,-53.34 506.92,-53.76 515.45,-60.04 517.5,-53.34"/>
</a>
</g>
</g>
<!-- Node20&#45;&gt;Node17 -->
<g id="edge32_Node000020_Node000017" class="edge">
<title>Node20&#45;&gt;Node17</title>
<g id="a_edge32_Node000020_Node000017"><a xlink:title=" ">
<path fill="none" stroke="#63b8ff" d="M183.17,-93.26C170.57,-96.27 157.6,-99.37 145.21,-102.33"/>
<polygon fill="#63b8ff" stroke="#63b8ff" points="183.73,-96.73 192.64,-91 182.11,-89.92 183.73,-96.73"/>
</a>
</g>
</g>
<!-- Node21&#45;&gt;Node7 -->
<g id="edge38_Node000021_Node000007" class="edge">
<title>Node21&#45;&gt;Node7</title>
<g id="a_edge38_Node000021_Node000007"><a xlink:title=" ">
<path fill="none" stroke="#63b8ff" d="M981.08,-351.29C967.4,-354.3 953.31,-357.4 939.87,-360.36"/>
<polygon fill="#63b8ff" stroke="#63b8ff" points="981.45,-354.79 990.47,-349.22 979.95,-347.95 981.45,-354.79"/>
</a>
</g>
</g>
</g>
</svg>
