<?xml version="1.0" encoding="UTF-8" standalone="no"?>
<!DOCTYPE svg PUBLIC "-//W3C//DTD SVG 1.1//EN"
 "http://www.w3.org/Graphics/SVG/1.1/DTD/svg11.dtd">
<!-- Generated by graphviz version 12.2.1 (20241206.2353)
 -->
<!-- Title: domini.diccionari.DAWG.dictionary2DAWG Pages: 1 -->
<svg width="618pt" height="28pt"
 viewBox="0.00 0.00 617.75 28.00" xmlns="http://www.w3.org/2000/svg" xmlns:xlink="http://www.w3.org/1999/xlink">
<g id="graph0" class="graph" transform="scale(1 1) rotate(0) translate(4 24)">
<title>domini.diccionari.DAWG.dictionary2DAWG</title>
<!-- Node1 -->
<g id="Node000001" class="node">
<title>Node1</title>
<g id="a_Node000001"><a xlink:title="Genera un DAWG a partir d&#39;un fitxer amb un format específic.">
<polygon fill="#999999" stroke="#666666" points="203.5,-20 0,-20 0,0 203.5,0 203.5,-20"/>
<text text-anchor="middle" x="101.75" y="-6.5" font-family="Helvetica,sans-Serif" font-size="10.00">domini.diccionari.DAWG.dictionary2DAWG</text>
</a>
</g>
</g>
<!-- Node2 -->
<g id="Node000002" class="node">
<title>Node2</title>
<g id="a_Node000002"><a xlink:href="classdomini_1_1diccionari_1_1_d_a_w_g.html#a4556b78b36bb9abd60c62c0c67b65c94" target="_top" xlink:title="Modifica el DAWG perquè reconegui la paraula d&#39;entrada com a pertanyent al lèxic.">
<polygon fill="white" stroke="#666666" points="411.5,-20 239.5,-20 239.5,0 411.5,0 411.5,-20"/>
<text text-anchor="middle" x="325.5" y="-6.5" font-family="Helvetica,sans-Serif" font-size="10.00">domini.diccionari.DAWG.insertWord</text>
</a>
</g>
</g>
<!-- Node1&#45;&gt;Node2 -->
<g id="edge1_Node000001_Node000002" class="edge">
<title>Node1&#45;&gt;Node2</title>
<g id="a_edge1_Node000001_Node000002"><a xlink:title=" ">
<path fill="none" stroke="#63b8ff" d="M203.89,-10C211.8,-10 219.77,-10 227.64,-10"/>
<polygon fill="#63b8ff" stroke="#63b8ff" points="227.58,-13.5 237.58,-10 227.58,-6.5 227.58,-13.5"/>
</a>
</g>
</g>
<!-- Node3 -->
<g id="Node000003" class="node">
<title>Node3</title>
<g id="a_Node000003"><a xlink:href="classdomini_1_1diccionari_1_1_d_a_w_g.html#ad5db7cc629d77068e51ccae18f9bfebd" target="_top" xlink:title="Genera una llista amb les lletres i dígrafs de la paraula paràmetre.">
<polygon fill="white" stroke="#666666" points="609.75,-20 447.5,-20 447.5,0 609.75,0 609.75,-20"/>
<text text-anchor="middle" x="528.62" y="-6.5" font-family="Helvetica,sans-Serif" font-size="10.00">domini.diccionari.DAWG.tokenize</text>
</a>
</g>
</g>
<!-- Node2&#45;&gt;Node3 -->
<g id="edge2_Node000002_Node000003" class="edge">
<title>Node2&#45;&gt;Node3</title>
<g id="a_edge2_Node000002_Node000003"><a xlink:title=" ">
<path fill="none" stroke="#63b8ff" d="M411.8,-10C419.8,-10 427.94,-10 436,-10"/>
<polygon fill="#63b8ff" stroke="#63b8ff" points="435.8,-13.5 445.8,-10 435.8,-6.5 435.8,-13.5"/>
</a>
</g>
</g>
</g>
</svg>
