<?xml version="1.0" encoding="UTF-8" standalone="no"?>
<!DOCTYPE svg PUBLIC "-//W3C//DTD SVG 1.1//EN"
 "http://www.w3.org/Graphics/SVG/1.1/DTD/svg11.dtd">
<!-- Generated by graphviz version 12.2.1 (20241206.2353)
 -->
<!-- Title: domini.scrabble.Partida.finalitzarPerTornsConsecutius Pages: 1 -->
<svg width="531pt" height="40pt"
 viewBox="0.00 0.00 530.75 40.00" xmlns="http://www.w3.org/2000/svg" xmlns:xlink="http://www.w3.org/1999/xlink">
<g id="graph0" class="graph" transform="scale(1 1) rotate(0) translate(4 36)">
<title>domini.scrabble.Partida.finalitzarPerTornsConsecutius</title>
<!-- Node1 -->
<g id="Node000001" class="node">
<title>Node1</title>
<g id="a_Node000001"><a xlink:title="Finalitza la partida per torns consecutius passats.">
<polygon fill="#999999" stroke="#666666" points="157.75,-32 0,-32 0,0 157.75,0 157.75,-32"/>
<text text-anchor="start" x="8" y="-18.5" font-family="Helvetica,sans-Serif" font-size="10.00">domini.scrabble.Partida.finalitzar</text>
<text text-anchor="middle" x="78.88" y="-6.5" font-family="Helvetica,sans-Serif" font-size="10.00">PerTornsConsecutius</text>
</a>
</g>
</g>
<!-- Node2 -->
<g id="Node000002" class="node">
<title>Node2</title>
<g id="a_Node000002"><a xlink:href="classdomini_1_1scrabble_1_1_partida.html#acf60a856f124c361384e0fc1456a4f37" target="_top" xlink:title="Calcula la puntuació total de les fitxes restants d&#39;un jugador.">
<polygon fill="white" stroke="#666666" points="348.5,-32 193.75,-32 193.75,0 348.5,0 348.5,-32"/>
<text text-anchor="start" x="201.75" y="-18.5" font-family="Helvetica,sans-Serif" font-size="10.00">domini.scrabble.Partida.calcular</text>
<text text-anchor="middle" x="271.12" y="-6.5" font-family="Helvetica,sans-Serif" font-size="10.00">PuntuacionsFitxes</text>
</a>
</g>
</g>
<!-- Node1&#45;&gt;Node2 -->
<g id="edge1_Node000001_Node000002" class="edge">
<title>Node1&#45;&gt;Node2</title>
<g id="a_edge1_Node000001_Node000002"><a xlink:title=" ">
<path fill="none" stroke="#63b8ff" d="M158.08,-16C166.02,-16 174.13,-16 182.16,-16"/>
<polygon fill="#63b8ff" stroke="#63b8ff" points="181.94,-19.5 191.94,-16 181.94,-12.5 181.94,-19.5"/>
</a>
</g>
</g>
<!-- Node3 -->
<g id="Node000003" class="node">
<title>Node3</title>
<g id="a_Node000003"><a xlink:href="classdomini_1_1jugadors_1_1_jugador.html#acf9520ec234c3f2cc52e1b79b85a008e" target="_top" xlink:title="Retorna la llista amb les fitxes actuals del jugador.">
<polygon fill="white" stroke="#666666" points="522.75,-32 384.5,-32 384.5,0 522.75,0 522.75,-32"/>
<text text-anchor="start" x="392.5" y="-18.5" font-family="Helvetica,sans-Serif" font-size="10.00">domini.jugadors.Jugador.get</text>
<text text-anchor="middle" x="453.62" y="-6.5" font-family="Helvetica,sans-Serif" font-size="10.00">Fitxes_actuals</text>
</a>
</g>
</g>
<!-- Node2&#45;&gt;Node3 -->
<g id="edge2_Node000002_Node000003" class="edge">
<title>Node2&#45;&gt;Node3</title>
<g id="a_edge2_Node000002_Node000003"><a xlink:title=" ">
<path fill="none" stroke="#63b8ff" d="M348.93,-16C356.8,-16 364.8,-16 372.7,-16"/>
<polygon fill="#63b8ff" stroke="#63b8ff" points="372.65,-19.5 382.65,-16 372.65,-12.5 372.65,-19.5"/>
</a>
</g>
</g>
</g>
</svg>
