<?xml version="1.0" encoding="UTF-8" standalone="no"?>
<!DOCTYPE svg PUBLIC "-//W3C//DTD SVG 1.1//EN"
 "http://www.w3.org/Graphics/SVG/1.1/DTD/svg11.dtd">
<!-- Generated by graphviz version 12.2.1 (20241206.2353)
 -->
<!-- Title: domini.auxiliars.Pair.getSecond Pages: 1 -->
<!--zoomable 396 -->

<svg id="main" version="1.1" xmlns="http://www.w3.org/2000/svg" xmlns:xlink="http://www.w3.org/1999/xlink" xml:space="preserve" onload="init(evt)">

<style type="text/css"><![CDATA[
.node, .edge {opacity: 0.7;}
.node.selected, .edge.selected {opacity: 1;}
.edge:hover path { stroke: red; }
.edge:hover polygon { stroke: red; fill: red; }
]]></style>

<defs>
  <circle id="rim" cx="0" cy="0" r="7"/>
  <circle id="rim2" cx="0" cy="0" r="3.5"/>
  <g id="zoomPlus">
    <use xlink:href="#rim" fill="#404040"><set attributeName="fill" to="#808080" begin="zoomplus.mouseover" end="zoomplus.mouseout"/></use>
    <path d="M-4,0h8M0,-4v8" fill="none" stroke="white" stroke-width="1.5" pointer-events="none"/>
  </g>
  <g id="zoomMin">
    <use xlink:href="#rim" fill="#404040"><set attributeName="fill" to="#808080" begin="zoomminus.mouseover" end="zoomminus.mouseout"/></use>
    <path d="M-4,0h8" fill="none" stroke="white" stroke-width="1.5" pointer-events="none"/>
  </g>
  <g id="arrowUp" transform="translate(30 24)">
    <use xlink:href="#rim"/>
    <path pointer-events="none" fill="none" stroke="white" stroke-width="1.5" d="M0,-3.0v7 M-2.5,-0.5L0,-3.0L2.5,-0.5"/>
  </g>
  <g id="arrowRight" transform="rotate(90) translate(36 -43)">
    <use xlink:href="#rim"/>
    <path pointer-events="none" fill="none" stroke="white" stroke-width="1.5" d="M0,-3.0v7 M-2.5,-0.5L0,-3.0L2.5,-0.5"/>
  </g>
  <g id="arrowDown" transform="rotate(180) translate(-30 -48)">
    <use xlink:href="#rim"/>
    <path pointer-events="none" fill="none" stroke="white" stroke-width="1.5" d="M0,-3.0v7 M-2.5,-0.5L0,-3.0L2.5,-0.5"/>
  </g>
  <g id="arrowLeft" transform="rotate(270) translate(-36 17)">
    <use xlink:href="#rim"/>
    <path pointer-events="none" fill="none" stroke="white" stroke-width="1.5" d="M0,-3.0v7 M-2.5,-0.5L0,-3.0L2.5,-0.5"/>
  </g>
  <g id="resetDef">
    <use xlink:href="#rim2" fill="#404040"><set attributeName="fill" to="#808080" begin="reset.mouseover" end="reset.mouseout"/></use>
  </g>
</defs>
<script type="application/ecmascript">
var viewWidth = 1308;
var viewHeight = 396;
var sectionId = 'dynsection-5';
</script>
<script type="application/ecmascript" xlink:href="svg.min.js"/>
<svg id="graph" class="graph">
<g id="viewport">
<title>domini.auxiliars.Pair.getSecond</title>
<!-- Node1 -->
<g id="Node000001" class="node">
<title>Node1</title>
<g id="a_Node000001"><a xlink:title="Obté el segon element de la parella.">
<polygon fill="#999999" stroke="#666666" points="1300,-214 1179.75,-214 1179.75,-182 1300,-182 1300,-214"/>
<text text-anchor="start" x="1187.75" y="-200.5" font-family="Helvetica,sans-Serif" font-size="10.00">domini.auxiliars.Pair.get</text>
<text text-anchor="middle" x="1239.88" y="-188.5" font-family="Helvetica,sans-Serif" font-size="10.00">Second</text>
</a>
</g>
</g>
<!-- Node2 -->
<g id="Node000002" class="node">
<title>Node2</title>
<g id="a_Node000002"><a xlink:href="classdomini_1_1jugadors_1_1_maquina.html#a80169174406c5da6922feb0f4c854ac8" target="_top" xlink:title="Calcula la puntuació d&#39;una paraula col·locada en el taulell.">
<polygon fill="white" stroke="#666666" points="1140.38,-258 979.62,-258 979.62,-226 1140.38,-226 1140.38,-258"/>
<text text-anchor="start" x="987.62" y="-244.5" font-family="Helvetica,sans-Serif" font-size="10.00">domini.jugadors.Maquina.calcular</text>
<text text-anchor="middle" x="1060" y="-232.5" font-family="Helvetica,sans-Serif" font-size="10.00">Puntatge</text>
</a>
</g>
</g>
<!-- Node1&#45;&gt;Node2 -->
<g id="edge1_Node000001_Node000002" class="edge">
<title>Node1&#45;&gt;Node2</title>
<g id="a_edge1_Node000001_Node000002"><a xlink:title=" ">
<path fill="none" stroke="#63b8ff" d="M1168.5,-215.41C1155.04,-218.74 1140.98,-222.21 1127.64,-225.51"/>
<polygon fill="#63b8ff" stroke="#63b8ff" points="1169.31,-218.81 1178.18,-213.01 1167.63,-212.02 1169.31,-218.81"/>
</a>
</g>
</g>
<!-- Node3 -->
<g id="Node000003" class="node">
<title>Node3</title>
<g id="a_Node000003"><a xlink:href="classdomini_1_1jugadors_1_1_maquina.html#a247420aa69d81da6d3d1951d3b409a43" target="_top" xlink:title="Valora una paraula i actualitza la millor paraula trobada si és millor.">
<polygon fill="white" stroke="#666666" points="936.12,-284 779.88,-284 779.88,-252 936.12,-252 936.12,-284"/>
<text text-anchor="start" x="787.88" y="-270.5" font-family="Helvetica,sans-Serif" font-size="10.00">domini.jugadors.Maquina.valorar</text>
<text text-anchor="middle" x="858" y="-258.5" font-family="Helvetica,sans-Serif" font-size="10.00">Paraula</text>
</a>
</g>
</g>
<!-- Node1&#45;&gt;Node3 -->
<g id="edge20_Node000001_Node000003" class="edge">
<title>Node1&#45;&gt;Node3</title>
<g id="a_edge20_Node000001_Node000003"><a xlink:title=" ">
<path fill="none" stroke="#63b8ff" d="M1215.07,-221.88C1197.15,-238.07 1171.08,-258.08 1143.75,-267 1076.31,-289.01 995.01,-286.66 936.57,-280.34"/>
<polygon fill="#63b8ff" stroke="#63b8ff" points="1217.15,-224.72 1222.07,-215.34 1212.37,-219.61 1217.15,-224.72"/>
</a>
</g>
</g>
<!-- Node4 -->
<g id="Node000004" class="node">
<title>Node4</title>
<g id="a_Node000004"><a xlink:href="classdomini_1_1jugadors_1_1_maquina.html#a28fa4d863085aaaba920b95a47bf14b7" target="_top" xlink:title="Genera totes les paraules possibles a la dreta d&#39;una subparaula prefix.">
<polygon fill="white" stroke="#666666" points="739.75,-300 583.5,-300 583.5,-268 739.75,-268 739.75,-300"/>
<text text-anchor="start" x="591.5" y="-286.5" font-family="Helvetica,sans-Serif" font-size="10.00">domini.jugadors.Maquina.extend</text>
<text text-anchor="middle" x="661.62" y="-274.5" font-family="Helvetica,sans-Serif" font-size="10.00">Right</text>
</a>
</g>
</g>
<!-- Node1&#45;&gt;Node4 -->
<g id="edge12_Node000001_Node000004" class="edge">
<title>Node1&#45;&gt;Node4</title>
<g id="a_edge12_Node000001_Node000004"><a xlink:title=" ">
<path fill="none" stroke="#63b8ff" d="M1168.14,-198.7C1076.4,-201 912.01,-209.9 775.75,-243 750.48,-249.14 723.03,-259 701.5,-267.52"/>
<polygon fill="#63b8ff" stroke="#63b8ff" points="1168.07,-202.2 1177.99,-198.47 1167.91,-195.2 1168.07,-202.2"/>
</a>
</g>
</g>
<!-- Node5 -->
<g id="Node000005" class="node">
<title>Node5</title>
<g id="a_Node000005"><a xlink:href="classdomini_1_1jugadors_1_1_maquina.html#a408520f7aa4d96099ecfa1bae76728b5" target="_top" xlink:title="Genera totes les subparaules prefix possibles cap a l&#39;esquerra d&#39;una casella anchor.">
<polygon fill="white" stroke="#666666" points="547.5,-333 366.5,-333 366.5,-313 547.5,-313 547.5,-333"/>
<text text-anchor="middle" x="457" y="-319.5" font-family="Helvetica,sans-Serif" font-size="10.00">domini.jugadors.Maquina.generateLeft</text>
</a>
</g>
</g>
<!-- Node1&#45;&gt;Node5 -->
<g id="edge14_Node000001_Node000005" class="edge">
<title>Node1&#45;&gt;Node5</title>
<g id="a_edge14_Node000001_Node000005"><a xlink:title=" ">
<path fill="none" stroke="#63b8ff" d="M1226.56,-224.44C1211.48,-253.51 1183.02,-299.03 1143.75,-321 922.71,-444.67 595.45,-364.17 491.18,-333.44"/>
<polygon fill="#63b8ff" stroke="#63b8ff" points="1229.67,-226.04 1231,-215.53 1223.41,-222.92 1229.67,-226.04"/>
</a>
</g>
</g>
<!-- Node8 -->
<g id="Node000008" class="node">
<title>Node8</title>
<g id="a_Node000008"><a xlink:href="classcontroladors_1_1_ctrl_partida.html#a55c08c7767d17dd7d8b4ae00d33b1fe7" target="_top" xlink:title="Comprova si una lletra és vàlida per a una casella que formi paraula transversal vertical.">
<polygon fill="white" stroke="#666666" points="1143.75,-82 976.25,-82 976.25,-50 1143.75,-50 1143.75,-82"/>
<text text-anchor="start" x="984.25" y="-68.5" font-family="Helvetica,sans-Serif" font-size="10.00">controladors.CtrlPartida.comprovar</text>
<text text-anchor="middle" x="1060" y="-56.5" font-family="Helvetica,sans-Serif" font-size="10.00">_noves_paraules</text>
</a>
</g>
</g>
<!-- Node1&#45;&gt;Node8 -->
<g id="edge9_Node000001_Node000008" class="edge">
<title>Node1&#45;&gt;Node8</title>
<g id="a_edge9_Node000001_Node000008"><a xlink:title=" ">
<path fill="none" stroke="#63b8ff" d="M1222.34,-172.36C1205.39,-148.04 1176.88,-112.18 1143.75,-91 1138.69,-87.77 1133.19,-84.93 1127.52,-82.45"/>
<polygon fill="#63b8ff" stroke="#63b8ff" points="1219.31,-174.12 1227.82,-180.43 1225.1,-170.19 1219.31,-174.12"/>
</a>
</g>
</g>
<!-- Node11 -->
<g id="Node000011" class="node">
<title>Node11</title>
<g id="a_Node000011"><a xlink:href="classdomini_1_1scrabble_1_1_partida.html#a86e61fd71ee980fd43e1b4f788dfc6ae" target="_top" xlink:title="Permet que la màquina faci una jugada.">
<polygon fill="white" stroke="#666666" points="1126.12,-170 993.88,-170 993.88,-138 1126.12,-138 1126.12,-170"/>
<text text-anchor="start" x="1001.88" y="-156.5" font-family="Helvetica,sans-Serif" font-size="10.00">domini.scrabble.Partida.fer</text>
<text text-anchor="middle" x="1060" y="-144.5" font-family="Helvetica,sans-Serif" font-size="10.00">JugadaMaquina</text>
</a>
</g>
</g>
<!-- Node1&#45;&gt;Node11 -->
<g id="edge13_Node000001_Node000011" class="edge">
<title>Node1&#45;&gt;Node11</title>
<g id="a_edge13_Node000001_Node000011"><a xlink:title=" ">
<path fill="none" stroke="#63b8ff" d="M1168.64,-180.63C1154.72,-177.18 1140.16,-173.58 1126.4,-170.18"/>
<polygon fill="#63b8ff" stroke="#63b8ff" points="1167.63,-183.98 1178.18,-182.99 1169.31,-177.19 1167.63,-183.98"/>
</a>
</g>
</g>
<!-- Node12 -->
<g id="Node000012" class="node">
<title>Node12</title>
<g id="a_Node000012"><a xlink:href="classdomini_1_1auxiliars_1_1_pair.html#a4760c3abe6c5e1f95a6df11cfcbf2a87" target="_top" xlink:title="Constructor de còpia de la classe &quot;Pair&quot;.">
<polygon fill="white" stroke="#666666" points="1122,-120 998,-120 998,-100 1122,-100 1122,-120"/>
<text text-anchor="middle" x="1060" y="-106.5" font-family="Helvetica,sans-Serif" font-size="10.00">domini.auxiliars.Pair.Pair</text>
</a>
</g>
</g>
<!-- Node1&#45;&gt;Node12 -->
<g id="edge15_Node000001_Node000012" class="edge">
<title>Node1&#45;&gt;Node12</title>
<g id="a_edge15_Node000001_Node000012"><a xlink:title=" ">
<path fill="none" stroke="#63b8ff" d="M1212.67,-174.51C1194.52,-159.41 1169.13,-140.54 1143.75,-129 1136.24,-125.58 1128.05,-122.75 1119.84,-120.42"/>
<polygon fill="#63b8ff" stroke="#63b8ff" points="1209.93,-176.78 1219.82,-180.59 1214.47,-171.44 1209.93,-176.78"/>
</a>
</g>
</g>
<!-- Node13 -->
<g id="Node000013" class="node">
<title>Node13</title>
<g id="a_Node000013"><a xlink:href="classcontroladors_1_1_ctrl_partida.html#ab65218f4ac10157e095836864c00a526" target="_top" xlink:title="Comprova si una paraula col·locada passa pel centre del taulell.">
<polygon fill="white" stroke="#666666" points="1136.62,-32 983.38,-32 983.38,0 1136.62,0 1136.62,-32"/>
<text text-anchor="start" x="991.38" y="-18.5" font-family="Helvetica,sans-Serif" font-size="10.00">controladors.CtrlPartida.paraula</text>
<text text-anchor="middle" x="1060" y="-6.5" font-family="Helvetica,sans-Serif" font-size="10.00">_centre</text>
</a>
</g>
</g>
<!-- Node1&#45;&gt;Node13 -->
<g id="edge16_Node000001_Node000013" class="edge">
<title>Node1&#45;&gt;Node13</title>
<g id="a_edge16_Node000001_Node000013"><a xlink:title=" ">
<path fill="none" stroke="#63b8ff" d="M1229.58,-171.09C1216.11,-136.04 1187.83,-75.19 1143.75,-41 1139.48,-37.69 1134.78,-34.81 1129.84,-32.32"/>
<polygon fill="#63b8ff" stroke="#63b8ff" points="1226.15,-171.92 1232.91,-180.08 1232.72,-169.49 1226.15,-171.92"/>
</a>
</g>
</g>
<!-- Node14 -->
<g id="Node000014" class="node">
<title>Node14</title>
<g id="a_Node000014"><a xlink:href="classdomini_1_1jugadors_1_1_maquina.html#a57c533590571f4918ebd03a0b0d4819b" target="_top" xlink:title="Comprova si una lletra és vàlida per a una casella que formi paraula transversal vertical.">
<polygon fill="white" stroke="#666666" points="931.62,-334 784.38,-334 784.38,-302 931.62,-302 931.62,-334"/>
<text text-anchor="start" x="792.38" y="-320.5" font-family="Helvetica,sans-Serif" font-size="10.00">domini.jugadors.Maquina.valid</text>
<text text-anchor="middle" x="858" y="-308.5" font-family="Helvetica,sans-Serif" font-size="10.00">_traversals</text>
</a>
</g>
</g>
<!-- Node1&#45;&gt;Node14 -->
<g id="edge18_Node000001_Node000014" class="edge">
<title>Node1&#45;&gt;Node14</title>
<g id="a_edge18_Node000001_Node000014"><a xlink:title=" ">
<path fill="none" stroke="#63b8ff" d="M1220.67,-223.39C1203.51,-245.14 1175.72,-275.21 1143.75,-290 1076.8,-320.98 991.71,-325.44 932.05,-323.72"/>
<polygon fill="#63b8ff" stroke="#63b8ff" points="1223.36,-225.64 1226.65,-215.57 1217.79,-221.39 1223.36,-225.64"/>
</a>
</g>
</g>
<!-- Node2&#45;&gt;Node3 -->
<g id="edge2_Node000002_Node000003" class="edge">
<title>Node2&#45;&gt;Node3</title>
<g id="a_edge2_Node000002_Node000003"><a xlink:title=" ">
<path fill="none" stroke="#63b8ff" d="M968,-253.83C957.44,-255.2 946.74,-256.59 936.39,-257.94"/>
<polygon fill="#63b8ff" stroke="#63b8ff" points="968.41,-257.31 977.88,-252.55 967.51,-250.36 968.41,-257.31"/>
</a>
</g>
</g>
<!-- Node3&#45;&gt;Node4 -->
<g id="edge3_Node000003_Node000004" class="edge">
<title>Node3&#45;&gt;Node4</title>
<g id="a_edge3_Node000003_Node000004"><a xlink:title=" ">
<path fill="none" stroke="#63b8ff" d="M768.23,-275.31C758.82,-276.08 749.32,-276.86 740.06,-277.63"/>
<polygon fill="#63b8ff" stroke="#63b8ff" points="768.43,-278.8 778.11,-274.49 767.86,-271.83 768.43,-278.8"/>
</a>
</g>
</g>
<!-- Node4&#45;&gt;Node4 -->
<g id="edge4_Node000004_Node000004" class="edge">
<title>Node4&#45;&gt;Node4</title>
<g id="a_edge4_Node000004_Node000004"><a xlink:title=" ">
<path fill="none" stroke="#63b8ff" d="M694.35,-311.71C688.89,-315.48 677.99,-318 661.62,-318 631.71,-318 620.02,-309.58 626.57,-300.44"/>
<polygon fill="#63b8ff" stroke="#63b8ff" points="697.78,-312.43 696.38,-301.92 690.92,-311.01 697.78,-312.43"/>
</a>
</g>
</g>
<!-- Node4&#45;&gt;Node5 -->
<g id="edge5_Node000004_Node000005" class="edge">
<title>Node4&#45;&gt;Node5</title>
<g id="a_edge5_Node000004_Node000005"><a xlink:title=" ">
<path fill="none" stroke="#63b8ff" d="M571.99,-301.06C551.73,-304.96 530.79,-308.99 512.46,-312.52"/>
<polygon fill="#63b8ff" stroke="#63b8ff" points="572.51,-304.52 581.67,-299.2 571.19,-297.65 572.51,-304.52"/>
</a>
</g>
</g>
<!-- Node5&#45;&gt;Node5 -->
<g id="edge6_Node000005_Node000005" class="edge">
<title>Node5&#45;&gt;Node5</title>
<g id="a_edge6_Node000005_Node000005"><a xlink:title=" ">
<path fill="none" stroke="#63b8ff" d="M493.55,-344.11C489.19,-348.14 477.01,-351 457,-351 421.43,-351 410.59,-341.98 424.49,-333.34"/>
<polygon fill="#63b8ff" stroke="#63b8ff" points="496.83,-342.89 490.04,-334.76 490.27,-345.35 496.83,-342.89"/>
</a>
</g>
</g>
<!-- Node6 -->
<g id="Node000006" class="node">
<title>Node6</title>
<g id="a_Node000006"><a xlink:href="classdomini_1_1jugadors_1_1_maquina.html#afe864f5cb4ab5895e149c5aad0235400" target="_top" xlink:title="Busca la millor paraula en una direcció específica (horitzontal o vertical).">
<polygon fill="white" stroke="#666666" points="330.5,-339 174.25,-339 174.25,-307 330.5,-307 330.5,-339"/>
<text text-anchor="start" x="182.25" y="-325.5" font-family="Helvetica,sans-Serif" font-size="10.00">domini.jugadors.Maquina.search</text>
<text text-anchor="middle" x="252.38" y="-313.5" font-family="Helvetica,sans-Serif" font-size="10.00">BestWord</text>
</a>
</g>
</g>
<!-- Node5&#45;&gt;Node6 -->
<g id="edge7_Node000005_Node000006" class="edge">
<title>Node5&#45;&gt;Node6</title>
<g id="a_edge7_Node000005_Node000006"><a xlink:title=" ">
<path fill="none" stroke="#63b8ff" d="M354.8,-323C346.7,-323 338.59,-323 330.69,-323"/>
<polygon fill="#63b8ff" stroke="#63b8ff" points="354.73,-326.5 364.73,-323 354.73,-319.5 354.73,-326.5"/>
</a>
</g>
</g>
<!-- Node7 -->
<g id="Node000007" class="node">
<title>Node7</title>
<g id="a_Node000007"><a xlink:href="classdomini_1_1jugadors_1_1_maquina.html#a8b1f4889bc62ca862e4f87e55c66871e" target="_top" xlink:title="Busca la paraula amb la puntuació més alta donats un taulell i un diccionari.">
<polygon fill="white" stroke="#666666" points="138.25,-339 0,-339 0,-307 138.25,-307 138.25,-339"/>
<text text-anchor="start" x="8" y="-325.5" font-family="Helvetica,sans-Serif" font-size="10.00">domini.jugadors.Maquina.fer</text>
<text text-anchor="middle" x="69.12" y="-313.5" font-family="Helvetica,sans-Serif" font-size="10.00">Jugada</text>
</a>
</g>
</g>
<!-- Node6&#45;&gt;Node7 -->
<g id="edge8_Node000006_Node000007" class="edge">
<title>Node6&#45;&gt;Node7</title>
<g id="a_edge8_Node000006_Node000007"><a xlink:title=" ">
<path fill="none" stroke="#63b8ff" d="M162.64,-323C154.58,-323 146.51,-323 138.67,-323"/>
<polygon fill="#63b8ff" stroke="#63b8ff" points="162.47,-326.5 172.47,-323 162.47,-319.5 162.47,-326.5"/>
</a>
</g>
</g>
<!-- Node9 -->
<g id="Node000009" class="node">
<title>Node9</title>
<g id="a_Node000009"><a xlink:href="classcontroladors_1_1_ctrl_partida.html#a11dd5c5c7252681872e3ba7baf8213a8" target="_top" xlink:title="Comprova si una paraula és vàlida.">
<polygon fill="white" stroke="#666666" points="940.25,-57 775.75,-57 775.75,-25 940.25,-25 940.25,-57"/>
<text text-anchor="start" x="783.75" y="-43.5" font-family="Helvetica,sans-Serif" font-size="10.00">controladors.CtrlPartida.comprova</text>
<text text-anchor="middle" x="858" y="-31.5" font-family="Helvetica,sans-Serif" font-size="10.00">_paraula</text>
</a>
</g>
</g>
<!-- Node8&#45;&gt;Node9 -->
<g id="edge10_Node000008_Node000009" class="edge">
<title>Node8&#45;&gt;Node9</title>
<g id="a_edge10_Node000008_Node000009"><a xlink:title=" ">
<path fill="none" stroke="#63b8ff" d="M964.6,-54.2C956.56,-53.19 948.47,-52.18 940.54,-51.19"/>
<polygon fill="#63b8ff" stroke="#63b8ff" points="964.06,-57.66 974.42,-55.43 964.93,-50.71 964.06,-57.66"/>
</a>
</g>
</g>
<!-- Node10 -->
<g id="Node000010" class="node">
<title>Node10</title>
<g id="a_Node000010"><a xlink:href="classcontroladors_1_1_ctrl_partida.html#ad0f7d5edb502bc4956cfd54612209ea7" target="_top" xlink:title="Col·loca una paraula al taulell.">
<polygon fill="white" stroke="#666666" points="738.25,-57 585,-57 585,-25 738.25,-25 738.25,-57"/>
<text text-anchor="start" x="593" y="-43.5" font-family="Helvetica,sans-Serif" font-size="10.00">controladors.CtrlPartida.colocar</text>
<text text-anchor="middle" x="661.62" y="-31.5" font-family="Helvetica,sans-Serif" font-size="10.00">Paraula</text>
</a>
</g>
</g>
<!-- Node9&#45;&gt;Node10 -->
<g id="edge11_Node000009_Node000010" class="edge">
<title>Node9&#45;&gt;Node10</title>
<g id="a_edge11_Node000009_Node000010"><a xlink:title=" ">
<path fill="none" stroke="#63b8ff" d="M763.94,-41C755.5,-41 747.01,-41 738.73,-41"/>
<polygon fill="#63b8ff" stroke="#63b8ff" points="763.9,-44.5 773.9,-41 763.9,-37.5 763.9,-44.5"/>
</a>
</g>
</g>
<!-- Node13&#45;&gt;Node9 -->
<g id="edge17_Node000013_Node000009" class="edge">
<title>Node13&#45;&gt;Node9</title>
<g id="a_edge17_Node000013_Node000009"><a xlink:title=" ">
<path fill="none" stroke="#63b8ff" d="M971.89,-26.89C961.47,-28.19 950.85,-29.52 940.51,-30.81"/>
<polygon fill="#63b8ff" stroke="#63b8ff" points="972.11,-30.39 981.6,-25.67 971.24,-23.44 972.11,-30.39"/>
</a>
</g>
</g>
<!-- Node14&#45;&gt;Node4 -->
<g id="edge19_Node000014_Node000004" class="edge">
<title>Node14&#45;&gt;Node4</title>
<g id="a_edge19_Node000014_Node000004"><a xlink:title=" ">
<path fill="none" stroke="#63b8ff" d="M772.86,-303.28C762.01,-301.38 750.93,-299.45 740.19,-297.57"/>
<polygon fill="#63b8ff" stroke="#63b8ff" points="772.12,-306.71 782.58,-304.98 773.33,-299.81 772.12,-306.71"/>
</a>
</g>
</g>
</g>
</svg>

<g id="navigator" transform="translate(0 0)" fill="#404254">
  <rect fill="#f2f5e9" fill-opacity="0.5" stroke="#606060" stroke-width=".5" x="0" y="0" width="60" height="60"/>
  <use id="zoomplus" xlink:href="#zoomPlus" x="17" y="9" onmousedown="handleZoom(evt,'in')"/>
  <use id="zoomminus" xlink:href="#zoomMin" x="42" y="9" onmousedown="handleZoom(evt,'out')"/>
  <use id="reset" xlink:href="#resetDef" x="30" y="36" onmousedown="handleReset()"/>
   <use id="arrowup" xlink:href="#arrowUp" x="0" y="0" onmousedown="handlePan(0,-1)"/>
  <use id="arrowright" xlink:href="#arrowRight" x="0" y="0" onmousedown="handlePan(1,0)"/>
  <use id="arrowdown" xlink:href="#arrowDown" x="0" y="0" onmousedown="handlePan(0,1)"/>
  <use id="arrowleft" xlink:href="#arrowLeft" x="0" y="0" onmousedown="handlePan(-1,0)"/>
</g>
<svg viewBox="0 0 15 15" width="100%" height="30px" preserveAspectRatio="xMaxYMin meet">
 <g id="arrow_out" transform="scale(0.3 0.3)">
  <a xlink:href="classdomini_1_1auxiliars_1_1_pair_af70cd15a3a6fe17c25fbae3a08955565_icgraph_org.svg" target="_base">
   <rect id="button" ry="5" rx="5" y="6" x="6" height="38" width="38"
        fill="#f2f5e9" fill-opacity="0.5" stroke="#606060" stroke-width="1.0"/>
   <path id="arrow"
     d="M 11.500037,31.436501 C 11.940474,20.09759 22.043105,11.32322 32.158766,21.979434 L 37.068811,17.246167 C 37.068811,17.246167 37.088388,32 37.088388,32 L 22.160133,31.978069 C 22.160133,31.978069 26.997745,27.140456 26.997745,27.140456 C 18.528582,18.264221 13.291696,25.230495 11.500037,31.436501 z"
     style="fill:#404040;"/>
  </a>
 </g>
</svg>

<style type='text/css'>
<![CDATA[
[data-mouse-over-selected='false'] { opacity: 0.7; }
[data-mouse-over-selected='true']  { opacity: 1.0; }
]]>
</style>
<script type="application/ecmascript"><![CDATA[
document.addEventListener('DOMContentLoaded', (event) => {
  highlightEdges();
  highlightAdjacentNodes();
});
]]></script>
</svg>
