<?xml version="1.0" encoding="UTF-8" standalone="no"?>
<!DOCTYPE svg PUBLIC "-//W3C//DTD SVG 1.1//EN"
 "http://www.w3.org/Graphics/SVG/1.1/DTD/svg11.dtd">
<!-- Generated by graphviz version 12.2.1 (20241206.2353)
 -->
<!-- Title: domini.auxiliars.Pair.Pair Pages: 1 -->
<svg width="292pt" height="128pt"
 viewBox="0.00 0.00 292.00 128.00" xmlns="http://www.w3.org/2000/svg" xmlns:xlink="http://www.w3.org/1999/xlink">
<g id="graph0" class="graph" transform="scale(1 1) rotate(0) translate(4 124)">
<title>domini.auxiliars.Pair.Pair</title>
<!-- Node1 -->
<g id="Node000001" class="node">
<title>Node1</title>
<g id="a_Node000001"><a xlink:title="Constructor de còpia de la classe &quot;Pair&quot;.">
<polygon fill="#999999" stroke="#666666" points="124,-64 0,-64 0,-44 124,-44 124,-64"/>
<text text-anchor="middle" x="62" y="-50.5" font-family="Helvetica,sans-Serif" font-size="10.00">domini.auxiliars.Pair.Pair</text>
</a>
</g>
</g>
<!-- Node2 -->
<g id="Node000002" class="node">
<title>Node2</title>
<g id="a_Node000002"><a xlink:href="classdomini_1_1auxiliars_1_1_pair.html#af9fc7c6b0fb531c4b59cdb1048897164" target="_top" xlink:title="Obté el primer element de la parella.">
<polygon fill="white" stroke="#666666" points="282.12,-120 161.88,-120 161.88,-88 282.12,-88 282.12,-120"/>
<text text-anchor="start" x="169.88" y="-106.5" font-family="Helvetica,sans-Serif" font-size="10.00">domini.auxiliars.Pair.get</text>
<text text-anchor="middle" x="222" y="-94.5" font-family="Helvetica,sans-Serif" font-size="10.00">First</text>
</a>
</g>
</g>
<!-- Node1&#45;&gt;Node2 -->
<g id="edge1_Node000001_Node000002" class="edge">
<title>Node1&#45;&gt;Node2</title>
<g id="a_edge1_Node000001_Node000002"><a xlink:title=" ">
<path fill="none" stroke="#63b8ff" d="M96.12,-64.48C114.08,-70.16 136.87,-77.38 158.05,-84.08"/>
<polygon fill="#63b8ff" stroke="#63b8ff" points="156.92,-87.39 167.51,-87.07 159.03,-80.72 156.92,-87.39"/>
</a>
</g>
</g>
<!-- Node3 -->
<g id="Node000003" class="node">
<title>Node3</title>
<g id="a_Node000003"><a xlink:href="classdomini_1_1auxiliars_1_1_pair.html#af70cd15a3a6fe17c25fbae3a08955565" target="_top" xlink:title="Obté el segon element de la parella.">
<polygon fill="white" stroke="#666666" points="282.12,-70 161.88,-70 161.88,-38 282.12,-38 282.12,-70"/>
<text text-anchor="start" x="169.88" y="-56.5" font-family="Helvetica,sans-Serif" font-size="10.00">domini.auxiliars.Pair.get</text>
<text text-anchor="middle" x="222" y="-44.5" font-family="Helvetica,sans-Serif" font-size="10.00">Second</text>
</a>
</g>
</g>
<!-- Node1&#45;&gt;Node3 -->
<g id="edge2_Node000001_Node000003" class="edge">
<title>Node1&#45;&gt;Node3</title>
<g id="a_edge2_Node000001_Node000003"><a xlink:title=" ">
<path fill="none" stroke="#63b8ff" d="M124.09,-54C132.6,-54 141.41,-54 150.08,-54"/>
<polygon fill="#63b8ff" stroke="#63b8ff" points="149.86,-57.5 159.86,-54 149.86,-50.5 149.86,-57.5"/>
</a>
</g>
</g>
<!-- Node4 -->
<g id="Node000004" class="node">
<title>Node4</title>
<g id="a_Node000004"><a xlink:href="classdomini_1_1auxiliars_1_1_pair.html#a6a89c924b884657927f3116c900ffb59" target="_top" xlink:title="Constructor de la classe &quot;Pair&quot;.">
<polygon fill="white" stroke="#666666" points="284,-20 160,-20 160,0 284,0 284,-20"/>
<text text-anchor="middle" x="222" y="-6.5" font-family="Helvetica,sans-Serif" font-size="10.00">domini.auxiliars.Pair.Pair</text>
</a>
</g>
</g>
<!-- Node1&#45;&gt;Node4 -->
<g id="edge3_Node000001_Node000004" class="edge">
<title>Node1&#45;&gt;Node4</title>
<g id="a_edge3_Node000001_Node000004"><a xlink:title=" ">
<path fill="none" stroke="#63b8ff" d="M100.44,-43.57C122.01,-37.57 149.35,-29.95 172.54,-23.49"/>
<polygon fill="#63b8ff" stroke="#63b8ff" points="173.4,-26.89 182.09,-20.83 171.52,-20.15 173.4,-26.89"/>
</a>
</g>
</g>
</g>
</svg>
