<?xml version="1.0" encoding="UTF-8" standalone="no"?>
<!DOCTYPE svg PUBLIC "-//W3C//DTD SVG 1.1//EN"
 "http://www.w3.org/Graphics/SVG/1.1/DTD/svg11.dtd">
<!-- Generated by graphviz version 12.2.1 (20241206.2353)
 -->
<!-- Title: controladors.CtrlDomini.processarPartidaMaquina Pages: 1 -->
<svg width="378pt" height="190pt"
 viewBox="0.00 0.00 378.25 190.00" xmlns="http://www.w3.org/2000/svg" xmlns:xlink="http://www.w3.org/1999/xlink">
<g id="graph0" class="graph" transform="scale(1 1) rotate(0) translate(4 186)">
<title>controladors.CtrlDomini.processarPartidaMaquina</title>
<!-- Node1 -->
<g id="Node000001" class="node">
<title>Node1</title>
<g id="a_Node000001"><a xlink:title="Processa els resultats d&#39;una partida contra la màquina.">
<polygon fill="#999999" stroke="#666666" points="164.5,-107 0,-107 0,-75 164.5,-75 164.5,-107"/>
<text text-anchor="start" x="8" y="-93.5" font-family="Helvetica,sans-Serif" font-size="10.00">controladors.CtrlDomini.processar</text>
<text text-anchor="middle" x="82.25" y="-81.5" font-family="Helvetica,sans-Serif" font-size="10.00">PartidaMaquina</text>
</a>
</g>
</g>
<!-- Node2 -->
<g id="Node000002" class="node">
<title>Node2</title>
<g id="a_Node000002"><a xlink:href="classdomini_1_1jugadors_1_1_jugador.html#afa999de0f50bb1671ac42dbe31388b01" target="_top" xlink:title="Retorna l&#39;identificador del jugador.">
<polygon fill="white" stroke="#666666" points="354.5,-182 216.25,-182 216.25,-150 354.5,-150 354.5,-182"/>
<text text-anchor="start" x="224.25" y="-168.5" font-family="Helvetica,sans-Serif" font-size="10.00">domini.jugadors.Jugador.get</text>
<text text-anchor="middle" x="285.38" y="-156.5" font-family="Helvetica,sans-Serif" font-size="10.00">IdJugador</text>
</a>
</g>
</g>
<!-- Node1&#45;&gt;Node2 -->
<g id="edge1_Node000001_Node000002" class="edge">
<title>Node1&#45;&gt;Node2</title>
<g id="a_edge1_Node000001_Node000002"><a xlink:title=" ">
<path fill="none" stroke="#63b8ff" d="M119.01,-107.5C142.02,-117.8 172.71,-130.97 200.5,-141 205.42,-142.78 210.54,-144.53 215.71,-146.23"/>
<polygon fill="#63b8ff" stroke="#63b8ff" points="214.31,-149.46 224.9,-149.18 216.45,-142.79 214.31,-149.46"/>
</a>
</g>
</g>
<!-- Node3 -->
<g id="Node000003" class="node">
<title>Node3</title>
<g id="a_Node000003"><a xlink:href="classdomini_1_1jugadors_1_1_jugador.html#af5b78b5a60aa1845f6665113225281da" target="_top" xlink:title="Retorna la puntuació actual del jugador.">
<polygon fill="white" stroke="#666666" points="354.5,-132 216.25,-132 216.25,-100 354.5,-100 354.5,-132"/>
<text text-anchor="start" x="224.25" y="-118.5" font-family="Helvetica,sans-Serif" font-size="10.00">domini.jugadors.Jugador.get</text>
<text text-anchor="middle" x="285.38" y="-106.5" font-family="Helvetica,sans-Serif" font-size="10.00">Puntuacio_actual</text>
</a>
</g>
</g>
<!-- Node1&#45;&gt;Node3 -->
<g id="edge2_Node000001_Node000003" class="edge">
<title>Node1&#45;&gt;Node3</title>
<g id="a_edge2_Node000001_Node000003"><a xlink:title=" ">
<path fill="none" stroke="#63b8ff" d="M164.77,-101.13C177.9,-102.77 191.49,-104.45 204.59,-106.08"/>
<polygon fill="#63b8ff" stroke="#63b8ff" points="204.09,-109.55 214.45,-107.31 204.95,-102.6 204.09,-109.55"/>
</a>
</g>
</g>
<!-- Node4 -->
<g id="Node000004" class="node">
<title>Node4</title>
<g id="a_Node000004"><a xlink:href="classdomini_1_1jugadors_1_1_avatar.html#aae510bc2635d40405e60a218b1b7c097" target="_top" xlink:title="Incrementa el nombre de partides guanyades contra la màquina.">
<polygon fill="white" stroke="#666666" points="370.25,-82 200.5,-82 200.5,-50 370.25,-50 370.25,-82"/>
<text text-anchor="start" x="208.5" y="-68.5" font-family="Helvetica,sans-Serif" font-size="10.00">domini.jugadors.Avatar.incrementar</text>
<text text-anchor="middle" x="285.38" y="-56.5" font-family="Helvetica,sans-Serif" font-size="10.00">PartidesGuanyadesMaquina</text>
</a>
</g>
</g>
<!-- Node1&#45;&gt;Node4 -->
<g id="edge3_Node000001_Node000004" class="edge">
<title>Node1&#45;&gt;Node4</title>
<g id="a_edge3_Node000001_Node000004"><a xlink:title=" ">
<path fill="none" stroke="#63b8ff" d="M164.77,-80.87C172.68,-79.88 180.77,-78.88 188.81,-77.88"/>
<polygon fill="#63b8ff" stroke="#63b8ff" points="189.13,-81.37 198.62,-76.66 188.27,-74.42 189.13,-81.37"/>
</a>
</g>
</g>
<!-- Node5 -->
<g id="Node000005" class="node">
<title>Node5</title>
<g id="a_Node000005"><a xlink:href="classdomini_1_1jugadors_1_1_avatar.html#a11001791e000608d3ae4e7698bfd3b72" target="_top" xlink:title="Incrementa el nombre de partides jugades contra la màquina.">
<polygon fill="white" stroke="#666666" points="370.25,-32 200.5,-32 200.5,0 370.25,0 370.25,-32"/>
<text text-anchor="start" x="208.5" y="-18.5" font-family="Helvetica,sans-Serif" font-size="10.00">domini.jugadors.Avatar.incrementar</text>
<text text-anchor="middle" x="285.38" y="-6.5" font-family="Helvetica,sans-Serif" font-size="10.00">PartidesJugadesMaquina</text>
</a>
</g>
</g>
<!-- Node1&#45;&gt;Node5 -->
<g id="edge4_Node000001_Node000005" class="edge">
<title>Node1&#45;&gt;Node5</title>
<g id="a_edge4_Node000001_Node000005"><a xlink:title=" ">
<path fill="none" stroke="#63b8ff" d="M119.01,-74.5C142.02,-64.2 172.71,-51.03 200.5,-41 205.42,-39.22 210.54,-37.47 215.71,-35.77"/>
<polygon fill="#63b8ff" stroke="#63b8ff" points="216.45,-39.21 224.9,-32.82 214.31,-32.54 216.45,-39.21"/>
</a>
</g>
</g>
</g>
</svg>
