<?xml version="1.0" encoding="UTF-8" standalone="no"?>
<!DOCTYPE svg PUBLIC "-//W3C//DTD SVG 1.1//EN"
 "http://www.w3.org/Graphics/SVG/1.1/DTD/svg11.dtd">
<!-- Generated by graphviz version 12.2.1 (20241206.2353)
 -->
<!-- Title: controladors.CtrlPresentacio.getNomUsuariActiu Pages: 1 -->
<!--zoomable 380 -->

<svg id="main" version="1.1" xmlns="http://www.w3.org/2000/svg" xmlns:xlink="http://www.w3.org/1999/xlink" xml:space="preserve" onload="init(evt)">

<style type="text/css"><![CDATA[
.node, .edge {opacity: 0.7;}
.node.selected, .edge.selected {opacity: 1;}
.edge:hover path { stroke: red; }
.edge:hover polygon { stroke: red; fill: red; }
]]></style>

<defs>
  <circle id="rim" cx="0" cy="0" r="7"/>
  <circle id="rim2" cx="0" cy="0" r="3.5"/>
  <g id="zoomPlus">
    <use xlink:href="#rim" fill="#404040"><set attributeName="fill" to="#808080" begin="zoomplus.mouseover" end="zoomplus.mouseout"/></use>
    <path d="M-4,0h8M0,-4v8" fill="none" stroke="white" stroke-width="1.5" pointer-events="none"/>
  </g>
  <g id="zoomMin">
    <use xlink:href="#rim" fill="#404040"><set attributeName="fill" to="#808080" begin="zoomminus.mouseover" end="zoomminus.mouseout"/></use>
    <path d="M-4,0h8" fill="none" stroke="white" stroke-width="1.5" pointer-events="none"/>
  </g>
  <g id="arrowUp" transform="translate(30 24)">
    <use xlink:href="#rim"/>
    <path pointer-events="none" fill="none" stroke="white" stroke-width="1.5" d="M0,-3.0v7 M-2.5,-0.5L0,-3.0L2.5,-0.5"/>
  </g>
  <g id="arrowRight" transform="rotate(90) translate(36 -43)">
    <use xlink:href="#rim"/>
    <path pointer-events="none" fill="none" stroke="white" stroke-width="1.5" d="M0,-3.0v7 M-2.5,-0.5L0,-3.0L2.5,-0.5"/>
  </g>
  <g id="arrowDown" transform="rotate(180) translate(-30 -48)">
    <use xlink:href="#rim"/>
    <path pointer-events="none" fill="none" stroke="white" stroke-width="1.5" d="M0,-3.0v7 M-2.5,-0.5L0,-3.0L2.5,-0.5"/>
  </g>
  <g id="arrowLeft" transform="rotate(270) translate(-36 17)">
    <use xlink:href="#rim"/>
    <path pointer-events="none" fill="none" stroke="white" stroke-width="1.5" d="M0,-3.0v7 M-2.5,-0.5L0,-3.0L2.5,-0.5"/>
  </g>
  <g id="resetDef">
    <use xlink:href="#rim2" fill="#404040"><set attributeName="fill" to="#808080" begin="reset.mouseover" end="reset.mouseout"/></use>
  </g>
</defs>
<script type="application/ecmascript">
var viewWidth = 1082;
var viewHeight = 380;
var sectionId = 'dynsection-27';
</script>
<script type="application/ecmascript" xlink:href="svg.min.js"/>
<svg id="graph" class="graph">
<g id="viewport">
<title>controladors.CtrlPresentacio.getNomUsuariActiu</title>
<!-- Node1 -->
<g id="Node000001" class="node">
<title>Node1</title>
<g id="a_Node000001"><a xlink:title="Retorna el nom de l&#39;usuari que té la sessió iniciada.">
<polygon fill="#999999" stroke="#666666" points="1074,-151 917.75,-151 917.75,-119 1074,-119 1074,-151"/>
<text text-anchor="start" x="925.75" y="-137.5" font-family="Helvetica,sans-Serif" font-size="10.00">controladors.CtrlPresentacio.get</text>
<text text-anchor="middle" x="995.88" y="-125.5" font-family="Helvetica,sans-Serif" font-size="10.00">NomUsuariActiu</text>
</a>
</g>
</g>
<!-- Node2 -->
<g id="Node000002" class="node">
<title>Node2</title>
<g id="a_Node000002"><a xlink:href="classinterficie_1_1_vista_partida.html#a7855e7a9cc41e1450c37054781ba6309" target="_top" xlink:title="Inicialitza els components de la interfície gràfica.">
<polygon fill="white" stroke="#666666" points="868.62,-245 733.38,-245 733.38,-225 868.62,-225 868.62,-245"/>
<text text-anchor="middle" x="801" y="-231.5" font-family="Helvetica,sans-Serif" font-size="10.00">interficie.VistaPartida.initUI</text>
</a>
</g>
</g>
<!-- Node1&#45;&gt;Node2 -->
<g id="edge1_Node000001_Node000002" class="edge">
<title>Node1&#45;&gt;Node2</title>
<g id="a_edge1_Node000001_Node000002"><a xlink:title=" ">
<path fill="none" stroke="#63b8ff" d="M953.36,-156.52C912.9,-177.5 853.09,-208.51 822.16,-224.55"/>
<polygon fill="#63b8ff" stroke="#63b8ff" points="954.85,-159.7 962.11,-151.99 951.62,-153.48 954.85,-159.7"/>
</a>
</g>
</g>
<!-- Node10 -->
<g id="Node000010" class="node">
<title>Node10</title>
<g id="a_Node000010"><a xlink:href="classinterficie_1_1_vista_menu_joc.html#af4bea9351119f9746e8dc96671f7bff8" target="_top" xlink:title="Lògica per reprendre una partida.">
<polygon fill="white" stroke="#666666" points="881.75,-129 720.25,-129 720.25,-97 881.75,-97 881.75,-129"/>
<text text-anchor="start" x="728.25" y="-115.5" font-family="Helvetica,sans-Serif" font-size="10.00">interficie.VistaMenuJoc.reprendre</text>
<text text-anchor="middle" x="801" y="-103.5" font-family="Helvetica,sans-Serif" font-size="10.00">Partida</text>
</a>
</g>
</g>
<!-- Node1&#45;&gt;Node10 -->
<g id="edge19_Node000001_Node000010" class="edge">
<title>Node1&#45;&gt;Node10</title>
<g id="a_edge19_Node000001_Node000010"><a xlink:title=" ">
<path fill="none" stroke="#63b8ff" d="M906,-124.86C897.99,-123.95 889.9,-123.03 881.97,-122.12"/>
<polygon fill="#63b8ff" stroke="#63b8ff" points="905.42,-128.32 915.76,-125.98 906.22,-121.36 905.42,-128.32"/>
</a>
</g>
</g>
<!-- Node3 -->
<g id="Node000003" class="node">
<title>Node3</title>
<g id="a_Node000003"><a xlink:href="classinterficie_1_1_vista_partida.html#abce8626a6a3750affe851e1f8bea2cb3" target="_top" xlink:title="Constructor de la classe VistaPartida.">
<polygon fill="white" stroke="#666666" points="679.75,-251 567.75,-251 567.75,-219 679.75,-219 679.75,-251"/>
<text text-anchor="start" x="575.75" y="-237.5" font-family="Helvetica,sans-Serif" font-size="10.00">interficie.VistaPartida.</text>
<text text-anchor="middle" x="623.75" y="-225.5" font-family="Helvetica,sans-Serif" font-size="10.00">VistaPartida</text>
</a>
</g>
</g>
<!-- Node2&#45;&gt;Node3 -->
<g id="edge2_Node000002_Node000003" class="edge">
<title>Node2&#45;&gt;Node3</title>
<g id="a_edge2_Node000002_Node000003"><a xlink:title=" ">
<path fill="none" stroke="#63b8ff" d="M722.04,-228.29C707.94,-228.18 693.5,-228.31 680.2,-228.67"/>
<polygon fill="#63b8ff" stroke="#63b8ff" points="721.69,-231.78 731.73,-228.4 721.78,-224.78 721.69,-231.78"/>
</a>
</g>
</g>
<!-- Node3&#45;&gt;Node2 -->
<g id="edge17_Node000003_Node000002" class="edge">
<title>Node3&#45;&gt;Node2</title>
<g id="a_edge17_Node000003_Node000002"><a xlink:title=" ">
<path fill="none" stroke="#63b8ff" d="M691.49,-241.58C705.17,-241.81 719.57,-241.81 733.25,-241.58"/>
<polygon fill="#63b8ff" stroke="#63b8ff" points="691.79,-238.08 681.72,-241.36 691.64,-245.08 691.79,-238.08"/>
</a>
</g>
</g>
<!-- Node3&#45;&gt;Node3 -->
<g id="edge18_Node000003_Node000003" class="edge">
<title>Node3&#45;&gt;Node3</title>
<g id="a_edge18_Node000003_Node000003"><a xlink:title=" ">
<path fill="none" stroke="#63b8ff" d="M652.73,-262.71C647.89,-266.48 638.24,-269 623.75,-269 597.26,-269 586.91,-260.58 592.71,-251.44"/>
<polygon fill="#63b8ff" stroke="#63b8ff" points="656.16,-263.4 654.52,-252.93 649.27,-262.14 656.16,-263.4"/>
</a>
</g>
</g>
<!-- Node4 -->
<g id="Node000004" class="node">
<title>Node4</title>
<g id="a_Node000004"><a xlink:href="classinterficie_1_1_vista_partida.html#a6bd7550fc714ba5195c8b55ffe3d973c" target="_top" xlink:title="Afegeix les fitxes d&#39;un jugador al seu rack.">
<polygon fill="white" stroke="#666666" points="517.88,-188 381.88,-188 381.88,-156 517.88,-156 517.88,-188"/>
<text text-anchor="start" x="389.88" y="-174.5" font-family="Helvetica,sans-Serif" font-size="10.00">interficie.VistaPartida.afegir</text>
<text text-anchor="middle" x="449.88" y="-162.5" font-family="Helvetica,sans-Serif" font-size="10.00">FitxesARack</text>
</a>
</g>
</g>
<!-- Node3&#45;&gt;Node4 -->
<g id="edge3_Node000003_Node000004" class="edge">
<title>Node3&#45;&gt;Node4</title>
<g id="a_edge3_Node000003_Node000004"><a xlink:title=" ">
<path fill="none" stroke="#63b8ff" d="M567.32,-214.68C544.14,-206.19 517.57,-196.44 495.66,-188.42"/>
<polygon fill="#63b8ff" stroke="#63b8ff" points="566.03,-217.94 576.62,-218.09 568.43,-211.36 566.03,-217.94"/>
</a>
</g>
</g>
<!-- Node7 -->
<g id="Node000007" class="node">
<title>Node7</title>
<g id="a_Node000007"><a xlink:href="classinterficie_1_1_vista_partida.html#ae6809bc2e7efc03077c111367571f788" target="_top" xlink:title="Afegeix maquetes al rack de l&#39;oponent.">
<polygon fill="white" stroke="#666666" points="517.88,-138 381.88,-138 381.88,-106 517.88,-106 517.88,-138"/>
<text text-anchor="start" x="389.88" y="-124.5" font-family="Helvetica,sans-Serif" font-size="10.00">interficie.VistaPartida.afegir</text>
<text text-anchor="middle" x="449.88" y="-112.5" font-family="Helvetica,sans-Serif" font-size="10.00">MaquetesARack</text>
</a>
</g>
</g>
<!-- Node3&#45;&gt;Node7 -->
<g id="edge11_Node000003_Node000007" class="edge">
<title>Node3&#45;&gt;Node7</title>
<g id="a_edge11_Node000003_Node000007"><a xlink:title=" ">
<path fill="none" stroke="#63b8ff" d="M601.57,-210.36C583.56,-190.76 556.09,-163.91 527.25,-147 521.83,-143.82 515.96,-140.99 509.96,-138.48"/>
<polygon fill="#63b8ff" stroke="#63b8ff" points="598.85,-212.57 608.14,-217.66 604.06,-207.89 598.85,-212.57"/>
</a>
</g>
</g>
<!-- Node8 -->
<g id="Node000008" class="node">
<title>Node8</title>
<g id="a_Node000008"><a xlink:href="classinterficie_1_1_vista_partida.html#a8ebc9da2a2b927ba87ed97ad85ae44e8" target="_top" xlink:title="Confirma l&#39;acció de guardar la partida.">
<polygon fill="white" stroke="#666666" points="526.12,-352 373.62,-352 373.62,-320 526.12,-320 526.12,-352"/>
<text text-anchor="start" x="381.62" y="-338.5" font-family="Helvetica,sans-Serif" font-size="10.00">interficie.VistaPartida.confirmar</text>
<text text-anchor="middle" x="449.88" y="-326.5" font-family="Helvetica,sans-Serif" font-size="10.00">Guardar</text>
</a>
</g>
</g>
<!-- Node3&#45;&gt;Node8 -->
<g id="edge13_Node000003_Node000008" class="edge">
<title>Node3&#45;&gt;Node8</title>
<g id="a_edge13_Node000003_Node000008"><a xlink:title=" ">
<path fill="none" stroke="#63b8ff" d="M595.32,-258.46C576.92,-273.41 551.66,-292.45 527.25,-306 518.16,-311.05 508.04,-315.66 498.22,-319.67"/>
<polygon fill="#63b8ff" stroke="#63b8ff" points="597.37,-261.31 602.86,-252.25 592.92,-255.91 597.37,-261.31"/>
</a>
</g>
</g>
<!-- Node9 -->
<g id="Node000009" class="node">
<title>Node9</title>
<g id="a_Node000009"><a xlink:href="classinterficie_1_1_vista_partida.html#ab47b596fbbd6a79289d4b9d7f5b5e068" target="_top" xlink:title="Crea un panell amb la informació d&#39;un jugador.">
<polygon fill="white" stroke="#666666" points="328.25,-314 194.5,-314 194.5,-282 328.25,-282 328.25,-314"/>
<text text-anchor="start" x="202.5" y="-300.5" font-family="Helvetica,sans-Serif" font-size="10.00">interficie.VistaPartida.crear</text>
<text text-anchor="middle" x="261.38" y="-288.5" font-family="Helvetica,sans-Serif" font-size="10.00">PanelJugador</text>
</a>
</g>
</g>
<!-- Node3&#45;&gt;Node9 -->
<g id="edge15_Node000003_Node000009" class="edge">
<title>Node3&#45;&gt;Node9</title>
<g id="a_edge15_Node000003_Node000009"><a xlink:title=" ">
<path fill="none" stroke="#63b8ff" d="M571.04,-255.18C557.01,-260.02 541.7,-264.73 527.25,-268 460.56,-283.1 382.62,-290.77 328.63,-294.55"/>
<polygon fill="#63b8ff" stroke="#63b8ff" points="571.81,-258.63 580.06,-251.99 569.47,-252.03 571.81,-258.63"/>
</a>
</g>
</g>
<!-- Node5 -->
<g id="Node000005" class="node">
<title>Node5</title>
<g id="a_Node000005"><a xlink:href="classinterficie_1_1_vista_partida.html#a0698d192124492ebfd8a3b029a6fa23c" target="_top" xlink:title="Actualitza els racks dels jugadors.">
<polygon fill="white" stroke="#666666" points="336.5,-188 186.25,-188 186.25,-156 336.5,-156 336.5,-188"/>
<text text-anchor="start" x="194.25" y="-174.5" font-family="Helvetica,sans-Serif" font-size="10.00">interficie.VistaPartida.refrescar</text>
<text text-anchor="middle" x="261.38" y="-162.5" font-family="Helvetica,sans-Serif" font-size="10.00">RackJugadors</text>
</a>
</g>
</g>
<!-- Node4&#45;&gt;Node5 -->
<g id="edge4_Node000004_Node000005" class="edge">
<title>Node4&#45;&gt;Node5</title>
<g id="a_edge4_Node000004_Node000005"><a xlink:title=" ">
<path fill="none" stroke="#63b8ff" d="M370.17,-172C359.14,-172 347.83,-172 336.87,-172"/>
<polygon fill="#63b8ff" stroke="#63b8ff" points="370.03,-175.5 380.03,-172 370.03,-168.5 370.03,-175.5"/>
</a>
</g>
</g>
<!-- Node5&#45;&gt;Node2 -->
<g id="edge5_Node000005_Node000002" class="edge">
<title>Node5&#45;&gt;Node2</title>
<g id="a_edge5_Node000005_Node000002"><a xlink:title=" ">
<path fill="none" stroke="#63b8ff" d="M287.88,-147.99C308.8,-130.05 340.15,-106.97 372.5,-97 438.23,-76.74 460.35,-81.04 527.25,-97 634.1,-122.49 746.48,-196.99 785.59,-224.57"/>
<polygon fill="#63b8ff" stroke="#63b8ff" points="285.62,-145.32 280.44,-154.56 290.25,-150.57 285.62,-145.32"/>
</a>
</g>
</g>
<!-- Node5&#45;&gt;Node3 -->
<g id="edge10_Node000005_Node000003" class="edge">
<title>Node5&#45;&gt;Node3</title>
<g id="a_edge10_Node000005_Node000003"><a xlink:title=" ">
<path fill="none" stroke="#63b8ff" d="M342.21,-190.84C352.38,-193.03 362.67,-195.14 372.5,-197 439.21,-209.62 516.55,-220.85 567.39,-227.77"/>
<polygon fill="#63b8ff" stroke="#63b8ff" points="343.24,-187.48 332.72,-188.76 341.74,-194.32 343.24,-187.48"/>
</a>
</g>
</g>
<!-- Node6 -->
<g id="Node000006" class="node">
<title>Node6</title>
<g id="a_Node000006"><a xlink:href="classinterficie_1_1_vista_partida.html#a485041b781e81c64fb5414207ff21d2a" target="_top" xlink:title="Actualitza la informació de la partida.">
<polygon fill="white" stroke="#666666" points="150.25,-292 0,-292 0,-260 150.25,-260 150.25,-292"/>
<text text-anchor="start" x="8" y="-278.5" font-family="Helvetica,sans-Serif" font-size="10.00">interficie.VistaPartida.refrescar</text>
<text text-anchor="middle" x="75.12" y="-266.5" font-family="Helvetica,sans-Serif" font-size="10.00">Informacio</text>
</a>
</g>
</g>
<!-- Node5&#45;&gt;Node6 -->
<g id="edge6_Node000005_Node000006" class="edge">
<title>Node5&#45;&gt;Node6</title>
<g id="a_edge6_Node000005_Node000006"><a xlink:title=" ">
<path fill="none" stroke="#63b8ff" d="M221.37,-194.02C186.61,-213.64 136.53,-241.9 105.18,-259.6"/>
<polygon fill="#63b8ff" stroke="#63b8ff" points="222.87,-197.19 229.86,-189.22 219.43,-191.09 222.87,-197.19"/>
</a>
</g>
</g>
<!-- Node6&#45;&gt;Node2 -->
<g id="edge7_Node000006_Node000002" class="edge">
<title>Node6&#45;&gt;Node2</title>
<g id="a_edge7_Node000006_Node000002"><a xlink:title=" ">
<path fill="none" stroke="#63b8ff" d="M119.97,-297.13C139.85,-306.08 163.88,-316.02 186.25,-323 331.83,-368.4 376.77,-385.71 527.25,-361 599.92,-349.06 617.75,-339.64 684.25,-308 723.08,-289.52 764.86,-260.68 786.02,-245.37"/>
<polygon fill="#63b8ff" stroke="#63b8ff" points="121.61,-294.03 111.06,-293.05 118.7,-300.39 121.61,-294.03"/>
</a>
</g>
</g>
<!-- Node6&#45;&gt;Node3 -->
<g id="edge9_Node000006_Node000003" class="edge">
<title>Node6&#45;&gt;Node3</title>
<g id="a_edge9_Node000006_Node000003"><a xlink:title=" ">
<path fill="none" stroke="#63b8ff" d="M161.68,-269.58C275,-261.08 471.68,-246.33 567.33,-239.16"/>
<polygon fill="#63b8ff" stroke="#63b8ff" points="161.52,-266.08 151.81,-270.32 162.05,-273.07 161.52,-266.08"/>
</a>
</g>
</g>
<!-- Node6&#45;&gt;Node6 -->
<g id="edge8_Node000006_Node000006" class="edge">
<title>Node6&#45;&gt;Node6</title>
<g id="a_edge8_Node000006_Node000006"><a xlink:title=" ">
<path fill="none" stroke="#63b8ff" d="M106.16,-303.71C100.99,-307.48 90.64,-310 75.12,-310 46.75,-310 35.67,-301.58 41.87,-292.44"/>
<polygon fill="#63b8ff" stroke="#63b8ff" points="109.59,-304.42 108.08,-293.93 102.72,-303.07 109.59,-304.42"/>
</a>
</g>
</g>
<!-- Node7&#45;&gt;Node5 -->
<g id="edge12_Node000007_Node000005" class="edge">
<title>Node7&#45;&gt;Node5</title>
<g id="a_edge12_Node000007_Node000005"><a xlink:title=" ">
<path fill="none" stroke="#63b8ff" d="M376.8,-141.32C359.28,-146.02 340.71,-151 323.74,-155.55"/>
<polygon fill="#63b8ff" stroke="#63b8ff" points="377.34,-144.8 386.09,-138.83 375.52,-138.04 377.34,-144.8"/>
</a>
</g>
</g>
<!-- Node8&#45;&gt;Node2 -->
<g id="edge14_Node000008_Node000002" class="edge">
<title>Node8&#45;&gt;Node2</title>
<g id="a_edge14_Node000008_Node000002"><a xlink:title=" ">
<path fill="none" stroke="#63b8ff" d="M537.37,-316.94C581.63,-306.58 636.17,-292.85 684.25,-278 715.79,-268.26 751.27,-254.67 774.54,-245.4"/>
<polygon fill="#63b8ff" stroke="#63b8ff" points="536.77,-313.49 527.82,-319.16 538.36,-320.31 536.77,-313.49"/>
</a>
</g>
</g>
<!-- Node9&#45;&gt;Node6 -->
<g id="edge16_Node000009_Node000006" class="edge">
<title>Node9&#45;&gt;Node6</title>
<g id="a_edge16_Node000009_Node000006"><a xlink:title=" ">
<path fill="none" stroke="#63b8ff" d="M182.69,-288.72C172.05,-287.45 161.13,-286.15 150.55,-284.89"/>
<polygon fill="#63b8ff" stroke="#63b8ff" points="182.27,-292.2 192.61,-289.91 183.1,-285.25 182.27,-292.2"/>
</a>
</g>
</g>
<!-- Node11 -->
<g id="Node000011" class="node">
<title>Node11</title>
<g id="a_Node000011"><a xlink:href="classinterficie_1_1_vista_menu_joc.html#afab63b4d82b26b00b711c7a5473d7707" target="_top" xlink:title="Constructor de la classe VistaMenuJoc.">
<polygon fill="white" stroke="#666666" points="684.25,-32 563.25,-32 563.25,0 684.25,0 684.25,-32"/>
<text text-anchor="start" x="571.25" y="-18.5" font-family="Helvetica,sans-Serif" font-size="10.00">interficie.VistaMenuJoc.</text>
<text text-anchor="middle" x="623.75" y="-6.5" font-family="Helvetica,sans-Serif" font-size="10.00">VistaMenuJoc</text>
</a>
</g>
</g>
<!-- Node10&#45;&gt;Node11 -->
<g id="edge20_Node000010_Node000011" class="edge">
<title>Node10&#45;&gt;Node11</title>
<g id="a_edge20_Node000010_Node000011"><a xlink:title=" ">
<path fill="none" stroke="#63b8ff" d="M760.29,-91.02C728.1,-73.2 683.45,-48.49 654.33,-32.37"/>
<polygon fill="#63b8ff" stroke="#63b8ff" points="758.5,-94.03 768.95,-95.81 761.89,-87.91 758.5,-94.03"/>
</a>
</g>
</g>
<!-- Node11&#45;&gt;Node11 -->
<g id="edge23_Node000011_Node000011" class="edge">
<title>Node11&#45;&gt;Node11</title>
<g id="a_edge23_Node000011_Node000011"><a xlink:title=" ">
<path fill="none" stroke="#63b8ff" d="M652.73,-43.71C647.89,-47.48 638.24,-50 623.75,-50 597.26,-50 586.91,-41.58 592.71,-32.44"/>
<polygon fill="#63b8ff" stroke="#63b8ff" points="656.16,-44.4 654.52,-33.93 649.27,-43.14 656.16,-44.4"/>
</a>
</g>
</g>
<!-- Node12 -->
<g id="Node000012" class="node">
<title>Node12</title>
<g id="a_Node000012"><a xlink:href="classinterficie_1_1_vista_menu_joc.html#a357d2c3488fc972b443bb25cf44c8d1b" target="_top" xlink:title="Lògica per eliminar el perfil.">
<polygon fill="white" stroke="#666666" points="527.25,-32 372.5,-32 372.5,0 527.25,0 527.25,-32"/>
<text text-anchor="start" x="380.5" y="-18.5" font-family="Helvetica,sans-Serif" font-size="10.00">interficie.VistaMenuJoc.eliminar</text>
<text text-anchor="middle" x="449.88" y="-6.5" font-family="Helvetica,sans-Serif" font-size="10.00">Perfil</text>
</a>
</g>
</g>
<!-- Node11&#45;&gt;Node12 -->
<g id="edge21_Node000011_Node000012" class="edge">
<title>Node11&#45;&gt;Node12</title>
<g id="a_edge21_Node000011_Node000012"><a xlink:title=" ">
<path fill="none" stroke="#63b8ff" d="M551.67,-9.34C543.74,-9.24 535.65,-9.22 527.66,-9.28"/>
<polygon fill="#63b8ff" stroke="#63b8ff" points="551.55,-12.84 561.61,-9.51 551.67,-5.84 551.55,-12.84"/>
</a>
</g>
</g>
<!-- Node12&#45;&gt;Node11 -->
<g id="edge22_Node000012_Node000011" class="edge">
<title>Node12&#45;&gt;Node11</title>
<g id="a_edge22_Node000012_Node000011"><a xlink:title=" ">
<path fill="none" stroke="#63b8ff" d="M539.13,-22.75C547.25,-22.73 555.34,-22.64 563.12,-22.46"/>
<polygon fill="#63b8ff" stroke="#63b8ff" points="539.18,-19.25 529.17,-22.72 539.16,-26.25 539.18,-19.25"/>
</a>
</g>
</g>
</g>
</svg>

<g id="navigator" transform="translate(0 0)" fill="#404254">
  <rect fill="#f2f5e9" fill-opacity="0.5" stroke="#606060" stroke-width=".5" x="0" y="0" width="60" height="60"/>
  <use id="zoomplus" xlink:href="#zoomPlus" x="17" y="9" onmousedown="handleZoom(evt,'in')"/>
  <use id="zoomminus" xlink:href="#zoomMin" x="42" y="9" onmousedown="handleZoom(evt,'out')"/>
  <use id="reset" xlink:href="#resetDef" x="30" y="36" onmousedown="handleReset()"/>
   <use id="arrowup" xlink:href="#arrowUp" x="0" y="0" onmousedown="handlePan(0,-1)"/>
  <use id="arrowright" xlink:href="#arrowRight" x="0" y="0" onmousedown="handlePan(1,0)"/>
  <use id="arrowdown" xlink:href="#arrowDown" x="0" y="0" onmousedown="handlePan(0,1)"/>
  <use id="arrowleft" xlink:href="#arrowLeft" x="0" y="0" onmousedown="handlePan(-1,0)"/>
</g>
<svg viewBox="0 0 15 15" width="100%" height="30px" preserveAspectRatio="xMaxYMin meet">
 <g id="arrow_out" transform="scale(0.3 0.3)">
  <a xlink:href="classcontroladors_1_1_ctrl_presentacio_a7d80b96fb70eecd976aa1b1ba530d7a7_icgraph_org.svg" target="_base">
   <rect id="button" ry="5" rx="5" y="6" x="6" height="38" width="38"
        fill="#f2f5e9" fill-opacity="0.5" stroke="#606060" stroke-width="1.0"/>
   <path id="arrow"
     d="M 11.500037,31.436501 C 11.940474,20.09759 22.043105,11.32322 32.158766,21.979434 L 37.068811,17.246167 C 37.068811,17.246167 37.088388,32 37.088388,32 L 22.160133,31.978069 C 22.160133,31.978069 26.997745,27.140456 26.997745,27.140456 C 18.528582,18.264221 13.291696,25.230495 11.500037,31.436501 z"
     style="fill:#404040;"/>
  </a>
 </g>
</svg>

<style type='text/css'>
<![CDATA[
[data-mouse-over-selected='false'] { opacity: 0.7; }
[data-mouse-over-selected='true']  { opacity: 1.0; }
]]>
</style>
<script type="application/ecmascript"><![CDATA[
document.addEventListener('DOMContentLoaded', (event) => {
  highlightEdges();
  highlightAdjacentNodes();
});
]]></script>
</svg>
