<?xml version="1.0" encoding="UTF-8" standalone="no"?>
<!DOCTYPE svg PUBLIC "-//W3C//DTD SVG 1.1//EN"
 "http://www.w3.org/Graphics/SVG/1.1/DTD/svg11.dtd">
<!-- Generated by graphviz version 12.2.1 (20241206.2353)
 -->
<!-- Title: domini.jugadors.Jugador.reiniciarTornsPassatsConsecutius Pages: 1 -->
<svg width="545pt" height="90pt"
 viewBox="0.00 0.00 545.00 90.00" xmlns="http://www.w3.org/2000/svg" xmlns:xlink="http://www.w3.org/1999/xlink">
<g id="graph0" class="graph" transform="scale(1 1) rotate(0) translate(4 86)">
<title>domini.jugadors.Jugador.reiniciarTornsPassatsConsecutius</title>
<!-- Node1 -->
<g id="Node000001" class="node">
<title>Node1</title>
<g id="a_Node000001"><a xlink:title="Reinicia el comptador de torns passats consecutius.">
<polygon fill="#999999" stroke="#666666" points="537,-60 378.5,-60 378.5,-28 537,-28 537,-60"/>
<text text-anchor="start" x="386.5" y="-46.5" font-family="Helvetica,sans-Serif" font-size="10.00">domini.jugadors.Jugador.reiniciar</text>
<text text-anchor="middle" x="457.75" y="-34.5" font-family="Helvetica,sans-Serif" font-size="10.00">TornsPassatsConsecutius</text>
</a>
</g>
</g>
<!-- Node2 -->
<g id="Node000002" class="node">
<title>Node2</title>
<g id="a_Node000002"><a xlink:href="classcontroladors_1_1_ctrl_partida.html#a5e6d4a5bbd0538e02909fdd067b9c553" target="_top" xlink:title="Canvia un cert nombre de fitxes de la mà del jugador actual.">
<polygon fill="white" stroke="#666666" points="342.5,-38 189.25,-38 189.25,-6 342.5,-6 342.5,-38"/>
<text text-anchor="start" x="197.25" y="-24.5" font-family="Helvetica,sans-Serif" font-size="10.00">controladors.CtrlPartida.canviar</text>
<text text-anchor="middle" x="265.88" y="-12.5" font-family="Helvetica,sans-Serif" font-size="10.00">Fitxes</text>
</a>
</g>
</g>
<!-- Node1&#45;&gt;Node2 -->
<g id="edge1_Node000001_Node000002" class="edge">
<title>Node1&#45;&gt;Node2</title>
<g id="a_edge1_Node000001_Node000002"><a xlink:title=" ">
<path fill="none" stroke="#63b8ff" d="M366.89,-33.59C358.89,-32.66 350.84,-31.73 342.97,-30.82"/>
<polygon fill="#63b8ff" stroke="#63b8ff" points="366.31,-37.04 376.65,-34.72 367.12,-30.09 366.31,-37.04"/>
</a>
</g>
</g>
<!-- Node3 -->
<g id="Node000003" class="node">
<title>Node3</title>
<g id="a_Node000003"><a xlink:href="classcontroladors_1_1_ctrl_partida.html#ad0f7d5edb502bc4956cfd54612209ea7" target="_top" xlink:title="Col·loca una paraula al taulell.">
<polygon fill="white" stroke="#666666" points="153.25,-82 0,-82 0,-50 153.25,-50 153.25,-82"/>
<text text-anchor="start" x="8" y="-68.5" font-family="Helvetica,sans-Serif" font-size="10.00">controladors.CtrlPartida.colocar</text>
<text text-anchor="middle" x="76.62" y="-56.5" font-family="Helvetica,sans-Serif" font-size="10.00">Paraula</text>
</a>
</g>
</g>
<!-- Node1&#45;&gt;Node3 -->
<g id="edge4_Node000001_Node000003" class="edge">
<title>Node1&#45;&gt;Node3</title>
<g id="a_edge4_Node000001_Node000003"><a xlink:title=" ">
<path fill="none" stroke="#63b8ff" d="M366.74,-49.22C301.75,-52.99 214.97,-58.03 153.49,-61.6"/>
<polygon fill="#63b8ff" stroke="#63b8ff" points="366.9,-52.72 376.68,-48.65 366.5,-45.73 366.9,-52.72"/>
</a>
</g>
</g>
<!-- Node2&#45;&gt;Node3 -->
<g id="edge2_Node000002_Node000003" class="edge">
<title>Node2&#45;&gt;Node3</title>
<g id="a_edge2_Node000002_Node000003"><a xlink:title=" ">
<path fill="none" stroke="#63b8ff" d="M183.95,-41.02C171.93,-43.84 159.62,-46.73 147.84,-49.5"/>
<polygon fill="#63b8ff" stroke="#63b8ff" points="184.48,-44.49 193.41,-38.79 182.87,-37.67 184.48,-44.49"/>
</a>
</g>
</g>
<!-- Node4 -->
<g id="Node000004" class="node">
<title>Node4</title>
<g id="a_Node000004"><a xlink:href="classcontroladors_1_1_ctrl_partida.html#afa4340f6a2cb198455d536ccaf87717b" target="_top" xlink:title="Gestiona el desenvolupament de la jugada de la màquina.">
<polygon fill="white" stroke="#666666" points="143.12,-32 10.12,-32 10.12,0 143.12,0 143.12,-32"/>
<text text-anchor="start" x="18.12" y="-18.5" font-family="Helvetica,sans-Serif" font-size="10.00">controladors.CtrlPartida.fer</text>
<text text-anchor="middle" x="76.62" y="-6.5" font-family="Helvetica,sans-Serif" font-size="10.00">JugadaMaquina</text>
</a>
</g>
</g>
<!-- Node2&#45;&gt;Node4 -->
<g id="edge3_Node000002_Node000004" class="edge">
<title>Node2&#45;&gt;Node4</title>
<g id="a_edge3_Node000002_Node000004"><a xlink:title=" ">
<path fill="none" stroke="#63b8ff" d="M177.56,-19.2C166.07,-18.83 154.45,-18.46 143.4,-18.11"/>
<polygon fill="#63b8ff" stroke="#63b8ff" points="177.36,-22.7 187.47,-19.52 177.59,-15.7 177.36,-22.7"/>
</a>
</g>
</g>
</g>
</svg>
