<?xml version="1.0" encoding="UTF-8" standalone="no"?>
<!DOCTYPE svg PUBLIC "-//W3C//DTD SVG 1.1//EN"
 "http://www.w3.org/Graphics/SVG/1.1/DTD/svg11.dtd">
<!-- Generated by graphviz version 12.2.1 (20241206.2353)
 -->
<!-- Title: interficie.VistaPartida Pages: 1 -->
<svg width="375pt" height="1140pt"
 viewBox="0.00 0.00 375.38 1140.00" xmlns="http://www.w3.org/2000/svg" xmlns:xlink="http://www.w3.org/1999/xlink">
<g id="graph0" class="graph" transform="scale(1 1) rotate(0) translate(4 1136)">
<title>interficie.VistaPartida</title>
<!-- Node1 -->
<g id="Node000001" class="node">
<title>Node1</title>
<g id="a_Node000001"><a xlink:title="Classe que representa la interfície gràfica d&#39;una partida de Scrabble.">
<polygon fill="#999999" stroke="none" points="167.5,-340 42.25,-340 42.25,0 167.5,0 167.5,-340"/>
<text text-anchor="start" x="58.38" y="-326.5" font-family="Helvetica,sans-Serif" font-size="10.00">interficie.VistaPartida</text>
<text text-anchor="start" x="47.75" y="-310.5" font-family="Helvetica,sans-Serif" font-size="10.00">&#45;</text>
<text text-anchor="start" x="56.25" y="-310.5" font-family="Helvetica,sans-Serif" font-size="10.00">boardContainer</text>
<text text-anchor="start" x="47.75" y="-294.5" font-family="Helvetica,sans-Serif" font-size="10.00">&#45;</text>
<text text-anchor="start" x="56.25" y="-294.5" font-family="Helvetica,sans-Serif" font-size="10.00">racSuperior</text>
<text text-anchor="start" x="47.75" y="-278.5" font-family="Helvetica,sans-Serif" font-size="10.00">&#45;</text>
<text text-anchor="start" x="56.25" y="-278.5" font-family="Helvetica,sans-Serif" font-size="10.00">racInferior</text>
<text text-anchor="start" x="47.75" y="-262.5" font-family="Helvetica,sans-Serif" font-size="10.00">&#45;</text>
<text text-anchor="start" x="56.25" y="-262.5" font-family="Helvetica,sans-Serif" font-size="10.00">puntuacionsPanel</text>
<text text-anchor="start" x="47.75" y="-246.5" font-family="Helvetica,sans-Serif" font-size="10.00">&#45;</text>
<text text-anchor="start" x="56.25" y="-246.5" font-family="Helvetica,sans-Serif" font-size="10.00">racRack</text>
<text text-anchor="start" x="47.75" y="-230.5" font-family="Helvetica,sans-Serif" font-size="10.00">&#45;</text>
<text text-anchor="start" x="56.25" y="-230.5" font-family="Helvetica,sans-Serif" font-size="10.00">lblTorn</text>
<text text-anchor="start" x="47.75" y="-214.5" font-family="Helvetica,sans-Serif" font-size="10.00">&#45;</text>
<text text-anchor="start" x="56.25" y="-214.5" font-family="Helvetica,sans-Serif" font-size="10.00">idioma</text>
<text text-anchor="start" x="47.75" y="-198.5" font-family="Helvetica,sans-Serif" font-size="10.00">&#45;</text>
<text text-anchor="start" x="56.25" y="-198.5" font-family="Helvetica,sans-Serif" font-size="10.00">id</text>
<text text-anchor="start" x="46.25" y="-182.5" font-family="Helvetica,sans-Serif" font-size="10.00">+</text>
<text text-anchor="start" x="56.25" y="-182.5" font-family="Helvetica,sans-Serif" font-size="10.00">VistaPartida()</text>
<text text-anchor="start" x="46.25" y="-166.5" font-family="Helvetica,sans-Serif" font-size="10.00">+</text>
<text text-anchor="start" x="56.25" y="-166.5" font-family="Helvetica,sans-Serif" font-size="10.00">refrescarRack()</text>
<text text-anchor="start" x="46.25" y="-150.5" font-family="Helvetica,sans-Serif" font-size="10.00">+</text>
<text text-anchor="start" x="56.25" y="-150.5" font-family="Helvetica,sans-Serif" font-size="10.00">refrescarTaulell()</text>
<text text-anchor="start" x="46.25" y="-134.5" font-family="Helvetica,sans-Serif" font-size="10.00">+</text>
<text text-anchor="start" x="56.25" y="-134.5" font-family="Helvetica,sans-Serif" font-size="10.00">refrescarInformacio()</text>
<text text-anchor="start" x="46.25" y="-118.5" font-family="Helvetica,sans-Serif" font-size="10.00">+</text>
<text text-anchor="start" x="56.25" y="-118.5" font-family="Helvetica,sans-Serif" font-size="10.00">refrescarRackJugadors()</text>
<text text-anchor="start" x="46.25" y="-102.5" font-family="Helvetica,sans-Serif" font-size="10.00">+</text>
<text text-anchor="start" x="56.25" y="-102.5" font-family="Helvetica,sans-Serif" font-size="10.00">crearEtiquetaColor()</text>
<text text-anchor="start" x="47.75" y="-86.5" font-family="Helvetica,sans-Serif" font-size="10.00">&#45;</text>
<text text-anchor="start" x="56.25" y="-86.5" font-family="Helvetica,sans-Serif" font-size="10.00">initUI()</text>
<text text-anchor="start" x="47.75" y="-70.5" font-family="Helvetica,sans-Serif" font-size="10.00">&#45;</text>
<text text-anchor="start" x="56.25" y="-70.5" font-family="Helvetica,sans-Serif" font-size="10.00">confirmarAbandonar()</text>
<text text-anchor="start" x="47.75" y="-54.5" font-family="Helvetica,sans-Serif" font-size="10.00">&#45;</text>
<text text-anchor="start" x="56.25" y="-54.5" font-family="Helvetica,sans-Serif" font-size="10.00">confirmarGuardar()</text>
<text text-anchor="start" x="47.75" y="-38.5" font-family="Helvetica,sans-Serif" font-size="10.00">&#45;</text>
<text text-anchor="start" x="56.25" y="-38.5" font-family="Helvetica,sans-Serif" font-size="10.00">crearPanelJugador()</text>
<text text-anchor="start" x="47.75" y="-22.5" font-family="Helvetica,sans-Serif" font-size="10.00">&#45;</text>
<text text-anchor="start" x="56.25" y="-22.5" font-family="Helvetica,sans-Serif" font-size="10.00">afegirFitxesARack()</text>
<text text-anchor="start" x="47.75" y="-6.5" font-family="Helvetica,sans-Serif" font-size="10.00">&#45;</text>
<text text-anchor="start" x="56.25" y="-6.5" font-family="Helvetica,sans-Serif" font-size="10.00">afegirMaquetesARack()</text>
<polygon fill="#666666" stroke="#666666" points="42.25,-322 42.25,-322 167.5,-322 167.5,-322 42.25,-322"/>
<polygon fill="#666666" stroke="#666666" points="42.25,-194 42.25,-194 54.25,-194 54.25,-194 42.25,-194"/>
<polygon fill="#666666" stroke="#666666" points="54.25,-194 54.25,-194 167.5,-194 167.5,-194 54.25,-194"/>
<polygon fill="none" stroke="#666666" points="42.25,0 42.25,-340 167.5,-340 167.5,0 42.25,0"/>
</a>
</g>
</g>
<!-- Node2 -->
<g id="Node000002" class="node">
<title>Node2</title>
<g id="a_Node000002"><a xlink:title=" ">
<polygon fill="white" stroke="none" points="109.38,-528 68.38,-528 68.38,-476 109.38,-476 109.38,-528"/>
<text text-anchor="start" x="72.38" y="-514.5" font-family="Helvetica,sans-Serif" font-size="10.00">JFrame</text>
<text text-anchor="start" x="87.38" y="-498.5" font-family="Helvetica,sans-Serif" font-size="10.00"> </text>
<text text-anchor="start" x="87.38" y="-482.5" font-family="Helvetica,sans-Serif" font-size="10.00"> </text>
<polygon fill="#666666" stroke="#666666" points="68.38,-510 68.38,-510 109.38,-510 109.38,-510 68.38,-510"/>
<polygon fill="#666666" stroke="#666666" points="68.38,-494 68.38,-494 109.38,-494 109.38,-494 68.38,-494"/>
<polygon fill="none" stroke="#666666" points="68.38,-476 68.38,-528 109.38,-528 109.38,-476 68.38,-476"/>
</a>
</g>
</g>
<!-- Node2&#45;&gt;Node1 -->
<g id="edge1_Node000001_Node000002" class="edge">
<title>Node2&#45;&gt;Node1</title>
<g id="a_edge1_Node000001_Node000002"><a xlink:title=" ">
<path fill="none" stroke="#63b8ff" d="M90.63,-464.77C92.13,-433.88 94.4,-387.09 96.69,-339.88"/>
<polygon fill="none" stroke="#63b8ff" points="87.14,-464.53 90.15,-474.68 94.13,-464.87 87.14,-464.53"/>
</a>
</g>
</g>
<!-- Node3 -->
<g id="Node000003" class="node">
<title>Node3</title>
<g id="a_Node000003"><a xlink:href="$classdomini_1_1scrabble_1_1_taulell.html" xlink:title="Representa el Taulell d&#39;Scrabble.">
<polygon fill="white" stroke="none" points="234.38,-616 127.38,-616 127.38,-388 234.38,-388 234.38,-616"/>
<text text-anchor="start" x="131.38" y="-602.5" font-family="Helvetica,sans-Serif" font-size="10.00">domini.scrabble.Taulell</text>
<text text-anchor="start" x="133.94" y="-586.5" font-family="Helvetica,sans-Serif" font-size="10.00">~</text>
<text text-anchor="start" x="146.5" y="-586.5" font-family="Helvetica,sans-Serif" font-size="10.00">n</text>
<text text-anchor="start" x="133.94" y="-570.5" font-family="Helvetica,sans-Serif" font-size="10.00">+</text>
<text text-anchor="start" x="146.5" y="-570.5" font-family="Helvetica,sans-Serif" font-size="10.00">Taulell()</text>
<text text-anchor="start" x="133.94" y="-554.5" font-family="Helvetica,sans-Serif" font-size="10.00">+</text>
<text text-anchor="start" x="146.5" y="-554.5" font-family="Helvetica,sans-Serif" font-size="10.00">getCasella()</text>
<text text-anchor="start" x="133.94" y="-538.5" font-family="Helvetica,sans-Serif" font-size="10.00">+</text>
<text text-anchor="start" x="146.5" y="-538.5" font-family="Helvetica,sans-Serif" font-size="10.00">getMida()</text>
<text text-anchor="start" x="133.94" y="-522.5" font-family="Helvetica,sans-Serif" font-size="10.00">+</text>
<text text-anchor="start" x="146.5" y="-522.5" font-family="Helvetica,sans-Serif" font-size="10.00">estaBuit()</text>
<text text-anchor="start" x="133.94" y="-506.5" font-family="Helvetica,sans-Serif" font-size="10.00">+</text>
<text text-anchor="start" x="146.5" y="-506.5" font-family="Helvetica,sans-Serif" font-size="10.00">limits()</text>
<text text-anchor="start" x="133.94" y="-490.5" font-family="Helvetica,sans-Serif" font-size="10.00">+</text>
<text text-anchor="start" x="146.5" y="-490.5" font-family="Helvetica,sans-Serif" font-size="10.00">getAnchors()</text>
<text text-anchor="start" x="133.94" y="-474.5" font-family="Helvetica,sans-Serif" font-size="10.00">+</text>
<text text-anchor="start" x="146.5" y="-474.5" font-family="Helvetica,sans-Serif" font-size="10.00">transpose()</text>
<text text-anchor="start" x="133.94" y="-458.5" font-family="Helvetica,sans-Serif" font-size="10.00">+</text>
<text text-anchor="start" x="146.5" y="-458.5" font-family="Helvetica,sans-Serif" font-size="10.00">setCasella()</text>
<text text-anchor="start" x="133.94" y="-442.5" font-family="Helvetica,sans-Serif" font-size="10.00">+</text>
<text text-anchor="start" x="146.5" y="-442.5" font-family="Helvetica,sans-Serif" font-size="10.00">inserirParaula()</text>
<text text-anchor="start" x="133.94" y="-426.5" font-family="Helvetica,sans-Serif" font-size="10.00">+</text>
<text text-anchor="start" x="146.5" y="-426.5" font-family="Helvetica,sans-Serif" font-size="10.00">getCentreTaulell()</text>
<text text-anchor="start" x="133.94" y="-410.5" font-family="Helvetica,sans-Serif" font-size="10.00">+</text>
<text text-anchor="start" x="146.5" y="-410.5" font-family="Helvetica,sans-Serif" font-size="10.00">print()</text>
<text text-anchor="start" x="135.44" y="-394.5" font-family="Helvetica,sans-Serif" font-size="10.00">&#45;</text>
<text text-anchor="start" x="146.5" y="-394.5" font-family="Helvetica,sans-Serif" font-size="10.00">calcularPuntatge()</text>
<polygon fill="#666666" stroke="#666666" points="127.38,-598 127.38,-598 234.38,-598 234.38,-598 127.38,-598"/>
<polygon fill="#666666" stroke="#666666" points="127.38,-582 127.38,-582 144.5,-582 144.5,-582 127.38,-582"/>
<polygon fill="#666666" stroke="#666666" points="144.5,-582 144.5,-582 234.38,-582 234.38,-582 144.5,-582"/>
<polygon fill="none" stroke="#666666" points="127.38,-388 127.38,-616 234.38,-616 234.38,-388 127.38,-388"/>
</a>
</g>
</g>
<!-- Node3&#45;&gt;Node1 -->
<g id="edge2_Node000001_Node000003" class="edge">
<title>Node3&#45;&gt;Node1</title>
<g id="a_edge2_Node000001_Node000003"><a xlink:title=" ">
<path fill="none" stroke="#63b8ff" d="M154.93,-388.36C152.25,-376.72 149.48,-364.69 146.68,-352.54"/>
<polygon fill="none" stroke="#63b8ff" points="146.66,-352.42 141.41,-347.47 143.96,-340.72 149.21,-345.67 146.66,-352.42"/>
</a>
</g>
<text text-anchor="middle" x="154.18" y="-360.5" font-family="Helvetica,sans-Serif" font-size="10.00" fill="grey"> &#45;t</text>
</g>
<!-- Node4 -->
<g id="Node000004" class="node">
<title>Node4</title>
<g id="a_Node000004"><a xlink:href="$classdomini_1_1scrabble_1_1_casella.html" xlink:title="Representa una casella del tauler d&#39;Scrabble.">
<polygon fill="white" stroke="none" points="245.38,-924 116.38,-924 116.38,-664 245.38,-664 245.38,-924"/>
<text text-anchor="start" x="128.75" y="-910.5" font-family="Helvetica,sans-Serif" font-size="10.00">domini.scrabble.Casella</text>
<text text-anchor="start" x="121.88" y="-894.5" font-family="Helvetica,sans-Serif" font-size="10.00">&#45;</text>
<text text-anchor="start" x="130.38" y="-894.5" font-family="Helvetica,sans-Serif" font-size="10.00">cross_checks</text>
<text text-anchor="start" x="121.88" y="-878.5" font-family="Helvetica,sans-Serif" font-size="10.00">&#45;</text>
<text text-anchor="start" x="130.38" y="-878.5" font-family="Helvetica,sans-Serif" font-size="10.00">anchor</text>
<text text-anchor="start" x="120.38" y="-862.5" font-family="Helvetica,sans-Serif" font-size="10.00">+</text>
<text text-anchor="start" x="130.38" y="-862.5" font-family="Helvetica,sans-Serif" font-size="10.00">Casella()</text>
<text text-anchor="start" x="120.38" y="-846.5" font-family="Helvetica,sans-Serif" font-size="10.00">+</text>
<text text-anchor="start" x="130.38" y="-846.5" font-family="Helvetica,sans-Serif" font-size="10.00">setMultiplicador()</text>
<text text-anchor="start" x="120.38" y="-830.5" font-family="Helvetica,sans-Serif" font-size="10.00">+</text>
<text text-anchor="start" x="130.38" y="-830.5" font-family="Helvetica,sans-Serif" font-size="10.00">EstaOcupat()</text>
<text text-anchor="start" x="120.38" y="-814.5" font-family="Helvetica,sans-Serif" font-size="10.00">+</text>
<text text-anchor="start" x="130.38" y="-814.5" font-family="Helvetica,sans-Serif" font-size="10.00">afegirFitxa()</text>
<text text-anchor="start" x="120.38" y="-798.5" font-family="Helvetica,sans-Serif" font-size="10.00">+</text>
<text text-anchor="start" x="130.38" y="-798.5" font-family="Helvetica,sans-Serif" font-size="10.00">setAnchor()</text>
<text text-anchor="start" x="120.38" y="-782.5" font-family="Helvetica,sans-Serif" font-size="10.00">+</text>
<text text-anchor="start" x="130.38" y="-782.5" font-family="Helvetica,sans-Serif" font-size="10.00">isAnchor()</text>
<text text-anchor="start" x="120.38" y="-766.5" font-family="Helvetica,sans-Serif" font-size="10.00">+</text>
<text text-anchor="start" x="130.38" y="-766.5" font-family="Helvetica,sans-Serif" font-size="10.00">getCoord()</text>
<text text-anchor="start" x="120.38" y="-750.5" font-family="Helvetica,sans-Serif" font-size="10.00">+</text>
<text text-anchor="start" x="130.38" y="-750.5" font-family="Helvetica,sans-Serif" font-size="10.00">getMultiplicador()</text>
<text text-anchor="start" x="120.38" y="-734.5" font-family="Helvetica,sans-Serif" font-size="10.00">+</text>
<text text-anchor="start" x="130.38" y="-734.5" font-family="Helvetica,sans-Serif" font-size="10.00">getFitxa()</text>
<text text-anchor="start" x="120.38" y="-718.5" font-family="Helvetica,sans-Serif" font-size="10.00">+</text>
<text text-anchor="start" x="130.38" y="-718.5" font-family="Helvetica,sans-Serif" font-size="10.00">getCrossChecks()</text>
<text text-anchor="start" x="120.38" y="-702.5" font-family="Helvetica,sans-Serif" font-size="10.00">+</text>
<text text-anchor="start" x="130.38" y="-702.5" font-family="Helvetica,sans-Serif" font-size="10.00">actualitzarCrossChecks()</text>
<text text-anchor="start" x="120.38" y="-686.5" font-family="Helvetica,sans-Serif" font-size="10.00">+</text>
<text text-anchor="start" x="130.38" y="-686.5" font-family="Helvetica,sans-Serif" font-size="10.00">reiniciarCrossCheck()</text>
<text text-anchor="start" x="120.38" y="-670.5" font-family="Helvetica,sans-Serif" font-size="10.00">+</text>
<text text-anchor="start" x="130.38" y="-670.5" font-family="Helvetica,sans-Serif" font-size="10.00">retirarFitxa()</text>
<polygon fill="#666666" stroke="#666666" points="116.38,-906 116.38,-906 245.38,-906 245.38,-906 116.38,-906"/>
<polygon fill="#666666" stroke="#666666" points="116.38,-874 116.38,-874 128.38,-874 128.38,-874 116.38,-874"/>
<polygon fill="#666666" stroke="#666666" points="128.38,-874 128.38,-874 245.38,-874 245.38,-874 128.38,-874"/>
<polygon fill="none" stroke="#666666" points="116.38,-664 116.38,-924 245.38,-924 245.38,-664 116.38,-664"/>
</a>
</g>
</g>
<!-- Node4&#45;&gt;Node3 -->
<g id="edge3_Node000003_Node000004" class="edge">
<title>Node4&#45;&gt;Node3</title>
<g id="a_edge3_Node000003_Node000004"><a xlink:title=" ">
<path fill="none" stroke="#63b8ff" d="M180.88,-664.11C180.88,-652.23 180.88,-640.19 180.88,-628.34"/>
<polygon fill="none" stroke="#63b8ff" points="180.88,-628.46 176.88,-622.46 180.88,-616.46 184.88,-622.46 180.88,-628.46"/>
</a>
</g>
<text text-anchor="middle" x="196.62" y="-636.5" font-family="Helvetica,sans-Serif" font-size="10.00" fill="grey"> &#45;taulell</text>
</g>
<!-- Node5 -->
<g id="Node000005" class="node">
<title>Node5</title>
<g id="a_Node000005"><a xlink:href="$classdomini_1_1auxiliars_1_1_pair.html" xlink:title=" ">
<polygon fill="white" stroke="none" points="95.75,-1132 0,-1132 0,-972 95.75,-972 95.75,-1132"/>
<text text-anchor="start" x="4" y="-1118.5" font-family="Helvetica,sans-Serif" font-size="10.00">domini.auxiliars.Pair</text>
<text text-anchor="start" x="5.88" y="-1106.5" font-family="Helvetica,sans-Serif" font-size="10.00">&lt; Integer, Integer &gt;</text>
<text text-anchor="start" x="11.81" y="-1090.5" font-family="Helvetica,sans-Serif" font-size="10.00">&#45;</text>
<text text-anchor="start" x="26.62" y="-1090.5" font-family="Helvetica,sans-Serif" font-size="10.00">first</text>
<text text-anchor="start" x="11.81" y="-1074.5" font-family="Helvetica,sans-Serif" font-size="10.00">&#45;</text>
<text text-anchor="start" x="26.62" y="-1074.5" font-family="Helvetica,sans-Serif" font-size="10.00">second</text>
<text text-anchor="start" x="10.31" y="-1058.5" font-family="Helvetica,sans-Serif" font-size="10.00">+</text>
<text text-anchor="start" x="26.62" y="-1058.5" font-family="Helvetica,sans-Serif" font-size="10.00">Pair()</text>
<text text-anchor="start" x="10.31" y="-1042.5" font-family="Helvetica,sans-Serif" font-size="10.00">+</text>
<text text-anchor="start" x="26.62" y="-1042.5" font-family="Helvetica,sans-Serif" font-size="10.00">Pair()</text>
<text text-anchor="start" x="10.31" y="-1026.5" font-family="Helvetica,sans-Serif" font-size="10.00">+</text>
<text text-anchor="start" x="26.62" y="-1026.5" font-family="Helvetica,sans-Serif" font-size="10.00">getFirst()</text>
<text text-anchor="start" x="10.31" y="-1010.5" font-family="Helvetica,sans-Serif" font-size="10.00">+</text>
<text text-anchor="start" x="26.62" y="-1010.5" font-family="Helvetica,sans-Serif" font-size="10.00">getSecond()</text>
<text text-anchor="start" x="10.31" y="-994.5" font-family="Helvetica,sans-Serif" font-size="10.00">+</text>
<text text-anchor="start" x="26.62" y="-994.5" font-family="Helvetica,sans-Serif" font-size="10.00">equals()</text>
<text text-anchor="start" x="10.31" y="-978.5" font-family="Helvetica,sans-Serif" font-size="10.00">+</text>
<text text-anchor="start" x="26.62" y="-978.5" font-family="Helvetica,sans-Serif" font-size="10.00">toString()</text>
<polygon fill="#666666" stroke="#666666" points="0,-1102 0,-1102 95.75,-1102 95.75,-1102 0,-1102"/>
<polygon fill="#666666" stroke="#666666" points="0,-1070 0,-1070 24.62,-1070 24.62,-1070 0,-1070"/>
<polygon fill="#666666" stroke="#666666" points="24.62,-1070 24.62,-1070 95.75,-1070 95.75,-1070 24.62,-1070"/>
<polygon fill="none" stroke="#666666" points="0,-972 0,-1132 95.75,-1132 95.75,-972 0,-972"/>
</a>
</g>
</g>
<!-- Node5&#45;&gt;Node4 -->
<g id="edge4_Node000004_Node000005" class="edge">
<title>Node5&#45;&gt;Node4</title>
<g id="a_edge4_Node000004_Node000005"><a xlink:title=" ">
<path fill="none" stroke="#63b8ff" d="M88.86,-972.1C95.79,-958.77 103.15,-944.6 110.58,-930.31"/>
<polygon fill="none" stroke="#63b8ff" points="110.59,-930.29 109.81,-923.12 116.12,-919.64 116.9,-926.81 110.59,-930.29"/>
</a>
</g>
<text text-anchor="middle" x="133.21" y="-944.5" font-family="Helvetica,sans-Serif" font-size="10.00" fill="grey"> &#45;coordenades</text>
</g>
<!-- Node6 -->
<g id="Node000006" class="node">
<title>Node6</title>
<g id="a_Node000006"><a xlink:href="$enumdomini_1_1scrabble_1_1_multiplicador.html" xlink:title="Representa els diferents tipus de multiplicadors d&#39;Scrabble.">
<polygon fill="white" stroke="none" points="247.88,-1126 113.88,-1126 113.88,-978 247.88,-978 247.88,-1126"/>
<text text-anchor="start" x="117.88" y="-1112.5" font-family="Helvetica,sans-Serif" font-size="10.00">domini.scrabble.Multiplicador</text>
<text text-anchor="start" x="125.12" y="-1096.5" font-family="Helvetica,sans-Serif" font-size="10.00">+</text>
<text text-anchor="start" x="142.38" y="-1096.5" font-family="Helvetica,sans-Serif" font-size="10.00">CAP</text>
<text text-anchor="start" x="125.12" y="-1080.5" font-family="Helvetica,sans-Serif" font-size="10.00">+</text>
<text text-anchor="start" x="142.38" y="-1080.5" font-family="Helvetica,sans-Serif" font-size="10.00">DOBLE_LLETRA</text>
<text text-anchor="start" x="125.12" y="-1064.5" font-family="Helvetica,sans-Serif" font-size="10.00">+</text>
<text text-anchor="start" x="142.38" y="-1064.5" font-family="Helvetica,sans-Serif" font-size="10.00">TRIPLE_LLETRA</text>
<text text-anchor="start" x="125.12" y="-1048.5" font-family="Helvetica,sans-Serif" font-size="10.00">+</text>
<text text-anchor="start" x="142.38" y="-1048.5" font-family="Helvetica,sans-Serif" font-size="10.00">DOBLE_PARAULA</text>
<text text-anchor="start" x="125.12" y="-1032.5" font-family="Helvetica,sans-Serif" font-size="10.00">+</text>
<text text-anchor="start" x="142.38" y="-1032.5" font-family="Helvetica,sans-Serif" font-size="10.00">TRIPLE_PARAULA</text>
<text text-anchor="start" x="126.62" y="-1016.5" font-family="Helvetica,sans-Serif" font-size="10.00">&#45;</text>
<text text-anchor="start" x="142.38" y="-1016.5" font-family="Helvetica,sans-Serif" font-size="10.00">multiplicador</text>
<text text-anchor="start" x="125.12" y="-1000.5" font-family="Helvetica,sans-Serif" font-size="10.00">+</text>
<text text-anchor="start" x="142.38" y="-1000.5" font-family="Helvetica,sans-Serif" font-size="10.00">getMultiplicador()</text>
<text text-anchor="start" x="126.62" y="-984.5" font-family="Helvetica,sans-Serif" font-size="10.00">&#45;</text>
<text text-anchor="start" x="142.38" y="-984.5" font-family="Helvetica,sans-Serif" font-size="10.00">Multiplicador()</text>
<polygon fill="#666666" stroke="#666666" points="113.88,-1108 113.88,-1108 247.88,-1108 247.88,-1108 113.88,-1108"/>
<polygon fill="#666666" stroke="#666666" points="113.88,-1012 113.88,-1012 140.38,-1012 140.38,-1012 113.88,-1012"/>
<polygon fill="#666666" stroke="#666666" points="140.38,-1012 140.38,-1012 247.88,-1012 247.88,-1012 140.38,-1012"/>
<polygon fill="none" stroke="#666666" points="113.88,-978 113.88,-1126 247.88,-1126 247.88,-978 113.88,-978"/>
</a>
</g>
</g>
<!-- Node6&#45;&gt;Node4 -->
<g id="edge5_Node000004_Node000006" class="edge">
<title>Node6&#45;&gt;Node4</title>
<g id="a_edge5_Node000004_Node000006"><a xlink:title=" ">
<path fill="none" stroke="#63b8ff" d="M180.88,-978.33C180.88,-965.06 180.88,-950.82 180.88,-936.35"/>
<polygon fill="none" stroke="#63b8ff" points="180.88,-936.49 176.88,-930.49 180.88,-924.49 184.88,-930.49 180.88,-936.49"/>
</a>
</g>
<text text-anchor="middle" x="211.25" y="-944.5" font-family="Helvetica,sans-Serif" font-size="10.00" fill="grey"> &#45;multiplicador</text>
</g>
<!-- Node7 -->
<g id="Node000007" class="node">
<title>Node7</title>
<g id="a_Node000007"><a xlink:href="$classdomini_1_1scrabble_1_1_fitxa.html" xlink:title="Representa una fitxa d&#39;Scrabble.">
<polygon fill="white" stroke="none" points="367.38,-1126 266.38,-1126 266.38,-978 367.38,-978 367.38,-1126"/>
<text text-anchor="start" x="270.38" y="-1112.5" font-family="Helvetica,sans-Serif" font-size="10.00">domini.scrabble.Fitxa</text>
<text text-anchor="start" x="276.88" y="-1096.5" font-family="Helvetica,sans-Serif" font-size="10.00">&#45;</text>
<text text-anchor="start" x="290.38" y="-1096.5" font-family="Helvetica,sans-Serif" font-size="10.00">id</text>
<text text-anchor="start" x="276.88" y="-1080.5" font-family="Helvetica,sans-Serif" font-size="10.00">&#45;</text>
<text text-anchor="start" x="290.38" y="-1080.5" font-family="Helvetica,sans-Serif" font-size="10.00">lletra</text>
<text text-anchor="start" x="276.88" y="-1064.5" font-family="Helvetica,sans-Serif" font-size="10.00">&#45;</text>
<text text-anchor="start" x="290.38" y="-1064.5" font-family="Helvetica,sans-Serif" font-size="10.00">puntuacio</text>
<text text-anchor="start" x="275.38" y="-1048.5" font-family="Helvetica,sans-Serif" font-size="10.00">+</text>
<text text-anchor="start" x="290.38" y="-1048.5" font-family="Helvetica,sans-Serif" font-size="10.00">Fitxa()</text>
<text text-anchor="start" x="275.38" y="-1032.5" font-family="Helvetica,sans-Serif" font-size="10.00">+</text>
<text text-anchor="start" x="290.38" y="-1032.5" font-family="Helvetica,sans-Serif" font-size="10.00">getId()</text>
<text text-anchor="start" x="275.38" y="-1016.5" font-family="Helvetica,sans-Serif" font-size="10.00">+</text>
<text text-anchor="start" x="290.38" y="-1016.5" font-family="Helvetica,sans-Serif" font-size="10.00">getLletra()</text>
<text text-anchor="start" x="275.38" y="-1000.5" font-family="Helvetica,sans-Serif" font-size="10.00">+</text>
<text text-anchor="start" x="290.38" y="-1000.5" font-family="Helvetica,sans-Serif" font-size="10.00">getPuntuacio()</text>
<text text-anchor="start" x="275.38" y="-984.5" font-family="Helvetica,sans-Serif" font-size="10.00">+</text>
<text text-anchor="start" x="290.38" y="-984.5" font-family="Helvetica,sans-Serif" font-size="10.00">equals()</text>
<polygon fill="#666666" stroke="#666666" points="266.38,-1108 266.38,-1108 367.38,-1108 367.38,-1108 266.38,-1108"/>
<polygon fill="#666666" stroke="#666666" points="266.38,-1060 266.38,-1060 288.38,-1060 288.38,-1060 266.38,-1060"/>
<polygon fill="#666666" stroke="#666666" points="288.38,-1060 288.38,-1060 367.38,-1060 367.38,-1060 288.38,-1060"/>
<polygon fill="none" stroke="#666666" points="266.38,-978 266.38,-1126 367.38,-1126 367.38,-978 266.38,-978"/>
</a>
</g>
</g>
<!-- Node7&#45;&gt;Node4 -->
<g id="edge6_Node000004_Node000007" class="edge">
<title>Node7&#45;&gt;Node4</title>
<g id="a_edge6_Node000004_Node000007"><a xlink:title=" ">
<path fill="none" stroke="#63b8ff" d="M278.27,-978.33C269.83,-962.44 260.64,-945.15 251.39,-927.74"/>
<polygon fill="none" stroke="#63b8ff" points="251.37,-927.69 245.02,-924.27 245.74,-917.09 252.08,-920.51 251.37,-927.69"/>
</a>
</g>
<text text-anchor="middle" x="277.43" y="-944.5" font-family="Helvetica,sans-Serif" font-size="10.00" fill="grey"> &#45;fitxa</text>
</g>
</g>
</svg>
