<?xml version="1.0" encoding="UTF-8" standalone="no"?>
<!DOCTYPE svg PUBLIC "-//W3C//DTD SVG 1.1//EN"
 "http://www.w3.org/Graphics/SVG/1.1/DTD/svg11.dtd">
<!-- Generated by graphviz version 12.2.1 (20241206.2353)
 -->
<!-- Title: domini.scrabble.Taulell.limits Pages: 1 -->
<!--zoomable 736 -->

<svg id="main" version="1.1" xmlns="http://www.w3.org/2000/svg" xmlns:xlink="http://www.w3.org/1999/xlink" xml:space="preserve" onload="init(evt)">

<style type="text/css"><![CDATA[
.node, .edge {opacity: 0.7;}
.node.selected, .edge.selected {opacity: 1;}
.edge:hover path { stroke: red; }
.edge:hover polygon { stroke: red; fill: red; }
]]></style>

<defs>
  <circle id="rim" cx="0" cy="0" r="7"/>
  <circle id="rim2" cx="0" cy="0" r="3.5"/>
  <g id="zoomPlus">
    <use xlink:href="#rim" fill="#404040"><set attributeName="fill" to="#808080" begin="zoomplus.mouseover" end="zoomplus.mouseout"/></use>
    <path d="M-4,0h8M0,-4v8" fill="none" stroke="white" stroke-width="1.5" pointer-events="none"/>
  </g>
  <g id="zoomMin">
    <use xlink:href="#rim" fill="#404040"><set attributeName="fill" to="#808080" begin="zoomminus.mouseover" end="zoomminus.mouseout"/></use>
    <path d="M-4,0h8" fill="none" stroke="white" stroke-width="1.5" pointer-events="none"/>
  </g>
  <g id="arrowUp" transform="translate(30 24)">
    <use xlink:href="#rim"/>
    <path pointer-events="none" fill="none" stroke="white" stroke-width="1.5" d="M0,-3.0v7 M-2.5,-0.5L0,-3.0L2.5,-0.5"/>
  </g>
  <g id="arrowRight" transform="rotate(90) translate(36 -43)">
    <use xlink:href="#rim"/>
    <path pointer-events="none" fill="none" stroke="white" stroke-width="1.5" d="M0,-3.0v7 M-2.5,-0.5L0,-3.0L2.5,-0.5"/>
  </g>
  <g id="arrowDown" transform="rotate(180) translate(-30 -48)">
    <use xlink:href="#rim"/>
    <path pointer-events="none" fill="none" stroke="white" stroke-width="1.5" d="M0,-3.0v7 M-2.5,-0.5L0,-3.0L2.5,-0.5"/>
  </g>
  <g id="arrowLeft" transform="rotate(270) translate(-36 17)">
    <use xlink:href="#rim"/>
    <path pointer-events="none" fill="none" stroke="white" stroke-width="1.5" d="M0,-3.0v7 M-2.5,-0.5L0,-3.0L2.5,-0.5"/>
  </g>
  <g id="resetDef">
    <use xlink:href="#rim2" fill="#404040"><set attributeName="fill" to="#808080" begin="reset.mouseover" end="reset.mouseout"/></use>
  </g>
</defs>
<script type="application/ecmascript">
var viewWidth = 1518;
var viewHeight = 736;
var sectionId = 'dynsection-11';
</script>
<script type="application/ecmascript" xlink:href="svg.min.js"/>
<svg id="graph" class="graph">
<g id="viewport">
<title>domini.scrabble.Taulell.limits</title>
<!-- Node1 -->
<g id="Node000001" class="node">
<title>Node1</title>
<g id="a_Node000001"><a xlink:title=" ">
<polygon fill="#999999" stroke="#666666" points="1509.5,-448 1368.25,-448 1368.25,-428 1509.5,-428 1509.5,-448"/>
<text text-anchor="middle" x="1438.88" y="-434.5" font-family="Helvetica,sans-Serif" font-size="10.00">domini.scrabble.Taulell.limits</text>
</a>
</g>
</g>
<!-- Node2 -->
<g id="Node000002" class="node">
<title>Node2</title>
<g id="a_Node000002"><a xlink:href="classcontroladors_1_1_ctrl_partida.html#a11dd5c5c7252681872e3ba7baf8213a8" target="_top" xlink:title="Comprova si una paraula és vàlida.">
<polygon fill="white" stroke="#666666" points="940.25,-195 775.75,-195 775.75,-163 940.25,-163 940.25,-195"/>
<text text-anchor="start" x="783.75" y="-181.5" font-family="Helvetica,sans-Serif" font-size="10.00">controladors.CtrlPartida.comprova</text>
<text text-anchor="middle" x="858" y="-169.5" font-family="Helvetica,sans-Serif" font-size="10.00">_paraula</text>
</a>
</g>
</g>
<!-- Node1&#45;&gt;Node2 -->
<g id="edge1_Node000001_Node000002" class="edge">
<title>Node1&#45;&gt;Node2</title>
<g id="a_edge1_Node000001_Node000002"><a xlink:title=" ">
<path fill="none" stroke="#63b8ff" d="M1437.45,-416.51C1435.1,-359.5 1420.5,-203.3 1332.25,-123 1273.29,-69.35 1051.05,-51.44 976.25,-79 930.81,-95.74 891.01,-138.8 871.59,-162.59"/>
<polygon fill="#63b8ff" stroke="#63b8ff" points="1433.94,-416.27 1437.75,-426.15 1440.94,-416.05 1433.94,-416.27"/>
</a>
</g>
</g>
<!-- Node4 -->
<g id="Node000004" class="node">
<title>Node4</title>
<g id="a_Node000004"><a xlink:href="classcontroladors_1_1_ctrl_partida.html#a55c08c7767d17dd7d8b4ae00d33b1fe7" target="_top" xlink:title="Comprova si una lletra és vàlida per a una casella que formi paraula transversal vertical.">
<polygon fill="white" stroke="#666666" points="1143.75,-170 976.25,-170 976.25,-138 1143.75,-138 1143.75,-170"/>
<text text-anchor="start" x="984.25" y="-156.5" font-family="Helvetica,sans-Serif" font-size="10.00">controladors.CtrlPartida.comprovar</text>
<text text-anchor="middle" x="1060" y="-144.5" font-family="Helvetica,sans-Serif" font-size="10.00">_noves_paraules</text>
</a>
</g>
</g>
<!-- Node1&#45;&gt;Node4 -->
<g id="edge3_Node000001_Node000004" class="edge">
<title>Node1&#45;&gt;Node4</title>
<g id="a_edge3_Node000001_Node000004"><a xlink:title=" ">
<path fill="none" stroke="#63b8ff" d="M1419.62,-419.84C1398.83,-399.33 1363.67,-365.14 1332.25,-337 1311.89,-318.77 1167.79,-191.99 1143.75,-179 1137.81,-175.79 1131.4,-172.93 1124.87,-170.41"/>
<polygon fill="#63b8ff" stroke="#63b8ff" points="1416.95,-422.12 1426.52,-426.67 1421.87,-417.15 1416.95,-422.12"/>
</a>
</g>
</g>
<!-- Node5 -->
<g id="Node000005" class="node">
<title>Node5</title>
<g id="a_Node000005"><a xlink:href="classdomini_1_1jugadors_1_1_maquina.html#a28fa4d863085aaaba920b95a47bf14b7" target="_top" xlink:title="Genera totes les paraules possibles a la dreta d&#39;una subparaula prefix.">
<polygon fill="white" stroke="#666666" points="739.75,-576 583.5,-576 583.5,-544 739.75,-544 739.75,-576"/>
<text text-anchor="start" x="591.5" y="-562.5" font-family="Helvetica,sans-Serif" font-size="10.00">domini.jugadors.Maquina.extend</text>
<text text-anchor="middle" x="661.62" y="-550.5" font-family="Helvetica,sans-Serif" font-size="10.00">Right</text>
</a>
</g>
</g>
<!-- Node1&#45;&gt;Node5 -->
<g id="edge5_Node000001_Node000005" class="edge">
<title>Node1&#45;&gt;Node5</title>
<g id="a_edge5_Node000001_Node000005"><a xlink:title=" ">
<path fill="none" stroke="#63b8ff" d="M1431.47,-458.87C1418.89,-496.12 1387.3,-573.83 1332.25,-613 1262.47,-662.65 1228.93,-644.06 1143.75,-653 979.82,-670.2 932.74,-657.23 775.75,-607 749.11,-598.48 719.99,-586.31 697.97,-576.49"/>
<polygon fill="#63b8ff" stroke="#63b8ff" points="1434.67,-460.33 1434.42,-449.74 1428.01,-458.17 1434.67,-460.33"/>
</a>
</g>
</g>
<!-- Node6 -->
<g id="Node000006" class="node">
<title>Node6</title>
<g id="a_Node000006"><a xlink:href="classdomini_1_1jugadors_1_1_maquina.html#a408520f7aa4d96099ecfa1bae76728b5" target="_top" xlink:title="Genera totes les subparaules prefix possibles cap a l&#39;esquerra d&#39;una casella anchor.">
<polygon fill="white" stroke="#666666" points="547.5,-489 366.5,-489 366.5,-469 547.5,-469 547.5,-489"/>
<text text-anchor="middle" x="457" y="-475.5" font-family="Helvetica,sans-Serif" font-size="10.00">domini.jugadors.Maquina.generateLeft</text>
</a>
</g>
</g>
<!-- Node1&#45;&gt;Node6 -->
<g id="edge11_Node000001_Node000006" class="edge">
<title>Node1&#45;&gt;Node6</title>
<g id="a_edge11_Node000001_Node000006"><a xlink:title=" ">
<path fill="none" stroke="#63b8ff" d="M1396.75,-451.89C1328.06,-473.82 1185.24,-514 1061,-514 1061,-514 1061,-514 857,-514 743.48,-514 612.49,-499.77 532.47,-489.45"/>
<polygon fill="#63b8ff" stroke="#63b8ff" points="1397.64,-455.28 1406.08,-448.87 1395.49,-448.62 1397.64,-455.28"/>
</a>
</g>
</g>
<!-- Node7 -->
<g id="Node000007" class="node">
<title>Node7</title>
<g id="a_Node000007"><a xlink:href="classdomini_1_1jugadors_1_1_maquina.html#afe864f5cb4ab5895e149c5aad0235400" target="_top" xlink:title="Busca la millor paraula en una direcció específica (horitzontal o vertical).">
<polygon fill="white" stroke="#666666" points="330.5,-472 174.25,-472 174.25,-440 330.5,-440 330.5,-472"/>
<text text-anchor="start" x="182.25" y="-458.5" font-family="Helvetica,sans-Serif" font-size="10.00">domini.jugadors.Maquina.search</text>
<text text-anchor="middle" x="252.38" y="-446.5" font-family="Helvetica,sans-Serif" font-size="10.00">BestWord</text>
</a>
</g>
</g>
<!-- Node1&#45;&gt;Node7 -->
<g id="edge33_Node000001_Node000007" class="edge">
<title>Node1&#45;&gt;Node7</title>
<g id="a_edge33_Node000001_Node000007"><a xlink:title=" ">
<path fill="none" stroke="#63b8ff" d="M1432.95,-459.58C1422.19,-501.77 1392.59,-595.46 1332.25,-646 1235.7,-726.87 1186.94,-728 1061,-728 1061,-728 1061,-728 660.62,-728 475.28,-728 310.28,-530.76 265.38,-472.2"/>
<polygon fill="#63b8ff" stroke="#63b8ff" points="1436.33,-460.48 1435.29,-449.94 1429.53,-458.83 1436.33,-460.48"/>
</a>
</g>
</g>
<!-- Node9 -->
<g id="Node000009" class="node">
<title>Node9</title>
<g id="a_Node000009"><a xlink:href="classdomini_1_1scrabble_1_1_taulell.html#a5be7b0143cecbce3e2f4dc4f53814879" target="_top" xlink:title="Donades unes coordenades, retorna la Casella que es troba en aquelles coordenades.">
<polygon fill="white" stroke="#666666" points="1321.75,-378 1190.25,-378 1190.25,-346 1321.75,-346 1321.75,-378"/>
<text text-anchor="start" x="1198.25" y="-364.5" font-family="Helvetica,sans-Serif" font-size="10.00">domini.scrabble.Taulell.get</text>
<text text-anchor="middle" x="1256" y="-352.5" font-family="Helvetica,sans-Serif" font-size="10.00">Casella</text>
</a>
</g>
</g>
<!-- Node1&#45;&gt;Node9 -->
<g id="edge12_Node000001_Node000009" class="edge">
<title>Node1&#45;&gt;Node9</title>
<g id="a_edge12_Node000001_Node000009"><a xlink:title=" ">
<path fill="none" stroke="#63b8ff" d="M1402.89,-423.3C1372.26,-410.43 1327.81,-391.75 1296.03,-378.4"/>
<polygon fill="#63b8ff" stroke="#63b8ff" points="1401.13,-426.36 1411.71,-427.01 1403.85,-419.91 1401.13,-426.36"/>
</a>
</g>
</g>
<!-- Node11 -->
<g id="Node000011" class="node">
<title>Node11</title>
<g id="a_Node000011"><a xlink:href="classdomini_1_1jugadors_1_1_maquina.html#a247420aa69d81da6d3d1951d3b409a43" target="_top" xlink:title="Valora una paraula i actualitza la millor paraula trobada si és millor.">
<polygon fill="white" stroke="#666666" points="936.12,-576 779.88,-576 779.88,-544 936.12,-544 936.12,-576"/>
<text text-anchor="start" x="787.88" y="-562.5" font-family="Helvetica,sans-Serif" font-size="10.00">domini.jugadors.Maquina.valorar</text>
<text text-anchor="middle" x="858" y="-550.5" font-family="Helvetica,sans-Serif" font-size="10.00">Paraula</text>
</a>
</g>
</g>
<!-- Node1&#45;&gt;Node11 -->
<g id="edge35_Node000001_Node000011" class="edge">
<title>Node1&#45;&gt;Node11</title>
<g id="a_edge35_Node000001_Node000011"><a xlink:title=" ">
<path fill="none" stroke="#63b8ff" d="M1426.93,-458C1410.2,-486.79 1375.58,-539.77 1332.25,-570 1259.81,-620.55 1230.94,-618.82 1143.75,-633 1070.27,-644.95 1047.83,-653.46 976.25,-633 937.75,-621.99 899.58,-594.28 877.7,-576.34"/>
<polygon fill="#63b8ff" stroke="#63b8ff" points="1429.83,-459.99 1431.71,-449.56 1423.73,-456.54 1429.83,-459.99"/>
</a>
</g>
</g>
<!-- Node13 -->
<g id="Node000013" class="node">
<title>Node13</title>
<g id="a_Node000013"><a xlink:href="classdomini_1_1scrabble_1_1_taulell.html#ab0d90c6619b4237ae0dff2190e991843" target="_top" xlink:title="Insereix una paraula al Taulell.">
<polygon fill="white" stroke="#666666" points="1132.12,-120 987.88,-120 987.88,-88 1132.12,-88 1132.12,-120"/>
<text text-anchor="start" x="995.88" y="-106.5" font-family="Helvetica,sans-Serif" font-size="10.00">domini.scrabble.Taulell.inserir</text>
<text text-anchor="middle" x="1060" y="-94.5" font-family="Helvetica,sans-Serif" font-size="10.00">Paraula</text>
</a>
</g>
</g>
<!-- Node1&#45;&gt;Node13 -->
<g id="edge30_Node000001_Node000013" class="edge">
<title>Node1&#45;&gt;Node13</title>
<g id="a_edge30_Node000001_Node000013"><a xlink:title=" ">
<path fill="none" stroke="#63b8ff" d="M1433.71,-416.64C1423.9,-371.7 1395.24,-266.56 1332.25,-206 1277.39,-153.26 1192.67,-127.24 1132.52,-114.77"/>
<polygon fill="#63b8ff" stroke="#63b8ff" points="1430.23,-417.07 1435.68,-426.15 1437.08,-415.65 1430.23,-417.07"/>
</a>
</g>
</g>
<!-- Node16 -->
<g id="Node000016" class="node">
<title>Node16</title>
<g id="a_Node000016"><a xlink:href="classdomini_1_1jugadors_1_1_maquina.html#a57c533590571f4918ebd03a0b0d4819b" target="_top" xlink:title="Comprova si una lletra és vàlida per a una casella que formi paraula transversal vertical.">
<polygon fill="white" stroke="#666666" points="1133.62,-624 986.38,-624 986.38,-592 1133.62,-592 1133.62,-624"/>
<text text-anchor="start" x="994.38" y="-610.5" font-family="Helvetica,sans-Serif" font-size="10.00">domini.jugadors.Maquina.valid</text>
<text text-anchor="middle" x="1060" y="-598.5" font-family="Helvetica,sans-Serif" font-size="10.00">_traversals</text>
</a>
</g>
</g>
<!-- Node1&#45;&gt;Node16 -->
<g id="edge34_Node000001_Node000016" class="edge">
<title>Node1&#45;&gt;Node16</title>
<g id="a_edge34_Node000001_Node000016"><a xlink:title=" ">
<path fill="none" stroke="#63b8ff" d="M1421.06,-456.35C1401.54,-476.62 1367.5,-508.92 1332.25,-528 1269.43,-562.01 1190.4,-583.21 1133.87,-595.16"/>
<polygon fill="#63b8ff" stroke="#63b8ff" points="1423.38,-459 1427.69,-449.32 1418.28,-454.2 1423.38,-459"/>
</a>
</g>
</g>
<!-- Node17 -->
<g id="Node000017" class="node">
<title>Node17</title>
<g id="a_Node000017"><a xlink:href="classcontroladors_1_1_ctrl_partida.html#a9de7e8a2258b08affa0274996d2ed9df" target="_top" xlink:title="Comprova si la posició d&#39;una paraula és vàlida dins dels límits del taulell.">
<polygon fill="white" stroke="#666666" points="1332.25,-32 1179.75,-32 1179.75,0 1332.25,0 1332.25,-32"/>
<text text-anchor="start" x="1187.75" y="-18.5" font-family="Helvetica,sans-Serif" font-size="10.00">controladors.CtrlPartida.posicio</text>
<text text-anchor="middle" x="1256" y="-6.5" font-family="Helvetica,sans-Serif" font-size="10.00">Correcta</text>
</a>
</g>
</g>
<!-- Node1&#45;&gt;Node17 -->
<g id="edge31_Node000001_Node000017" class="edge">
<title>Node1&#45;&gt;Node17</title>
<g id="a_edge31_Node000001_Node000017"><a xlink:title=" ">
<path fill="none" stroke="#63b8ff" d="M1438.4,-416.19C1438.76,-351.29 1431.11,-157.07 1332.25,-46 1327.39,-40.54 1321.4,-36.06 1314.93,-32.38"/>
<polygon fill="#63b8ff" stroke="#63b8ff" points="1434.9,-416.13 1438.26,-426.18 1441.9,-416.23 1434.9,-416.13"/>
</a>
</g>
</g>
<!-- Node3 -->
<g id="Node000003" class="node">
<title>Node3</title>
<g id="a_Node000003"><a xlink:href="classcontroladors_1_1_ctrl_partida.html#ad0f7d5edb502bc4956cfd54612209ea7" target="_top" xlink:title="Col·loca una paraula al taulell.">
<polygon fill="white" stroke="#666666" points="738.25,-258 585,-258 585,-226 738.25,-226 738.25,-258"/>
<text text-anchor="start" x="593" y="-244.5" font-family="Helvetica,sans-Serif" font-size="10.00">controladors.CtrlPartida.colocar</text>
<text text-anchor="middle" x="661.62" y="-232.5" font-family="Helvetica,sans-Serif" font-size="10.00">Paraula</text>
</a>
</g>
</g>
<!-- Node2&#45;&gt;Node3 -->
<g id="edge2_Node000002_Node000003" class="edge">
<title>Node2&#45;&gt;Node3</title>
<g id="a_edge2_Node000002_Node000003"><a xlink:title=" ">
<path fill="none" stroke="#63b8ff" d="M795.52,-198.93C769.1,-207.49 738.6,-217.38 713.48,-225.52"/>
<polygon fill="#63b8ff" stroke="#63b8ff" points="796.31,-202.35 804.74,-195.94 794.15,-195.69 796.31,-202.35"/>
</a>
</g>
</g>
<!-- Node4&#45;&gt;Node2 -->
<g id="edge4_Node000004_Node000002" class="edge">
<title>Node4&#45;&gt;Node2</title>
<g id="a_edge4_Node000004_Node000002"><a xlink:title=" ">
<path fill="none" stroke="#63b8ff" d="M964.6,-165.8C956.56,-166.81 948.47,-167.82 940.54,-168.81"/>
<polygon fill="#63b8ff" stroke="#63b8ff" points="964.93,-169.29 974.42,-164.57 964.06,-162.34 964.93,-169.29"/>
</a>
</g>
</g>
<!-- Node5&#45;&gt;Node5 -->
<g id="edge6_Node000005_Node000005" class="edge">
<title>Node5&#45;&gt;Node5</title>
<g id="a_edge6_Node000005_Node000005"><a xlink:title=" ">
<path fill="none" stroke="#63b8ff" d="M694.35,-587.71C688.89,-591.48 677.99,-594 661.62,-594 631.71,-594 620.02,-585.58 626.57,-576.44"/>
<polygon fill="#63b8ff" stroke="#63b8ff" points="697.78,-588.43 696.38,-577.92 690.92,-587.01 697.78,-588.43"/>
</a>
</g>
</g>
<!-- Node5&#45;&gt;Node6 -->
<g id="edge7_Node000005_Node000006" class="edge">
<title>Node5&#45;&gt;Node6</title>
<g id="a_edge7_Node000005_Node000006"><a xlink:title=" ">
<path fill="none" stroke="#63b8ff" d="M609.02,-539.37C569.14,-523.43 515.6,-502.03 484.15,-489.45"/>
<polygon fill="#63b8ff" stroke="#63b8ff" points="607.63,-542.58 618.22,-543.05 610.23,-536.08 607.63,-542.58"/>
</a>
</g>
</g>
<!-- Node6&#45;&gt;Node6 -->
<g id="edge8_Node000006_Node000006" class="edge">
<title>Node6&#45;&gt;Node6</title>
<g id="a_edge8_Node000006_Node000006"><a xlink:title=" ">
<path fill="none" stroke="#63b8ff" d="M493.55,-500.11C489.19,-504.14 477.01,-507 457,-507 421.43,-507 410.59,-497.98 424.49,-489.34"/>
<polygon fill="#63b8ff" stroke="#63b8ff" points="496.83,-498.89 490.04,-490.76 490.27,-501.35 496.83,-498.89"/>
</a>
</g>
</g>
<!-- Node6&#45;&gt;Node7 -->
<g id="edge9_Node000006_Node000007" class="edge">
<title>Node6&#45;&gt;Node7</title>
<g id="a_edge9_Node000006_Node000007"><a xlink:title=" ">
<path fill="none" stroke="#63b8ff" d="M354.8,-467.51C346.7,-466.59 338.59,-465.67 330.69,-464.78"/>
<polygon fill="#63b8ff" stroke="#63b8ff" points="354.41,-470.99 364.74,-468.64 355.2,-464.04 354.41,-470.99"/>
</a>
</g>
</g>
<!-- Node8 -->
<g id="Node000008" class="node">
<title>Node8</title>
<g id="a_Node000008"><a xlink:href="classdomini_1_1jugadors_1_1_maquina.html#a8b1f4889bc62ca862e4f87e55c66871e" target="_top" xlink:title="Busca la paraula amb la puntuació més alta donats un taulell i un diccionari.">
<polygon fill="white" stroke="#666666" points="138.25,-472 0,-472 0,-440 138.25,-440 138.25,-472"/>
<text text-anchor="start" x="8" y="-458.5" font-family="Helvetica,sans-Serif" font-size="10.00">domini.jugadors.Maquina.fer</text>
<text text-anchor="middle" x="69.12" y="-446.5" font-family="Helvetica,sans-Serif" font-size="10.00">Jugada</text>
</a>
</g>
</g>
<!-- Node7&#45;&gt;Node8 -->
<g id="edge10_Node000007_Node000008" class="edge">
<title>Node7&#45;&gt;Node8</title>
<g id="a_edge10_Node000007_Node000008"><a xlink:title=" ">
<path fill="none" stroke="#63b8ff" d="M162.64,-456C154.58,-456 146.51,-456 138.67,-456"/>
<polygon fill="#63b8ff" stroke="#63b8ff" points="162.47,-459.5 172.47,-456 162.47,-452.5 162.47,-459.5"/>
</a>
</g>
</g>
<!-- Node9&#45;&gt;Node2 -->
<g id="edge17_Node000009_Node000002" class="edge">
<title>Node9&#45;&gt;Node2</title>
<g id="a_edge17_Node000009_Node000002"><a xlink:title=" ">
<path fill="none" stroke="#63b8ff" d="M1231.56,-337.92C1210.41,-317.53 1177.5,-288.96 1143.75,-272 1075.08,-237.48 1049.03,-253.7 976.25,-229 947.86,-219.36 916.67,-205.92 893.6,-195.4"/>
<polygon fill="#63b8ff" stroke="#63b8ff" points="1228.95,-340.26 1238.53,-344.78 1233.86,-335.27 1228.95,-340.26"/>
</a>
</g>
</g>
<!-- Node9&#45;&gt;Node3 -->
<g id="edge16_Node000009_Node000003" class="edge">
<title>Node9&#45;&gt;Node3</title>
<g id="a_edge16_Node000009_Node000003"><a xlink:title=" ">
<path fill="none" stroke="#63b8ff" d="M1216.13,-340.35C1195.26,-329.63 1168.75,-317.43 1143.75,-310 1004.46,-268.61 834.79,-252.13 738.69,-245.78"/>
<polygon fill="#63b8ff" stroke="#63b8ff" points="1214.37,-343.38 1224.85,-344.92 1217.62,-337.18 1214.37,-343.38"/>
</a>
</g>
</g>
<!-- Node9&#45;&gt;Node4 -->
<g id="edge18_Node000009_Node000004" class="edge">
<title>Node9&#45;&gt;Node4</title>
<g id="a_edge18_Node000009_Node000004"><a xlink:title=" ">
<path fill="none" stroke="#63b8ff" d="M1236.62,-336.58C1220.78,-314.25 1197.71,-280.63 1179.75,-250 1161.85,-219.48 1170.87,-201.72 1143.75,-179 1139.84,-175.72 1135.51,-172.88 1130.94,-170.4"/>
<polygon fill="#63b8ff" stroke="#63b8ff" points="1233.59,-338.37 1242.25,-344.48 1239.29,-334.31 1233.59,-338.37"/>
</a>
</g>
</g>
<!-- Node9&#45;&gt;Node5 -->
<g id="edge19_Node000009_Node000005" class="edge">
<title>Node9&#45;&gt;Node5</title>
<g id="a_edge19_Node000009_Node000005"><a xlink:title=" ">
<path fill="none" stroke="#63b8ff" d="M1231.69,-386.33C1210.61,-406.89 1177.76,-435.55 1143.75,-452 1139.13,-454.24 870.81,-513.87 736.93,-543.54"/>
<polygon fill="#63b8ff" stroke="#63b8ff" points="1234.02,-388.95 1238.63,-379.41 1229.08,-383.99 1234.02,-388.95"/>
</a>
</g>
</g>
<!-- Node9&#45;&gt;Node6 -->
<g id="edge20_Node000009_Node000006" class="edge">
<title>Node9&#45;&gt;Node6</title>
<g id="a_edge20_Node000009_Node000006"><a xlink:title=" ">
<path fill="none" stroke="#63b8ff" d="M1206.72,-382.7C1187.45,-390.19 1164.87,-398.02 1143.75,-403 933.9,-452.52 680.13,-469.97 547.95,-475.98"/>
<polygon fill="#63b8ff" stroke="#63b8ff" points="1207.94,-385.98 1215.94,-379.03 1205.35,-379.48 1207.94,-385.98"/>
</a>
</g>
</g>
<!-- Node9&#45;&gt;Node7 -->
<g id="edge25_Node000009_Node000007" class="edge">
<title>Node9&#45;&gt;Node7</title>
<g id="a_edge25_Node000009_Node000007"><a xlink:title=" ">
<path fill="none" stroke="#63b8ff" d="M1178.76,-347.92C1167.06,-346.06 1155.1,-344.34 1143.75,-343 1017.79,-328.08 985.84,-324 859,-324 859,-324 859,-324 660.62,-324 526.45,-324 491.54,-343.35 366.5,-392 334.11,-404.6 299.76,-425.2 277.52,-439.62"/>
<polygon fill="#63b8ff" stroke="#63b8ff" points="1177.94,-351.33 1188.37,-349.48 1179.06,-344.42 1177.94,-351.33"/>
</a>
</g>
</g>
<!-- Node10 -->
<g id="Node000010" class="node">
<title>Node10</title>
<g id="a_Node000010"><a xlink:href="classdomini_1_1jugadors_1_1_maquina.html#a80169174406c5da6922feb0f4c854ac8" target="_top" xlink:title="Calcula la puntuació d&#39;una paraula col·locada en el taulell.">
<polygon fill="white" stroke="#666666" points="1140.38,-574 979.62,-574 979.62,-542 1140.38,-542 1140.38,-574"/>
<text text-anchor="start" x="987.62" y="-560.5" font-family="Helvetica,sans-Serif" font-size="10.00">domini.jugadors.Maquina.calcular</text>
<text text-anchor="middle" x="1060" y="-548.5" font-family="Helvetica,sans-Serif" font-size="10.00">Puntatge</text>
</a>
</g>
</g>
<!-- Node9&#45;&gt;Node10 -->
<g id="edge13_Node000009_Node000010" class="edge">
<title>Node9&#45;&gt;Node10</title>
<g id="a_edge13_Node000009_Node000010"><a xlink:title=" ">
<path fill="none" stroke="#63b8ff" d="M1235.52,-386.81C1214.15,-413.43 1178.3,-456.39 1143.75,-490 1124.29,-508.93 1100.11,-528.39 1082.93,-541.61"/>
<polygon fill="#63b8ff" stroke="#63b8ff" points="1238,-389.31 1241.5,-379.31 1232.53,-384.95 1238,-389.31"/>
</a>
</g>
</g>
<!-- Node12 -->
<g id="Node000012" class="node">
<title>Node12</title>
<g id="a_Node000012"><a xlink:href="classdomini_1_1scrabble_1_1_taulell.html#ad10763e1db2abab4a552e5d99b693db7" target="_top" xlink:title="Retorna un Set amb les coordenades de les caselles que son anchors.">
<polygon fill="white" stroke="#666666" points="522.75,-433 391.25,-433 391.25,-401 522.75,-401 522.75,-433"/>
<text text-anchor="start" x="399.25" y="-419.5" font-family="Helvetica,sans-Serif" font-size="10.00">domini.scrabble.Taulell.get</text>
<text text-anchor="middle" x="457" y="-407.5" font-family="Helvetica,sans-Serif" font-size="10.00">Anchors</text>
</a>
</g>
</g>
<!-- Node9&#45;&gt;Node12 -->
<g id="edge21_Node000009_Node000012" class="edge">
<title>Node9&#45;&gt;Node12</title>
<g id="a_edge21_Node000009_Node000012"><a xlink:title=" ">
<path fill="none" stroke="#63b8ff" d="M1178.78,-376.23C1167.08,-378.06 1155.11,-379.74 1143.75,-381 916.55,-406.28 644.98,-413.89 522.97,-416.11"/>
<polygon fill="#63b8ff" stroke="#63b8ff" points="1179.08,-379.72 1188.39,-374.67 1177.96,-372.81 1179.08,-379.72"/>
</a>
</g>
</g>
<!-- Node9&#45;&gt;Node13 -->
<g id="edge23_Node000009_Node000013" class="edge">
<title>Node9&#45;&gt;Node13</title>
<g id="a_edge23_Node000009_Node000013"><a xlink:title=" ">
<path fill="none" stroke="#63b8ff" d="M1242.17,-335.64C1227.11,-304.66 1201.44,-251.68 1179.75,-206 1163.54,-171.88 1172.31,-153.72 1143.75,-129 1140.01,-125.76 1135.85,-122.94 1131.45,-120.48"/>
<polygon fill="#63b8ff" stroke="#63b8ff" points="1238.84,-336.81 1246.36,-344.27 1245.14,-333.75 1238.84,-336.81"/>
</a>
</g>
</g>
<!-- Node14 -->
<g id="Node000014" class="node">
<title>Node14</title>
<g id="a_Node000014"><a xlink:href="classdomini_1_1scrabble_1_1_taulell.html#ac2c62e3051ec0a2452f74c4a39c15598" target="_top" xlink:title="Mètode per imprimir el taulell per pantalla.">
<polygon fill="white" stroke="#666666" points="1128.38,-372 991.62,-372 991.62,-352 1128.38,-352 1128.38,-372"/>
<text text-anchor="middle" x="1060" y="-358.5" font-family="Helvetica,sans-Serif" font-size="10.00">domini.scrabble.Taulell.print</text>
</a>
</g>
</g>
<!-- Node9&#45;&gt;Node14 -->
<g id="edge24_Node000009_Node000014" class="edge">
<title>Node9&#45;&gt;Node14</title>
<g id="a_edge24_Node000009_Node000014"><a xlink:title=" ">
<path fill="none" stroke="#63b8ff" d="M1178.59,-362C1162.09,-362 1144.76,-362 1128.62,-362"/>
<polygon fill="#63b8ff" stroke="#63b8ff" points="1178.35,-365.5 1188.35,-362 1178.35,-358.5 1178.35,-365.5"/>
</a>
</g>
</g>
<!-- Node15 -->
<g id="Node000015" class="node">
<title>Node15</title>
<g id="a_Node000015"><a xlink:href="classcontroladors_1_1_ctrl_partida.html#ab2365dd846883b62c30985d553d5e0da" target="_top" xlink:title="Comprova si una paraula col·locada toca alguna lletra existent al taulell.">
<polygon fill="white" stroke="#666666" points="1130.25,-220 989.75,-220 989.75,-188 1130.25,-188 1130.25,-220"/>
<text text-anchor="start" x="997.75" y="-206.5" font-family="Helvetica,sans-Serif" font-size="10.00">controladors.CtrlPartida.toca</text>
<text text-anchor="middle" x="1060" y="-194.5" font-family="Helvetica,sans-Serif" font-size="10.00">Lletra</text>
</a>
</g>
</g>
<!-- Node9&#45;&gt;Node15 -->
<g id="edge26_Node000009_Node000015" class="edge">
<title>Node9&#45;&gt;Node15</title>
<g id="a_edge26_Node000009_Node000015"><a xlink:title=" ">
<path fill="none" stroke="#63b8ff" d="M1238.81,-336.58C1219.4,-307.97 1184.36,-261.87 1143.75,-234 1135.94,-228.64 1127.06,-224.11 1118.08,-220.34"/>
<polygon fill="#63b8ff" stroke="#63b8ff" points="1235.72,-338.25 1244.17,-344.65 1241.55,-334.38 1235.72,-338.25"/>
</a>
</g>
</g>
<!-- Node9&#45;&gt;Node16 -->
<g id="edge28_Node000009_Node000016" class="edge">
<title>Node9&#45;&gt;Node16</title>
<g id="a_edge28_Node000009_Node000016"><a xlink:title=" ">
<path fill="none" stroke="#63b8ff" d="M1248.73,-389.41C1236.63,-436.09 1205.61,-531.01 1143.75,-583 1139.84,-586.28 1135.52,-589.13 1130.95,-591.61"/>
<polygon fill="#63b8ff" stroke="#63b8ff" points="1252.09,-390.39 1251.1,-379.84 1245.3,-388.7 1252.09,-390.39"/>
</a>
</g>
</g>
<!-- Node10&#45;&gt;Node11 -->
<g id="edge14_Node000010_Node000011" class="edge">
<title>Node10&#45;&gt;Node11</title>
<g id="a_edge14_Node000010_Node000011"><a xlink:title=" ">
<path fill="none" stroke="#63b8ff" d="M968,-558.91C957.44,-559.02 946.74,-559.12 936.39,-559.23"/>
<polygon fill="#63b8ff" stroke="#63b8ff" points="967.9,-562.41 977.87,-558.81 967.83,-555.41 967.9,-562.41"/>
</a>
</g>
</g>
<!-- Node11&#45;&gt;Node5 -->
<g id="edge15_Node000011_Node000005" class="edge">
<title>Node11&#45;&gt;Node5</title>
<g id="a_edge15_Node000011_Node000005"><a xlink:title=" ">
<path fill="none" stroke="#63b8ff" d="M768.23,-560C758.82,-560 749.32,-560 740.06,-560"/>
<polygon fill="#63b8ff" stroke="#63b8ff" points="768.11,-563.5 778.11,-560 768.11,-556.5 768.11,-563.5"/>
</a>
</g>
</g>
<!-- Node12&#45;&gt;Node7 -->
<g id="edge22_Node000012_Node000007" class="edge">
<title>Node12&#45;&gt;Node7</title>
<g id="a_edge22_Node000012_Node000007"><a xlink:title=" ">
<path fill="none" stroke="#63b8ff" d="M379.85,-431.66C363.83,-434.74 346.92,-437.99 330.86,-441.09"/>
<polygon fill="#63b8ff" stroke="#63b8ff" points="380.13,-435.17 389.29,-429.84 378.81,-428.29 380.13,-435.17"/>
</a>
</g>
</g>
<!-- Node15&#45;&gt;Node2 -->
<g id="edge27_Node000015_Node000002" class="edge">
<title>Node15&#45;&gt;Node2</title>
<g id="a_edge27_Node000015_Node000002"><a xlink:title=" ">
<path fill="none" stroke="#63b8ff" d="M978.07,-193.88C965.66,-192.33 952.85,-190.73 940.43,-189.18"/>
<polygon fill="#63b8ff" stroke="#63b8ff" points="977.47,-197.34 987.83,-195.1 978.34,-190.39 977.47,-197.34"/>
</a>
</g>
</g>
<!-- Node16&#45;&gt;Node5 -->
<g id="edge29_Node000016_Node000005" class="edge">
<title>Node16&#45;&gt;Node5</title>
<g id="a_edge29_Node000016_Node000005"><a xlink:title=" ">
<path fill="none" stroke="#63b8ff" d="M974.53,-604.16C918.03,-600.86 842.16,-594.99 775.75,-585 760.83,-582.76 744.95,-579.68 729.94,-576.46"/>
<polygon fill="#63b8ff" stroke="#63b8ff" points="974.22,-607.65 984.4,-604.72 974.62,-600.66 974.22,-607.65"/>
</a>
</g>
</g>
<!-- Node17&#45;&gt;Node2 -->
<g id="edge32_Node000017_Node000002" class="edge">
<title>Node17&#45;&gt;Node2</title>
<g id="a_edge32_Node000017_Node000002"><a xlink:title=" ">
<path fill="none" stroke="#63b8ff" d="M1168.23,-9.54C1110.74,-8.94 1035.31,-15.42 976.25,-46 924.04,-73.03 884.47,-133.76 867.74,-162.86"/>
<polygon fill="#63b8ff" stroke="#63b8ff" points="1167.91,-13.04 1177.97,-9.72 1168.04,-6.04 1167.91,-13.04"/>
</a>
</g>
</g>
</g>
</svg>

<g id="navigator" transform="translate(0 0)" fill="#404254">
  <rect fill="#f2f5e9" fill-opacity="0.5" stroke="#606060" stroke-width=".5" x="0" y="0" width="60" height="60"/>
  <use id="zoomplus" xlink:href="#zoomPlus" x="17" y="9" onmousedown="handleZoom(evt,'in')"/>
  <use id="zoomminus" xlink:href="#zoomMin" x="42" y="9" onmousedown="handleZoom(evt,'out')"/>
  <use id="reset" xlink:href="#resetDef" x="30" y="36" onmousedown="handleReset()"/>
   <use id="arrowup" xlink:href="#arrowUp" x="0" y="0" onmousedown="handlePan(0,-1)"/>
  <use id="arrowright" xlink:href="#arrowRight" x="0" y="0" onmousedown="handlePan(1,0)"/>
  <use id="arrowdown" xlink:href="#arrowDown" x="0" y="0" onmousedown="handlePan(0,1)"/>
  <use id="arrowleft" xlink:href="#arrowLeft" x="0" y="0" onmousedown="handlePan(-1,0)"/>
</g>
<svg viewBox="0 0 15 15" width="100%" height="30px" preserveAspectRatio="xMaxYMin meet">
 <g id="arrow_out" transform="scale(0.3 0.3)">
  <a xlink:href="classdomini_1_1scrabble_1_1_taulell_afc2d8dcd225b683aa00af9ce2075ad79_icgraph_org.svg" target="_base">
   <rect id="button" ry="5" rx="5" y="6" x="6" height="38" width="38"
        fill="#f2f5e9" fill-opacity="0.5" stroke="#606060" stroke-width="1.0"/>
   <path id="arrow"
     d="M 11.500037,31.436501 C 11.940474,20.09759 22.043105,11.32322 32.158766,21.979434 L 37.068811,17.246167 C 37.068811,17.246167 37.088388,32 37.088388,32 L 22.160133,31.978069 C 22.160133,31.978069 26.997745,27.140456 26.997745,27.140456 C 18.528582,18.264221 13.291696,25.230495 11.500037,31.436501 z"
     style="fill:#404040;"/>
  </a>
 </g>
</svg>

<style type='text/css'>
<![CDATA[
[data-mouse-over-selected='false'] { opacity: 0.7; }
[data-mouse-over-selected='true']  { opacity: 1.0; }
]]>
</style>
<script type="application/ecmascript"><![CDATA[
document.addEventListener('DOMContentLoaded', (event) => {
  highlightEdges();
  highlightAdjacentNodes();
});
]]></script>
</svg>
