<?xml version="1.0" encoding="UTF-8" standalone="no"?>
<!DOCTYPE svg PUBLIC "-//W3C//DTD SVG 1.1//EN"
 "http://www.w3.org/Graphics/SVG/1.1/DTD/svg11.dtd">
<!-- Generated by graphviz version 12.2.1 (20241206.2353)
 -->
<!-- Title: domini.scrabble.Partida.getFitxesActuals Pages: 1 -->
<svg width="317pt" height="90pt"
 viewBox="0.00 0.00 316.75 90.00" xmlns="http://www.w3.org/2000/svg" xmlns:xlink="http://www.w3.org/1999/xlink">
<g id="graph0" class="graph" transform="scale(1 1) rotate(0) translate(4 86)">
<title>domini.scrabble.Partida.getFitxesActuals</title>
<!-- Node1 -->
<g id="Node000001" class="node">
<title>Node1</title>
<g id="a_Node000001"><a xlink:title="Retorna la llista de fitxes actuals del jugador que té el torn.">
<polygon fill="#999999" stroke="#666666" points="134.5,-57 0,-57 0,-25 134.5,-25 134.5,-57"/>
<text text-anchor="start" x="8" y="-43.5" font-family="Helvetica,sans-Serif" font-size="10.00">domini.scrabble.Partida.get</text>
<text text-anchor="middle" x="67.25" y="-31.5" font-family="Helvetica,sans-Serif" font-size="10.00">FitxesActuals</text>
</a>
</g>
</g>
<!-- Node2 -->
<g id="Node000002" class="node">
<title>Node2</title>
<g id="a_Node000002"><a xlink:href="classdomini_1_1jugadors_1_1_jugador.html#acf9520ec234c3f2cc52e1b79b85a008e" target="_top" xlink:title="Retorna la llista amb les fitxes actuals del jugador.">
<polygon fill="white" stroke="#666666" points="308.75,-82 170.5,-82 170.5,-50 308.75,-50 308.75,-82"/>
<text text-anchor="start" x="178.5" y="-68.5" font-family="Helvetica,sans-Serif" font-size="10.00">domini.jugadors.Jugador.get</text>
<text text-anchor="middle" x="239.62" y="-56.5" font-family="Helvetica,sans-Serif" font-size="10.00">Fitxes_actuals</text>
</a>
</g>
</g>
<!-- Node1&#45;&gt;Node2 -->
<g id="edge1_Node000001_Node000002" class="edge">
<title>Node1&#45;&gt;Node2</title>
<g id="a_edge1_Node000001_Node000002"><a xlink:title=" ">
<path fill="none" stroke="#63b8ff" d="M134.61,-50.74C142.55,-51.9 150.72,-53.1 158.82,-54.29"/>
<polygon fill="#63b8ff" stroke="#63b8ff" points="158.3,-57.75 168.7,-55.74 159.32,-50.83 158.3,-57.75"/>
</a>
</g>
</g>
<!-- Node3 -->
<g id="Node000003" class="node">
<title>Node3</title>
<g id="a_Node000003"><a xlink:href="classdomini_1_1scrabble_1_1_partida.html#a97c82dc47217e0515691e5c2ffaa3626" target="_top" xlink:title="Obté el jugador que està jugant el torn.">
<polygon fill="white" stroke="#666666" points="306.88,-32 172.38,-32 172.38,0 306.88,0 306.88,-32"/>
<text text-anchor="start" x="180.38" y="-18.5" font-family="Helvetica,sans-Serif" font-size="10.00">domini.scrabble.Partida.get</text>
<text text-anchor="middle" x="239.62" y="-6.5" font-family="Helvetica,sans-Serif" font-size="10.00">JugadorActual</text>
</a>
</g>
</g>
<!-- Node1&#45;&gt;Node3 -->
<g id="edge2_Node000001_Node000003" class="edge">
<title>Node1&#45;&gt;Node3</title>
<g id="a_edge2_Node000001_Node000003"><a xlink:title=" ">
<path fill="none" stroke="#63b8ff" d="M134.61,-31.26C143.12,-30.01 151.89,-28.73 160.57,-27.45"/>
<polygon fill="#63b8ff" stroke="#63b8ff" points="161,-30.93 170.39,-26.01 159.99,-24 161,-30.93"/>
</a>
</g>
</g>
</g>
</svg>
