<?xml version="1.0" encoding="UTF-8" standalone="no"?>
<!DOCTYPE svg PUBLIC "-//W3C//DTD SVG 1.1//EN"
 "http://www.w3.org/Graphics/SVG/1.1/DTD/svg11.dtd">
<!-- Generated by graphviz version 12.2.1 (20241206.2353)
 -->
<!-- Title: interficie.VistaCanviTorn.VistaCanviTorn Pages: 1 -->
<svg width="511pt" height="80pt"
 viewBox="0.00 0.00 510.50 80.00" xmlns="http://www.w3.org/2000/svg" xmlns:xlink="http://www.w3.org/1999/xlink">
<g id="graph0" class="graph" transform="scale(1 1) rotate(0) translate(4 76)">
<title>interficie.VistaCanviTorn.VistaCanviTorn</title>
<!-- Node1 -->
<g id="Node000001" class="node">
<title>Node1</title>
<g id="a_Node000001"><a xlink:title="Constructor de la classe VistaCanviTorn.">
<polygon fill="#999999" stroke="#666666" points="125.5,-54 0,-54 0,-22 125.5,-22 125.5,-54"/>
<text text-anchor="start" x="8" y="-40.5" font-family="Helvetica,sans-Serif" font-size="10.00">interficie.VistaCanviTorn.</text>
<text text-anchor="middle" x="62.75" y="-28.5" font-family="Helvetica,sans-Serif" font-size="10.00">VistaCanviTorn</text>
</a>
</g>
</g>
<!-- Node1&#45;&gt;Node1 -->
<g id="edge4_Node000001_Node000001" class="edge">
<title>Node1&#45;&gt;Node1</title>
<g id="a_edge4_Node000001_Node000001"><a xlink:title=" ">
<path fill="none" stroke="#63b8ff" d="M31.11,-54.44C25.2,-63.58 35.75,-72 62.75,-72 77.52,-72 87.36,-69.48 92.29,-65.71"/>
<polygon fill="#63b8ff" stroke="#63b8ff" points="95.72,-66.4 94.12,-55.93 88.84,-65.12 95.72,-66.4"/>
</a>
</g>
</g>
<!-- Node2 -->
<g id="Node000002" class="node">
<title>Node2</title>
<g id="a_Node000002"><a xlink:href="classinterficie_1_1utils_1_1_tools.html#aad14ef36a2a433a18d49c46a83531892" target="_top" xlink:title="Actualitza la imatge d&#39;un JLabel redimensionant&#45;la per adaptar&#45;se a les mides màximes indicades mante...">
<polygon fill="white" stroke="#666666" points="502.5,-54 354.5,-54 354.5,-22 502.5,-22 502.5,-54"/>
<text text-anchor="start" x="362.5" y="-40.5" font-family="Helvetica,sans-Serif" font-size="10.00">interficie.utils.Tools.actualitzar</text>
<text text-anchor="middle" x="428.5" y="-28.5" font-family="Helvetica,sans-Serif" font-size="10.00">Imatge</text>
</a>
</g>
</g>
<!-- Node1&#45;&gt;Node2 -->
<g id="edge1_Node000001_Node000002" class="edge">
<title>Node1&#45;&gt;Node2</title>
<g id="a_edge1_Node000001_Node000002"><a xlink:title=" ">
<path fill="none" stroke="#63b8ff" d="M125.8,-40.19C137.65,-40.53 149.96,-40.82 161.5,-41 231.27,-42.07 248.73,-41.96 318.5,-41 326.44,-40.89 334.7,-40.74 342.97,-40.56"/>
<polygon fill="#63b8ff" stroke="#63b8ff" points="342.79,-44.06 352.7,-40.33 342.62,-37.06 342.79,-44.06"/>
</a>
</g>
</g>
<!-- Node3 -->
<g id="Node000003" class="node">
<title>Node3</title>
<g id="a_Node000003"><a xlink:href="classinterficie_1_1_vista_canvi_torn.html#a7a021fb53d7a4494561ea26609e3089c" target="_top" xlink:title="Escala i posiciona els components segons la mida actual.">
<polygon fill="white" stroke="#666666" points="318.5,-32 161.5,-32 161.5,0 318.5,0 318.5,-32"/>
<text text-anchor="start" x="169.5" y="-18.5" font-family="Helvetica,sans-Serif" font-size="10.00">interficie.VistaCanviTorn.escalar</text>
<text text-anchor="middle" x="240" y="-6.5" font-family="Helvetica,sans-Serif" font-size="10.00">Components</text>
</a>
</g>
</g>
<!-- Node1&#45;&gt;Node3 -->
<g id="edge2_Node000001_Node000003" class="edge">
<title>Node1&#45;&gt;Node3</title>
<g id="a_edge2_Node000001_Node000003"><a xlink:title=" ">
<path fill="none" stroke="#63b8ff" d="M125.54,-30.24C133.46,-29.25 141.7,-28.21 149.95,-27.18"/>
<polygon fill="#63b8ff" stroke="#63b8ff" points="150.2,-30.67 159.69,-25.96 149.33,-23.73 150.2,-30.67"/>
</a>
</g>
</g>
<!-- Node3&#45;&gt;Node2 -->
<g id="edge3_Node000003_Node000002" class="edge">
<title>Node3&#45;&gt;Node2</title>
<g id="a_edge3_Node000003_Node000002"><a xlink:title=" ">
<path fill="none" stroke="#63b8ff" d="M318.74,-25.17C326.69,-26.11 334.79,-27.06 342.81,-28.01"/>
<polygon fill="#63b8ff" stroke="#63b8ff" points="342.22,-31.46 352.56,-29.16 343.04,-24.51 342.22,-31.46"/>
</a>
</g>
</g>
</g>
</svg>
