<?xml version="1.0" encoding="UTF-8" standalone="no"?>
<!DOCTYPE svg PUBLIC "-//W3C//DTD SVG 1.1//EN"
 "http://www.w3.org/Graphics/SVG/1.1/DTD/svg11.dtd">
<!-- Generated by graphviz version 12.2.1 (20241206.2353)
 -->
<!-- Title: interficie.MainGUI.main Pages: 1 -->
<svg width="1265pt" height="109pt"
 viewBox="0.00 0.00 1265.25 109.00" xmlns="http://www.w3.org/2000/svg" xmlns:xlink="http://www.w3.org/1999/xlink">
<g id="graph0" class="graph" transform="scale(1 1) rotate(0) translate(4 105)">
<title>interficie.MainGUI.main</title>
<!-- Node1 -->
<g id="Node000001" class="node">
<title>Node1</title>
<g id="a_Node000001"><a xlink:title="Punt d&#39;entrada principal del programa.">
<polygon fill="#999999" stroke="#666666" points="118.75,-73 0,-73 0,-53 118.75,-53 118.75,-73"/>
<text text-anchor="middle" x="59.38" y="-59.5" font-family="Helvetica,sans-Serif" font-size="10.00">interficie.MainGUI.main</text>
</a>
</g>
</g>
<!-- Node2 -->
<g id="Node000002" class="node">
<title>Node2</title>
<g id="a_Node000002"><a xlink:href="classcontroladors_1_1_ctrl_presentacio.html#a850fb21c951665c56da17c84114456ae" target="_top" xlink:title="Retorna la instancia del controlador de domini.">
<polygon fill="white" stroke="#666666" points="327.12,-101 170.88,-101 170.88,-69 327.12,-69 327.12,-101"/>
<text text-anchor="start" x="178.88" y="-87.5" font-family="Helvetica,sans-Serif" font-size="10.00">controladors.CtrlPresentacio.get</text>
<text text-anchor="middle" x="249" y="-75.5" font-family="Helvetica,sans-Serif" font-size="10.00">Instancia</text>
</a>
</g>
</g>
<!-- Node1&#45;&gt;Node2 -->
<g id="edge1_Node000001_Node000002" class="edge">
<title>Node1&#45;&gt;Node2</title>
<g id="a_edge1_Node000001_Node000002"><a xlink:title=" ">
<path fill="none" stroke="#63b8ff" d="M119.23,-69.9C131.9,-71.39 145.58,-72.99 159.11,-74.58"/>
<polygon fill="#63b8ff" stroke="#63b8ff" points="158.58,-78.04 168.92,-75.73 159.4,-71.09 158.58,-78.04"/>
</a>
</g>
</g>
<!-- Node3 -->
<g id="Node000003" class="node">
<title>Node3</title>
<g id="a_Node000003"><a xlink:href="classcontroladors_1_1_ctrl_presentacio.html#ae660314487eb1c9764a52ac98b431108" target="_top" xlink:title="Inicialitza l&#39;aplicació creant les instàncies del controlador de domini i de partida,...">
<polygon fill="white" stroke="#666666" points="343.25,-51 154.75,-51 154.75,-31 343.25,-31 343.25,-51"/>
<text text-anchor="middle" x="249" y="-37.5" font-family="Helvetica,sans-Serif" font-size="10.00">controladors.CtrlPresentacio.launchApp</text>
</a>
</g>
</g>
<!-- Node1&#45;&gt;Node3 -->
<g id="edge2_Node000001_Node000003" class="edge">
<title>Node1&#45;&gt;Node3</title>
<g id="a_edge2_Node000001_Node000003"><a xlink:title=" ">
<path fill="none" stroke="#63b8ff" d="M119.23,-56.1C128.26,-55.04 137.81,-53.92 147.44,-52.79"/>
<polygon fill="#63b8ff" stroke="#63b8ff" points="147.75,-56.28 157.27,-51.64 146.93,-49.33 147.75,-56.28"/>
</a>
</g>
</g>
<!-- Node4 -->
<g id="Node000004" class="node">
<title>Node4</title>
<g id="a_Node000004"><a xlink:href="classcontroladors_1_1_ctrl_domini.html#ab9f3147d91bf87174cee2fbad80eebd0" target="_top" xlink:title="Retorna la instancia del controlador de domini.">
<polygon fill="white" stroke="#666666" points="514.5,-82 379.25,-82 379.25,-50 514.5,-50 514.5,-82"/>
<text text-anchor="start" x="387.25" y="-68.5" font-family="Helvetica,sans-Serif" font-size="10.00">controladors.CtrlDomini.get</text>
<text text-anchor="middle" x="446.88" y="-56.5" font-family="Helvetica,sans-Serif" font-size="10.00">Instancia</text>
</a>
</g>
</g>
<!-- Node3&#45;&gt;Node4 -->
<g id="edge3_Node000003_Node000004" class="edge">
<title>Node3&#45;&gt;Node4</title>
<g id="a_edge3_Node000003_Node000004"><a xlink:title=" ">
<path fill="none" stroke="#63b8ff" d="M332.22,-51.49C344.04,-53 356.17,-54.55 367.91,-56.05"/>
<polygon fill="#63b8ff" stroke="#63b8ff" points="367.15,-59.48 377.51,-57.27 368.04,-52.54 367.15,-59.48"/>
</a>
</g>
</g>
<!-- Node9 -->
<g id="Node000009" class="node">
<title>Node9</title>
<g id="a_Node000009"><a xlink:href="classcontroladors_1_1_ctrl_partida.html#acc3f8d0c1620b0c1befc2c1a550a23a8" target="_top" xlink:title="Obté la instància única del controlador de partida.">
<polygon fill="white" stroke="#666666" points="514.5,-32 379.25,-32 379.25,0 514.5,0 514.5,-32"/>
<text text-anchor="start" x="387.25" y="-18.5" font-family="Helvetica,sans-Serif" font-size="10.00">controladors.CtrlPartida.get</text>
<text text-anchor="middle" x="446.88" y="-6.5" font-family="Helvetica,sans-Serif" font-size="10.00">Instancia</text>
</a>
</g>
</g>
<!-- Node3&#45;&gt;Node9 -->
<g id="edge8_Node000003_Node000009" class="edge">
<title>Node3&#45;&gt;Node9</title>
<g id="a_edge8_Node000003_Node000009"><a xlink:title=" ">
<path fill="none" stroke="#63b8ff" d="M332.22,-30.51C344.04,-29 356.17,-27.45 367.91,-25.95"/>
<polygon fill="#63b8ff" stroke="#63b8ff" points="368.04,-29.46 377.51,-24.73 367.15,-22.52 368.04,-29.46"/>
</a>
</g>
</g>
<!-- Node5 -->
<g id="Node000005" class="node">
<title>Node5</title>
<g id="a_Node000005"><a xlink:href="classcontroladors_1_1_ctrl_domini.html#a7648cc0064b988072993a90846e84d38" target="_top" xlink:title="Constructor de la classe Ctrl_Domini.">
<polygon fill="white" stroke="#666666" points="672.25,-82 550.5,-82 550.5,-50 672.25,-50 672.25,-82"/>
<text text-anchor="start" x="558.5" y="-68.5" font-family="Helvetica,sans-Serif" font-size="10.00">controladors.CtrlDomini.</text>
<text text-anchor="middle" x="611.38" y="-56.5" font-family="Helvetica,sans-Serif" font-size="10.00">CtrlDomini</text>
</a>
</g>
</g>
<!-- Node4&#45;&gt;Node5 -->
<g id="edge4_Node000004_Node000005" class="edge">
<title>Node4&#45;&gt;Node5</title>
<g id="a_edge4_Node000004_Node000005"><a xlink:title=" ">
<path fill="none" stroke="#63b8ff" d="M514.91,-66C522.72,-66 530.71,-66 538.59,-66"/>
<polygon fill="#63b8ff" stroke="#63b8ff" points="538.49,-69.5 548.49,-66 538.49,-62.5 538.49,-69.5"/>
</a>
</g>
</g>
<!-- Node6 -->
<g id="Node000006" class="node">
<title>Node6</title>
<g id="a_Node000006"><a xlink:href="classcontroladors_1_1_ctrl_domini.html#ab06c2680b60a9e0864d8470f4888e8e9" target="_top" xlink:title="Carrega els usuaris cada cop que executem el joc.">
<polygon fill="white" stroke="#666666" points="873.5,-82 708.25,-82 708.25,-50 873.5,-50 873.5,-82"/>
<text text-anchor="start" x="716.25" y="-68.5" font-family="Helvetica,sans-Serif" font-size="10.00">controladors.CtrlDomini.inicialitzar</text>
<text text-anchor="middle" x="790.88" y="-56.5" font-family="Helvetica,sans-Serif" font-size="10.00">Usuaris</text>
</a>
</g>
</g>
<!-- Node5&#45;&gt;Node6 -->
<g id="edge5_Node000005_Node000006" class="edge">
<title>Node5&#45;&gt;Node6</title>
<g id="a_edge5_Node000005_Node000006"><a xlink:title=" ">
<path fill="none" stroke="#63b8ff" d="M672.47,-66C680.19,-66 688.24,-66 696.34,-66"/>
<polygon fill="#63b8ff" stroke="#63b8ff" points="696.29,-69.5 706.29,-66 696.29,-62.5 696.29,-69.5"/>
</a>
</g>
</g>
<!-- Node7 -->
<g id="Node000007" class="node">
<title>Node7</title>
<g id="a_Node000007"><a xlink:href="classcontroladors_1_1_ctrl_persistencia.html#a06c847181ea13b0c7dde8a61b47f0a0b" target="_top" xlink:title="Carrega els usuaris guardats a la capa de persistència.">
<polygon fill="white" stroke="#666666" points="1089.75,-82 909.5,-82 909.5,-50 1089.75,-50 1089.75,-82"/>
<text text-anchor="start" x="917.5" y="-68.5" font-family="Helvetica,sans-Serif" font-size="10.00">controladors.CtrlPersistencia.carregar</text>
<text text-anchor="middle" x="999.62" y="-56.5" font-family="Helvetica,sans-Serif" font-size="10.00">UsuarisRegistrats</text>
</a>
</g>
</g>
<!-- Node6&#45;&gt;Node7 -->
<g id="edge6_Node000006_Node000007" class="edge">
<title>Node6&#45;&gt;Node7</title>
<g id="a_edge6_Node000006_Node000007"><a xlink:title=" ">
<path fill="none" stroke="#63b8ff" d="M873.89,-66C881.78,-66 889.84,-66 897.89,-66"/>
<polygon fill="#63b8ff" stroke="#63b8ff" points="897.72,-69.5 907.72,-66 897.72,-62.5 897.72,-69.5"/>
</a>
</g>
</g>
<!-- Node8 -->
<g id="Node000008" class="node">
<title>Node8</title>
<g id="a_Node000008"><a xlink:href="classpersistencia_1_1_usuari_i_o.html#a29677f40d007ca66a5ec1b0926e16da4" target="_top" xlink:title="Carrega un usuari des d&#39;un fitxer JSON.">
<polygon fill="white" stroke="#666666" points="1257.25,-82 1125.75,-82 1125.75,-50 1257.25,-50 1257.25,-82"/>
<text text-anchor="start" x="1133.75" y="-68.5" font-family="Helvetica,sans-Serif" font-size="10.00">persistencia.UsuariIO.load</text>
<text text-anchor="middle" x="1191.5" y="-56.5" font-family="Helvetica,sans-Serif" font-size="10.00">Usuari</text>
</a>
</g>
</g>
<!-- Node7&#45;&gt;Node8 -->
<g id="edge7_Node000007_Node000008" class="edge">
<title>Node7&#45;&gt;Node8</title>
<g id="a_edge7_Node000007_Node000008"><a xlink:title=" ">
<path fill="none" stroke="#63b8ff" d="M1090,-66C1098.02,-66 1106.08,-66 1113.97,-66"/>
<polygon fill="#63b8ff" stroke="#63b8ff" points="1113.87,-69.5 1123.87,-66 1113.87,-62.5 1113.87,-69.5"/>
</a>
</g>
</g>
<!-- Node10 -->
<g id="Node000010" class="node">
<title>Node10</title>
<g id="a_Node000010"><a xlink:href="classcontroladors_1_1_ctrl_partida.html#a8f5583dd87ab70723d68c87c1fefb5f4" target="_top" xlink:title="Constructor del controlador de la partida.">
<polygon fill="white" stroke="#666666" points="672.25,-32 550.5,-32 550.5,0 672.25,0 672.25,-32"/>
<text text-anchor="start" x="558.5" y="-18.5" font-family="Helvetica,sans-Serif" font-size="10.00">controladors.CtrlPartida.</text>
<text text-anchor="middle" x="611.38" y="-6.5" font-family="Helvetica,sans-Serif" font-size="10.00">CtrlPartida</text>
</a>
</g>
</g>
<!-- Node9&#45;&gt;Node10 -->
<g id="edge9_Node000009_Node000010" class="edge">
<title>Node9&#45;&gt;Node10</title>
<g id="a_edge9_Node000009_Node000010"><a xlink:title=" ">
<path fill="none" stroke="#63b8ff" d="M514.91,-16C522.72,-16 530.71,-16 538.59,-16"/>
<polygon fill="#63b8ff" stroke="#63b8ff" points="538.49,-19.5 548.49,-16 538.49,-12.5 538.49,-19.5"/>
</a>
</g>
</g>
</g>
</svg>
