<?xml version="1.0" encoding="UTF-8" standalone="no"?>
<!DOCTYPE svg PUBLIC "-//W3C//DTD SVG 1.1//EN"
 "http://www.w3.org/Graphics/SVG/1.1/DTD/svg11.dtd">
<!-- Generated by graphviz version 12.2.1 (20241206.2353)
 -->
<!-- Title: domini.scrabble.Taulell.transpose Pages: 1 -->
<svg width="336pt" height="90pt"
 viewBox="0.00 0.00 336.25 90.00" xmlns="http://www.w3.org/2000/svg" xmlns:xlink="http://www.w3.org/1999/xlink">
<g id="graph0" class="graph" transform="scale(1 1) rotate(0) translate(4 86)">
<title>domini.scrabble.Taulell.transpose</title>
<!-- Node1 -->
<g id="Node000001" class="node">
<title>Node1</title>
<g id="a_Node000001"><a xlink:title="Retorna la transposició del taulell actual.">
<polygon fill="#999999" stroke="#666666" points="160.75,-51 0,-51 0,-31 160.75,-31 160.75,-51"/>
<text text-anchor="middle" x="80.38" y="-37.5" font-family="Helvetica,sans-Serif" font-size="10.00">domini.scrabble.Taulell.transpose</text>
</a>
</g>
</g>
<!-- Node2 -->
<g id="Node000002" class="node">
<title>Node2</title>
<g id="a_Node000002"><a xlink:href="classdomini_1_1scrabble_1_1_taulell.html#a10eef6a9fe59fa18f5b2d6d311c6356c" target="_top" xlink:title="Retorna la casella de la posició indicada.">
<polygon fill="white" stroke="#666666" points="328.25,-82 196.75,-82 196.75,-50 328.25,-50 328.25,-82"/>
<text text-anchor="start" x="204.75" y="-68.5" font-family="Helvetica,sans-Serif" font-size="10.00">domini.scrabble.Taulell.set</text>
<text text-anchor="middle" x="262.5" y="-56.5" font-family="Helvetica,sans-Serif" font-size="10.00">Casella</text>
</a>
</g>
</g>
<!-- Node1&#45;&gt;Node2 -->
<g id="edge1_Node000001_Node000002" class="edge">
<title>Node1&#45;&gt;Node2</title>
<g id="a_edge1_Node000001_Node000002"><a xlink:title=" ">
<path fill="none" stroke="#63b8ff" d="M156.98,-51.49C166.29,-52.79 175.81,-54.11 185.13,-55.4"/>
<polygon fill="#63b8ff" stroke="#63b8ff" points="184.49,-58.84 194.87,-56.75 185.45,-51.91 184.49,-58.84"/>
</a>
</g>
</g>
<!-- Node3 -->
<g id="Node000003" class="node">
<title>Node3</title>
<g id="a_Node000003"><a xlink:href="classdomini_1_1scrabble_1_1_taulell.html#a2f2deb612c9af047decb87cc0d7e85d1" target="_top" xlink:title="Constructora de la classe Taulell.">
<polygon fill="white" stroke="#666666" points="321.5,-32 203.5,-32 203.5,0 321.5,0 321.5,-32"/>
<text text-anchor="start" x="211.5" y="-18.5" font-family="Helvetica,sans-Serif" font-size="10.00">domini.scrabble.Taulell.</text>
<text text-anchor="middle" x="262.5" y="-6.5" font-family="Helvetica,sans-Serif" font-size="10.00">Taulell</text>
</a>
</g>
</g>
<!-- Node1&#45;&gt;Node3 -->
<g id="edge2_Node000001_Node000003" class="edge">
<title>Node1&#45;&gt;Node3</title>
<g id="a_edge2_Node000001_Node000003"><a xlink:title=" ">
<path fill="none" stroke="#63b8ff" d="M156.98,-30.51C168.53,-28.9 180.41,-27.25 191.83,-25.67"/>
<polygon fill="#63b8ff" stroke="#63b8ff" points="192.14,-29.16 201.57,-24.32 191.18,-22.23 192.14,-29.16"/>
</a>
</g>
</g>
</g>
</svg>
