<?xml version="1.0" encoding="UTF-8" standalone="no"?>
<!DOCTYPE svg PUBLIC "-//W3C//DTD SVG 1.1//EN"
 "http://www.w3.org/Graphics/SVG/1.1/DTD/svg11.dtd">
<!-- Generated by graphviz version 12.2.1 (20241206.2353)
 -->
<!-- Title: drivers.Driver.canviarFitxes Pages: 1 -->
<svg width="313pt" height="116pt"
 viewBox="0.00 0.00 313.00 116.00" xmlns="http://www.w3.org/2000/svg" xmlns:xlink="http://www.w3.org/1999/xlink">
<g id="graph0" class="graph" transform="scale(1 1) rotate(0) translate(4 112)">
<title>drivers.Driver.canviarFitxes</title>
<!-- Node1 -->
<g id="Node000001" class="node">
<title>Node1</title>
<g id="a_Node000001"><a xlink:title="Canvia fitxes del jugador actual.">
<polygon fill="#999999" stroke="#666666" points="136,-64 0,-64 0,-44 136,-44 136,-64"/>
<text text-anchor="middle" x="68" y="-50.5" font-family="Helvetica,sans-Serif" font-size="10.00">drivers.Driver.canviarFitxes</text>
</a>
</g>
</g>
<!-- Node2 -->
<g id="Node000002" class="node">
<title>Node2</title>
<g id="a_Node000002"><a xlink:href="classdrivers_1_1_driver.html#a8bc044826a5994373681c23cc5555bce" target="_top" xlink:title="Neteja la pantalla del terminal.">
<polygon fill="white" stroke="#666666" points="303.12,-108 173.88,-108 173.88,-88 303.12,-88 303.12,-108"/>
<text text-anchor="middle" x="238.5" y="-94.5" font-family="Helvetica,sans-Serif" font-size="10.00">drivers.Driver.clearScreen</text>
</a>
</g>
</g>
<!-- Node1&#45;&gt;Node2 -->
<g id="edge1_Node000001_Node000002" class="edge">
<title>Node1&#45;&gt;Node2</title>
<g id="a_edge1_Node000001_Node000002"><a xlink:title=" ">
<path fill="none" stroke="#63b8ff" d="M108.93,-64.43C132.14,-70.49 161.62,-78.19 186.5,-84.68"/>
<polygon fill="#63b8ff" stroke="#63b8ff" points="185.54,-88.05 196.1,-87.19 187.31,-81.28 185.54,-88.05"/>
</a>
</g>
</g>
<!-- Node3 -->
<g id="Node000003" class="node">
<title>Node3</title>
<g id="a_Node000003"><a xlink:href="classdrivers_1_1_driver.html#a922b257b3c0425d1b3a89e6202abb26a" target="_top" xlink:title="Identifica els caràcters del paràmetre d&#39;entrada que hauríen de correspondre&#39;s amb &#39;Ç&#39; i els substitu...">
<polygon fill="white" stroke="#666666" points="298.25,-70 178.75,-70 178.75,-38 298.25,-38 298.25,-70"/>
<text text-anchor="start" x="186.75" y="-56.5" font-family="Helvetica,sans-Serif" font-size="10.00">drivers.Driver.identificar</text>
<text text-anchor="middle" x="238.5" y="-44.5" font-family="Helvetica,sans-Serif" font-size="10.00">CTrenada</text>
</a>
</g>
</g>
<!-- Node1&#45;&gt;Node3 -->
<g id="edge2_Node000001_Node000003" class="edge">
<title>Node1&#45;&gt;Node3</title>
<g id="a_edge2_Node000001_Node000003"><a xlink:title=" ">
<path fill="none" stroke="#63b8ff" d="M136.08,-54C146.22,-54 156.7,-54 166.9,-54"/>
<polygon fill="#63b8ff" stroke="#63b8ff" points="166.76,-57.5 176.76,-54 166.76,-50.5 166.76,-57.5"/>
</a>
</g>
</g>
<!-- Node4 -->
<g id="Node000004" class="node">
<title>Node4</title>
<g id="a_Node000004"><a xlink:href="classdrivers_1_1_driver.html#a5786bc8fc6091766d21fc7e775c38b45" target="_top" xlink:title="Donada una seqüència de caràcters identifica qualsevol submot &quot;LxL&quot; on x no pertany al conjunt {A&#45;Z}...">
<polygon fill="white" stroke="#666666" points="305,-20 172,-20 172,0 305,0 305,-20"/>
<text text-anchor="middle" x="238.5" y="-6.5" font-family="Helvetica,sans-Serif" font-size="10.00">drivers.Driver.substituirLxL</text>
</a>
</g>
</g>
<!-- Node1&#45;&gt;Node4 -->
<g id="edge3_Node000001_Node000004" class="edge">
<title>Node1&#45;&gt;Node4</title>
<g id="a_edge3_Node000001_Node000004"><a xlink:title=" ">
<path fill="none" stroke="#63b8ff" d="M108.93,-43.57C132.14,-37.51 161.62,-29.81 186.5,-23.32"/>
<polygon fill="#63b8ff" stroke="#63b8ff" points="187.31,-26.72 196.1,-20.81 185.54,-19.95 187.31,-26.72"/>
</a>
</g>
</g>
</g>
</svg>
