<?xml version="1.0" encoding="UTF-8" standalone="no"?>
<!DOCTYPE svg PUBLIC "-//W3C//DTD SVG 1.1//EN"
 "http://www.w3.org/Graphics/SVG/1.1/DTD/svg11.dtd">
<!-- Generated by graphviz version 12.2.1 (20241206.2353)
 -->
<!-- Title: interficie.VistaConsultarRanking.carregarRanking Pages: 1 -->
<svg width="1273pt" height="182pt"
 viewBox="0.00 0.00 1272.75 182.00" xmlns="http://www.w3.org/2000/svg" xmlns:xlink="http://www.w3.org/1999/xlink">
<g id="graph0" class="graph" transform="scale(1 1) rotate(0) translate(4 178)">
<title>interficie.VistaConsultarRanking.carregarRanking</title>
<!-- Node1 -->
<g id="Node000001" class="node">
<title>Node1</title>
<g id="a_Node000001"><a xlink:title="Carrega i mostra el rànquing a partir del límit indicat.">
<polygon fill="#999999" stroke="#666666" points="126.25,-65 0,-65 0,-33 126.25,-33 126.25,-65"/>
<text text-anchor="start" x="8" y="-51.5" font-family="Helvetica,sans-Serif" font-size="10.00">interficie.VistaConsultar</text>
<text text-anchor="middle" x="63.12" y="-39.5" font-family="Helvetica,sans-Serif" font-size="10.00">Ranking.carregarRanking</text>
</a>
</g>
</g>
<!-- Node2 -->
<g id="Node000002" class="node">
<title>Node2</title>
<g id="a_Node000002"><a xlink:href="$classcontroladors_1_1_ctrl_presentacio.html#acaf9b6cf3f40d88428b5d77b735e8856" xlink:title="Obté el rànquing global d&#39;avatares limitat a un cert nombre.">
<polygon fill="white" stroke="#666666" points="318.5,-133 162.25,-133 162.25,-101 318.5,-101 318.5,-133"/>
<text text-anchor="start" x="170.25" y="-119.5" font-family="Helvetica,sans-Serif" font-size="10.00">controladors.CtrlPresentacio.get</text>
<text text-anchor="middle" x="240.38" y="-107.5" font-family="Helvetica,sans-Serif" font-size="10.00">Ranking</text>
</a>
</g>
</g>
<!-- Node1&#45;&gt;Node2 -->
<g id="edge1_Node000001_Node000002" class="edge">
<title>Node1&#45;&gt;Node2</title>
<g id="a_edge1_Node000001_Node000002"><a xlink:title=" ">
<path fill="none" stroke="#63b8ff" d="M99.2,-65.38C117.76,-73.79 141.04,-83.94 162.25,-92 166.62,-93.66 171.15,-95.31 175.73,-96.92"/>
<polygon fill="#63b8ff" stroke="#63b8ff" points="174.42,-100.17 185.01,-100.12 176.7,-93.56 174.42,-100.17"/>
</a>
</g>
</g>
<!-- Node9 -->
<g id="Node000009" class="node">
<title>Node9</title>
<g id="a_Node000009"><a xlink:href="$classinterficie_1_1_vista_consultar_ranking.html#a86d8edbe84e816fcf7c14b51a8d2e214" xlink:title="Constructor de la classe.">
<polygon fill="white" stroke="#666666" points="318.12,-65 162.62,-65 162.62,-33 318.12,-33 318.12,-65"/>
<text text-anchor="start" x="170.62" y="-51.5" font-family="Helvetica,sans-Serif" font-size="10.00">interficie.VistaConsultar</text>
<text text-anchor="middle" x="240.38" y="-39.5" font-family="Helvetica,sans-Serif" font-size="10.00">Ranking.VistaConsultarRanking</text>
</a>
</g>
</g>
<!-- Node1&#45;&gt;Node9 -->
<g id="edge8_Node000001_Node000009" class="edge">
<title>Node1&#45;&gt;Node9</title>
<g id="a_edge8_Node000001_Node000009"><a xlink:title=" ">
<path fill="none" stroke="#63b8ff" d="M126.41,-42.51C134.39,-42.34 142.67,-42.26 150.97,-42.25"/>
<polygon fill="#63b8ff" stroke="#63b8ff" points="150.74,-45.75 160.75,-42.29 150.76,-38.75 150.74,-45.75"/>
</a>
</g>
</g>
<!-- Node3 -->
<g id="Node000003" class="node">
<title>Node3</title>
<g id="a_Node000003"><a xlink:href="$classcontroladors_1_1_ctrl_domini.html#ab9f3147d91bf87174cee2fbad80eebd0" xlink:title="Retorna la instancia del controlador de domini.">
<polygon fill="white" stroke="#666666" points="505.88,-174 370.62,-174 370.62,-142 505.88,-142 505.88,-174"/>
<text text-anchor="start" x="378.62" y="-160.5" font-family="Helvetica,sans-Serif" font-size="10.00">controladors.CtrlDomini.get</text>
<text text-anchor="middle" x="438.25" y="-148.5" font-family="Helvetica,sans-Serif" font-size="10.00">Instancia</text>
</a>
</g>
</g>
<!-- Node2&#45;&gt;Node3 -->
<g id="edge2_Node000002_Node000003" class="edge">
<title>Node2&#45;&gt;Node3</title>
<g id="a_edge2_Node000002_Node000003"><a xlink:title=" ">
<path fill="none" stroke="#63b8ff" d="M318.79,-133.2C332.07,-135.98 345.88,-138.88 359.18,-141.66"/>
<polygon fill="#63b8ff" stroke="#63b8ff" points="358.23,-145.03 368.73,-143.66 359.66,-138.18 358.23,-145.03"/>
</a>
</g>
</g>
<!-- Node8 -->
<g id="Node000008" class="node">
<title>Node8</title>
<g id="a_Node000008"><a xlink:href="$classcontroladors_1_1_ctrl_domini.html#af193b59e8b449c485c7a1b299f5f250e" xlink:title="Obté el ranking del numero de jugadors indicat.">
<polygon fill="white" stroke="#666666" points="505.88,-124 370.62,-124 370.62,-92 505.88,-92 505.88,-124"/>
<text text-anchor="start" x="378.62" y="-110.5" font-family="Helvetica,sans-Serif" font-size="10.00">controladors.CtrlDomini.get</text>
<text text-anchor="middle" x="438.25" y="-98.5" font-family="Helvetica,sans-Serif" font-size="10.00">RankingGlobalLimitat</text>
</a>
</g>
</g>
<!-- Node2&#45;&gt;Node8 -->
<g id="edge7_Node000002_Node000008" class="edge">
<title>Node2&#45;&gt;Node8</title>
<g id="a_edge7_Node000002_Node000008"><a xlink:title=" ">
<path fill="none" stroke="#63b8ff" d="M318.79,-113.44C331.94,-112.84 345.61,-112.21 358.78,-111.61"/>
<polygon fill="#63b8ff" stroke="#63b8ff" points="358.87,-115.11 368.7,-111.15 358.55,-108.11 358.87,-115.11"/>
</a>
</g>
</g>
<!-- Node4 -->
<g id="Node000004" class="node">
<title>Node4</title>
<g id="a_Node000004"><a xlink:href="$classcontroladors_1_1_ctrl_domini.html#a7648cc0064b988072993a90846e84d38" xlink:title="Constructor de la classe Ctrl_Domini.">
<polygon fill="white" stroke="#666666" points="679.75,-174 558,-174 558,-142 679.75,-142 679.75,-174"/>
<text text-anchor="start" x="566" y="-160.5" font-family="Helvetica,sans-Serif" font-size="10.00">controladors.CtrlDomini.</text>
<text text-anchor="middle" x="618.88" y="-148.5" font-family="Helvetica,sans-Serif" font-size="10.00">CtrlDomini</text>
</a>
</g>
</g>
<!-- Node3&#45;&gt;Node4 -->
<g id="edge3_Node000003_Node000004" class="edge">
<title>Node3&#45;&gt;Node4</title>
<g id="a_edge3_Node000003_Node000004"><a xlink:title=" ">
<path fill="none" stroke="#63b8ff" d="M506.27,-158C519.29,-158 532.98,-158 546.14,-158"/>
<polygon fill="#63b8ff" stroke="#63b8ff" points="546.03,-161.5 556.03,-158 546.03,-154.5 546.03,-161.5"/>
</a>
</g>
</g>
<!-- Node5 -->
<g id="Node000005" class="node">
<title>Node5</title>
<g id="a_Node000005"><a xlink:href="$classcontroladors_1_1_ctrl_domini.html#ab06c2680b60a9e0864d8470f4888e8e9" xlink:title="Carrega els usuaris cada cop que executem el joc.">
<polygon fill="white" stroke="#666666" points="881,-174 715.75,-174 715.75,-142 881,-142 881,-174"/>
<text text-anchor="start" x="723.75" y="-160.5" font-family="Helvetica,sans-Serif" font-size="10.00">controladors.CtrlDomini.inicialitzar</text>
<text text-anchor="middle" x="798.38" y="-148.5" font-family="Helvetica,sans-Serif" font-size="10.00">Usuaris</text>
</a>
</g>
</g>
<!-- Node4&#45;&gt;Node5 -->
<g id="edge4_Node000004_Node000005" class="edge">
<title>Node4&#45;&gt;Node5</title>
<g id="a_edge4_Node000004_Node000005"><a xlink:title=" ">
<path fill="none" stroke="#63b8ff" d="M679.97,-158C687.69,-158 695.74,-158 703.84,-158"/>
<polygon fill="#63b8ff" stroke="#63b8ff" points="703.79,-161.5 713.79,-158 703.79,-154.5 703.79,-161.5"/>
</a>
</g>
</g>
<!-- Node6 -->
<g id="Node000006" class="node">
<title>Node6</title>
<g id="a_Node000006"><a xlink:href="$classcontroladors_1_1_ctrl_persistencia.html#a06c847181ea13b0c7dde8a61b47f0a0b" xlink:title="Carrega els usuaris guardats a la capa de persistència.">
<polygon fill="white" stroke="#666666" points="1097.25,-174 917,-174 917,-142 1097.25,-142 1097.25,-174"/>
<text text-anchor="start" x="925" y="-160.5" font-family="Helvetica,sans-Serif" font-size="10.00">controladors.CtrlPersistencia.carregar</text>
<text text-anchor="middle" x="1007.12" y="-148.5" font-family="Helvetica,sans-Serif" font-size="10.00">UsuarisRegistrats</text>
</a>
</g>
</g>
<!-- Node5&#45;&gt;Node6 -->
<g id="edge5_Node000005_Node000006" class="edge">
<title>Node5&#45;&gt;Node6</title>
<g id="a_edge5_Node000005_Node000006"><a xlink:title=" ">
<path fill="none" stroke="#63b8ff" d="M881.39,-158C889.28,-158 897.34,-158 905.39,-158"/>
<polygon fill="#63b8ff" stroke="#63b8ff" points="905.22,-161.5 915.22,-158 905.22,-154.5 905.22,-161.5"/>
</a>
</g>
</g>
<!-- Node7 -->
<g id="Node000007" class="node">
<title>Node7</title>
<g id="a_Node000007"><a xlink:href="$classpersistencia_1_1_usuari_i_o.html#a29677f40d007ca66a5ec1b0926e16da4" xlink:title="Carrega un usuari des d&#39;un fitxer JSON.">
<polygon fill="white" stroke="#666666" points="1264.75,-174 1133.25,-174 1133.25,-142 1264.75,-142 1264.75,-174"/>
<text text-anchor="start" x="1141.25" y="-160.5" font-family="Helvetica,sans-Serif" font-size="10.00">persistencia.UsuariIO.load</text>
<text text-anchor="middle" x="1199" y="-148.5" font-family="Helvetica,sans-Serif" font-size="10.00">Usuari</text>
</a>
</g>
</g>
<!-- Node6&#45;&gt;Node7 -->
<g id="edge6_Node000006_Node000007" class="edge">
<title>Node6&#45;&gt;Node7</title>
<g id="a_edge6_Node000006_Node000007"><a xlink:title=" ">
<path fill="none" stroke="#63b8ff" d="M1097.5,-158C1105.52,-158 1113.58,-158 1121.47,-158"/>
<polygon fill="#63b8ff" stroke="#63b8ff" points="1121.37,-161.5 1131.37,-158 1121.37,-154.5 1121.37,-161.5"/>
</a>
</g>
</g>
<!-- Node9&#45;&gt;Node1 -->
<g id="edge10_Node000009_Node000001" class="edge">
<title>Node9&#45;&gt;Node1</title>
<g id="a_edge10_Node000009_Node000001"><a xlink:title=" ">
<path fill="none" stroke="#63b8ff" d="M162.26,-55.71C154.11,-55.77 145.84,-55.76 137.73,-55.67"/>
<polygon fill="#63b8ff" stroke="#63b8ff" points="137.97,-52.18 127.92,-55.52 137.86,-59.18 137.97,-52.18"/>
</a>
</g>
</g>
<!-- Node9&#45;&gt;Node9 -->
<g id="edge12_Node000009_Node000009" class="edge">
<title>Node9&#45;&gt;Node9</title>
<g id="a_edge12_Node000009_Node000009"><a xlink:title=" ">
<path fill="none" stroke="#63b8ff" d="M208.73,-65.44C202.82,-74.58 213.37,-83 240.38,-83 255.14,-83 264.99,-80.48 269.91,-76.71"/>
<polygon fill="#63b8ff" stroke="#63b8ff" points="273.34,-77.4 271.74,-66.93 266.46,-76.12 273.34,-77.4"/>
</a>
</g>
</g>
<!-- Node10 -->
<g id="Node000010" class="node">
<title>Node10</title>
<g id="a_Node000010"><a xlink:href="$classinterficie_1_1utils_1_1_tools.html#aad14ef36a2a433a18d49c46a83531892" xlink:title="Actualitza la imatge d&#39;un JLabel redimensionant&#45;la per adaptar&#45;se a les mides màximes indicades mante...">
<polygon fill="white" stroke="#666666" points="512.25,-70 364.25,-70 364.25,-38 512.25,-38 512.25,-70"/>
<text text-anchor="start" x="372.25" y="-56.5" font-family="Helvetica,sans-Serif" font-size="10.00">interficie.utils.Tools.actualitzar</text>
<text text-anchor="middle" x="438.25" y="-44.5" font-family="Helvetica,sans-Serif" font-size="10.00">Imatge</text>
</a>
</g>
</g>
<!-- Node9&#45;&gt;Node10 -->
<g id="edge9_Node000009_Node000010" class="edge">
<title>Node9&#45;&gt;Node10</title>
<g id="a_edge9_Node000009_Node000010"><a xlink:title=" ">
<path fill="none" stroke="#63b8ff" d="M318.51,-50.97C329.75,-51.26 341.37,-51.55 352.75,-51.84"/>
<polygon fill="#63b8ff" stroke="#63b8ff" points="352.42,-55.34 362.51,-52.09 352.6,-48.34 352.42,-55.34"/>
</a>
</g>
</g>
<!-- Node11 -->
<g id="Node000011" class="node">
<title>Node11</title>
<g id="a_Node000011"><a xlink:href="$classcontroladors_1_1_ctrl_presentacio.html#a66901a833c124fd1acc592cea93f4e6d" xlink:title="Torna a la vista anterior a l&#39;actual.">
<polygon fill="white" stroke="#666666" points="522,-20 354.5,-20 354.5,0 522,0 522,-20"/>
<text text-anchor="middle" x="438.25" y="-6.5" font-family="Helvetica,sans-Serif" font-size="10.00">controladors.CtrlPresentacio.tornar</text>
</a>
</g>
</g>
<!-- Node9&#45;&gt;Node11 -->
<g id="edge11_Node000009_Node000011" class="edge">
<title>Node9&#45;&gt;Node11</title>
<g id="a_edge11_Node000009_Node000011"><a xlink:title=" ">
<path fill="none" stroke="#63b8ff" d="M318.51,-33.64C336.69,-30.02 355.87,-26.2 373.39,-22.72"/>
<polygon fill="#63b8ff" stroke="#63b8ff" points="374.03,-26.16 383.15,-20.77 372.66,-19.29 374.03,-26.16"/>
</a>
</g>
</g>
</g>
</svg>
