<?xml version="1.0" encoding="UTF-8" standalone="no"?>
<!DOCTYPE svg PUBLIC "-//W3C//DTD SVG 1.1//EN"
 "http://www.w3.org/Graphics/SVG/1.1/DTD/svg11.dtd">
<!-- Generated by graphviz version 12.2.1 (20241206.2353)
 -->
<!-- Title: controladors.CtrlPartida.finalitzarPerTornsConsecutius Pages: 1 -->
<svg width="372pt" height="140pt"
 viewBox="0.00 0.00 372.25 140.00" xmlns="http://www.w3.org/2000/svg" xmlns:xlink="http://www.w3.org/1999/xlink">
<g id="graph0" class="graph" transform="scale(1 1) rotate(0) translate(4 136)">
<title>controladors.CtrlPartida.finalitzarPerTornsConsecutius</title>
<!-- Node1 -->
<g id="Node000001" class="node">
<title>Node1</title>
<g id="a_Node000001"><a xlink:title="Finalitza la partida si s&#39;han passat torns consecutius sense acció.">
<polygon fill="#999999" stroke="#666666" points="158.5,-82 0,-82 0,-50 158.5,-50 158.5,-82"/>
<text text-anchor="start" x="8" y="-68.5" font-family="Helvetica,sans-Serif" font-size="10.00">controladors.CtrlPartida.finalitzar</text>
<text text-anchor="middle" x="79.25" y="-56.5" font-family="Helvetica,sans-Serif" font-size="10.00">PerTornsConsecutius</text>
</a>
</g>
</g>
<!-- Node2 -->
<g id="Node000002" class="node">
<title>Node2</title>
<g id="a_Node000002"><a xlink:href="classdomini_1_1jugadors_1_1_avatar.html#a44e5e6a2ee9245697351fe390849b810" target="_top" xlink:title="Incrementa el nombre total de partides guanyades.">
<polygon fill="white" stroke="#666666" points="364.25,-132 194.5,-132 194.5,-100 364.25,-100 364.25,-132"/>
<text text-anchor="start" x="202.5" y="-118.5" font-family="Helvetica,sans-Serif" font-size="10.00">domini.jugadors.Avatar.incrementar</text>
<text text-anchor="middle" x="279.38" y="-106.5" font-family="Helvetica,sans-Serif" font-size="10.00">PartidesGuanyades</text>
</a>
</g>
</g>
<!-- Node1&#45;&gt;Node2 -->
<g id="edge1_Node000001_Node000002" class="edge">
<title>Node1&#45;&gt;Node2</title>
<g id="a_edge1_Node000001_Node000002"><a xlink:title=" ">
<path fill="none" stroke="#63b8ff" d="M145.4,-82.44C163.51,-87.01 183.34,-92.02 202.03,-96.73"/>
<polygon fill="#63b8ff" stroke="#63b8ff" points="201.17,-100.13 211.72,-99.18 202.88,-93.34 201.17,-100.13"/>
</a>
</g>
</g>
<!-- Node3 -->
<g id="Node000003" class="node">
<title>Node3</title>
<g id="a_Node000003"><a xlink:href="classdomini_1_1jugadors_1_1_avatar.html#a750332bc2deadb604d43d1a0936a09d2" target="_top" xlink:title="Incrementa el nombre de partides guanyades contra altres jugadors.">
<polygon fill="white" stroke="#666666" points="364.25,-82 194.5,-82 194.5,-50 364.25,-50 364.25,-82"/>
<text text-anchor="start" x="202.5" y="-68.5" font-family="Helvetica,sans-Serif" font-size="10.00">domini.jugadors.Avatar.incrementar</text>
<text text-anchor="middle" x="279.38" y="-56.5" font-family="Helvetica,sans-Serif" font-size="10.00">PartidesGuanyadesJugador</text>
</a>
</g>
</g>
<!-- Node1&#45;&gt;Node3 -->
<g id="edge2_Node000001_Node000003" class="edge">
<title>Node1&#45;&gt;Node3</title>
<g id="a_edge2_Node000001_Node000003"><a xlink:title=" ">
<path fill="none" stroke="#63b8ff" d="M158.84,-66C166.7,-66 174.73,-66 182.74,-66"/>
<polygon fill="#63b8ff" stroke="#63b8ff" points="182.5,-69.5 192.5,-66 182.5,-62.5 182.5,-69.5"/>
</a>
</g>
</g>
<!-- Node4 -->
<g id="Node000004" class="node">
<title>Node4</title>
<g id="a_Node000004"><a xlink:href="classdomini_1_1jugadors_1_1_avatar.html#aae510bc2635d40405e60a218b1b7c097" target="_top" xlink:title="Incrementa el nombre de partides guanyades contra la màquina.">
<polygon fill="white" stroke="#666666" points="364.25,-32 194.5,-32 194.5,0 364.25,0 364.25,-32"/>
<text text-anchor="start" x="202.5" y="-18.5" font-family="Helvetica,sans-Serif" font-size="10.00">domini.jugadors.Avatar.incrementar</text>
<text text-anchor="middle" x="279.38" y="-6.5" font-family="Helvetica,sans-Serif" font-size="10.00">PartidesGuanyadesMaquina</text>
</a>
</g>
</g>
<!-- Node1&#45;&gt;Node4 -->
<g id="edge3_Node000001_Node000004" class="edge">
<title>Node1&#45;&gt;Node4</title>
<g id="a_edge3_Node000001_Node000004"><a xlink:title=" ">
<path fill="none" stroke="#63b8ff" d="M145.4,-49.56C163.51,-44.99 183.34,-39.98 202.03,-35.27"/>
<polygon fill="#63b8ff" stroke="#63b8ff" points="202.88,-38.66 211.72,-32.82 201.17,-31.87 202.88,-38.66"/>
</a>
</g>
</g>
</g>
</svg>
