<?xml version="1.0" encoding="UTF-8" standalone="no"?>
<!DOCTYPE svg PUBLIC "-//W3C//DTD SVG 1.1//EN"
 "http://www.w3.org/Graphics/SVG/1.1/DTD/svg11.dtd">
<!-- Generated by graphviz version 12.2.1 (20241206.2353)
 -->
<!-- Title: controladors.CtrlDomini.crearUsuari Pages: 1 -->
<svg width="535pt" height="40pt"
 viewBox="0.00 0.00 535.25 40.00" xmlns="http://www.w3.org/2000/svg" xmlns:xlink="http://www.w3.org/1999/xlink">
<g id="graph0" class="graph" transform="scale(1 1) rotate(0) translate(4 36)">
<title>controladors.CtrlDomini.crearUsuari</title>
<!-- Node1 -->
<g id="Node000001" class="node">
<title>Node1</title>
<g id="a_Node000001"><a xlink:title="Crea un usuari.">
<polygon fill="#999999" stroke="#666666" points="143.5,-32 0,-32 0,0 143.5,0 143.5,-32"/>
<text text-anchor="start" x="8" y="-18.5" font-family="Helvetica,sans-Serif" font-size="10.00">controladors.CtrlDomini.crear</text>
<text text-anchor="middle" x="71.75" y="-6.5" font-family="Helvetica,sans-Serif" font-size="10.00">Usuari</text>
</a>
</g>
</g>
<!-- Node2 -->
<g id="Node000002" class="node">
<title>Node2</title>
<g id="a_Node000002"><a xlink:href="classcontroladors_1_1_ctrl_persistencia.html#a3e338a9b45aaa502d95cb1816545b734" target="_top" xlink:title="Desa un usuari a l&#39;emmagatzematge persistent.">
<polygon fill="white" stroke="#666666" points="356.75,-32 179.5,-32 179.5,0 356.75,0 356.75,-32"/>
<text text-anchor="start" x="187.5" y="-18.5" font-family="Helvetica,sans-Serif" font-size="10.00">controladors.CtrlPersistencia.guardar</text>
<text text-anchor="middle" x="268.12" y="-6.5" font-family="Helvetica,sans-Serif" font-size="10.00">Usuari</text>
</a>
</g>
</g>
<!-- Node1&#45;&gt;Node2 -->
<g id="edge1_Node000001_Node000002" class="edge">
<title>Node1&#45;&gt;Node2</title>
<g id="a_edge1_Node000001_Node000002"><a xlink:title=" ">
<path fill="none" stroke="#63b8ff" d="M143.75,-16C151.56,-16 159.62,-16 167.7,-16"/>
<polygon fill="#63b8ff" stroke="#63b8ff" points="167.6,-19.5 177.6,-16 167.6,-12.5 167.6,-19.5"/>
</a>
</g>
</g>
<!-- Node3 -->
<g id="Node000003" class="node">
<title>Node3</title>
<g id="a_Node000003"><a xlink:href="classpersistencia_1_1_usuari_i_o.html#adae8b6b62d1b4cbbff286eaa19877937" target="_top" xlink:title="Desa un usuari a un fitxer JSON.">
<polygon fill="white" stroke="#666666" points="527.25,-32 392.75,-32 392.75,0 527.25,0 527.25,-32"/>
<text text-anchor="start" x="400.75" y="-18.5" font-family="Helvetica,sans-Serif" font-size="10.00">persistencia.UsuariIO.save</text>
<text text-anchor="middle" x="460" y="-6.5" font-family="Helvetica,sans-Serif" font-size="10.00">Usuari</text>
</a>
</g>
</g>
<!-- Node2&#45;&gt;Node3 -->
<g id="edge2_Node000002_Node000003" class="edge">
<title>Node2&#45;&gt;Node3</title>
<g id="a_edge2_Node000002_Node000003"><a xlink:title=" ">
<path fill="none" stroke="#63b8ff" d="M357.11,-16C365.07,-16 373.08,-16 380.94,-16"/>
<polygon fill="#63b8ff" stroke="#63b8ff" points="380.8,-19.5 390.8,-16 380.8,-12.5 380.8,-19.5"/>
</a>
</g>
</g>
</g>
</svg>
