<?xml version="1.0" encoding="UTF-8" standalone="no"?>
<!DOCTYPE svg PUBLIC "-//W3C//DTD SVG 1.1//EN"
 "http://www.w3.org/Graphics/SVG/1.1/DTD/svg11.dtd">
<!-- Generated by graphviz version 12.2.1 (20241206.2353)
 -->
<!-- Title: interficie.SelectorPartida Pages: 1 -->
<svg width="123pt" height="164pt"
 viewBox="0.00 0.00 122.50 164.00" xmlns="http://www.w3.org/2000/svg" xmlns:xlink="http://www.w3.org/1999/xlink">

<svg id="main" version="1.1" xmlns="http://www.w3.org/2000/svg" xmlns:xlink="http://www.w3.org/1999/xlink" xml:space="preserve">

<style type="text/css"><![CDATA[
.node, .edge {opacity: 0.7;}
.node.selected, .edge.selected {opacity: 1;}
.edge:hover path { stroke: red; }
.edge:hover polygon { stroke: red; fill: red; }
]]></style>
<script type="application/ecmascript" xlink:href="svg.min.js"/>
<svg id="graph" class="graph">
<g id="graph0" class="graph" transform="scale(1 1) rotate(0) translate(4 160)">
<title>interficie.SelectorPartida</title>
<!-- Node1 -->
<g id="Node000001" class="node">
<title>Node1</title>
<g id="a_Node000001"><a xlink:title="Diàleg modal Swing per seleccionar una partida guardada d&#39;un usuari concret.">
<polygon fill="#999999" stroke="none" points="114.5,-68 0,-68 0,0 114.5,0 114.5,-68"/>
<text text-anchor="start" x="4" y="-54.5" font-family="Helvetica,sans-Serif" font-size="10.00">interficie.SelectorPartida</text>
<text text-anchor="start" x="11.44" y="-38.5" font-family="Helvetica,sans-Serif" font-size="10.00">&#45;</text>
<text text-anchor="start" x="25.88" y="-38.5" font-family="Helvetica,sans-Serif" font-size="10.00">idPartida</text>
<text text-anchor="start" x="9.94" y="-22.5" font-family="Helvetica,sans-Serif" font-size="10.00">+</text>
<text text-anchor="start" x="25.88" y="-22.5" font-family="Helvetica,sans-Serif" font-size="10.00">SelectorPartida()</text>
<text text-anchor="start" x="9.94" y="-6.5" font-family="Helvetica,sans-Serif" font-size="10.00">+</text>
<text text-anchor="start" x="25.88" y="-6.5" font-family="Helvetica,sans-Serif" font-size="10.00">getIdPartida()</text>
<polygon fill="#666666" stroke="#666666" points="0,-50 0,-50 114.5,-50 114.5,-50 0,-50"/>
<polygon fill="#666666" stroke="#666666" points="0,-34 0,-34 23.88,-34 23.88,-34 0,-34"/>
<polygon fill="#666666" stroke="#666666" points="23.88,-34 23.88,-34 114.5,-34 114.5,-34 23.88,-34"/>
<polygon fill="none" stroke="#666666" points="0,0 0,-68 114.5,-68 114.5,0 0,0"/>
</a>
</g>
</g>
<!-- Node2 -->
<g id="Node000002" class="node">
<title>Node2</title>
<g id="a_Node000002"><a xlink:title=" ">
<polygon fill="white" stroke="none" points="77.75,-156 36.75,-156 36.75,-104 77.75,-104 77.75,-156"/>
<text text-anchor="start" x="40.75" y="-142.5" font-family="Helvetica,sans-Serif" font-size="10.00">JDialog</text>
<text text-anchor="start" x="55.75" y="-126.5" font-family="Helvetica,sans-Serif" font-size="10.00"> </text>
<text text-anchor="start" x="55.75" y="-110.5" font-family="Helvetica,sans-Serif" font-size="10.00"> </text>
<polygon fill="#666666" stroke="#666666" points="36.75,-138 36.75,-138 77.75,-138 77.75,-138 36.75,-138"/>
<polygon fill="#666666" stroke="#666666" points="36.75,-122 36.75,-122 77.75,-122 77.75,-122 36.75,-122"/>
<polygon fill="none" stroke="#666666" points="36.75,-104 36.75,-156 77.75,-156 77.75,-104 36.75,-104"/>
</a>
</g>
</g>
<!-- Node2&#45;&gt;Node1 -->
<g id="edge1_Node000001_Node000002" class="edge">
<title>Node2&#45;&gt;Node1</title>
<g id="a_edge1_Node000001_Node000002"><a xlink:title=" ">
<path fill="none" stroke="#63b8ff" d="M57.25,-92.97C57.25,-84.65 57.25,-75.84 57.25,-67.67"/>
<polygon fill="none" stroke="#63b8ff" points="53.75,-92.79 57.25,-102.79 60.75,-92.79 53.75,-92.79"/>
</a>
</g>
</g>
</g>
</svg>
</svg>

<style type='text/css'>
<![CDATA[
[data-mouse-over-selected='false'] { opacity: 0.7; }
[data-mouse-over-selected='true']  { opacity: 1.0; }
]]>
</style>
<script type="application/ecmascript"><![CDATA[
document.addEventListener('DOMContentLoaded', (event) => {
  highlightEdges();
  highlightAdjacentNodes();
});
]]></script>
</svg>
