<?xml version="1.0" encoding="UTF-8" standalone="no"?>
<!DOCTYPE svg PUBLIC "-//W3C//DTD SVG 1.1//EN"
 "http://www.w3.org/Graphics/SVG/1.1/DTD/svg11.dtd">
<!-- Generated by graphviz version 12.2.1 (20241206.2353)
 -->
<!-- Title: domini.scrabble.Bossa Pages: 1 -->
<svg width="143pt" height="492pt"
 viewBox="0.00 0.00 142.75 492.00" xmlns="http://www.w3.org/2000/svg" xmlns:xlink="http://www.w3.org/1999/xlink">
<g id="graph0" class="graph" transform="scale(1 1) rotate(0) translate(4 488)">
<title>domini.scrabble.Bossa</title>
<!-- Node1 -->
<g id="Node000001" class="node">
<title>Node1</title>
<g id="a_Node000001"><a xlink:title="Representa la bossa de fitxes d&#39;Scrabble.">
<polygon fill="#999999" stroke="none" points="120.88,-180 13.88,-180 13.88,0 120.88,0 120.88,-180"/>
<text text-anchor="start" x="17.88" y="-166.5" font-family="Helvetica,sans-Serif" font-size="10.00">domini.scrabble.Bossa</text>
<text text-anchor="start" x="21.75" y="-150.5" font-family="Helvetica,sans-Serif" font-size="10.00">&#45;</text>
<text text-anchor="start" x="32.62" y="-150.5" font-family="Helvetica,sans-Serif" font-size="10.00">mapaPuntuacions</text>
<text text-anchor="start" x="20.25" y="-134.5" font-family="Helvetica,sans-Serif" font-size="10.00">+</text>
<text text-anchor="start" x="32.62" y="-134.5" font-family="Helvetica,sans-Serif" font-size="10.00">Bossa()</text>
<text text-anchor="start" x="20.25" y="-118.5" font-family="Helvetica,sans-Serif" font-size="10.00">+</text>
<text text-anchor="start" x="32.62" y="-118.5" font-family="Helvetica,sans-Serif" font-size="10.00">obtenirPuntuacio()</text>
<text text-anchor="start" x="20.25" y="-102.5" font-family="Helvetica,sans-Serif" font-size="10.00">+</text>
<text text-anchor="start" x="32.62" y="-102.5" font-family="Helvetica,sans-Serif" font-size="10.00">getIdFitxa()</text>
<text text-anchor="start" x="20.25" y="-86.5" font-family="Helvetica,sans-Serif" font-size="10.00">+</text>
<text text-anchor="start" x="32.62" y="-86.5" font-family="Helvetica,sans-Serif" font-size="10.00">agafarFitxa()</text>
<text text-anchor="start" x="20.25" y="-70.5" font-family="Helvetica,sans-Serif" font-size="10.00">+</text>
<text text-anchor="start" x="32.62" y="-70.5" font-family="Helvetica,sans-Serif" font-size="10.00">carregarFitxes()</text>
<text text-anchor="start" x="20.25" y="-54.5" font-family="Helvetica,sans-Serif" font-size="10.00">+</text>
<text text-anchor="start" x="32.62" y="-54.5" font-family="Helvetica,sans-Serif" font-size="10.00">clearBossa()</text>
<text text-anchor="start" x="20.25" y="-38.5" font-family="Helvetica,sans-Serif" font-size="10.00">+</text>
<text text-anchor="start" x="32.62" y="-38.5" font-family="Helvetica,sans-Serif" font-size="10.00">getMidaBossa()</text>
<text text-anchor="start" x="20.25" y="-22.5" font-family="Helvetica,sans-Serif" font-size="10.00">+</text>
<text text-anchor="start" x="32.62" y="-22.5" font-family="Helvetica,sans-Serif" font-size="10.00">afegirFitxaBossa()</text>
<text text-anchor="start" x="20.25" y="-6.5" font-family="Helvetica,sans-Serif" font-size="10.00">+</text>
<text text-anchor="start" x="32.62" y="-6.5" font-family="Helvetica,sans-Serif" font-size="10.00">getFitxes()</text>
<polygon fill="#666666" stroke="#666666" points="13.88,-162 13.88,-162 120.88,-162 120.88,-162 13.88,-162"/>
<polygon fill="#666666" stroke="#666666" points="13.88,-146 13.88,-146 30.62,-146 30.62,-146 13.88,-146"/>
<polygon fill="#666666" stroke="#666666" points="30.62,-146 30.62,-146 120.88,-146 120.88,-146 30.62,-146"/>
<polygon fill="none" stroke="#666666" points="13.88,0 13.88,-180 120.88,-180 120.88,0 13.88,0"/>
</a>
</g>
</g>
<!-- Node2 -->
<g id="Node000002" class="node">
<title>Node2</title>
<g id="a_Node000002"><a xlink:href="classdomini_1_1auxiliars_1_1_fast_delete_list.html" target="_top" xlink:title=" ">
<polygon fill="white" stroke="none" points="134.75,-484 0,-484 0,-228 134.75,-228 134.75,-484"/>
<text text-anchor="start" x="4" y="-470.5" font-family="Helvetica,sans-Serif" font-size="10.00">domini.auxiliars.FastDelete</text>
<text text-anchor="start" x="4" y="-458.5" font-family="Helvetica,sans-Serif" font-size="10.00">List&lt; domini.scrabble.Fitxa &gt;</text>
<text text-anchor="start" x="15.38" y="-442.5" font-family="Helvetica,sans-Serif" font-size="10.00">&#45;</text>
<text text-anchor="start" x="33.75" y="-442.5" font-family="Helvetica,sans-Serif" font-size="10.00">list</text>
<text text-anchor="start" x="15.38" y="-426.5" font-family="Helvetica,sans-Serif" font-size="10.00">&#45;</text>
<text text-anchor="start" x="33.75" y="-426.5" font-family="Helvetica,sans-Serif" font-size="10.00">indexMap</text>
<text text-anchor="start" x="13.88" y="-410.5" font-family="Helvetica,sans-Serif" font-size="10.00">+</text>
<text text-anchor="start" x="33.75" y="-410.5" font-family="Helvetica,sans-Serif" font-size="10.00">FastDeleteList()</text>
<text text-anchor="start" x="13.88" y="-394.5" font-family="Helvetica,sans-Serif" font-size="10.00">+</text>
<text text-anchor="start" x="33.75" y="-394.5" font-family="Helvetica,sans-Serif" font-size="10.00">add()</text>
<text text-anchor="start" x="13.88" y="-378.5" font-family="Helvetica,sans-Serif" font-size="10.00">+</text>
<text text-anchor="start" x="33.75" y="-378.5" font-family="Helvetica,sans-Serif" font-size="10.00">remove()</text>
<text text-anchor="start" x="13.88" y="-362.5" font-family="Helvetica,sans-Serif" font-size="10.00">+</text>
<text text-anchor="start" x="33.75" y="-362.5" font-family="Helvetica,sans-Serif" font-size="10.00">addAll()</text>
<text text-anchor="start" x="13.88" y="-346.5" font-family="Helvetica,sans-Serif" font-size="10.00">+</text>
<text text-anchor="start" x="33.75" y="-346.5" font-family="Helvetica,sans-Serif" font-size="10.00">removeAt()</text>
<text text-anchor="start" x="13.88" y="-330.5" font-family="Helvetica,sans-Serif" font-size="10.00">+</text>
<text text-anchor="start" x="33.75" y="-330.5" font-family="Helvetica,sans-Serif" font-size="10.00">get()</text>
<text text-anchor="start" x="13.88" y="-314.5" font-family="Helvetica,sans-Serif" font-size="10.00">+</text>
<text text-anchor="start" x="33.75" y="-314.5" font-family="Helvetica,sans-Serif" font-size="10.00">clear()</text>
<text text-anchor="start" x="13.88" y="-298.5" font-family="Helvetica,sans-Serif" font-size="10.00">+</text>
<text text-anchor="start" x="33.75" y="-298.5" font-family="Helvetica,sans-Serif" font-size="10.00">size()</text>
<text text-anchor="start" x="13.88" y="-282.5" font-family="Helvetica,sans-Serif" font-size="10.00">+</text>
<text text-anchor="start" x="33.75" y="-282.5" font-family="Helvetica,sans-Serif" font-size="10.00">isEmpty()</text>
<text text-anchor="start" x="13.88" y="-266.5" font-family="Helvetica,sans-Serif" font-size="10.00">+</text>
<text text-anchor="start" x="33.75" y="-266.5" font-family="Helvetica,sans-Serif" font-size="10.00">contains()</text>
<text text-anchor="start" x="13.88" y="-250.5" font-family="Helvetica,sans-Serif" font-size="10.00">+</text>
<text text-anchor="start" x="33.75" y="-250.5" font-family="Helvetica,sans-Serif" font-size="10.00">toString()</text>
<text text-anchor="start" x="13.88" y="-234.5" font-family="Helvetica,sans-Serif" font-size="10.00">+</text>
<text text-anchor="start" x="33.75" y="-234.5" font-family="Helvetica,sans-Serif" font-size="10.00">rebuildIndexMap()</text>
<polygon fill="#666666" stroke="#666666" points="0,-454 0,-454 134.75,-454 134.75,-454 0,-454"/>
<polygon fill="#666666" stroke="#666666" points="0,-422 0,-422 31.75,-422 31.75,-422 0,-422"/>
<polygon fill="#666666" stroke="#666666" points="31.75,-422 31.75,-422 134.75,-422 134.75,-422 31.75,-422"/>
<polygon fill="none" stroke="#666666" points="0,-228 0,-484 134.75,-484 134.75,-228 0,-228"/>
</a>
</g>
</g>
<!-- Node2&#45;&gt;Node1 -->
<g id="edge1_Node000001_Node000002" class="edge">
<title>Node2&#45;&gt;Node1</title>
<g id="a_edge1_Node000001_Node000002"><a xlink:title=" ">
<path fill="none" stroke="#63b8ff" d="M67.38,-228.03C67.38,-216.22 67.38,-204.36 67.38,-192.83"/>
<polygon fill="none" stroke="#63b8ff" points="67.38,-192.87 63.38,-186.87 67.38,-180.87 71.38,-186.87 67.38,-192.87"/>
</a>
</g>
<text text-anchor="middle" x="82.38" y="-200.5" font-family="Helvetica,sans-Serif" font-size="10.00" fill="grey"> &#45;fitxes</text>
</g>
</g>
</svg>
