<?xml version="1.0" encoding="UTF-8" standalone="no"?>
<!DOCTYPE svg PUBLIC "-//W3C//DTD SVG 1.1//EN"
 "http://www.w3.org/Graphics/SVG/1.1/DTD/svg11.dtd">
<!-- Generated by graphviz version 12.2.1 (20241206.2353)
 -->
<!-- Title: interficie.VistaPartida.afegirFitxesARack Pages: 1 -->
<svg width="1024pt" height="224pt"
 viewBox="0.00 0.00 1024.25 224.29" xmlns="http://www.w3.org/2000/svg" xmlns:xlink="http://www.w3.org/1999/xlink">
<g id="graph0" class="graph" transform="scale(1 1) rotate(0) translate(4 220.29)">
<title>interficie.VistaPartida.afegirFitxesARack</title>
<!-- Node1 -->
<g id="Node000001" class="node">
<title>Node1</title>
<g id="a_Node000001"><a xlink:title="Afegeix les fitxes d&#39;un jugador al seu rack.">
<polygon fill="#999999" stroke="#666666" points="1016.25,-70 880.25,-70 880.25,-38 1016.25,-38 1016.25,-70"/>
<text text-anchor="start" x="888.25" y="-56.5" font-family="Helvetica,sans-Serif" font-size="10.00">interficie.VistaPartida.afegir</text>
<text text-anchor="middle" x="948.25" y="-44.5" font-family="Helvetica,sans-Serif" font-size="10.00">FitxesARack</text>
</a>
</g>
</g>
<!-- Node2 -->
<g id="Node000002" class="node">
<title>Node2</title>
<g id="a_Node000002"><a xlink:href="$classinterficie_1_1_vista_partida.html#a0698d192124492ebfd8a3b029a6fa23c" xlink:title="Actualitza els racks dels jugadors.">
<polygon fill="white" stroke="#666666" points="844.25,-108 694,-108 694,-76 844.25,-76 844.25,-108"/>
<text text-anchor="start" x="702" y="-94.5" font-family="Helvetica,sans-Serif" font-size="10.00">interficie.VistaPartida.refrescar</text>
<text text-anchor="middle" x="769.12" y="-82.5" font-family="Helvetica,sans-Serif" font-size="10.00">RackJugadors</text>
</a>
</g>
</g>
<!-- Node1&#45;&gt;Node2 -->
<g id="edge1_Node000001_Node000002" class="edge">
<title>Node1&#45;&gt;Node2</title>
<g id="a_edge1_Node000001_Node000002"><a xlink:title=" ">
<path fill="none" stroke="#63b8ff" d="M868.57,-70.88C860.56,-72.6 852.45,-74.34 844.5,-76.04"/>
<polygon fill="#63b8ff" stroke="#63b8ff" points="869.26,-74.31 878.3,-68.79 867.79,-67.47 869.26,-74.31"/>
</a>
</g>
</g>
<!-- Node3 -->
<g id="Node000003" class="node">
<title>Node3</title>
<g id="a_Node000003"><a xlink:href="$classinterficie_1_1_vista_partida.html#a7855e7a9cc41e1450c37054781ba6309" xlink:title="Inicialitza els components de la interfície gràfica.">
<polygon fill="white" stroke="#666666" points="658,-140 522.75,-140 522.75,-120 658,-120 658,-140"/>
<text text-anchor="middle" x="590.38" y="-126.5" font-family="Helvetica,sans-Serif" font-size="10.00">interficie.VistaPartida.initUI</text>
</a>
</g>
</g>
<!-- Node2&#45;&gt;Node3 -->
<g id="edge2_Node000002_Node000003" class="edge">
<title>Node2&#45;&gt;Node3</title>
<g id="a_edge2_Node000002_Node000003"><a xlink:title=" ">
<path fill="none" stroke="#63b8ff" d="M682.57,-110.39C667.98,-113.53 653.28,-116.69 640.08,-119.53"/>
<polygon fill="#63b8ff" stroke="#63b8ff" points="683.16,-113.85 692.2,-108.32 681.69,-107 683.16,-113.85"/>
</a>
</g>
</g>
<!-- Node4 -->
<g id="Node000004" class="node">
<title>Node4</title>
<g id="a_Node000004"><a xlink:href="$classinterficie_1_1_vista_partida.html#abce8626a6a3750affe851e1f8bea2cb3" xlink:title="Constructor de la classe VistaPartida.">
<polygon fill="white" stroke="#666666" points="486.75,-111 374.75,-111 374.75,-79 486.75,-79 486.75,-111"/>
<text text-anchor="start" x="382.75" y="-97.5" font-family="Helvetica,sans-Serif" font-size="10.00">interficie.VistaPartida.</text>
<text text-anchor="middle" x="430.75" y="-85.5" font-family="Helvetica,sans-Serif" font-size="10.00">VistaPartida</text>
</a>
</g>
</g>
<!-- Node2&#45;&gt;Node4 -->
<g id="edge17_Node000002_Node000004" class="edge">
<title>Node2&#45;&gt;Node4</title>
<g id="a_edge17_Node000002_Node000004"><a xlink:title=" ">
<path fill="none" stroke="#63b8ff" d="M682.65,-92.76C621.2,-93.31 540.12,-94.03 486.99,-94.51"/>
<polygon fill="#63b8ff" stroke="#63b8ff" points="682.41,-96.26 692.38,-92.68 682.35,-89.26 682.41,-96.26"/>
</a>
</g>
</g>
<!-- Node8 -->
<g id="Node000008" class="node">
<title>Node8</title>
<g id="a_Node000008"><a xlink:href="$classinterficie_1_1_vista_partida.html#a485041b781e81c64fb5414207ff21d2a" xlink:title="Actualitza la informació de la partida.">
<polygon fill="white" stroke="#666666" points="150.25,-170 0,-170 0,-138 150.25,-138 150.25,-170"/>
<text text-anchor="start" x="8" y="-156.5" font-family="Helvetica,sans-Serif" font-size="10.00">interficie.VistaPartida.refrescar</text>
<text text-anchor="middle" x="75.12" y="-144.5" font-family="Helvetica,sans-Serif" font-size="10.00">Informacio</text>
</a>
</g>
</g>
<!-- Node2&#45;&gt;Node8 -->
<g id="edge16_Node000002_Node000008" class="edge">
<title>Node2&#45;&gt;Node8</title>
<g id="a_edge16_Node000002_Node000008"><a xlink:title=" ">
<path fill="none" stroke="#63b8ff" d="M732.21,-114.01C711.24,-125.97 683.89,-140.1 658,-149 458.74,-217.51 393.47,-234.17 186.25,-196 159.49,-191.07 130.81,-179.93 109.43,-170.36"/>
<polygon fill="#63b8ff" stroke="#63b8ff" points="733.76,-117.16 740.64,-109.1 730.24,-111.1 733.76,-117.16"/>
</a>
</g>
</g>
<!-- Node3&#45;&gt;Node4 -->
<g id="edge3_Node000003_Node000004" class="edge">
<title>Node3&#45;&gt;Node4</title>
<g id="a_edge3_Node000003_Node000004"><a xlink:title=" ">
<path fill="none" stroke="#63b8ff" d="M554.15,-116.45C534.43,-111.04 509.4,-105.23 487.11,-100.82"/>
<polygon fill="#63b8ff" stroke="#63b8ff" points="553.06,-119.77 563.64,-119.16 554.98,-113.04 553.06,-119.77"/>
</a>
</g>
</g>
<!-- Node4&#45;&gt;Node1 -->
<g id="edge4_Node000004_Node000001" class="edge">
<title>Node4&#45;&gt;Node1</title>
<g id="a_edge4_Node000004_Node000001"><a xlink:title=" ">
<path fill="none" stroke="#63b8ff" d="M498.45,-86.85C551.39,-80.64 627.34,-72.27 694,-67 756.98,-62.03 828.93,-58.54 880,-56.44"/>
<polygon fill="#63b8ff" stroke="#63b8ff" points="498.2,-83.36 488.68,-88.01 499.02,-90.31 498.2,-83.36"/>
</a>
</g>
</g>
<!-- Node4&#45;&gt;Node3 -->
<g id="edge14_Node000004_Node000003" class="edge">
<title>Node4&#45;&gt;Node3</title>
<g id="a_edge14_Node000004_Node000003"><a xlink:title=" ">
<path fill="none" stroke="#63b8ff" d="M488.84,-114.19C499.78,-116.86 511.32,-119.48 522.53,-121.84"/>
<polygon fill="#63b8ff" stroke="#63b8ff" points="489.72,-110.81 479.17,-111.77 488.02,-117.6 489.72,-110.81"/>
</a>
</g>
</g>
<!-- Node4&#45;&gt;Node4 -->
<g id="edge15_Node000004_Node000004" class="edge">
<title>Node4&#45;&gt;Node4</title>
<g id="a_edge15_Node000004_Node000004"><a xlink:title=" ">
<path fill="none" stroke="#63b8ff" d="M457.35,-122.71C452.92,-126.48 444.05,-129 430.75,-129 406.43,-129 396.93,-120.58 402.25,-111.44"/>
<polygon fill="#63b8ff" stroke="#63b8ff" points="460.79,-123.38 459,-112.94 453.88,-122.22 460.79,-123.38"/>
</a>
</g>
</g>
<!-- Node5 -->
<g id="Node000005" class="node">
<title>Node5</title>
<g id="a_Node000005"><a xlink:href="$classinterficie_1_1_vista_partida.html#ae6809bc2e7efc03077c111367571f788" xlink:title="Afegeix maquetes al rack de l&#39;oponent.">
<polygon fill="white" stroke="#666666" points="330.5,-32 194.5,-32 194.5,0 330.5,0 330.5,-32"/>
<text text-anchor="start" x="202.5" y="-18.5" font-family="Helvetica,sans-Serif" font-size="10.00">interficie.VistaPartida.afegir</text>
<text text-anchor="middle" x="262.5" y="-6.5" font-family="Helvetica,sans-Serif" font-size="10.00">MaquetesARack</text>
</a>
</g>
</g>
<!-- Node4&#45;&gt;Node5 -->
<g id="edge5_Node000004_Node000005" class="edge">
<title>Node4&#45;&gt;Node5</title>
<g id="a_edge5_Node000004_Node000005"><a xlink:title=" ">
<path fill="none" stroke="#63b8ff" d="M388.88,-73.23C384.08,-70.52 379.28,-67.74 374.75,-65 358.29,-55.05 356.03,-49.44 338.75,-41 332.44,-37.92 325.66,-35.07 318.84,-32.49"/>
<polygon fill="#63b8ff" stroke="#63b8ff" points="386.88,-76.12 397.32,-77.92 390.28,-70.01 386.88,-76.12"/>
</a>
</g>
</g>
<!-- Node6 -->
<g id="Node000006" class="node">
<title>Node6</title>
<g id="a_Node000006"><a xlink:href="$classinterficie_1_1_vista_partida.html#a8ebc9da2a2b927ba87ed97ad85ae44e8" xlink:title="Confirma l&#39;acció de guardar la partida.">
<polygon fill="white" stroke="#666666" points="338.75,-170 186.25,-170 186.25,-138 338.75,-138 338.75,-170"/>
<text text-anchor="start" x="194.25" y="-156.5" font-family="Helvetica,sans-Serif" font-size="10.00">interficie.VistaPartida.confirmar</text>
<text text-anchor="middle" x="262.5" y="-144.5" font-family="Helvetica,sans-Serif" font-size="10.00">Guardar</text>
</a>
</g>
</g>
<!-- Node4&#45;&gt;Node6 -->
<g id="edge7_Node000004_Node000006" class="edge">
<title>Node4&#45;&gt;Node6</title>
<g id="a_edge7_Node000004_Node000006"><a xlink:title=" ">
<path fill="none" stroke="#63b8ff" d="M372.65,-115.26C352.16,-122.54 329.32,-130.64 309.85,-137.55"/>
<polygon fill="#63b8ff" stroke="#63b8ff" points="373.76,-118.58 382.01,-111.94 371.42,-111.99 373.76,-118.58"/>
</a>
</g>
</g>
<!-- Node7 -->
<g id="Node000007" class="node">
<title>Node7</title>
<g id="a_Node000007"><a xlink:href="$classinterficie_1_1_vista_partida.html#ab47b596fbbd6a79289d4b9d7f5b5e068" xlink:title="Crea un panell amb la informació d&#39;un jugador.">
<polygon fill="white" stroke="#666666" points="329.38,-82 195.62,-82 195.62,-50 329.38,-50 329.38,-82"/>
<text text-anchor="start" x="203.62" y="-68.5" font-family="Helvetica,sans-Serif" font-size="10.00">interficie.VistaPartida.crear</text>
<text text-anchor="middle" x="262.5" y="-56.5" font-family="Helvetica,sans-Serif" font-size="10.00">PanelJugador</text>
</a>
</g>
</g>
<!-- Node4&#45;&gt;Node7 -->
<g id="edge9_Node000004_Node000007" class="edge">
<title>Node4&#45;&gt;Node7</title>
<g id="a_edge9_Node000004_Node000007"><a xlink:title=" ">
<path fill="none" stroke="#63b8ff" d="M363.15,-83.38C352.19,-81.47 340.83,-79.49 329.87,-77.58"/>
<polygon fill="#63b8ff" stroke="#63b8ff" points="362.45,-86.81 372.9,-85.08 363.65,-79.92 362.45,-86.81"/>
</a>
</g>
</g>
<!-- Node5&#45;&gt;Node2 -->
<g id="edge6_Node000005_Node000002" class="edge">
<title>Node5&#45;&gt;Node2</title>
<g id="a_edge6_Node000005_Node000002"><a xlink:title=" ">
<path fill="none" stroke="#63b8ff" d="M342.09,-27.84C438.15,-42.3 599.52,-66.61 693.67,-80.79"/>
<polygon fill="#63b8ff" stroke="#63b8ff" points="342.9,-24.42 332.49,-26.39 341.86,-31.34 342.9,-24.42"/>
</a>
</g>
</g>
<!-- Node6&#45;&gt;Node3 -->
<g id="edge8_Node000006_Node000003" class="edge">
<title>Node6&#45;&gt;Node3</title>
<g id="a_edge8_Node000006_Node000003"><a xlink:title=" ">
<path fill="none" stroke="#63b8ff" d="M350.6,-147.88C391.87,-144.95 441.86,-141.36 486.75,-138 498.24,-137.14 510.46,-136.21 522.31,-135.29"/>
<polygon fill="#63b8ff" stroke="#63b8ff" points="350.44,-144.39 340.71,-148.59 350.93,-151.37 350.44,-144.39"/>
</a>
</g>
</g>
<!-- Node7&#45;&gt;Node8 -->
<g id="edge10_Node000007_Node000008" class="edge">
<title>Node7&#45;&gt;Node8</title>
<g id="a_edge10_Node000007_Node000008"><a xlink:title=" ">
<path fill="none" stroke="#63b8ff" d="M207.66,-86.66C200.41,-89.68 193.11,-92.83 186.25,-96 158.19,-108.94 127.12,-125.52 105.15,-137.64"/>
<polygon fill="#63b8ff" stroke="#63b8ff" points="208.86,-89.95 216.79,-82.93 206.21,-83.47 208.86,-89.95"/>
</a>
</g>
</g>
<!-- Node8&#45;&gt;Node3 -->
<g id="edge11_Node000008_Node000003" class="edge">
<title>Node8&#45;&gt;Node3</title>
<g id="a_edge11_Node000008_Node000003"><a xlink:title=" ">
<path fill="none" stroke="#63b8ff" d="M148.34,-172.81C160.9,-175.38 173.89,-177.62 186.25,-179 319.36,-193.92 355.5,-182.76 486.75,-156 508.36,-151.59 532.26,-145.61 551.56,-140.49"/>
<polygon fill="#63b8ff" stroke="#63b8ff" points="149.44,-169.46 138.93,-170.78 147.97,-176.31 149.44,-169.46"/>
</a>
</g>
</g>
<!-- Node8&#45;&gt;Node4 -->
<g id="edge13_Node000008_Node000004" class="edge">
<title>Node8&#45;&gt;Node4</title>
<g id="a_edge13_Node000008_Node000004"><a xlink:title=" ">
<path fill="none" stroke="#63b8ff" d="M155.5,-135.14C165.82,-132.94 176.27,-130.83 186.25,-129 250.49,-117.24 324.92,-107.4 374.41,-101.37"/>
<polygon fill="#63b8ff" stroke="#63b8ff" points="154.88,-131.69 145.86,-137.24 156.37,-138.53 154.88,-131.69"/>
</a>
</g>
</g>
<!-- Node8&#45;&gt;Node8 -->
<g id="edge12_Node000008_Node000008" class="edge">
<title>Node8&#45;&gt;Node8</title>
<g id="a_edge12_Node000008_Node000008"><a xlink:title=" ">
<path fill="none" stroke="#63b8ff" d="M106.35,-181.71C101.14,-185.48 90.74,-188 75.12,-188 46.58,-188 35.43,-179.58 41.67,-170.44"/>
<polygon fill="#63b8ff" stroke="#63b8ff" points="109.78,-182.42 108.28,-171.93 102.91,-181.06 109.78,-182.42"/>
</a>
</g>
</g>
</g>
</svg>
