<?xml version="1.0" encoding="UTF-8" standalone="no"?>
<!DOCTYPE svg PUBLIC "-//W3C//DTD SVG 1.1//EN"
 "http://www.w3.org/Graphics/SVG/1.1/DTD/svg11.dtd">
<!-- Generated by graphviz version 12.2.1 (20241206.2353)
 -->
<!-- Title: domini.jugadors.Avatar.incrementarPartidesGuanyadesJugador Pages: 1 -->
<!--zoomable 90 -->

<svg id="main" version="1.1" xmlns="http://www.w3.org/2000/svg" xmlns:xlink="http://www.w3.org/1999/xlink" xml:space="preserve" onload="init(evt)">

<style type="text/css"><![CDATA[
.node, .edge {opacity: 0.7;}
.node.selected, .edge.selected {opacity: 1;}
.edge:hover path { stroke: red; }
.edge:hover polygon { stroke: red; fill: red; }
]]></style>

<defs>
  <circle id="rim" cx="0" cy="0" r="7"/>
  <circle id="rim2" cx="0" cy="0" r="3.5"/>
  <g id="zoomPlus">
    <use xlink:href="#rim" fill="#404040"><set attributeName="fill" to="#808080" begin="zoomplus.mouseover" end="zoomplus.mouseout"/></use>
    <path d="M-4,0h8M0,-4v8" fill="none" stroke="white" stroke-width="1.5" pointer-events="none"/>
  </g>
  <g id="zoomMin">
    <use xlink:href="#rim" fill="#404040"><set attributeName="fill" to="#808080" begin="zoomminus.mouseover" end="zoomminus.mouseout"/></use>
    <path d="M-4,0h8" fill="none" stroke="white" stroke-width="1.5" pointer-events="none"/>
  </g>
  <g id="arrowUp" transform="translate(30 24)">
    <use xlink:href="#rim"/>
    <path pointer-events="none" fill="none" stroke="white" stroke-width="1.5" d="M0,-3.0v7 M-2.5,-0.5L0,-3.0L2.5,-0.5"/>
  </g>
  <g id="arrowRight" transform="rotate(90) translate(36 -43)">
    <use xlink:href="#rim"/>
    <path pointer-events="none" fill="none" stroke="white" stroke-width="1.5" d="M0,-3.0v7 M-2.5,-0.5L0,-3.0L2.5,-0.5"/>
  </g>
  <g id="arrowDown" transform="rotate(180) translate(-30 -48)">
    <use xlink:href="#rim"/>
    <path pointer-events="none" fill="none" stroke="white" stroke-width="1.5" d="M0,-3.0v7 M-2.5,-0.5L0,-3.0L2.5,-0.5"/>
  </g>
  <g id="arrowLeft" transform="rotate(270) translate(-36 17)">
    <use xlink:href="#rim"/>
    <path pointer-events="none" fill="none" stroke="white" stroke-width="1.5" d="M0,-3.0v7 M-2.5,-0.5L0,-3.0L2.5,-0.5"/>
  </g>
  <g id="resetDef">
    <use xlink:href="#rim2" fill="#404040"><set attributeName="fill" to="#808080" begin="reset.mouseover" end="reset.mouseout"/></use>
  </g>
</defs>
<script type="application/ecmascript">
var viewWidth = 755;
var viewHeight = 90;
var sectionId = 'dynsection-13';
</script>
<script type="application/ecmascript" xlink:href="svg.min.js"/>
<svg id="graph" class="graph">
<g id="viewport">
<title>domini.jugadors.Avatar.incrementarPartidesGuanyadesJugador</title>
<!-- Node1 -->
<g id="Node000001" class="node">
<title>Node1</title>
<g id="a_Node000001"><a xlink:title="Incrementa el nombre de partides guanyades contra altres jugadors.">
<polygon fill="#999999" stroke="#666666" points="747.25,-57 577.5,-57 577.5,-25 747.25,-25 747.25,-57"/>
<text text-anchor="start" x="585.5" y="-43.5" font-family="Helvetica,sans-Serif" font-size="10.00">domini.jugadors.Avatar.incrementar</text>
<text text-anchor="middle" x="662.38" y="-31.5" font-family="Helvetica,sans-Serif" font-size="10.00">PartidesGuanyadesJugador</text>
</a>
</g>
</g>
<!-- Node2 -->
<g id="Node000002" class="node">
<title>Node2</title>
<g id="a_Node000002"><a xlink:href="classcontroladors_1_1_ctrl_partida.html#a15489fe587b7fe577bd1c4be09c58e6e" target="_top" xlink:title="El jugador actual abandona la partida.">
<polygon fill="white" stroke="#666666" points="541.5,-82 374.75,-82 374.75,-50 541.5,-50 541.5,-82"/>
<text text-anchor="start" x="382.75" y="-68.5" font-family="Helvetica,sans-Serif" font-size="10.00">controladors.CtrlPartida.abandonar</text>
<text text-anchor="middle" x="458.12" y="-56.5" font-family="Helvetica,sans-Serif" font-size="10.00">Partida</text>
</a>
</g>
</g>
<!-- Node1&#45;&gt;Node2 -->
<g id="edge1_Node000001_Node000002" class="edge">
<title>Node1&#45;&gt;Node2</title>
<g id="a_edge1_Node000001_Node000002"><a xlink:title=" ">
<path fill="none" stroke="#63b8ff" d="M565.85,-52.81C557.88,-53.79 549.86,-54.78 542,-55.76"/>
<polygon fill="#63b8ff" stroke="#63b8ff" points="566.07,-56.31 575.57,-51.61 565.21,-49.36 566.07,-56.31"/>
</a>
</g>
</g>
<!-- Node3 -->
<g id="Node000003" class="node">
<title>Node3</title>
<g id="a_Node000003"><a xlink:href="classcontroladors_1_1_ctrl_partida.html#a98e85139630d752ac3e94d8a540aba0c" target="_top" xlink:title="Finalitza la partida si s&#39;han passat torns consecutius sense acció.">
<polygon fill="white" stroke="#666666" points="537.38,-32 378.88,-32 378.88,0 537.38,0 537.38,-32"/>
<text text-anchor="start" x="386.88" y="-18.5" font-family="Helvetica,sans-Serif" font-size="10.00">controladors.CtrlPartida.finalitzar</text>
<text text-anchor="middle" x="458.12" y="-6.5" font-family="Helvetica,sans-Serif" font-size="10.00">PerTornsConsecutius</text>
</a>
</g>
</g>
<!-- Node1&#45;&gt;Node3 -->
<g id="edge2_Node000001_Node000003" class="edge">
<title>Node1&#45;&gt;Node3</title>
<g id="a_edge2_Node000001_Node000003"><a xlink:title=" ">
<path fill="none" stroke="#63b8ff" d="M565.71,-29.18C556.36,-28.02 546.95,-26.86 537.8,-25.72"/>
<polygon fill="#63b8ff" stroke="#63b8ff" points="565.21,-32.64 575.57,-30.39 566.07,-25.69 565.21,-32.64"/>
</a>
</g>
</g>
<!-- Node4 -->
<g id="Node000004" class="node">
<title>Node4</title>
<g id="a_Node000004"><a xlink:href="classcontroladors_1_1_ctrl_partida.html#a2c8fdc3b9f3ee33aae30bd0e0d1f09b7" target="_top" xlink:title="Passa el torn al següent jugador.">
<polygon fill="white" stroke="#666666" points="338.75,-26 169,-26 169,-6 338.75,-6 338.75,-26"/>
<text text-anchor="middle" x="253.88" y="-12.5" font-family="Helvetica,sans-Serif" font-size="10.00">controladors.CtrlPartida.passarTorn</text>
</a>
</g>
</g>
<!-- Node3&#45;&gt;Node4 -->
<g id="edge3_Node000003_Node000004" class="edge">
<title>Node3&#45;&gt;Node4</title>
<g id="a_edge3_Node000003_Node000004"><a xlink:title=" ">
<path fill="none" stroke="#63b8ff" d="M367.26,-16C357.87,-16 348.34,-16 339.01,-16"/>
<polygon fill="#63b8ff" stroke="#63b8ff" points="367.13,-19.5 377.13,-16 367.13,-12.5 367.13,-19.5"/>
</a>
</g>
</g>
<!-- Node5 -->
<g id="Node000005" class="node">
<title>Node5</title>
<g id="a_Node000005"><a xlink:href="classcontroladors_1_1_ctrl_partida.html#afa4340f6a2cb198455d536ccaf87717b" target="_top" xlink:title="Gestiona el desenvolupament de la jugada de la màquina.">
<polygon fill="white" stroke="#666666" points="133,-32 0,-32 0,0 133,0 133,-32"/>
<text text-anchor="start" x="8" y="-18.5" font-family="Helvetica,sans-Serif" font-size="10.00">controladors.CtrlPartida.fer</text>
<text text-anchor="middle" x="66.5" y="-6.5" font-family="Helvetica,sans-Serif" font-size="10.00">JugadaMaquina</text>
</a>
</g>
</g>
<!-- Node4&#45;&gt;Node5 -->
<g id="edge4_Node000004_Node000005" class="edge">
<title>Node4&#45;&gt;Node5</title>
<g id="a_edge4_Node000004_Node000005"><a xlink:title=" ">
<path fill="none" stroke="#63b8ff" d="M157.17,-16C149.08,-16 141.02,-16 133.25,-16"/>
<polygon fill="#63b8ff" stroke="#63b8ff" points="157.08,-19.5 167.08,-16 157.08,-12.5 157.08,-19.5"/>
</a>
</g>
</g>
</g>
</svg>

<g id="navigator" transform="translate(0 0)" fill="#404254">
  <rect fill="#f2f5e9" fill-opacity="0.5" stroke="#606060" stroke-width=".5" x="0" y="0" width="60" height="60"/>
  <use id="zoomplus" xlink:href="#zoomPlus" x="17" y="9" onmousedown="handleZoom(evt,'in')"/>
  <use id="zoomminus" xlink:href="#zoomMin" x="42" y="9" onmousedown="handleZoom(evt,'out')"/>
  <use id="reset" xlink:href="#resetDef" x="30" y="36" onmousedown="handleReset()"/>
   <use id="arrowup" xlink:href="#arrowUp" x="0" y="0" onmousedown="handlePan(0,-1)"/>
  <use id="arrowright" xlink:href="#arrowRight" x="0" y="0" onmousedown="handlePan(1,0)"/>
  <use id="arrowdown" xlink:href="#arrowDown" x="0" y="0" onmousedown="handlePan(0,1)"/>
  <use id="arrowleft" xlink:href="#arrowLeft" x="0" y="0" onmousedown="handlePan(-1,0)"/>
</g>
<svg viewBox="0 0 15 15" width="100%" height="30px" preserveAspectRatio="xMaxYMin meet">
 <g id="arrow_out" transform="scale(0.3 0.3)">
  <a xlink:href="classdomini_1_1jugadors_1_1_avatar_a750332bc2deadb604d43d1a0936a09d2_icgraph_org.svg" target="_base">
   <rect id="button" ry="5" rx="5" y="6" x="6" height="38" width="38"
        fill="#f2f5e9" fill-opacity="0.5" stroke="#606060" stroke-width="1.0"/>
   <path id="arrow"
     d="M 11.500037,31.436501 C 11.940474,20.09759 22.043105,11.32322 32.158766,21.979434 L 37.068811,17.246167 C 37.068811,17.246167 37.088388,32 37.088388,32 L 22.160133,31.978069 C 22.160133,31.978069 26.997745,27.140456 26.997745,27.140456 C 18.528582,18.264221 13.291696,25.230495 11.500037,31.436501 z"
     style="fill:#404040;"/>
  </a>
 </g>
</svg>

<style type='text/css'>
<![CDATA[
[data-mouse-over-selected='false'] { opacity: 0.7; }
[data-mouse-over-selected='true']  { opacity: 1.0; }
]]>
</style>
<script type="application/ecmascript"><![CDATA[
document.addEventListener('DOMContentLoaded', (event) => {
  highlightEdges();
  highlightAdjacentNodes();
});
]]></script>
</svg>
