<?xml version="1.0" encoding="UTF-8" standalone="no"?>
<!DOCTYPE svg PUBLIC "-//W3C//DTD SVG 1.1//EN"
 "http://www.w3.org/Graphics/SVG/1.1/DTD/svg11.dtd">
<!-- Generated by graphviz version 12.2.1 (20241206.2353)
 -->
<!-- Title: controladors.CtrlPartida.carregarPartida Pages: 1 -->
<svg width="811pt" height="78pt"
 viewBox="0.00 0.00 810.75 78.00" xmlns="http://www.w3.org/2000/svg" xmlns:xlink="http://www.w3.org/1999/xlink">
<g id="graph0" class="graph" transform="scale(1 1) rotate(0) translate(4 74)">
<title>controladors.CtrlPartida.carregarPartida</title>
<!-- Node1 -->
<g id="Node000001" class="node">
<title>Node1</title>
<g id="a_Node000001"><a xlink:title="Carrega una partida existent.">
<polygon fill="#999999" stroke="#666666" points="157,-54 0,-54 0,-22 157,-22 157,-54"/>
<text text-anchor="start" x="8" y="-40.5" font-family="Helvetica,sans-Serif" font-size="10.00">controladors.CtrlPartida.carregar</text>
<text text-anchor="middle" x="78.5" y="-28.5" font-family="Helvetica,sans-Serif" font-size="10.00">Partida</text>
</a>
</g>
</g>
<!-- Node2 -->
<g id="Node000002" class="node">
<title>Node2</title>
<g id="a_Node000002"><a xlink:href="classdomini_1_1diccionari_1_1_d_a_w_g.html#a0e940935fc1a6e9b34df72a5f2a78c85" target="_top" xlink:title="Genera un DAWG a partir d&#39;un fitxer amb un format específic.">
<polygon fill="white" stroke="#666666" points="396.5,-70 193,-70 193,-50 396.5,-50 396.5,-70"/>
<text text-anchor="middle" x="294.75" y="-56.5" font-family="Helvetica,sans-Serif" font-size="10.00">domini.diccionari.DAWG.dictionary2DAWG</text>
</a>
</g>
</g>
<!-- Node1&#45;&gt;Node2 -->
<g id="edge1_Node000001_Node000002" class="edge">
<title>Node1&#45;&gt;Node2</title>
<g id="a_edge1_Node000001_Node000002"><a xlink:title=" ">
<path fill="none" stroke="#63b8ff" d="M157.46,-46C165.26,-46.81 173.29,-47.63 181.36,-48.46"/>
<polygon fill="#63b8ff" stroke="#63b8ff" points="180.97,-51.94 191.28,-49.48 181.69,-44.97 180.97,-51.94"/>
</a>
</g>
</g>
<!-- Node5 -->
<g id="Node000005" class="node">
<title>Node5</title>
<g id="a_Node000005"><a xlink:href="classcontroladors_1_1_ctrl_partida.html#a3f08b463362f9364a6e5d04cc8de0dc2" target="_top" xlink:title="Obté el nom del fitxer del diccionari segons l&#39;idioma.">
<polygon fill="white" stroke="#666666" points="362.38,-32 227.12,-32 227.12,0 362.38,0 362.38,-32"/>
<text text-anchor="start" x="235.12" y="-18.5" font-family="Helvetica,sans-Serif" font-size="10.00">controladors.CtrlPartida.get</text>
<text text-anchor="middle" x="294.75" y="-6.5" font-family="Helvetica,sans-Serif" font-size="10.00">DictionaryFileName</text>
</a>
</g>
</g>
<!-- Node1&#45;&gt;Node5 -->
<g id="edge4_Node000001_Node000005" class="edge">
<title>Node1&#45;&gt;Node5</title>
<g id="a_edge4_Node000001_Node000005"><a xlink:title=" ">
<path fill="none" stroke="#63b8ff" d="M157.46,-30C176.37,-28.05 196.6,-25.98 215.52,-24.03"/>
<polygon fill="#63b8ff" stroke="#63b8ff" points="215.71,-27.53 225.3,-23.03 215,-20.57 215.71,-27.53"/>
</a>
</g>
</g>
<!-- Node3 -->
<g id="Node000003" class="node">
<title>Node3</title>
<g id="a_Node000003"><a xlink:href="classdomini_1_1diccionari_1_1_d_a_w_g.html#a4556b78b36bb9abd60c62c0c67b65c94" target="_top" xlink:title="Modifica el DAWG perquè reconegui la paraula d&#39;entrada com a pertanyent al lèxic.">
<polygon fill="white" stroke="#666666" points="604.5,-70 432.5,-70 432.5,-50 604.5,-50 604.5,-70"/>
<text text-anchor="middle" x="518.5" y="-56.5" font-family="Helvetica,sans-Serif" font-size="10.00">domini.diccionari.DAWG.insertWord</text>
</a>
</g>
</g>
<!-- Node2&#45;&gt;Node3 -->
<g id="edge2_Node000002_Node000003" class="edge">
<title>Node2&#45;&gt;Node3</title>
<g id="a_edge2_Node000002_Node000003"><a xlink:title=" ">
<path fill="none" stroke="#63b8ff" d="M396.89,-60C404.8,-60 412.77,-60 420.64,-60"/>
<polygon fill="#63b8ff" stroke="#63b8ff" points="420.58,-63.5 430.58,-60 420.58,-56.5 420.58,-63.5"/>
</a>
</g>
</g>
<!-- Node4 -->
<g id="Node000004" class="node">
<title>Node4</title>
<g id="a_Node000004"><a xlink:href="classdomini_1_1diccionari_1_1_d_a_w_g.html#ad5db7cc629d77068e51ccae18f9bfebd" target="_top" xlink:title="Genera una llista amb les lletres i dígrafs de la paraula paràmetre.">
<polygon fill="white" stroke="#666666" points="802.75,-70 640.5,-70 640.5,-50 802.75,-50 802.75,-70"/>
<text text-anchor="middle" x="721.62" y="-56.5" font-family="Helvetica,sans-Serif" font-size="10.00">domini.diccionari.DAWG.tokenize</text>
</a>
</g>
</g>
<!-- Node3&#45;&gt;Node4 -->
<g id="edge3_Node000003_Node000004" class="edge">
<title>Node3&#45;&gt;Node4</title>
<g id="a_edge3_Node000003_Node000004"><a xlink:title=" ">
<path fill="none" stroke="#63b8ff" d="M604.8,-60C612.8,-60 620.94,-60 629,-60"/>
<polygon fill="#63b8ff" stroke="#63b8ff" points="628.8,-63.5 638.8,-60 628.8,-56.5 628.8,-63.5"/>
</a>
</g>
</g>
</g>
</svg>
