<?xml version="1.0" encoding="UTF-8" standalone="no"?>
<!DOCTYPE svg PUBLIC "-//W3C//DTD SVG 1.1//EN"
 "http://www.w3.org/Graphics/SVG/1.1/DTD/svg11.dtd">
<!-- Generated by graphviz version 12.2.1 (20241206.2353)
 -->
<!-- Title: controladors.CtrlPersistencia.eliminarPartida Pages: 1 -->
<svg width="385pt" height="90pt"
 viewBox="0.00 0.00 385.00 90.00" xmlns="http://www.w3.org/2000/svg" xmlns:xlink="http://www.w3.org/1999/xlink">
<g id="graph0" class="graph" transform="scale(1 1) rotate(0) translate(4 86)">
<title>controladors.CtrlPersistencia.eliminarPartida</title>
<!-- Node1 -->
<g id="Node000001" class="node">
<title>Node1</title>
<g id="a_Node000001"><a xlink:title="Elimina una partida de l&#39;emmagatzematge persistent.">
<polygon fill="#999999" stroke="#666666" points="377,-57 198.25,-57 198.25,-25 377,-25 377,-57"/>
<text text-anchor="start" x="206.25" y="-43.5" font-family="Helvetica,sans-Serif" font-size="10.00">controladors.CtrlPersistencia.eliminar</text>
<text text-anchor="middle" x="287.62" y="-31.5" font-family="Helvetica,sans-Serif" font-size="10.00">Partida</text>
</a>
</g>
</g>
<!-- Node2 -->
<g id="Node000002" class="node">
<title>Node2</title>
<g id="a_Node000002"><a xlink:href="classcontroladors_1_1_ctrl_domini.html#ac87e23e3544eb1c2e20aa7ea0f97762f" target="_top" xlink:title="Elimina el .json de la partida indicada al paràmetre.">
<polygon fill="white" stroke="#666666" points="158.88,-82 3.38,-82 3.38,-50 158.88,-50 158.88,-82"/>
<text text-anchor="start" x="11.38" y="-68.5" font-family="Helvetica,sans-Serif" font-size="10.00">controladors.CtrlDomini.eliminar</text>
<text text-anchor="middle" x="81.12" y="-56.5" font-family="Helvetica,sans-Serif" font-size="10.00">Partida</text>
</a>
</g>
</g>
<!-- Node1&#45;&gt;Node2 -->
<g id="edge1_Node000001_Node000002" class="edge">
<title>Node1&#45;&gt;Node2</title>
<g id="a_edge1_Node000001_Node000002"><a xlink:title=" ">
<path fill="none" stroke="#63b8ff" d="M186.64,-53.22C177.46,-54.35 168.24,-55.47 159.3,-56.56"/>
<polygon fill="#63b8ff" stroke="#63b8ff" points="186.82,-56.73 196.32,-52.04 185.97,-49.78 186.82,-56.73"/>
</a>
</g>
</g>
<!-- Node3 -->
<g id="Node000003" class="node">
<title>Node3</title>
<g id="a_Node000003"><a xlink:href="classcontroladors_1_1_ctrl_domini.html#a8f8379a74fba56b9e4e82d4c5743360e" target="_top" xlink:title="Continuar partida.">
<polygon fill="white" stroke="#666666" points="162.25,-32 0,-32 0,0 162.25,0 162.25,-32"/>
<text text-anchor="start" x="8" y="-18.5" font-family="Helvetica,sans-Serif" font-size="10.00">controladors.CtrlDomini.reprendre</text>
<text text-anchor="middle" x="81.12" y="-6.5" font-family="Helvetica,sans-Serif" font-size="10.00">Partida</text>
</a>
</g>
</g>
<!-- Node1&#45;&gt;Node3 -->
<g id="edge2_Node000001_Node000003" class="edge">
<title>Node1&#45;&gt;Node3</title>
<g id="a_edge2_Node000001_Node000003"><a xlink:title=" ">
<path fill="none" stroke="#63b8ff" d="M186.48,-28.76C178.43,-27.77 170.37,-26.79 162.49,-25.82"/>
<polygon fill="#63b8ff" stroke="#63b8ff" points="185.97,-32.22 196.32,-29.96 186.82,-25.27 185.97,-32.22"/>
</a>
</g>
</g>
</g>
</svg>
