<?xml version="1.0" encoding="UTF-8" standalone="no"?>
<!DOCTYPE svg PUBLIC "-//W3C//DTD SVG 1.1//EN"
 "http://www.w3.org/Graphics/SVG/1.1/DTD/svg11.dtd">
<!-- Generated by graphviz version 12.2.1 (20241206.2353)
 -->
<!-- Title: persistencia.UsuariIO.eliminarUsuari Pages: 1 -->
<svg width="562pt" height="40pt"
 viewBox="0.00 0.00 561.50 40.00" xmlns="http://www.w3.org/2000/svg" xmlns:xlink="http://www.w3.org/1999/xlink">
<g id="graph0" class="graph" transform="scale(1 1) rotate(0) translate(4 36)">
<title>persistencia.UsuariIO.eliminarUsuari</title>
<!-- Node1 -->
<g id="Node000001" class="node">
<title>Node1</title>
<g id="a_Node000001"><a xlink:title="Elimina un usuari esborrant el seu fitxer JSON.">
<polygon fill="#999999" stroke="#666666" points="553.5,-32 406.25,-32 406.25,0 553.5,0 553.5,-32"/>
<text text-anchor="start" x="414.25" y="-18.5" font-family="Helvetica,sans-Serif" font-size="10.00">persistencia.UsuariIO.eliminar</text>
<text text-anchor="middle" x="479.88" y="-6.5" font-family="Helvetica,sans-Serif" font-size="10.00">Usuari</text>
</a>
</g>
</g>
<!-- Node2 -->
<g id="Node000002" class="node">
<title>Node2</title>
<g id="a_Node000002"><a xlink:href="$classcontroladors_1_1_ctrl_persistencia.html#ae1e8c88230469b75e9aece365028e9ad" xlink:title="Elimina un usuari de l&#39;emmagatzematge persistent.">
<polygon fill="white" stroke="#666666" points="370.25,-32 191.5,-32 191.5,0 370.25,0 370.25,-32"/>
<text text-anchor="start" x="199.5" y="-18.5" font-family="Helvetica,sans-Serif" font-size="10.00">controladors.CtrlPersistencia.eliminar</text>
<text text-anchor="middle" x="280.88" y="-6.5" font-family="Helvetica,sans-Serif" font-size="10.00">Usuari</text>
</a>
</g>
</g>
<!-- Node1&#45;&gt;Node2 -->
<g id="edge1_Node000001_Node000002" class="edge">
<title>Node1&#45;&gt;Node2</title>
<g id="a_edge1_Node000001_Node000002"><a xlink:title=" ">
<path fill="none" stroke="#63b8ff" d="M394.35,-16C386.45,-16 378.44,-16 370.51,-16"/>
<polygon fill="#63b8ff" stroke="#63b8ff" points="394.29,-19.5 404.29,-16 394.29,-12.5 394.29,-19.5"/>
</a>
</g>
</g>
<!-- Node3 -->
<g id="Node000003" class="node">
<title>Node3</title>
<g id="a_Node000003"><a xlink:href="$classcontroladors_1_1_ctrl_domini.html#a34432049ad1864a2b638b590d38b343d" xlink:title="Elimina un usuari.">
<polygon fill="white" stroke="#666666" points="155.5,-32 0,-32 0,0 155.5,0 155.5,-32"/>
<text text-anchor="start" x="8" y="-18.5" font-family="Helvetica,sans-Serif" font-size="10.00">controladors.CtrlDomini.eliminar</text>
<text text-anchor="middle" x="77.75" y="-6.5" font-family="Helvetica,sans-Serif" font-size="10.00">Usuari</text>
</a>
</g>
</g>
<!-- Node2&#45;&gt;Node3 -->
<g id="edge2_Node000002_Node000003" class="edge">
<title>Node2&#45;&gt;Node3</title>
<g id="a_edge2_Node000002_Node000003"><a xlink:title=" ">
<path fill="none" stroke="#63b8ff" d="M179.7,-16C171.64,-16 163.58,-16 155.72,-16"/>
<polygon fill="#63b8ff" stroke="#63b8ff" points="179.56,-19.5 189.56,-16 179.56,-12.5 179.56,-19.5"/>
</a>
</g>
</g>
</g>
</svg>
