<?xml version="1.0" encoding="UTF-8" standalone="no"?>
<!DOCTYPE svg PUBLIC "-//W3C//DTD SVG 1.1//EN"
 "http://www.w3.org/Graphics/SVG/1.1/DTD/svg11.dtd">
<!-- Generated by graphviz version 12.2.1 (20241206.2353)
 -->
<!-- Title: domini.scrabble.Bossa.clearBossa Pages: 1 -->
<svg width="488pt" height="90pt"
 viewBox="0.00 0.00 488.00 90.00" xmlns="http://www.w3.org/2000/svg" xmlns:xlink="http://www.w3.org/1999/xlink">
<g id="graph0" class="graph" transform="scale(1 1) rotate(0) translate(4 86)">
<title>domini.scrabble.Bossa.clearBossa</title>
<!-- Node1 -->
<g id="Node000001" class="node">
<title>Node1</title>
<g id="a_Node000001"><a xlink:title="Buida la bossa i l&#39;omple amb les fitxes proporcionades.">
<polygon fill="#999999" stroke="#666666" points="139,-57 0,-57 0,-25 139,-25 139,-57"/>
<text text-anchor="start" x="8" y="-43.5" font-family="Helvetica,sans-Serif" font-size="10.00">domini.scrabble.Bossa.clear</text>
<text text-anchor="middle" x="69.5" y="-31.5" font-family="Helvetica,sans-Serif" font-size="10.00">Bossa</text>
</a>
</g>
</g>
<!-- Node2 -->
<g id="Node000002" class="node">
<title>Node2</title>
<g id="a_Node000002"><a xlink:href="classdomini_1_1auxiliars_1_1_fast_delete_list.html#a980586fffd42cc58377054b38c75a05f" target="_top" xlink:title="Afegeix tots els elements de la llista proporcionada.">
<polygon fill="white" stroke="#666666" points="309.5,-82 175,-82 175,-50 309.5,-50 309.5,-82"/>
<text text-anchor="start" x="183" y="-68.5" font-family="Helvetica,sans-Serif" font-size="10.00">domini.auxiliars.FastDelete</text>
<text text-anchor="middle" x="242.25" y="-56.5" font-family="Helvetica,sans-Serif" font-size="10.00">List.addAll</text>
</a>
</g>
</g>
<!-- Node1&#45;&gt;Node2 -->
<g id="edge1_Node000001_Node000002" class="edge">
<title>Node1&#45;&gt;Node2</title>
<g id="a_edge1_Node000001_Node000002"><a xlink:title=" ">
<path fill="none" stroke="#63b8ff" d="M139.46,-51.1C147.32,-52.25 155.38,-53.43 163.35,-54.59"/>
<polygon fill="#63b8ff" stroke="#63b8ff" points="162.63,-58.03 173.03,-56.01 163.64,-51.1 162.63,-58.03"/>
</a>
</g>
</g>
<!-- Node4 -->
<g id="Node000004" class="node">
<title>Node4</title>
<g id="a_Node000004"><a xlink:href="classdomini_1_1auxiliars_1_1_fast_delete_list.html#ac75d0a7d1aa033c7c42d59468bb3d955" target="_top" xlink:title="Elimina tots els elements de la lista.">
<polygon fill="white" stroke="#666666" points="309.5,-32 175,-32 175,0 309.5,0 309.5,-32"/>
<text text-anchor="start" x="183" y="-18.5" font-family="Helvetica,sans-Serif" font-size="10.00">domini.auxiliars.FastDelete</text>
<text text-anchor="middle" x="242.25" y="-6.5" font-family="Helvetica,sans-Serif" font-size="10.00">List.clear</text>
</a>
</g>
</g>
<!-- Node1&#45;&gt;Node4 -->
<g id="edge3_Node000001_Node000004" class="edge">
<title>Node1&#45;&gt;Node4</title>
<g id="a_edge3_Node000001_Node000004"><a xlink:title=" ">
<path fill="none" stroke="#63b8ff" d="M139.46,-30.9C147.32,-29.75 155.38,-28.57 163.35,-27.41"/>
<polygon fill="#63b8ff" stroke="#63b8ff" points="163.64,-30.9 173.03,-25.99 162.63,-23.97 163.64,-30.9"/>
</a>
</g>
</g>
<!-- Node3 -->
<g id="Node000003" class="node">
<title>Node3</title>
<g id="a_Node000003"><a xlink:href="classdomini_1_1auxiliars_1_1_fast_delete_list.html#a29d6683c418cf18c5462bb4b30949cb1" target="_top" xlink:title="Afegeix un element al final de la llista.">
<polygon fill="white" stroke="#666666" points="480,-82 345.5,-82 345.5,-50 480,-50 480,-82"/>
<text text-anchor="start" x="353.5" y="-68.5" font-family="Helvetica,sans-Serif" font-size="10.00">domini.auxiliars.FastDelete</text>
<text text-anchor="middle" x="412.75" y="-56.5" font-family="Helvetica,sans-Serif" font-size="10.00">List.add</text>
</a>
</g>
</g>
<!-- Node2&#45;&gt;Node3 -->
<g id="edge2_Node000002_Node000003" class="edge">
<title>Node2&#45;&gt;Node3</title>
<g id="a_edge2_Node000002_Node000003"><a xlink:title=" ">
<path fill="none" stroke="#63b8ff" d="M309.85,-66C317.72,-66 325.82,-66 333.83,-66"/>
<polygon fill="#63b8ff" stroke="#63b8ff" points="333.57,-69.5 343.57,-66 333.57,-62.5 333.57,-69.5"/>
</a>
</g>
</g>
</g>
</svg>
