<?xml version="1.0" encoding="UTF-8" standalone="no"?>
<!DOCTYPE svg PUBLIC "-//W3C//DTD SVG 1.1//EN"
 "http://www.w3.org/Graphics/SVG/1.1/DTD/svg11.dtd">
<!-- Generated by graphviz version 12.2.1 (20241206.2353)
 -->
<!-- Title: interficie.VistaConsultarRanking.VistaConsultarRanking Pages: 1 -->
<svg width="1473pt" height="128pt"
 viewBox="0.00 0.00 1473.25 128.00" xmlns="http://www.w3.org/2000/svg" xmlns:xlink="http://www.w3.org/1999/xlink">
<g id="graph0" class="graph" transform="scale(1 1) rotate(0) translate(4 124)">
<title>interficie.VistaConsultarRanking.VistaConsultarRanking</title>
<!-- Node1 -->
<g id="Node000001" class="node">
<title>Node1</title>
<g id="a_Node000001"><a xlink:title="Constructor de la classe.">
<polygon fill="#999999" stroke="#666666" points="155.5,-70 0,-70 0,-38 155.5,-38 155.5,-70"/>
<text text-anchor="start" x="8" y="-56.5" font-family="Helvetica,sans-Serif" font-size="10.00">interficie.VistaConsultar</text>
<text text-anchor="middle" x="77.75" y="-44.5" font-family="Helvetica,sans-Serif" font-size="10.00">Ranking.VistaConsultarRanking</text>
</a>
</g>
</g>
<!-- Node1&#45;&gt;Node1 -->
<g id="edge12_Node000001_Node000001" class="edge">
<title>Node1&#45;&gt;Node1</title>
<g id="a_edge12_Node000001_Node000001"><a xlink:title=" ">
<path fill="none" stroke="#63b8ff" d="M42.49,-70.44C35.91,-79.58 47.66,-88 77.75,-88 94.2,-88 105.18,-85.48 110.66,-81.71"/>
<polygon fill="#63b8ff" stroke="#63b8ff" points="114.09,-82.43 112.7,-71.92 107.23,-81 114.09,-82.43"/>
</a>
</g>
</g>
<!-- Node2 -->
<g id="Node000002" class="node">
<title>Node2</title>
<g id="a_Node000002"><a xlink:href="$classinterficie_1_1utils_1_1_tools.html#aad14ef36a2a433a18d49c46a83531892" xlink:title="Actualitza la imatge d&#39;un JLabel redimensionant&#45;la per adaptar&#45;se a les mides màximes indicades mante...">
<polygon fill="white" stroke="#666666" points="349.25,-120 201.25,-120 201.25,-88 349.25,-88 349.25,-120"/>
<text text-anchor="start" x="209.25" y="-106.5" font-family="Helvetica,sans-Serif" font-size="10.00">interficie.utils.Tools.actualitzar</text>
<text text-anchor="middle" x="275.25" y="-94.5" font-family="Helvetica,sans-Serif" font-size="10.00">Imatge</text>
</a>
</g>
</g>
<!-- Node1&#45;&gt;Node2 -->
<g id="edge1_Node000001_Node000002" class="edge">
<title>Node1&#45;&gt;Node2</title>
<g id="a_edge1_Node000001_Node000002"><a xlink:title=" ">
<path fill="none" stroke="#63b8ff" d="M143.03,-70.44C160.91,-75.01 180.47,-80.02 198.92,-84.73"/>
<polygon fill="#63b8ff" stroke="#63b8ff" points="197.9,-88.09 208.46,-87.17 199.64,-81.31 197.9,-88.09"/>
</a>
</g>
</g>
<!-- Node3 -->
<g id="Node000003" class="node">
<title>Node3</title>
<g id="a_Node000003"><a xlink:href="$classinterficie_1_1_vista_consultar_ranking.html#ac8bcd1db92441badfd8650cd3c54025b" xlink:title="Carrega i mostra el rànquing a partir del límit indicat.">
<polygon fill="white" stroke="#666666" points="338.38,-70 212.12,-70 212.12,-38 338.38,-38 338.38,-70"/>
<text text-anchor="start" x="220.12" y="-56.5" font-family="Helvetica,sans-Serif" font-size="10.00">interficie.VistaConsultar</text>
<text text-anchor="middle" x="275.25" y="-44.5" font-family="Helvetica,sans-Serif" font-size="10.00">Ranking.carregarRanking</text>
</a>
</g>
</g>
<!-- Node1&#45;&gt;Node3 -->
<g id="edge2_Node000001_Node000003" class="edge">
<title>Node1&#45;&gt;Node3</title>
<g id="a_edge2_Node000001_Node000003"><a xlink:title=" ">
<path fill="none" stroke="#63b8ff" d="M155.74,-47.39C170.41,-47.19 185.73,-47.21 200.3,-47.43"/>
<polygon fill="#63b8ff" stroke="#63b8ff" points="200.22,-50.93 210.29,-47.63 200.36,-43.93 200.22,-50.93"/>
</a>
</g>
</g>
<!-- Node11 -->
<g id="Node000011" class="node">
<title>Node11</title>
<g id="a_Node000011"><a xlink:href="$classcontroladors_1_1_ctrl_presentacio.html#a66901a833c124fd1acc592cea93f4e6d" xlink:title="Torna a la vista anterior a l&#39;actual.">
<polygon fill="white" stroke="#666666" points="359,-20 191.5,-20 191.5,0 359,0 359,-20"/>
<text text-anchor="middle" x="275.25" y="-6.5" font-family="Helvetica,sans-Serif" font-size="10.00">controladors.CtrlPresentacio.tornar</text>
</a>
</g>
</g>
<!-- Node1&#45;&gt;Node11 -->
<g id="edge11_Node000001_Node000011" class="edge">
<title>Node1&#45;&gt;Node11</title>
<g id="a_edge11_Node000001_Node000011"><a xlink:title=" ">
<path fill="none" stroke="#63b8ff" d="M151.82,-37.55C173.24,-32.73 196.34,-27.53 216.65,-22.96"/>
<polygon fill="#63b8ff" stroke="#63b8ff" points="217.15,-26.44 226.14,-20.83 215.61,-19.61 217.15,-26.44"/>
</a>
</g>
</g>
<!-- Node3&#45;&gt;Node1 -->
<g id="edge10_Node000003_Node000001" class="edge">
<title>Node3&#45;&gt;Node1</title>
<g id="a_edge10_Node000003_Node000001"><a xlink:title=" ">
<path fill="none" stroke="#63b8ff" d="M211.8,-60.34C197.59,-60.68 182.23,-60.81 167.17,-60.72"/>
<polygon fill="#63b8ff" stroke="#63b8ff" points="167.28,-57.22 157.25,-60.63 167.22,-64.22 167.28,-57.22"/>
</a>
</g>
</g>
<!-- Node4 -->
<g id="Node000004" class="node">
<title>Node4</title>
<g id="a_Node000004"><a xlink:href="$classcontroladors_1_1_ctrl_presentacio.html#acaf9b6cf3f40d88428b5d77b735e8856" xlink:title="Obté el rànquing global d&#39;avatares limitat a un cert nombre.">
<polygon fill="white" stroke="#666666" points="551.25,-70 395,-70 395,-38 551.25,-38 551.25,-70"/>
<text text-anchor="start" x="403" y="-56.5" font-family="Helvetica,sans-Serif" font-size="10.00">controladors.CtrlPresentacio.get</text>
<text text-anchor="middle" x="473.12" y="-44.5" font-family="Helvetica,sans-Serif" font-size="10.00">Ranking</text>
</a>
</g>
</g>
<!-- Node3&#45;&gt;Node4 -->
<g id="edge3_Node000003_Node000004" class="edge">
<title>Node3&#45;&gt;Node4</title>
<g id="a_edge3_Node000003_Node000004"><a xlink:title=" ">
<path fill="none" stroke="#63b8ff" d="M338.76,-54C352.95,-54 368.28,-54 383.32,-54"/>
<polygon fill="#63b8ff" stroke="#63b8ff" points="383.23,-57.5 393.23,-54 383.23,-50.5 383.23,-57.5"/>
</a>
</g>
</g>
<!-- Node5 -->
<g id="Node000005" class="node">
<title>Node5</title>
<g id="a_Node000005"><a xlink:href="$classcontroladors_1_1_ctrl_domini.html#ab9f3147d91bf87174cee2fbad80eebd0" xlink:title="Retorna la instancia del controlador de domini.">
<polygon fill="white" stroke="#666666" points="722.5,-95 587.25,-95 587.25,-63 722.5,-63 722.5,-95"/>
<text text-anchor="start" x="595.25" y="-81.5" font-family="Helvetica,sans-Serif" font-size="10.00">controladors.CtrlDomini.get</text>
<text text-anchor="middle" x="654.88" y="-69.5" font-family="Helvetica,sans-Serif" font-size="10.00">Instancia</text>
</a>
</g>
</g>
<!-- Node4&#45;&gt;Node5 -->
<g id="edge4_Node000004_Node000005" class="edge">
<title>Node4&#45;&gt;Node5</title>
<g id="a_edge4_Node000004_Node000005"><a xlink:title=" ">
<path fill="none" stroke="#63b8ff" d="M551.66,-64.78C559.6,-65.89 567.68,-67.01 575.63,-68.12"/>
<polygon fill="#63b8ff" stroke="#63b8ff" points="574.88,-71.55 585.26,-69.46 575.84,-64.61 574.88,-71.55"/>
</a>
</g>
</g>
<!-- Node10 -->
<g id="Node000010" class="node">
<title>Node10</title>
<g id="a_Node000010"><a xlink:href="$classcontroladors_1_1_ctrl_domini.html#af193b59e8b449c485c7a1b299f5f250e" xlink:title="Obté el ranking del numero de jugadors indicat.">
<polygon fill="white" stroke="#666666" points="722.5,-45 587.25,-45 587.25,-13 722.5,-13 722.5,-45"/>
<text text-anchor="start" x="595.25" y="-31.5" font-family="Helvetica,sans-Serif" font-size="10.00">controladors.CtrlDomini.get</text>
<text text-anchor="middle" x="654.88" y="-19.5" font-family="Helvetica,sans-Serif" font-size="10.00">RankingGlobalLimitat</text>
</a>
</g>
</g>
<!-- Node4&#45;&gt;Node10 -->
<g id="edge9_Node000004_Node000010" class="edge">
<title>Node4&#45;&gt;Node10</title>
<g id="a_edge9_Node000004_Node000010"><a xlink:title=" ">
<path fill="none" stroke="#63b8ff" d="M551.66,-43.22C559.6,-42.11 567.68,-40.99 575.63,-39.88"/>
<polygon fill="#63b8ff" stroke="#63b8ff" points="575.84,-43.39 585.26,-38.54 574.88,-36.45 575.84,-43.39"/>
</a>
</g>
</g>
<!-- Node6 -->
<g id="Node000006" class="node">
<title>Node6</title>
<g id="a_Node000006"><a xlink:href="$classcontroladors_1_1_ctrl_domini.html#a7648cc0064b988072993a90846e84d38" xlink:title="Constructor de la classe Ctrl_Domini.">
<polygon fill="white" stroke="#666666" points="880.25,-95 758.5,-95 758.5,-63 880.25,-63 880.25,-95"/>
<text text-anchor="start" x="766.5" y="-81.5" font-family="Helvetica,sans-Serif" font-size="10.00">controladors.CtrlDomini.</text>
<text text-anchor="middle" x="819.38" y="-69.5" font-family="Helvetica,sans-Serif" font-size="10.00">CtrlDomini</text>
</a>
</g>
</g>
<!-- Node5&#45;&gt;Node6 -->
<g id="edge5_Node000005_Node000006" class="edge">
<title>Node5&#45;&gt;Node6</title>
<g id="a_edge5_Node000005_Node000006"><a xlink:title=" ">
<path fill="none" stroke="#63b8ff" d="M722.91,-79C730.72,-79 738.71,-79 746.59,-79"/>
<polygon fill="#63b8ff" stroke="#63b8ff" points="746.49,-82.5 756.49,-79 746.49,-75.5 746.49,-82.5"/>
</a>
</g>
</g>
<!-- Node7 -->
<g id="Node000007" class="node">
<title>Node7</title>
<g id="a_Node000007"><a xlink:href="$classcontroladors_1_1_ctrl_domini.html#ab06c2680b60a9e0864d8470f4888e8e9" xlink:title="Carrega els usuaris cada cop que executem el joc.">
<polygon fill="white" stroke="#666666" points="1081.5,-95 916.25,-95 916.25,-63 1081.5,-63 1081.5,-95"/>
<text text-anchor="start" x="924.25" y="-81.5" font-family="Helvetica,sans-Serif" font-size="10.00">controladors.CtrlDomini.inicialitzar</text>
<text text-anchor="middle" x="998.88" y="-69.5" font-family="Helvetica,sans-Serif" font-size="10.00">Usuaris</text>
</a>
</g>
</g>
<!-- Node6&#45;&gt;Node7 -->
<g id="edge6_Node000006_Node000007" class="edge">
<title>Node6&#45;&gt;Node7</title>
<g id="a_edge6_Node000006_Node000007"><a xlink:title=" ">
<path fill="none" stroke="#63b8ff" d="M880.47,-79C888.19,-79 896.24,-79 904.34,-79"/>
<polygon fill="#63b8ff" stroke="#63b8ff" points="904.29,-82.5 914.29,-79 904.29,-75.5 904.29,-82.5"/>
</a>
</g>
</g>
<!-- Node8 -->
<g id="Node000008" class="node">
<title>Node8</title>
<g id="a_Node000008"><a xlink:href="$classcontroladors_1_1_ctrl_persistencia.html#a06c847181ea13b0c7dde8a61b47f0a0b" xlink:title="Carrega els usuaris guardats a la capa de persistència.">
<polygon fill="white" stroke="#666666" points="1297.75,-95 1117.5,-95 1117.5,-63 1297.75,-63 1297.75,-95"/>
<text text-anchor="start" x="1125.5" y="-81.5" font-family="Helvetica,sans-Serif" font-size="10.00">controladors.CtrlPersistencia.carregar</text>
<text text-anchor="middle" x="1207.62" y="-69.5" font-family="Helvetica,sans-Serif" font-size="10.00">UsuarisRegistrats</text>
</a>
</g>
</g>
<!-- Node7&#45;&gt;Node8 -->
<g id="edge7_Node000007_Node000008" class="edge">
<title>Node7&#45;&gt;Node8</title>
<g id="a_edge7_Node000007_Node000008"><a xlink:title=" ">
<path fill="none" stroke="#63b8ff" d="M1081.89,-79C1089.78,-79 1097.84,-79 1105.89,-79"/>
<polygon fill="#63b8ff" stroke="#63b8ff" points="1105.72,-82.5 1115.72,-79 1105.72,-75.5 1105.72,-82.5"/>
</a>
</g>
</g>
<!-- Node9 -->
<g id="Node000009" class="node">
<title>Node9</title>
<g id="a_Node000009"><a xlink:href="$classpersistencia_1_1_usuari_i_o.html#a29677f40d007ca66a5ec1b0926e16da4" xlink:title="Carrega un usuari des d&#39;un fitxer JSON.">
<polygon fill="white" stroke="#666666" points="1465.25,-95 1333.75,-95 1333.75,-63 1465.25,-63 1465.25,-95"/>
<text text-anchor="start" x="1341.75" y="-81.5" font-family="Helvetica,sans-Serif" font-size="10.00">persistencia.UsuariIO.load</text>
<text text-anchor="middle" x="1399.5" y="-69.5" font-family="Helvetica,sans-Serif" font-size="10.00">Usuari</text>
</a>
</g>
</g>
<!-- Node8&#45;&gt;Node9 -->
<g id="edge8_Node000008_Node000009" class="edge">
<title>Node8&#45;&gt;Node9</title>
<g id="a_edge8_Node000008_Node000009"><a xlink:title=" ">
<path fill="none" stroke="#63b8ff" d="M1298,-79C1306.02,-79 1314.08,-79 1321.97,-79"/>
<polygon fill="#63b8ff" stroke="#63b8ff" points="1321.87,-82.5 1331.87,-79 1321.87,-75.5 1321.87,-82.5"/>
</a>
</g>
</g>
</g>
</svg>
