<?xml version="1.0" encoding="UTF-8" standalone="no"?>
<!DOCTYPE svg PUBLIC "-//W3C//DTD SVG 1.1//EN"
 "http://www.w3.org/Graphics/SVG/1.1/DTD/svg11.dtd">
<!-- Generated by graphviz version 12.2.1 (20241206.2353)
 -->
<!-- Title: domini.jugadors.Avatar.getPartides_guanyades_maquina Pages: 1 -->
<svg width="795pt" height="58pt"
 viewBox="0.00 0.00 795.00 58.00" xmlns="http://www.w3.org/2000/svg" xmlns:xlink="http://www.w3.org/1999/xlink">
<g id="graph0" class="graph" transform="scale(1 1) rotate(0) translate(4 54)">
<title>domini.jugadors.Avatar.getPartides_guanyades_maquina</title>
<!-- Node1 -->
<g id="Node000001" class="node">
<title>Node1</title>
<g id="a_Node000001"><a xlink:title="Obté el nombre de partides guanyades contra la màquina.">
<polygon fill="#999999" stroke="#666666" points="787,-32 640.5,-32 640.5,0 787,0 787,-32"/>
<text text-anchor="start" x="648.5" y="-18.5" font-family="Helvetica,sans-Serif" font-size="10.00">domini.jugadors.Avatar.get</text>
<text text-anchor="middle" x="713.75" y="-6.5" font-family="Helvetica,sans-Serif" font-size="10.00">Partides_guanyades_maquina</text>
</a>
</g>
</g>
<!-- Node2 -->
<g id="Node000002" class="node">
<title>Node2</title>
<g id="a_Node000002"><a xlink:href="classinterficie_1_1_vista_consultar_estadistiques.html#a2d04a42f93b8d16629d5795a935ae87e" target="_top" xlink:title="Mostra les estadístiques d’un avatar seleccionat a l’àrea d’estadístiques.">
<polygon fill="white" stroke="#666666" points="604.5,-32 434,-32 434,0 604.5,0 604.5,-32"/>
<text text-anchor="start" x="442" y="-18.5" font-family="Helvetica,sans-Serif" font-size="10.00">interficie.VistaConsultar</text>
<text text-anchor="middle" x="519.25" y="-6.5" font-family="Helvetica,sans-Serif" font-size="10.00">Estadistiques.mostrarEstadistiques</text>
</a>
</g>
</g>
<!-- Node1&#45;&gt;Node2 -->
<g id="edge1_Node000001_Node000002" class="edge">
<title>Node1&#45;&gt;Node2</title>
<g id="a_edge1_Node000001_Node000002"><a xlink:title=" ">
<path fill="none" stroke="#63b8ff" d="M628.79,-16C620.89,-16 612.89,-16 604.98,-16"/>
<polygon fill="#63b8ff" stroke="#63b8ff" points="628.73,-19.5 638.73,-16 628.73,-12.5 628.73,-19.5"/>
</a>
</g>
</g>
<!-- Node3 -->
<g id="Node000003" class="node">
<title>Node3</title>
<g id="a_Node000003"><a xlink:href="classinterficie_1_1_vista_consultar_estadistiques.html#a1f4f83c8a4fdc86e24ef38f338645fbf" target="_top" xlink:title="Afegeix un listener a la llista per mostrar estadístiques quan es selecciona un avatar.">
<polygon fill="white" stroke="#666666" points="398,-32 238,-32 238,0 398,0 398,-32"/>
<text text-anchor="start" x="246" y="-18.5" font-family="Helvetica,sans-Serif" font-size="10.00">interficie.VistaConsultar</text>
<text text-anchor="middle" x="318" y="-6.5" font-family="Helvetica,sans-Serif" font-size="10.00">Estadistiques.afegirListenerLlista</text>
</a>
</g>
</g>
<!-- Node2&#45;&gt;Node3 -->
<g id="edge2_Node000002_Node000003" class="edge">
<title>Node2&#45;&gt;Node3</title>
<g id="a_edge2_Node000002_Node000003"><a xlink:title=" ">
<path fill="none" stroke="#63b8ff" d="M422.37,-16C414.29,-16 406.18,-16 398.24,-16"/>
<polygon fill="#63b8ff" stroke="#63b8ff" points="422.24,-19.5 432.24,-16 422.24,-12.5 422.24,-19.5"/>
</a>
</g>
</g>
<!-- Node4 -->
<g id="Node000004" class="node">
<title>Node4</title>
<g id="a_Node000004"><a xlink:href="classinterficie_1_1_vista_consultar_estadistiques.html#a72ea2d682e9b49e5fa9a21c42187f581" target="_top" xlink:title="Constructor principal de la vista.">
<polygon fill="white" stroke="#666666" points="202,-32 0,-32 0,0 202,0 202,-32"/>
<text text-anchor="start" x="8" y="-18.5" font-family="Helvetica,sans-Serif" font-size="10.00">interficie.VistaConsultar</text>
<text text-anchor="middle" x="101" y="-6.5" font-family="Helvetica,sans-Serif" font-size="10.00">Estadistiques.VistaConsultarEstadistiques</text>
</a>
</g>
</g>
<!-- Node3&#45;&gt;Node4 -->
<g id="edge3_Node000003_Node000004" class="edge">
<title>Node3&#45;&gt;Node4</title>
<g id="a_edge3_Node000003_Node000004"><a xlink:title=" ">
<path fill="none" stroke="#63b8ff" d="M226.12,-16C218.24,-16 210.25,-16 202.3,-16"/>
<polygon fill="#63b8ff" stroke="#63b8ff" points="226.04,-19.5 236.04,-16 226.04,-12.5 226.04,-19.5"/>
</a>
</g>
</g>
<!-- Node4&#45;&gt;Node4 -->
<g id="edge4_Node000004_Node000004" class="edge">
<title>Node4&#45;&gt;Node4</title>
<g id="a_edge4_Node000004_Node000004"><a xlink:title=" ">
<path fill="none" stroke="#63b8ff" d="M137.42,-43.54C131.48,-47.41 119.34,-50 101,-50 67.94,-50 55.03,-41.58 62.26,-32.44"/>
<polygon fill="#63b8ff" stroke="#63b8ff" points="140.81,-44.43 139.43,-33.92 133.96,-42.99 140.81,-44.43"/>
</a>
</g>
</g>
</g>
</svg>
