<?xml version="1.0" encoding="UTF-8" standalone="no"?>
<!DOCTYPE svg PUBLIC "-//W3C//DTD SVG 1.1//EN"
 "http://www.w3.org/Graphics/SVG/1.1/DTD/svg11.dtd">
<!-- Generated by graphviz version 12.2.1 (20241206.2353)
 -->
<!-- Title: persistencia.JugadorSerializer Pages: 1 -->
<svg width="147pt" height="148pt"
 viewBox="0.00 0.00 146.50 148.00" xmlns="http://www.w3.org/2000/svg" xmlns:xlink="http://www.w3.org/1999/xlink">
<g id="graph0" class="graph" transform="scale(1 1) rotate(0) translate(4 144)">
<title>persistencia.JugadorSerializer</title>
<!-- Node1 -->
<g id="Node000001" class="node">
<title>Node1</title>
<g id="a_Node000001"><a xlink:title="Classe per serialitzar instàncies de Jugador a JSON utilitzant GSON.">
<polygon fill="#999999" stroke="none" points="138.5,-52 0,-52 0,0 138.5,0 138.5,-52"/>
<text text-anchor="start" x="4" y="-38.5" font-family="Helvetica,sans-Serif" font-size="10.00">persistencia.JugadorSerializer</text>
<text text-anchor="start" x="67.75" y="-22.5" font-family="Helvetica,sans-Serif" font-size="10.00"> </text>
<text text-anchor="start" x="23.62" y="-6.5" font-family="Helvetica,sans-Serif" font-size="10.00">+</text>
<text text-anchor="start" x="53.25" y="-6.5" font-family="Helvetica,sans-Serif" font-size="10.00">serialize()</text>
<polygon fill="#666666" stroke="#666666" points="0,-34 0,-34 138.5,-34 138.5,-34 0,-34"/>
<polygon fill="#666666" stroke="#666666" points="0,-18 0,-18 138.5,-18 138.5,-18 0,-18"/>
<polygon fill="none" stroke="#666666" points="0,0 0,-52 138.5,-52 138.5,0 0,0"/>
</a>
</g>
</g>
<!-- Node2 -->
<g id="Node000002" class="node">
<title>Node2</title>
<g id="a_Node000002"><a xlink:title=" ">
<polygon fill="white" stroke="none" points="130.25,-140 8.25,-140 8.25,-88 130.25,-88 130.25,-140"/>
<text text-anchor="start" x="12.25" y="-126.5" font-family="Helvetica,sans-Serif" font-size="10.00">JsonSerializer&lt; Jugador &gt;</text>
<text text-anchor="start" x="67.75" y="-110.5" font-family="Helvetica,sans-Serif" font-size="10.00"> </text>
<text text-anchor="start" x="67.75" y="-94.5" font-family="Helvetica,sans-Serif" font-size="10.00"> </text>
<polygon fill="#666666" stroke="#666666" points="8.25,-122 8.25,-122 130.25,-122 130.25,-122 8.25,-122"/>
<polygon fill="#666666" stroke="#666666" points="8.25,-106 8.25,-106 130.25,-106 130.25,-106 8.25,-106"/>
<polygon fill="none" stroke="#666666" points="8.25,-88 8.25,-140 130.25,-140 130.25,-88 8.25,-88"/>
</a>
</g>
</g>
<!-- Node2&#45;&gt;Node1 -->
<g id="edge1_Node000001_Node000002" class="edge">
<title>Node2&#45;&gt;Node1</title>
<g id="a_edge1_Node000001_Node000002"><a xlink:title=" ">
<path fill="none" stroke="#63b8ff" d="M69.25,-76.66C69.25,-68.29 69.25,-59.57 69.25,-51.82"/>
<polygon fill="none" stroke="#63b8ff" points="65.75,-76.61 69.25,-86.61 72.75,-76.61 65.75,-76.61"/>
</a>
</g>
</g>
</g>
</svg>
