<?xml version="1.0" encoding="UTF-8" standalone="no"?>
<!DOCTYPE svg PUBLIC "-//W3C//DTD SVG 1.1//EN"
 "http://www.w3.org/Graphics/SVG/1.1/DTD/svg11.dtd">
<!-- Generated by graphviz version 12.2.1 (20241206.2353)
 -->
<!-- Title: controladors.CtrlPartida.comprovar_noves_paraules Pages: 1 -->
<svg width="526pt" height="328pt"
 viewBox="0.00 0.00 525.50 328.00" xmlns="http://www.w3.org/2000/svg" xmlns:xlink="http://www.w3.org/1999/xlink">
<g id="graph0" class="graph" transform="scale(1 1) rotate(0) translate(4 324)">
<title>controladors.CtrlPartida.comprovar_noves_paraules</title>
<!-- Node1 -->
<g id="Node000001" class="node">
<title>Node1</title>
<g id="a_Node000001"><a xlink:title="Comprova si una lletra és vàlida per a una casella que formi paraula transversal vertical.">
<polygon fill="#999999" stroke="#666666" points="167.5,-182 0,-182 0,-150 167.5,-150 167.5,-182"/>
<text text-anchor="start" x="8" y="-168.5" font-family="Helvetica,sans-Serif" font-size="10.00">controladors.CtrlPartida.comprovar</text>
<text text-anchor="middle" x="83.75" y="-156.5" font-family="Helvetica,sans-Serif" font-size="10.00">_noves_paraules</text>
</a>
</g>
</g>
<!-- Node2 -->
<g id="Node000002" class="node">
<title>Node2</title>
<g id="a_Node000002"><a xlink:href="classdomini_1_1scrabble_1_1_casella.html#a45ad0a3aaeacf1bc4896a7a99c068dd3" target="_top" xlink:title="Comprova si la casella està ocupada per una fitxa.">
<polygon fill="white" stroke="#666666" points="333.5,-320 210.25,-320 210.25,-288 333.5,-288 333.5,-320"/>
<text text-anchor="start" x="218.25" y="-306.5" font-family="Helvetica,sans-Serif" font-size="10.00">domini.scrabble.Casella.</text>
<text text-anchor="middle" x="271.88" y="-294.5" font-family="Helvetica,sans-Serif" font-size="10.00">EstaOcupat</text>
</a>
</g>
</g>
<!-- Node1&#45;&gt;Node2 -->
<g id="edge1_Node000001_Node000002" class="edge">
<title>Node1&#45;&gt;Node2</title>
<g id="a_edge1_Node000001_Node000002"><a xlink:title=" ">
<path fill="none" stroke="#63b8ff" d="M98.1,-182.39C118.53,-206.53 159.8,-251.73 203.5,-279 205.48,-280.24 207.54,-281.43 209.64,-282.57"/>
<polygon fill="#63b8ff" stroke="#63b8ff" points="207.91,-285.62 218.42,-286.92 211.01,-279.34 207.91,-285.62"/>
</a>
</g>
</g>
<!-- Node3 -->
<g id="Node000003" class="node">
<title>Node3</title>
<g id="a_Node000003"><a xlink:href="classdomini_1_1scrabble_1_1_taulell.html#a5be7b0143cecbce3e2f4dc4f53814879" target="_top" xlink:title="Donades unes coordenades, retorna la Casella que es troba en aquelles coordenades.">
<polygon fill="white" stroke="#666666" points="337.62,-270 206.12,-270 206.12,-238 337.62,-238 337.62,-270"/>
<text text-anchor="start" x="214.12" y="-256.5" font-family="Helvetica,sans-Serif" font-size="10.00">domini.scrabble.Taulell.get</text>
<text text-anchor="middle" x="271.88" y="-244.5" font-family="Helvetica,sans-Serif" font-size="10.00">Casella</text>
</a>
</g>
</g>
<!-- Node1&#45;&gt;Node3 -->
<g id="edge2_Node000001_Node000003" class="edge">
<title>Node1&#45;&gt;Node3</title>
<g id="a_edge2_Node000001_Node000003"><a xlink:title=" ">
<path fill="none" stroke="#63b8ff" d="M117.62,-182.44C141.37,-194.23 174.29,-210.37 203.5,-224 209.82,-226.95 216.5,-230 223.1,-232.98"/>
<polygon fill="#63b8ff" stroke="#63b8ff" points="221.41,-236.06 231.97,-236.95 224.27,-229.67 221.41,-236.06"/>
</a>
</g>
</g>
<!-- Node4 -->
<g id="Node000004" class="node">
<title>Node4</title>
<g id="a_Node000004"><a xlink:href="classdomini_1_1scrabble_1_1_taulell.html#afc2d8dcd225b683aa00af9ce2075ad79" target="_top" xlink:title=" ">
<polygon fill="white" stroke="#666666" points="517.5,-242 376.25,-242 376.25,-222 517.5,-222 517.5,-242"/>
<text text-anchor="middle" x="446.88" y="-228.5" font-family="Helvetica,sans-Serif" font-size="10.00">domini.scrabble.Taulell.limits</text>
</a>
</g>
</g>
<!-- Node1&#45;&gt;Node4 -->
<g id="edge8_Node000001_Node000004" class="edge">
<title>Node1&#45;&gt;Node4</title>
<g id="a_edge8_Node000001_Node000004"><a xlink:title=" ">
<path fill="none" stroke="#63b8ff" d="M160.68,-182.46C174.89,-185.4 189.63,-188.37 203.5,-191 258.52,-201.44 320.82,-211.95 368.48,-219.72"/>
<polygon fill="#63b8ff" stroke="#63b8ff" points="367.73,-223.14 378.16,-221.29 368.85,-216.23 367.73,-223.14"/>
</a>
</g>
</g>
<!-- Node5 -->
<g id="Node000005" class="node">
<title>Node5</title>
<g id="a_Node000005"><a xlink:href="classdomini_1_1auxiliars_1_1_pair.html#af9fc7c6b0fb531c4b59cdb1048897164" target="_top" xlink:title="Obté el primer element de la parella.">
<polygon fill="white" stroke="#666666" points="332,-182 211.75,-182 211.75,-150 332,-150 332,-182"/>
<text text-anchor="start" x="219.75" y="-168.5" font-family="Helvetica,sans-Serif" font-size="10.00">domini.auxiliars.Pair.get</text>
<text text-anchor="middle" x="271.88" y="-156.5" font-family="Helvetica,sans-Serif" font-size="10.00">First</text>
</a>
</g>
</g>
<!-- Node1&#45;&gt;Node5 -->
<g id="edge4_Node000001_Node000005" class="edge">
<title>Node1&#45;&gt;Node5</title>
<g id="a_edge4_Node000001_Node000005"><a xlink:title=" ">
<path fill="none" stroke="#63b8ff" d="M167.74,-166C178.56,-166 189.57,-166 200.16,-166"/>
<polygon fill="#63b8ff" stroke="#63b8ff" points="199.95,-169.5 209.95,-166 199.95,-162.5 199.95,-169.5"/>
</a>
</g>
</g>
<!-- Node6 -->
<g id="Node000006" class="node">
<title>Node6</title>
<g id="a_Node000006"><a xlink:href="classdomini_1_1scrabble_1_1_casella.html#ad6fa4e60f906cde260a175354e4fda22" target="_top" xlink:title="Retorna la fitxa de la casella.">
<polygon fill="white" stroke="#666666" points="340.25,-132 203.5,-132 203.5,-100 340.25,-100 340.25,-132"/>
<text text-anchor="start" x="211.5" y="-118.5" font-family="Helvetica,sans-Serif" font-size="10.00">domini.scrabble.Casella.get</text>
<text text-anchor="middle" x="271.88" y="-106.5" font-family="Helvetica,sans-Serif" font-size="10.00">Fitxa</text>
</a>
</g>
</g>
<!-- Node1&#45;&gt;Node6 -->
<g id="edge5_Node000001_Node000006" class="edge">
<title>Node1&#45;&gt;Node6</title>
<g id="a_edge5_Node000001_Node000006"><a xlink:title=" ">
<path fill="none" stroke="#63b8ff" d="M145.95,-149.56C162.89,-145.01 181.42,-140.03 198.91,-135.33"/>
<polygon fill="#63b8ff" stroke="#63b8ff" points="199.42,-138.82 208.17,-132.84 197.61,-132.06 199.42,-138.82"/>
</a>
</g>
</g>
<!-- Node7 -->
<g id="Node000007" class="node">
<title>Node7</title>
<g id="a_Node000007"><a xlink:href="classdomini_1_1scrabble_1_1_fitxa.html#a3ee9b39d600851a00c4ce541339ba90e" target="_top" xlink:title="Retorna la lletra associada a la fitxa.">
<polygon fill="white" stroke="#666666" points="334.62,-82 209.12,-82 209.12,-50 334.62,-50 334.62,-82"/>
<text text-anchor="start" x="217.12" y="-68.5" font-family="Helvetica,sans-Serif" font-size="10.00">domini.scrabble.Fitxa.get</text>
<text text-anchor="middle" x="271.88" y="-56.5" font-family="Helvetica,sans-Serif" font-size="10.00">Lletra</text>
</a>
</g>
</g>
<!-- Node1&#45;&gt;Node7 -->
<g id="edge6_Node000001_Node000007" class="edge">
<title>Node1&#45;&gt;Node7</title>
<g id="a_edge6_Node000001_Node000007"><a xlink:title=" ">
<path fill="none" stroke="#63b8ff" d="M107.57,-149.57C130.89,-133.27 168.53,-108.3 203.5,-91 206.38,-89.57 209.37,-88.18 212.41,-86.83"/>
<polygon fill="#63b8ff" stroke="#63b8ff" points="213.63,-90.12 221.47,-83 210.9,-83.67 213.63,-90.12"/>
</a>
</g>
</g>
<!-- Node8 -->
<g id="Node000008" class="node">
<title>Node8</title>
<g id="a_Node000008"><a xlink:href="classdomini_1_1auxiliars_1_1_pair.html#af70cd15a3a6fe17c25fbae3a08955565" target="_top" xlink:title="Obté el segon element de la parella.">
<polygon fill="white" stroke="#666666" points="332,-32 211.75,-32 211.75,0 332,0 332,-32"/>
<text text-anchor="start" x="219.75" y="-18.5" font-family="Helvetica,sans-Serif" font-size="10.00">domini.auxiliars.Pair.get</text>
<text text-anchor="middle" x="271.88" y="-6.5" font-family="Helvetica,sans-Serif" font-size="10.00">Second</text>
</a>
</g>
</g>
<!-- Node1&#45;&gt;Node8 -->
<g id="edge7_Node000001_Node000008" class="edge">
<title>Node1&#45;&gt;Node8</title>
<g id="a_edge7_Node000001_Node000008"><a xlink:title=" ">
<path fill="none" stroke="#63b8ff" d="M96.42,-149.53C115.85,-123.19 157.28,-71.49 203.5,-41 205.3,-39.81 207.16,-38.68 209.06,-37.58"/>
<polygon fill="#63b8ff" stroke="#63b8ff" points="210.3,-40.89 217.57,-33.18 207.08,-34.67 210.3,-40.89"/>
</a>
</g>
</g>
<!-- Node3&#45;&gt;Node4 -->
<g id="edge3_Node000003_Node000004" class="edge">
<title>Node3&#45;&gt;Node4</title>
<g id="a_edge3_Node000003_Node000004"><a xlink:title=" ">
<path fill="none" stroke="#63b8ff" d="M337.79,-245.75C346.55,-244.63 355.63,-243.48 364.63,-242.33"/>
<polygon fill="#63b8ff" stroke="#63b8ff" points="364.99,-245.81 374.47,-241.08 364.1,-238.87 364.99,-245.81"/>
</a>
</g>
</g>
</g>
</svg>
