<?xml version="1.0" encoding="UTF-8" standalone="no"?>
<!DOCTYPE svg PUBLIC "-//W3C//DTD SVG 1.1//EN"
 "http://www.w3.org/Graphics/SVG/1.1/DTD/svg11.dtd">
<!-- Generated by graphviz version 12.2.1 (20241206.2353)
 -->
<!-- Title: persistencia.EstatInstanceCreator Pages: 1 -->
<svg width="132pt" height="160pt"
 viewBox="0.00 0.00 132.25 160.00" xmlns="http://www.w3.org/2000/svg" xmlns:xlink="http://www.w3.org/1999/xlink">
<g id="graph0" class="graph" transform="scale(1 1) rotate(0) translate(4 156)">
<title>persistencia.EstatInstanceCreator</title>
<!-- Node1 -->
<g id="Node000001" class="node">
<title>Node1</title>
<g id="a_Node000001"><a xlink:title="Implementació de la interfície InstanceCreator per proporcionar una instància d&#39;EstatEnCurs quan es d...">
<polygon fill="#999999" stroke="none" points="124.25,-64 0,-64 0,0 124.25,0 124.25,-64"/>
<text text-anchor="start" x="4" y="-50.5" font-family="Helvetica,sans-Serif" font-size="10.00">persistencia.EstatInstance</text>
<text text-anchor="start" x="46" y="-38.5" font-family="Helvetica,sans-Serif" font-size="10.00">Creator</text>
<text text-anchor="start" x="60.62" y="-22.5" font-family="Helvetica,sans-Serif" font-size="10.00"> </text>
<text text-anchor="start" x="12.94" y="-6.5" font-family="Helvetica,sans-Serif" font-size="10.00">+</text>
<text text-anchor="start" x="31.88" y="-6.5" font-family="Helvetica,sans-Serif" font-size="10.00">createInstance()</text>
<polygon fill="#666666" stroke="#666666" points="0,-34 0,-34 124.25,-34 124.25,-34 0,-34"/>
<polygon fill="#666666" stroke="#666666" points="0,-18 0,-18 124.25,-18 124.25,-18 0,-18"/>
<polygon fill="none" stroke="#666666" points="0,0 0,-64 124.25,-64 124.25,0 0,0"/>
</a>
</g>
</g>
<!-- Node2 -->
<g id="Node000002" class="node">
<title>Node2</title>
<g id="a_Node000002"><a xlink:title=" ">
<polygon fill="white" stroke="none" points="121.62,-152 2.62,-152 2.62,-100 121.62,-100 121.62,-152"/>
<text text-anchor="start" x="6.62" y="-138.5" font-family="Helvetica,sans-Serif" font-size="10.00">InstanceCreator&lt; Estat &gt;</text>
<text text-anchor="start" x="60.62" y="-122.5" font-family="Helvetica,sans-Serif" font-size="10.00"> </text>
<text text-anchor="start" x="60.62" y="-106.5" font-family="Helvetica,sans-Serif" font-size="10.00"> </text>
<polygon fill="#666666" stroke="#666666" points="2.62,-134 2.62,-134 121.62,-134 121.62,-134 2.62,-134"/>
<polygon fill="#666666" stroke="#666666" points="2.62,-118 2.62,-118 121.62,-118 121.62,-118 2.62,-118"/>
<polygon fill="none" stroke="#666666" points="2.62,-100 2.62,-152 121.62,-152 121.62,-100 2.62,-100"/>
</a>
</g>
</g>
<!-- Node2&#45;&gt;Node1 -->
<g id="edge1_Node000001_Node000002" class="edge">
<title>Node2&#45;&gt;Node1</title>
<g id="a_edge1_Node000001_Node000002"><a xlink:title=" ">
<path fill="none" stroke="#63b8ff" d="M62.12,-89.06C62.12,-80.78 62.12,-72.04 62.12,-63.98"/>
<polygon fill="none" stroke="#63b8ff" points="58.63,-88.83 62.13,-98.83 65.63,-88.83 58.63,-88.83"/>
</a>
</g>
</g>
</g>
</svg>
