<?xml version="1.0" encoding="UTF-8" standalone="no"?>
<!DOCTYPE svg PUBLIC "-//W3C//DTD SVG 1.1//EN"
 "http://www.w3.org/Graphics/SVG/1.1/DTD/svg11.dtd">
<!-- Generated by graphviz version 12.2.1 (20241206.2353)
 -->
<!-- Title: Jerarquia Gràfica de la Classe Pages: 1 -->
<svg width="290pt" height="66pt"
 viewBox="0.00 0.00 289.75 66.00" xmlns="http://www.w3.org/2000/svg" xmlns:xlink="http://www.w3.org/1999/xlink">
<g id="graph0" class="graph" transform="scale(1 1) rotate(0) translate(4 62)">
<title>Jerarquia Gràfica de la Classe</title>
<!-- Node0 -->
<g id="Node000000" class="node">
<title>Node0</title>
<g id="a_Node000000"><a xlink:href="$classdomini_1_1jugadors_1_1_jugador.html" xlink:title="Representa un jugador del joc de Scrabble.">
<polygon fill="white" stroke="#666666" points="121.75,-39 0,-39 0,-19 121.75,-19 121.75,-39"/>
<text text-anchor="middle" x="60.88" y="-25.5" font-family="Helvetica,sans-Serif" font-size="10.00">domini.jugadors.Jugador</text>
</a>
</g>
</g>
<!-- Node1 -->
<g id="Node000001" class="node">
<title>Node1</title>
<g id="a_Node000001"><a xlink:href="$classdomini_1_1jugadors_1_1_avatar.html" xlink:title="Representa un jugador del tipus Avatar.">
<polygon fill="white" stroke="#666666" points="277.62,-58 161.88,-58 161.88,-38 277.62,-38 277.62,-58"/>
<text text-anchor="middle" x="219.75" y="-44.5" font-family="Helvetica,sans-Serif" font-size="10.00">domini.jugadors.Avatar</text>
</a>
</g>
</g>
<!-- Node0&#45;&gt;Node1 -->
<g id="edge2_Node000000_Node000001" class="edge">
<title>Node0&#45;&gt;Node1</title>
<g id="a_edge2_Node000000_Node000001"><a xlink:title=" ">
<path fill="none" stroke="#63b8ff" d="M133.46,-37.67C142.87,-38.81 152.42,-39.97 161.55,-41.07"/>
<polygon fill="#63b8ff" stroke="#63b8ff" points="133.93,-34.2 123.58,-36.47 133.09,-41.15 133.93,-34.2"/>
</a>
</g>
</g>
<!-- Node2 -->
<g id="Node000002" class="node">
<title>Node2</title>
<g id="a_Node000002"><a xlink:href="$classdomini_1_1jugadors_1_1_maquina.html" xlink:title="Representa un jugador controlat per la màquina.">
<polygon fill="white" stroke="#666666" points="281.75,-20 157.75,-20 157.75,0 281.75,0 281.75,-20"/>
<text text-anchor="middle" x="219.75" y="-6.5" font-family="Helvetica,sans-Serif" font-size="10.00">domini.jugadors.Maquina</text>
</a>
</g>
</g>
<!-- Node0&#45;&gt;Node2 -->
<g id="edge3_Node000000_Node000002" class="edge">
<title>Node0&#45;&gt;Node2</title>
<g id="a_edge3_Node000000_Node000002"><a xlink:title=" ">
<path fill="none" stroke="#63b8ff" d="M133.34,-20.34C141.38,-19.37 149.52,-18.39 157.41,-17.43"/>
<polygon fill="#63b8ff" stroke="#63b8ff" points="133.09,-16.85 123.58,-21.53 133.93,-23.8 133.09,-16.85"/>
</a>
</g>
</g>
</g>
</svg>
