<?xml version="1.0" encoding="UTF-8" standalone="no"?>
<!DOCTYPE svg PUBLIC "-//W3C//DTD SVG 1.1//EN"
 "http://www.w3.org/Graphics/SVG/1.1/DTD/svg11.dtd">
<!-- Generated by graphviz version 12.2.1 (20241206.2353)
 -->
<!-- Title: Jerarquia Gràfica de la Classe Pages: 1 -->
<svg width="312pt" height="104pt"
 viewBox="0.00 0.00 312.25 104.00" xmlns="http://www.w3.org/2000/svg" xmlns:xlink="http://www.w3.org/1999/xlink">
<g id="graph0" class="graph" transform="scale(1 1) rotate(0) translate(4 100)">
<title>Jerarquia Gràfica de la Classe</title>
<!-- Node0 -->
<g id="Node000000" class="node">
<title>Node0</title>
<g id="a_Node000000"><a xlink:href="$classdomini_1_1scrabble_1_1_estat.html" xlink:title="Classe abstracta que defineix el comportament genèric per als diferents estats d&#39;una partida.">
<polygon fill="white" stroke="#666666" points="110.5,-58 0,-58 0,-38 110.5,-38 110.5,-58"/>
<text text-anchor="middle" x="55.25" y="-44.5" font-family="Helvetica,sans-Serif" font-size="10.00">domini.scrabble.Estat</text>
</a>
</g>
</g>
<!-- Node1 -->
<g id="Node000001" class="node">
<title>Node1</title>
<g id="a_Node000001"><a xlink:href="$classdomini_1_1scrabble_1_1_estat_en_curs.html" xlink:title="Representa l&#39;estat &#39;EnCurs&#39; d&#39;una partida.">
<polygon fill="white" stroke="#666666" points="297.12,-96 153.62,-96 153.62,-76 297.12,-76 297.12,-96"/>
<text text-anchor="middle" x="225.38" y="-82.5" font-family="Helvetica,sans-Serif" font-size="10.00">domini.scrabble.EstatEnCurs</text>
</a>
</g>
</g>
<!-- Node0&#45;&gt;Node1 -->
<g id="edge4_Node000000_Node000001" class="edge">
<title>Node0&#45;&gt;Node1</title>
<g id="a_edge4_Node000000_Node000001"><a xlink:title=" ">
<path fill="none" stroke="#63b8ff" d="M113.7,-60.98C134.72,-65.74 158.22,-71.05 178.14,-75.55"/>
<polygon fill="#63b8ff" stroke="#63b8ff" points="114.64,-57.61 104.11,-58.82 113.09,-64.44 114.64,-57.61"/>
</a>
</g>
</g>
<!-- Node2 -->
<g id="Node000002" class="node">
<title>Node2</title>
<g id="a_Node000002"><a xlink:href="$classdomini_1_1scrabble_1_1_estat_finalitzada.html" xlink:title="Representa l&#39;estat &#39;Finalitzada&#39; d&#39;una partida.">
<polygon fill="white" stroke="#666666" points="304.25,-58 146.5,-58 146.5,-38 304.25,-38 304.25,-58"/>
<text text-anchor="middle" x="225.38" y="-44.5" font-family="Helvetica,sans-Serif" font-size="10.00">domini.scrabble.EstatFinalitzada</text>
</a>
</g>
</g>
<!-- Node0&#45;&gt;Node2 -->
<g id="edge5_Node000000_Node000002" class="edge">
<title>Node0&#45;&gt;Node2</title>
<g id="a_edge5_Node000000_Node000002"><a xlink:title=" ">
<path fill="none" stroke="#63b8ff" d="M122.2,-48C130.09,-48 138.21,-48 146.25,-48"/>
<polygon fill="#63b8ff" stroke="#63b8ff" points="122.35,-44.5 112.35,-48 122.35,-51.5 122.35,-44.5"/>
</a>
</g>
</g>
<!-- Node3 -->
<g id="Node000003" class="node">
<title>Node3</title>
<g id="a_Node000003"><a xlink:href="$classdomini_1_1scrabble_1_1_estat_pausada.html" xlink:title="Representa l&#39;estat &#39;Pausada&#39; d&#39;una partida.">
<polygon fill="white" stroke="#666666" points="299.75,-20 151,-20 151,0 299.75,0 299.75,-20"/>
<text text-anchor="middle" x="225.38" y="-6.5" font-family="Helvetica,sans-Serif" font-size="10.00">domini.scrabble.EstatPausada</text>
</a>
</g>
</g>
<!-- Node0&#45;&gt;Node3 -->
<g id="edge6_Node000000_Node000003" class="edge">
<title>Node0&#45;&gt;Node3</title>
<g id="a_edge6_Node000000_Node000003"><a xlink:title=" ">
<path fill="none" stroke="#63b8ff" d="M113.7,-35.02C134.72,-30.26 158.22,-24.95 178.14,-20.45"/>
<polygon fill="#63b8ff" stroke="#63b8ff" points="113.09,-31.56 104.11,-37.18 114.64,-38.39 113.09,-31.56"/>
</a>
</g>
</g>
</g>
</svg>
