<?xml version="1.0" encoding="UTF-8" standalone="no"?>
<!DOCTYPE svg PUBLIC "-//W3C//DTD SVG 1.1//EN"
 "http://www.w3.org/Graphics/SVG/1.1/DTD/svg11.dtd">
<!-- Generated by graphviz version 12.2.1 (20241206.2353)
 -->
<!-- Title: FONTS/domini/jugadors/Jugador.java Pages: 1 -->
<svg width="313pt" height="96pt"
 viewBox="0.00 0.00 313.38 96.00" xmlns="http://www.w3.org/2000/svg" xmlns:xlink="http://www.w3.org/1999/xlink">
<g id="graph0" class="graph" transform="scale(1 1) rotate(0) translate(4 92)">
<title>FONTS/domini/jugadors/Jugador.java</title>
<!-- Node1 -->
<g id="Node000001" class="node">
<title>Node1</title>
<g id="a_Node000001"><a xlink:title=" ">
<polygon fill="#999999" stroke="#666666" points="204.38,-88 83.38,-88 83.38,-56 204.38,-56 204.38,-88"/>
<text text-anchor="start" x="91.38" y="-74.5" font-family="Helvetica,sans-Serif" font-size="10.00">FONTS/domini/jugadors</text>
<text text-anchor="middle" x="143.88" y="-62.5" font-family="Helvetica,sans-Serif" font-size="10.00">/Jugador.java</text>
</a>
</g>
</g>
<!-- Node2 -->
<g id="Node000002" class="node">
<title>Node2</title>
<g id="a_Node000002"><a xlink:title=" ">
<polygon fill="#e0e0e0" stroke="#999999" points="91.75,-20 0,-20 0,0 91.75,0 91.75,-20"/>
<text text-anchor="middle" x="45.88" y="-6.5" font-family="Helvetica,sans-Serif" font-size="10.00">java.util.ArrayList</text>
</a>
</g>
</g>
<!-- Node1&#45;&gt;Node2 -->
<g id="edge1_Node000001_Node000002" class="edge">
<title>Node1&#45;&gt;Node2</title>
<g id="a_edge1_Node000001_Node000002"><a xlink:title=" ">
<path fill="none" stroke="#63b8ff" d="M118.64,-55.55C103.89,-46.52 85.36,-35.17 70.69,-26.19"/>
<polygon fill="#63b8ff" stroke="#63b8ff" points="72.89,-23.43 62.53,-21.2 69.23,-29.4 72.89,-23.43"/>
</a>
</g>
</g>
<!-- Node3 -->
<g id="Node000003" class="node">
<title>Node3</title>
<g id="a_Node000003"><a xlink:title=" ">
<polygon fill="#e0e0e0" stroke="#999999" points="178.12,-20 109.62,-20 109.62,0 178.12,0 178.12,-20"/>
<text text-anchor="middle" x="143.88" y="-6.5" font-family="Helvetica,sans-Serif" font-size="10.00">java.util.List</text>
</a>
</g>
</g>
<!-- Node1&#45;&gt;Node3 -->
<g id="edge2_Node000001_Node000003" class="edge">
<title>Node1&#45;&gt;Node3</title>
<g id="a_edge2_Node000001_Node000003"><a xlink:title=" ">
<path fill="none" stroke="#63b8ff" d="M143.88,-55.55C143.88,-48.34 143.88,-39.66 143.88,-31.88"/>
<polygon fill="#63b8ff" stroke="#63b8ff" points="147.38,-31.92 143.88,-21.92 140.38,-31.92 147.38,-31.92"/>
</a>
</g>
</g>
<!-- Node4 -->
<g id="Node000004" class="node">
<title>Node4</title>
<g id="a_Node000004"><a xlink:title=" ">
<polygon fill="#e0e0e0" stroke="#999999" points="305.38,-20 196.38,-20 196.38,0 305.38,0 305.38,-20"/>
<text text-anchor="middle" x="250.88" y="-6.5" font-family="Helvetica,sans-Serif" font-size="10.00">domini.scrabble.Fitxa</text>
</a>
</g>
</g>
<!-- Node1&#45;&gt;Node4 -->
<g id="edge3_Node000001_Node000004" class="edge">
<title>Node1&#45;&gt;Node4</title>
<g id="a_edge3_Node000001_Node000004"><a xlink:title=" ">
<path fill="none" stroke="#63b8ff" d="M171.43,-55.55C187.68,-46.43 208.15,-34.96 224.24,-25.93"/>
<polygon fill="#63b8ff" stroke="#63b8ff" points="225.77,-29.09 232.78,-21.15 222.34,-22.99 225.77,-29.09"/>
</a>
</g>
</g>
</g>
</svg>
