<?xml version="1.0" encoding="UTF-8" standalone="no"?>
<!DOCTYPE svg PUBLIC "-//W3C//DTD SVG 1.1//EN"
 "http://www.w3.org/Graphics/SVG/1.1/DTD/svg11.dtd">
<!-- Generated by graphviz version 12.2.1 (20241206.2353)
 -->
<!-- Title: FONTS/domini/jugadors/Maquina.java Pages: 1 -->
<svg width="1004pt" height="96pt"
 viewBox="0.00 0.00 1004.00 96.00" xmlns="http://www.w3.org/2000/svg" xmlns:xlink="http://www.w3.org/1999/xlink">
<g id="graph0" class="graph" transform="scale(1 1) rotate(0) translate(4 92)">
<title>FONTS/domini/jugadors/Maquina.java</title>
<!-- Node1 -->
<g id="Node000001" class="node">
<title>Node1</title>
<g id="a_Node000001"><a xlink:title=" ">
<polygon fill="#999999" stroke="#666666" points="524.75,-88 403.75,-88 403.75,-56 524.75,-56 524.75,-88"/>
<text text-anchor="start" x="411.75" y="-74.5" font-family="Helvetica,sans-Serif" font-size="10.00">FONTS/domini/jugadors</text>
<text text-anchor="middle" x="464.25" y="-62.5" font-family="Helvetica,sans-Serif" font-size="10.00">/Maquina.java</text>
</a>
</g>
</g>
<!-- Node2 -->
<g id="Node000002" class="node">
<title>Node2</title>
<g id="a_Node000002"><a xlink:title=" ">
<polygon fill="#e0e0e0" stroke="#999999" points="56.5,-20 0,-20 0,0 56.5,0 56.5,-20"/>
<text text-anchor="middle" x="28.25" y="-6.5" font-family="Helvetica,sans-Serif" font-size="10.00">java.util.*</text>
</a>
</g>
</g>
<!-- Node1&#45;&gt;Node2 -->
<g id="edge1_Node000001_Node000002" class="edge">
<title>Node1&#45;&gt;Node2</title>
<g id="a_edge1_Node000001_Node000002"><a xlink:title=" ">
<path fill="none" stroke="#63b8ff" d="M403.42,-65.36C327.21,-57.81 192.41,-42.91 68.09,-20.36"/>
<polygon fill="#63b8ff" stroke="#63b8ff" points="68.82,-16.93 58.35,-18.57 67.56,-23.82 68.82,-16.93"/>
</a>
</g>
</g>
<!-- Node3 -->
<g id="Node000003" class="node">
<title>Node3</title>
<g id="a_Node000003"><a xlink:title=" ">
<polygon fill="#e0e0e0" stroke="#999999" points="178.12,-20 74.38,-20 74.38,0 178.12,0 178.12,-20"/>
<text text-anchor="middle" x="126.25" y="-6.5" font-family="Helvetica,sans-Serif" font-size="10.00">domini.auxiliars.Pair</text>
</a>
</g>
</g>
<!-- Node1&#45;&gt;Node3 -->
<g id="edge2_Node000001_Node000003" class="edge">
<title>Node1&#45;&gt;Node3</title>
<g id="a_edge2_Node000001_Node000003"><a xlink:title=" ">
<path fill="none" stroke="#63b8ff" d="M403.43,-60.2C343.04,-49.48 250.86,-33.12 189.6,-22.25"/>
<polygon fill="#63b8ff" stroke="#63b8ff" points="190.49,-18.85 180.03,-20.55 189.27,-25.74 190.49,-18.85"/>
</a>
</g>
</g>
<!-- Node4 -->
<g id="Node000004" class="node">
<title>Node4</title>
<g id="a_Node000004"><a xlink:title=" ">
<polygon fill="#e0e0e0" stroke="#999999" points="324.12,-20 196.38,-20 196.38,0 324.12,0 324.12,-20"/>
<text text-anchor="middle" x="260.25" y="-6.5" font-family="Helvetica,sans-Serif" font-size="10.00">domini.auxiliars.MaxWord</text>
</a>
</g>
</g>
<!-- Node1&#45;&gt;Node4 -->
<g id="edge3_Node000001_Node000004" class="edge">
<title>Node1&#45;&gt;Node4</title>
<g id="a_edge3_Node000001_Node000004"><a xlink:title=" ">
<path fill="none" stroke="#63b8ff" d="M411.71,-55.55C378.03,-45.64 334.84,-32.94 303.21,-23.64"/>
<polygon fill="#63b8ff" stroke="#63b8ff" points="304.57,-20.39 293.99,-20.92 302.6,-27.1 304.57,-20.39"/>
</a>
</g>
</g>
<!-- Node5 -->
<g id="Node000005" class="node">
<title>Node5</title>
<g id="a_Node000005"><a xlink:title=" ">
<polygon fill="#e0e0e0" stroke="#999999" points="456.75,-20 341.75,-20 341.75,0 456.75,0 456.75,-20"/>
<text text-anchor="middle" x="399.25" y="-6.5" font-family="Helvetica,sans-Serif" font-size="10.00">domini.scrabble.Taulell</text>
</a>
</g>
</g>
<!-- Node1&#45;&gt;Node5 -->
<g id="edge4_Node000001_Node000005" class="edge">
<title>Node1&#45;&gt;Node5</title>
<g id="a_edge4_Node000001_Node000005"><a xlink:title=" ">
<path fill="none" stroke="#63b8ff" d="M447.51,-55.55C438.39,-47.13 427.08,-36.69 417.71,-28.04"/>
<polygon fill="#63b8ff" stroke="#63b8ff" points="420.28,-25.65 410.55,-21.43 415.53,-30.79 420.28,-25.65"/>
</a>
</g>
</g>
<!-- Node6 -->
<g id="Node000006" class="node">
<title>Node6</title>
<g id="a_Node000006"><a xlink:title=" ">
<polygon fill="#e0e0e0" stroke="#999999" points="583.75,-20 474.75,-20 474.75,0 583.75,0 583.75,-20"/>
<text text-anchor="middle" x="529.25" y="-6.5" font-family="Helvetica,sans-Serif" font-size="10.00">domini.scrabble.Fitxa</text>
</a>
</g>
</g>
<!-- Node1&#45;&gt;Node6 -->
<g id="edge5_Node000001_Node000006" class="edge">
<title>Node1&#45;&gt;Node6</title>
<g id="a_edge5_Node000001_Node000006"><a xlink:title=" ">
<path fill="none" stroke="#63b8ff" d="M480.99,-55.55C490.11,-47.13 501.42,-36.69 510.79,-28.04"/>
<polygon fill="#63b8ff" stroke="#63b8ff" points="512.97,-30.79 517.95,-21.43 508.22,-25.65 512.97,-30.79"/>
</a>
</g>
</g>
<!-- Node7 -->
<g id="Node000007" class="node">
<title>Node7</title>
<g id="a_Node000007"><a xlink:title=" ">
<polygon fill="#e0e0e0" stroke="#999999" points="722.38,-20 602.12,-20 602.12,0 722.38,0 722.38,-20"/>
<text text-anchor="middle" x="662.25" y="-6.5" font-family="Helvetica,sans-Serif" font-size="10.00">domini.scrabble.Casella</text>
</a>
</g>
</g>
<!-- Node1&#45;&gt;Node7 -->
<g id="edge6_Node000001_Node000007" class="edge">
<title>Node1&#45;&gt;Node7</title>
<g id="a_edge6_Node000001_Node000007"><a xlink:title=" ">
<path fill="none" stroke="#63b8ff" d="M515.24,-55.55C547.79,-45.68 589.49,-33.05 620.15,-23.76"/>
<polygon fill="#63b8ff" stroke="#63b8ff" points="620.91,-27.18 629.46,-20.94 618.88,-20.49 620.91,-27.18"/>
</a>
</g>
</g>
<!-- Node8 -->
<g id="Node000008" class="node">
<title>Node8</title>
<g id="a_Node000008"><a xlink:title=" ">
<polygon fill="#e0e0e0" stroke="#999999" points="882.25,-20 740.25,-20 740.25,0 882.25,0 882.25,-20"/>
<text text-anchor="middle" x="811.25" y="-6.5" font-family="Helvetica,sans-Serif" font-size="10.00">domini.scrabble.Multiplicador</text>
</a>
</g>
</g>
<!-- Node1&#45;&gt;Node8 -->
<g id="edge7_Node000001_Node000008" class="edge">
<title>Node1&#45;&gt;Node8</title>
<g id="a_edge7_Node000001_Node000008"><a xlink:title=" ">
<path fill="none" stroke="#63b8ff" d="M525.09,-60.48C586.79,-49.81 681.98,-33.35 745.42,-22.38"/>
<polygon fill="#63b8ff" stroke="#63b8ff" points="745.74,-25.88 755,-20.73 744.55,-18.98 745.74,-25.88"/>
</a>
</g>
</g>
<!-- Node9 -->
<g id="Node000009" class="node">
<title>Node9</title>
<g id="a_Node000009"><a xlink:title=" ">
<polygon fill="#e0e0e0" stroke="#999999" points="996,-20 900.5,-20 900.5,0 996,0 996,-20"/>
<text text-anchor="middle" x="948.25" y="-6.5" font-family="Helvetica,sans-Serif" font-size="10.00">domini.diccionari.*</text>
</a>
</g>
</g>
<!-- Node1&#45;&gt;Node9 -->
<g id="edge8_Node000001_Node000009" class="edge">
<title>Node1&#45;&gt;Node9</title>
<g id="a_edge8_Node000001_Node000009"><a xlink:title=" ">
<path fill="none" stroke="#63b8ff" d="M525.15,-64.46C605.89,-55.62 753.07,-38.95 889.05,-20.26"/>
<polygon fill="#63b8ff" stroke="#63b8ff" points="889.14,-23.78 898.57,-18.95 888.18,-16.85 889.14,-23.78"/>
</a>
</g>
</g>
</g>
</svg>
