<?xml version="1.0" encoding="UTF-8" standalone="no"?>
<!DOCTYPE svg PUBLIC "-//W3C//DTD SVG 1.1//EN"
 "http://www.w3.org/Graphics/SVG/1.1/DTD/svg11.dtd">
<!-- Generated by graphviz version 12.2.1 (20241206.2353)
 -->
<!-- Title: FONTS/domini/scrabble/Taulell.java Pages: 1 -->
<svg width="502pt" height="96pt"
 viewBox="0.00 0.00 501.75 96.00" xmlns="http://www.w3.org/2000/svg" xmlns:xlink="http://www.w3.org/1999/xlink">
<g id="graph0" class="graph" transform="scale(1 1) rotate(0) translate(4 92)">
<title>FONTS/domini/scrabble/Taulell.java</title>
<!-- Node1 -->
<g id="Node000001" class="node">
<title>Node1</title>
<g id="a_Node000001"><a xlink:title=" ">
<polygon fill="#999999" stroke="#666666" points="312.38,-88 191.38,-88 191.38,-56 312.38,-56 312.38,-88"/>
<text text-anchor="start" x="199.38" y="-74.5" font-family="Helvetica,sans-Serif" font-size="10.00">FONTS/domini/scrabble</text>
<text text-anchor="middle" x="251.88" y="-62.5" font-family="Helvetica,sans-Serif" font-size="10.00">/Taulell.java</text>
</a>
</g>
</g>
<!-- Node2 -->
<g id="Node000002" class="node">
<title>Node2</title>
<g id="a_Node000002"><a xlink:title=" ">
<polygon fill="#e0e0e0" stroke="#999999" points="91.75,-20 0,-20 0,0 91.75,0 91.75,-20"/>
<text text-anchor="middle" x="45.88" y="-6.5" font-family="Helvetica,sans-Serif" font-size="10.00">java.util.ArrayList</text>
</a>
</g>
</g>
<!-- Node1&#45;&gt;Node2 -->
<g id="edge1_Node000001_Node000002" class="edge">
<title>Node1&#45;&gt;Node2</title>
<g id="a_edge1_Node000001_Node000002"><a xlink:title=" ">
<path fill="none" stroke="#63b8ff" d="M198.82,-55.55C164.81,-45.64 121.2,-32.94 89.26,-23.64"/>
<polygon fill="#63b8ff" stroke="#63b8ff" points="90.51,-20.36 79.93,-20.92 88.55,-27.08 90.51,-20.36"/>
</a>
</g>
</g>
<!-- Node3 -->
<g id="Node000003" class="node">
<title>Node3</title>
<g id="a_Node000003"><a xlink:title=" ">
<polygon fill="#e0e0e0" stroke="#999999" points="200.38,-20 109.38,-20 109.38,0 200.38,0 200.38,-20"/>
<text text-anchor="middle" x="154.88" y="-6.5" font-family="Helvetica,sans-Serif" font-size="10.00">java.util.HashSet</text>
</a>
</g>
</g>
<!-- Node1&#45;&gt;Node3 -->
<g id="edge2_Node000001_Node000003" class="edge">
<title>Node1&#45;&gt;Node3</title>
<g id="a_edge2_Node000001_Node000003"><a xlink:title=" ">
<path fill="none" stroke="#63b8ff" d="M226.9,-55.55C212.44,-46.61 194.31,-35.39 179.85,-26.45"/>
<polygon fill="#63b8ff" stroke="#63b8ff" points="181.72,-23.49 171.37,-21.2 178.04,-29.44 181.72,-23.49"/>
</a>
</g>
</g>
<!-- Node4 -->
<g id="Node000004" class="node">
<title>Node4</title>
<g id="a_Node000004"><a xlink:title=" ">
<polygon fill="#e0e0e0" stroke="#999999" points="285.75,-20 218,-20 218,0 285.75,0 285.75,-20"/>
<text text-anchor="middle" x="251.88" y="-6.5" font-family="Helvetica,sans-Serif" font-size="10.00">java.util.Set</text>
</a>
</g>
</g>
<!-- Node1&#45;&gt;Node4 -->
<g id="edge3_Node000001_Node000004" class="edge">
<title>Node1&#45;&gt;Node4</title>
<g id="a_edge3_Node000001_Node000004"><a xlink:title=" ">
<path fill="none" stroke="#63b8ff" d="M251.88,-55.55C251.88,-48.34 251.88,-39.66 251.88,-31.88"/>
<polygon fill="#63b8ff" stroke="#63b8ff" points="255.38,-31.92 251.88,-21.92 248.38,-31.92 255.38,-31.92"/>
</a>
</g>
</g>
<!-- Node5 -->
<g id="Node000005" class="node">
<title>Node5</title>
<g id="a_Node000005"><a xlink:title=" ">
<polygon fill="#e0e0e0" stroke="#999999" points="372.12,-20 303.62,-20 303.62,0 372.12,0 372.12,-20"/>
<text text-anchor="middle" x="337.88" y="-6.5" font-family="Helvetica,sans-Serif" font-size="10.00">java.util.List</text>
</a>
</g>
</g>
<!-- Node1&#45;&gt;Node5 -->
<g id="edge4_Node000001_Node000005" class="edge">
<title>Node1&#45;&gt;Node5</title>
<g id="a_edge4_Node000001_Node000005"><a xlink:title=" ">
<path fill="none" stroke="#63b8ff" d="M274.02,-55.55C286.59,-46.78 302.29,-35.83 314.98,-26.97"/>
<polygon fill="#63b8ff" stroke="#63b8ff" points="316.95,-29.87 323.15,-21.27 312.94,-24.13 316.95,-29.87"/>
</a>
</g>
</g>
<!-- Node6 -->
<g id="Node000006" class="node">
<title>Node6</title>
<g id="a_Node000006"><a xlink:title=" ">
<polygon fill="#e0e0e0" stroke="#999999" points="493.75,-20 390,-20 390,0 493.75,0 493.75,-20"/>
<text text-anchor="middle" x="441.88" y="-6.5" font-family="Helvetica,sans-Serif" font-size="10.00">domini.auxiliars.Pair</text>
</a>
</g>
</g>
<!-- Node1&#45;&gt;Node6 -->
<g id="edge5_Node000001_Node000006" class="edge">
<title>Node1&#45;&gt;Node6</title>
<g id="a_edge5_Node000001_Node000006"><a xlink:title=" ">
<path fill="none" stroke="#63b8ff" d="M300.8,-55.55C331.91,-45.73 371.7,-33.16 401.09,-23.88"/>
<polygon fill="#63b8ff" stroke="#63b8ff" points="401.88,-27.3 410.36,-20.95 399.77,-20.63 401.88,-27.3"/>
</a>
</g>
</g>
</g>
</svg>
