<?xml version="1.0" encoding="UTF-8" standalone="no"?>
<!DOCTYPE svg PUBLIC "-//W3C//DTD SVG 1.1//EN"
 "http://www.w3.org/Graphics/SVG/1.1/DTD/svg11.dtd">
<!-- Generated by graphviz version 12.2.1 (20241206.2353)
 -->
<!-- Title: FONTS/interficie/VistaConsultarRanking.java Pages: 1 -->
<!--zoomable 108 -->

<svg id="main" version="1.1" xmlns="http://www.w3.org/2000/svg" xmlns:xlink="http://www.w3.org/1999/xlink" xml:space="preserve" onload="init(evt)">

<style type="text/css"><![CDATA[
.node, .edge {opacity: 0.7;}
.node.selected, .edge.selected {opacity: 1;}
.edge:hover path { stroke: red; }
.edge:hover polygon { stroke: red; fill: red; }
]]></style>

<defs>
  <circle id="rim" cx="0" cy="0" r="7"/>
  <circle id="rim2" cx="0" cy="0" r="3.5"/>
  <g id="zoomPlus">
    <use xlink:href="#rim" fill="#404040"><set attributeName="fill" to="#808080" begin="zoomplus.mouseover" end="zoomplus.mouseout"/></use>
    <path d="M-4,0h8M0,-4v8" fill="none" stroke="white" stroke-width="1.5" pointer-events="none"/>
  </g>
  <g id="zoomMin">
    <use xlink:href="#rim" fill="#404040"><set attributeName="fill" to="#808080" begin="zoomminus.mouseover" end="zoomminus.mouseout"/></use>
    <path d="M-4,0h8" fill="none" stroke="white" stroke-width="1.5" pointer-events="none"/>
  </g>
  <g id="arrowUp" transform="translate(30 24)">
    <use xlink:href="#rim"/>
    <path pointer-events="none" fill="none" stroke="white" stroke-width="1.5" d="M0,-3.0v7 M-2.5,-0.5L0,-3.0L2.5,-0.5"/>
  </g>
  <g id="arrowRight" transform="rotate(90) translate(36 -43)">
    <use xlink:href="#rim"/>
    <path pointer-events="none" fill="none" stroke="white" stroke-width="1.5" d="M0,-3.0v7 M-2.5,-0.5L0,-3.0L2.5,-0.5"/>
  </g>
  <g id="arrowDown" transform="rotate(180) translate(-30 -48)">
    <use xlink:href="#rim"/>
    <path pointer-events="none" fill="none" stroke="white" stroke-width="1.5" d="M0,-3.0v7 M-2.5,-0.5L0,-3.0L2.5,-0.5"/>
  </g>
  <g id="arrowLeft" transform="rotate(270) translate(-36 17)">
    <use xlink:href="#rim"/>
    <path pointer-events="none" fill="none" stroke="white" stroke-width="1.5" d="M0,-3.0v7 M-2.5,-0.5L0,-3.0L2.5,-0.5"/>
  </g>
  <g id="resetDef">
    <use xlink:href="#rim2" fill="#404040"><set attributeName="fill" to="#808080" begin="reset.mouseover" end="reset.mouseout"/></use>
  </g>
</defs>
<script type="application/ecmascript">
var viewWidth = 1677;
var viewHeight = 108;
var sectionId = 'dynsection-0';
</script>
<script type="application/ecmascript" xlink:href="svg.min.js"/>
<svg id="graph" class="graph">
<g id="viewport">
<title>FONTS/interficie/VistaConsultarRanking.java</title>
<!-- Node1 -->
<g id="Node000001" class="node">
<title>Node1</title>
<g id="a_Node000001"><a xlink:title=" ">
<polygon fill="#999999" stroke="#666666" points="1005.5,-100 848.5,-100 848.5,-68 1005.5,-68 1005.5,-100"/>
<text text-anchor="start" x="856.5" y="-86.5" font-family="Helvetica,sans-Serif" font-size="10.00">FONTS/interficie/VistaConsultar</text>
<text text-anchor="middle" x="927" y="-74.5" font-family="Helvetica,sans-Serif" font-size="10.00">Ranking.java</text>
</a>
</g>
</g>
<!-- Node2 -->
<g id="Node000002" class="node">
<title>Node2</title>
<g id="a_Node000002"><a xlink:title=" ">
<polygon fill="#e0e0e0" stroke="#999999" points="136,-32 0,-32 0,0 136,0 136,-32"/>
<text text-anchor="start" x="8" y="-18.5" font-family="Helvetica,sans-Serif" font-size="10.00">javax.sound.sampled.Audio</text>
<text text-anchor="middle" x="68" y="-6.5" font-family="Helvetica,sans-Serif" font-size="10.00">InputStream</text>
</a>
</g>
</g>
<!-- Node1&#45;&gt;Node2 -->
<g id="edge1_Node000001_Node000002" class="edge">
<title>Node1&#45;&gt;Node2</title>
<g id="a_edge1_Node000001_Node000002"><a xlink:title=" ">
<path fill="none" stroke="#63b8ff" d="M848.15,-81.17C708.74,-77.22 409.48,-65.47 147.62,-32.23"/>
<polygon fill="#63b8ff" stroke="#63b8ff" points="148.23,-28.78 137.86,-30.98 147.33,-35.72 148.23,-28.78"/>
</a>
</g>
</g>
<!-- Node3 -->
<g id="Node000003" class="node">
<title>Node3</title>
<g id="a_Node000003"><a xlink:title=" ">
<polygon fill="#e0e0e0" stroke="#999999" points="290,-32 154,-32 154,0 290,0 290,-32"/>
<text text-anchor="start" x="162" y="-18.5" font-family="Helvetica,sans-Serif" font-size="10.00">javax.sound.sampled.Audio</text>
<text text-anchor="middle" x="222" y="-6.5" font-family="Helvetica,sans-Serif" font-size="10.00">System</text>
</a>
</g>
</g>
<!-- Node1&#45;&gt;Node3 -->
<g id="edge2_Node000001_Node000003" class="edge">
<title>Node1&#45;&gt;Node3</title>
<g id="a_edge2_Node000001_Node000003"><a xlink:title=" ">
<path fill="none" stroke="#63b8ff" d="M848.37,-79.43C731.3,-73.49 504.08,-59.57 301.52,-32.25"/>
<polygon fill="#63b8ff" stroke="#63b8ff" points="302.25,-28.82 291.87,-30.93 301.3,-35.75 302.25,-28.82"/>
</a>
</g>
</g>
<!-- Node4 -->
<g id="Node000004" class="node">
<title>Node4</title>
<g id="a_Node000004"><a xlink:title=" ">
<polygon fill="#e0e0e0" stroke="#999999" points="436.25,-26 307.75,-26 307.75,-6 436.25,-6 436.25,-26"/>
<text text-anchor="middle" x="372" y="-12.5" font-family="Helvetica,sans-Serif" font-size="10.00">javax.sound.sampled.Clip</text>
</a>
</g>
</g>
<!-- Node1&#45;&gt;Node4 -->
<g id="edge3_Node000001_Node000004" class="edge">
<title>Node1&#45;&gt;Node4</title>
<g id="a_edge3_Node000001_Node000004"><a xlink:title=" ">
<path fill="none" stroke="#63b8ff" d="M848.22,-77.03C752.53,-69.24 586.36,-53.95 445,-32 438.61,-31.01 431.94,-29.83 425.33,-28.58"/>
<polygon fill="#63b8ff" stroke="#63b8ff" points="426.31,-25.21 415.82,-26.72 424.96,-32.08 426.31,-25.21"/>
</a>
</g>
</g>
<!-- Node5 -->
<g id="Node000005" class="node">
<title>Node5</title>
<g id="a_Node000005"><a xlink:title=" ">
<polygon fill="#e0e0e0" stroke="#999999" points="583.62,-32 454.38,-32 454.38,0 583.62,0 583.62,-32"/>
<text text-anchor="start" x="462.38" y="-18.5" font-family="Helvetica,sans-Serif" font-size="10.00">javax.sound.sampled.Line</text>
<text text-anchor="middle" x="519" y="-6.5" font-family="Helvetica,sans-Serif" font-size="10.00">UnavailableException</text>
</a>
</g>
</g>
<!-- Node1&#45;&gt;Node5 -->
<g id="edge4_Node000001_Node000005" class="edge">
<title>Node1&#45;&gt;Node5</title>
<g id="a_edge4_Node000001_Node000005"><a xlink:title=" ">
<path fill="none" stroke="#63b8ff" d="M848.2,-72.07C783.06,-62.78 687.85,-48.62 595.22,-32.34"/>
<polygon fill="#63b8ff" stroke="#63b8ff" points="595.89,-28.91 585.43,-30.61 594.67,-35.8 595.89,-28.91"/>
</a>
</g>
</g>
<!-- Node6 -->
<g id="Node000006" class="node">
<title>Node6</title>
<g id="a_Node000006"><a xlink:title=" ">
<polygon fill="#e0e0e0" stroke="#999999" points="676.25,-26 601.75,-26 601.75,-6 676.25,-6 676.25,-26"/>
<text text-anchor="middle" x="639" y="-12.5" font-family="Helvetica,sans-Serif" font-size="10.00">javax.swing.*</text>
</a>
</g>
</g>
<!-- Node1&#45;&gt;Node6 -->
<g id="edge5_Node000001_Node000006" class="edge">
<title>Node1&#45;&gt;Node6</title>
<g id="a_edge5_Node000001_Node000006"><a xlink:title=" ">
<path fill="none" stroke="#63b8ff" d="M848.02,-68.58C800.48,-59.35 738.92,-46.43 685,-32 682.4,-31.3 679.73,-30.55 677.04,-29.75"/>
<polygon fill="#63b8ff" stroke="#63b8ff" points="678.13,-26.43 667.54,-26.82 676.06,-33.12 678.13,-26.43"/>
</a>
</g>
</g>
<!-- Node7 -->
<g id="Node000007" class="node">
<title>Node7</title>
<g id="a_Node000007"><a xlink:title=" ">
<polygon fill="#e0e0e0" stroke="#999999" points="833.88,-26 694.12,-26 694.12,-6 833.88,-6 833.88,-26"/>
<text text-anchor="middle" x="764" y="-12.5" font-family="Helvetica,sans-Serif" font-size="10.00">controladors.CtrlPresentacio</text>
</a>
</g>
</g>
<!-- Node1&#45;&gt;Node7 -->
<g id="edge6_Node000001_Node000007" class="edge">
<title>Node1&#45;&gt;Node7</title>
<g id="a_edge6_Node000001_Node000007"><a xlink:title=" ">
<path fill="none" stroke="#63b8ff" d="M888.78,-67.53C861.28,-56.39 824.52,-41.51 798.03,-30.78"/>
<polygon fill="#63b8ff" stroke="#63b8ff" points="799.35,-27.54 788.77,-27.03 796.72,-34.03 799.35,-27.54"/>
</a>
</g>
</g>
<!-- Node8 -->
<g id="Node000008" class="node">
<title>Node8</title>
<g id="a_Node000008"><a xlink:title=" ">
<polygon fill="#e0e0e0" stroke="#999999" points="911.75,-26 852.25,-26 852.25,-6 911.75,-6 911.75,-26"/>
<text text-anchor="middle" x="882" y="-12.5" font-family="Helvetica,sans-Serif" font-size="10.00">java.awt.*</text>
</a>
</g>
</g>
<!-- Node1&#45;&gt;Node8 -->
<g id="edge7_Node000001_Node000008" class="edge">
<title>Node1&#45;&gt;Node8</title>
<g id="a_edge7_Node000001_Node000008"><a xlink:title=" ">
<path fill="none" stroke="#63b8ff" d="M916.56,-67.69C910.02,-58.1 901.55,-45.67 894.62,-35.52"/>
<polygon fill="#63b8ff" stroke="#63b8ff" points="897.73,-33.86 889.2,-27.57 891.95,-37.8 897.73,-33.86"/>
</a>
</g>
</g>
<!-- Node9 -->
<g id="Node000009" class="node">
<title>Node9</title>
<g id="a_Node000009"><a xlink:title=" ">
<polygon fill="#e0e0e0" stroke="#999999" points="1016.25,-26 929.75,-26 929.75,-6 1016.25,-6 1016.25,-26"/>
<text text-anchor="middle" x="973" y="-12.5" font-family="Helvetica,sans-Serif" font-size="10.00">java.awt.event.*</text>
</a>
</g>
</g>
<!-- Node1&#45;&gt;Node9 -->
<g id="edge8_Node000001_Node000009" class="edge">
<title>Node1&#45;&gt;Node9</title>
<g id="a_edge8_Node000001_Node000009"><a xlink:title=" ">
<path fill="none" stroke="#63b8ff" d="M937.67,-67.69C944.36,-58.1 953.02,-45.67 960.09,-35.52"/>
<polygon fill="#63b8ff" stroke="#63b8ff" points="962.79,-37.76 965.64,-27.56 957.05,-33.76 962.79,-37.76"/>
</a>
</g>
</g>
<!-- Node10 -->
<g id="Node000010" class="node">
<title>Node10</title>
<g id="a_Node000010"><a xlink:title=" ">
<polygon fill="#e0e0e0" stroke="#999999" points="1097.62,-26 1034.38,-26 1034.38,-6 1097.62,-6 1097.62,-26"/>
<text text-anchor="middle" x="1066" y="-12.5" font-family="Helvetica,sans-Serif" font-size="10.00">java.io.File</text>
</a>
</g>
</g>
<!-- Node1&#45;&gt;Node10 -->
<g id="edge9_Node000001_Node000010" class="edge">
<title>Node1&#45;&gt;Node10</title>
<g id="a_edge9_Node000001_Node000010"><a xlink:title=" ">
<path fill="none" stroke="#63b8ff" d="M959.59,-67.53C982.62,-56.59 1013.27,-42.04 1035.76,-31.36"/>
<polygon fill="#63b8ff" stroke="#63b8ff" points="1037.18,-34.56 1044.71,-27.11 1034.17,-28.24 1037.18,-34.56"/>
</a>
</g>
</g>
<!-- Node11 -->
<g id="Node000011" class="node">
<title>Node11</title>
<g id="a_Node000011"><a xlink:title=" ">
<polygon fill="#e0e0e0" stroke="#999999" points="1216.75,-26 1115.25,-26 1115.25,-6 1216.75,-6 1216.75,-26"/>
<text text-anchor="middle" x="1166" y="-12.5" font-family="Helvetica,sans-Serif" font-size="10.00">java.io.IOException</text>
</a>
</g>
</g>
<!-- Node1&#45;&gt;Node11 -->
<g id="edge10_Node000001_Node000011" class="edge">
<title>Node1&#45;&gt;Node11</title>
<g id="a_edge10_Node000001_Node000011"><a xlink:title=" ">
<path fill="none" stroke="#63b8ff" d="M983.03,-67.53C1024.98,-55.94 1081.61,-40.3 1120.71,-29.51"/>
<polygon fill="#63b8ff" stroke="#63b8ff" points="1121.58,-32.9 1130.28,-26.86 1119.71,-26.15 1121.58,-32.9"/>
</a>
</g>
</g>
<!-- Node12 -->
<g id="Node000012" class="node">
<title>Node12</title>
<g id="a_Node000012"><a xlink:title=" ">
<polygon fill="#e0e0e0" stroke="#999999" points="1303.25,-26 1234.75,-26 1234.75,-6 1303.25,-6 1303.25,-26"/>
<text text-anchor="middle" x="1269" y="-12.5" font-family="Helvetica,sans-Serif" font-size="10.00">java.util.List</text>
</a>
</g>
</g>
<!-- Node1&#45;&gt;Node12 -->
<g id="edge11_Node000001_Node000012" class="edge">
<title>Node1&#45;&gt;Node12</title>
<g id="a_edge11_Node000001_Node000012"><a xlink:title=" ">
<path fill="none" stroke="#63b8ff" d="M1005.82,-73.21C1066.55,-64.79 1152.32,-50.99 1226,-32 1228.43,-31.37 1230.91,-30.67 1233.4,-29.93"/>
<polygon fill="#63b8ff" stroke="#63b8ff" points="1234.32,-33.31 1242.76,-26.9 1232.17,-26.65 1234.32,-33.31"/>
</a>
</g>
</g>
<!-- Node13 -->
<g id="Node000013" class="node">
<title>Node13</title>
<g id="a_Node000013"><a xlink:title=" ">
<polygon fill="#e0e0e0" stroke="#999999" points="1436.88,-26 1321.12,-26 1321.12,-6 1436.88,-6 1436.88,-26"/>
<text text-anchor="middle" x="1379" y="-12.5" font-family="Helvetica,sans-Serif" font-size="10.00">domini.jugadors.Avatar</text>
</a>
</g>
</g>
<!-- Node1&#45;&gt;Node13 -->
<g id="edge12_Node000001_Node000013" class="edge">
<title>Node1&#45;&gt;Node13</title>
<g id="a_edge12_Node000001_Node000013"><a xlink:title=" ">
<path fill="none" stroke="#63b8ff" d="M1005.84,-74.62C1083.88,-65.85 1206.62,-50.74 1312,-32 1317.3,-31.06 1322.81,-29.98 1328.29,-28.85"/>
<polygon fill="#63b8ff" stroke="#63b8ff" points="1328.91,-32.3 1337.96,-26.78 1327.45,-25.45 1328.91,-32.3"/>
</a>
</g>
</g>
<!-- Node14 -->
<g id="Node000014" class="node">
<title>Node14</title>
<g id="a_Node000014"><a xlink:title=" ">
<polygon fill="#e0e0e0" stroke="#999999" points="1535.25,-26 1454.75,-26 1454.75,-6 1535.25,-6 1535.25,-26"/>
<text text-anchor="middle" x="1495" y="-12.5" font-family="Helvetica,sans-Serif" font-size="10.00">interficie.utils.*</text>
</a>
</g>
</g>
<!-- Node1&#45;&gt;Node14 -->
<g id="edge13_Node000001_Node000014" class="edge">
<title>Node1&#45;&gt;Node14</title>
<g id="a_edge13_Node000001_Node000014"><a xlink:title=" ">
<path fill="none" stroke="#63b8ff" d="M1005.97,-80.13C1108.33,-75.29 1291.97,-62.82 1446,-32 1449.42,-31.32 1452.95,-30.49 1456.46,-29.58"/>
<polygon fill="#63b8ff" stroke="#63b8ff" points="1457.39,-32.95 1466.06,-26.87 1455.49,-26.22 1457.39,-32.95"/>
</a>
</g>
</g>
<!-- Node15 -->
<g id="Node000015" class="node">
<title>Node15</title>
<g id="a_Node000015"><a xlink:title=" ">
<polygon fill="#e0e0e0" stroke="#999999" points="1668.5,-26 1553.5,-26 1553.5,-6 1668.5,-6 1668.5,-26"/>
<text text-anchor="middle" x="1611" y="-12.5" font-family="Helvetica,sans-Serif" font-size="10.00">javax.sound.sampled.*</text>
</a>
</g>
</g>
<!-- Node1&#45;&gt;Node15 -->
<g id="edge14_Node000001_Node000015" class="edge">
<title>Node1&#45;&gt;Node15</title>
<g id="a_edge14_Node000001_Node000015"><a xlink:title=" ">
<path fill="none" stroke="#63b8ff" d="M1005.81,-79.96C1123.51,-74.65 1351.94,-61.29 1544,-32 1549.74,-31.12 1555.73,-30.04 1561.66,-28.85"/>
<polygon fill="#63b8ff" stroke="#63b8ff" points="1562.36,-32.28 1571.43,-26.79 1560.92,-25.43 1562.36,-32.28"/>
</a>
</g>
</g>
</g>
</svg>

<g id="navigator" transform="translate(0 0)" fill="#404254">
  <rect fill="#f2f5e9" fill-opacity="0.5" stroke="#606060" stroke-width=".5" x="0" y="0" width="60" height="60"/>
  <use id="zoomplus" xlink:href="#zoomPlus" x="17" y="9" onmousedown="handleZoom(evt,'in')"/>
  <use id="zoomminus" xlink:href="#zoomMin" x="42" y="9" onmousedown="handleZoom(evt,'out')"/>
  <use id="reset" xlink:href="#resetDef" x="30" y="36" onmousedown="handleReset()"/>
   <use id="arrowup" xlink:href="#arrowUp" x="0" y="0" onmousedown="handlePan(0,-1)"/>
  <use id="arrowright" xlink:href="#arrowRight" x="0" y="0" onmousedown="handlePan(1,0)"/>
  <use id="arrowdown" xlink:href="#arrowDown" x="0" y="0" onmousedown="handlePan(0,1)"/>
  <use id="arrowleft" xlink:href="#arrowLeft" x="0" y="0" onmousedown="handlePan(-1,0)"/>
</g>
<svg viewBox="0 0 15 15" width="100%" height="30px" preserveAspectRatio="xMaxYMin meet">
 <g id="arrow_out" transform="scale(0.3 0.3)">
  <a xlink:href="_vista_consultar_ranking_8java__incl_org.svg" target="_base">
   <rect id="button" ry="5" rx="5" y="6" x="6" height="38" width="38"
        fill="#f2f5e9" fill-opacity="0.5" stroke="#606060" stroke-width="1.0"/>
   <path id="arrow"
     d="M 11.500037,31.436501 C 11.940474,20.09759 22.043105,11.32322 32.158766,21.979434 L 37.068811,17.246167 C 37.068811,17.246167 37.088388,32 37.088388,32 L 22.160133,31.978069 C 22.160133,31.978069 26.997745,27.140456 26.997745,27.140456 C 18.528582,18.264221 13.291696,25.230495 11.500037,31.436501 z"
     style="fill:#404040;"/>
  </a>
 </g>
</svg>

<style type='text/css'>
<![CDATA[
[data-mouse-over-selected='false'] { opacity: 0.7; }
[data-mouse-over-selected='true']  { opacity: 1.0; }
]]>
</style>
<script type="application/ecmascript"><![CDATA[
document.addEventListener('DOMContentLoaded', (event) => {
  highlightEdges();
  highlightAdjacentNodes();
});
]]></script>
</svg>
