<?xml version="1.0" encoding="UTF-8" standalone="no"?>
<!DOCTYPE svg PUBLIC "-//W3C//DTD SVG 1.1//EN"
 "http://www.w3.org/Graphics/SVG/1.1/DTD/svg11.dtd">
<!-- Generated by graphviz version 12.2.1 (20241206.2353)
 -->
<!-- Title: domini.jugadors.Jugador.getFitxes_actuals Pages: 1 -->
<!--zoomable 574 -->

<svg id="main" version="1.1" xmlns="http://www.w3.org/2000/svg" xmlns:xlink="http://www.w3.org/1999/xlink" xml:space="preserve" onload="init(evt)">

<style type="text/css"><![CDATA[
.node, .edge {opacity: 0.7;}
.node.selected, .edge.selected {opacity: 1;}
.edge:hover path { stroke: red; }
.edge:hover polygon { stroke: red; fill: red; }
]]></style>

<defs>
  <circle id="rim" cx="0" cy="0" r="7"/>
  <circle id="rim2" cx="0" cy="0" r="3.5"/>
  <g id="zoomPlus">
    <use xlink:href="#rim" fill="#404040"><set attributeName="fill" to="#808080" begin="zoomplus.mouseover" end="zoomplus.mouseout"/></use>
    <path d="M-4,0h8M0,-4v8" fill="none" stroke="white" stroke-width="1.5" pointer-events="none"/>
  </g>
  <g id="zoomMin">
    <use xlink:href="#rim" fill="#404040"><set attributeName="fill" to="#808080" begin="zoomminus.mouseover" end="zoomminus.mouseout"/></use>
    <path d="M-4,0h8" fill="none" stroke="white" stroke-width="1.5" pointer-events="none"/>
  </g>
  <g id="arrowUp" transform="translate(30 24)">
    <use xlink:href="#rim"/>
    <path pointer-events="none" fill="none" stroke="white" stroke-width="1.5" d="M0,-3.0v7 M-2.5,-0.5L0,-3.0L2.5,-0.5"/>
  </g>
  <g id="arrowRight" transform="rotate(90) translate(36 -43)">
    <use xlink:href="#rim"/>
    <path pointer-events="none" fill="none" stroke="white" stroke-width="1.5" d="M0,-3.0v7 M-2.5,-0.5L0,-3.0L2.5,-0.5"/>
  </g>
  <g id="arrowDown" transform="rotate(180) translate(-30 -48)">
    <use xlink:href="#rim"/>
    <path pointer-events="none" fill="none" stroke="white" stroke-width="1.5" d="M0,-3.0v7 M-2.5,-0.5L0,-3.0L2.5,-0.5"/>
  </g>
  <g id="arrowLeft" transform="rotate(270) translate(-36 17)">
    <use xlink:href="#rim"/>
    <path pointer-events="none" fill="none" stroke="white" stroke-width="1.5" d="M0,-3.0v7 M-2.5,-0.5L0,-3.0L2.5,-0.5"/>
  </g>
  <g id="resetDef">
    <use xlink:href="#rim2" fill="#404040"><set attributeName="fill" to="#808080" begin="reset.mouseover" end="reset.mouseout"/></use>
  </g>
</defs>
<script type="application/ecmascript">
var viewWidth = 1250;
var viewHeight = 574;
var sectionId = 'dynsection-4';
</script>
<script type="application/ecmascript" xlink:href="svg.min.js"/>
<svg id="graph" class="graph">
<g id="viewport">
<title>domini.jugadors.Jugador.getFitxes_actuals</title>
<!-- Node1 -->
<g id="Node000001" class="node">
<title>Node1</title>
<g id="a_Node000001"><a xlink:title="Retorna la llista amb les fitxes actuals del jugador.">
<polygon fill="#999999" stroke="#666666" points="1242.25,-279 1104,-279 1104,-247 1242.25,-247 1242.25,-279"/>
<text text-anchor="start" x="1112" y="-265.5" font-family="Helvetica,sans-Serif" font-size="10.00">domini.jugadors.Jugador.get</text>
<text text-anchor="middle" x="1173.12" y="-253.5" font-family="Helvetica,sans-Serif" font-size="10.00">Fitxes_actuals</text>
</a>
</g>
</g>
<!-- Node2 -->
<g id="Node000002" class="node">
<title>Node2</title>
<g id="a_Node000002"><a xlink:href="classinterficie_1_1_vista_partida.html#a6bd7550fc714ba5195c8b55ffe3d973c" target="_top" xlink:title="Afegeix les fitxes d&#39;un jugador al seu rack.">
<polygon fill="white" stroke="#666666" points="1053.75,-433 917.75,-433 917.75,-401 1053.75,-401 1053.75,-433"/>
<text text-anchor="start" x="925.75" y="-419.5" font-family="Helvetica,sans-Serif" font-size="10.00">interficie.VistaPartida.afegir</text>
<text text-anchor="middle" x="985.75" y="-407.5" font-family="Helvetica,sans-Serif" font-size="10.00">FitxesARack</text>
</a>
</g>
</g>
<!-- Node1&#45;&gt;Node2 -->
<g id="edge1_Node000001_Node000002" class="edge">
<title>Node1&#45;&gt;Node2</title>
<g id="a_edge1_Node000001_Node000002"><a xlink:title=" ">
<path fill="none" stroke="#63b8ff" d="M1156.31,-288.87C1138.14,-316.64 1105.88,-360.35 1068,-387 1060.37,-392.36 1051.68,-396.89 1042.87,-400.67"/>
<polygon fill="#63b8ff" stroke="#63b8ff" points="1159.1,-291 1161.54,-280.69 1153.2,-287.23 1159.1,-291"/>
</a>
</g>
</g>
<!-- Node6 -->
<g id="Node000006" class="node">
<title>Node6</title>
<g id="a_Node000006"><a xlink:href="classinterficie_1_1_vista_partida.html#ae6809bc2e7efc03077c111367571f788" target="_top" xlink:title="Afegeix maquetes al rack de l&#39;oponent.">
<polygon fill="white" stroke="#666666" points="330.5,-550 194.5,-550 194.5,-518 330.5,-518 330.5,-550"/>
<text text-anchor="start" x="202.5" y="-536.5" font-family="Helvetica,sans-Serif" font-size="10.00">interficie.VistaPartida.afegir</text>
<text text-anchor="middle" x="262.5" y="-524.5" font-family="Helvetica,sans-Serif" font-size="10.00">MaquetesARack</text>
</a>
</g>
</g>
<!-- Node1&#45;&gt;Node6 -->
<g id="edge19_Node000001_Node000006" class="edge">
<title>Node1&#45;&gt;Node6</title>
<g id="a_edge19_Node000001_Node000006"><a xlink:title=" ">
<path fill="none" stroke="#63b8ff" d="M1162.77,-289.75C1148.12,-328.18 1116.31,-399.08 1068,-442 964.35,-534.08 920.4,-566 781.75,-566 781.75,-566 781.75,-566 589.38,-566 499.56,-566 396.47,-553.81 330.72,-544.48"/>
<polygon fill="#63b8ff" stroke="#63b8ff" points="1165.9,-291.39 1166.09,-280.8 1159.33,-288.96 1165.9,-291.39"/>
</a>
</g>
</g>
<!-- Node10 -->
<g id="Node000010" class="node">
<title>Node10</title>
<g id="a_Node000010"><a xlink:href="classdomini_1_1scrabble_1_1_partida.html#acf60a856f124c361384e0fc1456a4f37" target="_top" xlink:title="Calcula la puntuació total de les fitxes restants d&#39;un jugador.">
<polygon fill="white" stroke="#666666" points="1063.12,-345 908.38,-345 908.38,-313 1063.12,-313 1063.12,-345"/>
<text text-anchor="start" x="916.38" y="-331.5" font-family="Helvetica,sans-Serif" font-size="10.00">domini.scrabble.Partida.calcular</text>
<text text-anchor="middle" x="985.75" y="-319.5" font-family="Helvetica,sans-Serif" font-size="10.00">PuntuacionsFitxes</text>
</a>
</g>
</g>
<!-- Node1&#45;&gt;Node10 -->
<g id="edge20_Node000001_Node000010" class="edge">
<title>Node1&#45;&gt;Node10</title>
<g id="a_edge20_Node000001_Node000010"><a xlink:title=" ">
<path fill="none" stroke="#63b8ff" d="M1115.18,-283.27C1088.74,-292.69 1057.71,-303.73 1032.78,-312.61"/>
<polygon fill="#63b8ff" stroke="#63b8ff" points="1116.15,-286.64 1124.4,-279.99 1113.8,-280.05 1116.15,-286.64"/>
</a>
</g>
</g>
<!-- Node12 -->
<g id="Node000012" class="node">
<title>Node12</title>
<g id="a_Node000012"><a xlink:href="classcontroladors_1_1_ctrl_partida.html#ad0f7d5edb502bc4956cfd54612209ea7" target="_top" xlink:title="Col·loca una paraula al taulell.">
<polygon fill="white" stroke="#666666" points="857.38,-276 704.12,-276 704.12,-244 857.38,-244 857.38,-276"/>
<text text-anchor="start" x="712.12" y="-262.5" font-family="Helvetica,sans-Serif" font-size="10.00">controladors.CtrlPartida.colocar</text>
<text text-anchor="middle" x="780.75" y="-250.5" font-family="Helvetica,sans-Serif" font-size="10.00">Paraula</text>
</a>
</g>
</g>
<!-- Node1&#45;&gt;Node12 -->
<g id="edge22_Node000001_Node000012" class="edge">
<title>Node1&#45;&gt;Node12</title>
<g id="a_edge22_Node000001_Node000012"><a xlink:title=" ">
<path fill="none" stroke="#63b8ff" d="M1092.07,-265.54C1083.94,-265.73 1075.8,-265.89 1068,-266 994.9,-267.05 976.59,-267.8 903.5,-266 888.69,-265.64 872.88,-265.02 857.72,-264.32"/>
<polygon fill="#63b8ff" stroke="#63b8ff" points="1092.1,-269.04 1102.01,-265.29 1091.92,-262.04 1092.1,-269.04"/>
</a>
</g>
</g>
<!-- Node13 -->
<g id="Node000013" class="node">
<title>Node13</title>
<g id="a_Node000013"><a xlink:href="classcontroladors_1_1_ctrl_partida.html#a11dd5c5c7252681872e3ba7baf8213a8" target="_top" xlink:title="Comprova si una paraula és vàlida.">
<polygon fill="white" stroke="#666666" points="1068,-257 903.5,-257 903.5,-225 1068,-225 1068,-257"/>
<text text-anchor="start" x="911.5" y="-243.5" font-family="Helvetica,sans-Serif" font-size="10.00">controladors.CtrlPartida.comprova</text>
<text text-anchor="middle" x="985.75" y="-231.5" font-family="Helvetica,sans-Serif" font-size="10.00">_paraula</text>
</a>
</g>
</g>
<!-- Node1&#45;&gt;Node13 -->
<g id="edge23_Node000001_Node000013" class="edge">
<title>Node1&#45;&gt;Node13</title>
<g id="a_edge23_Node000001_Node000013"><a xlink:title=" ">
<path fill="none" stroke="#63b8ff" d="M1092.21,-253.52C1084.34,-252.58 1076.35,-251.63 1068.46,-250.7"/>
<polygon fill="#63b8ff" stroke="#63b8ff" points="1091.78,-256.99 1102.12,-254.69 1092.6,-250.04 1091.78,-256.99"/>
</a>
</g>
</g>
<!-- Node14 -->
<g id="Node000014" class="node">
<title>Node14</title>
<g id="a_Node000014"><a xlink:href="classcontroladors_1_1_ctrl_partida.html#afa4340f6a2cb198455d536ccaf87717b" target="_top" xlink:title="Gestiona el desenvolupament de la jugada de la màquina.">
<polygon fill="white" stroke="#666666" points="1052.25,-207 919.25,-207 919.25,-175 1052.25,-175 1052.25,-207"/>
<text text-anchor="start" x="927.25" y="-193.5" font-family="Helvetica,sans-Serif" font-size="10.00">controladors.CtrlPartida.fer</text>
<text text-anchor="middle" x="985.75" y="-181.5" font-family="Helvetica,sans-Serif" font-size="10.00">JugadaMaquina</text>
</a>
</g>
</g>
<!-- Node1&#45;&gt;Node14 -->
<g id="edge25_Node000001_Node000014" class="edge">
<title>Node1&#45;&gt;Node14</title>
<g id="a_edge25_Node000001_Node000014"><a xlink:title=" ">
<path fill="none" stroke="#63b8ff" d="M1128.39,-241.79C1109.97,-233.24 1088.16,-223.62 1068,-216 1060.13,-213.03 1051.74,-210.14 1043.44,-207.44"/>
<polygon fill="#63b8ff" stroke="#63b8ff" points="1126.9,-244.95 1137.44,-246.03 1129.87,-238.62 1126.9,-244.95"/>
</a>
</g>
</g>
<!-- Node15 -->
<g id="Node000015" class="node">
<title>Node15</title>
<g id="a_Node000015"><a xlink:href="classdomini_1_1scrabble_1_1_partida.html#a2cfb2a0e022254c8d75b439f3a9589d7" target="_top" xlink:title="Retorna la llista de fitxes actuals del jugador que té el torn.">
<polygon fill="white" stroke="#666666" points="1053,-157 918.5,-157 918.5,-125 1053,-125 1053,-157"/>
<text text-anchor="start" x="926.5" y="-143.5" font-family="Helvetica,sans-Serif" font-size="10.00">domini.scrabble.Partida.get</text>
<text text-anchor="middle" x="985.75" y="-131.5" font-family="Helvetica,sans-Serif" font-size="10.00">FitxesActuals</text>
</a>
</g>
</g>
<!-- Node1&#45;&gt;Node15 -->
<g id="edge26_Node000001_Node000015" class="edge">
<title>Node1&#45;&gt;Node15</title>
<g id="a_edge26_Node000001_Node000015"><a xlink:title=" ">
<path fill="none" stroke="#63b8ff" d="M1151.32,-238.06C1131.85,-216.2 1100.9,-185.02 1068,-166 1062.38,-162.75 1056.29,-159.88 1050.06,-157.35"/>
<polygon fill="#63b8ff" stroke="#63b8ff" points="1148.48,-240.14 1157.7,-245.37 1153.76,-235.53 1148.48,-240.14"/>
</a>
</g>
</g>
<!-- Node16 -->
<g id="Node000016" class="node">
<title>Node16</title>
<g id="a_Node000016"><a xlink:href="classcontroladors_1_1_ctrl_partida.html#a61496d909625ed12db90142ec907388a" target="_top" xlink:title="Obté el nombre de fitxes que té el jugador actual.">
<polygon fill="white" stroke="#666666" points="1062.38,-107 909.12,-107 909.12,-75 1062.38,-75 1062.38,-107"/>
<text text-anchor="start" x="917.12" y="-93.5" font-family="Helvetica,sans-Serif" font-size="10.00">controladors.CtrlPartida.jugador</text>
<text text-anchor="middle" x="985.75" y="-81.5" font-family="Helvetica,sans-Serif" font-size="10.00">_controladorNUM_FITXES</text>
</a>
</g>
</g>
<!-- Node1&#45;&gt;Node16 -->
<g id="edge27_Node000001_Node000016" class="edge">
<title>Node1&#45;&gt;Node16</title>
<g id="a_edge27_Node000001_Node000016"><a xlink:title=" ">
<path fill="none" stroke="#63b8ff" d="M1160.07,-236.38C1143.79,-203.38 1111.7,-147.63 1068,-116 1063.46,-112.71 1058.47,-109.85 1053.28,-107.36"/>
<polygon fill="#63b8ff" stroke="#63b8ff" points="1156.85,-237.76 1164.32,-245.27 1163.16,-234.74 1156.85,-237.76"/>
</a>
</g>
</g>
<!-- Node17 -->
<g id="Node000017" class="node">
<title>Node17</title>
<g id="a_Node000017"><a xlink:href="classinterficie_1_1_vista_partida.html#a338cec676072419cb1cdf74a8c57ece5" target="_top" xlink:title="Actualitza la visualització del rack del jugador actual.">
<polygon fill="white" stroke="#666666" points="867.5,-383 694,-383 694,-363 867.5,-363 867.5,-383"/>
<text text-anchor="middle" x="780.75" y="-369.5" font-family="Helvetica,sans-Serif" font-size="10.00">interficie.VistaPartida.refrescarRack</text>
</a>
</g>
</g>
<!-- Node1&#45;&gt;Node17 -->
<g id="edge28_Node000001_Node000017" class="edge">
<title>Node1&#45;&gt;Node17</title>
<g id="a_edge28_Node000001_Node000017"><a xlink:title=" ">
<path fill="none" stroke="#63b8ff" d="M1151.98,-288.1C1132.91,-309.81 1102.16,-339.87 1068,-354 1004.6,-380.23 926.55,-383.73 867.97,-381.37"/>
<polygon fill="#63b8ff" stroke="#63b8ff" points="1154.61,-290.41 1158.43,-280.53 1149.28,-285.87 1154.61,-290.41"/>
</a>
</g>
</g>
<!-- Node18 -->
<g id="Node000018" class="node">
<title>Node18</title>
<g id="a_Node000018"><a xlink:href="classdomini_1_1scrabble_1_1_partida.html#abaa5693ea1ae1d5b396c3c510f66969b" target="_top" xlink:title="Reomple les fitxes d&#39;un jugador fins al màxim permès.">
<polygon fill="white" stroke="#666666" points="1063.5,-57 908,-57 908,-25 1063.5,-25 1063.5,-57"/>
<text text-anchor="start" x="916" y="-43.5" font-family="Helvetica,sans-Serif" font-size="10.00">domini.scrabble.Partida.reomplir</text>
<text text-anchor="middle" x="985.75" y="-31.5" font-family="Helvetica,sans-Serif" font-size="10.00">FitxesJugador</text>
</a>
</g>
</g>
<!-- Node1&#45;&gt;Node18 -->
<g id="edge32_Node000001_Node000018" class="edge">
<title>Node1&#45;&gt;Node18</title>
<g id="a_edge32_Node000001_Node000018"><a xlink:title=" ">
<path fill="none" stroke="#63b8ff" d="M1165.1,-235.92C1152.69,-193.47 1122.88,-111.44 1068,-66 1064.02,-62.71 1059.61,-59.85 1054.96,-57.36"/>
<polygon fill="#63b8ff" stroke="#63b8ff" points="1161.66,-236.63 1167.73,-245.32 1168.4,-234.74 1161.66,-236.63"/>
</a>
</g>
</g>
<!-- Node3 -->
<g id="Node000003" class="node">
<title>Node3</title>
<g id="a_Node000003"><a xlink:href="classinterficie_1_1_vista_partida.html#a0698d192124492ebfd8a3b029a6fa23c" target="_top" xlink:title="Actualitza els racks dels jugadors.">
<polygon fill="white" stroke="#666666" points="855.88,-474 705.62,-474 705.62,-442 855.88,-442 855.88,-474"/>
<text text-anchor="start" x="713.62" y="-460.5" font-family="Helvetica,sans-Serif" font-size="10.00">interficie.VistaPartida.refrescar</text>
<text text-anchor="middle" x="780.75" y="-448.5" font-family="Helvetica,sans-Serif" font-size="10.00">RackJugadors</text>
</a>
</g>
</g>
<!-- Node2&#45;&gt;Node3 -->
<g id="edge2_Node000002_Node000003" class="edge">
<title>Node2&#45;&gt;Node3</title>
<g id="a_edge2_Node000002_Node000003"><a xlink:title=" ">
<path fill="none" stroke="#63b8ff" d="M906.22,-432.86C889.79,-436.18 872.51,-439.67 856.23,-442.96"/>
<polygon fill="#63b8ff" stroke="#63b8ff" points="906.84,-436.31 915.95,-430.9 905.46,-429.44 906.84,-436.31"/>
</a>
</g>
</g>
<!-- Node4 -->
<g id="Node000004" class="node">
<title>Node4</title>
<g id="a_Node000004"><a xlink:href="classinterficie_1_1_vista_partida.html#a7855e7a9cc41e1450c37054781ba6309" target="_top" xlink:title="Inicialitza els components de la interfície gràfica.">
<polygon fill="white" stroke="#666666" points="658,-348 522.75,-348 522.75,-328 658,-328 658,-348"/>
<text text-anchor="middle" x="590.38" y="-334.5" font-family="Helvetica,sans-Serif" font-size="10.00">interficie.VistaPartida.initUI</text>
</a>
</g>
</g>
<!-- Node3&#45;&gt;Node4 -->
<g id="edge3_Node000003_Node000004" class="edge">
<title>Node3&#45;&gt;Node4</title>
<g id="a_edge3_Node000003_Node000004"><a xlink:title=" ">
<path fill="none" stroke="#63b8ff" d="M744.38,-435.47C703.51,-409.44 638.02,-367.71 607.72,-348.41"/>
<polygon fill="#63b8ff" stroke="#63b8ff" points="742.36,-438.33 752.68,-440.75 746.12,-432.43 742.36,-438.33"/>
</a>
</g>
</g>
<!-- Node5 -->
<g id="Node000005" class="node">
<title>Node5</title>
<g id="a_Node000005"><a xlink:href="classinterficie_1_1_vista_partida.html#abce8626a6a3750affe851e1f8bea2cb3" target="_top" xlink:title="Constructor de la classe VistaPartida.">
<polygon fill="white" stroke="#666666" points="486.75,-424 374.75,-424 374.75,-392 486.75,-392 486.75,-424"/>
<text text-anchor="start" x="382.75" y="-410.5" font-family="Helvetica,sans-Serif" font-size="10.00">interficie.VistaPartida.</text>
<text text-anchor="middle" x="430.75" y="-398.5" font-family="Helvetica,sans-Serif" font-size="10.00">VistaPartida</text>
</a>
</g>
</g>
<!-- Node3&#45;&gt;Node5 -->
<g id="edge18_Node000003_Node000005" class="edge">
<title>Node3&#45;&gt;Node5</title>
<g id="a_edge18_Node000003_Node000005"><a xlink:title=" ">
<path fill="none" stroke="#63b8ff" d="M693.81,-450.14C643.73,-445.02 579.47,-437.52 522.75,-428 511.1,-426.05 498.7,-423.58 486.92,-421.05"/>
<polygon fill="#63b8ff" stroke="#63b8ff" points="693.44,-453.62 703.74,-451.14 694.14,-446.66 693.44,-453.62"/>
</a>
</g>
</g>
<!-- Node9 -->
<g id="Node000009" class="node">
<title>Node9</title>
<g id="a_Node000009"><a xlink:href="classinterficie_1_1_vista_partida.html#a485041b781e81c64fb5414207ff21d2a" target="_top" xlink:title="Actualitza la informació de la partida.">
<polygon fill="white" stroke="#666666" points="150.25,-424 0,-424 0,-392 150.25,-392 150.25,-424"/>
<text text-anchor="start" x="8" y="-410.5" font-family="Helvetica,sans-Serif" font-size="10.00">interficie.VistaPartida.refrescar</text>
<text text-anchor="middle" x="75.12" y="-398.5" font-family="Helvetica,sans-Serif" font-size="10.00">Informacio</text>
</a>
</g>
</g>
<!-- Node3&#45;&gt;Node9 -->
<g id="edge17_Node000003_Node000009" class="edge">
<title>Node3&#45;&gt;Node9</title>
<g id="a_edge17_Node000003_Node000009"><a xlink:title=" ">
<path fill="none" stroke="#63b8ff" d="M694.07,-466.14C577.85,-475.08 364.28,-484.04 186.25,-450 159.72,-444.93 131.27,-433.92 109.93,-424.45"/>
<polygon fill="#63b8ff" stroke="#63b8ff" points="694.15,-469.64 703.85,-465.37 693.6,-462.67 694.15,-469.64"/>
</a>
</g>
</g>
<!-- Node4&#45;&gt;Node5 -->
<g id="edge4_Node000004_Node000005" class="edge">
<title>Node4&#45;&gt;Node5</title>
<g id="a_edge4_Node000004_Node000005"><a xlink:title=" ">
<path fill="none" stroke="#63b8ff" d="M523.43,-352.71C523.2,-352.81 522.98,-352.9 522.75,-353 496.58,-364.28 467.33,-379.57 449.23,-391.6"/>
<polygon fill="#63b8ff" stroke="#63b8ff" points="524.59,-356.02 532.51,-348.98 521.93,-349.54 524.59,-356.02"/>
</a>
</g>
</g>
<!-- Node5&#45;&gt;Node2 -->
<g id="edge5_Node000005_Node000002" class="edge">
<title>Node5&#45;&gt;Node2</title>
<g id="a_edge5_Node000005_Node000002"><a xlink:title=" ">
<path fill="none" stroke="#63b8ff" d="M498.43,-409.09C604.61,-410.81 810.96,-414.17 917.49,-415.91"/>
<polygon fill="#63b8ff" stroke="#63b8ff" points="498.49,-405.59 488.44,-408.92 498.38,-412.58 498.49,-405.59"/>
</a>
</g>
</g>
<!-- Node5&#45;&gt;Node4 -->
<g id="edge15_Node000005_Node000004" class="edge">
<title>Node5&#45;&gt;Node4</title>
<g id="a_edge15_Node000005_Node000004"><a xlink:title=" ">
<path fill="none" stroke="#63b8ff" d="M488.57,-386.76C499.78,-381.39 511.55,-375.83 522.75,-371 541.49,-362.92 563.94,-355.23 577.41,-348.36"/>
<polygon fill="#63b8ff" stroke="#63b8ff" points="487.32,-383.48 479.82,-390.97 490.35,-389.79 487.32,-383.48"/>
</a>
</g>
</g>
<!-- Node5&#45;&gt;Node5 -->
<g id="edge16_Node000005_Node000005" class="edge">
<title>Node5&#45;&gt;Node5</title>
<g id="a_edge16_Node000005_Node000005"><a xlink:title=" ">
<path fill="none" stroke="#63b8ff" d="M457.35,-435.71C452.92,-439.48 444.05,-442 430.75,-442 406.43,-442 396.93,-433.58 402.25,-424.44"/>
<polygon fill="#63b8ff" stroke="#63b8ff" points="460.79,-436.38 459,-425.94 453.88,-435.22 460.79,-436.38"/>
</a>
</g>
</g>
<!-- Node5&#45;&gt;Node6 -->
<g id="edge6_Node000005_Node000006" class="edge">
<title>Node5&#45;&gt;Node6</title>
<g id="a_edge6_Node000005_Node000006"><a xlink:title=" ">
<path fill="none" stroke="#63b8ff" d="M399.23,-431.13C366.21,-456.16 314.37,-495.45 285.24,-517.52"/>
<polygon fill="#63b8ff" stroke="#63b8ff" points="400.95,-434.22 406.81,-425.39 396.73,-428.64 400.95,-434.22"/>
</a>
</g>
</g>
<!-- Node7 -->
<g id="Node000007" class="node">
<title>Node7</title>
<g id="a_Node000007"><a xlink:href="classinterficie_1_1_vista_partida.html#a8ebc9da2a2b927ba87ed97ad85ae44e8" target="_top" xlink:title="Confirma l&#39;acció de guardar la partida.">
<polygon fill="white" stroke="#666666" points="338.75,-374 186.25,-374 186.25,-342 338.75,-342 338.75,-374"/>
<text text-anchor="start" x="194.25" y="-360.5" font-family="Helvetica,sans-Serif" font-size="10.00">interficie.VistaPartida.confirmar</text>
<text text-anchor="middle" x="262.5" y="-348.5" font-family="Helvetica,sans-Serif" font-size="10.00">Guardar</text>
</a>
</g>
</g>
<!-- Node5&#45;&gt;Node7 -->
<g id="edge8_Node000005_Node000007" class="edge">
<title>Node5&#45;&gt;Node7</title>
<g id="a_edge8_Node000005_Node000007"><a xlink:title=" ">
<path fill="none" stroke="#63b8ff" d="M364.39,-388.34C349.15,-383.76 333.08,-378.92 318.34,-374.49"/>
<polygon fill="#63b8ff" stroke="#63b8ff" points="363.28,-391.66 373.86,-391.19 365.3,-384.96 363.28,-391.66"/>
</a>
</g>
</g>
<!-- Node8 -->
<g id="Node000008" class="node">
<title>Node8</title>
<g id="a_Node000008"><a xlink:href="classinterficie_1_1_vista_partida.html#ab47b596fbbd6a79289d4b9d7f5b5e068" target="_top" xlink:title="Crea un panell amb la informació d&#39;un jugador.">
<polygon fill="white" stroke="#666666" points="329.38,-424 195.62,-424 195.62,-392 329.38,-392 329.38,-424"/>
<text text-anchor="start" x="203.62" y="-410.5" font-family="Helvetica,sans-Serif" font-size="10.00">interficie.VistaPartida.crear</text>
<text text-anchor="middle" x="262.5" y="-398.5" font-family="Helvetica,sans-Serif" font-size="10.00">PanelJugador</text>
</a>
</g>
</g>
<!-- Node5&#45;&gt;Node8 -->
<g id="edge10_Node000005_Node000008" class="edge">
<title>Node5&#45;&gt;Node8</title>
<g id="a_edge10_Node000005_Node000008"><a xlink:title=" ">
<path fill="none" stroke="#63b8ff" d="M363.15,-408C352.19,-408 340.83,-408 329.87,-408"/>
<polygon fill="#63b8ff" stroke="#63b8ff" points="362.88,-411.5 372.88,-408 362.88,-404.5 362.88,-411.5"/>
</a>
</g>
</g>
<!-- Node6&#45;&gt;Node3 -->
<g id="edge7_Node000006_Node000003" class="edge">
<title>Node6&#45;&gt;Node3</title>
<g id="a_edge7_Node000006_Node000003"><a xlink:title=" ">
<path fill="none" stroke="#63b8ff" d="M342.16,-534.57C422.48,-533.63 550.31,-527.92 658,-504 688,-497.34 720.48,-484.77 744.35,-474.45"/>
<polygon fill="#63b8ff" stroke="#63b8ff" points="342.14,-531.07 332.17,-534.66 342.2,-538.07 342.14,-531.07"/>
</a>
</g>
</g>
<!-- Node7&#45;&gt;Node4 -->
<g id="edge9_Node000007_Node000004" class="edge">
<title>Node7&#45;&gt;Node4</title>
<g id="a_edge9_Node000007_Node000004"><a xlink:title=" ">
<path fill="none" stroke="#63b8ff" d="M350.28,-352.67C404.35,-349.36 472.84,-345.15 522.64,-342.1"/>
<polygon fill="#63b8ff" stroke="#63b8ff" points="350.26,-349.17 340.49,-353.27 350.69,-356.16 350.26,-349.17"/>
</a>
</g>
</g>
<!-- Node8&#45;&gt;Node9 -->
<g id="edge11_Node000008_Node000009" class="edge">
<title>Node8&#45;&gt;Node9</title>
<g id="a_edge11_Node000008_Node000009"><a xlink:title=" ">
<path fill="none" stroke="#63b8ff" d="M183.94,-408C172.85,-408 161.46,-408 150.44,-408"/>
<polygon fill="#63b8ff" stroke="#63b8ff" points="183.85,-411.5 193.85,-408 183.85,-404.5 183.85,-411.5"/>
</a>
</g>
</g>
<!-- Node9&#45;&gt;Node4 -->
<g id="edge12_Node000009_Node000004" class="edge">
<title>Node9&#45;&gt;Node4</title>
<g id="a_edge12_Node000009_Node000004"><a xlink:title=" ">
<path fill="none" stroke="#63b8ff" d="M101.63,-383.99C122.55,-366.05 153.9,-342.97 186.25,-333 307.82,-295.53 459.96,-313.79 537.99,-327.53"/>
<polygon fill="#63b8ff" stroke="#63b8ff" points="99.37,-381.32 94.19,-390.56 104,-386.57 99.37,-381.32"/>
</a>
</g>
</g>
<!-- Node9&#45;&gt;Node5 -->
<g id="edge14_Node000009_Node000005" class="edge">
<title>Node9&#45;&gt;Node5</title>
<g id="a_edge14_Node000009_Node000005"><a xlink:title=" ">
<path fill="none" stroke="#63b8ff" d="M148.34,-426.81C160.9,-429.38 173.89,-431.62 186.25,-433 253.61,-440.55 271.58,-442.06 338.75,-433 352.06,-431.2 366.19,-427.99 379.23,-424.46"/>
<polygon fill="#63b8ff" stroke="#63b8ff" points="149.44,-423.46 138.93,-424.78 147.97,-430.31 149.44,-423.46"/>
</a>
</g>
</g>
<!-- Node9&#45;&gt;Node9 -->
<g id="edge13_Node000009_Node000009" class="edge">
<title>Node9&#45;&gt;Node9</title>
<g id="a_edge13_Node000009_Node000009"><a xlink:title=" ">
<path fill="none" stroke="#63b8ff" d="M106.35,-435.71C101.14,-439.48 90.74,-442 75.12,-442 46.58,-442 35.43,-433.58 41.67,-424.44"/>
<polygon fill="#63b8ff" stroke="#63b8ff" points="109.78,-436.42 108.28,-425.93 102.91,-435.06 109.78,-436.42"/>
</a>
</g>
</g>
<!-- Node11 -->
<g id="Node000011" class="node">
<title>Node11</title>
<g id="a_Node000011"><a xlink:href="classdomini_1_1scrabble_1_1_partida.html#a7c2fed189a702017c00fe7af75b97e09" target="_top" xlink:title="Finalitza la partida per torns consecutius passats.">
<polygon fill="white" stroke="#666666" points="859.62,-345 701.88,-345 701.88,-313 859.62,-313 859.62,-345"/>
<text text-anchor="start" x="709.88" y="-331.5" font-family="Helvetica,sans-Serif" font-size="10.00">domini.scrabble.Partida.finalitzar</text>
<text text-anchor="middle" x="780.75" y="-319.5" font-family="Helvetica,sans-Serif" font-size="10.00">PerTornsConsecutius</text>
</a>
</g>
</g>
<!-- Node10&#45;&gt;Node11 -->
<g id="edge21_Node000010_Node000011" class="edge">
<title>Node10&#45;&gt;Node11</title>
<g id="a_edge21_Node000010_Node000011"><a xlink:title=" ">
<path fill="none" stroke="#63b8ff" d="M896.83,-329C884.57,-329 872.03,-329 859.95,-329"/>
<polygon fill="#63b8ff" stroke="#63b8ff" points="896.49,-332.5 906.49,-329 896.49,-325.5 896.49,-332.5"/>
</a>
</g>
</g>
<!-- Node13&#45;&gt;Node12 -->
<g id="edge24_Node000013_Node000012" class="edge">
<title>Node13&#45;&gt;Node12</title>
<g id="a_edge24_Node000013_Node000012"><a xlink:title=" ">
<path fill="none" stroke="#63b8ff" d="M891.73,-249.71C880.33,-250.77 868.79,-251.85 857.69,-252.89"/>
<polygon fill="#63b8ff" stroke="#63b8ff" points="891.92,-253.2 901.55,-248.79 891.27,-246.23 891.92,-253.2"/>
</a>
</g>
</g>
<!-- Node17&#45;&gt;Node4 -->
<g id="edge29_Node000017_Node000004" class="edge">
<title>Node17&#45;&gt;Node4</title>
<g id="a_edge29_Node000017_Node000004"><a xlink:title=" ">
<path fill="none" stroke="#63b8ff" d="M712.29,-360.47C691.12,-356.53 667.99,-352.23 647.67,-348.46"/>
<polygon fill="#63b8ff" stroke="#63b8ff" points="711.53,-363.88 722,-362.27 712.81,-357 711.53,-363.88"/>
</a>
</g>
</g>
<!-- Node17&#45;&gt;Node5 -->
<g id="edge31_Node000017_Node000005" class="edge">
<title>Node17&#45;&gt;Node5</title>
<g id="a_edge31_Node000017_Node000005"><a xlink:title=" ">
<path fill="none" stroke="#63b8ff" d="M682.56,-382.77C619.53,-389.11 539.67,-397.15 487.21,-402.42"/>
<polygon fill="#63b8ff" stroke="#63b8ff" points="682.62,-386.29 692.22,-381.8 681.92,-379.32 682.62,-386.29"/>
</a>
</g>
</g>
<!-- Node17&#45;&gt;Node9 -->
<g id="edge30_Node000017_Node000009" class="edge">
<title>Node17&#45;&gt;Node9</title>
<g id="a_edge30_Node000017_Node000009"><a xlink:title=" ">
<path fill="none" stroke="#63b8ff" d="M704.06,-358.75C700.59,-357.32 697.22,-355.74 694,-354 674.36,-343.41 678.37,-328.11 658,-319 586.27,-286.91 216.62,-295.18 186.25,-307 142.25,-324.12 105.15,-367.95 87.38,-391.85"/>
<polygon fill="#63b8ff" stroke="#63b8ff" points="702.66,-361.97 713.25,-362.11 705.06,-355.39 702.66,-361.97"/>
</a>
</g>
</g>
<!-- Node19 -->
<g id="Node000019" class="node">
<title>Node19</title>
<g id="a_Node000019"><a xlink:href="classdomini_1_1scrabble_1_1_partida.html#a86e61fd71ee980fd43e1b4f788dfc6ae" target="_top" xlink:title="Permet que la màquina faci una jugada.">
<polygon fill="white" stroke="#666666" points="846.88,-82 714.62,-82 714.62,-50 846.88,-50 846.88,-82"/>
<text text-anchor="start" x="722.62" y="-68.5" font-family="Helvetica,sans-Serif" font-size="10.00">domini.scrabble.Partida.fer</text>
<text text-anchor="middle" x="780.75" y="-56.5" font-family="Helvetica,sans-Serif" font-size="10.00">JugadaMaquina</text>
</a>
</g>
</g>
<!-- Node18&#45;&gt;Node19 -->
<g id="edge33_Node000018_Node000019" class="edge">
<title>Node18&#45;&gt;Node19</title>
<g id="a_edge33_Node000018_Node000019"><a xlink:title=" ">
<path fill="none" stroke="#63b8ff" d="M896.37,-51.88C879.83,-53.92 862.82,-56.02 847.14,-57.95"/>
<polygon fill="#63b8ff" stroke="#63b8ff" points="896.72,-55.37 906.21,-50.67 895.86,-48.42 896.72,-55.37"/>
</a>
</g>
</g>
<!-- Node20 -->
<g id="Node000020" class="node">
<title>Node20</title>
<g id="a_Node000020"><a xlink:href="classdomini_1_1scrabble_1_1_partida.html#a039d5724618f54fc293f4035422596c2" target="_top" xlink:title="Assigna fitxes inicials als jugadors.">
<polygon fill="white" stroke="#666666" points="863,-32 698.5,-32 698.5,0 863,0 863,-32"/>
<text text-anchor="start" x="706.5" y="-18.5" font-family="Helvetica,sans-Serif" font-size="10.00">domini.scrabble.Partida.inicialitzar</text>
<text text-anchor="middle" x="780.75" y="-6.5" font-family="Helvetica,sans-Serif" font-size="10.00">Jugadors</text>
</a>
</g>
</g>
<!-- Node18&#45;&gt;Node20 -->
<g id="edge34_Node000018_Node000020" class="edge">
<title>Node18&#45;&gt;Node20</title>
<g id="a_edge34_Node000018_Node000020"><a xlink:title=" ">
<path fill="none" stroke="#63b8ff" d="M896.41,-30.12C885.46,-28.77 874.31,-27.4 863.47,-26.06"/>
<polygon fill="#63b8ff" stroke="#63b8ff" points="895.86,-33.58 906.21,-31.33 896.72,-26.63 895.86,-33.58"/>
</a>
</g>
</g>
</g>
</svg>

<g id="navigator" transform="translate(0 0)" fill="#404254">
  <rect fill="#f2f5e9" fill-opacity="0.5" stroke="#606060" stroke-width=".5" x="0" y="0" width="60" height="60"/>
  <use id="zoomplus" xlink:href="#zoomPlus" x="17" y="9" onmousedown="handleZoom(evt,'in')"/>
  <use id="zoomminus" xlink:href="#zoomMin" x="42" y="9" onmousedown="handleZoom(evt,'out')"/>
  <use id="reset" xlink:href="#resetDef" x="30" y="36" onmousedown="handleReset()"/>
   <use id="arrowup" xlink:href="#arrowUp" x="0" y="0" onmousedown="handlePan(0,-1)"/>
  <use id="arrowright" xlink:href="#arrowRight" x="0" y="0" onmousedown="handlePan(1,0)"/>
  <use id="arrowdown" xlink:href="#arrowDown" x="0" y="0" onmousedown="handlePan(0,1)"/>
  <use id="arrowleft" xlink:href="#arrowLeft" x="0" y="0" onmousedown="handlePan(-1,0)"/>
</g>
<svg viewBox="0 0 15 15" width="100%" height="30px" preserveAspectRatio="xMaxYMin meet">
 <g id="arrow_out" transform="scale(0.3 0.3)">
  <a xlink:href="classdomini_1_1jugadors_1_1_jugador_acf9520ec234c3f2cc52e1b79b85a008e_icgraph_org.svg" target="_base">
   <rect id="button" ry="5" rx="5" y="6" x="6" height="38" width="38"
        fill="#f2f5e9" fill-opacity="0.5" stroke="#606060" stroke-width="1.0"/>
   <path id="arrow"
     d="M 11.500037,31.436501 C 11.940474,20.09759 22.043105,11.32322 32.158766,21.979434 L 37.068811,17.246167 C 37.068811,17.246167 37.088388,32 37.088388,32 L 22.160133,31.978069 C 22.160133,31.978069 26.997745,27.140456 26.997745,27.140456 C 18.528582,18.264221 13.291696,25.230495 11.500037,31.436501 z"
     style="fill:#404040;"/>
  </a>
 </g>
</svg>

<style type='text/css'>
<![CDATA[
[data-mouse-over-selected='false'] { opacity: 0.7; }
[data-mouse-over-selected='true']  { opacity: 1.0; }
]]>
</style>
<script type="application/ecmascript"><![CDATA[
document.addEventListener('DOMContentLoaded', (event) => {
  highlightEdges();
  highlightAdjacentNodes();
});
]]></script>
</svg>
