<?xml version="1.0" encoding="UTF-8" standalone="no"?>
<!DOCTYPE svg PUBLIC "-//W3C//DTD SVG 1.1//EN"
 "http://www.w3.org/Graphics/SVG/1.1/DTD/svg11.dtd">
<!-- Generated by graphviz version 12.2.1 (20241206.2353)
 -->
<!-- Title: interficie.VistaMenuPrincipal.VistaMenuPrincipal Pages: 1 -->
<svg width="593pt" height="257pt"
 viewBox="0.00 0.00 593.00 256.89" xmlns="http://www.w3.org/2000/svg" xmlns:xlink="http://www.w3.org/1999/xlink">
<g id="graph0" class="graph" transform="scale(1 1) rotate(0) translate(4 252.89)">
<title>interficie.VistaMenuPrincipal.VistaMenuPrincipal</title>
<!-- Node1 -->
<g id="Node000001" class="node">
<title>Node1</title>
<g id="a_Node000001"><a xlink:title="Constructor de la classe VistaMenuPrincipal.">
<polygon fill="#999999" stroke="#666666" points="142.75,-145 0,-145 0,-113 142.75,-113 142.75,-145"/>
<text text-anchor="start" x="8" y="-131.5" font-family="Helvetica,sans-Serif" font-size="10.00">interficie.VistaMenuPrincipal.</text>
<text text-anchor="middle" x="71.38" y="-119.5" font-family="Helvetica,sans-Serif" font-size="10.00">VistaMenuPrincipal</text>
</a>
</g>
</g>
<!-- Node1&#45;&gt;Node1 -->
<g id="edge8_Node000001_Node000001" class="edge">
<title>Node1&#45;&gt;Node1</title>
<g id="a_edge8_Node000001_Node000001"><a xlink:title=" ">
<path fill="none" stroke="#63b8ff" d="M35.91,-145.44C29.3,-154.58 41.12,-163 71.38,-163 87.92,-163 98.96,-160.48 104.48,-156.71"/>
<polygon fill="#63b8ff" stroke="#63b8ff" points="107.9,-157.43 106.52,-146.92 101.05,-155.99 107.9,-157.43"/>
</a>
</g>
</g>
<!-- Node2 -->
<g id="Node000002" class="node">
<title>Node2</title>
<g id="a_Node000002"><a xlink:href="$classinterficie_1_1_vista_menu_principal.html#a9fadc5a8b4c73d3b1ed8b8006e451595" xlink:title="Actualitza la imatge del logotip amb una mida determinada.">
<polygon fill="white" stroke="#666666" points="585,-167 397.25,-167 397.25,-135 585,-135 585,-167"/>
<text text-anchor="start" x="405.25" y="-153.5" font-family="Helvetica,sans-Serif" font-size="10.00">interficie.VistaMenuPrincipal.actualitzar</text>
<text text-anchor="middle" x="491.12" y="-141.5" font-family="Helvetica,sans-Serif" font-size="10.00">Imatge</text>
</a>
</g>
</g>
<!-- Node1&#45;&gt;Node2 -->
<g id="edge1_Node000001_Node000002" class="edge">
<title>Node1&#45;&gt;Node2</title>
<g id="a_edge1_Node000001_Node000002"><a xlink:title=" ">
<path fill="none" stroke="#63b8ff" d="M83.43,-145.37C100.58,-169.11 136.1,-212.1 178.75,-229 254.16,-258.88 283.12,-250.8 361.25,-229 399.22,-218.4 437.16,-193.24 461.94,-174.34"/>
<polygon fill="#63b8ff" stroke="#63b8ff" points="463.84,-177.29 469.57,-168.38 459.54,-171.78 463.84,-177.29"/>
</a>
</g>
</g>
<!-- Node3 -->
<g id="Node000003" class="node">
<title>Node3</title>
<g id="a_Node000003"><a xlink:href="$classcontroladors_1_1_ctrl_presentacio.html#a3276c424f81ae1fd55629c120f70824f" xlink:title="Canvia la vista actual a la vista de creació de perfil.">
<polygon fill="white" stroke="#666666" points="357.12,-220 182.88,-220 182.88,-188 357.12,-188 357.12,-220"/>
<text text-anchor="start" x="190.88" y="-206.5" font-family="Helvetica,sans-Serif" font-size="10.00">controladors.CtrlPresentacio.canviar</text>
<text text-anchor="middle" x="270" y="-194.5" font-family="Helvetica,sans-Serif" font-size="10.00">CrearPerfil</text>
</a>
</g>
</g>
<!-- Node1&#45;&gt;Node3 -->
<g id="edge2_Node000001_Node000003" class="edge">
<title>Node1&#45;&gt;Node3</title>
<g id="a_edge2_Node000001_Node000003"><a xlink:title=" ">
<path fill="none" stroke="#63b8ff" d="M103.43,-145.3C124.33,-155.85 152.73,-169.36 178.75,-179 183.64,-180.81 188.72,-182.56 193.86,-184.24"/>
<polygon fill="#63b8ff" stroke="#63b8ff" points="192.45,-187.46 203.04,-187.11 194.54,-180.78 192.45,-187.46"/>
</a>
</g>
</g>
<!-- Node4 -->
<g id="Node000004" class="node">
<title>Node4</title>
<g id="a_Node000004"><a xlink:href="$classcontroladors_1_1_ctrl_presentacio.html#ad3a56ef460d03c3b8277ffebb3b70929" xlink:title="Canvia la vista actual a la vista d&#39;inici de sessió.">
<polygon fill="white" stroke="#666666" points="357.12,-170 182.88,-170 182.88,-138 357.12,-138 357.12,-170"/>
<text text-anchor="start" x="190.88" y="-156.5" font-family="Helvetica,sans-Serif" font-size="10.00">controladors.CtrlPresentacio.canviar</text>
<text text-anchor="middle" x="270" y="-144.5" font-family="Helvetica,sans-Serif" font-size="10.00">IniciarSessio</text>
</a>
</g>
</g>
<!-- Node1&#45;&gt;Node4 -->
<g id="edge3_Node000001_Node000004" class="edge">
<title>Node1&#45;&gt;Node4</title>
<g id="a_edge3_Node000001_Node000004"><a xlink:title=" ">
<path fill="none" stroke="#63b8ff" d="M143.08,-137.99C152.26,-139.16 161.79,-140.37 171.31,-141.58"/>
<polygon fill="#63b8ff" stroke="#63b8ff" points="170.6,-145.02 180.96,-142.81 171.48,-138.07 170.6,-145.02"/>
</a>
</g>
</g>
<!-- Node5 -->
<g id="Node000005" class="node">
<title>Node5</title>
<g id="a_Node000005"><a xlink:href="$classcontroladors_1_1_ctrl_presentacio.html#a59bc024fc88c820d5e40a44298c5c0e9" xlink:title="Mostra la vista de consulta de normes del joc.">
<polygon fill="white" stroke="#666666" points="361.25,-120 178.75,-120 178.75,-88 361.25,-88 361.25,-120"/>
<text text-anchor="start" x="186.75" y="-106.5" font-family="Helvetica,sans-Serif" font-size="10.00">controladors.CtrlPresentacio.consultar</text>
<text text-anchor="middle" x="270" y="-94.5" font-family="Helvetica,sans-Serif" font-size="10.00">Normes</text>
</a>
</g>
</g>
<!-- Node1&#45;&gt;Node5 -->
<g id="edge4_Node000001_Node000005" class="edge">
<title>Node1&#45;&gt;Node5</title>
<g id="a_edge4_Node000001_Node000005"><a xlink:title=" ">
<path fill="none" stroke="#63b8ff" d="M143.08,-120.01C150.87,-119.02 158.9,-118 166.97,-116.97"/>
<polygon fill="#63b8ff" stroke="#63b8ff" points="167.39,-120.45 176.87,-115.71 166.51,-113.5 167.39,-120.45"/>
</a>
</g>
</g>
<!-- Node6 -->
<g id="Node000006" class="node">
<title>Node6</title>
<g id="a_Node000006"><a xlink:href="$classinterficie_1_1_vista_menu_principal.html#a9fd76252864d2ffce96870de1d9bbda8" xlink:title="Escala tots els components gràfics en funció de la mida de la finestra.">
<polygon fill="white" stroke="#666666" points="357.12,-70 182.88,-70 182.88,-38 357.12,-38 357.12,-70"/>
<text text-anchor="start" x="190.88" y="-56.5" font-family="Helvetica,sans-Serif" font-size="10.00">interficie.VistaMenuPrincipal.escalar</text>
<text text-anchor="middle" x="270" y="-44.5" font-family="Helvetica,sans-Serif" font-size="10.00">Componentes</text>
</a>
</g>
</g>
<!-- Node1&#45;&gt;Node6 -->
<g id="edge5_Node000001_Node000006" class="edge">
<title>Node1&#45;&gt;Node6</title>
<g id="a_edge5_Node000001_Node000006"><a xlink:title=" ">
<path fill="none" stroke="#63b8ff" d="M103.43,-112.7C124.33,-102.15 152.73,-88.64 178.75,-79 183.64,-77.19 188.72,-75.44 193.86,-73.76"/>
<polygon fill="#63b8ff" stroke="#63b8ff" points="194.54,-77.22 203.04,-70.89 192.45,-70.54 194.54,-77.22"/>
</a>
</g>
</g>
<!-- Node7 -->
<g id="Node000007" class="node">
<title>Node7</title>
<g id="a_Node000007"><a xlink:href="$classcontroladors_1_1_ctrl_presentacio.html#a633464b50c83730927c14ed2356bb43c" xlink:title="Tanca la sessió de l&#39;usuari, allibera els recursos gràfics i finalitza l&#39;execució de l&#39;aplicació.">
<polygon fill="white" stroke="#666666" points="352.25,-20 187.75,-20 187.75,0 352.25,0 352.25,-20"/>
<text text-anchor="middle" x="270" y="-6.5" font-family="Helvetica,sans-Serif" font-size="10.00">controladors.CtrlPresentacio.sortir</text>
</a>
</g>
</g>
<!-- Node1&#45;&gt;Node7 -->
<g id="edge7_Node000001_Node000007" class="edge">
<title>Node1&#45;&gt;Node7</title>
<g id="a_edge7_Node000001_Node000007"><a xlink:title=" ">
<path fill="none" stroke="#63b8ff" d="M84.84,-112.62C102.95,-90.07 138.75,-49.87 178.75,-29 182.19,-27.2 185.79,-25.58 189.48,-24.11"/>
<polygon fill="#63b8ff" stroke="#63b8ff" points="190.41,-27.49 198.67,-20.86 188.08,-20.89 190.41,-27.49"/>
</a>
</g>
</g>
<!-- Node6&#45;&gt;Node2 -->
<g id="edge6_Node000006_Node000002" class="edge">
<title>Node6&#45;&gt;Node2</title>
<g id="a_edge6_Node000006_Node000002"><a xlink:title=" ">
<path fill="none" stroke="#63b8ff" d="M337.18,-70.36C345.38,-72.96 353.58,-75.85 361.25,-79 394.73,-92.76 430.5,-113.25 455.84,-128.86"/>
<polygon fill="#63b8ff" stroke="#63b8ff" points="453.73,-131.67 464.07,-133.99 457.43,-125.73 453.73,-131.67"/>
</a>
</g>
</g>
</g>
</svg>
