<?xml version="1.0" encoding="UTF-8" standalone="no"?>
<!DOCTYPE svg PUBLIC "-//W3C//DTD SVG 1.1//EN"
 "http://www.w3.org/Graphics/SVG/1.1/DTD/svg11.dtd">
<!-- Generated by graphviz version 12.2.1 (20241206.2353)
 -->
<!-- Title: domini.scrabble.Casella Pages: 1 -->
<svg width="375pt" height="476pt"
 viewBox="0.00 0.00 375.38 476.00" xmlns="http://www.w3.org/2000/svg" xmlns:xlink="http://www.w3.org/1999/xlink">
<g id="graph0" class="graph" transform="scale(1 1) rotate(0) translate(4 472)">
<title>domini.scrabble.Casella</title>
<!-- Node1 -->
<g id="Node000001" class="node">
<title>Node1</title>
<g id="a_Node000001"><a xlink:title="Representa una casella del tauler d&#39;Scrabble.">
<polygon fill="#999999" stroke="none" points="245.38,-260 116.38,-260 116.38,0 245.38,0 245.38,-260"/>
<text text-anchor="start" x="128.75" y="-246.5" font-family="Helvetica,sans-Serif" font-size="10.00">domini.scrabble.Casella</text>
<text text-anchor="start" x="121.88" y="-230.5" font-family="Helvetica,sans-Serif" font-size="10.00">&#45;</text>
<text text-anchor="start" x="130.38" y="-230.5" font-family="Helvetica,sans-Serif" font-size="10.00">cross_checks</text>
<text text-anchor="start" x="121.88" y="-214.5" font-family="Helvetica,sans-Serif" font-size="10.00">&#45;</text>
<text text-anchor="start" x="130.38" y="-214.5" font-family="Helvetica,sans-Serif" font-size="10.00">anchor</text>
<text text-anchor="start" x="120.38" y="-198.5" font-family="Helvetica,sans-Serif" font-size="10.00">+</text>
<text text-anchor="start" x="130.38" y="-198.5" font-family="Helvetica,sans-Serif" font-size="10.00">Casella()</text>
<text text-anchor="start" x="120.38" y="-182.5" font-family="Helvetica,sans-Serif" font-size="10.00">+</text>
<text text-anchor="start" x="130.38" y="-182.5" font-family="Helvetica,sans-Serif" font-size="10.00">setMultiplicador()</text>
<text text-anchor="start" x="120.38" y="-166.5" font-family="Helvetica,sans-Serif" font-size="10.00">+</text>
<text text-anchor="start" x="130.38" y="-166.5" font-family="Helvetica,sans-Serif" font-size="10.00">EstaOcupat()</text>
<text text-anchor="start" x="120.38" y="-150.5" font-family="Helvetica,sans-Serif" font-size="10.00">+</text>
<text text-anchor="start" x="130.38" y="-150.5" font-family="Helvetica,sans-Serif" font-size="10.00">afegirFitxa()</text>
<text text-anchor="start" x="120.38" y="-134.5" font-family="Helvetica,sans-Serif" font-size="10.00">+</text>
<text text-anchor="start" x="130.38" y="-134.5" font-family="Helvetica,sans-Serif" font-size="10.00">setAnchor()</text>
<text text-anchor="start" x="120.38" y="-118.5" font-family="Helvetica,sans-Serif" font-size="10.00">+</text>
<text text-anchor="start" x="130.38" y="-118.5" font-family="Helvetica,sans-Serif" font-size="10.00">isAnchor()</text>
<text text-anchor="start" x="120.38" y="-102.5" font-family="Helvetica,sans-Serif" font-size="10.00">+</text>
<text text-anchor="start" x="130.38" y="-102.5" font-family="Helvetica,sans-Serif" font-size="10.00">getCoord()</text>
<text text-anchor="start" x="120.38" y="-86.5" font-family="Helvetica,sans-Serif" font-size="10.00">+</text>
<text text-anchor="start" x="130.38" y="-86.5" font-family="Helvetica,sans-Serif" font-size="10.00">getMultiplicador()</text>
<text text-anchor="start" x="120.38" y="-70.5" font-family="Helvetica,sans-Serif" font-size="10.00">+</text>
<text text-anchor="start" x="130.38" y="-70.5" font-family="Helvetica,sans-Serif" font-size="10.00">getFitxa()</text>
<text text-anchor="start" x="120.38" y="-54.5" font-family="Helvetica,sans-Serif" font-size="10.00">+</text>
<text text-anchor="start" x="130.38" y="-54.5" font-family="Helvetica,sans-Serif" font-size="10.00">getCrossChecks()</text>
<text text-anchor="start" x="120.38" y="-38.5" font-family="Helvetica,sans-Serif" font-size="10.00">+</text>
<text text-anchor="start" x="130.38" y="-38.5" font-family="Helvetica,sans-Serif" font-size="10.00">actualitzarCrossChecks()</text>
<text text-anchor="start" x="120.38" y="-22.5" font-family="Helvetica,sans-Serif" font-size="10.00">+</text>
<text text-anchor="start" x="130.38" y="-22.5" font-family="Helvetica,sans-Serif" font-size="10.00">reiniciarCrossCheck()</text>
<text text-anchor="start" x="120.38" y="-6.5" font-family="Helvetica,sans-Serif" font-size="10.00">+</text>
<text text-anchor="start" x="130.38" y="-6.5" font-family="Helvetica,sans-Serif" font-size="10.00">retirarFitxa()</text>
<polygon fill="#666666" stroke="#666666" points="116.38,-242 116.38,-242 245.38,-242 245.38,-242 116.38,-242"/>
<polygon fill="#666666" stroke="#666666" points="116.38,-210 116.38,-210 128.38,-210 128.38,-210 116.38,-210"/>
<polygon fill="#666666" stroke="#666666" points="128.38,-210 128.38,-210 245.38,-210 245.38,-210 128.38,-210"/>
<polygon fill="none" stroke="#666666" points="116.38,0 116.38,-260 245.38,-260 245.38,0 116.38,0"/>
</a>
</g>
</g>
<!-- Node2 -->
<g id="Node000002" class="node">
<title>Node2</title>
<g id="a_Node000002"><a xlink:href="classdomini_1_1auxiliars_1_1_pair.html" target="_top" xlink:title=" ">
<polygon fill="white" stroke="none" points="95.75,-468 0,-468 0,-308 95.75,-308 95.75,-468"/>
<text text-anchor="start" x="4" y="-454.5" font-family="Helvetica,sans-Serif" font-size="10.00">domini.auxiliars.Pair</text>
<text text-anchor="start" x="5.88" y="-442.5" font-family="Helvetica,sans-Serif" font-size="10.00">&lt; Integer, Integer &gt;</text>
<text text-anchor="start" x="11.81" y="-426.5" font-family="Helvetica,sans-Serif" font-size="10.00">&#45;</text>
<text text-anchor="start" x="26.62" y="-426.5" font-family="Helvetica,sans-Serif" font-size="10.00">first</text>
<text text-anchor="start" x="11.81" y="-410.5" font-family="Helvetica,sans-Serif" font-size="10.00">&#45;</text>
<text text-anchor="start" x="26.62" y="-410.5" font-family="Helvetica,sans-Serif" font-size="10.00">second</text>
<text text-anchor="start" x="10.31" y="-394.5" font-family="Helvetica,sans-Serif" font-size="10.00">+</text>
<text text-anchor="start" x="26.62" y="-394.5" font-family="Helvetica,sans-Serif" font-size="10.00">Pair()</text>
<text text-anchor="start" x="10.31" y="-378.5" font-family="Helvetica,sans-Serif" font-size="10.00">+</text>
<text text-anchor="start" x="26.62" y="-378.5" font-family="Helvetica,sans-Serif" font-size="10.00">Pair()</text>
<text text-anchor="start" x="10.31" y="-362.5" font-family="Helvetica,sans-Serif" font-size="10.00">+</text>
<text text-anchor="start" x="26.62" y="-362.5" font-family="Helvetica,sans-Serif" font-size="10.00">getFirst()</text>
<text text-anchor="start" x="10.31" y="-346.5" font-family="Helvetica,sans-Serif" font-size="10.00">+</text>
<text text-anchor="start" x="26.62" y="-346.5" font-family="Helvetica,sans-Serif" font-size="10.00">getSecond()</text>
<text text-anchor="start" x="10.31" y="-330.5" font-family="Helvetica,sans-Serif" font-size="10.00">+</text>
<text text-anchor="start" x="26.62" y="-330.5" font-family="Helvetica,sans-Serif" font-size="10.00">equals()</text>
<text text-anchor="start" x="10.31" y="-314.5" font-family="Helvetica,sans-Serif" font-size="10.00">+</text>
<text text-anchor="start" x="26.62" y="-314.5" font-family="Helvetica,sans-Serif" font-size="10.00">toString()</text>
<polygon fill="#666666" stroke="#666666" points="0,-438 0,-438 95.75,-438 95.75,-438 0,-438"/>
<polygon fill="#666666" stroke="#666666" points="0,-406 0,-406 24.62,-406 24.62,-406 0,-406"/>
<polygon fill="#666666" stroke="#666666" points="24.62,-406 24.62,-406 95.75,-406 95.75,-406 24.62,-406"/>
<polygon fill="none" stroke="#666666" points="0,-308 0,-468 95.75,-468 95.75,-308 0,-308"/>
</a>
</g>
</g>
<!-- Node2&#45;&gt;Node1 -->
<g id="edge1_Node000001_Node000002" class="edge">
<title>Node2&#45;&gt;Node1</title>
<g id="a_edge1_Node000001_Node000002"><a xlink:title=" ">
<path fill="none" stroke="#63b8ff" d="M88.86,-308.1C95.79,-294.77 103.15,-280.6 110.58,-266.31"/>
<polygon fill="none" stroke="#63b8ff" points="110.59,-266.29 109.81,-259.12 116.12,-255.64 116.9,-262.81 110.59,-266.29"/>
</a>
</g>
<text text-anchor="middle" x="133.21" y="-280.5" font-family="Helvetica,sans-Serif" font-size="10.00" fill="grey"> &#45;coordenades</text>
</g>
<!-- Node3 -->
<g id="Node000003" class="node">
<title>Node3</title>
<g id="a_Node000003"><a xlink:href="enumdomini_1_1scrabble_1_1_multiplicador.html" target="_top" xlink:title="Representa els diferents tipus de multiplicadors d&#39;Scrabble.">
<polygon fill="white" stroke="none" points="247.88,-462 113.88,-462 113.88,-314 247.88,-314 247.88,-462"/>
<text text-anchor="start" x="117.88" y="-448.5" font-family="Helvetica,sans-Serif" font-size="10.00">domini.scrabble.Multiplicador</text>
<text text-anchor="start" x="125.12" y="-432.5" font-family="Helvetica,sans-Serif" font-size="10.00">+</text>
<text text-anchor="start" x="142.38" y="-432.5" font-family="Helvetica,sans-Serif" font-size="10.00">CAP</text>
<text text-anchor="start" x="125.12" y="-416.5" font-family="Helvetica,sans-Serif" font-size="10.00">+</text>
<text text-anchor="start" x="142.38" y="-416.5" font-family="Helvetica,sans-Serif" font-size="10.00">DOBLE_LLETRA</text>
<text text-anchor="start" x="125.12" y="-400.5" font-family="Helvetica,sans-Serif" font-size="10.00">+</text>
<text text-anchor="start" x="142.38" y="-400.5" font-family="Helvetica,sans-Serif" font-size="10.00">TRIPLE_LLETRA</text>
<text text-anchor="start" x="125.12" y="-384.5" font-family="Helvetica,sans-Serif" font-size="10.00">+</text>
<text text-anchor="start" x="142.38" y="-384.5" font-family="Helvetica,sans-Serif" font-size="10.00">DOBLE_PARAULA</text>
<text text-anchor="start" x="125.12" y="-368.5" font-family="Helvetica,sans-Serif" font-size="10.00">+</text>
<text text-anchor="start" x="142.38" y="-368.5" font-family="Helvetica,sans-Serif" font-size="10.00">TRIPLE_PARAULA</text>
<text text-anchor="start" x="126.62" y="-352.5" font-family="Helvetica,sans-Serif" font-size="10.00">&#45;</text>
<text text-anchor="start" x="142.38" y="-352.5" font-family="Helvetica,sans-Serif" font-size="10.00">multiplicador</text>
<text text-anchor="start" x="125.12" y="-336.5" font-family="Helvetica,sans-Serif" font-size="10.00">+</text>
<text text-anchor="start" x="142.38" y="-336.5" font-family="Helvetica,sans-Serif" font-size="10.00">getMultiplicador()</text>
<text text-anchor="start" x="126.62" y="-320.5" font-family="Helvetica,sans-Serif" font-size="10.00">&#45;</text>
<text text-anchor="start" x="142.38" y="-320.5" font-family="Helvetica,sans-Serif" font-size="10.00">Multiplicador()</text>
<polygon fill="#666666" stroke="#666666" points="113.88,-444 113.88,-444 247.88,-444 247.88,-444 113.88,-444"/>
<polygon fill="#666666" stroke="#666666" points="113.88,-348 113.88,-348 140.38,-348 140.38,-348 113.88,-348"/>
<polygon fill="#666666" stroke="#666666" points="140.38,-348 140.38,-348 247.88,-348 247.88,-348 140.38,-348"/>
<polygon fill="none" stroke="#666666" points="113.88,-314 113.88,-462 247.88,-462 247.88,-314 113.88,-314"/>
</a>
</g>
</g>
<!-- Node3&#45;&gt;Node1 -->
<g id="edge2_Node000001_Node000003" class="edge">
<title>Node3&#45;&gt;Node1</title>
<g id="a_edge2_Node000001_Node000003"><a xlink:title=" ">
<path fill="none" stroke="#63b8ff" d="M180.88,-314.33C180.88,-301.06 180.88,-286.82 180.88,-272.35"/>
<polygon fill="none" stroke="#63b8ff" points="180.88,-272.49 176.88,-266.49 180.88,-260.49 184.88,-266.49 180.88,-272.49"/>
</a>
</g>
<text text-anchor="middle" x="211.25" y="-280.5" font-family="Helvetica,sans-Serif" font-size="10.00" fill="grey"> &#45;multiplicador</text>
</g>
<!-- Node4 -->
<g id="Node000004" class="node">
<title>Node4</title>
<g id="a_Node000004"><a xlink:href="classdomini_1_1scrabble_1_1_fitxa.html" target="_top" xlink:title="Representa una fitxa d&#39;Scrabble.">
<polygon fill="white" stroke="none" points="367.38,-462 266.38,-462 266.38,-314 367.38,-314 367.38,-462"/>
<text text-anchor="start" x="270.38" y="-448.5" font-family="Helvetica,sans-Serif" font-size="10.00">domini.scrabble.Fitxa</text>
<text text-anchor="start" x="276.88" y="-432.5" font-family="Helvetica,sans-Serif" font-size="10.00">&#45;</text>
<text text-anchor="start" x="290.38" y="-432.5" font-family="Helvetica,sans-Serif" font-size="10.00">id</text>
<text text-anchor="start" x="276.88" y="-416.5" font-family="Helvetica,sans-Serif" font-size="10.00">&#45;</text>
<text text-anchor="start" x="290.38" y="-416.5" font-family="Helvetica,sans-Serif" font-size="10.00">lletra</text>
<text text-anchor="start" x="276.88" y="-400.5" font-family="Helvetica,sans-Serif" font-size="10.00">&#45;</text>
<text text-anchor="start" x="290.38" y="-400.5" font-family="Helvetica,sans-Serif" font-size="10.00">puntuacio</text>
<text text-anchor="start" x="275.38" y="-384.5" font-family="Helvetica,sans-Serif" font-size="10.00">+</text>
<text text-anchor="start" x="290.38" y="-384.5" font-family="Helvetica,sans-Serif" font-size="10.00">Fitxa()</text>
<text text-anchor="start" x="275.38" y="-368.5" font-family="Helvetica,sans-Serif" font-size="10.00">+</text>
<text text-anchor="start" x="290.38" y="-368.5" font-family="Helvetica,sans-Serif" font-size="10.00">getId()</text>
<text text-anchor="start" x="275.38" y="-352.5" font-family="Helvetica,sans-Serif" font-size="10.00">+</text>
<text text-anchor="start" x="290.38" y="-352.5" font-family="Helvetica,sans-Serif" font-size="10.00">getLletra()</text>
<text text-anchor="start" x="275.38" y="-336.5" font-family="Helvetica,sans-Serif" font-size="10.00">+</text>
<text text-anchor="start" x="290.38" y="-336.5" font-family="Helvetica,sans-Serif" font-size="10.00">getPuntuacio()</text>
<text text-anchor="start" x="275.38" y="-320.5" font-family="Helvetica,sans-Serif" font-size="10.00">+</text>
<text text-anchor="start" x="290.38" y="-320.5" font-family="Helvetica,sans-Serif" font-size="10.00">equals()</text>
<polygon fill="#666666" stroke="#666666" points="266.38,-444 266.38,-444 367.38,-444 367.38,-444 266.38,-444"/>
<polygon fill="#666666" stroke="#666666" points="266.38,-396 266.38,-396 288.38,-396 288.38,-396 266.38,-396"/>
<polygon fill="#666666" stroke="#666666" points="288.38,-396 288.38,-396 367.38,-396 367.38,-396 288.38,-396"/>
<polygon fill="none" stroke="#666666" points="266.38,-314 266.38,-462 367.38,-462 367.38,-314 266.38,-314"/>
</a>
</g>
</g>
<!-- Node4&#45;&gt;Node1 -->
<g id="edge3_Node000001_Node000004" class="edge">
<title>Node4&#45;&gt;Node1</title>
<g id="a_edge3_Node000001_Node000004"><a xlink:title=" ">
<path fill="none" stroke="#63b8ff" d="M278.27,-314.33C269.83,-298.44 260.64,-281.15 251.39,-263.74"/>
<polygon fill="none" stroke="#63b8ff" points="251.37,-263.69 245.02,-260.27 245.74,-253.09 252.08,-256.51 251.37,-263.69"/>
</a>
</g>
<text text-anchor="middle" x="277.43" y="-280.5" font-family="Helvetica,sans-Serif" font-size="10.00" fill="grey"> &#45;fitxa</text>
</g>
</g>
</svg>
