<?xml version="1.0" encoding="UTF-8" standalone="no"?>
<!DOCTYPE svg PUBLIC "-//W3C//DTD SVG 1.1//EN"
 "http://www.w3.org/Graphics/SVG/1.1/DTD/svg11.dtd">
<!-- Generated by graphviz version 12.2.1 (20241206.2353)
 -->
<!-- Title: domini.scrabble.Partida.inicialitzarJugadors Pages: 1 -->
<svg width="549pt" height="90pt"
 viewBox="0.00 0.00 548.75 90.00" xmlns="http://www.w3.org/2000/svg" xmlns:xlink="http://www.w3.org/1999/xlink">
<g id="graph0" class="graph" transform="scale(1 1) rotate(0) translate(4 86)">
<title>domini.scrabble.Partida.inicialitzarJugadors</title>
<!-- Node1 -->
<g id="Node000001" class="node">
<title>Node1</title>
<g id="a_Node000001"><a xlink:title="Assigna fitxes inicials als jugadors.">
<polygon fill="#999999" stroke="#666666" points="164.5,-57 0,-57 0,-25 164.5,-25 164.5,-57"/>
<text text-anchor="start" x="8" y="-43.5" font-family="Helvetica,sans-Serif" font-size="10.00">domini.scrabble.Partida.inicialitzar</text>
<text text-anchor="middle" x="82.25" y="-31.5" font-family="Helvetica,sans-Serif" font-size="10.00">Jugadors</text>
</a>
</g>
</g>
<!-- Node2 -->
<g id="Node000002" class="node">
<title>Node2</title>
<g id="a_Node000002"><a xlink:href="classdomini_1_1scrabble_1_1_partida.html#abaa5693ea1ae1d5b396c3c510f66969b" target="_top" xlink:title="Reomple les fitxes d&#39;un jugador fins al màxim permès.">
<polygon fill="white" stroke="#666666" points="356,-57 200.5,-57 200.5,-25 356,-25 356,-57"/>
<text text-anchor="start" x="208.5" y="-43.5" font-family="Helvetica,sans-Serif" font-size="10.00">domini.scrabble.Partida.reomplir</text>
<text text-anchor="middle" x="278.25" y="-31.5" font-family="Helvetica,sans-Serif" font-size="10.00">FitxesJugador</text>
</a>
</g>
</g>
<!-- Node1&#45;&gt;Node2 -->
<g id="edge1_Node000001_Node000002" class="edge">
<title>Node1&#45;&gt;Node2</title>
<g id="a_edge1_Node000001_Node000002"><a xlink:title=" ">
<path fill="none" stroke="#63b8ff" d="M164.96,-41C172.91,-41 181.01,-41 189.02,-41"/>
<polygon fill="#63b8ff" stroke="#63b8ff" points="188.76,-44.5 198.76,-41 188.76,-37.5 188.76,-44.5"/>
</a>
</g>
</g>
<!-- Node3 -->
<g id="Node000003" class="node">
<title>Node3</title>
<g id="a_Node000003"><a xlink:href="classdomini_1_1jugadors_1_1_jugador.html#a28fa4b7dcf1f5eabdc608591e61509ae" target="_top" xlink:title="El jugador afegeix una fitxa a la seva llista de fitxes.">
<polygon fill="white" stroke="#666666" points="540.75,-82 392,-82 392,-50 540.75,-50 540.75,-82"/>
<text text-anchor="start" x="400" y="-68.5" font-family="Helvetica,sans-Serif" font-size="10.00">domini.jugadors.Jugador.afegir</text>
<text text-anchor="middle" x="466.38" y="-56.5" font-family="Helvetica,sans-Serif" font-size="10.00">Fitxa</text>
</a>
</g>
</g>
<!-- Node2&#45;&gt;Node3 -->
<g id="edge2_Node000002_Node000003" class="edge">
<title>Node2&#45;&gt;Node3</title>
<g id="a_edge2_Node000002_Node000003"><a xlink:title=" ">
<path fill="none" stroke="#63b8ff" d="M356.3,-51.35C364.25,-52.42 372.36,-53.51 380.4,-54.59"/>
<polygon fill="#63b8ff" stroke="#63b8ff" points="379.8,-58.04 390.18,-55.9 380.73,-51.1 379.8,-58.04"/>
</a>
</g>
</g>
<!-- Node4 -->
<g id="Node000004" class="node">
<title>Node4</title>
<g id="a_Node000004"><a xlink:href="classdomini_1_1jugadors_1_1_jugador.html#acf9520ec234c3f2cc52e1b79b85a008e" target="_top" xlink:title="Retorna la llista amb les fitxes actuals del jugador.">
<polygon fill="white" stroke="#666666" points="535.5,-32 397.25,-32 397.25,0 535.5,0 535.5,-32"/>
<text text-anchor="start" x="405.25" y="-18.5" font-family="Helvetica,sans-Serif" font-size="10.00">domini.jugadors.Jugador.get</text>
<text text-anchor="middle" x="466.38" y="-6.5" font-family="Helvetica,sans-Serif" font-size="10.00">Fitxes_actuals</text>
</a>
</g>
</g>
<!-- Node2&#45;&gt;Node4 -->
<g id="edge3_Node000002_Node000004" class="edge">
<title>Node2&#45;&gt;Node4</title>
<g id="a_edge3_Node000002_Node000004"><a xlink:title=" ">
<path fill="none" stroke="#63b8ff" d="M356.3,-30.65C366,-29.35 375.95,-28.01 385.69,-26.7"/>
<polygon fill="#63b8ff" stroke="#63b8ff" points="386.06,-30.18 395.51,-25.38 385.13,-23.25 386.06,-30.18"/>
</a>
</g>
</g>
</g>
</svg>
