<?xml version="1.0" encoding="UTF-8" standalone="no"?>
<!DOCTYPE svg PUBLIC "-//W3C//DTD SVG 1.1//EN"
 "http://www.w3.org/Graphics/SVG/1.1/DTD/svg11.dtd">
<!-- Generated by graphviz version 12.2.1 (20241206.2353)
 -->
<!-- Title: controladors.CtrlPartida.canviarFitxes Pages: 1 -->
<svg width="356pt" height="428pt"
 viewBox="0.00 0.00 355.75 428.00" xmlns="http://www.w3.org/2000/svg" xmlns:xlink="http://www.w3.org/1999/xlink">
<g id="graph0" class="graph" transform="scale(1 1) rotate(0) translate(4 424)">
<title>controladors.CtrlPartida.canviarFitxes</title>
<!-- Node1 -->
<g id="Node000001" class="node">
<title>Node1</title>
<g id="a_Node000001"><a xlink:title="Canvia un cert nombre de fitxes de la mà del jugador actual.">
<polygon fill="#999999" stroke="#666666" points="153.25,-226 0,-226 0,-194 153.25,-194 153.25,-226"/>
<text text-anchor="start" x="8" y="-212.5" font-family="Helvetica,sans-Serif" font-size="10.00">controladors.CtrlPartida.canviar</text>
<text text-anchor="middle" x="76.62" y="-200.5" font-family="Helvetica,sans-Serif" font-size="10.00">Fitxes</text>
</a>
</g>
</g>
<!-- Node2 -->
<g id="Node000002" class="node">
<title>Node2</title>
<g id="a_Node000002"><a xlink:href="classdomini_1_1jugadors_1_1_jugador.html#a28fa4b7dcf1f5eabdc608591e61509ae" target="_top" xlink:title="El jugador afegeix una fitxa a la seva llista de fitxes.">
<polygon fill="white" stroke="#666666" points="342.88,-420 194.12,-420 194.12,-388 342.88,-388 342.88,-420"/>
<text text-anchor="start" x="202.12" y="-406.5" font-family="Helvetica,sans-Serif" font-size="10.00">domini.jugadors.Jugador.afegir</text>
<text text-anchor="middle" x="268.5" y="-394.5" font-family="Helvetica,sans-Serif" font-size="10.00">Fitxa</text>
</a>
</g>
</g>
<!-- Node1&#45;&gt;Node2 -->
<g id="edge1_Node000001_Node000002" class="edge">
<title>Node1&#45;&gt;Node2</title>
<g id="a_edge1_Node000001_Node000002"><a xlink:title=" ">
<path fill="none" stroke="#63b8ff" d="M83.99,-226.38C97.88,-260.04 134.17,-337.29 189.25,-379 190.6,-380.02 191.99,-381 193.42,-381.95"/>
<polygon fill="#63b8ff" stroke="#63b8ff" points="191.58,-384.92 202,-386.85 195.06,-378.85 191.58,-384.92"/>
</a>
</g>
</g>
<!-- Node3 -->
<g id="Node000003" class="node">
<title>Node3</title>
<g id="a_Node000003"><a xlink:href="classdomini_1_1scrabble_1_1_bossa.html#a89707eebb134ecb159a2f7a001b027d0" target="_top" xlink:title="Afegeix una nova fitxa a la bossa.">
<polygon fill="white" stroke="#666666" points="339.5,-370 197.5,-370 197.5,-338 339.5,-338 339.5,-370"/>
<text text-anchor="start" x="205.5" y="-356.5" font-family="Helvetica,sans-Serif" font-size="10.00">domini.scrabble.Bossa.afegir</text>
<text text-anchor="middle" x="268.5" y="-344.5" font-family="Helvetica,sans-Serif" font-size="10.00">FitxaBossa</text>
</a>
</g>
</g>
<!-- Node1&#45;&gt;Node3 -->
<g id="edge2_Node000001_Node000003" class="edge">
<title>Node1&#45;&gt;Node3</title>
<g id="a_edge2_Node000001_Node000003"><a xlink:title=" ">
<path fill="none" stroke="#63b8ff" d="M88.69,-226.34C106.8,-251.87 145.18,-301.17 189.25,-329 191.23,-330.25 193.27,-331.44 195.37,-332.58"/>
<polygon fill="#63b8ff" stroke="#63b8ff" points="193.61,-335.61 204.13,-336.84 196.67,-329.32 193.61,-335.61"/>
</a>
</g>
</g>
<!-- Node4 -->
<g id="Node000004" class="node">
<title>Node4</title>
<g id="a_Node000004"><a xlink:href="classdomini_1_1scrabble_1_1_bossa.html#afa53a19569d75ae80205a5fa5759f6b5" target="_top" xlink:title="Retira una fitxa aleatòria de la bossa.">
<polygon fill="white" stroke="#666666" points="341,-320 196,-320 196,-288 341,-288 341,-320"/>
<text text-anchor="start" x="204" y="-306.5" font-family="Helvetica,sans-Serif" font-size="10.00">domini.scrabble.Bossa.agafar</text>
<text text-anchor="middle" x="268.5" y="-294.5" font-family="Helvetica,sans-Serif" font-size="10.00">Fitxa</text>
</a>
</g>
</g>
<!-- Node1&#45;&gt;Node4 -->
<g id="edge3_Node000001_Node000004" class="edge">
<title>Node1&#45;&gt;Node4</title>
<g id="a_edge3_Node000001_Node000004"><a xlink:title=" ">
<path fill="none" stroke="#63b8ff" d="M100.22,-226.26C122.14,-241.48 156.76,-264.04 189.25,-279 192.72,-280.6 196.33,-282.14 200,-283.61"/>
<polygon fill="#63b8ff" stroke="#63b8ff" points="198.45,-286.77 209.04,-287.05 200.94,-280.22 198.45,-286.77"/>
</a>
</g>
</g>
<!-- Node5 -->
<g id="Node000005" class="node">
<title>Node5</title>
<g id="a_Node000005"><a xlink:href="classdomini_1_1jugadors_1_1_jugador.html#a958cd1f187802e5dcd496be3d60f5c30" target="_top" xlink:title="El jugador elimina una fitxa de la seva llista de fitxes.">
<polygon fill="white" stroke="#666666" points="347.75,-270 189.25,-270 189.25,-238 347.75,-238 347.75,-270"/>
<text text-anchor="start" x="197.25" y="-256.5" font-family="Helvetica,sans-Serif" font-size="10.00">domini.jugadors.Jugador.eliminar</text>
<text text-anchor="middle" x="268.5" y="-244.5" font-family="Helvetica,sans-Serif" font-size="10.00">Fitxa</text>
</a>
</g>
</g>
<!-- Node1&#45;&gt;Node5 -->
<g id="edge4_Node000001_Node000005" class="edge">
<title>Node1&#45;&gt;Node5</title>
<g id="a_edge4_Node000001_Node000005"><a xlink:title=" ">
<path fill="none" stroke="#63b8ff" d="M148.6,-226.45C160.53,-229.21 173.01,-232.1 185.2,-234.93"/>
<polygon fill="#63b8ff" stroke="#63b8ff" points="184.29,-238.31 194.82,-237.16 185.87,-231.49 184.29,-238.31"/>
</a>
</g>
</g>
<!-- Node6 -->
<g id="Node000006" class="node">
<title>Node6</title>
<g id="a_Node000006"><a xlink:href="classdomini_1_1scrabble_1_1_fitxa.html#ac71d738d062e9b3bff05145c171240c3" target="_top" xlink:title="Retorna el identificador de la fitxa.">
<polygon fill="white" stroke="#666666" points="335.38,-220 201.62,-220 201.62,-200 335.38,-200 335.38,-220"/>
<text text-anchor="middle" x="268.5" y="-206.5" font-family="Helvetica,sans-Serif" font-size="10.00">domini.scrabble.Fitxa.getId</text>
</a>
</g>
</g>
<!-- Node1&#45;&gt;Node6 -->
<g id="edge5_Node000001_Node000006" class="edge">
<title>Node1&#45;&gt;Node6</title>
<g id="a_edge5_Node000001_Node000006"><a xlink:title=" ">
<path fill="none" stroke="#63b8ff" d="M153.49,-210C165.46,-210 177.86,-210 189.88,-210"/>
<polygon fill="#63b8ff" stroke="#63b8ff" points="189.74,-213.5 199.74,-210 189.74,-206.5 189.74,-213.5"/>
</a>
</g>
</g>
<!-- Node7 -->
<g id="Node000007" class="node">
<title>Node7</title>
<g id="a_Node000007"><a xlink:href="classdomini_1_1scrabble_1_1_fitxa.html#a3ee9b39d600851a00c4ce541339ba90e" target="_top" xlink:title="Retorna la lletra associada a la fitxa.">
<polygon fill="white" stroke="#666666" points="331.25,-182 205.75,-182 205.75,-150 331.25,-150 331.25,-182"/>
<text text-anchor="start" x="213.75" y="-168.5" font-family="Helvetica,sans-Serif" font-size="10.00">domini.scrabble.Fitxa.get</text>
<text text-anchor="middle" x="268.5" y="-156.5" font-family="Helvetica,sans-Serif" font-size="10.00">Lletra</text>
</a>
</g>
</g>
<!-- Node1&#45;&gt;Node7 -->
<g id="edge6_Node000001_Node000007" class="edge">
<title>Node1&#45;&gt;Node7</title>
<g id="a_edge6_Node000001_Node000007"><a xlink:title=" ">
<path fill="none" stroke="#63b8ff" d="M148.6,-193.55C163.6,-190.08 179.46,-186.4 194.53,-182.91"/>
<polygon fill="#63b8ff" stroke="#63b8ff" points="194.92,-186.41 203.87,-180.74 193.34,-179.59 194.92,-186.41"/>
</a>
</g>
</g>
<!-- Node8 -->
<g id="Node000008" class="node">
<title>Node8</title>
<g id="a_Node000008"><a xlink:href="classdomini_1_1scrabble_1_1_bossa.html#a58c8a4207e37d1b10159b73ed131c2c2" target="_top" xlink:title="Obté el nombre total de fitxes disponibles a la bossa.">
<polygon fill="white" stroke="#666666" points="334.25,-132 202.75,-132 202.75,-100 334.25,-100 334.25,-132"/>
<text text-anchor="start" x="210.75" y="-118.5" font-family="Helvetica,sans-Serif" font-size="10.00">domini.scrabble.Bossa.get</text>
<text text-anchor="middle" x="268.5" y="-106.5" font-family="Helvetica,sans-Serif" font-size="10.00">MidaBossa</text>
</a>
</g>
</g>
<!-- Node1&#45;&gt;Node8 -->
<g id="edge7_Node000001_Node000008" class="edge">
<title>Node1&#45;&gt;Node8</title>
<g id="a_edge7_Node000001_Node000008"><a xlink:title=" ">
<path fill="none" stroke="#63b8ff" d="M100.22,-193.74C122.14,-178.52 156.76,-155.96 189.25,-141 192.72,-139.4 196.33,-137.86 200,-136.39"/>
<polygon fill="#63b8ff" stroke="#63b8ff" points="200.94,-139.78 209.04,-132.95 198.45,-133.23 200.94,-139.78"/>
</a>
</g>
</g>
<!-- Node9 -->
<g id="Node000009" class="node">
<title>Node9</title>
<g id="a_Node000009"><a xlink:href="classdomini_1_1scrabble_1_1_fitxa.html#af8169852ecf1df6524e8b13a2fd171ec" target="_top" xlink:title="Retorna la puntuació associada a la fitxa.">
<polygon fill="white" stroke="#666666" points="331.25,-82 205.75,-82 205.75,-50 331.25,-50 331.25,-82"/>
<text text-anchor="start" x="213.75" y="-68.5" font-family="Helvetica,sans-Serif" font-size="10.00">domini.scrabble.Fitxa.get</text>
<text text-anchor="middle" x="268.5" y="-56.5" font-family="Helvetica,sans-Serif" font-size="10.00">Puntuacio</text>
</a>
</g>
</g>
<!-- Node1&#45;&gt;Node9 -->
<g id="edge8_Node000001_Node000009" class="edge">
<title>Node1&#45;&gt;Node9</title>
<g id="a_edge8_Node000001_Node000009"><a xlink:title=" ">
<path fill="none" stroke="#63b8ff" d="M88.69,-193.66C106.8,-168.13 145.18,-118.83 189.25,-91 191.23,-89.75 193.27,-88.56 195.37,-87.42"/>
<polygon fill="#63b8ff" stroke="#63b8ff" points="196.67,-90.68 204.13,-83.16 193.61,-84.39 196.67,-90.68"/>
</a>
</g>
</g>
<!-- Node10 -->
<g id="Node000010" class="node">
<title>Node10</title>
<g id="a_Node000010"><a xlink:href="classdomini_1_1jugadors_1_1_jugador.html#a65f71c37c6890c64cc63ebf0a4d7e185" target="_top" xlink:title="Reinicia el comptador de torns passats consecutius.">
<polygon fill="white" stroke="#666666" points="347.75,-32 189.25,-32 189.25,0 347.75,0 347.75,-32"/>
<text text-anchor="start" x="197.25" y="-18.5" font-family="Helvetica,sans-Serif" font-size="10.00">domini.jugadors.Jugador.reiniciar</text>
<text text-anchor="middle" x="268.5" y="-6.5" font-family="Helvetica,sans-Serif" font-size="10.00">TornsPassatsConsecutius</text>
</a>
</g>
</g>
<!-- Node1&#45;&gt;Node10 -->
<g id="edge9_Node000001_Node000010" class="edge">
<title>Node1&#45;&gt;Node10</title>
<g id="a_edge9_Node000001_Node000010"><a xlink:title=" ">
<path fill="none" stroke="#63b8ff" d="M83.99,-193.62C97.88,-159.96 134.17,-82.71 189.25,-41 190.6,-39.98 191.99,-39 193.42,-38.05"/>
<polygon fill="#63b8ff" stroke="#63b8ff" points="195.06,-41.15 202,-33.15 191.58,-35.08 195.06,-41.15"/>
</a>
</g>
</g>
</g>
</svg>
