<?xml version="1.0" encoding="UTF-8" standalone="no"?>
<!DOCTYPE svg PUBLIC "-//W3C//DTD SVG 1.1//EN"
 "http://www.w3.org/Graphics/SVG/1.1/DTD/svg11.dtd">
<!-- Generated by graphviz version 12.2.1 (20241206.2353)
 -->
<!-- Title: domini.auxiliars.ColorTerminal Pages: 1 -->
<svg width="147pt" height="220pt"
 viewBox="0.00 0.00 146.50 220.00" xmlns="http://www.w3.org/2000/svg" xmlns:xlink="http://www.w3.org/1999/xlink">
<g id="graph0" class="graph" transform="scale(1 1) rotate(0) translate(4 216)">
<title>domini.auxiliars.ColorTerminal</title>
<!-- Node1 -->
<g id="Node000001" class="node">
<title>Node1</title>
<g id="a_Node000001"><a xlink:title="Classe per gestionar els colors de la terminal utilitzant codis ANSI.">
<polygon fill="#999999" stroke="none" points="138.5,-212 0,-212 0,0 138.5,0 138.5,-212"/>
<text text-anchor="start" x="4" y="-198.5" font-family="Helvetica,sans-Serif" font-size="10.00">domini.auxiliars.ColorTerminal</text>
<text text-anchor="start" x="18.38" y="-182.5" font-family="Helvetica,sans-Serif" font-size="10.00">+</text>
<text text-anchor="start" x="42.75" y="-182.5" font-family="Helvetica,sans-Serif" font-size="10.00">RESET</text>
<text text-anchor="start" x="18.38" y="-166.5" font-family="Helvetica,sans-Serif" font-size="10.00">+</text>
<text text-anchor="start" x="42.75" y="-166.5" font-family="Helvetica,sans-Serif" font-size="10.00">BLACK</text>
<text text-anchor="start" x="18.38" y="-150.5" font-family="Helvetica,sans-Serif" font-size="10.00">+</text>
<text text-anchor="start" x="42.75" y="-150.5" font-family="Helvetica,sans-Serif" font-size="10.00">RED</text>
<text text-anchor="start" x="18.38" y="-134.5" font-family="Helvetica,sans-Serif" font-size="10.00">+</text>
<text text-anchor="start" x="42.75" y="-134.5" font-family="Helvetica,sans-Serif" font-size="10.00">GREEN</text>
<text text-anchor="start" x="18.38" y="-118.5" font-family="Helvetica,sans-Serif" font-size="10.00">+</text>
<text text-anchor="start" x="42.75" y="-118.5" font-family="Helvetica,sans-Serif" font-size="10.00">YELLOW</text>
<text text-anchor="start" x="18.38" y="-102.5" font-family="Helvetica,sans-Serif" font-size="10.00">+</text>
<text text-anchor="start" x="42.75" y="-102.5" font-family="Helvetica,sans-Serif" font-size="10.00">BLUE</text>
<text text-anchor="start" x="18.38" y="-86.5" font-family="Helvetica,sans-Serif" font-size="10.00">+</text>
<text text-anchor="start" x="42.75" y="-86.5" font-family="Helvetica,sans-Serif" font-size="10.00">MAGENTA</text>
<text text-anchor="start" x="18.38" y="-70.5" font-family="Helvetica,sans-Serif" font-size="10.00">+</text>
<text text-anchor="start" x="42.75" y="-70.5" font-family="Helvetica,sans-Serif" font-size="10.00">CYAN</text>
<text text-anchor="start" x="18.38" y="-54.5" font-family="Helvetica,sans-Serif" font-size="10.00">+</text>
<text text-anchor="start" x="42.75" y="-54.5" font-family="Helvetica,sans-Serif" font-size="10.00">WHITE</text>
<text text-anchor="start" x="18.38" y="-38.5" font-family="Helvetica,sans-Serif" font-size="10.00">+</text>
<text text-anchor="start" x="42.75" y="-38.5" font-family="Helvetica,sans-Serif" font-size="10.00">PURPLE</text>
<text text-anchor="start" x="42.75" y="-22.5" font-family="Helvetica,sans-Serif" font-size="10.00">and 16 more...</text>
<text text-anchor="start" x="18.38" y="-6.5" font-family="Helvetica,sans-Serif" font-size="10.00">+</text>
<text text-anchor="start" x="42.75" y="-6.5" font-family="Helvetica,sans-Serif" font-size="10.00">centerText()</text>
<polygon fill="#666666" stroke="#666666" points="0,-194 0,-194 138.5,-194 138.5,-194 0,-194"/>
<polygon fill="#666666" stroke="#666666" points="0,-18 0,-18 40.75,-18 40.75,-18 0,-18"/>
<polygon fill="#666666" stroke="#666666" points="40.75,-18 40.75,-18 138.5,-18 138.5,-18 40.75,-18"/>
<polygon fill="none" stroke="#666666" points="0,0 0,-212 138.5,-212 138.5,0 0,0"/>
</a>
</g>
</g>
</g>
</svg>
