<?xml version="1.0" encoding="UTF-8" standalone="no"?>
<!DOCTYPE svg PUBLIC "-//W3C//DTD SVG 1.1//EN"
 "http://www.w3.org/Graphics/SVG/1.1/DTD/svg11.dtd">
<!-- Generated by graphviz version 12.2.1 (20241206.2353)
 -->
<!-- Title: interficie.VistaConsultarAvatars.VistaConsultarAvatars Pages: 1 -->
<svg width="558pt" height="134pt"
 viewBox="0.00 0.00 557.75 134.00" xmlns="http://www.w3.org/2000/svg" xmlns:xlink="http://www.w3.org/1999/xlink">
<g id="graph0" class="graph" transform="scale(1 1) rotate(0) translate(4 130)">
<title>interficie.VistaConsultarAvatars.VistaConsultarAvatars</title>
<!-- Node1 -->
<g id="Node000001" class="node">
<title>Node1</title>
<g id="a_Node000001"><a xlink:title="Constructor de la vista que mostra la llista d&#39;avatares registrats.">
<polygon fill="#999999" stroke="#666666" points="151,-76 0,-76 0,-44 151,-44 151,-76"/>
<text text-anchor="start" x="8" y="-62.5" font-family="Helvetica,sans-Serif" font-size="10.00">interficie.VistaConsultar</text>
<text text-anchor="middle" x="75.5" y="-50.5" font-family="Helvetica,sans-Serif" font-size="10.00">Avatars.VistaConsultarAvatars</text>
</a>
</g>
</g>
<!-- Node1&#45;&gt;Node1 -->
<g id="edge7_Node000001_Node000001" class="edge">
<title>Node1&#45;&gt;Node1</title>
<g id="a_edge7_Node000001_Node000001"><a xlink:title=" ">
<path fill="none" stroke="#63b8ff" d="M40.64,-76.44C34.14,-85.58 45.75,-94 75.5,-94 91.77,-94 102.61,-91.48 108.04,-87.71"/>
<polygon fill="#63b8ff" stroke="#63b8ff" points="111.46,-88.43 110.05,-77.93 104.61,-87.01 111.46,-88.43"/>
</a>
</g>
</g>
<!-- Node2 -->
<g id="Node000002" class="node">
<title>Node2</title>
<g id="a_Node000002"><a xlink:href="classinterficie_1_1utils_1_1_tools.html#aad14ef36a2a433a18d49c46a83531892" target="_top" xlink:title="Actualitza la imatge d&#39;un JLabel redimensionant&#45;la per adaptar&#45;se a les mides màximes indicades mante...">
<polygon fill="white" stroke="#666666" points="344.75,-126 196.75,-126 196.75,-94 344.75,-94 344.75,-126"/>
<text text-anchor="start" x="204.75" y="-112.5" font-family="Helvetica,sans-Serif" font-size="10.00">interficie.utils.Tools.actualitzar</text>
<text text-anchor="middle" x="270.75" y="-100.5" font-family="Helvetica,sans-Serif" font-size="10.00">Imatge</text>
</a>
</g>
</g>
<!-- Node1&#45;&gt;Node2 -->
<g id="edge1_Node000001_Node000002" class="edge">
<title>Node1&#45;&gt;Node2</title>
<g id="a_edge1_Node000001_Node000002"><a xlink:title=" ">
<path fill="none" stroke="#63b8ff" d="M140.04,-76.44C157.63,-80.99 176.87,-85.97 195.03,-90.67"/>
<polygon fill="#63b8ff" stroke="#63b8ff" points="194.14,-94.05 204.7,-93.17 195.9,-87.28 194.14,-94.05"/>
</a>
</g>
</g>
<!-- Node3 -->
<g id="Node000003" class="node">
<title>Node3</title>
<g id="a_Node000003"><a xlink:href="classinterficie_1_1_vista_consultar_avatars.html#a2a900bc768080abeed9eb8f61321dbb0" target="_top" xlink:title="Carrega i mostra visualment tots els avatars registrats en un panell donat.">
<polygon fill="white" stroke="#666666" points="331.62,-76 209.88,-76 209.88,-44 331.62,-44 331.62,-76"/>
<text text-anchor="start" x="217.88" y="-62.5" font-family="Helvetica,sans-Serif" font-size="10.00">interficie.VistaConsultar</text>
<text text-anchor="middle" x="270.75" y="-50.5" font-family="Helvetica,sans-Serif" font-size="10.00">Avatars.carregarAvatars</text>
</a>
</g>
</g>
<!-- Node1&#45;&gt;Node3 -->
<g id="edge2_Node000001_Node000003" class="edge">
<title>Node1&#45;&gt;Node3</title>
<g id="a_edge2_Node000001_Node000003"><a xlink:title=" ">
<path fill="none" stroke="#63b8ff" d="M151.49,-60C166.79,-60 182.86,-60 198.05,-60"/>
<polygon fill="#63b8ff" stroke="#63b8ff" points="197.94,-63.5 207.94,-60 197.94,-56.5 197.94,-63.5"/>
</a>
</g>
</g>
<!-- Node7 -->
<g id="Node000007" class="node">
<title>Node7</title>
<g id="a_Node000007"><a xlink:href="classcontroladors_1_1_ctrl_presentacio.html#a66901a833c124fd1acc592cea93f4e6d" target="_top" xlink:title="Torna a la vista anterior a l&#39;actual.">
<polygon fill="white" stroke="#666666" points="354.5,-26 187,-26 187,-6 354.5,-6 354.5,-26"/>
<text text-anchor="middle" x="270.75" y="-12.5" font-family="Helvetica,sans-Serif" font-size="10.00">controladors.CtrlPresentacio.tornar</text>
</a>
</g>
</g>
<!-- Node1&#45;&gt;Node7 -->
<g id="edge6_Node000001_Node000007" class="edge">
<title>Node1&#45;&gt;Node7</title>
<g id="a_edge6_Node000001_Node000007"><a xlink:title=" ">
<path fill="none" stroke="#63b8ff" d="M148.73,-43.55C169.8,-38.76 192.53,-33.58 212.53,-29.03"/>
<polygon fill="#63b8ff" stroke="#63b8ff" points="213.2,-32.47 222.17,-26.83 211.65,-25.64 213.2,-32.47"/>
</a>
</g>
</g>
<!-- Node4 -->
<g id="Node000004" class="node">
<title>Node4</title>
<g id="a_Node000004"><a xlink:href="classcontroladors_1_1_ctrl_presentacio.html#a1d233e08aadf10e279ffef4b329ffd8a" target="_top" xlink:title="Retorna el conjunt de jugadors registrats al sistema.">
<polygon fill="white" stroke="#666666" points="548.25,-120 392,-120 392,-88 548.25,-88 548.25,-120"/>
<text text-anchor="start" x="400" y="-106.5" font-family="Helvetica,sans-Serif" font-size="10.00">controladors.CtrlPresentacio.get</text>
<text text-anchor="middle" x="470.12" y="-94.5" font-family="Helvetica,sans-Serif" font-size="10.00">JugadorsRegistrats</text>
</a>
</g>
</g>
<!-- Node3&#45;&gt;Node4 -->
<g id="edge3_Node000003_Node000004" class="edge">
<title>Node3&#45;&gt;Node4</title>
<g id="a_edge3_Node000003_Node000004"><a xlink:title=" ">
<path fill="none" stroke="#63b8ff" d="M332.04,-73.44C348.56,-77.12 366.79,-81.19 384.41,-85.11"/>
<polygon fill="#63b8ff" stroke="#63b8ff" points="383.28,-88.45 393.8,-87.21 384.8,-81.62 383.28,-88.45"/>
</a>
</g>
</g>
<!-- Node5 -->
<g id="Node000005" class="node">
<title>Node5</title>
<g id="a_Node000005"><a xlink:href="classdomini_1_1jugadors_1_1_jugador.html#abd263319ed47cf1469e301659e15dd26" target="_top" xlink:title="Retorna el nom del jugador.">
<polygon fill="white" stroke="#666666" points="549.75,-70 390.5,-70 390.5,-50 549.75,-50 549.75,-70"/>
<text text-anchor="middle" x="470.12" y="-56.5" font-family="Helvetica,sans-Serif" font-size="10.00">domini.jugadors.Jugador.getNom</text>
</a>
</g>
</g>
<!-- Node3&#45;&gt;Node5 -->
<g id="edge4_Node000003_Node000005" class="edge">
<title>Node3&#45;&gt;Node5</title>
<g id="a_edge4_Node000003_Node000005"><a xlink:title=" ">
<path fill="none" stroke="#63b8ff" d="M332.04,-60C346.82,-60 362.96,-60 378.81,-60"/>
<polygon fill="#63b8ff" stroke="#63b8ff" points="378.76,-63.5 388.76,-60 378.76,-56.5 378.76,-63.5"/>
</a>
</g>
</g>
<!-- Node6 -->
<g id="Node000006" class="node">
<title>Node6</title>
<g id="a_Node000006"><a xlink:href="classdomini_1_1jugadors_1_1_jugador.html#ac629842bca37a6a17c8dbd5eb597e2e1" target="_top" xlink:title="Obté a ruta a la imatge de l&#39;avatar.">
<polygon fill="white" stroke="#666666" points="547.5,-32 392.75,-32 392.75,0 547.5,0 547.5,-32"/>
<text text-anchor="start" x="400.75" y="-18.5" font-family="Helvetica,sans-Serif" font-size="10.00">domini.jugadors.Jugador.getruta</text>
<text text-anchor="middle" x="470.12" y="-6.5" font-family="Helvetica,sans-Serif" font-size="10.00">Imatge</text>
</a>
</g>
</g>
<!-- Node3&#45;&gt;Node6 -->
<g id="edge5_Node000003_Node000006" class="edge">
<title>Node3&#45;&gt;Node6</title>
<g id="a_edge5_Node000003_Node000006"><a xlink:title=" ">
<path fill="none" stroke="#63b8ff" d="M332.04,-46.56C348.56,-42.88 366.79,-38.81 384.41,-34.89"/>
<polygon fill="#63b8ff" stroke="#63b8ff" points="384.8,-38.38 393.8,-32.79 383.28,-31.55 384.8,-38.38"/>
</a>
</g>
</g>
</g>
</svg>
