<?xml version="1.0" encoding="UTF-8" standalone="no"?>
<!DOCTYPE svg PUBLIC "-//W3C//DTD SVG 1.1//EN"
 "http://www.w3.org/Graphics/SVG/1.1/DTD/svg11.dtd">
<!-- Generated by graphviz version 12.2.1 (20241206.2353)
 -->
<!-- Title: domini.excepcions.ExcepcioDomini Pages: 1 -->
<svg width="292pt" height="276pt"
 viewBox="0.00 0.00 291.50 276.00" xmlns="http://www.w3.org/2000/svg" xmlns:xlink="http://www.w3.org/1999/xlink">

<svg id="main" version="1.1" xmlns="http://www.w3.org/2000/svg" xmlns:xlink="http://www.w3.org/1999/xlink" xml:space="preserve">

<style type="text/css"><![CDATA[
.node, .edge {opacity: 0.7;}
.node.selected, .edge.selected {opacity: 1;}
.edge:hover path { stroke: red; }
.edge:hover polygon { stroke: red; fill: red; }
]]></style>
<script type="application/ecmascript" xlink:href="svg.min.js"/>
<svg id="graph" class="graph">
<g id="graph0" class="graph" transform="scale(1 1) rotate(0) translate(4 272)">
<title>domini.excepcions.ExcepcioDomini</title>
<!-- Node1 -->
<g id="Node000001" class="node">
<title>Node1</title>
<g id="a_Node000001"><a xlink:title="Excepció arrel de tot el paquet domini.">
<polygon fill="#999999" stroke="none" points="207.5,-180 75,-180 75,-100 207.5,-100 207.5,-180"/>
<text text-anchor="start" x="79" y="-166.5" font-family="Helvetica,sans-Serif" font-size="10.00">domini.excepcions.Excepcio</text>
<text text-anchor="start" x="125.88" y="-154.5" font-family="Helvetica,sans-Serif" font-size="10.00">Domini</text>
<text text-anchor="start" x="139.75" y="-138.5" font-family="Helvetica,sans-Serif" font-size="10.00"> </text>
<text text-anchor="start" x="88.31" y="-122.5" font-family="Helvetica,sans-Serif" font-size="10.00">+</text>
<text text-anchor="start" x="107.62" y="-122.5" font-family="Helvetica,sans-Serif" font-size="10.00">ExcepcioDomini()</text>
<text text-anchor="start" x="88.31" y="-106.5" font-family="Helvetica,sans-Serif" font-size="10.00">+</text>
<text text-anchor="start" x="107.62" y="-106.5" font-family="Helvetica,sans-Serif" font-size="10.00">ExcepcioDomini()</text>
<polygon fill="#666666" stroke="#666666" points="75,-150 75,-150 207.5,-150 207.5,-150 75,-150"/>
<polygon fill="#666666" stroke="#666666" points="75,-134 75,-134 207.5,-134 207.5,-134 75,-134"/>
<polygon fill="none" stroke="#666666" points="75,-100 75,-180 207.5,-180 207.5,-100 75,-100"/>
</a>
</g>
</g>
<!-- Node3 -->
<g id="Node000003" class="node">
<title>Node3</title>
<g id="a_Node000003"><a xlink:href="classdomini_1_1excepcions_1_1_excepcio_arxiu_bossa.html" target="_top" xlink:title="Problemes al carregar el fitxer del set de fitxes.">
<polygon fill="white" stroke="none" points="132.5,-64 0,-64 0,0 132.5,0 132.5,-64"/>
<text text-anchor="start" x="4" y="-50.5" font-family="Helvetica,sans-Serif" font-size="10.00">domini.excepcions.Excepcio</text>
<text text-anchor="start" x="41.12" y="-38.5" font-family="Helvetica,sans-Serif" font-size="10.00">ArxiuBossa</text>
<text text-anchor="start" x="64.75" y="-22.5" font-family="Helvetica,sans-Serif" font-size="10.00"> </text>
<text text-anchor="start" x="8.44" y="-6.5" font-family="Helvetica,sans-Serif" font-size="10.00">+</text>
<text text-anchor="start" x="22.88" y="-6.5" font-family="Helvetica,sans-Serif" font-size="10.00">ExcepcioArxiuBossa()</text>
<polygon fill="#666666" stroke="#666666" points="0,-34 0,-34 132.5,-34 132.5,-34 0,-34"/>
<polygon fill="#666666" stroke="#666666" points="0,-18 0,-18 132.5,-18 132.5,-18 0,-18"/>
<polygon fill="none" stroke="#666666" points="0,0 0,-64 132.5,-64 132.5,0 0,0"/>
</a>
</g>
</g>
<!-- Node1&#45;&gt;Node3 -->
<g id="edge2_Node000001_Node000003" class="edge">
<title>Node1&#45;&gt;Node3</title>
<g id="a_edge2_Node000001_Node000003"><a xlink:title=" ">
<path fill="none" stroke="#63b8ff" d="M107.1,-90.74C100.65,-81.62 94.06,-72.31 88.11,-63.9"/>
<polygon fill="none" stroke="#63b8ff" points="104.24,-92.75 112.87,-98.9 109.96,-88.71 104.24,-92.75"/>
</a>
</g>
</g>
<!-- Node4 -->
<g id="Node000004" class="node">
<title>Node4</title>
<g id="a_Node000004"><a xlink:href="classdomini_1_1excepcions_1_1_excepcio_arxiu_diccionari.html" target="_top" xlink:title="Problemes al carregar el fitxer de diccionari.">
<polygon fill="white" stroke="none" points="283.5,-64 151,-64 151,0 283.5,0 283.5,-64"/>
<text text-anchor="start" x="155" y="-50.5" font-family="Helvetica,sans-Serif" font-size="10.00">domini.excepcions.Excepcio</text>
<text text-anchor="start" x="184.25" y="-38.5" font-family="Helvetica,sans-Serif" font-size="10.00">ArxiuDiccionari</text>
<text text-anchor="start" x="215.75" y="-22.5" font-family="Helvetica,sans-Serif" font-size="10.00"> </text>
<text text-anchor="start" x="155.5" y="-6.5" font-family="Helvetica,sans-Serif" font-size="10.00">+</text>
<text text-anchor="start" x="166" y="-6.5" font-family="Helvetica,sans-Serif" font-size="10.00">ExcepcioArxiuDiccionari()</text>
<polygon fill="#666666" stroke="#666666" points="151,-34 151,-34 283.5,-34 283.5,-34 151,-34"/>
<polygon fill="#666666" stroke="#666666" points="151,-18 151,-18 283.5,-18 283.5,-18 151,-18"/>
<polygon fill="none" stroke="#666666" points="151,0 151,-64 283.5,-64 283.5,0 151,0"/>
</a>
</g>
</g>
<!-- Node1&#45;&gt;Node4 -->
<g id="edge3_Node000001_Node000004" class="edge">
<title>Node1&#45;&gt;Node4</title>
<g id="a_edge3_Node000001_Node000004"><a xlink:title=" ">
<path fill="none" stroke="#63b8ff" d="M175.64,-91.03C182.25,-81.81 189,-72.4 195.09,-63.9"/>
<polygon fill="none" stroke="#63b8ff" points="172.98,-88.73 170,-98.9 178.67,-92.81 172.98,-88.73"/>
</a>
</g>
</g>
<!-- Node2 -->
<g id="Node000002" class="node">
<title>Node2</title>
<g id="a_Node000002"><a xlink:title=" ">
<polygon fill="white" stroke="none" points="167,-268 115.5,-268 115.5,-216 167,-216 167,-268"/>
<text text-anchor="start" x="119.5" y="-254.5" font-family="Helvetica,sans-Serif" font-size="10.00">Exception</text>
<text text-anchor="start" x="139.75" y="-238.5" font-family="Helvetica,sans-Serif" font-size="10.00"> </text>
<text text-anchor="start" x="139.75" y="-222.5" font-family="Helvetica,sans-Serif" font-size="10.00"> </text>
<polygon fill="#666666" stroke="#666666" points="115.5,-250 115.5,-250 167,-250 167,-250 115.5,-250"/>
<polygon fill="#666666" stroke="#666666" points="115.5,-234 115.5,-234 167,-234 167,-234 115.5,-234"/>
<polygon fill="none" stroke="#666666" points="115.5,-216 115.5,-268 167,-268 167,-216 115.5,-216"/>
</a>
</g>
</g>
<!-- Node2&#45;&gt;Node1 -->
<g id="edge1_Node000001_Node000002" class="edge">
<title>Node2&#45;&gt;Node1</title>
<g id="a_edge1_Node000001_Node000002"><a xlink:title=" ">
<path fill="none" stroke="#63b8ff" d="M141.25,-204.61C141.25,-196.5 141.25,-187.86 141.25,-179.65"/>
<polygon fill="none" stroke="#63b8ff" points="137.75,-204.51 141.25,-214.51 144.75,-204.51 137.75,-204.51"/>
</a>
</g>
</g>
</g>
</svg>
</svg>

<style type='text/css'>
<![CDATA[
[data-mouse-over-selected='false'] { opacity: 0.7; }
[data-mouse-over-selected='true']  { opacity: 1.0; }
]]>
</style>
<script type="application/ecmascript"><![CDATA[
document.addEventListener('DOMContentLoaded', (event) => {
  highlightEdges();
  highlightAdjacentNodes();
});
]]></script>
</svg>
