<?xml version="1.0" encoding="UTF-8" standalone="no"?>
<!DOCTYPE svg PUBLIC "-//W3C//DTD SVG 1.1//EN"
 "http://www.w3.org/Graphics/SVG/1.1/DTD/svg11.dtd">
<!-- Generated by graphviz version 12.2.1 (20241206.2353)
 -->
<!-- Title: domini.excepcions.ExcepcioDomini Pages: 1 -->
<svg width="141pt" height="176pt"
 viewBox="0.00 0.00 140.50 176.00" xmlns="http://www.w3.org/2000/svg" xmlns:xlink="http://www.w3.org/1999/xlink">

<svg id="main" version="1.1" xmlns="http://www.w3.org/2000/svg" xmlns:xlink="http://www.w3.org/1999/xlink" xml:space="preserve">

<style type="text/css"><![CDATA[
.node, .edge {opacity: 0.7;}
.node.selected, .edge.selected {opacity: 1;}
.edge:hover path { stroke: red; }
.edge:hover polygon { stroke: red; fill: red; }
]]></style>
<script type="application/ecmascript" xlink:href="svg.min.js"/>
<svg id="graph" class="graph">
<g id="graph0" class="graph" transform="scale(1 1) rotate(0) translate(4 172)">
<title>domini.excepcions.ExcepcioDomini</title>
<!-- Node1 -->
<g id="Node000001" class="node">
<title>Node1</title>
<g id="a_Node000001"><a xlink:title="Excepció arrel de tot el paquet domini.">
<polygon fill="#999999" stroke="none" points="132.5,-80 0,-80 0,0 132.5,0 132.5,-80"/>
<text text-anchor="start" x="4" y="-66.5" font-family="Helvetica,sans-Serif" font-size="10.00">domini.excepcions.Excepcio</text>
<text text-anchor="start" x="50.88" y="-54.5" font-family="Helvetica,sans-Serif" font-size="10.00">Domini</text>
<text text-anchor="start" x="64.75" y="-38.5" font-family="Helvetica,sans-Serif" font-size="10.00"> </text>
<text text-anchor="start" x="13.31" y="-22.5" font-family="Helvetica,sans-Serif" font-size="10.00">+</text>
<text text-anchor="start" x="32.62" y="-22.5" font-family="Helvetica,sans-Serif" font-size="10.00">ExcepcioDomini()</text>
<text text-anchor="start" x="13.31" y="-6.5" font-family="Helvetica,sans-Serif" font-size="10.00">+</text>
<text text-anchor="start" x="32.62" y="-6.5" font-family="Helvetica,sans-Serif" font-size="10.00">ExcepcioDomini()</text>
<polygon fill="#666666" stroke="#666666" points="0,-50 0,-50 132.5,-50 132.5,-50 0,-50"/>
<polygon fill="#666666" stroke="#666666" points="0,-34 0,-34 132.5,-34 132.5,-34 0,-34"/>
<polygon fill="none" stroke="#666666" points="0,0 0,-80 132.5,-80 132.5,0 0,0"/>
</a>
</g>
</g>
<!-- Node2 -->
<g id="Node000002" class="node">
<title>Node2</title>
<g id="a_Node000002"><a xlink:title=" ">
<polygon fill="white" stroke="none" points="92,-168 40.5,-168 40.5,-116 92,-116 92,-168"/>
<text text-anchor="start" x="44.5" y="-154.5" font-family="Helvetica,sans-Serif" font-size="10.00">Exception</text>
<text text-anchor="start" x="64.75" y="-138.5" font-family="Helvetica,sans-Serif" font-size="10.00"> </text>
<text text-anchor="start" x="64.75" y="-122.5" font-family="Helvetica,sans-Serif" font-size="10.00"> </text>
<polygon fill="#666666" stroke="#666666" points="40.5,-150 40.5,-150 92,-150 92,-150 40.5,-150"/>
<polygon fill="#666666" stroke="#666666" points="40.5,-134 40.5,-134 92,-134 92,-134 40.5,-134"/>
<polygon fill="none" stroke="#666666" points="40.5,-116 40.5,-168 92,-168 92,-116 40.5,-116"/>
</a>
</g>
</g>
<!-- Node2&#45;&gt;Node1 -->
<g id="edge1_Node000001_Node000002" class="edge">
<title>Node2&#45;&gt;Node1</title>
<g id="a_edge1_Node000001_Node000002"><a xlink:title=" ">
<path fill="none" stroke="#63b8ff" d="M66.25,-104.61C66.25,-96.5 66.25,-87.86 66.25,-79.65"/>
<polygon fill="none" stroke="#63b8ff" points="62.75,-104.51 66.25,-114.51 69.75,-104.51 62.75,-104.51"/>
</a>
</g>
</g>
</g>
</svg>
</svg>

<style type='text/css'>
<![CDATA[
[data-mouse-over-selected='false'] { opacity: 0.7; }
[data-mouse-over-selected='true']  { opacity: 1.0; }
]]>
</style>
<script type="application/ecmascript"><![CDATA[
document.addEventListener('DOMContentLoaded', (event) => {
  highlightEdges();
  highlightAdjacentNodes();
});
]]></script>
</svg>
