<?xml version="1.0" encoding="UTF-8" standalone="no"?>
<!DOCTYPE svg PUBLIC "-//W3C//DTD SVG 1.1//EN"
 "http://www.w3.org/Graphics/SVG/1.1/DTD/svg11.dtd">
<!-- Generated by graphviz version 12.2.1 (20241206.2353)
 -->
<!-- Title: interficie.VistaCrearAvatar.VistaCrearAvatar Pages: 1 -->
<svg width="529pt" height="202pt"
 viewBox="0.00 0.00 529.25 202.40" xmlns="http://www.w3.org/2000/svg" xmlns:xlink="http://www.w3.org/1999/xlink">
<g id="graph0" class="graph" transform="scale(1 1) rotate(0) translate(4 198.4)">
<title>interficie.VistaCrearAvatar.VistaCrearAvatar</title>
<!-- Node1 -->
<g id="Node000001" class="node">
<title>Node1</title>
<g id="a_Node000001"><a xlink:title="Constructor de la finestra VistaCrearAvatar.">
<polygon fill="#999999" stroke="#666666" points="133.75,-95 0,-95 0,-63 133.75,-63 133.75,-95"/>
<text text-anchor="start" x="8" y="-81.5" font-family="Helvetica,sans-Serif" font-size="10.00">interficie.VistaCrearAvatar.</text>
<text text-anchor="middle" x="66.88" y="-69.5" font-family="Helvetica,sans-Serif" font-size="10.00">VistaCrearAvatar</text>
</a>
</g>
</g>
<!-- Node1&#45;&gt;Node1 -->
<g id="edge8_Node000001_Node000001" class="edge">
<title>Node1&#45;&gt;Node1</title>
<g id="a_edge8_Node000001_Node000001"><a xlink:title=" ">
<path fill="none" stroke="#63b8ff" d="M33.56,-95.44C27.34,-104.58 38.44,-113 66.88,-113 82.42,-113 92.79,-110.48 97.98,-106.71"/>
<polygon fill="#63b8ff" stroke="#63b8ff" points="101.4,-107.42 99.9,-96.93 94.53,-106.06 101.4,-107.42"/>
</a>
</g>
</g>
<!-- Node2 -->
<g id="Node000002" class="node">
<title>Node2</title>
<g id="a_Node000002"><a xlink:href="$classinterficie_1_1utils_1_1_tools.html#aad14ef36a2a433a18d49c46a83531892" xlink:title="Actualitza la imatge d&#39;un JLabel redimensionant&#45;la per adaptar&#45;se a les mides màximes indicades mante...">
<polygon fill="white" stroke="#666666" points="521.25,-167 373.25,-167 373.25,-135 521.25,-135 521.25,-167"/>
<text text-anchor="start" x="381.25" y="-153.5" font-family="Helvetica,sans-Serif" font-size="10.00">interficie.utils.Tools.actualitzar</text>
<text text-anchor="middle" x="447.25" y="-141.5" font-family="Helvetica,sans-Serif" font-size="10.00">Imatge</text>
</a>
</g>
</g>
<!-- Node1&#45;&gt;Node2 -->
<g id="edge1_Node000001_Node000002" class="edge">
<title>Node1&#45;&gt;Node2</title>
<g id="a_edge1_Node000001_Node000002"><a xlink:title=" ">
<path fill="none" stroke="#63b8ff" d="M78.29,-95.35C94.49,-119.07 128.23,-162.03 169.75,-179 242.97,-208.93 335.8,-189.04 393.1,-170.87"/>
<polygon fill="#63b8ff" stroke="#63b8ff" points="393.87,-174.3 402.28,-167.86 391.69,-167.65 393.87,-174.3"/>
</a>
</g>
</g>
<!-- Node3 -->
<g id="Node000003" class="node">
<title>Node3</title>
<g id="a_Node000003"><a xlink:href="$classcontroladors_1_1_ctrl_presentacio.html#a4fa76d231d08867ff21eff04a379d280" xlink:title="Crea un nou avatar amb el nom i la imatge especificats.">
<polygon fill="white" stroke="#666666" points="335.75,-170 171.25,-170 171.25,-138 335.75,-138 335.75,-170"/>
<text text-anchor="start" x="179.25" y="-156.5" font-family="Helvetica,sans-Serif" font-size="10.00">controladors.CtrlPresentacio.crear</text>
<text text-anchor="middle" x="253.5" y="-144.5" font-family="Helvetica,sans-Serif" font-size="10.00">Avatar</text>
</a>
</g>
</g>
<!-- Node1&#45;&gt;Node3 -->
<g id="edge2_Node000001_Node000003" class="edge">
<title>Node1&#45;&gt;Node3</title>
<g id="a_edge2_Node000001_Node000003"><a xlink:title=" ">
<path fill="none" stroke="#63b8ff" d="M98.05,-95.42C118.02,-105.89 145,-119.26 169.75,-129 174.07,-130.7 178.56,-132.35 183.1,-133.95"/>
<polygon fill="#63b8ff" stroke="#63b8ff" points="181.74,-137.18 192.34,-137.07 183.99,-130.55 181.74,-137.18"/>
</a>
</g>
</g>
<!-- Node4 -->
<g id="Node000004" class="node">
<title>Node4</title>
<g id="a_Node000004"><a xlink:href="$classinterficie_1_1_vista_crear_avatar.html#a275c320ec75c735937be368a8becfb46" xlink:title="Escala i posiciona els components segons la mida actual.">
<polygon fill="white" stroke="#666666" points="336.12,-120 170.88,-120 170.88,-88 336.12,-88 336.12,-120"/>
<text text-anchor="start" x="178.88" y="-106.5" font-family="Helvetica,sans-Serif" font-size="10.00">interficie.VistaCrearAvatar.escalar</text>
<text text-anchor="middle" x="253.5" y="-94.5" font-family="Helvetica,sans-Serif" font-size="10.00">Componentes</text>
</a>
</g>
</g>
<!-- Node1&#45;&gt;Node4 -->
<g id="edge3_Node000001_Node000004" class="edge">
<title>Node1&#45;&gt;Node4</title>
<g id="a_edge3_Node000001_Node000004"><a xlink:title=" ">
<path fill="none" stroke="#63b8ff" d="M134.01,-87.95C142.21,-89.07 150.71,-90.22 159.22,-91.37"/>
<polygon fill="#63b8ff" stroke="#63b8ff" points="158.52,-94.81 168.9,-92.68 159.46,-87.87 158.52,-94.81"/>
</a>
</g>
</g>
<!-- Node5 -->
<g id="Node000005" class="node">
<title>Node5</title>
<g id="a_Node000005"><a xlink:href="$classinterficie_1_1_vista_crear_avatar.html#a8815061362fcbb6852ed1013c55cf773" xlink:title="Mostra un diàleg modal per seleccionar la imatge de perfil de l&#39;usuari.">
<polygon fill="white" stroke="#666666" points="336.88,-70 170.12,-70 170.12,-38 336.88,-38 336.88,-70"/>
<text text-anchor="start" x="178.12" y="-56.5" font-family="Helvetica,sans-Serif" font-size="10.00">interficie.VistaCrearAvatar.mostrar</text>
<text text-anchor="middle" x="253.5" y="-44.5" font-family="Helvetica,sans-Serif" font-size="10.00">SelectorImagenes</text>
</a>
</g>
</g>
<!-- Node1&#45;&gt;Node5 -->
<g id="edge5_Node000001_Node000005" class="edge">
<title>Node1&#45;&gt;Node5</title>
<g id="a_edge5_Node000001_Node000005"><a xlink:title=" ">
<path fill="none" stroke="#63b8ff" d="M134.01,-63.54C141.97,-62.31 150.23,-61.11 158.49,-59.98"/>
<polygon fill="#63b8ff" stroke="#63b8ff" points="158.8,-63.47 168.26,-58.69 157.88,-56.53 158.8,-63.47"/>
</a>
</g>
</g>
<!-- Node6 -->
<g id="Node000006" class="node">
<title>Node6</title>
<g id="a_Node000006"><a xlink:href="$classcontroladors_1_1_ctrl_presentacio.html#a66901a833c124fd1acc592cea93f4e6d" xlink:title="Torna a la vista anterior a l&#39;actual.">
<polygon fill="white" stroke="#666666" points="337.25,-20 169.75,-20 169.75,0 337.25,0 337.25,-20"/>
<text text-anchor="middle" x="253.5" y="-6.5" font-family="Helvetica,sans-Serif" font-size="10.00">controladors.CtrlPresentacio.tornar</text>
</a>
</g>
</g>
<!-- Node1&#45;&gt;Node6 -->
<g id="edge7_Node000001_Node000006" class="edge">
<title>Node1&#45;&gt;Node6</title>
<g id="a_edge7_Node000001_Node000006"><a xlink:title=" ">
<path fill="none" stroke="#63b8ff" d="M96.52,-62.72C116.52,-51.91 144.13,-38.09 169.75,-29 175.48,-26.97 181.51,-25.1 187.6,-23.39"/>
<polygon fill="#63b8ff" stroke="#63b8ff" points="188.33,-26.81 197.1,-20.87 186.54,-20.05 188.33,-26.81"/>
</a>
</g>
</g>
<!-- Node4&#45;&gt;Node2 -->
<g id="edge4_Node000004_Node000002" class="edge">
<title>Node4&#45;&gt;Node2</title>
<g id="a_edge4_Node000004_Node000002"><a xlink:title=" ">
<path fill="none" stroke="#63b8ff" d="M321.56,-120.44C336.6,-124.12 352.68,-128.06 368.12,-131.85"/>
<polygon fill="#63b8ff" stroke="#63b8ff" points="367.21,-135.23 377.75,-134.21 368.87,-128.43 367.21,-135.23"/>
</a>
</g>
</g>
<!-- Node5&#45;&gt;Node1 -->
<g id="edge6_Node000005_Node000001" class="edge">
<title>Node5&#45;&gt;Node1</title>
<g id="a_edge6_Node000005_Node000001"><a xlink:title=" ">
<path fill="none" stroke="#63b8ff" d="M179.63,-70.48C168.34,-72.17 156.65,-73.77 145.26,-75.19"/>
<polygon fill="#63b8ff" stroke="#63b8ff" points="145.02,-71.7 135.51,-76.37 145.86,-78.65 145.02,-71.7"/>
</a>
</g>
</g>
</g>
</svg>
