<?xml version="1.0" encoding="UTF-8" standalone="no"?>
<!DOCTYPE svg PUBLIC "-//W3C//DTD SVG 1.1//EN"
 "http://www.w3.org/Graphics/SVG/1.1/DTD/svg11.dtd">
<!-- Generated by graphviz version 12.2.1 (20241206.2353)
 -->
<!-- Title: domini.diccionari.DAWG.tokenize Pages: 1 -->
<svg width="1394pt" height="173pt"
 viewBox="0.00 0.00 1394.25 173.00" xmlns="http://www.w3.org/2000/svg" xmlns:xlink="http://www.w3.org/1999/xlink">
<g id="graph0" class="graph" transform="scale(1 1) rotate(0) translate(4 169)">
<title>domini.diccionari.DAWG.tokenize</title>
<!-- Node1 -->
<g id="Node000001" class="node">
<title>Node1</title>
<g id="a_Node000001"><a xlink:title="Genera una llista amb les lletres i dígrafs de la paraula paràmetre.">
<polygon fill="#999999" stroke="#666666" points="1386.25,-87 1224,-87 1224,-67 1386.25,-67 1386.25,-87"/>
<text text-anchor="middle" x="1305.12" y="-73.5" font-family="Helvetica,sans-Serif" font-size="10.00">domini.diccionari.DAWG.tokenize</text>
</a>
</g>
</g>
<!-- Node2 -->
<g id="Node000002" class="node">
<title>Node2</title>
<g id="a_Node000002"><a xlink:href="classdomini_1_1diccionari_1_1_d_a_w_g.html#acf204a82f6e4f5cebf3313611e57b714" target="_top" xlink:title="Comprova si una paraula està reconeguda pel DAWG.">
<polygon fill="white" stroke="#666666" points="1183.12,-109 1020.88,-109 1020.88,-89 1183.12,-89 1183.12,-109"/>
<text text-anchor="middle" x="1102" y="-95.5" font-family="Helvetica,sans-Serif" font-size="10.00">domini.diccionari.DAWG.contains</text>
</a>
</g>
</g>
<!-- Node1&#45;&gt;Node2 -->
<g id="edge1_Node000001_Node000002" class="edge">
<title>Node1&#45;&gt;Node2</title>
<g id="a_edge1_Node000001_Node000002"><a xlink:title=" ">
<path fill="none" stroke="#63b8ff" d="M1212.5,-87.02C1202.85,-88.08 1193.08,-89.15 1183.56,-90.19"/>
<polygon fill="#63b8ff" stroke="#63b8ff" points="1212.7,-90.52 1222.26,-85.95 1211.94,-83.56 1212.7,-90.52"/>
</a>
</g>
</g>
<!-- Node9 -->
<g id="Node000009" class="node">
<title>Node9</title>
<g id="a_Node000009"><a xlink:href="classdomini_1_1diccionari_1_1_d_a_w_g.html#a4556b78b36bb9abd60c62c0c67b65c94" target="_top" xlink:title="Modifica el DAWG perquè reconegui la paraula d&#39;entrada com a pertanyent al lèxic.">
<polygon fill="white" stroke="#666666" points="1188,-68 1016,-68 1016,-48 1188,-48 1188,-68"/>
<text text-anchor="middle" x="1102" y="-54.5" font-family="Helvetica,sans-Serif" font-size="10.00">domini.diccionari.DAWG.insertWord</text>
</a>
</g>
</g>
<!-- Node1&#45;&gt;Node9 -->
<g id="edge11_Node000001_Node000009" class="edge">
<title>Node1&#45;&gt;Node9</title>
<g id="a_edge11_Node000001_Node000009"><a xlink:title=" ">
<path fill="none" stroke="#63b8ff" d="M1212.42,-68.34C1204.35,-67.57 1196.19,-66.8 1188.17,-66.05"/>
<polygon fill="#63b8ff" stroke="#63b8ff" points="1211.98,-71.81 1222.26,-69.27 1212.63,-64.84 1211.98,-71.81"/>
</a>
</g>
</g>
<!-- Node3 -->
<g id="Node000003" class="node">
<title>Node3</title>
<g id="a_Node000003"><a xlink:href="classdomini_1_1jugadors_1_1_maquina.html#a57c533590571f4918ebd03a0b0d4819b" target="_top" xlink:title="Comprova si una lletra és vàlida per a una casella que formi paraula transversal vertical.">
<polygon fill="white" stroke="#666666" points="951.88,-165 804.62,-165 804.62,-133 951.88,-133 951.88,-165"/>
<text text-anchor="start" x="812.62" y="-151.5" font-family="Helvetica,sans-Serif" font-size="10.00">domini.jugadors.Maquina.valid</text>
<text text-anchor="middle" x="878.25" y="-139.5" font-family="Helvetica,sans-Serif" font-size="10.00">_traversals</text>
</a>
</g>
</g>
<!-- Node2&#45;&gt;Node3 -->
<g id="edge2_Node000002_Node000003" class="edge">
<title>Node2&#45;&gt;Node3</title>
<g id="a_edge2_Node000002_Node000003"><a xlink:title=" ">
<path fill="none" stroke="#63b8ff" d="M1043.38,-111.99C1015.57,-118.26 981.89,-125.86 952.3,-132.53"/>
<polygon fill="#63b8ff" stroke="#63b8ff" points="1044.05,-115.43 1053.04,-109.81 1042.51,-108.6 1044.05,-115.43"/>
</a>
</g>
</g>
<!-- Node8 -->
<g id="Node000008" class="node">
<title>Node8</title>
<g id="a_Node000008"><a xlink:href="classdomini_1_1jugadors_1_1_maquina.html#a247420aa69d81da6d3d1951d3b409a43" target="_top" xlink:title="Valora una paraula i actualitza la millor paraula trobada si és millor.">
<polygon fill="white" stroke="#666666" points="956.38,-115 800.12,-115 800.12,-83 956.38,-83 956.38,-115"/>
<text text-anchor="start" x="808.12" y="-101.5" font-family="Helvetica,sans-Serif" font-size="10.00">domini.jugadors.Maquina.valorar</text>
<text text-anchor="middle" x="878.25" y="-89.5" font-family="Helvetica,sans-Serif" font-size="10.00">Paraula</text>
</a>
</g>
</g>
<!-- Node2&#45;&gt;Node8 -->
<g id="edge9_Node000002_Node000008" class="edge">
<title>Node2&#45;&gt;Node8</title>
<g id="a_edge9_Node000002_Node000008"><a xlink:title=" ">
<path fill="none" stroke="#63b8ff" d="M1009.27,-99C991.82,-99 973.71,-99 956.75,-99"/>
<polygon fill="#63b8ff" stroke="#63b8ff" points="1009.12,-102.5 1019.12,-99 1009.12,-95.5 1009.12,-102.5"/>
</a>
</g>
</g>
<!-- Node4 -->
<g id="Node000004" class="node">
<title>Node4</title>
<g id="a_Node000004"><a xlink:href="classdomini_1_1jugadors_1_1_maquina.html#a28fa4d863085aaaba920b95a47bf14b7" target="_top" xlink:title="Genera totes les paraules possibles a la dreta d&#39;una subparaula prefix.">
<polygon fill="white" stroke="#666666" points="740.12,-143 583.88,-143 583.88,-111 740.12,-111 740.12,-143"/>
<text text-anchor="start" x="591.88" y="-129.5" font-family="Helvetica,sans-Serif" font-size="10.00">domini.jugadors.Maquina.extend</text>
<text text-anchor="middle" x="662" y="-117.5" font-family="Helvetica,sans-Serif" font-size="10.00">Right</text>
</a>
</g>
</g>
<!-- Node3&#45;&gt;Node4 -->
<g id="edge3_Node000003_Node000004" class="edge">
<title>Node3&#45;&gt;Node4</title>
<g id="a_edge3_Node000003_Node000004"><a xlink:title=" ">
<path fill="none" stroke="#63b8ff" d="M793.14,-140.36C775.75,-138.58 757.52,-136.71 740.39,-134.95"/>
<polygon fill="#63b8ff" stroke="#63b8ff" points="792.6,-143.83 802.91,-141.37 793.32,-136.86 792.6,-143.83"/>
</a>
</g>
</g>
<!-- Node4&#45;&gt;Node4 -->
<g id="edge4_Node000004_Node000004" class="edge">
<title>Node4&#45;&gt;Node4</title>
<g id="a_edge4_Node000004_Node000004"><a xlink:title=" ">
<path fill="none" stroke="#63b8ff" d="M696.4,-154.54C690.79,-158.41 679.32,-161 662,-161 630.77,-161 618.57,-152.58 625.4,-143.44"/>
<polygon fill="#63b8ff" stroke="#63b8ff" points="699.8,-155.42 698.3,-144.93 692.93,-154.06 699.8,-155.42"/>
</a>
</g>
</g>
<!-- Node5 -->
<g id="Node000005" class="node">
<title>Node5</title>
<g id="a_Node000005"><a xlink:href="classdomini_1_1jugadors_1_1_maquina.html#a408520f7aa4d96099ecfa1bae76728b5" target="_top" xlink:title="Genera totes les subparaules prefix possibles cap a l&#39;esquerra d&#39;una casella anchor.">
<polygon fill="white" stroke="#666666" points="547.5,-137 366.5,-137 366.5,-117 547.5,-117 547.5,-137"/>
<text text-anchor="middle" x="457" y="-123.5" font-family="Helvetica,sans-Serif" font-size="10.00">domini.jugadors.Maquina.generateLeft</text>
</a>
</g>
</g>
<!-- Node4&#45;&gt;Node5 -->
<g id="edge5_Node000004_Node000005" class="edge">
<title>Node4&#45;&gt;Node5</title>
<g id="a_edge5_Node000004_Node000005"><a xlink:title=" ">
<path fill="none" stroke="#63b8ff" d="M572.08,-127C564.03,-127 555.86,-127 547.79,-127"/>
<polygon fill="#63b8ff" stroke="#63b8ff" points="571.87,-130.5 581.87,-127 571.87,-123.5 571.87,-130.5"/>
</a>
</g>
</g>
<!-- Node5&#45;&gt;Node5 -->
<g id="edge6_Node000005_Node000005" class="edge">
<title>Node5&#45;&gt;Node5</title>
<g id="a_edge6_Node000005_Node000005"><a xlink:title=" ">
<path fill="none" stroke="#63b8ff" d="M493.55,-148.11C489.19,-152.14 477.01,-155 457,-155 421.43,-155 410.59,-145.98 424.49,-137.34"/>
<polygon fill="#63b8ff" stroke="#63b8ff" points="496.83,-146.89 490.04,-138.76 490.27,-149.35 496.83,-146.89"/>
</a>
</g>
</g>
<!-- Node6 -->
<g id="Node000006" class="node">
<title>Node6</title>
<g id="a_Node000006"><a xlink:href="classdomini_1_1jugadors_1_1_maquina.html#afe864f5cb4ab5895e149c5aad0235400" target="_top" xlink:title="Busca la millor paraula en una direcció específica (horitzontal o vertical).">
<polygon fill="white" stroke="#666666" points="330.5,-143 174.25,-143 174.25,-111 330.5,-111 330.5,-143"/>
<text text-anchor="start" x="182.25" y="-129.5" font-family="Helvetica,sans-Serif" font-size="10.00">domini.jugadors.Maquina.search</text>
<text text-anchor="middle" x="252.38" y="-117.5" font-family="Helvetica,sans-Serif" font-size="10.00">BestWord</text>
</a>
</g>
</g>
<!-- Node5&#45;&gt;Node6 -->
<g id="edge7_Node000005_Node000006" class="edge">
<title>Node5&#45;&gt;Node6</title>
<g id="a_edge7_Node000005_Node000006"><a xlink:title=" ">
<path fill="none" stroke="#63b8ff" d="M354.8,-127C346.7,-127 338.59,-127 330.69,-127"/>
<polygon fill="#63b8ff" stroke="#63b8ff" points="354.73,-130.5 364.73,-127 354.73,-123.5 354.73,-130.5"/>
</a>
</g>
</g>
<!-- Node7 -->
<g id="Node000007" class="node">
<title>Node7</title>
<g id="a_Node000007"><a xlink:href="classdomini_1_1jugadors_1_1_maquina.html#a8b1f4889bc62ca862e4f87e55c66871e" target="_top" xlink:title="Busca la paraula amb la puntuació més alta donats un taulell i un diccionari.">
<polygon fill="white" stroke="#666666" points="138.25,-143 0,-143 0,-111 138.25,-111 138.25,-143"/>
<text text-anchor="start" x="8" y="-129.5" font-family="Helvetica,sans-Serif" font-size="10.00">domini.jugadors.Maquina.fer</text>
<text text-anchor="middle" x="69.12" y="-117.5" font-family="Helvetica,sans-Serif" font-size="10.00">Jugada</text>
</a>
</g>
</g>
<!-- Node6&#45;&gt;Node7 -->
<g id="edge8_Node000006_Node000007" class="edge">
<title>Node6&#45;&gt;Node7</title>
<g id="a_edge8_Node000006_Node000007"><a xlink:title=" ">
<path fill="none" stroke="#63b8ff" d="M162.64,-127C154.58,-127 146.51,-127 138.67,-127"/>
<polygon fill="#63b8ff" stroke="#63b8ff" points="162.47,-130.5 172.47,-127 162.47,-123.5 162.47,-130.5"/>
</a>
</g>
</g>
<!-- Node8&#45;&gt;Node4 -->
<g id="edge10_Node000008_Node000004" class="edge">
<title>Node8&#45;&gt;Node4</title>
<g id="a_edge10_Node000008_Node000004"><a xlink:title=" ">
<path fill="none" stroke="#63b8ff" d="M788.92,-110.54C772.89,-112.64 756.28,-114.81 740.6,-116.86"/>
<polygon fill="#63b8ff" stroke="#63b8ff" points="788.94,-114.07 798.4,-109.3 788.03,-107.13 788.94,-114.07"/>
</a>
</g>
</g>
<!-- Node10 -->
<g id="Node000010" class="node">
<title>Node10</title>
<g id="a_Node000010"><a xlink:href="classdomini_1_1diccionari_1_1_d_a_w_g.html#a0e940935fc1a6e9b34df72a5f2a78c85" target="_top" xlink:title="Genera un DAWG a partir d&#39;un fitxer amb un format específic.">
<polygon fill="white" stroke="#666666" points="980,-65 776.5,-65 776.5,-45 980,-45 980,-65"/>
<text text-anchor="middle" x="878.25" y="-51.5" font-family="Helvetica,sans-Serif" font-size="10.00">domini.diccionari.DAWG.dictionary2DAWG</text>
</a>
</g>
</g>
<!-- Node9&#45;&gt;Node10 -->
<g id="edge12_Node000009_Node000010" class="edge">
<title>Node9&#45;&gt;Node10</title>
<g id="a_edge12_Node000009_Node000010"><a xlink:title=" ">
<path fill="none" stroke="#63b8ff" d="M1004.34,-56.69C996.33,-56.58 988.22,-56.47 980.18,-56.37"/>
<polygon fill="#63b8ff" stroke="#63b8ff" points="1004.02,-60.19 1014.07,-56.82 1004.12,-53.19 1004.02,-60.19"/>
</a>
</g>
</g>
<!-- Node11 -->
<g id="Node000011" class="node">
<title>Node11</title>
<g id="a_Node000011"><a xlink:href="classcontroladors_1_1_ctrl_partida.html#ae82dd6941d4bf290e5b0c9d0433a6e11" target="_top" xlink:title="Carrega una partida existent.">
<polygon fill="white" stroke="#666666" points="740.5,-82 583.5,-82 583.5,-50 740.5,-50 740.5,-82"/>
<text text-anchor="start" x="591.5" y="-68.5" font-family="Helvetica,sans-Serif" font-size="10.00">controladors.CtrlPartida.carregar</text>
<text text-anchor="middle" x="662" y="-56.5" font-family="Helvetica,sans-Serif" font-size="10.00">Partida</text>
</a>
</g>
</g>
<!-- Node10&#45;&gt;Node11 -->
<g id="edge13_Node000010_Node000011" class="edge">
<title>Node10&#45;&gt;Node11</title>
<g id="a_edge13_Node000010_Node000011"><a xlink:title=" ">
<path fill="none" stroke="#63b8ff" d="M764.73,-60.78C756.7,-61.19 748.71,-61.6 740.94,-62"/>
<polygon fill="#63b8ff" stroke="#63b8ff" points="764.77,-64.28 774.57,-60.27 764.41,-57.29 764.77,-64.28"/>
</a>
</g>
</g>
<!-- Node12 -->
<g id="Node000012" class="node">
<title>Node12</title>
<g id="a_Node000012"><a xlink:href="classcontroladors_1_1_ctrl_partida.html#a0db48d25e2ed2a796bc221f62d84aec5" target="_top" xlink:title="Crea una nova partida.">
<polygon fill="white" stroke="#666666" points="733.75,-32 590.25,-32 590.25,0 733.75,0 733.75,-32"/>
<text text-anchor="start" x="598.25" y="-18.5" font-family="Helvetica,sans-Serif" font-size="10.00">controladors.CtrlPartida.crear</text>
<text text-anchor="middle" x="662" y="-6.5" font-family="Helvetica,sans-Serif" font-size="10.00">Partida</text>
</a>
</g>
</g>
<!-- Node10&#45;&gt;Node12 -->
<g id="edge14_Node000010_Node000012" class="edge">
<title>Node10&#45;&gt;Node12</title>
<g id="a_edge14_Node000010_Node000012"><a xlink:title=" ">
<path fill="none" stroke="#63b8ff" d="M808.74,-42.53C784.87,-38.18 758.04,-33.3 733.98,-28.92"/>
<polygon fill="#63b8ff" stroke="#63b8ff" points="807.88,-45.93 818.35,-44.28 809.13,-39.04 807.88,-45.93"/>
</a>
</g>
</g>
</g>
</svg>
