<?xml version="1.0" encoding="UTF-8" standalone="no"?>
<!DOCTYPE svg PUBLIC "-//W3C//DTD SVG 1.1//EN"
 "http://www.w3.org/Graphics/SVG/1.1/DTD/svg11.dtd">
<!-- Generated by graphviz version 12.2.1 (20241206.2353)
 -->
<!-- Title: controladors.CtrlDomini.crearJugador Pages: 1 -->
<svg width="541pt" height="140pt"
 viewBox="0.00 0.00 541.25 140.00" xmlns="http://www.w3.org/2000/svg" xmlns:xlink="http://www.w3.org/1999/xlink">
<g id="graph0" class="graph" transform="scale(1 1) rotate(0) translate(4 136)">
<title>controladors.CtrlDomini.crearJugador</title>
<!-- Node1 -->
<g id="Node000001" class="node">
<title>Node1</title>
<g id="a_Node000001"><a xlink:title="Crea un jugador associat a l&#39;usuari actiu.">
<polygon fill="#999999" stroke="#666666" points="143.5,-82 0,-82 0,-50 143.5,-50 143.5,-82"/>
<text text-anchor="start" x="8" y="-68.5" font-family="Helvetica,sans-Serif" font-size="10.00">controladors.CtrlDomini.crear</text>
<text text-anchor="middle" x="71.75" y="-56.5" font-family="Helvetica,sans-Serif" font-size="10.00">Jugador</text>
</a>
</g>
</g>
<!-- Node2 -->
<g id="Node000002" class="node">
<title>Node2</title>
<g id="a_Node000002"><a xlink:href="classcontroladors_1_1_ctrl_persistencia.html#a087f94cda6a408396c8faa53f84a1e0e" target="_top" xlink:title="Desa un jugador a l&#39;emmagatzematge persistent.">
<polygon fill="white" stroke="#666666" points="356.75,-132 179.5,-132 179.5,-100 356.75,-100 356.75,-132"/>
<text text-anchor="start" x="187.5" y="-118.5" font-family="Helvetica,sans-Serif" font-size="10.00">controladors.CtrlPersistencia.guardar</text>
<text text-anchor="middle" x="268.12" y="-106.5" font-family="Helvetica,sans-Serif" font-size="10.00">Jugador</text>
</a>
</g>
</g>
<!-- Node1&#45;&gt;Node2 -->
<g id="edge1_Node000001_Node000002" class="edge">
<title>Node1&#45;&gt;Node2</title>
<g id="a_edge1_Node000001_Node000002"><a xlink:title=" ">
<path fill="none" stroke="#63b8ff" d="M136.66,-82.44C154.43,-87.01 173.89,-92.02 192.23,-96.73"/>
<polygon fill="#63b8ff" stroke="#63b8ff" points="191.15,-100.07 201.71,-99.17 192.89,-93.29 191.15,-100.07"/>
</a>
</g>
</g>
<!-- Node4 -->
<g id="Node000004" class="node">
<title>Node4</title>
<g id="a_Node000004"><a xlink:href="classcontroladors_1_1_ctrl_persistencia.html#a3e338a9b45aaa502d95cb1816545b734" target="_top" xlink:title="Desa un usuari a l&#39;emmagatzematge persistent.">
<polygon fill="white" stroke="#666666" points="356.75,-82 179.5,-82 179.5,-50 356.75,-50 356.75,-82"/>
<text text-anchor="start" x="187.5" y="-68.5" font-family="Helvetica,sans-Serif" font-size="10.00">controladors.CtrlPersistencia.guardar</text>
<text text-anchor="middle" x="268.12" y="-56.5" font-family="Helvetica,sans-Serif" font-size="10.00">Usuari</text>
</a>
</g>
</g>
<!-- Node1&#45;&gt;Node4 -->
<g id="edge3_Node000001_Node000004" class="edge">
<title>Node1&#45;&gt;Node4</title>
<g id="a_edge3_Node000001_Node000004"><a xlink:title=" ">
<path fill="none" stroke="#63b8ff" d="M143.75,-66C151.56,-66 159.62,-66 167.7,-66"/>
<polygon fill="#63b8ff" stroke="#63b8ff" points="167.6,-69.5 177.6,-66 167.6,-62.5 167.6,-69.5"/>
</a>
</g>
</g>
<!-- Node6 -->
<g id="Node000006" class="node">
<title>Node6</title>
<g id="a_Node000006"><a xlink:href="classcontroladors_1_1_ctrl_domini.html#acbfe76cf3d8881c6f330c28dca4677d5" target="_top" xlink:title="Assigna un id a un jugador.">
<polygon fill="white" stroke="#666666" points="343.62,-32 192.62,-32 192.62,0 343.62,0 343.62,-32"/>
<text text-anchor="start" x="200.62" y="-18.5" font-family="Helvetica,sans-Serif" font-size="10.00">controladors.CtrlDomini.obtenir</text>
<text text-anchor="middle" x="268.12" y="-6.5" font-family="Helvetica,sans-Serif" font-size="10.00">NouIdJugador</text>
</a>
</g>
</g>
<!-- Node1&#45;&gt;Node6 -->
<g id="edge5_Node000001_Node000006" class="edge">
<title>Node1&#45;&gt;Node6</title>
<g id="a_edge5_Node000001_Node000006"><a xlink:title=" ">
<path fill="none" stroke="#63b8ff" d="M136.66,-49.56C154.43,-44.99 173.89,-39.98 192.23,-35.27"/>
<polygon fill="#63b8ff" stroke="#63b8ff" points="192.89,-38.71 201.71,-32.83 191.15,-31.93 192.89,-38.71"/>
</a>
</g>
</g>
<!-- Node3 -->
<g id="Node000003" class="node">
<title>Node3</title>
<g id="a_Node000003"><a xlink:href="classpersistencia_1_1_jugador_i_o.html#aeb13d0e82937696c7c053612278c6ee9" target="_top" xlink:title="Desa un jugador a un fitxer JSON.">
<polygon fill="white" stroke="#666666" points="533.25,-132 392.75,-132 392.75,-100 533.25,-100 533.25,-132"/>
<text text-anchor="start" x="400.75" y="-118.5" font-family="Helvetica,sans-Serif" font-size="10.00">persistencia.JugadorIO.save</text>
<text text-anchor="middle" x="463" y="-106.5" font-family="Helvetica,sans-Serif" font-size="10.00">Jugador</text>
</a>
</g>
</g>
<!-- Node2&#45;&gt;Node3 -->
<g id="edge2_Node000002_Node000003" class="edge">
<title>Node2&#45;&gt;Node3</title>
<g id="a_edge2_Node000002_Node000003"><a xlink:title=" ">
<path fill="none" stroke="#63b8ff" d="M357.1,-116C365.04,-116 373.06,-116 380.94,-116"/>
<polygon fill="#63b8ff" stroke="#63b8ff" points="380.85,-119.5 390.85,-116 380.85,-112.5 380.85,-119.5"/>
</a>
</g>
</g>
<!-- Node5 -->
<g id="Node000005" class="node">
<title>Node5</title>
<g id="a_Node000005"><a xlink:href="classpersistencia_1_1_usuari_i_o.html#adae8b6b62d1b4cbbff286eaa19877937" target="_top" xlink:title="Desa un usuari a un fitxer JSON.">
<polygon fill="white" stroke="#666666" points="530.25,-82 395.75,-82 395.75,-50 530.25,-50 530.25,-82"/>
<text text-anchor="start" x="403.75" y="-68.5" font-family="Helvetica,sans-Serif" font-size="10.00">persistencia.UsuariIO.save</text>
<text text-anchor="middle" x="463" y="-56.5" font-family="Helvetica,sans-Serif" font-size="10.00">Usuari</text>
</a>
</g>
</g>
<!-- Node4&#45;&gt;Node5 -->
<g id="edge4_Node000004_Node000005" class="edge">
<title>Node4&#45;&gt;Node5</title>
<g id="a_edge4_Node000004_Node000005"><a xlink:title=" ">
<path fill="none" stroke="#63b8ff" d="M357.1,-66C366.08,-66 375.16,-66 384.02,-66"/>
<polygon fill="#63b8ff" stroke="#63b8ff" points="384.01,-69.5 394.01,-66 384.01,-62.5 384.01,-69.5"/>
</a>
</g>
</g>
</g>
</svg>
