<?xml version="1.0" encoding="UTF-8" standalone="no"?>
<!DOCTYPE svg PUBLIC "-//W3C//DTD SVG 1.1//EN"
 "http://www.w3.org/Graphics/SVG/1.1/DTD/svg11.dtd">
<!-- Generated by graphviz version 12.2.1 (20241206.2353)
 -->
<!-- Title: domini.jugadors.Maquina.generateLeft Pages: 1 -->
<svg width="1152pt" height="1070pt"
 viewBox="0.00 0.00 1151.75 1070.16" xmlns="http://www.w3.org/2000/svg" xmlns:xlink="http://www.w3.org/1999/xlink">
<g id="graph0" class="graph" transform="scale(1 1) rotate(0) translate(4 1066.16)">
<title>domini.jugadors.Maquina.generateLeft</title>
<!-- Node1 -->
<g id="Node000001" class="node">
<title>Node1</title>
<g id="a_Node000001"><a xlink:title="Genera totes les subparaules prefix possibles cap a l&#39;esquerra d&#39;una casella anchor.">
<polygon fill="#999999" stroke="#666666" points="181,-353.74 0,-353.74 0,-333.74 181,-333.74 181,-353.74"/>
<text text-anchor="middle" x="90.5" y="-340.24" font-family="Helvetica,sans-Serif" font-size="10.00">domini.jugadors.Maquina.generateLeft</text>
</a>
</g>
</g>
<!-- Node1&#45;&gt;Node1 -->
<g id="edge41_Node000001_Node000001" class="edge">
<title>Node1&#45;&gt;Node1</title>
<g id="a_edge41_Node000001_Node000001"><a xlink:title=" ">
<path fill="none" stroke="#63b8ff" d="M57.99,-354.08C44.09,-362.72 54.93,-371.74 90.5,-371.74 110.51,-371.74 122.69,-368.89 127.05,-364.85"/>
<polygon fill="#63b8ff" stroke="#63b8ff" points="130.33,-363.64 123.54,-355.5 123.77,-366.09 130.33,-363.64"/>
</a>
</g>
</g>
<!-- Node2 -->
<g id="Node000002" class="node">
<title>Node2</title>
<g id="a_Node000002"><a xlink:href="classdomini_1_1scrabble_1_1_casella.html#a45ad0a3aaeacf1bc4896a7a99c068dd3" target="_top" xlink:title="Comprova si la casella està ocupada per una fitxa.">
<polygon fill="white" stroke="#666666" points="746.5,-904.74 623.25,-904.74 623.25,-872.74 746.5,-872.74 746.5,-904.74"/>
<text text-anchor="start" x="631.25" y="-891.24" font-family="Helvetica,sans-Serif" font-size="10.00">domini.scrabble.Casella.</text>
<text text-anchor="middle" x="684.88" y="-879.24" font-family="Helvetica,sans-Serif" font-size="10.00">EstaOcupat</text>
</a>
</g>
</g>
<!-- Node1&#45;&gt;Node2 -->
<g id="edge1_Node000001_Node000002" class="edge">
<title>Node1&#45;&gt;Node2</title>
<g id="a_edge1_Node000001_Node000002"><a xlink:title=" ">
<path fill="none" stroke="#63b8ff" d="M94.81,-354.24C113.93,-413.08 216.31,-704.07 409.25,-834.74 469.22,-875.36 552.46,-886.98 611.54,-889.61"/>
<polygon fill="#63b8ff" stroke="#63b8ff" points="611.39,-893.11 621.51,-889.97 611.64,-886.11 611.39,-893.11"/>
</a>
</g>
</g>
<!-- Node3 -->
<g id="Node000003" class="node">
<title>Node3</title>
<g id="a_Node000003"><a xlink:href="classdomini_1_1jugadors_1_1_maquina.html#a28fa4d863085aaaba920b95a47bf14b7" target="_top" xlink:title="Genera totes les paraules possibles a la dreta d&#39;una subparaula prefix.">
<polygon fill="white" stroke="#666666" points="373.25,-400.74 217,-400.74 217,-368.74 373.25,-368.74 373.25,-400.74"/>
<text text-anchor="start" x="225" y="-387.24" font-family="Helvetica,sans-Serif" font-size="10.00">domini.jugadors.Maquina.extend</text>
<text text-anchor="middle" x="295.12" y="-375.24" font-family="Helvetica,sans-Serif" font-size="10.00">Right</text>
</a>
</g>
</g>
<!-- Node1&#45;&gt;Node3 -->
<g id="edge2_Node000001_Node000003" class="edge">
<title>Node1&#45;&gt;Node3</title>
<g id="a_edge2_Node000001_Node000003"><a xlink:title=" ">
<path fill="none" stroke="#63b8ff" d="M143.16,-354.2C162.13,-358.03 184.18,-362.5 205.48,-366.81"/>
<polygon fill="#63b8ff" stroke="#63b8ff" points="204.55,-370.19 215.05,-368.74 205.94,-363.33 204.55,-370.19"/>
</a>
</g>
</g>
<!-- Node4 -->
<g id="Node000004" class="node">
<title>Node4</title>
<g id="a_Node000004"><a xlink:href="classdomini_1_1scrabble_1_1_taulell.html#a5be7b0143cecbce3e2f4dc4f53814879" target="_top" xlink:title="Donades unes coordenades, retorna la Casella que es troba en aquelles coordenades.">
<polygon fill="white" stroke="#666666" points="951.12,-866.74 819.62,-866.74 819.62,-834.74 951.12,-834.74 951.12,-866.74"/>
<text text-anchor="start" x="827.62" y="-853.24" font-family="Helvetica,sans-Serif" font-size="10.00">domini.scrabble.Taulell.get</text>
<text text-anchor="middle" x="885.38" y="-841.24" font-family="Helvetica,sans-Serif" font-size="10.00">Casella</text>
</a>
</g>
</g>
<!-- Node1&#45;&gt;Node4 -->
<g id="edge42_Node000001_Node000004" class="edge">
<title>Node1&#45;&gt;Node4</title>
<g id="a_edge42_Node000001_Node000004"><a xlink:title=" ">
<path fill="none" stroke="#63b8ff" d="M92.74,-354.2C100.89,-421.2 148.42,-790.08 217,-876.74 372.84,-1073.66 542.79,-1111.33 768.25,-1000.74 820.64,-975.05 856.13,-913.07 873.03,-877.34"/>
<polygon fill="#63b8ff" stroke="#63b8ff" points="876.07,-879.09 877.04,-868.54 869.71,-876.19 876.07,-879.09"/>
</a>
</g>
</g>
<!-- Node5 -->
<g id="Node000005" class="node">
<title>Node5</title>
<g id="a_Node000005"><a xlink:href="classdomini_1_1scrabble_1_1_taulell.html#afc2d8dcd225b683aa00af9ce2075ad79" target="_top" xlink:title=" ">
<polygon fill="white" stroke="#666666" points="1143.75,-488.74 1002.5,-488.74 1002.5,-468.74 1143.75,-468.74 1143.75,-488.74"/>
<text text-anchor="middle" x="1073.12" y="-475.24" font-family="Helvetica,sans-Serif" font-size="10.00">domini.scrabble.Taulell.limits</text>
</a>
</g>
</g>
<!-- Node1&#45;&gt;Node5 -->
<g id="edge48_Node000001_Node000005" class="edge">
<title>Node1&#45;&gt;Node5</title>
<g id="a_edge48_Node000001_Node000005"><a xlink:title=" ">
<path fill="none" stroke="#63b8ff" d="M92.97,-333.3C99.28,-292.41 127.98,-141.8 217,-67.74 311.84,11.16 363.01,-0.74 486.38,-0.74 486.38,-0.74 486.38,-0.74 685.88,-0.74 816.45,-0.74 875.88,6.27 966.5,-87.74 1019.32,-142.54 1058.34,-384.25 1069.13,-457.58"/>
<polygon fill="#63b8ff" stroke="#63b8ff" points="1065.6,-457.65 1070.5,-467.05 1072.53,-456.65 1065.6,-457.65"/>
</a>
</g>
</g>
<!-- Node6 -->
<g id="Node000006" class="node">
<title>Node6</title>
<g id="a_Node000006"><a xlink:href="classdomini_1_1diccionari_1_1_d_a_w_g.html#a5dca3044f48dcdb2aa2edc08f8554f19" target="_top" xlink:title="Donat un Node del DAWG, retorna el conjunt de lletres amb arista sortint.">
<polygon fill="white" stroke="#666666" points="556.88,-255.74 417.88,-255.74 417.88,-223.74 556.88,-223.74 556.88,-255.74"/>
<text text-anchor="start" x="425.88" y="-242.24" font-family="Helvetica,sans-Serif" font-size="10.00">domini.diccionari.DAWG.get</text>
<text text-anchor="middle" x="487.38" y="-230.24" font-family="Helvetica,sans-Serif" font-size="10.00">EdgesFromNode</text>
</a>
</g>
</g>
<!-- Node1&#45;&gt;Node6 -->
<g id="edge43_Node000001_Node000006" class="edge">
<title>Node1&#45;&gt;Node6</title>
<g id="a_edge43_Node000001_Node000006"><a xlink:title=" ">
<path fill="none" stroke="#63b8ff" d="M131.17,-333.3C196.96,-315.97 329.63,-281.03 412.9,-259.09"/>
<polygon fill="#63b8ff" stroke="#63b8ff" points="413.57,-262.54 422.35,-256.61 411.78,-255.77 413.57,-262.54"/>
</a>
</g>
</g>
<!-- Node7 -->
<g id="Node000007" class="node">
<title>Node7</title>
<g id="a_Node000007"><a xlink:href="classdomini_1_1auxiliars_1_1_pair.html#af9fc7c6b0fb531c4b59cdb1048897164" target="_top" xlink:title="Obté el primer element de la parella.">
<polygon fill="white" stroke="#666666" points="945.5,-696.74 825.25,-696.74 825.25,-664.74 945.5,-664.74 945.5,-696.74"/>
<text text-anchor="start" x="833.25" y="-683.24" font-family="Helvetica,sans-Serif" font-size="10.00">domini.auxiliars.Pair.get</text>
<text text-anchor="middle" x="885.38" y="-671.24" font-family="Helvetica,sans-Serif" font-size="10.00">First</text>
</a>
</g>
</g>
<!-- Node1&#45;&gt;Node7 -->
<g id="edge44_Node000001_Node000007" class="edge">
<title>Node1&#45;&gt;Node7</title>
<g id="a_edge44_Node000001_Node000007"><a xlink:title=" ">
<path fill="none" stroke="#63b8ff" d="M91.48,-353.89C91.89,-407.45 100.14,-660.7 217,-813.74 277.01,-892.34 316.75,-890.79 409.25,-925.74 559.34,-982.46 641.28,-1061.84 768.25,-963.74 818.41,-924.99 780.74,-884.61 804.25,-825.74 821.73,-781.97 849.67,-734.82 867.51,-706.56"/>
<polygon fill="#63b8ff" stroke="#63b8ff" points="870.34,-708.63 872.77,-698.31 864.44,-704.86 870.34,-708.63"/>
</a>
</g>
</g>
<!-- Node8 -->
<g id="Node000008" class="node">
<title>Node8</title>
<g id="a_Node000008"><a xlink:href="classdomini_1_1scrabble_1_1_casella.html#ad6fa4e60f906cde260a175354e4fda22" target="_top" xlink:title="Retorna la fitxa de la casella.">
<polygon fill="white" stroke="#666666" points="753.25,-954.74 616.5,-954.74 616.5,-922.74 753.25,-922.74 753.25,-954.74"/>
<text text-anchor="start" x="624.5" y="-941.24" font-family="Helvetica,sans-Serif" font-size="10.00">domini.scrabble.Casella.get</text>
<text text-anchor="middle" x="684.88" y="-929.24" font-family="Helvetica,sans-Serif" font-size="10.00">Fitxa</text>
</a>
</g>
</g>
<!-- Node1&#45;&gt;Node8 -->
<g id="edge45_Node000001_Node000008" class="edge">
<title>Node1&#45;&gt;Node8</title>
<g id="a_edge45_Node000001_Node000008"><a xlink:title=" ">
<path fill="none" stroke="#63b8ff" d="M92.79,-354.13C99.06,-401.11 129.57,-597.22 217,-727.74 279.5,-821.05 307.54,-844.12 409.25,-891.74 471.03,-920.67 548.09,-931.99 604.84,-936.32"/>
<polygon fill="#63b8ff" stroke="#63b8ff" points="604.54,-939.81 614.76,-937.02 605.03,-932.83 604.54,-939.81"/>
</a>
</g>
</g>
<!-- Node10 -->
<g id="Node000010" class="node">
<title>Node10</title>
<g id="a_Node000010"><a xlink:href="classdomini_1_1diccionari_1_1_d_a_w_g.html#ac58883549907777cdc59927351d3cbaa" target="_top" xlink:title="Donats un node i una lletra, retorna el node destí de la transició o &#45;1 en cas que no existeixi.">
<polygon fill="white" stroke="#666666" points="556.88,-205.74 417.88,-205.74 417.88,-173.74 556.88,-173.74 556.88,-205.74"/>
<text text-anchor="start" x="425.88" y="-192.24" font-family="Helvetica,sans-Serif" font-size="10.00">domini.diccionari.DAWG.get</text>
<text text-anchor="middle" x="487.38" y="-180.24" font-family="Helvetica,sans-Serif" font-size="10.00">NodeFromTransition</text>
</a>
</g>
</g>
<!-- Node1&#45;&gt;Node10 -->
<g id="edge46_Node000001_Node000010" class="edge">
<title>Node1&#45;&gt;Node10</title>
<g id="a_edge46_Node000001_Node000010"><a xlink:title=" ">
<path fill="none" stroke="#63b8ff" d="M105.48,-333.39C127.95,-317.17 173.95,-285.68 217,-266.74 278.44,-239.72 351.91,-219.46 406.59,-206.52"/>
<polygon fill="#63b8ff" stroke="#63b8ff" points="407.2,-209.97 416.14,-204.29 405.61,-203.15 407.2,-209.97"/>
</a>
</g>
</g>
<!-- Node11 -->
<g id="Node000011" class="node">
<title>Node11</title>
<g id="a_Node000011"><a xlink:href="classdomini_1_1auxiliars_1_1_pair.html#af70cd15a3a6fe17c25fbae3a08955565" target="_top" xlink:title="Obté el segon element de la parella.">
<polygon fill="white" stroke="#666666" points="945.5,-168.74 825.25,-168.74 825.25,-136.74 945.5,-136.74 945.5,-168.74"/>
<text text-anchor="start" x="833.25" y="-155.24" font-family="Helvetica,sans-Serif" font-size="10.00">domini.auxiliars.Pair.get</text>
<text text-anchor="middle" x="885.38" y="-143.24" font-family="Helvetica,sans-Serif" font-size="10.00">Second</text>
</a>
</g>
</g>
<!-- Node1&#45;&gt;Node11 -->
<g id="edge47_Node000001_Node000011" class="edge">
<title>Node1&#45;&gt;Node11</title>
<g id="a_edge47_Node000001_Node000011"><a xlink:title=" ">
<path fill="none" stroke="#63b8ff" d="M94.97,-333.31C106.46,-300.54 146.57,-199.01 217,-151.74 421.53,-14.5 528.52,-38.21 768.25,-94.74 797.54,-101.65 827.87,-117.14 850.19,-130.37"/>
<polygon fill="#63b8ff" stroke="#63b8ff" points="848.19,-133.25 858.55,-135.46 851.84,-127.27 848.19,-133.25"/>
</a>
</g>
</g>
<!-- Node12 -->
<g id="Node000012" class="node">
<title>Node12</title>
<g id="a_Node000012"><a xlink:href="classdomini_1_1jugadors_1_1_maquina.html#a7d1379b7a857632d4bdcad6af82ef281" target="_top" xlink:title="Busca la posició d&#39;una lletra en el rack de la màquina.">
<polygon fill="white" stroke="#666666" points="560.25,-155.74 414.5,-155.74 414.5,-123.74 560.25,-123.74 560.25,-155.74"/>
<text text-anchor="start" x="422.5" y="-142.24" font-family="Helvetica,sans-Serif" font-size="10.00">domini.jugadors.Maquina.rack</text>
<text text-anchor="middle" x="487.38" y="-130.24" font-family="Helvetica,sans-Serif" font-size="10.00">ContainsLetter</text>
</a>
</g>
</g>
<!-- Node1&#45;&gt;Node12 -->
<g id="edge49_Node000001_Node000012" class="edge">
<title>Node1&#45;&gt;Node12</title>
<g id="a_edge49_Node000001_Node000012"><a xlink:title=" ">
<path fill="none" stroke="#63b8ff" d="M98.31,-333.33C115.23,-308.32 161.81,-244.52 217,-211.74 274.05,-177.87 347.22,-159.63 402.9,-149.99"/>
<polygon fill="#63b8ff" stroke="#63b8ff" points="403.37,-153.46 412.66,-148.37 402.22,-146.55 403.37,-153.46"/>
</a>
</g>
</g>
<!-- Node3&#45;&gt;Node2 -->
<g id="edge3_Node000003_Node000002" class="edge">
<title>Node3&#45;&gt;Node2</title>
<g id="a_edge3_Node000003_Node000002"><a xlink:title=" ">
<path fill="none" stroke="#63b8ff" d="M295.6,-400.95C294.56,-461.41 299.08,-676.38 409.25,-793.74 411.18,-795.8 544.98,-841.53 625.08,-868.78"/>
<polygon fill="#63b8ff" stroke="#63b8ff" points="623.5,-871.94 634.1,-871.85 625.76,-865.31 623.5,-871.94"/>
</a>
</g>
</g>
<!-- Node3&#45;&gt;Node3 -->
<g id="edge4_Node000003_Node000003" class="edge">
<title>Node3&#45;&gt;Node3</title>
<g id="a_edge4_Node000003_Node000003"><a xlink:title=" ">
<path fill="none" stroke="#63b8ff" d="M260.8,-401.19C254.4,-410.33 265.84,-418.74 295.12,-418.74 311.14,-418.74 321.82,-416.23 327.16,-412.45"/>
<polygon fill="#63b8ff" stroke="#63b8ff" points="330.59,-413.17 329.15,-402.67 323.73,-411.77 330.59,-413.17"/>
</a>
</g>
</g>
<!-- Node3&#45;&gt;Node4 -->
<g id="edge5_Node000003_Node000004" class="edge">
<title>Node3&#45;&gt;Node4</title>
<g id="a_edge5_Node000003_Node000004"><a xlink:title=" ">
<path fill="none" stroke="#63b8ff" d="M297.69,-401.09C305.49,-479.33 342.43,-814.94 409.25,-891.74 516.06,-1014.52 617.48,-1024.99 768.25,-963.74 811.61,-946.13 847.66,-903.68 867.59,-876.12"/>
<polygon fill="#63b8ff" stroke="#63b8ff" points="870.2,-878.49 873.08,-868.29 864.47,-874.47 870.2,-878.49"/>
</a>
</g>
</g>
<!-- Node3&#45;&gt;Node5 -->
<g id="edge13_Node000003_Node000005" class="edge">
<title>Node3&#45;&gt;Node5</title>
<g id="a_edge13_Node000003_Node000005"><a xlink:title=" ">
<path fill="none" stroke="#63b8ff" d="M312.17,-368.55C332.79,-348.72 370.55,-315.58 409.25,-297.74 473.71,-268.04 515.3,-314.92 565.5,-264.74 620.13,-210.15 541.5,-143.37 601.5,-94.74 659.08,-48.08 694.39,-88.64 768.25,-94.74 857.27,-102.1 899.45,-68.73 966.5,-127.74 1066.62,-215.86 1073.6,-394.97 1072.84,-457.01"/>
<polygon fill="#63b8ff" stroke="#63b8ff" points="1069.34,-456.81 1072.63,-466.88 1076.34,-456.96 1069.34,-456.81"/>
</a>
</g>
</g>
<!-- Node3&#45;&gt;Node6 -->
<g id="edge7_Node000003_Node000006" class="edge">
<title>Node3&#45;&gt;Node6</title>
<g id="a_edge7_Node000003_Node000006"><a xlink:title=" ">
<path fill="none" stroke="#63b8ff" d="M308.35,-368.5C327.46,-344.07 366.68,-297.77 409.25,-269.74 414.08,-266.57 419.29,-263.65 424.65,-260.98"/>
<polygon fill="#63b8ff" stroke="#63b8ff" points="426.08,-264.17 433.7,-256.81 423.15,-257.82 426.08,-264.17"/>
</a>
</g>
</g>
<!-- Node3&#45;&gt;Node7 -->
<g id="edge8_Node000003_Node000007" class="edge">
<title>Node3&#45;&gt;Node7</title>
<g id="a_edge8_Node000003_Node000007"><a xlink:title=" ">
<path fill="none" stroke="#63b8ff" d="M308.09,-401.17C345.11,-450.46 463.56,-597.42 601.5,-656.74 669.2,-685.86 754.33,-689.15 813.42,-686.85"/>
<polygon fill="#63b8ff" stroke="#63b8ff" points="813.54,-690.35 823.37,-686.39 813.22,-683.36 813.54,-690.35"/>
</a>
</g>
</g>
<!-- Node3&#45;&gt;Node8 -->
<g id="edge9_Node000003_Node000008" class="edge">
<title>Node3&#45;&gt;Node8</title>
<g id="a_edge9_Node000003_Node000008"><a xlink:title=" ">
<path fill="none" stroke="#63b8ff" d="M298.22,-400.88C307.87,-473.16 350.19,-766.53 409.25,-834.74 458.65,-891.8 542.75,-917.65 604.9,-929.3"/>
<polygon fill="#63b8ff" stroke="#63b8ff" points="604.29,-932.74 614.74,-931.05 605.51,-925.85 604.29,-932.74"/>
</a>
</g>
</g>
<!-- Node9 -->
<g id="Node000009" class="node">
<title>Node9</title>
<g id="a_Node000009"><a xlink:href="classdomini_1_1scrabble_1_1_fitxa.html#a3ee9b39d600851a00c4ce541339ba90e" target="_top" xlink:title="Retorna la lletra associada a la fitxa.">
<polygon fill="white" stroke="#666666" points="747.62,-740.74 622.12,-740.74 622.12,-708.74 747.62,-708.74 747.62,-740.74"/>
<text text-anchor="start" x="630.12" y="-727.24" font-family="Helvetica,sans-Serif" font-size="10.00">domini.scrabble.Fitxa.get</text>
<text text-anchor="middle" x="684.88" y="-715.24" font-family="Helvetica,sans-Serif" font-size="10.00">Lletra</text>
</a>
</g>
</g>
<!-- Node3&#45;&gt;Node9 -->
<g id="edge10_Node000003_Node000009" class="edge">
<title>Node3&#45;&gt;Node9</title>
<g id="a_edge10_Node000003_Node000009"><a xlink:title=" ">
<path fill="none" stroke="#63b8ff" d="M296.47,-400.93C298.54,-453.3 312.76,-619.11 409.25,-694.74 465.81,-739.08 550.25,-741.79 610.55,-736.42"/>
<polygon fill="#63b8ff" stroke="#63b8ff" points="610.78,-739.91 620.39,-735.44 610.09,-732.95 610.78,-739.91"/>
</a>
</g>
</g>
<!-- Node3&#45;&gt;Node10 -->
<g id="edge11_Node000003_Node000010" class="edge">
<title>Node3&#45;&gt;Node10</title>
<g id="a_edge11_Node000003_Node000010"><a xlink:title=" ">
<path fill="none" stroke="#63b8ff" d="M302.62,-368.28C316.79,-334.46 353.73,-256.82 409.25,-214.74 410.58,-213.73 411.96,-212.76 413.37,-211.83"/>
<polygon fill="#63b8ff" stroke="#63b8ff" points="414.88,-215 421.8,-206.98 411.39,-208.93 414.88,-215"/>
</a>
</g>
</g>
<!-- Node3&#45;&gt;Node11 -->
<g id="edge12_Node000003_Node000011" class="edge">
<title>Node3&#45;&gt;Node11</title>
<g id="a_edge12_Node000003_Node000011"><a xlink:title=" ">
<path fill="none" stroke="#63b8ff" d="M357.9,-368.3C432.91,-347.81 551.24,-313.55 565.5,-297.74 616.95,-240.73 541.81,-177.06 601.5,-128.74 669.62,-73.6 779.59,-106.65 840.41,-131.97"/>
<polygon fill="#63b8ff" stroke="#63b8ff" points="838.85,-135.11 849.42,-135.83 841.6,-128.68 838.85,-135.11"/>
</a>
</g>
</g>
<!-- Node3&#45;&gt;Node12 -->
<g id="edge14_Node000003_Node000012" class="edge">
<title>Node3&#45;&gt;Node12</title>
<g id="a_edge14_Node000003_Node000012"><a xlink:title=" ">
<path fill="none" stroke="#63b8ff" d="M299.89,-368.52C310.14,-328.02 342.34,-221.64 409.25,-164.74 410.34,-163.82 411.46,-162.93 412.61,-162.07"/>
<polygon fill="#63b8ff" stroke="#63b8ff" points="414.12,-165.26 420.67,-156.94 410.36,-159.36 414.12,-165.26"/>
</a>
</g>
</g>
<!-- Node13 -->
<g id="Node000013" class="node">
<title>Node13</title>
<g id="a_Node000013"><a xlink:href="classdomini_1_1jugadors_1_1_maquina.html#a57c533590571f4918ebd03a0b0d4819b" target="_top" xlink:title="Comprova si una lletra és vàlida per a una casella que formi paraula transversal vertical.">
<polygon fill="white" stroke="#666666" points="561,-784.74 413.75,-784.74 413.75,-752.74 561,-752.74 561,-784.74"/>
<text text-anchor="start" x="421.75" y="-771.24" font-family="Helvetica,sans-Serif" font-size="10.00">domini.jugadors.Maquina.valid</text>
<text text-anchor="middle" x="487.38" y="-759.24" font-family="Helvetica,sans-Serif" font-size="10.00">_traversals</text>
</a>
</g>
</g>
<!-- Node3&#45;&gt;Node13 -->
<g id="edge15_Node000003_Node000013" class="edge">
<title>Node3&#45;&gt;Node13</title>
<g id="a_edge15_Node000003_Node000013"><a xlink:title=" ">
<path fill="none" stroke="#63b8ff" d="M296.77,-401.04C299.76,-455.58 316.52,-634.01 409.25,-735.74 412.92,-739.77 417.16,-743.32 421.74,-746.46"/>
<polygon fill="#63b8ff" stroke="#63b8ff" points="419.83,-749.4 430.21,-751.54 423.43,-743.39 419.83,-749.4"/>
</a>
</g>
</g>
<!-- Node16 -->
<g id="Node000016" class="node">
<title>Node16</title>
<g id="a_Node000016"><a xlink:href="classdomini_1_1jugadors_1_1_maquina.html#a247420aa69d81da6d3d1951d3b409a43" target="_top" xlink:title="Valora una paraula i actualitza la millor paraula trobada si és millor.">
<polygon fill="white" stroke="#666666" points="565.5,-400.74 409.25,-400.74 409.25,-368.74 565.5,-368.74 565.5,-400.74"/>
<text text-anchor="start" x="417.25" y="-387.24" font-family="Helvetica,sans-Serif" font-size="10.00">domini.jugadors.Maquina.valorar</text>
<text text-anchor="middle" x="487.38" y="-375.24" font-family="Helvetica,sans-Serif" font-size="10.00">Paraula</text>
</a>
</g>
</g>
<!-- Node3&#45;&gt;Node16 -->
<g id="edge25_Node000003_Node000016" class="edge">
<title>Node3&#45;&gt;Node16</title>
<g id="a_edge25_Node000003_Node000016"><a xlink:title=" ">
<path fill="none" stroke="#63b8ff" d="M373.51,-384.74C381.41,-384.74 389.48,-384.74 397.49,-384.74"/>
<polygon fill="#63b8ff" stroke="#63b8ff" points="397.24,-388.24 407.24,-384.74 397.24,-381.24 397.24,-388.24"/>
</a>
</g>
</g>
<!-- Node4&#45;&gt;Node5 -->
<g id="edge6_Node000004_Node000005" class="edge">
<title>Node4&#45;&gt;Node5</title>
<g id="a_edge6_Node000004_Node000005"><a xlink:title=" ">
<path fill="none" stroke="#63b8ff" d="M948.23,-834.44C955,-830.76 961.3,-826.26 966.5,-820.74 1055.27,-726.6 1069.51,-559.35 1071.74,-500.2"/>
<polygon fill="#63b8ff" stroke="#63b8ff" points="1075.23,-500.6 1072.01,-490.51 1068.23,-500.4 1075.23,-500.6"/>
</a>
</g>
</g>
<!-- Node13&#45;&gt;Node2 -->
<g id="edge18_Node000013_Node000002" class="edge">
<title>Node13&#45;&gt;Node2</title>
<g id="a_edge18_Node000013_Node000002"><a xlink:title=" ">
<path fill="none" stroke="#63b8ff" d="M539.07,-785.22C548.46,-789.67 557.74,-795.13 565.5,-801.74 588.3,-821.18 578.17,-839.94 601.5,-858.74 605.41,-861.89 609.67,-864.73 614.14,-867.27"/>
<polygon fill="#63b8ff" stroke="#63b8ff" points="612.33,-870.28 622.83,-871.72 615.52,-864.05 612.33,-870.28"/>
</a>
</g>
</g>
<!-- Node13&#45;&gt;Node4 -->
<g id="edge19_Node000013_Node000004" class="edge">
<title>Node13&#45;&gt;Node4</title>
<g id="a_edge19_Node000013_Node000004"><a xlink:title=" ">
<path fill="none" stroke="#63b8ff" d="M528.28,-785.09C540.33,-790.22 553.54,-796.04 565.5,-801.74 581.83,-809.53 584.19,-815.47 601.5,-820.74 669.38,-841.42 750.16,-848.33 807.99,-850.42"/>
<polygon fill="#63b8ff" stroke="#63b8ff" points="807.62,-853.91 817.72,-850.73 807.84,-846.92 807.62,-853.91"/>
</a>
</g>
</g>
<!-- Node13&#45;&gt;Node5 -->
<g id="edge24_Node000013_Node000005" class="edge">
<title>Node13&#45;&gt;Node5</title>
<g id="a_edge24_Node000013_Node000005"><a xlink:title=" ">
<path fill="none" stroke="#63b8ff" d="M561.14,-782.3C664.94,-797.11 855.25,-806.79 966.5,-705.74 1029.89,-648.17 1058.27,-544.77 1067.98,-500.17"/>
<polygon fill="#63b8ff" stroke="#63b8ff" points="1071.39,-501 1069.98,-490.5 1064.53,-499.58 1071.39,-501"/>
</a>
</g>
</g>
<!-- Node13&#45;&gt;Node7 -->
<g id="edge20_Node000013_Node000007" class="edge">
<title>Node13&#45;&gt;Node7</title>
<g id="a_edge20_Node000013_Node000007"><a xlink:title=" ">
<path fill="none" stroke="#63b8ff" d="M561.39,-772.95C618.88,-774.1 700.36,-770.89 768.25,-749.74 800.04,-739.84 832.29,-719.7 854.71,-703.72"/>
<polygon fill="#63b8ff" stroke="#63b8ff" points="856.75,-706.56 862.76,-697.84 852.62,-700.91 856.75,-706.56"/>
</a>
</g>
</g>
<!-- Node13&#45;&gt;Node8 -->
<g id="edge21_Node000013_Node000008" class="edge">
<title>Node13&#45;&gt;Node8</title>
<g id="a_edge21_Node000013_Node000008"><a xlink:title=" ">
<path fill="none" stroke="#63b8ff" d="M496.57,-784.9C512.59,-814.84 550.96,-879.06 601.5,-913.74 603.3,-914.98 605.17,-916.16 607.08,-917.28"/>
<polygon fill="#63b8ff" stroke="#63b8ff" points="605.18,-920.23 615.67,-921.72 608.4,-914.02 605.18,-920.23"/>
</a>
</g>
</g>
<!-- Node13&#45;&gt;Node9 -->
<g id="edge22_Node000013_Node000009" class="edge">
<title>Node13&#45;&gt;Node9</title>
<g id="a_edge22_Node000013_Node000009"><a xlink:title=" ">
<path fill="none" stroke="#63b8ff" d="M561.45,-752.3C577.58,-748.67 594.66,-744.82 610.79,-741.19"/>
<polygon fill="#63b8ff" stroke="#63b8ff" points="611.31,-744.66 620.3,-739.05 609.77,-737.83 611.31,-744.66"/>
</a>
</g>
</g>
<!-- Node13&#45;&gt;Node11 -->
<g id="edge23_Node000013_Node000011" class="edge">
<title>Node13&#45;&gt;Node11</title>
<g id="a_edge23_Node000013_Node000011"><a xlink:title=" ">
<path fill="none" stroke="#63b8ff" d="M492.2,-752.35C502.67,-710.81 535.53,-600.13 601.5,-535.74 659.79,-478.86 712.59,-519.2 768.25,-459.74 845.32,-377.4 872.63,-238.88 881.06,-180.26"/>
<polygon fill="#63b8ff" stroke="#63b8ff" points="884.5,-180.9 882.38,-170.52 877.57,-179.96 884.5,-180.9"/>
</a>
</g>
</g>
<!-- Node14 -->
<g id="Node000014" class="node">
<title>Node14</title>
<g id="a_Node000014"><a xlink:href="classdomini_1_1diccionari_1_1_d_a_w_g.html#acf204a82f6e4f5cebf3313611e57b714" target="_top" xlink:title="Comprova si una paraula està reconeguda pel DAWG.">
<polygon fill="white" stroke="#666666" points="766,-614.74 603.75,-614.74 603.75,-594.74 766,-594.74 766,-614.74"/>
<text text-anchor="middle" x="684.88" y="-601.24" font-family="Helvetica,sans-Serif" font-size="10.00">domini.diccionari.DAWG.contains</text>
</a>
</g>
</g>
<!-- Node13&#45;&gt;Node14 -->
<g id="edge16_Node000013_Node000014" class="edge">
<title>Node13&#45;&gt;Node14</title>
<g id="a_edge16_Node000013_Node000014"><a xlink:title=" ">
<path fill="none" stroke="#63b8ff" d="M507.84,-752.42C544.7,-721.5 624.42,-654.62 662.62,-622.57"/>
<polygon fill="#63b8ff" stroke="#63b8ff" points="664.82,-625.3 670.23,-616.19 660.32,-619.94 664.82,-625.3"/>
</a>
</g>
</g>
<!-- Node15 -->
<g id="Node000015" class="node">
<title>Node15</title>
<g id="a_Node000015"><a xlink:href="classdomini_1_1diccionari_1_1_d_a_w_g.html#ad5db7cc629d77068e51ccae18f9bfebd" target="_top" xlink:title="Genera una llista amb les lletres i dígrafs de la paraula paràmetre.">
<polygon fill="white" stroke="#666666" points="966.5,-614.74 804.25,-614.74 804.25,-594.74 966.5,-594.74 966.5,-614.74"/>
<text text-anchor="middle" x="885.38" y="-601.24" font-family="Helvetica,sans-Serif" font-size="10.00">domini.diccionari.DAWG.tokenize</text>
</a>
</g>
</g>
<!-- Node14&#45;&gt;Node15 -->
<g id="edge17_Node000014_Node000015" class="edge">
<title>Node14&#45;&gt;Node15</title>
<g id="a_edge17_Node000014_Node000015"><a xlink:title=" ">
<path fill="none" stroke="#63b8ff" d="M766.33,-604.74C774.92,-604.74 783.71,-604.74 792.42,-604.74"/>
<polygon fill="#63b8ff" stroke="#63b8ff" points="792.3,-608.24 802.3,-604.74 792.3,-601.24 792.3,-608.24"/>
</a>
</g>
</g>
<!-- Node16&#45;&gt;Node5 -->
<g id="edge36_Node000016_Node000005" class="edge">
<title>Node16&#45;&gt;Node5</title>
<g id="a_edge36_Node000016_Node000005"><a xlink:title=" ">
<path fill="none" stroke="#63b8ff" d="M506.31,-401.24C527.33,-419.4 564.06,-447.63 601.5,-459.74 732.71,-502.19 895.28,-496.96 990.96,-488.44"/>
<polygon fill="#63b8ff" stroke="#63b8ff" points="991.15,-491.94 1000.78,-487.53 990.5,-484.97 991.15,-491.94"/>
</a>
</g>
</g>
<!-- Node16&#45;&gt;Node7 -->
<g id="edge33_Node000016_Node000007" class="edge">
<title>Node16&#45;&gt;Node7</title>
<g id="a_edge33_Node000016_Node000007"><a xlink:title=" ">
<path fill="none" stroke="#63b8ff" d="M491,-401.23C498.88,-445.07 526.65,-565.2 601.5,-623.74 618.12,-636.74 735.36,-657.32 813.6,-669.87"/>
<polygon fill="#63b8ff" stroke="#63b8ff" points="812.92,-673.3 823.35,-671.42 814.03,-666.39 812.92,-673.3"/>
</a>
</g>
</g>
<!-- Node16&#45;&gt;Node11 -->
<g id="edge35_Node000016_Node000011" class="edge">
<title>Node16&#45;&gt;Node11</title>
<g id="a_edge35_Node000016_Node000011"><a xlink:title=" ">
<path fill="none" stroke="#63b8ff" d="M526.45,-368.4C540.7,-360.49 555.77,-349.65 565.5,-335.74 608.28,-274.6 544.95,-220.44 601.5,-171.74 659.29,-121.98 750.76,-125.5 813.96,-136.03"/>
<polygon fill="#63b8ff" stroke="#63b8ff" points="813.07,-139.42 823.53,-137.72 814.3,-132.53 813.07,-139.42"/>
</a>
</g>
</g>
<!-- Node16&#45;&gt;Node14 -->
<g id="edge31_Node000016_Node000014" class="edge">
<title>Node16&#45;&gt;Node14</title>
<g id="a_edge31_Node000016_Node000014"><a xlink:title=" ">
<path fill="none" stroke="#63b8ff" d="M492.63,-401.04C503.58,-439.67 536.58,-537.16 601.5,-585.74 603.08,-586.92 604.71,-588.03 606.4,-589.07"/>
<polygon fill="#63b8ff" stroke="#63b8ff" points="604.7,-592.13 615.19,-593.63 607.92,-585.92 604.7,-592.13"/>
</a>
</g>
</g>
<!-- Node17 -->
<g id="Node000017" class="node">
<title>Node17</title>
<g id="a_Node000017"><a xlink:href="classdomini_1_1jugadors_1_1_maquina.html#a80169174406c5da6922feb0f4c854ac8" target="_top" xlink:title="Calcula la puntuació d&#39;una paraula col·locada en el taulell.">
<polygon fill="white" stroke="#666666" points="765.25,-576.74 604.5,-576.74 604.5,-544.74 765.25,-544.74 765.25,-576.74"/>
<text text-anchor="start" x="612.5" y="-563.24" font-family="Helvetica,sans-Serif" font-size="10.00">domini.jugadors.Maquina.calcular</text>
<text text-anchor="middle" x="684.88" y="-551.24" font-family="Helvetica,sans-Serif" font-size="10.00">Puntatge</text>
</a>
</g>
</g>
<!-- Node16&#45;&gt;Node17 -->
<g id="edge26_Node000016_Node000017" class="edge">
<title>Node16&#45;&gt;Node17</title>
<g id="a_edge26_Node000016_Node000017"><a xlink:title=" ">
<path fill="none" stroke="#63b8ff" d="M504.89,-401.23C526.61,-422.75 566.17,-461.37 601.5,-492.74 618.66,-507.98 638.47,-524.37 654.36,-537.24"/>
<polygon fill="#63b8ff" stroke="#63b8ff" points="652.06,-539.88 662.04,-543.43 656.45,-534.43 652.06,-539.88"/>
</a>
</g>
</g>
<!-- Node19 -->
<g id="Node000019" class="node">
<title>Node19</title>
<g id="a_Node000019"><a xlink:href="classdomini_1_1jugadors_1_1_maquina.html#ae5ea3ad1e6cf736172f038349b70857d" target="_top" xlink:title="Converteix una llista de fitxes en una cadena de text.">
<polygon fill="white" stroke="#666666" points="763,-450.74 606.75,-450.74 606.75,-418.74 763,-418.74 763,-450.74"/>
<text text-anchor="start" x="614.75" y="-437.24" font-family="Helvetica,sans-Serif" font-size="10.00">domini.jugadors.Maquina.fitxes2</text>
<text text-anchor="middle" x="684.88" y="-425.24" font-family="Helvetica,sans-Serif" font-size="10.00">String</text>
</a>
</g>
</g>
<!-- Node16&#45;&gt;Node19 -->
<g id="edge32_Node000016_Node000019" class="edge">
<title>Node16&#45;&gt;Node19</title>
<g id="a_edge32_Node000016_Node000019"><a xlink:title=" ">
<path fill="none" stroke="#63b8ff" d="M552.66,-401.18C570.53,-405.76 590.1,-410.76 608.54,-415.48"/>
<polygon fill="#63b8ff" stroke="#63b8ff" points="607.53,-418.83 618.09,-417.92 609.26,-412.05 607.53,-418.83"/>
</a>
</g>
</g>
<!-- Node20 -->
<g id="Node000020" class="node">
<title>Node20</title>
<g id="a_Node000020"><a xlink:href="classdomini_1_1auxiliars_1_1_max_word.html#a095b18721ed654f8c136b6fd2b9a4f6d" target="_top" xlink:title="Obté la puntuació de la paraula.">
<polygon fill="white" stroke="#666666" points="757,-400.74 612.75,-400.74 612.75,-368.74 757,-368.74 757,-400.74"/>
<text text-anchor="start" x="620.75" y="-387.24" font-family="Helvetica,sans-Serif" font-size="10.00">domini.auxiliars.MaxWord.get</text>
<text text-anchor="middle" x="684.88" y="-375.24" font-family="Helvetica,sans-Serif" font-size="10.00">Points</text>
</a>
</g>
</g>
<!-- Node16&#45;&gt;Node20 -->
<g id="edge34_Node000016_Node000020" class="edge">
<title>Node16&#45;&gt;Node20</title>
<g id="a_edge34_Node000016_Node000020"><a xlink:title=" ">
<path fill="none" stroke="#63b8ff" d="M565.92,-384.74C577.44,-384.74 589.34,-384.74 600.96,-384.74"/>
<polygon fill="#63b8ff" stroke="#63b8ff" points="600.94,-388.24 610.94,-384.74 600.94,-381.24 600.94,-388.24"/>
</a>
</g>
</g>
<!-- Node21 -->
<g id="Node000021" class="node">
<title>Node21</title>
<g id="a_Node000021"><a xlink:href="classdomini_1_1auxiliars_1_1_max_word.html#a946a8835bbce29ef90f8c76455735c0d" target="_top" xlink:title="Assigna unes noves coordenades inicials a la paraula.">
<polygon fill="white" stroke="#666666" points="757,-350.74 612.75,-350.74 612.75,-318.74 757,-318.74 757,-350.74"/>
<text text-anchor="start" x="620.75" y="-337.24" font-family="Helvetica,sans-Serif" font-size="10.00">domini.auxiliars.MaxWord.set</text>
<text text-anchor="middle" x="684.88" y="-325.24" font-family="Helvetica,sans-Serif" font-size="10.00">Coordinates</text>
</a>
</g>
</g>
<!-- Node16&#45;&gt;Node21 -->
<g id="edge37_Node000016_Node000021" class="edge">
<title>Node16&#45;&gt;Node21</title>
<g id="a_edge37_Node000016_Node000021"><a xlink:title=" ">
<path fill="none" stroke="#63b8ff" d="M552.66,-368.3C570.53,-363.73 590.1,-358.73 608.54,-354.01"/>
<polygon fill="#63b8ff" stroke="#63b8ff" points="609.26,-357.44 618.09,-351.57 607.53,-350.66 609.26,-357.44"/>
</a>
</g>
</g>
<!-- Node22 -->
<g id="Node000022" class="node">
<title>Node22</title>
<g id="a_Node000022"><a xlink:href="classdomini_1_1auxiliars_1_1_max_word.html#adb214547721bf7d9bb1a04c97827d0b0" target="_top" xlink:title="Defineix la direcció de la paraula.">
<polygon fill="white" stroke="#666666" points="757,-300.74 612.75,-300.74 612.75,-268.74 757,-268.74 757,-300.74"/>
<text text-anchor="start" x="620.75" y="-287.24" font-family="Helvetica,sans-Serif" font-size="10.00">domini.auxiliars.MaxWord.set</text>
<text text-anchor="middle" x="684.88" y="-275.24" font-family="Helvetica,sans-Serif" font-size="10.00">Horizontal</text>
</a>
</g>
</g>
<!-- Node16&#45;&gt;Node22 -->
<g id="edge38_Node000016_Node000022" class="edge">
<title>Node16&#45;&gt;Node22</title>
<g id="a_edge38_Node000016_Node000022"><a xlink:title=" ">
<path fill="none" stroke="#63b8ff" d="M515.04,-368.35C530.01,-359 548.96,-346.96 565.5,-335.74 581.84,-324.67 583.82,-318.51 601.5,-309.74 604.61,-308.2 607.84,-306.73 611.14,-305.34"/>
<polygon fill="#63b8ff" stroke="#63b8ff" points="612.4,-308.6 620.42,-301.68 609.84,-302.09 612.4,-308.6"/>
</a>
</g>
</g>
<!-- Node23 -->
<g id="Node000023" class="node">
<title>Node23</title>
<g id="a_Node000023"><a xlink:href="classdomini_1_1auxiliars_1_1_max_word.html#ae599f47659f48bcc17daf17b83bd7255" target="_top" xlink:title="Assigna una nova puntuació a la paraula.">
<polygon fill="white" stroke="#666666" points="757,-250.74 612.75,-250.74 612.75,-218.74 757,-218.74 757,-250.74"/>
<text text-anchor="start" x="620.75" y="-237.24" font-family="Helvetica,sans-Serif" font-size="10.00">domini.auxiliars.MaxWord.set</text>
<text text-anchor="middle" x="684.88" y="-225.24" font-family="Helvetica,sans-Serif" font-size="10.00">Points</text>
</a>
</g>
</g>
<!-- Node16&#45;&gt;Node23 -->
<g id="edge39_Node000016_Node000023" class="edge">
<title>Node16&#45;&gt;Node23</title>
<g id="a_edge39_Node000016_Node000023"><a xlink:title=" ">
<path fill="none" stroke="#63b8ff" d="M522.96,-368.31C537.5,-360.1 553.74,-349.06 565.5,-335.74 590.25,-307.73 573.19,-284.15 601.5,-259.74 602.58,-258.81 603.7,-257.91 604.85,-257.05"/>
<polygon fill="#63b8ff" stroke="#63b8ff" points="606.37,-260.23 612.88,-251.87 602.58,-254.34 606.37,-260.23"/>
</a>
</g>
</g>
<!-- Node24 -->
<g id="Node000024" class="node">
<title>Node24</title>
<g id="a_Node000024"><a xlink:href="classdomini_1_1auxiliars_1_1_max_word.html#a452955f9d5f0cfedcab85fd1c74609c6" target="_top" xlink:title="Assigna una nova llista de fitxes a la paraula.">
<polygon fill="white" stroke="#666666" points="768.25,-200.74 601.5,-200.74 601.5,-180.74 768.25,-180.74 768.25,-200.74"/>
<text text-anchor="middle" x="684.88" y="-187.24" font-family="Helvetica,sans-Serif" font-size="10.00">domini.auxiliars.MaxWord.setWord</text>
</a>
</g>
</g>
<!-- Node16&#45;&gt;Node24 -->
<g id="edge40_Node000016_Node000024" class="edge">
<title>Node16&#45;&gt;Node24</title>
<g id="a_edge40_Node000016_Node000024"><a xlink:title=" ">
<path fill="none" stroke="#63b8ff" d="M525.62,-368.31C539.92,-360.34 555.25,-349.47 565.5,-335.74 600.35,-289.08 559.27,-249.85 601.5,-209.74 602.4,-208.88 603.34,-208.06 604.3,-207.27"/>
<polygon fill="#63b8ff" stroke="#63b8ff" points="605.98,-210.36 612.38,-201.91 602.11,-204.53 605.98,-210.36"/>
</a>
</g>
</g>
<!-- Node17&#45;&gt;Node4 -->
<g id="edge27_Node000017_Node000004" class="edge">
<title>Node17&#45;&gt;Node4</title>
<g id="a_edge27_Node000017_Node000004"><a xlink:title=" ">
<path fill="none" stroke="#63b8ff" d="M757.34,-577.13C761.29,-579.61 764.98,-582.46 768.25,-585.74 807.56,-625.18 782.66,-654.42 804.25,-705.74 822.52,-749.19 850.24,-796.43 867.81,-824.8"/>
<polygon fill="#63b8ff" stroke="#63b8ff" points="864.72,-826.46 872.99,-833.08 870.65,-822.75 864.72,-826.46"/>
</a>
</g>
</g>
<!-- Node17&#45;&gt;Node7 -->
<g id="edge28_Node000017_Node000007" class="edge">
<title>Node17&#45;&gt;Node7</title>
<g id="a_edge28_Node000017_Node000007"><a xlink:title=" ">
<path fill="none" stroke="#63b8ff" d="M751.56,-577.21C757.38,-579.69 763.04,-582.52 768.25,-585.74 788.04,-597.97 786.69,-608.48 804.25,-623.74 818.41,-636.05 835.19,-648.3 849.72,-658.27"/>
<polygon fill="#63b8ff" stroke="#63b8ff" points="847.39,-660.92 857.64,-663.62 851.31,-655.12 847.39,-660.92"/>
</a>
</g>
</g>
<!-- Node17&#45;&gt;Node11 -->
<g id="edge30_Node000017_Node000011" class="edge">
<title>Node17&#45;&gt;Node11</title>
<g id="a_edge30_Node000017_Node000011"><a xlink:title=" ">
<path fill="none" stroke="#63b8ff" d="M749.87,-544.45C756.67,-540.77 763.01,-536.26 768.25,-530.74 864.85,-429.07 881.22,-248.96 883.9,-180.34"/>
<polygon fill="#63b8ff" stroke="#63b8ff" points="887.4,-180.49 884.21,-170.38 880.4,-180.27 887.4,-180.49"/>
</a>
</g>
</g>
<!-- Node18 -->
<g id="Node000018" class="node">
<title>Node18</title>
<g id="a_Node000018"><a xlink:href="classdomini_1_1scrabble_1_1_casella.html#a2ce7db6c414e455606dfbd8ee8056a3b" target="_top" xlink:title="Retorna el multiplicador de la casella.">
<polygon fill="white" stroke="#666666" points="953.75,-576.74 817,-576.74 817,-544.74 953.75,-544.74 953.75,-576.74"/>
<text text-anchor="start" x="825" y="-563.24" font-family="Helvetica,sans-Serif" font-size="10.00">domini.scrabble.Casella.get</text>
<text text-anchor="middle" x="885.38" y="-551.24" font-family="Helvetica,sans-Serif" font-size="10.00">Multiplicador</text>
</a>
</g>
</g>
<!-- Node17&#45;&gt;Node18 -->
<g id="edge29_Node000017_Node000018" class="edge">
<title>Node17&#45;&gt;Node18</title>
<g id="a_edge29_Node000017_Node000018"><a xlink:title=" ">
<path fill="none" stroke="#63b8ff" d="M765.47,-560.74C778.57,-560.74 792.14,-560.74 805.23,-560.74"/>
<polygon fill="#63b8ff" stroke="#63b8ff" points="805.06,-564.24 815.06,-560.74 805.06,-557.24 805.06,-564.24"/>
</a>
</g>
</g>
</g>
</svg>
