<?xml version="1.0" encoding="UTF-8" standalone="no"?>
<!DOCTYPE svg PUBLIC "-//W3C//DTD SVG 1.1//EN"
 "http://www.w3.org/Graphics/SVG/1.1/DTD/svg11.dtd">
<!-- Generated by graphviz version 12.2.1 (20241206.2353)
 -->
<!-- Title: controladors.CtrlPartida.getDictionaryFileName Pages: 1 -->
<svg width="336pt" height="90pt"
 viewBox="0.00 0.00 336.25 90.00" xmlns="http://www.w3.org/2000/svg" xmlns:xlink="http://www.w3.org/1999/xlink">
<g id="graph0" class="graph" transform="scale(1 1) rotate(0) translate(4 86)">
<title>controladors.CtrlPartida.getDictionaryFileName</title>
<!-- Node1 -->
<g id="Node000001" class="node">
<title>Node1</title>
<g id="a_Node000001"><a xlink:title="Obté el nom del fitxer del diccionari segons l&#39;idioma.">
<polygon fill="#999999" stroke="#666666" points="328.25,-57 193,-57 193,-25 328.25,-25 328.25,-57"/>
<text text-anchor="start" x="201" y="-43.5" font-family="Helvetica,sans-Serif" font-size="10.00">controladors.CtrlPartida.get</text>
<text text-anchor="middle" x="260.62" y="-31.5" font-family="Helvetica,sans-Serif" font-size="10.00">DictionaryFileName</text>
</a>
</g>
</g>
<!-- Node2 -->
<g id="Node000002" class="node">
<title>Node2</title>
<g id="a_Node000002"><a xlink:href="classcontroladors_1_1_ctrl_partida.html#ae82dd6941d4bf290e5b0c9d0433a6e11" target="_top" xlink:title="Carrega una partida existent.">
<polygon fill="white" stroke="#666666" points="157,-82 0,-82 0,-50 157,-50 157,-82"/>
<text text-anchor="start" x="8" y="-68.5" font-family="Helvetica,sans-Serif" font-size="10.00">controladors.CtrlPartida.carregar</text>
<text text-anchor="middle" x="78.5" y="-56.5" font-family="Helvetica,sans-Serif" font-size="10.00">Partida</text>
</a>
</g>
</g>
<!-- Node1&#45;&gt;Node2 -->
<g id="edge1_Node000001_Node000002" class="edge">
<title>Node1&#45;&gt;Node2</title>
<g id="a_edge1_Node000001_Node000002"><a xlink:title=" ">
<path fill="none" stroke="#63b8ff" d="M181.36,-51.86C173.37,-52.97 165.25,-54.1 157.26,-55.21"/>
<polygon fill="#63b8ff" stroke="#63b8ff" points="181.63,-55.36 191.05,-50.52 180.67,-48.43 181.63,-55.36"/>
</a>
</g>
</g>
<!-- Node3 -->
<g id="Node000003" class="node">
<title>Node3</title>
<g id="a_Node000003"><a xlink:href="classcontroladors_1_1_ctrl_partida.html#a0db48d25e2ed2a796bc221f62d84aec5" target="_top" xlink:title="Crea una nova partida.">
<polygon fill="white" stroke="#666666" points="150.25,-32 6.75,-32 6.75,0 150.25,0 150.25,-32"/>
<text text-anchor="start" x="14.75" y="-18.5" font-family="Helvetica,sans-Serif" font-size="10.00">controladors.CtrlPartida.crear</text>
<text text-anchor="middle" x="78.5" y="-6.5" font-family="Helvetica,sans-Serif" font-size="10.00">Partida</text>
</a>
</g>
</g>
<!-- Node1&#45;&gt;Node3 -->
<g id="edge2_Node000001_Node000003" class="edge">
<title>Node1&#45;&gt;Node3</title>
<g id="a_edge2_Node000001_Node000003"><a xlink:title=" ">
<path fill="none" stroke="#63b8ff" d="M181.17,-30.11C170.99,-28.7 160.6,-27.26 150.55,-25.86"/>
<polygon fill="#63b8ff" stroke="#63b8ff" points="180.67,-33.57 191.05,-31.48 181.63,-26.64 180.67,-33.57"/>
</a>
</g>
</g>
</g>
</svg>
