<?xml version="1.0" encoding="UTF-8" standalone="no"?>
<!DOCTYPE svg PUBLIC "-//W3C//DTD SVG 1.1//EN"
 "http://www.w3.org/Graphics/SVG/1.1/DTD/svg11.dtd">
<!-- Generated by graphviz version 12.2.1 (20241206.2353)
 -->
<!-- Title: controladors.CtrlPartida.finalitzarPerTornsConsecutius Pages: 1 -->
<svg width="541pt" height="40pt"
 viewBox="0.00 0.00 541.25 40.00" xmlns="http://www.w3.org/2000/svg" xmlns:xlink="http://www.w3.org/1999/xlink">
<g id="graph0" class="graph" transform="scale(1 1) rotate(0) translate(4 36)">
<title>controladors.CtrlPartida.finalitzarPerTornsConsecutius</title>
<!-- Node1 -->
<g id="Node000001" class="node">
<title>Node1</title>
<g id="a_Node000001"><a xlink:title="Finalitza la partida si s&#39;han passat torns consecutius sense acció.">
<polygon fill="#999999" stroke="#666666" points="533.25,-32 374.75,-32 374.75,0 533.25,0 533.25,-32"/>
<text text-anchor="start" x="382.75" y="-18.5" font-family="Helvetica,sans-Serif" font-size="10.00">controladors.CtrlPartida.finalitzar</text>
<text text-anchor="middle" x="454" y="-6.5" font-family="Helvetica,sans-Serif" font-size="10.00">PerTornsConsecutius</text>
</a>
</g>
</g>
<!-- Node2 -->
<g id="Node000002" class="node">
<title>Node2</title>
<g id="a_Node000002"><a xlink:href="classcontroladors_1_1_ctrl_partida.html#a2c8fdc3b9f3ee33aae30bd0e0d1f09b7" target="_top" xlink:title="Passa el torn al següent jugador.">
<polygon fill="white" stroke="#666666" points="338.75,-26 169,-26 169,-6 338.75,-6 338.75,-26"/>
<text text-anchor="middle" x="253.88" y="-12.5" font-family="Helvetica,sans-Serif" font-size="10.00">controladors.CtrlPartida.passarTorn</text>
</a>
</g>
</g>
<!-- Node1&#45;&gt;Node2 -->
<g id="edge1_Node000001_Node000002" class="edge">
<title>Node1&#45;&gt;Node2</title>
<g id="a_edge1_Node000001_Node000002"><a xlink:title=" ">
<path fill="none" stroke="#63b8ff" d="M362.93,-16C355.04,-16 347.07,-16 339.23,-16"/>
<polygon fill="#63b8ff" stroke="#63b8ff" points="362.9,-19.5 372.9,-16 362.9,-12.5 362.9,-19.5"/>
</a>
</g>
</g>
<!-- Node3 -->
<g id="Node000003" class="node">
<title>Node3</title>
<g id="a_Node000003"><a xlink:href="classcontroladors_1_1_ctrl_partida.html#afa4340f6a2cb198455d536ccaf87717b" target="_top" xlink:title="Gestiona el desenvolupament de la jugada de la màquina.">
<polygon fill="white" stroke="#666666" points="133,-32 0,-32 0,0 133,0 133,-32"/>
<text text-anchor="start" x="8" y="-18.5" font-family="Helvetica,sans-Serif" font-size="10.00">controladors.CtrlPartida.fer</text>
<text text-anchor="middle" x="66.5" y="-6.5" font-family="Helvetica,sans-Serif" font-size="10.00">JugadaMaquina</text>
</a>
</g>
</g>
<!-- Node2&#45;&gt;Node3 -->
<g id="edge2_Node000002_Node000003" class="edge">
<title>Node2&#45;&gt;Node3</title>
<g id="a_edge2_Node000002_Node000003"><a xlink:title=" ">
<path fill="none" stroke="#63b8ff" d="M157.17,-16C149.08,-16 141.02,-16 133.25,-16"/>
<polygon fill="#63b8ff" stroke="#63b8ff" points="157.08,-19.5 167.08,-16 157.08,-12.5 157.08,-19.5"/>
</a>
</g>
</g>
</g>
</svg>
