<?xml version="1.0" encoding="UTF-8" standalone="no"?>
<!DOCTYPE svg PUBLIC "-//W3C//DTD SVG 1.1//EN"
 "http://www.w3.org/Graphics/SVG/1.1/DTD/svg11.dtd">
<!-- Generated by graphviz version 12.2.1 (20241206.2353)
 -->
<!-- Title: interficie.VistaCrearPerfil.escalarComponentes Pages: 1 -->
<svg width="331pt" height="58pt"
 viewBox="0.00 0.00 331.00 58.00" xmlns="http://www.w3.org/2000/svg" xmlns:xlink="http://www.w3.org/1999/xlink">
<g id="graph0" class="graph" transform="scale(1 1) rotate(0) translate(4 54)">
<title>interficie.VistaCrearPerfil.escalarComponentes</title>
<!-- Node1 -->
<g id="Node000001" class="node">
<title>Node1</title>
<g id="a_Node000001"><a xlink:title="Escala i reubica els components segons la mida actual de la finestra, mantenint proporcions relatives...">
<polygon fill="#999999" stroke="#666666" points="323,-32 163.75,-32 163.75,0 323,0 323,-32"/>
<text text-anchor="start" x="171.75" y="-18.5" font-family="Helvetica,sans-Serif" font-size="10.00">interficie.VistaCrearPerfil.escalar</text>
<text text-anchor="middle" x="243.38" y="-6.5" font-family="Helvetica,sans-Serif" font-size="10.00">Componentes</text>
</a>
</g>
</g>
<!-- Node2 -->
<g id="Node000002" class="node">
<title>Node2</title>
<g id="a_Node000002"><a xlink:href="$classinterficie_1_1_vista_crear_perfil.html#aea921123ade57f0e42263807a1842aaf" xlink:title="Constructor que crea la finestra per crear un perfil.">
<polygon fill="white" stroke="#666666" points="127.75,-32 0,-32 0,0 127.75,0 127.75,-32"/>
<text text-anchor="start" x="8" y="-18.5" font-family="Helvetica,sans-Serif" font-size="10.00">interficie.VistaCrearPerfil.</text>
<text text-anchor="middle" x="63.88" y="-6.5" font-family="Helvetica,sans-Serif" font-size="10.00">VistaCrearPerfil</text>
</a>
</g>
</g>
<!-- Node1&#45;&gt;Node2 -->
<g id="edge1_Node000001_Node000002" class="edge">
<title>Node1&#45;&gt;Node2</title>
<g id="a_edge1_Node000001_Node000002"><a xlink:title=" ">
<path fill="none" stroke="#63b8ff" d="M152.05,-16C143.96,-16 135.87,-16 128.08,-16"/>
<polygon fill="#63b8ff" stroke="#63b8ff" points="151.97,-19.5 161.97,-16 151.97,-12.5 151.97,-19.5"/>
</a>
</g>
</g>
<!-- Node2&#45;&gt;Node2 -->
<g id="edge2_Node000002_Node000002" class="edge">
<title>Node2&#45;&gt;Node2</title>
<g id="a_edge2_Node000002_Node000002"><a xlink:title=" ">
<path fill="none" stroke="#63b8ff" d="M93.79,-43.71C88.8,-47.48 78.83,-50 63.88,-50 36.53,-50 25.85,-41.58 31.83,-32.44"/>
<polygon fill="#63b8ff" stroke="#63b8ff" points="97.22,-44.41 95.64,-33.93 90.34,-43.1 97.22,-44.41"/>
</a>
</g>
</g>
</g>
</svg>
