<?xml version="1.0" encoding="UTF-8" standalone="no"?>
<!DOCTYPE svg PUBLIC "-//W3C//DTD SVG 1.1//EN"
 "http://www.w3.org/Graphics/SVG/1.1/DTD/svg11.dtd">
<!-- Generated by graphviz version 12.2.1 (20241206.2353)
 -->
<!-- Title: domini.jugadors.Avatar.incrementarPartidesGuanyadesMaquina Pages: 1 -->
<!--zoomable 190 -->

<svg id="main" version="1.1" xmlns="http://www.w3.org/2000/svg" xmlns:xlink="http://www.w3.org/1999/xlink" xml:space="preserve" onload="init(evt)">

<style type="text/css"><![CDATA[
.node, .edge {opacity: 0.7;}
.node.selected, .edge.selected {opacity: 1;}
.edge:hover path { stroke: red; }
.edge:hover polygon { stroke: red; fill: red; }
]]></style>

<defs>
  <circle id="rim" cx="0" cy="0" r="7"/>
  <circle id="rim2" cx="0" cy="0" r="3.5"/>
  <g id="zoomPlus">
    <use xlink:href="#rim" fill="#404040"><set attributeName="fill" to="#808080" begin="zoomplus.mouseover" end="zoomplus.mouseout"/></use>
    <path d="M-4,0h8M0,-4v8" fill="none" stroke="white" stroke-width="1.5" pointer-events="none"/>
  </g>
  <g id="zoomMin">
    <use xlink:href="#rim" fill="#404040"><set attributeName="fill" to="#808080" begin="zoomminus.mouseover" end="zoomminus.mouseout"/></use>
    <path d="M-4,0h8" fill="none" stroke="white" stroke-width="1.5" pointer-events="none"/>
  </g>
  <g id="arrowUp" transform="translate(30 24)">
    <use xlink:href="#rim"/>
    <path pointer-events="none" fill="none" stroke="white" stroke-width="1.5" d="M0,-3.0v7 M-2.5,-0.5L0,-3.0L2.5,-0.5"/>
  </g>
  <g id="arrowRight" transform="rotate(90) translate(36 -43)">
    <use xlink:href="#rim"/>
    <path pointer-events="none" fill="none" stroke="white" stroke-width="1.5" d="M0,-3.0v7 M-2.5,-0.5L0,-3.0L2.5,-0.5"/>
  </g>
  <g id="arrowDown" transform="rotate(180) translate(-30 -48)">
    <use xlink:href="#rim"/>
    <path pointer-events="none" fill="none" stroke="white" stroke-width="1.5" d="M0,-3.0v7 M-2.5,-0.5L0,-3.0L2.5,-0.5"/>
  </g>
  <g id="arrowLeft" transform="rotate(270) translate(-36 17)">
    <use xlink:href="#rim"/>
    <path pointer-events="none" fill="none" stroke="white" stroke-width="1.5" d="M0,-3.0v7 M-2.5,-0.5L0,-3.0L2.5,-0.5"/>
  </g>
  <g id="resetDef">
    <use xlink:href="#rim2" fill="#404040"><set attributeName="fill" to="#808080" begin="reset.mouseover" end="reset.mouseout"/></use>
  </g>
</defs>
<script type="application/ecmascript">
var viewWidth = 755;
var viewHeight = 190;
var sectionId = 'dynsection-14';
</script>
<script type="application/ecmascript" xlink:href="svg.min.js"/>
<svg id="graph" class="graph">
<g id="viewport">
<title>domini.jugadors.Avatar.incrementarPartidesGuanyadesMaquina</title>
<!-- Node1 -->
<g id="Node000001" class="node">
<title>Node1</title>
<g id="a_Node000001"><a xlink:title="Incrementa el nombre de partides guanyades contra la màquina.">
<polygon fill="#999999" stroke="#666666" points="747.25,-107 577.5,-107 577.5,-75 747.25,-75 747.25,-107"/>
<text text-anchor="start" x="585.5" y="-93.5" font-family="Helvetica,sans-Serif" font-size="10.00">domini.jugadors.Avatar.incrementar</text>
<text text-anchor="middle" x="662.38" y="-81.5" font-family="Helvetica,sans-Serif" font-size="10.00">PartidesGuanyadesMaquina</text>
</a>
</g>
</g>
<!-- Node2 -->
<g id="Node000002" class="node">
<title>Node2</title>
<g id="a_Node000002"><a xlink:href="classcontroladors_1_1_ctrl_partida.html#a15489fe587b7fe577bd1c4be09c58e6e" target="_top" xlink:title="El jugador actual abandona la partida.">
<polygon fill="white" stroke="#666666" points="541.5,-182 374.75,-182 374.75,-150 541.5,-150 541.5,-182"/>
<text text-anchor="start" x="382.75" y="-168.5" font-family="Helvetica,sans-Serif" font-size="10.00">controladors.CtrlPartida.abandonar</text>
<text text-anchor="middle" x="458.12" y="-156.5" font-family="Helvetica,sans-Serif" font-size="10.00">Partida</text>
</a>
</g>
</g>
<!-- Node1&#45;&gt;Node2 -->
<g id="edge1_Node000001_Node000002" class="edge">
<title>Node1&#45;&gt;Node2</title>
<g id="a_edge1_Node000001_Node000002"><a xlink:title=" ">
<path fill="none" stroke="#63b8ff" d="M614.39,-111.88C592.45,-121.3 565.85,-132.25 541.5,-141 533.34,-143.93 524.65,-146.82 516.09,-149.53"/>
<polygon fill="#63b8ff" stroke="#63b8ff" points="615.58,-115.18 623.37,-108 612.8,-108.76 615.58,-115.18"/>
</a>
</g>
</g>
<!-- Node3 -->
<g id="Node000003" class="node">
<title>Node3</title>
<g id="a_Node000003"><a xlink:href="classcontroladors_1_1_ctrl_partida.html#a7478be76eed4811d7b93e3d8865b8622" target="_top" xlink:title="Finalitza la partida si les fitxes s&#39;han esgotat.">
<polygon fill="white" stroke="#666666" points="537.38,-132 378.88,-132 378.88,-100 537.38,-100 537.38,-132"/>
<text text-anchor="start" x="386.88" y="-118.5" font-family="Helvetica,sans-Serif" font-size="10.00">controladors.CtrlPartida.finalitzar</text>
<text text-anchor="middle" x="458.12" y="-106.5" font-family="Helvetica,sans-Serif" font-size="10.00">PerLletresEsgotades</text>
</a>
</g>
</g>
<!-- Node1&#45;&gt;Node3 -->
<g id="edge2_Node000001_Node000003" class="edge">
<title>Node1&#45;&gt;Node3</title>
<g id="a_edge2_Node000001_Node000003"><a xlink:title=" ">
<path fill="none" stroke="#63b8ff" d="M565.71,-102.82C556.36,-103.98 546.95,-105.14 537.8,-106.28"/>
<polygon fill="#63b8ff" stroke="#63b8ff" points="566.07,-106.31 575.57,-101.61 565.21,-99.36 566.07,-106.31"/>
</a>
</g>
</g>
<!-- Node4 -->
<g id="Node000004" class="node">
<title>Node4</title>
<g id="a_Node000004"><a xlink:href="classcontroladors_1_1_ctrl_partida.html#a98e85139630d752ac3e94d8a540aba0c" target="_top" xlink:title="Finalitza la partida si s&#39;han passat torns consecutius sense acció.">
<polygon fill="white" stroke="#666666" points="537.38,-82 378.88,-82 378.88,-50 537.38,-50 537.38,-82"/>
<text text-anchor="start" x="386.88" y="-68.5" font-family="Helvetica,sans-Serif" font-size="10.00">controladors.CtrlPartida.finalitzar</text>
<text text-anchor="middle" x="458.12" y="-56.5" font-family="Helvetica,sans-Serif" font-size="10.00">PerTornsConsecutius</text>
</a>
</g>
</g>
<!-- Node1&#45;&gt;Node4 -->
<g id="edge3_Node000001_Node000004" class="edge">
<title>Node1&#45;&gt;Node4</title>
<g id="a_edge3_Node000001_Node000004"><a xlink:title=" ">
<path fill="none" stroke="#63b8ff" d="M565.71,-79.18C556.36,-78.02 546.95,-76.86 537.8,-75.72"/>
<polygon fill="#63b8ff" stroke="#63b8ff" points="565.21,-82.64 575.57,-80.39 566.07,-75.69 565.21,-82.64"/>
</a>
</g>
</g>
<!-- Node7 -->
<g id="Node000007" class="node">
<title>Node7</title>
<g id="a_Node000007"><a xlink:href="classcontroladors_1_1_ctrl_domini.html#a635aeffb46f12e2188110476c797a038" target="_top" xlink:title="Processa els resultats d&#39;una partida contra la màquina.">
<polygon fill="white" stroke="#666666" points="540.38,-32 375.88,-32 375.88,0 540.38,0 540.38,-32"/>
<text text-anchor="start" x="383.88" y="-18.5" font-family="Helvetica,sans-Serif" font-size="10.00">controladors.CtrlDomini.processar</text>
<text text-anchor="middle" x="458.12" y="-6.5" font-family="Helvetica,sans-Serif" font-size="10.00">PartidaMaquina</text>
</a>
</g>
</g>
<!-- Node1&#45;&gt;Node7 -->
<g id="edge6_Node000001_Node000007" class="edge">
<title>Node1&#45;&gt;Node7</title>
<g id="a_edge6_Node000001_Node000007"><a xlink:title=" ">
<path fill="none" stroke="#63b8ff" d="M614.39,-70.12C592.45,-60.7 565.85,-49.75 541.5,-41 533.34,-38.07 524.65,-35.18 516.09,-32.47"/>
<polygon fill="#63b8ff" stroke="#63b8ff" points="612.8,-73.24 623.37,-74 615.58,-66.82 612.8,-73.24"/>
</a>
</g>
</g>
<!-- Node5 -->
<g id="Node000005" class="node">
<title>Node5</title>
<g id="a_Node000005"><a xlink:href="classcontroladors_1_1_ctrl_partida.html#a2c8fdc3b9f3ee33aae30bd0e0d1f09b7" target="_top" xlink:title="Passa el torn al següent jugador.">
<polygon fill="white" stroke="#666666" points="338.75,-76 169,-76 169,-56 338.75,-56 338.75,-76"/>
<text text-anchor="middle" x="253.88" y="-62.5" font-family="Helvetica,sans-Serif" font-size="10.00">controladors.CtrlPartida.passarTorn</text>
</a>
</g>
</g>
<!-- Node4&#45;&gt;Node5 -->
<g id="edge4_Node000004_Node000005" class="edge">
<title>Node4&#45;&gt;Node5</title>
<g id="a_edge4_Node000004_Node000005"><a xlink:title=" ">
<path fill="none" stroke="#63b8ff" d="M367.26,-66C357.87,-66 348.34,-66 339.01,-66"/>
<polygon fill="#63b8ff" stroke="#63b8ff" points="367.13,-69.5 377.13,-66 367.13,-62.5 367.13,-69.5"/>
</a>
</g>
</g>
<!-- Node6 -->
<g id="Node000006" class="node">
<title>Node6</title>
<g id="a_Node000006"><a xlink:href="classcontroladors_1_1_ctrl_partida.html#afa4340f6a2cb198455d536ccaf87717b" target="_top" xlink:title="Gestiona el desenvolupament de la jugada de la màquina.">
<polygon fill="white" stroke="#666666" points="133,-82 0,-82 0,-50 133,-50 133,-82"/>
<text text-anchor="start" x="8" y="-68.5" font-family="Helvetica,sans-Serif" font-size="10.00">controladors.CtrlPartida.fer</text>
<text text-anchor="middle" x="66.5" y="-56.5" font-family="Helvetica,sans-Serif" font-size="10.00">JugadaMaquina</text>
</a>
</g>
</g>
<!-- Node5&#45;&gt;Node6 -->
<g id="edge5_Node000005_Node000006" class="edge">
<title>Node5&#45;&gt;Node6</title>
<g id="a_edge5_Node000005_Node000006"><a xlink:title=" ">
<path fill="none" stroke="#63b8ff" d="M157.17,-66C149.08,-66 141.02,-66 133.25,-66"/>
<polygon fill="#63b8ff" stroke="#63b8ff" points="157.08,-69.5 167.08,-66 157.08,-62.5 157.08,-69.5"/>
</a>
</g>
</g>
<!-- Node8 -->
<g id="Node000008" class="node">
<title>Node8</title>
<g id="a_Node000008"><a xlink:href="classcontroladors_1_1_ctrl_domini.html#af2774b364abee1ac4832823ff1b0d556" target="_top" xlink:title="Actualitza el rànquing després d&#39;una partida.">
<polygon fill="white" stroke="#666666" points="337.25,-32 170.5,-32 170.5,0 337.25,0 337.25,-32"/>
<text text-anchor="start" x="178.5" y="-18.5" font-family="Helvetica,sans-Serif" font-size="10.00">controladors.CtrlDomini.actualitzar</text>
<text text-anchor="middle" x="253.88" y="-6.5" font-family="Helvetica,sans-Serif" font-size="10.00">Ranking</text>
</a>
</g>
</g>
<!-- Node7&#45;&gt;Node8 -->
<g id="edge7_Node000007_Node000008" class="edge">
<title>Node7&#45;&gt;Node8</title>
<g id="a_edge7_Node000007_Node000008"><a xlink:title=" ">
<path fill="none" stroke="#63b8ff" d="M364.23,-16C355.32,-16 346.32,-16 337.52,-16"/>
<polygon fill="#63b8ff" stroke="#63b8ff" points="363.93,-19.5 373.93,-16 363.93,-12.5 363.93,-19.5"/>
</a>
</g>
</g>
</g>
</svg>

<g id="navigator" transform="translate(0 0)" fill="#404254">
  <rect fill="#f2f5e9" fill-opacity="0.5" stroke="#606060" stroke-width=".5" x="0" y="0" width="60" height="60"/>
  <use id="zoomplus" xlink:href="#zoomPlus" x="17" y="9" onmousedown="handleZoom(evt,'in')"/>
  <use id="zoomminus" xlink:href="#zoomMin" x="42" y="9" onmousedown="handleZoom(evt,'out')"/>
  <use id="reset" xlink:href="#resetDef" x="30" y="36" onmousedown="handleReset()"/>
   <use id="arrowup" xlink:href="#arrowUp" x="0" y="0" onmousedown="handlePan(0,-1)"/>
  <use id="arrowright" xlink:href="#arrowRight" x="0" y="0" onmousedown="handlePan(1,0)"/>
  <use id="arrowdown" xlink:href="#arrowDown" x="0" y="0" onmousedown="handlePan(0,1)"/>
  <use id="arrowleft" xlink:href="#arrowLeft" x="0" y="0" onmousedown="handlePan(-1,0)"/>
</g>
<svg viewBox="0 0 15 15" width="100%" height="30px" preserveAspectRatio="xMaxYMin meet">
 <g id="arrow_out" transform="scale(0.3 0.3)">
  <a xlink:href="classdomini_1_1jugadors_1_1_avatar_aae510bc2635d40405e60a218b1b7c097_icgraph_org.svg" target="_base">
   <rect id="button" ry="5" rx="5" y="6" x="6" height="38" width="38"
        fill="#f2f5e9" fill-opacity="0.5" stroke="#606060" stroke-width="1.0"/>
   <path id="arrow"
     d="M 11.500037,31.436501 C 11.940474,20.09759 22.043105,11.32322 32.158766,21.979434 L 37.068811,17.246167 C 37.068811,17.246167 37.088388,32 37.088388,32 L 22.160133,31.978069 C 22.160133,31.978069 26.997745,27.140456 26.997745,27.140456 C 18.528582,18.264221 13.291696,25.230495 11.500037,31.436501 z"
     style="fill:#404040;"/>
  </a>
 </g>
</svg>

<style type='text/css'>
<![CDATA[
[data-mouse-over-selected='false'] { opacity: 0.7; }
[data-mouse-over-selected='true']  { opacity: 1.0; }
]]>
</style>
<script type="application/ecmascript"><![CDATA[
document.addEventListener('DOMContentLoaded', (event) => {
  highlightEdges();
  highlightAdjacentNodes();
});
]]></script>
</svg>
