<?xml version="1.0" encoding="UTF-8" standalone="no"?>
<!DOCTYPE svg PUBLIC "-//W3C//DTD SVG 1.1//EN"
 "http://www.w3.org/Graphics/SVG/1.1/DTD/svg11.dtd">
<!-- Generated by graphviz version 12.2.1 (20241206.2353)
 -->
<!-- Title: persistencia.JugadorIO.loadJugador Pages: 1 -->
<svg width="489pt" height="40pt"
 viewBox="0.00 0.00 488.75 40.00" xmlns="http://www.w3.org/2000/svg" xmlns:xlink="http://www.w3.org/1999/xlink">
<g id="graph0" class="graph" transform="scale(1 1) rotate(0) translate(4 36)">
<title>persistencia.JugadorIO.loadJugador</title>
<!-- Node1 -->
<g id="Node000001" class="node">
<title>Node1</title>
<g id="a_Node000001"><a xlink:title="Carrega un jugador des d&#39;un fitxer JSON.">
<polygon fill="#999999" stroke="#666666" points="480.75,-32 343.25,-32 343.25,0 480.75,0 480.75,-32"/>
<text text-anchor="start" x="351.25" y="-18.5" font-family="Helvetica,sans-Serif" font-size="10.00">persistencia.JugadorIO.load</text>
<text text-anchor="middle" x="412" y="-6.5" font-family="Helvetica,sans-Serif" font-size="10.00">Jugador</text>
</a>
</g>
</g>
<!-- Node2 -->
<g id="Node000002" class="node">
<title>Node2</title>
<g id="a_Node000002"><a xlink:href="$classdomini_1_1sessio_1_1_usuari.html#a1ab85f635a4fa35f1757dde3efcca989" xlink:title="Retorna els jugadors que té guardats l&#39;usuari.">
<polygon fill="white" stroke="#666666" points="307.25,-32 183.25,-32 183.25,0 307.25,0 307.25,-32"/>
<text text-anchor="start" x="191.25" y="-18.5" font-family="Helvetica,sans-Serif" font-size="10.00">domini.sessio.Usuari.get</text>
<text text-anchor="middle" x="245.25" y="-6.5" font-family="Helvetica,sans-Serif" font-size="10.00">Jugadors</text>
</a>
</g>
</g>
<!-- Node1&#45;&gt;Node2 -->
<g id="edge1_Node000001_Node000002" class="edge">
<title>Node1&#45;&gt;Node2</title>
<g id="a_edge1_Node000001_Node000002"><a xlink:title=" ">
<path fill="none" stroke="#63b8ff" d="M331.7,-16C323.65,-16 315.55,-16 307.72,-16"/>
<polygon fill="#63b8ff" stroke="#63b8ff" points="331.53,-19.5 341.53,-16 331.53,-12.5 331.53,-19.5"/>
</a>
</g>
</g>
<!-- Node3 -->
<g id="Node000003" class="node">
<title>Node3</title>
<g id="a_Node000003"><a xlink:href="$classcontroladors_1_1_ctrl_domini.html#a5d856a54a1cc695dba14558f0864bf3d" xlink:title="Inicia la sessio d&#39;un usuari.">
<polygon fill="white" stroke="#666666" points="147.25,-32 0,-32 0,0 147.25,0 147.25,-32"/>
<text text-anchor="start" x="8" y="-18.5" font-family="Helvetica,sans-Serif" font-size="10.00">controladors.CtrlDomini.iniciar</text>
<text text-anchor="middle" x="73.62" y="-6.5" font-family="Helvetica,sans-Serif" font-size="10.00">SessioUser</text>
</a>
</g>
</g>
<!-- Node2&#45;&gt;Node3 -->
<g id="edge2_Node000002_Node000003" class="edge">
<title>Node2&#45;&gt;Node3</title>
<g id="a_edge2_Node000002_Node000003"><a xlink:title=" ">
<path fill="none" stroke="#63b8ff" d="M171.54,-16C163.62,-16 155.55,-16 147.62,-16"/>
<polygon fill="#63b8ff" stroke="#63b8ff" points="171.5,-19.5 181.5,-16 171.5,-12.5 171.5,-19.5"/>
</a>
</g>
</g>
</g>
</svg>
