<?xml version="1.0" encoding="UTF-8" standalone="no"?>
<!DOCTYPE svg PUBLIC "-//W3C//DTD SVG 1.1//EN"
 "http://www.w3.org/Graphics/SVG/1.1/DTD/svg11.dtd">
<!-- Generated by graphviz version 12.2.1 (20241206.2353)
 -->
<!-- Title: drivers.Driver.substituirLxL Pages: 1 -->
<svg width="972pt" height="77pt"
 viewBox="0.00 0.00 971.75 77.00" xmlns="http://www.w3.org/2000/svg" xmlns:xlink="http://www.w3.org/1999/xlink">
<g id="graph0" class="graph" transform="scale(1 1) rotate(0) translate(4 73)">
<title>drivers.Driver.substituirLxL</title>
<!-- Node1 -->
<g id="Node000001" class="node">
<title>Node1</title>
<g id="a_Node000001"><a xlink:title="Donada una seqüència de caràcters identifica qualsevol submot &quot;LxL&quot; on x no pertany al conjunt {A&#45;Z}...">
<polygon fill="#999999" stroke="#666666" points="963.75,-48 830.75,-48 830.75,-28 963.75,-28 963.75,-48"/>
<text text-anchor="middle" x="897.25" y="-34.5" font-family="Helvetica,sans-Serif" font-size="10.00">drivers.Driver.substituirLxL</text>
</a>
</g>
</g>
<!-- Node2 -->
<g id="Node000002" class="node">
<title>Node2</title>
<g id="a_Node000002"><a xlink:href="classdrivers_1_1_driver.html#a511e05515632a6b31d522a3faa1998a8" target="_top" xlink:title="Canvia fitxes del jugador actual.">
<polygon fill="white" stroke="#666666" points="613.75,-69 477.75,-69 477.75,-49 613.75,-49 613.75,-69"/>
<text text-anchor="middle" x="545.75" y="-55.5" font-family="Helvetica,sans-Serif" font-size="10.00">drivers.Driver.canviarFitxes</text>
</a>
</g>
</g>
<!-- Node1&#45;&gt;Node2 -->
<g id="edge1_Node000001_Node000002" class="edge">
<title>Node1&#45;&gt;Node2</title>
<g id="a_edge1_Node000001_Node000002"><a xlink:title=" ">
<path fill="none" stroke="#63b8ff" d="M819.33,-42.62C757.91,-46.31 672.7,-51.43 613.98,-54.96"/>
<polygon fill="#63b8ff" stroke="#63b8ff" points="819.23,-46.13 829,-42.04 818.81,-39.15 819.23,-46.13"/>
</a>
</g>
</g>
<!-- Node5 -->
<g id="Node000005" class="node">
<title>Node5</title>
<g id="a_Node000005"><a xlink:href="classdrivers_1_1_driver.html#a1f0852212ac7d690fe9c705f9eadd737" target="_top" xlink:title="Donat un text entrat per terminal, és possible que el charSet de la consola no reconegui correctament...">
<polygon fill="white" stroke="#666666" points="794.75,-32 649.75,-32 649.75,0 794.75,0 794.75,-32"/>
<text text-anchor="start" x="657.75" y="-18.5" font-family="Helvetica,sans-Serif" font-size="10.00">drivers.Driver.corregir</text>
<text text-anchor="middle" x="722.25" y="-6.5" font-family="Helvetica,sans-Serif" font-size="10.00">_caracters_terminal_windows</text>
</a>
</g>
</g>
<!-- Node1&#45;&gt;Node5 -->
<g id="edge4_Node000001_Node000005" class="edge">
<title>Node1&#45;&gt;Node5</title>
<g id="a_edge4_Node000001_Node000005"><a xlink:title=" ">
<path fill="none" stroke="#63b8ff" d="M819.12,-28.19C811.1,-27.17 802.97,-26.14 795.02,-25.13"/>
<polygon fill="#63b8ff" stroke="#63b8ff" points="818.49,-31.64 828.85,-29.43 819.37,-24.7 818.49,-31.64"/>
</a>
</g>
</g>
<!-- Node3 -->
<g id="Node000003" class="node">
<title>Node3</title>
<g id="a_Node000003"><a xlink:href="classdrivers_1_1_driver.html#a13e38153634507d9ad6e24cb267237b9" target="_top" xlink:title="Juga una partida.">
<polygon fill="white" stroke="#666666" points="263.75,-49 134.5,-49 134.5,-29 263.75,-29 263.75,-49"/>
<text text-anchor="middle" x="199.12" y="-35.5" font-family="Helvetica,sans-Serif" font-size="10.00">drivers.Driver.jugarPartida</text>
</a>
</g>
</g>
<!-- Node2&#45;&gt;Node3 -->
<g id="edge2_Node000002_Node000003" class="edge">
<title>Node2&#45;&gt;Node3</title>
<g id="a_edge2_Node000002_Node000003"><a xlink:title=" ">
<path fill="none" stroke="#63b8ff" d="M466.33,-54.45C405.13,-50.9 321.17,-46.02 264.02,-42.71"/>
<polygon fill="#63b8ff" stroke="#63b8ff" points="465.79,-57.92 475.97,-55.01 466.19,-50.94 465.79,-57.92"/>
</a>
</g>
</g>
<!-- Node4 -->
<g id="Node000004" class="node">
<title>Node4</title>
<g id="a_Node000004"><a xlink:href="classdrivers_1_1_driver.html#a3f94ce3595725e82b34c92548e071d04" target="_top" xlink:title="Inici del driver.">
<polygon fill="white" stroke="#666666" points="98.5,-49 0,-49 0,-29 98.5,-29 98.5,-49"/>
<text text-anchor="middle" x="49.25" y="-35.5" font-family="Helvetica,sans-Serif" font-size="10.00">drivers.Driver.main</text>
</a>
</g>
</g>
<!-- Node3&#45;&gt;Node4 -->
<g id="edge3_Node000003_Node000004" class="edge">
<title>Node3&#45;&gt;Node4</title>
<g id="a_edge3_Node000003_Node000004"><a xlink:title=" ">
<path fill="none" stroke="#63b8ff" d="M122.66,-39C114.53,-39 106.43,-39 98.74,-39"/>
<polygon fill="#63b8ff" stroke="#63b8ff" points="122.61,-42.5 132.61,-39 122.61,-35.5 122.61,-42.5"/>
</a>
</g>
</g>
<!-- Node6 -->
<g id="Node000006" class="node">
<title>Node6</title>
<g id="a_Node000006"><a xlink:href="classdrivers_1_1_driver.html#a0ebb5e3010ea1f086dc4fd28df56ae54" target="_top" xlink:title="Genera una llista amb les lletres i dígrafs del paràmetre.">
<polygon fill="white" stroke="#666666" points="602.88,-29 488.62,-29 488.62,-9 602.88,-9 602.88,-29"/>
<text text-anchor="middle" x="545.75" y="-15.5" font-family="Helvetica,sans-Serif" font-size="10.00">drivers.Driver.tokenize</text>
</a>
</g>
</g>
<!-- Node5&#45;&gt;Node6 -->
<g id="edge5_Node000005_Node000006" class="edge">
<title>Node5&#45;&gt;Node6</title>
<g id="a_edge5_Node000005_Node000006"><a xlink:title=" ">
<path fill="none" stroke="#63b8ff" d="M637.99,-17.43C626.17,-17.63 614.26,-17.84 603.11,-18.03"/>
<polygon fill="#63b8ff" stroke="#63b8ff" points="637.82,-20.94 647.75,-17.26 637.69,-13.94 637.82,-20.94"/>
</a>
</g>
</g>
<!-- Node7 -->
<g id="Node000007" class="node">
<title>Node7</title>
<g id="a_Node000007"><a xlink:href="classdrivers_1_1_driver.html#a2e8cde796339c2db37f3e7332bf695ea" target="_top" xlink:title="Col·loca una paraula al taulell.">
<polygon fill="white" stroke="#666666" points="441.75,-30 299.75,-30 299.75,-10 441.75,-10 441.75,-30"/>
<text text-anchor="middle" x="370.75" y="-16.5" font-family="Helvetica,sans-Serif" font-size="10.00">drivers.Driver.colocarParaula</text>
</a>
</g>
</g>
<!-- Node6&#45;&gt;Node7 -->
<g id="edge6_Node000006_Node000007" class="edge">
<title>Node6&#45;&gt;Node7</title>
<g id="a_edge6_Node000006_Node000007"><a xlink:title=" ">
<path fill="none" stroke="#63b8ff" d="M477.26,-19.39C465.75,-19.46 453.77,-19.53 442.18,-19.59"/>
<polygon fill="#63b8ff" stroke="#63b8ff" points="477.09,-22.89 487.07,-19.33 477.05,-15.89 477.09,-22.89"/>
</a>
</g>
</g>
<!-- Node7&#45;&gt;Node3 -->
<g id="edge7_Node000007_Node000003" class="edge">
<title>Node7&#45;&gt;Node3</title>
<g id="a_edge7_Node000007_Node000003"><a xlink:title=" ">
<path fill="none" stroke="#63b8ff" d="M288.01,-29.16C279.99,-30.05 271.94,-30.96 264.13,-31.83"/>
<polygon fill="#63b8ff" stroke="#63b8ff" points="288.23,-32.65 297.78,-28.06 287.46,-25.7 288.23,-32.65"/>
</a>
</g>
</g>
</g>
</svg>
