<?xml version="1.0" encoding="UTF-8" standalone="no"?>
<!DOCTYPE svg PUBLIC "-//W3C//DTD SVG 1.1//EN"
 "http://www.w3.org/Graphics/SVG/1.1/DTD/svg11.dtd">
<!-- Generated by graphviz version 12.2.1 (20241206.2353)
 -->
<!-- Title: controladors.CtrlPresentacio.crearPartida Pages: 1 -->
<svg width="345pt" height="58pt"
 viewBox="0.00 0.00 344.50 58.00" xmlns="http://www.w3.org/2000/svg" xmlns:xlink="http://www.w3.org/1999/xlink">
<g id="graph0" class="graph" transform="scale(1 1) rotate(0) translate(4 54)">
<title>controladors.CtrlPresentacio.crearPartida</title>
<!-- Node1 -->
<g id="Node000001" class="node">
<title>Node1</title>
<g id="a_Node000001"><a xlink:title="Crea una nova partida amb els paràmetres indicats.">
<polygon fill="#999999" stroke="#666666" points="336.5,-32 172,-32 172,0 336.5,0 336.5,-32"/>
<text text-anchor="start" x="180" y="-18.5" font-family="Helvetica,sans-Serif" font-size="10.00">controladors.CtrlPresentacio.crear</text>
<text text-anchor="middle" x="254.25" y="-6.5" font-family="Helvetica,sans-Serif" font-size="10.00">Partida</text>
</a>
</g>
</g>
<!-- Node2 -->
<g id="Node000002" class="node">
<title>Node2</title>
<g id="a_Node000002"><a xlink:href="classinterficie_1_1_vista_crear_partida.html#a2f8245af959f715f5a43d233fdf6a564" target="_top" xlink:title="Crea una nova finestra per a la creació d&#39;una partida de Scrabble.">
<polygon fill="white" stroke="#666666" points="136,-32 0,-32 0,0 136,0 136,-32"/>
<text text-anchor="start" x="8" y="-18.5" font-family="Helvetica,sans-Serif" font-size="10.00">interficie.VistaCrearPartida.</text>
<text text-anchor="middle" x="68" y="-6.5" font-family="Helvetica,sans-Serif" font-size="10.00">VistaCrearPartida</text>
</a>
</g>
</g>
<!-- Node1&#45;&gt;Node2 -->
<g id="edge1_Node000001_Node000002" class="edge">
<title>Node1&#45;&gt;Node2</title>
<g id="a_edge1_Node000001_Node000002"><a xlink:title=" ">
<path fill="none" stroke="#63b8ff" d="M160.3,-16C152.27,-16 144.25,-16 136.49,-16"/>
<polygon fill="#63b8ff" stroke="#63b8ff" points="160.12,-19.5 170.12,-16 160.12,-12.5 160.12,-19.5"/>
</a>
</g>
</g>
<!-- Node2&#45;&gt;Node2 -->
<g id="edge2_Node000002_Node000002" class="edge">
<title>Node2&#45;&gt;Node2</title>
<g id="a_edge2_Node000002_Node000002"><a xlink:title=" ">
<path fill="none" stroke="#63b8ff" d="M99.04,-43.71C93.86,-47.48 83.52,-50 68,-50 39.63,-50 28.54,-41.58 34.75,-32.44"/>
<polygon fill="#63b8ff" stroke="#63b8ff" points="102.47,-44.42 100.96,-33.93 95.6,-43.07 102.47,-44.42"/>
</a>
</g>
</g>
</g>
</svg>
