<?xml version="1.0" encoding="UTF-8" standalone="no"?>
<!DOCTYPE svg PUBLIC "-//W3C//DTD SVG 1.1//EN"
 "http://www.w3.org/Graphics/SVG/1.1/DTD/svg11.dtd">
<!-- Generated by graphviz version 12.2.1 (20241206.2353)
 -->
<!-- Title: controladors.CtrlDomini.actualitzarDadesGlobals Pages: 1 -->
<svg width="561pt" height="128pt"
 viewBox="0.00 0.00 560.75 128.00" xmlns="http://www.w3.org/2000/svg" xmlns:xlink="http://www.w3.org/1999/xlink">
<g id="graph0" class="graph" transform="scale(1 1) rotate(0) translate(4 124)">
<title>controladors.CtrlDomini.actualitzarDadesGlobals</title>
<!-- Node1 -->
<g id="Node000001" class="node">
<title>Node1</title>
<g id="a_Node000001"><a xlink:title="Actualitza les dades globals dels jugadors després d&#39;una partida.">
<polygon fill="#999999" stroke="#666666" points="166.75,-76 0,-76 0,-44 166.75,-44 166.75,-76"/>
<text text-anchor="start" x="8" y="-62.5" font-family="Helvetica,sans-Serif" font-size="10.00">controladors.CtrlDomini.actualitzar</text>
<text text-anchor="middle" x="83.38" y="-50.5" font-family="Helvetica,sans-Serif" font-size="10.00">DadesGlobals</text>
</a>
</g>
</g>
<!-- Node2 -->
<g id="Node000002" class="node">
<title>Node2</title>
<g id="a_Node000002"><a xlink:href="classcontroladors_1_1_ctrl_domini.html#a96336985c6a802beb79a7a9a9f82b3d4" target="_top" xlink:title="Actualitza les dades globals d&#39;un jugador.">
<polygon fill="white" stroke="#666666" points="374,-120 207.25,-120 207.25,-88 374,-88 374,-120"/>
<text text-anchor="start" x="215.25" y="-106.5" font-family="Helvetica,sans-Serif" font-size="10.00">controladors.CtrlDomini.actualitzar</text>
<text text-anchor="middle" x="290.62" y="-94.5" font-family="Helvetica,sans-Serif" font-size="10.00">JugadorGlobal</text>
</a>
</g>
</g>
<!-- Node1&#45;&gt;Node2 -->
<g id="edge1_Node000001_Node000002" class="edge">
<title>Node1&#45;&gt;Node2</title>
<g id="a_edge1_Node000001_Node000002"><a xlink:title=" ">
<path fill="none" stroke="#63b8ff" d="M161.09,-76.45C174.26,-79.27 188.03,-82.22 201.47,-85.1"/>
<polygon fill="#63b8ff" stroke="#63b8ff" points="200.67,-88.51 211.18,-87.18 202.13,-81.66 200.67,-88.51"/>
</a>
</g>
</g>
<!-- Node3 -->
<g id="Node000003" class="node">
<title>Node3</title>
<g id="a_Node000003"><a xlink:href="classdomini_1_1jugadors_1_1_jugador.html#afa999de0f50bb1671ac42dbe31388b01" target="_top" xlink:title="Retorna l&#39;identificador del jugador.">
<polygon fill="white" stroke="#666666" points="552.75,-98 414.5,-98 414.5,-66 552.75,-66 552.75,-98"/>
<text text-anchor="start" x="422.5" y="-84.5" font-family="Helvetica,sans-Serif" font-size="10.00">domini.jugadors.Jugador.get</text>
<text text-anchor="middle" x="483.62" y="-72.5" font-family="Helvetica,sans-Serif" font-size="10.00">IdJugador</text>
</a>
</g>
</g>
<!-- Node1&#45;&gt;Node3 -->
<g id="edge3_Node000001_Node000003" class="edge">
<title>Node1&#45;&gt;Node3</title>
<g id="a_edge3_Node000001_Node000003"><a xlink:title=" ">
<path fill="none" stroke="#63b8ff" d="M166.89,-64.56C236.17,-68.39 334.52,-73.82 402.98,-77.6"/>
<polygon fill="#63b8ff" stroke="#63b8ff" points="402.44,-81.08 412.61,-78.13 402.82,-74.09 402.44,-81.08"/>
</a>
</g>
</g>
<!-- Node4 -->
<g id="Node000004" class="node">
<title>Node4</title>
<g id="a_Node000004"><a xlink:href="classdomini_1_1jugadors_1_1_jugador.html#ac035aeae1fdd82b932fe2c717ae9b3d5" target="_top" xlink:title="Afegeix punts a la puntuació actual del jugador.">
<polygon fill="white" stroke="#666666" points="378.5,-32 202.75,-32 202.75,0 378.5,0 378.5,-32"/>
<text text-anchor="start" x="210.75" y="-18.5" font-family="Helvetica,sans-Serif" font-size="10.00">domini.jugadors.Jugador.incrementar</text>
<text text-anchor="middle" x="290.62" y="-6.5" font-family="Helvetica,sans-Serif" font-size="10.00">_puntuacio_actual</text>
</a>
</g>
</g>
<!-- Node1&#45;&gt;Node4 -->
<g id="edge4_Node000001_Node000004" class="edge">
<title>Node1&#45;&gt;Node4</title>
<g id="a_edge4_Node000001_Node000004"><a xlink:title=" ">
<path fill="none" stroke="#63b8ff" d="M161.09,-43.55C174.26,-40.73 188.03,-37.78 201.47,-34.9"/>
<polygon fill="#63b8ff" stroke="#63b8ff" points="202.13,-38.34 211.18,-32.82 200.67,-31.49 202.13,-38.34"/>
</a>
</g>
</g>
<!-- Node2&#45;&gt;Node3 -->
<g id="edge2_Node000002_Node000003" class="edge">
<title>Node2&#45;&gt;Node3</title>
<g id="a_edge2_Node000002_Node000003"><a xlink:title=" ">
<path fill="none" stroke="#63b8ff" d="M374.29,-94.48C383.75,-93.39 393.38,-92.28 402.81,-91.19"/>
<polygon fill="#63b8ff" stroke="#63b8ff" points="403.13,-94.68 412.67,-90.06 402.33,-87.73 403.13,-94.68"/>
</a>
</g>
</g>
</g>
</svg>
