<?xml version="1.0" encoding="UTF-8" standalone="no"?>
<!DOCTYPE svg PUBLIC "-//W3C//DTD SVG 1.1//EN"
 "http://www.w3.org/Graphics/SVG/1.1/DTD/svg11.dtd">
<!-- Generated by graphviz version 12.2.1 (20241206.2353)
 -->
<!-- Title: domini.jugadors.Jugador.getNom Pages: 1 -->
<!--zoomable 396 -->

<svg id="main" version="1.1" xmlns="http://www.w3.org/2000/svg" xmlns:xlink="http://www.w3.org/1999/xlink" xml:space="preserve" onload="init(evt)">

<style type="text/css"><![CDATA[
.node, .edge {opacity: 0.7;}
.node.selected, .edge.selected {opacity: 1;}
.edge:hover path { stroke: red; }
.edge:hover polygon { stroke: red; fill: red; }
]]></style>

<defs>
  <circle id="rim" cx="0" cy="0" r="7"/>
  <circle id="rim2" cx="0" cy="0" r="3.5"/>
  <g id="zoomPlus">
    <use xlink:href="#rim" fill="#404040"><set attributeName="fill" to="#808080" begin="zoomplus.mouseover" end="zoomplus.mouseout"/></use>
    <path d="M-4,0h8M0,-4v8" fill="none" stroke="white" stroke-width="1.5" pointer-events="none"/>
  </g>
  <g id="zoomMin">
    <use xlink:href="#rim" fill="#404040"><set attributeName="fill" to="#808080" begin="zoomminus.mouseover" end="zoomminus.mouseout"/></use>
    <path d="M-4,0h8" fill="none" stroke="white" stroke-width="1.5" pointer-events="none"/>
  </g>
  <g id="arrowUp" transform="translate(30 24)">
    <use xlink:href="#rim"/>
    <path pointer-events="none" fill="none" stroke="white" stroke-width="1.5" d="M0,-3.0v7 M-2.5,-0.5L0,-3.0L2.5,-0.5"/>
  </g>
  <g id="arrowRight" transform="rotate(90) translate(36 -43)">
    <use xlink:href="#rim"/>
    <path pointer-events="none" fill="none" stroke="white" stroke-width="1.5" d="M0,-3.0v7 M-2.5,-0.5L0,-3.0L2.5,-0.5"/>
  </g>
  <g id="arrowDown" transform="rotate(180) translate(-30 -48)">
    <use xlink:href="#rim"/>
    <path pointer-events="none" fill="none" stroke="white" stroke-width="1.5" d="M0,-3.0v7 M-2.5,-0.5L0,-3.0L2.5,-0.5"/>
  </g>
  <g id="arrowLeft" transform="rotate(270) translate(-36 17)">
    <use xlink:href="#rim"/>
    <path pointer-events="none" fill="none" stroke="white" stroke-width="1.5" d="M0,-3.0v7 M-2.5,-0.5L0,-3.0L2.5,-0.5"/>
  </g>
  <g id="resetDef">
    <use xlink:href="#rim2" fill="#404040"><set attributeName="fill" to="#808080" begin="reset.mouseover" end="reset.mouseout"/></use>
  </g>
</defs>
<script type="application/ecmascript">
var viewWidth = 1331;
var viewHeight = 396;
var sectionId = 'dynsection-6';
</script>
<script type="application/ecmascript" xlink:href="svg.min.js"/>
<svg id="graph" class="graph">
<g id="viewport">
<title>domini.jugadors.Jugador.getNom</title>
<!-- Node1 -->
<g id="Node000001" class="node">
<title>Node1</title>
<g id="a_Node000001"><a xlink:title="Retorna el nom del jugador.">
<polygon fill="#999999" stroke="#666666" points="1322.5,-207 1163.25,-207 1163.25,-187 1322.5,-187 1322.5,-207"/>
<text text-anchor="middle" x="1242.88" y="-193.5" font-family="Helvetica,sans-Serif" font-size="10.00">domini.jugadors.Jugador.getNom</text>
</a>
</g>
</g>
<!-- Node2 -->
<g id="Node000002" class="node">
<title>Node2</title>
<g id="a_Node000002"><a xlink:href="classinterficie_1_1_vista_consultar_avatars.html#a2a900bc768080abeed9eb8f61321dbb0" target="_top" xlink:title="Carrega i mostra visualment tots els avatars registrats en un panell donat.">
<polygon fill="white" stroke="#666666" points="1102.88,-370 981.12,-370 981.12,-338 1102.88,-338 1102.88,-370"/>
<text text-anchor="start" x="989.12" y="-356.5" font-family="Helvetica,sans-Serif" font-size="10.00">interficie.VistaConsultar</text>
<text text-anchor="middle" x="1042" y="-344.5" font-family="Helvetica,sans-Serif" font-size="10.00">Avatars.carregarAvatars</text>
</a>
</g>
</g>
<!-- Node1&#45;&gt;Node2 -->
<g id="edge1_Node000001_Node000002" class="edge">
<title>Node1&#45;&gt;Node2</title>
<g id="a_edge1_Node000001_Node000002"><a xlink:title=" ">
<path fill="none" stroke="#63b8ff" d="M1228.75,-216.89C1209.55,-244.57 1171.26,-294.58 1127.25,-324 1119.25,-329.35 1110.18,-333.87 1101.03,-337.64"/>
<polygon fill="#63b8ff" stroke="#63b8ff" points="1231.58,-218.96 1234.3,-208.72 1225.78,-215.03 1231.58,-218.96"/>
</a>
</g>
</g>
<!-- Node4 -->
<g id="Node000004" class="node">
<title>Node4</title>
<g id="a_Node000004"><a xlink:href="classinterficie_1_1_vista_partida.html#ab47b596fbbd6a79289d4b9d7f5b5e068" target="_top" xlink:title="Crea un panell amb la informació d&#39;un jugador.">
<polygon fill="white" stroke="#666666" points="1108.88,-282 975.12,-282 975.12,-250 1108.88,-250 1108.88,-282"/>
<text text-anchor="start" x="983.12" y="-268.5" font-family="Helvetica,sans-Serif" font-size="10.00">interficie.VistaPartida.crear</text>
<text text-anchor="middle" x="1042" y="-256.5" font-family="Helvetica,sans-Serif" font-size="10.00">PanelJugador</text>
</a>
</g>
</g>
<!-- Node1&#45;&gt;Node4 -->
<g id="edge4_Node000001_Node000004" class="edge">
<title>Node1&#45;&gt;Node4</title>
<g id="a_edge4_Node000001_Node000004"><a xlink:title=" ">
<path fill="none" stroke="#63b8ff" d="M1200.89,-211.22C1168.83,-222.34 1124.19,-237.83 1090.56,-249.5"/>
<polygon fill="#63b8ff" stroke="#63b8ff" points="1201.94,-214.56 1210.24,-207.98 1199.65,-207.95 1201.94,-214.56"/>
</a>
</g>
</g>
<!-- Node5 -->
<g id="Node000005" class="node">
<title>Node5</title>
<g id="a_Node000005"><a xlink:href="classinterficie_1_1_vista_partida.html#a485041b781e81c64fb5414207ff21d2a" target="_top" xlink:title="Actualitza la informació de la partida.">
<polygon fill="white" stroke="#666666" points="915.88,-226 765.62,-226 765.62,-194 915.88,-194 915.88,-226"/>
<text text-anchor="start" x="773.62" y="-212.5" font-family="Helvetica,sans-Serif" font-size="10.00">interficie.VistaPartida.refrescar</text>
<text text-anchor="middle" x="840.75" y="-200.5" font-family="Helvetica,sans-Serif" font-size="10.00">Informacio</text>
</a>
</g>
</g>
<!-- Node1&#45;&gt;Node5 -->
<g id="edge30_Node000001_Node000005" class="edge">
<title>Node1&#45;&gt;Node5</title>
<g id="a_edge30_Node000001_Node000005"><a xlink:title=" ">
<path fill="none" stroke="#63b8ff" d="M1151.7,-201.96C1143.44,-202.34 1135.19,-202.69 1127.25,-203 1055.66,-205.75 973.92,-207.63 916.31,-208.74"/>
<polygon fill="#63b8ff" stroke="#63b8ff" points="1151.63,-205.46 1161.45,-201.49 1151.29,-198.47 1151.63,-205.46"/>
</a>
</g>
</g>
<!-- Node6 -->
<g id="Node000006" class="node">
<title>Node6</title>
<g id="a_Node000006"><a xlink:href="classinterficie_1_1_vista_partida.html#a7855e7a9cc41e1450c37054781ba6309" target="_top" xlink:title="Inicialitza els components de la interfície gràfica.">
<polygon fill="white" stroke="#666666" points="691.38,-320 556.12,-320 556.12,-300 691.38,-300 691.38,-320"/>
<text text-anchor="middle" x="623.75" y="-306.5" font-family="Helvetica,sans-Serif" font-size="10.00">interficie.VistaPartida.initUI</text>
</a>
</g>
</g>
<!-- Node1&#45;&gt;Node6 -->
<g id="edge23_Node000001_Node000006" class="edge">
<title>Node1&#45;&gt;Node6</title>
<g id="a_edge23_Node000001_Node000006"><a xlink:title=" ">
<path fill="none" stroke="#63b8ff" d="M1226.1,-215.89C1205.89,-238.53 1168.49,-275.37 1127.25,-291 1049.6,-320.44 809.83,-316.61 691.8,-312.71"/>
<polygon fill="#63b8ff" stroke="#63b8ff" points="1228.54,-218.43 1232.45,-208.58 1223.25,-213.84 1228.54,-218.43"/>
</a>
</g>
</g>
<!-- Node12 -->
<g id="Node000012" class="node">
<title>Node12</title>
<g id="a_Node000012"><a xlink:href="classinterficie_1_1_vista_consultar_estadistiques_1_1_avatar_renderer.html#ac65c84e86f810db5624e9cc60ac61047" target="_top" xlink:title=" ">
<polygon fill="white" stroke="#666666" points="1123.5,-194 960.5,-194 960.5,-150 1123.5,-150 1123.5,-194"/>
<text text-anchor="start" x="968.5" y="-180.5" font-family="Helvetica,sans-Serif" font-size="10.00">interficie.VistaConsultar</text>
<text text-anchor="start" x="968.5" y="-168.5" font-family="Helvetica,sans-Serif" font-size="10.00">Estadistiques.AvatarRenderer.get</text>
<text text-anchor="middle" x="1042" y="-156.5" font-family="Helvetica,sans-Serif" font-size="10.00">ListCellRendererComponent</text>
</a>
</g>
</g>
<!-- Node1&#45;&gt;Node12 -->
<g id="edge22_Node000001_Node000012" class="edge">
<title>Node1&#45;&gt;Node12</title>
<g id="a_edge22_Node000001_Node000012"><a xlink:title=" ">
<path fill="none" stroke="#63b8ff" d="M1151.7,-185.66C1142.38,-184.49 1132.95,-183.31 1123.75,-182.15"/>
<polygon fill="#63b8ff" stroke="#63b8ff" points="1151.13,-189.12 1161.49,-186.89 1152,-182.17 1151.13,-189.12"/>
</a>
</g>
</g>
<!-- Node13 -->
<g id="Node000013" class="node">
<title>Node13</title>
<g id="a_Node000013"><a xlink:href="classcontroladors_1_1_ctrl_partida.html#a179f68d65d72009865908fca885ac330" target="_top" xlink:title="Obté el nom del jugador actual.">
<polygon fill="white" stroke="#666666" points="1118.62,-132 965.38,-132 965.38,-100 1118.62,-100 1118.62,-132"/>
<text text-anchor="start" x="973.38" y="-118.5" font-family="Helvetica,sans-Serif" font-size="10.00">controladors.CtrlPartida.jugador</text>
<text text-anchor="middle" x="1042" y="-106.5" font-family="Helvetica,sans-Serif" font-size="10.00">_controladorNOM</text>
</a>
</g>
</g>
<!-- Node1&#45;&gt;Node13 -->
<g id="edge24_Node000001_Node000013" class="edge">
<title>Node1&#45;&gt;Node13</title>
<g id="a_edge24_Node000001_Node000013"><a xlink:title=" ">
<path fill="none" stroke="#63b8ff" d="M1213.21,-181.34C1190.38,-169.28 1157.36,-152.73 1127.25,-141 1119.43,-137.95 1111.08,-135.06 1102.79,-132.4"/>
<polygon fill="#63b8ff" stroke="#63b8ff" points="1211.44,-184.36 1221.91,-185.99 1214.74,-178.19 1211.44,-184.36"/>
</a>
</g>
</g>
<!-- Node14 -->
<g id="Node000014" class="node">
<title>Node14</title>
<g id="a_Node000014"><a xlink:href="classcontroladors_1_1_ctrl_partida.html#a61fb4e56de4f9925e7931e2d86d90fc7" target="_top" xlink:title="Obté el nom del jugador no actual.">
<polygon fill="white" stroke="#666666" points="1118.62,-82 965.38,-82 965.38,-50 1118.62,-50 1118.62,-82"/>
<text text-anchor="start" x="973.38" y="-68.5" font-family="Helvetica,sans-Serif" font-size="10.00">controladors.CtrlPartida.jugador</text>
<text text-anchor="middle" x="1042" y="-56.5" font-family="Helvetica,sans-Serif" font-size="10.00">NoActual_controladorNOM</text>
</a>
</g>
</g>
<!-- Node1&#45;&gt;Node14 -->
<g id="edge25_Node000001_Node000014" class="edge">
<title>Node1&#45;&gt;Node14</title>
<g id="a_edge25_Node000001_Node000014"><a xlink:title=" ">
<path fill="none" stroke="#63b8ff" d="M1226.13,-177.81C1205.7,-154.11 1167.83,-114.09 1127.25,-91 1121.55,-87.76 1115.38,-84.89 1109.08,-82.38"/>
<polygon fill="#63b8ff" stroke="#63b8ff" points="1223.44,-180.05 1232.57,-185.43 1228.79,-175.54 1223.44,-180.05"/>
</a>
</g>
</g>
<!-- Node15 -->
<g id="Node000015" class="node">
<title>Node15</title>
<g id="a_Node000015"><a xlink:href="classinterficie_1_1_vista_consultar_estadistiques.html#a2d04a42f93b8d16629d5795a935ae87e" target="_top" xlink:title="Mostra les estadístiques d’un avatar seleccionat a l’àrea d’estadístiques.">
<polygon fill="white" stroke="#666666" points="1127.25,-32 956.75,-32 956.75,0 1127.25,0 1127.25,-32"/>
<text text-anchor="start" x="964.75" y="-18.5" font-family="Helvetica,sans-Serif" font-size="10.00">interficie.VistaConsultar</text>
<text text-anchor="middle" x="1042" y="-6.5" font-family="Helvetica,sans-Serif" font-size="10.00">Estadistiques.mostrarEstadistiques</text>
</a>
</g>
</g>
<!-- Node1&#45;&gt;Node15 -->
<g id="edge26_Node000001_Node000015" class="edge">
<title>Node1&#45;&gt;Node15</title>
<g id="a_edge26_Node000001_Node000015"><a xlink:title=" ">
<path fill="none" stroke="#63b8ff" d="M1232.34,-176.49C1215.75,-143.06 1178.4,-76.97 1127.25,-41 1122.63,-37.75 1117.59,-34.92 1112.34,-32.46"/>
<polygon fill="#63b8ff" stroke="#63b8ff" points="1229.18,-177.99 1236.67,-185.48 1235.48,-174.95 1229.18,-177.99"/>
</a>
</g>
</g>
<!-- Node3 -->
<g id="Node000003" class="node">
<title>Node3</title>
<g id="a_Node000003"><a xlink:href="classinterficie_1_1_vista_consultar_avatars.html#aad0f3c358880880d6c374569d93117cd" target="_top" xlink:title="Constructor de la vista que mostra la llista d&#39;avatares registrats.">
<polygon fill="white" stroke="#666666" points="916.25,-370 765.25,-370 765.25,-338 916.25,-338 916.25,-370"/>
<text text-anchor="start" x="773.25" y="-356.5" font-family="Helvetica,sans-Serif" font-size="10.00">interficie.VistaConsultar</text>
<text text-anchor="middle" x="840.75" y="-344.5" font-family="Helvetica,sans-Serif" font-size="10.00">Avatars.VistaConsultarAvatars</text>
</a>
</g>
</g>
<!-- Node2&#45;&gt;Node3 -->
<g id="edge2_Node000002_Node000003" class="edge">
<title>Node2&#45;&gt;Node3</title>
<g id="a_edge2_Node000002_Node000003"><a xlink:title=" ">
<path fill="none" stroke="#63b8ff" d="M969.59,-354C952.41,-354 934.01,-354 916.67,-354"/>
<polygon fill="#63b8ff" stroke="#63b8ff" points="969.16,-357.5 979.16,-354 969.16,-350.5 969.16,-357.5"/>
</a>
</g>
</g>
<!-- Node3&#45;&gt;Node3 -->
<g id="edge3_Node000003_Node000003" class="edge">
<title>Node3&#45;&gt;Node3</title>
<g id="a_edge3_Node000003_Node000003"><a xlink:title=" ">
<path fill="none" stroke="#63b8ff" d="M874.75,-381.38C869.33,-385.34 858,-388 840.75,-388 810.09,-388 798.11,-379.58 804.82,-370.44"/>
<polygon fill="#63b8ff" stroke="#63b8ff" points="878.13,-382.39 876.42,-371.93 871.24,-381.17 878.13,-382.39"/>
</a>
</g>
</g>
<!-- Node4&#45;&gt;Node5 -->
<g id="edge5_Node000004_Node000005" class="edge">
<title>Node4&#45;&gt;Node5</title>
<g id="a_edge5_Node000004_Node000005"><a xlink:title=" ">
<path fill="none" stroke="#63b8ff" d="M971.48,-246.46C948.27,-239.94 922.67,-232.74 900.38,-226.48"/>
<polygon fill="#63b8ff" stroke="#63b8ff" points="970.26,-249.76 980.84,-249.09 972.16,-243.02 970.26,-249.76"/>
</a>
</g>
</g>
<!-- Node5&#45;&gt;Node5 -->
<g id="edge20_Node000005_Node000005" class="edge">
<title>Node5&#45;&gt;Node5</title>
<g id="a_edge20_Node000005_Node000005"><a xlink:title=" ">
<path fill="none" stroke="#63b8ff" d="M874.75,-237.38C869.33,-241.34 858,-244 840.75,-244 810.09,-244 798.11,-235.58 804.82,-226.44"/>
<polygon fill="#63b8ff" stroke="#63b8ff" points="878.13,-238.39 876.42,-227.93 871.24,-237.17 878.13,-238.39"/>
</a>
</g>
</g>
<!-- Node5&#45;&gt;Node6 -->
<g id="edge6_Node000005_Node000006" class="edge">
<title>Node5&#45;&gt;Node6</title>
<g id="a_edge6_Node000005_Node000006"><a xlink:title=" ">
<path fill="none" stroke="#63b8ff" d="M794.33,-231.12C749.23,-252.1 681.92,-283.41 647.23,-299.55"/>
<polygon fill="#63b8ff" stroke="#63b8ff" points="795.76,-234.32 803.36,-226.93 792.81,-227.97 795.76,-234.32"/>
</a>
</g>
</g>
<!-- Node7 -->
<g id="Node000007" class="node">
<title>Node7</title>
<g id="a_Node000007"><a xlink:href="classinterficie_1_1_vista_partida.html#abce8626a6a3750affe851e1f8bea2cb3" target="_top" xlink:title="Constructor de la classe VistaPartida.">
<polygon fill="white" stroke="#666666" points="486.75,-288 374.75,-288 374.75,-256 486.75,-256 486.75,-288"/>
<text text-anchor="start" x="382.75" y="-274.5" font-family="Helvetica,sans-Serif" font-size="10.00">interficie.VistaPartida.</text>
<text text-anchor="middle" x="430.75" y="-262.5" font-family="Helvetica,sans-Serif" font-size="10.00">VistaPartida</text>
</a>
</g>
</g>
<!-- Node5&#45;&gt;Node7 -->
<g id="edge21_Node000005_Node000007" class="edge">
<title>Node5&#45;&gt;Node7</title>
<g id="a_edge21_Node000005_Node000007"><a xlink:title=" ">
<path fill="none" stroke="#63b8ff" d="M754.24,-222.89C690.43,-232.53 601.13,-246.04 522.75,-258 511.21,-259.76 498.86,-261.66 487.09,-263.47"/>
<polygon fill="#63b8ff" stroke="#63b8ff" points="754.58,-226.38 763.95,-221.43 753.54,-219.46 754.58,-226.38"/>
</a>
</g>
</g>
<!-- Node6&#45;&gt;Node7 -->
<g id="edge7_Node000006_Node000007" class="edge">
<title>Node6&#45;&gt;Node7</title>
<g id="a_edge7_Node000006_Node000007"><a xlink:title=" ">
<path fill="none" stroke="#63b8ff" d="M584.09,-296.76C556.24,-289.87 518.25,-282.1 487.17,-276.84"/>
<polygon fill="#63b8ff" stroke="#63b8ff" points="582.96,-300.08 593.51,-299.17 584.69,-293.3 582.96,-300.08"/>
</a>
</g>
</g>
<!-- Node7&#45;&gt;Node4 -->
<g id="edge17_Node000007_Node000004" class="edge">
<title>Node7&#45;&gt;Node4</title>
<g id="a_edge17_Node000007_Node000004"><a xlink:title=" ">
<path fill="none" stroke="#63b8ff" d="M498.17,-271.35C615.35,-270.19 857.49,-267.81 974.64,-266.65"/>
<polygon fill="#63b8ff" stroke="#63b8ff" points="498.36,-267.84 488.4,-271.44 498.43,-274.84 498.36,-267.84"/>
</a>
</g>
</g>
<!-- Node7&#45;&gt;Node6 -->
<g id="edge18_Node000007_Node000006" class="edge">
<title>Node7&#45;&gt;Node6</title>
<g id="a_edge18_Node000007_Node000006"><a xlink:title=" ">
<path fill="none" stroke="#63b8ff" d="M495.11,-291C514.55,-295.31 536,-299.61 555.68,-303.13"/>
<polygon fill="#63b8ff" stroke="#63b8ff" points="495.93,-287.6 485.4,-288.81 494.38,-294.43 495.93,-287.6"/>
</a>
</g>
</g>
<!-- Node7&#45;&gt;Node7 -->
<g id="edge19_Node000007_Node000007" class="edge">
<title>Node7&#45;&gt;Node7</title>
<g id="a_edge19_Node000007_Node000007"><a xlink:title=" ">
<path fill="none" stroke="#63b8ff" d="M458.79,-299.71C454.11,-303.48 444.77,-306 430.75,-306 405.12,-306 395.11,-297.58 400.71,-288.44"/>
<polygon fill="#63b8ff" stroke="#63b8ff" points="462.22,-300.39 460.52,-289.93 455.33,-299.17 462.22,-300.39"/>
</a>
</g>
</g>
<!-- Node8 -->
<g id="Node000008" class="node">
<title>Node8</title>
<g id="a_Node000008"><a xlink:href="classinterficie_1_1_vista_partida.html#a6bd7550fc714ba5195c8b55ffe3d973c" target="_top" xlink:title="Afegeix les fitxes d&#39;un jugador al seu rack.">
<polygon fill="white" stroke="#666666" points="330.5,-212 194.5,-212 194.5,-180 330.5,-180 330.5,-212"/>
<text text-anchor="start" x="202.5" y="-198.5" font-family="Helvetica,sans-Serif" font-size="10.00">interficie.VistaPartida.afegir</text>
<text text-anchor="middle" x="262.5" y="-186.5" font-family="Helvetica,sans-Serif" font-size="10.00">FitxesARack</text>
</a>
</g>
</g>
<!-- Node7&#45;&gt;Node8 -->
<g id="edge8_Node000007_Node000008" class="edge">
<title>Node7&#45;&gt;Node8</title>
<g id="a_edge8_Node000007_Node000008"><a xlink:title=" ">
<path fill="none" stroke="#63b8ff" d="M394.01,-249.89C377.56,-240.26 357.55,-229.3 338.75,-221 331.82,-217.94 324.4,-215.04 317.01,-212.38"/>
<polygon fill="#63b8ff" stroke="#63b8ff" points="392.07,-252.81 402.45,-254.91 395.64,-246.79 392.07,-252.81"/>
</a>
</g>
</g>
<!-- Node10 -->
<g id="Node000010" class="node">
<title>Node10</title>
<g id="a_Node000010"><a xlink:href="classinterficie_1_1_vista_partida.html#ae6809bc2e7efc03077c111367571f788" target="_top" xlink:title="Afegeix maquetes al rack de l&#39;oponent.">
<polygon fill="white" stroke="#666666" points="330.5,-262 194.5,-262 194.5,-230 330.5,-230 330.5,-262"/>
<text text-anchor="start" x="202.5" y="-248.5" font-family="Helvetica,sans-Serif" font-size="10.00">interficie.VistaPartida.afegir</text>
<text text-anchor="middle" x="262.5" y="-236.5" font-family="Helvetica,sans-Serif" font-size="10.00">MaquetesARack</text>
</a>
</g>
</g>
<!-- Node7&#45;&gt;Node10 -->
<g id="edge13_Node000007_Node000010" class="edge">
<title>Node7&#45;&gt;Node10</title>
<g id="a_edge13_Node000007_Node000010"><a xlink:title=" ">
<path fill="none" stroke="#63b8ff" d="M363.04,-261.57C352.4,-259.9 341.4,-258.18 330.75,-256.52"/>
<polygon fill="#63b8ff" stroke="#63b8ff" points="362.48,-265.02 372.9,-263.11 363.56,-258.11 362.48,-265.02"/>
</a>
</g>
</g>
<!-- Node11 -->
<g id="Node000011" class="node">
<title>Node11</title>
<g id="a_Node000011"><a xlink:href="classinterficie_1_1_vista_partida.html#a8ebc9da2a2b927ba87ed97ad85ae44e8" target="_top" xlink:title="Confirma l&#39;acció de guardar la partida.">
<polygon fill="white" stroke="#666666" points="338.75,-350 186.25,-350 186.25,-318 338.75,-318 338.75,-350"/>
<text text-anchor="start" x="194.25" y="-336.5" font-family="Helvetica,sans-Serif" font-size="10.00">interficie.VistaPartida.confirmar</text>
<text text-anchor="middle" x="262.5" y="-324.5" font-family="Helvetica,sans-Serif" font-size="10.00">Guardar</text>
</a>
</g>
</g>
<!-- Node7&#45;&gt;Node11 -->
<g id="edge15_Node000007_Node000011" class="edge">
<title>Node7&#45;&gt;Node11</title>
<g id="a_edge15_Node000007_Node000011"><a xlink:title=" ">
<path fill="none" stroke="#63b8ff" d="M375.14,-292.36C353.21,-300.54 328.27,-309.84 307.53,-317.58"/>
<polygon fill="#63b8ff" stroke="#63b8ff" points="376.07,-295.75 384.22,-288.98 373.62,-289.2 376.07,-295.75"/>
</a>
</g>
</g>
<!-- Node9 -->
<g id="Node000009" class="node">
<title>Node9</title>
<g id="a_Node000009"><a xlink:href="classinterficie_1_1_vista_partida.html#a0698d192124492ebfd8a3b029a6fa23c" target="_top" xlink:title="Actualitza els racks dels jugadors.">
<polygon fill="white" stroke="#666666" points="150.25,-262 0,-262 0,-230 150.25,-230 150.25,-262"/>
<text text-anchor="start" x="8" y="-248.5" font-family="Helvetica,sans-Serif" font-size="10.00">interficie.VistaPartida.refrescar</text>
<text text-anchor="middle" x="75.12" y="-236.5" font-family="Helvetica,sans-Serif" font-size="10.00">RackJugadors</text>
</a>
</g>
</g>
<!-- Node8&#45;&gt;Node9 -->
<g id="edge9_Node000008_Node000009" class="edge">
<title>Node8&#45;&gt;Node9</title>
<g id="a_edge9_Node000008_Node000009"><a xlink:title=" ">
<path fill="none" stroke="#63b8ff" d="M189.86,-215.32C172.45,-220.02 153.99,-225 137.12,-229.55"/>
<polygon fill="#63b8ff" stroke="#63b8ff" points="190.34,-218.82 199.08,-212.84 188.52,-212.06 190.34,-218.82"/>
</a>
</g>
</g>
<!-- Node9&#45;&gt;Node5 -->
<g id="edge11_Node000009_Node000005" class="edge">
<title>Node9&#45;&gt;Node5</title>
<g id="a_edge11_Node000009_Node000005"><a xlink:title=" ">
<path fill="none" stroke="#63b8ff" d="M101.63,-221.99C122.55,-204.05 153.9,-180.97 186.25,-171 398.59,-105.56 667.73,-162.81 783.08,-193.53"/>
<polygon fill="#63b8ff" stroke="#63b8ff" points="99.37,-219.32 94.19,-228.56 104,-224.57 99.37,-219.32"/>
</a>
</g>
</g>
<!-- Node9&#45;&gt;Node6 -->
<g id="edge10_Node000009_Node000006" class="edge">
<title>Node9&#45;&gt;Node6</title>
<g id="a_edge10_Node000009_Node000006"><a xlink:title=" ">
<path fill="none" stroke="#63b8ff" d="M91.97,-271.7C110.63,-299.24 144.44,-341.36 186.25,-359 333.45,-421.09 532.05,-348.74 599.35,-320.41"/>
<polygon fill="#63b8ff" stroke="#63b8ff" points="95.04,-269.99 86.62,-263.55 89.18,-273.83 95.04,-269.99"/>
</a>
</g>
</g>
<!-- Node9&#45;&gt;Node7 -->
<g id="edge12_Node000009_Node000007" class="edge">
<title>Node9&#45;&gt;Node7</title>
<g id="a_edge12_Node000009_Node000007"><a xlink:title=" ">
<path fill="none" stroke="#63b8ff" d="M148.96,-264.89C161.32,-267.42 174.1,-269.61 186.25,-271 250.51,-278.34 324.94,-277.26 374.42,-275.21"/>
<polygon fill="#63b8ff" stroke="#63b8ff" points="149.73,-261.47 139.22,-262.8 148.27,-268.32 149.73,-261.47"/>
</a>
</g>
</g>
<!-- Node10&#45;&gt;Node9 -->
<g id="edge14_Node000010_Node000009" class="edge">
<title>Node10&#45;&gt;Node9</title>
<g id="a_edge14_Node000010_Node000009"><a xlink:title=" ">
<path fill="none" stroke="#63b8ff" d="M182.68,-246C172.09,-246 161.25,-246 150.73,-246"/>
<polygon fill="#63b8ff" stroke="#63b8ff" points="182.54,-249.5 192.54,-246 182.54,-242.5 182.54,-249.5"/>
</a>
</g>
</g>
<!-- Node11&#45;&gt;Node6 -->
<g id="edge16_Node000011_Node000006" class="edge">
<title>Node11&#45;&gt;Node6</title>
<g id="a_edge16_Node000011_Node000006"><a xlink:title=" ">
<path fill="none" stroke="#63b8ff" d="M350.35,-328.2C413.61,-323.97 498.02,-318.33 556.02,-314.46"/>
<polygon fill="#63b8ff" stroke="#63b8ff" points="350.45,-324.68 340.71,-328.84 350.92,-331.67 350.45,-324.68"/>
</a>
</g>
</g>
<!-- Node16 -->
<g id="Node000016" class="node">
<title>Node16</title>
<g id="a_Node000016"><a xlink:href="classinterficie_1_1_vista_consultar_estadistiques.html#a1f4f83c8a4fdc86e24ef38f338645fbf" target="_top" xlink:title="Afegeix un listener a la llista per mostrar estadístiques quan es selecciona un avatar.">
<polygon fill="white" stroke="#666666" points="920.75,-32 760.75,-32 760.75,0 920.75,0 920.75,-32"/>
<text text-anchor="start" x="768.75" y="-18.5" font-family="Helvetica,sans-Serif" font-size="10.00">interficie.VistaConsultar</text>
<text text-anchor="middle" x="840.75" y="-6.5" font-family="Helvetica,sans-Serif" font-size="10.00">Estadistiques.afegirListenerLlista</text>
</a>
</g>
</g>
<!-- Node15&#45;&gt;Node16 -->
<g id="edge27_Node000015_Node000016" class="edge">
<title>Node15&#45;&gt;Node16</title>
<g id="a_edge27_Node000015_Node000016"><a xlink:title=" ">
<path fill="none" stroke="#63b8ff" d="M945.12,-16C937.04,-16 928.93,-16 920.99,-16"/>
<polygon fill="#63b8ff" stroke="#63b8ff" points="944.99,-19.5 954.99,-16 944.99,-12.5 944.99,-19.5"/>
</a>
</g>
</g>
<!-- Node17 -->
<g id="Node000017" class="node">
<title>Node17</title>
<g id="a_Node000017"><a xlink:href="classinterficie_1_1_vista_consultar_estadistiques.html#a72ea2d682e9b49e5fa9a21c42187f581" target="_top" xlink:title="Constructor principal de la vista.">
<polygon fill="white" stroke="#666666" points="724.75,-32 522.75,-32 522.75,0 724.75,0 724.75,-32"/>
<text text-anchor="start" x="530.75" y="-18.5" font-family="Helvetica,sans-Serif" font-size="10.00">interficie.VistaConsultar</text>
<text text-anchor="middle" x="623.75" y="-6.5" font-family="Helvetica,sans-Serif" font-size="10.00">Estadistiques.VistaConsultarEstadistiques</text>
</a>
</g>
</g>
<!-- Node16&#45;&gt;Node17 -->
<g id="edge28_Node000016_Node000017" class="edge">
<title>Node16&#45;&gt;Node17</title>
<g id="a_edge28_Node000016_Node000017"><a xlink:title=" ">
<path fill="none" stroke="#63b8ff" d="M748.87,-16C740.99,-16 733,-16 725.05,-16"/>
<polygon fill="#63b8ff" stroke="#63b8ff" points="748.79,-19.5 758.79,-16 748.79,-12.5 748.79,-19.5"/>
</a>
</g>
</g>
<!-- Node17&#45;&gt;Node17 -->
<g id="edge29_Node000017_Node000017" class="edge">
<title>Node17&#45;&gt;Node17</title>
<g id="a_edge29_Node000017_Node000017"><a xlink:title=" ">
<path fill="none" stroke="#63b8ff" d="M655.91,-43.71C650.55,-47.48 639.83,-50 623.75,-50 594.35,-50 582.86,-41.58 589.29,-32.44"/>
<polygon fill="#63b8ff" stroke="#63b8ff" points="659.34,-44.42 657.9,-33.93 652.48,-43.03 659.34,-44.42"/>
</a>
</g>
</g>
</g>
</svg>

<g id="navigator" transform="translate(0 0)" fill="#404254">
  <rect fill="#f2f5e9" fill-opacity="0.5" stroke="#606060" stroke-width=".5" x="0" y="0" width="60" height="60"/>
  <use id="zoomplus" xlink:href="#zoomPlus" x="17" y="9" onmousedown="handleZoom(evt,'in')"/>
  <use id="zoomminus" xlink:href="#zoomMin" x="42" y="9" onmousedown="handleZoom(evt,'out')"/>
  <use id="reset" xlink:href="#resetDef" x="30" y="36" onmousedown="handleReset()"/>
   <use id="arrowup" xlink:href="#arrowUp" x="0" y="0" onmousedown="handlePan(0,-1)"/>
  <use id="arrowright" xlink:href="#arrowRight" x="0" y="0" onmousedown="handlePan(1,0)"/>
  <use id="arrowdown" xlink:href="#arrowDown" x="0" y="0" onmousedown="handlePan(0,1)"/>
  <use id="arrowleft" xlink:href="#arrowLeft" x="0" y="0" onmousedown="handlePan(-1,0)"/>
</g>
<svg viewBox="0 0 15 15" width="100%" height="30px" preserveAspectRatio="xMaxYMin meet">
 <g id="arrow_out" transform="scale(0.3 0.3)">
  <a xlink:href="classdomini_1_1jugadors_1_1_jugador_abd263319ed47cf1469e301659e15dd26_icgraph_org.svg" target="_base">
   <rect id="button" ry="5" rx="5" y="6" x="6" height="38" width="38"
        fill="#f2f5e9" fill-opacity="0.5" stroke="#606060" stroke-width="1.0"/>
   <path id="arrow"
     d="M 11.500037,31.436501 C 11.940474,20.09759 22.043105,11.32322 32.158766,21.979434 L 37.068811,17.246167 C 37.068811,17.246167 37.088388,32 37.088388,32 L 22.160133,31.978069 C 22.160133,31.978069 26.997745,27.140456 26.997745,27.140456 C 18.528582,18.264221 13.291696,25.230495 11.500037,31.436501 z"
     style="fill:#404040;"/>
  </a>
 </g>
</svg>

<style type='text/css'>
<![CDATA[
[data-mouse-over-selected='false'] { opacity: 0.7; }
[data-mouse-over-selected='true']  { opacity: 1.0; }
]]>
</style>
<script type="application/ecmascript"><![CDATA[
document.addEventListener('DOMContentLoaded', (event) => {
  highlightEdges();
  highlightAdjacentNodes();
});
]]></script>
</svg>
