<?xml version="1.0" encoding="UTF-8" standalone="no"?>
<!DOCTYPE svg PUBLIC "-//W3C//DTD SVG 1.1//EN"
 "http://www.w3.org/Graphics/SVG/1.1/DTD/svg11.dtd">
<!-- Generated by graphviz version 12.2.1 (20241206.2353)
 -->
<!-- Title: domini.scrabble.Partida.ferJugadaMaquina Pages: 1 -->
<svg width="533pt" height="403pt"
 viewBox="0.00 0.00 533.00 403.00" xmlns="http://www.w3.org/2000/svg" xmlns:xlink="http://www.w3.org/1999/xlink">
<g id="graph0" class="graph" transform="scale(1 1) rotate(0) translate(4 399)">
<title>domini.scrabble.Partida.ferJugadaMaquina</title>
<!-- Node1 -->
<g id="Node000001" class="node">
<title>Node1</title>
<g id="a_Node000001"><a xlink:title="Permet que la màquina faci una jugada.">
<polygon fill="#999999" stroke="#666666" points="132.25,-220 0,-220 0,-188 132.25,-188 132.25,-220"/>
<text text-anchor="start" x="8" y="-206.5" font-family="Helvetica,sans-Serif" font-size="10.00">domini.scrabble.Partida.fer</text>
<text text-anchor="middle" x="66.12" y="-194.5" font-family="Helvetica,sans-Serif" font-size="10.00">JugadaMaquina</text>
</a>
</g>
</g>
<!-- Node2 -->
<g id="Node000002" class="node">
<title>Node2</title>
<g id="a_Node000002"><a xlink:href="classdomini_1_1auxiliars_1_1_max_word.html#a2a660cde78271d94556bf18205b4c14b" target="_top" xlink:title="Obté les coordenades inicials de la paraula.">
<polygon fill="white" stroke="#666666" points="326.38,-395 182.12,-395 182.12,-363 326.38,-363 326.38,-395"/>
<text text-anchor="start" x="190.12" y="-381.5" font-family="Helvetica,sans-Serif" font-size="10.00">domini.auxiliars.MaxWord.get</text>
<text text-anchor="middle" x="254.25" y="-369.5" font-family="Helvetica,sans-Serif" font-size="10.00">Coordinates</text>
</a>
</g>
</g>
<!-- Node1&#45;&gt;Node2 -->
<g id="edge1_Node000001_Node000002" class="edge">
<title>Node1&#45;&gt;Node2</title>
<g id="a_edge1_Node000001_Node000002"><a xlink:title=" ">
<path fill="none" stroke="#63b8ff" d="M73.6,-220.28C86.7,-251.12 119.34,-318.2 168.25,-354 169.79,-355.12 171.37,-356.2 173,-357.22"/>
<polygon fill="#63b8ff" stroke="#63b8ff" points="170.95,-360.09 181.4,-361.86 174.33,-353.96 170.95,-360.09"/>
</a>
</g>
</g>
<!-- Node3 -->
<g id="Node000003" class="node">
<title>Node3</title>
<g id="a_Node000003"><a xlink:href="classdomini_1_1auxiliars_1_1_pair.html#af9fc7c6b0fb531c4b59cdb1048897164" target="_top" xlink:title="Obté el primer element de la parella.">
<polygon fill="white" stroke="#666666" points="314.38,-345 194.12,-345 194.12,-313 314.38,-313 314.38,-345"/>
<text text-anchor="start" x="202.12" y="-331.5" font-family="Helvetica,sans-Serif" font-size="10.00">domini.auxiliars.Pair.get</text>
<text text-anchor="middle" x="254.25" y="-319.5" font-family="Helvetica,sans-Serif" font-size="10.00">First</text>
</a>
</g>
</g>
<!-- Node1&#45;&gt;Node3 -->
<g id="edge2_Node000001_Node000003" class="edge">
<title>Node1&#45;&gt;Node3</title>
<g id="a_edge2_Node000001_Node000003"><a xlink:title=" ">
<path fill="none" stroke="#63b8ff" d="M79.32,-220.35C96.68,-242.49 130.61,-281.8 168.25,-304 173.09,-306.86 178.29,-309.41 183.63,-311.68"/>
<polygon fill="#63b8ff" stroke="#63b8ff" points="182.05,-314.82 192.64,-315.17 184.58,-308.3 182.05,-314.82"/>
</a>
</g>
</g>
<!-- Node4 -->
<g id="Node000004" class="node">
<title>Node4</title>
<g id="a_Node000004"><a xlink:href="classdomini_1_1auxiliars_1_1_max_word.html#a1c8e48b92c421fe9103fe9264da0a445" target="_top" xlink:title="Indica si la paraula es col·loca horitzontalment.">
<polygon fill="white" stroke="#666666" points="326.38,-295 182.12,-295 182.12,-263 326.38,-263 326.38,-295"/>
<text text-anchor="start" x="190.12" y="-281.5" font-family="Helvetica,sans-Serif" font-size="10.00">domini.auxiliars.MaxWord.get</text>
<text text-anchor="middle" x="254.25" y="-269.5" font-family="Helvetica,sans-Serif" font-size="10.00">Horizontal</text>
</a>
</g>
</g>
<!-- Node1&#45;&gt;Node4 -->
<g id="edge3_Node000001_Node000004" class="edge">
<title>Node1&#45;&gt;Node4</title>
<g id="a_edge3_Node000001_Node000004"><a xlink:title=" ">
<path fill="none" stroke="#63b8ff" d="M96.6,-220.27C116.45,-230.8 143.44,-244.3 168.25,-254 172.6,-255.7 177.12,-257.35 181.7,-258.94"/>
<polygon fill="#63b8ff" stroke="#63b8ff" points="180.42,-262.2 191.01,-262.04 182.63,-255.56 180.42,-262.2"/>
</a>
</g>
</g>
<!-- Node5 -->
<g id="Node000005" class="node">
<title>Node5</title>
<g id="a_Node000005"><a xlink:href="classdomini_1_1auxiliars_1_1_max_word.html#a095b18721ed654f8c136b6fd2b9a4f6d" target="_top" xlink:title="Obté la puntuació de la paraula.">
<polygon fill="white" stroke="#666666" points="326.38,-245 182.12,-245 182.12,-213 326.38,-213 326.38,-245"/>
<text text-anchor="start" x="190.12" y="-231.5" font-family="Helvetica,sans-Serif" font-size="10.00">domini.auxiliars.MaxWord.get</text>
<text text-anchor="middle" x="254.25" y="-219.5" font-family="Helvetica,sans-Serif" font-size="10.00">Points</text>
</a>
</g>
</g>
<!-- Node1&#45;&gt;Node5 -->
<g id="edge4_Node000001_Node000005" class="edge">
<title>Node1&#45;&gt;Node5</title>
<g id="a_edge4_Node000001_Node000005"><a xlink:title=" ">
<path fill="none" stroke="#63b8ff" d="M132.75,-212.81C145.05,-214.47 158.06,-216.21 170.8,-217.92"/>
<polygon fill="#63b8ff" stroke="#63b8ff" points="170.02,-221.35 180.4,-219.21 170.95,-214.41 170.02,-221.35"/>
</a>
</g>
</g>
<!-- Node6 -->
<g id="Node000006" class="node">
<title>Node6</title>
<g id="a_Node000006"><a xlink:href="classdomini_1_1auxiliars_1_1_pair.html#af70cd15a3a6fe17c25fbae3a08955565" target="_top" xlink:title="Obté el segon element de la parella.">
<polygon fill="white" stroke="#666666" points="314.38,-195 194.12,-195 194.12,-163 314.38,-163 314.38,-195"/>
<text text-anchor="start" x="202.12" y="-181.5" font-family="Helvetica,sans-Serif" font-size="10.00">domini.auxiliars.Pair.get</text>
<text text-anchor="middle" x="254.25" y="-169.5" font-family="Helvetica,sans-Serif" font-size="10.00">Second</text>
</a>
</g>
</g>
<!-- Node1&#45;&gt;Node6 -->
<g id="edge5_Node000001_Node000006" class="edge">
<title>Node1&#45;&gt;Node6</title>
<g id="a_edge5_Node000001_Node000006"><a xlink:title=" ">
<path fill="none" stroke="#63b8ff" d="M132.75,-195.19C148.9,-193.02 166.27,-190.68 182.65,-188.48"/>
<polygon fill="#63b8ff" stroke="#63b8ff" points="182.86,-191.99 192.31,-187.19 181.93,-185.05 182.86,-191.99"/>
</a>
</g>
</g>
<!-- Node7 -->
<g id="Node000007" class="node">
<title>Node7</title>
<g id="a_Node000007"><a xlink:href="classdomini_1_1auxiliars_1_1_max_word.html#a07441570f5c2eb514c56c2c6c75b7ac1" target="_top" xlink:title="Obté la llista de fitxes que formen la paraula.">
<polygon fill="white" stroke="#666666" points="337.62,-145 170.88,-145 170.88,-125 337.62,-125 337.62,-145"/>
<text text-anchor="middle" x="254.25" y="-131.5" font-family="Helvetica,sans-Serif" font-size="10.00">domini.auxiliars.MaxWord.getWord</text>
</a>
</g>
</g>
<!-- Node1&#45;&gt;Node7 -->
<g id="edge6_Node000001_Node000007" class="edge">
<title>Node1&#45;&gt;Node7</title>
<g id="a_edge6_Node000001_Node000007"><a xlink:title=" ">
<path fill="none" stroke="#63b8ff" d="M95.53,-187.66C115.37,-176.83 142.77,-163 168.25,-154 174.04,-151.95 180.14,-150.08 186.29,-148.37"/>
<polygon fill="#63b8ff" stroke="#63b8ff" points="187.12,-151.77 195.92,-145.86 185.36,-145 187.12,-151.77"/>
</a>
</g>
</g>
<!-- Node8 -->
<g id="Node000008" class="node">
<title>Node8</title>
<g id="a_Node000008"><a xlink:href="classdomini_1_1scrabble_1_1_partida.html#a21e4ecd48709ee5226d73689062017ee" target="_top" xlink:title="Incrementa la puntuació de la partida per al jugador actual.">
<polygon fill="white" stroke="#666666" points="340.25,-107 168.25,-107 168.25,-75 340.25,-75 340.25,-107"/>
<text text-anchor="start" x="176.25" y="-93.5" font-family="Helvetica,sans-Serif" font-size="10.00">domini.scrabble.Partida.incrementar</text>
<text text-anchor="middle" x="254.25" y="-81.5" font-family="Helvetica,sans-Serif" font-size="10.00">_puntuacio_partida</text>
</a>
</g>
</g>
<!-- Node1&#45;&gt;Node8 -->
<g id="edge7_Node000001_Node000008" class="edge">
<title>Node1&#45;&gt;Node8</title>
<g id="a_edge7_Node000001_Node000008"><a xlink:title=" ">
<path fill="none" stroke="#63b8ff" d="M81.62,-187.66C99.95,-167.96 133.35,-135.12 168.25,-116 170.94,-114.53 173.73,-113.13 176.58,-111.81"/>
<polygon fill="#63b8ff" stroke="#63b8ff" points="177.89,-115.06 185.74,-107.94 175.16,-108.61 177.89,-115.06"/>
</a>
</g>
</g>
<!-- Node9 -->
<g id="Node000009" class="node">
<title>Node9</title>
<g id="a_Node000009"><a xlink:href="classdomini_1_1scrabble_1_1_partida.html#abaa5693ea1ae1d5b396c3c510f66969b" target="_top" xlink:title="Reomple les fitxes d&#39;un jugador fins al màxim permès.">
<polygon fill="white" stroke="#666666" points="332,-57 176.5,-57 176.5,-25 332,-25 332,-57"/>
<text text-anchor="start" x="184.5" y="-43.5" font-family="Helvetica,sans-Serif" font-size="10.00">domini.scrabble.Partida.reomplir</text>
<text text-anchor="middle" x="254.25" y="-31.5" font-family="Helvetica,sans-Serif" font-size="10.00">FitxesJugador</text>
</a>
</g>
</g>
<!-- Node1&#45;&gt;Node9 -->
<g id="edge8_Node000001_Node000009" class="edge">
<title>Node1&#45;&gt;Node9</title>
<g id="a_edge8_Node000001_Node000009"><a xlink:title=" ">
<path fill="none" stroke="#63b8ff" d="M74.61,-187.68C88.73,-158.74 122.07,-98.43 168.25,-66 169.85,-64.88 171.5,-63.8 173.2,-62.77"/>
<polygon fill="#63b8ff" stroke="#63b8ff" points="174.77,-65.9 181.95,-58.11 171.48,-59.72 174.77,-65.9"/>
</a>
</g>
</g>
<!-- Node10 -->
<g id="Node000010" class="node">
<title>Node10</title>
<g id="a_Node000010"><a xlink:href="classdomini_1_1jugadors_1_1_jugador.html#a28fa4b7dcf1f5eabdc608591e61509ae" target="_top" xlink:title="El jugador afegeix una fitxa a la seva llista de fitxes.">
<polygon fill="white" stroke="#666666" points="525,-82 376.25,-82 376.25,-50 525,-50 525,-82"/>
<text text-anchor="start" x="384.25" y="-68.5" font-family="Helvetica,sans-Serif" font-size="10.00">domini.jugadors.Jugador.afegir</text>
<text text-anchor="middle" x="450.62" y="-56.5" font-family="Helvetica,sans-Serif" font-size="10.00">Fitxa</text>
</a>
</g>
</g>
<!-- Node9&#45;&gt;Node10 -->
<g id="edge9_Node000009_Node000010" class="edge">
<title>Node9&#45;&gt;Node10</title>
<g id="a_edge9_Node000009_Node000010"><a xlink:title=" ">
<path fill="none" stroke="#63b8ff" d="M332.35,-50.92C342.97,-52.28 353.93,-53.69 364.68,-55.07"/>
<polygon fill="#63b8ff" stroke="#63b8ff" points="363.92,-58.51 374.28,-56.31 364.81,-51.56 363.92,-58.51"/>
</a>
</g>
</g>
<!-- Node11 -->
<g id="Node000011" class="node">
<title>Node11</title>
<g id="a_Node000011"><a xlink:href="classdomini_1_1jugadors_1_1_jugador.html#acf9520ec234c3f2cc52e1b79b85a008e" target="_top" xlink:title="Retorna la llista amb les fitxes actuals del jugador.">
<polygon fill="white" stroke="#666666" points="519.75,-32 381.5,-32 381.5,0 519.75,0 519.75,-32"/>
<text text-anchor="start" x="389.5" y="-18.5" font-family="Helvetica,sans-Serif" font-size="10.00">domini.jugadors.Jugador.get</text>
<text text-anchor="middle" x="450.62" y="-6.5" font-family="Helvetica,sans-Serif" font-size="10.00">Fitxes_actuals</text>
</a>
</g>
</g>
<!-- Node9&#45;&gt;Node11 -->
<g id="edge10_Node000009_Node000011" class="edge">
<title>Node9&#45;&gt;Node11</title>
<g id="a_edge10_Node000009_Node000011"><a xlink:title=" ">
<path fill="none" stroke="#63b8ff" d="M332.35,-31.08C344.69,-29.5 357.47,-27.85 369.87,-26.26"/>
<polygon fill="#63b8ff" stroke="#63b8ff" points="370.14,-29.75 379.62,-25 369.25,-22.81 370.14,-29.75"/>
</a>
</g>
</g>
</g>
</svg>
