<?xml version="1.0" encoding="UTF-8" standalone="no"?>
<!DOCTYPE svg PUBLIC "-//W3C//DTD SVG 1.1//EN"
 "http://www.w3.org/Graphics/SVG/1.1/DTD/svg11.dtd">
<!-- Generated by graphviz version 12.2.1 (20241206.2353)
 -->
<!-- Title: interficie.VistaCanviTorn Pages: 1 -->
<svg width="123pt" height="340pt"
 viewBox="0.00 0.00 122.50 340.00" xmlns="http://www.w3.org/2000/svg" xmlns:xlink="http://www.w3.org/1999/xlink">
<g id="graph0" class="graph" transform="scale(1 1) rotate(0) translate(4 336)">
<title>interficie.VistaCanviTorn</title>
<!-- Node1 -->
<g id="Node000001" class="node">
<title>Node1</title>
<g id="a_Node000001"><a xlink:title="Mostra una finestra indicant que un jugador ha de passar el dispositiu a un altre.">
<polygon fill="#999999" stroke="none" points="114.5,-244 0,-244 0,0 114.5,0 114.5,-244"/>
<text text-anchor="start" x="4" y="-230.5" font-family="Helvetica,sans-Serif" font-size="10.00">interficie.VistaCanviTorn</text>
<text text-anchor="start" x="6.38" y="-214.5" font-family="Helvetica,sans-Serif" font-size="10.00">&#45;</text>
<text text-anchor="start" x="15.75" y="-214.5" font-family="Helvetica,sans-Serif" font-size="10.00">panellPrincipal</text>
<text text-anchor="start" x="6.38" y="-198.5" font-family="Helvetica,sans-Serif" font-size="10.00">&#45;</text>
<text text-anchor="start" x="15.75" y="-198.5" font-family="Helvetica,sans-Serif" font-size="10.00">labelTop</text>
<text text-anchor="start" x="6.38" y="-182.5" font-family="Helvetica,sans-Serif" font-size="10.00">&#45;</text>
<text text-anchor="start" x="15.75" y="-182.5" font-family="Helvetica,sans-Serif" font-size="10.00">labelBottom</text>
<text text-anchor="start" x="6.38" y="-166.5" font-family="Helvetica,sans-Serif" font-size="10.00">&#45;</text>
<text text-anchor="start" x="15.75" y="-166.5" font-family="Helvetica,sans-Serif" font-size="10.00">labelLogo</text>
<text text-anchor="start" x="6.38" y="-150.5" font-family="Helvetica,sans-Serif" font-size="10.00">&#45;</text>
<text text-anchor="start" x="15.75" y="-150.5" font-family="Helvetica,sans-Serif" font-size="10.00">btnOkay</text>
<text text-anchor="start" x="6.38" y="-134.5" font-family="Helvetica,sans-Serif" font-size="10.00">&#45;</text>
<text text-anchor="start" x="15.75" y="-134.5" font-family="Helvetica,sans-Serif" font-size="10.00">imatgeLogo</text>
<text text-anchor="start" x="6.38" y="-118.5" font-family="Helvetica,sans-Serif" font-size="10.00">&#45;</text>
<text text-anchor="start" x="15.75" y="-118.5" font-family="Helvetica,sans-Serif" font-size="10.00">MARGIN</text>
<text text-anchor="start" x="6.38" y="-102.5" font-family="Helvetica,sans-Serif" font-size="10.00">&#45;</text>
<text text-anchor="start" x="15.75" y="-102.5" font-family="Helvetica,sans-Serif" font-size="10.00">LOGO_WIDTH</text>
<text text-anchor="start" x="6.38" y="-86.5" font-family="Helvetica,sans-Serif" font-size="10.00">&#45;</text>
<text text-anchor="start" x="15.75" y="-86.5" font-family="Helvetica,sans-Serif" font-size="10.00">LOGO_HEIGHT</text>
<text text-anchor="start" x="6.38" y="-70.5" font-family="Helvetica,sans-Serif" font-size="10.00">&#45;</text>
<text text-anchor="start" x="15.75" y="-70.5" font-family="Helvetica,sans-Serif" font-size="10.00">WIDTH_BASE</text>
<text text-anchor="start" x="6.38" y="-54.5" font-family="Helvetica,sans-Serif" font-size="10.00">&#45;</text>
<text text-anchor="start" x="15.75" y="-54.5" font-family="Helvetica,sans-Serif" font-size="10.00">HEIGHT_BASE</text>
<text text-anchor="start" x="6.38" y="-38.5" font-family="Helvetica,sans-Serif" font-size="10.00">&#45;</text>
<text text-anchor="start" x="15.75" y="-38.5" font-family="Helvetica,sans-Serif" font-size="10.00">ctrlPresentacio</text>
<text text-anchor="start" x="4.88" y="-22.5" font-family="Helvetica,sans-Serif" font-size="10.00">+</text>
<text text-anchor="start" x="15.75" y="-22.5" font-family="Helvetica,sans-Serif" font-size="10.00">VistaCanviTorn()</text>
<text text-anchor="start" x="6.38" y="-6.5" font-family="Helvetica,sans-Serif" font-size="10.00">&#45;</text>
<text text-anchor="start" x="15.75" y="-6.5" font-family="Helvetica,sans-Serif" font-size="10.00">escalarComponents()</text>
<polygon fill="#666666" stroke="#666666" points="0,-226 0,-226 114.5,-226 114.5,-226 0,-226"/>
<polygon fill="#666666" stroke="#666666" points="0,-34 0,-34 13.75,-34 13.75,-34 0,-34"/>
<polygon fill="#666666" stroke="#666666" points="13.75,-34 13.75,-34 114.5,-34 114.5,-34 13.75,-34"/>
<polygon fill="none" stroke="#666666" points="0,0 0,-244 114.5,-244 114.5,0 0,0"/>
</a>
</g>
</g>
<!-- Node2 -->
<g id="Node000002" class="node">
<title>Node2</title>
<g id="a_Node000002"><a xlink:title=" ">
<polygon fill="white" stroke="none" points="77.75,-332 36.75,-332 36.75,-280 77.75,-280 77.75,-332"/>
<text text-anchor="start" x="40.75" y="-318.5" font-family="Helvetica,sans-Serif" font-size="10.00">JFrame</text>
<text text-anchor="start" x="55.75" y="-302.5" font-family="Helvetica,sans-Serif" font-size="10.00"> </text>
<text text-anchor="start" x="55.75" y="-286.5" font-family="Helvetica,sans-Serif" font-size="10.00"> </text>
<polygon fill="#666666" stroke="#666666" points="36.75,-314 36.75,-314 77.75,-314 77.75,-314 36.75,-314"/>
<polygon fill="#666666" stroke="#666666" points="36.75,-298 36.75,-298 77.75,-298 77.75,-298 36.75,-298"/>
<polygon fill="none" stroke="#666666" points="36.75,-280 36.75,-332 77.75,-332 77.75,-280 36.75,-280"/>
</a>
</g>
</g>
<!-- Node2&#45;&gt;Node1 -->
<g id="edge1_Node000001_Node000002" class="edge">
<title>Node2&#45;&gt;Node1</title>
<g id="a_edge1_Node000001_Node000002"><a xlink:title=" ">
<path fill="none" stroke="#63b8ff" d="M57.25,-268.58C57.25,-261.04 57.25,-252.72 57.25,-243.98"/>
<polygon fill="none" stroke="#63b8ff" points="53.75,-268.56 57.25,-278.56 60.75,-268.56 53.75,-268.56"/>
</a>
</g>
</g>
</g>
</svg>
