<?xml version="1.0" encoding="UTF-8" standalone="no"?>
<!DOCTYPE svg PUBLIC "-//W3C//DTD SVG 1.1//EN"
 "http://www.w3.org/Graphics/SVG/1.1/DTD/svg11.dtd">
<!-- Generated by graphviz version 12.2.1 (20241206.2353)
 -->
<!-- Title: domini.scrabble.Bossa Pages: 1 -->
<!--zoomable 492 -->

<svg id="main" version="1.1" xmlns="http://www.w3.org/2000/svg" xmlns:xlink="http://www.w3.org/1999/xlink" xml:space="preserve" onload="init(evt)">

<style type="text/css"><![CDATA[
.node, .edge {opacity: 0.7;}
.node.selected, .edge.selected {opacity: 1;}
.edge:hover path { stroke: red; }
.edge:hover polygon { stroke: red; fill: red; }
]]></style>

<defs>
  <circle id="rim" cx="0" cy="0" r="7"/>
  <circle id="rim2" cx="0" cy="0" r="3.5"/>
  <g id="zoomPlus">
    <use xlink:href="#rim" fill="#404040"><set attributeName="fill" to="#808080" begin="zoomplus.mouseover" end="zoomplus.mouseout"/></use>
    <path d="M-4,0h8M0,-4v8" fill="none" stroke="white" stroke-width="1.5" pointer-events="none"/>
  </g>
  <g id="zoomMin">
    <use xlink:href="#rim" fill="#404040"><set attributeName="fill" to="#808080" begin="zoomminus.mouseover" end="zoomminus.mouseout"/></use>
    <path d="M-4,0h8" fill="none" stroke="white" stroke-width="1.5" pointer-events="none"/>
  </g>
  <g id="arrowUp" transform="translate(30 24)">
    <use xlink:href="#rim"/>
    <path pointer-events="none" fill="none" stroke="white" stroke-width="1.5" d="M0,-3.0v7 M-2.5,-0.5L0,-3.0L2.5,-0.5"/>
  </g>
  <g id="arrowRight" transform="rotate(90) translate(36 -43)">
    <use xlink:href="#rim"/>
    <path pointer-events="none" fill="none" stroke="white" stroke-width="1.5" d="M0,-3.0v7 M-2.5,-0.5L0,-3.0L2.5,-0.5"/>
  </g>
  <g id="arrowDown" transform="rotate(180) translate(-30 -48)">
    <use xlink:href="#rim"/>
    <path pointer-events="none" fill="none" stroke="white" stroke-width="1.5" d="M0,-3.0v7 M-2.5,-0.5L0,-3.0L2.5,-0.5"/>
  </g>
  <g id="arrowLeft" transform="rotate(270) translate(-36 17)">
    <use xlink:href="#rim"/>
    <path pointer-events="none" fill="none" stroke="white" stroke-width="1.5" d="M0,-3.0v7 M-2.5,-0.5L0,-3.0L2.5,-0.5"/>
  </g>
  <g id="resetDef">
    <use xlink:href="#rim2" fill="#404040"><set attributeName="fill" to="#808080" begin="reset.mouseover" end="reset.mouseout"/></use>
  </g>
</defs>
<script type="application/ecmascript">
var viewWidth = 143;
var viewHeight = 492;
var sectionId = 'dynsection-0';
</script>
<script type="application/ecmascript" xlink:href="svg.min.js"/>
<svg id="graph" class="graph">
<g id="viewport">
<title>domini.scrabble.Bossa</title>
<!-- Node1 -->
<g id="Node000001" class="node">
<title>Node1</title>
<g id="a_Node000001"><a xlink:title="Representa la bossa de fitxes d&#39;Scrabble.">
<polygon fill="#999999" stroke="none" points="120.88,-180 13.88,-180 13.88,0 120.88,0 120.88,-180"/>
<text text-anchor="start" x="17.88" y="-166.5" font-family="Helvetica,sans-Serif" font-size="10.00">domini.scrabble.Bossa</text>
<text text-anchor="start" x="21.75" y="-150.5" font-family="Helvetica,sans-Serif" font-size="10.00">&#45;</text>
<text text-anchor="start" x="32.62" y="-150.5" font-family="Helvetica,sans-Serif" font-size="10.00">mapaPuntuacions</text>
<text text-anchor="start" x="20.25" y="-134.5" font-family="Helvetica,sans-Serif" font-size="10.00">+</text>
<text text-anchor="start" x="32.62" y="-134.5" font-family="Helvetica,sans-Serif" font-size="10.00">Bossa()</text>
<text text-anchor="start" x="20.25" y="-118.5" font-family="Helvetica,sans-Serif" font-size="10.00">+</text>
<text text-anchor="start" x="32.62" y="-118.5" font-family="Helvetica,sans-Serif" font-size="10.00">obtenirPuntuacio()</text>
<text text-anchor="start" x="20.25" y="-102.5" font-family="Helvetica,sans-Serif" font-size="10.00">+</text>
<text text-anchor="start" x="32.62" y="-102.5" font-family="Helvetica,sans-Serif" font-size="10.00">getIdFitxa()</text>
<text text-anchor="start" x="20.25" y="-86.5" font-family="Helvetica,sans-Serif" font-size="10.00">+</text>
<text text-anchor="start" x="32.62" y="-86.5" font-family="Helvetica,sans-Serif" font-size="10.00">agafarFitxa()</text>
<text text-anchor="start" x="20.25" y="-70.5" font-family="Helvetica,sans-Serif" font-size="10.00">+</text>
<text text-anchor="start" x="32.62" y="-70.5" font-family="Helvetica,sans-Serif" font-size="10.00">carregarFitxes()</text>
<text text-anchor="start" x="20.25" y="-54.5" font-family="Helvetica,sans-Serif" font-size="10.00">+</text>
<text text-anchor="start" x="32.62" y="-54.5" font-family="Helvetica,sans-Serif" font-size="10.00">clearBossa()</text>
<text text-anchor="start" x="20.25" y="-38.5" font-family="Helvetica,sans-Serif" font-size="10.00">+</text>
<text text-anchor="start" x="32.62" y="-38.5" font-family="Helvetica,sans-Serif" font-size="10.00">getMidaBossa()</text>
<text text-anchor="start" x="20.25" y="-22.5" font-family="Helvetica,sans-Serif" font-size="10.00">+</text>
<text text-anchor="start" x="32.62" y="-22.5" font-family="Helvetica,sans-Serif" font-size="10.00">afegirFitxaBossa()</text>
<text text-anchor="start" x="20.25" y="-6.5" font-family="Helvetica,sans-Serif" font-size="10.00">+</text>
<text text-anchor="start" x="32.62" y="-6.5" font-family="Helvetica,sans-Serif" font-size="10.00">getFitxes()</text>
<polygon fill="#666666" stroke="#666666" points="13.88,-162 13.88,-162 120.88,-162 120.88,-162 13.88,-162"/>
<polygon fill="#666666" stroke="#666666" points="13.88,-146 13.88,-146 30.62,-146 30.62,-146 13.88,-146"/>
<polygon fill="#666666" stroke="#666666" points="30.62,-146 30.62,-146 120.88,-146 120.88,-146 30.62,-146"/>
<polygon fill="none" stroke="#666666" points="13.88,0 13.88,-180 120.88,-180 120.88,0 13.88,0"/>
</a>
</g>
</g>
<!-- Node2 -->
<g id="Node000002" class="node">
<title>Node2</title>
<g id="a_Node000002"><a xlink:href="classdomini_1_1auxiliars_1_1_fast_delete_list.html" target="_top" xlink:title=" ">
<polygon fill="white" stroke="none" points="134.75,-484 0,-484 0,-228 134.75,-228 134.75,-484"/>
<text text-anchor="start" x="4" y="-470.5" font-family="Helvetica,sans-Serif" font-size="10.00">domini.auxiliars.FastDelete</text>
<text text-anchor="start" x="4" y="-458.5" font-family="Helvetica,sans-Serif" font-size="10.00">List&lt; domini.scrabble.Fitxa &gt;</text>
<text text-anchor="start" x="15.38" y="-442.5" font-family="Helvetica,sans-Serif" font-size="10.00">&#45;</text>
<text text-anchor="start" x="33.75" y="-442.5" font-family="Helvetica,sans-Serif" font-size="10.00">list</text>
<text text-anchor="start" x="15.38" y="-426.5" font-family="Helvetica,sans-Serif" font-size="10.00">&#45;</text>
<text text-anchor="start" x="33.75" y="-426.5" font-family="Helvetica,sans-Serif" font-size="10.00">indexMap</text>
<text text-anchor="start" x="13.88" y="-410.5" font-family="Helvetica,sans-Serif" font-size="10.00">+</text>
<text text-anchor="start" x="33.75" y="-410.5" font-family="Helvetica,sans-Serif" font-size="10.00">FastDeleteList()</text>
<text text-anchor="start" x="13.88" y="-394.5" font-family="Helvetica,sans-Serif" font-size="10.00">+</text>
<text text-anchor="start" x="33.75" y="-394.5" font-family="Helvetica,sans-Serif" font-size="10.00">add()</text>
<text text-anchor="start" x="13.88" y="-378.5" font-family="Helvetica,sans-Serif" font-size="10.00">+</text>
<text text-anchor="start" x="33.75" y="-378.5" font-family="Helvetica,sans-Serif" font-size="10.00">remove()</text>
<text text-anchor="start" x="13.88" y="-362.5" font-family="Helvetica,sans-Serif" font-size="10.00">+</text>
<text text-anchor="start" x="33.75" y="-362.5" font-family="Helvetica,sans-Serif" font-size="10.00">addAll()</text>
<text text-anchor="start" x="13.88" y="-346.5" font-family="Helvetica,sans-Serif" font-size="10.00">+</text>
<text text-anchor="start" x="33.75" y="-346.5" font-family="Helvetica,sans-Serif" font-size="10.00">removeAt()</text>
<text text-anchor="start" x="13.88" y="-330.5" font-family="Helvetica,sans-Serif" font-size="10.00">+</text>
<text text-anchor="start" x="33.75" y="-330.5" font-family="Helvetica,sans-Serif" font-size="10.00">get()</text>
<text text-anchor="start" x="13.88" y="-314.5" font-family="Helvetica,sans-Serif" font-size="10.00">+</text>
<text text-anchor="start" x="33.75" y="-314.5" font-family="Helvetica,sans-Serif" font-size="10.00">clear()</text>
<text text-anchor="start" x="13.88" y="-298.5" font-family="Helvetica,sans-Serif" font-size="10.00">+</text>
<text text-anchor="start" x="33.75" y="-298.5" font-family="Helvetica,sans-Serif" font-size="10.00">size()</text>
<text text-anchor="start" x="13.88" y="-282.5" font-family="Helvetica,sans-Serif" font-size="10.00">+</text>
<text text-anchor="start" x="33.75" y="-282.5" font-family="Helvetica,sans-Serif" font-size="10.00">isEmpty()</text>
<text text-anchor="start" x="13.88" y="-266.5" font-family="Helvetica,sans-Serif" font-size="10.00">+</text>
<text text-anchor="start" x="33.75" y="-266.5" font-family="Helvetica,sans-Serif" font-size="10.00">contains()</text>
<text text-anchor="start" x="13.88" y="-250.5" font-family="Helvetica,sans-Serif" font-size="10.00">+</text>
<text text-anchor="start" x="33.75" y="-250.5" font-family="Helvetica,sans-Serif" font-size="10.00">toString()</text>
<text text-anchor="start" x="13.88" y="-234.5" font-family="Helvetica,sans-Serif" font-size="10.00">+</text>
<text text-anchor="start" x="33.75" y="-234.5" font-family="Helvetica,sans-Serif" font-size="10.00">rebuildIndexMap()</text>
<polygon fill="#666666" stroke="#666666" points="0,-454 0,-454 134.75,-454 134.75,-454 0,-454"/>
<polygon fill="#666666" stroke="#666666" points="0,-422 0,-422 31.75,-422 31.75,-422 0,-422"/>
<polygon fill="#666666" stroke="#666666" points="31.75,-422 31.75,-422 134.75,-422 134.75,-422 31.75,-422"/>
<polygon fill="none" stroke="#666666" points="0,-228 0,-484 134.75,-484 134.75,-228 0,-228"/>
</a>
</g>
</g>
<!-- Node2&#45;&gt;Node1 -->
<g id="edge1_Node000001_Node000002" class="edge">
<title>Node2&#45;&gt;Node1</title>
<g id="a_edge1_Node000001_Node000002"><a xlink:title=" ">
<path fill="none" stroke="#63b8ff" d="M67.38,-228.03C67.38,-216.22 67.38,-204.36 67.38,-192.83"/>
<polygon fill="none" stroke="#63b8ff" points="67.38,-192.87 63.38,-186.87 67.38,-180.87 71.38,-186.87 67.38,-192.87"/>
</a>
</g>
<text text-anchor="middle" x="82.38" y="-200.5" font-family="Helvetica,sans-Serif" font-size="10.00" fill="grey"> &#45;fitxes</text>
</g>
</g>
</svg>

<g id="navigator" transform="translate(0 0)" fill="#404254">
  <rect fill="#f2f5e9" fill-opacity="0.5" stroke="#606060" stroke-width=".5" x="0" y="0" width="60" height="60"/>
  <use id="zoomplus" xlink:href="#zoomPlus" x="17" y="9" onmousedown="handleZoom(evt,'in')"/>
  <use id="zoomminus" xlink:href="#zoomMin" x="42" y="9" onmousedown="handleZoom(evt,'out')"/>
  <use id="reset" xlink:href="#resetDef" x="30" y="36" onmousedown="handleReset()"/>
   <use id="arrowup" xlink:href="#arrowUp" x="0" y="0" onmousedown="handlePan(0,-1)"/>
  <use id="arrowright" xlink:href="#arrowRight" x="0" y="0" onmousedown="handlePan(1,0)"/>
  <use id="arrowdown" xlink:href="#arrowDown" x="0" y="0" onmousedown="handlePan(0,1)"/>
  <use id="arrowleft" xlink:href="#arrowLeft" x="0" y="0" onmousedown="handlePan(-1,0)"/>
</g>
<svg viewBox="0 0 15 15" width="100%" height="30px" preserveAspectRatio="xMaxYMin meet">
 <g id="arrow_out" transform="scale(0.3 0.3)">
  <a xlink:href="classdomini_1_1scrabble_1_1_bossa__coll__graph_org.svg" target="_base">
   <rect id="button" ry="5" rx="5" y="6" x="6" height="38" width="38"
        fill="#f2f5e9" fill-opacity="0.5" stroke="#606060" stroke-width="1.0"/>
   <path id="arrow"
     d="M 11.500037,31.436501 C 11.940474,20.09759 22.043105,11.32322 32.158766,21.979434 L 37.068811,17.246167 C 37.068811,17.246167 37.088388,32 37.088388,32 L 22.160133,31.978069 C 22.160133,31.978069 26.997745,27.140456 26.997745,27.140456 C 18.528582,18.264221 13.291696,25.230495 11.500037,31.436501 z"
     style="fill:#404040;"/>
  </a>
 </g>
</svg>

<style type='text/css'>
<![CDATA[
[data-mouse-over-selected='false'] { opacity: 0.7; }
[data-mouse-over-selected='true']  { opacity: 1.0; }
]]>
</style>
<script type="application/ecmascript"><![CDATA[
document.addEventListener('DOMContentLoaded', (event) => {
  highlightEdges();
  highlightAdjacentNodes();
});
]]></script>
</svg>
