<?xml version="1.0" encoding="UTF-8" standalone="no"?>
<!DOCTYPE svg PUBLIC "-//W3C//DTD SVG 1.1//EN"
 "http://www.w3.org/Graphics/SVG/1.1/DTD/svg11.dtd">
<!-- Generated by graphviz version 12.2.1 (20241206.2353)
 -->
<!-- Title: interficie.VistaConsultarNormes.initComponents Pages: 1 -->
<svg width="682pt" height="196pt"
 viewBox="0.00 0.00 681.75 196.00" xmlns="http://www.w3.org/2000/svg" xmlns:xlink="http://www.w3.org/1999/xlink">
<g id="graph0" class="graph" transform="scale(1 1) rotate(0) translate(4 192)">
<title>interficie.VistaConsultarNormes.initComponents</title>
<!-- Node1 -->
<g id="Node000001" class="node">
<title>Node1</title>
<g id="a_Node000001"><a xlink:title="Inicialitza els components gràfics de la vista.">
<polygon fill="#999999" stroke="#666666" points="121.75,-94 0,-94 0,-62 121.75,-62 121.75,-94"/>
<text text-anchor="start" x="8" y="-80.5" font-family="Helvetica,sans-Serif" font-size="10.00">interficie.VistaConsultar</text>
<text text-anchor="middle" x="60.88" y="-68.5" font-family="Helvetica,sans-Serif" font-size="10.00">Normes.initComponents</text>
</a>
</g>
</g>
<!-- Node2 -->
<g id="Node000002" class="node">
<title>Node2</title>
<g id="a_Node000002"><a xlink:href="$classinterficie_1_1utils_1_1_tools.html#aad14ef36a2a433a18d49c46a83531892" xlink:title="Actualitza la imatge d&#39;un JLabel redimensionant&#45;la per adaptar&#45;se a les mides màximes indicades mante...">
<polygon fill="white" stroke="#666666" points="315.5,-188 167.5,-188 167.5,-156 315.5,-156 315.5,-188"/>
<text text-anchor="start" x="175.5" y="-174.5" font-family="Helvetica,sans-Serif" font-size="10.00">interficie.utils.Tools.actualitzar</text>
<text text-anchor="middle" x="241.5" y="-162.5" font-family="Helvetica,sans-Serif" font-size="10.00">Imatge</text>
</a>
</g>
</g>
<!-- Node1&#45;&gt;Node2 -->
<g id="edge1_Node000001_Node000002" class="edge">
<title>Node1&#45;&gt;Node2</title>
<g id="a_edge1_Node000001_Node000002"><a xlink:title=" ">
<path fill="none" stroke="#63b8ff" d="M80.5,-94.29C98.99,-109.73 128.7,-132.66 157.75,-147 160.98,-148.59 164.33,-150.11 167.75,-151.55"/>
<polygon fill="#63b8ff" stroke="#63b8ff" points="166.18,-154.69 176.77,-155.07 168.73,-148.17 166.18,-154.69"/>
</a>
</g>
</g>
<!-- Node3 -->
<g id="Node000003" class="node">
<title>Node3</title>
<g id="a_Node000003"><a xlink:href="$classinterficie_1_1_vista_consultar_normes.html#a88dfdf548beb79bf8b7350c52bf4ac94" xlink:title="Crea un botó estilitzat amb comportament visual quan el ratolí entra i surt.">
<polygon fill="white" stroke="#666666" points="309.88,-138 173.12,-138 173.12,-106 309.88,-106 309.88,-138"/>
<text text-anchor="start" x="181.12" y="-124.5" font-family="Helvetica,sans-Serif" font-size="10.00">interficie.VistaConsultar</text>
<text text-anchor="middle" x="241.5" y="-112.5" font-family="Helvetica,sans-Serif" font-size="10.00">Normes.createStyledButton</text>
</a>
</g>
</g>
<!-- Node1&#45;&gt;Node3 -->
<g id="edge2_Node000001_Node000003" class="edge">
<title>Node1&#45;&gt;Node3</title>
<g id="a_edge2_Node000001_Node000003"><a xlink:title=" ">
<path fill="none" stroke="#63b8ff" d="M121.85,-92.77C134.97,-96 149.03,-99.47 162.73,-102.84"/>
<polygon fill="#63b8ff" stroke="#63b8ff" points="161.59,-106.17 172.14,-105.16 163.27,-99.37 161.59,-106.17"/>
</a>
</g>
</g>
<!-- Node4 -->
<g id="Node000004" class="node">
<title>Node4</title>
<g id="a_Node000004"><a xlink:href="$classcontroladors_1_1_ctrl_presentacio.html#a66901a833c124fd1acc592cea93f4e6d" xlink:title="Torna a la vista anterior a l&#39;actual.">
<polygon fill="white" stroke="#666666" points="325.25,-88 157.75,-88 157.75,-68 325.25,-68 325.25,-88"/>
<text text-anchor="middle" x="241.5" y="-74.5" font-family="Helvetica,sans-Serif" font-size="10.00">controladors.CtrlPresentacio.tornar</text>
</a>
</g>
</g>
<!-- Node1&#45;&gt;Node4 -->
<g id="edge3_Node000001_Node000004" class="edge">
<title>Node1&#45;&gt;Node4</title>
<g id="a_edge3_Node000001_Node000004"><a xlink:title=" ">
<path fill="none" stroke="#63b8ff" d="M121.85,-78C129.73,-78 137.94,-78 146.21,-78"/>
<polygon fill="#63b8ff" stroke="#63b8ff" points="145.99,-81.5 155.99,-78 145.99,-74.5 145.99,-81.5"/>
</a>
</g>
</g>
<!-- Node5 -->
<g id="Node000005" class="node">
<title>Node5</title>
<g id="a_Node000005"><a xlink:href="$classinterficie_1_1_vista_consultar_normes.html#adfd2eba4d3f7f6f2d67a1655b14be2de" xlink:title="Constructora.">
<polygon fill="white" stroke="#666666" points="317.75,-32 165.25,-32 165.25,0 317.75,0 317.75,-32"/>
<text text-anchor="start" x="173.25" y="-18.5" font-family="Helvetica,sans-Serif" font-size="10.00">interficie.VistaConsultar</text>
<text text-anchor="middle" x="241.5" y="-6.5" font-family="Helvetica,sans-Serif" font-size="10.00">Normes.VistaConsultarNormes</text>
</a>
</g>
</g>
<!-- Node1&#45;&gt;Node5 -->
<g id="edge4_Node000001_Node000005" class="edge">
<title>Node1&#45;&gt;Node5</title>
<g id="a_edge4_Node000001_Node000005"><a xlink:title=" ">
<path fill="none" stroke="#63b8ff" d="M93.81,-61.6C113.3,-53.68 139.12,-44.26 163.66,-35.98"/>
<polygon fill="#63b8ff" stroke="#63b8ff" points="164.62,-39.35 173,-32.87 162.41,-32.71 164.62,-39.35"/>
</a>
</g>
</g>
<!-- Node5&#45;&gt;Node1 -->
<g id="edge7_Node000005_Node000001" class="edge">
<title>Node5&#45;&gt;Node1</title>
<g id="a_edge7_Node000005_Node000001"><a xlink:title=" ">
<path fill="none" stroke="#63b8ff" d="M208.5,-32.43C187.37,-41 158.84,-51.34 132.56,-60.08"/>
<polygon fill="#63b8ff" stroke="#63b8ff" points="131.7,-56.68 123.29,-63.13 133.88,-63.33 131.7,-56.68"/>
</a>
</g>
</g>
<!-- Node5&#45;&gt;Node5 -->
<g id="edge8_Node000005_Node000005" class="edge">
<title>Node5&#45;&gt;Node5</title>
<g id="a_edge8_Node000005_Node000005"><a xlink:title=" ">
<path fill="none" stroke="#63b8ff" d="M209.25,-32.44C203.23,-41.58 213.98,-50 241.5,-50 256.55,-50 266.58,-47.48 271.6,-43.71"/>
<polygon fill="#63b8ff" stroke="#63b8ff" points="275.03,-44.41 273.46,-33.93 268.15,-43.1 275.03,-44.41"/>
</a>
</g>
</g>
<!-- Node6 -->
<g id="Node000006" class="node">
<title>Node6</title>
<g id="a_Node000006"><a xlink:href="$classinterficie_1_1_vista_consultar_normes.html#a390ada21ee0f0c9d86ac93df08c5716a" xlink:title="Llegeix les normes des del fitxer de text i les mostra amb estil HTML.">
<polygon fill="white" stroke="#666666" points="484.5,-32 361.25,-32 361.25,0 484.5,0 484.5,-32"/>
<text text-anchor="start" x="369.25" y="-18.5" font-family="Helvetica,sans-Serif" font-size="10.00">interficie.VistaConsultar</text>
<text text-anchor="middle" x="422.88" y="-6.5" font-family="Helvetica,sans-Serif" font-size="10.00">Normes.carregarNormes</text>
</a>
</g>
</g>
<!-- Node5&#45;&gt;Node6 -->
<g id="edge5_Node000005_Node000006" class="edge">
<title>Node5&#45;&gt;Node6</title>
<g id="a_edge5_Node000005_Node000006"><a xlink:title=" ">
<path fill="none" stroke="#63b8ff" d="M318.05,-16C328.42,-16 339.04,-16 349.35,-16"/>
<polygon fill="#63b8ff" stroke="#63b8ff" points="349.31,-19.5 359.31,-16 349.31,-12.5 349.31,-19.5"/>
</a>
</g>
</g>
<!-- Node7 -->
<g id="Node000007" class="node">
<title>Node7</title>
<g id="a_Node000007"><a xlink:href="$classinterficie_1_1_vista_consultar_normes.html#ad1a9a84d1daa2ec0cc320272d3752489" xlink:title="Mostra un missatge HTML alternatiu quan no es troba l&#39;arxiu de normes.">
<polygon fill="white" stroke="#666666" points="673.75,-32 520.5,-32 520.5,0 673.75,0 673.75,-32"/>
<text text-anchor="start" x="528.5" y="-18.5" font-family="Helvetica,sans-Serif" font-size="10.00">interficie.VistaConsultar</text>
<text text-anchor="middle" x="597.12" y="-6.5" font-family="Helvetica,sans-Serif" font-size="10.00">Normes.showFallbackMessage</text>
</a>
</g>
</g>
<!-- Node6&#45;&gt;Node7 -->
<g id="edge6_Node000006_Node000007" class="edge">
<title>Node6&#45;&gt;Node7</title>
<g id="a_edge6_Node000006_Node000007"><a xlink:title=" ">
<path fill="none" stroke="#63b8ff" d="M484.6,-16C492.44,-16 500.58,-16 508.74,-16"/>
<polygon fill="#63b8ff" stroke="#63b8ff" points="508.74,-19.5 518.74,-16 508.74,-12.5 508.74,-19.5"/>
</a>
</g>
</g>
</g>
</svg>
