<?xml version="1.0" encoding="UTF-8" standalone="no"?>
<!DOCTYPE svg PUBLIC "-//W3C//DTD SVG 1.1//EN"
 "http://www.w3.org/Graphics/SVG/1.1/DTD/svg11.dtd">
<!-- Generated by graphviz version 12.2.1 (20241206.2353)
 -->
<!-- Title: interficie.VistaMenuJoc.VistaMenuJoc Pages: 1 -->
<svg width="759pt" height="706pt"
 viewBox="0.00 0.00 759.00 706.11" xmlns="http://www.w3.org/2000/svg" xmlns:xlink="http://www.w3.org/1999/xlink">
<g id="graph0" class="graph" transform="scale(1 1) rotate(0) translate(4 702.11)">
<title>interficie.VistaMenuJoc.VistaMenuJoc</title>
<!-- Node1 -->
<g id="Node000001" class="node">
<title>Node1</title>
<g id="a_Node000001"><a xlink:title="Constructor de la classe VistaMenuJoc.">
<polygon fill="#999999" stroke="#666666" points="121,-357 0,-357 0,-325 121,-325 121,-357"/>
<text text-anchor="start" x="8" y="-343.5" font-family="Helvetica,sans-Serif" font-size="10.00">interficie.VistaMenuJoc.</text>
<text text-anchor="middle" x="60.5" y="-331.5" font-family="Helvetica,sans-Serif" font-size="10.00">VistaMenuJoc</text>
</a>
</g>
</g>
<!-- Node1&#45;&gt;Node1 -->
<g id="edge25_Node000001_Node000001" class="edge">
<title>Node1&#45;&gt;Node1</title>
<g id="a_edge25_Node000001_Node000001"><a xlink:title=" ">
<path fill="none" stroke="#63b8ff" d="M26.98,-357.44C20.72,-366.58 31.9,-375 60.5,-375 76.14,-375 86.57,-372.48 91.79,-368.71"/>
<polygon fill="#63b8ff" stroke="#63b8ff" points="95.22,-369.42 93.72,-358.93 88.35,-368.06 95.22,-369.42"/>
</a>
</g>
</g>
<!-- Node2 -->
<g id="Node000002" class="node">
<title>Node2</title>
<g id="a_Node000002"><a xlink:href="$classinterficie_1_1utils_1_1_tools.html#aad14ef36a2a433a18d49c46a83531892" xlink:title="Actualitza la imatge d&#39;un JLabel redimensionant&#45;la per adaptar&#45;se a les mides màximes indicades mante...">
<polygon fill="white" stroke="#666666" points="541.12,-516 393.12,-516 393.12,-484 541.12,-484 541.12,-516"/>
<text text-anchor="start" x="401.12" y="-502.5" font-family="Helvetica,sans-Serif" font-size="10.00">interficie.utils.Tools.actualitzar</text>
<text text-anchor="middle" x="467.12" y="-490.5" font-family="Helvetica,sans-Serif" font-size="10.00">Imatge</text>
</a>
</g>
</g>
<!-- Node1&#45;&gt;Node2 -->
<g id="edge1_Node000001_Node000002" class="edge">
<title>Node1&#45;&gt;Node2</title>
<g id="a_edge1_Node000001_Node000002"><a xlink:title=" ">
<path fill="none" stroke="#63b8ff" d="M63.74,-357.4C72.36,-417.96 105.56,-627.5 157,-666 221.94,-714.6 266.8,-701.98 339.5,-666 398.47,-636.82 437.47,-565.57 455.18,-526.57"/>
<polygon fill="#63b8ff" stroke="#63b8ff" points="458.28,-528.21 459.09,-517.65 451.87,-525.4 458.28,-528.21"/>
</a>
</g>
</g>
<!-- Node3 -->
<g id="Node000003" class="node">
<title>Node3</title>
<g id="a_Node000003"><a xlink:href="$classcontroladors_1_1_ctrl_presentacio.html#a6d07d9d8fd5d53a00f29b8c4ad566d89" xlink:title="Canvia la vista actual a VistaConsultarAvatars.">
<polygon fill="white" stroke="#666666" points="335.38,-657 161.12,-657 161.12,-625 335.38,-625 335.38,-657"/>
<text text-anchor="start" x="169.12" y="-643.5" font-family="Helvetica,sans-Serif" font-size="10.00">controladors.CtrlPresentacio.canviar</text>
<text text-anchor="middle" x="248.25" y="-631.5" font-family="Helvetica,sans-Serif" font-size="10.00">ConsultarAvatars</text>
</a>
</g>
</g>
<!-- Node1&#45;&gt;Node3 -->
<g id="edge2_Node000001_Node000003" class="edge">
<title>Node1&#45;&gt;Node3</title>
<g id="a_edge2_Node000001_Node000003"><a xlink:title=" ">
<path fill="none" stroke="#63b8ff" d="M62.14,-357.41C64.92,-404.86 79.59,-543.39 157,-616 157.78,-616.73 158.58,-617.44 159.39,-618.13"/>
<polygon fill="#63b8ff" stroke="#63b8ff" points="157.33,-620.95 167.51,-623.88 161.37,-615.24 157.33,-620.95"/>
</a>
</g>
</g>
<!-- Node4 -->
<g id="Node000004" class="node">
<title>Node4</title>
<g id="a_Node000004"><a xlink:href="$classcontroladors_1_1_ctrl_presentacio.html#ab855dc2f3b4843c43788473f2a300036" xlink:title="Canvia la vista actual a VistaConsultarEstadistiques.">
<polygon fill="white" stroke="#666666" points="335.38,-607 161.12,-607 161.12,-575 335.38,-575 335.38,-607"/>
<text text-anchor="start" x="169.12" y="-593.5" font-family="Helvetica,sans-Serif" font-size="10.00">controladors.CtrlPresentacio.canviar</text>
<text text-anchor="middle" x="248.25" y="-581.5" font-family="Helvetica,sans-Serif" font-size="10.00">ConsultarEstadistiques</text>
</a>
</g>
</g>
<!-- Node1&#45;&gt;Node4 -->
<g id="edge3_Node000001_Node000004" class="edge">
<title>Node1&#45;&gt;Node4</title>
<g id="a_edge3_Node000001_Node000004"><a xlink:title=" ">
<path fill="none" stroke="#63b8ff" d="M63.57,-357.4C69.7,-398.87 91.59,-508.65 157,-566 157.95,-566.83 158.92,-567.63 159.92,-568.41"/>
<polygon fill="#63b8ff" stroke="#63b8ff" points="157.9,-571.27 168.17,-573.88 161.76,-565.44 157.9,-571.27"/>
</a>
</g>
</g>
<!-- Node5 -->
<g id="Node000005" class="node">
<title>Node5</title>
<g id="a_Node000005"><a xlink:href="$classcontroladors_1_1_ctrl_presentacio.html#ae7604c8efc594b900e294b7ef853be0d" xlink:title="Canvia la vista actual a VistaConsultarRanking.">
<polygon fill="white" stroke="#666666" points="335.38,-557 161.12,-557 161.12,-525 335.38,-525 335.38,-557"/>
<text text-anchor="start" x="169.12" y="-543.5" font-family="Helvetica,sans-Serif" font-size="10.00">controladors.CtrlPresentacio.canviar</text>
<text text-anchor="middle" x="248.25" y="-531.5" font-family="Helvetica,sans-Serif" font-size="10.00">ConsultarRanking</text>
</a>
</g>
</g>
<!-- Node1&#45;&gt;Node5 -->
<g id="edge4_Node000001_Node000005" class="edge">
<title>Node1&#45;&gt;Node5</title>
<g id="a_edge4_Node000001_Node000005"><a xlink:title=" ">
<path fill="none" stroke="#63b8ff" d="M65.72,-357.32C75.55,-392.01 103.32,-473.4 157,-516 158.15,-516.91 159.32,-517.79 160.53,-518.63"/>
<polygon fill="#63b8ff" stroke="#63b8ff" points="158.58,-521.54 168.94,-523.72 162.2,-515.55 158.58,-521.54"/>
</a>
</g>
</g>
<!-- Node6 -->
<g id="Node000006" class="node">
<title>Node6</title>
<g id="a_Node000006"><a xlink:href="$classcontroladors_1_1_ctrl_presentacio.html#a3458c7f14b142196b4ca4798da2ad9a1" xlink:title="Canvia la vista actual a VistaCrearAvatar.">
<polygon fill="white" stroke="#666666" points="335.38,-507 161.12,-507 161.12,-475 335.38,-475 335.38,-507"/>
<text text-anchor="start" x="169.12" y="-493.5" font-family="Helvetica,sans-Serif" font-size="10.00">controladors.CtrlPresentacio.canviar</text>
<text text-anchor="middle" x="248.25" y="-481.5" font-family="Helvetica,sans-Serif" font-size="10.00">CrearAvatar</text>
</a>
</g>
</g>
<!-- Node1&#45;&gt;Node6 -->
<g id="edge5_Node000001_Node000006" class="edge">
<title>Node1&#45;&gt;Node6</title>
<g id="a_edge5_Node000001_Node000006"><a xlink:title=" ">
<path fill="none" stroke="#63b8ff" d="M69.35,-357.12C83.23,-383.89 114.69,-437.4 157,-466 158.82,-467.23 160.7,-468.4 162.62,-469.51"/>
<polygon fill="#63b8ff" stroke="#63b8ff" points="160.75,-472.48 171.25,-473.92 163.94,-466.25 160.75,-472.48"/>
</a>
</g>
</g>
<!-- Node7 -->
<g id="Node000007" class="node">
<title>Node7</title>
<g id="a_Node000007"><a xlink:href="$classcontroladors_1_1_ctrl_presentacio.html#a57b6291aedc4d8df64f92df233c069fc" xlink:title="Canvia la vista actual a VistaCrearPartida.">
<polygon fill="white" stroke="#666666" points="335.38,-457 161.12,-457 161.12,-425 335.38,-425 335.38,-457"/>
<text text-anchor="start" x="169.12" y="-443.5" font-family="Helvetica,sans-Serif" font-size="10.00">controladors.CtrlPresentacio.canviar</text>
<text text-anchor="middle" x="248.25" y="-431.5" font-family="Helvetica,sans-Serif" font-size="10.00">CrearPartida</text>
</a>
</g>
</g>
<!-- Node1&#45;&gt;Node7 -->
<g id="edge6_Node000001_Node000007" class="edge">
<title>Node1&#45;&gt;Node7</title>
<g id="a_edge6_Node000001_Node000007"><a xlink:title=" ">
<path fill="none" stroke="#63b8ff" d="M78.01,-357.37C96,-374.33 126.33,-400.5 157,-416 160.09,-417.56 163.3,-419.04 166.57,-420.43"/>
<polygon fill="#63b8ff" stroke="#63b8ff" points="165.22,-423.66 175.81,-424.05 167.77,-417.14 165.22,-423.66"/>
</a>
</g>
</g>
<!-- Node8 -->
<g id="Node000008" class="node">
<title>Node8</title>
<g id="a_Node000008"><a xlink:href="$classinterficie_1_1_vista_menu_joc.html#a75c64319a0877bfe1ea26fc51ac6f5c2" xlink:title="Configura el MouseListener per canviar colors al passar el ratolí.">
<polygon fill="white" stroke="#666666" points="330.12,-407 166.38,-407 166.38,-375 330.12,-375 330.12,-407"/>
<text text-anchor="start" x="174.38" y="-393.5" font-family="Helvetica,sans-Serif" font-size="10.00">interficie.VistaMenuJoc.configurar</text>
<text text-anchor="middle" x="248.25" y="-381.5" font-family="Helvetica,sans-Serif" font-size="10.00">MouseListener</text>
</a>
</g>
</g>
<!-- Node1&#45;&gt;Node8 -->
<g id="edge7_Node000001_Node000008" class="edge">
<title>Node1&#45;&gt;Node8</title>
<g id="a_edge7_Node000001_Node000008"><a xlink:title=" ">
<path fill="none" stroke="#63b8ff" d="M121.29,-357.1C138.42,-361.71 157.27,-366.78 175.06,-371.57"/>
<polygon fill="#63b8ff" stroke="#63b8ff" points="173.94,-374.89 184.51,-374.11 175.76,-368.13 173.94,-374.89"/>
</a>
</g>
</g>
<!-- Node9 -->
<g id="Node000009" class="node">
<title>Node9</title>
<g id="a_Node000009"><a xlink:href="$classcontroladors_1_1_ctrl_presentacio.html#a59bc024fc88c820d5e40a44298c5c0e9" xlink:title="Mostra la vista de consulta de normes del joc.">
<polygon fill="white" stroke="#666666" points="339.5,-357 157,-357 157,-325 339.5,-325 339.5,-357"/>
<text text-anchor="start" x="165" y="-343.5" font-family="Helvetica,sans-Serif" font-size="10.00">controladors.CtrlPresentacio.consultar</text>
<text text-anchor="middle" x="248.25" y="-331.5" font-family="Helvetica,sans-Serif" font-size="10.00">Normes</text>
</a>
</g>
</g>
<!-- Node1&#45;&gt;Node9 -->
<g id="edge8_Node000001_Node000009" class="edge">
<title>Node1&#45;&gt;Node9</title>
<g id="a_edge8_Node000001_Node000009"><a xlink:title=" ">
<path fill="none" stroke="#63b8ff" d="M121.29,-341C129.1,-341 137.26,-341 145.51,-341"/>
<polygon fill="#63b8ff" stroke="#63b8ff" points="145.29,-344.5 155.29,-341 145.29,-337.5 145.29,-344.5"/>
</a>
</g>
</g>
<!-- Node10 -->
<g id="Node000010" class="node">
<title>Node10</title>
<g id="a_Node000010"><a xlink:href="$classinterficie_1_1_vista_menu_joc.html#ac6f71c255275e13e9bad8d406c5600c3" xlink:title="Lògica per eliminar un avatar.">
<polygon fill="white" stroke="#666666" points="325.62,-257 170.88,-257 170.88,-225 325.62,-225 325.62,-257"/>
<text text-anchor="start" x="178.88" y="-243.5" font-family="Helvetica,sans-Serif" font-size="10.00">interficie.VistaMenuJoc.eliminar</text>
<text text-anchor="middle" x="248.25" y="-231.5" font-family="Helvetica,sans-Serif" font-size="10.00">Avatar</text>
</a>
</g>
</g>
<!-- Node1&#45;&gt;Node10 -->
<g id="edge9_Node000001_Node000010" class="edge">
<title>Node1&#45;&gt;Node10</title>
<g id="a_edge9_Node000001_Node000010"><a xlink:title=" ">
<path fill="none" stroke="#63b8ff" d="M78.01,-324.63C96,-307.67 126.33,-281.5 157,-266 160.09,-264.44 163.3,-262.96 166.57,-261.57"/>
<polygon fill="#63b8ff" stroke="#63b8ff" points="167.77,-264.86 175.81,-257.95 165.22,-258.34 167.77,-264.86"/>
</a>
</g>
</g>
<!-- Node12 -->
<g id="Node000012" class="node">
<title>Node12</title>
<g id="a_Node000012"><a xlink:href="$classinterficie_1_1_vista_menu_joc.html#a357d2c3488fc972b443bb25cf44c8d1b" xlink:title="Lògica per eliminar el perfil.">
<polygon fill="white" stroke="#666666" points="325.62,-207 170.88,-207 170.88,-175 325.62,-175 325.62,-207"/>
<text text-anchor="start" x="178.88" y="-193.5" font-family="Helvetica,sans-Serif" font-size="10.00">interficie.VistaMenuJoc.eliminar</text>
<text text-anchor="middle" x="248.25" y="-181.5" font-family="Helvetica,sans-Serif" font-size="10.00">Perfil</text>
</a>
</g>
</g>
<!-- Node1&#45;&gt;Node12 -->
<g id="edge11_Node000001_Node000012" class="edge">
<title>Node1&#45;&gt;Node12</title>
<g id="a_edge11_Node000001_Node000012"><a xlink:title=" ">
<path fill="none" stroke="#63b8ff" d="M66.9,-324.92C79.24,-296.08 111.97,-237.43 157,-207 158.21,-206.18 159.45,-205.39 160.71,-204.62"/>
<polygon fill="#63b8ff" stroke="#63b8ff" points="162.27,-207.76 169.44,-199.96 158.97,-201.58 162.27,-207.76"/>
</a>
</g>
</g>
<!-- Node14 -->
<g id="Node000014" class="node">
<title>Node14</title>
<g id="a_Node000014"><a xlink:href="$classinterficie_1_1_vista_menu_joc.html#ab3bcca3e7fed0b4d01a642012ff7ac8f" xlink:title="Escala tots els components gràfics en funció de la mida de la finestra.">
<polygon fill="white" stroke="#666666" points="324.5,-307 172,-307 172,-275 324.5,-275 324.5,-307"/>
<text text-anchor="start" x="180" y="-293.5" font-family="Helvetica,sans-Serif" font-size="10.00">interficie.VistaMenuJoc.escalar</text>
<text text-anchor="middle" x="248.25" y="-281.5" font-family="Helvetica,sans-Serif" font-size="10.00">Componentes</text>
</a>
</g>
</g>
<!-- Node1&#45;&gt;Node14 -->
<g id="edge14_Node000001_Node000014" class="edge">
<title>Node1&#45;&gt;Node14</title>
<g id="a_edge14_Node000001_Node000014"><a xlink:title=" ">
<path fill="none" stroke="#63b8ff" d="M121.29,-324.9C138.42,-320.29 157.27,-315.22 175.06,-310.43"/>
<polygon fill="#63b8ff" stroke="#63b8ff" points="175.76,-313.87 184.51,-307.89 173.94,-307.11 175.76,-313.87"/>
</a>
</g>
</g>
<!-- Node15 -->
<g id="Node000015" class="node">
<title>Node15</title>
<g id="a_Node000015"><a xlink:href="$classinterficie_1_1_vista_menu_joc.html#af4bea9351119f9746e8dc96671f7bff8" xlink:title="Lògica per reprendre una partida.">
<polygon fill="white" stroke="#666666" points="329,-157 167.5,-157 167.5,-125 329,-125 329,-157"/>
<text text-anchor="start" x="175.5" y="-143.5" font-family="Helvetica,sans-Serif" font-size="10.00">interficie.VistaMenuJoc.reprendre</text>
<text text-anchor="middle" x="248.25" y="-131.5" font-family="Helvetica,sans-Serif" font-size="10.00">Partida</text>
</a>
</g>
</g>
<!-- Node1&#45;&gt;Node15 -->
<g id="edge16_Node000001_Node000015" class="edge">
<title>Node1&#45;&gt;Node15</title>
<g id="a_edge16_Node000001_Node000015"><a xlink:title=" ">
<path fill="none" stroke="#63b8ff" d="M65.72,-324.68C75.55,-289.99 103.32,-208.6 157,-166 158.15,-165.09 159.32,-164.21 160.53,-163.37"/>
<polygon fill="#63b8ff" stroke="#63b8ff" points="162.2,-166.45 168.94,-158.28 158.58,-160.46 162.2,-166.45"/>
</a>
</g>
</g>
<!-- Node21 -->
<g id="Node000021" class="node">
<title>Node21</title>
<g id="a_Node000021"><a xlink:href="$classcontroladors_1_1_ctrl_presentacio.html#a633464b50c83730927c14ed2356bb43c" xlink:title="Tanca la sessió de l&#39;usuari, allibera els recursos gràfics i finalitza l&#39;execució de l&#39;aplicació.">
<polygon fill="white" stroke="#666666" points="330.5,-107 166,-107 166,-87 330.5,-87 330.5,-107"/>
<text text-anchor="middle" x="248.25" y="-93.5" font-family="Helvetica,sans-Serif" font-size="10.00">controladors.CtrlPresentacio.sortir</text>
</a>
</g>
</g>
<!-- Node1&#45;&gt;Node21 -->
<g id="edge22_Node000001_Node000021" class="edge">
<title>Node1&#45;&gt;Node21</title>
<g id="a_edge22_Node000001_Node000021"><a xlink:title=" ">
<path fill="none" stroke="#63b8ff" d="M63.32,-324.66C68.89,-282.84 89.66,-171.4 157,-116 158.15,-115.06 159.33,-114.16 160.55,-113.3"/>
<polygon fill="#63b8ff" stroke="#63b8ff" points="162.26,-116.35 169.1,-108.26 158.7,-110.32 162.26,-116.35"/>
</a>
</g>
</g>
<!-- Node22 -->
<g id="Node000022" class="node">
<title>Node22</title>
<g id="a_Node000022"><a xlink:href="$classinterficie_1_1_vista_menu_joc.html#a62e98338bf23c9ce19e3c7ec87f3cca8" xlink:title="Lògica per tancar la sessió.">
<polygon fill="white" stroke="#666666" points="322.25,-63 174.25,-63 174.25,-31 322.25,-31 322.25,-63"/>
<text text-anchor="start" x="182.25" y="-49.5" font-family="Helvetica,sans-Serif" font-size="10.00">interficie.VistaMenuJoc.tancar</text>
<text text-anchor="middle" x="248.25" y="-37.5" font-family="Helvetica,sans-Serif" font-size="10.00">Sessio</text>
</a>
</g>
</g>
<!-- Node1&#45;&gt;Node22 -->
<g id="edge23_Node000001_Node000022" class="edge">
<title>Node1&#45;&gt;Node22</title>
<g id="a_edge23_Node000001_Node000022"><a xlink:title=" ">
<path fill="none" stroke="#63b8ff" d="M62.68,-324.53C66.84,-278.8 84.76,-148.99 157,-78 160.39,-74.67 164.15,-71.69 168.16,-69.04"/>
<polygon fill="#63b8ff" stroke="#63b8ff" points="169.69,-72.2 176.6,-64.16 166.19,-66.14 169.69,-72.2"/>
</a>
</g>
</g>
<!-- Node11 -->
<g id="Node000011" class="node">
<title>Node11</title>
<g id="a_Node000011"><a xlink:href="$classcontroladors_1_1_ctrl_presentacio.html#aad294011837fffb35248b3d654be5102" xlink:title="Elimina un avatar del sistema.">
<polygon fill="white" stroke="#666666" points="555.38,-282 378.88,-282 378.88,-250 555.38,-250 555.38,-282"/>
<text text-anchor="start" x="386.88" y="-268.5" font-family="Helvetica,sans-Serif" font-size="10.00">controladors.CtrlPresentacio.eliminar</text>
<text text-anchor="middle" x="467.12" y="-256.5" font-family="Helvetica,sans-Serif" font-size="10.00">Avatar</text>
</a>
</g>
</g>
<!-- Node10&#45;&gt;Node11 -->
<g id="edge10_Node000010_Node000011" class="edge">
<title>Node10&#45;&gt;Node11</title>
<g id="a_edge10_Node000010_Node000011"><a xlink:title=" ">
<path fill="none" stroke="#63b8ff" d="M326.02,-249.85C339.48,-251.4 353.65,-253.03 367.61,-254.64"/>
<polygon fill="#63b8ff" stroke="#63b8ff" points="366.89,-258.08 377.23,-255.75 367.69,-251.13 366.89,-258.08"/>
</a>
</g>
</g>
<!-- Node12&#45;&gt;Node1 -->
<g id="edge13_Node000012_Node000001" class="edge">
<title>Node12&#45;&gt;Node1</title>
<g id="a_edge13_Node000012_Node000001"><a xlink:title=" ">
<path fill="none" stroke="#63b8ff" d="M196.98,-207.45C183.22,-211.53 168.85,-216.99 157,-225 122.44,-248.35 95.13,-288.33 78.71,-314.88"/>
<polygon fill="#63b8ff" stroke="#63b8ff" points="75.75,-313.01 73.55,-323.37 81.73,-316.65 75.75,-313.01"/>
</a>
</g>
</g>
<!-- Node13 -->
<g id="Node000013" class="node">
<title>Node13</title>
<g id="a_Node000013"><a xlink:href="$classcontroladors_1_1_ctrl_presentacio.html#a6635d740d6fc762d245068684ba1f6bf" xlink:title="Elimina el perfil de l&#39;usuari actiu.">
<polygon fill="white" stroke="#666666" points="555.38,-232 378.88,-232 378.88,-200 555.38,-200 555.38,-232"/>
<text text-anchor="start" x="386.88" y="-218.5" font-family="Helvetica,sans-Serif" font-size="10.00">controladors.CtrlPresentacio.eliminar</text>
<text text-anchor="middle" x="467.12" y="-206.5" font-family="Helvetica,sans-Serif" font-size="10.00">Perfil</text>
</a>
</g>
</g>
<!-- Node12&#45;&gt;Node13 -->
<g id="edge12_Node000012_Node000013" class="edge">
<title>Node12&#45;&gt;Node13</title>
<g id="a_edge12_Node000012_Node000013"><a xlink:title=" ">
<path fill="none" stroke="#63b8ff" d="M326.02,-199.85C339.48,-201.4 353.65,-203.03 367.61,-204.64"/>
<polygon fill="#63b8ff" stroke="#63b8ff" points="366.89,-208.08 377.23,-205.75 367.69,-201.13 366.89,-208.08"/>
</a>
</g>
</g>
<!-- Node14&#45;&gt;Node2 -->
<g id="edge15_Node000014_Node000002" class="edge">
<title>Node14&#45;&gt;Node2</title>
<g id="a_edge15_Node000014_Node000002"><a xlink:title=" ">
<path fill="none" stroke="#63b8ff" d="M324.54,-307.34C329.81,-309.83 334.87,-312.7 339.5,-316 397.09,-357.04 436.88,-432.97 455.01,-473.27"/>
<polygon fill="#63b8ff" stroke="#63b8ff" points="451.73,-474.49 458.94,-482.24 458.14,-471.68 451.73,-474.49"/>
</a>
</g>
</g>
<!-- Node16 -->
<g id="Node000016" class="node">
<title>Node16</title>
<g id="a_Node000016"><a xlink:href="$classinterficie_1_1_selector_partida.html#abe61b878316263ec68854ac732c19187" xlink:title="Retorna l&#39;identificador de la partida seleccionada per reprendre.">
<polygon fill="white" stroke="#666666" points="536.62,-182 397.62,-182 397.62,-150 536.62,-150 536.62,-182"/>
<text text-anchor="start" x="405.62" y="-168.5" font-family="Helvetica,sans-Serif" font-size="10.00">interficie.SelectorPartida.get</text>
<text text-anchor="middle" x="467.12" y="-156.5" font-family="Helvetica,sans-Serif" font-size="10.00">IdPartida</text>
</a>
</g>
</g>
<!-- Node15&#45;&gt;Node16 -->
<g id="edge17_Node000015_Node000016" class="edge">
<title>Node15&#45;&gt;Node16</title>
<g id="a_edge17_Node000015_Node000016"><a xlink:title=" ">
<path fill="none" stroke="#63b8ff" d="M329.39,-150.24C347.88,-152.37 367.54,-154.64 386.03,-156.77"/>
<polygon fill="#63b8ff" stroke="#63b8ff" points="385.52,-160.23 395.86,-157.9 386.32,-153.28 385.52,-160.23"/>
</a>
</g>
</g>
<!-- Node17 -->
<g id="Node000017" class="node">
<title>Node17</title>
<g id="a_Node000017"><a xlink:href="$classcontroladors_1_1_ctrl_presentacio.html#a7d80b96fb70eecd976aa1b1ba530d7a7" xlink:title="Retorna el nom de l&#39;usuari que té la sessió iniciada.">
<polygon fill="white" stroke="#666666" points="545.25,-132 389,-132 389,-100 545.25,-100 545.25,-132"/>
<text text-anchor="start" x="397" y="-118.5" font-family="Helvetica,sans-Serif" font-size="10.00">controladors.CtrlPresentacio.get</text>
<text text-anchor="middle" x="467.12" y="-106.5" font-family="Helvetica,sans-Serif" font-size="10.00">NomUsuariActiu</text>
</a>
</g>
</g>
<!-- Node15&#45;&gt;Node17 -->
<g id="edge18_Node000015_Node000017" class="edge">
<title>Node15&#45;&gt;Node17</title>
<g id="a_edge18_Node000015_Node000017"><a xlink:title=" ">
<path fill="none" stroke="#63b8ff" d="M329.39,-131.76C345.17,-129.94 361.82,-128.02 377.85,-126.18"/>
<polygon fill="#63b8ff" stroke="#63b8ff" points="377.8,-129.7 387.34,-125.08 377,-122.75 377.8,-129.7"/>
</a>
</g>
</g>
<!-- Node18 -->
<g id="Node000018" class="node">
<title>Node18</title>
<g id="a_Node000018"><a xlink:href="$classcontroladors_1_1_ctrl_presentacio.html#ad0c6a8a429d767f53f2e0fa4c6f8a5dc" xlink:title="Reprèn una partida existent identificada pel seu ID.">
<polygon fill="white" stroke="#666666" points="558.75,-82 375.5,-82 375.5,-50 558.75,-50 558.75,-82"/>
<text text-anchor="start" x="383.5" y="-68.5" font-family="Helvetica,sans-Serif" font-size="10.00">controladors.CtrlPresentacio.reprendre</text>
<text text-anchor="middle" x="467.12" y="-56.5" font-family="Helvetica,sans-Serif" font-size="10.00">Partida</text>
</a>
</g>
</g>
<!-- Node15&#45;&gt;Node18 -->
<g id="edge19_Node000015_Node000018" class="edge">
<title>Node15&#45;&gt;Node18</title>
<g id="a_edge19_Node000015_Node000018"><a xlink:title=" ">
<path fill="none" stroke="#63b8ff" d="M318.14,-124.54C325.48,-122.02 332.73,-119.18 339.5,-116 357.14,-107.73 357.86,-99.26 375.5,-91 379.01,-89.36 382.64,-87.81 386.35,-86.34"/>
<polygon fill="#63b8ff" stroke="#63b8ff" points="387.35,-89.7 395.53,-82.96 384.94,-83.13 387.35,-89.7"/>
</a>
</g>
</g>
<!-- Node19 -->
<g id="Node000019" class="node">
<title>Node19</title>
<g id="a_Node000019"><a xlink:href="$classdomini_1_1scrabble_1_1_partida.html#a74ab1a1330297b7e2a8c16121db79faa" xlink:title="Retorna l&#39;idioma de la partida.">
<polygon fill="white" stroke="#666666" points="740.12,-107 605.62,-107 605.62,-75 740.12,-75 740.12,-107"/>
<text text-anchor="start" x="613.62" y="-93.5" font-family="Helvetica,sans-Serif" font-size="10.00">domini.scrabble.Partida.get</text>
<text text-anchor="middle" x="672.88" y="-81.5" font-family="Helvetica,sans-Serif" font-size="10.00">Idioma</text>
</a>
</g>
</g>
<!-- Node18&#45;&gt;Node19 -->
<g id="edge20_Node000018_Node000019" class="edge">
<title>Node18&#45;&gt;Node19</title>
<g id="a_edge20_Node000018_Node000019"><a xlink:title=" ">
<path fill="none" stroke="#63b8ff" d="M558.98,-77.15C570.68,-78.58 582.57,-80.04 594.04,-81.45"/>
<polygon fill="#63b8ff" stroke="#63b8ff" points="593.48,-84.91 603.83,-82.65 594.33,-77.96 593.48,-84.91"/>
</a>
</g>
</g>
<!-- Node20 -->
<g id="Node000020" class="node">
<title>Node20</title>
<g id="a_Node000020"><a xlink:href="$classcontroladors_1_1_ctrl_presentacio.html#af18fe9d82387504c97bd73a19eaa15e8" xlink:title="Retorna la instància de la partida actual en curs.">
<polygon fill="white" stroke="#666666" points="751,-57 594.75,-57 594.75,-25 751,-25 751,-57"/>
<text text-anchor="start" x="602.75" y="-43.5" font-family="Helvetica,sans-Serif" font-size="10.00">controladors.CtrlPresentacio.get</text>
<text text-anchor="middle" x="672.88" y="-31.5" font-family="Helvetica,sans-Serif" font-size="10.00">Partida</text>
</a>
</g>
</g>
<!-- Node18&#45;&gt;Node20 -->
<g id="edge21_Node000018_Node000020" class="edge">
<title>Node18&#45;&gt;Node20</title>
<g id="a_edge21_Node000018_Node000020"><a xlink:title=" ">
<path fill="none" stroke="#63b8ff" d="M558.98,-54.85C566.98,-53.87 575.08,-52.88 583.07,-51.9"/>
<polygon fill="#63b8ff" stroke="#63b8ff" points="583.27,-55.4 592.77,-50.71 582.42,-48.45 583.27,-55.4"/>
</a>
</g>
</g>
<!-- Node23 -->
<g id="Node000023" class="node">
<title>Node23</title>
<g id="a_Node000023"><a xlink:href="$classcontroladors_1_1_ctrl_presentacio.html#aa71bca5e297b5775bf22b0e9a0d00ced" xlink:title="Tanca la sessió de l&#39;usuari actual i retorna a la vista principal.">
<polygon fill="white" stroke="#666666" points="552,-32 382.25,-32 382.25,0 552,0 552,-32"/>
<text text-anchor="start" x="390.25" y="-18.5" font-family="Helvetica,sans-Serif" font-size="10.00">controladors.CtrlPresentacio.tancar</text>
<text text-anchor="middle" x="467.12" y="-6.5" font-family="Helvetica,sans-Serif" font-size="10.00">Sessio</text>
</a>
</g>
</g>
<!-- Node22&#45;&gt;Node23 -->
<g id="edge24_Node000022_Node000023" class="edge">
<title>Node22&#45;&gt;Node23</title>
<g id="a_edge24_Node000022_Node000023"><a xlink:title=" ">
<path fill="none" stroke="#63b8ff" d="M322.67,-36.5C338.15,-34.29 354.69,-31.93 370.84,-29.62"/>
<polygon fill="#63b8ff" stroke="#63b8ff" points="371.03,-33.13 380.44,-28.25 370.04,-26.2 371.03,-33.13"/>
</a>
</g>
</g>
</g>
</svg>
