<?xml version="1.0" encoding="UTF-8" standalone="no"?>
<!DOCTYPE svg PUBLIC "-//W3C//DTD SVG 1.1//EN"
 "http://www.w3.org/Graphics/SVG/1.1/DTD/svg11.dtd">
<!-- Generated by graphviz version 12.2.1 (20241206.2353)
 -->
<!-- Title: domini.jugadors.Jugador.afegirFitxa Pages: 1 -->
<svg width="549pt" height="190pt"
 viewBox="0.00 0.00 548.75 190.00" xmlns="http://www.w3.org/2000/svg" xmlns:xlink="http://www.w3.org/1999/xlink">
<g id="graph0" class="graph" transform="scale(1 1) rotate(0) translate(4 186)">
<title>domini.jugadors.Jugador.afegirFitxa</title>
<!-- Node1 -->
<g id="Node000001" class="node">
<title>Node1</title>
<g id="a_Node000001"><a xlink:title="El jugador afegeix una fitxa a la seva llista de fitxes.">
<polygon fill="#999999" stroke="#666666" points="540.75,-107 392,-107 392,-75 540.75,-75 540.75,-107"/>
<text text-anchor="start" x="400" y="-93.5" font-family="Helvetica,sans-Serif" font-size="10.00">domini.jugadors.Jugador.afegir</text>
<text text-anchor="middle" x="466.38" y="-81.5" font-family="Helvetica,sans-Serif" font-size="10.00">Fitxa</text>
</a>
</g>
</g>
<!-- Node2 -->
<g id="Node000002" class="node">
<title>Node2</title>
<g id="a_Node000002"><a xlink:href="classcontroladors_1_1_ctrl_partida.html#a5e6d4a5bbd0538e02909fdd067b9c553" target="_top" xlink:title="Canvia un cert nombre de fitxes de la mà del jugador actual.">
<polygon fill="white" stroke="#666666" points="354.88,-132 201.62,-132 201.62,-100 354.88,-100 354.88,-132"/>
<text text-anchor="start" x="209.62" y="-118.5" font-family="Helvetica,sans-Serif" font-size="10.00">controladors.CtrlPartida.canviar</text>
<text text-anchor="middle" x="278.25" y="-106.5" font-family="Helvetica,sans-Serif" font-size="10.00">Fitxes</text>
</a>
</g>
</g>
<!-- Node1&#45;&gt;Node2 -->
<g id="edge1_Node000001_Node000002" class="edge">
<title>Node1&#45;&gt;Node2</title>
<g id="a_edge1_Node000001_Node000002"><a xlink:title=" ">
<path fill="none" stroke="#63b8ff" d="M380.21,-102.44C371.85,-103.56 363.39,-104.7 355.13,-105.81"/>
<polygon fill="#63b8ff" stroke="#63b8ff" points="380.6,-105.92 390.05,-101.12 379.67,-98.98 380.6,-105.92"/>
</a>
</g>
</g>
<!-- Node5 -->
<g id="Node000005" class="node">
<title>Node5</title>
<g id="a_Node000005"><a xlink:href="classdomini_1_1scrabble_1_1_partida.html#abaa5693ea1ae1d5b396c3c510f66969b" target="_top" xlink:title="Reomple les fitxes d&#39;un jugador fins al màxim permès.">
<polygon fill="white" stroke="#666666" points="356,-82 200.5,-82 200.5,-50 356,-50 356,-82"/>
<text text-anchor="start" x="208.5" y="-68.5" font-family="Helvetica,sans-Serif" font-size="10.00">domini.scrabble.Partida.reomplir</text>
<text text-anchor="middle" x="278.25" y="-56.5" font-family="Helvetica,sans-Serif" font-size="10.00">FitxesJugador</text>
</a>
</g>
</g>
<!-- Node1&#45;&gt;Node5 -->
<g id="edge4_Node000001_Node000005" class="edge">
<title>Node1&#45;&gt;Node5</title>
<g id="a_edge4_Node000001_Node000005"><a xlink:title=" ">
<path fill="none" stroke="#63b8ff" d="M380.33,-79.58C372.33,-78.5 364.26,-77.42 356.35,-76.36"/>
<polygon fill="#63b8ff" stroke="#63b8ff" points="379.67,-83.02 390.05,-80.88 380.6,-76.08 379.67,-83.02"/>
</a>
</g>
</g>
<!-- Node3 -->
<g id="Node000003" class="node">
<title>Node3</title>
<g id="a_Node000003"><a xlink:href="classcontroladors_1_1_ctrl_partida.html#ad0f7d5edb502bc4956cfd54612209ea7" target="_top" xlink:title="Col·loca una paraula al taulell.">
<polygon fill="white" stroke="#666666" points="158.88,-182 5.62,-182 5.62,-150 158.88,-150 158.88,-182"/>
<text text-anchor="start" x="13.62" y="-168.5" font-family="Helvetica,sans-Serif" font-size="10.00">controladors.CtrlPartida.colocar</text>
<text text-anchor="middle" x="82.25" y="-156.5" font-family="Helvetica,sans-Serif" font-size="10.00">Paraula</text>
</a>
</g>
</g>
<!-- Node2&#45;&gt;Node3 -->
<g id="edge2_Node000002_Node000003" class="edge">
<title>Node2&#45;&gt;Node3</title>
<g id="a_edge2_Node000002_Node000003"><a xlink:title=" ">
<path fill="none" stroke="#63b8ff" d="M202.54,-135.26C184.24,-139.97 164.82,-144.98 147.08,-149.55"/>
<polygon fill="#63b8ff" stroke="#63b8ff" points="203.18,-138.7 211.99,-132.82 201.44,-131.93 203.18,-138.7"/>
</a>
</g>
</g>
<!-- Node4 -->
<g id="Node000004" class="node">
<title>Node4</title>
<g id="a_Node000004"><a xlink:href="classcontroladors_1_1_ctrl_partida.html#afa4340f6a2cb198455d536ccaf87717b" target="_top" xlink:title="Gestiona el desenvolupament de la jugada de la màquina.">
<polygon fill="white" stroke="#666666" points="148.75,-132 15.75,-132 15.75,-100 148.75,-100 148.75,-132"/>
<text text-anchor="start" x="23.75" y="-118.5" font-family="Helvetica,sans-Serif" font-size="10.00">controladors.CtrlPartida.fer</text>
<text text-anchor="middle" x="82.25" y="-106.5" font-family="Helvetica,sans-Serif" font-size="10.00">JugadaMaquina</text>
</a>
</g>
</g>
<!-- Node2&#45;&gt;Node4 -->
<g id="edge3_Node000002_Node000004" class="edge">
<title>Node2&#45;&gt;Node4</title>
<g id="a_edge3_Node000002_Node000004"><a xlink:title=" ">
<path fill="none" stroke="#63b8ff" d="M189.74,-116C176.08,-116 162.16,-116 149.09,-116"/>
<polygon fill="#63b8ff" stroke="#63b8ff" points="189.62,-119.5 199.62,-116 189.62,-112.5 189.62,-119.5"/>
</a>
</g>
</g>
<!-- Node6 -->
<g id="Node000006" class="node">
<title>Node6</title>
<g id="a_Node000006"><a xlink:href="classdomini_1_1scrabble_1_1_partida.html#a86e61fd71ee980fd43e1b4f788dfc6ae" target="_top" xlink:title="Permet que la màquina faci una jugada.">
<polygon fill="white" stroke="#666666" points="148.38,-82 16.12,-82 16.12,-50 148.38,-50 148.38,-82"/>
<text text-anchor="start" x="24.12" y="-68.5" font-family="Helvetica,sans-Serif" font-size="10.00">domini.scrabble.Partida.fer</text>
<text text-anchor="middle" x="82.25" y="-56.5" font-family="Helvetica,sans-Serif" font-size="10.00">JugadaMaquina</text>
</a>
</g>
</g>
<!-- Node5&#45;&gt;Node6 -->
<g id="edge5_Node000005_Node000006" class="edge">
<title>Node5&#45;&gt;Node6</title>
<g id="a_edge5_Node000005_Node000006"><a xlink:title=" ">
<path fill="none" stroke="#63b8ff" d="M188.76,-66C175.26,-66 161.54,-66 148.66,-66"/>
<polygon fill="#63b8ff" stroke="#63b8ff" points="188.51,-69.5 198.51,-66 188.51,-62.5 188.51,-69.5"/>
</a>
</g>
</g>
<!-- Node7 -->
<g id="Node000007" class="node">
<title>Node7</title>
<g id="a_Node000007"><a xlink:href="classdomini_1_1scrabble_1_1_partida.html#a039d5724618f54fc293f4035422596c2" target="_top" xlink:title="Assigna fitxes inicials als jugadors.">
<polygon fill="white" stroke="#666666" points="164.5,-32 0,-32 0,0 164.5,0 164.5,-32"/>
<text text-anchor="start" x="8" y="-18.5" font-family="Helvetica,sans-Serif" font-size="10.00">domini.scrabble.Partida.inicialitzar</text>
<text text-anchor="middle" x="82.25" y="-6.5" font-family="Helvetica,sans-Serif" font-size="10.00">Jugadors</text>
</a>
</g>
</g>
<!-- Node5&#45;&gt;Node7 -->
<g id="edge6_Node000005_Node000007" class="edge">
<title>Node5&#45;&gt;Node7</title>
<g id="a_edge6_Node000005_Node000007"><a xlink:title=" ">
<path fill="none" stroke="#63b8ff" d="M202.54,-46.74C184.24,-42.03 164.82,-37.02 147.08,-32.45"/>
<polygon fill="#63b8ff" stroke="#63b8ff" points="201.44,-50.07 211.99,-49.18 203.18,-43.3 201.44,-50.07"/>
</a>
</g>
</g>
</g>
</svg>
