<?xml version="1.0" encoding="UTF-8" standalone="no"?>
<!DOCTYPE svg PUBLIC "-//W3C//DTD SVG 1.1//EN"
 "http://www.w3.org/Graphics/SVG/1.1/DTD/svg11.dtd">
<!-- Generated by graphviz version 12.2.1 (20241206.2353)
 -->
<!-- Title: interficie.VistaCrearPartida Pages: 1 -->
<svg width="133pt" height="356pt"
 viewBox="0.00 0.00 133.00 356.00" xmlns="http://www.w3.org/2000/svg" xmlns:xlink="http://www.w3.org/1999/xlink">
<g id="graph0" class="graph" transform="scale(1 1) rotate(0) translate(4 352)">
<title>interficie.VistaCrearPartida</title>
<!-- Node1 -->
<g id="Node000001" class="node">
<title>Node1</title>
<g id="a_Node000001"><a xlink:title=" ">
<polygon fill="#999999" stroke="none" points="125,-260 0,-260 0,0 125,0 125,-260"/>
<text text-anchor="start" x="4" y="-246.5" font-family="Helvetica,sans-Serif" font-size="10.00">interficie.VistaCrearPartida</text>
<text text-anchor="start" x="7.69" y="-230.5" font-family="Helvetica,sans-Serif" font-size="10.00">&#45;</text>
<text text-anchor="start" x="18.38" y="-230.5" font-family="Helvetica,sans-Serif" font-size="10.00">panellCrearAvatar</text>
<text text-anchor="start" x="7.69" y="-214.5" font-family="Helvetica,sans-Serif" font-size="10.00">&#45;</text>
<text text-anchor="start" x="18.38" y="-214.5" font-family="Helvetica,sans-Serif" font-size="10.00">botoCrearPartida</text>
<text text-anchor="start" x="7.69" y="-198.5" font-family="Helvetica,sans-Serif" font-size="10.00">&#45;</text>
<text text-anchor="start" x="18.38" y="-198.5" font-family="Helvetica,sans-Serif" font-size="10.00">botoTornar</text>
<text text-anchor="start" x="7.69" y="-182.5" font-family="Helvetica,sans-Serif" font-size="10.00">&#45;</text>
<text text-anchor="start" x="18.38" y="-182.5" font-family="Helvetica,sans-Serif" font-size="10.00">formPanel</text>
<text text-anchor="start" x="7.69" y="-166.5" font-family="Helvetica,sans-Serif" font-size="10.00">&#45;</text>
<text text-anchor="start" x="18.38" y="-166.5" font-family="Helvetica,sans-Serif" font-size="10.00">toggleJugador2</text>
<text text-anchor="start" x="7.69" y="-150.5" font-family="Helvetica,sans-Serif" font-size="10.00">&#45;</text>
<text text-anchor="start" x="18.38" y="-150.5" font-family="Helvetica,sans-Serif" font-size="10.00">WIDTH_BASE</text>
<text text-anchor="start" x="7.69" y="-134.5" font-family="Helvetica,sans-Serif" font-size="10.00">&#45;</text>
<text text-anchor="start" x="18.38" y="-134.5" font-family="Helvetica,sans-Serif" font-size="10.00">HEIGHT_BASE</text>
<text text-anchor="start" x="7.69" y="-118.5" font-family="Helvetica,sans-Serif" font-size="10.00">&#45;</text>
<text text-anchor="start" x="18.38" y="-118.5" font-family="Helvetica,sans-Serif" font-size="10.00">WIDTH_TORNAR</text>
<text text-anchor="start" x="7.69" y="-102.5" font-family="Helvetica,sans-Serif" font-size="10.00">&#45;</text>
<text text-anchor="start" x="18.38" y="-102.5" font-family="Helvetica,sans-Serif" font-size="10.00">HEIGHT_TORNAR</text>
<text text-anchor="start" x="7.69" y="-86.5" font-family="Helvetica,sans-Serif" font-size="10.00">&#45;</text>
<text text-anchor="start" x="18.38" y="-86.5" font-family="Helvetica,sans-Serif" font-size="10.00">MAX_IMAGE_WIDTH</text>
<text text-anchor="start" x="7.69" y="-70.5" font-family="Helvetica,sans-Serif" font-size="10.00">&#45;</text>
<text text-anchor="start" x="18.38" y="-70.5" font-family="Helvetica,sans-Serif" font-size="10.00">imatgeLogo</text>
<text text-anchor="start" x="7.69" y="-54.5" font-family="Helvetica,sans-Serif" font-size="10.00">&#45;</text>
<text text-anchor="start" x="18.38" y="-54.5" font-family="Helvetica,sans-Serif" font-size="10.00">labelLogo</text>
<text text-anchor="start" x="7.69" y="-38.5" font-family="Helvetica,sans-Serif" font-size="10.00">&#45;</text>
<text text-anchor="start" x="18.38" y="-38.5" font-family="Helvetica,sans-Serif" font-size="10.00">LOGO_WIDTH</text>
<text text-anchor="start" x="7.69" y="-22.5" font-family="Helvetica,sans-Serif" font-size="10.00">&#45;</text>
<text text-anchor="start" x="18.38" y="-22.5" font-family="Helvetica,sans-Serif" font-size="10.00">LOGO_HEIGHT</text>
<text text-anchor="start" x="6.19" y="-6.5" font-family="Helvetica,sans-Serif" font-size="10.00">+</text>
<text text-anchor="start" x="18.38" y="-6.5" font-family="Helvetica,sans-Serif" font-size="10.00">VistaCrearPartida()</text>
<polygon fill="#666666" stroke="#666666" points="0,-242 0,-242 125,-242 125,-242 0,-242"/>
<polygon fill="#666666" stroke="#666666" points="0,-18 0,-18 16.38,-18 16.38,-18 0,-18"/>
<polygon fill="#666666" stroke="#666666" points="16.38,-18 16.38,-18 125,-18 125,-18 16.38,-18"/>
<polygon fill="none" stroke="#666666" points="0,0 0,-260 125,-260 125,0 0,0"/>
</a>
</g>
</g>
<!-- Node2 -->
<g id="Node000002" class="node">
<title>Node2</title>
<g id="a_Node000002"><a xlink:title=" ">
<polygon fill="white" stroke="none" points="83,-348 42,-348 42,-296 83,-296 83,-348"/>
<text text-anchor="start" x="46" y="-334.5" font-family="Helvetica,sans-Serif" font-size="10.00">JFrame</text>
<text text-anchor="start" x="61" y="-318.5" font-family="Helvetica,sans-Serif" font-size="10.00"> </text>
<text text-anchor="start" x="61" y="-302.5" font-family="Helvetica,sans-Serif" font-size="10.00"> </text>
<polygon fill="#666666" stroke="#666666" points="42,-330 42,-330 83,-330 83,-330 42,-330"/>
<polygon fill="#666666" stroke="#666666" points="42,-314 42,-314 83,-314 83,-314 42,-314"/>
<polygon fill="none" stroke="#666666" points="42,-296 42,-348 83,-348 83,-296 42,-296"/>
</a>
</g>
</g>
<!-- Node2&#45;&gt;Node1 -->
<g id="edge1_Node000001_Node000002" class="edge">
<title>Node2&#45;&gt;Node1</title>
<g id="a_edge1_Node000001_Node000002"><a xlink:title=" ">
<path fill="none" stroke="#63b8ff" d="M62.5,-284.88C62.5,-277.23 62.5,-268.73 62.5,-259.78"/>
<polygon fill="none" stroke="#63b8ff" points="59,-284.65 62.5,-294.65 66,-284.65 59,-284.65"/>
</a>
</g>
</g>
</g>
</svg>
