<?xml version="1.0" encoding="UTF-8" standalone="no"?>
<!DOCTYPE svg PUBLIC "-//W3C//DTD SVG 1.1//EN"
 "http://www.w3.org/Graphics/SVG/1.1/DTD/svg11.dtd">
<!-- Generated by graphviz version 12.2.1 (20241206.2353)
 -->
<!-- Title: interficie.VistaCrearPartida.PlaceholderTextField Pages: 1 -->
<svg width="136pt" height="176pt"
 viewBox="0.00 0.00 136.00 176.00" xmlns="http://www.w3.org/2000/svg" xmlns:xlink="http://www.w3.org/1999/xlink">
<g id="graph0" class="graph" transform="scale(1 1) rotate(0) translate(4 172)">
<title>interficie.VistaCrearPartida.PlaceholderTextField</title>
<!-- Node1 -->
<g id="Node000001" class="node">
<title>Node1</title>
<g id="a_Node000001"><a xlink:title="JTextField personalitzat que mostra un text &quot;placeholder&quot; quan el camp està buit i no té el focus,...">
<polygon fill="#999999" stroke="none" points="128,-80 0,-80 0,0 128,0 128,-80"/>
<text text-anchor="start" x="4" y="-66.5" font-family="Helvetica,sans-Serif" font-size="10.00">interficie.VistaCrearPartida.</text>
<text text-anchor="start" x="18.62" y="-54.5" font-family="Helvetica,sans-Serif" font-size="10.00">PlaceholderTextField</text>
<text text-anchor="start" x="13.69" y="-38.5" font-family="Helvetica,sans-Serif" font-size="10.00">&#45;</text>
<text text-anchor="start" x="30.38" y="-38.5" font-family="Helvetica,sans-Serif" font-size="10.00">placeholder</text>
<text text-anchor="start" x="12.19" y="-22.5" font-family="Helvetica,sans-Serif" font-size="10.00">+</text>
<text text-anchor="start" x="30.38" y="-22.5" font-family="Helvetica,sans-Serif" font-size="10.00">setPlaceholder()</text>
<text text-anchor="start" x="12.56" y="-6.5" font-family="Helvetica,sans-Serif" font-size="10.00">#</text>
<text text-anchor="start" x="30.38" y="-6.5" font-family="Helvetica,sans-Serif" font-size="10.00">paintComponent()</text>
<polygon fill="#666666" stroke="#666666" points="0,-50 0,-50 128,-50 128,-50 0,-50"/>
<polygon fill="#666666" stroke="#666666" points="0,-34 0,-34 28.38,-34 28.38,-34 0,-34"/>
<polygon fill="#666666" stroke="#666666" points="28.38,-34 28.38,-34 128,-34 128,-34 28.38,-34"/>
<polygon fill="none" stroke="#666666" points="0,0 0,-80 128,-80 128,0 0,0"/>
</a>
</g>
</g>
<!-- Node2 -->
<g id="Node000002" class="node">
<title>Node2</title>
<g id="a_Node000002"><a xlink:title=" ">
<polygon fill="white" stroke="none" points="90.5,-168 37.5,-168 37.5,-116 90.5,-116 90.5,-168"/>
<text text-anchor="start" x="41.5" y="-154.5" font-family="Helvetica,sans-Serif" font-size="10.00">JTextField</text>
<text text-anchor="start" x="62.5" y="-138.5" font-family="Helvetica,sans-Serif" font-size="10.00"> </text>
<text text-anchor="start" x="62.5" y="-122.5" font-family="Helvetica,sans-Serif" font-size="10.00"> </text>
<polygon fill="#666666" stroke="#666666" points="37.5,-150 37.5,-150 90.5,-150 90.5,-150 37.5,-150"/>
<polygon fill="#666666" stroke="#666666" points="37.5,-134 37.5,-134 90.5,-134 90.5,-134 37.5,-134"/>
<polygon fill="none" stroke="#666666" points="37.5,-116 37.5,-168 90.5,-168 90.5,-116 37.5,-116"/>
</a>
</g>
</g>
<!-- Node2&#45;&gt;Node1 -->
<g id="edge1_Node000001_Node000002" class="edge">
<title>Node2&#45;&gt;Node1</title>
<g id="a_edge1_Node000001_Node000002"><a xlink:title=" ">
<path fill="none" stroke="#63b8ff" d="M64,-104.61C64,-96.5 64,-87.86 64,-79.65"/>
<polygon fill="none" stroke="#63b8ff" points="60.5,-104.51 64,-114.51 67.5,-104.51 60.5,-104.51"/>
</a>
</g>
</g>
</g>
</svg>
