<?xml version="1.0" encoding="UTF-8" standalone="no"?>
<!DOCTYPE svg PUBLIC "-//W3C//DTD SVG 1.1//EN"
 "http://www.w3.org/Graphics/SVG/1.1/DTD/svg11.dtd">
<!-- Generated by graphviz version 12.2.1 (20241206.2353)
 -->
<!-- Title: domini.auxiliars.ColorTerminal.centerText Pages: 1 -->
<svg width="855pt" height="116pt"
 viewBox="0.00 0.00 855.25 116.00" xmlns="http://www.w3.org/2000/svg" xmlns:xlink="http://www.w3.org/1999/xlink">
<g id="graph0" class="graph" transform="scale(1 1) rotate(0) translate(4 112)">
<title>domini.auxiliars.ColorTerminal.centerText</title>
<!-- Node1 -->
<g id="Node000001" class="node">
<title>Node1</title>
<g id="a_Node000001"><a xlink:title="Centra el text en una línia de la terminal.">
<polygon fill="#999999" stroke="#666666" points="847.25,-80 652,-80 652,-60 847.25,-60 847.25,-80"/>
<text text-anchor="middle" x="749.62" y="-66.5" font-family="Helvetica,sans-Serif" font-size="10.00">domini.auxiliars.ColorTerminal.centerText</text>
</a>
</g>
</g>
<!-- Node2 -->
<g id="Node000002" class="node">
<title>Node2</title>
<g id="a_Node000002"><a xlink:href="classdrivers_1_1_driver.html#af17ae20af9da7fe473559b18f57b3846" target="_top" xlink:title="Consulta les normes del joc.">
<polygon fill="white" stroke="#666666" points="429.38,-108 312.12,-108 312.12,-76 429.38,-76 429.38,-108"/>
<text text-anchor="start" x="320.12" y="-94.5" font-family="Helvetica,sans-Serif" font-size="10.00">drivers.Driver.consultar</text>
<text text-anchor="middle" x="370.75" y="-82.5" font-family="Helvetica,sans-Serif" font-size="10.00">Normes</text>
</a>
</g>
</g>
<!-- Node1&#45;&gt;Node2 -->
<g id="edge1_Node000001_Node000002" class="edge">
<title>Node1&#45;&gt;Node2</title>
<g id="a_edge1_Node000001_Node000002"><a xlink:title=" ">
<path fill="none" stroke="#63b8ff" d="M640.28,-76.32C571.67,-80.33 485.66,-85.35 429.74,-88.61"/>
<polygon fill="#63b8ff" stroke="#63b8ff" points="640.28,-79.83 650.06,-75.75 639.87,-72.84 640.28,-79.83"/>
</a>
</g>
</g>
<!-- Node5 -->
<g id="Node000005" class="node">
<title>Node5</title>
<g id="a_Node000005"><a xlink:href="classdrivers_1_1_driver.html#a735bc9f4183f4abd4c702da4c62b0ce8" target="_top" xlink:title="Mostra la pantalla de canvi de torn donant temps per a que el jugador es retiri i no vegi la pantalla...">
<polygon fill="white" stroke="#666666" points="616,-64 477.75,-64 477.75,-32 616,-32 616,-64"/>
<text text-anchor="start" x="485.75" y="-50.5" font-family="Helvetica,sans-Serif" font-size="10.00">drivers.Driver.PantallaCanvi</text>
<text text-anchor="middle" x="546.88" y="-38.5" font-family="Helvetica,sans-Serif" font-size="10.00">DeTorn</text>
</a>
</g>
</g>
<!-- Node1&#45;&gt;Node5 -->
<g id="edge5_Node000001_Node000005" class="edge">
<title>Node1&#45;&gt;Node5</title>
<g id="a_edge5_Node000001_Node000005"><a xlink:title=" ">
<path fill="none" stroke="#63b8ff" d="M641.69,-58.28C633.13,-57.34 624.63,-56.41 616.45,-55.52"/>
<polygon fill="#63b8ff" stroke="#63b8ff" points="641.13,-61.74 651.45,-59.35 641.89,-54.78 641.13,-61.74"/>
</a>
</g>
</g>
<!-- Node3 -->
<g id="Node000003" class="node">
<title>Node3</title>
<g id="a_Node000003"><a xlink:href="classdrivers_1_1_driver.html#a13e38153634507d9ad6e24cb267237b9" target="_top" xlink:title="Juga una partida.">
<polygon fill="white" stroke="#666666" points="263.75,-61 134.5,-61 134.5,-41 263.75,-41 263.75,-61"/>
<text text-anchor="middle" x="199.12" y="-47.5" font-family="Helvetica,sans-Serif" font-size="10.00">drivers.Driver.jugarPartida</text>
</a>
</g>
</g>
<!-- Node2&#45;&gt;Node3 -->
<g id="edge2_Node000002_Node000003" class="edge">
<title>Node2&#45;&gt;Node3</title>
<g id="a_edge2_Node000002_Node000003"><a xlink:title=" ">
<path fill="none" stroke="#63b8ff" d="M300.87,-75.35C281.41,-70.65 260.79,-65.66 243.31,-61.44"/>
<polygon fill="#63b8ff" stroke="#63b8ff" points="299.84,-78.7 310.38,-77.65 301.48,-71.9 299.84,-78.7"/>
</a>
</g>
</g>
<!-- Node4 -->
<g id="Node000004" class="node">
<title>Node4</title>
<g id="a_Node000004"><a xlink:href="classdrivers_1_1_driver.html#a3f94ce3595725e82b34c92548e071d04" target="_top" xlink:title="Inici del driver.">
<polygon fill="white" stroke="#666666" points="98.5,-80 0,-80 0,-60 98.5,-60 98.5,-80"/>
<text text-anchor="middle" x="49.25" y="-66.5" font-family="Helvetica,sans-Serif" font-size="10.00">drivers.Driver.main</text>
</a>
</g>
</g>
<!-- Node2&#45;&gt;Node4 -->
<g id="edge4_Node000002_Node000004" class="edge">
<title>Node2&#45;&gt;Node4</title>
<g id="a_edge4_Node000002_Node000004"><a xlink:title=" ">
<path fill="none" stroke="#63b8ff" d="M300.46,-87.23C239.57,-83.04 152.53,-77.04 98.8,-73.34"/>
<polygon fill="#63b8ff" stroke="#63b8ff" points="300.16,-90.72 310.38,-87.91 300.65,-83.73 300.16,-90.72"/>
</a>
</g>
</g>
<!-- Node3&#45;&gt;Node4 -->
<g id="edge3_Node000003_Node000004" class="edge">
<title>Node3&#45;&gt;Node4</title>
<g id="a_edge3_Node000003_Node000004"><a xlink:title=" ">
<path fill="none" stroke="#63b8ff" d="M122.94,-60.66C114.72,-61.72 106.51,-62.77 98.74,-63.77"/>
<polygon fill="#63b8ff" stroke="#63b8ff" points="123.15,-64.16 132.62,-59.42 122.26,-57.22 123.15,-64.16"/>
</a>
</g>
</g>
<!-- Node6 -->
<g id="Node000006" class="node">
<title>Node6</title>
<g id="a_Node000006"><a xlink:href="classdrivers_1_1_driver.html#a2e8cde796339c2db37f3e7332bf695ea" target="_top" xlink:title="Col·loca una paraula al taulell.">
<polygon fill="white" stroke="#666666" points="441.75,-58 299.75,-58 299.75,-38 441.75,-38 441.75,-58"/>
<text text-anchor="middle" x="370.75" y="-44.5" font-family="Helvetica,sans-Serif" font-size="10.00">drivers.Driver.colocarParaula</text>
</a>
</g>
</g>
<!-- Node5&#45;&gt;Node6 -->
<g id="edge6_Node000005_Node000006" class="edge">
<title>Node5&#45;&gt;Node6</title>
<g id="a_edge6_Node000005_Node000006"><a xlink:title=" ">
<path fill="none" stroke="#63b8ff" d="M466.27,-48C458.23,-48 450.1,-48 442.16,-48"/>
<polygon fill="#63b8ff" stroke="#63b8ff" points="466.04,-51.5 476.04,-48 466.04,-44.5 466.04,-51.5"/>
</a>
</g>
</g>
<!-- Node7 -->
<g id="Node000007" class="node">
<title>Node7</title>
<g id="a_Node000007"><a xlink:href="classdrivers_1_1_driver.html#a1349f8ca44272d07a91da7c4a689ce2e" target="_top" xlink:title="Passa el torn del jugador actual.">
<polygon fill="white" stroke="#666666" points="433.5,-20 308,-20 308,0 433.5,0 433.5,-20"/>
<text text-anchor="middle" x="370.75" y="-6.5" font-family="Helvetica,sans-Serif" font-size="10.00">drivers.Driver.passarTorn</text>
</a>
</g>
</g>
<!-- Node5&#45;&gt;Node7 -->
<g id="edge8_Node000005_Node000007" class="edge">
<title>Node5&#45;&gt;Node7</title>
<g id="a_edge8_Node000005_Node000007"><a xlink:title=" ">
<path fill="none" stroke="#63b8ff" d="M466.57,-30.69C450.57,-27.2 434.23,-23.63 419.71,-20.47"/>
<polygon fill="#63b8ff" stroke="#63b8ff" points="465.56,-34.06 476.08,-32.77 467.05,-27.22 465.56,-34.06"/>
</a>
</g>
</g>
<!-- Node6&#45;&gt;Node3 -->
<g id="edge7_Node000006_Node000003" class="edge">
<title>Node6&#45;&gt;Node3</title>
<g id="a_edge7_Node000006_Node000003"><a xlink:title=" ">
<path fill="none" stroke="#63b8ff" d="M288.01,-49.45C279.99,-49.59 271.94,-49.73 264.13,-49.87"/>
<polygon fill="#63b8ff" stroke="#63b8ff" points="287.84,-52.95 297.77,-49.27 287.71,-45.95 287.84,-52.95"/>
</a>
</g>
</g>
<!-- Node7&#45;&gt;Node3 -->
<g id="edge9_Node000007_Node000003" class="edge">
<title>Node7&#45;&gt;Node3</title>
<g id="a_edge9_Node000007_Node000003"><a xlink:title=" ">
<path fill="none" stroke="#63b8ff" d="M315.38,-23.14C292.07,-28.78 265.21,-35.27 243.29,-40.57"/>
<polygon fill="#63b8ff" stroke="#63b8ff" points="316.14,-26.56 325.04,-20.81 314.49,-19.76 316.14,-26.56"/>
</a>
</g>
</g>
</g>
</svg>
