<?xml version="1.0" encoding="UTF-8" standalone="no"?>
<!DOCTYPE svg PUBLIC "-//W3C//DTD SVG 1.1//EN"
 "http://www.w3.org/Graphics/SVG/1.1/DTD/svg11.dtd">
<!-- Generated by graphviz version 12.2.1 (20241206.2353)
 -->
<!-- Title: controladors.CtrlPersistencia.carregarUsuarisRegistrats Pages: 1 -->
<!--zoomable 134 -->

<svg id="main" version="1.1" xmlns="http://www.w3.org/2000/svg" xmlns:xlink="http://www.w3.org/1999/xlink" xml:space="preserve" onload="init(evt)">

<style type="text/css"><![CDATA[
.node, .edge {opacity: 0.7;}
.node.selected, .edge.selected {opacity: 1;}
.edge:hover path { stroke: red; }
.edge:hover polygon { stroke: red; fill: red; }
]]></style>

<defs>
  <circle id="rim" cx="0" cy="0" r="7"/>
  <circle id="rim2" cx="0" cy="0" r="3.5"/>
  <g id="zoomPlus">
    <use xlink:href="#rim" fill="#404040"><set attributeName="fill" to="#808080" begin="zoomplus.mouseover" end="zoomplus.mouseout"/></use>
    <path d="M-4,0h8M0,-4v8" fill="none" stroke="white" stroke-width="1.5" pointer-events="none"/>
  </g>
  <g id="zoomMin">
    <use xlink:href="#rim" fill="#404040"><set attributeName="fill" to="#808080" begin="zoomminus.mouseover" end="zoomminus.mouseout"/></use>
    <path d="M-4,0h8" fill="none" stroke="white" stroke-width="1.5" pointer-events="none"/>
  </g>
  <g id="arrowUp" transform="translate(30 24)">
    <use xlink:href="#rim"/>
    <path pointer-events="none" fill="none" stroke="white" stroke-width="1.5" d="M0,-3.0v7 M-2.5,-0.5L0,-3.0L2.5,-0.5"/>
  </g>
  <g id="arrowRight" transform="rotate(90) translate(36 -43)">
    <use xlink:href="#rim"/>
    <path pointer-events="none" fill="none" stroke="white" stroke-width="1.5" d="M0,-3.0v7 M-2.5,-0.5L0,-3.0L2.5,-0.5"/>
  </g>
  <g id="arrowDown" transform="rotate(180) translate(-30 -48)">
    <use xlink:href="#rim"/>
    <path pointer-events="none" fill="none" stroke="white" stroke-width="1.5" d="M0,-3.0v7 M-2.5,-0.5L0,-3.0L2.5,-0.5"/>
  </g>
  <g id="arrowLeft" transform="rotate(270) translate(-36 17)">
    <use xlink:href="#rim"/>
    <path pointer-events="none" fill="none" stroke="white" stroke-width="1.5" d="M0,-3.0v7 M-2.5,-0.5L0,-3.0L2.5,-0.5"/>
  </g>
  <g id="resetDef">
    <use xlink:href="#rim2" fill="#404040"><set attributeName="fill" to="#808080" begin="reset.mouseover" end="reset.mouseout"/></use>
  </g>
</defs>
<script type="application/ecmascript">
var viewWidth = 1297;
var viewHeight = 134;
var sectionId = 'dynsection-4';
</script>
<script type="application/ecmascript" xlink:href="svg.min.js"/>
<svg id="graph" class="graph">
<g id="viewport">
<title>controladors.CtrlPersistencia.carregarUsuarisRegistrats</title>
<!-- Node1 -->
<g id="Node000001" class="node">
<title>Node1</title>
<g id="a_Node000001"><a xlink:title="Carrega els usuaris guardats a la capa de persistència.">
<polygon fill="#999999" stroke="#666666" points="1288.75,-64 1108.5,-64 1108.5,-32 1288.75,-32 1288.75,-64"/>
<text text-anchor="start" x="1116.5" y="-50.5" font-family="Helvetica,sans-Serif" font-size="10.00">controladors.CtrlPersistencia.carregar</text>
<text text-anchor="middle" x="1198.62" y="-38.5" font-family="Helvetica,sans-Serif" font-size="10.00">UsuarisRegistrats</text>
</a>
</g>
</g>
<!-- Node2 -->
<g id="Node000002" class="node">
<title>Node2</title>
<g id="a_Node000002"><a xlink:href="classcontroladors_1_1_ctrl_domini.html#ab06c2680b60a9e0864d8470f4888e8e9" target="_top" xlink:title="Carrega els usuaris cada cop que executem el joc.">
<polygon fill="white" stroke="#666666" points="1072.5,-64 907.25,-64 907.25,-32 1072.5,-32 1072.5,-64"/>
<text text-anchor="start" x="915.25" y="-50.5" font-family="Helvetica,sans-Serif" font-size="10.00">controladors.CtrlDomini.inicialitzar</text>
<text text-anchor="middle" x="989.88" y="-38.5" font-family="Helvetica,sans-Serif" font-size="10.00">Usuaris</text>
</a>
</g>
</g>
<!-- Node1&#45;&gt;Node2 -->
<g id="edge1_Node000001_Node000002" class="edge">
<title>Node1&#45;&gt;Node2</title>
<g id="a_edge1_Node000001_Node000002"><a xlink:title=" ">
<path fill="none" stroke="#63b8ff" d="M1096.87,-48C1088.87,-48 1080.85,-48 1073,-48"/>
<polygon fill="#63b8ff" stroke="#63b8ff" points="1096.63,-51.5 1106.63,-48 1096.63,-44.5 1096.63,-51.5"/>
</a>
</g>
</g>
<!-- Node3 -->
<g id="Node000003" class="node">
<title>Node3</title>
<g id="a_Node000003"><a xlink:href="classcontroladors_1_1_ctrl_domini.html#a7648cc0064b988072993a90846e84d38" target="_top" xlink:title="Constructor de la classe Ctrl_Domini.">
<polygon fill="white" stroke="#666666" points="871.25,-64 749.5,-64 749.5,-32 871.25,-32 871.25,-64"/>
<text text-anchor="start" x="757.5" y="-50.5" font-family="Helvetica,sans-Serif" font-size="10.00">controladors.CtrlDomini.</text>
<text text-anchor="middle" x="810.38" y="-38.5" font-family="Helvetica,sans-Serif" font-size="10.00">CtrlDomini</text>
</a>
</g>
</g>
<!-- Node2&#45;&gt;Node3 -->
<g id="edge2_Node000002_Node000003" class="edge">
<title>Node2&#45;&gt;Node3</title>
<g id="a_edge2_Node000002_Node000003"><a xlink:title=" ">
<path fill="none" stroke="#63b8ff" d="M895.42,-48C887.32,-48 879.28,-48 871.55,-48"/>
<polygon fill="#63b8ff" stroke="#63b8ff" points="895.37,-51.5 905.37,-48 895.37,-44.5 895.37,-51.5"/>
</a>
</g>
</g>
<!-- Node4 -->
<g id="Node000004" class="node">
<title>Node4</title>
<g id="a_Node000004"><a xlink:href="classcontroladors_1_1_ctrl_domini.html#ab9f3147d91bf87174cee2fbad80eebd0" target="_top" xlink:title="Retorna la instancia del controlador de domini.">
<polygon fill="white" stroke="#666666" points="713.5,-64 578.25,-64 578.25,-32 713.5,-32 713.5,-64"/>
<text text-anchor="start" x="586.25" y="-50.5" font-family="Helvetica,sans-Serif" font-size="10.00">controladors.CtrlDomini.get</text>
<text text-anchor="middle" x="645.88" y="-38.5" font-family="Helvetica,sans-Serif" font-size="10.00">Instancia</text>
</a>
</g>
</g>
<!-- Node3&#45;&gt;Node4 -->
<g id="edge3_Node000003_Node000004" class="edge">
<title>Node3&#45;&gt;Node4</title>
<g id="a_edge3_Node000003_Node000004"><a xlink:title=" ">
<path fill="none" stroke="#63b8ff" d="M738.05,-48C729.99,-48 721.79,-48 713.79,-48"/>
<polygon fill="#63b8ff" stroke="#63b8ff" points="737.81,-51.5 747.81,-48 737.81,-44.5 737.81,-51.5"/>
</a>
</g>
</g>
<!-- Node5 -->
<g id="Node000005" class="node">
<title>Node5</title>
<g id="a_Node000005"><a xlink:href="classcontroladors_1_1_ctrl_presentacio.html#acaf9b6cf3f40d88428b5d77b735e8856" target="_top" xlink:title="Obté el rànquing global d&#39;avatares limitat a un cert nombre.">
<polygon fill="white" stroke="#666666" points="526.12,-108 369.88,-108 369.88,-76 526.12,-76 526.12,-108"/>
<text text-anchor="start" x="377.88" y="-94.5" font-family="Helvetica,sans-Serif" font-size="10.00">controladors.CtrlPresentacio.get</text>
<text text-anchor="middle" x="448" y="-82.5" font-family="Helvetica,sans-Serif" font-size="10.00">Ranking</text>
</a>
</g>
</g>
<!-- Node4&#45;&gt;Node5 -->
<g id="edge4_Node000004_Node000005" class="edge">
<title>Node4&#45;&gt;Node5</title>
<g id="a_edge4_Node000004_Node000005"><a xlink:title=" ">
<path fill="none" stroke="#63b8ff" d="M566.9,-65.51C552.19,-68.82 536.84,-72.27 522.27,-75.54"/>
<polygon fill="#63b8ff" stroke="#63b8ff" points="567.55,-68.96 576.54,-63.35 566.01,-62.13 567.55,-68.96"/>
</a>
</g>
</g>
<!-- Node8 -->
<g id="Node000008" class="node">
<title>Node8</title>
<g id="a_Node000008"><a xlink:href="classdrivers_1_1_driver.html#a2cf45ad0923853bf6a6ffec27822acfc" target="_top" xlink:title="Inicialitza el driver.">
<polygon fill="white" stroke="#666666" points="493.12,-58 402.88,-58 402.88,-38 493.12,-38 493.12,-58"/>
<text text-anchor="middle" x="448" y="-44.5" font-family="Helvetica,sans-Serif" font-size="10.00">drivers.Driver.init</text>
</a>
</g>
</g>
<!-- Node4&#45;&gt;Node8 -->
<g id="edge9_Node000004_Node000008" class="edge">
<title>Node4&#45;&gt;Node8</title>
<g id="a_edge9_Node000004_Node000008"><a xlink:title=" ">
<path fill="none" stroke="#63b8ff" d="M566.71,-48C541.79,-48 515.08,-48 493.41,-48"/>
<polygon fill="#63b8ff" stroke="#63b8ff" points="566.5,-51.5 576.5,-48 566.5,-44.5 566.5,-51.5"/>
</a>
</g>
</g>
<!-- Node10 -->
<g id="Node000010" class="node">
<title>Node10</title>
<g id="a_Node000010"><a xlink:href="classcontroladors_1_1_ctrl_presentacio.html#ae660314487eb1c9764a52ac98b431108" target="_top" xlink:title="Inicialitza l&#39;aplicació creant les instàncies del controlador de domini i de partida,...">
<polygon fill="white" stroke="#666666" points="542.25,-20 353.75,-20 353.75,0 542.25,0 542.25,-20"/>
<text text-anchor="middle" x="448" y="-6.5" font-family="Helvetica,sans-Serif" font-size="10.00">controladors.CtrlPresentacio.launchApp</text>
</a>
</g>
</g>
<!-- Node4&#45;&gt;Node10 -->
<g id="edge11_Node000004_Node000010" class="edge">
<title>Node4&#45;&gt;Node10</title>
<g id="a_edge11_Node000004_Node000010"><a xlink:title=" ">
<path fill="none" stroke="#63b8ff" d="M566.94,-32.88C545.48,-28.72 522.69,-24.3 502.92,-20.46"/>
<polygon fill="#63b8ff" stroke="#63b8ff" points="566.04,-36.27 576.53,-34.74 567.38,-29.4 566.04,-36.27"/>
</a>
</g>
</g>
<!-- Node6 -->
<g id="Node000006" class="node">
<title>Node6</title>
<g id="a_Node000006"><a xlink:href="classinterficie_1_1_vista_consultar_ranking.html#ac8bcd1db92441badfd8650cd3c54025b" target="_top" xlink:title="Carrega i mostra el rànquing a partir del límit indicat.">
<polygon fill="white" stroke="#666666" points="317.75,-108 191.5,-108 191.5,-76 317.75,-76 317.75,-108"/>
<text text-anchor="start" x="199.5" y="-94.5" font-family="Helvetica,sans-Serif" font-size="10.00">interficie.VistaConsultar</text>
<text text-anchor="middle" x="254.62" y="-82.5" font-family="Helvetica,sans-Serif" font-size="10.00">Ranking.carregarRanking</text>
</a>
</g>
</g>
<!-- Node5&#45;&gt;Node6 -->
<g id="edge5_Node000005_Node000006" class="edge">
<title>Node5&#45;&gt;Node6</title>
<g id="a_edge5_Node000005_Node000006"><a xlink:title=" ">
<path fill="none" stroke="#63b8ff" d="M358.13,-92C344.58,-92 330.85,-92 318.04,-92"/>
<polygon fill="#63b8ff" stroke="#63b8ff" points="357.92,-95.5 367.92,-92 357.92,-88.5 357.92,-95.5"/>
</a>
</g>
</g>
<!-- Node7 -->
<g id="Node000007" class="node">
<title>Node7</title>
<g id="a_Node000007"><a xlink:href="classinterficie_1_1_vista_consultar_ranking.html#a86d8edbe84e816fcf7c14b51a8d2e214" target="_top" xlink:title="Constructor de la classe.">
<polygon fill="white" stroke="#666666" points="155.5,-108 0,-108 0,-76 155.5,-76 155.5,-108"/>
<text text-anchor="start" x="8" y="-94.5" font-family="Helvetica,sans-Serif" font-size="10.00">interficie.VistaConsultar</text>
<text text-anchor="middle" x="77.75" y="-82.5" font-family="Helvetica,sans-Serif" font-size="10.00">Ranking.VistaConsultarRanking</text>
</a>
</g>
</g>
<!-- Node6&#45;&gt;Node7 -->
<g id="edge6_Node000006_Node000007" class="edge">
<title>Node6&#45;&gt;Node7</title>
<g id="a_edge6_Node000006_Node000007"><a xlink:title=" ">
<path fill="none" stroke="#63b8ff" d="M180,-85.33C172.06,-85.24 163.97,-85.23 156,-85.29"/>
<polygon fill="#63b8ff" stroke="#63b8ff" points="179.91,-88.82 189.96,-85.48 180.02,-81.83 179.91,-88.82"/>
</a>
</g>
</g>
<!-- Node7&#45;&gt;Node6 -->
<g id="edge7_Node000007_Node000006" class="edge">
<title>Node7&#45;&gt;Node6</title>
<g id="a_edge7_Node000007_Node000006"><a xlink:title=" ">
<path fill="none" stroke="#63b8ff" d="M167.45,-98.75C175.57,-98.74 183.67,-98.66 191.48,-98.49"/>
<polygon fill="#63b8ff" stroke="#63b8ff" points="167.53,-95.25 157.51,-98.71 167.5,-102.25 167.53,-95.25"/>
</a>
</g>
</g>
<!-- Node7&#45;&gt;Node7 -->
<g id="edge8_Node000007_Node000007" class="edge">
<title>Node7&#45;&gt;Node7</title>
<g id="a_edge8_Node000007_Node000007"><a xlink:title=" ">
<path fill="none" stroke="#63b8ff" d="M107.23,-119.71C102.31,-123.48 92.49,-126 77.75,-126 50.8,-126 40.28,-117.58 46.17,-108.44"/>
<polygon fill="#63b8ff" stroke="#63b8ff" points="110.66,-120.4 109.05,-109.93 103.77,-119.12 110.66,-120.4"/>
</a>
</g>
</g>
<!-- Node9 -->
<g id="Node000009" class="node">
<title>Node9</title>
<g id="a_Node000009"><a xlink:href="classdrivers_1_1_driver.html#a3f94ce3595725e82b34c92548e071d04" target="_top" xlink:title="Inici del driver.">
<polygon fill="white" stroke="#666666" points="303.88,-58 205.38,-58 205.38,-38 303.88,-38 303.88,-58"/>
<text text-anchor="middle" x="254.62" y="-44.5" font-family="Helvetica,sans-Serif" font-size="10.00">drivers.Driver.main</text>
</a>
</g>
</g>
<!-- Node8&#45;&gt;Node9 -->
<g id="edge10_Node000008_Node000009" class="edge">
<title>Node8&#45;&gt;Node9</title>
<g id="a_edge10_Node000008_Node000009"><a xlink:title=" ">
<path fill="none" stroke="#63b8ff" d="M391.16,-48C363.59,-48 330.64,-48 304.13,-48"/>
<polygon fill="#63b8ff" stroke="#63b8ff" points="391.1,-51.5 401.1,-48 391.1,-44.5 391.1,-51.5"/>
</a>
</g>
</g>
<!-- Node11 -->
<g id="Node000011" class="node">
<title>Node11</title>
<g id="a_Node000011"><a xlink:href="classinterficie_1_1_main_g_u_i.html#ae12d6baaff26bc828aa5d7b411923165" target="_top" xlink:title="Punt d&#39;entrada principal del programa.">
<polygon fill="white" stroke="#666666" points="314,-20 195.25,-20 195.25,0 314,0 314,-20"/>
<text text-anchor="middle" x="254.62" y="-6.5" font-family="Helvetica,sans-Serif" font-size="10.00">interficie.MainGUI.main</text>
</a>
</g>
</g>
<!-- Node10&#45;&gt;Node11 -->
<g id="edge12_Node000010_Node000011" class="edge">
<title>Node10&#45;&gt;Node11</title>
<g id="a_edge12_Node000010_Node000011"><a xlink:title=" ">
<path fill="none" stroke="#63b8ff" d="M341.79,-10C332.4,-10 323.14,-10 314.37,-10"/>
<polygon fill="#63b8ff" stroke="#63b8ff" points="341.76,-13.5 351.76,-10 341.76,-6.5 341.76,-13.5"/>
</a>
</g>
</g>
</g>
</svg>

<g id="navigator" transform="translate(0 0)" fill="#404254">
  <rect fill="#f2f5e9" fill-opacity="0.5" stroke="#606060" stroke-width=".5" x="0" y="0" width="60" height="60"/>
  <use id="zoomplus" xlink:href="#zoomPlus" x="17" y="9" onmousedown="handleZoom(evt,'in')"/>
  <use id="zoomminus" xlink:href="#zoomMin" x="42" y="9" onmousedown="handleZoom(evt,'out')"/>
  <use id="reset" xlink:href="#resetDef" x="30" y="36" onmousedown="handleReset()"/>
   <use id="arrowup" xlink:href="#arrowUp" x="0" y="0" onmousedown="handlePan(0,-1)"/>
  <use id="arrowright" xlink:href="#arrowRight" x="0" y="0" onmousedown="handlePan(1,0)"/>
  <use id="arrowdown" xlink:href="#arrowDown" x="0" y="0" onmousedown="handlePan(0,1)"/>
  <use id="arrowleft" xlink:href="#arrowLeft" x="0" y="0" onmousedown="handlePan(-1,0)"/>
</g>
<svg viewBox="0 0 15 15" width="100%" height="30px" preserveAspectRatio="xMaxYMin meet">
 <g id="arrow_out" transform="scale(0.3 0.3)">
  <a xlink:href="classcontroladors_1_1_ctrl_persistencia_a06c847181ea13b0c7dde8a61b47f0a0b_icgraph_org.svg" target="_base">
   <rect id="button" ry="5" rx="5" y="6" x="6" height="38" width="38"
        fill="#f2f5e9" fill-opacity="0.5" stroke="#606060" stroke-width="1.0"/>
   <path id="arrow"
     d="M 11.500037,31.436501 C 11.940474,20.09759 22.043105,11.32322 32.158766,21.979434 L 37.068811,17.246167 C 37.068811,17.246167 37.088388,32 37.088388,32 L 22.160133,31.978069 C 22.160133,31.978069 26.997745,27.140456 26.997745,27.140456 C 18.528582,18.264221 13.291696,25.230495 11.500037,31.436501 z"
     style="fill:#404040;"/>
  </a>
 </g>
</svg>

<style type='text/css'>
<![CDATA[
[data-mouse-over-selected='false'] { opacity: 0.7; }
[data-mouse-over-selected='true']  { opacity: 1.0; }
]]>
</style>
<script type="application/ecmascript"><![CDATA[
document.addEventListener('DOMContentLoaded', (event) => {
  highlightEdges();
  highlightAdjacentNodes();
});
]]></script>
</svg>
