<?xml version="1.0" encoding="UTF-8" standalone="no"?>
<!DOCTYPE svg PUBLIC "-//W3C//DTD SVG 1.1//EN"
 "http://www.w3.org/Graphics/SVG/1.1/DTD/svg11.dtd">
<!-- Generated by graphviz version 12.2.1 (20241206.2353)
 -->
<!-- Title: interficie.VistaCrearPerfil Pages: 1 -->
<svg width="125pt" height="324pt"
 viewBox="0.00 0.00 124.75 324.00" xmlns="http://www.w3.org/2000/svg" xmlns:xlink="http://www.w3.org/1999/xlink">
<g id="graph0" class="graph" transform="scale(1 1) rotate(0) translate(4 320)">
<title>interficie.VistaCrearPerfil</title>
<!-- Node1 -->
<g id="Node000001" class="node">
<title>Node1</title>
<g id="a_Node000001"><a xlink:title=" ">
<polygon fill="#999999" stroke="none" points="116.75,-228 0,-228 0,0 116.75,0 116.75,-228"/>
<text text-anchor="start" x="4" y="-214.5" font-family="Helvetica,sans-Serif" font-size="10.00">interficie.VistaCrearPerfil</text>
<text text-anchor="start" x="5.62" y="-198.5" font-family="Helvetica,sans-Serif" font-size="10.00">&#45;</text>
<text text-anchor="start" x="14.25" y="-198.5" font-family="Helvetica,sans-Serif" font-size="10.00">panellCrearPerfil</text>
<text text-anchor="start" x="5.62" y="-182.5" font-family="Helvetica,sans-Serif" font-size="10.00">&#45;</text>
<text text-anchor="start" x="14.25" y="-182.5" font-family="Helvetica,sans-Serif" font-size="10.00">labelLogo</text>
<text text-anchor="start" x="5.62" y="-166.5" font-family="Helvetica,sans-Serif" font-size="10.00">&#45;</text>
<text text-anchor="start" x="14.25" y="-166.5" font-family="Helvetica,sans-Serif" font-size="10.00">labelAnimal</text>
<text text-anchor="start" x="5.62" y="-150.5" font-family="Helvetica,sans-Serif" font-size="10.00">&#45;</text>
<text text-anchor="start" x="14.25" y="-150.5" font-family="Helvetica,sans-Serif" font-size="10.00">campUsuari</text>
<text text-anchor="start" x="5.62" y="-134.5" font-family="Helvetica,sans-Serif" font-size="10.00">&#45;</text>
<text text-anchor="start" x="14.25" y="-134.5" font-family="Helvetica,sans-Serif" font-size="10.00">campContrasenya</text>
<text text-anchor="start" x="5.62" y="-118.5" font-family="Helvetica,sans-Serif" font-size="10.00">&#45;</text>
<text text-anchor="start" x="14.25" y="-118.5" font-family="Helvetica,sans-Serif" font-size="10.00">botoCrear</text>
<text text-anchor="start" x="5.62" y="-102.5" font-family="Helvetica,sans-Serif" font-size="10.00">&#45;</text>
<text text-anchor="start" x="14.25" y="-102.5" font-family="Helvetica,sans-Serif" font-size="10.00">botoTornar</text>
<text text-anchor="start" x="5.62" y="-86.5" font-family="Helvetica,sans-Serif" font-size="10.00">&#45;</text>
<text text-anchor="start" x="14.25" y="-86.5" font-family="Helvetica,sans-Serif" font-size="10.00">WIDTH_BASE</text>
<text text-anchor="start" x="5.62" y="-70.5" font-family="Helvetica,sans-Serif" font-size="10.00">&#45;</text>
<text text-anchor="start" x="14.25" y="-70.5" font-family="Helvetica,sans-Serif" font-size="10.00">HEIGHT_BASE</text>
<text text-anchor="start" x="5.62" y="-54.5" font-family="Helvetica,sans-Serif" font-size="10.00">&#45;</text>
<text text-anchor="start" x="14.25" y="-54.5" font-family="Helvetica,sans-Serif" font-size="10.00">WIDTH_TORNAR</text>
<text text-anchor="start" x="14.25" y="-38.5" font-family="Helvetica,sans-Serif" font-size="10.00">and 8 more...</text>
<text text-anchor="start" x="4.12" y="-22.5" font-family="Helvetica,sans-Serif" font-size="10.00">+</text>
<text text-anchor="start" x="14.25" y="-22.5" font-family="Helvetica,sans-Serif" font-size="10.00">VistaCrearPerfil()</text>
<text text-anchor="start" x="5.62" y="-6.5" font-family="Helvetica,sans-Serif" font-size="10.00">&#45;</text>
<text text-anchor="start" x="14.25" y="-6.5" font-family="Helvetica,sans-Serif" font-size="10.00">escalarComponentes()</text>
<polygon fill="#666666" stroke="#666666" points="0,-210 0,-210 116.75,-210 116.75,-210 0,-210"/>
<polygon fill="#666666" stroke="#666666" points="0,-34 0,-34 12.25,-34 12.25,-34 0,-34"/>
<polygon fill="#666666" stroke="#666666" points="12.25,-34 12.25,-34 116.75,-34 116.75,-34 12.25,-34"/>
<polygon fill="none" stroke="#666666" points="0,0 0,-228 116.75,-228 116.75,0 0,0"/>
</a>
</g>
</g>
<!-- Node2 -->
<g id="Node000002" class="node">
<title>Node2</title>
<g id="a_Node000002"><a xlink:title=" ">
<polygon fill="white" stroke="none" points="78.88,-316 37.88,-316 37.88,-264 78.88,-264 78.88,-316"/>
<text text-anchor="start" x="41.88" y="-302.5" font-family="Helvetica,sans-Serif" font-size="10.00">JFrame</text>
<text text-anchor="start" x="56.88" y="-286.5" font-family="Helvetica,sans-Serif" font-size="10.00"> </text>
<text text-anchor="start" x="56.88" y="-270.5" font-family="Helvetica,sans-Serif" font-size="10.00"> </text>
<polygon fill="#666666" stroke="#666666" points="37.88,-298 37.88,-298 78.88,-298 78.88,-298 37.88,-298"/>
<polygon fill="#666666" stroke="#666666" points="37.88,-282 37.88,-282 78.88,-282 78.88,-282 37.88,-282"/>
<polygon fill="none" stroke="#666666" points="37.88,-264 37.88,-316 78.88,-316 78.88,-264 37.88,-264"/>
</a>
</g>
</g>
<!-- Node2&#45;&gt;Node1 -->
<g id="edge1_Node000001_Node000002" class="edge">
<title>Node2&#45;&gt;Node1</title>
<g id="a_edge1_Node000001_Node000002"><a xlink:title=" ">
<path fill="none" stroke="#63b8ff" d="M58.38,-252.72C58.38,-245.03 58.38,-236.53 58.38,-227.64"/>
<polygon fill="none" stroke="#63b8ff" points="54.88,-252.56 58.38,-262.56 61.88,-252.56 54.88,-252.56"/>
</a>
</g>
</g>
</g>
</svg>
