<?xml version="1.0" encoding="UTF-8" standalone="no"?>
<!DOCTYPE svg PUBLIC "-//W3C//DTD SVG 1.1//EN"
 "http://www.w3.org/Graphics/SVG/1.1/DTD/svg11.dtd">
<!-- Generated by graphviz version 12.2.1 (20241206.2353)
 -->
<!-- Title: interficie.VistaPartida.crearPanelJugador Pages: 1 -->
<svg width="1022pt" height="242pt"
 viewBox="0.00 0.00 1022.00 241.94" xmlns="http://www.w3.org/2000/svg" xmlns:xlink="http://www.w3.org/1999/xlink">
<g id="graph0" class="graph" transform="scale(1 1) rotate(0) translate(4 237.94)">
<title>interficie.VistaPartida.crearPanelJugador</title>
<!-- Node1 -->
<g id="Node000001" class="node">
<title>Node1</title>
<g id="a_Node000001"><a xlink:title="Crea un panell amb la informació d&#39;un jugador.">
<polygon fill="#999999" stroke="#666666" points="1014,-122 880.25,-122 880.25,-90 1014,-90 1014,-122"/>
<text text-anchor="start" x="888.25" y="-108.5" font-family="Helvetica,sans-Serif" font-size="10.00">interficie.VistaPartida.crear</text>
<text text-anchor="middle" x="947.12" y="-96.5" font-family="Helvetica,sans-Serif" font-size="10.00">PanelJugador</text>
</a>
</g>
</g>
<!-- Node2 -->
<g id="Node000002" class="node">
<title>Node2</title>
<g id="a_Node000002"><a xlink:href="$classinterficie_1_1_vista_partida.html#a485041b781e81c64fb5414207ff21d2a" xlink:title="Actualitza la informació de la partida.">
<polygon fill="white" stroke="#666666" points="844.25,-160 694,-160 694,-128 844.25,-128 844.25,-160"/>
<text text-anchor="start" x="702" y="-146.5" font-family="Helvetica,sans-Serif" font-size="10.00">interficie.VistaPartida.refrescar</text>
<text text-anchor="middle" x="769.12" y="-134.5" font-family="Helvetica,sans-Serif" font-size="10.00">Informacio</text>
</a>
</g>
</g>
<!-- Node1&#45;&gt;Node2 -->
<g id="edge1_Node000001_Node000002" class="edge">
<title>Node1&#45;&gt;Node2</title>
<g id="a_edge1_Node000001_Node000002"><a xlink:title=" ">
<path fill="none" stroke="#63b8ff" d="M868.65,-122.73C860.67,-124.45 852.57,-126.2 844.61,-127.92"/>
<polygon fill="#63b8ff" stroke="#63b8ff" points="869.32,-126.16 878.36,-120.63 867.84,-119.32 869.32,-126.16"/>
</a>
</g>
</g>
<!-- Node2&#45;&gt;Node2 -->
<g id="edge16_Node000002_Node000002" class="edge">
<title>Node2&#45;&gt;Node2</title>
<g id="a_edge16_Node000002_Node000002"><a xlink:title=" ">
<path fill="none" stroke="#63b8ff" d="M798.79,-171.71C793.84,-175.48 783.95,-178 769.12,-178 742.01,-178 731.42,-169.58 737.35,-160.44"/>
<polygon fill="#63b8ff" stroke="#63b8ff" points="802.22,-172.4 800.62,-161.93 795.34,-171.11 802.22,-172.4"/>
</a>
</g>
</g>
<!-- Node3 -->
<g id="Node000003" class="node">
<title>Node3</title>
<g id="a_Node000003"><a xlink:href="$classinterficie_1_1_vista_partida.html#a7855e7a9cc41e1450c37054781ba6309" xlink:title="Inicialitza els components de la interfície gràfica.">
<polygon fill="white" stroke="#666666" points="658,-170 522.75,-170 522.75,-150 658,-150 658,-170"/>
<text text-anchor="middle" x="590.38" y="-156.5" font-family="Helvetica,sans-Serif" font-size="10.00">interficie.VistaPartida.initUI</text>
</a>
</g>
</g>
<!-- Node2&#45;&gt;Node3 -->
<g id="edge2_Node000002_Node000003" class="edge">
<title>Node2&#45;&gt;Node3</title>
<g id="a_edge2_Node000002_Node000003"><a xlink:title=" ">
<path fill="none" stroke="#63b8ff" d="M682.36,-151.76C674.32,-152.49 666.26,-153.22 658.43,-153.93"/>
<polygon fill="#63b8ff" stroke="#63b8ff" points="682.53,-155.26 692.17,-150.88 681.9,-148.29 682.53,-155.26"/>
</a>
</g>
</g>
<!-- Node4 -->
<g id="Node000004" class="node">
<title>Node4</title>
<g id="a_Node000004"><a xlink:href="$classinterficie_1_1_vista_partida.html#abce8626a6a3750affe851e1f8bea2cb3" xlink:title="Constructor de la classe VistaPartida.">
<polygon fill="white" stroke="#666666" points="486.75,-114 374.75,-114 374.75,-82 486.75,-82 486.75,-114"/>
<text text-anchor="start" x="382.75" y="-100.5" font-family="Helvetica,sans-Serif" font-size="10.00">interficie.VistaPartida.</text>
<text text-anchor="middle" x="430.75" y="-88.5" font-family="Helvetica,sans-Serif" font-size="10.00">VistaPartida</text>
</a>
</g>
</g>
<!-- Node2&#45;&gt;Node4 -->
<g id="edge17_Node000002_Node000004" class="edge">
<title>Node2&#45;&gt;Node4</title>
<g id="a_edge17_Node000002_Node000004"><a xlink:title=" ">
<path fill="none" stroke="#63b8ff" d="M682.65,-132.31C621.2,-123.91 540.12,-112.82 486.99,-105.55"/>
<polygon fill="#63b8ff" stroke="#63b8ff" points="682.01,-135.76 692.39,-133.64 682.96,-128.82 682.01,-135.76"/>
</a>
</g>
</g>
<!-- Node3&#45;&gt;Node4 -->
<g id="edge3_Node000003_Node000004" class="edge">
<title>Node3&#45;&gt;Node4</title>
<g id="a_edge3_Node000003_Node000004"><a xlink:title=" ">
<path fill="none" stroke="#63b8ff" d="M567.65,-144.66C554.58,-138.88 537.64,-132.79 522.75,-127 511.1,-122.47 498.7,-117.44 486.91,-112.76"/>
<polygon fill="#63b8ff" stroke="#63b8ff" points="566.1,-147.8 576.63,-148.98 569.14,-141.49 566.1,-147.8"/>
</a>
</g>
</g>
<!-- Node4&#45;&gt;Node1 -->
<g id="edge13_Node000004_Node000001" class="edge">
<title>Node4&#45;&gt;Node1</title>
<g id="a_edge13_Node000004_Node000001"><a xlink:title=" ">
<path fill="none" stroke="#63b8ff" d="M498.4,-99.04C597.2,-100.57 781.4,-103.44 879.93,-104.97"/>
<polygon fill="#63b8ff" stroke="#63b8ff" points="498.65,-95.54 488.59,-98.88 498.54,-102.54 498.65,-95.54"/>
</a>
</g>
</g>
<!-- Node4&#45;&gt;Node3 -->
<g id="edge14_Node000004_Node000003" class="edge">
<title>Node4&#45;&gt;Node3</title>
<g id="a_edge14_Node000004_Node000003"><a xlink:title=" ">
<path fill="none" stroke="#63b8ff" d="M463.16,-119.52C480.62,-128 502.79,-137.24 522.75,-145 526.65,-146.51 530.68,-148.05 534.75,-149.55"/>
<polygon fill="#63b8ff" stroke="#63b8ff" points="464.81,-116.43 454.31,-115.04 461.65,-122.68 464.81,-116.43"/>
</a>
</g>
</g>
<!-- Node4&#45;&gt;Node4 -->
<g id="edge15_Node000004_Node000004" class="edge">
<title>Node4&#45;&gt;Node4</title>
<g id="a_edge15_Node000004_Node000004"><a xlink:title=" ">
<path fill="none" stroke="#63b8ff" d="M457.35,-125.71C452.92,-129.48 444.05,-132 430.75,-132 406.43,-132 396.93,-123.58 402.25,-114.44"/>
<polygon fill="#63b8ff" stroke="#63b8ff" points="460.79,-126.38 459,-115.94 453.88,-125.22 460.79,-126.38"/>
</a>
</g>
</g>
<!-- Node5 -->
<g id="Node000005" class="node">
<title>Node5</title>
<g id="a_Node000005"><a xlink:href="$classinterficie_1_1_vista_partida.html#a6bd7550fc714ba5195c8b55ffe3d973c" xlink:title="Afegeix les fitxes d&#39;un jugador al seu rack.">
<polygon fill="white" stroke="#666666" points="330.5,-32 194.5,-32 194.5,0 330.5,0 330.5,-32"/>
<text text-anchor="start" x="202.5" y="-18.5" font-family="Helvetica,sans-Serif" font-size="10.00">interficie.VistaPartida.afegir</text>
<text text-anchor="middle" x="262.5" y="-6.5" font-family="Helvetica,sans-Serif" font-size="10.00">FitxesARack</text>
</a>
</g>
</g>
<!-- Node4&#45;&gt;Node5 -->
<g id="edge4_Node000004_Node000005" class="edge">
<title>Node4&#45;&gt;Node5</title>
<g id="a_edge4_Node000004_Node000005"><a xlink:title=" ">
<path fill="none" stroke="#63b8ff" d="M393.46,-75.71C377.04,-66.03 357.21,-54.9 338.75,-46 328.87,-41.24 318.02,-36.59 307.72,-32.43"/>
<polygon fill="#63b8ff" stroke="#63b8ff" points="391.52,-78.63 401.9,-80.74 395.11,-72.62 391.52,-78.63"/>
</a>
</g>
</g>
<!-- Node7 -->
<g id="Node000007" class="node">
<title>Node7</title>
<g id="a_Node000007"><a xlink:href="$classinterficie_1_1_vista_partida.html#ae6809bc2e7efc03077c111367571f788" xlink:title="Afegeix maquetes al rack de l&#39;oponent.">
<polygon fill="white" stroke="#666666" points="330.5,-120 194.5,-120 194.5,-88 330.5,-88 330.5,-120"/>
<text text-anchor="start" x="202.5" y="-106.5" font-family="Helvetica,sans-Serif" font-size="10.00">interficie.VistaPartida.afegir</text>
<text text-anchor="middle" x="262.5" y="-94.5" font-family="Helvetica,sans-Serif" font-size="10.00">MaquetesARack</text>
</a>
</g>
</g>
<!-- Node4&#45;&gt;Node7 -->
<g id="edge9_Node000004_Node000007" class="edge">
<title>Node4&#45;&gt;Node7</title>
<g id="a_edge9_Node000004_Node000007"><a xlink:title=" ">
<path fill="none" stroke="#63b8ff" d="M363.04,-100.41C352.4,-100.79 341.4,-101.19 330.75,-101.57"/>
<polygon fill="#63b8ff" stroke="#63b8ff" points="363.01,-103.91 372.88,-100.05 362.76,-96.92 363.01,-103.91"/>
</a>
</g>
</g>
<!-- Node8 -->
<g id="Node000008" class="node">
<title>Node8</title>
<g id="a_Node000008"><a xlink:href="$classinterficie_1_1_vista_partida.html#a8ebc9da2a2b927ba87ed97ad85ae44e8" xlink:title="Confirma l&#39;acció de guardar la partida.">
<polygon fill="white" stroke="#666666" points="338.75,-170 186.25,-170 186.25,-138 338.75,-138 338.75,-170"/>
<text text-anchor="start" x="194.25" y="-156.5" font-family="Helvetica,sans-Serif" font-size="10.00">interficie.VistaPartida.confirmar</text>
<text text-anchor="middle" x="262.5" y="-144.5" font-family="Helvetica,sans-Serif" font-size="10.00">Guardar</text>
</a>
</g>
</g>
<!-- Node4&#45;&gt;Node8 -->
<g id="edge11_Node000004_Node000008" class="edge">
<title>Node4&#45;&gt;Node8</title>
<g id="a_edge11_Node000004_Node000008"><a xlink:title=" ">
<path fill="none" stroke="#63b8ff" d="M371.03,-118.08C360.3,-121.73 349.19,-125.49 338.75,-129 330.53,-131.77 321.8,-134.68 313.3,-137.51"/>
<polygon fill="#63b8ff" stroke="#63b8ff" points="371.83,-121.5 380.17,-114.97 369.57,-114.87 371.83,-121.5"/>
</a>
</g>
</g>
<!-- Node6 -->
<g id="Node000006" class="node">
<title>Node6</title>
<g id="a_Node000006"><a xlink:href="$classinterficie_1_1_vista_partida.html#a0698d192124492ebfd8a3b029a6fa23c" xlink:title="Actualitza els racks dels jugadors.">
<polygon fill="white" stroke="#666666" points="150.25,-120 0,-120 0,-88 150.25,-88 150.25,-120"/>
<text text-anchor="start" x="8" y="-106.5" font-family="Helvetica,sans-Serif" font-size="10.00">interficie.VistaPartida.refrescar</text>
<text text-anchor="middle" x="75.12" y="-94.5" font-family="Helvetica,sans-Serif" font-size="10.00">RackJugadors</text>
</a>
</g>
</g>
<!-- Node5&#45;&gt;Node6 -->
<g id="edge5_Node000005_Node000006" class="edge">
<title>Node5&#45;&gt;Node6</title>
<g id="a_edge5_Node000005_Node000006"><a xlink:title=" ">
<path fill="none" stroke="#63b8ff" d="M207.66,-36.66C200.41,-39.68 193.11,-42.83 186.25,-46 158.19,-58.94 127.12,-75.52 105.15,-87.64"/>
<polygon fill="#63b8ff" stroke="#63b8ff" points="208.86,-39.95 216.79,-32.93 206.21,-33.47 208.86,-39.95"/>
</a>
</g>
</g>
<!-- Node6&#45;&gt;Node2 -->
<g id="edge7_Node000006_Node000002" class="edge">
<title>Node6&#45;&gt;Node2</title>
<g id="a_edge7_Node000006_Node000002"><a xlink:title=" ">
<path fill="none" stroke="#63b8ff" d="M94.86,-129.16C114.54,-153.3 147.93,-188.19 186.25,-203 378.04,-277.12 630.49,-197.06 727.64,-160.36"/>
<polygon fill="#63b8ff" stroke="#63b8ff" points="97.65,-127.05 88.71,-121.38 92.16,-131.4 97.65,-127.05"/>
</a>
</g>
</g>
<!-- Node6&#45;&gt;Node3 -->
<g id="edge6_Node000006_Node000003" class="edge">
<title>Node6&#45;&gt;Node3</title>
<g id="a_edge6_Node000006_Node000003"><a xlink:title=" ">
<path fill="none" stroke="#63b8ff" d="M101.63,-128.01C122.55,-145.95 153.9,-169.03 186.25,-179 314.64,-218.57 476.86,-188.2 550.2,-170.47"/>
<polygon fill="#63b8ff" stroke="#63b8ff" points="104,-125.43 94.19,-121.44 99.37,-130.68 104,-125.43"/>
</a>
</g>
</g>
<!-- Node6&#45;&gt;Node4 -->
<g id="edge8_Node000006_Node000004" class="edge">
<title>Node6&#45;&gt;Node4</title>
<g id="a_edge8_Node000006_Node000004"><a xlink:title=" ">
<path fill="none" stroke="#63b8ff" d="M148.34,-85.19C160.9,-82.62 173.89,-80.38 186.25,-79 253.61,-71.45 271.33,-72.04 338.75,-79 350.47,-80.21 362.9,-82.28 374.69,-84.61"/>
<polygon fill="#63b8ff" stroke="#63b8ff" points="147.97,-81.69 138.93,-87.22 149.44,-88.54 147.97,-81.69"/>
</a>
</g>
</g>
<!-- Node7&#45;&gt;Node6 -->
<g id="edge10_Node000007_Node000006" class="edge">
<title>Node7&#45;&gt;Node6</title>
<g id="a_edge10_Node000007_Node000006"><a xlink:title=" ">
<path fill="none" stroke="#63b8ff" d="M182.68,-104C172.09,-104 161.25,-104 150.73,-104"/>
<polygon fill="#63b8ff" stroke="#63b8ff" points="182.54,-107.5 192.54,-104 182.54,-100.5 182.54,-107.5"/>
</a>
</g>
</g>
<!-- Node8&#45;&gt;Node3 -->
<g id="edge12_Node000008_Node000003" class="edge">
<title>Node8&#45;&gt;Node3</title>
<g id="a_edge12_Node000008_Node000003"><a xlink:title=" ">
<path fill="none" stroke="#63b8ff" d="M350.28,-155.6C404.35,-156.59 472.84,-157.85 522.64,-158.77"/>
<polygon fill="#63b8ff" stroke="#63b8ff" points="350.56,-152.1 340.49,-155.42 350.43,-159.1 350.56,-152.1"/>
</a>
</g>
</g>
</g>
</svg>
