<?xml version="1.0" encoding="UTF-8" standalone="no"?>
<!DOCTYPE svg PUBLIC "-//W3C//DTD SVG 1.1//EN"
 "http://www.w3.org/Graphics/SVG/1.1/DTD/svg11.dtd">
<!-- Generated by graphviz version 12.2.1 (20241206.2353)
 -->
<!-- Title: domini.jugadors.Jugador.getPuntuacio_actual Pages: 1 -->
<svg width="550pt" height="40pt"
 viewBox="0.00 0.00 549.50 40.00" xmlns="http://www.w3.org/2000/svg" xmlns:xlink="http://www.w3.org/1999/xlink">
<g id="graph0" class="graph" transform="scale(1 1) rotate(0) translate(4 36)">
<title>domini.jugadors.Jugador.getPuntuacio_actual</title>
<!-- Node1 -->
<g id="Node000001" class="node">
<title>Node1</title>
<g id="a_Node000001"><a xlink:title="Retorna la puntuació actual del jugador.">
<polygon fill="#999999" stroke="#666666" points="541.5,-32 403.25,-32 403.25,0 541.5,0 541.5,-32"/>
<text text-anchor="start" x="411.25" y="-18.5" font-family="Helvetica,sans-Serif" font-size="10.00">domini.jugadors.Jugador.get</text>
<text text-anchor="middle" x="472.38" y="-6.5" font-family="Helvetica,sans-Serif" font-size="10.00">Puntuacio_actual</text>
</a>
</g>
</g>
<!-- Node2 -->
<g id="Node000002" class="node">
<title>Node2</title>
<g id="a_Node000002"><a xlink:href="classcontroladors_1_1_ctrl_domini.html#a635aeffb46f12e2188110476c797a038" target="_top" xlink:title="Processa els resultats d&#39;una partida contra la màquina.">
<polygon fill="white" stroke="#666666" points="367.25,-32 202.75,-32 202.75,0 367.25,0 367.25,-32"/>
<text text-anchor="start" x="210.75" y="-18.5" font-family="Helvetica,sans-Serif" font-size="10.00">controladors.CtrlDomini.processar</text>
<text text-anchor="middle" x="285" y="-6.5" font-family="Helvetica,sans-Serif" font-size="10.00">PartidaMaquina</text>
</a>
</g>
</g>
<!-- Node1&#45;&gt;Node2 -->
<g id="edge1_Node000001_Node000002" class="edge">
<title>Node1&#45;&gt;Node2</title>
<g id="a_edge1_Node000001_Node000002"><a xlink:title=" ">
<path fill="none" stroke="#63b8ff" d="M391.46,-16C383.59,-16 375.6,-16 367.71,-16"/>
<polygon fill="#63b8ff" stroke="#63b8ff" points="391.36,-19.5 401.36,-16 391.36,-12.5 391.36,-19.5"/>
</a>
</g>
</g>
<!-- Node3 -->
<g id="Node000003" class="node">
<title>Node3</title>
<g id="a_Node000003"><a xlink:href="classcontroladors_1_1_ctrl_domini.html#af2774b364abee1ac4832823ff1b0d556" target="_top" xlink:title="Actualitza el rànquing després d&#39;una partida.">
<polygon fill="white" stroke="#666666" points="166.75,-32 0,-32 0,0 166.75,0 166.75,-32"/>
<text text-anchor="start" x="8" y="-18.5" font-family="Helvetica,sans-Serif" font-size="10.00">controladors.CtrlDomini.actualitzar</text>
<text text-anchor="middle" x="83.38" y="-6.5" font-family="Helvetica,sans-Serif" font-size="10.00">Ranking</text>
</a>
</g>
</g>
<!-- Node2&#45;&gt;Node3 -->
<g id="edge2_Node000002_Node000003" class="edge">
<title>Node2&#45;&gt;Node3</title>
<g id="a_edge2_Node000002_Node000003"><a xlink:title=" ">
<path fill="none" stroke="#63b8ff" d="M191.24,-16C183.23,-16 175.15,-16 167.22,-16"/>
<polygon fill="#63b8ff" stroke="#63b8ff" points="191,-19.5 201,-16 191,-12.5 191,-19.5"/>
</a>
</g>
</g>
</g>
</svg>
