<?xml version="1.0" encoding="UTF-8" standalone="no"?>
<!DOCTYPE svg PUBLIC "-//W3C//DTD SVG 1.1//EN"
 "http://www.w3.org/Graphics/SVG/1.1/DTD/svg11.dtd">
<!-- Generated by graphviz version 12.2.1 (20241206.2353)
 -->
<!-- Title: interficie.VistaConsultarEstadistiques.mostrarEstadistiques Pages: 1 -->
<svg width="374pt" height="428pt"
 viewBox="0.00 0.00 373.75 428.00" xmlns="http://www.w3.org/2000/svg" xmlns:xlink="http://www.w3.org/1999/xlink">
<g id="graph0" class="graph" transform="scale(1 1) rotate(0) translate(4 424)">
<title>interficie.VistaConsultarEstadistiques.mostrarEstadistiques</title>
<!-- Node1 -->
<g id="Node000001" class="node">
<title>Node1</title>
<g id="a_Node000001"><a xlink:title="Mostra les estadístiques d’un avatar seleccionat a l’àrea d’estadístiques.">
<polygon fill="#999999" stroke="#666666" points="170.5,-232 0,-232 0,-200 170.5,-200 170.5,-232"/>
<text text-anchor="start" x="8" y="-218.5" font-family="Helvetica,sans-Serif" font-size="10.00">interficie.VistaConsultar</text>
<text text-anchor="middle" x="85.25" y="-206.5" font-family="Helvetica,sans-Serif" font-size="10.00">Estadistiques.mostrarEstadistiques</text>
</a>
</g>
</g>
<!-- Node2 -->
<g id="Node000002" class="node">
<title>Node2</title>
<g id="a_Node000002"><a xlink:href="$classdomini_1_1jugadors_1_1_jugador.html#abd263319ed47cf1469e301659e15dd26" xlink:title="Retorna el nom del jugador.">
<polygon fill="white" stroke="#666666" points="365.75,-420 206.5,-420 206.5,-400 365.75,-400 365.75,-420"/>
<text text-anchor="middle" x="286.12" y="-406.5" font-family="Helvetica,sans-Serif" font-size="10.00">domini.jugadors.Jugador.getNom</text>
</a>
</g>
</g>
<!-- Node1&#45;&gt;Node2 -->
<g id="edge1_Node000001_Node000002" class="edge">
<title>Node1&#45;&gt;Node2</title>
<g id="a_edge1_Node000001_Node000002"><a xlink:title=" ">
<path fill="none" stroke="#63b8ff" d="M92.6,-232.24C107.13,-267.14 146.23,-349.51 206.5,-391 208.44,-392.34 210.47,-393.58 212.56,-394.74"/>
<polygon fill="#63b8ff" stroke="#63b8ff" points="210.83,-397.79 221.37,-398.89 213.82,-391.46 210.83,-397.79"/>
</a>
</g>
</g>
<!-- Node3 -->
<g id="Node000003" class="node">
<title>Node3</title>
<g id="a_Node000003"><a xlink:href="$classdomini_1_1jugadors_1_1_avatar.html#ae03a80bc5530cb674e348c164d5bce96" xlink:title="Obté el nombre de partides abandonades.">
<polygon fill="white" stroke="#666666" points="352.25,-382 220,-382 220,-350 352.25,-350 352.25,-382"/>
<text text-anchor="start" x="228" y="-368.5" font-family="Helvetica,sans-Serif" font-size="10.00">domini.jugadors.Avatar.get</text>
<text text-anchor="middle" x="286.12" y="-356.5" font-family="Helvetica,sans-Serif" font-size="10.00">Partides_abandonades</text>
</a>
</g>
</g>
<!-- Node1&#45;&gt;Node3 -->
<g id="edge2_Node000001_Node000003" class="edge">
<title>Node1&#45;&gt;Node3</title>
<g id="a_edge2_Node000001_Node000003"><a xlink:title=" ">
<path fill="none" stroke="#63b8ff" d="M97.64,-232.29C117.01,-258.84 158.94,-311.42 206.5,-341 208.62,-342.32 210.83,-343.58 213.08,-344.77"/>
<polygon fill="#63b8ff" stroke="#63b8ff" points="211.37,-347.84 221.91,-348.98 214.39,-341.52 211.37,-347.84"/>
</a>
</g>
</g>
<!-- Node4 -->
<g id="Node000004" class="node">
<title>Node4</title>
<g id="a_Node000004"><a xlink:href="$classdomini_1_1jugadors_1_1_avatar.html#a09267d0c45d69d64bb99bdccc476f37f" xlink:title="Obté el nombre total de partides guanyades.">
<polygon fill="white" stroke="#666666" points="352.25,-332 220,-332 220,-300 352.25,-300 352.25,-332"/>
<text text-anchor="start" x="228" y="-318.5" font-family="Helvetica,sans-Serif" font-size="10.00">domini.jugadors.Avatar.get</text>
<text text-anchor="middle" x="286.12" y="-306.5" font-family="Helvetica,sans-Serif" font-size="10.00">Partides_guanyades</text>
</a>
</g>
</g>
<!-- Node1&#45;&gt;Node4 -->
<g id="edge3_Node000001_Node000004" class="edge">
<title>Node1&#45;&gt;Node4</title>
<g id="a_edge3_Node000001_Node000004"><a xlink:title=" ">
<path fill="none" stroke="#63b8ff" d="M108.78,-232.46C132.25,-249.01 170.54,-274.39 206.5,-291 209.99,-292.61 213.61,-294.16 217.29,-295.64"/>
<polygon fill="#63b8ff" stroke="#63b8ff" points="215.79,-298.81 226.38,-299.09 218.27,-292.27 215.79,-298.81"/>
</a>
</g>
</g>
<!-- Node5 -->
<g id="Node000005" class="node">
<title>Node5</title>
<g id="a_Node000005"><a xlink:href="$classdomini_1_1jugadors_1_1_avatar.html#ab4f6aa10583b4cefd2fefcad13ef0a1d" xlink:title="Obté el nombre de partides guanyades contra altres jugadors.">
<polygon fill="white" stroke="#666666" points="356.75,-282 215.5,-282 215.5,-250 356.75,-250 356.75,-282"/>
<text text-anchor="start" x="223.5" y="-268.5" font-family="Helvetica,sans-Serif" font-size="10.00">domini.jugadors.Avatar.get</text>
<text text-anchor="middle" x="286.12" y="-256.5" font-family="Helvetica,sans-Serif" font-size="10.00">Partides_guanyades_jugador</text>
</a>
</g>
</g>
<!-- Node1&#45;&gt;Node5 -->
<g id="edge4_Node000001_Node000005" class="edge">
<title>Node1&#45;&gt;Node5</title>
<g id="a_edge4_Node000001_Node000005"><a xlink:title=" ">
<path fill="none" stroke="#63b8ff" d="M151.64,-232.44C169.91,-237.03 189.92,-242.06 208.76,-246.8"/>
<polygon fill="#63b8ff" stroke="#63b8ff" points="207.67,-250.14 218.22,-249.18 209.38,-243.35 207.67,-250.14"/>
</a>
</g>
</g>
<!-- Node6 -->
<g id="Node000006" class="node">
<title>Node6</title>
<g id="a_Node000006"><a xlink:href="$classdomini_1_1jugadors_1_1_avatar.html#aab66b96891906cf55c60e50ff8b8096d" xlink:title="Obté el nombre de partides guanyades contra la màquina.">
<polygon fill="white" stroke="#666666" points="359.38,-232 212.88,-232 212.88,-200 359.38,-200 359.38,-232"/>
<text text-anchor="start" x="220.88" y="-218.5" font-family="Helvetica,sans-Serif" font-size="10.00">domini.jugadors.Avatar.get</text>
<text text-anchor="middle" x="286.12" y="-206.5" font-family="Helvetica,sans-Serif" font-size="10.00">Partides_guanyades_maquina</text>
</a>
</g>
</g>
<!-- Node1&#45;&gt;Node6 -->
<g id="edge5_Node000001_Node000006" class="edge">
<title>Node1&#45;&gt;Node6</title>
<g id="a_edge5_Node000001_Node000006"><a xlink:title=" ">
<path fill="none" stroke="#63b8ff" d="M170.88,-216C180.94,-216 191.21,-216 201.26,-216"/>
<polygon fill="#63b8ff" stroke="#63b8ff" points="200.98,-219.5 210.98,-216 200.98,-212.5 200.98,-219.5"/>
</a>
</g>
</g>
<!-- Node7 -->
<g id="Node000007" class="node">
<title>Node7</title>
<g id="a_Node000007"><a xlink:href="$classdomini_1_1jugadors_1_1_avatar.html#a71b0c5addcb4d9e43dde6f2b21319849" xlink:title="Obté el nombre de partides jugades contra altres jugadors.">
<polygon fill="white" stroke="#666666" points="352.25,-182 220,-182 220,-150 352.25,-150 352.25,-182"/>
<text text-anchor="start" x="228" y="-168.5" font-family="Helvetica,sans-Serif" font-size="10.00">domini.jugadors.Avatar.get</text>
<text text-anchor="middle" x="286.12" y="-156.5" font-family="Helvetica,sans-Serif" font-size="10.00">Partides_jugades_jugador</text>
</a>
</g>
</g>
<!-- Node1&#45;&gt;Node7 -->
<g id="edge6_Node000001_Node000007" class="edge">
<title>Node1&#45;&gt;Node7</title>
<g id="a_edge6_Node000001_Node000007"><a xlink:title=" ">
<path fill="none" stroke="#63b8ff" d="M151.64,-199.56C169.91,-194.97 189.92,-189.94 208.76,-185.2"/>
<polygon fill="#63b8ff" stroke="#63b8ff" points="209.38,-188.65 218.22,-182.82 207.67,-181.86 209.38,-188.65"/>
</a>
</g>
</g>
<!-- Node8 -->
<g id="Node000008" class="node">
<title>Node8</title>
<g id="a_Node000008"><a xlink:href="$classdomini_1_1jugadors_1_1_avatar.html#a9e6ce3724548357bff45d01a82757e98" xlink:title="Obté el nombre de partides jugades contra la màquina.">
<polygon fill="white" stroke="#666666" points="352.62,-132 219.62,-132 219.62,-100 352.62,-100 352.62,-132"/>
<text text-anchor="start" x="227.62" y="-118.5" font-family="Helvetica,sans-Serif" font-size="10.00">domini.jugadors.Avatar.get</text>
<text text-anchor="middle" x="286.12" y="-106.5" font-family="Helvetica,sans-Serif" font-size="10.00">Partides_jugades_maquina</text>
</a>
</g>
</g>
<!-- Node1&#45;&gt;Node8 -->
<g id="edge7_Node000001_Node000008" class="edge">
<title>Node1&#45;&gt;Node8</title>
<g id="a_edge7_Node000001_Node000008"><a xlink:title=" ">
<path fill="none" stroke="#63b8ff" d="M108.78,-199.54C132.25,-182.99 170.54,-157.61 206.5,-141 209.99,-139.39 213.61,-137.84 217.29,-136.36"/>
<polygon fill="#63b8ff" stroke="#63b8ff" points="218.27,-139.73 226.38,-132.91 215.79,-133.19 218.27,-139.73"/>
</a>
</g>
</g>
<!-- Node9 -->
<g id="Node000009" class="node">
<title>Node9</title>
<g id="a_Node000009"><a xlink:href="$classdomini_1_1jugadors_1_1_avatar.html#a36dd848bbc2c712120c9c53d892cc5fd" xlink:title="Obté el nombre total de partides jugades.">
<polygon fill="white" stroke="#666666" points="352.25,-82 220,-82 220,-50 352.25,-50 352.25,-82"/>
<text text-anchor="start" x="228" y="-68.5" font-family="Helvetica,sans-Serif" font-size="10.00">domini.jugadors.Avatar.get</text>
<text text-anchor="middle" x="286.12" y="-56.5" font-family="Helvetica,sans-Serif" font-size="10.00">PartidesJugades</text>
</a>
</g>
</g>
<!-- Node1&#45;&gt;Node9 -->
<g id="edge8_Node000001_Node000009" class="edge">
<title>Node1&#45;&gt;Node9</title>
<g id="a_edge8_Node000001_Node000009"><a xlink:title=" ">
<path fill="none" stroke="#63b8ff" d="M97.64,-199.71C117.01,-173.16 158.94,-120.58 206.5,-91 208.62,-89.68 210.83,-88.42 213.08,-87.23"/>
<polygon fill="#63b8ff" stroke="#63b8ff" points="214.39,-90.48 221.91,-83.02 211.37,-84.16 214.39,-90.48"/>
</a>
</g>
</g>
<!-- Node10 -->
<g id="Node000010" class="node">
<title>Node10</title>
<g id="a_Node000010"><a xlink:href="$classdomini_1_1jugadors_1_1_avatar.html#a34ab1967919207e6fbee5a4893579dc5" xlink:title="Obté la puntuació màxima obtinguda en una paraula.">
<polygon fill="white" stroke="#666666" points="352.25,-32 220,-32 220,0 352.25,0 352.25,-32"/>
<text text-anchor="start" x="228" y="-18.5" font-family="Helvetica,sans-Serif" font-size="10.00">domini.jugadors.Avatar.get</text>
<text text-anchor="middle" x="286.12" y="-6.5" font-family="Helvetica,sans-Serif" font-size="10.00">Puntuacio_max_paraula</text>
</a>
</g>
</g>
<!-- Node1&#45;&gt;Node10 -->
<g id="edge9_Node000001_Node000010" class="edge">
<title>Node1&#45;&gt;Node10</title>
<g id="a_edge9_Node000001_Node000010"><a xlink:title=" ">
<path fill="none" stroke="#63b8ff" d="M93.06,-199.56C108.21,-164.98 148.03,-84.38 206.5,-41 207.87,-39.99 209.27,-39.01 210.72,-38.08"/>
<polygon fill="#63b8ff" stroke="#63b8ff" points="212.38,-41.16 219.37,-33.2 208.94,-35.06 212.38,-41.16"/>
</a>
</g>
</g>
</g>
</svg>
