<?xml version="1.0" encoding="UTF-8" standalone="no"?>
<!DOCTYPE svg PUBLIC "-//W3C//DTD SVG 1.1//EN"
 "http://www.w3.org/Graphics/SVG/1.1/DTD/svg11.dtd">
<!-- Generated by graphviz version 12.2.1 (20241206.2353)
 -->
<!-- Title: drivers.Driver.passarTorn Pages: 1 -->
<svg width="539pt" height="66pt"
 viewBox="0.00 0.00 539.00 66.00" xmlns="http://www.w3.org/2000/svg" xmlns:xlink="http://www.w3.org/1999/xlink">
<g id="graph0" class="graph" transform="scale(1 1) rotate(0) translate(4 62)">
<title>drivers.Driver.passarTorn</title>
<!-- Node1 -->
<g id="Node000001" class="node">
<title>Node1</title>
<g id="a_Node000001"><a xlink:title="Passa el torn del jugador actual.">
<polygon fill="#999999" stroke="#666666" points="125.5,-39 0,-39 0,-19 125.5,-19 125.5,-39"/>
<text text-anchor="middle" x="62.75" y="-25.5" font-family="Helvetica,sans-Serif" font-size="10.00">drivers.Driver.passarTorn</text>
</a>
</g>
</g>
<!-- Node2 -->
<g id="Node000002" class="node">
<title>Node2</title>
<g id="a_Node000002"><a xlink:href="classdrivers_1_1_driver.html#a735bc9f4183f4abd4c702da4c62b0ce8" target="_top" xlink:title="Mostra la pantalla de canvi de torn donant temps per a que el jugador es retiri i no vegi la pantalla...">
<polygon fill="white" stroke="#666666" points="299.75,-45 161.5,-45 161.5,-13 299.75,-13 299.75,-45"/>
<text text-anchor="start" x="169.5" y="-31.5" font-family="Helvetica,sans-Serif" font-size="10.00">drivers.Driver.PantallaCanvi</text>
<text text-anchor="middle" x="230.62" y="-19.5" font-family="Helvetica,sans-Serif" font-size="10.00">DeTorn</text>
</a>
</g>
</g>
<!-- Node1&#45;&gt;Node2 -->
<g id="edge1_Node000001_Node000002" class="edge">
<title>Node1&#45;&gt;Node2</title>
<g id="a_edge1_Node000001_Node000002"><a xlink:title=" ">
<path fill="none" stroke="#63b8ff" d="M125.99,-29C133.8,-29 141.87,-29 149.9,-29"/>
<polygon fill="#63b8ff" stroke="#63b8ff" points="149.69,-32.5 159.69,-29 149.69,-25.5 149.69,-32.5"/>
</a>
</g>
</g>
<!-- Node3 -->
<g id="Node000003" class="node">
<title>Node3</title>
<g id="a_Node000003"><a xlink:href="classdomini_1_1auxiliars_1_1_color_terminal.html#a2fe2444decaa0df626b98d7e35637dbb" target="_top" xlink:title="Centra el text en una línia de la terminal.">
<polygon fill="white" stroke="#666666" points="531,-58 335.75,-58 335.75,-38 531,-38 531,-58"/>
<text text-anchor="middle" x="433.38" y="-44.5" font-family="Helvetica,sans-Serif" font-size="10.00">domini.auxiliars.ColorTerminal.centerText</text>
</a>
</g>
</g>
<!-- Node2&#45;&gt;Node3 -->
<g id="edge2_Node000002_Node000003" class="edge">
<title>Node2&#45;&gt;Node3</title>
<g id="a_edge2_Node000002_Node000003"><a xlink:title=" ">
<path fill="none" stroke="#63b8ff" d="M300.15,-35.49C307.87,-36.22 315.87,-36.97 323.94,-37.74"/>
<polygon fill="#63b8ff" stroke="#63b8ff" points="323.58,-41.22 333.87,-38.68 324.24,-34.25 323.58,-41.22"/>
</a>
</g>
</g>
<!-- Node4 -->
<g id="Node000004" class="node">
<title>Node4</title>
<g id="a_Node000004"><a xlink:href="classdrivers_1_1_driver.html#a8bc044826a5994373681c23cc5555bce" target="_top" xlink:title="Neteja la pantalla del terminal.">
<polygon fill="white" stroke="#666666" points="498,-20 368.75,-20 368.75,0 498,0 498,-20"/>
<text text-anchor="middle" x="433.38" y="-6.5" font-family="Helvetica,sans-Serif" font-size="10.00">drivers.Driver.clearScreen</text>
</a>
</g>
</g>
<!-- Node2&#45;&gt;Node4 -->
<g id="edge3_Node000002_Node000004" class="edge">
<title>Node2&#45;&gt;Node4</title>
<g id="a_edge3_Node000002_Node000004"><a xlink:title=" ">
<path fill="none" stroke="#63b8ff" d="M300.15,-22.51C318.49,-20.78 338.42,-18.89 357.1,-17.12"/>
<polygon fill="#63b8ff" stroke="#63b8ff" points="357.42,-20.61 367.04,-16.18 356.76,-13.64 357.42,-20.61"/>
</a>
</g>
</g>
</g>
</svg>
