<?xml version="1.0" encoding="UTF-8" standalone="no"?>
<!DOCTYPE svg PUBLIC "-//W3C//DTD SVG 1.1//EN"
 "http://www.w3.org/Graphics/SVG/1.1/DTD/svg11.dtd">
<!-- Generated by graphviz version 12.2.1 (20241206.2353)
 -->
<!-- Title: persistencia.PartidaIO.loadPartida Pages: 1 -->
<svg width="312pt" height="190pt"
 viewBox="0.00 0.00 312.25 190.00" xmlns="http://www.w3.org/2000/svg" xmlns:xlink="http://www.w3.org/1999/xlink">
<g id="graph0" class="graph" transform="scale(1 1) rotate(0) translate(4 186)">
<title>persistencia.PartidaIO.loadPartida</title>
<!-- Node1 -->
<g id="Node000001" class="node">
<title>Node1</title>
<g id="a_Node000001"><a xlink:title="Carrega una partida des d&#39;un fitxer JSON.">
<polygon fill="#999999" stroke="#666666" points="133.75,-107 0,-107 0,-75 133.75,-75 133.75,-107"/>
<text text-anchor="start" x="8" y="-93.5" font-family="Helvetica,sans-Serif" font-size="10.00">persistencia.PartidaIO.load</text>
<text text-anchor="middle" x="66.88" y="-81.5" font-family="Helvetica,sans-Serif" font-size="10.00">Partida</text>
</a>
</g>
</g>
<!-- Node2 -->
<g id="Node000002" class="node">
<title>Node2</title>
<g id="a_Node000002"><a xlink:href="$classdomini_1_1scrabble_1_1_partida.html#a02bdb9c41da95458503bb9d1967ea9e8" xlink:title="Retorna la instància de la bossa.">
<polygon fill="white" stroke="#666666" points="304.25,-182 169.75,-182 169.75,-150 304.25,-150 304.25,-182"/>
<text text-anchor="start" x="177.75" y="-168.5" font-family="Helvetica,sans-Serif" font-size="10.00">domini.scrabble.Partida.get</text>
<text text-anchor="middle" x="237" y="-156.5" font-family="Helvetica,sans-Serif" font-size="10.00">Bossa</text>
</a>
</g>
</g>
<!-- Node1&#45;&gt;Node2 -->
<g id="edge1_Node000001_Node000002" class="edge">
<title>Node1&#45;&gt;Node2</title>
<g id="a_edge1_Node000001_Node000002"><a xlink:title=" ">
<path fill="none" stroke="#63b8ff" d="M99.18,-107.33C119.14,-117.5 145.7,-130.59 169.75,-141 173.13,-142.47 176.64,-143.93 180.18,-145.38"/>
<polygon fill="#63b8ff" stroke="#63b8ff" points="178.87,-148.62 189.46,-149.07 181.46,-142.12 178.87,-148.62"/>
</a>
</g>
</g>
<!-- Node3 -->
<g id="Node000003" class="node">
<title>Node3</title>
<g id="a_Node000003"><a xlink:href="$classdomini_1_1scrabble_1_1_partida.html#a719791835f1334957e59dcfe4d2a4cec" xlink:title="Retorna l&#39;estat actual de la partida.">
<polygon fill="white" stroke="#666666" points="304.25,-132 169.75,-132 169.75,-100 304.25,-100 304.25,-132"/>
<text text-anchor="start" x="177.75" y="-118.5" font-family="Helvetica,sans-Serif" font-size="10.00">domini.scrabble.Partida.get</text>
<text text-anchor="middle" x="237" y="-106.5" font-family="Helvetica,sans-Serif" font-size="10.00">Estat</text>
</a>
</g>
</g>
<!-- Node1&#45;&gt;Node3 -->
<g id="edge2_Node000001_Node000003" class="edge">
<title>Node1&#45;&gt;Node3</title>
<g id="a_edge2_Node000001_Node000003"><a xlink:title=" ">
<path fill="none" stroke="#63b8ff" d="M133.84,-100.81C141.78,-101.99 149.95,-103.2 158.04,-104.41"/>
<polygon fill="#63b8ff" stroke="#63b8ff" points="157.49,-107.86 167.9,-105.87 158.52,-100.94 157.49,-107.86"/>
</a>
</g>
</g>
<!-- Node4 -->
<g id="Node000004" class="node">
<title>Node4</title>
<g id="a_Node000004"><a xlink:href="$classdomini_1_1scrabble_1_1_bossa.html#aa72b114802328935e32718821a3322ce" xlink:title="Obté les fitxes de la bossa.">
<polygon fill="white" stroke="#666666" points="302.75,-82 171.25,-82 171.25,-50 302.75,-50 302.75,-82"/>
<text text-anchor="start" x="179.25" y="-68.5" font-family="Helvetica,sans-Serif" font-size="10.00">domini.scrabble.Bossa.get</text>
<text text-anchor="middle" x="237" y="-56.5" font-family="Helvetica,sans-Serif" font-size="10.00">Fitxes</text>
</a>
</g>
</g>
<!-- Node1&#45;&gt;Node4 -->
<g id="edge3_Node000001_Node000004" class="edge">
<title>Node1&#45;&gt;Node4</title>
<g id="a_edge3_Node000001_Node000004"><a xlink:title=" ">
<path fill="none" stroke="#63b8ff" d="M133.84,-81.19C142.28,-79.94 150.98,-78.64 159.57,-77.36"/>
<polygon fill="#63b8ff" stroke="#63b8ff" points="159.9,-80.85 169.28,-75.92 158.87,-73.93 159.9,-80.85"/>
</a>
</g>
</g>
<!-- Node5 -->
<g id="Node000005" class="node">
<title>Node5</title>
<g id="a_Node000005"><a xlink:href="$classdomini_1_1scrabble_1_1_estat.html#acb727a684104d60ab770231bebdcc9c6" xlink:title="Mètode que assigna la partida del paràmetre a l&#39;estat.">
<polygon fill="white" stroke="#666666" points="300.5,-32 173.5,-32 173.5,0 300.5,0 300.5,-32"/>
<text text-anchor="start" x="181.5" y="-18.5" font-family="Helvetica,sans-Serif" font-size="10.00">domini.scrabble.Estat.set</text>
<text text-anchor="middle" x="237" y="-6.5" font-family="Helvetica,sans-Serif" font-size="10.00">Partida</text>
</a>
</g>
</g>
<!-- Node1&#45;&gt;Node5 -->
<g id="edge4_Node000001_Node000005" class="edge">
<title>Node1&#45;&gt;Node5</title>
<g id="a_edge4_Node000001_Node000005"><a xlink:title=" ">
<path fill="none" stroke="#63b8ff" d="M99.18,-74.67C119.14,-64.5 145.7,-51.41 169.75,-41 173.13,-39.53 176.64,-38.07 180.18,-36.62"/>
<polygon fill="#63b8ff" stroke="#63b8ff" points="181.46,-39.88 189.46,-32.93 178.87,-33.38 181.46,-39.88"/>
</a>
</g>
</g>
</g>
</svg>
