<?xml version="1.0" encoding="UTF-8" standalone="no"?>
<!DOCTYPE svg PUBLIC "-//W3C//DTD SVG 1.1//EN"
 "http://www.w3.org/Graphics/SVG/1.1/DTD/svg11.dtd">
<!-- Generated by graphviz version 12.2.1 (20241206.2353)
 -->
<!-- Title: controladors.CtrlPresentacio.canviRankingPartida Pages: 1 -->
<svg width="366pt" height="240pt"
 viewBox="0.00 0.00 366.25 240.00" xmlns="http://www.w3.org/2000/svg" xmlns:xlink="http://www.w3.org/1999/xlink">
<g id="graph0" class="graph" transform="scale(1 1) rotate(0) translate(4 236)">
<title>controladors.CtrlPresentacio.canviRankingPartida</title>
<!-- Node1 -->
<g id="Node000001" class="node">
<title>Node1</title>
<g id="a_Node000001"><a xlink:title="Canvia la vista a la pantalla de rànquing final un cop acabada la partida.">
<polygon fill="#999999" stroke="#666666" points="166,-132 0,-132 0,-100 166,-100 166,-132"/>
<text text-anchor="start" x="8" y="-118.5" font-family="Helvetica,sans-Serif" font-size="10.00">controladors.CtrlPresentacio.canvi</text>
<text text-anchor="middle" x="83" y="-106.5" font-family="Helvetica,sans-Serif" font-size="10.00">RankingPartida</text>
</a>
</g>
</g>
<!-- Node2 -->
<g id="Node000002" class="node">
<title>Node2</title>
<g id="a_Node000002"><a xlink:href="classdomini_1_1scrabble_1_1_partida.html#aa70bb260790c2c58f008a3a5acf4d14c" target="_top" xlink:title="Retorna el jugador 1 de la partida.">
<polygon fill="white" stroke="#666666" points="347.38,-232 212.88,-232 212.88,-200 347.38,-200 347.38,-232"/>
<text text-anchor="start" x="220.88" y="-218.5" font-family="Helvetica,sans-Serif" font-size="10.00">domini.scrabble.Partida.get</text>
<text text-anchor="middle" x="280.12" y="-206.5" font-family="Helvetica,sans-Serif" font-size="10.00">Jugador1</text>
</a>
</g>
</g>
<!-- Node1&#45;&gt;Node2 -->
<g id="edge1_Node000001_Node000002" class="edge">
<title>Node1&#45;&gt;Node2</title>
<g id="a_edge1_Node000001_Node000002"><a xlink:title=" ">
<path fill="none" stroke="#63b8ff" d="M106.08,-132.44C129.08,-148.99 166.64,-174.36 202,-191 205.31,-192.56 208.75,-194.06 212.24,-195.49"/>
<polygon fill="#63b8ff" stroke="#63b8ff" points="210.87,-198.72 221.46,-199.07 213.4,-192.19 210.87,-198.72"/>
</a>
</g>
</g>
<!-- Node3 -->
<g id="Node000003" class="node">
<title>Node3</title>
<g id="a_Node000003"><a xlink:href="classdomini_1_1scrabble_1_1_partida.html#a0b74d361ee022b4e90911616286443aa" target="_top" xlink:title="Retorna el jugador 2 de la partida.">
<polygon fill="white" stroke="#666666" points="347.38,-182 212.88,-182 212.88,-150 347.38,-150 347.38,-182"/>
<text text-anchor="start" x="220.88" y="-168.5" font-family="Helvetica,sans-Serif" font-size="10.00">domini.scrabble.Partida.get</text>
<text text-anchor="middle" x="280.12" y="-156.5" font-family="Helvetica,sans-Serif" font-size="10.00">Jugador2</text>
</a>
</g>
</g>
<!-- Node1&#45;&gt;Node3 -->
<g id="edge2_Node000001_Node000003" class="edge">
<title>Node1&#45;&gt;Node3</title>
<g id="a_edge2_Node000001_Node000003"><a xlink:title=" ">
<path fill="none" stroke="#63b8ff" d="M148.16,-132.44C166,-137.01 185.53,-142.02 203.94,-146.73"/>
<polygon fill="#63b8ff" stroke="#63b8ff" points="202.9,-150.08 213.46,-149.17 204.64,-143.3 202.9,-150.08"/>
</a>
</g>
</g>
<!-- Node4 -->
<g id="Node000004" class="node">
<title>Node4</title>
<g id="a_Node000004"><a xlink:href="classcontroladors_1_1_ctrl_presentacio.html#af18fe9d82387504c97bd73a19eaa15e8" target="_top" xlink:title="Retorna la instància de la partida actual en curs.">
<polygon fill="white" stroke="#666666" points="358.25,-132 202,-132 202,-100 358.25,-100 358.25,-132"/>
<text text-anchor="start" x="210" y="-118.5" font-family="Helvetica,sans-Serif" font-size="10.00">controladors.CtrlPresentacio.get</text>
<text text-anchor="middle" x="280.12" y="-106.5" font-family="Helvetica,sans-Serif" font-size="10.00">Partida</text>
</a>
</g>
</g>
<!-- Node1&#45;&gt;Node4 -->
<g id="edge3_Node000001_Node000004" class="edge">
<title>Node1&#45;&gt;Node4</title>
<g id="a_edge3_Node000001_Node000004"><a xlink:title=" ">
<path fill="none" stroke="#63b8ff" d="M166.47,-116C174.29,-116 182.25,-116 190.14,-116"/>
<polygon fill="#63b8ff" stroke="#63b8ff" points="190.1,-119.5 200.1,-116 190.1,-112.5 190.1,-119.5"/>
</a>
</g>
</g>
<!-- Node5 -->
<g id="Node000005" class="node">
<title>Node5</title>
<g id="a_Node000005"><a xlink:href="classdomini_1_1scrabble_1_1_partida.html#a974f15ba9601af217cd16510b3009343" target="_top" xlink:title="Retorna la puntuació del jugador 1.">
<polygon fill="white" stroke="#666666" points="347.38,-82 212.88,-82 212.88,-50 347.38,-50 347.38,-82"/>
<text text-anchor="start" x="220.88" y="-68.5" font-family="Helvetica,sans-Serif" font-size="10.00">domini.scrabble.Partida.get</text>
<text text-anchor="middle" x="280.12" y="-56.5" font-family="Helvetica,sans-Serif" font-size="10.00">PuntuacioJugador1</text>
</a>
</g>
</g>
<!-- Node1&#45;&gt;Node5 -->
<g id="edge4_Node000001_Node000005" class="edge">
<title>Node1&#45;&gt;Node5</title>
<g id="a_edge4_Node000001_Node000005"><a xlink:title=" ">
<path fill="none" stroke="#63b8ff" d="M148.16,-99.56C166,-94.99 185.53,-89.98 203.94,-85.27"/>
<polygon fill="#63b8ff" stroke="#63b8ff" points="204.64,-88.7 213.46,-82.83 202.9,-81.92 204.64,-88.7"/>
</a>
</g>
</g>
<!-- Node6 -->
<g id="Node000006" class="node">
<title>Node6</title>
<g id="a_Node000006"><a xlink:href="classdomini_1_1scrabble_1_1_partida.html#a7e2de1d70128d27e1477c2e4b144569e" target="_top" xlink:title="Retorna la puntuació del jugador 2.">
<polygon fill="white" stroke="#666666" points="347.38,-32 212.88,-32 212.88,0 347.38,0 347.38,-32"/>
<text text-anchor="start" x="220.88" y="-18.5" font-family="Helvetica,sans-Serif" font-size="10.00">domini.scrabble.Partida.get</text>
<text text-anchor="middle" x="280.12" y="-6.5" font-family="Helvetica,sans-Serif" font-size="10.00">PuntuacioJugador2</text>
</a>
</g>
</g>
<!-- Node1&#45;&gt;Node6 -->
<g id="edge5_Node000001_Node000006" class="edge">
<title>Node1&#45;&gt;Node6</title>
<g id="a_edge5_Node000001_Node000006"><a xlink:title=" ">
<path fill="none" stroke="#63b8ff" d="M106.08,-99.56C129.08,-83.01 166.64,-57.64 202,-41 205.31,-39.44 208.75,-37.94 212.24,-36.51"/>
<polygon fill="#63b8ff" stroke="#63b8ff" points="213.4,-39.81 221.46,-32.93 210.87,-33.28 213.4,-39.81"/>
</a>
</g>
</g>
</g>
</svg>
