<?xml version="1.0" encoding="UTF-8" standalone="no"?>
<!DOCTYPE svg PUBLIC "-//W3C//DTD SVG 1.1//EN"
 "http://www.w3.org/Graphics/SVG/1.1/DTD/svg11.dtd">
<!-- Generated by graphviz version 12.2.1 (20241206.2353)
 -->
<!-- Title: interficie.utils.Tools.actualitzarImatge Pages: 1 -->
<svg width="785pt" height="752pt"
 viewBox="0.00 0.00 785.25 752.00" xmlns="http://www.w3.org/2000/svg" xmlns:xlink="http://www.w3.org/1999/xlink">
<g id="graph0" class="graph" transform="scale(1 1) rotate(0) translate(4 748)">
<title>interficie.utils.Tools.actualitzarImatge</title>
<!-- Node1 -->
<g id="Node000001" class="node">
<title>Node1</title>
<g id="a_Node000001"><a xlink:title="Actualitza la imatge d&#39;un JLabel redimensionant&#45;la per adaptar&#45;se a les mides màximes indicades mante...">
<polygon fill="#999999" stroke="#666666" points="777.25,-436 629.25,-436 629.25,-404 777.25,-404 777.25,-436"/>
<text text-anchor="start" x="637.25" y="-422.5" font-family="Helvetica,sans-Serif" font-size="10.00">interficie.utils.Tools.actualitzar</text>
<text text-anchor="middle" x="703.25" y="-410.5" font-family="Helvetica,sans-Serif" font-size="10.00">Imatge</text>
</a>
</g>
</g>
<!-- Node2 -->
<g id="Node000002" class="node">
<title>Node2</title>
<g id="a_Node000002"><a xlink:href="$classinterficie_1_1_vista_crear_avatar.html#a275c320ec75c735937be368a8becfb46" xlink:title="Escala i posiciona els components segons la mida actual.">
<polygon fill="white" stroke="#666666" points="574.88,-744 409.62,-744 409.62,-712 574.88,-712 574.88,-744"/>
<text text-anchor="start" x="417.62" y="-730.5" font-family="Helvetica,sans-Serif" font-size="10.00">interficie.VistaCrearAvatar.escalar</text>
<text text-anchor="middle" x="492.25" y="-718.5" font-family="Helvetica,sans-Serif" font-size="10.00">Componentes</text>
</a>
</g>
</g>
<!-- Node1&#45;&gt;Node2 -->
<g id="edge1_Node000001_Node000002" class="edge">
<title>Node1&#45;&gt;Node2</title>
<g id="a_edge1_Node000001_Node000002"><a xlink:title=" ">
<path fill="none" stroke="#63b8ff" d="M699.38,-447.57C692.1,-503.16 667.88,-629.27 593.25,-698 587.25,-703.53 580.27,-708.04 572.84,-711.72"/>
<polygon fill="#63b8ff" stroke="#63b8ff" points="702.84,-448.07 700.57,-437.72 695.89,-447.23 702.84,-448.07"/>
</a>
</g>
</g>
<!-- Node3 -->
<g id="Node000003" class="node">
<title>Node3</title>
<g id="a_Node000003"><a xlink:href="$classinterficie_1_1_vista_crear_avatar.html#ae0d9f95418da2ecb046e19ce8d9f8d0b" xlink:title="Constructor de la finestra VistaCrearAvatar.">
<polygon fill="white" stroke="#666666" points="345.88,-711 212.12,-711 212.12,-679 345.88,-679 345.88,-711"/>
<text text-anchor="start" x="220.12" y="-697.5" font-family="Helvetica,sans-Serif" font-size="10.00">interficie.VistaCrearAvatar.</text>
<text text-anchor="middle" x="279" y="-685.5" font-family="Helvetica,sans-Serif" font-size="10.00">VistaCrearAvatar</text>
</a>
</g>
</g>
<!-- Node1&#45;&gt;Node3 -->
<g id="edge33_Node000001_Node000003" class="edge">
<title>Node1&#45;&gt;Node3</title>
<g id="a_edge33_Node000001_Node000003"><a xlink:title=" ">
<path fill="none" stroke="#63b8ff" d="M698.95,-447.65C691.1,-499.89 666.19,-612.51 593.25,-665 555,-692.53 426.07,-696.58 346.03,-696.29"/>
<polygon fill="#63b8ff" stroke="#63b8ff" points="702.41,-448.2 700.31,-437.82 695.47,-447.24 702.41,-448.2"/>
</a>
</g>
</g>
<!-- Node5 -->
<g id="Node000005" class="node">
<title>Node5</title>
<g id="a_Node000005"><a xlink:href="$classinterficie_1_1_vista_crear_perfil.html#ab2dea48a192f08da5032b8c03bdaa697" xlink:title="Escala i reubica els components segons la mida actual de la finestra, mantenint proporcions relatives...">
<polygon fill="white" stroke="#666666" points="571.88,-656 412.62,-656 412.62,-624 571.88,-624 571.88,-656"/>
<text text-anchor="start" x="420.62" y="-642.5" font-family="Helvetica,sans-Serif" font-size="10.00">interficie.VistaCrearPerfil.escalar</text>
<text text-anchor="middle" x="492.25" y="-630.5" font-family="Helvetica,sans-Serif" font-size="10.00">Componentes</text>
</a>
</g>
</g>
<!-- Node1&#45;&gt;Node5 -->
<g id="edge6_Node000001_Node000005" class="edge">
<title>Node1&#45;&gt;Node5</title>
<g id="a_edge6_Node000001_Node000005"><a xlink:title=" ">
<path fill="none" stroke="#63b8ff" d="M693.99,-447.07C680,-488.35 647.73,-566.77 593.25,-610 586.36,-615.46 578.5,-619.93 570.27,-623.59"/>
<polygon fill="#63b8ff" stroke="#63b8ff" points="697.28,-448.27 697.05,-437.67 690.62,-446.09 697.28,-448.27"/>
</a>
</g>
</g>
<!-- Node6 -->
<g id="Node000006" class="node">
<title>Node6</title>
<g id="a_Node000006"><a xlink:href="$classinterficie_1_1_vista_crear_perfil.html#aea921123ade57f0e42263807a1842aaf" xlink:title="Constructor que crea la finestra per crear un perfil.">
<polygon fill="white" stroke="#666666" points="342.88,-633 215.12,-633 215.12,-601 342.88,-601 342.88,-633"/>
<text text-anchor="start" x="223.12" y="-619.5" font-family="Helvetica,sans-Serif" font-size="10.00">interficie.VistaCrearPerfil.</text>
<text text-anchor="middle" x="279" y="-607.5" font-family="Helvetica,sans-Serif" font-size="10.00">VistaCrearPerfil</text>
</a>
</g>
</g>
<!-- Node1&#45;&gt;Node6 -->
<g id="edge36_Node000001_Node000006" class="edge">
<title>Node1&#45;&gt;Node6</title>
<g id="a_edge36_Node000001_Node000006"><a xlink:title=" ">
<path fill="none" stroke="#63b8ff" d="M692.02,-446.54C676.58,-482.69 643.64,-546.42 593.25,-577 552.47,-601.75 422.41,-611.33 343.28,-614.93"/>
<polygon fill="#63b8ff" stroke="#63b8ff" points="695.1,-448.25 695.68,-437.67 688.63,-445.58 695.1,-448.25"/>
</a>
</g>
</g>
<!-- Node7 -->
<g id="Node000007" class="node">
<title>Node7</title>
<g id="a_Node000007"><a xlink:href="$classinterficie_1_1_vista_iniciar_sessio.html#a71d2fc69c337099df6c2a8ba9c34eca0" xlink:title="Escala i recol·loca els components en funció de la mida actual de la finestra.">
<polygon fill="white" stroke="#666666" points="576.75,-568 407.75,-568 407.75,-536 576.75,-536 576.75,-568"/>
<text text-anchor="start" x="415.75" y="-554.5" font-family="Helvetica,sans-Serif" font-size="10.00">interficie.VistaIniciarSessio.escalar</text>
<text text-anchor="middle" x="492.25" y="-542.5" font-family="Helvetica,sans-Serif" font-size="10.00">Componentes</text>
</a>
</g>
</g>
<!-- Node1&#45;&gt;Node7 -->
<g id="edge9_Node000001_Node000007" class="edge">
<title>Node1&#45;&gt;Node7</title>
<g id="a_edge9_Node000001_Node000007"><a xlink:title=" ">
<path fill="none" stroke="#63b8ff" d="M681.83,-444.8C661.59,-467.89 628.56,-501.7 593.25,-522 583.98,-527.33 573.67,-531.8 563.29,-535.52"/>
<polygon fill="#63b8ff" stroke="#63b8ff" points="684.35,-447.25 688.21,-437.38 679.04,-442.69 684.35,-447.25"/>
</a>
</g>
</g>
<!-- Node8 -->
<g id="Node000008" class="node">
<title>Node8</title>
<g id="a_Node000008"><a xlink:href="$classinterficie_1_1_vista_iniciar_sessio.html#afc5613ff799374e1f28b0e885c6cc264" xlink:title="Constructor que crea la vista d&#39;iniciar sessió.">
<polygon fill="white" stroke="#666666" points="347.75,-557 210.25,-557 210.25,-525 347.75,-525 347.75,-557"/>
<text text-anchor="start" x="218.25" y="-543.5" font-family="Helvetica,sans-Serif" font-size="10.00">interficie.VistaIniciarSessio.</text>
<text text-anchor="middle" x="279" y="-531.5" font-family="Helvetica,sans-Serif" font-size="10.00">VistaIniciarSessio</text>
</a>
</g>
</g>
<!-- Node1&#45;&gt;Node8 -->
<g id="edge37_Node000001_Node000008" class="edge">
<title>Node1&#45;&gt;Node8</title>
<g id="a_edge37_Node000001_Node000008"><a xlink:title=" ">
<path fill="none" stroke="#63b8ff" d="M672.87,-443.19C651.87,-458.59 622.28,-477.92 593.25,-489 570.78,-497.57 433.4,-518.62 348.2,-531.15"/>
<polygon fill="#63b8ff" stroke="#63b8ff" points="674.77,-446.15 680.67,-437.35 670.57,-440.54 674.77,-446.15"/>
</a>
</g>
</g>
<!-- Node9 -->
<g id="Node000009" class="node">
<title>Node9</title>
<g id="a_Node000009"><a xlink:href="$classinterficie_1_1_vista_menu_joc.html#ab3bcca3e7fed0b4d01a642012ff7ac8f" xlink:title="Escala tots els components gràfics en funció de la mida de la finestra.">
<polygon fill="white" stroke="#666666" points="568.5,-480 416,-480 416,-448 568.5,-448 568.5,-480"/>
<text text-anchor="start" x="424" y="-466.5" font-family="Helvetica,sans-Serif" font-size="10.00">interficie.VistaMenuJoc.escalar</text>
<text text-anchor="middle" x="492.25" y="-454.5" font-family="Helvetica,sans-Serif" font-size="10.00">Componentes</text>
</a>
</g>
</g>
<!-- Node1&#45;&gt;Node9 -->
<g id="edge12_Node000001_Node000009" class="edge">
<title>Node1&#45;&gt;Node9</title>
<g id="a_edge12_Node000001_Node000009"><a xlink:title=" ">
<path fill="none" stroke="#63b8ff" d="M617.8,-437.78C601.63,-441.18 584.81,-444.72 568.94,-448.06"/>
<polygon fill="#63b8ff" stroke="#63b8ff" points="618.31,-441.25 627.38,-435.76 616.87,-434.4 618.31,-441.25"/>
</a>
</g>
</g>
<!-- Node10 -->
<g id="Node000010" class="node">
<title>Node10</title>
<g id="a_Node000010"><a xlink:href="$classinterficie_1_1_vista_menu_joc.html#afab63b4d82b26b00b711c7a5473d7707" xlink:title="Constructor de la classe VistaMenuJoc.">
<polygon fill="white" stroke="#666666" points="339.5,-465 218.5,-465 218.5,-433 339.5,-433 339.5,-465"/>
<text text-anchor="start" x="226.5" y="-451.5" font-family="Helvetica,sans-Serif" font-size="10.00">interficie.VistaMenuJoc.</text>
<text text-anchor="middle" x="279" y="-439.5" font-family="Helvetica,sans-Serif" font-size="10.00">VistaMenuJoc</text>
</a>
</g>
</g>
<!-- Node1&#45;&gt;Node10 -->
<g id="edge38_Node000001_Node000010" class="edge">
<title>Node1&#45;&gt;Node10</title>
<g id="a_edge38_Node000001_Node000010"><a xlink:title=" ">
<path fill="none" stroke="#63b8ff" d="M617.62,-424.51C555.05,-428.01 467.8,-433.22 391.25,-439 374.52,-440.26 356.4,-441.81 339.73,-443.31"/>
<polygon fill="#63b8ff" stroke="#63b8ff" points="617.7,-428.02 627.49,-423.97 617.31,-421.03 617.7,-428.02"/>
</a>
</g>
</g>
<!-- Node12 -->
<g id="Node000012" class="node">
<title>Node12</title>
<g id="a_Node000012"><a xlink:href="$classinterficie_1_1_vista_canvi_torn.html#a7a021fb53d7a4494561ea26609e3089c" xlink:title="Escala i posiciona els components segons la mida actual.">
<polygon fill="white" stroke="#666666" points="570.75,-392 413.75,-392 413.75,-360 570.75,-360 570.75,-392"/>
<text text-anchor="start" x="421.75" y="-378.5" font-family="Helvetica,sans-Serif" font-size="10.00">interficie.VistaCanviTorn.escalar</text>
<text text-anchor="middle" x="492.25" y="-366.5" font-family="Helvetica,sans-Serif" font-size="10.00">Components</text>
</a>
</g>
</g>
<!-- Node1&#45;&gt;Node12 -->
<g id="edge17_Node000001_Node000012" class="edge">
<title>Node1&#45;&gt;Node12</title>
<g id="a_edge17_Node000001_Node000012"><a xlink:title=" ">
<path fill="none" stroke="#63b8ff" d="M617.75,-402.21C602.33,-398.96 586.3,-395.59 571.08,-392.38"/>
<polygon fill="#63b8ff" stroke="#63b8ff" points="616.87,-405.6 627.38,-404.24 618.31,-398.75 616.87,-405.6"/>
</a>
</g>
</g>
<!-- Node13 -->
<g id="Node000013" class="node">
<title>Node13</title>
<g id="a_Node000013"><a xlink:href="$classinterficie_1_1_vista_canvi_torn.html#ab4f3e4270b44c9acdc80f53af88263f2" xlink:title="Constructor de la classe VistaCanviTorn.">
<polygon fill="white" stroke="#666666" points="341.75,-382 216.25,-382 216.25,-350 341.75,-350 341.75,-382"/>
<text text-anchor="start" x="224.25" y="-368.5" font-family="Helvetica,sans-Serif" font-size="10.00">interficie.VistaCanviTorn.</text>
<text text-anchor="middle" x="279" y="-356.5" font-family="Helvetica,sans-Serif" font-size="10.00">VistaCanviTorn</text>
</a>
</g>
</g>
<!-- Node1&#45;&gt;Node13 -->
<g id="edge24_Node000001_Node000013" class="edge">
<title>Node1&#45;&gt;Node13</title>
<g id="a_edge24_Node000001_Node000013"><a xlink:title=" ">
<path fill="none" stroke="#63b8ff" d="M674.92,-396.48C654.08,-380.18 623.84,-359.87 593.25,-351 508.8,-326.52 406.23,-338.89 342.02,-351.37"/>
<polygon fill="#63b8ff" stroke="#63b8ff" points="672.64,-399.14 682.63,-402.68 677.03,-393.69 672.64,-399.14"/>
</a>
</g>
</g>
<!-- Node14 -->
<g id="Node000014" class="node">
<title>Node14</title>
<g id="a_Node000014"><a xlink:href="$classinterficie_1_1_vista_consultar_normes.html#aa2b3d841acae7945dad388f04b002967" xlink:title="Inicialitza els components gràfics de la vista.">
<polygon fill="white" stroke="#666666" points="553.12,-304 431.38,-304 431.38,-272 553.12,-272 553.12,-304"/>
<text text-anchor="start" x="439.38" y="-290.5" font-family="Helvetica,sans-Serif" font-size="10.00">interficie.VistaConsultar</text>
<text text-anchor="middle" x="492.25" y="-278.5" font-family="Helvetica,sans-Serif" font-size="10.00">Normes.initComponents</text>
</a>
</g>
</g>
<!-- Node1&#45;&gt;Node14 -->
<g id="edge20_Node000001_Node000014" class="edge">
<title>Node1&#45;&gt;Node14</title>
<g id="a_edge20_Node000001_Node000014"><a xlink:title=" ">
<path fill="none" stroke="#63b8ff" d="M681.83,-395.2C661.59,-372.11 628.56,-338.3 593.25,-318 581.07,-311 567.1,-305.49 553.54,-301.2"/>
<polygon fill="#63b8ff" stroke="#63b8ff" points="679.04,-397.31 688.21,-402.62 684.35,-392.75 679.04,-397.31"/>
</a>
</g>
</g>
<!-- Node16 -->
<g id="Node000016" class="node">
<title>Node16</title>
<g id="a_Node000016"><a xlink:href="$classinterficie_1_1_vista_consultar_avatars.html#aad0f3c358880880d6c374569d93117cd" xlink:title="Constructor de la vista que mostra la llista d&#39;avatares registrats.">
<polygon fill="white" stroke="#666666" points="567.75,-236 416.75,-236 416.75,-204 567.75,-204 567.75,-236"/>
<text text-anchor="start" x="424.75" y="-222.5" font-family="Helvetica,sans-Serif" font-size="10.00">interficie.VistaConsultar</text>
<text text-anchor="middle" x="492.25" y="-210.5" font-family="Helvetica,sans-Serif" font-size="10.00">Avatars.VistaConsultarAvatars</text>
</a>
</g>
</g>
<!-- Node1&#45;&gt;Node16 -->
<g id="edge25_Node000001_Node000016" class="edge">
<title>Node1&#45;&gt;Node16</title>
<g id="a_edge25_Node000001_Node000016"><a xlink:title=" ">
<path fill="none" stroke="#63b8ff" d="M689.67,-393.33C672.31,-359.04 638,-299.56 593.25,-263 579.57,-251.82 562.54,-243.07 546.43,-236.47"/>
<polygon fill="#63b8ff" stroke="#63b8ff" points="686.47,-394.74 694.04,-402.16 692.74,-391.64 686.47,-394.74"/>
</a>
</g>
</g>
<!-- Node17 -->
<g id="Node000017" class="node">
<title>Node17</title>
<g id="a_Node000017"><a xlink:href="$classinterficie_1_1_vista_consultar_estadistiques.html#a72ea2d682e9b49e5fa9a21c42187f581" xlink:title="Constructor principal de la vista.">
<polygon fill="white" stroke="#666666" points="593.25,-168 391.25,-168 391.25,-136 593.25,-136 593.25,-168"/>
<text text-anchor="start" x="399.25" y="-154.5" font-family="Helvetica,sans-Serif" font-size="10.00">interficie.VistaConsultar</text>
<text text-anchor="middle" x="492.25" y="-142.5" font-family="Helvetica,sans-Serif" font-size="10.00">Estadistiques.VistaConsultarEstadistiques</text>
</a>
</g>
</g>
<!-- Node1&#45;&gt;Node17 -->
<g id="edge27_Node000001_Node000017" class="edge">
<title>Node1&#45;&gt;Node17</title>
<g id="a_edge27_Node000001_Node000017"><a xlink:title=" ">
<path fill="none" stroke="#63b8ff" d="M695.77,-392.84C683.41,-346.42 652.27,-251.42 593.25,-195 581.23,-183.51 565.66,-174.84 550.39,-168.4"/>
<polygon fill="#63b8ff" stroke="#63b8ff" points="692.33,-393.51 698.21,-402.33 699.11,-391.77 692.33,-393.51"/>
</a>
</g>
</g>
<!-- Node18 -->
<g id="Node000018" class="node">
<title>Node18</title>
<g id="a_Node000018"><a xlink:href="$classinterficie_1_1_vista_consultar_ranking.html#a86d8edbe84e816fcf7c14b51a8d2e214" xlink:title="Constructor de la classe.">
<polygon fill="white" stroke="#666666" points="570,-100 414.5,-100 414.5,-68 570,-68 570,-100"/>
<text text-anchor="start" x="422.5" y="-86.5" font-family="Helvetica,sans-Serif" font-size="10.00">interficie.VistaConsultar</text>
<text text-anchor="middle" x="492.25" y="-74.5" font-family="Helvetica,sans-Serif" font-size="10.00">Ranking.VistaConsultarRanking</text>
</a>
</g>
</g>
<!-- Node1&#45;&gt;Node18 -->
<g id="edge29_Node000001_Node000018" class="edge">
<title>Node1&#45;&gt;Node18</title>
<g id="a_edge29_Node000001_Node000018"><a xlink:title=" ">
<path fill="none" stroke="#63b8ff" d="M699.24,-392.46C691.66,-335.65 666.78,-204.3 593.25,-127 582.24,-115.43 567.61,-106.81 552.94,-100.46"/>
<polygon fill="#63b8ff" stroke="#63b8ff" points="695.75,-392.72 700.46,-402.21 702.69,-391.86 695.75,-392.72"/>
</a>
</g>
</g>
<!-- Node20 -->
<g id="Node000020" class="node">
<title>Node20</title>
<g id="a_Node000020"><a xlink:href="$classinterficie_1_1_vista_crear_partida.html#a2f8245af959f715f5a43d233fdf6a564" xlink:title="Crea una nova finestra per a la creació d&#39;una partida de Scrabble.">
<polygon fill="white" stroke="#666666" points="560.25,-32 424.25,-32 424.25,0 560.25,0 560.25,-32"/>
<text text-anchor="start" x="432.25" y="-18.5" font-family="Helvetica,sans-Serif" font-size="10.00">interficie.VistaCrearPartida.</text>
<text text-anchor="middle" x="492.25" y="-6.5" font-family="Helvetica,sans-Serif" font-size="10.00">VistaCrearPartida</text>
</a>
</g>
</g>
<!-- Node1&#45;&gt;Node20 -->
<g id="edge34_Node000001_Node000020" class="edge">
<title>Node1&#45;&gt;Node20</title>
<g id="a_edge34_Node000001_Node000020"><a xlink:title=" ">
<path fill="none" stroke="#63b8ff" d="M701.53,-392.2C698.35,-326.13 681.54,-157.86 593.25,-59 582.86,-47.37 568.79,-38.77 554.48,-32.46"/>
<polygon fill="#63b8ff" stroke="#63b8ff" points="698.03,-392.29 701.92,-402.14 705.02,-392.01 698.03,-392.29"/>
</a>
</g>
</g>
<!-- Node2&#45;&gt;Node3 -->
<g id="edge2_Node000002_Node000003" class="edge">
<title>Node2&#45;&gt;Node3</title>
<g id="a_edge2_Node000002_Node000003"><a xlink:title=" ">
<path fill="none" stroke="#63b8ff" d="M397.91,-713.42C380.5,-710.7 362.63,-707.91 346.24,-705.35"/>
<polygon fill="#63b8ff" stroke="#63b8ff" points="397.36,-716.88 407.78,-714.96 398.44,-709.96 397.36,-716.88"/>
</a>
</g>
</g>
<!-- Node3&#45;&gt;Node3 -->
<g id="edge5_Node000003_Node000003" class="edge">
<title>Node3&#45;&gt;Node3</title>
<g id="a_edge5_Node000003_Node000003"><a xlink:title=" ">
<path fill="none" stroke="#63b8ff" d="M311.6,-722.71C306.16,-726.48 295.3,-729 279,-729 249.2,-729 237.56,-720.58 244.08,-711.44"/>
<polygon fill="#63b8ff" stroke="#63b8ff" points="315.03,-723.43 313.62,-712.92 308.17,-722.01 315.03,-723.43"/>
</a>
</g>
</g>
<!-- Node4 -->
<g id="Node000004" class="node">
<title>Node4</title>
<g id="a_Node000004"><a xlink:href="$classinterficie_1_1_vista_crear_avatar.html#a8815061362fcbb6852ed1013c55cf773" xlink:title="Mostra un diàleg modal per seleccionar la imatge de perfil de l&#39;usuari.">
<polygon fill="white" stroke="#666666" points="166.75,-711 0,-711 0,-679 166.75,-679 166.75,-711"/>
<text text-anchor="start" x="8" y="-697.5" font-family="Helvetica,sans-Serif" font-size="10.00">interficie.VistaCrearAvatar.mostrar</text>
<text text-anchor="middle" x="83.38" y="-685.5" font-family="Helvetica,sans-Serif" font-size="10.00">SelectorImagenes</text>
</a>
</g>
</g>
<!-- Node3&#45;&gt;Node4 -->
<g id="edge3_Node000003_Node000004" class="edge">
<title>Node3&#45;&gt;Node4</title>
<g id="a_edge3_Node000003_Node000004"><a xlink:title=" ">
<path fill="none" stroke="#63b8ff" d="M200.37,-688.37C189.42,-688.23 178.13,-688.21 167.08,-688.31"/>
<polygon fill="#63b8ff" stroke="#63b8ff" points="200.07,-691.86 210.12,-688.53 200.18,-684.87 200.07,-691.86"/>
</a>
</g>
</g>
<!-- Node4&#45;&gt;Node3 -->
<g id="edge4_Node000004_Node000003" class="edge">
<title>Node4&#45;&gt;Node3</title>
<g id="a_edge4_Node000004_Node000003"><a xlink:title=" ">
<path fill="none" stroke="#63b8ff" d="M178.3,-701.75C189.57,-701.77 200.88,-701.67 211.64,-701.44"/>
<polygon fill="#63b8ff" stroke="#63b8ff" points="178.61,-698.25 168.6,-701.69 178.58,-705.25 178.61,-698.25"/>
</a>
</g>
</g>
<!-- Node5&#45;&gt;Node6 -->
<g id="edge7_Node000005_Node000006" class="edge">
<title>Node5&#45;&gt;Node6</title>
<g id="a_edge7_Node000005_Node000006"><a xlink:title=" ">
<path fill="none" stroke="#63b8ff" d="M400.92,-630.16C381.43,-628.04 361.23,-625.84 343.06,-623.87"/>
<polygon fill="#63b8ff" stroke="#63b8ff" points="400.46,-633.64 410.78,-631.24 401.22,-626.68 400.46,-633.64"/>
</a>
</g>
</g>
<!-- Node6&#45;&gt;Node6 -->
<g id="edge8_Node000006_Node000006" class="edge">
<title>Node6&#45;&gt;Node6</title>
<g id="a_edge8_Node000006_Node000006"><a xlink:title=" ">
<path fill="none" stroke="#63b8ff" d="M311.6,-644.71C306.16,-648.48 295.3,-651 279,-651 249.2,-651 237.56,-642.58 244.08,-633.44"/>
<polygon fill="#63b8ff" stroke="#63b8ff" points="315.03,-645.43 313.62,-634.92 308.17,-644.01 315.03,-645.43"/>
</a>
</g>
</g>
<!-- Node7&#45;&gt;Node8 -->
<g id="edge10_Node000007_Node000008" class="edge">
<title>Node7&#45;&gt;Node8</title>
<g id="a_edge10_Node000007_Node000008"><a xlink:title=" ">
<path fill="none" stroke="#63b8ff" d="M396.28,-547.05C380.04,-546.21 363.45,-545.35 348.09,-544.55"/>
<polygon fill="#63b8ff" stroke="#63b8ff" points="395.77,-550.53 405.94,-547.56 396.14,-543.54 395.77,-550.53"/>
</a>
</g>
</g>
<!-- Node8&#45;&gt;Node8 -->
<g id="edge11_Node000008_Node000008" class="edge">
<title>Node8&#45;&gt;Node8</title>
<g id="a_edge11_Node000008_Node000008"><a xlink:title=" ">
<path fill="none" stroke="#63b8ff" d="M311.6,-568.71C306.16,-572.48 295.3,-575 279,-575 249.2,-575 237.56,-566.58 244.08,-557.44"/>
<polygon fill="#63b8ff" stroke="#63b8ff" points="315.03,-569.43 313.62,-558.92 308.17,-568.01 315.03,-569.43"/>
</a>
</g>
</g>
<!-- Node9&#45;&gt;Node10 -->
<g id="edge13_Node000009_Node000010" class="edge">
<title>Node9&#45;&gt;Node10</title>
<g id="a_edge13_Node000009_Node000010"><a xlink:title=" ">
<path fill="none" stroke="#63b8ff" d="M404.37,-457.83C382.7,-456.29 359.95,-454.68 339.92,-453.25"/>
<polygon fill="#63b8ff" stroke="#63b8ff" points="403.85,-461.3 414.07,-458.52 404.34,-454.32 403.85,-461.3"/>
</a>
</g>
</g>
<!-- Node10&#45;&gt;Node10 -->
<g id="edge16_Node000010_Node000010" class="edge">
<title>Node10&#45;&gt;Node10</title>
<g id="a_edge16_Node000010_Node000010"><a xlink:title=" ">
<path fill="none" stroke="#63b8ff" d="M311.6,-476.71C306.16,-480.48 295.3,-483 279,-483 249.2,-483 237.56,-474.58 244.08,-465.44"/>
<polygon fill="#63b8ff" stroke="#63b8ff" points="315.03,-477.43 313.62,-466.92 308.17,-476.01 315.03,-477.43"/>
</a>
</g>
</g>
<!-- Node11 -->
<g id="Node000011" class="node">
<title>Node11</title>
<g id="a_Node000011"><a xlink:href="$classinterficie_1_1_vista_menu_joc.html#a357d2c3488fc972b443bb25cf44c8d1b" xlink:title="Lògica per eliminar el perfil.">
<polygon fill="white" stroke="#666666" points="160.75,-465 6,-465 6,-433 160.75,-433 160.75,-465"/>
<text text-anchor="start" x="14" y="-451.5" font-family="Helvetica,sans-Serif" font-size="10.00">interficie.VistaMenuJoc.eliminar</text>
<text text-anchor="middle" x="83.38" y="-439.5" font-family="Helvetica,sans-Serif" font-size="10.00">Perfil</text>
</a>
</g>
</g>
<!-- Node10&#45;&gt;Node11 -->
<g id="edge14_Node000010_Node000011" class="edge">
<title>Node10&#45;&gt;Node11</title>
<g id="a_edge14_Node000010_Node000011"><a xlink:title=" ">
<path fill="none" stroke="#63b8ff" d="M206.88,-442.47C191.99,-442.21 176.24,-442.18 161.16,-442.38"/>
<polygon fill="#63b8ff" stroke="#63b8ff" points="206.48,-445.96 216.55,-442.67 206.63,-438.96 206.48,-445.96"/>
</a>
</g>
</g>
<!-- Node11&#45;&gt;Node10 -->
<g id="edge15_Node000011_Node000010" class="edge">
<title>Node11&#45;&gt;Node10</title>
<g id="a_edge15_Node000011_Node000010"><a xlink:title=" ">
<path fill="none" stroke="#63b8ff" d="M172.34,-455.72C187.81,-455.81 203.58,-455.67 218.06,-455.29"/>
<polygon fill="#63b8ff" stroke="#63b8ff" points="172.7,-452.23 162.67,-455.63 172.64,-459.23 172.7,-452.23"/>
</a>
</g>
</g>
<!-- Node12&#45;&gt;Node13 -->
<g id="edge18_Node000012_Node000013" class="edge">
<title>Node12&#45;&gt;Node13</title>
<g id="a_edge18_Node000012_Node000013"><a xlink:title=" ">
<path fill="none" stroke="#63b8ff" d="M402.05,-371.78C381.87,-370.82 360.86,-369.83 342.08,-368.94"/>
<polygon fill="#63b8ff" stroke="#63b8ff" points="401.82,-375.27 411.98,-372.25 402.15,-368.28 401.82,-375.27"/>
</a>
</g>
</g>
<!-- Node13&#45;&gt;Node13 -->
<g id="edge19_Node000013_Node000013" class="edge">
<title>Node13&#45;&gt;Node13</title>
<g id="a_edge19_Node000013_Node000013"><a xlink:title=" ">
<path fill="none" stroke="#63b8ff" d="M311.6,-393.71C306.16,-397.48 295.3,-400 279,-400 249.2,-400 237.56,-391.58 244.08,-382.44"/>
<polygon fill="#63b8ff" stroke="#63b8ff" points="315.03,-394.43 313.62,-383.92 308.17,-393.01 315.03,-394.43"/>
</a>
</g>
</g>
<!-- Node15 -->
<g id="Node000015" class="node">
<title>Node15</title>
<g id="a_Node000015"><a xlink:href="$classinterficie_1_1_vista_consultar_normes.html#adfd2eba4d3f7f6f2d67a1655b14be2de" xlink:title="Constructora.">
<polygon fill="white" stroke="#666666" points="355.25,-304 202.75,-304 202.75,-272 355.25,-272 355.25,-304"/>
<text text-anchor="start" x="210.75" y="-290.5" font-family="Helvetica,sans-Serif" font-size="10.00">interficie.VistaConsultar</text>
<text text-anchor="middle" x="279" y="-278.5" font-family="Helvetica,sans-Serif" font-size="10.00">Normes.VistaConsultarNormes</text>
</a>
</g>
</g>
<!-- Node14&#45;&gt;Node15 -->
<g id="edge21_Node000014_Node000015" class="edge">
<title>Node14&#45;&gt;Node15</title>
<g id="a_edge21_Node000014_Node000015"><a xlink:title=" ">
<path fill="none" stroke="#63b8ff" d="M419.72,-281.57C399,-281.17 376.33,-281.14 355.4,-281.5"/>
<polygon fill="#63b8ff" stroke="#63b8ff" points="419.4,-285.07 429.48,-281.8 419.57,-278.07 419.4,-285.07"/>
</a>
</g>
</g>
<!-- Node15&#45;&gt;Node14 -->
<g id="edge22_Node000015_Node000014" class="edge">
<title>Node15&#45;&gt;Node14</title>
<g id="a_edge22_Node000015_Node000014"><a xlink:title=" ">
<path fill="none" stroke="#63b8ff" d="M366.88,-294.65C388.43,-294.88 411.05,-294.71 431,-294.16"/>
<polygon fill="#63b8ff" stroke="#63b8ff" points="366.96,-291.16 356.91,-294.52 366.86,-298.15 366.96,-291.16"/>
</a>
</g>
</g>
<!-- Node15&#45;&gt;Node15 -->
<g id="edge23_Node000015_Node000015" class="edge">
<title>Node15&#45;&gt;Node15</title>
<g id="a_edge23_Node000015_Node000015"><a xlink:title=" ">
<path fill="none" stroke="#63b8ff" d="M311.6,-315.71C306.16,-319.48 295.3,-322 279,-322 249.2,-322 237.56,-313.58 244.08,-304.44"/>
<polygon fill="#63b8ff" stroke="#63b8ff" points="315.03,-316.43 313.62,-305.92 308.17,-315.01 315.03,-316.43"/>
</a>
</g>
</g>
<!-- Node16&#45;&gt;Node16 -->
<g id="edge26_Node000016_Node000016" class="edge">
<title>Node16&#45;&gt;Node16</title>
<g id="a_edge26_Node000016_Node000016"><a xlink:title=" ">
<path fill="none" stroke="#63b8ff" d="M527.66,-247.54C521.88,-251.41 510.08,-254 492.25,-254 460.11,-254 447.55,-245.58 454.58,-236.44"/>
<polygon fill="#63b8ff" stroke="#63b8ff" points="531.05,-248.42 529.62,-237.93 524.19,-247.03 531.05,-248.42"/>
</a>
</g>
</g>
<!-- Node17&#45;&gt;Node17 -->
<g id="edge28_Node000017_Node000017" class="edge">
<title>Node17&#45;&gt;Node17</title>
<g id="a_edge28_Node000017_Node000017"><a xlink:title=" ">
<path fill="none" stroke="#63b8ff" d="M527.66,-179.54C521.88,-183.41 510.08,-186 492.25,-186 460.11,-186 447.55,-177.58 454.58,-168.44"/>
<polygon fill="#63b8ff" stroke="#63b8ff" points="531.05,-180.42 529.62,-169.93 524.19,-179.03 531.05,-180.42"/>
</a>
</g>
</g>
<!-- Node18&#45;&gt;Node18 -->
<g id="edge32_Node000018_Node000018" class="edge">
<title>Node18&#45;&gt;Node18</title>
<g id="a_edge32_Node000018_Node000018"><a xlink:title=" ">
<path fill="none" stroke="#63b8ff" d="M527.66,-111.54C521.88,-115.41 510.08,-118 492.25,-118 460.11,-118 447.55,-109.58 454.58,-100.44"/>
<polygon fill="#63b8ff" stroke="#63b8ff" points="531.05,-112.42 529.62,-101.93 524.19,-111.03 531.05,-112.42"/>
</a>
</g>
</g>
<!-- Node19 -->
<g id="Node000019" class="node">
<title>Node19</title>
<g id="a_Node000019"><a xlink:href="$classinterficie_1_1_vista_consultar_ranking.html#ac8bcd1db92441badfd8650cd3c54025b" xlink:title="Carrega i mostra el rànquing a partir del límit indicat.">
<polygon fill="white" stroke="#666666" points="342.12,-100 215.88,-100 215.88,-68 342.12,-68 342.12,-100"/>
<text text-anchor="start" x="223.88" y="-86.5" font-family="Helvetica,sans-Serif" font-size="10.00">interficie.VistaConsultar</text>
<text text-anchor="middle" x="279" y="-74.5" font-family="Helvetica,sans-Serif" font-size="10.00">Ranking.carregarRanking</text>
</a>
</g>
</g>
<!-- Node18&#45;&gt;Node19 -->
<g id="edge30_Node000018_Node000019" class="edge">
<title>Node18&#45;&gt;Node19</title>
<g id="a_edge30_Node000018_Node000019"><a xlink:title=" ">
<path fill="none" stroke="#63b8ff" d="M402.63,-77.33C382.39,-77.14 361.3,-77.29 342.43,-77.78"/>
<polygon fill="#63b8ff" stroke="#63b8ff" points="402.53,-80.83 412.57,-77.45 402.62,-73.83 402.53,-80.83"/>
</a>
</g>
</g>
<!-- Node19&#45;&gt;Node18 -->
<g id="edge31_Node000019_Node000018" class="edge">
<title>Node19&#45;&gt;Node18</title>
<g id="a_edge31_Node000019_Node000018"><a xlink:title=" ">
<path fill="none" stroke="#63b8ff" d="M353.72,-90.47C373.25,-90.82 394.38,-90.84 414.09,-90.53"/>
<polygon fill="#63b8ff" stroke="#63b8ff" points="354.02,-86.97 343.94,-90.25 353.86,-93.97 354.02,-86.97"/>
</a>
</g>
</g>
<!-- Node20&#45;&gt;Node20 -->
<g id="edge35_Node000020_Node000020" class="edge">
<title>Node20&#45;&gt;Node20</title>
<g id="a_edge35_Node000020_Node000020"><a xlink:title=" ">
<path fill="none" stroke="#63b8ff" d="M527.66,-43.54C521.88,-47.41 510.08,-50 492.25,-50 460.11,-50 447.55,-41.58 454.58,-32.44"/>
<polygon fill="#63b8ff" stroke="#63b8ff" points="531.05,-44.42 529.62,-33.93 524.19,-43.03 531.05,-44.42"/>
</a>
</g>
</g>
</g>
</svg>
