<?xml version="1.0" encoding="UTF-8" standalone="no"?>
<!DOCTYPE svg PUBLIC "-//W3C//DTD SVG 1.1//EN"
 "http://www.w3.org/Graphics/SVG/1.1/DTD/svg11.dtd">
<!-- Generated by graphviz version 12.2.1 (20241206.2353)
 -->
<!-- Title: controladors.CtrlDomini.tancarSessio Pages: 1 -->
<svg width="547pt" height="40pt"
 viewBox="0.00 0.00 546.50 40.00" xmlns="http://www.w3.org/2000/svg" xmlns:xlink="http://www.w3.org/1999/xlink">
<g id="graph0" class="graph" transform="scale(1 1) rotate(0) translate(4 36)">
<title>controladors.CtrlDomini.tancarSessio</title>
<!-- Node1 -->
<g id="Node000001" class="node">
<title>Node1</title>
<g id="a_Node000001"><a xlink:title="Es tanca la sessió de l&#39;usuari.">
<polygon fill="#999999" stroke="#666666" points="148.75,-32 0,-32 0,0 148.75,0 148.75,-32"/>
<text text-anchor="start" x="8" y="-18.5" font-family="Helvetica,sans-Serif" font-size="10.00">controladors.CtrlDomini.tancar</text>
<text text-anchor="middle" x="74.38" y="-6.5" font-family="Helvetica,sans-Serif" font-size="10.00">Sessio</text>
</a>
</g>
</g>
<!-- Node2 -->
<g id="Node000002" class="node">
<title>Node2</title>
<g id="a_Node000002"><a xlink:href="classcontroladors_1_1_ctrl_persistencia.html#a087f94cda6a408396c8faa53f84a1e0e" target="_top" xlink:title="Desa un jugador a l&#39;emmagatzematge persistent.">
<polygon fill="white" stroke="#666666" points="362,-32 184.75,-32 184.75,0 362,0 362,-32"/>
<text text-anchor="start" x="192.75" y="-18.5" font-family="Helvetica,sans-Serif" font-size="10.00">controladors.CtrlPersistencia.guardar</text>
<text text-anchor="middle" x="273.38" y="-6.5" font-family="Helvetica,sans-Serif" font-size="10.00">Jugador</text>
</a>
</g>
</g>
<!-- Node1&#45;&gt;Node2 -->
<g id="edge1_Node000001_Node000002" class="edge">
<title>Node1&#45;&gt;Node2</title>
<g id="a_edge1_Node000001_Node000002"><a xlink:title=" ">
<path fill="none" stroke="#63b8ff" d="M149.01,-16C156.88,-16 164.99,-16 173.09,-16"/>
<polygon fill="#63b8ff" stroke="#63b8ff" points="173.02,-19.5 183.02,-16 173.02,-12.5 173.02,-19.5"/>
</a>
</g>
</g>
<!-- Node3 -->
<g id="Node000003" class="node">
<title>Node3</title>
<g id="a_Node000003"><a xlink:href="classpersistencia_1_1_jugador_i_o.html#aeb13d0e82937696c7c053612278c6ee9" target="_top" xlink:title="Desa un jugador a un fitxer JSON.">
<polygon fill="white" stroke="#666666" points="538.5,-32 398,-32 398,0 538.5,0 538.5,-32"/>
<text text-anchor="start" x="406" y="-18.5" font-family="Helvetica,sans-Serif" font-size="10.00">persistencia.JugadorIO.save</text>
<text text-anchor="middle" x="468.25" y="-6.5" font-family="Helvetica,sans-Serif" font-size="10.00">Jugador</text>
</a>
</g>
</g>
<!-- Node2&#45;&gt;Node3 -->
<g id="edge2_Node000002_Node000003" class="edge">
<title>Node2&#45;&gt;Node3</title>
<g id="a_edge2_Node000002_Node000003"><a xlink:title=" ">
<path fill="none" stroke="#63b8ff" d="M362.35,-16C370.29,-16 378.31,-16 386.19,-16"/>
<polygon fill="#63b8ff" stroke="#63b8ff" points="386.1,-19.5 396.1,-16 386.1,-12.5 386.1,-19.5"/>
</a>
</g>
</g>
</g>
</svg>
