<?xml version="1.0" encoding="UTF-8" standalone="no"?>
<!DOCTYPE svg PUBLIC "-//W3C//DTD SVG 1.1//EN"
 "http://www.w3.org/Graphics/SVG/1.1/DTD/svg11.dtd">
<!-- Generated by graphviz version 12.2.1 (20241206.2353)
 -->
<!-- Title: domini.scrabble.Partida.Partida Pages: 1 -->
<svg width="335pt" height="190pt"
 viewBox="0.00 0.00 334.75 190.00" xmlns="http://www.w3.org/2000/svg" xmlns:xlink="http://www.w3.org/1999/xlink">
<g id="graph0" class="graph" transform="scale(1 1) rotate(0) translate(4 186)">
<title>domini.scrabble.Partida.Partida</title>
<!-- Node1 -->
<g id="Node000001" class="node">
<title>Node1</title>
<g id="a_Node000001"><a xlink:title="Constructor de la classe &quot;Partida&quot;.">
<polygon fill="#999999" stroke="#666666" points="121,-107 0,-107 0,-75 121,-75 121,-107"/>
<text text-anchor="start" x="8" y="-93.5" font-family="Helvetica,sans-Serif" font-size="10.00">domini.scrabble.Partida.</text>
<text text-anchor="middle" x="60.5" y="-81.5" font-family="Helvetica,sans-Serif" font-size="10.00">Partida</text>
</a>
</g>
</g>
<!-- Node2 -->
<g id="Node000002" class="node">
<title>Node2</title>
<g id="a_Node000002"><a xlink:href="classdomini_1_1jugadors_1_1_avatar.html#a432efefa00f2e041526ffcbae52ec852" target="_top" xlink:title="Incrementa el nombre total de partides jugades.">
<polygon fill="white" stroke="#666666" points="326.75,-182 157,-182 157,-150 326.75,-150 326.75,-182"/>
<text text-anchor="start" x="165" y="-168.5" font-family="Helvetica,sans-Serif" font-size="10.00">domini.jugadors.Avatar.incrementar</text>
<text text-anchor="middle" x="241.88" y="-156.5" font-family="Helvetica,sans-Serif" font-size="10.00">PartidesJugades</text>
</a>
</g>
</g>
<!-- Node1&#45;&gt;Node2 -->
<g id="edge1_Node000001_Node000002" class="edge">
<title>Node1&#45;&gt;Node2</title>
<g id="a_edge1_Node000001_Node000002"><a xlink:title=" ">
<path fill="none" stroke="#63b8ff" d="M89.24,-107.34C107.94,-117.91 133.42,-131.42 157,-141 161.28,-142.74 165.72,-144.41 170.23,-146.02"/>
<polygon fill="#63b8ff" stroke="#63b8ff" points="168.79,-149.23 179.39,-149.15 171.05,-142.61 168.79,-149.23"/>
</a>
</g>
</g>
<!-- Node3 -->
<g id="Node000003" class="node">
<title>Node3</title>
<g id="a_Node000003"><a xlink:href="classdomini_1_1jugadors_1_1_avatar.html#a65d01b9bd8f828cf8de23bacc46533ee" target="_top" xlink:title="Incrementa el nombre de partides jugades contra altres jugadors.">
<polygon fill="white" stroke="#666666" points="326.75,-132 157,-132 157,-100 326.75,-100 326.75,-132"/>
<text text-anchor="start" x="165" y="-118.5" font-family="Helvetica,sans-Serif" font-size="10.00">domini.jugadors.Avatar.incrementar</text>
<text text-anchor="middle" x="241.88" y="-106.5" font-family="Helvetica,sans-Serif" font-size="10.00">PartidesJugadesJugador</text>
</a>
</g>
</g>
<!-- Node1&#45;&gt;Node3 -->
<g id="edge2_Node000001_Node000003" class="edge">
<title>Node1&#45;&gt;Node3</title>
<g id="a_edge2_Node000001_Node000003"><a xlink:title=" ">
<path fill="none" stroke="#63b8ff" d="M121.23,-99.32C129.08,-100.42 137.27,-101.56 145.53,-102.71"/>
<polygon fill="#63b8ff" stroke="#63b8ff" points="144.91,-106.16 155.3,-104.07 145.88,-99.23 144.91,-106.16"/>
</a>
</g>
</g>
<!-- Node4 -->
<g id="Node000004" class="node">
<title>Node4</title>
<g id="a_Node000004"><a xlink:href="classdomini_1_1jugadors_1_1_avatar.html#a11001791e000608d3ae4e7698bfd3b72" target="_top" xlink:title="Incrementa el nombre de partides jugades contra la màquina.">
<polygon fill="white" stroke="#666666" points="326.75,-82 157,-82 157,-50 326.75,-50 326.75,-82"/>
<text text-anchor="start" x="165" y="-68.5" font-family="Helvetica,sans-Serif" font-size="10.00">domini.jugadors.Avatar.incrementar</text>
<text text-anchor="middle" x="241.88" y="-56.5" font-family="Helvetica,sans-Serif" font-size="10.00">PartidesJugadesMaquina</text>
</a>
</g>
</g>
<!-- Node1&#45;&gt;Node4 -->
<g id="edge3_Node000001_Node000004" class="edge">
<title>Node1&#45;&gt;Node4</title>
<g id="a_edge3_Node000001_Node000004"><a xlink:title=" ">
<path fill="none" stroke="#63b8ff" d="M121.23,-82.68C129.08,-81.58 137.27,-80.44 145.53,-79.29"/>
<polygon fill="#63b8ff" stroke="#63b8ff" points="145.88,-82.77 155.3,-77.93 144.91,-75.84 145.88,-82.77"/>
</a>
</g>
</g>
<!-- Node5 -->
<g id="Node000005" class="node">
<title>Node5</title>
<g id="a_Node000005"><a xlink:href="classdomini_1_1scrabble_1_1_partida.html#a39f7e60e50d27fe08e844b2ed78df14c" target="_top" xlink:title="Reinicia la puntuació de la partida per al jugador actual.">
<polygon fill="white" stroke="#666666" points="319.25,-32 164.5,-32 164.5,0 319.25,0 319.25,-32"/>
<text text-anchor="start" x="172.5" y="-18.5" font-family="Helvetica,sans-Serif" font-size="10.00">domini.scrabble.Partida.reiniciar</text>
<text text-anchor="middle" x="241.88" y="-6.5" font-family="Helvetica,sans-Serif" font-size="10.00">_puntuacio_partida</text>
</a>
</g>
</g>
<!-- Node1&#45;&gt;Node5 -->
<g id="edge4_Node000001_Node000005" class="edge">
<title>Node1&#45;&gt;Node5</title>
<g id="a_edge4_Node000001_Node000005"><a xlink:title=" ">
<path fill="none" stroke="#63b8ff" d="M89.24,-74.66C107.94,-64.09 133.42,-50.58 157,-41 161.28,-39.26 165.72,-37.59 170.23,-35.98"/>
<polygon fill="#63b8ff" stroke="#63b8ff" points="171.05,-39.39 179.39,-32.85 168.79,-32.77 171.05,-39.39"/>
</a>
</g>
</g>
</g>
</svg>
