<?xml version="1.0" encoding="UTF-8" standalone="no"?>
<!DOCTYPE svg PUBLIC "-//W3C//DTD SVG 1.1//EN"
 "http://www.w3.org/Graphics/SVG/1.1/DTD/svg11.dtd">
<!-- Generated by graphviz version 12.2.1 (20241206.2353)
 -->
<!-- Title: domini.sessio.Usuari.getPartides Pages: 1 -->
<svg width="484pt" height="190pt"
 viewBox="0.00 0.00 483.50 190.00" xmlns="http://www.w3.org/2000/svg" xmlns:xlink="http://www.w3.org/1999/xlink">

<svg id="main" version="1.1" xmlns="http://www.w3.org/2000/svg" xmlns:xlink="http://www.w3.org/1999/xlink" xml:space="preserve">

<style type="text/css"><![CDATA[
.node, .edge {opacity: 0.7;}
.node.selected, .edge.selected {opacity: 1;}
.edge:hover path { stroke: red; }
.edge:hover polygon { stroke: red; fill: red; }
]]></style>
<script type="application/ecmascript" xlink:href="svg.min.js"/>
<svg id="graph" class="graph">
<g id="graph0" class="graph" transform="scale(1 1) rotate(0) translate(4 186)">
<title>domini.sessio.Usuari.getPartides</title>
<!-- Node1 -->
<g id="Node000001" class="node">
<title>Node1</title>
<g id="a_Node000001"><a xlink:title="Retorna les partides jugades de l&#39;usuari.">
<polygon fill="#999999" stroke="#666666" points="124,-129 0,-129 0,-97 124,-97 124,-129"/>
<text text-anchor="start" x="8" y="-115.5" font-family="Helvetica,sans-Serif" font-size="10.00">domini.sessio.Usuari.get</text>
<text text-anchor="middle" x="62" y="-103.5" font-family="Helvetica,sans-Serif" font-size="10.00">Partides</text>
</a>
</g>
</g>
<!-- Node2 -->
<g id="Node000002" class="node">
<title>Node2</title>
<g id="a_Node000002"><a xlink:href="classdomini_1_1sessio_1_1_usuari.html#a0268a823e2a2431d8260cddc9f3b522e" target="_top" xlink:title="Retorna el nom de l&#39;usuari.">
<polygon fill="white" stroke="#666666" points="305,-145 160,-145 160,-125 305,-125 305,-145"/>
<text text-anchor="middle" x="232.5" y="-131.5" font-family="Helvetica,sans-Serif" font-size="10.00">domini.sessio.Usuari.getNom</text>
</a>
</g>
</g>
<!-- Node1&#45;&gt;Node2 -->
<g id="edge1_Node000001_Node000002" class="edge">
<title>Node1&#45;&gt;Node2</title>
<g id="a_edge1_Node000001_Node000002"><a xlink:title=" ">
<path fill="none" stroke="#63b8ff" d="M124.31,-121C132.11,-122.02 140.2,-123.08 148.27,-124.13"/>
<polygon fill="#63b8ff" stroke="#63b8ff" points="147.78,-127.6 158.15,-125.42 148.69,-120.66 147.78,-127.6"/>
</a>
</g>
</g>
<!-- Node3 -->
<g id="Node000003" class="node">
<title>Node3</title>
<g id="a_Node000003"><a xlink:href="classpersistencia_1_1_partida_i_o.html#a7b9bdae6d9736a012e584b268b0bcb86" target="_top" xlink:title="Carrega una partida des d&#39;un fitxer JSON.">
<polygon fill="white" stroke="#666666" points="299.38,-107 165.62,-107 165.62,-75 299.38,-75 299.38,-107"/>
<text text-anchor="start" x="173.62" y="-93.5" font-family="Helvetica,sans-Serif" font-size="10.00">persistencia.PartidaIO.load</text>
<text text-anchor="middle" x="232.5" y="-81.5" font-family="Helvetica,sans-Serif" font-size="10.00">Partida</text>
</a>
</g>
</g>
<!-- Node1&#45;&gt;Node3 -->
<g id="edge2_Node000001_Node000003" class="edge">
<title>Node1&#45;&gt;Node3</title>
<g id="a_edge2_Node000001_Node000003"><a xlink:title=" ">
<path fill="none" stroke="#63b8ff" d="M124.31,-105C134.02,-103.73 144.17,-102.4 154.18,-101.09"/>
<polygon fill="#63b8ff" stroke="#63b8ff" points="154.44,-104.59 163.9,-99.83 153.54,-97.65 154.44,-104.59"/>
</a>
</g>
</g>
<!-- Node4 -->
<g id="Node000004" class="node">
<title>Node4</title>
<g id="a_Node000004"><a xlink:href="classdomini_1_1scrabble_1_1_partida.html#a02bdb9c41da95458503bb9d1967ea9e8" target="_top" xlink:title="Retorna la instància de la bossa.">
<polygon fill="white" stroke="#666666" points="475.5,-182 341,-182 341,-150 475.5,-150 475.5,-182"/>
<text text-anchor="start" x="349" y="-168.5" font-family="Helvetica,sans-Serif" font-size="10.00">domini.scrabble.Partida.get</text>
<text text-anchor="middle" x="408.25" y="-156.5" font-family="Helvetica,sans-Serif" font-size="10.00">Bossa</text>
</a>
</g>
</g>
<!-- Node3&#45;&gt;Node4 -->
<g id="edge3_Node000003_Node000004" class="edge">
<title>Node3&#45;&gt;Node4</title>
<g id="a_edge3_Node000003_Node000004"><a xlink:title=" ">
<path fill="none" stroke="#63b8ff" d="M285.74,-107.41C292.34,-110.02 298.91,-112.89 305,-116 322.35,-124.85 323.76,-131.94 341,-141 343.66,-142.4 346.42,-143.76 349.23,-145.08"/>
<polygon fill="#63b8ff" stroke="#63b8ff" points="347.63,-148.19 358.19,-149.03 350.45,-141.79 347.63,-148.19"/>
</a>
</g>
</g>
<!-- Node5 -->
<g id="Node000005" class="node">
<title>Node5</title>
<g id="a_Node000005"><a xlink:href="classdomini_1_1scrabble_1_1_partida.html#a719791835f1334957e59dcfe4d2a4cec" target="_top" xlink:title="Retorna l&#39;estat actual de la partida.">
<polygon fill="white" stroke="#666666" points="475.5,-132 341,-132 341,-100 475.5,-100 475.5,-132"/>
<text text-anchor="start" x="349" y="-118.5" font-family="Helvetica,sans-Serif" font-size="10.00">domini.scrabble.Partida.get</text>
<text text-anchor="middle" x="408.25" y="-106.5" font-family="Helvetica,sans-Serif" font-size="10.00">Estat</text>
</a>
</g>
</g>
<!-- Node3&#45;&gt;Node5 -->
<g id="edge4_Node000003_Node000005" class="edge">
<title>Node3&#45;&gt;Node5</title>
<g id="a_edge4_Node000003_Node000005"><a xlink:title=" ">
<path fill="none" stroke="#63b8ff" d="M299.68,-100.52C309.44,-101.93 319.56,-103.38 329.52,-104.82"/>
<polygon fill="#63b8ff" stroke="#63b8ff" points="328.78,-108.25 339.18,-106.21 329.78,-101.32 328.78,-108.25"/>
</a>
</g>
</g>
<!-- Node6 -->
<g id="Node000006" class="node">
<title>Node6</title>
<g id="a_Node000006"><a xlink:href="classdomini_1_1scrabble_1_1_bossa.html#aa72b114802328935e32718821a3322ce" target="_top" xlink:title="Obté les fitxes de la bossa.">
<polygon fill="white" stroke="#666666" points="474,-82 342.5,-82 342.5,-50 474,-50 474,-82"/>
<text text-anchor="start" x="350.5" y="-68.5" font-family="Helvetica,sans-Serif" font-size="10.00">domini.scrabble.Bossa.get</text>
<text text-anchor="middle" x="408.25" y="-56.5" font-family="Helvetica,sans-Serif" font-size="10.00">Fitxes</text>
</a>
</g>
</g>
<!-- Node3&#45;&gt;Node6 -->
<g id="edge5_Node000003_Node000006" class="edge">
<title>Node3&#45;&gt;Node6</title>
<g id="a_edge5_Node000003_Node000006"><a xlink:title=" ">
<path fill="none" stroke="#63b8ff" d="M299.68,-81.48C309.9,-80.01 320.51,-78.48 330.92,-76.98"/>
<polygon fill="#63b8ff" stroke="#63b8ff" points="331.21,-80.48 340.61,-75.59 330.22,-73.55 331.21,-80.48"/>
</a>
</g>
</g>
<!-- Node7 -->
<g id="Node000007" class="node">
<title>Node7</title>
<g id="a_Node000007"><a xlink:href="classdomini_1_1scrabble_1_1_estat.html#acb727a684104d60ab770231bebdcc9c6" target="_top" xlink:title="Mètode que assigna la partida del paràmetre a l&#39;estat.">
<polygon fill="white" stroke="#666666" points="471.75,-32 344.75,-32 344.75,0 471.75,0 471.75,-32"/>
<text text-anchor="start" x="352.75" y="-18.5" font-family="Helvetica,sans-Serif" font-size="10.00">domini.scrabble.Estat.set</text>
<text text-anchor="middle" x="408.25" y="-6.5" font-family="Helvetica,sans-Serif" font-size="10.00">Partida</text>
</a>
</g>
</g>
<!-- Node3&#45;&gt;Node7 -->
<g id="edge6_Node000003_Node000007" class="edge">
<title>Node3&#45;&gt;Node7</title>
<g id="a_edge6_Node000003_Node000007"><a xlink:title=" ">
<path fill="none" stroke="#63b8ff" d="M267.1,-74.59C288.16,-64.5 315.95,-51.53 341,-41 344.4,-39.57 347.91,-38.13 351.46,-36.71"/>
<polygon fill="#63b8ff" stroke="#63b8ff" points="352.74,-39.97 360.76,-33.05 350.17,-33.45 352.74,-39.97"/>
</a>
</g>
</g>
</g>
</svg>
</svg>

<style type='text/css'>
<![CDATA[
[data-mouse-over-selected='false'] { opacity: 0.7; }
[data-mouse-over-selected='true']  { opacity: 1.0; }
]]>
</style>
<script type="application/ecmascript"><![CDATA[
document.addEventListener('DOMContentLoaded', (event) => {
  highlightEdges();
  highlightAdjacentNodes();
});
]]></script>
</svg>
