<?xml version="1.0" encoding="UTF-8" standalone="no"?>
<!DOCTYPE svg PUBLIC "-//W3C//DTD SVG 1.1//EN"
 "http://www.w3.org/Graphics/SVG/1.1/DTD/svg11.dtd">
<!-- Generated by graphviz version 12.2.1 (20241206.2353)
 -->
<!-- Title: drivers.Driver.identificarCTrenada Pages: 1 -->
<svg width="599pt" height="40pt"
 viewBox="0.00 0.00 599.25 40.00" xmlns="http://www.w3.org/2000/svg" xmlns:xlink="http://www.w3.org/1999/xlink">
<g id="graph0" class="graph" transform="scale(1 1) rotate(0) translate(4 36)">
<title>drivers.Driver.identificarCTrenada</title>
<!-- Node1 -->
<g id="Node000001" class="node">
<title>Node1</title>
<g id="a_Node000001"><a xlink:title="Identifica els caràcters del paràmetre d&#39;entrada que hauríen de correspondre&#39;s amb &#39;Ç&#39; i els substitu...">
<polygon fill="#999999" stroke="#666666" points="591.25,-32 471.75,-32 471.75,0 591.25,0 591.25,-32"/>
<text text-anchor="start" x="479.75" y="-18.5" font-family="Helvetica,sans-Serif" font-size="10.00">drivers.Driver.identificar</text>
<text text-anchor="middle" x="531.5" y="-6.5" font-family="Helvetica,sans-Serif" font-size="10.00">CTrenada</text>
</a>
</g>
</g>
<!-- Node2 -->
<g id="Node000002" class="node">
<title>Node2</title>
<g id="a_Node000002"><a xlink:href="classdrivers_1_1_driver.html#a511e05515632a6b31d522a3faa1998a8" target="_top" xlink:title="Canvia fitxes del jugador actual.">
<polygon fill="white" stroke="#666666" points="435.75,-26 299.75,-26 299.75,-6 435.75,-6 435.75,-26"/>
<text text-anchor="middle" x="367.75" y="-12.5" font-family="Helvetica,sans-Serif" font-size="10.00">drivers.Driver.canviarFitxes</text>
</a>
</g>
</g>
<!-- Node1&#45;&gt;Node2 -->
<g id="edge1_Node000001_Node000002" class="edge">
<title>Node1&#45;&gt;Node2</title>
<g id="a_edge1_Node000001_Node000002"><a xlink:title=" ">
<path fill="none" stroke="#63b8ff" d="M460.37,-16C452.3,-16 444.09,-16 436.06,-16"/>
<polygon fill="#63b8ff" stroke="#63b8ff" points="460.13,-19.5 470.13,-16 460.13,-12.5 460.13,-19.5"/>
</a>
</g>
</g>
<!-- Node3 -->
<g id="Node000003" class="node">
<title>Node3</title>
<g id="a_Node000003"><a xlink:href="classdrivers_1_1_driver.html#a13e38153634507d9ad6e24cb267237b9" target="_top" xlink:title="Juga una partida.">
<polygon fill="white" stroke="#666666" points="263.75,-26 134.5,-26 134.5,-6 263.75,-6 263.75,-26"/>
<text text-anchor="middle" x="199.12" y="-12.5" font-family="Helvetica,sans-Serif" font-size="10.00">drivers.Driver.jugarPartida</text>
</a>
</g>
</g>
<!-- Node2&#45;&gt;Node3 -->
<g id="edge2_Node000002_Node000003" class="edge">
<title>Node2&#45;&gt;Node3</title>
<g id="a_edge2_Node000002_Node000003"><a xlink:title=" ">
<path fill="none" stroke="#63b8ff" d="M288.16,-16C280.12,-16 272.02,-16 264.16,-16"/>
<polygon fill="#63b8ff" stroke="#63b8ff" points="287.94,-19.5 297.94,-16 287.94,-12.5 287.94,-19.5"/>
</a>
</g>
</g>
<!-- Node4 -->
<g id="Node000004" class="node">
<title>Node4</title>
<g id="a_Node000004"><a xlink:href="classdrivers_1_1_driver.html#a3f94ce3595725e82b34c92548e071d04" target="_top" xlink:title="Inici del driver.">
<polygon fill="white" stroke="#666666" points="98.5,-26 0,-26 0,-6 98.5,-6 98.5,-26"/>
<text text-anchor="middle" x="49.25" y="-12.5" font-family="Helvetica,sans-Serif" font-size="10.00">drivers.Driver.main</text>
</a>
</g>
</g>
<!-- Node3&#45;&gt;Node4 -->
<g id="edge3_Node000003_Node000004" class="edge">
<title>Node3&#45;&gt;Node4</title>
<g id="a_edge3_Node000003_Node000004"><a xlink:title=" ">
<path fill="none" stroke="#63b8ff" d="M122.66,-16C114.53,-16 106.43,-16 98.74,-16"/>
<polygon fill="#63b8ff" stroke="#63b8ff" points="122.61,-19.5 132.61,-16 122.61,-12.5 122.61,-19.5"/>
</a>
</g>
</g>
</g>
</svg>
