<?xml version="1.0" encoding="UTF-8" standalone="no"?>
<!DOCTYPE svg PUBLIC "-//W3C//DTD SVG 1.1//EN"
 "http://www.w3.org/Graphics/SVG/1.1/DTD/svg11.dtd">
<!-- Generated by graphviz version 12.2.1 (20241206.2353)
 -->
<!-- Title: drivers.Driver.pausarPartida Pages: 1 -->
<svg width="445pt" height="28pt"
 viewBox="0.00 0.00 445.25 28.00" xmlns="http://www.w3.org/2000/svg" xmlns:xlink="http://www.w3.org/1999/xlink">
<g id="graph0" class="graph" transform="scale(1 1) rotate(0) translate(4 24)">
<title>drivers.Driver.pausarPartida</title>
<!-- Node1 -->
<g id="Node000001" class="node">
<title>Node1</title>
<g id="a_Node000001"><a xlink:title="Pausa la partida actual.">
<polygon fill="#999999" stroke="#666666" points="437.25,-20 299.75,-20 299.75,0 437.25,0 437.25,-20"/>
<text text-anchor="middle" x="368.5" y="-6.5" font-family="Helvetica,sans-Serif" font-size="10.00">drivers.Driver.pausarPartida</text>
</a>
</g>
</g>
<!-- Node2 -->
<g id="Node000002" class="node">
<title>Node2</title>
<g id="a_Node000002"><a xlink:href="classdrivers_1_1_driver.html#a13e38153634507d9ad6e24cb267237b9" target="_top" xlink:title="Juga una partida.">
<polygon fill="white" stroke="#666666" points="263.75,-20 134.5,-20 134.5,0 263.75,0 263.75,-20"/>
<text text-anchor="middle" x="199.12" y="-6.5" font-family="Helvetica,sans-Serif" font-size="10.00">drivers.Driver.jugarPartida</text>
</a>
</g>
</g>
<!-- Node1&#45;&gt;Node2 -->
<g id="edge1_Node000001_Node000002" class="edge">
<title>Node1&#45;&gt;Node2</title>
<g id="a_edge1_Node000001_Node000002"><a xlink:title=" ">
<path fill="none" stroke="#63b8ff" d="M288.11,-10C280.05,-10 271.95,-10 264.09,-10"/>
<polygon fill="#63b8ff" stroke="#63b8ff" points="287.91,-13.5 297.91,-10 287.91,-6.5 287.91,-13.5"/>
</a>
</g>
</g>
<!-- Node3 -->
<g id="Node000003" class="node">
<title>Node3</title>
<g id="a_Node000003"><a xlink:href="classdrivers_1_1_driver.html#a3f94ce3595725e82b34c92548e071d04" target="_top" xlink:title="Inici del driver.">
<polygon fill="white" stroke="#666666" points="98.5,-20 0,-20 0,0 98.5,0 98.5,-20"/>
<text text-anchor="middle" x="49.25" y="-6.5" font-family="Helvetica,sans-Serif" font-size="10.00">drivers.Driver.main</text>
</a>
</g>
</g>
<!-- Node2&#45;&gt;Node3 -->
<g id="edge2_Node000002_Node000003" class="edge">
<title>Node2&#45;&gt;Node3</title>
<g id="a_edge2_Node000002_Node000003"><a xlink:title=" ">
<path fill="none" stroke="#63b8ff" d="M122.66,-10C114.53,-10 106.43,-10 98.74,-10"/>
<polygon fill="#63b8ff" stroke="#63b8ff" points="122.61,-13.5 132.61,-10 122.61,-6.5 122.61,-13.5"/>
</a>
</g>
</g>
</g>
</svg>
