<?xml version="1.0" encoding="UTF-8" standalone="no"?>
<!DOCTYPE svg PUBLIC "-//W3C//DTD SVG 1.1//EN"
 "http://www.w3.org/Graphics/SVG/1.1/DTD/svg11.dtd">
<!-- Generated by graphviz version 12.2.1 (20241206.2353)
 -->
<!-- Title: interficie.VistaCrearAvatar.PlaceholderTextField Pages: 1 -->
<svg width="134pt" height="176pt"
 viewBox="0.00 0.00 133.75 176.00" xmlns="http://www.w3.org/2000/svg" xmlns:xlink="http://www.w3.org/1999/xlink">
<g id="graph0" class="graph" transform="scale(1 1) rotate(0) translate(4 172)">
<title>interficie.VistaCrearAvatar.PlaceholderTextField</title>
<!-- Node1 -->
<g id="Node000001" class="node">
<title>Node1</title>
<g id="a_Node000001"><a xlink:title="JTextField amb suport per a un text placeholder.">
<polygon fill="#999999" stroke="none" points="125.75,-80 0,-80 0,0 125.75,0 125.75,-80"/>
<text text-anchor="start" x="4" y="-66.5" font-family="Helvetica,sans-Serif" font-size="10.00">interficie.VistaCrearAvatar.</text>
<text text-anchor="start" x="17.5" y="-54.5" font-family="Helvetica,sans-Serif" font-size="10.00">PlaceholderTextField</text>
<text text-anchor="start" x="13.12" y="-38.5" font-family="Helvetica,sans-Serif" font-size="10.00">&#45;</text>
<text text-anchor="start" x="29.25" y="-38.5" font-family="Helvetica,sans-Serif" font-size="10.00">placeholder</text>
<text text-anchor="start" x="11.62" y="-22.5" font-family="Helvetica,sans-Serif" font-size="10.00">+</text>
<text text-anchor="start" x="29.25" y="-22.5" font-family="Helvetica,sans-Serif" font-size="10.00">setPlaceholder()</text>
<text text-anchor="start" x="12" y="-6.5" font-family="Helvetica,sans-Serif" font-size="10.00">#</text>
<text text-anchor="start" x="29.25" y="-6.5" font-family="Helvetica,sans-Serif" font-size="10.00">paintComponent()</text>
<polygon fill="#666666" stroke="#666666" points="0,-50 0,-50 125.75,-50 125.75,-50 0,-50"/>
<polygon fill="#666666" stroke="#666666" points="0,-34 0,-34 27.25,-34 27.25,-34 0,-34"/>
<polygon fill="#666666" stroke="#666666" points="27.25,-34 27.25,-34 125.75,-34 125.75,-34 27.25,-34"/>
<polygon fill="none" stroke="#666666" points="0,0 0,-80 125.75,-80 125.75,0 0,0"/>
</a>
</g>
</g>
<!-- Node2 -->
<g id="Node000002" class="node">
<title>Node2</title>
<g id="a_Node000002"><a xlink:title=" ">
<polygon fill="white" stroke="none" points="89.38,-168 36.38,-168 36.38,-116 89.38,-116 89.38,-168"/>
<text text-anchor="start" x="40.38" y="-154.5" font-family="Helvetica,sans-Serif" font-size="10.00">JTextField</text>
<text text-anchor="start" x="61.38" y="-138.5" font-family="Helvetica,sans-Serif" font-size="10.00"> </text>
<text text-anchor="start" x="61.38" y="-122.5" font-family="Helvetica,sans-Serif" font-size="10.00"> </text>
<polygon fill="#666666" stroke="#666666" points="36.38,-150 36.38,-150 89.38,-150 89.38,-150 36.38,-150"/>
<polygon fill="#666666" stroke="#666666" points="36.38,-134 36.38,-134 89.38,-134 89.38,-134 36.38,-134"/>
<polygon fill="none" stroke="#666666" points="36.38,-116 36.38,-168 89.38,-168 89.38,-116 36.38,-116"/>
</a>
</g>
</g>
<!-- Node2&#45;&gt;Node1 -->
<g id="edge1_Node000001_Node000002" class="edge">
<title>Node2&#45;&gt;Node1</title>
<g id="a_edge1_Node000001_Node000002"><a xlink:title=" ">
<path fill="none" stroke="#63b8ff" d="M62.88,-104.61C62.88,-96.5 62.88,-87.86 62.88,-79.65"/>
<polygon fill="none" stroke="#63b8ff" points="59.38,-104.51 62.88,-114.51 66.38,-104.51 59.38,-104.51"/>
</a>
</g>
</g>
</g>
</svg>
