<?xml version="1.0" encoding="UTF-8" standalone="no"?>
<!DOCTYPE svg PUBLIC "-//W3C//DTD SVG 1.1//EN"
 "http://www.w3.org/Graphics/SVG/1.1/DTD/svg11.dtd">
<!-- Generated by graphviz version 12.2.1 (20241206.2353)
 -->
<!-- Title: domini.jugadors.Maquina.valorarParaula Pages: 1 -->
<!--zoomable 554 -->

<svg id="main" version="1.1" xmlns="http://www.w3.org/2000/svg" xmlns:xlink="http://www.w3.org/1999/xlink" xml:space="preserve" onload="init(evt)">

<style type="text/css"><![CDATA[
.node, .edge {opacity: 0.7;}
.node.selected, .edge.selected {opacity: 1;}
.edge:hover path { stroke: red; }
.edge:hover polygon { stroke: red; fill: red; }
]]></style>

<defs>
  <circle id="rim" cx="0" cy="0" r="7"/>
  <circle id="rim2" cx="0" cy="0" r="3.5"/>
  <g id="zoomPlus">
    <use xlink:href="#rim" fill="#404040"><set attributeName="fill" to="#808080" begin="zoomplus.mouseover" end="zoomplus.mouseout"/></use>
    <path d="M-4,0h8M0,-4v8" fill="none" stroke="white" stroke-width="1.5" pointer-events="none"/>
  </g>
  <g id="zoomMin">
    <use xlink:href="#rim" fill="#404040"><set attributeName="fill" to="#808080" begin="zoomminus.mouseover" end="zoomminus.mouseout"/></use>
    <path d="M-4,0h8" fill="none" stroke="white" stroke-width="1.5" pointer-events="none"/>
  </g>
  <g id="arrowUp" transform="translate(30 24)">
    <use xlink:href="#rim"/>
    <path pointer-events="none" fill="none" stroke="white" stroke-width="1.5" d="M0,-3.0v7 M-2.5,-0.5L0,-3.0L2.5,-0.5"/>
  </g>
  <g id="arrowRight" transform="rotate(90) translate(36 -43)">
    <use xlink:href="#rim"/>
    <path pointer-events="none" fill="none" stroke="white" stroke-width="1.5" d="M0,-3.0v7 M-2.5,-0.5L0,-3.0L2.5,-0.5"/>
  </g>
  <g id="arrowDown" transform="rotate(180) translate(-30 -48)">
    <use xlink:href="#rim"/>
    <path pointer-events="none" fill="none" stroke="white" stroke-width="1.5" d="M0,-3.0v7 M-2.5,-0.5L0,-3.0L2.5,-0.5"/>
  </g>
  <g id="arrowLeft" transform="rotate(270) translate(-36 17)">
    <use xlink:href="#rim"/>
    <path pointer-events="none" fill="none" stroke="white" stroke-width="1.5" d="M0,-3.0v7 M-2.5,-0.5L0,-3.0L2.5,-0.5"/>
  </g>
  <g id="resetDef">
    <use xlink:href="#rim2" fill="#404040"><set attributeName="fill" to="#808080" begin="reset.mouseover" end="reset.mouseout"/></use>
  </g>
</defs>
<script type="application/ecmascript">
var viewWidth = 743;
var viewHeight = 554;
var sectionId = 'dynsection-15';
</script>
<script type="application/ecmascript" xlink:href="svg.min.js"/>
<svg id="graph" class="graph">
<g id="viewport">
<title>domini.jugadors.Maquina.valorarParaula</title>
<!-- Node1 -->
<g id="Node000001" class="node">
<title>Node1</title>
<g id="a_Node000001"><a xlink:title="Valora una paraula i actualitza la millor paraula trobada si és millor.">
<polygon fill="#999999" stroke="#666666" points="156.25,-270 0,-270 0,-238 156.25,-238 156.25,-270"/>
<text text-anchor="start" x="8" y="-256.5" font-family="Helvetica,sans-Serif" font-size="10.00">domini.jugadors.Maquina.valorar</text>
<text text-anchor="middle" x="78.12" y="-244.5" font-family="Helvetica,sans-Serif" font-size="10.00">Paraula</text>
</a>
</g>
</g>
<!-- Node2 -->
<g id="Node000002" class="node">
<title>Node2</title>
<g id="a_Node000002"><a xlink:href="classdomini_1_1jugadors_1_1_maquina.html#a80169174406c5da6922feb0f4c854ac8" target="_top" xlink:title="Calcula la puntuació d&#39;una paraula col·locada en el taulell.">
<polygon fill="white" stroke="#666666" points="356,-446 195.25,-446 195.25,-414 356,-414 356,-446"/>
<text text-anchor="start" x="203.25" y="-432.5" font-family="Helvetica,sans-Serif" font-size="10.00">domini.jugadors.Maquina.calcular</text>
<text text-anchor="middle" x="275.62" y="-420.5" font-family="Helvetica,sans-Serif" font-size="10.00">Puntatge</text>
</a>
</g>
</g>
<!-- Node1&#45;&gt;Node2 -->
<g id="edge1_Node000001_Node000002" class="edge">
<title>Node1&#45;&gt;Node2</title>
<g id="a_edge1_Node000001_Node000002"><a xlink:title=" ">
<path fill="none" stroke="#63b8ff" d="M89.14,-270.32C106.93,-298.19 146.49,-355.38 192.25,-391 200.87,-397.71 210.83,-403.63 220.78,-408.71"/>
<polygon fill="#63b8ff" stroke="#63b8ff" points="219.2,-411.84 229.73,-413.04 222.25,-405.53 219.2,-411.84"/>
</a>
</g>
</g>
<!-- Node4 -->
<g id="Node000004" class="node">
<title>Node4</title>
<g id="a_Node000004"><a xlink:href="classdomini_1_1scrabble_1_1_taulell.html#afc2d8dcd225b683aa00af9ce2075ad79" target="_top" xlink:title=" ">
<polygon fill="white" stroke="#666666" points="734.5,-418 593.25,-418 593.25,-398 734.5,-398 734.5,-418"/>
<text text-anchor="middle" x="663.88" y="-404.5" font-family="Helvetica,sans-Serif" font-size="10.00">domini.scrabble.Taulell.limits</text>
</a>
</g>
</g>
<!-- Node1&#45;&gt;Node4 -->
<g id="edge13_Node000001_Node000004" class="edge">
<title>Node1&#45;&gt;Node4</title>
<g id="a_edge13_Node000001_Node000004"><a xlink:title=" ">
<path fill="none" stroke="#63b8ff" d="M102.12,-270.49C124.12,-285.35 158.81,-306.44 192.25,-317 347.78,-366.12 400.7,-309.24 557.25,-355 586.06,-363.42 616.43,-379.52 637.18,-391.78"/>
<polygon fill="#63b8ff" stroke="#63b8ff" points="635.15,-394.64 645.52,-396.82 638.77,-388.65 635.15,-394.64"/>
</a>
</g>
</g>
<!-- Node5 -->
<g id="Node000005" class="node">
<title>Node5</title>
<g id="a_Node000005"><a xlink:href="classdomini_1_1auxiliars_1_1_pair.html#af9fc7c6b0fb531c4b59cdb1048897164" target="_top" xlink:title="Obté el primer element de la parella.">
<polygon fill="white" stroke="#666666" points="536.25,-546 416,-546 416,-514 536.25,-514 536.25,-546"/>
<text text-anchor="start" x="424" y="-532.5" font-family="Helvetica,sans-Serif" font-size="10.00">domini.auxiliars.Pair.get</text>
<text text-anchor="middle" x="476.12" y="-520.5" font-family="Helvetica,sans-Serif" font-size="10.00">First</text>
</a>
</g>
</g>
<!-- Node1&#45;&gt;Node5 -->
<g id="edge10_Node000001_Node000005" class="edge">
<title>Node1&#45;&gt;Node5</title>
<g id="a_edge10_Node000001_Node000005"><a xlink:title=" ">
<path fill="none" stroke="#63b8ff" d="M83.56,-270.45C94.83,-308.97 128.28,-405.49 192.25,-455 253.71,-502.57 342.73,-520.07 404.43,-526.45"/>
<polygon fill="#63b8ff" stroke="#63b8ff" points="403.82,-529.91 414.11,-527.37 404.48,-522.94 403.82,-529.91"/>
</a>
</g>
</g>
<!-- Node7 -->
<g id="Node000007" class="node">
<title>Node7</title>
<g id="a_Node000007"><a xlink:href="classdomini_1_1auxiliars_1_1_pair.html#af70cd15a3a6fe17c25fbae3a08955565" target="_top" xlink:title="Obté el segon element de la parella.">
<polygon fill="white" stroke="#666666" points="536.25,-396 416,-396 416,-364 536.25,-364 536.25,-396"/>
<text text-anchor="start" x="424" y="-382.5" font-family="Helvetica,sans-Serif" font-size="10.00">domini.auxiliars.Pair.get</text>
<text text-anchor="middle" x="476.12" y="-370.5" font-family="Helvetica,sans-Serif" font-size="10.00">Second</text>
</a>
</g>
</g>
<!-- Node1&#45;&gt;Node7 -->
<g id="edge12_Node000001_Node000007" class="edge">
<title>Node1&#45;&gt;Node7</title>
<g id="a_edge12_Node000001_Node000007"><a xlink:title=" ">
<path fill="none" stroke="#63b8ff" d="M92.49,-270.28C111.88,-292.59 150.1,-331.95 192.25,-350 260.13,-379.08 345.23,-384.42 404.26,-383.84"/>
<polygon fill="#63b8ff" stroke="#63b8ff" points="404.26,-387.34 414.2,-383.67 404.14,-380.34 404.26,-387.34"/>
</a>
</g>
</g>
<!-- Node8 -->
<g id="Node000008" class="node">
<title>Node8</title>
<g id="a_Node000008"><a xlink:href="classdomini_1_1diccionari_1_1_d_a_w_g.html#acf204a82f6e4f5cebf3313611e57b714" target="_top" xlink:title="Comprova si una paraula està reconeguda pel DAWG.">
<polygon fill="white" stroke="#666666" points="356.75,-308 194.5,-308 194.5,-288 356.75,-288 356.75,-308"/>
<text text-anchor="middle" x="275.62" y="-294.5" font-family="Helvetica,sans-Serif" font-size="10.00">domini.diccionari.DAWG.contains</text>
</a>
</g>
</g>
<!-- Node1&#45;&gt;Node8 -->
<g id="edge7_Node000001_Node000008" class="edge">
<title>Node1&#45;&gt;Node8</title>
<g id="a_edge7_Node000001_Node000008"><a xlink:title=" ">
<path fill="none" stroke="#63b8ff" d="M152.2,-270.45C173.61,-275.27 196.72,-280.47 217.02,-285.04"/>
<polygon fill="#63b8ff" stroke="#63b8ff" points="215.99,-288.39 226.51,-287.17 217.52,-281.56 215.99,-288.39"/>
</a>
</g>
</g>
<!-- Node10 -->
<g id="Node000010" class="node">
<title>Node10</title>
<g id="a_Node000010"><a xlink:href="classdomini_1_1jugadors_1_1_maquina.html#ae5ea3ad1e6cf736172f038349b70857d" target="_top" xlink:title="Converteix una llista de fitxes en una cadena de text.">
<polygon fill="white" stroke="#666666" points="353.75,-270 197.5,-270 197.5,-238 353.75,-238 353.75,-270"/>
<text text-anchor="start" x="205.5" y="-256.5" font-family="Helvetica,sans-Serif" font-size="10.00">domini.jugadors.Maquina.fitxes2</text>
<text text-anchor="middle" x="275.62" y="-244.5" font-family="Helvetica,sans-Serif" font-size="10.00">String</text>
</a>
</g>
</g>
<!-- Node1&#45;&gt;Node10 -->
<g id="edge9_Node000001_Node000010" class="edge">
<title>Node1&#45;&gt;Node10</title>
<g id="a_edge9_Node000001_Node000010"><a xlink:title=" ">
<path fill="none" stroke="#63b8ff" d="M156.67,-254C166.25,-254 176.1,-254 185.83,-254"/>
<polygon fill="#63b8ff" stroke="#63b8ff" points="185.66,-257.5 195.66,-254 185.66,-250.5 185.66,-257.5"/>
</a>
</g>
</g>
<!-- Node11 -->
<g id="Node000011" class="node">
<title>Node11</title>
<g id="a_Node000011"><a xlink:href="classdomini_1_1auxiliars_1_1_max_word.html#a095b18721ed654f8c136b6fd2b9a4f6d" target="_top" xlink:title="Obté la puntuació de la paraula.">
<polygon fill="white" stroke="#666666" points="347.75,-220 203.5,-220 203.5,-188 347.75,-188 347.75,-220"/>
<text text-anchor="start" x="211.5" y="-206.5" font-family="Helvetica,sans-Serif" font-size="10.00">domini.auxiliars.MaxWord.get</text>
<text text-anchor="middle" x="275.62" y="-194.5" font-family="Helvetica,sans-Serif" font-size="10.00">Points</text>
</a>
</g>
</g>
<!-- Node1&#45;&gt;Node11 -->
<g id="edge11_Node000001_Node000011" class="edge">
<title>Node1&#45;&gt;Node11</title>
<g id="a_edge11_Node000001_Node000011"><a xlink:title=" ">
<path fill="none" stroke="#63b8ff" d="M143.41,-237.56C161.28,-232.99 180.85,-227.98 199.29,-223.27"/>
<polygon fill="#63b8ff" stroke="#63b8ff" points="200.01,-226.69 208.84,-220.83 198.28,-219.91 200.01,-226.69"/>
</a>
</g>
</g>
<!-- Node12 -->
<g id="Node000012" class="node">
<title>Node12</title>
<g id="a_Node000012"><a xlink:href="classdomini_1_1auxiliars_1_1_max_word.html#a946a8835bbce29ef90f8c76455735c0d" target="_top" xlink:title="Assigna unes noves coordenades inicials a la paraula.">
<polygon fill="white" stroke="#666666" points="347.75,-170 203.5,-170 203.5,-138 347.75,-138 347.75,-170"/>
<text text-anchor="start" x="211.5" y="-156.5" font-family="Helvetica,sans-Serif" font-size="10.00">domini.auxiliars.MaxWord.set</text>
<text text-anchor="middle" x="275.62" y="-144.5" font-family="Helvetica,sans-Serif" font-size="10.00">Coordinates</text>
</a>
</g>
</g>
<!-- Node1&#45;&gt;Node12 -->
<g id="edge14_Node000001_Node000012" class="edge">
<title>Node1&#45;&gt;Node12</title>
<g id="a_edge14_Node000001_Node000012"><a xlink:title=" ">
<path fill="none" stroke="#63b8ff" d="M99.71,-237.67C121.59,-220.98 157.71,-195.26 192.25,-179 195.56,-177.44 199,-175.95 202.5,-174.53"/>
<polygon fill="#63b8ff" stroke="#63b8ff" points="203.62,-177.85 211.73,-171.02 201.14,-171.3 203.62,-177.85"/>
</a>
</g>
</g>
<!-- Node13 -->
<g id="Node000013" class="node">
<title>Node13</title>
<g id="a_Node000013"><a xlink:href="classdomini_1_1auxiliars_1_1_max_word.html#adb214547721bf7d9bb1a04c97827d0b0" target="_top" xlink:title="Defineix la direcció de la paraula.">
<polygon fill="white" stroke="#666666" points="347.75,-120 203.5,-120 203.5,-88 347.75,-88 347.75,-120"/>
<text text-anchor="start" x="211.5" y="-106.5" font-family="Helvetica,sans-Serif" font-size="10.00">domini.auxiliars.MaxWord.set</text>
<text text-anchor="middle" x="275.62" y="-94.5" font-family="Helvetica,sans-Serif" font-size="10.00">Horizontal</text>
</a>
</g>
</g>
<!-- Node1&#45;&gt;Node13 -->
<g id="edge15_Node000001_Node000013" class="edge">
<title>Node1&#45;&gt;Node13</title>
<g id="a_edge15_Node000001_Node000013"><a xlink:title=" ">
<path fill="none" stroke="#63b8ff" d="M89.56,-237.61C107.39,-210.93 146.27,-158.15 192.25,-129 194.27,-127.72 196.36,-126.5 198.51,-125.34"/>
<polygon fill="#63b8ff" stroke="#63b8ff" points="200.02,-128.5 207.5,-121 196.97,-122.19 200.02,-128.5"/>
</a>
</g>
</g>
<!-- Node14 -->
<g id="Node000014" class="node">
<title>Node14</title>
<g id="a_Node000014"><a xlink:href="classdomini_1_1auxiliars_1_1_max_word.html#ae599f47659f48bcc17daf17b83bd7255" target="_top" xlink:title="Assigna una nova puntuació a la paraula.">
<polygon fill="white" stroke="#666666" points="347.75,-70 203.5,-70 203.5,-38 347.75,-38 347.75,-70"/>
<text text-anchor="start" x="211.5" y="-56.5" font-family="Helvetica,sans-Serif" font-size="10.00">domini.auxiliars.MaxWord.set</text>
<text text-anchor="middle" x="275.62" y="-44.5" font-family="Helvetica,sans-Serif" font-size="10.00">Points</text>
</a>
</g>
</g>
<!-- Node1&#45;&gt;Node14 -->
<g id="edge16_Node000001_Node000014" class="edge">
<title>Node1&#45;&gt;Node14</title>
<g id="a_edge16_Node000001_Node000014"><a xlink:title=" ">
<path fill="none" stroke="#63b8ff" d="M85.1,-237.76C98.66,-203.22 135.04,-122.11 192.25,-79 193.59,-77.99 194.98,-77.02 196.4,-76.08"/>
<polygon fill="#63b8ff" stroke="#63b8ff" points="197.94,-79.23 204.88,-71.23 194.47,-73.16 197.94,-79.23"/>
</a>
</g>
</g>
<!-- Node15 -->
<g id="Node000015" class="node">
<title>Node15</title>
<g id="a_Node000015"><a xlink:href="classdomini_1_1auxiliars_1_1_max_word.html#a452955f9d5f0cfedcab85fd1c74609c6" target="_top" xlink:title="Assigna una nova llista de fitxes a la paraula.">
<polygon fill="white" stroke="#666666" points="359,-20 192.25,-20 192.25,0 359,0 359,-20"/>
<text text-anchor="middle" x="275.62" y="-6.5" font-family="Helvetica,sans-Serif" font-size="10.00">domini.auxiliars.MaxWord.setWord</text>
</a>
</g>
</g>
<!-- Node1&#45;&gt;Node15 -->
<g id="edge17_Node000001_Node000015" class="edge">
<title>Node1&#45;&gt;Node15</title>
<g id="a_edge17_Node000001_Node000015"><a xlink:title=" ">
<path fill="none" stroke="#63b8ff" d="M82.35,-237.67C91.48,-195.88 121.59,-84.5 192.25,-29 193.76,-27.82 195.33,-26.7 196.94,-25.66"/>
<polygon fill="#63b8ff" stroke="#63b8ff" points="198.24,-28.94 205.37,-21.09 194.91,-22.78 198.24,-28.94"/>
</a>
</g>
</g>
<!-- Node3 -->
<g id="Node000003" class="node">
<title>Node3</title>
<g id="a_Node000003"><a xlink:href="classdomini_1_1scrabble_1_1_taulell.html#a5be7b0143cecbce3e2f4dc4f53814879" target="_top" xlink:title="Donades unes coordenades, retorna la Casella que es troba en aquelles coordenades.">
<polygon fill="white" stroke="#666666" points="541.88,-496 410.38,-496 410.38,-464 541.88,-464 541.88,-496"/>
<text text-anchor="start" x="418.38" y="-482.5" font-family="Helvetica,sans-Serif" font-size="10.00">domini.scrabble.Taulell.get</text>
<text text-anchor="middle" x="476.12" y="-470.5" font-family="Helvetica,sans-Serif" font-size="10.00">Casella</text>
</a>
</g>
</g>
<!-- Node2&#45;&gt;Node3 -->
<g id="edge2_Node000002_Node000003" class="edge">
<title>Node2&#45;&gt;Node3</title>
<g id="a_edge2_Node000002_Node000003"><a xlink:title=" ">
<path fill="none" stroke="#63b8ff" d="M341.9,-446.44C360.22,-451.06 380.3,-456.12 399.19,-460.87"/>
<polygon fill="#63b8ff" stroke="#63b8ff" points="398.13,-464.22 408.69,-463.26 399.84,-457.43 398.13,-464.22"/>
</a>
</g>
</g>
<!-- Node2&#45;&gt;Node5 -->
<g id="edge4_Node000002_Node000005" class="edge">
<title>Node2&#45;&gt;Node5</title>
<g id="a_edge4_Node000002_Node000005"><a xlink:title=" ">
<path fill="none" stroke="#63b8ff" d="M298.32,-446.21C321.33,-462.81 359.23,-488.44 395,-505 398.48,-506.61 402.09,-508.15 405.76,-509.63"/>
<polygon fill="#63b8ff" stroke="#63b8ff" points="404.24,-512.79 414.83,-513.05 406.71,-506.24 404.24,-512.79"/>
</a>
</g>
</g>
<!-- Node6 -->
<g id="Node000006" class="node">
<title>Node6</title>
<g id="a_Node000006"><a xlink:href="classdomini_1_1scrabble_1_1_casella.html#a2ce7db6c414e455606dfbd8ee8056a3b" target="_top" xlink:title="Retorna el multiplicador de la casella.">
<polygon fill="white" stroke="#666666" points="544.5,-446 407.75,-446 407.75,-414 544.5,-414 544.5,-446"/>
<text text-anchor="start" x="415.75" y="-432.5" font-family="Helvetica,sans-Serif" font-size="10.00">domini.scrabble.Casella.get</text>
<text text-anchor="middle" x="476.12" y="-420.5" font-family="Helvetica,sans-Serif" font-size="10.00">Multiplicador</text>
</a>
</g>
</g>
<!-- Node2&#45;&gt;Node6 -->
<g id="edge5_Node000002_Node000006" class="edge">
<title>Node2&#45;&gt;Node6</title>
<g id="a_edge5_Node000002_Node000006"><a xlink:title=" ">
<path fill="none" stroke="#63b8ff" d="M356.22,-430C369.32,-430 382.89,-430 395.98,-430"/>
<polygon fill="#63b8ff" stroke="#63b8ff" points="395.81,-433.5 405.81,-430 395.81,-426.5 395.81,-433.5"/>
</a>
</g>
</g>
<!-- Node2&#45;&gt;Node7 -->
<g id="edge6_Node000002_Node000007" class="edge">
<title>Node2&#45;&gt;Node7</title>
<g id="a_edge6_Node000002_Node000007"><a xlink:title=" ">
<path fill="none" stroke="#63b8ff" d="M341.9,-413.56C361.92,-408.52 384.04,-402.94 404.41,-397.81"/>
<polygon fill="#63b8ff" stroke="#63b8ff" points="405.21,-401.22 414.05,-395.38 403.5,-394.43 405.21,-401.22"/>
</a>
</g>
</g>
<!-- Node3&#45;&gt;Node4 -->
<g id="edge3_Node000003_Node000004" class="edge">
<title>Node3&#45;&gt;Node4</title>
<g id="a_edge3_Node000003_Node000004"><a xlink:title=" ">
<path fill="none" stroke="#63b8ff" d="M532.58,-463.62C540.9,-460.9 549.34,-457.98 557.25,-455 582.52,-445.47 610.4,-432.98 631.17,-423.27"/>
<polygon fill="#63b8ff" stroke="#63b8ff" points="632.42,-426.55 639.97,-419.12 629.43,-420.22 632.42,-426.55"/>
</a>
</g>
</g>
<!-- Node9 -->
<g id="Node000009" class="node">
<title>Node9</title>
<g id="a_Node000009"><a xlink:href="classdomini_1_1diccionari_1_1_d_a_w_g.html#ad5db7cc629d77068e51ccae18f9bfebd" target="_top" xlink:title="Genera una llista amb les lletres i dígrafs de la paraula paràmetre.">
<polygon fill="white" stroke="#666666" points="557.25,-308 395,-308 395,-288 557.25,-288 557.25,-308"/>
<text text-anchor="middle" x="476.12" y="-294.5" font-family="Helvetica,sans-Serif" font-size="10.00">domini.diccionari.DAWG.tokenize</text>
</a>
</g>
</g>
<!-- Node8&#45;&gt;Node9 -->
<g id="edge8_Node000008_Node000009" class="edge">
<title>Node8&#45;&gt;Node9</title>
<g id="a_edge8_Node000008_Node000009"><a xlink:title=" ">
<path fill="none" stroke="#63b8ff" d="M357.08,-298C365.67,-298 374.46,-298 383.17,-298"/>
<polygon fill="#63b8ff" stroke="#63b8ff" points="383.05,-301.5 393.05,-298 383.05,-294.5 383.05,-301.5"/>
</a>
</g>
</g>
</g>
</svg>

<g id="navigator" transform="translate(0 0)" fill="#404254">
  <rect fill="#f2f5e9" fill-opacity="0.5" stroke="#606060" stroke-width=".5" x="0" y="0" width="60" height="60"/>
  <use id="zoomplus" xlink:href="#zoomPlus" x="17" y="9" onmousedown="handleZoom(evt,'in')"/>
  <use id="zoomminus" xlink:href="#zoomMin" x="42" y="9" onmousedown="handleZoom(evt,'out')"/>
  <use id="reset" xlink:href="#resetDef" x="30" y="36" onmousedown="handleReset()"/>
   <use id="arrowup" xlink:href="#arrowUp" x="0" y="0" onmousedown="handlePan(0,-1)"/>
  <use id="arrowright" xlink:href="#arrowRight" x="0" y="0" onmousedown="handlePan(1,0)"/>
  <use id="arrowdown" xlink:href="#arrowDown" x="0" y="0" onmousedown="handlePan(0,1)"/>
  <use id="arrowleft" xlink:href="#arrowLeft" x="0" y="0" onmousedown="handlePan(-1,0)"/>
</g>
<svg viewBox="0 0 15 15" width="100%" height="30px" preserveAspectRatio="xMaxYMin meet">
 <g id="arrow_out" transform="scale(0.3 0.3)">
  <a xlink:href="classdomini_1_1jugadors_1_1_maquina_a247420aa69d81da6d3d1951d3b409a43_cgraph_org.svg" target="_base">
   <rect id="button" ry="5" rx="5" y="6" x="6" height="38" width="38"
        fill="#f2f5e9" fill-opacity="0.5" stroke="#606060" stroke-width="1.0"/>
   <path id="arrow"
     d="M 11.500037,31.436501 C 11.940474,20.09759 22.043105,11.32322 32.158766,21.979434 L 37.068811,17.246167 C 37.068811,17.246167 37.088388,32 37.088388,32 L 22.160133,31.978069 C 22.160133,31.978069 26.997745,27.140456 26.997745,27.140456 C 18.528582,18.264221 13.291696,25.230495 11.500037,31.436501 z"
     style="fill:#404040;"/>
  </a>
 </g>
</svg>

<style type='text/css'>
<![CDATA[
[data-mouse-over-selected='false'] { opacity: 0.7; }
[data-mouse-over-selected='true']  { opacity: 1.0; }
]]>
</style>
<script type="application/ecmascript"><![CDATA[
document.addEventListener('DOMContentLoaded', (event) => {
  highlightEdges();
  highlightAdjacentNodes();
});
]]></script>
</svg>
