<?xml version="1.0" encoding="UTF-8" standalone="no"?>
<!DOCTYPE svg PUBLIC "-//W3C//DTD SVG 1.1//EN"
 "http://www.w3.org/Graphics/SVG/1.1/DTD/svg11.dtd">
<!-- Generated by graphviz version 12.2.1 (20241206.2353)
 -->
<!-- Title: interficie.VistaMenuPrincipal.actualitzarImatge Pages: 1 -->
<svg width="585pt" height="62pt"
 viewBox="0.00 0.00 584.75 62.00" xmlns="http://www.w3.org/2000/svg" xmlns:xlink="http://www.w3.org/1999/xlink">
<g id="graph0" class="graph" transform="scale(1 1) rotate(0) translate(4 58)">
<title>interficie.VistaMenuPrincipal.actualitzarImatge</title>
<!-- Node1 -->
<g id="Node000001" class="node">
<title>Node1</title>
<g id="a_Node000001"><a xlink:title="Actualitza la imatge del logotip amb una mida determinada.">
<polygon fill="#999999" stroke="#666666" points="576.75,-32 389,-32 389,0 576.75,0 576.75,-32"/>
<text text-anchor="start" x="397" y="-18.5" font-family="Helvetica,sans-Serif" font-size="10.00">interficie.VistaMenuPrincipal.actualitzar</text>
<text text-anchor="middle" x="482.88" y="-6.5" font-family="Helvetica,sans-Serif" font-size="10.00">Imatge</text>
</a>
</g>
</g>
<!-- Node2 -->
<g id="Node000002" class="node">
<title>Node2</title>
<g id="a_Node000002"><a xlink:href="$classinterficie_1_1_vista_menu_principal.html#a9fd76252864d2ffce96870de1d9bbda8" xlink:title="Escala tots els components gràfics en funció de la mida de la finestra.">
<polygon fill="white" stroke="#666666" points="353,-54 178.75,-54 178.75,-22 353,-22 353,-54"/>
<text text-anchor="start" x="186.75" y="-40.5" font-family="Helvetica,sans-Serif" font-size="10.00">interficie.VistaMenuPrincipal.escalar</text>
<text text-anchor="middle" x="265.88" y="-28.5" font-family="Helvetica,sans-Serif" font-size="10.00">Componentes</text>
</a>
</g>
</g>
<!-- Node1&#45;&gt;Node2 -->
<g id="edge1_Node000001_Node000002" class="edge">
<title>Node1&#45;&gt;Node2</title>
<g id="a_edge1_Node000001_Node000002"><a xlink:title=" ">
<path fill="none" stroke="#63b8ff" d="M377.24,-26.71C369.25,-27.52 361.24,-28.34 353.38,-29.15"/>
<polygon fill="#63b8ff" stroke="#63b8ff" points="377.41,-30.21 387.01,-25.71 376.7,-23.24 377.41,-30.21"/>
</a>
</g>
</g>
<!-- Node3 -->
<g id="Node000003" class="node">
<title>Node3</title>
<g id="a_Node000003"><a xlink:href="$classinterficie_1_1_vista_menu_principal.html#a1775070c5caab55f6464ec2fae506c4e" xlink:title="Constructor de la classe VistaMenuPrincipal.">
<polygon fill="white" stroke="#666666" points="142.75,-32 0,-32 0,0 142.75,0 142.75,-32"/>
<text text-anchor="start" x="8" y="-18.5" font-family="Helvetica,sans-Serif" font-size="10.00">interficie.VistaMenuPrincipal.</text>
<text text-anchor="middle" x="71.38" y="-6.5" font-family="Helvetica,sans-Serif" font-size="10.00">VistaMenuPrincipal</text>
</a>
</g>
</g>
<!-- Node1&#45;&gt;Node3 -->
<g id="edge4_Node000001_Node000003" class="edge">
<title>Node1&#45;&gt;Node3</title>
<g id="a_edge4_Node000001_Node000003"><a xlink:title=" ">
<path fill="none" stroke="#63b8ff" d="M377.36,-13.36C369.12,-13.22 360.92,-13.09 353,-13 275.56,-12.1 256.19,-11.91 178.75,-13 167.2,-13.16 154.96,-13.42 143.04,-13.73"/>
<polygon fill="#63b8ff" stroke="#63b8ff" points="377.03,-16.86 387.1,-13.54 377.17,-9.86 377.03,-16.86"/>
</a>
</g>
</g>
<!-- Node2&#45;&gt;Node3 -->
<g id="edge2_Node000002_Node000003" class="edge">
<title>Node2&#45;&gt;Node3</title>
<g id="a_edge2_Node000002_Node000003"><a xlink:title=" ">
<path fill="none" stroke="#63b8ff" d="M167.11,-26.83C159.05,-25.91 151.02,-24.99 143.22,-24.1"/>
<polygon fill="#63b8ff" stroke="#63b8ff" points="166.64,-30.3 176.98,-27.95 167.44,-23.34 166.64,-30.3"/>
</a>
</g>
</g>
<!-- Node3&#45;&gt;Node3 -->
<g id="edge3_Node000003_Node000003" class="edge">
<title>Node3&#45;&gt;Node3</title>
<g id="a_edge3_Node000003_Node000003"><a xlink:title=" ">
<path fill="none" stroke="#63b8ff" d="M103.79,-43.71C98.38,-47.48 87.58,-50 71.38,-50 41.74,-50 30.17,-41.58 36.65,-32.44"/>
<polygon fill="#63b8ff" stroke="#63b8ff" points="107.21,-44.42 105.79,-33.93 100.36,-43.02 107.21,-44.42"/>
</a>
</g>
</g>
</g>
</svg>
