<?xml version="1.0" encoding="UTF-8" standalone="no"?>
<!DOCTYPE svg PUBLIC "-//W3C//DTD SVG 1.1//EN"
 "http://www.w3.org/Graphics/SVG/1.1/DTD/svg11.dtd">
<!-- Generated by graphviz version 12.2.1 (20241206.2353)
 -->
<!-- Title: interficie.VistaRankingPartida Pages: 1 -->
<svg width="145pt" height="148pt"
 viewBox="0.00 0.00 145.00 148.00" xmlns="http://www.w3.org/2000/svg" xmlns:xlink="http://www.w3.org/1999/xlink">
<g id="graph0" class="graph" transform="scale(1 1) rotate(0) translate(4 144)">
<title>interficie.VistaRankingPartida</title>
<!-- Node1 -->
<g id="Node000001" class="node">
<title>Node1</title>
<g id="a_Node000001"><a xlink:title="Finestra que mostra el rànquing i el resultat final d&#39;una partida de Scrabble.">
<polygon fill="#999999" stroke="none" points="137,-52 0,-52 0,0 137,0 137,-52"/>
<text text-anchor="start" x="4" y="-38.5" font-family="Helvetica,sans-Serif" font-size="10.00">interficie.VistaRankingPartida</text>
<text text-anchor="start" x="67" y="-22.5" font-family="Helvetica,sans-Serif" font-size="10.00"> </text>
<text text-anchor="start" x="9.94" y="-6.5" font-family="Helvetica,sans-Serif" font-size="10.00">+</text>
<text text-anchor="start" x="25.88" y="-6.5" font-family="Helvetica,sans-Serif" font-size="10.00">VistaRankingPartida()</text>
<polygon fill="#666666" stroke="#666666" points="0,-34 0,-34 137,-34 137,-34 0,-34"/>
<polygon fill="#666666" stroke="#666666" points="0,-18 0,-18 137,-18 137,-18 0,-18"/>
<polygon fill="none" stroke="#666666" points="0,0 0,-52 137,-52 137,0 0,0"/>
</a>
</g>
</g>
<!-- Node2 -->
<g id="Node000002" class="node">
<title>Node2</title>
<g id="a_Node000002"><a xlink:title=" ">
<polygon fill="white" stroke="none" points="89,-140 48,-140 48,-88 89,-88 89,-140"/>
<text text-anchor="start" x="52" y="-126.5" font-family="Helvetica,sans-Serif" font-size="10.00">JFrame</text>
<text text-anchor="start" x="67" y="-110.5" font-family="Helvetica,sans-Serif" font-size="10.00"> </text>
<text text-anchor="start" x="67" y="-94.5" font-family="Helvetica,sans-Serif" font-size="10.00"> </text>
<polygon fill="#666666" stroke="#666666" points="48,-122 48,-122 89,-122 89,-122 48,-122"/>
<polygon fill="#666666" stroke="#666666" points="48,-106 48,-106 89,-106 89,-106 48,-106"/>
<polygon fill="none" stroke="#666666" points="48,-88 48,-140 89,-140 89,-88 48,-88"/>
</a>
</g>
</g>
<!-- Node2&#45;&gt;Node1 -->
<g id="edge1_Node000001_Node000002" class="edge">
<title>Node2&#45;&gt;Node1</title>
<g id="a_edge1_Node000001_Node000002"><a xlink:title=" ">
<path fill="none" stroke="#63b8ff" d="M68.5,-76.66C68.5,-68.29 68.5,-59.57 68.5,-51.82"/>
<polygon fill="none" stroke="#63b8ff" points="65,-76.61 68.5,-86.61 72,-76.61 65,-76.61"/>
</a>
</g>
</g>
</g>
</svg>
