<?xml version="1.0" encoding="UTF-8" standalone="no"?>
<!DOCTYPE svg PUBLIC "-//W3C//DTD SVG 1.1//EN"
 "http://www.w3.org/Graphics/SVG/1.1/DTD/svg11.dtd">
<!-- Generated by graphviz version 12.2.1 (20241206.2353)
 -->
<!-- Title: interficie.VistaConsultarNormes.VistaConsultarNormes Pages: 1 -->
<svg width="318pt" height="58pt"
 viewBox="0.00 0.00 318.25 58.00" xmlns="http://www.w3.org/2000/svg" xmlns:xlink="http://www.w3.org/1999/xlink">
<g id="graph0" class="graph" transform="scale(1 1) rotate(0) translate(4 54)">
<title>interficie.VistaConsultarNormes.VistaConsultarNormes</title>
<!-- Node1 -->
<g id="Node000001" class="node">
<title>Node1</title>
<g id="a_Node000001"><a xlink:title="Constructora.">
<polygon fill="#999999" stroke="#666666" points="310.25,-32 157.75,-32 157.75,0 310.25,0 310.25,-32"/>
<text text-anchor="start" x="165.75" y="-18.5" font-family="Helvetica,sans-Serif" font-size="10.00">interficie.VistaConsultar</text>
<text text-anchor="middle" x="234" y="-6.5" font-family="Helvetica,sans-Serif" font-size="10.00">Normes.VistaConsultarNormes</text>
</a>
</g>
</g>
<!-- Node1&#45;&gt;Node1 -->
<g id="edge3_Node000001_Node000001" class="edge">
<title>Node1&#45;&gt;Node1</title>
<g id="a_edge3_Node000001_Node000001"><a xlink:title=" ">
<path fill="none" stroke="#63b8ff" d="M262.85,-43.71C258.04,-47.48 248.42,-50 234,-50 207.63,-50 197.32,-41.58 203.09,-32.44"/>
<polygon fill="#63b8ff" stroke="#63b8ff" points="266.28,-44.4 264.64,-33.93 259.4,-43.14 266.28,-44.4"/>
</a>
</g>
</g>
<!-- Node2 -->
<g id="Node000002" class="node">
<title>Node2</title>
<g id="a_Node000002"><a xlink:href="$classinterficie_1_1_vista_consultar_normes.html#aa2b3d841acae7945dad388f04b002967" xlink:title="Inicialitza els components gràfics de la vista.">
<polygon fill="white" stroke="#666666" points="121.75,-32 0,-32 0,0 121.75,0 121.75,-32"/>
<text text-anchor="start" x="8" y="-18.5" font-family="Helvetica,sans-Serif" font-size="10.00">interficie.VistaConsultar</text>
<text text-anchor="middle" x="60.88" y="-6.5" font-family="Helvetica,sans-Serif" font-size="10.00">Normes.initComponents</text>
</a>
</g>
</g>
<!-- Node1&#45;&gt;Node2 -->
<g id="edge1_Node000001_Node000002" class="edge">
<title>Node1&#45;&gt;Node2</title>
<g id="a_edge1_Node000001_Node000002"><a xlink:title=" ">
<path fill="none" stroke="#63b8ff" d="M146.04,-9.25C137.96,-9.26 129.89,-9.35 122.13,-9.52"/>
<polygon fill="#63b8ff" stroke="#63b8ff" points="145.92,-12.75 155.93,-9.29 145.94,-5.75 145.92,-12.75"/>
</a>
</g>
</g>
<!-- Node2&#45;&gt;Node1 -->
<g id="edge2_Node000002_Node000001" class="edge">
<title>Node2&#45;&gt;Node1</title>
<g id="a_edge2_Node000002_Node000001"><a xlink:title=" ">
<path fill="none" stroke="#63b8ff" d="M133.55,-22.67C141.45,-22.76 149.5,-22.77 157.44,-22.71"/>
<polygon fill="#63b8ff" stroke="#63b8ff" points="133.7,-19.17 123.65,-22.51 133.59,-26.17 133.7,-19.17"/>
</a>
</g>
</g>
</g>
</svg>
