<?xml version="1.0" encoding="UTF-8" standalone="no"?>
<!DOCTYPE svg PUBLIC "-//W3C//DTD SVG 1.1//EN"
 "http://www.w3.org/Graphics/SVG/1.1/DTD/svg11.dtd">
<!-- Generated by graphviz version 12.2.1 (20241206.2353)
 -->
<!-- Title: controladors.CtrlDomini.iniciarSessioUser Pages: 1 -->
<svg width="667pt" height="234pt"
 viewBox="0.00 0.00 666.75 234.00" xmlns="http://www.w3.org/2000/svg" xmlns:xlink="http://www.w3.org/1999/xlink">
<g id="graph0" class="graph" transform="scale(1 1) rotate(0) translate(4 230)">
<title>controladors.CtrlDomini.iniciarSessioUser</title>
<!-- Node1 -->
<g id="Node000001" class="node">
<title>Node1</title>
<g id="a_Node000001"><a xlink:title="Inicia la sessio d&#39;un usuari.">
<polygon fill="#999999" stroke="#666666" points="147.25,-176 0,-176 0,-144 147.25,-144 147.25,-176"/>
<text text-anchor="start" x="8" y="-162.5" font-family="Helvetica,sans-Serif" font-size="10.00">controladors.CtrlDomini.iniciar</text>
<text text-anchor="middle" x="73.62" y="-150.5" font-family="Helvetica,sans-Serif" font-size="10.00">SessioUser</text>
</a>
</g>
</g>
<!-- Node2 -->
<g id="Node000002" class="node">
<title>Node2</title>
<g id="a_Node000002"><a xlink:href="classdomini_1_1sessio_1_1_usuari.html#ae9376c33de8cba992f2d77ff4cbd5c8e" target="_top" xlink:title="Retorna la contrasenya de l&#39;usuari.">
<polygon fill="white" stroke="#666666" points="307.25,-226 183.25,-226 183.25,-194 307.25,-194 307.25,-226"/>
<text text-anchor="start" x="191.25" y="-212.5" font-family="Helvetica,sans-Serif" font-size="10.00">domini.sessio.Usuari.get</text>
<text text-anchor="middle" x="245.25" y="-200.5" font-family="Helvetica,sans-Serif" font-size="10.00">Contrasenya</text>
</a>
</g>
</g>
<!-- Node1&#45;&gt;Node2 -->
<g id="edge1_Node000001_Node000002" class="edge">
<title>Node1&#45;&gt;Node2</title>
<g id="a_edge1_Node000001_Node000002"><a xlink:title=" ">
<path fill="none" stroke="#63b8ff" d="M130.17,-176.37C145.32,-180.84 161.89,-185.72 177.59,-190.35"/>
<polygon fill="#63b8ff" stroke="#63b8ff" points="176.26,-193.61 186.84,-193.08 178.24,-186.89 176.26,-193.61"/>
</a>
</g>
</g>
<!-- Node3 -->
<g id="Node000003" class="node">
<title>Node3</title>
<g id="a_Node000003"><a xlink:href="classdomini_1_1sessio_1_1_usuari.html#a1ab85f635a4fa35f1757dde3efcca989" target="_top" xlink:title="Retorna els jugadors que té guardats l&#39;usuari.">
<polygon fill="white" stroke="#666666" points="307.25,-176 183.25,-176 183.25,-144 307.25,-144 307.25,-176"/>
<text text-anchor="start" x="191.25" y="-162.5" font-family="Helvetica,sans-Serif" font-size="10.00">domini.sessio.Usuari.get</text>
<text text-anchor="middle" x="245.25" y="-150.5" font-family="Helvetica,sans-Serif" font-size="10.00">Jugadors</text>
</a>
</g>
</g>
<!-- Node1&#45;&gt;Node3 -->
<g id="edge2_Node000001_Node000003" class="edge">
<title>Node1&#45;&gt;Node3</title>
<g id="a_edge2_Node000001_Node000003"><a xlink:title=" ">
<path fill="none" stroke="#63b8ff" d="M147.55,-160C155.45,-160 163.49,-160 171.4,-160"/>
<polygon fill="#63b8ff" stroke="#63b8ff" points="171.33,-163.5 181.33,-160 171.33,-156.5 171.33,-163.5"/>
</a>
</g>
</g>
<!-- Node6 -->
<g id="Node000006" class="node">
<title>Node6</title>
<g id="a_Node000006"><a xlink:href="classdomini_1_1sessio_1_1_usuari.html#a63a56e633d9b9636475551b738a2fc2e" target="_top" xlink:title="Retorna les partides jugades de l&#39;usuari.">
<polygon fill="white" stroke="#666666" points="307.25,-126 183.25,-126 183.25,-94 307.25,-94 307.25,-126"/>
<text text-anchor="start" x="191.25" y="-112.5" font-family="Helvetica,sans-Serif" font-size="10.00">domini.sessio.Usuari.get</text>
<text text-anchor="middle" x="245.25" y="-100.5" font-family="Helvetica,sans-Serif" font-size="10.00">Partides</text>
</a>
</g>
</g>
<!-- Node1&#45;&gt;Node6 -->
<g id="edge5_Node000001_Node000006" class="edge">
<title>Node1&#45;&gt;Node6</title>
<g id="a_edge5_Node000001_Node000006"><a xlink:title=" ">
<path fill="none" stroke="#63b8ff" d="M130.17,-143.63C145.32,-139.16 161.89,-134.28 177.59,-129.65"/>
<polygon fill="#63b8ff" stroke="#63b8ff" points="178.24,-133.11 186.84,-126.92 176.26,-126.39 178.24,-133.11"/>
</a>
</g>
</g>
<!-- Node4 -->
<g id="Node000004" class="node">
<title>Node4</title>
<g id="a_Node000004"><a xlink:href="classdomini_1_1sessio_1_1_usuari.html#a0268a823e2a2431d8260cddc9f3b522e" target="_top" xlink:title="Retorna el nom de l&#39;usuari.">
<polygon fill="white" stroke="#666666" points="488.25,-145 343.25,-145 343.25,-125 488.25,-125 488.25,-145"/>
<text text-anchor="middle" x="415.75" y="-131.5" font-family="Helvetica,sans-Serif" font-size="10.00">domini.sessio.Usuari.getNom</text>
</a>
</g>
</g>
<!-- Node3&#45;&gt;Node4 -->
<g id="edge3_Node000003_Node000004" class="edge">
<title>Node3&#45;&gt;Node4</title>
<g id="a_edge3_Node000003_Node000004"><a xlink:title=" ">
<path fill="none" stroke="#63b8ff" d="M307.56,-150.9C315.8,-149.68 324.36,-148.41 332.89,-147.15"/>
<polygon fill="#63b8ff" stroke="#63b8ff" points="333.18,-150.64 342.56,-145.71 332.15,-143.72 333.18,-150.64"/>
</a>
</g>
</g>
<!-- Node5 -->
<g id="Node000005" class="node">
<title>Node5</title>
<g id="a_Node000005"><a xlink:href="classpersistencia_1_1_jugador_i_o.html#a106d66ddcbb5a4af122f1630f5aaad6c" target="_top" xlink:title="Carrega un jugador des d&#39;un fitxer JSON.">
<polygon fill="white" stroke="#666666" points="484.5,-195 347,-195 347,-163 484.5,-163 484.5,-195"/>
<text text-anchor="start" x="355" y="-181.5" font-family="Helvetica,sans-Serif" font-size="10.00">persistencia.JugadorIO.load</text>
<text text-anchor="middle" x="415.75" y="-169.5" font-family="Helvetica,sans-Serif" font-size="10.00">Jugador</text>
</a>
</g>
</g>
<!-- Node3&#45;&gt;Node5 -->
<g id="edge4_Node000003_Node000005" class="edge">
<title>Node3&#45;&gt;Node5</title>
<g id="a_edge4_Node000003_Node000005"><a xlink:title=" ">
<path fill="none" stroke="#63b8ff" d="M307.56,-166.91C316.59,-167.93 326,-168.99 335.33,-170.05"/>
<polygon fill="#63b8ff" stroke="#63b8ff" points="334.81,-173.51 345.14,-171.15 335.6,-166.55 334.81,-173.51"/>
</a>
</g>
</g>
<!-- Node6&#45;&gt;Node4 -->
<g id="edge6_Node000006_Node000004" class="edge">
<title>Node6&#45;&gt;Node4</title>
<g id="a_edge6_Node000006_Node000004"><a xlink:title=" ">
<path fill="none" stroke="#63b8ff" d="M307.56,-119.1C315.8,-120.32 324.36,-121.59 332.89,-122.85"/>
<polygon fill="#63b8ff" stroke="#63b8ff" points="332.15,-126.28 342.56,-124.29 333.18,-119.36 332.15,-126.28"/>
</a>
</g>
</g>
<!-- Node7 -->
<g id="Node000007" class="node">
<title>Node7</title>
<g id="a_Node000007"><a xlink:href="classpersistencia_1_1_partida_i_o.html#a7b9bdae6d9736a012e584b268b0bcb86" target="_top" xlink:title="Carrega una partida des d&#39;un fitxer JSON.">
<polygon fill="white" stroke="#666666" points="482.62,-107 348.88,-107 348.88,-75 482.62,-75 482.62,-107"/>
<text text-anchor="start" x="356.88" y="-93.5" font-family="Helvetica,sans-Serif" font-size="10.00">persistencia.PartidaIO.load</text>
<text text-anchor="middle" x="415.75" y="-81.5" font-family="Helvetica,sans-Serif" font-size="10.00">Partida</text>
</a>
</g>
</g>
<!-- Node6&#45;&gt;Node7 -->
<g id="edge7_Node000006_Node000007" class="edge">
<title>Node6&#45;&gt;Node7</title>
<g id="a_edge7_Node000006_Node000007"><a xlink:title=" ">
<path fill="none" stroke="#63b8ff" d="M307.56,-103.09C317.27,-101.99 327.42,-100.85 337.43,-99.72"/>
<polygon fill="#63b8ff" stroke="#63b8ff" points="337.61,-103.22 347.15,-98.62 336.82,-96.27 337.61,-103.22"/>
</a>
</g>
</g>
<!-- Node8 -->
<g id="Node000008" class="node">
<title>Node8</title>
<g id="a_Node000008"><a xlink:href="classdomini_1_1scrabble_1_1_partida.html#a02bdb9c41da95458503bb9d1967ea9e8" target="_top" xlink:title="Retorna la instància de la bossa.">
<polygon fill="white" stroke="#666666" points="658.75,-182 524.25,-182 524.25,-150 658.75,-150 658.75,-182"/>
<text text-anchor="start" x="532.25" y="-168.5" font-family="Helvetica,sans-Serif" font-size="10.00">domini.scrabble.Partida.get</text>
<text text-anchor="middle" x="591.5" y="-156.5" font-family="Helvetica,sans-Serif" font-size="10.00">Bossa</text>
</a>
</g>
</g>
<!-- Node7&#45;&gt;Node8 -->
<g id="edge8_Node000007_Node000008" class="edge">
<title>Node7&#45;&gt;Node8</title>
<g id="a_edge8_Node000007_Node000008"><a xlink:title=" ">
<path fill="none" stroke="#63b8ff" d="M468.99,-107.41C475.59,-110.02 482.16,-112.89 488.25,-116 505.6,-124.85 507.01,-131.94 524.25,-141 526.91,-142.4 529.67,-143.76 532.48,-145.08"/>
<polygon fill="#63b8ff" stroke="#63b8ff" points="530.88,-148.19 541.44,-149.03 533.7,-141.79 530.88,-148.19"/>
</a>
</g>
</g>
<!-- Node9 -->
<g id="Node000009" class="node">
<title>Node9</title>
<g id="a_Node000009"><a xlink:href="classdomini_1_1scrabble_1_1_partida.html#a719791835f1334957e59dcfe4d2a4cec" target="_top" xlink:title="Retorna l&#39;estat actual de la partida.">
<polygon fill="white" stroke="#666666" points="658.75,-132 524.25,-132 524.25,-100 658.75,-100 658.75,-132"/>
<text text-anchor="start" x="532.25" y="-118.5" font-family="Helvetica,sans-Serif" font-size="10.00">domini.scrabble.Partida.get</text>
<text text-anchor="middle" x="591.5" y="-106.5" font-family="Helvetica,sans-Serif" font-size="10.00">Estat</text>
</a>
</g>
</g>
<!-- Node7&#45;&gt;Node9 -->
<g id="edge9_Node000007_Node000009" class="edge">
<title>Node7&#45;&gt;Node9</title>
<g id="a_edge9_Node000007_Node000009"><a xlink:title=" ">
<path fill="none" stroke="#63b8ff" d="M482.93,-100.52C492.69,-101.93 502.81,-103.38 512.77,-104.82"/>
<polygon fill="#63b8ff" stroke="#63b8ff" points="512.03,-108.25 522.43,-106.21 513.03,-101.32 512.03,-108.25"/>
</a>
</g>
</g>
<!-- Node10 -->
<g id="Node000010" class="node">
<title>Node10</title>
<g id="a_Node000010"><a xlink:href="classdomini_1_1scrabble_1_1_bossa.html#aa72b114802328935e32718821a3322ce" target="_top" xlink:title="Obté les fitxes de la bossa.">
<polygon fill="white" stroke="#666666" points="657.25,-82 525.75,-82 525.75,-50 657.25,-50 657.25,-82"/>
<text text-anchor="start" x="533.75" y="-68.5" font-family="Helvetica,sans-Serif" font-size="10.00">domini.scrabble.Bossa.get</text>
<text text-anchor="middle" x="591.5" y="-56.5" font-family="Helvetica,sans-Serif" font-size="10.00">Fitxes</text>
</a>
</g>
</g>
<!-- Node7&#45;&gt;Node10 -->
<g id="edge10_Node000007_Node000010" class="edge">
<title>Node7&#45;&gt;Node10</title>
<g id="a_edge10_Node000007_Node000010"><a xlink:title=" ">
<path fill="none" stroke="#63b8ff" d="M482.93,-81.48C493.15,-80.01 503.76,-78.48 514.17,-76.98"/>
<polygon fill="#63b8ff" stroke="#63b8ff" points="514.46,-80.48 523.86,-75.59 513.47,-73.55 514.46,-80.48"/>
</a>
</g>
</g>
<!-- Node11 -->
<g id="Node000011" class="node">
<title>Node11</title>
<g id="a_Node000011"><a xlink:href="classdomini_1_1scrabble_1_1_estat.html#acb727a684104d60ab770231bebdcc9c6" target="_top" xlink:title="Mètode que assigna la partida del paràmetre a l&#39;estat.">
<polygon fill="white" stroke="#666666" points="655,-32 528,-32 528,0 655,0 655,-32"/>
<text text-anchor="start" x="536" y="-18.5" font-family="Helvetica,sans-Serif" font-size="10.00">domini.scrabble.Estat.set</text>
<text text-anchor="middle" x="591.5" y="-6.5" font-family="Helvetica,sans-Serif" font-size="10.00">Partida</text>
</a>
</g>
</g>
<!-- Node7&#45;&gt;Node11 -->
<g id="edge11_Node000007_Node000011" class="edge">
<title>Node7&#45;&gt;Node11</title>
<g id="a_edge11_Node000007_Node000011"><a xlink:title=" ">
<path fill="none" stroke="#63b8ff" d="M450.35,-74.59C471.41,-64.5 499.2,-51.53 524.25,-41 527.65,-39.57 531.16,-38.13 534.71,-36.71"/>
<polygon fill="#63b8ff" stroke="#63b8ff" points="535.99,-39.97 544.01,-33.05 533.42,-33.45 535.99,-39.97"/>
</a>
</g>
</g>
</g>
</svg>
