<?xml version="1.0" encoding="UTF-8" standalone="no"?>
<!DOCTYPE svg PUBLIC "-//W3C//DTD SVG 1.1//EN"
 "http://www.w3.org/Graphics/SVG/1.1/DTD/svg11.dtd">
<!-- Generated by graphviz version 12.2.1 (20241206.2353)
 -->
<!-- Title: domini.jugadors.Maquina.searchBestWord Pages: 1 -->
<!--zoomable 1369 -->

<svg id="main" version="1.1" xmlns="http://www.w3.org/2000/svg" xmlns:xlink="http://www.w3.org/1999/xlink" xml:space="preserve" onload="init(evt)">

<style type="text/css"><![CDATA[
.node, .edge {opacity: 0.7;}
.node.selected, .edge.selected {opacity: 1;}
.edge:hover path { stroke: red; }
.edge:hover polygon { stroke: red; fill: red; }
]]></style>

<defs>
  <circle id="rim" cx="0" cy="0" r="7"/>
  <circle id="rim2" cx="0" cy="0" r="3.5"/>
  <g id="zoomPlus">
    <use xlink:href="#rim" fill="#404040"><set attributeName="fill" to="#808080" begin="zoomplus.mouseover" end="zoomplus.mouseout"/></use>
    <path d="M-4,0h8M0,-4v8" fill="none" stroke="white" stroke-width="1.5" pointer-events="none"/>
  </g>
  <g id="zoomMin">
    <use xlink:href="#rim" fill="#404040"><set attributeName="fill" to="#808080" begin="zoomminus.mouseover" end="zoomminus.mouseout"/></use>
    <path d="M-4,0h8" fill="none" stroke="white" stroke-width="1.5" pointer-events="none"/>
  </g>
  <g id="arrowUp" transform="translate(30 24)">
    <use xlink:href="#rim"/>
    <path pointer-events="none" fill="none" stroke="white" stroke-width="1.5" d="M0,-3.0v7 M-2.5,-0.5L0,-3.0L2.5,-0.5"/>
  </g>
  <g id="arrowRight" transform="rotate(90) translate(36 -43)">
    <use xlink:href="#rim"/>
    <path pointer-events="none" fill="none" stroke="white" stroke-width="1.5" d="M0,-3.0v7 M-2.5,-0.5L0,-3.0L2.5,-0.5"/>
  </g>
  <g id="arrowDown" transform="rotate(180) translate(-30 -48)">
    <use xlink:href="#rim"/>
    <path pointer-events="none" fill="none" stroke="white" stroke-width="1.5" d="M0,-3.0v7 M-2.5,-0.5L0,-3.0L2.5,-0.5"/>
  </g>
  <g id="arrowLeft" transform="rotate(270) translate(-36 17)">
    <use xlink:href="#rim"/>
    <path pointer-events="none" fill="none" stroke="white" stroke-width="1.5" d="M0,-3.0v7 M-2.5,-0.5L0,-3.0L2.5,-0.5"/>
  </g>
  <g id="resetDef">
    <use xlink:href="#rim2" fill="#404040"><set attributeName="fill" to="#808080" begin="reset.mouseover" end="reset.mouseout"/></use>
  </g>
</defs>
<script type="application/ecmascript">
var viewWidth = 1344;
var viewHeight = 1369;
var sectionId = 'dynsection-11';
</script>
<script type="application/ecmascript" xlink:href="svg.min.js"/>
<svg id="graph" class="graph">
<g id="viewport">
<title>domini.jugadors.Maquina.searchBestWord</title>
<!-- Node1 -->
<g id="Node000001" class="node">
<title>Node1</title>
<g id="a_Node000001"><a xlink:title="Busca la millor paraula en una direcció específica (horitzontal o vertical).">
<polygon fill="#999999" stroke="#666666" points="156.25,-515 0,-515 0,-483 156.25,-483 156.25,-515"/>
<text text-anchor="start" x="8" y="-501.5" font-family="Helvetica,sans-Serif" font-size="10.00">domini.jugadors.Maquina.search</text>
<text text-anchor="middle" x="78.12" y="-489.5" font-family="Helvetica,sans-Serif" font-size="10.00">BestWord</text>
</a>
</g>
</g>
<!-- Node2 -->
<g id="Node000002" class="node">
<title>Node2</title>
<g id="a_Node000002"><a xlink:href="classdomini_1_1scrabble_1_1_casella.html#a45ad0a3aaeacf1bc4896a7a99c068dd3" target="_top" xlink:title="Comprova si la casella està ocupada per una fitxa.">
<polygon fill="white" stroke="#666666" points="938.75,-1266 815.5,-1266 815.5,-1234 938.75,-1234 938.75,-1266"/>
<text text-anchor="start" x="823.5" y="-1252.5" font-family="Helvetica,sans-Serif" font-size="10.00">domini.scrabble.Casella.</text>
<text text-anchor="middle" x="877.12" y="-1240.5" font-family="Helvetica,sans-Serif" font-size="10.00">EstaOcupat</text>
</a>
</g>
</g>
<!-- Node1&#45;&gt;Node2 -->
<g id="edge1_Node000001_Node000002" class="edge">
<title>Node1&#45;&gt;Node2</title>
<g id="a_edge1_Node000001_Node000002"><a xlink:title=" ">
<path fill="none" stroke="#63b8ff" d="M80.78,-515.44C87.24,-574.23 114.37,-778.35 192.25,-925 261.1,-1054.65 288.99,-1089.82 409.25,-1174 484.26,-1226.5 511.55,-1230.95 601.5,-1248 669.32,-1260.86 748.26,-1259.81 804.06,-1256.48"/>
<polygon fill="#63b8ff" stroke="#63b8ff" points="803.98,-1259.99 813.74,-1255.86 803.54,-1253 803.98,-1259.99"/>
</a>
</g>
</g>
<!-- Node3 -->
<g id="Node000003" class="node">
<title>Node3</title>
<g id="a_Node000003"><a xlink:href="classdomini_1_1jugadors_1_1_maquina.html#a408520f7aa4d96099ecfa1bae76728b5" target="_top" xlink:title="Genera totes les subparaules prefix possibles cap a l&#39;esquerra d&#39;una casella anchor.">
<polygon fill="white" stroke="#666666" points="373.25,-898 192.25,-898 192.25,-878 373.25,-878 373.25,-898"/>
<text text-anchor="middle" x="282.75" y="-884.5" font-family="Helvetica,sans-Serif" font-size="10.00">domini.jugadors.Maquina.generateLeft</text>
</a>
</g>
</g>
<!-- Node1&#45;&gt;Node3 -->
<g id="edge2_Node000001_Node000003" class="edge">
<title>Node1&#45;&gt;Node3</title>
<g id="a_edge2_Node000001_Node000003"><a xlink:title=" ">
<path fill="none" stroke="#63b8ff" d="M87.57,-515.22C119.86,-577.19 235.39,-799 271.13,-867.62"/>
<polygon fill="#63b8ff" stroke="#63b8ff" points="267.91,-869.01 275.63,-876.26 274.12,-865.77 267.91,-869.01"/>
</a>
</g>
</g>
<!-- Node5 -->
<g id="Node000005" class="node">
<title>Node5</title>
<g id="a_Node000005"><a xlink:href="classdomini_1_1scrabble_1_1_taulell.html#a5be7b0143cecbce3e2f4dc4f53814879" target="_top" xlink:title="Donades unes coordenades, retorna la Casella que es troba en aquelles coordenades.">
<polygon fill="white" stroke="#666666" points="1143.38,-1134 1011.88,-1134 1011.88,-1102 1143.38,-1102 1143.38,-1134"/>
<text text-anchor="start" x="1019.88" y="-1120.5" font-family="Helvetica,sans-Serif" font-size="10.00">domini.scrabble.Taulell.get</text>
<text text-anchor="middle" x="1077.62" y="-1108.5" font-family="Helvetica,sans-Serif" font-size="10.00">Casella</text>
</a>
</g>
</g>
<!-- Node1&#45;&gt;Node5 -->
<g id="edge56_Node000001_Node000005" class="edge">
<title>Node1&#45;&gt;Node5</title>
<g id="a_edge56_Node000001_Node000005"><a xlink:title=" ">
<path fill="none" stroke="#63b8ff" d="M79.07,-515.39C79.57,-634.15 98.52,-1358 486.38,-1358 486.38,-1358 486.38,-1358 680.62,-1358 807.14,-1358 856.12,-1377.5 960.5,-1306 1018.65,-1266.17 1053.15,-1186.68 1067.99,-1144.97"/>
<polygon fill="#63b8ff" stroke="#63b8ff" points="1071.23,-1146.3 1071.17,-1135.7 1064.61,-1144.03 1071.23,-1146.3"/>
</a>
</g>
</g>
<!-- Node6 -->
<g id="Node000006" class="node">
<title>Node6</title>
<g id="a_Node000006"><a xlink:href="classdomini_1_1scrabble_1_1_taulell.html#afc2d8dcd225b683aa00af9ce2075ad79" target="_top" xlink:title=" ">
<polygon fill="white" stroke="#666666" points="1336,-479 1194.75,-479 1194.75,-459 1336,-459 1336,-479"/>
<text text-anchor="middle" x="1265.38" y="-465.5" font-family="Helvetica,sans-Serif" font-size="10.00">domini.scrabble.Taulell.limits</text>
</a>
</g>
</g>
<!-- Node1&#45;&gt;Node6 -->
<g id="edge58_Node000001_Node000006" class="edge">
<title>Node1&#45;&gt;Node6</title>
<g id="a_edge58_Node000001_Node000006"><a xlink:title=" ">
<path fill="none" stroke="#63b8ff" d="M86.14,-482.78C119.16,-409.16 266.87,-110 486.38,-110 486.38,-110 486.38,-110 878.12,-110 1003.76,-110 1061.74,-64.17 1158.75,-144 1254.14,-222.5 1264.23,-388.31 1264.68,-447.47"/>
<polygon fill="#63b8ff" stroke="#63b8ff" points="1261.18,-447.17 1264.65,-457.18 1268.18,-447.19 1261.18,-447.17"/>
</a>
</g>
</g>
<!-- Node26 -->
<g id="Node000026" class="node">
<title>Node26</title>
<g id="a_Node000026"><a xlink:href="classdomini_1_1scrabble_1_1_taulell.html#ad10763e1db2abab4a552e5d99b693db7" target="_top" xlink:title="Retorna un Set amb les coordenades de les caselles que son anchors.">
<polygon fill="white" stroke="#666666" points="348.5,-82 217,-82 217,-50 348.5,-50 348.5,-82"/>
<text text-anchor="start" x="225" y="-68.5" font-family="Helvetica,sans-Serif" font-size="10.00">domini.scrabble.Taulell.get</text>
<text text-anchor="middle" x="282.75" y="-56.5" font-family="Helvetica,sans-Serif" font-size="10.00">Anchors</text>
</a>
</g>
</g>
<!-- Node1&#45;&gt;Node26 -->
<g id="edge52_Node000001_Node000026" class="edge">
<title>Node1&#45;&gt;Node26</title>
<g id="a_edge52_Node000001_Node000026"><a xlink:title=" ">
<path fill="none" stroke="#63b8ff" d="M78.64,-482.58C77.8,-422.31 83.05,-210.77 192.25,-96 196.49,-91.55 201.4,-87.76 206.71,-84.53"/>
<polygon fill="#63b8ff" stroke="#63b8ff" points="208.06,-87.77 215.27,-80.01 204.8,-81.58 208.06,-87.77"/>
</a>
</g>
</g>
<!-- Node29 -->
<g id="Node000029" class="node">
<title>Node29</title>
<g id="a_Node000029"><a xlink:href="classdomini_1_1scrabble_1_1_casella.html#a1ed8e8ca20184dfafc007cf7b85a9e4e" target="_top" xlink:title="Mètode que indica si la casella es anchor.">
<polygon fill="white" stroke="#666666" points="348.12,-32 217.38,-32 217.38,0 348.12,0 348.12,-32"/>
<text text-anchor="start" x="225.38" y="-18.5" font-family="Helvetica,sans-Serif" font-size="10.00">domini.scrabble.Casella.is</text>
<text text-anchor="middle" x="282.75" y="-6.5" font-family="Helvetica,sans-Serif" font-size="10.00">Anchor</text>
</a>
</g>
</g>
<!-- Node1&#45;&gt;Node29 -->
<g id="edge57_Node000001_Node000029" class="edge">
<title>Node1&#45;&gt;Node29</title>
<g id="a_edge57_Node000001_Node000029"><a xlink:title=" ">
<path fill="none" stroke="#63b8ff" d="M80.93,-482.9C89.5,-409.46 128.23,-106.98 192.25,-41 196.53,-36.59 201.53,-32.93 206.92,-29.91"/>
<polygon fill="#63b8ff" stroke="#63b8ff" points="208.1,-33.22 215.63,-25.77 205.1,-26.9 208.1,-33.22"/>
</a>
</g>
</g>
<!-- Node3&#45;&gt;Node2 -->
<g id="edge3_Node000003_Node000002" class="edge">
<title>Node3&#45;&gt;Node2</title>
<g id="a_edge3_Node000003_Node000002"><a xlink:title=" ">
<path fill="none" stroke="#63b8ff" d="M287.16,-898.18C299.04,-932.28 341.52,-1044.19 409.25,-1112 478.51,-1181.34 508.18,-1190.07 601.5,-1220 667.94,-1241.31 747.55,-1248.09 803.91,-1249.97"/>
<polygon fill="#63b8ff" stroke="#63b8ff" points="803.61,-1253.46 813.71,-1250.25 803.81,-1246.46 803.61,-1253.46"/>
</a>
</g>
</g>
<!-- Node3&#45;&gt;Node3 -->
<g id="edge43_Node000003_Node000003" class="edge">
<title>Node3&#45;&gt;Node3</title>
<g id="a_edge43_Node000003_Node000003"><a xlink:title=" ">
<path fill="none" stroke="#63b8ff" d="M250.24,-898.34C236.34,-906.98 247.18,-916 282.75,-916 302.76,-916 314.94,-913.14 319.3,-909.11"/>
<polygon fill="#63b8ff" stroke="#63b8ff" points="322.58,-907.89 315.79,-899.76 316.02,-910.35 322.58,-907.89"/>
</a>
</g>
</g>
<!-- Node4 -->
<g id="Node000004" class="node">
<title>Node4</title>
<g id="a_Node000004"><a xlink:href="classdomini_1_1jugadors_1_1_maquina.html#a28fa4d863085aaaba920b95a47bf14b7" target="_top" xlink:title="Genera totes les paraules possibles a la dreta d&#39;una subparaula prefix.">
<polygon fill="white" stroke="#666666" points="565.5,-904 409.25,-904 409.25,-872 565.5,-872 565.5,-904"/>
<text text-anchor="start" x="417.25" y="-890.5" font-family="Helvetica,sans-Serif" font-size="10.00">domini.jugadors.Maquina.extend</text>
<text text-anchor="middle" x="487.38" y="-878.5" font-family="Helvetica,sans-Serif" font-size="10.00">Right</text>
</a>
</g>
</g>
<!-- Node3&#45;&gt;Node4 -->
<g id="edge4_Node000003_Node000004" class="edge">
<title>Node3&#45;&gt;Node4</title>
<g id="a_edge4_Node000003_Node000004"><a xlink:title=" ">
<path fill="none" stroke="#63b8ff" d="M373.51,-888C381.57,-888 389.72,-888 397.77,-888"/>
<polygon fill="#63b8ff" stroke="#63b8ff" points="397.54,-891.5 407.54,-888 397.54,-884.5 397.54,-891.5"/>
</a>
</g>
</g>
<!-- Node3&#45;&gt;Node5 -->
<g id="edge44_Node000003_Node000005" class="edge">
<title>Node3&#45;&gt;Node5</title>
<g id="a_edge44_Node000003_Node000005"><a xlink:title=" ">
<path fill="none" stroke="#63b8ff" d="M285.38,-898.49C292.3,-939.61 322.98,-1091.61 409.25,-1174 475.46,-1237.23 512.87,-1225.04 601.5,-1248 756.39,-1288.13 817.63,-1347.03 960.5,-1275 1014.55,-1247.75 1049.69,-1182.15 1066.01,-1144.94"/>
<polygon fill="#63b8ff" stroke="#63b8ff" points="1069.21,-1146.35 1069.88,-1135.78 1062.76,-1143.63 1069.21,-1146.35"/>
</a>
</g>
</g>
<!-- Node3&#45;&gt;Node6 -->
<g id="edge50_Node000003_Node000006" class="edge">
<title>Node3&#45;&gt;Node6</title>
<g id="a_edge50_Node000003_Node000006"><a xlink:title=" ">
<path fill="none" stroke="#63b8ff" d="M283.96,-877.55C285.81,-797.34 301.84,-280.09 409.25,-179 497.01,-96.41 558.11,-148 678.62,-148 678.62,-148 678.62,-148 878.12,-148 1006.46,-148 1061.14,-132.69 1158.75,-216 1231.37,-277.98 1255.03,-398.15 1261.88,-447.27"/>
<polygon fill="#63b8ff" stroke="#63b8ff" points="1258.4,-447.67 1263.14,-457.15 1265.34,-446.79 1258.4,-447.67"/>
</a>
</g>
</g>
<!-- Node7 -->
<g id="Node000007" class="node">
<title>Node7</title>
<g id="a_Node000007"><a xlink:href="classdomini_1_1diccionari_1_1_d_a_w_g.html#a5dca3044f48dcdb2aa2edc08f8554f19" target="_top" xlink:title="Donat un Node del DAWG, retorna el conjunt de lletres amb arista sortint.">
<polygon fill="white" stroke="#666666" points="749.12,-1090 610.12,-1090 610.12,-1058 749.12,-1058 749.12,-1090"/>
<text text-anchor="start" x="618.12" y="-1076.5" font-family="Helvetica,sans-Serif" font-size="10.00">domini.diccionari.DAWG.get</text>
<text text-anchor="middle" x="679.62" y="-1064.5" font-family="Helvetica,sans-Serif" font-size="10.00">EdgesFromNode</text>
</a>
</g>
</g>
<!-- Node3&#45;&gt;Node7 -->
<g id="edge45_Node000003_Node000007" class="edge">
<title>Node3&#45;&gt;Node7</title>
<g id="a_edge45_Node000003_Node000007"><a xlink:title=" ">
<path fill="none" stroke="#63b8ff" d="M303.55,-898.46C353.09,-924.47 486.71,-993.6 601.5,-1044 608.65,-1047.14 616.25,-1050.3 623.77,-1053.33"/>
<polygon fill="#63b8ff" stroke="#63b8ff" points="622.32,-1056.52 632.9,-1056.95 624.9,-1050.01 622.32,-1056.52"/>
</a>
</g>
</g>
<!-- Node8 -->
<g id="Node000008" class="node">
<title>Node8</title>
<g id="a_Node000008"><a xlink:href="classdomini_1_1auxiliars_1_1_pair.html#af9fc7c6b0fb531c4b59cdb1048897164" target="_top" xlink:title="Obté el primer element de la parella.">
<polygon fill="white" stroke="#666666" points="1137.75,-806 1017.5,-806 1017.5,-774 1137.75,-774 1137.75,-806"/>
<text text-anchor="start" x="1025.5" y="-792.5" font-family="Helvetica,sans-Serif" font-size="10.00">domini.auxiliars.Pair.get</text>
<text text-anchor="middle" x="1077.62" y="-780.5" font-family="Helvetica,sans-Serif" font-size="10.00">First</text>
</a>
</g>
</g>
<!-- Node3&#45;&gt;Node8 -->
<g id="edge46_Node000003_Node000008" class="edge">
<title>Node3&#45;&gt;Node8</title>
<g id="a_edge46_Node000003_Node000008"><a xlink:title=" ">
<path fill="none" stroke="#63b8ff" d="M333.42,-877.55C356.44,-872.85 384.19,-867.38 409.25,-863 579.49,-833.22 621.81,-822.49 793.75,-805 865.73,-797.68 948.4,-793.82 1005.7,-791.86"/>
<polygon fill="#63b8ff" stroke="#63b8ff" points="1005.78,-795.36 1015.66,-791.53 1005.55,-788.36 1005.78,-795.36"/>
</a>
</g>
</g>
<!-- Node9 -->
<g id="Node000009" class="node">
<title>Node9</title>
<g id="a_Node000009"><a xlink:href="classdomini_1_1scrabble_1_1_casella.html#ad6fa4e60f906cde260a175354e4fda22" target="_top" xlink:title="Retorna la fitxa de la casella.">
<polygon fill="white" stroke="#666666" points="945.5,-1090 808.75,-1090 808.75,-1058 945.5,-1058 945.5,-1090"/>
<text text-anchor="start" x="816.75" y="-1076.5" font-family="Helvetica,sans-Serif" font-size="10.00">domini.scrabble.Casella.get</text>
<text text-anchor="middle" x="877.12" y="-1064.5" font-family="Helvetica,sans-Serif" font-size="10.00">Fitxa</text>
</a>
</g>
</g>
<!-- Node3&#45;&gt;Node9 -->
<g id="edge47_Node000003_Node000009" class="edge">
<title>Node3&#45;&gt;Node9</title>
<g id="a_edge47_Node000003_Node000009"><a xlink:title=" ">
<path fill="none" stroke="#63b8ff" d="M289.14,-898.5C304.4,-927.31 350.58,-1008.66 409.25,-1057 482.35,-1117.24 509.12,-1128.04 601.5,-1149 669.22,-1164.37 691.06,-1168.35 757.75,-1149 792.25,-1138.99 826.33,-1115.58 849,-1097.55"/>
<polygon fill="#63b8ff" stroke="#63b8ff" points="850.99,-1100.45 856.52,-1091.41 846.56,-1095.03 850.99,-1100.45"/>
</a>
</g>
</g>
<!-- Node11 -->
<g id="Node000011" class="node">
<title>Node11</title>
<g id="a_Node000011"><a xlink:href="classdomini_1_1diccionari_1_1_d_a_w_g.html#ac58883549907777cdc59927351d3cbaa" target="_top" xlink:title="Donats un node i una lletra, retorna el node destí de la transició o &#45;1 en cas que no existeixi.">
<polygon fill="white" stroke="#666666" points="749.12,-246 610.12,-246 610.12,-214 749.12,-214 749.12,-246"/>
<text text-anchor="start" x="618.12" y="-232.5" font-family="Helvetica,sans-Serif" font-size="10.00">domini.diccionari.DAWG.get</text>
<text text-anchor="middle" x="679.62" y="-220.5" font-family="Helvetica,sans-Serif" font-size="10.00">NodeFromTransition</text>
</a>
</g>
</g>
<!-- Node3&#45;&gt;Node11 -->
<g id="edge48_Node000003_Node000011" class="edge">
<title>Node3&#45;&gt;Node11</title>
<g id="a_edge48_Node000003_Node000011"><a xlink:title=" ">
<path fill="none" stroke="#63b8ff" d="M285.97,-877.92C300.78,-813.04 391.07,-450.86 601.5,-260 604.76,-257.04 608.34,-254.37 612.12,-251.94"/>
<polygon fill="#63b8ff" stroke="#63b8ff" points="613.57,-255.14 620.55,-247.17 610.13,-249.05 613.57,-255.14"/>
</a>
</g>
</g>
<!-- Node12 -->
<g id="Node000012" class="node">
<title>Node12</title>
<g id="a_Node000012"><a xlink:href="classdomini_1_1auxiliars_1_1_pair.html#af70cd15a3a6fe17c25fbae3a08955565" target="_top" xlink:title="Obté el segon element de la parella.">
<polygon fill="white" stroke="#666666" points="1137.75,-316 1017.5,-316 1017.5,-284 1137.75,-284 1137.75,-316"/>
<text text-anchor="start" x="1025.5" y="-302.5" font-family="Helvetica,sans-Serif" font-size="10.00">domini.auxiliars.Pair.get</text>
<text text-anchor="middle" x="1077.62" y="-290.5" font-family="Helvetica,sans-Serif" font-size="10.00">Second</text>
</a>
</g>
</g>
<!-- Node3&#45;&gt;Node12 -->
<g id="edge49_Node000003_Node000012" class="edge">
<title>Node3&#45;&gt;Node12</title>
<g id="a_edge49_Node000003_Node000012"><a xlink:title=" ">
<path fill="none" stroke="#63b8ff" d="M284.68,-877.77C291.29,-807.2 333.03,-392.44 409.25,-296 561.69,-103.11 726.56,-174.42 960.5,-250 984.98,-257.91 1011.38,-269.06 1032.82,-278.82"/>
<polygon fill="#63b8ff" stroke="#63b8ff" points="1031.31,-281.97 1041.85,-282.99 1034.24,-275.62 1031.31,-281.97"/>
</a>
</g>
</g>
<!-- Node13 -->
<g id="Node000013" class="node">
<title>Node13</title>
<g id="a_Node000013"><a xlink:href="classdomini_1_1jugadors_1_1_maquina.html#a7d1379b7a857632d4bdcad6af82ef281" target="_top" xlink:title="Busca la posició d&#39;una lletra en el rack de la màquina.">
<polygon fill="white" stroke="#666666" points="752.5,-1140 606.75,-1140 606.75,-1108 752.5,-1108 752.5,-1140"/>
<text text-anchor="start" x="614.75" y="-1126.5" font-family="Helvetica,sans-Serif" font-size="10.00">domini.jugadors.Maquina.rack</text>
<text text-anchor="middle" x="679.62" y="-1114.5" font-family="Helvetica,sans-Serif" font-size="10.00">ContainsLetter</text>
</a>
</g>
</g>
<!-- Node3&#45;&gt;Node13 -->
<g id="edge51_Node000003_Node000013" class="edge">
<title>Node3&#45;&gt;Node13</title>
<g id="a_edge51_Node000003_Node000013"><a xlink:title=" ">
<path fill="none" stroke="#63b8ff" d="M293.03,-898.25C312.82,-919.69 361.28,-970.01 409.25,-1003 487.94,-1057.12 513.1,-1062.84 601.5,-1099 605.49,-1100.63 609.63,-1102.23 613.82,-1103.78"/>
<polygon fill="#63b8ff" stroke="#63b8ff" points="612.3,-1106.95 622.89,-1107.02 614.65,-1100.36 612.3,-1106.95"/>
</a>
</g>
</g>
<!-- Node4&#45;&gt;Node2 -->
<g id="edge5_Node000004_Node000002" class="edge">
<title>Node4&#45;&gt;Node2</title>
<g id="a_edge5_Node000004_Node000002"><a xlink:title=" ">
<path fill="none" stroke="#63b8ff" d="M512.67,-904.39C528.78,-915.97 549.76,-932.5 565.5,-950 585.29,-972 577.66,-988.47 601.5,-1006 659.53,-1048.67 703.37,-1001.78 757.75,-1049 788.11,-1075.36 774.14,-1096.89 793.75,-1132 812.49,-1165.55 838.45,-1201.38 856.18,-1224.64"/>
<polygon fill="#63b8ff" stroke="#63b8ff" points="853.21,-1226.51 862.08,-1232.3 858.75,-1222.24 853.21,-1226.51"/>
</a>
</g>
</g>
<!-- Node4&#45;&gt;Node4 -->
<g id="edge6_Node000004_Node000004" class="edge">
<title>Node4&#45;&gt;Node4</title>
<g id="a_edge6_Node000004_Node000004"><a xlink:title=" ">
<path fill="none" stroke="#63b8ff" d="M453.05,-904.44C446.65,-913.58 458.09,-922 487.38,-922 503.39,-922 514.07,-919.48 519.41,-915.71"/>
<polygon fill="#63b8ff" stroke="#63b8ff" points="522.84,-916.42 521.4,-905.93 515.98,-915.03 522.84,-916.42"/>
</a>
</g>
</g>
<!-- Node4&#45;&gt;Node5 -->
<g id="edge7_Node000004_Node000005" class="edge">
<title>Node4&#45;&gt;Node5</title>
<g id="a_edge7_Node000004_Node000005"><a xlink:title=" ">
<path fill="none" stroke="#63b8ff" d="M508.44,-904.29C535.31,-925.82 581.88,-962.08 601.5,-971 666.29,-1000.45 703.82,-959.56 757.75,-1006 791.34,-1034.92 758.05,-1072.74 793.75,-1099 852.72,-1142.38 938.66,-1141.77 1000.32,-1133.64"/>
<polygon fill="#63b8ff" stroke="#63b8ff" points="1000.64,-1137.13 1010.04,-1132.25 999.65,-1130.2 1000.64,-1137.13"/>
</a>
</g>
</g>
<!-- Node4&#45;&gt;Node6 -->
<g id="edge15_Node000004_Node000006" class="edge">
<title>Node4&#45;&gt;Node6</title>
<g id="a_edge15_Node000004_Node000006"><a xlink:title=" ">
<path fill="none" stroke="#63b8ff" d="M491.01,-871.71C506.03,-779.06 581.06,-321.8 601.5,-300 616.6,-283.9 771.86,-252.8 793.75,-250 955.04,-229.37 1024.44,-183.35 1158.75,-275 1220.18,-316.92 1249.16,-406.67 1259.59,-447.71"/>
<polygon fill="#63b8ff" stroke="#63b8ff" points="1256.16,-448.41 1261.9,-457.31 1262.97,-446.77 1256.16,-448.41"/>
</a>
</g>
</g>
<!-- Node4&#45;&gt;Node7 -->
<g id="edge9_Node000004_Node000007" class="edge">
<title>Node4&#45;&gt;Node7</title>
<g id="a_edge9_Node000004_Node000007"><a xlink:title=" ">
<path fill="none" stroke="#63b8ff" d="M499.38,-904.24C525.11,-942.07 588.09,-1033.65 601.5,-1044 605.51,-1047.1 609.88,-1049.91 614.43,-1052.45"/>
<polygon fill="#63b8ff" stroke="#63b8ff" points="612.78,-1055.54 623.28,-1056.93 615.94,-1049.29 612.78,-1055.54"/>
</a>
</g>
</g>
<!-- Node4&#45;&gt;Node8 -->
<g id="edge10_Node000004_Node000008" class="edge">
<title>Node4&#45;&gt;Node8</title>
<g id="a_edge10_Node000004_Node000008"><a xlink:title=" ">
<path fill="none" stroke="#63b8ff" d="M565.88,-875.09C680.95,-855.92 895.28,-820.21 1006.15,-801.74"/>
<polygon fill="#63b8ff" stroke="#63b8ff" points="1006.41,-805.25 1015.7,-800.15 1005.26,-798.34 1006.41,-805.25"/>
</a>
</g>
</g>
<!-- Node4&#45;&gt;Node9 -->
<g id="edge11_Node000004_Node000009" class="edge">
<title>Node4&#45;&gt;Node9</title>
<g id="a_edge11_Node000004_Node000009"><a xlink:title=" ">
<path fill="none" stroke="#63b8ff" d="M524.61,-904.42C546.59,-914.03 575.35,-926.01 601.5,-935 669.61,-958.42 701.29,-933.27 757.75,-978 783.94,-998.75 768.42,-1022.21 793.75,-1044 797.32,-1047.07 801.23,-1049.84 805.35,-1052.33"/>
<polygon fill="#63b8ff" stroke="#63b8ff" points="803.46,-1055.29 813.93,-1056.94 806.77,-1049.12 803.46,-1055.29"/>
</a>
</g>
</g>
<!-- Node10 -->
<g id="Node000010" class="node">
<title>Node10</title>
<g id="a_Node000010"><a xlink:href="classdomini_1_1scrabble_1_1_fitxa.html#a3ee9b39d600851a00c4ce541339ba90e" target="_top" xlink:title="Retorna la lletra associada a la fitxa.">
<polygon fill="white" stroke="#666666" points="939.88,-926 814.38,-926 814.38,-894 939.88,-894 939.88,-926"/>
<text text-anchor="start" x="822.38" y="-912.5" font-family="Helvetica,sans-Serif" font-size="10.00">domini.scrabble.Fitxa.get</text>
<text text-anchor="middle" x="877.12" y="-900.5" font-family="Helvetica,sans-Serif" font-size="10.00">Lletra</text>
</a>
</g>
</g>
<!-- Node4&#45;&gt;Node10 -->
<g id="edge12_Node000004_Node000010" class="edge">
<title>Node4&#45;&gt;Node10</title>
<g id="a_edge12_Node000004_Node000010"><a xlink:title=" ">
<path fill="none" stroke="#63b8ff" d="M565.81,-882.43C619.76,-879.7 693.32,-878.27 757.75,-885 772.48,-886.54 788.08,-889.13 802.95,-892.07"/>
<polygon fill="#63b8ff" stroke="#63b8ff" points="802.17,-895.48 812.67,-894.07 803.58,-888.63 802.17,-895.48"/>
</a>
</g>
</g>
<!-- Node4&#45;&gt;Node11 -->
<g id="edge13_Node000004_Node000011" class="edge">
<title>Node4&#45;&gt;Node11</title>
<g id="a_edge13_Node000004_Node000011"><a xlink:title=" ">
<path fill="none" stroke="#63b8ff" d="M491.99,-871.63C503.61,-818.76 540.67,-647.67 565.5,-505 574.93,-450.79 567.2,-303.04 601.5,-260 603.56,-257.42 605.87,-255.06 608.36,-252.9"/>
<polygon fill="#63b8ff" stroke="#63b8ff" points="610.2,-255.89 616.27,-247.21 606.11,-250.21 610.2,-255.89"/>
</a>
</g>
</g>
<!-- Node4&#45;&gt;Node12 -->
<g id="edge14_Node000004_Node000012" class="edge">
<title>Node4&#45;&gt;Node12</title>
<g id="a_edge14_Node000004_Node000012"><a xlink:title=" ">
<path fill="none" stroke="#63b8ff" d="M490.05,-871.71C499.68,-787.94 556.14,-404.52 793.75,-276 867.01,-236.38 966.8,-259.52 1026.19,-279.83"/>
<polygon fill="#63b8ff" stroke="#63b8ff" points="1024.77,-283.04 1035.36,-283.07 1027.1,-276.44 1024.77,-283.04"/>
</a>
</g>
</g>
<!-- Node4&#45;&gt;Node13 -->
<g id="edge16_Node000004_Node000013" class="edge">
<title>Node4&#45;&gt;Node13</title>
<g id="a_edge16_Node000004_Node000013"><a xlink:title=" ">
<path fill="none" stroke="#63b8ff" d="M492.59,-904.43C503.56,-943.92 536.75,-1044.9 601.5,-1099 602.59,-1099.91 603.72,-1100.79 604.88,-1101.64"/>
<polygon fill="#63b8ff" stroke="#63b8ff" points="602.65,-1104.38 612.98,-1106.74 606.38,-1098.45 602.65,-1104.38"/>
</a>
</g>
</g>
<!-- Node14 -->
<g id="Node000014" class="node">
<title>Node14</title>
<g id="a_Node000014"><a xlink:href="classdomini_1_1jugadors_1_1_maquina.html#a57c533590571f4918ebd03a0b0d4819b" target="_top" xlink:title="Comprova si una lletra és vàlida per a una casella que formi paraula transversal vertical.">
<polygon fill="white" stroke="#666666" points="753.25,-926 606,-926 606,-894 753.25,-894 753.25,-926"/>
<text text-anchor="start" x="614" y="-912.5" font-family="Helvetica,sans-Serif" font-size="10.00">domini.jugadors.Maquina.valid</text>
<text text-anchor="middle" x="679.62" y="-900.5" font-family="Helvetica,sans-Serif" font-size="10.00">_traversals</text>
</a>
</g>
</g>
<!-- Node4&#45;&gt;Node14 -->
<g id="edge17_Node000004_Node000014" class="edge">
<title>Node4&#45;&gt;Node14</title>
<g id="a_edge17_Node000004_Node000014"><a xlink:title=" ">
<path fill="none" stroke="#63b8ff" d="M565.76,-896.95C575.22,-898.04 584.93,-899.17 594.49,-900.27"/>
<polygon fill="#63b8ff" stroke="#63b8ff" points="593.77,-903.71 604.11,-901.38 594.58,-896.76 593.77,-903.71"/>
</a>
</g>
</g>
<!-- Node17 -->
<g id="Node000017" class="node">
<title>Node17</title>
<g id="a_Node000017"><a xlink:href="classdomini_1_1jugadors_1_1_maquina.html#a247420aa69d81da6d3d1951d3b409a43" target="_top" xlink:title="Valora una paraula i actualitza la millor paraula trobada si és millor.">
<polygon fill="white" stroke="#666666" points="757.75,-611 601.5,-611 601.5,-579 757.75,-579 757.75,-611"/>
<text text-anchor="start" x="609.5" y="-597.5" font-family="Helvetica,sans-Serif" font-size="10.00">domini.jugadors.Maquina.valorar</text>
<text text-anchor="middle" x="679.62" y="-585.5" font-family="Helvetica,sans-Serif" font-size="10.00">Paraula</text>
</a>
</g>
</g>
<!-- Node4&#45;&gt;Node17 -->
<g id="edge27_Node000004_Node000017" class="edge">
<title>Node4&#45;&gt;Node17</title>
<g id="a_edge27_Node000004_Node000017"><a xlink:title=" ">
<path fill="none" stroke="#63b8ff" d="M498.87,-871.83C530.24,-823.52 623.47,-679.95 661.84,-620.85"/>
<polygon fill="#63b8ff" stroke="#63b8ff" points="664.59,-623.04 667.1,-612.75 658.72,-619.23 664.59,-623.04"/>
</a>
</g>
</g>
<!-- Node5&#45;&gt;Node6 -->
<g id="edge8_Node000005_Node000006" class="edge">
<title>Node5&#45;&gt;Node6</title>
<g id="a_edge8_Node000005_Node000006"><a xlink:title=" ">
<path fill="none" stroke="#63b8ff" d="M1093.9,-1101.57C1112.24,-1080.9 1142.54,-1043.53 1158.75,-1006 1240.11,-817.58 1259.37,-564.81 1263.4,-490.43"/>
<polygon fill="#63b8ff" stroke="#63b8ff" points="1266.88,-491.03 1263.88,-480.87 1259.89,-490.68 1266.88,-491.03"/>
</a>
</g>
</g>
<!-- Node14&#45;&gt;Node2 -->
<g id="edge20_Node000014_Node000002" class="edge">
<title>Node14&#45;&gt;Node2</title>
<g id="a_edge20_Node000014_Node000002"><a xlink:title=" ">
<path fill="none" stroke="#63b8ff" d="M694.39,-926.48C710.84,-946.69 738.56,-982.41 757.75,-1016 777.7,-1050.91 776.1,-1062.87 793.75,-1099 815.67,-1143.89 844.12,-1194.58 861.2,-1224.33"/>
<polygon fill="#63b8ff" stroke="#63b8ff" points="857.96,-1225.71 865.98,-1232.63 864.02,-1222.22 857.96,-1225.71"/>
</a>
</g>
</g>
<!-- Node14&#45;&gt;Node5 -->
<g id="edge21_Node000014_Node000005" class="edge">
<title>Node14&#45;&gt;Node5</title>
<g id="a_edge21_Node000014_Node000005"><a xlink:title=" ">
<path fill="none" stroke="#63b8ff" d="M751.33,-926.33C753.57,-927.76 755.72,-929.31 757.75,-931 786.16,-954.67 765.18,-982.53 793.75,-1006 852.88,-1054.59 889.84,-1019.6 960.5,-1049 990.3,-1061.4 1021.62,-1080.41 1044.22,-1095.34"/>
<polygon fill="#63b8ff" stroke="#63b8ff" points="1042.13,-1098.15 1052.38,-1100.82 1046.03,-1092.34 1042.13,-1098.15"/>
</a>
</g>
</g>
<!-- Node14&#45;&gt;Node6 -->
<g id="edge26_Node000014_Node000006" class="edge">
<title>Node14&#45;&gt;Node6</title>
<g id="a_edge26_Node000014_Node000006"><a xlink:title=" ">
<path fill="none" stroke="#63b8ff" d="M747.71,-926.49C751.16,-927.89 754.52,-929.39 757.75,-931 775.88,-940.06 774.58,-952.42 793.75,-959 950.31,-1012.72 1048.23,-1008.22 1158.75,-885 1212.83,-824.7 1251.23,-566.81 1261.58,-490.41"/>
<polygon fill="#63b8ff" stroke="#63b8ff" points="1265,-491.28 1262.85,-480.9 1258.06,-490.35 1265,-491.28"/>
</a>
</g>
</g>
<!-- Node14&#45;&gt;Node8 -->
<g id="edge22_Node000014_Node000008" class="edge">
<title>Node14&#45;&gt;Node8</title>
<g id="a_edge22_Node000014_Node000008"><a xlink:title=" ">
<path fill="none" stroke="#63b8ff" d="M743.64,-926.47C759.86,-930 777.35,-933.21 793.75,-935 867.42,-943.04 898.97,-976.31 960.5,-935 995.58,-911.45 970.25,-880.11 996.5,-847 1007.27,-833.41 1022.11,-821.64 1036.09,-812.37"/>
<polygon fill="#63b8ff" stroke="#63b8ff" points="1037.72,-815.48 1044.29,-807.18 1033.97,-809.57 1037.72,-815.48"/>
</a>
</g>
</g>
<!-- Node14&#45;&gt;Node9 -->
<g id="edge23_Node000014_Node000009" class="edge">
<title>Node14&#45;&gt;Node9</title>
<g id="a_edge23_Node000014_Node000009"><a xlink:title=" ">
<path fill="none" stroke="#63b8ff" d="M739.24,-926.33C746.07,-930.02 752.47,-934.52 757.75,-940 791.68,-975.23 759.44,-1009.14 793.75,-1044 796.5,-1046.8 799.54,-1049.33 802.77,-1051.64"/>
<polygon fill="#63b8ff" stroke="#63b8ff" points="800.68,-1054.46 811.03,-1056.73 804.35,-1048.5 800.68,-1054.46"/>
</a>
</g>
</g>
<!-- Node14&#45;&gt;Node10 -->
<g id="edge24_Node000014_Node000010" class="edge">
<title>Node14&#45;&gt;Node10</title>
<g id="a_edge24_Node000014_Node000010"><a xlink:title=" ">
<path fill="none" stroke="#63b8ff" d="M753.7,-910C769.67,-910 786.58,-910 802.57,-910"/>
<polygon fill="#63b8ff" stroke="#63b8ff" points="802.51,-913.5 812.51,-910 802.51,-906.5 802.51,-913.5"/>
</a>
</g>
</g>
<!-- Node14&#45;&gt;Node12 -->
<g id="edge25_Node000014_Node000012" class="edge">
<title>Node14&#45;&gt;Node12</title>
<g id="a_edge25_Node000014_Node000012"><a xlink:title=" ">
<path fill="none" stroke="#63b8ff" d="M685.51,-893.78C698.57,-849.95 734.88,-725.39 757.75,-620 778.11,-526.17 727.81,-476.78 793.75,-407 845.95,-351.75 889.91,-397.2 960.5,-369 990.66,-356.95 1022.18,-337.74 1044.75,-322.65"/>
<polygon fill="#63b8ff" stroke="#63b8ff" points="1046.6,-325.62 1052.91,-317.1 1042.67,-319.83 1046.6,-325.62"/>
</a>
</g>
</g>
<!-- Node15 -->
<g id="Node000015" class="node">
<title>Node15</title>
<g id="a_Node000015"><a xlink:href="classdomini_1_1diccionari_1_1_d_a_w_g.html#acf204a82f6e4f5cebf3313611e57b714" target="_top" xlink:title="Comprova si una paraula està reconeguda pel DAWG.">
<polygon fill="white" stroke="#666666" points="958.25,-876 796,-876 796,-856 958.25,-856 958.25,-876"/>
<text text-anchor="middle" x="877.12" y="-862.5" font-family="Helvetica,sans-Serif" font-size="10.00">domini.diccionari.DAWG.contains</text>
</a>
</g>
</g>
<!-- Node14&#45;&gt;Node15 -->
<g id="edge18_Node000014_Node000015" class="edge">
<title>Node14&#45;&gt;Node15</title>
<g id="a_edge18_Node000014_Node000015"><a xlink:title=" ">
<path fill="none" stroke="#63b8ff" d="M753.7,-893.55C775.11,-888.73 798.22,-883.53 818.52,-878.96"/>
<polygon fill="#63b8ff" stroke="#63b8ff" points="819.02,-882.44 828.01,-876.83 817.49,-875.61 819.02,-882.44"/>
</a>
</g>
</g>
<!-- Node16 -->
<g id="Node000016" class="node">
<title>Node16</title>
<g id="a_Node000016"><a xlink:href="classdomini_1_1diccionari_1_1_d_a_w_g.html#ad5db7cc629d77068e51ccae18f9bfebd" target="_top" xlink:title="Genera una llista amb les lletres i dígrafs de la paraula paràmetre.">
<polygon fill="white" stroke="#666666" points="1158.75,-876 996.5,-876 996.5,-856 1158.75,-856 1158.75,-876"/>
<text text-anchor="middle" x="1077.62" y="-862.5" font-family="Helvetica,sans-Serif" font-size="10.00">domini.diccionari.DAWG.tokenize</text>
</a>
</g>
</g>
<!-- Node15&#45;&gt;Node16 -->
<g id="edge19_Node000015_Node000016" class="edge">
<title>Node15&#45;&gt;Node16</title>
<g id="a_edge19_Node000015_Node000016"><a xlink:title=" ">
<path fill="none" stroke="#63b8ff" d="M958.58,-866C967.17,-866 975.96,-866 984.67,-866"/>
<polygon fill="#63b8ff" stroke="#63b8ff" points="984.55,-869.5 994.55,-866 984.55,-862.5 984.55,-869.5"/>
</a>
</g>
</g>
<!-- Node17&#45;&gt;Node6 -->
<g id="edge38_Node000017_Node000006" class="edge">
<title>Node17&#45;&gt;Node6</title>
<g id="a_edge38_Node000017_Node000006"><a xlink:title=" ">
<path fill="none" stroke="#63b8ff" d="M692.64,-611.39C711.2,-635.17 749.38,-678.2 793.75,-695 863.06,-721.24 890.14,-718.29 960.5,-695 1087.79,-652.85 1205.13,-534.42 1247.58,-488"/>
<polygon fill="#63b8ff" stroke="#63b8ff" points="1250.16,-490.38 1254.26,-480.61 1244.96,-485.69 1250.16,-490.38"/>
</a>
</g>
</g>
<!-- Node17&#45;&gt;Node8 -->
<g id="edge35_Node000017_Node000008" class="edge">
<title>Node17&#45;&gt;Node8</title>
<g id="a_edge35_Node000017_Node000008"><a xlink:title=" ">
<path fill="none" stroke="#63b8ff" d="M689.72,-611.5C706.38,-640.07 744.64,-698.5 793.75,-728 828.93,-749.13 934.29,-768.53 1006.01,-779.81"/>
<polygon fill="#63b8ff" stroke="#63b8ff" points="1005.3,-783.24 1015.72,-781.31 1006.38,-776.32 1005.3,-783.24"/>
</a>
</g>
</g>
<!-- Node17&#45;&gt;Node12 -->
<g id="edge37_Node000017_Node000012" class="edge">
<title>Node17&#45;&gt;Node12</title>
<g id="a_edge37_Node000017_Node000012"><a xlink:title=" ">
<path fill="none" stroke="#63b8ff" d="M681.64,-578.68C685.64,-529.65 704.89,-383.03 793.75,-319 854.93,-274.91 944.2,-276.79 1006.03,-285.41"/>
<polygon fill="#63b8ff" stroke="#63b8ff" points="1005.33,-288.84 1015.74,-286.86 1006.37,-281.92 1005.33,-288.84"/>
</a>
</g>
</g>
<!-- Node17&#45;&gt;Node15 -->
<g id="edge33_Node000017_Node000015" class="edge">
<title>Node17&#45;&gt;Node15</title>
<g id="a_edge33_Node000017_Node000015"><a xlink:title=" ">
<path fill="none" stroke="#63b8ff" d="M690.68,-611.42C709.8,-642.34 753.11,-711.05 793.75,-766 815.36,-795.22 842.5,-827.39 859.59,-847.14"/>
<polygon fill="#63b8ff" stroke="#63b8ff" points="856.9,-849.39 866.11,-854.64 862.18,-844.79 856.9,-849.39"/>
</a>
</g>
</g>
<!-- Node18 -->
<g id="Node000018" class="node">
<title>Node18</title>
<g id="a_Node000018"><a xlink:href="classdomini_1_1jugadors_1_1_maquina.html#a80169174406c5da6922feb0f4c854ac8" target="_top" xlink:title="Calcula la puntuació d&#39;una paraula col·locada en el taulell.">
<polygon fill="white" stroke="#666666" points="957.5,-448 796.75,-448 796.75,-416 957.5,-416 957.5,-448"/>
<text text-anchor="start" x="804.75" y="-434.5" font-family="Helvetica,sans-Serif" font-size="10.00">domini.jugadors.Maquina.calcular</text>
<text text-anchor="middle" x="877.12" y="-422.5" font-family="Helvetica,sans-Serif" font-size="10.00">Puntatge</text>
</a>
</g>
</g>
<!-- Node17&#45;&gt;Node18 -->
<g id="edge28_Node000017_Node000018" class="edge">
<title>Node17&#45;&gt;Node18</title>
<g id="a_edge28_Node000017_Node000018"><a xlink:title=" ">
<path fill="none" stroke="#63b8ff" d="M689.55,-578.74C706.21,-549.89 744.82,-489.72 793.75,-457 795.57,-455.79 797.45,-454.63 799.37,-453.52"/>
<polygon fill="#63b8ff" stroke="#63b8ff" points="800.67,-456.79 808,-449.14 797.5,-450.55 800.67,-456.79"/>
</a>
</g>
</g>
<!-- Node20 -->
<g id="Node000020" class="node">
<title>Node20</title>
<g id="a_Node000020"><a xlink:href="classdomini_1_1jugadors_1_1_maquina.html#ae5ea3ad1e6cf736172f038349b70857d" target="_top" xlink:title="Converteix una llista de fitxes en una cadena de text.">
<polygon fill="white" stroke="#666666" points="955.25,-360 799,-360 799,-328 955.25,-328 955.25,-360"/>
<text text-anchor="start" x="807" y="-346.5" font-family="Helvetica,sans-Serif" font-size="10.00">domini.jugadors.Maquina.fitxes2</text>
<text text-anchor="middle" x="877.12" y="-334.5" font-family="Helvetica,sans-Serif" font-size="10.00">String</text>
</a>
</g>
</g>
<!-- Node17&#45;&gt;Node20 -->
<g id="edge34_Node000017_Node000020" class="edge">
<title>Node17&#45;&gt;Node20</title>
<g id="a_edge34_Node000017_Node000020"><a xlink:title=" ">
<path fill="none" stroke="#63b8ff" d="M684.57,-578.55C695.14,-537.98 727.85,-432.21 793.75,-374 797.12,-371.02 800.81,-368.34 804.69,-365.91"/>
<polygon fill="#63b8ff" stroke="#63b8ff" points="806.31,-369.02 813.38,-361.13 802.93,-362.88 806.31,-369.02"/>
</a>
</g>
</g>
<!-- Node21 -->
<g id="Node000021" class="node">
<title>Node21</title>
<g id="a_Node000021"><a xlink:href="classdomini_1_1auxiliars_1_1_max_word.html#a095b18721ed654f8c136b6fd2b9a4f6d" target="_top" xlink:title="Obté la puntuació de la paraula.">
<polygon fill="white" stroke="#666666" points="949.25,-686 805,-686 805,-654 949.25,-654 949.25,-686"/>
<text text-anchor="start" x="813" y="-672.5" font-family="Helvetica,sans-Serif" font-size="10.00">domini.auxiliars.MaxWord.get</text>
<text text-anchor="middle" x="877.12" y="-660.5" font-family="Helvetica,sans-Serif" font-size="10.00">Points</text>
</a>
</g>
</g>
<!-- Node17&#45;&gt;Node21 -->
<g id="edge36_Node000017_Node000021" class="edge">
<title>Node17&#45;&gt;Node21</title>
<g id="a_edge36_Node000017_Node000021"><a xlink:title=" ">
<path fill="none" stroke="#63b8ff" d="M714.83,-611.42C737.04,-621.76 766.77,-634.99 793.75,-645 798.37,-646.71 803.16,-648.4 808.01,-650.04"/>
<polygon fill="#63b8ff" stroke="#63b8ff" points="806.63,-653.27 817.22,-653.07 808.82,-646.62 806.63,-653.27"/>
</a>
</g>
</g>
<!-- Node22 -->
<g id="Node000022" class="node">
<title>Node22</title>
<g id="a_Node000022"><a xlink:href="classdomini_1_1auxiliars_1_1_max_word.html#a946a8835bbce29ef90f8c76455735c0d" target="_top" xlink:title="Assigna unes noves coordenades inicials a la paraula.">
<polygon fill="white" stroke="#666666" points="949.25,-636 805,-636 805,-604 949.25,-604 949.25,-636"/>
<text text-anchor="start" x="813" y="-622.5" font-family="Helvetica,sans-Serif" font-size="10.00">domini.auxiliars.MaxWord.set</text>
<text text-anchor="middle" x="877.12" y="-610.5" font-family="Helvetica,sans-Serif" font-size="10.00">Coordinates</text>
</a>
</g>
</g>
<!-- Node17&#45;&gt;Node22 -->
<g id="edge39_Node000017_Node000022" class="edge">
<title>Node17&#45;&gt;Node22</title>
<g id="a_edge39_Node000017_Node000022"><a xlink:title=" ">
<path fill="none" stroke="#63b8ff" d="M758.17,-604.92C769.81,-606.4 781.84,-607.94 793.57,-609.44"/>
<polygon fill="#63b8ff" stroke="#63b8ff" points="792.84,-612.88 803.21,-610.68 793.73,-605.93 792.84,-612.88"/>
</a>
</g>
</g>
<!-- Node23 -->
<g id="Node000023" class="node">
<title>Node23</title>
<g id="a_Node000023"><a xlink:href="classdomini_1_1auxiliars_1_1_max_word.html#adb214547721bf7d9bb1a04c97827d0b0" target="_top" xlink:title="Defineix la direcció de la paraula.">
<polygon fill="white" stroke="#666666" points="949.25,-586 805,-586 805,-554 949.25,-554 949.25,-586"/>
<text text-anchor="start" x="813" y="-572.5" font-family="Helvetica,sans-Serif" font-size="10.00">domini.auxiliars.MaxWord.set</text>
<text text-anchor="middle" x="877.12" y="-560.5" font-family="Helvetica,sans-Serif" font-size="10.00">Horizontal</text>
</a>
</g>
</g>
<!-- Node17&#45;&gt;Node23 -->
<g id="edge40_Node000017_Node000023" class="edge">
<title>Node17&#45;&gt;Node23</title>
<g id="a_edge40_Node000017_Node000023"><a xlink:title=" ">
<path fill="none" stroke="#63b8ff" d="M758.17,-585.08C769.81,-583.6 781.84,-582.06 793.57,-580.56"/>
<polygon fill="#63b8ff" stroke="#63b8ff" points="793.73,-584.07 803.21,-579.32 792.84,-577.12 793.73,-584.07"/>
</a>
</g>
</g>
<!-- Node24 -->
<g id="Node000024" class="node">
<title>Node24</title>
<g id="a_Node000024"><a xlink:href="classdomini_1_1auxiliars_1_1_max_word.html#ae599f47659f48bcc17daf17b83bd7255" target="_top" xlink:title="Assigna una nova puntuació a la paraula.">
<polygon fill="white" stroke="#666666" points="949.25,-536 805,-536 805,-504 949.25,-504 949.25,-536"/>
<text text-anchor="start" x="813" y="-522.5" font-family="Helvetica,sans-Serif" font-size="10.00">domini.auxiliars.MaxWord.set</text>
<text text-anchor="middle" x="877.12" y="-510.5" font-family="Helvetica,sans-Serif" font-size="10.00">Points</text>
</a>
</g>
</g>
<!-- Node17&#45;&gt;Node24 -->
<g id="edge41_Node000017_Node000024" class="edge">
<title>Node17&#45;&gt;Node24</title>
<g id="a_edge41_Node000017_Node000024"><a xlink:title=" ">
<path fill="none" stroke="#63b8ff" d="M714.83,-578.58C737.04,-568.24 766.77,-555.01 793.75,-545 798.37,-543.29 803.16,-541.6 808.01,-539.96"/>
<polygon fill="#63b8ff" stroke="#63b8ff" points="808.82,-543.38 817.22,-536.93 806.63,-536.73 808.82,-543.38"/>
</a>
</g>
</g>
<!-- Node25 -->
<g id="Node000025" class="node">
<title>Node25</title>
<g id="a_Node000025"><a xlink:href="classdomini_1_1auxiliars_1_1_max_word.html#a452955f9d5f0cfedcab85fd1c74609c6" target="_top" xlink:title="Assigna una nova llista de fitxes a la paraula.">
<polygon fill="white" stroke="#666666" points="960.5,-486 793.75,-486 793.75,-466 960.5,-466 960.5,-486"/>
<text text-anchor="middle" x="877.12" y="-472.5" font-family="Helvetica,sans-Serif" font-size="10.00">domini.auxiliars.MaxWord.setWord</text>
</a>
</g>
</g>
<!-- Node17&#45;&gt;Node25 -->
<g id="edge42_Node000017_Node000025" class="edge">
<title>Node17&#45;&gt;Node25</title>
<g id="a_edge42_Node000017_Node000025"><a xlink:title=" ">
<path fill="none" stroke="#63b8ff" d="M694.18,-578.75C713.78,-556.36 752.26,-516.35 793.75,-495 797.18,-493.23 800.78,-491.63 804.47,-490.17"/>
<polygon fill="#63b8ff" stroke="#63b8ff" points="805.36,-493.57 813.63,-486.95 803.04,-486.97 805.36,-493.57"/>
</a>
</g>
</g>
<!-- Node18&#45;&gt;Node5 -->
<g id="edge29_Node000018_Node000005" class="edge">
<title>Node18&#45;&gt;Node5</title>
<g id="a_edge29_Node000018_Node000005"><a xlink:title=" ">
<path fill="none" stroke="#63b8ff" d="M951.5,-448.43C954.83,-450.91 957.87,-453.75 960.5,-457 1020.52,-531.22 976.83,-791.6 996.5,-885 1012.72,-962.04 1047.04,-1048.74 1065.04,-1091.39"/>
<polygon fill="#63b8ff" stroke="#63b8ff" points="1061.71,-1092.51 1068.86,-1100.34 1068.15,-1089.77 1061.71,-1092.51"/>
</a>
</g>
</g>
<!-- Node18&#45;&gt;Node8 -->
<g id="edge30_Node000018_Node000008" class="edge">
<title>Node18&#45;&gt;Node8</title>
<g id="a_edge30_Node000018_Node000008"><a xlink:title=" ">
<path fill="none" stroke="#63b8ff" d="M949.04,-448.32C953.18,-450.81 957.05,-453.69 960.5,-457 1049.32,-542.26 1070.26,-699.05 1075.15,-762.38"/>
<polygon fill="#63b8ff" stroke="#63b8ff" points="1071.65,-762.51 1075.83,-772.24 1078.63,-762.03 1071.65,-762.51"/>
</a>
</g>
</g>
<!-- Node18&#45;&gt;Node12 -->
<g id="edge32_Node000018_Node000012" class="edge">
<title>Node18&#45;&gt;Node12</title>
<g id="a_edge32_Node000018_Node000012"><a xlink:title=" ">
<path fill="none" stroke="#63b8ff" d="M932.18,-415.59C941.9,-411.73 951.73,-407.2 960.5,-402 996.73,-380.53 1032.18,-347.05 1054.2,-324.35"/>
<polygon fill="#63b8ff" stroke="#63b8ff" points="1056.53,-326.97 1060.9,-317.32 1051.47,-322.14 1056.53,-326.97"/>
</a>
</g>
</g>
<!-- Node19 -->
<g id="Node000019" class="node">
<title>Node19</title>
<g id="a_Node000019"><a xlink:href="classdomini_1_1scrabble_1_1_casella.html#a2ce7db6c414e455606dfbd8ee8056a3b" target="_top" xlink:title="Retorna el multiplicador de la casella.">
<polygon fill="white" stroke="#666666" points="1146,-448 1009.25,-448 1009.25,-416 1146,-416 1146,-448"/>
<text text-anchor="start" x="1017.25" y="-434.5" font-family="Helvetica,sans-Serif" font-size="10.00">domini.scrabble.Casella.get</text>
<text text-anchor="middle" x="1077.62" y="-422.5" font-family="Helvetica,sans-Serif" font-size="10.00">Multiplicador</text>
</a>
</g>
</g>
<!-- Node18&#45;&gt;Node19 -->
<g id="edge31_Node000018_Node000019" class="edge">
<title>Node18&#45;&gt;Node19</title>
<g id="a_edge31_Node000018_Node000019"><a xlink:title=" ">
<path fill="none" stroke="#63b8ff" d="M957.72,-432C970.82,-432 984.39,-432 997.48,-432"/>
<polygon fill="#63b8ff" stroke="#63b8ff" points="997.31,-435.5 1007.31,-432 997.31,-428.5 997.31,-435.5"/>
</a>
</g>
</g>
<!-- Node26&#45;&gt;Node5 -->
<g id="edge54_Node000026_Node000005" class="edge">
<title>Node26&#45;&gt;Node5</title>
<g id="a_edge54_Node000026_Node000005"><a xlink:title=" ">
<path fill="none" stroke="#63b8ff" d="M284.85,-82.48C292.13,-188.13 335.13,-770.92 409.25,-931 453.34,-1026.22 496.16,-1029.24 565.5,-1108 581.52,-1126.2 579.41,-1139 601.5,-1149 741.52,-1212.39 928.8,-1167.34 1020.81,-1137.94"/>
<polygon fill="#63b8ff" stroke="#63b8ff" points="1021.69,-1141.33 1030.11,-1134.91 1019.52,-1134.68 1021.69,-1141.33"/>
</a>
</g>
</g>
<!-- Node27 -->
<g id="Node000027" class="node">
<title>Node27</title>
<g id="a_Node000027"><a xlink:href="classdomini_1_1scrabble_1_1_taulell.html#a268ce8c62ca09000409a18be258fbc89" target="_top" xlink:title="Comprova si el taulell està completament buit (cap casella ocupada).">
<polygon fill="white" stroke="#666666" points="564.38,-32 410.38,-32 410.38,-12 564.38,-12 564.38,-32"/>
<text text-anchor="middle" x="487.38" y="-18.5" font-family="Helvetica,sans-Serif" font-size="10.00">domini.scrabble.Taulell.estaBuit</text>
</a>
</g>
</g>
<!-- Node26&#45;&gt;Node27 -->
<g id="edge53_Node000026_Node000027" class="edge">
<title>Node26&#45;&gt;Node27</title>
<g id="a_edge53_Node000026_Node000027"><a xlink:title=" ">
<path fill="none" stroke="#63b8ff" d="M348.98,-51.84C374.16,-46.37 402.76,-40.16 427.33,-34.82"/>
<polygon fill="#63b8ff" stroke="#63b8ff" points="427.79,-38.3 436.82,-32.76 426.31,-31.46 427.79,-38.3"/>
</a>
</g>
</g>
<!-- Node28 -->
<g id="Node000028" class="node">
<title>Node28</title>
<g id="a_Node000028"><a xlink:href="classdomini_1_1scrabble_1_1_taulell.html#a28a346ace920ef6a74f94825249d671c" target="_top" xlink:title="Mètode que calcula les coordenades del centre del taulell.">
<polygon fill="white" stroke="#666666" points="553.12,-82 421.62,-82 421.62,-50 553.12,-50 553.12,-82"/>
<text text-anchor="start" x="429.62" y="-68.5" font-family="Helvetica,sans-Serif" font-size="10.00">domini.scrabble.Taulell.get</text>
<text text-anchor="middle" x="487.38" y="-56.5" font-family="Helvetica,sans-Serif" font-size="10.00">CentreTaulell</text>
</a>
</g>
</g>
<!-- Node26&#45;&gt;Node28 -->
<g id="edge55_Node000026_Node000028" class="edge">
<title>Node26&#45;&gt;Node28</title>
<g id="a_edge55_Node000026_Node000028"><a xlink:title=" ">
<path fill="none" stroke="#63b8ff" d="M348.98,-66C368.41,-66 389.88,-66 409.96,-66"/>
<polygon fill="#63b8ff" stroke="#63b8ff" points="409.76,-69.5 419.76,-66 409.76,-62.5 409.76,-69.5"/>
</a>
</g>
</g>
</g>
</svg>

<g id="navigator" transform="translate(0 0)" fill="#404254">
  <rect fill="#f2f5e9" fill-opacity="0.5" stroke="#606060" stroke-width=".5" x="0" y="0" width="60" height="60"/>
  <use id="zoomplus" xlink:href="#zoomPlus" x="17" y="9" onmousedown="handleZoom(evt,'in')"/>
  <use id="zoomminus" xlink:href="#zoomMin" x="42" y="9" onmousedown="handleZoom(evt,'out')"/>
  <use id="reset" xlink:href="#resetDef" x="30" y="36" onmousedown="handleReset()"/>
   <use id="arrowup" xlink:href="#arrowUp" x="0" y="0" onmousedown="handlePan(0,-1)"/>
  <use id="arrowright" xlink:href="#arrowRight" x="0" y="0" onmousedown="handlePan(1,0)"/>
  <use id="arrowdown" xlink:href="#arrowDown" x="0" y="0" onmousedown="handlePan(0,1)"/>
  <use id="arrowleft" xlink:href="#arrowLeft" x="0" y="0" onmousedown="handlePan(-1,0)"/>
</g>
<svg viewBox="0 0 15 15" width="100%" height="30px" preserveAspectRatio="xMaxYMin meet">
 <g id="arrow_out" transform="scale(0.3 0.3)">
  <a xlink:href="classdomini_1_1jugadors_1_1_maquina_afe864f5cb4ab5895e149c5aad0235400_cgraph_org.svg" target="_base">
   <rect id="button" ry="5" rx="5" y="6" x="6" height="38" width="38"
        fill="#f2f5e9" fill-opacity="0.5" stroke="#606060" stroke-width="1.0"/>
   <path id="arrow"
     d="M 11.500037,31.436501 C 11.940474,20.09759 22.043105,11.32322 32.158766,21.979434 L 37.068811,17.246167 C 37.068811,17.246167 37.088388,32 37.088388,32 L 22.160133,31.978069 C 22.160133,31.978069 26.997745,27.140456 26.997745,27.140456 C 18.528582,18.264221 13.291696,25.230495 11.500037,31.436501 z"
     style="fill:#404040;"/>
  </a>
 </g>
</svg>

<style type='text/css'>
<![CDATA[
[data-mouse-over-selected='false'] { opacity: 0.7; }
[data-mouse-over-selected='true']  { opacity: 1.0; }
]]>
</style>
<script type="application/ecmascript"><![CDATA[
document.addEventListener('DOMContentLoaded', (event) => {
  highlightEdges();
  highlightAdjacentNodes();
});
]]></script>
</svg>
