<?xml version="1.0" encoding="UTF-8" standalone="no"?>
<!DOCTYPE svg PUBLIC "-//W3C//DTD SVG 1.1//EN"
 "http://www.w3.org/Graphics/SVG/1.1/DTD/svg11.dtd">
<!-- Generated by graphviz version 12.2.1 (20241206.2353)
 -->
<!-- Title: controladors.CtrlDomini.guardarPartida Pages: 1 -->
<svg width="548pt" height="90pt"
 viewBox="0.00 0.00 548.00 90.00" xmlns="http://www.w3.org/2000/svg" xmlns:xlink="http://www.w3.org/1999/xlink">
<g id="graph0" class="graph" transform="scale(1 1) rotate(0) translate(4 86)">
<title>controladors.CtrlDomini.guardarPartida</title>
<!-- Node1 -->
<g id="Node000001" class="node">
<title>Node1</title>
<g id="a_Node000001"><a xlink:title="Es guarda la partida actual.">
<polygon fill="#999999" stroke="#666666" points="154,-57 0,-57 0,-25 154,-25 154,-57"/>
<text text-anchor="start" x="8" y="-43.5" font-family="Helvetica,sans-Serif" font-size="10.00">controladors.CtrlDomini.guardar</text>
<text text-anchor="middle" x="77" y="-31.5" font-family="Helvetica,sans-Serif" font-size="10.00">Partida</text>
</a>
</g>
</g>
<!-- Node2 -->
<g id="Node000002" class="node">
<title>Node2</title>
<g id="a_Node000002"><a xlink:href="classcontroladors_1_1_ctrl_persistencia.html#a0e5e0a143149479bf7fb5b185d34035f" target="_top" xlink:title="Desa una partida a l&#39;emmagatzematge persistent.">
<polygon fill="white" stroke="#666666" points="367.25,-82 190,-82 190,-50 367.25,-50 367.25,-82"/>
<text text-anchor="start" x="198" y="-68.5" font-family="Helvetica,sans-Serif" font-size="10.00">controladors.CtrlPersistencia.guardar</text>
<text text-anchor="middle" x="278.62" y="-56.5" font-family="Helvetica,sans-Serif" font-size="10.00">Partida</text>
</a>
</g>
</g>
<!-- Node1&#45;&gt;Node2 -->
<g id="edge1_Node000001_Node000002" class="edge">
<title>Node1&#45;&gt;Node2</title>
<g id="a_edge1_Node000001_Node000002"><a xlink:title=" ">
<path fill="none" stroke="#63b8ff" d="M154.32,-50.56C162.18,-51.54 170.24,-52.55 178.3,-53.56"/>
<polygon fill="#63b8ff" stroke="#63b8ff" points="177.8,-57.03 188.16,-54.8 178.67,-50.08 177.8,-57.03"/>
</a>
</g>
</g>
<!-- Node4 -->
<g id="Node000004" class="node">
<title>Node4</title>
<g id="a_Node000004"><a xlink:href="classcontroladors_1_1_ctrl_persistencia.html#a3e338a9b45aaa502d95cb1816545b734" target="_top" xlink:title="Desa un usuari a l&#39;emmagatzematge persistent.">
<polygon fill="white" stroke="#666666" points="367.25,-32 190,-32 190,0 367.25,0 367.25,-32"/>
<text text-anchor="start" x="198" y="-18.5" font-family="Helvetica,sans-Serif" font-size="10.00">controladors.CtrlPersistencia.guardar</text>
<text text-anchor="middle" x="278.62" y="-6.5" font-family="Helvetica,sans-Serif" font-size="10.00">Usuari</text>
</a>
</g>
</g>
<!-- Node1&#45;&gt;Node4 -->
<g id="edge3_Node000001_Node000004" class="edge">
<title>Node1&#45;&gt;Node4</title>
<g id="a_edge3_Node000001_Node000004"><a xlink:title=" ">
<path fill="none" stroke="#63b8ff" d="M154.32,-31.44C162.18,-30.46 170.24,-29.45 178.3,-28.44"/>
<polygon fill="#63b8ff" stroke="#63b8ff" points="178.67,-31.92 188.16,-27.2 177.8,-24.97 178.67,-31.92"/>
</a>
</g>
</g>
<!-- Node3 -->
<g id="Node000003" class="node">
<title>Node3</title>
<g id="a_Node000003"><a xlink:href="classpersistencia_1_1_partida_i_o.html#a67252911821e967acb539aa350b4f488" target="_top" xlink:title="Desa una partida a un fitxer JSON.">
<polygon fill="white" stroke="#666666" points="540,-82 403.25,-82 403.25,-50 540,-50 540,-82"/>
<text text-anchor="start" x="411.25" y="-68.5" font-family="Helvetica,sans-Serif" font-size="10.00">persistencia.PartidaIO.save</text>
<text text-anchor="middle" x="471.62" y="-56.5" font-family="Helvetica,sans-Serif" font-size="10.00">Partida</text>
</a>
</g>
</g>
<!-- Node2&#45;&gt;Node3 -->
<g id="edge2_Node000002_Node000003" class="edge">
<title>Node2&#45;&gt;Node3</title>
<g id="a_edge2_Node000002_Node000003"><a xlink:title=" ">
<path fill="none" stroke="#63b8ff" d="M367.58,-66C375.54,-66 383.57,-66 391.44,-66"/>
<polygon fill="#63b8ff" stroke="#63b8ff" points="391.34,-69.5 401.34,-66 391.34,-62.5 391.34,-69.5"/>
</a>
</g>
</g>
<!-- Node5 -->
<g id="Node000005" class="node">
<title>Node5</title>
<g id="a_Node000005"><a xlink:href="classpersistencia_1_1_usuari_i_o.html#adae8b6b62d1b4cbbff286eaa19877937" target="_top" xlink:title="Desa un usuari a un fitxer JSON.">
<polygon fill="white" stroke="#666666" points="538.88,-32 404.38,-32 404.38,0 538.88,0 538.88,-32"/>
<text text-anchor="start" x="412.38" y="-18.5" font-family="Helvetica,sans-Serif" font-size="10.00">persistencia.UsuariIO.save</text>
<text text-anchor="middle" x="471.62" y="-6.5" font-family="Helvetica,sans-Serif" font-size="10.00">Usuari</text>
</a>
</g>
</g>
<!-- Node4&#45;&gt;Node5 -->
<g id="edge4_Node000004_Node000005" class="edge">
<title>Node4&#45;&gt;Node5</title>
<g id="a_edge4_Node000004_Node000005"><a xlink:title=" ">
<path fill="none" stroke="#63b8ff" d="M367.58,-16C375.9,-16 384.29,-16 392.51,-16"/>
<polygon fill="#63b8ff" stroke="#63b8ff" points="392.47,-19.5 402.47,-16 392.47,-12.5 392.47,-19.5"/>
</a>
</g>
</g>
</g>
</svg>
