<?xml version="1.0" encoding="UTF-8" standalone="no"?>
<!DOCTYPE svg PUBLIC "-//W3C//DTD SVG 1.1//EN"
 "http://www.w3.org/Graphics/SVG/1.1/DTD/svg11.dtd">
<!-- Generated by graphviz version 12.2.1 (20241206.2353)
 -->
<!-- Title: controladors.CtrlPartida.paraula_centre Pages: 1 -->
<svg width="329pt" height="140pt"
 viewBox="0.00 0.00 328.75 140.00" xmlns="http://www.w3.org/2000/svg" xmlns:xlink="http://www.w3.org/1999/xlink">
<g id="graph0" class="graph" transform="scale(1 1) rotate(0) translate(4 136)">
<title>controladors.CtrlPartida.paraula_centre</title>
<!-- Node1 -->
<g id="Node000001" class="node">
<title>Node1</title>
<g id="a_Node000001"><a xlink:title="Comprova si una paraula col·locada passa pel centre del taulell.">
<polygon fill="#999999" stroke="#666666" points="153.25,-82 0,-82 0,-50 153.25,-50 153.25,-82"/>
<text text-anchor="start" x="8" y="-68.5" font-family="Helvetica,sans-Serif" font-size="10.00">controladors.CtrlPartida.paraula</text>
<text text-anchor="middle" x="76.62" y="-56.5" font-family="Helvetica,sans-Serif" font-size="10.00">_centre</text>
</a>
</g>
</g>
<!-- Node2 -->
<g id="Node000002" class="node">
<title>Node2</title>
<g id="a_Node000002"><a xlink:href="classdomini_1_1scrabble_1_1_taulell.html#a28a346ace920ef6a74f94825249d671c" target="_top" xlink:title="Mètode que calcula les coordenades del centre del taulell.">
<polygon fill="white" stroke="#666666" points="320.75,-132 189.25,-132 189.25,-100 320.75,-100 320.75,-132"/>
<text text-anchor="start" x="197.25" y="-118.5" font-family="Helvetica,sans-Serif" font-size="10.00">domini.scrabble.Taulell.get</text>
<text text-anchor="middle" x="255" y="-106.5" font-family="Helvetica,sans-Serif" font-size="10.00">CentreTaulell</text>
</a>
</g>
</g>
<!-- Node1&#45;&gt;Node2 -->
<g id="edge1_Node000001_Node000002" class="edge">
<title>Node1&#45;&gt;Node2</title>
<g id="a_edge1_Node000001_Node000002"><a xlink:title=" ">
<path fill="none" stroke="#63b8ff" d="M135.38,-82.37C151.28,-86.88 168.69,-91.82 185.16,-96.48"/>
<polygon fill="#63b8ff" stroke="#63b8ff" points="183.79,-99.73 194.36,-99.09 185.69,-93 183.79,-99.73"/>
</a>
</g>
</g>
<!-- Node3 -->
<g id="Node000003" class="node">
<title>Node3</title>
<g id="a_Node000003"><a xlink:href="classdomini_1_1auxiliars_1_1_pair.html#af9fc7c6b0fb531c4b59cdb1048897164" target="_top" xlink:title="Obté el primer element de la parella.">
<polygon fill="white" stroke="#666666" points="315.12,-82 194.88,-82 194.88,-50 315.12,-50 315.12,-82"/>
<text text-anchor="start" x="202.88" y="-68.5" font-family="Helvetica,sans-Serif" font-size="10.00">domini.auxiliars.Pair.get</text>
<text text-anchor="middle" x="255" y="-56.5" font-family="Helvetica,sans-Serif" font-size="10.00">First</text>
</a>
</g>
</g>
<!-- Node1&#45;&gt;Node3 -->
<g id="edge2_Node000001_Node000003" class="edge">
<title>Node1&#45;&gt;Node3</title>
<g id="a_edge2_Node000001_Node000003"><a xlink:title=" ">
<path fill="none" stroke="#63b8ff" d="M153.7,-66C163.49,-66 173.47,-66 183.17,-66"/>
<polygon fill="#63b8ff" stroke="#63b8ff" points="182.87,-69.5 192.87,-66 182.87,-62.5 182.87,-69.5"/>
</a>
</g>
</g>
<!-- Node4 -->
<g id="Node000004" class="node">
<title>Node4</title>
<g id="a_Node000004"><a xlink:href="classdomini_1_1auxiliars_1_1_pair.html#af70cd15a3a6fe17c25fbae3a08955565" target="_top" xlink:title="Obté el segon element de la parella.">
<polygon fill="white" stroke="#666666" points="315.12,-32 194.88,-32 194.88,0 315.12,0 315.12,-32"/>
<text text-anchor="start" x="202.88" y="-18.5" font-family="Helvetica,sans-Serif" font-size="10.00">domini.auxiliars.Pair.get</text>
<text text-anchor="middle" x="255" y="-6.5" font-family="Helvetica,sans-Serif" font-size="10.00">Second</text>
</a>
</g>
</g>
<!-- Node1&#45;&gt;Node4 -->
<g id="edge3_Node000001_Node000004" class="edge">
<title>Node1&#45;&gt;Node4</title>
<g id="a_edge3_Node000001_Node000004"><a xlink:title=" ">
<path fill="none" stroke="#63b8ff" d="M135.38,-49.63C151.28,-45.12 168.69,-40.18 185.16,-35.52"/>
<polygon fill="#63b8ff" stroke="#63b8ff" points="185.69,-39 194.36,-32.91 183.79,-32.27 185.69,-39"/>
</a>
</g>
</g>
</g>
</svg>
