<?xml version="1.0" encoding="UTF-8" standalone="no"?>
<!DOCTYPE svg PUBLIC "-//W3C//DTD SVG 1.1//EN"
 "http://www.w3.org/Graphics/SVG/1.1/DTD/svg11.dtd">
<!-- Generated by graphviz version 12.2.1 (20241206.2353)
 -->
<!-- Title: controladors.CtrlPresentacio.sortir Pages: 1 -->
<svg width="542pt" height="126pt"
 viewBox="0.00 0.00 542.00 126.00" xmlns="http://www.w3.org/2000/svg" xmlns:xlink="http://www.w3.org/1999/xlink">
<g id="graph0" class="graph" transform="scale(1 1) rotate(0) translate(4 122)">
<title>controladors.CtrlPresentacio.sortir</title>
<!-- Node1 -->
<g id="Node000001" class="node">
<title>Node1</title>
<g id="a_Node000001"><a xlink:title="Tanca la sessió de l&#39;usuari, allibera els recursos gràfics i finalitza l&#39;execució de l&#39;aplicació.">
<polygon fill="#999999" stroke="#666666" points="534,-60 369.5,-60 369.5,-40 534,-40 534,-60"/>
<text text-anchor="middle" x="451.75" y="-46.5" font-family="Helvetica,sans-Serif" font-size="10.00">controladors.CtrlPresentacio.sortir</text>
</a>
</g>
</g>
<!-- Node2 -->
<g id="Node000002" class="node">
<title>Node2</title>
<g id="a_Node000002"><a xlink:href="classinterficie_1_1_vista_menu_joc.html#afab63b4d82b26b00b711c7a5473d7707" target="_top" xlink:title="Constructor de la classe VistaMenuJoc.">
<polygon fill="white" stroke="#666666" points="322.62,-100 201.62,-100 201.62,-68 322.62,-68 322.62,-100"/>
<text text-anchor="start" x="209.62" y="-86.5" font-family="Helvetica,sans-Serif" font-size="10.00">interficie.VistaMenuJoc.</text>
<text text-anchor="middle" x="262.12" y="-74.5" font-family="Helvetica,sans-Serif" font-size="10.00">VistaMenuJoc</text>
</a>
</g>
</g>
<!-- Node1&#45;&gt;Node2 -->
<g id="edge1_Node000001_Node000002" class="edge">
<title>Node1&#45;&gt;Node2</title>
<g id="a_edge1_Node000001_Node000002"><a xlink:title=" ">
<path fill="none" stroke="#63b8ff" d="M381.78,-62.5C362.51,-65.99 341.73,-69.76 323.03,-73.14"/>
<polygon fill="#63b8ff" stroke="#63b8ff" points="382.22,-65.98 391.44,-60.75 380.97,-59.09 382.22,-65.98"/>
</a>
</g>
</g>
<!-- Node4 -->
<g id="Node000004" class="node">
<title>Node4</title>
<g id="a_Node000004"><a xlink:href="classinterficie_1_1_vista_menu_principal.html#a1775070c5caab55f6464ec2fae506c4e" target="_top" xlink:title="Constructor de la classe VistaMenuPrincipal.">
<polygon fill="white" stroke="#666666" points="333.5,-32 190.75,-32 190.75,0 333.5,0 333.5,-32"/>
<text text-anchor="start" x="198.75" y="-18.5" font-family="Helvetica,sans-Serif" font-size="10.00">interficie.VistaMenuPrincipal.</text>
<text text-anchor="middle" x="262.12" y="-6.5" font-family="Helvetica,sans-Serif" font-size="10.00">VistaMenuPrincipal</text>
</a>
</g>
</g>
<!-- Node1&#45;&gt;Node4 -->
<g id="edge5_Node000001_Node000004" class="edge">
<title>Node1&#45;&gt;Node4</title>
<g id="a_edge5_Node000001_Node000004"><a xlink:title=" ">
<path fill="none" stroke="#63b8ff" d="M381.78,-37.5C366.2,-34.68 349.64,-31.68 333.98,-28.84"/>
<polygon fill="#63b8ff" stroke="#63b8ff" points="380.97,-40.91 391.44,-39.25 382.22,-34.02 380.97,-40.91"/>
</a>
</g>
</g>
<!-- Node2&#45;&gt;Node2 -->
<g id="edge4_Node000002_Node000002" class="edge">
<title>Node2&#45;&gt;Node2</title>
<g id="a_edge4_Node000002_Node000002"><a xlink:title=" ">
<path fill="none" stroke="#63b8ff" d="M292.91,-111.71C287.78,-115.48 277.52,-118 262.12,-118 233.98,-118 222.99,-109.58 229.14,-100.44"/>
<polygon fill="#63b8ff" stroke="#63b8ff" points="296.34,-112.41 294.82,-101.93 289.47,-111.07 296.34,-112.41"/>
</a>
</g>
</g>
<!-- Node3 -->
<g id="Node000003" class="node">
<title>Node3</title>
<g id="a_Node000003"><a xlink:href="classinterficie_1_1_vista_menu_joc.html#a357d2c3488fc972b443bb25cf44c8d1b" target="_top" xlink:title="Lògica per eliminar el perfil.">
<polygon fill="white" stroke="#666666" points="154.75,-100 0,-100 0,-68 154.75,-68 154.75,-100"/>
<text text-anchor="start" x="8" y="-86.5" font-family="Helvetica,sans-Serif" font-size="10.00">interficie.VistaMenuJoc.eliminar</text>
<text text-anchor="middle" x="77.38" y="-74.5" font-family="Helvetica,sans-Serif" font-size="10.00">Perfil</text>
</a>
</g>
</g>
<!-- Node2&#45;&gt;Node3 -->
<g id="edge2_Node000002_Node000003" class="edge">
<title>Node2&#45;&gt;Node3</title>
<g id="a_edge2_Node000002_Node000003"><a xlink:title=" ">
<path fill="none" stroke="#63b8ff" d="M189.99,-77.4C178.52,-77.23 166.6,-77.2 155.01,-77.33"/>
<polygon fill="#63b8ff" stroke="#63b8ff" points="189.71,-80.89 199.77,-77.59 189.84,-73.9 189.71,-80.89"/>
</a>
</g>
</g>
<!-- Node3&#45;&gt;Node2 -->
<g id="edge3_Node000003_Node000002" class="edge">
<title>Node3&#45;&gt;Node2</title>
<g id="a_edge3_Node000003_Node000002"><a xlink:title=" ">
<path fill="none" stroke="#63b8ff" d="M166.32,-90.75C178.16,-90.78 190.08,-90.65 201.29,-90.38"/>
<polygon fill="#63b8ff" stroke="#63b8ff" points="166.55,-87.25 156.52,-90.68 166.5,-94.25 166.55,-87.25"/>
</a>
</g>
</g>
<!-- Node4&#45;&gt;Node4 -->
<g id="edge6_Node000004_Node000004" class="edge">
<title>Node4&#45;&gt;Node4</title>
<g id="a_edge6_Node000004_Node000004"><a xlink:title=" ">
<path fill="none" stroke="#63b8ff" d="M292.91,-43.71C287.78,-47.48 277.52,-50 262.12,-50 233.98,-50 222.99,-41.58 229.14,-32.44"/>
<polygon fill="#63b8ff" stroke="#63b8ff" points="296.34,-44.41 294.82,-33.93 289.47,-43.07 296.34,-44.41"/>
</a>
</g>
</g>
</g>
</svg>
