<?xml version="1.0" encoding="UTF-8" standalone="no"?>
<!DOCTYPE svg PUBLIC "-//W3C//DTD SVG 1.1//EN"
 "http://www.w3.org/Graphics/SVG/1.1/DTD/svg11.dtd">
<!-- Generated by graphviz version 12.2.1 (20241206.2353)
 -->
<!-- Title: domini.scrabble.Multiplicador Pages: 1 -->
<svg width="142pt" height="156pt"
 viewBox="0.00 0.00 142.00 156.00" xmlns="http://www.w3.org/2000/svg" xmlns:xlink="http://www.w3.org/1999/xlink">
<g id="graph0" class="graph" transform="scale(1 1) rotate(0) translate(4 152)">
<title>domini.scrabble.Multiplicador</title>
<!-- Node1 -->
<g id="Node000001" class="node">
<title>Node1</title>
<g id="a_Node000001"><a xlink:title="Representa els diferents tipus de multiplicadors d&#39;Scrabble.">
<polygon fill="#999999" stroke="none" points="134,-148 0,-148 0,0 134,0 134,-148"/>
<text text-anchor="start" x="4" y="-134.5" font-family="Helvetica,sans-Serif" font-size="10.00">domini.scrabble.Multiplicador</text>
<text text-anchor="start" x="11.25" y="-118.5" font-family="Helvetica,sans-Serif" font-size="10.00">+</text>
<text text-anchor="start" x="28.5" y="-118.5" font-family="Helvetica,sans-Serif" font-size="10.00">CAP</text>
<text text-anchor="start" x="11.25" y="-102.5" font-family="Helvetica,sans-Serif" font-size="10.00">+</text>
<text text-anchor="start" x="28.5" y="-102.5" font-family="Helvetica,sans-Serif" font-size="10.00">DOBLE_LLETRA</text>
<text text-anchor="start" x="11.25" y="-86.5" font-family="Helvetica,sans-Serif" font-size="10.00">+</text>
<text text-anchor="start" x="28.5" y="-86.5" font-family="Helvetica,sans-Serif" font-size="10.00">TRIPLE_LLETRA</text>
<text text-anchor="start" x="11.25" y="-70.5" font-family="Helvetica,sans-Serif" font-size="10.00">+</text>
<text text-anchor="start" x="28.5" y="-70.5" font-family="Helvetica,sans-Serif" font-size="10.00">DOBLE_PARAULA</text>
<text text-anchor="start" x="11.25" y="-54.5" font-family="Helvetica,sans-Serif" font-size="10.00">+</text>
<text text-anchor="start" x="28.5" y="-54.5" font-family="Helvetica,sans-Serif" font-size="10.00">TRIPLE_PARAULA</text>
<text text-anchor="start" x="12.75" y="-38.5" font-family="Helvetica,sans-Serif" font-size="10.00">&#45;</text>
<text text-anchor="start" x="28.5" y="-38.5" font-family="Helvetica,sans-Serif" font-size="10.00">multiplicador</text>
<text text-anchor="start" x="11.25" y="-22.5" font-family="Helvetica,sans-Serif" font-size="10.00">+</text>
<text text-anchor="start" x="28.5" y="-22.5" font-family="Helvetica,sans-Serif" font-size="10.00">getMultiplicador()</text>
<text text-anchor="start" x="12.75" y="-6.5" font-family="Helvetica,sans-Serif" font-size="10.00">&#45;</text>
<text text-anchor="start" x="28.5" y="-6.5" font-family="Helvetica,sans-Serif" font-size="10.00">Multiplicador()</text>
<polygon fill="#666666" stroke="#666666" points="0,-130 0,-130 134,-130 134,-130 0,-130"/>
<polygon fill="#666666" stroke="#666666" points="0,-34 0,-34 26.5,-34 26.5,-34 0,-34"/>
<polygon fill="#666666" stroke="#666666" points="26.5,-34 26.5,-34 134,-34 134,-34 26.5,-34"/>
<polygon fill="none" stroke="#666666" points="0,0 0,-148 134,-148 134,0 0,0"/>
</a>
</g>
</g>
</g>
</svg>
